<svg width="48" height="48" viewBox="0 0 48 48" fill="none" xmlns="http://www.w3.org/2000/svg">
<g clip-path="url(#clip0_6455_440)">
<path d="M1.20415 18.3179L1.20418 18.3178C4.34207 5.72743 17.0947 -1.93547 29.6823 1.20338L29.6823 1.20338C42.2727 4.34225 49.9353 17.0946 46.7967 29.6846C43.6565 42.2737 30.905 49.9356 18.313 46.7964C5.72623 43.6576 -1.93664 30.9063 1.20415 18.3179Z" fill="#F6F7F8" stroke="#E5EBF0"/>
<g opacity="0.5">
<path d="M23.29 27.29C23.247 27.3375 23.2069 27.3876 23.17 27.44C23.1322 27.4957 23.1019 27.5563 23.08 27.62C23.0512 27.6767 23.031 27.7374 23.02 27.8C23.0151 27.8666 23.0151 27.9334 23.02 28C23.0166 28.1312 23.044 28.2613 23.1 28.38C23.1449 28.5041 23.2166 28.6168 23.3099 28.7101C23.4032 28.8034 23.5159 28.8751 23.64 28.92C23.7597 28.9729 23.8891 29.0002 24.02 29.0002C24.1509 29.0002 24.2803 28.9729 24.4 28.92C24.5241 28.8751 24.6368 28.8034 24.7301 28.7101C24.8234 28.6168 24.8951 28.5041 24.94 28.38C24.9844 28.2584 25.0048 28.1294 25 28C25.0008 27.8684 24.9755 27.7379 24.9258 27.6161C24.876 27.4943 24.8027 27.3834 24.71 27.29C24.617 27.1963 24.5064 27.1219 24.3846 27.0711C24.2627 27.0203 24.132 26.9942 24 26.9942C23.868 26.9942 23.7373 27.0203 23.6154 27.0711C23.4936 27.1219 23.383 27.1963 23.29 27.29ZM24 14C22.0222 14 20.0888 14.5865 18.4443 15.6853C16.7998 16.7841 15.5181 18.3459 14.7612 20.1732C14.0043 22.0004 13.8063 24.0111 14.1922 25.9509C14.578 27.8907 15.5304 29.6725 16.9289 31.0711C18.3275 32.4696 20.1093 33.422 22.0491 33.8079C23.9889 34.1937 25.9996 33.9957 27.8268 33.2388C29.6541 32.4819 31.2159 31.2002 32.3147 29.5557C33.4135 27.9112 34 25.9778 34 24C34 22.6868 33.7413 21.3864 33.2388 20.1732C32.7363 18.9599 31.9997 17.8575 31.0711 16.9289C30.1425 16.0003 29.0401 15.2638 27.8268 14.7612C26.6136 14.2587 25.3132 14 24 14ZM24 32C22.4178 32 20.871 31.5308 19.5554 30.6518C18.2398 29.7727 17.2145 28.5233 16.609 27.0615C16.0035 25.5997 15.845 23.9911 16.1537 22.4393C16.4624 20.8874 17.2243 19.462 18.3432 18.3431C19.462 17.2243 20.8874 16.4624 22.4393 16.1537C23.9911 15.845 25.5997 16.0035 27.0615 16.609C28.5233 17.2145 29.7727 18.2398 30.6518 19.5554C31.5308 20.871 32 22.4177 32 24C32 26.1217 31.1572 28.1566 29.6569 29.6569C28.1566 31.1571 26.1217 32 24 32ZM24 19C23.4731 18.9997 22.9553 19.1381 22.4989 19.4014C22.0425 19.6648 21.6635 20.0437 21.4 20.5C21.3277 20.6138 21.2791 20.7411 21.2572 20.8742C21.2353 21.0073 21.2405 21.1434 21.2726 21.2744C21.3047 21.4054 21.363 21.5285 21.4439 21.6364C21.5248 21.7443 21.6267 21.8348 21.7435 21.9022C21.8602 21.9697 21.9895 22.0129 22.1233 22.0292C22.2572 22.0454 22.393 22.0345 22.5225 21.9969C22.6521 21.9593 22.7727 21.8959 22.8771 21.8105C22.9814 21.7251 23.0675 21.6195 23.13 21.5C23.2181 21.3474 23.345 21.2208 23.4978 21.133C23.6505 21.0452 23.8238 20.9993 24 21C24.2652 21 24.5196 21.1054 24.7071 21.2929C24.8946 21.4804 25 21.7348 25 22C25 22.2652 24.8946 22.5196 24.7071 22.7071C24.5196 22.8946 24.2652 23 24 23C23.7348 23 23.4804 23.1054 23.2929 23.2929C23.1054 23.4804 23 23.7348 23 24V25C23 25.2652 23.1054 25.5196 23.2929 25.7071C23.4804 25.8946 23.7348 26 24 26C24.2652 26 24.5196 25.8946 24.7071 25.7071C24.8946 25.5196 25 25.2652 25 25V24.82C25.6614 24.58 26.2174 24.1152 26.5708 23.5069C26.9242 22.8985 27.0525 22.1853 26.9334 21.4919C26.8143 20.7985 26.4552 20.169 25.919 19.7135C25.3828 19.258 24.7035 19.0055 24 19Z" fill="#697E8D"/>
</g>
</g>
<defs>
<clipPath id="clip0_6455_440">
<rect width="48" height="48" fill="white"/>
</clipPath>
</defs>
</svg>
