<svg width="48" height="48" viewBox="0 0 48 48" fill="none" xmlns="http://www.w3.org/2000/svg">
<g clip-path="url(#clip0_2_4056)">
<path d="M47.282 29.6C44.075 42.3683 31.052 50.1394 18.192 46.9555C5.33737 43.7719 -2.48864 30.8391 0.719023 18.0714C3.9237 5.30175 16.9477 -2.47028 29.8034 0.713279C42.6617 3.89684 50.4873 16.8307 47.282 29.6Z" fill="#F7931A"/>
<path d="M34.5787 20.5211C35.0564 17.3491 32.6244 15.6447 29.2994 14.5072L30.3777 10.2111L27.7447 9.55924L26.6944 13.7422C26.0014 13.5707 25.291 13.4092 24.584 13.2493L25.641 9.03853L23.0097 8.38672L21.93 12.6822C21.357 12.5525 20.7947 12.4247 20.2484 12.2896L20.251 12.2764L16.6197 11.376L15.919 14.1689C15.919 14.1689 17.8727 14.6135 17.8314 14.6413C18.898 14.9058 19.0904 15.6066 19.0584 16.1621L17.83 21.0564C17.9034 21.0753 17.9984 21.1014 18.1037 21.1438C18.0157 21.1219 17.922 21.0984 17.8257 21.0753L16.1037 27.931C15.973 28.2528 15.642 28.7357 14.8967 28.5523C14.923 28.5901 12.9817 28.078 12.9817 28.078L11.675 31.0709L15.1017 31.9193C15.7387 32.0779 16.3644 32.2434 16.979 32.4003L15.89 36.7458L18.5204 37.3976L19.5994 33.0984C20.3187 33.2918 21.016 33.4709 21.6987 33.6394L20.6234 37.9183L23.2567 38.5701L24.3467 34.2329C28.8377 35.0764 32.2147 34.7361 33.6354 30.7031C34.781 27.4556 33.5787 25.5823 31.216 24.3605C32.9364 23.9665 34.233 22.8423 34.5787 20.5211ZM28.5624 28.8999C27.7477 32.1477 22.2424 30.3919 20.4564 29.9513L21.9024 24.1949C23.6874 24.6369 29.4124 25.5128 28.5624 28.8999ZM29.3757 20.4744C28.6337 23.4286 24.0507 21.9274 22.564 21.5592L23.8747 16.3382C25.361 16.7063 30.1494 17.3932 29.3757 20.4744Z" fill="white"/>
</g>
<defs>
<clipPath id="clip0_2_4056">
<rect width="48" height="48" fill="white"/>
</clipPath>
</defs>
</svg>
