<svg width="48" height="48" viewBox="0 0 48 48" fill="none" xmlns="http://www.w3.org/2000/svg">
<path d="M45 26.6667C45 38.4487 35.598 48 24 48C12.402 48 3 38.4487 3 26.6667C3 14.8846 22.902 0 24 0C25.098 0 45 14.8846 45 26.6667Z" fill="#00C7F9"/>
<path d="M26.4403 13.8479C26.6925 13.8479 26.8671 14.0997 26.7791 14.336C25.7788 17.0214 24.7692 19.877 23.5963 22.7451C23.4134 23.1922 23.2892 23.8884 23.7723 23.8884H32.8603C33.0145 23.8884 33.1551 23.9763 33.2227 24.1149C33.2939 24.2607 33.2707 24.4349 33.164 24.557L20.0886 39.5229C19.8639 39.78 19.4543 39.7576 19.445 39.4164C19.4427 39.3328 19.4619 39.2601 19.4965 39.184L24.1589 28.9435C24.2043 28.8436 24.2279 28.7352 24.2279 28.6254C24.2279 28.2016 23.8842 27.8579 23.4604 27.8579H15.3368C14.963 27.8579 14.66 27.5549 14.66 27.1812C14.66 27.0155 14.7208 26.8555 14.8309 26.7316L26.1704 13.9692C26.2389 13.892 26.3372 13.8479 26.4403 13.8479Z" fill="white"/>
</svg>
