<svg width="48" height="48" viewBox="0 0 48 48" fill="none" xmlns="http://www.w3.org/2000/svg">
<g clip-path="url(#clip0_2_4209)">
<path d="M47.282 29.8056C44.075 42.6626 31.052 50.4876 18.192 47.2816C5.33737 44.0759 -2.48864 31.0532 0.719023 18.1969C3.9237 5.33857 16.9477 -2.48743 29.8034 0.718232C42.6617 3.9239 50.4873 16.9476 47.282 29.8056Z" fill="#F7931A"/>
<path d="M26.6127 10C26.8827 10 27.0696 10.2696 26.9754 10.5226C25.9045 13.3977 24.8235 16.4552 23.5677 19.5259C23.3719 20.0046 23.2389 20.75 23.7561 20.75H33.4863C33.6514 20.75 33.802 20.8441 33.8744 20.9925C33.9505 21.1485 33.9257 21.335 33.8115 21.4658L19.8121 37.4892C19.5716 37.7645 19.133 37.7405 19.1231 37.3752C19.1207 37.2857 19.1411 37.2078 19.1782 37.1263L24.17 26.1622C24.2187 26.0553 24.2439 25.9392 24.2439 25.8217C24.2439 25.3679 23.876 25 23.4222 25H14.7246C14.3244 25 14 24.6756 14 24.2754C14 24.098 14.0651 23.9267 14.1829 23.7941L26.3237 10.1298C26.397 10.0473 26.5022 10 26.6127 10Z" fill="white"/>
</g>
<defs>
<clipPath id="clip0_2_4209">
<rect width="48" height="48" fill="white"/>
</clipPath>
</defs>
</svg>
