<svg width="48" height="48" viewBox="0 0 48 48" fill="none" xmlns="http://www.w3.org/2000/svg">
<path d="M45 26.6667C45 38.4487 35.598 48 24 48C12.402 48 3 38.4487 3 26.6667C3 14.8846 22.902 0 24 0C25.098 0 45 14.8846 45 26.6667Z" fill="#00A398"/>
<path d="M32.4117 23.6485C32.7915 21.1263 30.8577 19.771 28.2139 18.8666L29.0713 15.4505L26.9777 14.9323L26.1425 18.2583C25.5915 18.1219 25.0267 17.9935 24.4645 17.8664L25.305 14.5182L23.2127 13.9999L22.3542 17.4155C21.8986 17.3123 21.4515 17.2107 21.0171 17.1033L21.0192 17.0928L18.1318 16.3768L17.5746 18.5976C17.5746 18.5976 19.1281 18.9511 19.0952 18.9732C19.9434 19.1835 20.0963 19.7407 20.0709 20.1824L19.0942 24.0741C19.1525 24.0891 19.228 24.1099 19.3118 24.1436C19.2418 24.1262 19.1673 24.1075 19.0907 24.0891L17.7215 29.5404C17.6176 29.7962 17.3544 30.1802 16.7617 30.0344C16.7827 30.0644 15.2391 29.6572 15.2391 29.6572L14.2001 32.037L16.9248 32.7116C17.4313 32.8377 17.9287 32.9693 18.4175 33.0941L17.5516 36.5493L19.6431 37.0676L20.501 33.6492C21.073 33.8029 21.6275 33.9453 22.1703 34.0793L21.3152 37.4817L23.4091 37.9999L24.2758 34.5513C27.8468 35.2219 30.532 34.9513 31.6616 31.7446C32.5726 29.1624 31.6165 27.6728 29.7379 26.7013C31.1058 26.3881 32.1368 25.4942 32.4117 23.6485ZM27.6279 30.3108C26.9801 32.8932 22.6026 31.4971 21.1825 31.1468L22.3322 26.5697C23.7516 26.9211 28.3037 27.6175 27.6279 30.3108ZM28.2746 23.6114C27.6846 25.9603 24.0405 24.7666 22.8583 24.4739L23.9005 20.3224C25.0823 20.6151 28.8897 21.1613 28.2746 23.6114Z" fill="white"/>
</svg>
