<svg width="48" height="48" viewBox="0 0 48 48" fill="none" xmlns="http://www.w3.org/2000/svg">
<circle cx="24" cy="24" r="24" fill="#0D8150"/>
<path d="M30.7088 29.3246C32.7308 27.3301 34.7869 25.3015 36.8207 23.2952C36.9607 23.1552 37.2002 23.2559 37.2002 23.4535V34.5832C37.2002 34.7311 37.0785 34.8502 36.9306 34.8502H35.9818C35.9347 34.8502 35.8889 34.8293 35.8535 34.7939C34.2571 33.177 32.6808 31.5801 31.1049 29.9837L30.7088 29.5825C30.6368 29.5105 30.6368 29.3966 30.7088 29.3246Z" fill="white"/>
<path d="M10.8 23.4248C10.8 23.2036 11.067 23.0976 11.2214 23.2546C13.2722 25.3316 15.2746 27.3576 17.2888 29.3979C17.387 29.4961 17.387 29.6544 17.2888 29.75C15.6057 31.4121 13.8991 33.0952 12.2004 34.7717C12.1506 34.8214 12.0839 34.8476 12.0132 34.8476H11.0696C10.9217 34.8476 10.8 34.7285 10.8 34.5806V23.4248Z" fill="white"/>
<path d="M36.6139 13.1968C36.7801 13.0306 37.0668 13.1523 37.0681 13.3879L37.0694 20.3008C37.0537 20.3165 28.4342 28.9019 24.0642 33.2535C23.9543 33.3648 23.7776 33.3635 23.669 33.2535C20.3068 29.8508 10.8837 20.4447 10.8105 20.3243L10.8052 13.7648C10.8052 13.5266 11.0971 13.4075 11.2646 13.5777C15.4356 17.7918 19.5006 21.9001 23.6245 26.0671C23.6926 26.1352 23.8051 26.1404 23.8732 26.0698L36.6139 13.1968Z" fill="white"/>
</svg>
