<svg width="24" height="24" viewBox="0 0 24 24" fill="none" xmlns="http://www.w3.org/2000/svg">
<rect width="24" height="24" rx="12" fill="black"/>
<path d="M18.9279 15.5183L16.6168 17.9329C16.5666 17.9853 16.5058 18.0271 16.4382 18.0557C16.3707 18.0843 16.2978 18.099 16.2242 18.099H5.26831C5.21603 18.099 5.16489 18.0841 5.12118 18.0562C5.07746 18.0283 5.04307 17.9885 5.02224 17.9418C5.0014 17.8951 4.99502 17.8435 5.00389 17.7933C5.01275 17.7431 5.03647 17.6965 5.07214 17.6593L7.385 15.2447C7.43511 15.1924 7.4957 15.1506 7.56303 15.1221C7.63036 15.0935 7.703 15.0787 7.77645 15.0785H18.7317C18.784 15.0785 18.8351 15.0934 18.8789 15.1213C18.9225 15.1493 18.9569 15.189 18.9778 15.2357C18.9986 15.2825 19.005 15.3341 18.9961 15.3843C18.9872 15.4344 18.9635 15.481 18.9279 15.5183ZM16.6168 10.6559C16.5666 10.6034 16.5058 10.5616 16.4382 10.533C16.3707 10.5045 16.2978 10.4897 16.2242 10.4898H5.26831C5.21603 10.4898 5.16489 10.5046 5.12118 10.5326C5.07746 10.5605 5.04307 10.6003 5.02224 10.647C5.0014 10.6937 4.99502 10.7453 5.00389 10.7955C5.01275 10.8457 5.03647 10.8922 5.07214 10.9295L7.385 13.3441C7.43511 13.3964 7.4957 13.4381 7.56303 13.4667C7.63036 13.4953 7.703 13.5101 7.77645 13.5102H18.7317C18.784 13.5102 18.8351 13.4953 18.8789 13.4674C18.9225 13.4395 18.9569 13.3997 18.9778 13.353C18.9986 13.3063 19.005 13.2547 18.9961 13.2045C18.9872 13.1543 18.9635 13.1078 18.9279 13.0705L16.6168 10.6559ZM5.26831 8.92145H16.2242C16.2978 8.92148 16.3707 8.90676 16.4382 8.87818C16.5058 8.84959 16.5666 8.80777 16.6168 8.75532L18.9279 6.3407C18.9635 6.30346 18.9872 6.25689 18.9961 6.2067C19.005 6.15651 18.9986 6.10489 18.9778 6.05818C18.9569 6.01148 18.9225 5.97172 18.8789 5.94379C18.8351 5.91587 18.784 5.90099 18.7317 5.90099H7.77645C7.703 5.90111 7.63036 5.91591 7.56303 5.94449C7.4957 5.97306 7.43511 6.0148 7.385 6.06711L5.07273 8.48174C5.0371 8.51893 5.01339 8.56546 5.00451 8.61559C4.99562 8.66572 5.00195 8.7173 5.02271 8.76399C5.04348 8.81067 5.07777 8.85043 5.1214 8.8784C5.16502 8.90637 5.21608 8.92133 5.26831 8.92145Z" fill="url(#paint0_linear_1893_2536)"/>
<defs>
<linearGradient id="paint0_linear_1893_2536" x1="6.18176" y1="18.3897" x2="17.3357" y2="5.48289" gradientUnits="userSpaceOnUse">
<stop offset="0.08" stop-color="#9945FF"/>
<stop offset="0.3" stop-color="#8752F3"/>
<stop offset="0.5" stop-color="#5497D5"/>
<stop offset="0.6" stop-color="#43B4CA"/>
<stop offset="0.72" stop-color="#28E0B9"/>
<stop offset="0.97" stop-color="#19FB9B"/>
</linearGradient>
</defs>
</svg>
