<svg width="24" height="24" viewBox="0 0 24 24" fill="none" xmlns="http://www.w3.org/2000/svg">
<rect width="24" height="24" rx="12" fill="#0098EA"/>
<path d="M16.0973 6.69998H7.90232C6.39555 6.69998 5.44052 8.32534 6.19858 9.6393L11.2562 18.4056C11.5863 18.978 12.4134 18.978 12.7434 18.4056L17.8021 9.6393C18.5591 8.32744 17.6041 6.69998 16.0984 6.69998H16.0973ZM11.2521 15.7767L10.1506 13.645L7.49291 8.89157C7.31758 8.58732 7.53413 8.19745 7.90129 8.19745H11.2511V15.7778L11.2521 15.7767ZM16.5047 8.89054L13.848 13.646L12.7465 15.7767V8.19642H16.0963C16.4635 8.19642 16.68 8.5863 16.5047 8.89054Z" fill="white"/>
</svg>
