<svg width="24" height="24" viewBox="0 0 24 24" fill="none" xmlns="http://www.w3.org/2000/svg">
<rect width="24" height="24" rx="12" fill="#FF060A"/>
<g clip-path="url(#clip0_1893_2331)">
<path d="M18.2332 9.31689C17.6003 8.73259 16.7249 7.84032 16.012 7.20751L15.9698 7.17798C15.8996 7.12161 15.8205 7.07741 15.7357 7.0472C14.0165 6.72657 6.01565 5.23103 5.85956 5.25001C5.81582 5.25614 5.77401 5.27199 5.73722 5.29642L5.69714 5.32806C5.64779 5.37818 5.61031 5.43873 5.58745 5.50525L5.5769 5.53267V5.68243V5.70564C6.47761 8.21368 10.034 16.4297 10.7343 18.3577C10.7765 18.4884 10.8567 18.7374 11.0064 18.75H11.0402C11.1203 18.75 11.4621 18.2986 11.4621 18.2986C11.4621 18.2986 17.5708 10.8905 18.1889 10.1016C18.2689 10.0044 18.3395 9.89987 18.3998 9.78939C18.4152 9.70294 18.4079 9.61399 18.3787 9.53118C18.3495 9.44838 18.2994 9.37455 18.2332 9.31689ZM13.0293 10.1796L15.6365 8.01751L17.1658 9.42657L13.0293 10.1796ZM12.0168 10.0383L7.52808 6.35954L14.7907 7.699L12.0168 10.0383ZM12.4218 11.0023L17.016 10.2619L11.7637 16.59L12.4218 11.0023ZM6.91847 6.72657L11.6414 10.7344L10.9579 16.5942L6.91847 6.72657Z" fill="white"/>
</g>
<defs>
<clipPath id="clip0_1893_2331">
<rect width="13.5" height="13.5" fill="white" transform="translate(5.25 5.25)"/>
</clipPath>
</defs>
</svg>
