<svg width="48" height="48" viewBox="0 0 48 48" fill="none" xmlns="http://www.w3.org/2000/svg">
<path fill-rule="evenodd" clip-rule="evenodd" d="M10.4538 4.80005H38.1013C38.7609 4.80005 39.3704 5.14189 39.6994 5.69648L47.7544 19.2745C48.1719 19.9787 48.048 20.8674 47.4521 21.4384L25.2808 42.6863C24.5626 43.3746 23.4073 43.3746 22.6891 42.6863L0.547898 21.4671C-0.0617621 20.8828 -0.175924 19.9681 0.272389 19.2596L8.88238 5.65292C9.21771 5.123 9.81275 4.80005 10.4538 4.80005ZM34.5315 10.8622V14.6719H26.6558V17.3134C32.1871 17.5956 36.3371 18.755 36.3679 20.1446L36.3677 23.0415C36.3369 24.4311 32.1871 25.5904 26.6558 25.8727V32.3551H21.4263V25.8727C15.895 25.5904 11.745 24.4311 11.7142 23.0415L11.7144 20.1446C11.7452 18.755 15.895 17.5956 21.4263 17.3134V14.6719H13.5506V10.8622H34.5315ZM24.0411 23.8825C29.944 23.8825 34.8778 22.9022 36.0852 21.593C35.0613 20.4829 31.3577 19.6092 26.6558 19.3692V22.1348C25.8131 22.1778 24.9382 22.2005 24.0411 22.2005C23.1438 22.2005 22.269 22.1778 21.4263 22.1348V19.3692C16.7244 19.6092 13.0208 20.4829 11.9969 21.593C13.2043 22.9022 18.1381 23.8825 24.0411 23.8825Z" fill="#009393"/>
<path fill-rule="evenodd" clip-rule="evenodd" d="M34.5314 10.8622V14.6719H26.6558V17.3134C32.187 17.5957 36.337 18.755 36.3678 20.1446L36.3676 23.0415C36.3368 24.4311 32.187 25.5905 26.6558 25.8727V32.3551H21.4262V25.8727C15.8949 25.5905 11.7449 24.4311 11.7141 23.0415L11.7143 20.1446C11.7451 18.755 15.8949 17.5957 21.4262 17.3134V14.6719H13.5505V10.8622H34.5314ZM24.041 23.8826C29.9439 23.8826 34.8777 22.9022 36.0851 21.5931C35.0612 20.4829 31.3576 19.6092 26.6558 19.3692V22.1348C25.813 22.1778 24.9382 22.2005 24.041 22.2005C23.1438 22.2005 22.2689 22.1778 21.4262 22.1348V19.3692C16.7243 19.6092 13.0207 20.4829 11.9968 21.5931C13.2042 22.9022 18.1381 23.8826 24.041 23.8826Z" fill="white"/>
<rect x="24" y="24" width="24" height="24" rx="12" fill="black"/>
<path d="M42.9279 39.5183L40.6168 41.9329C40.5666 41.9853 40.5058 42.0272 40.4382 42.0557C40.3707 42.0843 40.2978 42.0991 40.2242 42.099H29.2683C29.216 42.099 29.1649 42.0841 29.1212 42.0562C29.0775 42.0283 29.0431 41.9885 29.0222 41.9418C29.0014 41.8951 28.995 41.8435 29.0039 41.7933C29.0128 41.7431 29.0365 41.6965 29.0721 41.6593L31.385 39.2447C31.4351 39.1924 31.4957 39.1506 31.563 39.1221C31.6304 39.0935 31.703 39.0787 31.7764 39.0786H42.7317C42.784 39.0786 42.8351 39.0934 42.8789 39.1214C42.9225 39.1493 42.9569 39.1891 42.9778 39.2358C42.9986 39.2825 43.005 39.3341 42.9961 39.3843C42.9872 39.4345 42.9635 39.481 42.9279 39.5183ZM40.6168 34.6559C40.5666 34.6034 40.5058 34.5616 40.4382 34.533C40.3707 34.5045 40.2978 34.4897 40.2242 34.4898H29.2683C29.216 34.4898 29.1649 34.5047 29.1212 34.5326C29.0775 34.5605 29.0431 34.6003 29.0222 34.647C29.0014 34.6937 28.995 34.7453 29.0039 34.7955C29.0128 34.8457 29.0365 34.8923 29.0721 34.9295L31.385 37.3441C31.4351 37.3964 31.4957 37.4382 31.563 37.4667C31.6304 37.4953 31.703 37.5101 31.7764 37.5102H42.7317C42.784 37.5102 42.8351 37.4954 42.8789 37.4674C42.9225 37.4395 42.9569 37.3997 42.9778 37.353C42.9986 37.3063 43.005 37.2547 42.9961 37.2045C42.9872 37.1543 42.9635 37.1078 42.9279 37.0705L40.6168 34.6559ZM29.2683 32.9215H40.2242C40.2978 32.9215 40.3707 32.9068 40.4382 32.8782C40.5058 32.8496 40.5666 32.8078 40.6168 32.7553L42.9279 30.3407C42.9635 30.3035 42.9872 30.2569 42.9961 30.2067C43.005 30.1565 42.9986 30.1049 42.9778 30.0582C42.9569 30.0115 42.9225 29.9717 42.8789 29.9438C42.8351 29.9159 42.784 29.901 42.7317 29.901H31.7764C31.703 29.9011 31.6304 29.9159 31.563 29.9445C31.4957 29.9731 31.4351 30.0148 31.385 30.0671L29.0727 32.4818C29.0371 32.5189 29.0134 32.5655 29.0045 32.6156C28.9956 32.6657 29.0019 32.7173 29.0227 32.764C29.0435 32.8107 29.0778 32.8504 29.1214 32.8784C29.165 32.9064 29.2161 32.9213 29.2683 32.9215Z" fill="url(#paint0_linear_1745_16083)"/>
<defs>
<linearGradient id="paint0_linear_1745_16083" x1="30.1818" y1="42.3897" x2="41.3357" y2="29.4829" gradientUnits="userSpaceOnUse">
<stop offset="0.08" stop-color="#9945FF"/>
<stop offset="0.3" stop-color="#8752F3"/>
<stop offset="0.5" stop-color="#5497D5"/>
<stop offset="0.6" stop-color="#43B4CA"/>
<stop offset="0.72" stop-color="#28E0B9"/>
<stop offset="0.97" stop-color="#19FB9B"/>
</linearGradient>
</defs>
</svg>
