<svg width="48" height="48" viewBox="0 0 48 48" fill="none" xmlns="http://www.w3.org/2000/svg">
<path fill-rule="evenodd" clip-rule="evenodd" d="M10.4538 4.80005H38.1013C38.7609 4.80005 39.3704 5.14189 39.6994 5.69648L47.7544 19.2745C48.1719 19.9787 48.048 20.8674 47.4521 21.4384L25.2808 42.6863C24.5626 43.3746 23.4073 43.3746 22.6891 42.6863L0.547898 21.4671C-0.0617621 20.8828 -0.175924 19.9681 0.272389 19.2596L8.88238 5.65292C9.21771 5.123 9.81275 4.80005 10.4538 4.80005ZM34.5315 10.8622V14.6719H26.6558V17.3134C32.1871 17.5956 36.3371 18.755 36.3679 20.1446L36.3677 23.0415C36.3369 24.4311 32.1871 25.5904 26.6558 25.8727V32.3551H21.4263V25.8727C15.895 25.5904 11.745 24.4311 11.7142 23.0415L11.7144 20.1446C11.7452 18.755 15.895 17.5956 21.4263 17.3134V14.6719H13.5506V10.8622H34.5315ZM24.0411 23.8825C29.944 23.8825 34.8778 22.9022 36.0852 21.593C35.0613 20.4829 31.3577 19.6092 26.6558 19.3692V22.1348C25.8131 22.1778 24.9382 22.2005 24.0411 22.2005C23.1438 22.2005 22.269 22.1778 21.4263 22.1348V19.3692C16.7244 19.6092 13.0208 20.4829 11.9969 21.593C13.2043 22.9022 18.1381 23.8825 24.0411 23.8825Z" fill="#009393"/>
<path fill-rule="evenodd" clip-rule="evenodd" d="M34.5314 10.8622V14.6719H26.6558V17.3134C32.187 17.5957 36.337 18.755 36.3678 20.1446L36.3676 23.0415C36.3368 24.4311 32.187 25.5905 26.6558 25.8727V32.3551H21.4262V25.8727C15.8949 25.5905 11.7449 24.4311 11.7141 23.0415L11.7143 20.1446C11.7451 18.755 15.8949 17.5957 21.4262 17.3134V14.6719H13.5505V10.8622H34.5314ZM24.041 23.8826C29.9439 23.8826 34.8777 22.9022 36.0851 21.5931C35.0612 20.4829 31.3576 19.6092 26.6558 19.3692V22.1348C25.813 22.1778 24.9382 22.2005 24.041 22.2005C23.1438 22.2005 22.2689 22.1778 21.4262 22.1348V19.3692C16.7243 19.6092 13.0207 20.4829 11.9968 21.5931C13.2042 22.9022 18.1381 23.8826 24.041 23.8826Z" fill="white"/>
<rect x="24" y="24" width="24" height="24" rx="12" fill="#FF060A"/>
<g clip-path="url(#clip0_54_2827)">
<path d="M42.2332 33.3169C41.6003 32.7326 40.7249 31.8403 40.012 31.2075L39.9698 31.178C39.8996 31.1216 39.8205 31.0774 39.7357 31.0472C38.0165 30.7266 30.0157 29.231 29.8596 29.25C29.8158 29.2562 29.774 29.272 29.7372 29.2964L29.6971 29.3281C29.6478 29.3782 29.6103 29.4387 29.5875 29.5053L29.5769 29.5327V29.6824V29.7057C30.4776 32.2137 34.034 40.4297 34.7343 42.3577C34.7765 42.4885 34.8567 42.7374 35.0064 42.75H35.0402C35.1203 42.75 35.4621 42.2986 35.4621 42.2986C35.4621 42.2986 41.5708 34.8905 42.1889 34.1016C42.2689 34.0044 42.3395 33.8999 42.3998 33.7894C42.4152 33.703 42.4079 33.614 42.3787 33.5312C42.3495 33.4484 42.2994 33.3746 42.2332 33.3169ZM37.0293 34.1796L39.6365 32.0175L41.1658 33.4266L37.0293 34.1796ZM36.0168 34.0383L31.5281 30.3596L38.7907 31.699L36.0168 34.0383ZM36.4218 35.0023L41.016 34.2619L35.7637 40.59L36.4218 35.0023ZM30.9185 30.7266L35.6414 34.7344L34.9579 40.5942L30.9185 30.7266Z" fill="white"/>
</g>
<defs>
<clipPath id="clip0_54_2827">
<rect width="13.5" height="13.5" fill="white" transform="translate(29.25 29.25)"/>
</clipPath>
</defs>
</svg>
