<svg width="48" height="48" viewBox="0 0 48 48" fill="none" xmlns="http://www.w3.org/2000/svg">
<path d="M45 26.6667C45 38.4487 35.598 48 24 48C12.402 48 3 38.4487 3 26.6667C3 14.8846 22.902 0 24 0C25.098 0 45 14.8846 45 26.6667Z" fill="#009393"/>
<path fill-rule="evenodd" clip-rule="evenodd" d="M32.5102 19V22.0906H26.1212V24.2335C30.6084 24.4625 33.975 25.403 34 26.5303L33.9999 28.8803C33.9749 30.0076 30.6084 30.9481 26.1212 31.1771V36.4359H21.8788V31.1771C17.3916 30.9481 14.025 30.0076 14 28.8803L14.0002 26.5303C14.0251 25.403 17.3916 24.4625 21.8788 24.2335V22.0906H15.4898V19H32.5102ZM24 29.5626C28.7887 29.5626 32.7912 28.7673 33.7707 27.7053C32.94 26.8047 29.9356 26.0959 26.1212 25.9012V28.1448C25.4375 28.1797 24.7278 28.1981 24 28.1981C23.2722 28.1981 22.5625 28.1797 21.8788 28.1448V25.9012C18.0644 26.0959 15.06 26.8047 14.2293 27.7053C15.2088 28.7673 19.2113 29.5626 24 29.5626Z" fill="white"/>
</svg>
