<svg width="161" height="30" viewBox="0 0 161 30" fill="none" xmlns="http://www.w3.org/2000/svg">
<path fill-rule="evenodd" clip-rule="evenodd" d="M0 20.555L18.109 0L36.2203 20.555L25.1708 29.7394H11.0614L0 20.555ZM18.1113 26.0963H18.3073C21.9386 25.9948 25.0811 23.23 25.074 19.6932C25.074 18.5127 24.5121 16.8695 23.9431 15.9156C23.6298 15.3206 21.7379 11.9971 18.2672 5.94504C18.2152 5.79865 17.998 5.79865 17.9484 5.94504C17.9484 5.94504 12.8675 14.787 12.2726 15.9227C11.7036 16.8765 11.1416 18.5198 11.1416 19.7003C11.1416 23.23 14.2841 25.9971 17.9201 26.0987H18.109L18.1113 26.0963Z" fill="black"/>
<path d="M74.1399 26.85H68.9244L61.4778 12.5281L54.0312 26.85H48.8086L61.4802 2.84082L74.1423 26.85H74.1399Z" fill="black"/>
<path d="M99.3353 23.3907C100.098 22.6587 100.754 21.8253 101.307 20.8903C102.398 19.044 102.943 16.9852 102.943 14.7139C102.943 12.4426 102.393 10.3791 101.29 8.52099C100.188 6.66287 98.6861 5.19904 96.7831 4.1295C94.8801 3.05996 92.7481 2.52637 90.3895 2.52637C88.0308 2.52637 85.9271 3.05996 84.0124 4.1295C82.0976 5.19668 80.5912 6.6605 79.4886 8.52099C78.3861 10.3791 77.8359 12.445 77.8359 14.7139C77.8359 16.9829 78.3861 19.044 79.4886 20.8903C80.5912 22.739 82.0976 24.191 84.0124 25.2464C85.8941 26.2853 87.993 26.8141 90.3068 26.8307L104.742 26.8472V23.3883H99.3377L99.3353 23.3907ZM97.057 18.4797C96.3841 19.6107 95.4609 20.4984 94.2899 21.1453C93.1377 21.7804 91.8556 22.1039 90.439 22.1134H90.3375C88.9233 22.1015 87.6389 21.7804 86.4867 21.143C85.3156 20.4961 84.3925 19.6083 83.7196 18.4774C83.0467 17.3465 82.7091 16.088 82.7091 14.6998C82.7091 13.3115 83.0467 12.0483 83.7196 10.9103C84.3925 9.77468 85.3156 8.8775 86.4867 8.2235C87.6578 7.5695 88.9587 7.24368 90.3871 7.24368C91.8179 7.24368 93.1164 7.5695 94.2875 8.2235C95.4586 8.8775 96.3817 9.77232 97.0546 10.9103C97.7275 12.0483 98.0651 13.3091 98.0651 14.6998C98.0651 16.0904 97.7275 17.3488 97.0546 18.4774L97.057 18.4797Z" fill="black"/>
<path d="M131.604 2.88477V16.9163C131.604 18.9326 131.167 20.7222 130.296 22.2852C129.424 23.8482 128.194 25.0594 126.61 25.9212C125.023 26.783 123.224 27.2127 121.208 27.2127C119.192 27.2127 117.362 26.783 115.79 25.9212C114.215 25.0618 112.992 23.8435 112.121 22.2687C111.249 20.6939 110.812 18.9113 110.812 16.9186V2.88477H115.773V16.9163C115.773 18.0496 116 19.0506 116.453 19.9242C116.906 20.7954 117.541 21.4707 118.356 21.9452C119.17 22.4198 120.122 22.6583 121.21 22.6583C122.299 22.6583 123.22 22.4198 124.048 21.9452C124.875 21.4683 125.515 20.7954 125.968 19.9242C126.421 19.053 126.648 18.0496 126.648 16.9163V2.88477H131.608H131.604Z" fill="black"/>
<path d="M161.003 26.85H155.788L148.341 12.5281L140.894 26.85H135.672L148.343 2.84082L161.006 26.85H161.003Z" fill="black"/>
</svg>
