<svg width="20" height="34" viewBox="0 0 20 34" fill="none" xmlns="http://www.w3.org/2000/svg">
<path d="M10 23.3649V19.7798C6.50058 19.7798 3.6668 16.946 3.6668 13.4466V13.396H0C0 18.904 4.46867 23.3726 9.97665 23.3687H10V23.3649Z" fill="#191919"/>
<path d="M14.0365 7.88024L17.5399 6.10523V0.967041H3.66675V4.45478H13.729L6.99489 7.70896V10.6323H9.99995C13.4994 10.6323 16.3332 13.4661 16.3332 16.9655V17.0628C16.3332 20.5622 13.4994 23.396 9.99995 23.396V26.9811H10.035C15.5391 26.9772 19.9999 22.5124 19.9999 17.0083C19.9999 12.9328 17.5476 9.42558 14.0365 7.88024Z" fill="#191919"/>
<path d="M17.5399 29.5383H3.66675V33.0261H17.5399V29.5383Z" fill="#F7931A"/>
</svg>
