<svg width="77" height="32" viewBox="0 0 77 32" fill="none" xmlns="http://www.w3.org/2000/svg">
<path d="M18.7116 12.9896V9.5445H3.49136V12.9896H9.18478V25.7729C9.18478 27.3095 7.9391 28.5549 6.40248 28.5549C4.86587 28.5549 3.62019 27.3095 3.62019 25.7729V24.0857H0V25.4325C0 29.0597 2.94021 32 6.56716 32C10.1941 32 13.1343 29.0597 13.1343 25.4325V12.9896H18.7116Z" fill="black"/>
<path d="M29.3831 21.823H23.1508L26.881 12.9896H29.3831V9.5445H24.036L14.6763 31.7093H18.9761L21.6961 25.2681H29.3831V31.7093H33.3326V12.9896H29.3831V21.823Z" fill="black"/>
<path d="M50.9818 27.6017L44.0828 9.54606H37.4766V31.7078H41.4256V13.6372L48.3304 31.7078H54.9308V9.54606H50.9818V27.6017Z" fill="black"/>
<path d="M67.0163 22.1198V18.578C63.5619 18.578 60.7612 15.7773 60.7612 12.3224V12.2712H57.1403C57.1403 17.7127 61.5536 22.1235 66.9951 22.1198H67.0163Z" fill="black"/>
<path d="M71.0014 6.82763L74.4635 5.07534V0H60.7602V3.44459H70.6978L64.0481 6.65695L64.0486 6.65798V9.54606H67.0163C70.4712 9.54606 73.2719 12.3467 73.2719 15.8011V15.8979C73.2719 19.3528 70.4712 22.1535 67.0163 22.1535V25.6953H67.0499C72.4868 25.6917 76.8923 21.2835 76.8923 15.8467C76.8923 11.8156 74.4697 8.35183 71.0014 6.82763Z" fill="black"/>
<path d="M60.7602 31.6649H74.4635V28.2198H60.7602V31.6649Z" fill="#F68C21"/>
</svg>
