<svg fill="none" height="18" viewBox="0 0 26 18" width="26" xmlns="http://www.w3.org/2000/svg"><g fill="#fff"><path d="m23.3508.345703h-19.95541c-.82695 0-1.49977.672827-1.49977 1.499767v.25582h-.05015c-.82694 0-1.499767.67283-1.499767 1.49977v12.55254c0 .827.672827 1.4998 1.499767 1.4998h19.95543c.8269 0 1.5-.6728 1.5-1.4998v-.2558h.0499c.8269 0 1.4997-.6728 1.4997-1.4998v-12.55253c0-.82694-.6728-1.499767-1.4997-1.499767zm-.4751 15.127397v.2125.2125.2558c0 .5927-.4822 1.0748-1.0751 1.0748h-19.95541c-.59266 0-1.074826-.4821-1.074826-1.0748v-12.55284c0-.59266.482166-1.07483 1.074826-1.07483h.05014.21247.21248 19.48032c.5929 0 1.0751.48217 1.0751 1.07483zm1.5499-1.0751c0 .5927-.4822 1.0749-1.0748 1.0749h-.0499v-11.87184c0-.82694-.6728-1.49977-1.5-1.49977h-19.48062v-.25582c0-.59265.48217-1.074823 1.07482-1.074823h19.9554c.5926 0 1.0748.482173 1.0748 1.074823z"/><path clip-rule="evenodd" d="m3.39584 0h19.95536c1.0181 0 1.8459.827807 1.8459 1.84592v12.55258c0 .9177-.6725 1.6808-1.5508 1.8224-.0353.9873-.8493 1.7791-1.845 1.7791h-19.95538c-1.018113 0-1.84592-.8278-1.84592-1.8459v-12.55259c0-.91779.672703-1.68093 1.55111-1.82242.03528-.987264.84898-1.77909 1.84473-1.77909zm19.13416 3.60151c0-.40142-.3272-.72867-.729-.72867h-19.95536c-.40148 0-.72867.32719-.72867.72867v12.55289c0 .4014.32719.7286.72867.7286h19.95536c.4018 0 .729-.3272.729-.7286zm1.1175 11.46259c.2545-.1139.4324-.3695.4324-.6656l-.0003-12.55258c0-.40148-.3272-.72867-.7287-.72867h-19.95535c-.3709 0-.67839.27925-.72309.63834h19.12884c1.0184 0 1.8462.82776 1.8462 1.84592zm0 .3677c-.0941.027-.1936.0415-.2963.0415h-.0498v-11.87179c0-.82694-.6729-1.49977-1.5001-1.49977h-19.48057v-.25582c0-.03042.00127-.06055.00376-.09033.04603-.55055.50883-.984492 1.07106-.984492h19.95535c.5927 0 1.0749.482172 1.0749 1.074822l.0002 12.55258c0 .4899-.3295.9043-.7785 1.0333zm-20.25166-15.085646h19.95536c.827 0 1.4998.672826 1.4998 1.499766v12.55258c0 .8269-.6728 1.4998-1.4998 1.4998h-.0498v.2558c0 .8269-.6732 1.4997-1.5001 1.4997h-19.95538c-.82694 0-1.499766-.6728-1.499766-1.4997v-12.55259c0-.82694.672826-1.49977 1.499766-1.49977h.05015v-.25582c0-.82694.67283-1.499766 1.49977-1.499766zm19.48026 3.255356c0-.59266-.4821-1.07483-1.0751-1.07483h-19.95536c-.59266 0-1.074825.48217-1.074825 1.07483v12.55289c0 .5926.482165 1.0748 1.074825 1.0748h19.95536c.593 0 1.0751-.4822 1.0751-1.0748z" fill-rule="evenodd"/><path d="m20.3319 13.5433v.0001c.0083.0509.0141.1034.0153.158.0001.0025.0004.0058.0007.0096.0009.0133.0024.033.0024.0491 0 .0308-.0023.0614-.0043.0876-.0003.0039-.0005.0078-.0008.0115v.0002c-.0328.4427-.2808.8279-.6437 1.0609-.0994.0639-.2074.1145-.3199.1534-.155.0535-.3221.0844-.4973.0844-.1751 0-.342-.0309-.497-.0844-.1052-.0364-.2065-.0829-.3004-.1411-.0939.0582-.1952.1047-.3003.1411h-.0001c-.1552.0535-.322.0844-.4972.0844s-.3421-.0309-.4972-.0844h-.0001c-.1125-.0389-.2205-.0895-.3199-.1534zm0 0c-.0579-.3525-.253-.6607-.5309-.8735m.5309.8735-.6826-.9743c.0517.0303.1029.0634.1517.1008m-.8711-.2058c-.0065-.0002-.0129-.0006-.0193-.001-.0084-.0005-.0169-.0011-.0255-.0011-.0377 0-.075.0025-.1121.0054-.0512.004-.1019.0101-.1515.0194l-.0183-.0983h-.0001c-.1873.0349-.3614.1046-.5158.2006-.2175-.1352-.4742-.2163-.75-.2249l-.0005-.0001c-.0045-.0001-.0089-.0004-.0156-.0008-.0009 0-.0018-.0001-.0028-.0002-.0076-.0005-.0178-.0011-.0289-.0011-.0418 0-.0823.0028-.1198.0056l-.0002.0001zm0 0c.1859.0057.3623.0467.5223.1165.0506.0221.0995.0471.1465.0747m-.6688-.1912.6688.1912m.2023.0146-.0609.0794m.0609-.0794h-.0001l-.0608.0794m0 0c-.0447-.0343-.0923-.0652-.1414-.094m.1414.094-.1414-.094m-2.4214-.1879c.0372-.0029.0745-.0054.1122-.0054.0086 0 .0169.0006.0252.0011.0065.0004.0129.0008.0195.001zm0 0c-.0511.004-.1019.0101-.1514.0194zm.0103.2903.0089.0996c.0141-.0013.0292-.0032.0416-.0048.0045-.0006.0086-.0011.0122-.0016.0156-.0019.0278-.0029.0392-.0029.0015 0 .0043.0001.0123.0012.0008.0001.0017.0002.0027.0004.0069.0009.0186.0025.0304.0032h.001c.1306.0059.254.0357.3653.0852-.0702.0917-.1292.1918-.1747.2989l-.0001.0002c-.0228.0539-.0414.1091-.057.1646v.0001c-.0158.0565-.0282.1147-.0363.1743l.0991.0135-.099-.0139c-.0082.0589-.0142.1204-.0142.1845 0 .3082.1059.5921.2826.8224-.1251.057-.2643.0896-.4119.0896-.5371 0-.9652-.414-.9652-.912 0-.4244.3114-.7852.7371-.8835l.0003-.0001c.041-.0096.0849-.0146.1351-.0194zm0 0c-.0506.0047-.1003.0103-.1485.0215l.728.0791c-.1294-.0617-.2739-.0985-.4267-.1054-.0074-.0004-.0147-.0014-.022-.0024-.0095-.0013-.019-.0025-.0289-.0025-.0226 0-.0444.0028-.0661.0055-.0119.0016-.0238.0031-.0358.0042zm2.7599.9745-.0999.0021c.0001.0069.0007.0129.0013.0174l.0015.0101c0 .0003.0001.0007.0001.001-.0003.0194-.0027.0358-.0059.0576-.0017.012-.0037.0256-.0058.0423v.0001l-1.47-.8703c.0871-.0527.1843-.092.2884-.116l.0003-.0001c.041-.0096.0849-.0146.1351-.0194l-.0094-.0995m1.1643.9747-.0999.0032c-.0014-.0449-.0061-.0887-.014-.1312v-.0001c-.0333-.1802-.1216-.3422-.2503-.4704-.0318-.0317-.0684-.0606-.1096-.0909-.0378-.0277-.0781-.0524-.1213-.0753h-.0002c-.1261-.0669-.268-.1078-.4208-.1149h-.0008c-.0119-.0007-.0235-.0023-.0305-.0032-.001-.0002-.0019-.0003-.0026-.0004-.0081-.0011-.0108-.0012-.0124-.0012-.0113 0-.0236.0011-.0393.003-.0036.0004-.0078.0009-.0123.0015-.0124.0016-.0274.0035-.0413.0048l-.009-.0996m1.1643.9747c.0001.0046.0008.009.0015.0134.0008.0047.0016.0095.0016.0144zm-1.1643-.9747c-.0505.0048-.1003.0103-.1484.0215l.8981.1832c-.0423-.0311-.0869-.0583-.1338-.0831-.1388-.0736-.2951-.1186-.463-.1264-.0075-.0004-.0148-.0014-.0221-.0024-.0095-.0012-.019-.0025-.0289-.0025-.0227 0-.0446.0028-.0664.0056-.0118.0015-.0236.003-.0355.0041zm-.8629 1.0111h-.0002c.0023.2235.0935.4273.2409.5872.0308.0333.0637.0641.0994.093l-.063.0777.0628-.0779c.0376.0304.0721.0568.1086.0789zm0 0v-.0105m0 .0105v-.0105m0 0c0-.0423.0065-.0841.0148-.1348m-.0148.1348.0148-.1348m0 0c.0072-.0446.0185-.0879.0332-.1322l.0001-.0001m-.0333.1323.0333-.1323m0 0c.0404-.1222.1057-.2327.1926-.327zm.2922-.42c-.0359.0292-.0691.0599-.0996.093zm0 0c.0367-.0299.0715-.0563.1081-.0785zm-1.2531-.6825c-.6703.1251-1.1842.689-1.1842 1.3717 0 .4844.2595.91.6488 1.1602zm.611.8875c-.0209.0494-.0381.1005-.0528.1527z" stroke="#fff" stroke-width=".2"/><g clip-rule="evenodd" fill-rule="evenodd"><path d="m2.94238 8.68188h4.28224v-3.34594h-4.28224z"/><path d="m2.94238 13.6382v1.1173h3.42838v-1.1173z"/><path d="m7.5558 13.6382v1.1173h3.4281v-1.1173z"/><path d="m2.94267 9.86653v1.11727h17.30743v-1.11727z"/></g></g></svg>