<?xml version="1.0" standalone="no"?>
<!DOCTYPE svg PUBLIC "-//W3C//DTD SVG 20010904//EN"
 "http://www.w3.org/TR/2001/REC-SVG-20010904/DTD/svg10.dtd">
<svg version="1.0" xmlns="http://www.w3.org/2000/svg"
 width="519.000000pt" height="76.000000pt" viewBox="0 0 519.000000 76.000000"
 preserveAspectRatio="xMidYMid meet">

<g transform="translate(0.000000,76.000000) scale(0.100000,-0.100000)"
fill="#000000" stroke="none">
<path d="M199 722 c-110 -37 -167 -108 -190 -236 -23 -132 11 -305 83 -426
l33 -55 68 -3 68 -3 -8 48 c-11 63 -7 270 5 308 9 28 10 25 11 -25 2 -82 19
-187 43 -262 l21 -68 47 0 47 0 12 62 c15 77 53 164 89 201 67 71 192 112 374
123 88 6 116 11 141 28 37 25 99 104 94 120 -10 32 -202 171 -274 198 -43 16
-83 3 -96 -33 -8 -20 -16 -28 -27 -23 -141 57 -433 81 -541 46z m786 -132 c7
-11 -11 -40 -24 -40 -4 0 -16 7 -27 15 -16 13 -17 16 -4 25 20 13 47 13 55 0z"/>
<path d="M1400 355 l0 -356 208 3 c194 3 210 4 255 27 66 32 100 84 105 163 6
78 -17 130 -71 163 -39 23 -39 23 -18 37 60 36 81 164 38 229 -12 19 -44 45
-72 59 -47 24 -60 25 -247 28 l-198 4 0 -357z m351 186 c25 -31 24 -54 -4 -86
-21 -24 -30 -27 -97 -29 l-75 -1 -3 74 -3 73 82 -4 c70 -3 83 -6 100 -27z m-1
-259 c30 -15 35 -22 38 -58 3 -35 -1 -45 -24 -63 -22 -18 -40 -21 -110 -21
l-84 0 0 80 0 80 73 0 c48 0 83 -6 107 -18z"/>
<path d="M2070 355 l0 -355 245 0 245 0 0 70 0 70 -162 2 -163 3 0 70 0 70
153 3 152 3 0 74 0 75 -155 0 -155 0 0 60 0 60 165 0 165 0 0 75 0 75 -245 0
-245 0 0 -355z"/>
<path d="M2765 368 c-71 -189 -130 -349 -133 -355 -3 -10 18 -13 85 -13 l88 0
29 85 29 85 123 0 123 0 27 -85 28 -85 92 0 92 0 -133 353 -133 352 -94 3 -94
3 -129 -343z m259 48 c20 -54 36 -100 36 -102 0 -2 -33 -4 -74 -4 l-75 0 36
106 c19 58 37 104 38 102 2 -2 20 -48 39 -102z"/>
<path d="M3232 698 c2 -7 55 -167 118 -355 l115 -343 101 0 101 0 93 278 c51
152 106 312 121 355 l28 77 -87 0 -87 0 -79 -255 c-44 -140 -82 -255 -85 -255
-3 0 -42 115 -86 255 l-79 255 -89 0 c-66 0 -88 -3 -85 -12z"/>
<path d="M3970 355 l0 -355 250 0 250 0 0 70 0 70 -165 0 -165 0 0 75 0 75
150 0 150 0 0 75 0 75 -150 0 -150 0 0 60 0 60 165 0 165 0 0 75 0 75 -250 0
-250 0 0 -355z"/>
<path d="M4580 356 l0 -356 80 0 80 0 0 135 0 135 28 0 c24 0 39 -17 120 -135
l93 -135 101 0 c79 0 98 3 90 13 -29 36 -192 270 -192 276 0 3 19 14 41 25 82
38 123 161 85 259 -20 54 -46 79 -111 109 -45 20 -70 23 -232 26 l-183 4 0
-356z m342 184 c18 -23 24 -66 10 -86 -15 -23 -53 -34 -121 -34 l-71 0 0 68
c0 38 3 72 8 76 4 5 40 6 81 3 62 -3 78 -8 93 -27z"/>
<path d="M636 290 c-50 -25 -63 -37 -98 -84 -36 -50 -35 -75 3 -147 31 -57 33
-59 73 -59 l41 0 1 93 c1 81 11 133 39 200 9 22 -9 22 -59 -3z"/>
<path d="M695 128 c-3 -18 -2 -53 2 -78 l9 -45 139 -3 139 -3 -29 31 c-54 56
-138 102 -227 124 -25 6 -28 3 -33 -26z"/>
</g>
</svg>
