<svg width="124" height="28" viewBox="0 0 124 28" fill="none" xmlns="http://www.w3.org/2000/svg">
<path d="M3.30432 17.9949C2.86644 17.6829 2.6475 17.1997 2.38074 16.7643C1.80445 15.8282 1.33889 14.8341 0.973987 13.8024C0.737431 13.138 0.571338 12.4484 0.395179 11.7614C0.0705426 10.4931 -0.0628351 9.19957 0.027761 7.89851C0.0856419 7.06301 0.21902 6.22751 0.395179 5.40963C0.528556 4.78804 0.727365 4.16645 0.999153 3.59016C1.62829 2.25386 2.69531 1.35042 4.04671 0.769093C5.24207 0.253199 6.50539 0.0141255 7.79386 0.00154273C8.96406 -0.0085235 10.1393 0.0292249 11.2994 0.157569C12.3765 0.275848 13.4435 0.504855 14.5005 0.759027C15.6178 1.02578 16.7126 1.3781 17.8198 1.69015C17.8878 1.71029 17.9608 1.7128 18.001 1.72035C18.147 1.38062 18.2527 1.0434 18.4263 0.748961C18.7333 0.225517 19.3197 0.0065759 19.9212 0.0871058C20.7994 0.205384 21.5318 0.648298 22.2641 1.0887C23.696 1.94936 25.0122 2.97108 26.2805 4.05824C26.5447 4.28473 26.8065 4.51625 27.0657 4.75029C27.3123 4.97175 27.3349 5.11771 27.1764 5.39453C26.6932 6.23003 26.0968 6.97493 25.3896 7.63678C24.7983 8.19043 24.0861 8.45467 23.2908 8.50751C22.2515 8.57546 21.2096 8.58553 20.1753 8.69374C18.99 8.81453 17.8073 8.96553 16.6496 9.28765C15.4593 9.61732 14.347 10.0904 13.3706 10.8529C12.5451 11.4972 11.9286 12.305 11.4706 13.2386C10.9949 14.21 10.6929 15.2393 10.5268 16.3063C10.4388 16.87 10.3708 17.4363 10.2928 18H8.27453C8.15373 17.8767 7.98261 17.771 7.91717 17.6225C7.72088 17.1594 7.52962 16.6914 7.40128 16.2057C7.18486 15.3878 6.98353 14.5649 6.83757 13.7319C6.69413 12.9065 6.58088 12.0684 6.54062 11.2329C6.49029 10.2339 6.52803 9.23228 6.52803 8.17029C5.53148 11.467 5.50631 14.7234 6.35439 18H3.30432V17.9949ZM22.7749 4.55652C23.3261 4.56155 23.6004 4.34009 23.623 4.01797C23.6457 3.71095 23.3764 3.41903 23.0165 3.41148C22.5686 3.40393 22.2163 3.65307 21.8866 3.92234C21.8614 3.94247 21.8665 4.04817 21.8916 4.06579C22.2137 4.29983 22.5308 4.54897 22.7775 4.55652H22.7749Z" fill="#313131"/>
<path d="M33.5634 17.995C33.5634 17.9044 33.5583 17.8163 33.5583 17.7257C33.5583 12.1968 33.5583 6.67046 33.5583 1.14158V0.804366C33.6791 0.799332 33.7748 0.789266 33.8704 0.789266C35.8132 0.789266 37.756 0.776683 39.6988 0.794299C40.5015 0.801849 41.3068 0.834564 42.1021 0.93271C43.1011 1.05602 44.07 1.30516 44.9131 1.90662C45.736 2.49549 46.1789 3.30079 46.3576 4.27722C46.4809 4.96172 46.4809 5.64119 46.3123 6.31815C46.0631 7.3147 45.4994 8.09484 44.6488 8.67365C44.5859 8.71643 44.5305 8.77179 44.4576 8.82967C44.757 8.99073 45.0263 9.13418 45.2905 9.28265C46.1512 9.76835 46.6973 10.5057 46.9515 11.4444C47.1604 12.217 47.1503 13.0021 47.027 13.7974C46.9011 14.6052 46.6143 15.3325 46.1109 15.9717C45.5447 16.6864 44.7898 17.1394 43.9417 17.4489C43.1313 17.7458 42.2858 17.8843 41.4276 17.9522C41.3798 17.9547 41.3345 17.9774 41.2867 17.99H33.5634V17.995ZM37.5848 14.6027C38.4556 14.6027 39.2911 14.6303 40.1241 14.5926C40.6324 14.5699 41.1533 14.502 41.639 14.356C43.1011 13.9131 43.1011 12.1037 42.3814 11.389C41.9335 10.9436 41.3723 10.7599 40.7683 10.7397C39.7793 10.707 38.7852 10.7221 37.7962 10.7171C37.7258 10.7171 37.6578 10.7322 37.5848 10.7397V14.6052V14.6027ZM37.5672 5.95073C37.5672 6.42384 37.5773 6.89947 37.5622 7.37258C37.5546 7.60159 37.615 7.68967 37.8591 7.68464C38.5386 7.66954 39.2206 7.70225 39.9001 7.67206C40.3279 7.65192 40.7733 7.61417 41.1735 7.47325C42.248 7.09576 42.4796 5.92305 42.0266 5.10013C41.6969 4.50371 41.1055 4.27973 40.4663 4.25205C39.5754 4.2143 38.6795 4.23695 37.7887 4.22689C37.6125 4.22689 37.5647 4.2898 37.5672 4.45589C37.5748 4.95417 37.5697 5.45245 37.5697 5.95073H37.5672Z" fill="#313131"/>
<path d="M109.284 17.995C109.289 17.8818 109.297 17.766 109.297 17.6528C109.297 12.1566 109.297 6.66043 109.297 1.16426C109.297 0.915963 109.422 0.791813 109.672 0.791813C111.302 0.791813 112.936 0.776713 114.566 0.796846C115.435 0.806912 116.305 0.832078 117.166 0.93274C118.361 1.07115 119.524 1.36307 120.528 2.08029C121.583 2.83274 122.119 3.88718 122.265 5.14546C122.365 6.00864 122.35 6.87937 122.116 7.72242C121.869 8.61328 121.399 9.37077 120.651 9.93951C120.168 10.3069 119.637 10.5837 119.048 10.7473C118.973 10.7675 118.905 10.8153 118.814 10.8606C119.114 11.2909 119.403 11.7137 119.698 12.1289C120.946 13.9006 122.194 15.6747 123.445 17.4439C123.568 17.62 123.712 17.7811 123.848 17.9472C123.782 17.9648 123.717 17.995 123.651 17.995C123.101 17.9959 122.55 17.9962 122 17.9961C121.025 17.996 120.051 17.995 119.076 17.995C119.053 17.9522 119.033 17.9069 119.006 17.8667C118.477 17.1067 117.946 16.3492 117.42 15.5867C116.454 14.19 115.493 12.7933 114.526 11.3966C114.496 11.3538 114.448 11.2909 114.408 11.2909C114.051 11.2833 113.693 11.2859 113.321 11.2859V17.9925H109.287L109.284 17.995ZM113.333 7.87845C114.483 7.85076 115.626 7.97659 116.746 7.71739C117.294 7.59156 117.78 7.31473 117.936 6.72586C118.022 6.40374 118.049 6.05142 118.029 5.71924C118.004 5.30149 117.803 4.94917 117.445 4.69751C116.992 4.38043 116.474 4.27725 115.94 4.2546C115.213 4.2244 114.483 4.23447 113.754 4.22943C113.618 4.22943 113.479 4.22943 113.331 4.22943V7.87845H113.333Z" fill="#313131"/>
<path d="M94.7687 17.9949C94.7687 14.9524 94.7661 11.9099 94.7661 8.86485C94.7661 6.2728 94.7687 3.67822 94.7611 1.08617C94.7611 0.84961 94.8265 0.78418 95.0631 0.78418C98.8354 0.791729 102.608 0.789213 106.378 0.789213C106.697 0.789213 106.702 0.794246 106.702 1.12643C106.702 2.10034 106.702 3.07425 106.702 4.04564C106.702 4.27381 106.591 4.38873 106.367 4.39041C103.949 4.39041 101.531 4.39041 99.1122 4.39041C99.0166 4.39041 98.9185 4.39041 98.8027 4.39041C98.7952 4.49107 98.7851 4.56909 98.7851 4.6471C98.7851 5.45743 98.7926 6.26776 98.78 7.07558C98.775 7.31213 98.8455 7.38008 99.0846 7.38008C101.347 7.37253 103.612 7.38008 105.874 7.37002C106.118 7.37002 106.196 7.42538 106.194 7.68207C106.179 8.67863 106.181 9.6777 106.194 10.6768C106.194 10.8982 106.136 10.9687 105.904 10.9662C103.65 10.9561 101.395 10.9611 99.1399 10.9611H98.8052C98.7977 11.0643 98.7876 11.1423 98.7876 11.2204C98.7876 12.1943 98.7951 13.1682 98.7826 14.1396C98.78 14.3862 98.8681 14.439 99.0946 14.439C101.521 14.4315 103.949 14.434 106.375 14.434C106.595 14.434 106.705 14.5405 106.705 14.7536C106.705 15.7351 106.705 16.7165 106.705 17.698C106.705 17.7961 106.717 17.8917 106.725 17.9899H94.7687V17.9949Z" fill="#313131"/>
<path d="M49.3573 17.995C49.3573 17.9044 49.3523 17.8163 49.3523 17.7258C49.3523 12.1969 49.3523 6.66799 49.3523 1.13911V0.804406C49.4756 0.799373 49.5712 0.789307 49.6669 0.789307C53.4216 0.789307 57.1763 0.789307 60.931 0.789307C61.2732 0.789307 61.2758 0.789307 61.2758 1.13156C61.2758 2.11302 61.2707 3.09448 61.2808 4.07593C61.2808 4.31249 61.2254 4.39805 60.9662 4.39805C58.5403 4.38799 56.1143 4.39302 53.6858 4.39302H53.3788C53.3712 4.48865 53.3637 4.55911 53.3637 4.62958C53.3637 5.45501 53.3687 6.28296 53.3587 7.10839C53.3561 7.32733 53.4316 7.38521 53.643 7.38269C55.913 7.37514 58.1854 7.38269 60.4554 7.37263C60.6995 7.37263 60.78 7.42799 60.7775 7.68468C60.7624 8.68124 60.7674 9.68031 60.7775 10.6769C60.7775 10.8958 60.7221 10.9688 60.4881 10.9688C58.2257 10.9587 55.9633 10.9638 53.7009 10.9638H53.3813C53.3763 11.0695 53.3662 11.155 53.3662 11.2406C53.3662 12.2044 53.3738 13.1708 53.3612 14.1346C53.3587 14.3712 53.4291 14.4416 53.6682 14.4416C56.0866 14.4341 58.505 14.4366 60.9234 14.4366C61.2783 14.4366 61.2808 14.4366 61.2783 14.7789C61.2758 15.8509 61.2707 16.9205 61.2682 17.9925H49.3624L49.3573 17.995Z" fill="#313131"/>
<path d="M62.7379 17.9949C62.9493 17.3984 63.1582 16.802 63.3746 16.2081C63.7018 15.3172 64.0365 14.4289 64.3686 13.538C64.7361 12.5566 65.106 11.5751 65.4734 10.5937C65.8937 9.46875 66.3114 8.34133 66.7317 7.21391C67.1318 6.14186 67.537 5.06981 67.9396 3.99775C68.3171 2.99364 68.7022 1.99205 69.0696 0.985429C69.1275 0.829403 69.208 0.786621 69.3565 0.786621C70.6852 0.786621 72.0114 0.791654 73.3402 0.786621C73.5214 0.786621 73.5994 0.864635 73.6598 1.02066C73.9265 1.74291 74.2059 2.46265 74.4777 3.1849C74.8099 4.07325 75.1395 4.96663 75.4717 5.85497C75.9876 7.23908 76.5035 8.6257 77.0219 10.0098C77.5252 11.3461 78.0336 12.6824 78.5394 14.0162C79.0276 15.3097 79.5133 16.6032 79.999 17.8967C80.0091 17.9269 80.0065 17.9621 80.0091 17.9949H75.6302C75.5044 17.5998 75.3836 17.2021 75.2553 16.8096C74.9558 15.8986 74.6463 14.9926 74.3493 14.0791C74.2914 13.9029 74.2159 13.8199 74.0121 13.8224C72.2505 13.8299 70.4889 13.835 68.7273 13.8199C68.448 13.8174 68.37 13.9306 68.2945 14.1596C68.0277 14.9876 67.7383 15.808 67.4615 16.6334C67.3105 17.0864 67.1671 17.5444 67.0211 17.9974H62.7404L62.7379 17.9949ZM73.1389 10.5005C72.5349 8.71127 71.9485 6.96981 71.3622 5.22583C71.342 5.22835 71.3219 5.23338 71.3018 5.2359C70.7154 6.97987 70.1291 8.72385 69.5301 10.5005H73.1389Z" fill="#313131"/>
<path d="M82.8125 17.995C82.6137 17.3936 82.4174 16.7896 82.2186 16.1881C81.8436 15.0532 81.4662 13.9207 81.0862 12.7883C80.7892 11.9024 80.4822 11.0166 80.1877 10.1308C79.8581 9.14428 79.541 8.15276 79.2113 7.16627C78.8414 6.05647 78.4639 4.94666 78.0914 3.83686C77.7718 2.88057 77.4522 1.92427 77.1326 0.967982C77.1201 0.930234 77.115 0.889969 77.0974 0.816989C77.1956 0.806922 77.2811 0.79434 77.3642 0.79434C78.6099 0.79434 79.8556 0.796856 81.1038 0.789307C81.3026 0.789307 81.3907 0.857254 81.4485 1.046C81.9217 2.58361 82.4074 4.11871 82.8855 5.65633C83.2605 6.8668 83.6279 8.0823 84.0029 9.29528C84.325 10.3371 84.6572 11.374 84.9843 12.4158C85.0825 12.7253 85.1756 13.0349 85.3215 13.352C85.3819 13.1758 85.4474 12.9997 85.5027 12.821C85.8651 11.6734 86.225 10.5234 86.5848 9.37581C86.9774 8.12004 87.37 6.86428 87.7601 5.606C88.0872 4.54905 88.4043 3.48957 88.7289 2.43262C88.8799 1.94441 89.0334 1.45619 89.2046 0.975532C89.2323 0.897519 89.3606 0.806923 89.4437 0.804406C90.6566 0.79434 91.8696 0.799373 93.0851 0.79434C93.2839 0.79434 93.3317 0.86732 93.2713 1.046C92.7127 2.69183 92.159 4.34017 91.6003 5.98852C91.175 7.24177 90.7397 8.49501 90.3169 9.74826C89.9419 10.8581 89.5821 11.9729 89.2071 13.0827C88.7919 14.3158 88.3691 15.5464 87.9513 16.777C87.8129 17.1847 87.6745 17.5924 87.5361 18.0001H82.8125V17.995Z" fill="#313131"/>
<path d="M13.9795 17.9949C13.4762 17.6275 13.1944 17.094 12.9075 16.5655C12.7238 16.2233 12.5904 15.8534 12.4243 15.5036C12.0669 14.7561 12.1475 14.054 12.5627 13.3443C13.0861 12.4459 13.7707 11.7111 14.6565 11.1776C15.3259 10.7749 16.0481 10.488 16.8635 10.2792C16.7503 10.5359 16.642 10.7372 16.5665 10.9536C16.3099 11.6985 15.9978 12.4308 15.8292 13.1934C15.5322 14.5347 15.5322 15.8987 15.7285 17.2601C15.7638 17.5093 15.8393 17.7508 15.8971 17.9949H13.9795Z" fill="#313131"/>
<path d="M16.9314 17.995C16.5514 16.7141 16.5036 15.4156 16.6898 14.0491C19.4656 14.5675 21.8136 15.7654 23.5726 17.995H16.9314Z" fill="#313131"/>
</svg>
