<svg width="55" height="54" viewBox="0 0 55 54" fill="none" xmlns="http://www.w3.org/2000/svg">
<rect x="0.00616455" width="54" height="54" rx="12" fill="#172D3E"/>
<path d="M13.0298 31.2586C12.7847 27.2944 14.4499 22.888 17.8791 19.4587C25.3358 12.0021 40.8646 13.0473 40.9528 13.0533C40.9104 13.1148 29.5583 29.5741 16.1058 31.1135C15.0659 31.2325 14.0381 31.2793 13.0298 31.2586Z" fill="#03CA9B"/>
<path d="M14.6051 36.327C14.9892 36.9394 15.4433 37.5129 15.9684 38.0381C20.5713 42.641 28.8896 41.7855 34.5478 36.1274C42.0257 28.6495 40.9528 13.0533 40.9528 13.0533C40.9117 13.1457 32.7742 31.3867 19.8411 35.3654C18.0855 35.9055 16.3256 36.2202 14.6051 36.327Z" fill="#03CA9B"/>
</svg>
