<svg fill="none" height="54" viewBox="0 0 55 54" width="55" xmlns="http://www.w3.org/2000/svg"><rect fill="#172d3e" height="54" rx="12" width="54" x=".006165"/><g fill="#03ca9b"><path d="m13.0298 31.2586c-.2451-3.9642 1.4201-8.3706 4.8493-11.7999 7.4567-7.4566 22.9855-6.4114 23.0737-6.4054-.0424.0615-11.3945 16.5208-24.847 18.0602-1.0399.119-2.0677.1658-3.076.1451z"/><path d="m14.6051 36.327c.3841.6124.8382 1.1859 1.3633 1.7111 4.6029 4.6029 12.9212 3.7474 18.5794-1.9107 7.4779-7.4779 6.405-23.0741 6.405-23.0741-.0411.0924-8.1786 18.3334-21.1117 22.3121-1.7556.5401-3.5155.8548-5.236.9616z"/></g></svg>