<svg id="f858ee9e-fb30-4e7c-995d-bf40f108f260" data-name="icon layer" xmlns="http://www.w3.org/2000/svg" viewBox="0 0 2981 780"><path d="M530.35,128.78,564.86,1H464.68L444,80.47c-18.41-6.9-38-11.5-57.52-15L403.82,1H303.64l-16.1,62.11C201.27,74.62,121.8,119.48,68.88,189.75c-110.53,143.89-82.92,351,61,461.57L95.34,779h99l20.7-79.37c18.41,6.9,38,11.5,57.52,15L255.33,779h98.93l17.25-62.11c86.27-11.51,165.74-56.37,218.66-126.53C701.85,445.32,674.24,239.21,530.35,128.78ZM330.1,467.17a78.27,78.27,0,1,1,78.22-78.32h0C408.42,432.66,373.81,467.17,330.1,467.17Z"/><path d="M594.39,721.57c0-10.14-6.76-15.77-18-15.77H557.23v43.92h11.5V737.17h9.2l6.9,12.55h11.81l-10.13-13.51C592.14,734,595.52,728.32,594.39,721.57Zm-18,8.28h-7.63V715.21h7.84c3.36-1.12,6.72,2.25,7.85,5.63v1A8.05,8.05,0,0,1,576.36,729.85Z"/><path d="M575.32,682.38a48.31,48.31,0,1,0,48.31,48.31h0C622.48,704.23,601.77,682.38,575.32,682.38Zm0,85.12a36.81,36.81,0,1,1,36.81-36.81h0a36.42,36.42,0,0,1-36,36.81Z"/><path d="M1098.81,386.44c36.83-8.05,61-35.68,61-79.41,0-52.95-39.13-87.48-100.24-87.48H906.49v340.9h157.69c62.15,0,101.39-36.83,101.39-94.38C1165.57,421,1137.94,391.05,1098.81,386.44Zm-100.3-101h36.87A33.42,33.42,0,0,1,1066.49,321h0v4.59c-1.16,18.35-17.29,32.11-36.87,31H998.51Zm72.16,172.63c-1.15,18.54-18.38,33.6-37.9,31.28h-32.16V415.1h37.9a34.83,34.83,0,0,1,32.16,37.07Z"/><polygon points="1182.56 306.34 1265.17 307.49 1265.17 560.45 1359.28 560.45 1359.28 307.39 1439.8 307.39 1439.8 219.55 1182.56 219.55 1182.56 306.34"/><path d="M1625.42,300.07c38.37,0,62.11,20.5,68.8,51.24h97c-6.79-88.89-70-140.12-166-140.12-101.64,0-171.6,74-171.6,178.81,0,103.63,68.91,178.81,171.6,178.81,96,0,158-51.23,166-140.12h-97c-5.64,30.74-30.53,51.24-68.8,51.24-47.38,0-75.61-34.19-75.61-89.93S1577.94,300.07,1625.42,300.07Z"/><path d="M1935.84,219.55h-94.49v340.9h94.49c104.84,0,161.24-82.87,161.24-170.45S2040.58,219.55,1935.84,219.55Zm-3,309.53h-62.23V248.83h62.23c87.69,0,132.64,69.15,132.64,140.7C2065.39,459.93,2020.45,529.08,1932.86,529.08Z"/><path d="M2161.7,235.59c-15,1.16-26.61,13.89-25.46,28.93V268c1.16,15,13.89,26.61,28.93,25.45s26.61-13.88,25.45-28.92v-3.47C2189.46,246,2176.74,234.44,2161.7,235.59Z"/><rect x="2147.75" y="338.76" width="30.33" height="221.69"/><path d="M2278.46,397.11V338.76h-29.28V559.4h29.28V463.83c0-48.31,18.31-100.18,65.24-100.18,6.87,0,12.59,0,19.46,1.15V336a98.52,98.52,0,0,0-18.31-2.3C2315.19,333.85,2287.72,353.4,2278.46,397.11Z"/><path d="M2491.18,330.87c-60.59,0-101.48,45.44-101.48,117.79s39.61,119,102.64,119c46.61,0,83.9-29.13,92-69.91h-29.13c-9.32,25.63-35,43.11-62.92,40.78-43.11,0-72.24-31.46-72.24-81.57H2588c0-7,1.16-14,0-21C2587.89,375.15,2549.44,330.87,2491.18,330.87Zm-70.3,100.85c2.3-43.71,28.76-73.61,70.17-73.61s66.72,29.9,67.87,73.72Z"/><path d="M2725.89,362.59c36.6,0,59.47,17.15,65.19,51.46h28.59c-5.72-49.18-41.17-80.16-93.88-80.16-62.9,0-101.79,45.75-101.79,114.47S2662.89,564,2725.79,565.12c53.75,0,89.31-30.88,93.88-78.92h-28.59c-5.72,33.17-29.74,50.32-65.19,50.32-44.6,0-72-34.3-72-86.91S2681.29,362.59,2725.89,362.59Z"/><path d="M2951.25,535.26c-19.72,0-36-7-36-53.35V366h56.47V338.76h-55.42V264.52h-29.28v74.24h-38.69V366h38.69V488c0,69,33.36,74.77,58.66,74.77,11.51,1.15,23-1.15,33.36-3.45V530.51C2969.8,532.94,2960.52,534.1,2951.25,535.26Z"/></svg>