<svg fill="none" height="18" viewBox="0 0 21 18" width="21" xmlns="http://www.w3.org/2000/svg"><path clip-rule="evenodd" d="m6.0914 8.725c-.80274-3.0684-2.12152-8.105224-2.12152-8.105224-.05733-.260525-.28669-.434209-.54471-.434209h-2.666221c-.283044 0-.519899.209867-.56547.483099.045769-.272996.282511-.482616.565389-.482616h2.666222c.25802 0 .48738.173683.54471.434209 0 0 1.31878 5.036821 2.12152 8.105231h11.18098l1.9495-6.10787h-.0001l-1.9494 6.10738zm-.90908-6.78515c.04679-.27178.28295-.48012.56497-.48012h14.27721c.172 0 .344.08684.4587.23158.0962.12149.1319.28377.107.43549.0251-.15186-.0106-.31436-.1069-.43598-.1147-.14473-.2867-.23157-.4587-.23157h-14.27723c-.28219 0-.51846.20859-.56505.4806zm1.25323 7.91458h-.00021c.11468.43417.20069.75267.25803.95527.20068.8395.65939.8395.65939.8395h9.03074c1.2041 0 1.8062.8973 1.9782 1.4184.0265.0892.0312.184.0158.2749.0155-.0911.0108-.186-.0157-.2754-.1721-.5211-.7741-1.4184-1.9782-1.4184h-9.03076s-.45871 0-.65939-.8395c-.04884-.1726-.11847-.4291-.20889-.7697zm-5.676601-8.32541h2.094211c.53554 1.98038 2.26274 8.51508 2.54206 9.64318l.00035.0014c.24183.9462.72625 1.4179 1.17004 1.646.21855.1124.42151.1627.57083.185.07476.0111.13652.0153.18071.0166.02212.0007.0399.0006.05279.0004l.01614-.0005h8.99752c.4804 0 .6698.395.7167.4928l.0014.003c.1171.3032.4159.4884.7153.4884h.0076c.0511.0001.1389.0003.2301-.0403.4227-.1268.5933-.5864.485-.9508l-.0017-.0053c-.1863-.5643-.8404-1.5458-2.1544-1.5458h-9.02613l-.0014-.0002c-.00447-.0005-.01395-.002-.0273-.0058-.02638-.0075-.06898-.0242-.11896-.0618-.09764-.0733-.24301-.2414-.33573-.6293l-.00208-.0073c-.04615-.1631-.11126-.4027-.19543-.7192h11.02583c.3134 0 .6043-.22744.7155-.48936l.0033-.00787 2.3246-7.27305c.0749-.2278.0393-.4962-.1171-.69364-.1469-.1854-.3708-.3019-.6041-.3019h-14.27723c-.41953 0-.75895.3453-.75895.76451s.33942.76451.75895.76451h13.22043l-1.831 5.73674h-10.90214c-.39667-1.51618-.90832-3.47095-1.32553-5.0647l-.75887-2.898666c-.07822-.346965-.38482-.576074-.72509-.576074h-2.666221c-.419531 0-.758949.3453-.758949.764512 0 .419208.339418.764508.758949.764508zm6.937911 11.75778c-1.2796 0-2.33574 1.069-2.33574 2.3566s1.05614 2.3566 2.33574 2.3566c1.27961 0 2.33574-1.069 2.33574-2.3566 0-1.3182-1.05774-2.3566-2.33574-2.3566zm0 3.1842c-.44054 0-.81785-.3784-.81785-.8276s.37731-.8276.81785-.8276c.44055 0 .81785.3784.81785.8276s-.3773.8276-.81785.8276zm7.19594-3.1842c-1.2796 0-2.3357 1.069-2.3357 2.3566s1.0561 2.3566 2.3357 2.3566 2.3357-1.069 2.3357-2.3566c0-1.3166-1.0274-2.3566-2.3357-2.3566zm0 3.1842c-.4405 0-.8178-.3784-.8178-.8276s.3773-.8276.8178-.8276.8178.3784.8178.8276c0 .4527-.352.8276-.8178.8276zm-5.07571-.4695c.01964-.1165.02987-.236.02987-.3576 0-1.2158-.97474-2.1711-2.15018-2.1711-1.0467 0-1.93427.7805-2.11613 1.7895.18166-1.0093 1.06934-1.7899 2.11621-1.7899 1.17544 0 2.15018.9552 2.15018 2.171 0 .1218-.01026.2414-.02995.3581zm-2.12023.655c-.54471 0-1.00341-.4631-1.00341-1.0131 0-.0547.00453-.1085.01324-.1612-.00876.0528-.01332.1068-.01332.1617 0 .55.4587 1.0131 1.00341 1.0131.49054 0 .91133-.3756.99018-.852-.07906.4762-.49973.8515-.9901.8515zm5.07974-1.3942c.1818-1.009 1.0694-1.7895 2.1161-1.7895 1.2041 0 2.1502.9553 2.1502 2.1711 0 .1216-.0102.2411-.0299.3576.0197-.1167.03-.2363.03-.3581 0-1.2158-.9461-2.171-2.1502-2.171-1.0469 0-1.9346.7806-2.1162 1.7899zm2.1162 1.3942c-.5447 0-1.0034-.4631-1.0034-1.0131 0-.0547.0045-.1085.0132-.1612-.0087.0528-.0133.1068-.0133.1617 0 .55.4587 1.0131 1.0034 1.0131.5119 0 .9095-.3691.9889-.8396-.0796.4703-.4771.8391-.9888.8391z" fill="#fff" fill-rule="evenodd"/></svg>