<svg xmlns="http://www.w3.org/2000/svg" width="40" height="40" viewBox="0 0 40 40" fill="none">
  <path d="M40 20C40 8.95431 31.0457 0 20 0C8.95431 0 0 8.95431 0 20C0 31.0457 8.95431 40 20 40C31.0457 40 40 31.0457 40 20Z" fill="black"/>
  <path d="M17.4863 26.6379C17.6551 26.6367 18.1372 26.9327 18.2721 26.9728C18.6421 27.0828 19.1352 27.2431 19.5051 27.3208C20.3809 27.5046 21.4437 27.4803 22.3333 27.4851C23.7772 27.5045 25.2214 27.5098 26.6655 27.5009C27.537 27.5006 28.7658 27.4613 29.5984 27.5705C29.3247 27.8728 29.0579 28.2503 28.8 28.573C28.1545 29.3814 27.5365 30.2643 26.8686 31.0501L26.7137 31.1876C26.2047 31.2218 25.7 31.2153 25.1902 31.2193L23.4462 31.2372C20.4352 31.241 17.7407 31.2434 14.9525 29.8824C15.063 29.638 15.5535 29.024 15.7368 28.7912C16.2998 28.0763 16.8656 27.3004 17.4863 26.6379Z" fill="#C79133"/>
  <path d="M13.7551 9.34563C14.0389 9.32763 14.3633 9.32927 14.6492 9.33467C16.6056 9.37158 18.6083 9.25983 20.562 9.33916L20.4686 9.49535C20.5426 9.75042 19.7289 10.8618 19.5473 11.1368L18.1973 13.1908C18.0598 13.3978 17.4453 14.2438 17.4675 14.4226C17.3175 14.5613 17.0873 14.7265 16.9212 14.8614C16.6343 15.2003 15.9165 16.349 15.6549 16.758C15.9985 16.7804 16.4225 16.7305 16.7717 16.6988C17.2382 16.6544 17.7052 16.6139 18.1725 16.5773L21.4431 16.2999C22.1393 16.2384 22.968 16.1781 23.6511 16.0705C23.4954 16.5338 21.7937 18.6065 21.3767 19.1436L16.7576 25.0811C15.6577 26.5265 14.5483 27.9645 13.4295 29.3951C13.0149 29.9252 12.3389 30.8503 11.9145 31.31C12.171 30.5893 12.6532 29.691 12.9967 28.9883L14.6316 25.5886L16.5336 21.5847C16.8536 20.9182 17.3184 19.9032 17.6923 19.3035C17.1365 19.2981 16.4193 19.3529 15.8526 19.3854C14.3999 19.4751 12.9484 19.583 11.4984 19.7089C10.8287 19.7608 9.85022 19.8618 9.20029 19.8464C9.55481 18.832 10.2569 17.3654 10.7101 16.3449L12.3515 12.5969C12.8366 11.5206 13.3045 10.4368 13.7551 9.34563Z" fill="#F27309"/>
  <path d="M20.562 9.33916L27.6595 9.34171C28.8737 9.34164 30.3225 9.37896 31.5191 9.33798C30.9681 10.0565 30.4113 10.7707 29.849 11.4805C29.4269 12.0186 28.983 12.6082 28.5447 13.1271C26.8341 13.0029 25.1184 12.9729 23.4044 13.0372C21.2561 13.1226 19.3436 13.2472 17.4676 14.4226C17.4454 14.2438 18.0598 13.3978 18.1973 13.1908L19.5473 11.1368C19.7289 10.8618 20.5426 9.75042 20.4686 9.49535L20.562 9.33916Z" fill="#C79133"/>
</svg>
