<svg width="27" height="26" viewBox="0 0 27 26" fill="none" xmlns="http://www.w3.org/2000/svg">
    <path fill-rule="evenodd" clip-rule="evenodd" d="M25.4085 20.7999L24.2049 19.7367C21.6643 23.6852 17.1458 25.9745 12.3958 25.7199C7.64573 25.4653 3.40802 22.7066 1.32037 18.51C5.36259 23.1955 15.7507 22.2017 22.1176 17.8922L20.282 16.2793C25.4701 14.2094 26.6567 11.3532 26.6816 11.2914C27.3769 14.512 26.9256 17.8692 25.4033 20.8025" fill="white"/>
    <path fill-rule="evenodd" clip-rule="evenodd" d="M2.27687e-05 12.8725C-0.00586716 9.77669 1.13115 6.78369 3.20052 4.44775L3.21626 4.4323C3.28706 4.34992 3.35786 4.26883 3.43259 4.1916C3.5637 4.04872 3.69482 3.9097 3.83905 3.77197C6.29676 1.35693 9.63144 0 13.1087 0C16.586 0 19.9208 1.35693 22.3785 3.77197C28.2602 9.54506 20.6897 17.007 11.3807 16.7213V19.239L3.36572 13.5959L11.3807 7.95282V10.495C14.0292 10.0999 18.706 8.9311 17.3358 5.66416C15.4517 1.15121 2.20406 2.1887 2.27687e-05 12.8725Z" fill="white"/>
</svg>
