<svg fill="none" height="26" viewBox="0 0 27 26" width="27" xmlns="http://www.w3.org/2000/svg"><g clip-rule="evenodd" fill="#fff" fill-rule="evenodd"><path d="m25.4085 20.7999-1.2036-1.0632c-2.5406 3.9485-7.0591 6.2378-11.8091 5.9832-4.75007-.2546-8.98778-3.0133-11.07543-7.2099 4.04222 4.6855 14.43033 3.6917 20.79723-.6178l-1.8356-1.6129c5.1881-2.0699 6.3747-4.9261 6.3996-4.9879.6953 3.2206.244 6.5778-1.2783 9.5111"/><path d="m.00002277 12.8725c-.00588993-3.09581 1.13112723-6.08881 3.20049723-8.42475l.01574-.01545c.0708-.08238.1416-.16347.21633-.2407.13111-.14288.26223-.2819.40646-.41963 2.45771-2.41504 5.79239-3.77197 9.26965-3.77197 3.4773 0 6.8121 1.35693 9.2698 3.77197 5.8817 5.77309-1.6888 13.23503-10.9978 12.94933v2.5177l-8.01498-5.6431 8.01498-5.64308v2.54218c2.6485-.3951 7.3253-1.5639 5.9551-4.83084-1.8841-4.51295-15.13174-3.47546-17.33577723 7.20834z"/></g></svg>