<svg width="91" height="28" viewBox="0 0 91 28" fill="none" xmlns="http://www.w3.org/2000/svg">
<path fill-rule="evenodd" clip-rule="evenodd" d="M20.1427 1.10526C20.1532 1.22757 20.1122 1.3299 20.0199 1.41228C18.4811 2.28397 16.9256 3.12311 15.3532 3.92983C14.7672 3.6572 14.1942 3.35018 13.6339 3.00877C13.4702 2.92686 13.3064 2.92686 13.1427 3.00877C10.413 4.55713 7.71129 6.13311 5.03741 7.73685C4.99651 7.73685 4.95549 7.73685 4.9146 7.73685C3.33837 6.76434 1.74184 5.8229 0.125122 4.91228C0.125122 4.87139 0.125122 4.83037 0.125122 4.78948C2.89491 3.20993 5.65807 1.61344 8.4146 0C10.0339 0.973406 11.6714 1.91493 13.3269 2.82456C14.9993 1.90961 16.6572 0.968101 18.3006 0C18.9427 0.340716 19.5568 0.709137 20.1427 1.10526Z" fill="white"/>
<path fill-rule="evenodd" clip-rule="evenodd" d="M20.1426 1.10522C20.7813 1.44453 21.3954 1.81295 21.9847 2.21048C20.3265 3.1421 18.6481 4.04264 16.9496 4.91224C16.3513 4.67534 15.8192 4.34794 15.3531 3.92978C16.9256 3.12306 18.481 2.28392 20.0198 1.41223C20.1122 1.32986 20.1532 1.22752 20.1426 1.10522Z" fill="white"/>
<path fill-rule="evenodd" clip-rule="evenodd" d="M21.9848 2.21056C22.5988 2.47636 23.172 2.80384 23.7041 3.19302C22.0947 4.01841 20.4982 4.87806 18.9146 5.77197C18.8166 5.82809 18.7757 5.91001 18.7918 6.01758C18.1531 5.67827 17.5391 5.30985 16.9497 4.91232C18.6481 4.04272 20.3265 3.14218 21.9848 2.21056Z" fill="white"/>
<path fill-rule="evenodd" clip-rule="evenodd" d="M72.2129 4.0526C73.1545 4.0526 74.0959 4.0526 75.0375 4.0526C75.0375 9.86543 75.0375 15.6784 75.0375 21.4912C74.0959 21.4912 73.1545 21.4912 72.2129 21.4912C72.2129 15.6784 72.2129 9.86543 72.2129 4.0526Z" fill="white"/>
<path fill-rule="evenodd" clip-rule="evenodd" d="M87.5637 4.0526C87.5842 6.38631 87.5637 8.71964 87.5023 11.0526C87.4143 10.9858 87.3529 10.9039 87.3181 10.807C87.4 8.55557 87.4818 6.30403 87.5637 4.0526Z" fill="#A2A4AD"/>
<path fill-rule="evenodd" clip-rule="evenodd" d="M87.5638 4.0526C88.5054 4.0526 89.4468 4.0526 90.3884 4.0526C90.4089 8.26919 90.3884 12.4855 90.327 16.7017C89.5389 20.0491 87.4307 21.7275 84.0024 21.7368C80.7771 21.7646 78.6689 20.2499 77.6778 17.193C76.981 14.5306 77.6156 12.2587 79.5813 10.3772C81.3714 9.05061 83.3363 8.72308 85.4761 9.39471C86.1919 9.75036 86.806 10.2211 87.3182 10.807C87.3529 10.9039 87.4143 10.9858 87.5024 11.0526C87.5638 8.71964 87.5843 6.38631 87.5638 4.0526Z" fill="white"/>
<path fill-rule="evenodd" clip-rule="evenodd" d="M23.704 3.1929C24.3181 3.45866 24.8912 3.78618 25.4233 4.17536C24.0011 4.92767 22.5683 5.68503 21.1251 6.44729C20.8559 6.57833 20.6513 6.76254 20.511 6.99992C19.9379 6.6724 19.3649 6.34499 18.7917 6.01747C18.7756 5.90989 18.8165 5.82797 18.9145 5.77185C20.4981 4.87794 22.0946 4.01829 23.704 3.1929Z" fill="white"/>
<path fill-rule="evenodd" clip-rule="evenodd" d="M25.4234 4.17537C25.8745 4.35958 26.2838 4.60519 26.6515 4.91221C25.0141 5.85377 23.3766 6.79521 21.7392 7.73678C21.3647 7.44658 20.9554 7.20097 20.5111 6.99993C20.6514 6.76255 20.856 6.57834 21.1251 6.4473C22.5684 5.68504 24.0012 4.92769 25.4234 4.17537Z" fill="white"/>
<path fill-rule="evenodd" clip-rule="evenodd" d="M26.6514 4.91231C26.7735 6.15917 26.8145 7.42813 26.7742 8.71933C25.1671 8.47949 23.5297 8.39757 21.8619 8.47371C21.9014 9.15235 21.8605 9.8074 21.7391 10.4386C21.7391 9.53808 21.7391 8.63742 21.7391 7.73687C23.3765 6.79531 25.014 5.85387 26.6514 4.91231Z" fill="white"/>
<path fill-rule="evenodd" clip-rule="evenodd" d="M4.91456 7.73694C4.95545 7.73694 4.99647 7.73694 5.03736 7.73694C4.99757 11.0209 5.03847 14.2958 5.16017 17.5615C5.03785 19.382 4.99696 21.2241 5.03736 23.0878C4.95373 21.1758 4.87182 19.252 4.79175 17.3159C4.91419 14.6763 4.9552 12.0155 4.91456 9.33343C4.91456 8.80131 4.91456 8.26906 4.91456 7.73694Z" fill="white"/>
<path fill-rule="evenodd" clip-rule="evenodd" d="M0.125075 4.91231C1.74179 5.82292 3.33832 6.76436 4.91455 7.73687C4.91455 8.269 4.91455 8.80124 4.91455 9.33336C3.36141 10.6814 1.80585 12.0323 0.247882 13.386C0.125112 10.5627 0.0841678 7.7381 0.125075 4.91231Z" fill="white"/>
<path fill-rule="evenodd" clip-rule="evenodd" d="M40.4059 9.08776C42.5781 8.7536 44.3179 9.44942 45.6252 11.1755C47.2881 9.0939 49.3964 8.50025 51.9498 9.39478C53.5749 10.1252 54.5368 11.3737 54.8357 13.1404C54.8971 15.9237 54.9176 18.7074 54.8971 21.4913C53.9147 21.4913 52.9322 21.4913 51.9498 21.4913C51.9703 18.8302 51.9498 16.1693 51.8884 13.5088C51.5438 12.2643 50.725 11.6911 49.4322 11.7895C48.2707 11.8036 47.5339 12.3768 47.2217 13.5088C47.1603 16.1693 47.1398 18.8302 47.1603 21.4913C46.1778 21.4913 45.1954 21.4913 44.2129 21.4913C44.269 18.7421 44.2076 15.9993 44.0287 13.2632C43.3787 11.9458 42.3348 11.4751 40.8971 11.8509C40.0903 12.1258 39.5785 12.6784 39.362 13.5088C39.3006 16.1693 39.2801 18.8302 39.3006 21.4913C38.3182 21.4913 37.3357 21.4913 36.3533 21.4913C36.2993 18.5392 36.3607 15.5919 36.5375 12.6492C37.1132 10.6602 38.4027 9.47313 40.4059 9.08776Z" fill="white"/>
<path fill-rule="evenodd" clip-rule="evenodd" d="M66.1953 18.0526C67.2412 18.0126 68.2646 18.0534 69.2655 18.1754C68.0577 20.582 66.0927 21.8101 63.3707 21.8596C59.2992 21.6156 57.1297 19.4665 56.8619 15.4122C56.9933 12.0872 58.6716 9.99951 61.897 9.14907C63.9502 8.82351 65.8334 9.23283 67.5462 10.3771C69.3498 12.0005 70.1276 14.0268 69.8795 16.4561C66.5637 16.4561 63.2479 16.4561 59.9321 16.4561C60.1763 17.8621 60.9949 18.7423 62.3883 19.0964C63.5092 19.2786 64.5736 19.1147 65.5812 18.6052C65.8414 18.4764 66.0459 18.2922 66.1953 18.0526Z" fill="white"/>
<path fill-rule="evenodd" clip-rule="evenodd" d="M0.125084 4.78955C0.125084 4.83045 0.125084 4.87146 0.125084 4.91236C0.0841768 7.73815 0.125121 10.5627 0.247891 13.3861C1.80586 12.0323 3.36142 10.6815 4.91456 9.33341C4.95521 12.0155 4.91419 14.6763 4.79175 17.3159C3.22903 16.4012 1.65306 15.5007 0.0636803 14.6141C-0.0382742 11.3185 -0.0178023 8.04357 0.125084 4.78955Z" fill="white"/>
<path fill-rule="evenodd" clip-rule="evenodd" d="M26.7742 8.71929C26.8148 10.7057 26.7737 12.6706 26.6514 14.614C26.6514 14.2456 26.6514 13.8772 26.6514 13.5088C26.6514 12.9356 26.6514 12.3626 26.6514 11.7895C26.6514 11.3802 26.6514 10.9707 26.6514 10.5614C25.0549 10.5614 23.4584 10.5614 21.8619 10.5614C21.8619 10.9707 21.8619 11.3802 21.8619 11.7895C21.9006 12.2649 21.8597 12.7152 21.7391 13.1403C21.7391 12.2398 21.7391 11.3391 21.7391 10.4386C21.8605 9.80736 21.9014 9.15231 21.8619 8.47368C23.5297 8.39754 25.1671 8.47945 26.7742 8.71929Z" fill="white"/>
<path fill-rule="evenodd" clip-rule="evenodd" d="M26.6514 11.7895C25.0549 11.7895 23.4584 11.7895 21.8619 11.7895C21.8619 11.3802 21.8619 10.9707 21.8619 10.5614C23.4584 10.5614 25.0549 10.5614 26.6514 10.5614C26.6514 10.9707 26.6514 11.3802 26.6514 11.7895Z" fill="white"/>
<path fill-rule="evenodd" clip-rule="evenodd" d="M62.5111 11.6667C63.9929 11.4986 65.2415 11.9489 66.2567 13.0176C66.4705 13.3625 66.6138 13.731 66.6865 14.1228C64.4347 14.1434 62.1832 14.1228 59.9321 14.0614C60.4241 12.8526 61.2837 12.0544 62.5111 11.6667Z" fill="#313131"/>
<path fill-rule="evenodd" clip-rule="evenodd" d="M82.8971 11.7894C86.5567 11.6616 88.0099 13.3809 87.2567 16.9473C86.8079 17.9693 86.0505 18.6447 84.9848 18.9736C82.2366 19.3815 80.6811 18.2148 80.3181 15.4736C80.3955 13.6767 81.2551 12.4486 82.8971 11.7894Z" fill="#313131"/>
<path fill-rule="evenodd" clip-rule="evenodd" d="M21.8619 11.7894C23.4584 11.7894 25.0549 11.7894 26.6514 11.7894C26.6514 12.3626 26.6514 12.9356 26.6514 13.5087C25.0549 13.5087 23.4584 13.5087 21.8619 13.5087C21.8619 13.918 21.8619 14.3275 21.8619 14.7368C21.8619 15.5964 21.8619 16.4561 21.8619 17.3157C21.7393 16.0158 21.6984 14.624 21.7391 13.1403C21.8597 12.7151 21.9006 12.2648 21.8619 11.7894Z" fill="white"/>
<path fill-rule="evenodd" clip-rule="evenodd" d="M26.6514 13.5087C26.6514 13.8771 26.6514 14.2455 26.6514 14.614C26.4877 14.6959 26.3239 14.7777 26.1602 14.8596C24.7494 14.7374 23.3166 14.6965 21.8619 14.7368C21.8619 14.3274 21.8619 13.918 21.8619 13.5087C23.4584 13.5087 25.0549 13.5087 26.6514 13.5087Z" fill="white"/>
<path fill-rule="evenodd" clip-rule="evenodd" d="M21.8619 14.7369C23.3166 14.6966 24.7494 14.7375 26.1602 14.8597C24.7484 15.709 23.3156 16.5278 21.8619 17.3158C21.8619 16.4562 21.8619 15.5965 21.8619 14.7369Z" fill="white"/>
<path fill-rule="evenodd" clip-rule="evenodd" d="M66.1952 18.0526C67.2402 17.8904 68.3044 17.8904 69.3882 18.0526C69.3729 18.1272 69.3321 18.1681 69.2654 18.1754C68.2645 18.0535 67.2411 18.0126 66.1952 18.0526Z" fill="#A3A6AF"/>
<path fill-rule="evenodd" clip-rule="evenodd" d="M21.7391 21C19.7333 21 17.7274 21 15.7216 21C17.6717 19.7588 19.6777 18.6125 21.7391 17.5614C21.7391 18.7076 21.7391 19.8539 21.7391 21Z" fill="white"/>
<path fill-rule="evenodd" clip-rule="evenodd" d="M15.7216 21.0001C17.7275 21.0001 19.7334 21.0001 21.7392 21.0001C21.7392 21.5322 21.7392 22.0645 21.7392 22.5966C18.9555 22.5966 16.172 22.5966 13.3883 22.5966C13.3883 22.4738 13.3883 22.351 13.3883 22.2282C14.1681 21.8153 14.946 21.406 15.7216 21.0001Z" fill="white"/>
<path fill-rule="evenodd" clip-rule="evenodd" d="M5.1602 17.5614C7.88628 19.1496 10.6291 20.705 13.3883 22.2281C13.3883 22.3509 13.3883 22.4737 13.3883 22.5965C13.3883 22.9649 13.3883 23.3334 13.3883 23.7018C13.348 25.1155 13.3889 26.5074 13.5111 27.8772C13.4292 28.0409 13.3474 28.0409 13.2655 27.8772C13.2655 26.1579 13.2655 24.4386 13.2655 22.7193C11.317 23.2597 9.393 23.8737 7.49354 24.5614C6.62971 24.1301 5.81096 23.6389 5.0374 23.0878C4.99699 21.224 5.03789 19.3819 5.1602 17.5614Z" fill="white"/>
<path fill-rule="evenodd" clip-rule="evenodd" d="M13.2655 27.8772C11.3204 26.8025 9.39655 25.6972 7.49353 24.5614C9.39299 23.8736 11.317 23.2596 13.2655 22.7193C13.2655 24.4386 13.2655 26.1579 13.2655 27.8772Z" fill="white"/>
<path fill-rule="evenodd" clip-rule="evenodd" d="M13.3883 22.5965C16.172 22.5965 18.9555 22.5965 21.7392 22.5965C21.7742 22.8161 21.7333 23.0208 21.6164 23.2105C21.2644 23.4478 20.896 23.6525 20.5111 23.8246C18.1583 23.7021 15.7839 23.6612 13.3883 23.7018C13.3883 23.3333 13.3883 22.9649 13.3883 22.5965Z" fill="white"/>
<path fill-rule="evenodd" clip-rule="evenodd" d="M13.3883 23.7018C15.7839 23.6613 18.1582 23.7022 20.5111 23.8246C18.2022 25.2046 15.8689 26.5555 13.5111 27.8772C13.3889 26.5075 13.348 25.1156 13.3883 23.7018Z" fill="white"/>
</svg>
