<svg width="91" height="28" viewBox="0 0 91 28" fill="none" xmlns="http://www.w3.org/2000/svg">
<path fill-rule="evenodd" clip-rule="evenodd" d="M20.1426 1.10527C20.1532 1.22757 20.1122 1.32991 20.0198 1.41229C18.481 2.28397 16.9256 3.12312 15.3531 3.92984C14.7671 3.65721 14.1941 3.35019 13.6338 3.00878C13.4701 2.92687 13.3063 2.92687 13.1426 3.00878C10.413 4.55714 7.71119 6.13313 5.0373 7.73687C4.99641 7.73687 4.95539 7.73687 4.91449 7.73687C3.33826 6.76436 1.74172 5.82292 0.125 4.9123C0.125 4.87141 0.125 4.83039 0.125 4.78949C2.8948 3.20994 5.65797 1.61345 8.41451 0C10.0338 0.973409 11.6714 1.91494 13.3268 2.82457C14.9992 1.90962 16.6571 0.968104 18.3005 0C18.9427 0.340717 19.5567 0.70914 20.1426 1.10527Z" fill="#313131"/>
<path fill-rule="evenodd" clip-rule="evenodd" d="M20.1426 1.10535C20.7814 1.44466 21.3954 1.81309 21.9848 2.21061C20.3265 3.14223 18.6481 4.04278 16.9496 4.91238C16.3513 4.67548 15.8192 4.34808 15.3531 3.92992C16.9256 3.1232 18.4811 2.28405 20.0198 1.41237C20.1122 1.32999 20.1532 1.22765 20.1426 1.10535Z" fill="#313131"/>
<path fill-rule="evenodd" clip-rule="evenodd" d="M21.9848 2.21069C22.5989 2.47649 23.172 2.80398 23.7041 3.19315C22.0947 4.01854 20.4982 4.8782 18.9146 5.77211C18.8166 5.82823 18.7757 5.91015 18.7918 6.01773C18.1531 5.67841 17.5391 5.30999 16.9497 4.91246C18.6481 4.04286 20.3265 3.14231 21.9848 2.21069Z" fill="#313131"/>
<path fill-rule="evenodd" clip-rule="evenodd" d="M72.2131 4.05261C73.1547 4.05261 74.0961 4.05261 75.0377 4.05261C75.0377 9.86546 75.0377 15.6784 75.0377 21.4913C74.0961 21.4913 73.1547 21.4913 72.2131 21.4913C72.2131 15.6784 72.2131 9.86546 72.2131 4.05261Z" fill="#313131"/>
<path fill-rule="evenodd" clip-rule="evenodd" d="M87.564 4.05261C87.5845 6.38632 87.564 8.71967 87.5026 11.0526C87.4145 10.9858 87.3531 10.9039 87.3184 10.807C87.4003 8.5556 87.4821 6.30404 87.564 4.05261Z" fill="#A2A4AD"/>
<path fill-rule="evenodd" clip-rule="evenodd" d="M87.5641 4.05261C88.5056 4.05261 89.4471 4.05261 90.3886 4.05261C90.4092 8.26921 90.3886 12.4856 90.3272 16.7018C89.5392 20.0492 87.431 21.7276 84.0027 21.7369C80.7774 21.7647 78.6691 20.2499 77.6781 17.193C76.9813 14.5307 77.6158 12.2587 79.5816 10.3772C81.3716 9.05063 83.3365 8.72311 85.4763 9.39474C86.1922 9.75039 86.8062 10.2211 87.3185 10.807C87.3532 10.9039 87.4146 10.9858 87.5027 11.0526C87.5641 8.71967 87.5846 6.38632 87.5641 4.05261Z" fill="#313131"/>
<path fill-rule="evenodd" clip-rule="evenodd" d="M23.7042 3.19287C24.3182 3.45863 24.8913 3.78615 25.4235 4.17533C24.0012 4.92765 22.5684 5.685 21.1252 6.44727C20.856 6.57831 20.6514 6.76252 20.5112 6.9999C19.938 6.67238 19.365 6.34497 18.7919 6.01744C18.7758 5.90986 18.8167 5.82795 18.9147 5.77183C20.4983 4.87791 22.0948 4.01826 23.7042 3.19287Z" fill="#313131"/>
<path fill-rule="evenodd" clip-rule="evenodd" d="M25.4235 4.17529C25.8746 4.3595 26.2839 4.60512 26.6516 4.91214C25.0142 5.8537 23.3767 6.79515 21.7393 7.73671C21.3649 7.44652 20.9555 7.2009 20.5112 6.99987C20.6515 6.76248 20.8561 6.57827 21.1253 6.44723C22.5685 5.68497 24.0013 4.92761 25.4235 4.17529Z" fill="#313131"/>
<path fill-rule="evenodd" clip-rule="evenodd" d="M26.6514 4.91235C26.7735 6.15922 26.8145 7.42819 26.7742 8.71939C25.1671 8.47954 23.5297 8.39763 21.8619 8.47377C21.9014 9.15241 21.8605 9.80746 21.7391 10.4387C21.7391 9.53814 21.7391 8.63747 21.7391 7.73693C23.3765 6.79536 25.014 5.85392 26.6514 4.91235Z" fill="#313131"/>
<path fill-rule="evenodd" clip-rule="evenodd" d="M4.91456 7.73682C4.95545 7.73682 4.99647 7.73682 5.03736 7.73682C4.99757 11.0208 5.03847 14.2957 5.16017 17.5614C5.03785 19.3819 4.99696 21.224 5.03736 23.0878C4.95373 21.1758 4.87182 19.2519 4.79175 17.3158C4.91419 14.6762 4.9552 12.0154 4.91456 9.33331C4.91456 8.80119 4.91456 8.26894 4.91456 7.73682Z" fill="#313131"/>
<path fill-rule="evenodd" clip-rule="evenodd" d="M0.125075 4.91235C1.7418 5.82297 3.33833 6.76441 4.91457 7.73693C4.91457 8.26905 4.91457 8.8013 4.91457 9.33343C3.36142 10.6815 1.80586 12.0324 0.247882 13.3861C0.125112 10.5627 0.0841677 7.73816 0.125075 4.91235Z" fill="#313131"/>
<path fill-rule="evenodd" clip-rule="evenodd" d="M40.4059 9.08783C42.5781 8.75368 44.3179 9.4495 45.6252 11.1756C47.2882 9.09397 49.3964 8.50032 51.9498 9.39485C53.5749 10.1253 54.5369 11.3738 54.8358 13.1405C54.8972 15.9238 54.9177 18.7075 54.8972 21.4914C53.9147 21.4914 52.9323 21.4914 51.9498 21.4914C51.9703 18.8303 51.9498 16.1694 51.8884 13.5089C51.5438 12.2644 50.7251 11.6912 49.4323 11.7896C48.2707 11.8037 47.5339 12.3769 47.2217 13.5089C47.1603 16.1694 47.1398 18.8303 47.1603 21.4914C46.1779 21.4914 45.1954 21.4914 44.2129 21.4914C44.2691 18.7422 44.2077 15.9994 44.0287 13.2633C43.3787 11.9459 42.3348 11.4752 40.8971 11.851C40.0903 12.1258 39.5785 12.6785 39.362 13.5089C39.3006 16.1694 39.2801 18.8303 39.3006 21.4914C38.3182 21.4914 37.3357 21.4914 36.3533 21.4914C36.2993 18.5393 36.3607 15.592 36.5375 12.6493C37.1132 10.6603 38.4027 9.4732 40.4059 9.08783Z" fill="#313131"/>
<path fill-rule="evenodd" clip-rule="evenodd" d="M66.1954 18.0526C67.2414 18.0126 68.2647 18.0535 69.2656 18.1754C68.0578 20.5821 66.0929 21.8102 63.3709 21.8596C59.2993 21.6156 57.1298 19.4665 56.8621 15.4122C56.9935 12.0872 58.6718 9.99951 61.8972 9.14906C63.9504 8.8235 65.8335 9.23282 67.5463 10.3771C69.35 12.0005 70.1277 14.0269 69.8797 16.4561C66.5639 16.4561 63.2481 16.4561 59.9322 16.4561C60.1764 17.8621 60.995 18.7423 62.3884 19.0965C63.5094 19.2786 64.5738 19.1148 65.5814 18.6052C65.8415 18.4764 66.0461 18.2922 66.1954 18.0526Z" fill="#313131"/>
<path fill-rule="evenodd" clip-rule="evenodd" d="M0.125084 4.78967C0.125084 4.83057 0.125084 4.87159 0.125084 4.91248C0.084177 7.73828 0.125121 10.5629 0.247892 13.3862C1.80586 12.0325 3.36143 10.6816 4.91458 9.33355C4.95523 12.0157 4.91421 14.6764 4.79177 17.316C3.22904 16.4014 1.65307 15.5008 0.0636805 14.6143C-0.0382744 11.3186 -0.0178023 8.0437 0.125084 4.78967Z" fill="#313131"/>
<path fill-rule="evenodd" clip-rule="evenodd" d="M26.7742 8.71929C26.8148 10.7057 26.7738 12.6706 26.6514 14.6141C26.6514 14.2456 26.6514 13.8772 26.6514 13.5088C26.6514 12.9356 26.6514 12.3626 26.6514 11.7895C26.6514 11.3802 26.6514 10.9707 26.6514 10.5614C25.0549 10.5614 23.4584 10.5614 21.8619 10.5614C21.8619 10.9707 21.8619 11.3802 21.8619 11.7895C21.9006 12.2649 21.8597 12.7152 21.7391 13.1404C21.7391 12.2398 21.7391 11.3391 21.7391 10.4386C21.8605 9.80737 21.9014 9.15231 21.8619 8.47368C23.5297 8.39754 25.1671 8.47945 26.7742 8.71929Z" fill="#313131"/>
<path fill-rule="evenodd" clip-rule="evenodd" d="M26.6514 11.7894C25.0549 11.7894 23.4584 11.7894 21.8619 11.7894C21.8619 11.38 21.8619 10.9706 21.8619 10.5613C23.4584 10.5613 25.0549 10.5613 26.6514 10.5613C26.6514 10.9706 26.6514 11.38 26.6514 11.7894Z" fill="#313131"/>
<path fill-rule="evenodd" clip-rule="evenodd" d="M62.5116 11.6668C63.9934 11.4987 65.242 11.9491 66.2572 13.0177C66.471 13.3627 66.6143 13.7311 66.687 14.123C64.4352 14.1435 62.1837 14.123 59.9326 14.0616C60.4246 12.8528 61.2842 12.0545 62.5116 11.6668Z" fill="#FBFBFC"/>
<path fill-rule="evenodd" clip-rule="evenodd" d="M82.8973 11.7896C86.557 11.6618 88.0102 13.3811 87.257 16.9475C86.8081 17.9695 86.0508 18.645 84.985 18.9738C82.2369 19.3817 80.6814 18.215 80.3184 15.4738C80.3957 13.6769 81.2554 12.4488 82.8973 11.7896Z" fill="#FBFCFC"/>
<path fill-rule="evenodd" clip-rule="evenodd" d="M21.8619 11.7896C23.4584 11.7896 25.0549 11.7896 26.6514 11.7896C26.6514 12.3627 26.6514 12.9357 26.6514 13.5089C25.0549 13.5089 23.4584 13.5089 21.8619 13.5089C21.8619 13.9182 21.8619 14.3276 21.8619 14.7369C21.8619 15.5966 21.8619 16.4562 21.8619 17.3159C21.7393 16.016 21.6984 14.6242 21.7391 13.1404C21.8597 12.7153 21.9006 12.2649 21.8619 11.7896Z" fill="#313131"/>
<path fill-rule="evenodd" clip-rule="evenodd" d="M26.6514 13.5089C26.6514 13.8773 26.6514 14.2458 26.6514 14.6142C26.4877 14.6961 26.3239 14.7779 26.1602 14.8598C24.7494 14.7376 23.3166 14.6967 21.8619 14.737C21.8619 14.3277 21.8619 13.9182 21.8619 13.5089C23.4584 13.5089 25.0549 13.5089 26.6514 13.5089Z" fill="#313131"/>
<path fill-rule="evenodd" clip-rule="evenodd" d="M21.8619 14.737C23.3166 14.6968 24.7494 14.7376 26.1602 14.8598C24.7484 15.7092 23.3156 16.5279 21.8619 17.316C21.8619 16.4563 21.8619 15.5967 21.8619 14.737Z" fill="#313131"/>
<path fill-rule="evenodd" clip-rule="evenodd" d="M66.1954 18.0528C67.2404 17.8906 68.3047 17.8906 69.3884 18.0528C69.3732 18.1274 69.3323 18.1683 69.2656 18.1756C68.2647 18.0537 67.2414 18.0128 66.1954 18.0528Z" fill="#A3A6AF"/>
<path fill-rule="evenodd" clip-rule="evenodd" d="M21.7391 20.9999C19.7333 20.9999 17.7274 20.9999 15.7216 20.9999C17.6717 19.7587 19.6777 18.6124 21.7391 17.5613C21.7391 18.7074 21.7391 19.8537 21.7391 20.9999Z" fill="#313131"/>
<path fill-rule="evenodd" clip-rule="evenodd" d="M15.7216 21.0004C17.7275 21.0004 19.7334 21.0004 21.7392 21.0004C21.7392 21.5325 21.7392 22.0647 21.7392 22.5969C18.9555 22.5969 16.172 22.5969 13.3883 22.5969C13.3883 22.4741 13.3883 22.3512 13.3883 22.2284C14.1681 21.8156 14.946 21.4062 15.7216 21.0004Z" fill="#313131"/>
<path fill-rule="evenodd" clip-rule="evenodd" d="M5.16045 17.5613C7.88653 19.1494 10.6293 20.7049 13.3886 22.228C13.3886 22.3508 13.3886 22.4736 13.3886 22.5964C13.3886 22.9648 13.3886 23.3332 13.3886 23.7017C13.3483 25.1154 13.3892 26.5073 13.5114 27.8771C13.4294 28.0408 13.3477 28.0408 13.2657 27.8771C13.2657 26.1578 13.2657 24.4385 13.2657 22.7192C11.3173 23.2595 9.39326 23.8736 7.49379 24.5613C6.62996 24.13 5.81121 23.6388 5.03764 23.0876C4.99724 21.2239 5.03813 19.3818 5.16045 17.5613Z" fill="#313131"/>
<path fill-rule="evenodd" clip-rule="evenodd" d="M13.2655 27.8774C11.3205 26.8027 9.39656 25.6974 7.49353 24.5616C9.39299 23.8739 11.317 23.2598 13.2655 22.7195C13.2655 24.4388 13.2655 26.1581 13.2655 27.8774Z" fill="#313131"/>
<path fill-rule="evenodd" clip-rule="evenodd" d="M13.3883 22.5967C16.172 22.5967 18.9555 22.5967 21.7392 22.5967C21.7742 22.8163 21.7333 23.021 21.6164 23.2107C21.2644 23.448 20.896 23.6527 20.5111 23.8248C18.1583 23.7023 15.7839 23.6614 13.3883 23.7019C13.3883 23.3335 13.3883 22.9651 13.3883 22.5967Z" fill="#313131"/>
<path fill-rule="evenodd" clip-rule="evenodd" d="M13.3882 23.702C15.7838 23.6615 18.1581 23.7024 20.511 23.8248C18.2021 25.2048 15.8687 26.5557 13.511 27.8775C13.3888 26.5077 13.3479 25.1158 13.3882 23.702Z" fill="#313131"/>
</svg>
