<svg width="20" height="20" viewBox="0 0 20 20" fill="none" xmlns="http://www.w3.org/2000/svg">
<circle cx="10" cy="10" r="10" fill="#A735B9"/>
<path fill-rule="evenodd" clip-rule="evenodd" d="M9.86874 4.30159C9.86874 4.3103 9.84919 4.31742 9.8253 4.31742C9.79634 4.31742 9.78186 4.32533 9.78186 4.34116C9.78186 4.35592 9.7682 4.3649 9.74567 4.3649C9.72314 4.3649 9.70947 4.37387 9.70947 4.38864C9.70947 4.40446 9.69499 4.41238 9.66603 4.41238C9.64214 4.41238 9.6226 4.4195 9.6226 4.4282C9.6226 4.43691 9.60631 4.44403 9.5864 4.44403C9.56387 4.44403 9.5502 4.453 9.5502 4.46777C9.5502 4.48253 9.53653 4.49151 9.51401 4.49151C9.49148 4.49151 9.47781 4.50048 9.47781 4.51525C9.47781 4.53107 9.46333 4.53899 9.43437 4.53899C9.40542 4.53899 9.39094 4.5469 9.39094 4.56272C9.39094 4.57749 9.37727 4.58646 9.35474 4.58646C9.33483 4.58646 9.31854 4.59358 9.31854 4.60229C9.31854 4.61099 9.299 4.61812 9.27511 4.61812C9.24615 4.61812 9.23167 4.62603 9.23167 4.64186C9.23167 4.65662 9.218 4.66559 9.19547 4.66559C9.17294 4.66559 9.15928 4.67457 9.15928 4.68933C9.15928 4.70516 9.1448 4.71307 9.11584 4.71307C9.09195 4.71307 9.0724 4.72019 9.0724 4.7289C9.0724 4.7376 9.05611 4.74473 9.03621 4.74473C9.01368 4.74473 9.00001 4.7537 9.00001 4.76846C9.00001 4.78429 8.98553 4.7922 8.95657 4.7922C8.92762 4.7922 8.91314 4.80012 8.91314 4.81594C8.91314 4.83071 8.89947 4.83968 8.87694 4.83968C8.85441 4.83968 8.84074 4.84865 8.84074 4.86342C8.84074 4.87819 8.82708 4.88716 8.80455 4.88716C8.78464 4.88716 8.76835 4.89428 8.76835 4.90299C8.76835 4.91169 8.7488 4.91881 8.72491 4.91881C8.69596 4.91881 8.68148 4.92672 8.68148 4.94255C8.68148 4.95732 8.66781 4.96629 8.64528 4.96629C8.62275 4.96629 8.60908 4.97526 8.60908 4.99003C8.60908 5.00586 8.5946 5.01377 8.56565 5.01377C8.53669 5.01377 8.52221 5.02168 8.52221 5.03751C8.52221 5.05227 8.50854 5.06125 8.48601 5.06125C8.4661 5.06125 8.44982 5.06837 8.44982 5.07707C8.44982 5.08578 8.43332 5.0929 8.41317 5.0929C8.393 5.0929 8.37276 5.10358 8.36819 5.11664C8.3636 5.1297 8.34425 5.14038 8.3252 5.14038C8.30406 5.14038 8.29055 5.14964 8.29055 5.16412C8.29055 5.17888 8.27688 5.18786 8.25435 5.18786C8.23444 5.18786 8.21816 5.19498 8.21816 5.20368C8.21816 5.21239 8.19861 5.21951 8.17472 5.21951C8.14576 5.21951 8.13128 5.22742 8.13128 5.24325C8.13128 5.25801 8.11762 5.26699 8.09509 5.26699C8.07256 5.26699 8.05889 5.27596 8.05889 5.29073C8.05889 5.30655 8.04441 5.31446 8.01545 5.31446C7.9865 5.31446 7.97202 5.32238 7.97202 5.3382C7.97202 5.35297 7.95835 5.36194 7.93582 5.36194C7.91591 5.36194 7.89962 5.36907 7.89962 5.37777C7.89962 5.38647 7.88008 5.3936 7.85619 5.3936C7.82723 5.3936 7.81275 5.40151 7.81275 5.41733C7.81275 5.4321 7.79908 5.44107 7.77655 5.44107C7.75402 5.44107 7.74036 5.45005 7.74036 5.46481C7.74036 5.48064 7.72588 5.48855 7.69692 5.48855C7.67303 5.48855 7.65348 5.49567 7.65348 5.50438C7.65348 5.51308 7.6372 5.5202 7.61729 5.5202C7.59476 5.5202 7.58109 5.52918 7.58109 5.54394C7.58109 5.55871 7.56742 5.56768 7.54489 5.56768C7.52236 5.56768 7.5087 5.57666 7.5087 5.59142C7.5087 5.60725 7.49422 5.61516 7.46526 5.61516C7.4363 5.61516 7.42182 5.62307 7.42182 5.6389C7.42182 5.65367 7.40816 5.66264 7.38563 5.66264C7.36572 5.66264 7.34943 5.66976 7.34943 5.67847C7.34943 5.68717 7.32988 5.69429 7.30599 5.69429C7.27704 5.69429 7.26256 5.7022 7.26256 5.71803C7.26256 5.7328 7.24889 5.74177 7.22636 5.74177C7.20383 5.74177 7.19016 5.75074 7.19016 5.76551C7.19016 5.78134 7.17568 5.78925 7.14673 5.78925C7.12284 5.78925 7.10329 5.79637 7.10329 5.80508C7.10329 5.81378 7.087 5.8209 7.06709 5.8209C7.04457 5.8209 7.0309 5.82987 7.0309 5.84464C7.0309 5.85941 7.01723 5.86838 6.9947 5.86838C6.97217 5.86838 6.9585 5.87735 6.9585 5.89212C6.9585 5.90794 6.94402 5.91586 6.91507 5.91586C6.88611 5.91586 6.87163 5.92377 6.87163 5.9396C6.87163 5.95436 6.85796 5.96334 6.83543 5.96334C6.81553 5.96334 6.79924 5.97046 6.79924 5.97916C6.79924 5.98787 6.77969 5.99499 6.7558 5.99499C6.72684 5.99499 6.71236 6.0029 6.71236 6.01873C6.71236 6.03349 6.6987 6.04247 6.67617 6.04247C6.65364 6.04247 6.63997 6.05144 6.63997 6.06621C6.63997 6.08203 6.62549 6.08994 6.59653 6.08994C6.57264 6.08994 6.5531 6.09707 6.5531 6.10577C6.5531 6.11448 6.53681 6.1216 6.5169 6.1216C6.49437 6.1216 6.4807 6.13057 6.4807 6.14534C6.4807 6.16116 6.46623 6.16908 6.43727 6.16908C6.40831 6.16908 6.39383 6.17699 6.39383 6.19281C6.39383 6.20758 6.38016 6.21655 6.35763 6.21655C6.33511 6.21655 6.32144 6.22553 6.32144 6.24029C6.32144 6.25506 6.30777 6.26403 6.28524 6.26403C6.26533 6.26403 6.24904 6.27115 6.24904 6.27986C6.24904 6.28856 6.2295 6.29568 6.20561 6.29568C6.17665 6.29568 6.16217 6.3036 6.16217 6.31942C6.16217 6.33419 6.1485 6.34316 6.12597 6.34316C6.10345 6.34316 6.08978 6.35214 6.08978 6.3669C6.08978 6.38273 6.0753 6.39064 6.04634 6.39064C6.01738 6.39064 6.0029 6.39856 6.0029 6.41438C6.0029 6.42915 5.98924 6.43812 5.96671 6.43812C5.9468 6.43812 5.93051 6.44524 5.93051 6.45395C5.93051 6.46265 5.91096 6.46977 5.88707 6.46977C5.85812 6.46977 5.84364 6.47769 5.84364 6.49351C5.84364 6.50828 5.82997 6.51725 5.80744 6.51725C5.78491 6.51725 5.77124 6.52622 5.77124 6.54099C5.77124 6.55575 5.75758 6.56473 5.73505 6.56473C5.71514 6.56473 5.69885 6.57185 5.69885 6.58056C5.69885 6.58926 5.6793 6.59638 5.65541 6.59638C5.62646 6.59638 5.61198 6.60429 5.61198 6.62012C5.61198 6.63489 5.59831 6.64386 5.57578 6.64386C5.55325 6.64386 5.53958 6.65283 5.53958 6.6676C5.53958 6.68343 5.52511 6.69134 5.49615 6.69134C5.46719 6.69134 5.45271 6.69925 5.45271 6.71508C5.45271 6.72984 5.43904 6.73882 5.41651 6.73882C5.39661 6.73882 5.38032 6.74594 5.38032 6.75464C5.38032 6.76335 5.36077 6.77047 5.33688 6.77047C5.30792 6.77047 5.29345 6.77838 5.29345 6.79421C5.29345 6.80897 5.27978 6.81795 5.25725 6.81795C5.23472 6.81795 5.22105 6.82692 5.22105 6.84169C5.22105 6.85751 5.20657 6.86543 5.17761 6.86543C5.15373 6.86543 5.13418 6.87255 5.13418 6.88125C5.13418 6.88996 5.11789 6.89708 5.09798 6.89708C5.07545 6.89708 5.06178 6.90605 5.06178 6.92082C5.06178 6.93558 5.04812 6.94456 5.02559 6.94456C5.00306 6.94456 4.98939 6.95353 4.98939 6.9683C4.98939 6.98412 4.97491 6.99204 4.94595 6.99204C4.917 6.99204 4.90252 6.99995 4.90252 7.01577C4.90252 7.02883 4.89554 7.03951 4.88701 7.03951C4.8677 7.03951 4.83012 7.07946 4.83012 7.1C4.83012 7.10839 4.82035 7.11936 4.80841 7.12437C4.79646 7.12937 4.78669 7.14794 4.78669 7.16563C4.78669 7.18366 4.77715 7.19777 4.76497 7.19777C4.75049 7.19777 4.74325 7.2136 4.74325 7.24525C4.74325 7.27137 4.73674 7.29273 4.72877 7.29273C4.71926 7.29273 4.71429 7.65673 4.71429 8.35308C4.71429 9.04943 4.71926 9.41343 4.72877 9.41343C4.73674 9.41343 4.74325 9.43124 4.74325 9.453C4.74325 9.47762 4.75146 9.49256 4.76497 9.49256C4.77945 9.49256 4.78669 9.50839 4.78669 9.54004C4.78669 9.57169 4.79393 9.58752 4.80841 9.58752C4.82035 9.58752 4.83012 9.59515 4.83012 9.60447C4.83012 9.62639 4.86696 9.66665 4.88701 9.66665C4.89554 9.66665 4.90252 9.67733 4.90252 9.69039C4.90252 9.70344 4.91229 9.71413 4.92424 9.71413C4.93618 9.71413 4.94595 9.72481 4.94595 9.73787C4.94595 9.75263 4.95962 9.76161 4.98215 9.76161C5.00206 9.76161 5.01835 9.76873 5.01835 9.77743C5.01835 9.78614 5.04441 9.79326 5.07626 9.79326C5.11809 9.79326 5.13418 9.79986 5.13418 9.817C5.13418 9.83749 5.18567 9.84074 5.51063 9.84074H5.88707V11.7478V13.6548H5.55406C5.2677 13.6548 5.22105 13.6582 5.22105 13.6786C5.22105 13.6968 5.20255 13.7023 5.14142 13.7023C5.08029 13.7023 5.06178 13.7078 5.06178 13.7261C5.06178 13.7408 5.04812 13.7498 5.02559 13.7498C5.00568 13.7498 4.98939 13.7569 4.98939 13.7656C4.98939 13.7743 4.97962 13.7814 4.96767 13.7814C4.95573 13.7814 4.94595 13.7921 4.94595 13.8052C4.94595 13.8193 4.93263 13.8289 4.91297 13.8289C4.87411 13.8289 4.83012 13.8794 4.83012 13.9241C4.83012 13.9415 4.82042 13.9555 4.80841 13.9555C4.79646 13.9555 4.78669 13.9662 4.78669 13.9793C4.78669 13.9923 4.77692 14.003 4.76497 14.003C4.75146 14.003 4.74325 14.0179 4.74325 14.0426C4.74325 14.0643 4.73674 14.0821 4.72877 14.0821C4.7197 14.0821 4.71429 14.1824 4.71429 14.3512C4.71429 14.52 4.7197 14.6202 4.72877 14.6202C4.73674 14.6202 4.74325 14.638 4.74325 14.6598C4.74325 14.6844 4.75146 14.6994 4.76497 14.6994C4.77692 14.6994 4.78669 14.71 4.78669 14.7231C4.78669 14.7362 4.79646 14.7468 4.80841 14.7468C4.82192 14.7468 4.83012 14.7618 4.83012 14.7864C4.83012 14.811 4.83833 14.826 4.85184 14.826C4.86379 14.826 4.87356 14.8329 4.87356 14.8415C4.87356 14.85 4.88985 14.8615 4.90976 14.8669C4.92967 14.8724 4.94595 14.8868 4.94595 14.8989C4.94595 14.911 4.95573 14.9209 4.96767 14.9209C4.97962 14.9209 4.98939 14.9316 4.98939 14.9447C4.98939 14.9594 5.00306 14.9684 5.02559 14.9684C5.0455 14.9684 5.06178 14.9755 5.06178 14.9842C5.06178 14.9948 6.73408 15.0001 10.0497 15.0001C13.3654 15.0001 15.0377 14.9948 15.0377 14.9842C15.0377 14.9755 15.0539 14.9684 15.0739 14.9684C15.0964 14.9684 15.11 14.9594 15.11 14.9447C15.11 14.9316 15.1198 14.9209 15.1318 14.9209C15.1437 14.9209 15.1535 14.9102 15.1535 14.8972C15.1535 14.8824 15.1672 14.8734 15.1897 14.8734C15.2122 14.8734 15.2259 14.8645 15.2259 14.8497C15.2259 14.8366 15.2357 14.826 15.2476 14.826C15.2611 14.826 15.2693 14.811 15.2693 14.7864C15.2693 14.7618 15.2775 14.7468 15.291 14.7468C15.303 14.7468 15.3128 14.7362 15.3128 14.7231C15.3128 14.71 15.3225 14.6994 15.3345 14.6994C15.348 14.6994 15.3562 14.6844 15.3562 14.6598C15.3562 14.638 15.3627 14.6202 15.3707 14.6202C15.3789 14.6202 15.3851 14.5727 15.3851 14.5094C15.3851 14.4215 15.3896 14.3987 15.4069 14.3987C15.4213 14.3987 15.4286 14.3828 15.4286 14.3512C15.4286 14.3195 15.4213 14.3037 15.4069 14.3037C15.3896 14.3037 15.3851 14.2809 15.3851 14.1929C15.3851 14.1296 15.3789 14.0821 15.3707 14.0821C15.3627 14.0821 15.3562 14.0643 15.3562 14.0426C15.3562 14.0193 15.3479 14.003 15.336 14.003C15.325 14.003 15.3118 13.9852 15.3068 13.9634C15.3018 13.9417 15.2913 13.9239 15.2835 13.9239C15.2757 13.9239 15.2693 13.9132 15.2693 13.9001C15.2693 13.8871 15.2595 13.8764 15.2476 13.8764C15.2357 13.8764 15.2259 13.8657 15.2259 13.8527C15.2259 13.8396 15.2161 13.8289 15.2042 13.8289C15.1922 13.8289 15.1824 13.8219 15.1824 13.8134C15.1824 13.8049 15.1662 13.7934 15.1462 13.7879C15.1263 13.7825 15.11 13.7717 15.11 13.7639C15.11 13.7561 15.0938 13.7498 15.0739 13.7498C15.0513 13.7498 15.0377 13.7408 15.0377 13.7261C15.0377 13.7078 15.0192 13.7023 14.958 13.7023C14.8969 13.7023 14.8784 13.6968 14.8784 13.6786C14.8784 13.6582 14.8317 13.6548 14.5454 13.6548H14.2124V11.7478V9.84074H14.5816C14.9001 9.84074 14.9508 9.83748 14.9508 9.817C14.9508 9.79986 14.9669 9.79326 15.0087 9.79326C15.0406 9.79326 15.0666 9.78614 15.0666 9.77743C15.0666 9.76873 15.0862 9.76161 15.11 9.76161C15.139 9.76161 15.1535 9.75369 15.1535 9.73787C15.1535 9.72481 15.1633 9.71413 15.1752 9.71413C15.1871 9.71413 15.1969 9.7065 15.1969 9.69718C15.1969 9.67526 15.2338 9.635 15.2538 9.635C15.2623 9.635 15.2693 9.62431 15.2693 9.61126C15.2693 9.5982 15.2791 9.58752 15.291 9.58752C15.3055 9.58752 15.3128 9.57169 15.3128 9.54004C15.3128 9.50839 15.32 9.49256 15.3345 9.49256C15.348 9.49256 15.3562 9.47762 15.3562 9.453C15.3562 9.43124 15.3627 9.41343 15.3707 9.41343C15.3786 9.41343 15.3851 9.37502 15.3851 9.32808C15.3851 9.26682 15.3913 9.24017 15.4069 9.23361C15.4258 9.22569 15.4286 9.1149 15.4286 8.3694C15.4286 7.61986 15.4259 7.5143 15.4069 7.5143C15.3896 7.5143 15.3851 7.49144 15.3851 7.40351C15.3851 7.34021 15.3789 7.29273 15.3707 7.29273C15.3627 7.29273 15.3562 7.27471 15.3562 7.25268C15.3562 7.23063 15.3464 7.2085 15.3345 7.2035C15.3225 7.19849 15.3128 7.17734 15.3128 7.15652C15.3128 7.13341 15.3043 7.11864 15.291 7.11864C15.2791 7.11864 15.2693 7.10796 15.2693 7.0949C15.2693 7.08185 15.2623 7.07117 15.2538 7.07117C15.2338 7.07117 15.1969 7.0309 15.1969 7.00898C15.1969 6.99966 15.1774 6.99204 15.1535 6.99204C15.1245 6.99204 15.11 6.98412 15.11 6.9683C15.11 6.95382 15.0965 6.94456 15.0754 6.94456C15.0563 6.94456 15.037 6.93387 15.0324 6.92082C15.0278 6.90776 15.0076 6.89708 14.9874 6.89708C14.9673 6.89708 14.9508 6.88996 14.9508 6.88125C14.9508 6.87255 14.9345 6.86543 14.9146 6.86543C14.8921 6.86543 14.8784 6.85645 14.8784 6.84169C14.8784 6.82586 14.8639 6.81795 14.835 6.81795C14.806 6.81795 14.7915 6.81003 14.7915 6.79421C14.7915 6.77944 14.7778 6.77047 14.7553 6.77047C14.7354 6.77047 14.7191 6.76335 14.7191 6.75464C14.7191 6.74594 14.7028 6.73882 14.6829 6.73882C14.6604 6.73882 14.6467 6.72984 14.6467 6.71508C14.6467 6.69925 14.6322 6.69134 14.6033 6.69134C14.5743 6.69134 14.5599 6.68343 14.5599 6.6676C14.5599 6.65312 14.5463 6.64386 14.5252 6.64386C14.5062 6.64386 14.4868 6.63318 14.4822 6.62012C14.4776 6.60706 14.4574 6.59638 14.4372 6.59638C14.4171 6.59638 14.4006 6.58926 14.4006 6.58056C14.4006 6.57185 14.3843 6.56473 14.3644 6.56473C14.3419 6.56473 14.3282 6.55575 14.3282 6.54099C14.3282 6.52516 14.3137 6.51725 14.2848 6.51725C14.2558 6.51725 14.2413 6.50934 14.2413 6.49351C14.2413 6.47875 14.2277 6.46977 14.2051 6.46977C14.1852 6.46977 14.1689 6.46265 14.1689 6.45395C14.1689 6.44524 14.1526 6.43812 14.1327 6.43812C14.1102 6.43812 14.0965 6.42915 14.0965 6.41438C14.0965 6.39856 14.0821 6.39064 14.0531 6.39064C14.0241 6.39064 14.0097 6.38273 14.0097 6.3669C14.0097 6.35214 13.996 6.34316 13.9735 6.34316C13.9509 6.34316 13.9373 6.33419 13.9373 6.31942C13.9373 6.3036 13.9228 6.29568 13.8938 6.29568C13.8699 6.29568 13.8504 6.28856 13.8504 6.27986C13.8504 6.27115 13.8341 6.26403 13.8142 6.26403C13.7917 6.26403 13.778 6.25506 13.778 6.24029C13.778 6.22447 13.7635 6.21655 13.7346 6.21655C13.7056 6.21655 13.6911 6.20864 13.6911 6.19281C13.6911 6.17805 13.6775 6.16908 13.6549 6.16908C13.6324 6.16908 13.6187 6.1601 13.6187 6.14534C13.6187 6.12951 13.6043 6.1216 13.5753 6.1216C13.5514 6.1216 13.5319 6.11448 13.5319 6.10577C13.5319 6.09707 13.5156 6.08994 13.4957 6.08994C13.4731 6.08994 13.4595 6.08097 13.4595 6.06621C13.4595 6.05144 13.4458 6.04247 13.4233 6.04247C13.4007 6.04247 13.3871 6.03349 13.3871 6.01873C13.3871 6.0029 13.3726 5.99499 13.3436 5.99499C13.3197 5.99499 13.3002 5.98787 13.3002 5.97916C13.3002 5.97046 13.2839 5.96334 13.264 5.96334C13.2415 5.96334 13.2278 5.95436 13.2278 5.9396C13.2278 5.92377 13.2133 5.91586 13.1844 5.91586C13.1554 5.91586 13.1409 5.90794 13.1409 5.89212C13.1409 5.87735 13.1273 5.86838 13.1047 5.86838C13.0822 5.86838 13.0685 5.85941 13.0685 5.84464C13.0685 5.82881 13.0541 5.8209 13.0251 5.8209C13.0012 5.8209 12.9817 5.81378 12.9817 5.80508C12.9817 5.79637 12.9654 5.78925 12.9455 5.78925C12.9229 5.78925 12.9093 5.78028 12.9093 5.76551C12.9093 5.75074 12.8956 5.74177 12.8731 5.74177C12.8506 5.74177 12.8369 5.7328 12.8369 5.71803C12.8369 5.7022 12.8224 5.69429 12.7934 5.69429C12.7696 5.69429 12.75 5.68717 12.75 5.67847C12.75 5.66976 12.7337 5.66264 12.7138 5.66264C12.6913 5.66264 12.6776 5.65367 12.6776 5.6389C12.6776 5.62307 12.6631 5.61516 12.6342 5.61516C12.6052 5.61516 12.5907 5.60725 12.5907 5.59142C12.5907 5.57694 12.5772 5.56768 12.5561 5.56768C12.537 5.56768 12.5177 5.557 12.5131 5.54394C12.5085 5.53089 12.4883 5.5202 12.4681 5.5202C12.448 5.5202 12.4315 5.51308 12.4315 5.50438C12.4315 5.49567 12.4152 5.48855 12.3953 5.48855C12.3728 5.48855 12.3591 5.47958 12.3591 5.46481C12.3591 5.44899 12.3446 5.44107 12.3156 5.44107C12.2867 5.44107 12.2722 5.43316 12.2722 5.41733C12.2722 5.40257 12.2585 5.3936 12.236 5.3936C12.2161 5.3936 12.1998 5.38647 12.1998 5.37777C12.1998 5.36907 12.1835 5.36194 12.1636 5.36194C12.1411 5.36194 12.1274 5.35297 12.1274 5.3382C12.1274 5.32238 12.1129 5.31446 12.084 5.31446C12.055 5.31446 12.0406 5.30655 12.0406 5.29073C12.0406 5.27624 12.027 5.26699 12.0059 5.26699C11.9868 5.26699 11.9675 5.2563 11.9629 5.24325C11.9583 5.23019 11.9381 5.21951 11.9179 5.21951C11.8978 5.21951 11.8813 5.21239 11.8813 5.20368C11.8813 5.19498 11.865 5.18786 11.8451 5.18786C11.8226 5.18786 11.8089 5.17888 11.8089 5.16412C11.8089 5.14829 11.7944 5.14038 11.7655 5.14038C11.7365 5.14038 11.722 5.13247 11.722 5.11664C11.722 5.10187 11.7084 5.0929 11.6858 5.0929C11.6659 5.0929 11.6496 5.08578 11.6496 5.07707C11.6496 5.06837 11.6333 5.06125 11.6134 5.06125C11.5909 5.06125 11.5772 5.05227 11.5772 5.03751C11.5772 5.02168 11.5628 5.01377 11.5338 5.01377C11.5048 5.01377 11.4904 5.00586 11.4904 4.99003C11.4904 4.97526 11.4767 4.96629 11.4542 4.96629C11.4316 4.96629 11.418 4.95732 11.418 4.94255C11.418 4.92672 11.4035 4.91881 11.3745 4.91881C11.3506 4.91881 11.3311 4.91169 11.3311 4.90299C11.3311 4.89428 11.3148 4.88716 11.2949 4.88716C11.2724 4.88716 11.2587 4.87819 11.2587 4.86342C11.2587 4.84759 11.2442 4.83968 11.2153 4.83968C11.1863 4.83968 11.1718 4.83177 11.1718 4.81594C11.1718 4.80118 11.1582 4.7922 11.1356 4.7922C11.1131 4.7922 11.0994 4.78323 11.0994 4.76846C11.0994 4.75264 11.085 4.74473 11.056 4.74473C11.0321 4.74473 11.0126 4.7376 11.0126 4.7289C11.0126 4.72019 10.9963 4.71307 10.9764 4.71307C10.9538 4.71307 10.9402 4.7041 10.9402 4.68933C10.9402 4.67457 10.9265 4.66559 10.904 4.66559C10.8814 4.66559 10.8678 4.65662 10.8678 4.64186C10.8678 4.62603 10.8533 4.61812 10.8243 4.61812C10.8004 4.61812 10.7809 4.61099 10.7809 4.60229C10.7809 4.59358 10.7646 4.58646 10.7447 4.58646C10.7222 4.58646 10.7085 4.57749 10.7085 4.56272C10.7085 4.5469 10.694 4.53899 10.6651 4.53899C10.6361 4.53899 10.6216 4.53107 10.6216 4.51525C10.6216 4.50048 10.608 4.49151 10.5854 4.49151C10.5629 4.49151 10.5492 4.48253 10.5492 4.46777C10.5492 4.45194 10.5348 4.44403 10.5058 4.44403C10.4819 4.44403 10.4624 4.43691 10.4624 4.4282C10.4624 4.4195 10.4461 4.41238 10.4262 4.41238C10.4036 4.41238 10.39 4.4034 10.39 4.38864C10.39 4.37387 10.3763 4.3649 10.3538 4.3649C10.3312 4.3649 10.3176 4.35592 10.3176 4.34116C10.3176 4.32533 10.3031 4.31742 10.2741 4.31742C10.2503 4.31742 10.2307 4.3103 10.2307 4.30159C10.2307 4.29189 10.1607 4.28577 10.0497 4.28577C9.93871 4.28577 9.86874 4.29189 9.86874 4.30159ZM10.057 5.73386C10.057 5.74949 10.0713 5.7576 10.0988 5.7576C10.1227 5.7576 10.1443 5.7678 10.1491 5.78134C10.1536 5.79439 10.1706 5.80508 10.1868 5.80508C10.203 5.80508 10.2162 5.8122 10.2162 5.8209C10.2162 5.8296 10.2358 5.83673 10.2597 5.83673C10.2886 5.83673 10.3031 5.84464 10.3031 5.86047C10.3031 5.87495 10.3166 5.88421 10.3377 5.88421C10.3568 5.88421 10.3761 5.89489 10.3807 5.90795C10.3853 5.921 10.4056 5.93168 10.4257 5.93168C10.4486 5.93168 10.4624 5.94058 10.4624 5.95542C10.4624 5.97019 10.476 5.97916 10.4986 5.97916C10.5185 5.97916 10.5348 5.98628 10.5348 5.99499C10.5348 6.00369 10.5504 6.01081 10.5694 6.01081C10.5885 6.01081 10.6078 6.0215 10.6124 6.03455C10.617 6.04761 10.6372 6.05829 10.6574 6.05829C10.6803 6.05829 10.694 6.06719 10.694 6.08203C10.694 6.0968 10.7077 6.10577 10.7302 6.10577C10.7501 6.10577 10.7664 6.11289 10.7664 6.1216C10.7664 6.1303 10.786 6.13742 10.8099 6.13742C10.8388 6.13742 10.8533 6.14534 10.8533 6.16116C10.8533 6.17564 10.8668 6.1849 10.8879 6.1849C10.907 6.1849 10.9263 6.19558 10.9309 6.20864C10.9355 6.2217 10.9557 6.23238 10.9759 6.23238C10.9988 6.23238 11.0126 6.24127 11.0126 6.25612C11.0126 6.27089 11.0262 6.27986 11.0488 6.27986C11.0687 6.27986 11.085 6.28698 11.085 6.29568C11.085 6.30439 11.1005 6.31151 11.1196 6.31151C11.1387 6.31151 11.158 6.32219 11.1626 6.33525C11.1672 6.34831 11.1874 6.35899 11.2076 6.35899C11.2305 6.35899 11.2442 6.36788 11.2442 6.38273C11.2442 6.39749 11.2579 6.40647 11.2804 6.40647C11.3003 6.40647 11.3166 6.41359 11.3166 6.42229C11.3166 6.431 11.3362 6.43812 11.36 6.43812C11.389 6.43812 11.4035 6.44603 11.4035 6.46186C11.4035 6.47634 11.417 6.4856 11.4381 6.4856C11.4572 6.4856 11.4765 6.49628 11.4811 6.50934C11.4857 6.52239 11.5059 6.53308 11.5261 6.53308C11.549 6.53308 11.5628 6.54197 11.5628 6.55682C11.5628 6.57158 11.5764 6.58056 11.5989 6.58056C11.6189 6.58056 11.6351 6.58768 11.6351 6.59638C11.6351 6.60509 11.6547 6.61221 11.6786 6.61221C11.7075 6.61221 11.722 6.62012 11.722 6.63595C11.722 6.65071 11.7357 6.65969 11.7582 6.65969C11.7807 6.65969 11.7944 6.66866 11.7944 6.68343C11.7944 6.69819 11.8081 6.70717 11.8306 6.70717C11.8505 6.70717 11.8668 6.71429 11.8668 6.72299C11.8668 6.73169 11.8864 6.73882 11.9102 6.73882C11.9392 6.73882 11.9537 6.74673 11.9537 6.76256C11.9537 6.77732 11.9673 6.7863 11.9899 6.7863C12.0124 6.7863 12.0261 6.79527 12.0261 6.81003C12.0261 6.82586 12.0406 6.83377 12.0695 6.83377C12.0985 6.83377 12.1129 6.84169 12.1129 6.85751C12.1129 6.87228 12.1266 6.88125 12.1491 6.88125C12.169 6.88125 12.1853 6.88837 12.1853 6.89708C12.1853 6.90578 12.2049 6.9129 12.2288 6.9129C12.2577 6.9129 12.2722 6.92082 12.2722 6.93664C12.2722 6.95141 12.2859 6.96038 12.3084 6.96038C12.3309 6.96038 12.3446 6.96936 12.3446 6.98412C12.3446 6.99889 12.3583 7.00786 12.3808 7.00786C12.4007 7.00786 12.417 7.01498 12.417 7.02369C12.417 7.03239 12.4365 7.03951 12.4604 7.03951C12.4894 7.03951 12.5039 7.04743 12.5039 7.06325C12.5039 7.07802 12.5175 7.08699 12.5401 7.08699C12.5626 7.08699 12.5763 7.09596 12.5763 7.11073C12.5763 7.12637 12.5906 7.13447 12.6182 7.13447C12.642 7.13447 12.6636 7.14468 12.6684 7.15821C12.673 7.17127 12.6899 7.18195 12.7061 7.18195C12.7223 7.18195 12.7355 7.18907 12.7355 7.19777C12.7355 7.20648 12.7551 7.2136 12.779 7.2136C12.8079 7.2136 12.8224 7.22151 12.8224 7.23734C12.8224 7.25182 12.8359 7.26108 12.8571 7.26108C12.8761 7.26108 12.8954 7.27176 12.9 7.28482C12.9046 7.29788 12.9209 7.30856 12.9362 7.30856C12.9516 7.30856 12.9678 7.31924 12.9724 7.3323C12.977 7.34535 12.9972 7.35604 13.0174 7.35604C13.0376 7.35604 13.0541 7.36316 13.0541 7.37186C13.0541 7.38057 13.0704 7.38769 13.0903 7.38769C13.1128 7.38769 13.1265 7.39666 13.1265 7.41143C13.1265 7.42725 13.1409 7.43517 13.1699 7.43517C13.1989 7.43517 13.2133 7.44308 13.2133 7.45891C13.2133 7.47367 13.227 7.48264 13.2495 7.48264C13.2694 7.48264 13.2857 7.48977 13.2857 7.49847C13.2857 7.50718 13.3053 7.5143 13.3292 7.5143C13.3581 7.5143 13.3726 7.52221 13.3726 7.53804C13.3726 7.55252 13.3861 7.56178 13.4072 7.56178C13.4263 7.56178 13.4456 7.57246 13.4502 7.58551C13.4548 7.59857 13.475 7.60925 13.4952 7.60925C13.5181 7.60925 13.5319 7.61815 13.5319 7.63299C13.5319 7.64776 13.5455 7.65673 13.5681 7.65673C13.588 7.65673 13.6043 7.66385 13.6043 7.67256C13.6043 7.68126 13.6199 7.68838 13.6389 7.68838C13.658 7.68838 13.6773 7.69907 13.6819 7.71212C13.6865 7.72518 13.7067 7.73586 13.7269 7.73586C13.7498 7.73586 13.7635 7.74476 13.7635 7.7596C13.7635 7.77437 13.7772 7.78334 13.7997 7.78334C13.8196 7.78334 13.8359 7.79046 13.8359 7.79917C13.8359 7.80787 13.8555 7.81499 13.8794 7.81499C13.9083 7.81499 13.9228 7.82291 13.9228 7.83873C13.9228 7.85321 13.9363 7.86247 13.9574 7.86247C13.9765 7.86247 13.9958 7.87315 14.0004 7.88621C14.005 7.89927 14.0252 7.90995 14.0454 7.90995C14.0683 7.90995 14.0821 7.91884 14.0821 7.93369C14.0821 7.94845 14.0957 7.95743 14.1183 7.95743H14.1545V8.22647V8.49552H10.0497H5.94499V8.22647V7.95743H5.98119C6.00372 7.95743 6.01738 7.94845 6.01738 7.93369C6.01738 7.91786 6.03186 7.90995 6.06082 7.90995C6.08978 7.90995 6.10426 7.90204 6.10426 7.88621C6.10426 7.87144 6.11792 7.86247 6.14045 7.86247C6.16298 7.86247 6.17665 7.8535 6.17665 7.83873C6.17665 7.82397 6.19032 7.81499 6.21285 7.81499C6.23276 7.81499 6.24904 7.80787 6.24904 7.79917C6.24904 7.79046 6.26859 7.78334 6.29248 7.78334C6.32144 7.78334 6.33592 7.77543 6.33592 7.7596C6.33592 7.74484 6.34958 7.73586 6.37211 7.73586C6.39464 7.73586 6.40831 7.72689 6.40831 7.71212C6.40831 7.6963 6.42279 7.68838 6.45175 7.68838C6.47564 7.68838 6.49518 7.68126 6.49518 7.67256C6.49518 7.66385 6.51147 7.65673 6.53138 7.65673C6.55391 7.65673 6.56758 7.64776 6.56758 7.63299C6.56758 7.61717 6.58206 7.60925 6.61101 7.60925C6.63997 7.60925 6.65445 7.60134 6.65445 7.58551C6.65445 7.57075 6.66812 7.56178 6.69065 7.56178C6.71318 7.56178 6.72684 7.5528 6.72684 7.53804C6.72684 7.52221 6.74132 7.5143 6.77028 7.5143C6.79417 7.5143 6.81372 7.50718 6.81372 7.49847C6.81372 7.48977 6.83 7.48264 6.84991 7.48264C6.87244 7.48264 6.88611 7.47367 6.88611 7.45891C6.88611 7.44414 6.89978 7.43517 6.92231 7.43517C6.94484 7.43517 6.9585 7.42619 6.9585 7.41143C6.9585 7.3956 6.97298 7.38769 7.00194 7.38769C7.02583 7.38769 7.04538 7.38057 7.04538 7.37186C7.04538 7.36316 7.06166 7.35604 7.08157 7.35604C7.1041 7.35604 7.11777 7.34706 7.11777 7.3323C7.11777 7.31647 7.13225 7.30856 7.16121 7.30856C7.19016 7.30856 7.20464 7.30064 7.20464 7.28482C7.20464 7.27005 7.21831 7.26108 7.24084 7.26108C7.26337 7.26108 7.27704 7.25211 7.27704 7.23734C7.27704 7.22151 7.29151 7.2136 7.32047 7.2136C7.34436 7.2136 7.36391 7.20648 7.36391 7.19777C7.36391 7.18907 7.3802 7.18195 7.40011 7.18195C7.42263 7.18195 7.4363 7.17298 7.4363 7.15821C7.4363 7.14344 7.44997 7.13447 7.4725 7.13447C7.49503 7.13447 7.5087 7.1255 7.5087 7.11073C7.5087 7.0949 7.52318 7.08699 7.55213 7.08699C7.58109 7.08699 7.59557 7.07908 7.59557 7.06325C7.59557 7.04849 7.60924 7.03951 7.63177 7.03951C7.65167 7.03951 7.66796 7.03239 7.66796 7.02369C7.66796 7.01498 7.68751 7.00786 7.7114 7.00786C7.74036 7.00786 7.75484 6.99995 7.75484 6.98412C7.75484 6.96936 7.7685 6.96038 7.79103 6.96038C7.81356 6.96038 7.82723 6.95141 7.82723 6.93664C7.82723 6.92082 7.84171 6.9129 7.87067 6.9129C7.89456 6.9129 7.9141 6.90578 7.9141 6.89708C7.9141 6.88837 7.93039 6.88125 7.9503 6.88125C7.97283 6.88125 7.9865 6.87228 7.9865 6.85751C7.9865 6.84169 8.00097 6.83377 8.02993 6.83377C8.05889 6.83377 8.07337 6.82586 8.07337 6.81003C8.07337 6.79527 8.08704 6.7863 8.10957 6.7863C8.13209 6.7863 8.14576 6.77732 8.14576 6.76256C8.14576 6.74779 8.15943 6.73882 8.18196 6.73882C8.20187 6.73882 8.21816 6.73169 8.21816 6.72299C8.21816 6.71429 8.2377 6.70717 8.26159 6.70717C8.29055 6.70717 8.30503 6.69925 8.30503 6.68343C8.30503 6.66866 8.3187 6.65969 8.34123 6.65969C8.36375 6.65969 8.37742 6.65071 8.37742 6.63595C8.37742 6.62012 8.3919 6.61221 8.42086 6.61221C8.44475 6.61221 8.4643 6.60509 8.4643 6.59638C8.4643 6.58768 8.48058 6.58056 8.50049 6.58056C8.52302 6.58056 8.53669 6.57158 8.53669 6.55682C8.53669 6.54099 8.55117 6.53308 8.58013 6.53308C8.60908 6.53308 8.62356 6.52516 8.62356 6.50934C8.62356 6.49457 8.63723 6.4856 8.65976 6.4856C8.68229 6.4856 8.69596 6.47663 8.69596 6.46186C8.69596 6.44709 8.70962 6.43812 8.73215 6.43812C8.75206 6.43812 8.76835 6.431 8.76835 6.42229C8.76835 6.41359 8.7879 6.40647 8.81179 6.40647C8.84074 6.40647 8.85522 6.39856 8.85522 6.38273C8.85522 6.36796 8.86889 6.35899 8.89142 6.35899C8.91395 6.35899 8.92762 6.35002 8.92762 6.33525C8.92762 6.31942 8.94209 6.31151 8.97105 6.31151C8.99494 6.31151 9.01449 6.30439 9.01449 6.29568C9.01449 6.28698 9.03078 6.27986 9.05068 6.27986C9.07321 6.27986 9.08688 6.27089 9.08688 6.25612C9.08688 6.24029 9.10136 6.23238 9.13032 6.23238C9.15928 6.23238 9.17375 6.22447 9.17375 6.20864C9.17375 6.19388 9.18742 6.1849 9.20995 6.1849C9.23248 6.1849 9.24615 6.17593 9.24615 6.16116C9.24615 6.14534 9.26063 6.13742 9.28958 6.13742C9.31347 6.13742 9.33302 6.1303 9.33302 6.1216C9.33302 6.11289 9.34931 6.10577 9.36922 6.10577C9.39175 6.10577 9.40542 6.0968 9.40542 6.08203C9.40542 6.06727 9.41908 6.05829 9.44161 6.05829C9.46414 6.05829 9.47781 6.04932 9.47781 6.03455C9.47781 6.01873 9.49229 6.01081 9.52125 6.01081C9.54514 6.01081 9.56468 6.00369 9.56468 5.99499C9.56468 5.98628 9.58097 5.97916 9.60088 5.97916C9.62341 5.97916 9.63708 5.97019 9.63708 5.95542C9.63708 5.9396 9.65155 5.93168 9.68051 5.93168C9.70947 5.93168 9.72395 5.92377 9.72395 5.90795C9.72395 5.89318 9.73762 5.88421 9.76015 5.88421C9.78267 5.88421 9.79634 5.87523 9.79634 5.86047C9.79634 5.84464 9.81082 5.83673 9.83978 5.83673C9.86367 5.83673 9.88321 5.8296 9.88321 5.8209C9.88321 5.8122 9.8995 5.80508 9.91941 5.80508C9.94194 5.80508 9.95561 5.7961 9.95561 5.78134C9.95561 5.76657 9.96928 5.7576 9.99181 5.7576C10.0143 5.7576 10.028 5.74862 10.028 5.73386C10.028 5.7208 10.0345 5.71012 10.0425 5.71012C10.0504 5.71012 10.057 5.7208 10.057 5.73386ZM8.24711 11.7478V13.6548H7.68244H7.11777V11.7478V9.84074H7.68244H8.24711V11.7478ZM10.6072 11.7478V13.6548H10.0425H9.47781V11.7478V9.84074H10.0425H10.6072V11.7478ZM12.9672 11.7478V13.6548H12.4098H11.8523V11.7478V9.84074H12.4098H12.9672V11.7478Z" fill="white"/>
</svg>
