<svg width="20" height="20" viewBox="0 0 20 20" fill="none" xmlns="http://www.w3.org/2000/svg">
<path d="M19.7008 12.419C18.3651 17.7762 12.9385 21.0365 7.58005 19.7006C2.22386 18.365 -1.03679 12.9387 0.299519 7.58197C1.63466 2.22419 7.06124 -1.03634 12.418 0.299234C17.7761 1.63481 21.0365 7.06171 19.7006 12.4191L19.7007 12.419H19.7008Z" fill="#35B1B9"/>
<path d="M5.92001 14.2858H14.0801C15.1677 14.2858 15.7143 13.7611 15.7143 12.7114V7.29422C15.7143 6.24446 15.1677 5.71436 14.0801 5.71436H5.92001C4.83244 5.71436 4.28577 6.24446 4.28577 7.29422V12.7114C4.28577 13.7611 4.83222 14.2858 5.92001 14.2858ZM5.12376 7.34032C5.12376 6.81022 5.4153 6.53517 5.93555 6.53517H14.0697C14.5848 6.53517 14.8763 6.81022 14.8763 7.34032V7.76823H5.12376V7.34032ZM5.93555 13.4658C5.41508 13.4658 5.12376 13.1956 5.12376 12.6657V8.92497H14.8763V12.6655C14.8763 13.1954 14.5848 13.4656 14.0697 13.4656L5.93555 13.4658ZM6.53396 11.9571H7.80915C8.11624 11.9571 8.31918 11.7583 8.31918 11.4679V10.5251C8.31918 10.2398 8.11624 10.0358 7.80915 10.0358H6.53396C6.22687 10.0358 6.02392 10.2398 6.02392 10.5251V11.4679C6.02392 11.7583 6.22687 11.9571 6.53396 11.9571Z" fill="white"/>
</svg>
