<svg width="20" height="20" viewBox="0 0 20 20" fill="none" xmlns="http://www.w3.org/2000/svg">
<circle cx="10" cy="10" r="10" fill="#57AC2F"/>
<path d="M10.0223 15.7143C9.82376 15.7143 9.656 15.6344 9.51905 15.4745C9.3821 15.3146 9.31362 15.1147 9.31362 14.8749V13.9875L9.62176 14.3112C9.16297 14.2873 8.76582 14.2193 8.43029 14.1074C8.09476 13.9955 7.82085 13.8835 7.60858 13.7716C7.43054 13.6757 7.30386 13.5398 7.22854 13.3639C7.16006 13.188 7.13267 13.0081 7.14637 12.8242C7.16691 12.6403 7.22512 12.4724 7.32098 12.3205C7.41685 12.1686 7.5401 12.0687 7.69075 12.0207C7.84824 11.9648 8.0297 11.9888 8.23513 12.0927C8.37208 12.1806 8.57751 12.2726 8.85141 12.3685C9.13216 12.4565 9.47796 12.5004 9.88881 12.5004C10.1764 12.5004 10.4024 12.4684 10.5667 12.4045C10.7379 12.3405 10.8577 12.2566 10.9262 12.1527C11.0015 12.0407 11.0392 11.9208 11.0392 11.7929C11.0392 11.673 11.0118 11.573 10.957 11.4931C10.9091 11.4051 10.8269 11.3292 10.7105 11.2652C10.5941 11.1933 10.4332 11.1293 10.2278 11.0734L9.06711 10.7855C8.43029 10.6177 7.95438 10.3378 7.63939 9.94609C7.33125 9.54635 7.17718 9.03068 7.17718 8.39909C7.17718 7.91941 7.27647 7.49168 7.47505 7.11593C7.68048 6.73218 7.96465 6.42038 8.32757 6.18054C8.69734 5.94069 9.12874 5.78879 9.62176 5.72483L9.31362 5.9287V5.12522C9.31362 4.88538 9.3821 4.68551 9.51905 4.52561C9.656 4.36571 9.82376 4.28577 10.0223 4.28577C10.2278 4.28577 10.399 4.36571 10.5359 4.52561C10.6729 4.68551 10.7413 4.88538 10.7413 5.12522V5.9287L10.4332 5.70085C10.6934 5.70884 10.9742 5.76081 11.2754 5.85675C11.5767 5.94469 11.8404 6.06861 12.0663 6.2285C12.2238 6.32444 12.3334 6.45636 12.395 6.62425C12.4635 6.79214 12.4875 6.96403 12.4669 7.13991C12.4532 7.3078 12.3984 7.4597 12.3026 7.59562C12.2136 7.73153 12.0903 7.82347 11.9328 7.87144C11.7822 7.91141 11.6007 7.87943 11.3884 7.7755C11.2309 7.69555 11.0529 7.63159 10.8543 7.58362C10.6626 7.52766 10.4161 7.49968 10.1148 7.49968C9.75186 7.49968 9.47111 7.57563 9.27253 7.72753C9.0808 7.87943 8.98494 8.0753 8.98494 8.31515C8.98494 8.47504 9.03972 8.61096 9.14928 8.72288C9.26569 8.82682 9.47454 8.91876 9.77583 8.9987L10.9468 9.29851C11.5973 9.4664 12.0766 9.74622 12.3847 10.138C12.6997 10.5217 12.8572 11.0214 12.8572 11.637C12.8572 12.1167 12.7579 12.5404 12.5594 12.9082C12.3608 13.2759 12.0835 13.5757 11.7274 13.8076C11.3782 14.0394 10.9707 14.1913 10.5051 14.2633L10.7413 13.9755V14.8749C10.7413 15.1147 10.6729 15.3146 10.5359 15.4745C10.4058 15.6344 10.2346 15.7143 10.0223 15.7143Z" fill="white"/>
</svg>
