<svg width="494" height="160" xmlns="http://www.w3.org/2000/svg">
  <path fill="#9013FE" d="M0 0h494v160H0z" />
    <path fill="#FFF" d="M65.22 120v-19.08c5.12 0 9.9-.56 14.34-1.68 4.44-1.12 8.32-2.88 11.64-5.28 3.32-2.4 5.94-5.54 7.86-9.42s2.88-8.58 2.88-14.1-.96-10.22-2.88-14.1c-1.92-3.88-4.54-7.02-7.86-9.42-3.32-2.4-7.2-4.16-11.64-5.28s-9.22-1.68-14.34-1.68H39.66V120h25.56zm1.08-40.68h-1.08V61.56h1.08c3.36 0 5.78.78 7.26 2.34 1.48 1.56 2.22 3.74 2.22 6.54s-.74 4.98-2.22 6.54c-1.48 1.56-3.9 2.34-7.26 2.34zm81.84 42.72c5.76 0 11.2-1.1 16.32-3.3 5.12-2.2 9.58-5.2 13.38-9 3.8-3.8 6.8-8.26 9-13.38 2.2-5.12 3.3-10.56 3.3-16.32s-1.1-11.2-3.3-16.32c-2.2-5.12-5.2-9.58-9-13.38-3.8-3.8-8.26-6.8-13.38-9-5.12-2.2-10.56-3.3-16.32-3.3s-11.2 1.1-16.32 3.3c-5.12 2.2-9.58 5.2-13.38 9-3.8 3.8-6.8 8.26-9 13.38-2.2 5.12-3.3 10.56-3.3 16.32s1.1 11.2 3.3 16.32c2.2 5.12 5.2 9.58 9 13.38 3.8 3.8 8.26 6.8 13.38 9 5.12 2.2 10.56 3.3 16.32 3.3zm0-25.2c-2.32 0-4.5-.44-6.54-1.32-2.04-.88-3.82-2.08-5.34-3.6s-2.72-3.3-3.6-5.34c-.88-2.04-1.32-4.22-1.32-6.54 0-2.32.44-4.5 1.32-6.54.88-2.04 2.08-3.82 3.6-5.34s3.3-2.72 5.34-3.6c2.04-.88 4.22-1.32 6.54-1.32 2.32 0 4.5.44 6.54 1.32 2.04.88 3.82 2.08 5.34 3.6s2.72 3.3 3.6 5.34c.88 2.04 1.32 4.22 1.32 6.54 0 2.32-.44 4.5-1.32 6.54-.88 2.04-2.08 3.82-3.6 5.34s-3.3 2.72-5.34 3.6c-2.04.88-4.22 1.32-6.54 1.32zm90 25.2c4.64 0 8.76-.48 12.36-1.44 3.6-.96 6.68-2 9.24-3.12 2.96-1.36 5.52-2.92 7.68-4.68l-12.6-22.2c-1.2 1.2-2.6 2.24-4.2 3.12-1.36.8-3.04 1.52-5.04 2.16-2 .64-4.28.96-6.84.96-2.56 0-4.92-.44-7.08-1.32-2.16-.88-4.04-2.08-5.64-3.6-1.6-1.52-2.86-3.3-3.78-5.34-.92-2.04-1.38-4.22-1.38-6.54 0-2.32.44-4.5 1.32-6.54.88-2.04 2.1-3.82 3.66-5.34s3.38-2.72 5.46-3.6c2.08-.88 4.36-1.32 6.84-1.32 2.4 0 4.54.3 6.42.9 1.88.6 3.5 1.22 4.86 1.86 1.52.88 2.92 1.8 4.2 2.76l12.6-22.2c-2.16-1.52-4.72-2.92-7.68-4.2-2.56-1.12-5.62-2.12-9.18-3-3.56-.88-7.62-1.32-12.18-1.32-5.76 0-11.2.98-16.32 2.94-5.12 1.96-9.6 4.78-13.44 8.46-3.84 3.68-6.88 8.1-9.12 13.26-2.24 5.16-3.36 10.94-3.36 17.34 0 6.24 1.08 11.94 3.24 17.1 2.16 5.16 5.16 9.58 9 13.26 3.84 3.68 8.4 6.54 13.68 8.58 5.28 2.04 11.04 3.06 17.28 3.06zm58.2-2.04V95.28L313.38 120h30.84l-29.64-43.44 28.2-36.6h-31.32l-15.12 18.48V39.96h-25.92V120h25.92zm98.28 0V99h-22.44v-9.24h21.24V69.84h-21.24v-8.88h21.6v-21h-47.16V120h48zm44.16 0V60.96h14.76v-21h-55.92v21h14.76V120h26.4z" />
</svg>