<svg width="89" height="28" viewBox="0 0 89 28" fill="none" xmlns="http://www.w3.org/2000/svg">
<path d="M5.44697 17.5629V13.4743C6.53807 13.4743 7.55671 13.3543 8.5029 13.1143C9.44909 12.8743 10.2759 12.4971 10.9834 11.9829C11.691 11.4686 12.2493 10.7957 12.6585 9.96429C13.0676 9.13286 13.2722 8.12571 13.2722 6.94286C13.2722 5.76 13.0676 4.75286 12.6585 3.92143C12.2493 3.09 11.691 2.41714 10.9834 1.90286C10.2759 1.38857 9.44909 1.01143 8.5029 0.771428C7.55671 0.531428 6.53807 0.411428 5.44697 0.411428H0V17.5629H5.44697ZM5.67712 8.84571H5.44697V5.04H5.67712C6.39316 5.04 6.90887 5.20714 7.22427 5.54143C7.53966 5.87571 7.69736 6.34286 7.69736 6.94286C7.69736 7.54286 7.53966 8.01 7.22427 8.34429C6.90887 8.67857 6.39316 8.84571 5.67712 8.84571ZM23.1177 18C24.3451 18 25.5044 17.7643 26.5955 17.2929C27.6866 16.8214 28.6371 16.1786 29.4469 15.3643C30.2567 14.55 30.896 13.5943 31.3648 12.4971C31.8337 11.4 32.0681 10.2343 32.0681 9C32.0681 7.76571 31.8337 6.6 31.3648 5.50286C30.896 4.40571 30.2567 3.45 29.4469 2.63571C28.6371 1.82143 27.6866 1.17857 26.5955 0.707143C25.5044 0.235714 24.3451 0 23.1177 0C21.8902 0 20.7309 0.235714 19.6398 0.707143C18.5487 1.17857 17.5982 1.82143 16.7884 2.63571C15.9786 3.45 15.3393 4.40571 14.8705 5.50286C14.4017 6.6 14.1672 7.76571 14.1672 9C14.1672 10.2343 14.4017 11.4 14.8705 12.4971C15.3393 13.5943 15.9786 14.55 16.7884 15.3643C17.5982 16.1786 18.5487 16.8214 19.6398 17.2929C20.7309 17.7643 21.8902 18 23.1177 18ZM23.1177 12.6C22.6233 12.6 22.1587 12.5057 21.724 12.3171C21.2892 12.1286 20.9099 11.8714 20.586 11.5457C20.262 11.22 20.0063 10.8386 19.8188 10.4014C19.6313 9.96429 19.5375 9.49714 19.5375 9C19.5375 8.50286 19.6313 8.03571 19.8188 7.59857C20.0063 7.16143 20.262 6.78 20.586 6.45429C20.9099 6.12857 21.2892 5.87143 21.724 5.68286C22.1587 5.49429 22.6233 5.4 23.1177 5.4C23.6121 5.4 24.0766 5.49429 24.5114 5.68286C24.9461 5.87143 25.3254 6.12857 25.6493 6.45429C25.9733 6.78 26.229 7.16143 26.4165 7.59857C26.6041 8.03571 26.6978 8.50286 26.6978 9C26.6978 9.49714 26.6041 9.96429 26.4165 10.4014C26.229 10.8386 25.9733 11.22 25.6493 11.5457C25.3254 11.8714 24.9461 12.1286 24.5114 12.3171C24.0766 12.5057 23.6121 12.6 23.1177 12.6ZM42.2971 18C43.2859 18 44.1639 17.8971 44.9311 17.6914C45.6983 17.4857 46.3547 17.2629 46.9002 17.0229C47.531 16.7314 48.0766 16.3971 48.5369 16.02L45.8517 11.2629C45.596 11.52 45.2977 11.7429 44.9567 11.9314C44.6669 12.1029 44.3088 12.2571 43.8826 12.3943C43.4564 12.5314 42.9705 12.6 42.425 12.6C41.8794 12.6 41.3765 12.5057 40.9162 12.3171C40.4559 12.1286 40.0553 11.8714 39.7143 11.5457C39.3733 11.22 39.1048 10.8386 38.9088 10.4014C38.7127 9.96429 38.6147 9.49714 38.6147 9C38.6147 8.50286 38.7084 8.03571 38.896 7.59857C39.0835 7.16143 39.3435 6.78 39.6759 6.45429C40.0084 6.12857 40.3962 5.87143 40.8395 5.68286C41.2828 5.49429 41.7686 5.4 42.2971 5.4C42.8086 5.4 43.2646 5.46429 43.6653 5.59286C44.0659 5.72143 44.4111 5.85429 44.701 5.99143C45.0249 6.18 45.3232 6.37714 45.596 6.58286L48.2811 1.82571C47.8208 1.5 47.2753 1.2 46.6445 0.925714C46.0989 0.685714 45.4468 0.471429 44.6882 0.282857C43.9295 0.0942857 43.0643 0 42.0925 0C40.8651 0 39.7058 0.21 38.6147 0.63C37.5236 1.05 36.5689 1.65429 35.7505 2.44286C34.9322 3.23143 34.2844 4.17857 33.807 5.28429C33.3297 6.39 33.091 7.62857 33.091 9C33.091 10.3371 33.3211 11.5586 33.7814 12.6643C34.2418 13.77 34.8811 14.7171 35.6994 15.5057C36.5177 16.2943 37.4895 16.9071 38.6147 17.3443C39.7399 17.7814 40.9674 18 42.2971 18ZM54.6999 17.5629V12.2657L58.3312 17.5629H64.9033L58.5869 8.25428L64.5965 0.411428H57.922L54.6999 4.37143V0.411428H49.1762V17.5629H54.6999ZM75.6438 17.5629V13.0629H70.8618V11.0829H75.3881V6.81428H70.8618V4.91143H75.4648V0.411428H65.4148V17.5629H75.6438ZM85.0546 17.5629V4.91143H88.2V0.411428H76.2832V4.91143H79.4286V17.5629H85.0546Z" fill="white"/>
</svg>
