<svg fill="none" height="20" viewBox="0 0 23 20" width="23" xmlns="http://www.w3.org/2000/svg"><path d="m11.5577.850113v-.0001l-2.0115 2.319307-.10804.10405c0 .00001.00001.00001.00001.00001.0958.09947.22895.13274.34391.12896.11331-.00373.23602-.04405.32192-.12757l.9864-.91637v5.29674c0 .25449.2086.45716.4615.45716s.4616-.20268.4616-.45716v-5.29674l.9846.91481c.0901.09243.2143.13483.331.136.1184.00119.2462-.03994.3377-.13698.096-.10188.1205-.23363.1089-.34707-.0115-.11237-.0595-.22401-.1332-.30483l.0004-.00035-.0092-.00856-1.7655-1.638188-.0001-.000033c-.0852-.07899-.2074-.119112-.3104-.123086zm-1.74613 5.255577v-.15h-.15-5.03407c-2.07966 0-3.7775 1.67085-3.7775 3.72634v5.74167c0 2.0554 1.69784 3.7263 3.7775 3.7263h13.745c2.0797 0 3.7775-1.6709 3.7775-3.7263v-5.74167c0-2.05549-1.6978-3.72634-3.7775-3.72634h-5.0341-.15v.15 3.03561h-3.37683zm-5.18407 12.23341h-.00211c-1.64374.0231-2.98185-1.2961-2.98185-2.9398v-5.74161c0-1.61816 1.33741-2.93975 2.98396-2.93975h4.39053v2.79232c0 .10772.03714.20885.11256.28321.07523.07417.17674.11009.28422.11009h4.17039c.1075 0 .209-.03592.2842-.11009.0754-.07436.1126-.17549.1126-.28321v-2.79232h4.3905c1.6466 0 2.984 1.32159 2.984 2.93975v5.74161c0 1.6182-1.3374 2.9398-2.984 2.9398zm9.3278-3.7373h4.4418c.1075 0 .209-.0359.2842-.11.0754-.0744.1126-.1755.1126-.2833 0-.1077-.0372-.2088-.1126-.2832-.0752-.0741-.1767-.11-.2842-.11h-4.4418c-.1075 0-.209.0359-.2843.11-.0754.0744-.1125.1755-.1125.2832 0 .1104.0544.2077.1218.2741.0675.0666.1652.1192.275.1192zm0 1.8978h4.4418c.1075 0 .209-.0359.2842-.11.0754-.0744.1126-.1755.1126-.2832 0-.1078-.0372-.2089-.1126-.2833-.0752-.0741-.1767-.11-.2842-.11h-4.4418c-.1075 0-.209.0359-.2843.11-.0754.0744-.1125.1755-.1125.2833 0 .1103.0544.2076.1218.274.0675.0666.1652.1192.275.1192z" fill="#fff" stroke="#fff" stroke-width=".3"/></svg>