<?xml version="1.0" encoding="utf-8"?>
<svg width="32px" height="32px" viewBox="0 0 32 32" version="1.1" xmlns:xlink="http://www.w3.org/1999/xlink" xmlns="http://www.w3.org/2000/svg">
  <g id="asset_unknown">
    <path d="M0 0C0 0.16 0 0.31 0 0.47C0.00129604 8.12189 5.42029 14.7018 12.93 16.17L10.22 5.4L0 0Z" transform="translate(0 15.53)" id="Path" fill="#5B6B8B" stroke="none" />
    <path d="M21.68 3.09L9.56 0L4.88 8.86L0 6.28L2.71 17.05C3.7209 17.2512 4.74927 17.3517 5.78 17.35C13.9412 17.3474 20.7925 11.2028 21.68 3.09L21.68 3.09Z" transform="translate(10.22 14.65)" id="Path" fill="#2C3C5D" stroke="none" />
    <path d="M15.1 23.32L19.78 14.46L10.46 12.09L13.54 0C5.91972 1.1823 0.226926 7.63189 0 15.34L10.21 20.74L15.1 23.32Z" transform="translate(-1.8947807E-15 0.19)" id="Path" fill="#44577F" stroke="none" />
    <path d="M0 12.28L9.32 14.65L21.44 17.74C21.5088 17.1626 21.5422 16.5815 21.54 16C21.54 7.16344 14.3766 5.41083e-16 5.54 0C4.71642 0.00207304 3.89413 0.0655826 3.08 0.19L0 12.28Z" transform="translate(10.46 0)" id="Path" fill="#5B6B8B" stroke="none" />
    <g id="Group" transform="translate(10 6)" opacity="0.8">
      <path d="M9.79 8.57L7.85 11.15C7.55796 11.5415 7.39068 12.012 7.37 12.5L7.37 13.05L3.95 13.05L3.95 12.26C3.93527 11.2548 4.29126 10.2794 4.95 9.52L6.9 7.02C7.32642 6.52527 7.58851 5.91023 7.65 5.26C7.698 4.67906 7.49015 4.10609 7.08086 3.69103C6.67157 3.27597 6.10156 3.06013 5.52 3.1C4.9435 3.06922 4.38181 3.28906 3.97937 3.703C3.57693 4.11694 3.37299 4.68459 3.42 5.26L0 5.26C0 2 2.48 0 5.53 0C8.58 0 11.08 1.94 11.08 5.26C11.0477 6.47971 10.5916 7.65009 9.79 8.57ZM3.79 18.92L3.79 15.42L7.43 15.42L7.43 18.92L3.79 18.92Z" transform="translate(0.35 0.74)" id="Shape" fill="#FFFFFF" stroke="none" />
    </g>
  </g>
</svg>