<svg width="55" height="46" viewBox="0 0 55 46" fill="none" xmlns="http://www.w3.org/2000/svg">
<path d="M11.957 3.33203H41.9383L40.0645 31.4395L26.9477 33.3133L13.8309 31.4395L11.957 3.33203Z" fill="white"/>
<path fill-rule="evenodd" clip-rule="evenodd" d="M42.0726 0H11.2699C10.498 0 9.83494 0.450445 9.50446 1.01405L0.562349 16.9015C0.121 17.6892 0.231868 18.8164 0.892826 19.4932L25.5124 44.5092C26.2843 45.2969 27.6104 45.2969 28.3823 44.5092L53.0019 19.6063C53.665 18.9296 53.7737 17.8045 53.3324 17.0146L43.7271 1.01405C43.3967 0.339466 42.7357 0 42.0726 0ZM15.2441 7.10049V11.6071H23.9666V14.6493C17.7835 14.9865 13.1483 16.3401 13.1483 17.9177V21.2971C13.1483 22.8748 17.7856 24.3393 23.9666 24.5656V32.2275H29.8172V24.7897C36.0003 24.4524 40.6377 23.0989 40.6377 21.5213V18.1418C40.6377 16.5642 36.0003 15.0997 29.8172 14.8734V11.7181H38.5397V7.21147H15.2441V7.10049ZM26.8365 22.4243C20.212 22.4243 14.8028 21.2971 13.3679 19.7195C14.4723 18.3681 18.6683 17.3541 23.8558 17.1278V20.3962C24.8493 20.3962 25.732 20.5094 26.7256 20.5094C27.7192 20.5094 28.7127 20.5094 29.5954 20.3962V17.1278C34.785 17.3541 38.9789 18.4791 40.0833 19.7195C38.981 21.2971 33.461 22.4243 26.8365 22.4243Z" fill="#00B6B6"/>
<path d="M45.3969 45.1004C50.4917 45.1004 54.6219 40.9702 54.6219 35.8754C54.6219 30.7806 50.4917 26.6504 45.3969 26.6504C40.302 26.6504 36.1719 30.7806 36.1719 35.8754C36.1719 40.9702 40.302 45.1004 45.3969 45.1004Z" fill="#F3BA2F"/>
<path d="M43.1552 34.9529L45.3945 32.7135L47.6351 34.954L48.9381 33.651L45.3945 30.1074L41.8521 33.6498L43.1552 34.9529ZM39.6289 35.873L40.9319 34.57L42.235 35.873L40.9319 37.1761L39.6289 35.873ZM43.1552 36.7932L45.3945 39.0326L47.6351 36.7921L48.9381 38.0945L45.3945 41.6387L41.8521 38.0963L41.8504 38.0945L43.1552 36.7932ZM48.5541 35.873L49.8571 34.57L51.1602 35.873L49.8571 37.1761L48.5541 35.873ZM46.716 35.8719H46.7172V35.873L45.3945 37.1957L44.0736 35.8754L44.0713 35.873L44.0736 35.8713L44.3048 35.6395L44.4173 35.5271L45.3945 34.5504L46.7166 35.8725L46.716 35.8719Z" fill="white"/>
</svg>
