<svg width="53" height="53" viewBox="0 0 53 53" fill="none" xmlns="http://www.w3.org/2000/svg">
<path d="M51.7146 32.6C48.2083 46.6626 33.9635 55.2209 19.8976 51.7141C5.83764 48.2082 -2.72157 33.9642 0.786238 19.9027C4.29097 5.8385 18.5358 -2.72039 32.5973 0.78549C46.6622 4.29137 55.2209 18.537 51.7142 32.6003L51.7145 32.6H51.7146Z" fill="#366177"/>
<path d="M21.7914 34.0946C21.7463 32.8942 21.6994 31.6938 21.6543 30.4934C21.6768 30.4709 21.6994 30.4483 21.72 30.4258C23.0914 30.4446 24.8384 30.4878 26.2079 30.4765C28.5693 30.4559 30.4891 28.7558 30.6995 26.541C30.9475 23.9185 29.5292 21.7413 27.1472 21.2472C25.4884 20.9053 23.608 21.0913 21.9304 21.1645C21.9041 21.1401 21.8797 21.1138 21.8534 21.0894C21.8854 19.889 21.9173 18.6867 21.9492 17.4863C23.6587 17.6967 25.5673 17.4807 27.2824 17.7005C30.7878 18.1495 33.9081 21.5027 34.0772 25.0287C34.1899 27.3732 33.7447 29.5316 32.1141 31.2862C30.6281 32.883 28.8341 33.9631 26.5742 34.0307C25.1052 34.0758 23.2605 34.0758 21.7914 34.0946Z" fill="#70D7CB"/>
<path d="M22.095 30.4795H18.6836V37.0901H22.095V30.4795Z" fill="#366177"/>
<path d="M21.8068 11.3744C27.5608 11.365 33.6905 11.3481 39.4445 11.3519C40.2917 11.3519 40.8722 11.9474 40.9755 12.8303C41.015 13.1703 40.9924 13.5179 40.9924 13.8616C40.9962 21.9 40.9981 29.9364 40.9999 37.9748C40.9999 39.7443 40.3424 40.4075 38.5785 40.4075C30.3842 40.4112 22.19 40.415 13.9957 40.415C12.1341 40.415 11.3789 39.6561 11.3789 37.8076C11.3789 29.8331 11.3789 21.8568 11.3789 13.8823C11.3789 11.7802 11.8241 11.3312 13.8849 11.335C15.4798 11.3387 17.2625 11.3481 18.8574 11.3556C18.8386 12.479 18.818 13.6005 18.7992 14.7239C17.7979 14.7164 16.6107 14.7239 15.6094 14.6938C15.1022 14.6769 14.8824 14.8291 14.8843 15.3776C14.8993 22.3208 14.905 29.262 14.8918 36.2052C14.8918 36.7668 15.1229 36.8946 15.6207 36.8796C16.6201 36.8495 17.6213 36.857 18.6207 36.8495C19.7873 36.9322 20.9558 36.9228 22.1224 36.8551C26.9653 36.8645 31.8063 36.8551 36.6473 36.9002C37.4438 36.9077 37.6317 36.6579 37.6298 35.8952C37.6054 29.1474 37.6073 22.3997 37.6448 15.6519C37.6486 14.8479 37.3931 14.6751 36.6361 14.6788C31.8251 14.707 26.6384 14.6863 21.8274 14.6826C21.8199 13.5799 21.8124 12.4771 21.8049 11.3726L21.8068 11.3744Z" fill="#70D7CB"/>
<path d="M22.1373 17.4853C22.126 16.5498 22.0227 15.6143 22.203 14.6825C27.014 14.6863 31.825 14.7069 36.636 14.6788C37.393 14.675 37.6485 14.8478 37.6447 15.6519C37.6091 22.3996 37.6072 29.1474 37.6297 35.8952C37.6316 36.6578 37.4437 36.9077 36.6472 36.9002C31.8062 36.8551 26.9633 36.8645 22.1223 36.8551C22.1373 35.9346 22.1523 35.0141 22.1655 34.0936C23.6345 34.073 25.1035 34.073 26.5726 34.0297C28.8325 33.9621 30.6265 32.882 32.1124 31.2852C33.7449 29.5306 34.1882 27.3722 34.0755 25.0277C33.9064 21.4998 30.7861 18.1466 27.2808 17.6995C25.5656 17.4797 23.843 17.6957 22.1354 17.4853H22.1373Z" fill="#FAFDFA"/>
<path d="M18.61 14.7256C18.6344 16.8446 18.6607 18.9655 18.6852 21.0845C18.6852 24.2198 18.6852 27.3532 18.6852 30.4885C18.6645 32.6094 18.6438 34.7303 18.6232 36.8493C17.6219 36.8568 16.6225 36.8493 15.6231 36.8793C15.1253 36.8944 14.8924 36.7666 14.8942 36.2049C14.9055 29.2618 14.9017 22.3206 14.8867 15.3774C14.8867 14.8289 15.1046 14.6767 15.6118 14.6936C16.6112 14.7256 17.6125 14.7162 18.6138 14.7237L18.61 14.7256Z" fill="#FAFDFA"/>
<path d="M22.0293 30.4927C20.9134 30.4927 19.7976 30.4889 18.6836 30.487C18.6836 27.3517 18.6836 24.2183 18.6836 21.083C19.8032 21.083 20.921 21.0868 22.0406 21.0886C22.0669 21.1131 22.0913 21.1394 22.1176 21.1638C22.1101 24.2502 22.1026 27.3386 22.095 30.4251C22.0725 30.4476 22.05 30.4701 22.0293 30.4927Z" fill="#70D7CB"/>
<path d="M22.0957 30.4261C22.1032 27.3396 22.1107 24.2513 22.1182 21.1648C23.7977 21.0935 25.4902 20.9056 27.1471 21.2475C29.5291 21.7397 30.9474 23.9188 30.6995 26.5413C30.491 28.758 28.5692 30.458 26.2079 30.4768C24.8365 30.4881 23.4652 30.4449 22.0957 30.4261Z" fill="#FAFDFA"/>
<path d="M22.095 11.3652H18.6836V21.1938H22.095V11.3652Z" fill="#366177"/>
</svg>
