<svg width="54" height="52" viewBox="0 0 54 52" fill="none" xmlns="http://www.w3.org/2000/svg">
<path d="M11.375 8.125H40.625L38.7969 35.5469L26 37.375L13.2031 35.5469L11.375 8.125Z" fill="white"/>
<path fill-rule="evenodd" clip-rule="evenodd" d="M40.7561 4.875H10.7046C9.95158 4.875 9.30467 5.31321 8.98225 5.8615L0.258236 21.3174C-0.172348 22.0837 -0.0641823 23.1803 0.580654 23.8387L24.5998 48.1752C25.3528 48.9416 26.6466 48.9416 27.3996 48.1752L51.4187 23.9488C52.0657 23.2904 52.1718 22.1959 51.7412 21.4275L42.3702 5.8615C42.0478 5.20525 41.403 4.875 40.7561 4.875ZM14.5819 11.7826V16.1669H23.0917V19.1264C17.0593 19.4545 12.5372 20.7712 12.5372 22.306V25.5937C12.5372 27.1285 17.0614 28.5532 23.0917 28.7733V36.2271H28.7995V28.9914C34.8319 28.6632 39.3561 27.3465 39.3561 25.8117V22.5241C39.3561 20.9893 34.8319 19.5646 28.7995 19.3444V16.2748H37.3093V11.8906H14.5819V11.7826ZM25.8915 26.6902C19.4286 26.6902 14.1513 25.5937 12.7514 24.0589C13.8289 22.7442 17.9226 21.7577 22.9835 21.5376V24.7172C23.9529 24.7172 24.814 24.8273 25.7834 24.8273C26.7527 24.8273 27.722 24.8273 28.5832 24.7172V21.5376C33.6462 21.7577 37.7378 22.8522 38.8153 24.0589C37.7399 25.5937 32.3545 26.6902 25.8915 26.6902Z" fill="#019493"/>
<circle cx="44" cy="40" r="9" fill="#627EEA"/>
<path d="M44.158 33.4824L44.0664 33.7936V42.8227L44.158 42.9141L48.3491 40.4367L44.158 33.4824Z" fill="#C1CCF7"/>
<path d="M44.1561 33.4824L39.9648 40.4367L44.1561 42.9141V38.5316V33.4824Z" fill="white"/>
<path d="M44.1571 43.7066L44.1055 43.7695V46.9858L44.1571 47.1366L48.3508 41.2305L44.1571 43.7066Z" fill="#C1CCF7"/>
<path d="M44.1561 47.1366V43.7066L39.9648 41.2305L44.1561 47.1366Z" fill="white"/>
<path d="M44.1562 42.9137L48.3474 40.4363L44.1562 38.5312V42.9137Z" fill="#8198EE"/>
<path d="M39.9648 40.4363L44.1561 42.9137V38.5312L39.9648 40.4363Z" fill="#C1CCF7"/>
</svg>
