<svg width="48" height="48" viewBox="0 0 48 48" fill="none" xmlns="http://www.w3.org/2000/svg">
<path d="M22.7757 46.4489C15.4581 46.1321 8.67511 41.043 6.59925 34.122C4.98855 28.7711 5.85639 23.6269 8.45295 18.7374C10.3483 15.1771 13.0768 12.271 15.9233 9.46813C18.4087 7.02341 21.0122 4.68887 23.2964 2.05132C23.6643 1.63124 23.9698 1.15607 24.5669 1.85849C27.455 5.27422 30.9125 8.14592 33.995 11.3826C36.8623 14.3989 39.3895 17.6287 40.8683 21.5609C44.1868 30.4101 41.389 39.9824 32.2871 44.6309C29.3504 46.1184 26.6497 46.6831 22.7757 46.4489Z" fill="#F7931A"/>
<path d="M26.35 15.0002C26.3309 15.002 26.312 15.0048 26.2932 15.0088C26.2232 15.0201 26.1561 15.0463 26.0961 15.0859C26.0361 15.1254 25.9844 15.1774 25.9442 15.2387L16.5955 29.1382C16.5406 29.2197 16.508 29.3154 16.5013 29.415C16.4946 29.5145 16.5141 29.6141 16.5576 29.7028C16.6011 29.7916 16.6671 29.8661 16.7482 29.9182C16.8293 29.9703 16.9224 29.9981 17.0175 29.9984H22.0084L19.3791 38.2683C19.3357 38.3931 19.3373 38.5302 19.3835 38.6538C19.4297 38.7775 19.5173 38.8792 19.6299 38.9398C19.7425 39.0005 19.8723 39.0159 19.995 38.9832C20.1176 38.9505 20.2247 38.872 20.2961 38.7623L29.9045 24.8628C29.9594 24.7813 29.992 24.6856 29.9987 24.586C30.0054 24.4865 29.9859 24.3869 29.9424 24.2982C29.8989 24.2094 29.8329 24.1349 29.7518 24.0828C29.6707 24.0307 29.5776 24.0029 29.4825 24.0026H24.4673L26.8613 15.7071C26.8858 15.6242 26.8912 15.5364 26.8769 15.4509C26.8626 15.3654 26.8291 15.2847 26.779 15.2155C26.729 15.1464 26.664 15.0908 26.5894 15.0533C26.5148 15.0159 26.4327 14.9977 26.35 15.0002Z" fill="white"/>
    <defs>
        <linearGradient id="paint0_linear_4878_76474" x1="42.0038" y1="0.0546855" x2="0.111201" y2="52.0393" gradientUnits="userSpaceOnUse">
            <stop stop-color="#F7931A"/>
            <stop offset="1" stop-color="#FFBF1B"/>
        </linearGradient>
    </defs>
</svg>
