<?xml version="1.0" encoding="UTF-8" standalone="no"?>
<svg
   width="36.428581"
   height="45.000008"
   viewBox="0 0 36.428581 45.000008"
   fill="none"
   version="1.1"
   id="svg1369"
   sodipodi:docname="l2.svg"
   inkscape:export-filename="l2.svg"
   inkscape:export-xdpi="96"
   inkscape:export-ydpi="96"
   xmlns:inkscape="http://www.inkscape.org/namespaces/inkscape"
   xmlns:sodipodi="http://sodipodi.sourceforge.net/DTD/sodipodi-0.dtd"
   xmlns="http://www.w3.org/2000/svg"
   xmlns:svg="http://www.w3.org/2000/svg">
  <sodipodi:namedview
     id="namedview1371"
     pagecolor="#505050"
     bordercolor="#ffffff"
     borderopacity="1"
     inkscape:showpageshadow="0"
     inkscape:pageopacity="0"
     inkscape:pagecheckerboard="1"
     inkscape:deskcolor="#505050"
     showgrid="false" />
  <path
     d="m 16.989325,44.948899 c -7.3175996,-0.3168 -14.1005896,-5.4059 -16.17644957,-12.3269 -1.6107,-5.3509 -0.74286,-10.4951 1.85369997,-15.3846 1.89535,-3.5603 4.62385,-6.4664 7.4703496,-9.26927 2.4854,-2.44472 5.0889,-4.77926 7.3731,-7.41680995 0.3679,-0.42008 0.6734,-0.89525 1.2705,-0.19283 2.8881,3.41572995 6.3456,6.28742995 9.4281,9.52410995 2.8673,3.0163 5.3945,6.2461 6.8733,10.1783 3.3185,8.8492 0.5207,18.4215 -8.5812,23.07 -2.9367,1.4875 -5.6374,2.0522 -9.5114,1.818 z"
     fill="#f7931a"
     id="path1358" />
  <path
     d="m 20.563625,13.500199 c -0.0191,0.0018 -0.038,0.0046 -0.0568,0.0086 -0.07,0.0113 -0.1371,0.0375 -0.1971,0.0771 -0.06,0.0395 -0.1117,0.0915 -0.1519,0.1528 l -9.3487,13.8995 c -0.0549,0.0815 -0.0875,0.1772 -0.0942,0.2768 -0.0067,0.0995 0.0128,0.1991 0.0563,0.2878 0.0435,0.0888 0.1095,0.1633 0.1906,0.2154 0.0811,0.0521 0.1742,0.0799 0.2693,0.0802 h 4.9909 l -2.6293,8.2699 c -0.0434,0.1248 -0.0418,0.2619 0.0044,0.3855 0.0462,0.1237 0.1338,0.2254 0.2464,0.286 0.1126,0.0607 0.2424,0.0761 0.3651,0.0434 0.1226,-0.0327 0.2297,-0.1112 0.3011,-0.2209 l 9.6084,-13.8995 c 0.0549,-0.0815 0.0875,-0.1772 0.0942,-0.2768 0.0067,-0.0995 -0.0128,-0.1991 -0.0563,-0.2878 -0.0435,-0.0888 -0.1095,-0.1633 -0.1906,-0.2154 -0.0811,-0.0521 -0.1742,-0.0799 -0.2693,-0.0802 h -5.0152 l 2.394,-8.2955 c 0.0245,-0.0829 0.0299,-0.1707 0.0156,-0.2562 -0.0143,-0.0855 -0.0478,-0.1662 -0.0979,-0.2354 -0.05,-0.0691 -0.115,-0.1247 -0.1896,-0.1622 -0.0746,-0.0374 -0.1567,-0.0556 -0.2394,-0.0531 z"
     fill="#ffffff"
     id="path1360" />
  <defs
     id="defs1367" />
</svg>
