<svg width="52" height="52" viewBox="0 0 52 52" fill="none" xmlns="http://www.w3.org/2000/svg">
<path d="M21.0006 51.9442C12.6128 51.5781 6.31122 45.638 3.93176 37.6402C2.08549 31.4567 3.08025 25.5121 6.05657 19.8618C8.22912 15.7475 11.3566 12.3892 14.6194 9.15029C17.4684 6.32518 17.8824 3.48991 20.5006 0.441969C21.0588 -0.207778 20.5006 -0.0574343 24.5272 0.356631C27.8378 4.30383 31.8009 7.62234 35.3343 11.3626C38.621 14.8483 41.5177 18.5806 43.2128 23.1247C47.0167 33.3508 43.8096 44.4125 33.3766 49.7842C30.0103 51.5031 25.4412 52.2147 21.0006 51.9442Z" fill="#46BEAE"/>
<path d="M19.5905 51.8621C11.1525 51.4968 3.33102 45.6285 0.937333 37.6479C-0.919973 31.4778 0.0807302 25.5459 3.07484 19.9078C5.26037 15.8024 8.40659 12.4513 11.6889 9.21935C14.5549 6.40033 17.557 3.70835 20.1909 0.666978C20.6152 0.182582 20.9674 -0.365342 21.6559 0.444632C24.9862 4.38333 28.973 7.6947 32.5275 11.4269C35.8339 14.9051 38.7479 18.6293 40.4531 23.1636C44.2798 33.3677 41.0535 44.4056 30.5582 49.7657C27.1718 51.481 24.0576 52.1321 19.5905 51.8621Z" fill="url(#paint0_linear_21485_25081)"/>
<path d="M23.7136 15.5979C23.6916 15.5999 23.6697 15.6032 23.6481 15.6077C23.5673 15.6208 23.4899 15.6511 23.4207 15.6967C23.3516 15.7423 23.292 15.8022 23.2457 15.8729L12.4656 31.9005C12.4023 31.9944 12.3647 32.1048 12.357 32.2196C12.3492 32.3344 12.3717 32.4493 12.4219 32.5516C12.4721 32.6539 12.5481 32.7398 12.6416 32.7999C12.7351 32.86 12.8426 32.892 12.9522 32.8924H18.7072L15.6753 42.4285C15.6254 42.5724 15.6272 42.7305 15.6805 42.873C15.7337 43.0156 15.8348 43.1329 15.9646 43.2028C16.0944 43.2728 16.2441 43.2906 16.3856 43.2529C16.527 43.2152 16.6505 43.1246 16.7327 42.9981L27.8122 26.9705C27.8756 26.8765 27.9132 26.7662 27.9209 26.6514C27.9286 26.5366 27.9062 26.4217 27.856 26.3194C27.8058 26.2171 27.7298 26.1312 27.6363 26.0711C27.5427 26.011 27.4353 25.979 27.3256 25.9786H21.5426L24.3031 16.4131C24.3314 16.3175 24.3376 16.2162 24.3211 16.1176C24.3047 16.019 24.266 15.9259 24.2083 15.8462C24.1506 15.7665 24.0756 15.7023 23.9896 15.6592C23.9035 15.616 23.8089 15.595 23.7136 15.5979Z" fill="white"/>
<defs>
<linearGradient id="paint0_linear_21485_25081" x1="42.006" y1="0.031248" x2="0.1151" y2="52.0138" gradientUnits="userSpaceOnUse">
<stop stop-color="#F7931A"/>
<stop offset="1" stop-color="#FFBF1B"/>
</linearGradient>
</defs>
</svg>
