<?xml version="1.0" encoding="UTF-8" standalone="no"?>
<svg
   width="53"
   height="53"
   viewBox="0 0 53 53"
   fill="none"
   version="1.1"
   id="svg2"
   xmlns="http://www.w3.org/2000/svg"
   xmlns:svg="http://www.w3.org/2000/svg">
  <defs
     id="defs2" />
  <path
     d="M 47.6141,31.2134 C 47.6141,42.6935 38.161,52 26.5,52 14.839,52 5.3859,42.6935 5.3859,31.2134 c 0,-3.247 0.756249,-6.3202 2.10481,-9.0581 C 10.47721,16.092 22.7483,3.71883 25.8069,0.683617 c 0.3853,-0.38231 1.0009,-0.38231 1.3861,-1e-6 C 30.2517,3.71883 42.5228,16.092 45.5093,22.1553 c 1.3485,2.7379 2.1048,5.8111 2.1048,9.0581 z"
     fill="#f7931a"
     id="path1" />
  <path
     d="m 30.082217,15.5706 c -0.022,0.002 -0.044,0.0053 -0.0657,0.0098 -0.0809,0.0131 -0.1584,0.0434 -0.2277,0.0891 -0.0694,0.0457 -0.1291,0.1058 -0.1755,0.1767 l -10.8029,16.0616 c -0.0635,0.0941 -0.1012,0.2047 -0.1089,0.3198 -0.0078,0.115 0.0147,0.2301 0.065,0.3326 0.0503,0.1026 0.1265,0.1887 0.2202,0.2489 0.0937,0.0602 0.2014,0.0923 0.3113,0.0927 h 5.7672 l -3.0383,9.5563 c -0.0501,0.1442 -0.0482,0.3027 0.0051,0.4455 0.0534,0.1429 0.1547,0.2605 0.2848,0.3305 0.1301,0.0701 0.2801,0.0879 0.4218,0.0502 0.1418,-0.0378 0.2655,-0.1286 0.3479,-0.2554 l 11.1031,-16.0616 c 0.0635,-0.0941 0.1012,-0.2048 0.1089,-0.3198 0.0077,-0.115 -0.0148,-0.2301 -0.0651,-0.3327 -0.0503,-0.1025 -0.1265,-0.1886 -0.2202,-0.2488 -0.0937,-0.0602 -0.2014,-0.0923 -0.3113,-0.0927 h -5.7953 l 2.7664,-9.5859 c 0.0284,-0.0957 0.0346,-0.1973 0.0181,-0.2961 -0.0166,-0.0988 -0.0553,-0.192 -0.1131,-0.2719 -0.0578,-0.0799 -0.133,-0.1442 -0.2192,-0.1875 -0.0862,-0.0432 -0.1811,-0.0643 -0.2766,-0.0613 z"
     fill="#ffffff"
     id="path2" />
</svg>
