<svg width="39" height="47" viewBox="0 0 39 47" fill="none" xmlns="http://www.w3.org/2000/svg">
<path d="M38.4159 28.1761C38.4159 38.5391 29.8827 46.94 19.3564 46.94C8.83012 46.94 0.296875 38.5391 0.296875 28.1761C0.296875 25.245 0.979535 22.4709 2.19687 19.9994C4.87274 14.5668 15.8057 3.52252 18.6679 0.679519C19.053 0.297023 19.6598 0.297023 20.0449 0.679519C22.9071 3.52252 33.8401 14.5668 36.5159 19.9994C37.7333 22.4709 38.4159 25.245 38.4159 28.1761Z" fill="#F7931A"/>
<path d="M22.4348 14.0569C22.4149 14.0587 22.3951 14.0617 22.3755 14.0658C22.3025 14.0776 22.2325 14.105 22.1699 14.1462C22.1073 14.1875 22.0534 14.2417 22.0116 14.3056L12.2598 28.8044C12.2025 28.8893 12.1685 28.9892 12.1615 29.093C12.1545 29.1969 12.1748 29.3008 12.2203 29.3933C12.2657 29.4859 12.3344 29.5636 12.419 29.618C12.5036 29.6723 12.6008 29.7013 12.7 29.7017H17.906L15.1633 38.328C15.1181 38.4582 15.1198 38.6012 15.168 38.7302C15.2162 38.8592 15.3076 38.9653 15.425 39.0286C15.5425 39.0918 15.6779 39.1079 15.8058 39.0738C15.9338 39.0397 16.0454 38.9577 16.1199 38.8433L26.1425 24.3446C26.1998 24.2596 26.2338 24.1598 26.2408 24.0559C26.2478 23.9521 26.2275 23.8482 26.1821 23.7556C26.1367 23.6631 26.0679 23.5854 25.9833 23.531C25.8987 23.4766 25.8015 23.4477 25.7023 23.4473H20.4709L22.9681 14.7943C22.9937 14.7078 22.9993 14.6162 22.9844 14.527C22.9695 14.4378 22.9345 14.3536 22.8823 14.2815C22.8302 14.2094 22.7623 14.1513 22.6845 14.1123C22.6067 14.0732 22.5211 14.0542 22.4348 14.0569Z" fill="white"/>
</svg>
