<svg width="39" height="47" viewBox="0 0 39 47" fill="none" xmlns="http://www.w3.org/2000/svg">
<path d="M38.4159 28.1761C38.4159 38.5391 29.8827 46.94 19.3564 46.94C8.83012 46.94 0.296875 38.5391 0.296875 28.1761C0.296875 25.245 0.979535 22.4709 2.19687 19.9994C4.87274 14.5668 15.8057 3.52252 18.6679 0.679519C19.053 0.297023 19.6598 0.297023 20.0449 0.679519C22.9071 3.52252 33.8401 14.5668 36.5159 19.9994C37.7333 22.4709 38.4159 25.245 38.4159 28.1761Z" fill="#00B6B6"/>
<path fill-rule="evenodd" clip-rule="evenodd" d="M27.5732 25.9503C27.8607 23.9588 26.4876 21.8523 23.8203 20.9392L24.5176 18.121L22.4039 17.5961L21.7281 20.3281C21.2929 20.2207 20.8443 20.1178 20.3998 20.0158L20.0386 19.9327L20.7216 17.1791L18.6079 16.6543L17.9105 19.4726L14.0857 18.5308L13.5249 20.7883C13.5249 20.7883 15.0922 21.1477 15.0563 21.1693C15.9118 21.385 16.0628 21.9458 16.0412 22.3987L13.6831 31.896C13.5752 32.1548 13.3164 32.5431 12.7197 32.3993C12.7413 32.428 11.1811 32.0182 11.1811 32.0182L10.1387 34.4339L13.9563 35.3973L13.1942 38.4744L15.3007 38.9992L16.0556 35.9581C16.6308 36.1162 17.1916 36.26 17.738 36.3894L16.9831 39.4162L19.0968 39.9482L19.8589 36.8783C23.4608 37.5541 26.2 36.6195 26.8686 33.9162C27.415 31.7091 26.9261 30.0914 25.3516 28.9052C26.3941 28.5673 27.3503 27.5104 27.5732 25.9503ZM23.2352 32.5556C22.6426 34.959 18.8899 33.9731 17.1635 33.5196C17.005 33.4779 16.8635 33.4408 16.7431 33.4111L17.8935 28.7595C18.0396 28.7963 18.2186 28.8366 18.4217 28.8823L18.4218 28.8823C20.2065 29.2841 23.842 30.1027 23.2352 32.5556ZM18.7727 26.7326C20.2122 27.1142 23.3391 27.9429 23.8856 25.7571C24.4356 23.5182 21.3865 22.8518 19.896 22.526C19.7304 22.4898 19.5841 22.4578 19.4641 22.4284L18.4216 26.6414C18.5221 26.6662 18.6403 26.6975 18.7727 26.7326Z" fill="white"/>
</svg>
