<svg width="52" height="52" viewBox="0 0 52 52" fill="none" xmlns="http://www.w3.org/2000/svg">
<path d="M24.3484 51.941C15.9609 51.5749 8.18611 45.6941 5.80673 37.6965C3.96052 31.5133 4.95525 25.5688 7.93146 19.9188C10.1039 15.8046 13.2314 12.4464 16.494 9.20762C19.3429 6.3826 22.3271 3.68491 24.9452 0.637079C25.367 0.151653 25.7171 -0.397434 26.4015 0.41426C29.7119 4.36133 33.6749 7.67972 37.2082 11.4199C40.4947 14.9054 43.3914 18.6376 45.0864 23.1815C48.8902 33.4073 45.6832 44.4686 35.2506 49.8401C31.8844 51.559 28.7888 52.2115 24.3484 51.941Z" fill="#46BEAE"/>
<path fill-rule="evenodd" clip-rule="evenodd" d="M34.5828 28.0746C34.9011 25.8703 33.3812 23.5386 30.4288 22.528L31.2007 19.4085L28.8611 18.8276L28.1131 21.8516C27.6313 21.7327 27.1348 21.6187 26.6428 21.5058L26.6428 21.5058C26.5091 21.4751 26.3757 21.4445 26.243 21.4139L26.999 18.3661L24.6594 17.7852L23.8875 20.9046L19.654 19.8621L19.0333 22.3609C19.0333 22.3609 20.7681 22.7588 20.7283 22.7826C21.6753 23.0214 21.8424 23.6421 21.8185 24.1434L19.2083 34.6557C19.089 34.9422 18.8025 35.3719 18.142 35.2127C18.1659 35.2446 16.439 34.791 16.439 34.791L15.2852 37.4648L19.5107 38.5311L18.6672 41.9371L20.9989 42.518L21.8344 39.1518C22.471 39.3269 23.0918 39.4861 23.6965 39.6293L22.861 42.9795L25.2006 43.5684L26.0441 40.1704C30.0309 40.9185 33.0629 39.8839 33.8029 36.8918C34.4077 34.4488 33.8666 32.6583 32.1238 31.3452C33.2777 30.9712 34.3361 29.8014 34.5828 28.0746ZM29.7835 35.3868C29.1276 38.047 24.9738 36.9558 23.063 36.4538L23.0628 36.4538C22.8874 36.4077 22.7308 36.3665 22.5977 36.3337L23.8709 31.1851C24.0327 31.2257 24.2309 31.2703 24.4557 31.321C26.4311 31.7657 30.4552 32.6718 29.7835 35.3868ZM24.8398 28.9415C26.4332 29.3638 29.8942 30.2811 30.4991 27.8617C31.1079 25.3836 27.733 24.6459 26.0832 24.2853C25.8999 24.2453 25.7379 24.2099 25.6051 24.1772L24.4512 28.8405C24.5625 28.868 24.6932 28.9027 24.8398 28.9415Z" fill="white"/>
</svg>
