<svg width="55" height="46" viewBox="0 0 55 46" fill="none" xmlns="http://www.w3.org/2000/svg">
<path d="M11.957 3.33203H41.9383L40.0645 31.4395L26.9477 33.3133L13.8309 31.4395L11.957 3.33203Z" fill="white"/>
<path fill-rule="evenodd" clip-rule="evenodd" d="M42.0726 0H11.2699C10.498 0 9.83494 0.450445 9.50446 1.01405L0.562349 16.9015C0.121 17.6892 0.231868 18.8164 0.892826 19.4932L25.5124 44.5092C26.2843 45.2969 27.6104 45.2969 28.3823 44.5092L53.0019 19.6063C53.665 18.9296 53.7737 17.8045 53.3324 17.0146L43.7271 1.01405C43.3967 0.339466 42.7357 0 42.0726 0ZM15.2441 7.10049V11.6071H23.9666V14.6493C17.7835 14.9865 13.1483 16.3401 13.1483 17.9177V21.2971C13.1483 22.8748 17.7856 24.3393 23.9666 24.5656V32.2275H29.8172V24.7897C36.0003 24.4524 40.6377 23.0989 40.6377 21.5213V18.1418C40.6377 16.5642 36.0003 15.0997 29.8172 14.8734V11.7181H38.5397V7.21147H15.2441V7.10049ZM26.8365 22.4243C20.212 22.4243 14.8028 21.2971 13.3679 19.7195C14.4723 18.3681 18.6683 17.3541 23.8558 17.1278V20.3962C24.8493 20.3962 25.732 20.5094 26.7256 20.5094C27.7192 20.5094 28.7127 20.5094 29.5954 20.3962V17.1278C34.785 17.3541 38.9789 18.4791 40.0833 19.7195C38.981 21.2971 33.461 22.4243 26.8365 22.4243Z" fill="#00B6B6"/>
<path d="M45.3969 45.0984C50.4917 45.0984 54.6219 40.9683 54.6219 35.8734C54.6219 30.7786 50.4917 26.6484 45.3969 26.6484C40.302 26.6484 36.1719 30.7786 36.1719 35.8734C36.1719 40.9683 40.302 45.0984 45.3969 45.0984Z" fill="#8247E5"/>
<path d="M48.4501 33.8989C48.2288 33.7701 47.9412 33.7701 47.6978 33.8989L45.9719 34.8857L44.7992 35.5293L43.0734 36.5162C42.8521 36.6449 42.5645 36.6449 42.3211 36.5162L40.9492 35.7439C40.728 35.6151 40.5731 35.3791 40.5731 35.1217V33.5985C40.5731 33.3411 40.7059 33.1051 40.9492 32.9764L42.299 32.2255C42.5202 32.0968 42.8079 32.0968 43.0513 32.2255L44.401 32.9764C44.6222 33.1051 44.7771 33.3411 44.7771 33.5985V34.5854L45.9498 33.9203V32.9334C45.9498 32.676 45.817 32.44 45.5737 32.3113L43.0734 30.8954C42.8521 30.7666 42.5645 30.7666 42.3211 30.8954L39.7765 32.3113C39.5331 32.44 39.4004 32.676 39.4004 32.9334V35.7868C39.4004 36.0442 39.5331 36.2802 39.7765 36.4089L42.3211 37.8248C42.5423 37.9536 42.83 37.9536 43.0734 37.8248L44.7992 36.8594L45.9719 36.1944L47.6978 35.229C47.919 35.1003 48.2067 35.1003 48.4501 35.229L49.7998 35.9798C50.0211 36.1086 50.1759 36.3445 50.1759 36.602V38.1252C50.1759 38.3826 50.0432 38.6186 49.7998 38.7473L48.4501 39.5197C48.2288 39.6484 47.9412 39.6484 47.6978 39.5197L46.3481 38.7688C46.1268 38.6401 45.9719 38.4041 45.9719 38.1466V37.1598L44.7992 37.8248V38.8117C44.7992 39.0691 44.932 39.3051 45.1754 39.4339L47.7199 40.8498C47.9412 40.9785 48.2288 40.9785 48.4722 40.8498L51.0167 39.4339C51.238 39.3051 51.3929 39.0691 51.3929 38.8117V35.9584C51.3929 35.7009 51.2601 35.465 51.0167 35.3362L48.4501 33.8989Z" fill="white"/>
</svg>
