<svg width="51" height="60" viewBox="0 0 51 60" fill="none" xmlns="http://www.w3.org/2000/svg">
<path d="M44.4378 34.1373C44.4378 44.5004 35.9045 52.9014 25.3781 52.9014C14.8517 52.9014 6.31836 44.5004 6.31836 34.1373C6.31836 31.2062 7.00103 28.4321 8.21837 25.9606C10.8943 20.5279 21.8274 9.48348 24.6896 6.64046C25.0747 6.25796 25.6815 6.25796 26.0666 6.64046C28.9288 9.48347 39.8619 20.5279 42.5378 25.9606C43.7551 28.4321 44.4378 31.2062 44.4378 34.1373Z" fill="#F7931A"/>
<path fill-rule="evenodd" clip-rule="evenodd" d="M50.7572 34.137C50.7572 48.0828 39.3014 59.22 25.3786 59.22C11.4559 59.22 0 48.0828 0 34.137C0 30.2139 0.915826 26.4866 2.55034 23.1682C4.3528 19.5088 8.42527 14.7119 11.7735 11.0071C15.3357 7.06549 18.8869 3.49682 20.3021 2.09244C23.1136 -0.697479 27.6437 -0.697484 30.4552 2.09244C31.8704 3.49682 35.4215 7.06549 38.9838 11.0071C42.332 14.7119 46.4045 19.5088 48.2069 23.1682C49.8414 26.4866 50.7572 30.2139 50.7572 34.137ZM25.3786 52.9011C35.905 52.9011 44.4383 44.5001 44.4383 34.137C44.4383 31.2059 43.7557 28.4318 42.5383 25.9603C39.8424 20.4869 28.7653 9.31763 26.0042 6.57774C25.6565 6.23263 25.1008 6.23263 24.753 6.57774C21.992 9.31763 10.9148 20.4869 8.21892 25.9603C7.00157 28.4318 6.31891 31.2059 6.31891 34.137C6.31891 44.5001 14.8522 52.9011 25.3786 52.9011Z" fill="white"/>
<path d="M28.4622 20.0159C28.4424 20.0177 28.4226 20.0207 28.403 20.0248C28.3299 20.0366 28.26 20.0639 28.1974 20.1052C28.1348 20.1464 28.0809 20.2007 28.039 20.2646L18.2872 34.7635C18.2298 34.8485 18.1958 34.9483 18.1888 35.0522C18.1819 35.156 18.2022 35.2599 18.2476 35.3525C18.293 35.445 18.3618 35.5227 18.4464 35.5771C18.531 35.6315 18.6282 35.6604 18.7274 35.6608H23.9334L21.1907 44.2873C21.1455 44.4174 21.1472 44.5605 21.1954 44.6894C21.2435 44.8184 21.3349 44.9245 21.4524 44.9878C21.5698 45.051 21.7052 45.0671 21.8332 45.033C21.9611 44.9989 22.0728 44.917 22.1473 44.8025L32.17 30.3037C32.2273 30.2187 32.2613 30.1189 32.2683 30.015C32.2753 29.9112 32.2549 29.8073 32.2095 29.7147C32.1641 29.6222 32.0954 29.5445 32.0108 29.4901C31.9262 29.4357 31.829 29.4068 31.7298 29.4064H26.4983L28.9955 20.7533C29.0212 20.6668 29.0268 20.5751 29.0119 20.486C28.9969 20.3968 28.962 20.3126 28.9098 20.2405C28.8576 20.1683 28.7898 20.1103 28.7119 20.0713C28.6341 20.0322 28.5485 20.0132 28.4622 20.0159Z" fill="white"/>
</svg>
