<?xml version="1.0" encoding="UTF-8"?><svg id="a" xmlns="http://www.w3.org/2000/svg" viewBox="0 0 59.39 59.39"><path d="M55.14,14.41c-4.08-6.8-10.57-11.6-18.26-13.52-7.69-1.92-15.67-.72-22.47,3.36C7.61,8.34,2.81,14.82.89,22.52c-1.92,7.69-.73,15.67,3.36,22.47s10.57,11.6,18.26,13.51c2.4.6,4.81.89,7.18.89,13.31,0,25.45-9.03,28.81-22.51,1.92-7.69.73-15.67-3.36-22.47Z" fill="#fff" stroke-width="0"/><path d="M51.63,35.17c-3.02,12.11-15.29,19.48-27.4,16.46-12.11-3.02-19.48-15.29-16.46-27.4,3.02-12.11,15.29-19.48,27.4-16.46,12.11,3.02,19.48,15.29,16.46,27.4h0s0,0,0,0Z" fill="#f7931a" stroke-width="0"/><path d="M40.94,26.85c.47-3.05-1.92-4.7-5.2-5.79l1.06-4.14-2.59-.63-1.03,4.03c-.68-.17-1.38-.32-2.08-.48l1.04-4.05-2.59-.63-1.06,4.14c-.56-.12-1.12-.25-1.66-.38h0s-3.58-.88-3.58-.88l-.69,2.69s1.92.43,1.88.45c1.05.25,1.24.93,1.21,1.46l-1.21,4.71c.07.02.17.04.27.08-.09-.02-.18-.04-.27-.07l-1.7,6.6c-.13.31-.45.77-1.19.6.03.04-1.88-.46-1.88-.46l-1.29,2.88,3.37.82c.63.15,1.24.31,1.85.46l-1.07,4.18,2.59.63,1.06-4.14c.71.19,1.39.36,2.07.52l-1.06,4.12,2.59.63,1.07-4.18c4.42.81,7.75.49,9.15-3.4,1.13-3.13-.06-4.93-2.38-6.11,1.69-.38,2.97-1.46,3.31-3.7h0s0,0,0,0ZM35.02,34.92c-.8,3.13-6.22,1.44-7.98,1.01l1.42-5.54c1.76.43,7.39,1.27,6.56,4.53h0ZM35.82,26.8c-.73,2.84-5.24,1.4-6.71,1.05l1.29-5.03c1.46.35,6.18,1.02,5.42,3.98h0Z" fill="#fff" stroke-width="0"/></svg>