<svg width="69" height="60" viewBox="0 0 69 60" fill="none" xmlns="http://www.w3.org/2000/svg">
<path fill-rule="evenodd" clip-rule="evenodd" d="M64.3931 32.0451C67.0023 34.8967 68.6018 38.7127 68.6018 42.9977C68.6018 52.0367 61.0935 59.22 52.3795 59.22C48.2131 59.22 44.4211 57.6502 41.5536 55.0736L40.3552 56.283C36.843 59.8564 31.0168 59.854 27.5076 56.276L2.88305 31.3234L2.8617 31.3013C-0.0408509 28.3081 -0.432823 23.8002 1.4475 20.4331L1.45523 20.4192L10.421 4.53386L10.444 4.4942C11.9098 1.97493 14.7743 0 18.257 0H49.0594C51.9337 0 55.1132 1.45385 56.8138 4.58265L66.3669 20.4569L66.4222 20.5561C68.2738 23.8717 67.9681 28.4189 64.9701 31.4631L64.9618 31.4715L64.3931 32.0451Z" fill="white"/>
<path d="M18.9551 10.3301H48.9336L47.0599 38.4349L33.9443 40.3086L20.8287 38.4349L18.9551 10.3301Z" fill="white"/>
<path fill-rule="evenodd" clip-rule="evenodd" d="M49.0678 7H18.2679C17.4961 7 16.8331 7.4504 16.5027 8.01395L7.56137 23.8999C7.12006 24.6876 7.23092 25.8147 7.89182 26.4914L32.5092 51.5051C33.2809 52.2928 34.607 52.2928 35.3787 51.5051L59.9961 26.6045C60.6591 25.9278 60.7678 24.8029 60.3265 24.0131L50.7222 8.01395C50.3917 7.33943 49.7308 7 49.0678 7ZM22.2418 14.0998V18.6061H30.9635V21.6479C24.7809 21.9852 20.1461 23.3386 20.1461 24.9161V28.2952C20.1461 29.8727 24.7831 31.337 30.9635 31.5633V39.2245H36.8135V31.7874C42.9961 31.4502 47.633 30.0968 47.633 28.5193V25.1402C47.633 23.5627 42.9961 22.0983 36.8135 21.872V18.717H45.5352V14.2108H22.2418V14.0998ZM33.8331 29.4223C27.2092 29.4223 21.8005 28.2952 20.3657 26.7177C21.47 25.3665 25.6657 24.3525 30.8527 24.1262V27.3944C31.8461 27.3944 32.7287 27.5075 33.7222 27.5075C34.7157 27.5075 35.7092 27.5075 36.5918 27.3944V24.1262C41.7809 24.3525 45.9744 25.4774 47.0787 26.7177C45.9765 28.2952 40.457 29.4223 33.8331 29.4223Z" fill="#00B6B6"/>
<circle cx="52.396" cy="42.8706" r="9.22415" fill="#627EEA"/>
<path d="M52.5587 36.1934L52.4648 36.5123V45.7662L52.5587 45.8599L56.8542 43.3208L52.5587 36.1934Z" fill="#C1CCF7"/>
<path d="M52.5593 36.1934L48.2637 43.3208L52.5593 45.8599V41.3683V36.1934Z" fill="white"/>
<path d="M52.5588 46.6745L52.5059 46.739V50.0354L52.5588 50.1899L56.8569 44.1367L52.5588 46.6745Z" fill="#C1CCF7"/>
<path d="M52.5593 50.1899V46.6745L48.2637 44.1367L52.5593 50.1899Z" fill="white"/>
<path d="M52.5586 45.8588L56.8541 43.3197L52.5586 41.3672V45.8588Z" fill="#8198EE"/>
<path d="M48.2637 43.3197L52.5593 45.8588V41.3672L48.2637 43.3197Z" fill="#C1CCF7"/>
</svg>
