<svg width="69" height="60" viewBox="0 0 69 60" fill="none" xmlns="http://www.w3.org/2000/svg">
<path fill-rule="evenodd" clip-rule="evenodd" d="M64.0963 32.0451C66.7054 34.8967 68.3049 38.7127 68.3049 42.9977C68.3049 52.0367 60.7966 59.22 52.0826 59.22C47.9162 59.22 44.1242 57.6502 41.2567 55.0736L40.0583 56.283C36.5461 59.8564 30.7199 59.854 27.2107 56.276L2.58618 31.3234L2.56482 31.3013C-0.337726 28.3081 -0.729698 23.8002 1.15062 20.4331L1.15835 20.4192L10.1241 4.53386L10.1472 4.4942C11.6129 1.97493 14.4774 0 17.9601 0H48.7626C51.6369 0 54.8163 1.45385 56.5169 4.58265L66.07 20.4569L66.1254 20.5561C67.9769 23.8717 67.6713 28.4189 64.6732 31.4631L64.665 31.4715L64.0963 32.0451Z" fill="white"/>
<path d="M18.6582 10.3301H48.6367L46.763 38.4349L33.6474 40.3086L20.5319 38.4349L18.6582 10.3301Z" fill="white"/>
<path fill-rule="evenodd" clip-rule="evenodd" d="M48.7709 7H17.971C17.1993 7 16.5362 7.4504 16.2058 8.01395L7.2645 23.8999C6.82319 24.6876 6.93405 25.8147 7.59494 26.4914L32.2123 51.5051C32.984 52.2928 34.3101 52.2928 35.0819 51.5051L59.6992 26.6045C60.3622 25.9278 60.471 24.8029 60.0296 24.0131L50.4253 8.01395C50.0949 7.33943 49.434 7 48.7709 7ZM21.9449 14.0998V18.6061H30.6666V21.6479C24.4841 21.9852 19.8492 23.3386 19.8492 24.9161V28.2952C19.8492 29.8727 24.4862 31.337 30.6666 31.5633V39.2245H36.5166V31.7874C42.6992 31.4502 47.3362 30.0968 47.3362 28.5193V25.1402C47.3362 23.5627 42.6992 22.0983 36.5166 21.872V18.717H45.2383V14.2108H21.9449V14.0998ZM33.5362 29.4223C26.9123 29.4223 21.5036 28.2952 20.0688 26.7177C21.1732 25.3665 25.3688 24.3525 30.5558 24.1262V27.3944C31.5493 27.3944 32.4319 27.5075 33.4253 27.5075C34.4188 27.5075 35.4123 27.5075 36.2949 27.3944V24.1262C41.484 24.3525 45.6775 25.4774 46.7819 26.7177C45.6797 28.2952 40.1601 29.4223 33.5362 29.4223Z" fill="#00B6B6"/>
<path d="M52.0992 52.0948C57.1935 52.0948 61.3233 47.965 61.3233 42.8706C61.3233 37.7763 57.1935 33.6465 52.0992 33.6465C47.0048 33.6465 42.875 37.7763 42.875 42.8706C42.875 47.965 47.0048 52.0948 52.0992 52.0948Z" fill="#8247E5"/>
<path d="M55.1524 40.8966C54.9311 40.7679 54.6435 40.7679 54.4002 40.8966L52.6744 41.8834L51.5019 42.5269L49.7762 43.5137C49.5549 43.6424 49.2673 43.6424 49.0239 43.5137L47.6522 42.7415C47.431 42.6127 47.2761 42.3768 47.2761 42.1193V40.5963C47.2761 40.3389 47.4089 40.1029 47.6522 39.9742L49.0018 39.2234C49.223 39.0947 49.5107 39.0947 49.754 39.2234L51.1036 39.9742C51.3249 40.1029 51.4797 40.3389 51.4797 40.5963V41.5831L52.6523 40.9181V39.9313C52.6523 39.6739 52.5196 39.4379 52.2762 39.3092L49.7762 37.8934C49.5549 37.7647 49.2673 37.7647 49.0239 37.8934L46.4796 39.3092C46.2363 39.4379 46.1035 39.6739 46.1035 39.9313V42.7843C46.1035 43.0418 46.2363 43.2777 46.4796 43.4064L49.0239 44.8222C49.2452 44.951 49.5328 44.951 49.7762 44.8222L51.5019 43.8569L52.6744 43.1919L54.4002 42.2266C54.6214 42.0979 54.909 42.0979 55.1524 42.2266L56.502 42.9774C56.7232 43.1061 56.8781 43.3421 56.8781 43.5995V45.1226C56.8781 45.38 56.7453 45.6159 56.502 45.7447L55.1524 46.5169C54.9311 46.6456 54.6435 46.6456 54.4002 46.5169L53.0506 45.7661C52.8293 45.6374 52.6744 45.4014 52.6744 45.144V44.1573L51.5019 44.8222V45.809C51.5019 46.0664 51.6346 46.3024 51.878 46.4311L54.4223 47.8469C54.6435 47.9756 54.9311 47.9756 55.1745 47.8469L57.7188 46.4311C57.94 46.3024 58.0949 46.0664 58.0949 45.809V42.956C58.0949 42.6985 57.9622 42.4626 57.7188 42.3339L55.1524 40.8966Z" fill="white"/>
</svg>
