<svg width="69" height="60" viewBox="0 0 69 60" fill="none" xmlns="http://www.w3.org/2000/svg">
<path fill-rule="evenodd" clip-rule="evenodd" d="M64.0963 32.0451C66.7054 34.8967 68.3049 38.7127 68.3049 42.9977C68.3049 52.0367 60.7966 59.22 52.0826 59.22C47.9162 59.22 44.1242 57.6502 41.2567 55.0736L40.0583 56.283C36.5461 59.8564 30.7199 59.854 27.2107 56.276L2.58618 31.3234L2.56482 31.3013C-0.337726 28.3081 -0.729698 23.8002 1.15062 20.4331L1.15835 20.4192L10.1241 4.53386L10.1472 4.4942C11.6129 1.97493 14.4774 0 17.9601 0H48.7626C51.6369 0 54.8163 1.45385 56.5169 4.58265L66.07 20.4569L66.1254 20.5561C67.9769 23.8717 67.6713 28.4189 64.6732 31.4631L64.665 31.4715L64.0963 32.0451Z" fill="white"/>
<path d="M18.6582 10.3301H48.6367L46.763 38.4349L33.6474 40.3086L20.5319 38.4349L18.6582 10.3301Z" fill="white"/>
<path fill-rule="evenodd" clip-rule="evenodd" d="M48.7709 7H17.971C17.1993 7 16.5362 7.4504 16.2058 8.01395L7.2645 23.8999C6.82319 24.6876 6.93405 25.8147 7.59494 26.4914L32.2123 51.5051C32.984 52.2928 34.3101 52.2928 35.0819 51.5051L59.6992 26.6045C60.3622 25.9278 60.471 24.8029 60.0296 24.0131L50.4253 8.01395C50.0949 7.33943 49.434 7 48.7709 7ZM21.9449 14.0998V18.6061H30.6666V21.6479C24.4841 21.9852 19.8492 23.3386 19.8492 24.9161V28.2952C19.8492 29.8727 24.4862 31.337 30.6666 31.5633V39.2245H36.5166V31.7874C42.6992 31.4502 47.3362 30.0968 47.3362 28.5193V25.1402C47.3362 23.5627 42.6992 22.0983 36.5166 21.872V18.717H45.2383V14.2108H21.9449V14.0998ZM33.5362 29.4223C26.9123 29.4223 21.5036 28.2952 20.0688 26.7177C21.1732 25.3665 25.3688 24.3525 30.5558 24.1262V27.3944C31.5493 27.3944 32.4319 27.5075 33.4253 27.5075C34.4188 27.5075 35.4123 27.5075 36.2949 27.3944V24.1262C41.484 24.3525 45.6775 25.4774 46.7819 26.7177C45.6797 28.2952 40.1601 29.4223 33.5362 29.4223Z" fill="#00B6B6"/>
<circle cx="52.0992" cy="42.8706" r="9.22415" fill="#FF060A"/>
<path d="M57.5419 41.1425C57.0134 40.6545 56.2824 39.9094 55.687 39.3809L55.6517 39.3563C55.5931 39.3092 55.527 39.2723 55.4562 39.2471C54.0206 38.9793 47.3391 37.7304 47.2087 37.7462C47.1722 37.7514 47.1373 37.7646 47.1065 37.785L47.0731 37.8114C47.0319 37.8533 47.0006 37.9038 46.9815 37.9594L46.9727 37.9823V38.1074V38.1267C47.7248 40.2212 50.6948 47.0824 51.2796 48.6924C51.3148 48.8016 51.3818 49.0095 51.5068 49.0201H51.535C51.602 49.0201 51.8873 48.6431 51.8873 48.6431C51.8873 48.6431 56.9887 42.4566 57.5049 41.7978C57.5717 41.7166 57.6307 41.6293 57.681 41.5371C57.6939 41.4649 57.6878 41.3906 57.6634 41.3214C57.639 41.2523 57.5972 41.1906 57.5419 41.1425ZM53.1962 41.8629L55.3734 40.0574L56.6505 41.2341L53.1962 41.8629ZM52.3506 41.7449L48.6021 38.6728L54.667 39.7914L52.3506 41.7449ZM52.6888 42.5499L56.5255 41.9316L52.1392 47.2162L52.6888 42.5499ZM48.093 38.9793L52.0371 42.3262L51.4663 47.2198L48.093 38.9793Z" fill="white"/>
</svg>
