<svg width="51" height="60" viewBox="0 0 51 60" fill="none" xmlns="http://www.w3.org/2000/svg">
<path fill-rule="evenodd" clip-rule="evenodd" d="M50.7572 34.137C50.7572 48.0828 39.3014 59.22 25.3786 59.22C11.4559 59.22 0 48.0828 0 34.137C0 30.2139 0.915826 26.4866 2.55034 23.1682C4.3528 19.5088 8.42527 14.7119 11.7735 11.0071C15.3357 7.06549 18.8869 3.49682 20.3021 2.09244C23.1136 -0.697479 27.6437 -0.697484 30.4552 2.09244C31.8704 3.49682 35.4215 7.06549 38.9838 11.0071C42.332 14.7119 46.4045 19.5088 48.2069 23.1682C49.8414 26.4866 50.7572 30.2139 50.7572 34.137ZM25.3786 52.9011C35.905 52.9011 44.4383 44.5001 44.4383 34.137C44.4383 31.2059 43.7557 28.4318 42.5383 25.9603C39.8424 20.4869 28.7653 9.31763 26.0042 6.57774C25.6565 6.23263 25.1008 6.23263 24.753 6.57774C21.992 9.31763 10.9148 20.4869 8.21892 25.9603C7.00157 28.4318 6.31891 31.2059 6.31891 34.137C6.31891 44.5001 14.8522 52.9011 25.3786 52.9011Z" fill="white"/>
<path d="M44.4397 34.1373C44.4397 44.5004 35.9064 52.9014 25.38 52.9014C14.8536 52.9014 6.32031 44.5004 6.32031 34.1373C6.32031 31.2062 7.00298 28.4321 8.22032 25.9606C10.8962 20.5279 21.8293 9.48348 24.6915 6.64046C25.0766 6.25796 25.6834 6.25796 26.0685 6.64046C28.9307 9.48347 39.8638 20.5279 42.5397 25.9606C43.7571 28.4321 44.4397 31.2062 44.4397 34.1373Z" fill="#00B6B6"/>
<path fill-rule="evenodd" clip-rule="evenodd" d="M28.0088 31.189V28.8633H35.1071V25.4941H16.173V28.8633H23.2712V31.189C18.2828 31.433 14.5429 32.4713 14.5156 33.6861V36.2558C14.5429 37.4913 18.2828 38.5088 23.2712 38.7528V44.4737H27.9816V38.7528C32.97 38.5088 36.7099 37.4706 36.7372 36.2558V33.6861C36.7372 32.4765 32.97 31.433 28.0088 31.189ZM25.6421 36.9817C20.3211 36.9817 15.867 36.1095 14.7766 34.9726C15.6925 34.0018 19.0508 33.2283 23.276 33.0103V35.4606C24.0392 35.5073 24.8298 35.5073 25.6421 35.5073C26.4544 35.5073 27.2449 35.4814 28.0082 35.4606V33.0103C32.2606 33.2283 35.5916 34.0018 36.5075 34.9726C35.4172 36.1355 30.963 36.9817 25.6421 36.9817Z" fill="white"/>
</svg>
