<?xml version="1.0" encoding="UTF-8"?><svg id="a" xmlns="http://www.w3.org/2000/svg" viewBox="0 0 68.31 59.39"><path d="M64.1,32.13l.58-.58c2.83-2.88,3.43-7.36,1.42-10.97l-9.57-15.91C54.98,1.84,52.01.09,48.76.09h-30.8c-3.21,0-6.2,1.72-7.8,4.47L1.15,20.52c-1.96,3.52-1.38,7.98,1.46,10.91l24.6,24.92c1.7,1.73,3.98,2.69,6.43,2.69h0c2.45,0,4.73-.95,6.41-2.67l1.2-1.21c2.94,2.64,6.77,4.14,10.83,4.14,8.94,0,16.22-7.28,16.22-16.22,0-4.14-1.52-8.02-4.21-10.95Z" fill="#fff" stroke-width="0"/><path d="M18.66,10.29h29.98l-1.87,28.1-13.11,1.87-13.11-1.87-1.87-28.1Z" fill="#fff" stroke-width="0"/><path d="M48.77,6.96h-30.8c-.77,0-1.43.45-1.77,1.01l-8.94,15.84c-.44.79-.33,1.91.33,2.58l24.62,24.94c.77.79,2.1.79,2.87,0l24.62-24.83c.66-.67.77-1.8.33-2.58l-9.6-15.95c-.33-.67-.99-1.01-1.65-1.01ZM21.95,14.04v4.49h8.72v3.03c-6.18.34-10.82,1.69-10.82,3.26v3.37c0,1.57,4.64,3.03,10.82,3.26v7.64h5.85v-7.42c6.18-.34,10.82-1.69,10.82-3.26v-3.37c0-1.57-4.64-3.03-10.82-3.26v-3.15h8.72v-4.49h-23.29v-.11ZM33.54,29.32c-6.62,0-12.03-1.12-13.47-2.7,1.1-1.35,5.3-2.36,10.49-2.58v3.26c.99,0,1.88.11,2.87.11s1.99,0,2.87-.11v-3.26c5.19.23,9.38,1.35,10.49,2.58-1.1,1.57-6.62,2.7-13.24,2.7Z" fill="#009393" fill-rule="evenodd" stroke-width="0"/><circle cx="52.09" cy="42.96" r="9.22" fill="#ff060a" stroke-width="0"/><path d="M57.54,41.23c-.53-.49-1.26-1.23-1.85-1.76l-.04-.02c-.06-.05-.12-.08-.2-.11-1.44-.27-8.12-1.52-8.25-1.5-.04,0-.07.02-.1.04l-.03.03s-.07.09-.09.15v.02s0,.13,0,.13v.02c.75,2.09,3.72,8.95,4.31,10.56.04.11.1.32.23.33h.03c.07,0,.35-.38.35-.38,0,0,5.1-6.19,5.62-6.84.07-.08.13-.17.18-.26.01-.07,0-.15-.02-.22-.02-.07-.07-.13-.12-.18ZM53.19,41.95l2.18-1.81,1.28,1.18-3.45.63ZM52.34,41.83l-3.75-3.07,6.06,1.12-2.32,1.95ZM52.68,42.64l3.84-.62-4.39,5.28.55-4.67ZM48.09,39.07l3.94,3.35-.57,4.89-3.37-8.24Z" fill="#fff" stroke-width="0"/></svg>