<?xml version="1.0" encoding="UTF-8"?><svg id="a" xmlns="http://www.w3.org/2000/svg" viewBox="0 0 68.31 59.39"><path d="M64.1,32.13l.58-.58c2.83-2.88,3.43-7.36,1.43-10.95l-9.59-15.94C54.97,1.84,52.01.09,48.77.09h-30.8c-3.21,0-6.2,1.72-7.81,4.49L1.15,20.52c-1.96,3.52-1.38,7.98,1.46,10.91l24.6,24.93c1.7,1.73,3.98,2.69,6.43,2.69h0c2.45,0,4.73-.95,6.42-2.67l1.2-1.21c2.94,2.64,6.77,4.14,10.83,4.14,8.94,0,16.22-7.28,16.22-16.22,0-4.14-1.52-8.02-4.21-10.95Z" fill="#fff" stroke-width="0"/><circle cx="52.09" cy="43.08" r="9.22" fill="#627eea" stroke-width="0"/><path d="M52.25,36.4l-.09.32v9.25l.09.09,4.29-2.54-4.29-7.13Z" fill="#c1ccf7" stroke-width="0"/><path d="M52.25,36.4l-4.29,7.13,4.29,2.54v-9.66Z" fill="#fff" stroke-width="0"/><path d="M52.25,46.88l-.05.06v3.3l.05.15,4.3-6.05-4.3,2.54Z" fill="#c1ccf7" stroke-width="0"/><path d="M52.25,50.39v-3.51l-4.29-2.54,4.29,6.05Z" fill="#fff" stroke-width="0"/><path d="M52.25,46.07l4.29-2.54-4.29-1.95v4.49Z" fill="#8198ee" stroke-width="0"/><path d="M47.96,43.53l4.29,2.54v-4.49l-4.29,1.95Z" fill="#c1ccf7" stroke-width="0"/><path d="M49.27,7.09h-30.79c-.77,0-1.43.45-1.76,1.01l-8.94,15.84c-.44.79-.33,1.91.33,2.58l24.61,24.94c.77.79,2.1.79,2.87,0l24.61-24.82c.66-.67.77-1.8.33-2.58l-9.6-15.95c-.33-.67-.99-1.01-1.65-1.01ZM22.45,14.16v4.49h8.72v3.03c-6.18.34-10.82,1.69-10.82,3.26v3.37c0,1.57,4.64,3.03,10.82,3.26v7.64h5.85v-7.41c6.18-.34,10.82-1.69,10.82-3.26v-3.37c0-1.57-4.64-3.03-10.82-3.26v-3.15h8.72v-4.49h-23.29v-.11ZM34.04,29.44c-6.62,0-12.03-1.12-13.46-2.7,1.1-1.35,5.3-2.36,10.48-2.58v3.26c.99,0,1.88.11,2.87.11s1.99,0,2.87-.11v-3.26c5.19.23,9.38,1.35,10.48,2.58-1.1,1.57-6.62,2.7-13.24,2.7Z" fill="#009393" fill-rule="evenodd" stroke-width="0"/></svg>