<?xml version="1.0" encoding="UTF-8"?><svg id="a" xmlns="http://www.w3.org/2000/svg" viewBox="0 0 59.39 59.39"><path d="M30.09,55.81c-.58,0-1.19-.02-1.82-.06-8.83-.38-16.77-6.51-19.27-14.88-1.78-5.97-1.07-12.05,2.11-18.09,2.2-4.17,5.32-7.43,8.08-10.17.68-.67,1.36-1.33,2.04-1.99,1.83-1.77,3.56-3.44,5.12-5.26l.07-.08c.35-.42,1.43-1.69,3.29-1.69.86,0,2.12.28,3.23,1.6,1.62,1.93,3.43,3.68,5.35,5.53,1.29,1.25,2.63,2.54,3.92,3.9,2.57,2.72,5.75,6.48,7.59,11.41,4.09,11-.12,22.31-10.23,27.52-3.07,1.57-5.99,2.27-9.47,2.27Z" fill="#46beae" stroke-width="0"/><path d="M29.7,7.09c.16,0,.34.1.56.36,2.88,3.43,6.33,6.32,9.4,9.57,2.86,3.03,5.38,6.28,6.85,10.23,3.31,8.89.52,18.51-8.55,23.18-2.5,1.28-4.83,1.88-7.87,1.88-.51,0-1.05-.02-1.61-.05-7.29-.32-14.05-5.43-16.12-12.39-1.61-5.38-.74-10.55,1.85-15.46,1.89-3.58,4.61-6.5,7.45-9.31,2.48-2.46,5.07-4.8,7.35-7.45.23-.27.44-.55.71-.55M29.7.09h0c-1.59,0-3.91.51-5.96,2.93l-.03.04c-1.48,1.72-3.15,3.34-4.92,5.05-.69.67-1.39,1.34-2.07,2.02-2.94,2.92-6.28,6.41-8.71,11.02-3.62,6.88-4.42,13.85-2.37,20.73,2.9,9.76,12.14,16.9,22.46,17.37.68.04,1.34.06,1.98.06,4.06,0,7.47-.82,11.05-2.64,11.76-6.05,16.66-19.15,11.93-31.86-2.06-5.53-5.53-9.63-8.32-12.59-1.34-1.42-2.71-2.74-4.03-4.02-1.85-1.79-3.6-3.47-5.09-5.25C33.52.46,31.01.09,29.7.09h0Z" fill="#fff" stroke-width="0"/><path d="M37.38,31.5c.28-1.92-1.04-3.94-3.61-4.82l.67-2.71-2.03-.51-.65,2.63c-.42-.1-.85-.2-1.28-.3h0l-.35-.08.66-2.65-2.03-.51-.67,2.71-3.68-.91-.54,2.17s1.51.35,1.47.37c.82.21.97.75.95,1.18l-2.27,9.14c-.1.25-.35.62-.93.48.02.03-1.48-.37-1.48-.37l-1,2.33,3.67.93-.73,2.96,2.03.51.73-2.93c.55.15,1.09.29,1.62.42l-.73,2.91,2.03.51.73-2.95c3.47.65,6.1-.25,6.75-2.85.53-2.12.06-3.68-1.46-4.82,1-.33,1.92-1.34,2.14-2.84ZM33.2,37.86c-.57,2.31-4.18,1.36-5.84.93-.15-.04-.29-.08-.4-.1l1.11-4.48c.14.04.31.07.51.12,1.72.39,5.22,1.17,4.63,3.54ZM28.9,32.25c1.39.37,4.4,1.16,4.92-.94.53-2.16-2.41-2.8-3.84-3.11-.16-.03-.3-.07-.42-.09l-1,4.06c.1.02.21.05.34.09Z" fill="#fff" fill-rule="evenodd" stroke-width="0"/></svg>