<svg width="69" height="60" viewBox="0 0 69 60" fill="none" xmlns="http://www.w3.org/2000/svg">
<path fill-rule="evenodd" clip-rule="evenodd" d="M64.0963 32.0451C66.7054 34.8967 68.3049 38.7127 68.3049 42.9977C68.3049 52.0367 60.7966 59.22 52.0826 59.22C47.9162 59.22 44.1242 57.6502 41.2567 55.0736L40.0583 56.283C36.5461 59.8564 30.7199 59.854 27.2107 56.276L2.58618 31.3234L2.56482 31.3013C-0.337726 28.3081 -0.729698 23.8002 1.15062 20.4331L1.15835 20.4192L10.1241 4.53386L10.1472 4.4942C11.6129 1.97493 14.4774 0 17.9601 0H48.7626C51.6369 0 54.8163 1.45385 56.5169 4.58265L66.07 20.4569L66.1254 20.5561C67.9769 23.8717 67.6713 28.4189 64.6732 31.4631L64.665 31.4715L64.0963 32.0451Z" fill="white"/>
<path d="M18.6582 10.3301H48.6367L46.763 38.4349L33.6474 40.3086L20.5319 38.4349L18.6582 10.3301Z" fill="white"/>
<path fill-rule="evenodd" clip-rule="evenodd" d="M48.7709 7H17.971C17.1993 7 16.5362 7.4504 16.2058 8.01395L7.2645 23.8999C6.82319 24.6876 6.93405 25.8147 7.59494 26.4914L32.2123 51.5051C32.984 52.2928 34.3101 52.2928 35.0819 51.5051L59.6992 26.6045C60.3622 25.9278 60.471 24.8029 60.0296 24.0131L50.4253 8.01395C50.0949 7.33943 49.434 7 48.7709 7ZM21.9449 14.0998V18.6061H30.6666V21.6479C24.4841 21.9852 19.8492 23.3386 19.8492 24.9161V28.2952C19.8492 29.8727 24.4862 31.337 30.6666 31.5633V39.2245H36.5166V31.7874C42.6992 31.4502 47.3362 30.0968 47.3362 28.5193V25.1402C47.3362 23.5627 42.6992 22.0983 36.5166 21.872V18.717H45.2383V14.2108H21.9449V14.0998ZM33.5362 29.4223C26.9123 29.4223 21.5036 28.2952 20.0688 26.7177C21.1732 25.3665 25.3688 24.3525 30.5558 24.1262V27.3944C31.5493 27.3944 32.4319 27.5075 33.4253 27.5075C34.4188 27.5075 35.4123 27.5075 36.2949 27.3944V24.1262C41.484 24.3525 45.6775 25.4774 46.7819 26.7177C45.6797 28.2952 40.1601 29.4223 33.5362 29.4223Z" fill="#00B6B6"/>
<path d="M52.0992 52.0948C57.1935 52.0948 61.3233 47.965 61.3233 42.8706C61.3233 37.7763 57.1935 33.6465 52.0992 33.6465C47.0048 33.6465 42.875 37.7763 42.875 42.8706C42.875 47.965 47.0048 52.0948 52.0992 52.0948Z" fill="#0088CC"/>
<path fill-rule="evenodd" clip-rule="evenodd" d="M49.5332 39.7422L54.7068 39.7422C54.8898 39.7422 55.0727 39.7691 55.2639 39.8582C55.493 39.965 55.6145 40.1333 55.6996 40.2578C55.7062 40.2675 55.7124 40.2775 55.7182 40.2877C55.8182 40.4659 55.8698 40.6582 55.8698 40.8651C55.8698 41.0617 55.823 41.2759 55.7182 41.4626C55.7172 41.4644 55.7161 41.4662 55.7151 41.468L52.4465 47.0827C52.3745 47.2065 52.2418 47.2824 52.0985 47.2819C51.9553 47.2814 51.8231 47.2045 51.7519 47.0802L48.5434 41.4775C48.5425 41.476 48.5415 41.4745 48.5406 41.4729C48.4672 41.3519 48.3536 41.1648 48.3338 40.9233C48.3155 40.7012 48.3654 40.4787 48.477 40.2858C48.5886 40.0929 48.7566 39.9386 48.9586 39.8442C49.1752 39.743 49.3948 39.7422 49.5332 39.7422ZM51.6989 40.5443H49.5332C49.3909 40.5443 49.3363 40.5531 49.2981 40.5709C49.2453 40.5956 49.201 40.6361 49.1713 40.6874C49.1417 40.7387 49.1283 40.7981 49.1332 40.8576C49.136 40.8917 49.1499 40.9307 49.2319 41.0659C49.2336 41.0688 49.2353 41.0716 49.2369 41.0745L51.6989 45.3736V40.5443ZM52.501 40.5443V45.3948L55.02 41.0677C55.0484 41.016 55.0677 40.9414 55.0677 40.8651C55.0677 40.8033 55.0549 40.7496 55.0262 40.6943C54.9962 40.651 54.9778 40.6281 54.9625 40.6124C54.9494 40.599 54.9393 40.5918 54.925 40.5852C54.8654 40.5574 54.8045 40.5443 54.7068 40.5443H52.501Z" fill="white"/>
</svg>
