<?xml version="1.0" encoding="UTF-8"?><svg id="a" xmlns="http://www.w3.org/2000/svg" xmlns:xlink="http://www.w3.org/1999/xlink" viewBox="0 0 59.39 59.39"><defs><linearGradient id="b" x1="-211.55" y1="3230.62" x2="-254.55" y2="3177.26" gradientTransform="translate(265 3235) scale(1 -1)" gradientUnits="userSpaceOnUse"><stop offset="0" stop-color="#f7931a"/><stop offset="1" stop-color="#ffbf1b"/></linearGradient></defs><path d="M30.09,55.81c-.59,0-1.2-.02-1.83-.06-8.88-.38-16.89-6.5-19.4-14.88-1.8-5.97-1.08-12.07,2.12-18.11,2.22-4.17,5.37-7.43,8.14-10.17.68-.67,1.37-1.33,2.06-1.99,1.84-1.77,3.59-3.44,5.16-5.26l.07-.08c.36-.42,1.44-1.68,3.29-1.68.86,0,2.11.28,3.23,1.59,1.63,1.93,3.46,3.68,5.4,5.53,1.3,1.25,2.65,2.54,3.95,3.89,2.59,2.72,5.79,6.48,7.65,11.41,4.13,11-.11,22.33-10.31,27.53-3.09,1.57-6.03,2.26-9.53,2.26Z" fill="url(#b)" stroke-width="0"/><path d="M29.7,7.09c.16,0,.34.1.56.36,2.9,3.43,6.38,6.32,9.47,9.57,2.88,3.03,5.42,6.28,6.91,10.23,3.33,8.89.52,18.51-8.62,23.18-2.52,1.28-4.87,1.88-7.94,1.88-.52,0-1.06-.02-1.62-.05-7.35-.32-14.17-5.43-16.26-12.39-1.62-5.38-.75-10.55,1.86-15.46,1.9-3.58,4.65-6.5,7.51-9.31,2.5-2.46,5.11-4.8,7.41-7.45.23-.27.44-.55.71-.55M29.7.09h0c-2.3,0-4.3.98-5.95,2.9l-.03.04c-1.49,1.72-3.18,3.34-4.96,5.05-.7.67-1.4,1.34-2.09,2.02-2.96,2.92-6.33,6.41-8.78,11.02-3.66,6.89-4.46,13.88-2.39,20.77,2.92,9.75,12.21,16.88,22.59,17.36.68.04,1.35.06,1.99.06,4.08,0,7.5-.81,11.1-2.63,11.85-6.05,16.79-19.16,12.01-31.89-2.08-5.53-5.57-9.63-8.39-12.59-1.35-1.42-2.73-2.74-4.07-4.02-1.87-1.79-3.63-3.47-5.14-5.25C33.51.45,31.01.09,29.7.09h0Z" fill="#fff" stroke-width="0"/><path d="M32.06,20.65s-.04,0-.06,0c-.07.01-.14.04-.2.08-.06.04-.11.09-.15.15l-9.39,13.97c-.06.08-.09.18-.09.28,0,.1.01.2.06.29.04.09.11.16.19.22.08.05.18.08.27.08h5.02l-2.64,8.31c-.04.13-.04.26,0,.39.05.12.13.23.25.29.11.06.24.08.37.04.12-.03.23-.11.3-.22l9.66-13.97c.06-.08.09-.18.09-.28,0-.1-.01-.2-.06-.29-.04-.09-.11-.16-.19-.22-.08-.05-.18-.08-.27-.08h-5.04l2.41-8.34c.02-.08.03-.17.02-.26-.01-.09-.05-.17-.1-.24-.05-.07-.12-.13-.19-.16-.08-.04-.16-.06-.24-.05Z" fill="#fff" stroke-width="0"/></svg>