<svg width="51" height="60" viewBox="0 0 51 60" fill="none" xmlns="http://www.w3.org/2000/svg">
<path fill-rule="evenodd" clip-rule="evenodd" d="M50.7572 34.137C50.7572 48.0828 39.3014 59.22 25.3786 59.22C11.4559 59.22 0 48.0828 0 34.137C0 30.2139 0.915826 26.4866 2.55034 23.1682C4.3528 19.5088 8.42527 14.7119 11.7735 11.0071C15.3357 7.06549 18.8869 3.49682 20.3021 2.09244C23.1136 -0.697479 27.6437 -0.697484 30.4552 2.09244C31.8704 3.49682 35.4215 7.06549 38.9838 11.0071C42.332 14.7119 46.4045 19.5088 48.2069 23.1682C49.8414 26.4866 50.7572 30.2139 50.7572 34.137ZM25.3786 52.9011C35.905 52.9011 44.4383 44.5001 44.4383 34.137C44.4383 31.2059 43.7557 28.4318 42.5383 25.9603C39.8424 20.4869 28.7653 9.31763 26.0042 6.57774C25.6565 6.23263 25.1008 6.23263 24.753 6.57774C21.992 9.31763 10.9148 20.4869 8.21892 25.9603C7.00157 28.4318 6.31891 31.2059 6.31891 34.137C6.31891 44.5001 14.8522 52.9011 25.3786 52.9011Z" fill="white"/>
<path d="M44.4397 34.1373C44.4397 44.5004 35.9064 52.9014 25.38 52.9014C14.8536 52.9014 6.32031 44.5004 6.32031 34.1373C6.32031 31.2062 7.00298 28.4321 8.22032 25.9606C10.8962 20.5279 21.8293 9.48348 24.6915 6.64046C25.0766 6.25796 25.6834 6.25796 26.0685 6.64046C28.9307 9.48347 39.8638 20.5279 42.5397 25.9606C43.7571 28.4321 44.4397 31.2062 44.4397 34.1373Z" fill="#00B6B6"/>
<path fill-rule="evenodd" clip-rule="evenodd" d="M33.5948 31.9152C33.8824 29.9237 32.5092 27.8172 29.8419 26.9041L30.5393 24.0858L28.4255 23.561L27.7497 26.293C27.3145 26.1856 26.8659 26.0826 26.4214 25.9806L26.4214 25.9806L26.0602 25.8976L26.7432 23.144L24.6294 22.6191L23.9321 25.4374L20.1072 24.4956L19.5464 26.7531C19.5464 26.7531 21.1138 27.1126 21.0778 27.1342C21.9334 27.3499 22.0843 27.9107 22.0628 28.3636L19.7046 37.861C19.5968 38.1198 19.3379 38.5081 18.7412 38.3643C18.7628 38.393 17.2026 37.9832 17.2026 37.9832L16.1602 40.3989L19.9778 41.3623L19.2157 44.4394L21.3223 44.9643L22.0772 41.9231C22.6523 42.0813 23.2131 42.2251 23.7595 42.3545L23.0046 45.3813L25.1183 45.9133L25.8804 42.8434C29.4824 43.5192 32.2216 42.5845 32.8902 39.8813C33.4367 37.6741 32.9478 36.0564 31.3732 34.8701C32.4157 34.5322 33.3719 33.4754 33.5948 31.9152ZM29.2569 38.5207C28.6643 40.9242 24.9116 39.9383 23.1852 39.4848C23.0266 39.4431 22.8851 39.4059 22.7648 39.3763L23.9151 34.7247C24.0613 34.7614 24.2404 34.8017 24.4435 34.8474C26.2281 35.2493 29.8637 36.0678 29.2569 38.5207ZM24.792 32.6969C26.2316 33.0784 29.3585 33.9071 29.905 31.7213C30.455 29.4824 27.4059 28.816 25.9154 28.4902C25.7498 28.454 25.6034 28.422 25.4834 28.3925L24.4409 32.6056C24.5415 32.6305 24.6596 32.6618 24.792 32.6969Z" fill="white"/>
</svg>
