<svg width="69" height="60" viewBox="0 0 69 60" fill="none" xmlns="http://www.w3.org/2000/svg">
<path fill-rule="evenodd" clip-rule="evenodd" d="M64.0963 32.0451C66.7054 34.8967 68.3049 38.7127 68.3049 42.9977C68.3049 52.0367 60.7966 59.22 52.0826 59.22C47.9162 59.22 44.1242 57.6502 41.2567 55.0736L40.0583 56.283C36.5461 59.8564 30.7199 59.854 27.2107 56.276L2.58618 31.3234L2.56482 31.3013C-0.337726 28.3081 -0.729698 23.8002 1.15062 20.4331L1.15835 20.4192L10.1241 4.53386L10.1472 4.4942C11.6129 1.97493 14.4774 0 17.9601 0H48.7626C51.6369 0 54.8163 1.45385 56.5169 4.58265L66.07 20.4569L66.1254 20.5561C67.9769 23.8717 67.6713 28.4189 64.6732 31.4631L64.665 31.4715L64.0963 32.0451Z" fill="white"/>
<path d="M18.6582 10.3301H48.6367L46.763 38.4349L33.6474 40.3086L20.5319 38.4349L18.6582 10.3301Z" fill="white"/>
<path fill-rule="evenodd" clip-rule="evenodd" d="M48.7709 7H17.971C17.1993 7 16.5362 7.4504 16.2058 8.01395L7.2645 23.8999C6.82319 24.6876 6.93405 25.8147 7.59494 26.4914L32.2123 51.5051C32.984 52.2928 34.3101 52.2928 35.0819 51.5051L59.6992 26.6045C60.3622 25.9278 60.471 24.8029 60.0296 24.0131L50.4253 8.01395C50.0949 7.33943 49.434 7 48.7709 7ZM21.9449 14.0998V18.6061H30.6666V21.6479C24.4841 21.9852 19.8492 23.3386 19.8492 24.9161V28.2952C19.8492 29.8727 24.4862 31.337 30.6666 31.5633V39.2245H36.5166V31.7874C42.6992 31.4502 47.3362 30.0968 47.3362 28.5193V25.1402C47.3362 23.5627 42.6992 22.0983 36.5166 21.872V18.717H45.2383V14.2108H21.9449V14.0998ZM33.5362 29.4223C26.9123 29.4223 21.5036 28.2952 20.0688 26.7177C21.1732 25.3665 25.3688 24.3525 30.5558 24.1262V27.3944C31.5493 27.3944 32.4319 27.5075 33.4253 27.5075C34.4188 27.5075 35.4123 27.5075 36.2949 27.3944V24.1262C41.484 24.3525 45.6775 25.4774 46.7819 26.7177C45.6797 28.2952 40.1601 29.4223 33.5362 29.4223Z" fill="#00B6B6"/>
<mask id="mask0_27848_33523" style="mask-type:luminance" maskUnits="userSpaceOnUse" x="42" y="33" width="20" height="20">
<path d="M42.875 33.6465H61.3233V52.0948H42.875V33.6465Z" fill="white"/>
</mask>
<g mask="url(#mask0_27848_33523)">
<path d="M52.0992 52.0948C57.1935 52.0948 61.3233 47.965 61.3233 42.8706C61.3233 37.7763 57.1935 33.6465 52.0992 33.6465C47.0048 33.6465 42.875 37.7763 42.875 42.8706C42.875 47.965 47.0048 52.0948 52.0992 52.0948Z" fill="black"/>
<mask id="mask1_27848_33523" style="mask-type:luminance" maskUnits="userSpaceOnUse" x="46" y="38" width="12" height="10">
<path d="M46.5664 38.5645H57.6354V47.1737H46.5664V38.5645Z" fill="white"/>
</mask>
<g mask="url(#mask1_27848_33523)">
<path d="M48.3638 45.1281C48.4317 45.061 48.5235 45.0233 48.619 45.0234H57.4462C57.607 45.0234 57.6876 45.2162 57.5738 45.3291L55.8295 47.0583C55.7616 47.1255 55.6699 47.1631 55.5743 47.163H46.7473C46.5865 47.163 46.5059 46.9702 46.6197 46.8574L48.3638 45.1281Z" fill="url(#paint0_linear_27848_33523)"/>
<path d="M48.364 38.6693C48.4319 38.6021 48.5236 38.5644 48.6192 38.5645H57.4464C57.6072 38.5645 57.6877 38.7574 57.574 38.8702L55.8295 40.5993C55.7616 40.6665 55.6699 40.7042 55.5743 40.7041H46.7473C46.5865 40.7041 46.5059 40.5112 46.6197 40.3984L48.364 38.6693Z" fill="url(#paint1_linear_27848_33523)"/>
<path d="M55.8295 41.8802C55.7616 41.813 55.6699 41.7753 55.5743 41.7754H46.7473C46.5865 41.7754 46.5059 41.9683 46.6197 42.081L48.364 43.8102C48.4316 43.8774 48.5234 43.9151 48.6192 43.9151H57.4462C57.607 43.9151 57.6876 43.7221 57.5738 43.6093L55.8295 41.8804V41.8802Z" fill="url(#paint2_linear_27848_33523)"/>
</g>
</g>
<defs>
<linearGradient id="paint0_linear_27848_33523" x1="54.044" y1="36.2041" x2="48.0099" y2="47.8531" gradientUnits="userSpaceOnUse">
<stop stop-color="#00FFA3"/>
<stop offset="1" stop-color="#DC1FFF"/>
</linearGradient>
<linearGradient id="paint1_linear_27848_33523" x1="54.0442" y1="36.2054" x2="48.0101" y2="47.8544" gradientUnits="userSpaceOnUse">
<stop stop-color="#00FFA3"/>
<stop offset="1" stop-color="#DC1FFF"/>
</linearGradient>
<linearGradient id="paint2_linear_27848_33523" x1="54.044" y1="36.2068" x2="48.0101" y2="47.8558" gradientUnits="userSpaceOnUse">
<stop stop-color="#00FFA3"/>
<stop offset="1" stop-color="#DC1FFF"/>
</linearGradient>
</defs>
</svg>
