<svg width="55" height="46" viewBox="0 0 55 46" fill="none" xmlns="http://www.w3.org/2000/svg">
<path d="M11.957 3.33203H41.9383L40.0645 31.4395L26.9477 33.3133L13.8309 31.4395L11.957 3.33203Z" fill="white"/>
<path fill-rule="evenodd" clip-rule="evenodd" d="M42.0726 0H11.2699C10.498 0 9.83494 0.450445 9.50446 1.01405L0.562349 16.9015C0.121 17.6892 0.231868 18.8164 0.892826 19.4932L25.5124 44.5092C26.2843 45.2969 27.6104 45.2969 28.3823 44.5092L53.0019 19.6063C53.665 18.9296 53.7737 17.8045 53.3324 17.0146L43.7271 1.01405C43.3967 0.339466 42.7357 0 42.0726 0ZM15.2441 7.10049V11.6071H23.9666V14.6493C17.7835 14.9865 13.1483 16.3401 13.1483 17.9177V21.2971C13.1483 22.8748 17.7856 24.3393 23.9666 24.5656V32.2275H29.8172V24.7897C36.0003 24.4524 40.6377 23.0989 40.6377 21.5213V18.1418C40.6377 16.5642 36.0003 15.0997 29.8172 14.8734V11.7181H38.5397V7.21147H15.2441V7.10049ZM26.8365 22.4243C20.212 22.4243 14.8028 21.2971 13.3679 19.7195C14.4723 18.3681 18.6683 17.3541 23.8558 17.1278V20.3962C24.8493 20.3962 25.732 20.5094 26.7256 20.5094C27.7192 20.5094 28.7127 20.5094 29.5954 20.3962V17.1278C34.785 17.3541 38.9789 18.4791 40.0833 19.7195C38.981 21.2971 33.461 22.4243 26.8365 22.4243Z" fill="#00B6B6"/>
<mask id="mask0_27848_33236" style="mask-type:luminance" maskUnits="userSpaceOnUse" x="36" y="26" width="19" height="20">
<path d="M36.1719 26.6484H54.6219V45.0984H36.1719V26.6484Z" fill="white"/>
</mask>
<g mask="url(#mask0_27848_33236)">
<path d="M45.3969 45.0984C50.4917 45.0984 54.6219 40.9683 54.6219 35.8734C54.6219 30.7786 50.4917 26.6484 45.3969 26.6484C40.3021 26.6484 36.1719 30.7786 36.1719 35.8734C36.1719 40.9683 40.3021 45.0984 45.3969 45.0984Z" fill="black"/>
<mask id="mask1_27848_33236" style="mask-type:luminance" maskUnits="userSpaceOnUse" x="39" y="31" width="12" height="10">
<path d="M39.8633 31.5684H50.9333V40.1784H39.8633V31.5684Z" fill="white"/>
</mask>
<g mask="url(#mask1_27848_33236)">
<path d="M41.6608 38.134C41.7288 38.0668 41.8205 38.0292 41.9161 38.0293H50.7441C50.9049 38.0293 50.9855 38.2221 50.8717 38.335L49.1272 40.0643C49.0593 40.1315 48.9676 40.1692 48.872 40.169H40.0442C39.8833 40.169 39.8028 39.9762 39.9165 39.8634L41.6608 38.134Z" fill="url(#paint0_linear_27848_33236)"/>
<path d="M41.661 31.6732C41.7289 31.606 41.8206 31.5683 41.9162 31.5684H50.7442C50.9051 31.5684 50.9856 31.7613 50.8719 31.8742L49.1272 33.6034C49.0593 33.6706 48.9676 33.7083 48.872 33.7083H40.0442C39.8833 33.7083 39.8028 33.5153 39.9165 33.4024L41.661 31.6732Z" fill="url(#paint1_linear_27848_33236)"/>
<path d="M49.1272 34.8842C49.0593 34.8169 48.9676 34.7792 48.872 34.7793H40.0442C39.8833 34.7793 39.8028 34.9723 39.9165 35.085L41.661 36.8143C41.7286 36.8815 41.8204 36.9192 41.9162 36.9192H50.7441C50.9049 36.9192 50.9855 36.7262 50.8717 36.6134L49.1272 34.8843V34.8842Z" fill="url(#paint2_linear_27848_33236)"/>
</g>
</g>
<defs>
<linearGradient id="paint0_linear_27848_33236" x1="47.3416" y1="29.2091" x2="41.3069" y2="40.8592" gradientUnits="userSpaceOnUse">
<stop stop-color="#00FFA3"/>
<stop offset="1" stop-color="#DC1FFF"/>
</linearGradient>
<linearGradient id="paint1_linear_27848_33236" x1="47.3418" y1="29.2091" x2="41.3071" y2="40.8592" gradientUnits="userSpaceOnUse">
<stop stop-color="#00FFA3"/>
<stop offset="1" stop-color="#DC1FFF"/>
</linearGradient>
<linearGradient id="paint2_linear_27848_33236" x1="47.3416" y1="29.2102" x2="41.3071" y2="40.8603" gradientUnits="userSpaceOnUse">
<stop stop-color="#00FFA3"/>
<stop offset="1" stop-color="#DC1FFF"/>
</linearGradient>
</defs>
</svg>
