<svg width="55" height="46" viewBox="0 0 55 46" fill="none" xmlns="http://www.w3.org/2000/svg">
<path d="M11.957 3.33203H41.9383L40.0645 31.4395L26.9477 33.3133L13.8309 31.4395L11.957 3.33203Z" fill="white"/>
<path fill-rule="evenodd" clip-rule="evenodd" d="M42.0726 0H11.2699C10.498 0 9.83494 0.450445 9.50446 1.01405L0.562349 16.9015C0.121 17.6892 0.231868 18.8164 0.892826 19.4932L25.5124 44.5092C26.2843 45.2969 27.6104 45.2969 28.3823 44.5092L53.0019 19.6063C53.665 18.9296 53.7737 17.8045 53.3324 17.0146L43.7271 1.01405C43.3967 0.339466 42.7357 0 42.0726 0ZM15.2441 7.10049V11.6071H23.9666V14.6493C17.7835 14.9865 13.1483 16.3401 13.1483 17.9177V21.2971C13.1483 22.8748 17.7856 24.3393 23.9666 24.5656V32.2275H29.8172V24.7897C36.0003 24.4524 40.6377 23.0989 40.6377 21.5213V18.1418C40.6377 16.5642 36.0003 15.0997 29.8172 14.8734V11.7181H38.5397V7.21147H15.2441V7.10049ZM26.8365 22.4243C20.212 22.4243 14.8028 21.2971 13.3679 19.7195C14.4723 18.3681 18.6683 17.3541 23.8558 17.1278V20.3962C24.8493 20.3962 25.732 20.5094 26.7256 20.5094C27.7192 20.5094 28.7127 20.5094 29.5954 20.3962V17.1278C34.785 17.3541 38.9789 18.4791 40.0833 19.7195C38.981 21.2971 33.461 22.4243 26.8365 22.4243Z" fill="#00B6B6"/>
<path d="M45.3969 45.1004C50.4917 45.1004 54.6219 40.9702 54.6219 35.8754C54.6219 30.7806 50.4917 26.6504 45.3969 26.6504C40.302 26.6504 36.1719 30.7806 36.1719 35.8754C36.1719 40.9702 40.302 45.1004 45.3969 45.1004Z" fill="#0088CC"/>
<path fill-rule="evenodd" clip-rule="evenodd" d="M42.8302 32.7461L48.0043 32.7461C48.1873 32.7461 48.3702 32.773 48.5614 32.8621C48.7905 32.9689 48.912 33.1373 48.9972 33.2618C49.0038 33.2715 49.01 33.2814 49.0157 33.2917C49.1158 33.4698 49.1674 33.6622 49.1674 33.8691C49.1674 34.0658 49.1206 34.28 49.0157 34.4667C49.0147 34.4685 49.0137 34.4702 49.0127 34.472L45.7438 40.0873C45.6717 40.2111 45.539 40.287 45.3958 40.2865C45.2525 40.286 45.1203 40.2091 45.0491 40.0848L41.8403 34.4815C41.8393 34.48 41.8384 34.4785 41.8375 34.477C41.7641 34.356 41.6505 34.1688 41.6306 33.9273C41.6124 33.7052 41.6623 33.4827 41.7739 33.2898C41.8855 33.0968 42.0535 32.9426 42.2555 32.8481C42.4722 32.7469 42.6917 32.7461 42.8302 32.7461ZM44.9961 33.5483H42.8302C42.6879 33.5483 42.6333 33.557 42.5951 33.5749C42.5423 33.5995 42.4979 33.6401 42.4683 33.6914C42.4386 33.7427 42.4252 33.8021 42.4301 33.8616C42.4329 33.8957 42.4468 33.9347 42.5288 34.0699C42.5305 34.0728 42.5322 34.0756 42.5339 34.0785L44.9961 38.378V33.5483ZM45.7983 33.5483V38.3992L48.3175 34.0717C48.3459 34.02 48.3652 33.9454 48.3652 33.8691C48.3652 33.8073 48.3524 33.7536 48.3237 33.6982C48.2937 33.655 48.2753 33.6321 48.26 33.6164C48.2469 33.603 48.2368 33.5958 48.2225 33.5892C48.1629 33.5614 48.1019 33.5483 48.0043 33.5483H45.7983Z" fill="white"/>
</svg>
