<svg width="54" height="52" viewBox="0 0 54 52" fill="none" xmlns="http://www.w3.org/2000/svg">
<path d="M11.375 8.125H40.625L38.7969 35.5469L26 37.375L13.2031 35.5469L11.375 8.125Z" fill="white"/>
<path fill-rule="evenodd" clip-rule="evenodd" d="M40.7561 4.875H10.7046C9.95158 4.875 9.30467 5.31321 8.98225 5.8615L0.258236 21.3174C-0.172348 22.0837 -0.0641823 23.1803 0.580654 23.8387L24.5998 48.1752C25.3528 48.9416 26.6466 48.9416 27.3996 48.1752L51.4187 23.9488C52.0657 23.2904 52.1718 22.1959 51.7412 21.4275L42.3702 5.8615C42.0478 5.20525 41.403 4.875 40.7561 4.875ZM14.5819 11.7826V16.1669H23.0917V19.1264C17.0593 19.4545 12.5372 20.7712 12.5372 22.306V25.5937C12.5372 27.1285 17.0614 28.5532 23.0917 28.7733V36.2271H28.7995V28.9914C34.8319 28.6632 39.3561 27.3465 39.3561 25.8117V22.5241C39.3561 20.9893 34.8319 19.5646 28.7995 19.3444V16.2748H37.3093V11.8906H14.5819V11.7826ZM25.8915 26.6902C19.4286 26.6902 14.1513 25.5937 12.7514 24.0589C13.8289 22.7442 17.9226 21.7577 22.9835 21.5376V24.7172C23.9529 24.7172 24.814 24.8273 25.7834 24.8273C26.7527 24.8273 27.722 24.8273 28.5832 24.7172V21.5376C33.6462 21.7577 37.7378 22.8522 38.8153 24.0589C37.7399 25.5937 32.3545 26.6902 25.8915 26.6902Z" fill="#019493"/>
<circle cx="44" cy="40" r="9" fill="#FF060A"/>
<path d="M49.3124 38.3139C48.7967 37.8378 48.0835 37.1107 47.5025 36.5951L47.4682 36.5711C47.411 36.5251 47.3465 36.4891 47.2774 36.4645C45.8766 36.2033 39.3575 34.9847 39.2303 35.0001C39.1947 35.0051 39.1606 35.0181 39.1306 35.038L39.098 35.0637C39.0578 35.1046 39.0272 35.1539 39.0086 35.2081L39 35.2305V35.3525V35.3714C39.7339 37.415 42.6317 44.1094 43.2023 45.6803C43.2367 45.7869 43.302 45.9897 43.424 46H43.4515C43.5168 46 43.7952 45.6322 43.7952 45.6322C43.7952 45.6322 48.7727 39.596 49.2763 38.9532C49.3415 38.874 49.399 38.7889 49.4481 38.6988C49.4607 38.6284 49.4548 38.5559 49.431 38.4885C49.4072 38.421 49.3663 38.3608 49.3124 38.3139ZM45.0723 39.0168L47.1966 37.2551L48.4427 38.4032L45.0723 39.0168ZM44.2473 38.9017L40.5898 35.9042L46.5074 36.9956L44.2473 38.9017ZM44.5773 39.6871L48.3207 39.0838L44.041 44.24L44.5773 39.6871ZM40.0931 36.2033L43.9413 39.4688L43.3845 44.2435L40.0931 36.2033Z" fill="white"/>
</svg>
