<svg width="55" height="46" viewBox="0 0 55 46" fill="none" xmlns="http://www.w3.org/2000/svg">
<path d="M11.957 3.33203H41.9383L40.0645 31.4395L26.9477 33.3133L13.8309 31.4395L11.957 3.33203Z" fill="white"/>
<path fill-rule="evenodd" clip-rule="evenodd" d="M42.0726 0H11.2699C10.498 0 9.83494 0.450445 9.50446 1.01405L0.562349 16.9015C0.121 17.6892 0.231868 18.8164 0.892826 19.4932L25.5124 44.5092C26.2843 45.2969 27.6104 45.2969 28.3823 44.5092L53.0019 19.6063C53.665 18.9296 53.7737 17.8045 53.3324 17.0146L43.7271 1.01405C43.3967 0.339466 42.7357 0 42.0726 0ZM15.2441 7.10049V11.6071H23.9666V14.6493C17.7835 14.9865 13.1483 16.3401 13.1483 17.9177V21.2971C13.1483 22.8748 17.7856 24.3393 23.9666 24.5656V32.2275H29.8172V24.7897C36.0003 24.4524 40.6377 23.0989 40.6377 21.5213V18.1418C40.6377 16.5642 36.0003 15.0997 29.8172 14.8734V11.7181H38.5397V7.21147H15.2441V7.10049ZM26.8365 22.4243C20.212 22.4243 14.8028 21.2971 13.3679 19.7195C14.4723 18.3681 18.6683 17.3541 23.8558 17.1278V20.3962C24.8493 20.3962 25.732 20.5094 26.7256 20.5094C27.7192 20.5094 28.7127 20.5094 29.5954 20.3962V17.1278C34.785 17.3541 38.9789 18.4791 40.0833 19.7195C38.981 21.2971 33.461 22.4243 26.8365 22.4243Z" fill="#00B6B6"/>
<ellipse cx="45.3969" cy="35.8754" rx="9.225" ry="9.225" fill="#FF060A"/>
<path d="M50.8417 34.1467C50.3131 33.6587 49.582 32.9135 48.9866 32.385L48.9514 32.3603C48.8927 32.3133 48.8266 32.2763 48.7558 32.2511C47.32 31.9833 40.6379 30.7343 40.5076 30.7501C40.471 30.7553 40.4361 30.7685 40.4054 30.7889L40.3719 30.8153C40.3307 30.8572 40.2994 30.9078 40.2803 30.9633L40.2715 30.9862V31.1113V31.1307C41.0237 33.2253 43.9939 40.0871 44.5788 41.6973C44.6141 41.8066 44.681 42.0144 44.8061 42.025H44.8343C44.9012 42.025 45.1866 41.648 45.1866 41.648C45.1866 41.648 50.2885 35.4609 50.8047 34.802C50.8715 34.7209 50.9305 34.6336 50.9808 34.5413C50.9937 34.4691 50.9876 34.3948 50.9632 34.3257C50.9388 34.2565 50.897 34.1949 50.8417 34.1467ZM46.4956 34.8672L48.673 33.0615L49.9502 34.2383L46.4956 34.8672ZM45.6499 34.7492L41.9011 31.6768L47.9666 32.7955L45.6499 34.7492ZM45.9882 35.5543L49.8252 34.9359L45.4385 40.221L45.9882 35.5543ZM41.3919 31.9833L45.3364 35.3306L44.7656 40.2245L41.3919 31.9833Z" fill="white"/>
</svg>
