<?xml version="1.0" encoding="UTF-8" standalone="no"?>
<svg
   width="36.752346"
   height="45.400002"
   viewBox="0 0 36.752346 45.400002"
   fill="none"
   version="1.1"
   id="svg872"
   sodipodi:docname="USDt_disabled.svg"
   inkscape:export-filename="USDt.svg"
   inkscape:export-xdpi="96"
   inkscape:export-ydpi="96"
   xmlns:inkscape="http://www.inkscape.org/namespaces/inkscape"
   xmlns:sodipodi="http://sodipodi.sourceforge.net/DTD/sodipodi-0.dtd"
   xmlns="http://www.w3.org/2000/svg"
   xmlns:svg="http://www.w3.org/2000/svg">
  <defs
     id="defs876" />
  <sodipodi:namedview
     id="namedview874"
     pagecolor="#505050"
     bordercolor="#ffffff"
     borderopacity="1"
     inkscape:showpageshadow="0"
     inkscape:pageopacity="0"
     inkscape:pagecheckerboard="1"
     inkscape:deskcolor="#505050"
     showgrid="false"
     inkscape:zoom="9.9088104"
     inkscape:cx="20.184058"
     inkscape:cy="25.835594"
     inkscape:window-width="1920"
     inkscape:window-height="1009"
     inkscape:window-x="-8"
     inkscape:window-y="-8"
     inkscape:window-maximized="1"
     inkscape:current-layer="svg872" />
  <path
     d="M 17.140351,45.348444 C 9.7576618,45.028852 2.9144126,39.89448 0.82010164,32.91196 -0.80491386,27.513536 0.07063374,22.323561 2.6902693,17.390644 4.6024698,13.798667 7.3552308,10.866665 10.226959,8.038959 12.734573,5.5725091 15.361227,3.2172148 17.66566,0.55621798 c 0.371246,-0.4238136 0.67941,-0.9032092 1.281801,-0.1945356 2.913833,3.44609092 6.401973,6.34331302 9.511955,9.60871662 2.892742,3.043125 5.442327,6.301617 6.934288,10.268829 3.348044,8.927907 0.525316,18.585238 -8.657408,23.275057 -2.962815,1.50066 -5.687569,2.07043 -9.595945,1.834159 z"
     fill="#019493"
     id="path868"
     style="fill:#696969;fill-opacity:1;stroke-width:0.945824"
     inkscape:export-filename="USDt.svg"
     inkscape:export-xdpi="96"
     inkscape:export-ydpi="96" />
  <path
     fill-rule="evenodd"
     clip-rule="evenodd"
     d="m 20.820678,24.208597 v -2.219668 h 6.502973 V 18.773457 H 9.9772588 v 3.215472 h 6.5030782 v 2.219668 c -4.570065,0.23278 -7.9964432,1.223712 -8.0214132,2.383031 v 2.452459 c 0.02489,1.179161 3.4513482,2.150246 8.0214132,2.383109 v 5.459822 h 4.315371 v -5.459822 c 4.570084,-0.232863 7.996363,-1.22371 8.021333,-2.383109 v -2.452459 c 0,-1.154394 -3.451249,-2.150251 -7.996363,-2.383031 z m -2.168981,5.528871 c -4.874826,0 -8.9554472,-0.832324 -9.9543352,-1.917385 0.839046,-0.926545 3.9157502,-1.664675 7.7865712,-1.872852 v 2.338568 c 0.699257,0.04462 1.423494,0.04462 2.167764,0.04462 0.744173,0 1.468394,-0.02474 2.16767,-0.04462 v -2.338568 c 3.895788,0.208177 6.947509,0.946307 7.786564,1.872852 -0.998897,1.109822 -5.079516,1.917385 -9.954234,1.917385 z"
     fill="#ffffff"
     id="path870"
     style="stroke-width:0.945824" />
</svg>
