<svg width="39" height="47" viewBox="0 0 39 47" fill="none" xmlns="http://www.w3.org/2000/svg">
<path d="M38.4159 28.1761C38.4159 38.5391 29.8827 46.94 19.3564 46.94C8.83012 46.94 0.296875 38.5391 0.296875 28.1761C0.296875 25.245 0.979535 22.4709 2.19687 19.9994C4.87274 14.5668 15.8057 3.52252 18.6679 0.679519C19.053 0.297023 19.6598 0.297023 20.0449 0.679519C22.9071 3.52252 33.8401 14.5668 36.5159 19.9994C37.7333 22.4709 38.4159 25.245 38.4159 28.1761Z" fill="#00B6B6"/>
<path fill-rule="evenodd" clip-rule="evenodd" d="M21.9814 25.2281V22.9024H29.0796V19.5332H10.1456V22.9024H17.2438V25.2281C12.2554 25.472 8.51554 26.5103 8.48828 27.7251V30.2948C8.51554 31.5303 12.2554 32.5478 17.2438 32.7918V38.5126H21.9541V32.7918C26.9425 32.5478 30.6824 31.5095 30.7096 30.2948V27.7251C30.7096 26.5155 26.9425 25.472 21.9814 25.2281ZM19.6144 31.0204C14.2935 31.0204 9.83939 30.1482 8.74904 29.0113C9.66493 28.0406 13.0232 27.2671 17.2483 27.049V29.4993C18.0116 29.546 18.8021 29.546 19.6144 29.546C20.4267 29.546 21.2172 29.5201 21.9804 29.4993V27.049C26.2328 27.2671 29.5638 28.0406 30.4797 29.0113C29.3894 30.1742 24.9353 31.0204 19.6144 31.0204Z" fill="white"/>
</svg>
