<?xml version="1.0" encoding="UTF-8" standalone="no"?>
<svg
   width="53"
   height="53"
   viewBox="0 0 53 53"
   fill="none"
   version="1.1"
   id="svg2"
   xmlns="http://www.w3.org/2000/svg"
   xmlns:svg="http://www.w3.org/2000/svg">
  <defs
     id="defs2" />
  <path
     d="M 47.6141,31.2134 C 47.6141,42.6935 38.161,52 26.5,52 14.839,52 5.3859,42.6935 5.3859,31.2134 c 0,-3.247 0.756249,-6.3202 2.10481,-9.0581 C 10.47721,16.092 22.7483,3.71883 25.8069,0.683617 c 0.3853,-0.38231 1.0009,-0.38231 1.3861,0 C 30.2517,3.71883 42.5228,16.092 45.5093,22.1553 c 1.3485,2.7379 2.1048,5.8111 2.1048,9.0581 z"
     fill="#00b6b6"
     id="path1" />
  <path
     fill-rule="evenodd"
     clip-rule="evenodd"
     d="M 29.13919,27.9474 V 25.371 h 7.8634 v -3.7323 h -20.975 v 3.7323 h 7.8634 v 2.5764 c -5.5261,0.2703 -9.66918,1.4205 -9.69938,2.7662 v 2.8467 c 0.0302,1.3687 4.17328,2.4959 9.69938,2.7662 v 6.3375 h 5.218 v -6.3375 c 5.5261,-0.2703 9.6692,-1.4205 9.6994,-2.7662 v -2.8467 c 0,-1.34 -4.1733,-2.4959 -9.6692,-2.7662 z m -2.6228,6.4166 c -5.8944,0 -10.8287,-0.9661 -12.03656,-2.2256 1.01466,-1.0754 4.73496,-1.9323 9.41546,-2.1738 v 2.7144 c 0.8456,0.0517 1.7213,0.0517 2.6211,0.0517 0.8999,0 1.7756,-0.0287 2.6212,-0.0517 v -2.7144 c 4.7107,0.2415 8.4008,1.0984 9.4154,2.1738 -1.2078,1.2882 -6.1421,2.2256 -12.0366,2.2256 z"
     fill="#ffffff"
     id="path2" />
</svg>
