<svg width="48" height="48" viewBox="0 0 48 48" fill="none" xmlns="http://www.w3.org/2000/svg">
    <path d="M22.9076 47.9455C15.1021 47.6076 7.86696 42.1792 5.65271 34.7968C3.93463 29.0892 4.86032 23.602 7.62998 18.3866C9.65169 14.5889 12.5621 11.489 15.5983 8.49934C18.2495 5.89164 21.0266 3.40146 23.463 0.588072C23.8555 0.139988 24.1813 -0.366863 24.8182 0.382394C27.8989 4.02584 31.5868 7.08898 34.8749 10.5414C37.9333 13.7588 40.6289 17.2039 42.2063 21.3983C45.7461 30.8375 42.7617 41.0479 33.0531 46.0063C29.9206 47.5929 27.0398 48.1953 22.9076 47.9455Z" fill="#019493"/>
    <path fill-rule="evenodd" clip-rule="evenodd" d="M26.7982 25.595V23.2482H33.6736V19.8486H15.3338V23.2482H22.2093V25.595C17.3775 25.8411 13.7549 26.8888 13.7285 28.1145V30.7074C13.7549 31.9541 17.3775 32.9808 22.2093 33.227V38.9995H26.7718V33.227C31.6036 32.9808 35.2261 31.9332 35.2525 30.7074V28.1145C35.2525 26.894 31.6036 25.8411 26.7982 25.595ZM24.505 31.4405C19.351 31.4405 15.0367 30.5605 13.9806 29.4133C14.8677 28.4337 18.1206 27.6533 22.2131 27.4332V29.9057C22.9524 29.9528 23.7181 29.9528 24.505 29.9528C25.2918 29.9528 26.0575 29.9266 26.7968 29.9057V27.4332C30.9157 27.6533 34.1422 28.4337 35.0293 29.4133C33.9732 30.5867 29.6589 31.4405 24.505 31.4405Z" fill="white"/>
</svg>
