<svg width="50" height="50" viewBox="0 0 50 50" fill="none" xmlns="http://www.w3.org/2000/svg">
<path d="M48.7595 31.2371C45.4535 44.4962 32.0228 52.5654 18.7606 49.259C5.50406 45.9535 -2.56606 32.5234 0.74131 19.2654C4.04577 6.00487 17.4766 -2.06494 30.7346 1.2406C43.9958 4.54615 52.0654 17.9777 48.7591 31.2374L48.7593 31.2371H48.7595Z" fill="#F7931A"/>
<path d="M37.0603 22.1314C37.5752 18.7877 34.9543 16.9903 31.3704 15.7913L32.5331 11.262L29.6944 10.575L28.5627 14.985C27.8164 14.8043 27.05 14.6339 26.2883 14.4651L27.4283 10.0259L24.5915 9.33887L23.4282 13.8667C22.8107 13.7301 22.2041 13.5952 21.6157 13.453L21.6189 13.4387L17.7044 12.4893L16.9493 15.434C16.9493 15.434 19.0553 15.9029 19.0109 15.9318C20.1604 16.2105 20.3683 16.9496 20.3338 17.5354L19.0094 22.6953C19.0886 22.7149 19.1913 22.7431 19.3045 22.7873C19.2098 22.7645 19.1091 22.7395 19.0045 22.7152L17.1482 29.9436C17.0077 30.2828 16.6512 30.7919 15.8475 30.5986C15.8759 30.6386 13.7843 30.0985 13.7843 30.0985L12.375 33.2545L16.069 34.1489C16.7562 34.3163 17.4297 34.4915 18.0929 34.6561L16.9182 39.2374L19.7535 39.9244L20.9168 35.3918C21.6914 35.596 22.4431 35.7844 23.179 35.962L22.0196 40.4733L24.8584 41.1603L26.0329 36.5876C30.8734 37.4774 34.513 37.1187 36.045 32.8662C37.2795 29.4424 35.9836 27.4676 33.437 26.1798C35.2918 25.7643 36.6889 24.5794 37.0614 22.1317L37.0605 22.1311L37.0603 22.1314ZM30.5747 30.9648C29.6975 34.3885 23.7625 32.5378 21.8383 32.0737L23.3971 26.0043C25.3212 26.4708 31.4916 27.3941 30.5749 30.9648H30.5747ZM31.4526 22.0818C30.6524 25.196 25.7126 23.6138 24.1102 23.2259L25.5235 17.7213C27.1259 18.1093 32.2863 18.8334 31.4529 22.0818H31.4526Z" fill="white"/>
</svg>
