<svg width="24" height="24" viewBox="0 0 24 24" fill="none" xmlns="http://www.w3.org/2000/svg">
<g clip-path="url(#clip0_8615_27707)">
<path d="M24.001 0.0186768H0.0012207V3.44333H24.001V0.0186768Z" fill="#73AF00"/>
<path d="M24.001 3.44312H0.0012207V6.86777H24.001V3.44312Z" fill="#F5F5F5"/>
<path d="M24.001 6.86865H0.0012207V10.2933H24.001V6.86865Z" fill="#73AF00"/>
<path d="M24.001 10.2933H0.0012207V13.718H24.001V10.2933Z" fill="#F5F5F5"/>
<path d="M24.001 13.718H0.0012207V17.1427H24.001V13.718Z" fill="#73AF00"/>
<path d="M24.001 17.1426H0.0012207V20.5672H24.001V17.1426Z" fill="#F5F5F5"/>
<path d="M24.001 20.5673H0.0012207V23.9919H24.001V20.5673Z" fill="#73AF00"/>
<path d="M16.0637 0.00793457H0.0012207V10.2739H16.0637V0.00793457Z" fill="#FF4B55"/>
<path d="M8.64958 9.46369H7.63315C7.54071 9.46369 7.45803 9.40613 7.42592 9.31946L7.09869 8.43597C6.97096 8.09107 6.91358 7.72404 6.92999 7.35659L7.04389 4.80479C7.0468 4.74001 7.08838 4.68338 7.14931 4.66121C7.25389 4.62319 7.36451 4.70063 7.36451 4.81191V5.97398C7.36451 6.00646 7.39086 6.03281 7.42334 6.03281C7.4547 6.03281 7.48057 6.0082 7.48212 5.97688L7.57348 4.12398C7.57718 4.04875 7.63371 3.98669 7.70829 3.97604C7.80073 3.96283 7.88426 4.03267 7.88768 4.126L7.95073 5.85346C7.95199 5.88815 7.9827 5.91431 8.01715 5.90999C8.0463 5.90634 8.06834 5.88187 8.06894 5.85248L8.10682 3.93292C8.10888 3.82811 8.21201 3.75531 8.31143 3.7885C8.37232 3.8088 8.41446 3.86439 8.41755 3.92851L8.51121 5.86874C8.51224 5.89031 8.52485 5.90967 8.54416 5.91932C8.58316 5.93882 8.62928 5.91131 8.63064 5.86771L8.67761 4.3644C8.68117 4.25087 8.80009 4.17836 8.90261 4.2272C8.9544 4.25185 8.98867 4.30276 8.99209 4.35999L9.10145 6.20512L9.39418 7.05898C9.41063 7.10694 9.47799 7.10783 9.49543 7.06025C9.57835 6.83394 9.76651 6.41136 10.0685 6.22523C10.122 6.19227 10.1905 6.19654 10.2408 6.23423C10.3147 6.28968 10.3234 6.3966 10.2601 6.46391C10.113 6.62057 9.89841 6.94981 9.91393 7.52876C9.9159 7.6024 9.89457 7.67487 9.85102 7.73435L9.02626 8.86112C8.94367 8.97395 8.8907 9.10571 8.87223 9.24427L8.86853 9.27193C8.854 9.38176 8.76034 9.46369 8.64958 9.46369Z" fill="#F5F5F5"/>
<path d="M8.14409 0.871392L8.30969 1.36798L8.83314 1.37206C8.87369 1.37239 8.89052 1.42414 8.85789 1.44823L8.43677 1.7592L8.59469 2.25827C8.60692 2.29694 8.56291 2.32891 8.52991 2.30533L8.10405 2.00093L7.6782 2.30533C7.6452 2.32891 7.60118 2.29694 7.61342 2.25827L7.77134 1.7592L7.35022 1.44823C7.31759 1.42414 7.33442 1.37239 7.37497 1.37206L7.89842 1.36798L8.06402 0.871392C8.07682 0.832908 8.13124 0.832908 8.14409 0.871392Z" fill="#F5F5F5"/>
<path d="M5.68168 1.58587L5.84729 2.08246L6.37074 2.08654C6.41129 2.08686 6.42811 2.13861 6.39549 2.16271L5.97437 2.47367L6.13229 2.97275C6.14452 3.01142 6.10051 3.04339 6.06751 3.01981L5.64165 2.71541L5.2158 3.01981C5.1828 3.04339 5.13878 3.01142 5.15102 2.97275L5.30894 2.47367L4.88782 2.16271C4.85519 2.13861 4.87202 2.08686 4.91257 2.08654L5.43601 2.08246L5.60162 1.58587C5.61446 1.54739 5.66889 1.54739 5.68168 1.58587Z" fill="#F5F5F5"/>
<path d="M10.6665 1.58587L10.8322 2.08246L11.3556 2.08654C11.3961 2.08686 11.413 2.13861 11.3804 2.16271L10.9592 2.47367L11.1172 2.97275C11.1294 3.01142 11.0854 3.04339 11.0524 3.01981L10.6265 2.71541L10.2007 3.01981C10.1677 3.04339 10.1236 3.01142 10.1359 2.97275L10.2938 2.47367L9.87268 2.16271C9.84005 2.13861 9.85688 2.08686 9.89743 2.08654L10.4209 2.08246L10.5865 1.58587C10.5993 1.54739 10.6537 1.54739 10.6665 1.58587Z" fill="#F5F5F5"/>
<path d="M12.3179 3.46356L12.4835 3.96014L13.007 3.96422C13.0475 3.96455 13.0643 4.0163 13.0317 4.04039L12.6106 4.35136L12.7685 4.85043C12.7808 4.8891 12.7367 4.92107 12.7037 4.89749L12.2779 4.59309L11.852 4.89749C11.819 4.92107 11.775 4.8891 11.7872 4.85043L11.9452 4.35136L11.524 4.04039C11.4914 4.0163 11.5082 3.96455 11.5488 3.96422L12.0722 3.96014L12.2379 3.46356C12.2506 3.42507 12.3051 3.42507 12.3179 3.46356Z" fill="#F5F5F5"/>
<path d="M3.89287 3.46356L4.05847 3.96014L4.58192 3.96422C4.62247 3.96455 4.6393 4.0163 4.60667 4.04039L4.18555 4.35136L4.34347 4.85043C4.3557 4.8891 4.31169 4.92107 4.27869 4.89749L3.85283 4.59309L3.42698 4.89749C3.39398 4.92107 3.34996 4.8891 3.3622 4.85043L3.52012 4.35136L3.099 4.04039C3.06637 4.0163 3.0832 3.96455 3.12375 3.96422L3.6472 3.96014L3.8128 3.46356C3.82565 3.42507 3.88002 3.42507 3.89287 3.46356Z" fill="#F5F5F5"/>
<path d="M12.7928 5.92653L12.9584 6.42312L13.4818 6.4272C13.5224 6.42753 13.5392 6.47928 13.5066 6.50337L13.0855 6.81434L13.2434 7.31346C13.2556 7.35213 13.2116 7.3841 13.1786 7.36052L12.7527 7.05612L12.3269 7.36052C12.2939 7.3841 12.2499 7.35213 12.2621 7.31346L12.42 6.81434L11.9989 6.50337C11.9663 6.47928 11.9831 6.42753 12.0236 6.4272L12.5471 6.42312L12.7127 5.92653C12.7255 5.8881 12.7799 5.8881 12.7928 5.92653Z" fill="#F5F5F5"/>
<path d="M3.25102 5.92653L3.41663 6.42312L3.94007 6.4272C3.98062 6.42753 3.99745 6.47928 3.96482 6.50337L3.5437 6.81434L3.70162 7.31346C3.71386 7.35213 3.66984 7.3841 3.63684 7.36052L3.21099 7.05612L2.78513 7.36052C2.75213 7.3841 2.70812 7.35213 2.72035 7.31346L2.87827 6.81434L2.45715 6.50337C2.42453 6.47928 2.44136 6.42753 2.4819 6.4272L3.00535 6.42312L3.17096 5.92653C3.1838 5.8881 3.23818 5.8881 3.25102 5.92653Z" fill="#F5F5F5"/>
</g>
<defs>
<clipPath id="clip0_8615_27707">
<path d="M0 2C0 0.895432 0.895431 0 2 0H21.9998C23.1043 0 23.9998 0.895431 23.9998 2V21.9998C23.9998 23.1043 23.1043 23.9998 21.9998 23.9998H2C0.895432 23.9998 0 23.1043 0 21.9998V2Z" fill="white"/>
</clipPath>
</defs>
</svg>
