<svg width="24" height="24" viewBox="0 0 24 24" fill="none" xmlns="http://www.w3.org/2000/svg">
<g clip-path="url(#clip0_8615_27516)">
<path d="M24 0H0.000244141V23.9998H24V0Z" fill="#4173CD"/>
<path d="M24 9.93093H10.7587V0H6.62085V9.93093H0.000244141V14.0688H6.62085V23.9998H10.7587V14.0688H24V9.93093Z" fill="#FFE15A"/>
<path d="M24 11.1723H9.51737V0H7.86223V11.1723H0.000244141V12.8275H7.86223V23.9998H9.51737V12.8275H24V11.1723Z" fill="#FF4B55"/>
</g>
<defs>
<clipPath id="clip0_8615_27516">
<path d="M-0.000488281 2C-0.000488281 0.895432 0.894942 0 1.99951 0H21.9993C23.1038 0 23.9993 0.895431 23.9993 2V21.9998C23.9993 23.1043 23.1038 23.9998 21.9993 23.9998H1.99951C0.894944 23.9998 -0.000488281 23.1043 -0.000488281 21.9998V2Z" fill="white"/>
</clipPath>
</defs>
</svg>
