<svg width="24" height="24" viewBox="0 0 24 24" fill="none" xmlns="http://www.w3.org/2000/svg">
<g clip-path="url(#clip0_8615_27557)">
<path d="M11.9989 0H-0.000976562V23.9998H11.9989V0Z" fill="#73AF00"/>
<path d="M23.9992 0H11.9993V23.9998H23.9992V0Z" fill="#F5F5F5"/>
<path d="M15.0439 9.7039L13.9489 11.1363L12.2392 10.564C12.1436 10.532 12.0623 10.6402 12.1195 10.7231L13.1435 12.2072L12.0709 13.6564C12.0109 13.7375 12.0886 13.8482 12.1852 13.8194L13.913 13.3041L14.9599 14.7721C15.0184 14.8542 15.1477 14.8145 15.1502 14.7138L15.1941 12.9113L16.9137 12.3693C17.0098 12.339 17.0121 12.2038 16.917 12.1703L15.2163 11.5716L15.2322 9.76863C15.2331 9.66771 15.1052 9.62379 15.0439 9.7039Z" fill="#FF4B55"/>
<path d="M13.1305 16.3379C10.7367 16.3379 8.79486 14.3961 8.79486 12.0001C8.79486 9.60852 10.7367 7.66234 13.1305 7.66234C14.0211 7.66234 14.8425 7.93627 15.5269 8.39986C15.6317 8.47088 15.7514 8.33311 15.6636 8.24185C14.6407 7.17831 13.1928 6.52948 11.5876 6.58427C8.82968 6.6784 6.54652 8.88956 6.37032 11.6434C6.16848 14.7978 8.66614 17.4192 11.7758 17.4192C13.3077 17.4192 14.6843 16.7788 15.6675 15.7549C15.7543 15.6644 15.6344 15.5287 15.5306 15.5991C14.8454 16.0637 14.0227 16.3379 13.1305 16.3379Z" fill="#FF4B55"/>
</g>
<defs>
<clipPath id="clip0_8615_27557">
<path d="M-0.000976562 2C-0.000976562 0.895432 0.894454 0 1.99902 0H21.9988C23.1034 0 23.9988 0.895431 23.9988 2V21.9998C23.9988 23.1043 23.1034 23.9998 21.9988 23.9998H1.99902C0.894455 23.9998 -0.000976562 23.1043 -0.000976562 21.9998V2Z" fill="white"/>
</clipPath>
</defs>
</svg>
