<svg width="24" height="24" viewBox="0 0 24 24" fill="none" xmlns="http://www.w3.org/2000/svg">
<g clip-path="url(#clip0_8615_27537)">
<path d="M23.9985 0H-0.0012207V23.9998H23.9985V0Z" fill="#41479B"/>
<path d="M23.9985 22.6705L2.65718 11.9999L23.9985 1.32922V0L-0.0012207 11.9999L23.9985 23.9998V22.6705Z" fill="#FF4B55"/>
<path d="M2.65723 11.9999L23.9986 22.6705V1.32922L2.65723 11.9999Z" fill="#F5F5F5"/>
<path d="M21.1196 9.90141C21.1196 9.90141 22.595 9.96394 22.7326 9.85139C22.8701 9.73885 22.8951 8.98862 22.4075 8.87612C21.9199 8.76358 20.5945 9.48882 20.5945 9.48882L21.1196 9.90141Z" fill="#FFF5DC"/>
<path d="M18.2306 11.0643C18.2306 11.0643 18.2139 11.106 18.2056 11.2894C18.1972 11.4727 18.2306 11.9479 18.8057 12.1563L18.6724 12.7148L19.2809 13.0816C19.2809 13.0816 19.731 12.4147 19.756 11.8563C19.7811 11.2977 18.2306 11.0643 18.2306 11.0643Z" fill="#D27D69"/>
<path d="M16.4052 10.6891L16.6427 10.4515C16.6427 10.4515 16.1564 10.7482 15.9717 10.4807C15.73 10.1306 16.0551 9.76378 16.3926 9.60126C16.7302 9.4387 17.4055 9.56376 17.4055 9.56376L17.8306 10.6516L16.5427 11.4643L16.4052 10.6891Z" fill="#D27D69"/>
<path d="M20.3936 8.61348L21.544 8.47595C21.544 8.47595 21.2064 8.96359 20.5437 9.32621C20.5437 9.32621 21.2314 9.32621 21.4314 9.56377C21.6315 9.80133 21.2314 10.0264 21.0813 10.1014C20.9313 10.1764 19.6309 10.9767 19.6309 10.9767L18.468 10.8391L20.3936 8.61348Z" fill="#D27D69"/>
<path d="M21.2481 7.73C21.2481 7.73 21.4982 7.1465 21.4898 6.73804L20.6479 7.32153C20.6479 7.32153 20.8396 7.22984 20.7729 6.89643L18.0221 8.38854L17.4636 9.3805L19.1641 9.90563L21.2481 7.73Z" fill="#D27D69"/>
<path d="M19.1752 12.2771L18.8877 12.7335C18.8877 12.7335 18.375 12.6209 18.2 12.746C18.0249 12.871 18.0061 13.3399 18.3125 13.3774C18.3125 13.3774 18.5251 13.5087 18.6501 13.4025C18.6501 13.4025 18.9064 13.5025 18.9502 13.3399C18.994 13.1774 18.9377 13.0398 18.9377 13.0398H19.119L19.4378 12.4709L19.1752 12.2771Z" fill="#FFE15A"/>
<path d="M16.6057 11.2893C16.6057 11.2893 17.4059 10.8892 17.4059 10.289C17.4059 9.68881 16.664 9.65549 16.0639 9.85555C16.0639 9.85555 15.7054 9.57214 16.0055 9.28869C16.4169 8.90015 18.2062 8.08833 18.2062 8.08833L18.0061 9.08863C18.0061 9.08863 18.7188 9.46372 19.0064 9.28869C19.2481 9.1416 21.6072 7.28809 21.6072 7.28809C21.6072 7.28809 21.4071 8.28839 20.0067 9.28869L19.8583 10.0306C19.8257 10.1936 19.7197 10.3324 19.571 10.4068L19.0064 10.6891C19.0064 10.6891 20.6068 10.8891 20.6068 11.0892C20.6068 11.2892 20.2067 12.2896 19.4065 12.6897L19.0064 12.2896L19.2064 11.6894C19.2064 11.6894 18.6062 11.4893 18.2061 11.2893C18.2061 11.2893 17.6059 11.4893 17.2058 11.4893C16.8057 11.4893 16.6057 11.2893 16.6057 11.2893Z" fill="#B95546"/>
<path d="M15.4055 12.2896V11.8739C15.4055 11.7558 15.4524 11.6425 15.536 11.5589L16.4058 10.6891L16.6059 11.0892H17.4061L17.2061 11.2893V11.4893L16.2058 12.0895L15.4055 12.2896Z" fill="#FFF5DC"/>
<path d="M15.8052 12.0894H15.4051C15.4051 12.0894 15.005 12.6896 15.4051 12.6896C15.4051 12.6896 16.0053 12.2895 16.2054 12.0894C16.2054 12.0894 16.2054 11.8893 15.8052 12.0894Z" fill="#FFE15A"/>
<path d="M20.6852 12.9768H17.9195C17.8968 12.9523 17.8648 12.9364 17.8287 12.9364C17.8287 12.9364 17.3443 12.7357 17.2753 12.7357H17.2186C17.1497 12.7357 17.0938 12.7915 17.0938 12.8604V12.9768H16.4616V12.8604C16.4616 12.7915 16.4058 12.7357 16.3369 12.7357H16.2801C16.2112 12.7357 16.1554 12.7915 16.1554 12.8604V12.8625C15.8844 12.8514 15.3051 12.8169 15.005 12.7169L13.4045 13.117L15.005 13.5172C15.3051 13.4171 15.8844 13.3826 16.1554 13.3715V13.3736C16.1554 13.4425 16.2112 13.4984 16.2801 13.4984H16.3369C16.4058 13.4984 16.4616 13.4425 16.4616 13.3736V13.2572H17.0938V13.3736C17.0938 13.4425 17.1497 13.4984 17.2186 13.4984H17.2753C17.3443 13.4984 17.8287 13.2976 17.8287 13.2976C17.8648 13.2976 17.8967 13.2818 17.9195 13.2572H20.6852C20.7626 13.2572 20.8254 13.1944 20.8254 13.117C20.8254 13.0396 20.7627 12.9768 20.6852 12.9768Z" fill="#FFE15A"/>
<path d="M20.5651 13.5148C20.3984 13.4814 18.4895 13.8149 18.4895 13.8149C18.4895 13.8149 18.3728 13.6982 18.7229 13.3731L18.5562 13.3314C18.5562 13.3314 18.1894 13.5898 18.0394 13.6232C17.9101 13.6519 17.6215 13.7922 17.5595 13.9796L16.3972 14.1733L16.4222 14.2734L17.5622 14.1398C17.6167 14.3149 17.7958 14.3506 17.9227 14.2984C17.9227 14.2984 18.0894 14.3651 18.2394 14.2484C18.2394 14.2484 18.5395 14.2984 18.5562 14.0233L20.6485 13.7066C20.6485 13.7066 20.7318 13.5482 20.5651 13.5148Z" fill="#FFE15A"/>
<path d="M19.3815 14.9236C19.3815 14.9236 19.2231 15.132 18.8313 14.9486C18.4395 14.7651 17.9811 14.9653 17.731 14.9069C17.4809 14.8485 17.1058 14.6985 16.7557 14.8319C16.4056 14.9653 16.2139 14.9569 16.2889 14.7902C16.3639 14.6235 16.4056 14.4985 16.2889 14.4401L16.4222 14.2734L16.3973 14.1734C16.3973 14.1734 15.7304 13.9149 15.2803 14.2734C14.8302 14.6318 14.9635 15.4487 15.7137 15.5071C15.7137 15.5071 15.9471 15.7988 16.5223 15.7155C16.5223 15.7155 16.8974 15.9739 17.5393 15.8572C17.5393 15.8572 17.5642 15.9322 17.9811 15.8989C18.3979 15.8655 18.8646 15.9155 18.7813 16.1989C18.7813 16.1989 19.0897 16.1406 18.9063 15.8572C18.9063 15.8572 19.2731 15.8405 19.5232 16.0572C19.5232 16.0572 19.5399 15.8072 19.2981 15.6738C19.2981 15.6738 19.7066 15.5321 19.9316 15.6738C19.9316 15.6738 19.7816 15.357 19.3815 15.3987C19.3815 15.3987 19.6732 15.1654 19.8066 15.2237C19.8066 15.2237 19.6816 15.0737 19.3148 15.2237C19.3148 15.2237 19.5482 15.082 19.3815 14.9236Z" fill="#FFE15A"/>
</g>
<defs>
<clipPath id="clip0_8615_27537">
<path d="M-0.0012207 2C-0.0012207 0.895432 0.89421 0 1.99878 0H21.9985C23.1031 0 23.9985 0.895431 23.9985 2V21.9998C23.9985 23.1043 23.1031 23.9998 21.9985 23.9998H1.99878C0.894211 23.9998 -0.0012207 23.1043 -0.0012207 21.9998V2Z" fill="white"/>
</clipPath>
</defs>
</svg>
