<svg width="24" height="24" viewBox="0 0 24 24" fill="none" xmlns="http://www.w3.org/2000/svg">
<g clip-path="url(#clip0_8615_27643)">
<path d="M23.9978 0H-0.00195312V11.9999H23.9978V0Z" fill="#FF4B55"/>
<path d="M23.9978 12H-0.00195312V23.9999H23.9978V12Z" fill="#464655"/>
<path d="M10.5587 6.72661L10.9905 8.02133L12.3553 8.03192C12.461 8.03272 12.5048 8.16767 12.4198 8.23048L11.3218 9.04127L11.7335 10.3426C11.7654 10.4434 11.6507 10.5268 11.5646 10.4653L10.4543 9.67159L9.34391 10.4652C9.2579 10.5267 9.1431 10.4433 9.17498 10.3425L9.58668 9.04122L8.48873 8.23044C8.40366 8.16762 8.44753 8.03267 8.55323 8.03188L9.91803 8.02128L10.3498 6.72656C10.3834 6.6263 10.5252 6.6263 10.5587 6.72661Z" fill="#FFE15A"/>
<path d="M16.3957 17.7195C16.3957 17.7195 8.58252 11.8253 8.35185 11.6315C7.99537 11.3321 7.72031 10.8025 7.70709 10.1578C7.70709 10.1578 6.86447 11.021 7.02947 11.9144C7.22025 12.9473 7.81232 13.3157 8.57549 13.8157C9.11183 14.1671 13.3753 16.8561 15.8642 18.4246L16.3957 17.7195Z" fill="#FFE15A"/>
<path d="M18.7331 19.4473C18.6313 19.3745 17.813 18.7698 16.6777 17.9286L16.2656 18.6778C17.0992 19.2031 17.6542 19.5526 17.6542 19.5526C17.6542 19.5526 17.7331 20.5789 18.5621 20.4078C18.861 20.3461 19.1015 19.7104 18.7331 19.4473Z" fill="#FFE15A"/>
<path d="M11.9866 16.7257C11.396 16.9336 10.7634 17.0525 10.1017 17.0525C8.4246 17.0525 6.92195 16.3218 5.88152 15.1665L4.95654 15.9989C5.26652 16.3432 5.59755 16.6677 5.97067 16.9446L5.7865 17.2636L7.15388 18.053L7.33491 17.7394C7.95267 18.0081 8.61669 18.1889 9.31227 18.2677V18.6314H10.8912V18.2677C11.5868 18.1889 12.2508 18.0081 12.8685 17.7394L13.0496 18.053L13.593 17.7393C13.0623 17.4047 12.5187 17.0616 11.9866 16.7257Z" fill="#FFE15A"/>
<path d="M17.0013 10.5789C16.9225 9.88335 16.7417 9.21933 16.473 8.60161L16.7866 8.42054L15.9972 7.05311L15.6782 7.23728C15.2698 6.68702 14.7833 6.20047 14.2329 5.7921L14.4171 5.47311L13.0497 4.68365L12.8687 4.99724C12.3562 4.77436 11.8106 4.61606 11.2429 4.52222L11.0354 5.76735C13.7295 6.21354 15.786 8.5478 15.786 11.3684C15.786 12.8872 15.1867 14.2634 14.2162 15.2832C14.5519 15.5367 14.8852 15.7882 15.2145 16.0369C15.3741 15.8622 15.5367 15.69 15.6782 15.4994L15.9972 15.6836L16.7866 14.3162L16.473 14.1352C16.7417 13.5174 16.9225 12.8534 17.0013 12.1578H17.365V10.5789H17.0013Z" fill="#FFE15A"/>
</g>
<defs>
<clipPath id="clip0_8615_27643">
<path d="M-0.00146484 2C-0.00146484 0.895432 0.893966 0 1.99854 0H21.9983C23.1029 0 23.9983 0.895431 23.9983 2V21.9998C23.9983 23.1043 23.1029 23.9998 21.9983 23.9998H1.99854C0.893967 23.9998 -0.00146484 23.1043 -0.00146484 21.9998V2Z" fill="white"/>
</clipPath>
</defs>
</svg>
