<svg width="24" height="24" viewBox="0 0 24 24" fill="none" xmlns="http://www.w3.org/2000/svg">
<g clip-path="url(#clip0_8615_27706)">
<path d="M23.9968 0H-0.00292969V23.9998H23.9968V0Z" fill="#41479B"/>
<path d="M4.41809 0.00219727H-0.00292969V0.93861L4.41809 3.83513V0.00219727Z" fill="#41479B"/>
<path d="M-0.00292969 3.20374V4.42327H1.85846L-0.00292969 3.20374Z" fill="#41479B"/>
<path d="M-0.00292969 7.58105V8.80059L1.85846 7.58105H-0.00292969Z" fill="#41479B"/>
<path d="M11.9969 0.93861V0.00219727H7.57593V3.83513L11.9969 0.93861Z" fill="#41479B"/>
<path d="M11.9969 8.80059V7.58105H10.1355L11.9969 8.80059Z" fill="#41479B"/>
<path d="M7.57593 8.16919V12.0021H11.9969V11.0657L7.57593 8.16919Z" fill="#41479B"/>
<path d="M11.9969 4.42327V3.20374L10.1355 4.42327H11.9969Z" fill="#41479B"/>
<path d="M-0.00292969 11.0657V12.0021H4.41809V8.16919L-0.00292969 11.0657Z" fill="#41479B"/>
<path d="M11.9969 11.0657V10.1299L8.07031 7.58105H9.23036L11.9969 9.37686V8.80059L10.1355 7.58105H11.9969V6.94946H6.94434V12.0021H7.57588V8.16914L11.9969 11.0657Z" fill="#F5F5F5"/>
<path d="M-0.00292969 6.94946V7.58105H1.85846L-0.00292969 8.80059V9.68656L3.24065 7.58105H4.4007L-0.00292969 10.4396V11.0657L4.41809 8.16914V12.0021H5.04963V6.94946H-0.00292969Z" fill="#F5F5F5"/>
<path d="M5.04963 0.00219727H4.41809V3.83513L-0.00292969 0.93861V1.96338L3.7865 4.42322H2.62645L-0.00292969 2.71642V3.20368L1.85846 4.42322H-0.00292969V5.0548H5.04963V0.00219727Z" fill="#F5F5F5"/>
<path d="M11.9969 5.0548V4.42322H10.1355L11.9969 3.20368V2.30641L8.73593 4.42322H7.57588L11.9969 1.55342V0.93861L7.57588 3.83513V0.00219727H6.94434V5.0548H11.9969Z" fill="#F5F5F5"/>
<path d="M11.997 6.94947V5.0548H6.94439V0.00219727H5.04963V5.0548H-0.00292969V6.94947H5.04963V12.0021H6.94439V6.94947H11.997Z" fill="#FF4B55"/>
<path d="M3.24065 7.58105L-0.00292969 9.68657V10.4396L4.4007 7.58105H3.24065Z" fill="#FF4B55"/>
<path d="M8.07031 7.58105L11.9969 10.1299V9.37687L9.23036 7.58105H8.07031Z" fill="#FF4B55"/>
<path d="M3.7865 4.42321L-0.00292969 1.96338V2.71642L2.62645 4.42321H3.7865Z" fill="#FF4B55"/>
<path d="M8.73598 4.42327L11.9969 2.30646V1.55347L7.57593 4.42327H8.73598Z" fill="#FF4B55"/>
<path d="M15.5561 13.5772C15.4902 14.4561 15.2174 20.0407 18.7606 21.3031C22.3051 20.0403 22.0313 14.4559 21.9652 13.5772C21.5359 13.7455 19.9819 14.2556 18.7606 13.3864C17.5394 14.2554 15.9856 13.7456 15.5561 13.5772Z" fill="#F5F5F5"/>
<path d="M20.504 14.7039C20.3098 14.5528 19.95 14.8334 19.5472 14.8046C19.1735 14.7779 18.713 14.3995 18.1144 14.5626C17.9491 14.4103 18.0291 14.0564 18.0291 14.0564C17.6135 14.325 17.5838 14.6928 17.6099 14.8922C17.3135 15.2838 17.3336 15.8812 17.3888 16.0636C17.4608 16.301 17.5975 16.3298 17.619 16.596C17.6406 16.8622 17.7413 16.7687 17.7413 16.7687C17.9494 16.6519 17.9797 16.4318 18.0672 16.0715C18.4052 16.1147 18.6263 15.8118 18.6263 15.8118C18.4044 15.8814 18.2646 15.7591 18.1883 15.6514C18.2002 15.6159 18.2097 15.5831 18.2234 15.5456C18.4752 14.855 19.68 15.0448 19.7917 15.2362C19.9932 15.5816 20.2594 15.7111 20.2594 15.7111C20.2594 15.3511 19.9932 15.0348 19.9932 15.0348C20.3961 14.9629 20.504 14.7039 20.504 14.7039ZM17.6047 16.186C17.565 16.186 17.5328 16.1538 17.5328 16.114C17.5328 16.0743 17.565 16.042 17.6047 16.042C17.6445 16.042 17.6767 16.0743 17.6767 16.114C17.6767 16.1538 17.6445 16.186 17.6047 16.186Z" fill="#FFA028"/>
<path d="M19.3176 19.1234C19.5522 19.0491 19.5253 18.5937 19.7775 18.2783C20.0115 17.9858 20.5844 17.8212 20.7897 17.2358C21.0089 17.186 21.2549 17.4528 21.2549 17.4528C21.2695 16.9581 20.9836 16.725 20.8045 16.6333C20.6502 16.1672 20.1468 15.8446 19.9653 15.7867C19.729 15.7112 19.6277 15.8075 19.3963 15.6742C19.1648 15.541 19.1847 15.677 19.1847 15.677C19.1627 15.9146 19.3268 16.0644 19.5739 16.3408C19.3465 16.5948 19.4706 16.9485 19.4706 16.9485C19.5391 16.7263 19.7191 16.6806 19.8511 16.6789C19.8736 16.7088 19.8952 16.7353 19.9183 16.7678C20.3442 17.367 19.5043 18.2515 19.2833 18.2348C18.8846 18.2048 18.627 18.3505 18.627 18.3505C18.9234 18.5547 19.3349 18.515 19.3349 18.515C19.1655 18.8875 19.3176 19.1234 19.3176 19.1234ZM19.7421 15.895C19.7646 15.8623 19.8095 15.8541 19.8422 15.8766C19.8749 15.8991 19.8831 15.9439 19.8606 15.9767C19.8381 16.0094 19.7933 16.0176 19.7606 15.9951C19.7278 15.9725 19.7196 15.9277 19.7421 15.895Z" fill="#FFA028"/>
<path d="M16.1457 15.9256C16.1143 16.1696 16.5388 16.3368 16.7187 16.6984C16.8857 17.0338 16.7938 17.6227 17.2386 18.0553C17.1915 18.2751 16.846 18.386 16.846 18.386C17.2885 18.6074 17.6203 18.4461 17.7788 18.3223C18.2666 18.3784 18.771 18.0575 18.9 17.9173C19.0679 17.7346 19.0232 17.6023 19.2415 17.4484C19.4598 17.2945 19.328 17.2553 19.328 17.2553C19.1217 17.1354 18.9168 17.2213 18.562 17.3291C18.4273 17.016 18.0542 16.9796 18.0542 16.9796C18.2269 17.1353 18.1927 17.3179 18.1387 17.4383C18.102 17.4461 18.0689 17.4546 18.0297 17.4619C17.307 17.5961 16.858 16.4619 16.9661 16.2684C17.1611 15.9195 17.1374 15.6244 17.1374 15.6244C16.8273 15.8073 16.6903 16.1973 16.6903 16.1973C16.4236 15.8868 16.1457 15.9256 16.1457 15.9256ZM18.8956 17.6692C18.9158 17.7034 18.9044 17.7475 18.8702 17.7677C18.836 17.7879 18.7919 17.7765 18.7717 17.7423C18.7514 17.7081 18.7628 17.6639 18.7971 17.6437C18.8313 17.6236 18.8754 17.635 18.8956 17.6692Z" fill="#FFA028"/>
<path d="M18.7604 21.4861L18.7321 21.4763C14.7423 20.0884 15.387 13.5095 15.394 13.4431L15.4065 13.3242L15.5155 13.3736C15.5343 13.3822 17.3854 14.2032 18.7087 13.2104L18.7604 13.1716L18.8122 13.2104C20.1374 14.2046 21.9868 13.3821 22.0053 13.3736L22.1144 13.324L22.1268 13.4431C22.1338 13.5095 22.7785 20.0884 18.7887 21.4763L18.7604 21.4861ZM15.5559 13.5773C15.49 14.4562 15.2172 20.0408 18.7604 21.3032C22.305 20.0404 22.0311 14.456 21.965 13.5773C21.5357 13.7456 19.9817 14.2557 18.7604 13.3865C17.5392 14.2555 15.9854 13.7458 15.5559 13.5773Z" fill="#CDCE0C"/>
<path d="M16.5383 19.3228C17.0223 20.2004 17.7288 20.9356 18.7606 21.3032C19.7926 20.9355 20.4993 20.2003 20.9833 19.3228H16.5383Z" fill="#82AFFF"/>
</g>
<defs>
<clipPath id="clip0_8615_27706">
<path d="M-0.00146484 2C-0.00146484 0.895432 0.893966 0 1.99854 0H21.9983C23.1029 0 23.9983 0.895431 23.9983 2V21.9998C23.9983 23.1043 23.1029 23.9998 21.9983 23.9998H1.99854C0.893967 23.9998 -0.00146484 23.1043 -0.00146484 21.9998V2Z" fill="white"/>
</clipPath>
</defs>
</svg>
