<svg width="40" height="40" viewBox="0 0 40 40" fill="none" xmlns="http://www.w3.org/2000/svg">
<g clip-path="url(#clip0_9481_16562)">
<path d="M0 3.33337C0 1.4924 1.4924 0 3.33337 0H36.6666C38.5076 0 40 1.4924 40 3.33337V36.6666C40 38.5076 38.5076 40 36.6666 40H3.33337C1.4924 40 0 38.5076 0 36.6666V3.33337Z" fill="#265FB5"/>
<path d="M30.5897 21.0369C30.533 20.4536 31.4797 19.0058 30.7197 19.1103C29.7897 19.2369 29.063 18.5969 28.7486 18.6125C29.7552 17.1891 29.0075 16.8269 28.783 15.9036C28.3875 14.2835 29.6508 13.4902 27.3941 13.1435C25.9263 12.918 24.913 13.0702 24.4719 11.3935C23.8241 11.848 23.0552 11.9613 22.3252 11.6424C21.8585 11.4391 21.7129 11.0513 21.274 10.8635C20.9418 10.7224 20.2463 10.7235 19.874 10.6646C18.8485 10.5024 18.3196 10.958 17.3996 10.8057C17.4873 10.9391 17.5007 11.1102 17.5618 11.2524C16.994 11.2724 16.6496 11.6524 16.5884 12.1824C15.7584 12.0991 15.5473 13.1802 15.6407 13.8624L15.554 13.8891L15.5884 13.9235C15.414 15.7291 14.6795 16.6325 12.8295 16.9158C11.6117 17.1025 10.5295 16.2936 9.47727 15.6424C9.16765 15.4447 8.88203 15.2116 8.62615 14.948C8.31503 14.6024 8.09503 14.118 7.79281 13.8713C7.65392 13.758 7.35836 13.6624 7.39947 13.8947C7.20836 15.0924 8.08281 16.5847 9.0906 17.1602C7.71058 17.7969 9.43949 18.178 9.68727 18.3947C9.69283 18.3991 10.2873 19.2169 10.2917 19.248C10.3862 19.8325 9.98283 19.7658 9.94061 20.2336C9.89727 20.7192 9.89727 21.1081 10.0595 21.5914L10.0251 21.6258C10.0317 22.0147 9.73727 21.8758 9.35504 21.7881C9.40727 22.9681 10.5317 23.0703 10.7195 23.3014C11.3251 24.0448 11.1162 25.1259 11.8228 25.8181C13.5606 27.5203 15.5407 26.5159 17.5085 26.8014C18.6129 26.9626 19.5596 27.8892 20.5607 26.8426C21.7374 28.1315 19.6551 29.6592 20.164 30.0948C20.2905 30.2065 20.4511 30.2719 20.6196 30.2804C20.5907 30.3593 20.5452 30.4315 20.5252 30.5148C21.9385 30.6481 23.4274 30.9859 24.7496 30.2904C24.7474 30.5026 24.8896 30.7604 24.8974 30.8726C25.2219 30.4848 25.4752 30.507 25.8885 30.3004C26.4063 30.0426 27.3174 29.7326 27.6608 29.2159C28.0697 28.6004 27.4274 27.7503 28.7141 28.0137C28.8141 27.5692 28.8552 27.6159 29.0919 27.3203C28.7375 26.4314 29.7908 25.8314 30.1075 25.1959C30.1708 25.067 30.1752 24.4714 30.2597 24.247C30.4197 23.8192 30.8775 23.5814 31.0041 23.0459C31.2353 22.0603 30.6719 21.8903 30.5897 21.0369Z" fill="white"/>
<rect x="-13.334" width="67.3691" height="40.0004" fill="white"/>
<rect x="-11.6504" width="64.0006" height="20.0002" fill="#1B2F4C"/>
<path d="M20.3509 2.10535L9.28125 20.2194L20.3509 24.2447L31.4206 20.2194L20.3509 2.10535Z" fill="white"/>
<path d="M20.3509 38.3337L9.28125 20.2197L20.3509 25.2514L31.4206 20.2197L20.3509 38.3337Z" fill="#1B2F4C"/>
</g>
<defs>
<clipPath id="clip0_9481_16562">
<path d="M0 3.33337C0 1.4924 1.4924 0 3.33337 0H36.6666C38.5076 0 40 1.4924 40 3.33337V36.6666C40 38.5076 38.5076 40 36.6666 40H3.33337C1.4924 40 0 38.5076 0 36.6666V3.33337Z" fill="white"/>
</clipPath>
</defs>
</svg>
