<svg width="24" height="24" viewBox="0 0 24 24" fill="none" xmlns="http://www.w3.org/2000/svg">
<g clip-path="url(#clip0_8615_27687)">
<path d="M23.9959 0H-0.00390625V8.00008H23.9959V0Z" fill="#82AFFF"/>
<path d="M23.9959 15.9998H-0.00390625V23.9998H23.9959V15.9998Z" fill="#82AFFF"/>
<path d="M23.9971 8.00012H-0.00268555V16.0002H23.9971V8.00012Z" fill="#F5F5F5"/>
<path d="M15.2318 11.8139H12.9026C12.946 11.7807 12.9804 11.7481 13.0115 11.7173C13.0684 11.6615 13.1136 11.617 13.2336 11.5675C13.3542 11.5167 13.4174 11.5161 13.4974 11.5148C13.5937 11.5141 13.7027 11.5123 13.8808 11.4386C14.0587 11.3643 14.1363 11.2882 14.2049 11.2208C14.2618 11.165 14.307 11.1205 14.4273 11.0704C14.547 11.0202 14.6099 11.0196 14.6895 11.019C14.7855 11.0177 14.8944 11.0164 15.0726 10.9421L14.9482 10.6425C14.8284 10.6926 14.7656 10.6933 14.686 10.6939C14.59 10.6951 14.481 10.6964 14.3032 10.77C14.1253 10.8443 14.0477 10.9205 13.9791 10.9878C13.9222 11.0437 13.877 11.0881 13.757 11.1377C13.6364 11.1885 13.5732 11.1891 13.4933 11.1904C13.3969 11.191 13.288 11.1929 13.1098 11.2672C12.932 11.3408 12.8543 11.4177 12.7857 11.485C12.7298 11.5397 12.6835 11.5836 12.5683 11.6324L14.3988 9.79299L14.1701 9.56317L12.5224 11.2189C12.5297 11.1648 12.5316 11.1166 12.5321 11.073C12.533 10.9923 12.5337 10.9295 12.5835 10.8082C12.6335 10.6869 12.6777 10.6418 12.7333 10.5847C12.8008 10.5155 12.877 10.4368 12.9509 10.2578C13.0245 10.0787 13.0257 9.96952 13.0267 9.87301C13.0276 9.793 13.0283 9.72953 13.0779 9.60887C13.1278 9.48826 13.1717 9.44317 13.2273 9.38603C13.2945 9.31684 13.3707 9.23875 13.4442 9.06035L13.1454 8.93589C13.0955 9.0565 13.0516 9.1016 12.996 9.15874C12.9288 9.22792 12.8526 9.30602 12.779 9.48442C12.7055 9.66348 12.7042 9.77265 12.7033 9.86917C12.7023 9.94918 12.7017 10.0126 12.6521 10.1333C12.6021 10.2546 12.5579 10.2997 12.5023 10.3568C12.4348 10.426 12.3586 10.5047 12.2847 10.6838C12.2111 10.8628 12.2098 10.9726 12.2086 11.0692C12.208 11.1474 12.2058 11.2107 12.159 11.327V8.72571H11.8356V11.0664C11.8026 11.023 11.7703 10.9886 11.7398 10.9574C11.6839 10.9002 11.64 10.8545 11.5901 10.7339C11.5402 10.6126 11.5393 10.5491 11.5383 10.4685C11.5374 10.3719 11.5361 10.2621 11.4622 10.0831C11.3886 9.90465 11.3125 9.82656 11.2452 9.75737C11.1896 9.70023 11.1457 9.65514 11.0958 9.53453C11.0462 9.41392 11.0456 9.35041 11.0446 9.27039C11.0437 9.17388 11.0424 9.06471 10.9688 8.8863L10.67 9.01075C10.7196 9.13136 10.7202 9.19422 10.7212 9.27423C10.7221 9.37075 10.7234 9.47992 10.797 9.65898C10.8706 9.83738 10.9467 9.91548 11.014 9.98466C11.0696 10.0418 11.1135 10.0869 11.1634 10.2075C11.2133 10.3288 11.2142 10.3922 11.2152 10.4729C11.2161 10.5694 11.2174 10.6793 11.2913 10.8583C11.3649 11.0374 11.441 11.1155 11.5083 11.1847C11.5631 11.2407 11.6064 11.2874 11.6551 11.4028L9.8244 9.56312L9.5957 9.79295L11.4236 11.6297C11.3233 11.5839 11.2749 11.5419 11.2224 11.4907C11.1532 11.4227 11.0752 11.3459 10.8964 11.2716C10.7183 11.198 10.6093 11.196 10.5129 11.1948C10.4327 11.1941 10.3696 11.1929 10.2479 11.1421C10.1263 11.0919 10.0808 11.0475 10.023 10.991C9.95382 10.9237 9.8755 10.8468 9.69639 10.7719C9.51761 10.6976 9.4083 10.6964 9.31164 10.6951C9.23111 10.6938 9.1676 10.6926 9.046 10.6418L8.92216 10.9427C9.10094 11.017 9.21025 11.0182 9.30691 11.0195C9.38744 11.0208 9.45095 11.022 9.57255 11.0729C9.69447 11.123 9.73994 11.1675 9.79778 11.224C9.86697 11.2919 9.94529 11.3681 10.1241 11.4424C10.3029 11.5173 10.4122 11.5185 10.5085 11.5198C10.5887 11.5211 10.6519 11.5217 10.7729 11.5725C10.8938 11.6226 10.939 11.6671 10.9962 11.723C11.0255 11.7519 11.0583 11.7825 11.0981 11.8138H8.7627V12.1388H11.3461C11.2441 12.1779 11.1802 12.1828 11.1071 12.1839C11.0108 12.1846 10.9018 12.1865 10.7233 12.2601C10.5449 12.3344 10.4665 12.4112 10.3974 12.4785C10.3399 12.535 10.2947 12.5795 10.1737 12.6296C10.0521 12.6804 9.98861 12.6817 9.90807 12.683C9.81142 12.6842 9.70211 12.6855 9.52333 12.7598C9.34422 12.8347 9.26589 12.9109 9.19671 12.9788C9.13891 13.0353 9.0934 13.0798 8.9718 13.1299L9.09565 13.4309C9.27442 13.356 9.35275 13.2798 9.42194 13.2118C9.47973 13.1554 9.5252 13.1109 9.64717 13.0607C9.76876 13.0099 9.83228 13.0086 9.91281 13.0074C10.0095 13.0061 10.1188 13.0048 10.2978 12.9299C10.476 12.8556 10.554 12.7795 10.6232 12.7115C10.6804 12.6557 10.7258 12.6112 10.8472 12.5611C10.9678 12.5103 11.0313 12.5097 11.1112 12.5084C11.1521 12.5081 11.1982 12.5054 11.2481 12.4993L9.59566 14.1597L9.82436 14.3896L11.6513 12.5537C11.6064 12.654 11.5648 12.7025 11.5136 12.7553C11.4464 12.8245 11.3702 12.9033 11.2963 13.0823C11.2224 13.2613 11.2208 13.3718 11.2199 13.4683C11.2186 13.5489 11.218 13.6124 11.1677 13.7343C11.1175 13.8568 11.073 13.9025 11.0171 13.9603C10.9495 14.0295 10.8734 14.1089 10.7991 14.2886C10.7249 14.4683 10.7236 14.5781 10.7224 14.6753C10.7211 14.7559 10.7202 14.82 10.6699 14.9419L10.9688 15.0664C11.043 14.8867 11.0443 14.7769 11.0455 14.6797C11.0468 14.5991 11.0477 14.535 11.0979 14.413C11.1481 14.2905 11.1927 14.2448 11.2486 14.187C11.3162 14.1178 11.3923 14.0385 11.4666 13.8588C11.5405 13.6797 11.5421 13.5693 11.543 13.4727C11.5443 13.3921 11.5449 13.3286 11.5951 13.2067C11.6451 13.0848 11.6893 13.0398 11.7452 12.982C11.7739 12.9524 11.8044 12.9193 11.8355 12.8793V15.2269H12.1589V12.6308C12.1975 12.7332 12.2023 12.7972 12.2035 12.871C12.2044 12.9675 12.206 13.0773 12.2799 13.2564C12.3535 13.436 12.43 13.5148 12.4972 13.584C12.5532 13.6418 12.5974 13.6875 12.6476 13.8093C12.6978 13.9313 12.6988 13.9954 12.7001 14.076C12.7013 14.1731 12.7026 14.283 12.7768 14.4627C12.851 14.6424 12.9271 14.7217 12.9948 14.7909C13.0507 14.8487 13.0952 14.8944 13.1454 15.017L13.4442 14.8925C13.37 14.7129 13.2939 14.6335 13.2263 14.5643C13.1704 14.5065 13.1258 14.4608 13.0756 14.3382C13.0254 14.2163 13.0244 14.1522 13.0232 14.0716C13.0219 13.9744 13.0206 13.8646 12.9464 13.6849C12.8725 13.5052 12.7964 13.4265 12.7291 13.3573C12.6732 13.2995 12.629 13.2538 12.5788 13.1319C12.5285 13.0107 12.5279 12.9472 12.5266 12.8665C12.5263 12.8254 12.5235 12.779 12.5174 12.7289L14.1701 14.3896L14.3988 14.1598L12.7513 12.5043C12.8048 12.5115 12.8527 12.5136 12.896 12.5142C12.9759 12.5148 13.0387 12.5154 13.1594 12.5656C13.28 12.6164 13.3252 12.6602 13.3824 12.7167C13.4512 12.784 13.5292 12.8608 13.7074 12.9351C13.8852 13.0087 13.9942 13.01 14.0902 13.0107C14.1698 13.0119 14.2327 13.0126 14.3527 13.0627C14.4728 13.1122 14.5176 13.1567 14.5744 13.2126C14.6433 13.2799 14.721 13.3567 14.8988 13.431L15.0226 13.13C14.9026 13.0805 14.8577 13.0361 14.8009 12.9802C14.732 12.9129 14.6543 12.836 14.4765 12.7618C14.2987 12.6882 14.1897 12.6869 14.0937 12.6862C14.0141 12.685 13.9512 12.6843 13.8312 12.6342C13.7105 12.584 13.6654 12.5402 13.6082 12.4837C13.5394 12.4164 13.4614 12.3395 13.2832 12.2659C13.105 12.191 12.9961 12.1897 12.8997 12.1891C12.8212 12.1878 12.7578 12.1863 12.6414 12.1389H15.2317V11.8139H15.2318Z" fill="#F09146"/>
<path d="M11.9973 13.6019C12.8905 13.6019 13.6146 12.8742 13.6146 11.9765C13.6146 11.0789 12.8905 10.3512 11.9973 10.3512C11.1042 10.3512 10.3801 11.0789 10.3801 11.9765C10.3801 12.8742 11.1042 13.6019 11.9973 13.6019Z" fill="#FFE15A"/>
</g>
<defs>
<clipPath id="clip0_8615_27687">
<path d="M-0.00146484 2C-0.00146484 0.895432 0.893966 0 1.99854 0H21.9983C23.1029 0 23.9983 0.895431 23.9983 2V21.9998C23.9983 23.1043 23.1029 23.9998 21.9983 23.9998H1.99854C0.893967 23.9998 -0.00146484 23.1043 -0.00146484 21.9998V2Z" fill="white"/>
</clipPath>
</defs>
</svg>
