<svg width="24" height="24" viewBox="0 0 24 24" fill="none" xmlns="http://www.w3.org/2000/svg">
<g clip-path="url(#clip0_8615_27702)">
<path d="M23.9944 0H-0.00537109V23.9998H23.9944V0Z" fill="#41479B"/>
<path d="M4.41565 0H-0.00537109V0.936413L4.41565 3.83293V0Z" fill="#41479B"/>
<path d="M-0.00537109 3.20154V4.42107H1.85602L-0.00537109 3.20154Z" fill="#41479B"/>
<path d="M-0.00537109 7.57898V8.79851L1.85602 7.57898H-0.00537109Z" fill="#41479B"/>
<path d="M11.9945 0.936413V0H7.57349V3.83293L11.9945 0.936413Z" fill="#41479B"/>
<path d="M11.9944 8.79851V7.57898H10.1331L11.9944 8.79851Z" fill="#41479B"/>
<path d="M7.57349 8.16699V11.9999H11.9945V11.0635L7.57349 8.16699Z" fill="#41479B"/>
<path d="M11.9944 4.42107V3.20154L10.1331 4.42107H11.9944Z" fill="#41479B"/>
<path d="M-0.00537109 11.0635V11.9999H4.41565V8.16699L-0.00537109 11.0635Z" fill="#41479B"/>
<path d="M11.9945 11.0636V10.1278L8.06787 7.57898H9.22792L11.9945 9.37479V8.79851L10.1331 7.57898H11.9945V6.94739H6.94189V12H7.57344V8.16706L11.9945 11.0636Z" fill="#F5F5F5"/>
<path d="M-0.00537109 6.94739V7.57898H1.85602L-0.00537109 8.79851V9.68449L3.23821 7.57898H4.39826L-0.00537109 10.4375V11.0636L4.41565 8.16706V12H5.04719V6.94739H-0.00537109Z" fill="#F5F5F5"/>
<path d="M5.04719 0H4.41565V3.83293L-0.00537109 0.936413V1.96118L3.78406 4.42102H2.62401L-0.00537109 2.71422V3.20148L1.85602 4.42102H-0.00537109V5.05261H5.04719V0Z" fill="#F5F5F5"/>
<path d="M11.9945 5.05261V4.42102H10.1331L11.9945 3.20148V2.30421L8.73349 4.42102H7.57344L11.9945 1.55122V0.936413L7.57344 3.83293V0H6.94189V5.05261H11.9945Z" fill="#F5F5F5"/>
<path d="M11.9945 6.94728V5.05261H6.94195V0H5.04719V5.05261H-0.00537109V6.94728H5.04719V11.9999H6.94195V6.94728H11.9945Z" fill="#FF4B55"/>
<path d="M3.23821 7.57898L-0.00537109 9.68449V10.4375L4.39826 7.57898H3.23821Z" fill="#FF4B55"/>
<path d="M8.06787 7.57898L11.9945 10.1278V9.37479L9.22792 7.57898H8.06787Z" fill="#FF4B55"/>
<path d="M3.78406 4.42114L-0.00537109 1.9613V2.71434L2.62401 4.42114H3.78406Z" fill="#FF4B55"/>
<path d="M8.73354 4.42107L11.9945 2.30426V1.55127L7.57349 4.42107H8.73354Z" fill="#FF4B55"/>
<path d="M6.10747 15.8176L6.50507 17.1301L7.77907 16.6226C7.88777 16.5793 7.98658 16.7033 7.92021 16.7996L7.14195 17.9288L8.33308 18.6085C8.4347 18.6664 8.39941 18.821 8.28269 18.8291L6.91465 18.9247L7.12592 20.2797C7.14396 20.3953 7.00109 20.4641 6.92197 20.3779L5.99427 19.3679L5.06663 20.3779C4.9875 20.464 4.84463 20.3953 4.86267 20.2797L5.07394 18.9247L3.70586 18.8291C3.58914 18.8209 3.55389 18.6664 3.65547 18.6084L4.8466 17.9287L4.06834 16.7996C4.00196 16.7032 4.10078 16.5793 4.20948 16.6226L5.48348 17.1301L5.88107 15.8176C5.91501 15.7057 6.07354 15.7057 6.10747 15.8176Z" fill="#F5F5F5"/>
<path d="M18.0616 4.07228L18.2558 4.71343L18.8781 4.46551C18.9312 4.44437 18.9795 4.50488 18.9471 4.55194L18.5669 5.10352L19.1488 5.43553C19.1984 5.46384 19.1812 5.53936 19.1242 5.54334L18.4559 5.59003L18.5591 6.25194C18.5679 6.30843 18.4981 6.34199 18.4595 6.29994L18.0063 5.80659L17.5532 6.29994C17.5145 6.34204 17.4448 6.30843 17.4536 6.25194L17.5568 5.59003L16.8885 5.54334C16.8315 5.53936 16.8143 5.46384 16.8639 5.43553L17.4458 5.10352L17.0656 4.55194C17.0332 4.50488 17.0815 4.44432 17.1346 4.46551L17.7569 4.71343L17.9511 4.07228C17.9675 4.01757 18.045 4.01757 18.0616 4.07228Z" fill="#F5F5F5"/>
<path d="M13.731 9.94834L13.9252 10.5895L14.5476 10.3416C14.6007 10.3204 14.6489 10.3809 14.6165 10.428L14.2364 10.9796L14.8182 11.3116C14.8678 11.3399 14.8506 11.4154 14.7936 11.4194L14.1253 11.4661L14.2285 12.128C14.2373 12.1845 14.1675 12.2181 14.1289 12.176L13.6758 11.6827L13.2226 12.176C13.184 12.2181 13.1142 12.1845 13.123 12.128L13.2263 11.4661L12.558 11.4194C12.501 11.4154 12.4837 11.3399 12.5334 11.3116L13.1152 10.9796L12.7351 10.428C12.7026 10.3809 12.7509 10.3204 12.804 10.3416L13.4264 10.5895L13.6206 9.94834C13.637 9.89368 13.7144 9.89368 13.731 9.94834Z" fill="#F5F5F5"/>
<path d="M22.1585 6.88649L22.3527 7.52764L22.975 7.27972C23.0281 7.25858 23.0764 7.31909 23.044 7.36615L22.6638 7.91773L23.2457 8.24974C23.2953 8.27805 23.2781 8.35357 23.2211 8.35755L22.5528 8.40424L22.656 9.06615C22.6648 9.12264 22.595 9.1562 22.5564 9.11415L22.1033 8.6208L21.6501 9.11415C21.6115 9.15625 21.5417 9.12264 21.5505 9.06615L21.6537 8.40424L20.9855 8.35755C20.9285 8.35357 20.9112 8.27805 20.9608 8.24974L21.5427 7.91773L21.1625 7.36615C21.1301 7.31909 21.1784 7.25853 21.2315 7.27972L21.8538 7.52764L22.048 6.88649C22.0645 6.83178 22.1419 6.83178 22.1585 6.88649Z" fill="#F5F5F5"/>
<path d="M18.0616 17.2533L18.2558 17.8945L18.8781 17.6465C18.9312 17.6254 18.9795 17.6859 18.9471 17.733L18.5669 18.2845L19.1488 18.6166C19.1984 18.6449 19.1812 18.7204 19.1242 18.7244L18.4559 18.7711L18.5591 19.433C18.5679 19.4895 18.4981 19.5231 18.4595 19.481L18.0063 18.9876L17.5532 19.481C17.5145 19.5231 17.4448 19.4895 17.4536 19.433L17.5568 18.7711L16.8885 18.7244C16.8315 18.7204 16.8143 18.6449 16.8639 18.6166L17.4458 18.2845L17.0656 17.733C17.0332 17.6859 17.0815 17.6254 17.1346 17.6465L17.7569 17.8945L17.9511 17.2533C17.9675 17.1986 18.045 17.1986 18.0616 17.2533Z" fill="#F5F5F5"/>
<path d="M19.5641 11.5765L19.4082 12.044L18.9154 12.0478C18.8516 12.0484 18.8251 12.1298 18.8764 12.1676L19.2729 12.4604L19.1243 12.9303C19.105 12.9911 19.1743 13.0414 19.2262 13.0044L19.6271 12.7178L20.028 13.0044C20.0799 13.0415 20.1492 12.9911 20.1299 12.9303L19.9813 12.4604L20.3777 12.1676C20.4291 12.1297 20.4026 12.0483 20.3388 12.0478L19.846 12.044L19.6901 11.5765C19.6699 11.516 19.5842 11.516 19.5641 11.5765Z" fill="#F5F5F5"/>
</g>
<defs>
<clipPath id="clip0_8615_27702">
<path d="M-0.00146484 2C-0.00146484 0.895432 0.893966 0 1.99854 0H21.9983C23.1029 0 23.9983 0.895431 23.9983 2V21.9998C23.9983 23.1043 23.1029 23.9998 21.9983 23.9998H1.99854C0.893967 23.9998 -0.00146484 23.1043 -0.00146484 21.9998V2Z" fill="white"/>
</clipPath>
</defs>
</svg>
