<svg width="24" height="24" viewBox="0 0 24 24" fill="none" xmlns="http://www.w3.org/2000/svg">
<g clip-path="url(#clip0_8615_27556)">
<path d="M23.9959 15.9998H-0.00390625V23.9998H23.9959V15.9998Z" fill="#73AF00"/>
<path d="M23.9959 0H-0.00390625V8.00008H23.9959V0Z" fill="#82AFFF"/>
<path d="M23.9959 8.00012H-0.00390625V16.0002H23.9959V8.00012Z" fill="#FF4B55"/>
<path d="M12.86 14.619C11.4427 14.619 10.2929 13.4693 10.2929 12.0506C10.2929 10.6346 11.4427 9.48228 12.86 9.48228C13.3874 9.48228 13.8737 9.64447 14.2789 9.91897C14.341 9.96101 14.4118 9.87945 14.3598 9.8254C13.7542 9.19569 12.8969 8.81151 11.9464 8.84395C10.3135 8.89968 8.9617 10.2089 8.85736 11.8394C8.73783 13.7071 10.2167 15.2592 12.0579 15.2592C12.9649 15.2592 13.78 14.88 14.3621 14.2738C14.4135 14.2202 14.3425 14.1399 14.281 14.1816C13.8754 14.4567 13.3883 14.619 12.86 14.619Z" fill="#F5F5F5"/>
<path d="M15.1076 10.4697L15.374 11.2186L16.0919 10.8774C16.146 10.8517 16.2023 10.9081 16.1767 10.9622L15.8354 11.68L16.5843 11.9464C16.6407 11.9664 16.6407 12.0462 16.5843 12.0663L15.8354 12.3326L16.1767 13.0505C16.2023 13.1046 16.146 13.161 16.0919 13.1353L15.374 12.7941L15.1076 13.543C15.0876 13.5994 15.0078 13.5994 14.9877 13.543L14.7214 12.7941L14.0035 13.1353C13.9494 13.161 13.893 13.1046 13.9187 13.0505L14.26 12.3326L13.511 12.0663C13.4547 12.0462 13.4547 11.9664 13.511 11.9464L14.26 11.68L13.9187 10.9622C13.893 10.9081 13.9494 10.8517 14.0035 10.8774L14.7214 11.2186L14.9877 10.4697C15.0078 10.4133 15.0876 10.4133 15.1076 10.4697Z" fill="#F5F5F5"/>
</g>
<defs>
<clipPath id="clip0_8615_27556">
<path d="M-0.00146484 2C-0.00146484 0.895432 0.893966 0 1.99854 0H21.9983C23.1029 0 23.9983 0.895431 23.9983 2V21.9998C23.9983 23.1043 23.1029 23.9998 21.9983 23.9998H1.99854C0.893967 23.9998 -0.00146484 23.1043 -0.00146484 21.9998V2Z" fill="white"/>
</clipPath>
</defs>
</svg>
