<svg width="24" height="24" viewBox="0 0 24 24" fill="none" xmlns="http://www.w3.org/2000/svg">
<g clip-path="url(#clip0_8615_27510)">
<path d="M23.9949 0.00012207H-0.00488281V2.66677H23.9949V0.00012207Z" fill="#FFE15A"/>
<path d="M23.9949 2.66675H-0.00488281V5.33339H23.9949V2.66675Z" fill="#FF4B55"/>
<path d="M23.9949 5.3335H-0.00488281V8.00014H23.9949V5.3335Z" fill="#FFE15A"/>
<path d="M23.9949 8.00012H-0.00488281V10.6668H23.9949V8.00012Z" fill="#FF4B55"/>
<path d="M23.9915 10.6667H-0.00830078V13.3334H23.9915V10.6667Z" fill="#FFE15A"/>
<path d="M23.9915 21.333H-0.00830078V23.9997H23.9915V21.333Z" fill="#FFE15A"/>
<path d="M23.9949 13.333H-0.00488281V15.9997H23.9949V13.333Z" fill="#FF4B55"/>
<path d="M23.9949 15.9998H-0.00488281V18.6664H23.9949V15.9998Z" fill="#FFE15A"/>
<path d="M23.9949 18.6665H-0.00488281V21.3331H23.9949V18.6665Z" fill="#FF4B55"/>
<path d="M16.0902 11.9999H-0.00488281V0H16.5764V11.5138C16.5764 11.7822 16.3587 11.9999 16.0902 11.9999Z" fill="#64466E"/>
<path d="M14.8538 5.42715H13.5895V3.98224H13.7702V3.62103H13.5895H12.1446H11.964V3.98224H12.1446V5.42715H11.4221V3.98224H11.6027V3.62103H11.4221H9.9772H9.7966V3.98224H9.9772V5.42715H8.89351V3.62103H9.07412V3.25977H7.26795V3.62098H7.44856V5.42715H6.36486V3.98224H6.54547V3.62103H6.36486H4.91996H4.73935V3.98224H4.91996V5.42715H4.19748V3.98224H4.37809V3.62103H4.19748H2.75252H2.57192V3.98224H2.75252V5.42715H1.48822H1.30762V5.78837H1.48822V9.03944H2.75252H4.01682V7.95575C4.01682 7.75625 4.17854 7.59454 4.37804 7.59454C4.57754 7.59454 4.73926 7.7563 4.73926 7.95575V9.03944H4.91986H6.36477H6.54538V7.95575C6.54538 7.75625 6.7071 7.59454 6.90659 7.59454C7.10609 7.59454 7.26781 7.7563 7.26781 7.95575V9.03944H7.44842H7.62902V7.7751C7.62902 7.47585 7.8716 7.23323 8.17089 7.23323C8.47019 7.23323 8.71276 7.47585 8.71276 7.7751V9.0394H8.89337H9.07398V7.9557C9.07398 7.75621 9.2357 7.59449 9.43519 7.59449C9.63469 7.59449 9.79641 7.75625 9.79641 7.9557V9.0394H9.97702H11.4219H11.6025V7.9557C11.6025 7.75621 11.7642 7.59449 11.9637 7.59449C12.1632 7.59449 12.325 7.75625 12.325 7.9557V9.0394H13.5893H14.8536V5.78832H15.0342V5.4271L14.8538 5.42715ZM3.83626 6.87206H3.11379V5.78837C3.11379 5.58887 3.2755 5.42715 3.475 5.42715C3.6745 5.42715 3.83622 5.58891 3.83622 5.78837L3.83626 6.87206ZM6.00365 6.87206H5.28117V5.78837C5.28117 5.58887 5.44289 5.42715 5.64239 5.42715C5.84189 5.42715 6.0036 5.58891 6.0036 5.78837L6.00365 6.87206ZM8.53225 5.78841H7.80977V5.06594C7.80977 4.86644 7.97149 4.70472 8.17099 4.70472C8.37049 4.70472 8.5322 4.86648 8.5322 5.06594L8.53225 5.78841ZM11.0609 6.87206H10.3384V5.78837C10.3384 5.58887 10.5001 5.42715 10.6996 5.42715C10.8991 5.42715 11.0609 5.58891 11.0609 5.78837V6.87206H11.0609ZM13.2283 6.87206H12.5058V5.78837C12.5058 5.58887 12.6675 5.42715 12.867 5.42715C13.0665 5.42715 13.2282 5.58891 13.2282 5.78837V6.87206H13.2283Z" fill="#F5F5F5"/>
</g>
<defs>
<clipPath id="clip0_8615_27510">
<path d="M-0.00146484 2C-0.00146484 0.895432 0.893966 0 1.99854 0H21.9983C23.1029 0 23.9983 0.895431 23.9983 2V21.9998C23.9983 23.1043 23.1029 23.9998 21.9983 23.9998H1.99854C0.893967 23.9998 -0.00146484 23.1043 -0.00146484 21.9998V2Z" fill="white"/>
</clipPath>
</defs>
</svg>
