<svg width="24" height="24" viewBox="0 0 24 24" fill="none" xmlns="http://www.w3.org/2000/svg">
<g clip-path="url(#clip0_8615_27703)">
<path d="M23.9946 0H-0.00512695V23.9998H23.9946V0Z" fill="#73AF00"/>
<path d="M15.2272 9.66872C17.2381 14.3923 12.7319 18.8985 8.00832 16.8875C6.85961 16.3985 5.94082 15.4797 5.45178 14.331C3.44081 9.60745 7.94705 5.10121 12.6706 7.11218C13.8194 7.60122 14.7382 8.52001 15.2272 9.66872Z" fill="#FF4B55"/>
</g>
<defs>
<clipPath id="clip0_8615_27703">
<path d="M-0.00146484 2C-0.00146484 0.895432 0.893966 0 1.99854 0H21.9983C23.1029 0 23.9983 0.895431 23.9983 2V21.9998C23.9983 23.1043 23.1029 23.9998 21.9983 23.9998H1.99854C0.893967 23.9998 -0.00146484 23.1043 -0.00146484 21.9998V2Z" fill="white"/>
</clipPath>
</defs>
</svg>
