<svg width="24" height="24" viewBox="0 0 24 24" fill="none" xmlns="http://www.w3.org/2000/svg">
<g clip-path="url(#clip0_8615_27683)">
<path d="M24.002 0H0.00219727V23.9998H24.002V0Z" fill="#FF4B55"/>
<path d="M24.002 2.90601L12.0021 10.7633L0.00219727 2.89429V5.37451L10.1147 11.9999L0.00219727 18.6253V21.105L12.0021 13.2365L24.002 21.1168V18.6253L13.8895 11.9999L24.002 5.37451V2.90601Z" fill="#73AF00"/>
<path d="M24.002 10.9654H13.0366V0H10.9676V10.9654H0.00219727V13.0344H10.9676V23.9998H13.0366V13.0344H24.002V10.9654Z" fill="#F5F5F5"/>
</g>
<defs>
<clipPath id="clip0_8615_27683">
<path d="M-0.00146484 2C-0.00146484 0.895432 0.893966 0 1.99854 0H21.9983C23.1029 0 23.9983 0.895431 23.9983 2V21.9998C23.9983 23.1043 23.1029 23.9998 21.9983 23.9998H1.99854C0.893967 23.9998 -0.00146484 23.1043 -0.00146484 21.9998V2Z" fill="white"/>
</clipPath>
</defs>
</svg>
