<svg width="24" height="24" viewBox="0 0 24 24" fill="none" xmlns="http://www.w3.org/2000/svg">
<g clip-path="url(#clip0_8615_27647)">
<path d="M24.0017 17.684H0.00195312V23.9998H24.0017V17.684Z" fill="#73AF00"/>
<path d="M24.0017 0H0.00195312V17.6839H24.0017V0Z" fill="#FF4B55"/>
<path d="M5.05456 0H0.00195312V23.9998H5.05456V0Z" fill="#F5F5F5"/>
<path d="M0.633836 22.9509H0.857146V22.3249H0.633836V22.9509ZM2.41657 22.9509H2.64002V22.3249H2.41657V22.9509ZM4.20047 22.9509H4.42285V22.3249H4.20047V22.9509ZM1.52633 21.2725H1.74743V20.7508H1.52633V21.2725ZM3.31023 21.2725H3.5326V20.7508H3.31023V21.2725ZM0.633836 19.9115H0.857146V19.2855H0.633836V19.9115ZM2.41657 19.9115H2.64002V19.2855H2.41657V19.9115ZM4.20047 19.9115H4.42285V19.2855H4.20047V19.9115ZM1.08177 20.7508H1.30288V20.2245H1.52633V19.7029H1.74743V20.2245H1.97206V20.7508H2.19316V21.2725H1.97201V21.7987H1.74739V22.3249H1.52628V21.7987H1.30283V21.2724H1.08172L1.08177 20.7508ZM2.86464 20.7508H3.08795V20.2245H3.31023V19.7029H3.5326V20.2245H3.75488V20.7508H3.97824V21.2725H3.75488V21.7987H3.5326V22.3249H3.31023V21.7987H3.08795V21.2724H2.86464V20.7508ZM3.31023 18.655V19.1766H3.08575V19.7029H2.86464V20.2245H2.64002V20.7508H2.41657V20.2245H2.19312V19.7029H1.97201V19.1766H1.74739V18.655H1.52628V19.1766H1.30283V19.7029H1.08172V20.2245H0.857099V20.7508H0.633789V21.2725H0.857099V21.7987H1.08172V22.3249H1.30283V22.8466H1.52628V23.3684H1.74973V22.8466H1.97201V22.3249H2.19312V21.7987H2.41657V21.2724H2.64002V21.7987H2.86464V22.3249H3.08795V22.8465H3.31023V23.3683H3.5326V22.8465H3.75488V22.3249H3.97824V21.7987H4.20164V21.2724H4.42289V20.7508H4.20052V20.2245H3.97824V19.7028H3.75488V19.1766H3.5326V18.6549H3.31023V18.655ZM3.86255 18.1333H3.97369V17.9246H4.086V18.1333H4.19832V18.3419H4.086V18.5551H3.97369V18.3419H3.86255V18.1333ZM3.86255 17.4028V17.7114H3.75259V18.0289H3.64028V18.4462H3.75254V18.7592H3.86251V19.0722H4.19822V18.7592H4.30936V18.4462H4.41933V18.0289H4.30936V17.7114H4.19822V17.4028H3.86255ZM0.857146 18.1287H0.969458V17.9201H1.08177V18.1287H1.19056V18.3419H1.08177V18.5506H0.969458V18.3419H0.857146V18.1287ZM0.857146 17.3983V17.7114H0.746007V18.0244H0.633836V18.4463H0.746007V18.7593H0.857146V19.0723H1.19056V18.7593H1.30288V18.4463H1.41181V18.0244H1.30288V17.7114H1.19056V17.3983H0.857146ZM2.08315 18.1287H2.19312V17.9201H2.3066V18.1287H2.41657V18.3419H2.3066V18.5506H2.19312V18.3419H2.08315V18.1287ZM2.64002 18.1287H2.75233V17.9201H2.86464V18.1287H2.97461V18.3419H2.86464V18.5506H2.75233V18.3419H2.64002V18.1287ZM2.64002 17.3983V17.7114H2.41657V17.3983H2.08315V17.7114H1.97201V18.0244H1.8597V18.4463H1.97201V18.7593H2.08315V19.0723H2.41657V18.7593H2.64002V19.0723H2.97461V18.7593H3.08795V18.4463H3.19689V18.0244H3.08795V17.7114H2.97461V17.3983H2.64002ZM0.633836 17.1851H0.857146V16.5591H0.633836V17.1851ZM2.41657 17.1851H2.64002V16.5591H2.41657V17.1851ZM4.20047 17.1851H4.42285V16.5591H4.20047V17.1851ZM0.633836 14.5676H0.857146V14.1503H0.633836V14.5676ZM4.20047 14.5676H4.42285V14.1503H4.20047V14.5676ZM2.41657 13.1024H2.64002V12.5807H2.41657V13.1024ZM0.633836 11.687V12V12.0046V12.3175H0.857146V12.0046V12V11.687H0.633836ZM1.85975 11.687V12V12.0046V12.3175H2.0832V12.0046V12V11.687H1.85975ZM2.97461 11.687V12V12.0046V12.3175H3.19689V12.0046V12V11.687H2.97461ZM4.20047 11.687V12V12.0046V12.3175H4.42285V12.0046V12V11.687H4.20047ZM2.75233 11.3196V11.5283H2.64002V11.687H2.41657V11.5283H2.3066V11.3196H2.08315V11.6326H2.19312V11.7913H2.3066V12V12.0046V12.2087H2.19312V12.3675H2.08315V12.6804H2.3066V12.4718H2.41657V12.3175H2.64002V12.4718H2.75233V12.6804H2.97461V12.3675H2.86464V12.2087H2.75233V12.0046V12V11.7913H2.86464V11.6326H2.97461V11.3196H2.75233ZM2.41657 11.4239H2.64002V10.9022H2.41657V11.4239ZM0.633836 9.85423H0.857146V9.43696H0.633836V9.85423ZM4.20047 9.85423H4.42285V9.43696H4.20047V9.85423ZM0.633836 7.4454H0.857146V6.81493H0.633836V7.4454ZM2.41657 7.4454H2.64002V6.81493H2.41657V7.4454ZM4.20047 7.4454H4.42285V6.81493H4.20047V7.4454ZM1.52633 12.0091V11.9955V11.7913H1.74743V11.4284H1.97206V11.0065H2.30665V10.5121H2.41662V10.2716H2.52893H2.64002V10.5075H2.75233V11.0065H3.08795V11.2152V11.4284H3.31023V11.7913H3.5326V12V12.2087H3.31023V12.5806H3.08795V12.7893V12.998H2.75233V13.4925H2.64002V13.7284H2.52893H2.41662V13.4925H2.30665V12.998H1.97201V12.5806H1.74739V12.2087H1.52628L1.52633 12.0091ZM3.31023 6.18433V6.71055H3.08575V7.23221H2.86464V7.75852H2.64002V8.1758V8.28019H2.41657V7.75852H2.19312V7.23221H1.97201V6.71055H1.74739V6.18433H1.52628V6.71055H1.30283V7.23221H1.07938V7.75852H0.857099V8.1758V8.28019H0.633789V8.8064H0.857099V9.33261H1.07938V9.85428H1.30283V10.376H1.52628V9.85428H1.74739V9.33261H1.97201V8.8064H1.74739V8.1758H1.97201V8.28019V8.59771H2.19312V9.437H2.3066V9.95412L1.97201 9.95867V10.376H1.74739V10.689H1.52628V11.2152H1.30283V10.689H1.07938V10.376H0.857099V10.063H0.633789V11.0065H0.857099V11.4285H1.07938V11.7914H1.30283V12V12.0046V12.2087H1.07938V12.5806H0.857099V12.998H0.633789V13.9416H0.857099V13.624H1.07938V13.311H1.30283V12.7894H1.52628V13.311H1.74739V13.624H1.97201V14.0459L2.3066 14.0505V14.5676H2.19312V15.4069H1.97201V15.7199V15.8288H1.74739V15.1937H1.97201V14.672H1.74739V14.1503H1.52628V13.624H1.30283V14.1503H1.07938V14.672H0.857099V15.1937H0.633789V15.7199H0.857099V15.8288V16.2415H1.08172V16.7679H1.30283V17.2941H1.52628V17.8157H1.74739V17.294H1.97201V16.7678H2.19312V16.2415H2.41657V15.7198H2.64002V15.8288V16.2415H2.86464V16.7678H3.08795V17.294H3.31023V17.8157H3.5326V17.294H3.75488V16.7678H3.97824V16.2415H4.20047V15.7198H4.42285V15.1936H4.20047V14.672H3.97824V14.1503H3.75488V13.624H3.5326V14.1503H3.31023V14.672H3.08575V15.1936H3.31023V15.7198V15.8288H3.08575V15.7198V15.4069H2.86464V14.5676H2.83281H2.75233V14.0459H2.83281H2.89295H2.97461H3.08795V13.624H3.31023V13.311H3.5326V12.7894H3.75488V13.311H3.97824V13.624H4.20164V13.9416H4.42289V12.9981H4.20164V12.5807H3.97824V12.2087H3.75488V12.0046V12V11.7913H3.97824V11.4284H4.20164V11.0065H4.42289V10.0629H4.20164V10.376H3.97824V10.689H3.75488V11.2152H3.5326V10.689H3.31023V10.376H3.08795V9.95862H2.97461H2.89295H2.83281H2.75233V9.43696H2.83281H2.86464V8.59767H3.08575V8.28014V8.17575H3.31023V8.28014V8.80635H3.08575V9.33257H3.31023V9.85423H3.5326V10.376H3.75488V9.85423H3.97824V9.33257H4.20047V8.80635H4.42285V8.28014H4.20047V7.75847H3.97824V7.23217H3.75488V6.7105H3.5326V6.18428H3.31023V6.18433ZM0.857146 5.66266H0.967255V5.45398H1.08177V5.66266H1.19056V5.87135H1.08177V6.08458H0.967255V5.87135H0.857146V5.66266ZM0.857146 5.24075H0.746007V5.55828H0.633836V5.97565H0.746007V6.29317H0.857146V6.60625H1.19056V6.29317H1.30288V5.97565H1.41181V5.55828H1.30288V5.24075H1.19056V4.93231H0.857146V5.24075ZM2.08315 5.66266H2.19312V5.45398H2.3066V5.66266H2.41657V5.87135H2.3066V6.08458H2.19312V5.87135H2.08315V5.66266ZM2.64002 5.66266H2.75233V5.45398H2.86464V5.66266H2.97461V5.87135H2.86464V6.08458H2.75233V5.87135H2.64002V5.66266ZM2.08315 5.24075H1.97201V5.55828H1.8597V5.97565H1.97201V6.29317H2.08315V6.60625H2.41657V6.29317H2.64002V6.60625H2.97461V6.29317H3.08795V5.97565H3.19689V5.55828H3.08795V5.24075H2.97461V4.93231H2.64002V5.24075H2.41657V4.93231H2.08315V5.24075ZM3.86255 5.65812H3.97369V5.45398H4.086V5.65812H4.19832V5.87135H4.086V6.07994H3.97369V5.87135H3.86255V5.65812ZM3.86255 4.92777V5.24075H3.75259V5.55828H3.64028V5.97565H3.75254V6.28863H3.86251V6.6017H4.19822V6.28863H4.30936V5.97565H4.41933V5.55828H4.30936V5.24075H4.19822V4.92777H3.86255ZM0.633836 4.71908H0.857146V4.09302H0.633836V4.71908ZM2.41657 4.71908H2.64002V4.09302H2.41657V4.71908ZM4.20047 4.71908H4.42285V4.09302H4.20047V4.71908ZM1.52633 3.25383H1.74743V2.72752H1.52633V3.25383ZM3.31023 3.25383H3.5326V2.72752H3.31023V3.25383ZM0.633836 1.67969H0.857146V1.05358H0.633836V1.67969ZM2.41657 1.67969H2.64002V1.05358H2.41657V1.67969ZM4.20047 1.67969H4.42285V1.05358H4.20047V1.67969ZM1.08177 2.72752H1.30288V2.20585H1.52633V1.67969H1.74743V2.2059H1.97206V2.72757H2.19316V3.25388H1.97201V3.77554H1.74739V4.30176H1.52628V3.7755H1.30283V3.25383H1.08172L1.08177 2.72752ZM2.86464 2.72752H3.08795V2.20585H3.31023V1.67969H3.5326V2.2059H3.75488V2.72757H3.97824V3.25388H3.75488V3.77554H3.5326V4.30176H3.31023V3.7755H3.08795V3.25383H2.86464V2.72752ZM3.31023 0.631714V1.15802H3.08795V1.67969H2.86464V2.2059H2.64002V2.72757H2.41657V2.20585H2.19312V1.67969H1.97201V1.15802H1.74973V0.631714H1.52628V1.15802H1.30283V1.67969H1.08172V2.2059H0.857099V2.72757H0.633789V3.25388H0.857099V3.77554H1.08172V4.30176H1.30283V4.82797H1.52628V5.34964H1.74739V4.82797H1.97201V4.30171H2.19312V3.7755H2.41657V3.25383H2.64002V3.7755H2.86464V4.30171H3.08575V4.82792H3.31023V5.34959H3.5326V4.82792H3.75488V4.30171H3.97824V3.7755H4.20047V3.25383H4.42285V2.72752H4.2016V2.20585H3.97824V1.67969H3.75488V1.15802H3.5326V0.631714H3.31023Z" fill="#FF4B55"/>
</g>
<defs>
<clipPath id="clip0_8615_27647">
<path d="M-0.00146484 2C-0.00146484 0.895432 0.893966 0 1.99854 0H21.9983C23.1029 0 23.9983 0.895431 23.9983 2V21.9998C23.9983 23.1043 23.1029 23.9998 21.9983 23.9998H1.99854C0.893967 23.9998 -0.00146484 23.1043 -0.00146484 21.9998V2Z" fill="white"/>
</clipPath>
</defs>
</svg>
