<svg width="24" height="24" viewBox="0 0 24 24" fill="none" xmlns="http://www.w3.org/2000/svg">
<g clip-path="url(#clip0_8615_27624)">
<path d="M24.0042 0H0.00439453V2.5263H24.0042V0Z" fill="#FF4B55"/>
<path d="M24.0042 21.4738H0.00439453V24.0001H24.0042V21.4738Z" fill="#FF4B55"/>
<path d="M24.0012 2.52637H0.00146484V21.4735H24.0012V2.52637Z" fill="#41479B"/>
<path d="M18.6458 6.89175C23.8394 15.1317 15.1332 23.838 6.89317 18.6444C6.27312 18.2535 5.74789 17.7283 5.35709 17.1083C0.163489 8.86826 8.86969 0.162019 17.1097 5.35562C17.7298 5.74646 18.255 6.27165 18.6458 6.89175Z" fill="#F5F5F5"/>
<path d="M10.4222 16.3173L9.1556 16.5284C8.99594 16.5551 8.85059 16.4319 8.85059 16.2701V15.7935H10.4222V16.3173Z" fill="#82AFFF"/>
<path d="M13.5654 16.3173L14.832 16.5284C14.9917 16.5551 15.137 16.4319 15.137 16.2701V15.7935H13.5654V16.3173Z" fill="#82AFFF"/>
<path d="M11.737 7.79653H11.6275C11.496 7.79653 11.3779 7.72336 11.319 7.60599L11.1252 7.21848L11.301 7.13049L11.4948 7.518C11.5201 7.56863 11.571 7.60013 11.6275 7.60013H11.737V7.79653Z" fill="#965032"/>
<path d="M10.0327 8.0413L9.70801 7.39185L9.53222 7.47974L9.85695 8.12919L10.0327 8.0413Z" fill="#965032"/>
<path d="M12.359 10.8167L11.8222 10.2801C11.7056 10.1634 11.6387 10.002 11.6387 9.83701V9.6564C11.6387 9.59017 11.6229 9.52365 11.5932 9.46431L11.4595 9.19675C11.4316 9.14097 11.3754 9.10619 11.313 9.10619H10.8511C10.7137 9.10619 10.5903 9.02997 10.5289 8.90716L10.3394 8.52808L10.5151 8.4401L10.7046 8.81917C10.7325 8.87495 10.7887 8.90973 10.8511 8.90973H11.313C11.4504 8.90973 11.5738 8.98595 11.6352 9.10876L11.769 9.37632C11.8122 9.46304 11.8351 9.55974 11.8351 9.6564V9.83701C11.8351 9.9503 11.8811 10.0611 11.9611 10.1409L12.1625 10.3425V9.42723C12.1625 9.17912 12.0771 8.93584 11.9221 8.74197C11.7393 8.51327 11.6387 8.22654 11.6387 7.9339V7.17444H11.8351V7.9339C11.8351 8.18201 11.9206 8.42529 12.0756 8.61916C12.2584 8.84786 12.359 9.13459 12.359 9.42723V10.8167Z" fill="#965032"/>
<path d="M11.8916 10.3087H11.6C11.4201 10.3087 11.2573 10.1954 11.1946 10.0271L11.1208 9.82805L11.305 9.75952L11.3788 9.95855C11.413 10.0507 11.5018 10.1123 11.6 10.1123H11.8916V10.3087Z" fill="#965032"/>
<path d="M11.7709 9.4599L11.5911 9.38059L12.6946 6.8728L12.8744 6.95207L11.7709 9.4599Z" fill="#965032"/>
<path d="M13.1448 9.10619H12.1953V8.90974H12.9484V7.96021H13.1448V9.10619Z" fill="#965032"/>
<path d="M11.5016 10.0556H10.3966C10.2678 10.0556 10.1633 9.95114 10.1633 9.82229V9.50307C10.1633 9.37421 10.2678 9.26978 10.3966 9.26978H11.5016C11.6305 9.26978 11.7349 9.37421 11.7349 9.50307V9.82229C11.735 9.95114 11.6305 10.0556 11.5016 10.0556Z" fill="#73AF00"/>
<path d="M13.3351 10.0556H12.2301C12.1013 10.0556 11.9968 9.95114 11.9968 9.82229V9.50307C11.9968 9.37421 12.1013 9.26978 12.2301 9.26978H13.3351C13.464 9.26978 13.5684 9.37421 13.5684 9.50307V9.82229C13.5685 9.95114 13.464 10.0556 13.3351 10.0556Z" fill="#73AF00"/>
<path d="M14.121 9.26981H12.754C12.6252 9.26981 12.5208 9.16538 12.5208 9.03652V8.7173C12.5208 8.58844 12.6252 8.48401 12.754 8.48401H14.121C14.2499 8.48401 14.3543 8.58844 14.3543 8.7173V9.03652C14.3543 9.16538 14.2498 9.26981 14.121 9.26981Z" fill="#73AF00"/>
<path d="M14.3829 8.22196H12.2301C12.1013 8.22196 11.9968 8.11753 11.9968 7.98867V7.66945C11.9968 7.54059 12.1013 7.43616 12.2301 7.43616H14.3829C14.5117 7.43616 14.6162 7.54059 14.6162 7.66945V7.98867C14.6162 8.11753 14.5117 8.22196 14.3829 8.22196Z" fill="#73AF00"/>
<path d="M13.3352 7.17423H12.4921C12.3632 7.17423 12.2588 7.0698 12.2588 6.94094V6.62172C12.2588 6.49286 12.3632 6.38843 12.4921 6.38843H13.3352C13.464 6.38843 13.5685 6.49286 13.5685 6.62172V6.94094C13.5685 7.0698 13.464 7.17423 13.3352 7.17423Z" fill="#73AF00"/>
<path d="M9.92992 7.69816H9.34877C9.21992 7.69816 9.11548 7.59372 9.11548 7.46486V7.14565C9.11548 7.01679 9.21992 6.91235 9.34877 6.91235H9.92992C10.0588 6.91235 10.1632 7.01679 10.1632 7.14565V7.46486C10.1632 7.59372 10.0587 7.69816 9.92992 7.69816Z" fill="#73AF00"/>
<path d="M11.7636 7.4362H10.6586C10.5297 7.4362 10.4253 7.33176 10.4253 7.2029V6.88368C10.4253 6.75483 10.5297 6.65039 10.6586 6.65039H11.7636C11.8925 6.65039 11.9969 6.75483 11.9969 6.88368V7.2029C11.9969 7.33176 11.8925 7.4362 11.7636 7.4362Z" fill="#73AF00"/>
<path d="M11.5016 8.74589H9.61074C9.48188 8.74589 9.37744 8.64145 9.37744 8.51259V8.19338C9.37744 8.06452 9.48188 7.96008 9.61074 7.96008H11.5016C11.6304 7.96008 11.7349 8.06452 11.7349 8.19338V8.51259C11.7349 8.64145 11.6305 8.74589 11.5016 8.74589Z" fill="#73AF00"/>
<path d="M15.9258 14.2217H8.06782C7.77851 14.2217 7.54395 14.4562 7.54395 14.7455C7.54395 15.0349 7.77851 15.2694 8.06782 15.2694H10.1633C10.1633 15.5587 10.3979 15.7933 10.6872 15.7933H13.3065C13.5958 15.7933 13.8304 15.5587 13.8304 15.2694H15.9259C16.2152 15.2694 16.4497 15.0349 16.4497 14.7455C16.4497 14.4562 16.2151 14.2217 15.9258 14.2217Z" fill="#73AF00"/>
<path d="M17.2198 9.57254C17.2003 9.53326 17.098 9.5799 17.0343 9.55618C16.243 9.262 15.1805 8.72617 14.4861 8.36083L14.3467 8.1401L13.0305 7.50036C12.9467 7.45962 12.8458 7.49094 12.7997 7.57194L12.7348 7.68603C12.6853 7.77307 12.718 7.88384 12.8068 7.93006L14.0602 8.58213L14.4144 8.55593L15.791 9.26364C15.791 9.26364 16.7262 9.74204 16.7759 9.7772C16.8257 9.81235 16.8542 10.0091 16.9469 9.99272C17.0133 9.98101 17.3045 9.74274 17.2198 9.57254Z" fill="#BE7855"/>
<path d="M8.53597 14.6149C8.53597 14.6149 8.62329 15.0023 8.5414 15.046C8.45956 15.0896 8.02297 15.0896 8.03389 14.9968C8.04481 14.9041 8.10481 14.5767 8.10481 14.5767L8.53597 14.6149Z" fill="#FFBE3C"/>
<path d="M9.26163 14.4075C9.26163 14.4075 9.19071 14.6967 9.33255 14.7076C9.47444 14.7185 10.2766 14.713 10.2984 14.6912C10.3203 14.6694 10.3476 14.6148 10.3476 14.6148L9.6054 14.4075H9.26163Z" fill="#FFBE3C"/>
<path d="M8.44903 10.8003C8.44903 10.8003 8.25394 11.2641 8.18302 12.8712C8.16413 13.2988 8.21574 13.1986 8.00293 14.5738L8.25549 14.7056C8.32904 14.744 8.41735 14.7412 8.48832 14.6982L8.73417 14.5492C8.73417 14.5492 8.61413 13.0104 9.00703 12.1263C9.00703 12.1263 9.2144 12.5083 9.2144 12.7921C9.2144 13.0759 9.20348 14.4401 9.20348 14.4401C9.20348 14.4401 9.66187 14.5165 9.86924 14.4947C9.86924 14.4947 9.73827 11.5343 9.6073 10.8371L8.44903 10.8003Z" fill="#EAF3F5"/>
<path d="M8.48917 10.6039C8.48917 10.6039 8.41141 10.6612 8.45233 10.8003C8.45233 10.8003 9.04988 11.0582 9.61055 10.8372C9.61055 10.8372 9.67196 10.7471 9.59419 10.6366L8.48917 10.6039Z" fill="#965032"/>
<path d="M7.68975 9.18503C7.34967 9.31145 6.83302 9.62705 6.86574 9.87807C6.8985 10.1291 7.07639 10.0679 7.13185 10.0062C7.1873 9.94458 7.34667 9.74677 7.39641 9.71166C7.44614 9.6765 8.25041 9.26359 8.25041 9.26359L10.38 8.16869C10.38 8.16869 10.3963 8.06229 10.2695 7.97632C10.2695 7.97632 8.96666 8.71028 7.68975 9.18503Z" fill="#965032"/>
<path d="M8.69046 7.95176L8.67818 8.0418C8.67818 8.0418 8.64546 8.61888 8.83371 8.77441C8.83371 8.77441 8.87463 8.89309 8.80915 8.95037C8.74366 9.00765 8.09703 9.33507 8.09703 9.33507C8.09703 9.33507 7.92922 9.68297 7.93334 9.87943C7.93334 9.87943 7.77373 9.81802 7.79009 9.74026C7.80645 9.66249 7.90058 9.45784 7.87194 9.35963C7.8433 9.26143 7.73689 9.29007 7.73689 9.29007C7.73689 9.29007 7.68369 9.34735 7.76961 9.3842L7.74097 9.50696L7.39307 9.71162L7.47083 9.80574C7.47083 9.80574 7.47491 10.5261 7.90058 10.6202C7.90058 10.6202 8.12567 10.6365 8.39168 10.1291C8.39168 10.1291 8.53493 10.3828 8.48581 10.6038C8.48581 10.6038 8.95239 10.8576 9.59083 10.6365L9.59903 10.1945C9.59903 10.1945 9.69723 10.8739 10.0329 10.8084C10.0329 10.8084 10.9625 10.4506 10.8077 10.3146C10.4476 9.99807 10.0127 10.2655 10.0127 10.2655C9.9916 9.80579 9.95312 9.21114 9.89373 9.14678C9.79553 9.04037 9.49262 9.09765 9.43262 8.96125C9.37263 8.82484 9.38898 8.5847 9.45447 8.30641C9.51995 8.02812 9.1871 7.83167 9.1871 7.83167L8.69046 7.95176Z" fill="#FFBE3C"/>
<path d="M8.67839 8.04185C8.67839 8.04185 9.01261 8.12641 9.27455 8.02277L9.38915 8.30655H9.45464C9.45464 8.30655 9.61242 7.78141 9.40289 7.78755C9.40289 7.78755 9.40209 7.61707 9.03619 7.62424C8.72185 7.63038 8.61291 7.83448 8.67839 8.04185Z" fill="#464655"/>
<path d="M15.5031 14.6149C15.5031 14.6149 15.4158 15.0023 15.4977 15.046C15.5795 15.0896 16.0161 15.0896 16.0052 14.9968C15.9943 14.9041 15.9343 14.5767 15.9343 14.5767L15.5031 14.6149Z" fill="#965032"/>
<path d="M14.7773 14.4075C14.7773 14.4075 14.8483 14.6967 14.7064 14.7076C14.5645 14.7185 13.7624 14.713 13.7405 14.6912C13.7187 14.6694 13.6914 14.6148 13.6914 14.6148L14.4336 14.4075H14.7773Z" fill="#965032"/>
<path d="M15.5892 10.8003C15.5892 10.8003 15.7842 11.2641 15.8552 12.8712C15.8741 13.2988 15.8224 13.1986 16.0353 14.5738L15.7827 14.7056C15.7091 14.744 15.6208 14.7412 15.5499 14.6982L15.304 14.5492C15.304 14.5492 15.4241 13.0104 15.0312 12.1263C15.0312 12.1263 14.8238 12.5083 14.8238 12.7921C14.8238 13.0759 14.8347 14.4401 14.8347 14.4401C14.8347 14.4401 14.3763 14.5165 14.1689 14.4947C14.1689 14.4947 14.2999 11.5343 14.4309 10.8371L15.5892 10.8003Z" fill="#EAF3F5"/>
<path d="M15.5524 10.6039C15.5524 10.6039 15.6301 10.6612 15.5892 10.8003C15.5892 10.8003 14.9916 11.0582 14.431 10.8372C14.431 10.8372 14.3696 10.7471 14.4473 10.6366L15.5524 10.6039Z" fill="#BE7855"/>
<path d="M15.3476 7.95176L15.3599 8.0418C15.3599 8.0418 15.3926 8.61888 15.2043 8.77441C15.2043 8.77441 15.1634 8.89309 15.2289 8.95037C15.2944 9.00765 15.941 9.33507 15.941 9.33507C15.941 9.33507 16.1088 9.68297 16.1047 9.87943C16.1047 9.87943 16.2643 9.81802 16.248 9.74026C16.2316 9.66249 16.1375 9.45784 16.1661 9.35963C16.1948 9.26143 16.3012 9.29007 16.3012 9.29007C16.3012 9.29007 16.3544 9.34735 16.2684 9.3842L16.297 9.50696L16.6449 9.71162L16.5672 9.80574C16.5672 9.80574 16.5631 10.5261 16.1374 10.6202C16.1374 10.6202 15.9123 10.6365 15.6463 10.1291C15.6463 10.1291 15.5031 10.3828 15.5522 10.6038C15.5522 10.6038 15.0856 10.8576 14.4472 10.6365L14.439 10.1945C14.439 10.1945 14.3408 10.8739 14.0052 10.8084C14.0052 10.8084 13.0755 10.4506 13.2303 10.3146C13.5904 9.99807 14.0253 10.2655 14.0253 10.2655C14.0464 9.80579 14.0849 9.21114 14.1443 9.14678C14.2425 9.04037 14.5454 9.09765 14.6054 8.96125C14.6654 8.82484 14.649 8.5847 14.5835 8.30641C14.5181 8.02812 14.8509 7.83167 14.8509 7.83167L15.3476 7.95176Z" fill="#965032"/>
<path d="M15.3598 8.04185C15.3598 8.04185 15.0256 8.12641 14.7637 8.02277L14.6491 8.30655H14.5836C14.5836 8.30655 14.4258 7.78141 14.6353 7.78755C14.6353 7.78755 14.6361 7.61707 15.002 7.62424C15.3163 7.63038 15.4253 7.83448 15.3598 8.04185Z" fill="#464655"/>
<path d="M9.74503 8.26059C9.7177 8.19412 9.76349 8.17584 9.76349 8.17584C9.76349 8.17584 10.0948 7.99402 10.1333 7.99711C10.197 8.00227 10.275 8.1142 10.275 8.20973C10.275 8.30526 10.3994 8.55323 10.6552 8.61487C10.6552 8.61487 10.336 9.04869 9.89292 8.9894C9.89292 8.9894 9.92263 8.69263 9.74503 8.26059Z" fill="#EAF3F5"/>
<path d="M10.2092 10.2928C10.1111 10.2928 10.0315 10.3777 10.0315 10.4824V12.6502C10.0315 13.1741 10.2771 15.0076 11.996 15.5315C13.7149 15.0076 13.9605 13.1741 13.9605 12.6502V10.4824C13.9605 10.3777 13.8809 10.2928 13.7828 10.2928H10.2092Z" fill="#82AFFF"/>
<path d="M13.9606 12.6502V10.4824C13.9606 10.3777 13.8811 10.2928 13.7829 10.2928H11.9961V12.1264L13.7229 13.8532C13.914 13.3485 13.9606 12.8768 13.9606 12.6502Z" fill="#FFE15A"/>
<path d="M10.0315 12.6502V10.4824C10.0315 10.3777 10.111 10.2928 10.2092 10.2928H11.996V12.1264L10.2693 13.8532C10.078 13.3485 10.0315 12.8768 10.0315 12.6502Z" fill="#EAF3F5"/>
<path d="M10.8376 13.797L11.2921 14.2777H12.5582L12.8265 13.9337L12.5178 14.0572H11.4947L10.8376 13.797Z" fill="#8C5A28"/>
<path d="M11.3271 13.1766L11.2577 13.8764L10.9419 13.7558C10.9419 13.7558 11.0872 13.4186 11.3271 13.1766Z" fill="#F5F5F5"/>
<path d="M11.9947 12.8994H11.948V14.091H11.9947V12.8994Z" fill="#8C5A28"/>
<path d="M12.4263 13.0002H12.3796V14.091H12.4263V13.0002Z" fill="#8C5A28"/>
<path d="M11.5643 13.0002H11.5176V14.091H11.5643V13.0002Z" fill="#8C5A28"/>
<path d="M12.1466 13.9778H11.8001C11.7874 13.9778 11.7771 13.9675 11.7771 13.9548V13.7495C11.7771 13.7368 11.7874 13.7264 11.8001 13.7264H12.1466C12.1593 13.7264 12.1696 13.7368 12.1696 13.7495V13.9548C12.1696 13.9675 12.1593 13.9778 12.1466 13.9778Z" fill="#F5F5F5"/>
<path d="M12.1466 13.6426H11.8001C11.7874 13.6426 11.7771 13.6323 11.7771 13.6196V13.4143C11.7771 13.4015 11.7874 13.3912 11.8001 13.3912H12.1466C12.1593 13.3912 12.1696 13.4015 12.1696 13.4143V13.6196C12.1696 13.6323 12.1593 13.6426 12.1466 13.6426Z" fill="#F5F5F5"/>
<path d="M12.1466 13.3339H11.8001C11.7874 13.3339 11.7771 13.3236 11.7771 13.3109V13.1055C11.7771 13.0928 11.7874 13.0825 11.8001 13.0825H12.1466C12.1593 13.0825 12.1696 13.0928 12.1696 13.1055V13.3109C12.1696 13.3236 12.1593 13.3339 12.1466 13.3339Z" fill="#F5F5F5"/>
<path d="M12.5519 13.9778H12.2584C12.2457 13.9778 12.2354 13.9675 12.2354 13.9548V13.7495C12.2354 13.7368 12.2457 13.7264 12.2584 13.7264H12.5519C12.5646 13.7264 12.5749 13.7368 12.5749 13.7495V13.9548C12.5749 13.9675 12.5646 13.9778 12.5519 13.9778Z" fill="#F5F5F5"/>
<path d="M12.5519 13.6692H12.2584C12.2457 13.6692 12.2354 13.6589 12.2354 13.6462V13.4803C12.2354 13.4676 12.2457 13.4573 12.2584 13.4573H12.5519C12.5646 13.4573 12.5749 13.4676 12.5749 13.4803V13.6462C12.5749 13.6589 12.5646 13.6692 12.5519 13.6692Z" fill="#F5F5F5"/>
<path d="M12.5519 13.3634H12.2584C12.2457 13.3634 12.2354 13.353 12.2354 13.3403V13.2084C12.2354 13.1957 12.2457 13.1854 12.2584 13.1854H12.5519C12.5646 13.1854 12.5749 13.1957 12.5749 13.2084V13.3403C12.5749 13.3531 12.5646 13.3634 12.5519 13.3634Z" fill="#F5F5F5"/>
<path d="M11.6896 13.9778H11.3961C11.3834 13.9778 11.373 13.9675 11.373 13.9548V13.7495C11.373 13.7368 11.3834 13.7264 11.3961 13.7264H11.6896C11.7023 13.7264 11.7126 13.7368 11.7126 13.7495V13.9548C11.7126 13.9675 11.7023 13.9778 11.6896 13.9778Z" fill="#F5F5F5"/>
<path d="M11.6896 13.6692H11.3961C11.3834 13.6692 11.373 13.6589 11.373 13.6462V13.4803C11.373 13.4676 11.3834 13.4573 11.3961 13.4573H11.6896C11.7023 13.4573 11.7126 13.4676 11.7126 13.4803V13.6462C11.7126 13.6589 11.7023 13.6692 11.6896 13.6692Z" fill="#F5F5F5"/>
<path d="M11.6896 13.3634H11.3961C11.3834 13.3634 11.373 13.353 11.373 13.3403V13.2084C11.373 13.1957 11.3834 13.1854 11.3961 13.1854H11.6896C11.7023 13.1854 11.7126 13.1957 11.7126 13.2084V13.3403C11.7126 13.3531 11.7023 13.3634 11.6896 13.3634Z" fill="#F5F5F5"/>
<path d="M12.3835 13.0002V13.1412L12.176 13.0694L12.3835 13.0002Z" fill="#FF4B55"/>
<path d="M11.5219 13.0002V13.1412L11.3145 13.0694L11.5219 13.0002Z" fill="#FF4B55"/>
<path d="M11.9536 12.8989V13.0399L11.7461 12.9682L11.9536 12.8989Z" fill="#FF4B55"/>
<path d="M13.5552 14.2218H10.437C10.4835 14.3101 10.5344 14.3976 10.5916 14.4837H13.4007C13.4579 14.3976 13.5088 14.3101 13.5552 14.2218Z" fill="#4173CD"/>
<path d="M13.4007 14.4838H10.5916C10.7156 14.6705 10.8677 14.8479 11.05 15.0076H12.9423C13.1246 14.8479 13.2766 14.6705 13.4007 14.4838Z" fill="#73AF00"/>
<path d="M11.0498 15.0076C11.3012 15.2278 11.6097 15.4137 11.9959 15.5314C12.3822 15.4137 12.6906 15.2278 12.942 15.0076H11.0498Z" fill="#FFE15A"/>
<path d="M11.6595 12.2803C11.6595 12.2803 11.6403 12.287 11.6197 12.2846C11.6038 12.2778 11.5711 12.2767 11.5908 12.2162C11.6004 12.1862 11.6204 12.144 11.6059 12.133C11.5941 12.1194 11.5813 12.1046 11.5678 12.0888C11.5406 12.0573 11.5099 12.0218 11.4763 11.983C11.4075 11.9072 11.326 11.82 11.2309 11.734C11.1834 11.6909 11.1344 11.6464 11.0845 11.6012C11.0329 11.5576 10.9852 11.5089 10.9289 11.4683C10.8971 11.4516 10.8567 11.4432 10.8214 11.4301C10.7869 11.4162 10.7653 11.39 10.74 11.3678C10.6906 11.3221 10.6419 11.2772 10.5949 11.2338C10.4993 11.1482 10.4154 11.0633 10.3436 10.9904C10.274 10.9208 10.2177 10.8603 10.178 10.8162C10.1402 10.7742 10.1426 10.7104 10.1832 10.6711L10.2996 10.5588C10.3403 10.5195 10.4042 10.5194 10.4448 10.5587C10.4875 10.6 10.5459 10.6584 10.613 10.7304C10.6833 10.8048 10.7652 10.8917 10.8472 10.9902C10.889 11.0389 10.9321 11.0891 10.976 11.1401C10.9973 11.1662 11.0227 11.1887 11.0354 11.2237C11.0472 11.2595 11.0542 11.3002 11.0698 11.3326C11.1082 11.3902 11.1553 11.4396 11.1969 11.4928C11.2404 11.5442 11.2831 11.5948 11.3245 11.6438C11.407 11.7419 11.4912 11.8265 11.5645 11.898C11.6021 11.9329 11.6365 11.9648 11.667 11.9932C11.6823 12.0073 11.6966 12.0206 11.7098 12.0328C11.7202 12.0477 11.7632 12.0292 11.7935 12.0207C11.8546 12.0032 11.8546 12.0359 11.8608 12.052C11.8624 12.0727 11.855 12.0917 11.855 12.0917L11.6595 12.2803Z" fill="#BE7855"/>
<path d="M10.3766 12.4865C10.3564 12.4865 10.3361 12.4803 10.3185 12.4673C10.2749 12.4351 10.2655 12.3737 10.2978 12.33L11.2309 11.064C11.263 11.0205 11.3241 11.0108 11.3682 11.0433C11.4118 11.0756 11.4212 11.1369 11.389 11.1807L10.4558 12.4466C10.4366 12.4727 10.4068 12.4865 10.3766 12.4865Z" fill="#965032"/>
<path d="M11.1245 10.9803L11.6102 11.3023L11.8175 11.0131L11.3646 10.6475L11.1245 10.9803Z" fill="#F5F5F5"/>
<path d="M12.415 10.8559L13.6596 12.3907C13.6596 12.3907 13.8345 12.3987 13.8107 12.2595L12.5224 10.7485L12.415 10.8559Z" fill="#965032"/>
<path d="M12.1367 11.0666C12.1367 11.0666 12.4866 11.003 12.6337 10.7843L12.8325 11.0189C12.8325 11.0189 12.5065 11.2495 12.4747 11.5C12.4747 11.5 12.2083 11.4285 12.1367 11.0666Z" fill="#EAF3F5"/>
<path d="M13.478 10.9156C13.4551 10.9156 13.4331 10.9032 13.4217 10.8816C13.3863 10.8145 13.3802 10.7538 13.4035 10.7012C13.4362 10.6273 13.5131 10.6057 13.5217 10.6035C13.5564 10.5958 13.5904 10.6154 13.5992 10.6492C13.608 10.683 13.5878 10.7176 13.5541 10.7265C13.5471 10.7288 13.5262 10.738 13.5196 10.7531C13.5134 10.768 13.5186 10.7926 13.5343 10.8224C13.5507 10.8535 13.5387 10.892 13.5076 10.9084C13.4981 10.9134 13.4881 10.9156 13.478 10.9156Z" fill="#965032"/>
<path d="M12.4554 11.8625C12.4554 11.8396 12.443 11.8176 12.4214 11.8062C12.3543 11.7708 12.2936 11.7647 12.241 11.7881C12.1671 11.8207 12.1455 11.8977 12.1433 11.9062C12.1356 11.9409 12.1552 11.975 12.189 11.9838C12.2228 11.9925 12.2573 11.9723 12.2663 11.9387C12.2685 11.9316 12.2777 11.9107 12.2928 11.9041C12.3077 11.8979 12.3324 11.9031 12.3622 11.9188C12.3932 11.9352 12.4317 11.9232 12.4481 11.8921C12.4532 11.8826 12.4554 11.8726 12.4554 11.8625Z" fill="#965032"/>
<path d="M13.5232 10.7723L12.3516 11.9228L12.6273 12.2303L13.7724 11.0745L13.5232 10.7723Z" fill="#EAF3F5"/>
<path d="M7.57192 9.11413C7.65039 9.09594 7.71925 9.20146 7.64833 9.27782C7.57741 9.35418 7.37238 9.49222 7.30999 9.47971C7.20077 9.45791 7.12446 9.21782 7.57192 9.11413Z" fill="#FFBE3C"/>
<path d="M16.4618 9.2246C16.389 9.20642 16.3252 9.31193 16.391 9.38829C16.4568 9.46465 16.6468 9.60269 16.7047 9.59018C16.8059 9.56838 16.8767 9.32829 16.4618 9.2246Z" fill="#965032"/>
<path d="M13.7826 10.2928C13.8807 10.2928 13.9603 10.3777 13.9603 10.4824V12.6502C13.9603 13.1741 13.7148 15.0076 11.9958 15.5315C10.2769 15.0076 10.0313 13.1741 10.0313 12.6502V10.4824C10.0313 10.3777 10.1109 10.2928 10.2091 10.2928H13.7826ZM13.7826 10.1619H10.2091C10.0389 10.1619 9.90039 10.3057 9.90039 10.4824V12.6502C9.90039 12.7754 9.91727 13.4357 10.2504 14.1464C10.6046 14.9021 11.195 15.4243 11.9577 15.6567L11.9958 15.6684L12.034 15.6567C12.7967 15.4243 13.3871 14.9021 13.7412 14.1464C14.0744 13.4357 14.0913 12.7754 14.0913 12.6502V10.4824C14.0913 10.3056 13.9529 10.1619 13.7826 10.1619Z" fill="#464655"/>
<path d="M15.1408 15.5622C14.5842 15.3757 13.9871 15.4618 13.424 15.8375C12.7042 16.3173 12.227 16.3173 11.9977 16.3173C11.7684 16.3173 11.2912 16.3173 10.5714 15.8375C10.0083 15.462 9.41094 15.3758 8.85449 15.5622V16.1237C9.20516 15.9561 9.69955 15.886 10.2808 16.2734C11.1326 16.8412 11.7388 16.8412 11.9977 16.8412C12.2565 16.8412 12.8628 16.8412 13.7145 16.2734C14.2958 15.8856 14.7902 15.9559 15.1408 16.1236V15.5622Z" fill="#EAF3F5"/>
<path d="M11.9977 18.5438C8.31472 18.5438 5.31836 15.5474 5.31836 11.8645C5.31836 8.18154 8.31472 5.18518 11.9977 5.18518C15.6806 5.18518 18.6769 8.18154 18.6769 11.8645C18.6769 15.5474 15.6806 18.5438 11.9977 18.5438ZM11.9977 5.44707C8.45914 5.44707 5.58029 8.32578 5.58029 11.8644C5.58029 15.4031 8.45914 18.2818 11.9977 18.2818C15.5362 18.2818 18.415 15.4031 18.415 11.8644C18.415 8.32578 15.5362 5.44707 11.9977 5.44707Z" fill="#965032"/>
<path d="M4.68762 12.4211C4.68762 12.4211 4.66033 11.6025 5.44614 11.6025C5.44614 11.6025 5.4625 11.9245 5.17877 12.0664C4.94927 12.1811 4.68762 12.4211 4.68762 12.4211Z" fill="#73AF00"/>
<path d="M6.20474 12.4211C6.20474 12.4211 6.23202 11.6025 5.44622 11.6025C5.44622 11.6025 5.42986 11.9245 5.71359 12.0664C5.94309 12.1811 6.20474 12.4211 6.20474 12.4211Z" fill="#73AF00"/>
<path d="M19.2958 11.6025C19.2958 11.6025 19.3231 12.4211 18.5373 12.4211C18.5373 12.4211 18.5209 12.0991 18.8047 11.9572C19.0341 11.8425 19.2958 11.6025 19.2958 11.6025Z" fill="#73AF00"/>
<path d="M17.7784 11.6025C17.7784 11.6025 17.7512 12.4211 18.537 12.4211C18.537 12.4211 18.5533 12.0991 18.2696 11.9572C18.0401 11.8425 17.7784 11.6025 17.7784 11.6025Z" fill="#73AF00"/>
<path d="M12.4008 19.3158C12.4008 19.3158 11.5823 19.3431 11.5823 18.5573C11.5823 18.5573 11.9043 18.5409 12.0461 18.8247C12.1608 19.0541 12.4008 19.3158 12.4008 19.3158Z" fill="#73AF00"/>
<path d="M12.4008 17.7987C12.4008 17.7987 11.5823 17.7714 11.5823 18.5572C11.5823 18.5572 11.9043 18.5736 12.0461 18.2899C12.1608 18.0604 12.4008 17.7987 12.4008 17.7987Z" fill="#73AF00"/>
<path d="M11.5823 4.70763C11.5823 4.70763 12.4008 4.68035 12.4008 5.46616C12.4008 5.46616 12.0788 5.48252 11.937 5.19879C11.8222 4.96929 11.5823 4.70763 11.5823 4.70763Z" fill="#73AF00"/>
<path d="M11.5823 6.22476C11.5823 6.22476 12.4008 6.25204 12.4008 5.46624C12.4008 5.46624 12.0788 5.44988 11.937 5.73361C11.8222 5.96311 11.5823 6.22476 11.5823 6.22476Z" fill="#73AF00"/>
<path d="M7.11626 17.466C7.11626 17.466 6.51818 16.9065 7.07379 16.3508C7.07379 16.3508 7.31304 16.5669 7.21268 16.8679C7.13158 17.1113 7.11626 17.466 7.11626 17.466Z" fill="#73AF00"/>
<path d="M8.18912 16.3931C8.18912 16.3931 7.62963 15.795 7.07397 16.3506C7.07397 16.3506 7.29007 16.5899 7.59105 16.4895C7.83437 16.4084 8.18912 16.3931 8.18912 16.3931Z" fill="#73AF00"/>
<path d="M16.8669 6.55762C16.8669 6.55762 17.465 7.11711 16.9093 7.67276C16.9093 7.67276 16.6701 7.45667 16.7704 7.15569C16.8516 6.91232 16.8669 6.55762 16.8669 6.55762Z" fill="#73AF00"/>
<path d="M15.7942 7.63041C15.7942 7.63041 16.3537 8.22848 16.9093 7.67288C16.9093 7.67288 16.6932 7.43363 16.3923 7.53399C16.1489 7.61504 15.7942 7.63041 15.7942 7.63041Z" fill="#73AF00"/>
<path d="M17.4457 16.8871C17.4457 16.8871 16.8862 17.4852 16.3306 16.9296C16.3306 16.9296 16.5467 16.6903 16.8476 16.7907C17.091 16.8718 17.4457 16.8871 17.4457 16.8871Z" fill="#73AF00"/>
<path d="M16.3728 15.8143C16.3728 15.8143 15.7748 16.3738 16.3304 16.9295C16.3304 16.9295 16.5696 16.7134 16.4693 16.4124C16.3882 16.1691 16.3728 15.8143 16.3728 15.8143Z" fill="#73AF00"/>
<path d="M6.53735 7.13628C6.53735 7.13628 7.09685 6.5382 7.6525 7.09381C7.6525 7.09381 7.43641 7.33306 7.13543 7.2327C6.89205 7.15165 6.53735 7.13628 6.53735 7.13628Z" fill="#73AF00"/>
<path d="M7.61027 8.20914C7.61027 8.20914 8.20834 7.64965 7.65274 7.09399C7.65274 7.09399 7.41349 7.31009 7.51385 7.61107C7.59485 7.85439 7.61027 8.20914 7.61027 8.20914Z" fill="#73AF00"/>
<path d="M5.40008 15.1851C5.40008 15.1851 5.06165 14.4393 5.78759 14.1385C5.78759 14.1385 5.92592 14.4297 5.71808 14.6694C5.54999 14.8632 5.40008 15.1851 5.40008 15.1851Z" fill="#73AF00"/>
<path d="M6.80188 14.6045C6.80188 14.6045 6.51383 13.8378 5.78784 14.1385C5.78784 14.1385 5.89593 14.4422 6.21238 14.4647C6.46827 14.4829 6.80188 14.6045 6.80188 14.6045Z" fill="#73AF00"/>
<path d="M18.5832 8.8385C18.5832 8.8385 18.9217 9.58428 18.1957 9.88502C18.1957 9.88502 18.0574 9.59384 18.2653 9.35417C18.4333 9.16039 18.5832 8.8385 18.5832 8.8385Z" fill="#73AF00"/>
<path d="M17.1814 9.41907C17.1814 9.41907 17.4694 10.1857 18.1954 9.88505C18.1954 9.88505 18.0873 9.58135 17.7709 9.55885C17.515 9.54061 17.1814 9.41907 17.1814 9.41907Z" fill="#73AF00"/>
<path d="M15.1649 18.6033C15.1649 18.6033 14.4192 18.9417 14.1184 18.2158C14.1184 18.2158 14.4096 18.0774 14.6493 18.2853C14.8431 18.4534 15.1649 18.6033 15.1649 18.6033Z" fill="#73AF00"/>
<path d="M14.5842 17.2015C14.5842 17.2015 13.8175 17.4896 14.1182 18.2156C14.1182 18.2156 14.422 18.1075 14.4445 17.791C14.4626 17.5351 14.5842 17.2015 14.5842 17.2015Z" fill="#73AF00"/>
<path d="M8.81836 5.42022C8.81836 5.42022 9.56413 5.08179 9.86488 5.80773C9.86488 5.80773 9.5737 5.94606 9.33403 5.73822C9.14025 5.57013 8.81836 5.42022 8.81836 5.42022Z" fill="#73AF00"/>
<path d="M9.39893 6.8219C9.39893 6.8219 10.1656 6.53385 9.86491 5.80786C9.86491 5.80786 9.56121 5.91595 9.53871 6.2324C9.52052 6.48829 9.39893 6.8219 9.39893 6.8219Z" fill="#73AF00"/>
<path d="M9.57446 18.9165C9.57446 18.9165 8.80778 18.6285 9.10848 17.9025C9.10848 17.9025 9.41218 18.0106 9.43468 18.327C9.45282 18.5829 9.57446 18.9165 9.57446 18.9165Z" fill="#73AF00"/>
<path d="M10.1552 17.5148C10.1552 17.5148 9.40939 17.1764 9.10864 17.9023C9.10864 17.9023 9.39983 18.0407 9.6395 17.8328C9.83328 17.6647 10.1552 17.5148 10.1552 17.5148Z" fill="#73AF00"/>
<path d="M14.4087 5.10693C14.4087 5.10693 15.1754 5.39498 14.8747 6.12097C14.8747 6.12097 14.571 6.01288 14.5485 5.69643C14.5303 5.44054 14.4087 5.10693 14.4087 5.10693Z" fill="#73AF00"/>
<path d="M13.8281 6.50879C13.8281 6.50879 14.5739 6.84722 14.8746 6.12127C14.8746 6.12127 14.5835 5.98295 14.3438 6.19079C14.15 6.35883 13.8281 6.50879 13.8281 6.50879Z" fill="#73AF00"/>
<path d="M18.8964 14.4288C18.8964 14.4288 18.6083 15.1955 17.8823 14.8948C17.8823 14.8948 17.9904 14.5911 18.3069 14.5686C18.5628 14.5504 18.8964 14.4288 18.8964 14.4288Z" fill="#73AF00"/>
<path d="M17.4946 13.8481C17.4946 13.8481 17.1561 14.5939 17.8821 14.8947C17.8821 14.8947 18.0204 14.6035 17.8126 14.3638C17.6445 14.17 17.4946 13.8481 17.4946 13.8481Z" fill="#73AF00"/>
<path d="M5.08691 9.59473C5.08691 9.59473 5.37496 8.82805 6.10095 9.12875C6.10095 9.12875 5.99286 9.43245 5.67641 9.45495C5.42052 9.47313 5.08691 9.59473 5.08691 9.59473Z" fill="#73AF00"/>
<path d="M6.48857 10.1753C6.48857 10.1753 6.827 9.42953 6.10101 9.12878C6.10101 9.12878 5.96268 9.41997 6.17053 9.65964C6.33857 9.85346 6.48857 10.1753 6.48857 10.1753Z" fill="#73AF00"/>
<path d="M4.90777 13.8381C4.90777 13.8381 4.7213 13.0407 5.49201 12.8873C5.49201 12.8873 5.5709 13.1999 5.32026 13.3944C5.11763 13.5517 4.90777 13.8381 4.90777 13.8381Z" fill="#73AF00"/>
<path d="M6.39559 13.5421C6.39559 13.5421 6.26265 12.734 5.49194 12.8873C5.49194 12.8873 5.53868 13.2062 5.84467 13.29C6.09212 13.3578 6.39559 13.5421 6.39559 13.5421Z" fill="#73AF00"/>
<path d="M19.0755 10.1854C19.0755 10.1854 19.262 10.9829 18.4913 11.1362C18.4913 11.1362 18.4124 10.8237 18.663 10.6291C18.8657 10.4718 19.0755 10.1854 19.0755 10.1854Z" fill="#73AF00"/>
<path d="M17.5874 10.4813C17.5874 10.4813 17.7203 11.2894 18.491 11.1362C18.491 11.1362 18.4443 10.8172 18.1383 10.7334C17.8909 10.6656 17.5874 10.4813 17.5874 10.4813Z" fill="#73AF00"/>
<path d="M13.818 19.0957C13.818 19.0957 13.0205 19.2821 12.8672 18.5114C12.8672 18.5114 13.1797 18.4325 13.3743 18.6832C13.5316 18.8858 13.818 19.0957 13.818 19.0957Z" fill="#73AF00"/>
<path d="M13.5218 17.6077C13.5218 17.6077 12.7137 17.7406 12.867 18.5113C12.867 18.5113 13.186 18.4646 13.2697 18.1586C13.3375 17.9111 13.5218 17.6077 13.5218 17.6077Z" fill="#73AF00"/>
<path d="M10.1653 4.92779C10.1653 4.92779 10.9628 4.74132 11.1161 5.51203C11.1161 5.51203 10.8035 5.59092 10.609 5.34028C10.4517 5.13764 10.1653 4.92779 10.1653 4.92779Z" fill="#73AF00"/>
<path d="M10.4612 6.41585C10.4612 6.41585 11.2693 6.28292 11.116 5.51221C11.116 5.51221 10.797 5.55894 10.7133 5.86494C10.6454 6.11239 10.4612 6.41585 10.4612 6.41585Z" fill="#73AF00"/>
<path d="M8.27397 18.3124C8.27397 18.3124 7.57821 17.8803 8.0148 17.2269C8.0148 17.2269 8.29159 17.3922 8.25194 17.707C8.21983 17.9615 8.27397 18.3124 8.27397 18.3124Z" fill="#73AF00"/>
<path d="M9.11691 17.0508C9.11691 17.0508 8.45148 16.5733 8.01489 17.2267C8.01489 17.2267 8.2735 17.4192 8.54912 17.2621C8.77201 17.135 9.11691 17.0508 9.11691 17.0508Z" fill="#73AF00"/>
<path d="M15.7092 5.71118C15.7092 5.71118 16.405 6.14327 15.9684 6.79661C15.9684 6.79661 15.6916 6.63133 15.7313 6.31657C15.7634 6.06208 15.7092 5.71118 15.7092 5.71118Z" fill="#73AF00"/>
<path d="M14.8662 6.9727C14.8662 6.9727 15.5316 7.45017 15.9682 6.79678C15.9682 6.79678 15.7096 6.60432 15.434 6.76139C15.2112 6.88842 14.8662 6.9727 14.8662 6.9727Z" fill="#73AF00"/>
<path d="M18.2922 15.7294C18.2922 15.7294 17.8601 16.4251 17.2068 15.9885C17.2068 15.9885 17.3721 15.7117 17.6868 15.7514C17.9413 15.7835 18.2922 15.7294 18.2922 15.7294Z" fill="#73AF00"/>
<path d="M17.0306 14.8865C17.0306 14.8865 16.5532 15.5519 17.2065 15.9885C17.2065 15.9885 17.399 15.7299 17.2419 15.4543C17.1149 15.2314 17.0306 14.8865 17.0306 14.8865Z" fill="#73AF00"/>
<path d="M5.69116 8.29411C5.69116 8.29411 6.12325 7.59835 6.77659 8.03494C6.77659 8.03494 6.61131 8.31173 6.29655 8.27208C6.04207 8.23997 5.69116 8.29411 5.69116 8.29411Z" fill="#73AF00"/>
<path d="M6.95268 9.13693C6.95268 9.13693 7.43015 8.4715 6.77676 8.03491C6.77676 8.03491 6.5843 8.29352 6.74137 8.56914C6.86836 8.79203 6.95268 9.13693 6.95268 9.13693Z" fill="#73AF00"/>
<path d="M6.14586 16.41C6.14586 16.41 5.6684 15.7446 6.32178 15.308C6.32178 15.308 6.51425 15.5666 6.35717 15.8422C6.2301 16.0651 6.14586 16.41 6.14586 16.41Z" fill="#73AF00"/>
<path d="M7.40745 15.5671C7.40745 15.5671 6.97536 14.8713 6.32202 15.3079C6.32202 15.3079 6.4873 15.5847 6.80206 15.545C7.0565 15.5129 7.40745 15.5671 7.40745 15.5671Z" fill="#73AF00"/>
<path d="M17.8374 7.61353C17.8374 7.61353 18.3149 8.27896 17.6615 8.71555C17.6615 8.71555 17.4691 8.45694 17.6261 8.18132C17.7532 7.95843 17.8374 7.61353 17.8374 7.61353Z" fill="#73AF00"/>
<path d="M16.5759 8.45642C16.5759 8.45642 17.008 9.15218 17.6614 8.71559C17.6614 8.71559 17.4961 8.4388 17.1813 8.47845C16.9268 8.51056 16.5759 8.45642 16.5759 8.45642Z" fill="#73AF00"/>
<path d="M16.3899 17.8575C16.3899 17.8575 15.7244 18.3349 15.2878 17.6815C15.2878 17.6815 15.5464 17.4891 15.8221 17.6462C16.045 17.7732 16.3899 17.8575 16.3899 17.8575Z" fill="#73AF00"/>
<path d="M15.5469 16.5961C15.5469 16.5961 14.8512 17.0282 15.2877 17.6815C15.2877 17.6815 15.5645 17.5162 15.5249 17.2015C15.4928 16.9469 15.5469 16.5961 15.5469 16.5961Z" fill="#73AF00"/>
<path d="M7.59351 6.166C7.59351 6.166 8.25894 5.68854 8.69553 6.34192C8.69553 6.34192 8.43692 6.53439 8.1613 6.37731C7.93841 6.25024 7.59351 6.166 7.59351 6.166Z" fill="#73AF00"/>
<path d="M8.43628 7.42747C8.43628 7.42747 9.13204 6.99538 8.69545 6.34204C8.69545 6.34204 8.41865 6.50732 8.45831 6.82208C8.49047 7.07656 8.43628 7.42747 8.43628 7.42747Z" fill="#73AF00"/>
<path d="M10.9681 19.2553C10.9681 19.2553 10.16 19.1224 10.3133 18.3517C10.3133 18.3517 10.6323 18.3984 10.716 18.7044C10.7838 18.9519 10.9681 19.2553 10.9681 19.2553Z" fill="#73AF00"/>
<path d="M11.264 17.7674C11.264 17.7674 10.4666 17.5809 10.3132 18.3516C10.3132 18.3516 10.6258 18.4305 10.8203 18.1799C10.9776 17.9772 11.264 17.7674 11.264 17.7674Z" fill="#73AF00"/>
<path d="M13.0151 4.76819C13.0151 4.76819 13.8233 4.90112 13.67 5.67184C13.67 5.67184 13.351 5.6251 13.2672 5.3191C13.1994 5.07165 13.0151 4.76819 13.0151 4.76819Z" fill="#73AF00"/>
<path d="M12.7192 6.25617C12.7192 6.25617 13.5167 6.44264 13.67 5.67193C13.67 5.67193 13.3575 5.59304 13.163 5.84368C13.0057 6.04636 12.7192 6.25617 12.7192 6.25617Z" fill="#73AF00"/>
<path d="M19.2352 13.0353C19.2352 13.0353 19.1023 13.8434 18.3315 13.6901C18.3315 13.6901 18.3783 13.3711 18.6843 13.2874C18.9317 13.2196 19.2352 13.0353 19.2352 13.0353Z" fill="#73AF00"/>
<path d="M17.7471 12.7393C17.7471 12.7393 17.5607 13.5367 18.3314 13.6901C18.3314 13.6901 18.4103 13.3775 18.1596 13.183C17.9569 13.0257 17.7471 12.7393 17.7471 12.7393Z" fill="#73AF00"/>
<path d="M4.74805 10.9883C4.74805 10.9883 4.88098 10.1801 5.65169 10.3334C5.65169 10.3334 5.60496 10.6524 5.29896 10.7362C5.05151 10.804 4.74805 10.9883 4.74805 10.9883Z" fill="#73AF00"/>
<path d="M6.23615 11.2842C6.23615 11.2842 6.42262 10.4867 5.65191 10.3334C5.65191 10.3334 5.57302 10.6459 5.82366 10.8405C6.02634 10.9978 6.23615 11.2842 6.23615 11.2842Z" fill="#73AF00"/>
</g>
<defs>
<clipPath id="clip0_8615_27624">
<path d="M-0.00146484 2C-0.00146484 0.89543 0.893966 0 1.99854 0H21.9985C23.1031 0 23.9985 0.895431 23.9985 2V22C23.9985 23.1046 23.1031 24 21.9985 24H1.99853C0.893965 24 -0.00146484 23.1046 -0.00146484 22V2Z" fill="white"/>
</clipPath>
</defs>
</svg>
