<svg width="24" height="24" viewBox="0 0 24 24" fill="none" xmlns="http://www.w3.org/2000/svg">
<g clip-path="url(#clip0_8615_27616)">
<path d="M24.001 0H0.0012207V23.9998H24.001V0Z" fill="#FF4B55"/>
<path d="M14.3203 12.2761C14.2196 12.2761 14.1379 12.3578 14.1379 12.4585V19.2066C14.1379 19.7537 14.5027 21.5775 17.9679 22.1247C21.4331 21.5775 21.7979 19.7537 21.7979 19.2066V12.4585C21.7979 12.3578 21.7162 12.2761 21.6155 12.2761H14.3203Z" fill="#F5F5F5"/>
<path d="M17.9679 22.1246C20.8606 21.6678 21.5922 20.322 21.7552 19.5713H14.1807C14.3436 20.322 15.0752 21.6678 17.9679 22.1246Z" fill="#73AF00"/>
<path d="M20.3388 16.1061C20.3388 16.1061 20.5212 15.9237 20.3388 15.559L17.9679 15.4529L15.5969 15.559C15.4146 15.9237 15.5969 16.1061 15.5969 16.1061C15.4146 16.2885 15.4146 16.4709 15.4146 16.4709H15.7793L16.1745 17.1244L17.9679 18.1123L19.7612 17.1244L20.1564 16.4709H20.5212C20.5212 16.4709 20.5211 16.2885 20.3388 16.1061Z" fill="#82AFFF"/>
<path d="M19.7612 17.1243C19.7612 17.1243 19.6472 16.8735 19.3433 16.904C19.3433 16.904 19.1761 16.6836 18.8949 16.7444C18.8949 16.7444 18.5681 16.5544 18.3782 16.904C18.3782 16.904 17.774 16.8426 17.7417 17.3026C17.7417 17.3026 18.6821 18.7201 18.7049 18.7354C18.7277 18.7505 19.8296 18.743 19.8296 18.743L20.3388 18.1812L19.8372 17.4587L19.7612 17.1243Z" fill="#F5F5F5"/>
<path d="M17.9906 17.5727C17.9906 17.5727 17.1929 16.2695 17.0787 16.1592C16.9685 16.0528 16.752 15.9541 16.5316 16.1365C16.5316 16.1365 15.8705 16.0833 15.9617 16.5848L16.1516 17.3447C16.1516 17.3447 15.9844 17.8691 15.9085 17.9223C15.8325 17.9755 15.5513 18.1199 15.5513 18.1199L15.7108 18.7506L17.8386 18.6442L17.9906 17.5727Z" fill="#F0C850"/>
<path d="M18.9102 17.0028L18.9076 17.0039L18.8488 16.865C18.844 16.8538 18.835 16.8449 18.8236 16.8404C18.8123 16.836 18.7998 16.8362 18.7884 16.8411L18.3926 17.0157L17.9218 16.245C17.9427 16.227 17.9517 16.1977 17.9419 16.1704C17.9292 16.1348 17.89 16.1163 17.8545 16.1289L17.7495 16.1665L17.6786 15.9567C17.6705 15.9329 17.6447 15.9204 17.6208 15.928C17.5969 15.9362 17.5841 15.9621 17.5922 15.9859L17.6637 16.1972L17.5515 16.2374C17.516 16.2502 17.4975 16.2894 17.5102 16.3249C17.5201 16.3528 17.5465 16.3703 17.5746 16.3703C17.5785 16.3703 17.5825 16.3689 17.5866 16.3682L17.7418 17.3027L17.6416 17.3468C17.6198 17.3564 17.6091 17.3814 17.6172 17.4038L17.6739 17.5619C17.6753 17.5885 17.6753 17.6334 17.6662 17.6902L17.0295 16.5981C17.0562 16.5814 17.0696 16.5489 17.0586 16.5181C17.0457 16.4825 17.0069 16.4638 16.9711 16.4766L16.8662 16.5142L16.7952 16.3044C16.7872 16.2806 16.7613 16.2677 16.7374 16.2757C16.7136 16.2839 16.7007 16.3098 16.7088 16.3336L16.7803 16.5449L16.6682 16.5851C16.6326 16.598 16.6141 16.6371 16.6268 16.6726C16.6359 16.6981 16.6592 16.7131 16.6844 16.7158L16.9607 18.4405C16.9251 18.4555 16.8901 18.4707 16.8508 18.4847C16.8508 18.4847 16.7216 19.1002 16.8204 19.1306C16.9192 19.1611 17.9375 19.4726 17.9375 19.4726C17.9375 19.4726 19.3433 18.8039 19.3737 18.7886C19.4041 18.7734 19.4649 18.3327 19.4649 18.3327L18.9102 17.0028ZM18.8239 17.0398L18.7062 17.0904L18.6672 16.9942L18.7828 16.9432L18.8239 17.0398ZM18.1124 17.2389L18.2091 17.1962L18.2463 17.2879L18.1438 17.3319L18.1124 17.2389ZM18.0598 17.368L17.9453 17.4171L17.9093 17.3284L18.0286 17.2758L18.0598 17.368ZM18.33 17.2519L18.2925 17.1594L18.3959 17.1138L18.4338 17.2074L18.33 17.2519ZM18.4793 17.0771L18.5838 17.031L18.6225 17.1263L18.5175 17.1714L18.4793 17.0771ZM17.8369 16.2807L18.3085 17.0527L18.083 17.1522L17.7935 16.2962L17.8369 16.2807ZM17.6741 16.3389L17.7076 16.3269L17.9992 17.1891L17.8279 17.2646L17.6741 16.3389ZM17.826 17.3651L17.8616 17.4531L17.7491 17.5014L17.7173 17.413L17.826 17.3651ZM16.9437 16.6318L17.6343 17.8165C17.5995 17.917 17.534 18.0336 17.4189 18.1481L16.9101 16.6439L16.9437 16.6318ZM16.7732 16.6929L16.8242 16.6746L17.3453 18.2152C17.2664 18.2808 17.168 18.3441 17.047 18.4022L16.7732 16.6929Z" fill="#965032"/>
<path d="M20.5042 15.2825C20.4557 15.2056 20.3002 15.2385 20.3002 15.2385C20.3002 15.2385 20.2559 15.1498 20.1386 15.1412C20.0213 15.1326 19.9999 15.2371 19.9999 15.2371C19.9999 15.2371 19.9779 15.2207 19.8488 15.2245C19.7196 15.2283 19.7461 15.4411 19.7461 15.4411C19.7461 15.4411 19.6967 15.4411 19.5296 15.3879C19.3624 15.3347 19.2522 15.3727 19.2522 15.3727C19.2446 15.2853 19.199 15.2207 19.199 15.2207C19.0584 15.2777 18.9482 15.2132 18.9217 15.1638C18.895 15.1144 18.9635 15.0384 18.9635 14.9738C18.9635 14.9092 18.8742 14.912 18.8428 14.855C18.8115 14.798 18.8428 14.7667 18.9255 14.7296C19.0081 14.6926 19.085 14.5558 19.0337 14.4447C18.9825 14.3336 18.8342 14.3535 18.8342 14.3535C18.8855 14.3621 18.9283 14.4589 18.8456 14.4789C18.763 14.4989 18.6889 14.1968 18.6889 14.1968C18.8798 14.325 19.0194 14.2481 19.0593 14.1369C19.0992 14.0258 18.9938 13.9489 18.9938 13.9489C18.9112 14.0828 18.7687 13.966 18.8456 13.8805C18.9226 13.795 18.9292 13.6515 18.9292 13.6515C18.7582 13.7351 18.6519 13.6287 18.6519 13.6287C18.8761 13.473 18.8114 13.2526 18.8114 13.2526C18.7278 13.2146 18.5493 13.245 18.5493 13.245C18.5872 13.169 18.5797 13.0322 18.5797 13.0322C18.4847 13.017 18.3783 13.0778 18.3783 13.0778C18.4087 12.9714 18.3669 12.7852 18.3669 12.7852C18.2985 12.7966 18.1693 12.8346 18.1693 12.8346C18.1161 12.7131 17.968 12.6409 17.968 12.6409C17.968 12.6409 17.8198 12.7131 17.7666 12.8346C17.7666 12.8346 17.6374 12.7966 17.569 12.7852C17.569 12.7852 17.5272 12.9714 17.5576 13.0778C17.5576 13.0778 17.4512 13.017 17.3562 13.0322C17.3562 13.0322 17.3487 13.169 17.3867 13.245C17.3867 13.245 17.2081 13.2146 17.1245 13.2526C17.1245 13.2526 17.0599 13.473 17.2841 13.6287C17.2841 13.6287 17.1777 13.7352 17.0067 13.6515C17.0067 13.6515 17.0134 13.795 17.0903 13.8805C17.1672 13.966 17.0247 14.0828 16.9421 13.9489C16.9421 13.9489 16.8367 14.0258 16.8766 14.1369C16.9165 14.2481 17.0561 14.325 17.247 14.1968C17.247 14.1968 17.1729 14.4988 17.0903 14.4789C17.0076 14.4589 17.0504 14.3621 17.1017 14.3535C17.1017 14.3535 16.9535 14.3336 16.9022 14.4447C16.8509 14.5558 16.9278 14.6926 17.0105 14.7296C17.0931 14.7667 17.1245 14.798 17.0931 14.855C17.0617 14.912 16.9724 14.9092 16.9724 14.9738C16.9724 15.0384 17.0408 15.1143 17.0142 15.1638C16.9876 15.2132 16.8774 15.2777 16.7368 15.2207C16.7368 15.2207 16.6912 15.2853 16.6836 15.3727C16.6836 15.3727 16.5734 15.3347 16.4063 15.3879C16.2391 15.4411 16.1897 15.4411 16.1897 15.4411C16.1897 15.4411 16.2163 15.2283 16.0871 15.2245C15.9579 15.2207 15.936 15.2371 15.936 15.2371C15.936 15.2371 15.9145 15.1326 15.7972 15.1412C15.68 15.1498 15.6356 15.2385 15.6356 15.2385C15.6356 15.2385 15.4801 15.2056 15.4317 15.2825C15.3833 15.3595 15.3776 15.4763 15.4687 15.5247C15.5599 15.5732 15.8022 15.7755 15.8022 15.7755L16.1441 15.9237L17.341 15.3937L17.968 15.5589L18.5949 15.3937L19.7918 15.9237L20.1337 15.7756C20.1337 15.7756 20.3759 15.5732 20.4671 15.5248C20.5583 15.4763 20.5526 15.3595 20.5042 15.2825Z" fill="#FF4B55"/>
<path d="M17.5945 13.351C17.5945 13.351 17.6074 13.5119 17.8455 13.4691C17.8455 13.4691 17.8391 13.3017 17.5945 13.351Z" fill="#F5F5F5"/>
<path d="M16.7134 19.708C16.7134 19.708 16.5424 19.7023 16.3657 19.8334C16.189 19.9645 16.1111 19.8715 15.9345 19.8715C15.7578 19.8715 15.716 20.0557 15.716 20.0557C15.716 20.0557 15.374 20.1412 15.5108 20.392C15.5973 20.5506 15.7177 20.5472 15.7947 20.5234C15.7908 20.63 15.8151 20.7471 15.9383 20.7682C16.1719 20.8081 16.2745 20.6827 16.2232 20.4889C16.2232 20.4889 16.2517 20.6884 16.4056 20.6827C16.5595 20.6769 16.662 20.5915 16.645 20.3863C16.6279 20.1811 16.9014 20.3065 17.1123 20.0044L16.7134 19.708Z" fill="#FF4B55"/>
<path d="M15.7117 20.4416C15.7117 20.4416 15.6053 20.5821 15.6357 20.7189C15.6357 20.7189 15.4078 20.6467 15.5293 20.3086C15.5293 20.3086 15.6851 20.2668 15.7117 20.4416Z" fill="#82AFFF"/>
<path d="M16.0696 20.6258C16.0696 20.6258 16.007 20.8025 16.0924 20.9592C16.0924 20.9592 15.8075 20.9507 15.8645 20.6002C15.8645 20.6002 15.9556 20.5062 16.0696 20.6258Z" fill="#82AFFF"/>
<path d="M16.3547 20.6087C16.3547 20.6087 16.406 20.7569 16.3547 20.8994C16.3547 20.8994 16.5884 20.8851 16.5485 20.5488C16.5485 20.5488 16.4231 20.5033 16.3547 20.6087Z" fill="#82AFFF"/>
<path d="M16.1482 17.2003C16.1266 17.0246 15.0254 16.9211 15.0938 17.8463C15.0938 17.8463 14.9716 17.844 14.9115 17.9577C14.8514 18.0715 14.7227 18.0436 14.6841 18.0028C14.6841 18.0028 14.6927 18.2088 14.948 18.2002C14.948 18.2002 14.8672 18.2638 14.8786 18.3568C14.89 18.4498 14.9573 18.5671 14.953 18.6472C14.9487 18.7273 14.8729 18.8389 14.8729 18.8389C14.8729 18.8389 15.0689 18.7717 15.0817 18.6315C15.0946 18.4913 15.0631 18.374 15.1017 18.3025C15.1017 18.3025 15.0831 18.4012 15.1704 18.5256C15.2576 18.6501 15.262 18.8017 15.2262 18.8961C15.2262 18.8961 15.4436 18.7888 15.4021 18.5814C15.3606 18.374 15.3163 18.3926 15.3363 18.2767C15.3363 18.2767 15.5623 18.507 15.5237 18.703C15.5237 18.703 15.5959 18.6165 15.5895 18.4534C15.5831 18.2903 15.4699 18.1806 15.4699 18.1806C15.4699 18.1806 16.2223 17.8045 16.1482 17.2003Z" fill="#FF4B55"/>
<path d="M19.2215 19.708C19.2215 19.708 19.3925 19.7023 19.5691 19.8334C19.7458 19.9645 19.8237 19.8715 20.0004 19.8715C20.177 19.8715 20.2189 20.0557 20.2189 20.0557C20.2189 20.0557 20.5608 20.1412 20.424 20.392C20.3375 20.5506 20.2171 20.5472 20.1401 20.5234C20.144 20.63 20.1198 20.7471 19.9966 20.7682C19.7629 20.8081 19.6603 20.6827 19.7116 20.4889C19.7116 20.4889 19.6831 20.6884 19.5292 20.6827C19.3753 20.6769 19.2728 20.5915 19.2898 20.3863C19.307 20.1811 19.0334 20.3065 18.8225 20.0044L19.2215 19.708Z" fill="#FF4B55"/>
<path d="M20.2207 20.4416C20.2207 20.4416 20.3271 20.5821 20.2967 20.7189C20.2967 20.7189 20.5246 20.6467 20.4031 20.3086C20.4031 20.3086 20.2473 20.2668 20.2207 20.4416Z" fill="#82AFFF"/>
<path d="M19.8626 20.6258C19.8626 20.6258 19.9253 20.8025 19.8398 20.9592C19.8398 20.9592 20.1248 20.9507 20.0678 20.6002C20.0678 20.6002 19.9766 20.5062 19.8626 20.6258Z" fill="#82AFFF"/>
<path d="M19.5778 20.6087C19.5778 20.6087 19.5265 20.7569 19.5778 20.8994C19.5778 20.8994 19.3441 20.8851 19.384 20.5488C19.384 20.5488 19.5094 20.5033 19.5778 20.6087Z" fill="#82AFFF"/>
<path d="M19.7866 17.2003C19.8082 17.0246 20.9094 16.9211 20.841 17.8463C20.841 17.8463 20.9632 17.844 21.0233 17.9577C21.0834 18.0715 21.2121 18.0436 21.2507 18.0028C21.2507 18.0028 21.2421 18.2088 20.9868 18.2002C20.9868 18.2002 21.0676 18.2638 21.0562 18.3568C21.0447 18.4498 20.9775 18.5671 20.9818 18.6472C20.9861 18.7273 21.0619 18.8389 21.0619 18.8389C21.0619 18.8389 20.8659 18.7717 20.8531 18.6315C20.8402 18.4913 20.8717 18.374 20.8331 18.3025C20.8331 18.3025 20.8517 18.4012 20.7644 18.5256C20.6772 18.6501 20.6728 18.8017 20.7086 18.8961C20.7086 18.8961 20.4912 18.7888 20.5327 18.5814C20.5742 18.374 20.6185 18.3926 20.5985 18.2767C20.5985 18.2767 20.3725 18.507 20.4111 18.703C20.4111 18.703 20.3389 18.6165 20.3453 18.4534C20.3517 18.2903 20.4649 18.1806 20.4649 18.1806C20.4649 18.1806 19.7125 17.8045 19.7866 17.2003Z" fill="#FF4B55"/>
<path d="M20.2371 15.6234C20.1952 15.5953 20.1386 15.607 20.1107 15.6493C20.053 15.7364 19.977 15.7873 19.8785 15.8049C19.5522 15.8616 19.0817 15.5403 18.9451 15.4398C18.7471 15.2943 18.5025 15.269 18.3401 15.3691C18.2753 15.3905 18.0772 15.453 17.9679 15.453C17.8585 15.453 17.6605 15.3905 17.5956 15.3691C17.4333 15.269 17.1886 15.2943 16.9906 15.4398C16.854 15.5403 16.3835 15.8616 16.0572 15.8049C15.9587 15.7873 15.8827 15.7364 15.825 15.6493C15.7971 15.6071 15.7405 15.5953 15.6986 15.6234C15.6566 15.6512 15.6451 15.7079 15.6729 15.7497C15.7584 15.8791 15.8769 15.9579 16.0253 15.9845C16.0628 15.9912 16.1011 15.9943 16.1401 15.9943C16.4881 15.9943 16.8819 15.746 17.0986 15.5869C17.2597 15.4687 17.4403 15.4689 17.5216 15.5374C17.5421 15.5549 17.5655 15.5823 17.5599 15.6145C17.5568 15.6322 17.5452 15.648 17.5259 15.6614C17.5306 15.6334 17.5221 15.6037 17.5006 15.5819C17.4649 15.5463 17.4072 15.5463 17.3716 15.5819C17.3252 15.628 17.3201 15.703 17.3592 15.7639C17.3985 15.825 17.4831 15.8697 17.5837 15.8325C17.6348 15.8135 17.6756 15.7771 17.7039 15.7325C17.8424 15.6922 17.9679 15.6919 17.9679 15.6919C17.9679 15.6919 18.0934 15.6922 18.2319 15.7325C18.2602 15.7771 18.3011 15.8135 18.3521 15.8325C18.4527 15.8697 18.5373 15.825 18.5766 15.7639C18.6157 15.703 18.6106 15.628 18.5642 15.5819C18.5286 15.5463 18.4709 15.5463 18.4352 15.5819C18.4137 15.6037 18.4052 15.6334 18.4099 15.6614C18.3906 15.648 18.379 15.6322 18.3759 15.6145C18.3703 15.5823 18.3937 15.5549 18.4142 15.5374C18.4956 15.4689 18.6761 15.4687 18.8372 15.5869C19.0539 15.746 19.4477 15.9943 19.7957 15.9943C19.8347 15.9943 19.873 15.9912 19.9105 15.9845C20.0589 15.9579 20.1774 15.8791 20.2629 15.7497C20.2906 15.7079 20.2791 15.6512 20.2371 15.6234Z" fill="#FFE15A"/>
<path d="M15.6416 15.7241C15.6416 15.7241 15.6266 15.5202 15.6201 15.4537C15.6137 15.3872 15.4892 15.3378 15.442 15.4043C15.3948 15.4709 15.3819 15.5932 15.6416 15.7241Z" fill="#82AFFF"/>
<path d="M15.6854 15.6586C15.6854 15.6586 15.865 15.5133 15.8422 15.4364C15.8194 15.3594 15.7709 15.3195 15.7111 15.3423C15.6512 15.3652 15.6228 15.5047 15.6854 15.6586Z" fill="#82AFFF"/>
<path d="M16.036 15.5447C16.0618 15.5189 16.0702 15.3937 15.9989 15.3794C15.9277 15.3652 15.8336 15.4763 15.8394 15.6131C15.8394 15.6131 15.9875 15.5931 16.036 15.5447Z" fill="#82AFFF"/>
<path d="M15.962 15.6159C15.8793 15.6424 15.7996 15.7128 15.7996 15.7128C15.7996 15.7128 15.9477 15.8211 16.0503 15.7869C16.1529 15.7527 16.1045 15.5703 15.962 15.6159Z" fill="#82AFFF"/>
<path d="M18.3411 13.351C18.3411 13.351 18.3283 13.5119 18.0901 13.4691C18.0901 13.4691 18.0966 13.3017 18.3411 13.351Z" fill="#F5F5F5"/>
<path d="M20.293 15.7241C20.293 15.7241 20.308 15.5202 20.3144 15.4537C20.3209 15.3872 20.4453 15.3378 20.4925 15.4043C20.5397 15.4709 20.5526 15.5932 20.293 15.7241Z" fill="#82AFFF"/>
<path d="M20.2491 15.6586C20.2491 15.6586 20.0695 15.5133 20.0923 15.4364C20.1151 15.3594 20.1636 15.3195 20.2234 15.3423C20.2833 15.3652 20.3118 15.5047 20.2491 15.6586Z" fill="#82AFFF"/>
<path d="M19.8986 15.5447C19.8728 15.5189 19.8644 15.3937 19.9356 15.3794C20.0069 15.3652 20.1009 15.4763 20.0952 15.6131C20.0952 15.6131 19.947 15.5931 19.8986 15.5447Z" fill="#82AFFF"/>
<path d="M19.9727 15.6159C20.0554 15.6424 20.1351 15.7128 20.1351 15.7128C20.1351 15.7128 19.9869 15.8211 19.8843 15.7869C19.7817 15.7527 19.8302 15.5703 19.9727 15.6159Z" fill="#82AFFF"/>
<path d="M17.8746 13.7304L17.947 13.8027C17.9591 13.8148 17.9789 13.8148 17.991 13.8027L18.0633 13.7304C18.0829 13.7108 18.069 13.6772 18.0413 13.6772H17.8967C17.8689 13.6772 17.8551 13.7108 17.8746 13.7304Z" fill="#464655"/>
<path d="M17.8366 14.0269C17.783 14.0269 17.7366 14.0077 17.7051 13.9722C17.6725 13.9354 17.6586 13.8846 17.6669 13.833C17.6699 13.8157 17.6872 13.8052 17.7035 13.8066C17.7209 13.8095 17.7327 13.8259 17.7299 13.8433C17.7247 13.8759 17.733 13.9075 17.7529 13.9299C17.7734 13.9529 17.8047 13.9636 17.8431 13.9631C17.9233 13.9599 17.9367 13.8815 17.9372 13.8783L17.9368 13.7352C17.9368 13.7176 17.9511 13.7034 17.9687 13.7034C17.9863 13.7034 18.0006 13.7176 18.0006 13.7352V13.8832C17.9929 13.9344 17.9511 14.0225 17.8455 14.0268C17.8426 14.0269 17.8396 14.0269 17.8366 14.0269Z" fill="#464655"/>
<path d="M18.1011 14.0269C18.0981 14.0269 18.0951 14.0269 18.0921 14.0267C17.9866 14.0224 17.9448 13.9342 17.9374 13.8881L17.937 13.7351C17.937 13.7175 17.9513 13.7032 17.9689 13.7032C17.9865 13.7032 18.0008 13.7175 18.0008 13.7351V13.8831C18.0018 13.8863 18.0168 13.9599 18.0945 13.9629C18.1341 13.9636 18.1642 13.9531 18.1847 13.9297C18.2046 13.9073 18.2129 13.8758 18.2077 13.8432C18.2049 13.8257 18.2167 13.8093 18.2341 13.8065C18.2507 13.8043 18.2679 13.8154 18.2707 13.8328C18.279 13.8845 18.2651 13.9352 18.2325 13.9721C18.2011 14.0076 18.1547 14.0269 18.1011 14.0269Z" fill="#464655"/>
<path d="M19.0657 18.6594C19.0657 18.6594 18.8377 18.2946 18.5717 18.5378C18.3058 18.781 18.2069 19.0773 17.903 19.0546C17.7362 19.042 17.651 18.9659 17.6068 18.8993C17.6875 18.8328 17.7448 18.7318 17.6827 18.5834C17.5459 18.2566 17.0443 18.3554 16.9075 18.7126C16.9075 18.7126 17.0671 18.1882 16.5124 18.363C16.5124 18.363 16.444 17.9982 16.1248 18.0971C15.9513 18.1508 15.8871 18.2576 15.8632 18.3446C15.7961 18.329 15.7098 18.3295 15.6309 18.3934L16.0336 19.4801L16.6415 19.4877L16.7783 19.6929L17.5762 20.1944L17.7206 20.4984H18.2221C18.2221 20.4984 18.2601 20.1869 18.5261 20.0956C18.7921 20.0045 19.2252 19.8144 19.2708 19.6473C19.3164 19.4801 19.3164 19.4801 19.3164 19.4801L19.8028 19.4877C19.856 19.4497 20.2131 18.8646 20.2131 18.8646L20.3789 18.111C20.2875 18.0977 19.2401 17.9618 19.0657 18.6594Z" fill="#F5F5F5"/>
<path d="M20.3805 18.1046L20.3792 18.1109C20.3833 18.1115 20.3881 18.1122 20.3881 18.1122L20.3805 18.1046Z" fill="#F5F5F5"/>
<path d="M17.066 19.8246C16.869 19.7451 16.7986 19.6338 16.7743 19.5745C16.7517 19.5196 16.7561 19.4808 16.7623 19.4665C16.7749 19.4375 16.7901 19.419 16.8043 19.4154C16.8176 19.4122 16.8345 19.4199 16.8376 19.4219C16.844 19.4292 16.8474 19.4523 16.8412 19.458C16.8045 19.4925 16.8028 19.5502 16.8373 19.5869C16.8719 19.6236 16.9295 19.6252 16.9663 19.5909C17.0038 19.5556 17.0252 19.5063 17.0267 19.4519C17.0284 19.3937 17.0071 19.3357 16.9699 19.2965C16.9326 19.2569 16.8559 19.2209 16.7742 19.2356C16.7573 19.2385 16.7383 19.2454 16.7189 19.2548C16.7317 19.1285 16.683 19.0638 16.6473 19.0377C16.5872 18.994 16.5016 18.993 16.4296 19.0352C16.356 19.0784 16.3162 19.1542 16.3259 19.2325C16.3321 19.2826 16.3823 19.3125 16.4312 19.3057C16.4812 19.2997 16.5205 19.248 16.5143 19.1982C16.5246 19.1887 16.5383 19.1855 16.5379 19.1834C16.5381 19.1836 16.5501 19.2035 16.5356 19.2678C16.5129 19.3686 16.4595 19.4306 16.377 19.4523C16.2744 19.4806 16.1429 19.4374 16.0651 19.3521C15.957 19.2331 15.7307 18.6017 15.5962 18.1812C16.1729 17.9076 16.2438 17.4531 16.2329 17.1998C16.2163 16.814 15.9854 16.4193 15.7288 16.338C15.6278 16.3061 15.4765 16.2995 15.3667 16.3562C15.3045 16.3886 15.2613 16.4383 15.2419 16.5001C15.2023 16.6262 15.2816 16.7304 15.3765 16.7644C15.4747 16.7996 15.5738 16.7573 15.6119 16.6634C15.6308 16.6168 15.6102 16.5633 15.5635 16.5445C15.5166 16.5251 15.4656 16.5478 15.4467 16.5943C15.4428 16.5965 15.4302 16.5917 15.4208 16.581C15.4139 16.5731 15.4125 16.5655 15.4159 16.555C15.4189 16.5453 15.4258 16.5311 15.4509 16.5181C15.5105 16.4869 15.6101 16.4917 15.6737 16.5118C15.8205 16.5583 16.035 16.8456 16.0507 17.2077C16.06 17.4241 15.9943 17.8207 15.4497 18.0467C15.4061 18.0649 15.3835 18.1132 15.3976 18.1583C15.4332 18.2721 15.7504 19.2771 15.9301 19.4746C16.0267 19.5809 16.1729 19.6428 16.3125 19.6428C16.3503 19.6428 16.3877 19.6383 16.4235 19.6289C16.4844 19.6128 16.5353 19.5814 16.5795 19.5419C16.5839 19.5753 16.5916 19.6095 16.6057 19.6438C16.641 19.7297 16.7388 19.8893 17.0118 19.9993C17.5641 20.2209 17.6166 20.3691 17.6135 20.4227C17.6119 20.4521 17.595 20.4674 17.5813 20.4751C17.5753 20.4785 17.5694 20.4806 17.5644 20.4818C17.5848 20.4538 17.5884 20.4156 17.5704 20.3833C17.5459 20.3393 17.4904 20.3237 17.4464 20.3482C17.3843 20.383 17.3411 20.4647 17.3782 20.5541C17.4071 20.6236 17.4748 20.6656 17.5531 20.6656C17.5656 20.6656 17.5784 20.6645 17.5915 20.6622C17.705 20.643 17.7889 20.5488 17.7956 20.4332C17.8115 20.1563 17.3946 19.9563 17.066 19.8246Z" fill="#FFE15A"/>
<path d="M18.8681 19.8246C19.0652 19.7451 19.1355 19.6338 19.1598 19.5745C19.1825 19.5196 19.178 19.4808 19.1719 19.4665C19.1593 19.4375 19.1441 19.419 19.1299 19.4154C19.1166 19.4122 19.0997 19.4199 19.0966 19.4219C19.0902 19.4292 19.0868 19.4523 19.0929 19.458C19.1297 19.4925 19.1313 19.5502 19.0969 19.5869C19.0622 19.6236 19.0047 19.6252 18.9679 19.5909C18.9304 19.5556 18.909 19.5063 18.9075 19.4519C18.9058 19.3937 18.9271 19.3357 18.9643 19.2965C19.0016 19.2569 19.0783 19.2209 19.16 19.2356C19.1769 19.2385 19.1958 19.2454 19.2152 19.2548C19.2024 19.1285 19.2511 19.0638 19.2869 19.0377C19.347 18.994 19.4326 18.993 19.5046 19.0352C19.5782 19.0784 19.618 19.1542 19.6083 19.2325C19.6021 19.2826 19.5518 19.3125 19.503 19.3057C19.453 19.2997 19.4137 19.248 19.4199 19.1982C19.4095 19.1887 19.3959 19.1855 19.3963 19.1834C19.3961 19.1836 19.3841 19.2035 19.3986 19.2678C19.4213 19.3686 19.4746 19.4306 19.5571 19.4523C19.6598 19.4806 19.7913 19.4374 19.8691 19.3521C19.9772 19.2331 20.2035 18.6017 20.338 18.1812C19.7612 17.9076 19.6904 17.4531 19.7013 17.1998C19.7179 16.814 19.9488 16.4193 20.2054 16.338C20.3064 16.3061 20.4577 16.2995 20.5675 16.3562C20.6297 16.3886 20.6729 16.4383 20.6923 16.5001C20.7319 16.6262 20.6526 16.7304 20.5577 16.7644C20.4595 16.7996 20.3604 16.7573 20.3223 16.6634C20.3034 16.6168 20.324 16.5633 20.3707 16.5445C20.4176 16.5251 20.4686 16.5478 20.4875 16.5943C20.4914 16.5965 20.504 16.5917 20.5134 16.581C20.5203 16.5731 20.5217 16.5655 20.5183 16.555C20.5153 16.5453 20.5084 16.5311 20.4833 16.5181C20.4237 16.4869 20.3241 16.4917 20.2605 16.5118C20.1136 16.5583 19.8992 16.8456 19.8835 17.2077C19.8742 17.4241 19.9399 17.8207 20.4845 18.0467C20.5281 18.0649 20.5507 18.1132 20.5365 18.1583C20.501 18.2721 20.1838 19.2771 20.0041 19.4746C19.9075 19.5809 19.7613 19.6428 19.6217 19.6428C19.5839 19.6428 19.5465 19.6383 19.5106 19.6289C19.4498 19.6128 19.3989 19.5814 19.3546 19.5419C19.3502 19.5753 19.3426 19.6095 19.3284 19.6438C19.2932 19.7297 19.1954 19.8893 18.9224 19.9993C18.37 20.2209 18.3176 20.3691 18.3206 20.4227C18.3223 20.4521 18.3392 20.4674 18.3529 20.4751C18.3588 20.4785 18.3648 20.4806 18.3698 20.4818C18.3494 20.4538 18.3458 20.4156 18.3638 20.3833C18.3883 20.3393 18.4437 20.3237 18.4878 20.3482C18.5499 20.383 18.5931 20.4647 18.556 20.5541C18.5271 20.6236 18.4594 20.6656 18.3811 20.6656C18.3685 20.6656 18.3558 20.6645 18.3427 20.6622C18.2292 20.643 18.1453 20.5488 18.1386 20.4332C18.1226 20.1563 18.5396 19.9563 18.8681 19.8246Z" fill="#FFE15A"/>
<path d="M4.42493 0H0.00390625V0.936413L4.42493 3.83293V0Z" fill="#41479B"/>
<path d="M0.00390625 3.20154V4.42107H1.86529L0.00390625 3.20154Z" fill="#41479B"/>
<path d="M0.00390625 7.57898V8.79851L1.86529 7.57898H0.00390625Z" fill="#41479B"/>
<path d="M12.0038 0.936413V0H7.58276V3.83293L12.0038 0.936413Z" fill="#41479B"/>
<path d="M12.0037 8.79851V7.57898H10.1423L12.0037 8.79851Z" fill="#41479B"/>
<path d="M7.58276 8.16699V11.9999H12.0038V11.0635L7.58276 8.16699Z" fill="#41479B"/>
<path d="M12.0037 4.42107V3.20154L10.1423 4.42107H12.0037Z" fill="#41479B"/>
<path d="M0.00390625 11.0635V11.9999H4.42493V8.16699L0.00390625 11.0635Z" fill="#41479B"/>
<path d="M12.0037 11.0636V10.1278L8.07714 7.57898H9.2372L12.0037 9.37479V8.79851L10.1423 7.57898H12.0037V6.94739H6.95117V12H7.58271V8.16706L12.0037 11.0636Z" fill="#F5F5F5"/>
<path d="M0.00390625 6.94739V7.57898H1.86529L0.00390625 8.79851V9.68449L3.24753 7.57898H4.40754L0.00390625 10.4375V11.0636L4.42493 8.16706V12H5.05651V6.94739H0.00390625Z" fill="#F5F5F5"/>
<path d="M5.05651 0H4.42493V3.83293L0.00390625 0.936413V1.96118L3.79334 4.42102H2.63329L0.00390625 2.71422V3.20148L1.86529 4.42102H0.00390625V5.05261H5.05651V0Z" fill="#F5F5F5"/>
<path d="M12.0037 5.05261V4.42102H10.1423L12.0037 3.20148V2.30421L8.74276 4.42102H7.58271L12.0037 1.55122V0.936413L7.58271 3.83293V0H6.95117V5.05261H12.0037Z" fill="#F5F5F5"/>
<path d="M12.0038 6.94728V5.05261H6.95123V0H5.05651V5.05261H0.00390625V6.94728H5.05651V11.9999H6.95123V6.94728H12.0038Z" fill="#FF4B55"/>
<path d="M3.24753 7.57898L0.00390625 9.68449V10.4375L4.40754 7.57898H3.24753Z" fill="#FF4B55"/>
<path d="M8.07715 7.57898L12.0037 10.1278V9.37479L9.2372 7.57898H8.07715Z" fill="#FF4B55"/>
<path d="M3.79334 4.42114L0.00390625 1.9613V2.71434L2.63329 4.42114H3.79334Z" fill="#FF4B55"/>
<path d="M8.74281 4.42107L12.0038 2.30426V1.55127L7.58276 4.42107H8.74281Z" fill="#FF4B55"/>
</g>
<defs>
<clipPath id="clip0_8615_27616">
<path d="M-0.00146484 2C-0.00146484 0.895432 0.893966 0 1.99854 0H21.9983C23.1029 0 23.9983 0.895431 23.9983 2V21.9998C23.9983 23.1043 23.1029 23.9998 21.9983 23.9998H1.99854C0.893967 23.9998 -0.00146484 23.1043 -0.00146484 21.9998V2Z" fill="white"/>
</clipPath>
</defs>
</svg>
