<svg width="24" height="24" viewBox="0 0 24 24" fill="none" xmlns="http://www.w3.org/2000/svg">
<g clip-path="url(#clip0_8615_27582)">
<path d="M24.0007 0H0.000976562V23.9998H24.0007V0Z" fill="#FF6E55"/>
<path d="M0.000976562 23.9998L24.0007 0H0.169069C0.0762571 0 0.000976562 0.11489 0.000976562 0.256591V23.9998Z" fill="#FFE15A"/>
<path d="M13.8256 6.42134C13.5083 6.48935 13.0097 6.31934 13.0097 6.31934C13.1124 6.49624 13.3871 6.61535 13.6349 6.69039C13.4348 6.71036 13.2066 6.72166 12.953 6.71604C11.933 6.69335 11.457 7.36201 11.457 7.36201C11.8197 7.13533 12.1937 7.13533 12.749 7.21464C13.3043 7.29395 14.4829 6.94263 14.4829 6.94263L14.5849 6.4893C14.5849 6.4893 14.1429 6.35332 13.8256 6.42134Z" fill="#FFF5DC"/>
<path d="M14.874 4.29639C14.874 4.29639 15.4014 4.40814 15.9367 4.71526C15.9045 4.73218 15.8737 4.75285 15.8443 4.77709C15.6713 4.69107 15.4624 4.62151 15.1913 4.59385C15.1913 4.59385 15.4719 4.66674 15.7414 4.87791C15.6715 4.96013 15.6141 5.0536 15.5698 5.13675C14.9769 4.50099 14.3357 4.9253 14.3357 4.9253C15.1311 4.86479 15.3187 5.37591 15.3635 5.6227C15.2095 5.51977 15.0643 5.43492 14.9282 5.36583C14.9482 5.35088 14.9583 5.33742 14.9817 5.322C14.9817 5.322 14.9318 5.32402 14.8628 5.33428C13.8477 4.84641 13.3497 5.2313 13.3497 5.2313C13.8005 5.17617 14.217 5.29346 14.5477 5.43933C14.4023 5.52295 14.304 5.67023 14.3852 5.92068C13.8159 5.76576 13.1004 5.61319 12.749 5.70726C12.1143 5.87728 12.3183 6.46658 12.3183 6.46658C12.3183 6.46658 12.3297 6.06993 12.7603 5.97923C13.0827 5.91136 14.687 6.42121 14.687 6.42121L15.2083 6.17193L14.993 5.99057C14.993 5.99057 14.5791 5.8245 14.7566 5.53903C15.0533 5.69719 15.2423 5.85459 15.2423 5.85459L15.3698 5.66817C15.376 5.71636 15.3783 5.75259 15.3783 5.75259L15.7409 5.59397L15.8202 5.48063C15.852 5.30855 15.9046 5.1863 15.965 5.09475C16.0699 5.22657 16.1567 5.38945 16.1999 5.59111L16.5286 5.62509C16.5286 5.62509 16.4752 5.24517 16.1075 4.94307C16.1401 4.91982 16.1723 4.90069 16.2041 4.8878C16.4463 5.06157 16.6721 5.27892 16.8289 5.55145L17.4353 5.54297C17.4353 5.54306 16.438 4.43237 14.874 4.29639Z" fill="#FFF5DC"/>
<path d="M21.2711 9.17435C21.7584 9.93921 20.9475 10.7502 20.1826 10.2629C20.1285 10.2285 20.0823 10.1823 20.0478 10.1282C19.5605 9.36335 20.3715 8.55238 21.1364 9.03964C21.1905 9.07409 21.2367 9.12035 21.2711 9.17435Z" fill="#FFF5DC"/>
<path d="M19.7036 15.3968C20.3662 16.4264 19.2709 17.5217 18.2413 16.8591C18.1727 16.815 18.114 16.7563 18.0699 16.6878C17.4073 15.6582 18.5026 14.5628 19.5323 15.2255C19.6008 15.2695 19.6595 15.3282 19.7036 15.3968Z" fill="#FFF5DC"/>
<path d="M11.7714 15.0414C12.2896 15.8547 11.4273 16.717 10.614 16.1988C10.5565 16.1622 10.5074 16.113 10.4708 16.0556C9.95261 15.2423 10.8149 14.38 11.6282 14.8981C11.6857 14.9347 11.7348 14.9839 11.7714 15.0414Z" fill="#FFF5DC"/>
<path d="M10.0154 18.7977C10.6136 19.7366 9.61813 20.7321 8.67918 20.134C8.61286 20.0917 8.55609 20.0349 8.51381 19.9686C7.91564 19.0297 8.91112 18.0342 9.85006 18.6323C9.91639 18.6746 9.9732 18.7314 10.0154 18.7977Z" fill="#FFF5DC"/>
<path d="M18.1435 7.66794C18.1435 7.66794 19.8893 8.29011 20.3109 8.5009C20.9059 8.79841 21.8408 7.93142 22.4954 8.6029C22.4954 8.6029 22.382 8.15525 21.838 8.12126C21.838 8.12126 21.8494 7.67928 21.3394 7.70192C21.3394 7.70192 21.7134 7.97394 21.498 8.16659C21.498 8.16659 21.3507 7.83795 20.9314 7.89458C20.9314 7.89458 21.2487 8.01926 21.1694 8.21192C21.1694 8.21192 20.665 8.45557 20.4384 8.2969C20.2118 8.13823 18.4211 7.1721 17.8545 7.14941L18.1435 7.66794Z" fill="#FFF5DC"/>
<path d="M17.6968 8.2119C17.6968 8.2119 18.0708 8.32239 18.6148 8.89186C18.8669 9.15582 19.5157 9.17236 19.4137 8.66237C19.3117 8.15237 18.0538 7.83789 17.9178 7.83789C17.7818 7.83789 17.6968 8.2119 17.6968 8.2119Z" fill="#F5F5F5"/>
<path d="M20.4192 7.09009L19.7052 7.32807C19.7052 7.32807 19.7845 7.81257 19.3765 8.02505C19.1253 8.15592 18.9573 8.49534 18.9686 8.74466C18.9686 8.74466 19.2065 8.41603 19.5465 8.23467C19.6266 8.19197 19.7004 8.15451 19.7676 8.11655C19.7541 8.28642 19.7505 8.46482 19.7732 8.62003C19.8412 9.08465 19.6938 9.24332 19.6938 9.24332C19.6938 9.24332 20.0905 8.93732 20.0452 8.43872C20.0277 8.24714 20.0592 8.11139 20.1079 8.00836C20.143 8.35561 20.3285 8.51807 20.3285 8.51807C20.1925 8.24606 20.4758 7.95136 20.5891 7.71338C20.7025 7.47535 20.4192 7.09009 20.4192 7.09009Z" fill="#FFF5DC"/>
<path d="M22.2239 6.10417C21.9428 6.00854 21.6715 6.18067 21.51 6.32518C21.4412 6.38668 21.26 6.41794 21.0746 6.43473C21.1984 6.34712 21.3301 6.24376 21.3994 6.15517C21.5524 5.95965 21.8329 5.92567 22.0709 5.84917C22.3089 5.77267 22.4109 5.46667 22.4109 5.46667C22.4109 5.46667 22.2834 5.65365 21.9264 5.63669C21.5694 5.61967 21.4504 5.6027 21.2124 5.8577C21.1393 5.93607 21.0367 5.99673 20.9305 6.04543C20.9327 5.93401 20.9424 5.79231 20.9744 5.69622C21.0339 5.51772 21.3059 5.3732 21.3229 5.01625C21.3399 4.65926 21.3569 4.69324 21.5609 4.48076C21.7649 4.26828 21.8244 3.86877 21.7649 3.99626C21.7054 4.12376 21.4334 4.27676 21.2039 4.48924C20.9744 4.70173 21.1359 4.93971 21.0169 5.12674C20.8979 5.31372 20.6175 5.35624 20.6004 5.7047C20.5834 6.05321 20.337 6.25716 20.337 6.25716C20.337 6.25716 19.7335 6.58866 20.456 6.85214C21.1785 7.11562 21.7629 6.38255 22.1219 6.40168C22.9209 6.44419 23.1334 6.18067 23.1334 6.18067C22.9974 6.18067 22.649 6.24863 22.2239 6.10417Z" fill="#FFF5DC"/>
<path d="M13.4608 11.7027C13.4154 11.6687 12.6335 10.8074 12.3728 10.6827L12.4295 10.898C12.4295 10.898 12.2595 10.8867 11.9535 10.5127C11.6476 10.1387 11.4209 10.0367 11.4209 10.0367C11.4209 10.0367 11.6362 10.3767 11.6249 10.5921C11.6249 10.5921 11.1602 10.5581 10.6616 10.7961C10.6616 10.7961 10.4349 10.3541 10.2422 10.2747C10.2422 10.2747 10.3102 10.7394 10.1516 10.8527C9.9929 10.966 11.6475 11.748 11.8742 11.7707C12.1008 11.7933 13.4608 11.7027 13.4608 11.7027Z" fill="#FFF5DC"/>
<path d="M14.4922 10.0141C14.4761 10.0101 14.3924 10.0689 14.2845 10.1459C14.2368 9.87074 14.1409 9.31429 14.1409 9.28875C14.1409 9.25476 13.3702 8.17815 13.3476 8.13277C13.3472 8.13198 13.3446 8.13193 13.3441 8.13118C13.4189 7.95015 13.4995 7.642 13.0416 7.88345C12.4183 8.21213 12.1689 8.97141 12.1689 8.97141C12.3111 8.82314 12.559 8.71003 12.7569 8.63644C12.761 8.72888 12.7618 8.83866 12.6336 9.02808C12.3729 9.41334 12.5203 9.56071 12.5203 9.56071C12.7243 9.20939 13.1776 9.17536 13.1776 9.17536C13.1096 9.5947 13.3476 9.83268 13.3476 9.83268L13.5403 9.60604C13.5165 9.93051 13.6902 10.2786 13.7981 10.4616C13.7554 10.4822 13.7165 10.498 13.6876 10.5013C13.4949 10.524 13.1889 10.6713 13.1889 10.6713C13.1889 10.6713 13.4369 10.6184 13.5777 10.7272C13.7185 10.836 13.9425 10.9192 14.0641 10.8936C14.0641 10.8936 14.0065 11.188 14.0705 11.2969C14.0705 11.2969 13.9105 11.2519 13.7249 11.2584C13.5393 11.2648 13.4042 11.136 13.4042 11.136C13.4042 11.136 13.7442 11.6233 13.9936 11.7253C14.2429 11.8273 14.6735 11.4533 14.6735 11.4533C14.6735 11.4533 14.5376 10.0253 14.4922 10.0141Z" fill="#FFF5DC"/>
<path d="M8.6329 17.1198C8.6329 17.1198 8.41755 17.1425 8.21356 17.4485L8.1229 17.1311C8.1229 17.1311 7.87358 17.3124 7.60156 17.1991C7.60156 17.1991 7.85089 17.1425 7.89622 16.9158C7.94154 16.6892 8.0322 16.6665 8.0322 16.6665C8.0322 16.6665 7.86219 16.4852 7.68087 16.4965C7.68087 16.4965 8.17953 16.2358 8.45154 16.4851C8.72355 16.7345 8.6329 17.1198 8.6329 17.1198Z" fill="#FFF5DC"/>
<path d="M14.6283 14.6152C14.6283 14.6152 14.4129 14.6379 14.2089 14.9438L14.1183 14.6265C14.1183 14.6265 13.8689 14.8078 13.5969 14.6945C13.5969 14.6945 13.8463 14.6378 13.8916 14.4112C13.9369 14.1845 14.0276 14.1619 14.0276 14.1619C14.0276 14.1619 13.8575 13.9806 13.6762 13.9918C13.6762 13.9918 14.1749 13.7312 14.4469 13.9805C14.7189 14.2299 14.6283 14.6152 14.6283 14.6152Z" fill="#FFF5DC"/>
<path d="M18.3041 11.391C18.3041 11.391 18.199 11.5803 18.3323 11.9231L18.0205 11.815C18.0205 11.815 18.0257 12.1233 17.7767 12.2808C17.7767 12.2808 17.8735 12.0442 17.714 11.8769C17.5545 11.7096 17.588 11.6224 17.588 11.6224C17.588 11.6224 17.3419 11.6574 17.2471 11.8123C17.2471 11.8123 17.3201 11.2544 17.6804 11.1749C18.0408 11.0955 18.3041 11.391 18.3041 11.391Z" fill="#FFF5DC"/>
<path d="M19.3984 15.2209L19.6179 15.3518C19.554 15.2969 19.4783 15.2557 19.3984 15.2209Z" fill="#FF6E55"/>
<path d="M7.0268 16.315C7.0268 16.315 6.01816 17.7317 4.86218 18.0377L5.27018 17.5163C5.27018 17.5163 4.7262 17.9923 4.1142 18.0943L4.85084 17.2443C4.85084 17.2443 3.20756 18.7743 1.09961 19.0916C1.09961 19.0916 2.73155 18.0603 3.06023 17.6976C3.06023 17.6976 2.26693 18.015 1.55293 18.0263C1.55293 18.0263 3.60421 17.233 3.94419 16.9156C3.94419 16.9156 3.1282 17.0969 2.61825 16.927C2.61825 16.927 4.38622 16.417 4.63554 16.485C4.63554 16.485 3.61555 16.077 3.00361 16.1223C3.00361 16.1223 4.04624 15.873 5.25888 16.1223L4.99821 15.839C4.99821 15.839 5.68952 15.6577 6.36953 15.6124C7.04949 15.5671 6.70951 15.5104 6.70951 15.5104L6.78882 15.2837C6.78882 15.2837 6.34684 15.3404 5.98417 15.2837C5.98417 15.2837 7.07213 14.6717 7.37813 14.3998C7.68412 14.1278 7.48013 14.2525 7.48013 14.2525C7.48013 14.2525 6.91346 14.4451 6.70946 14.4791C6.70946 14.4791 7.21946 13.8898 7.37813 13.5045C7.37813 13.5045 6.91346 13.6858 6.51681 13.5045C6.51681 13.5045 6.99277 13.3685 7.2308 13.1305C7.46883 12.8924 7.82011 12.3003 7.82011 12.3003L7.41211 12.4788C7.41211 12.4788 7.76911 11.8668 8.08359 11.7138C8.08359 11.7138 7.54809 11.7563 7.37813 11.6288C7.37813 11.6288 7.94761 11.4929 8.11762 11.3568C8.28763 11.2208 8.6616 10.8638 9.04409 10.9998C9.04409 10.9998 9.57959 10.5069 9.40109 10.1838C9.40109 10.1838 9.7496 10.2093 9.92805 10.4218C10.1066 10.6343 10.387 10.8128 10.387 10.8128L8.93075 11.9518L7.82011 15.5557L7.0268 16.315Z" fill="#FFF5DC"/>
<path d="M21.2917 9.51524C21.7111 10.1952 21.1897 10.2632 21.1897 10.2632C21.1104 9.61724 20.5664 9.6966 20.5664 9.6966L20.7138 10.1726C19.8072 10.2859 19.8751 9.37921 19.8751 9.37921C19.7392 9.49256 19.5125 9.95718 19.5125 9.95718C19.5125 9.95718 17.0645 10.7732 15.4099 8.34793C15.4099 8.34793 15.3646 7.91724 15.5006 7.71324L14.4806 6.94263L13.1659 7.12398C13.1659 7.12398 12.6446 8.3026 13.2793 9.02793C13.9139 9.75322 14.6619 10.7732 14.5259 11.2492C14.4453 11.5313 14.2054 11.6463 13.8723 11.6222C13.6434 11.6057 13.3706 11.5236 13.0753 11.3852C12.3499 11.0452 10.582 10.3199 9.31271 10.9092C8.04344 11.4986 7.90572 12.5183 7.65809 13.3118C7.4389 14.0144 6.95244 15.8076 3.48705 17.4438C3.32154 17.5219 3.40572 17.7736 3.58338 17.7294C5.08556 17.3559 7.13347 16.7336 7.76576 15.9978L8.27575 16.0148L8.08877 16.7967C8.08877 16.7967 8.75176 17.0007 8.85376 17.9697C8.85376 17.9697 7.69212 18.287 8.34944 19.2843C8.34944 19.2843 8.45144 18.559 9.25604 18.525C9.25604 18.525 9.4374 18.763 9.834 18.797C9.834 18.797 10.038 19.1257 9.936 19.3977C9.936 19.3977 10.7406 19.1484 10.0607 18.185C10.0607 18.185 10.82 18.0038 10.922 18.9557C10.922 18.9557 11.4094 17.4144 9.66971 17.5278C9.66971 17.5278 9.66971 17.2558 9.21071 16.7628C9.21071 16.7628 9.09742 16.4851 9.21071 16.0998C9.24479 15.9839 9.27563 15.8636 9.30141 15.7408C9.39587 15.7932 9.54127 15.8553 9.732 15.8618C9.732 15.8618 10.0154 16.3264 10.854 16.2471C10.854 16.2471 10.242 15.9638 10.2987 15.4198C10.3553 14.8759 11.0693 14.5812 11.3753 14.7965C11.3753 14.7965 11.296 14.0825 10.1854 14.5472C10.1854 14.5472 10.1854 14.0145 10.7747 13.9806C10.7747 13.9806 9.82271 13.2552 9.60741 14.6379L9.21348 14.7364C9.02101 14.2028 8.77722 12.9641 9.85669 12.513C10.9956 12.037 12.1856 13.1079 14.2936 13.2099C14.2936 13.2099 14.0896 14.4509 14.7695 14.7569C15.4495 15.0629 17.1154 15.3519 17.1154 15.3519C17.0984 17.1425 18.4017 16.9045 18.4017 16.9045C17.7692 16.5254 17.7692 15.8022 18.1596 15.3799C18.6917 14.8041 19.6144 15.3519 19.6144 15.3519C19.6014 14.4803 18.3791 14.6152 18.3791 14.6152C18.5717 14.0486 19.3311 13.9012 19.3311 13.9012C18.2771 13.5159 17.4044 14.6549 17.4044 14.6549L15.6195 14.1449C15.6195 14.1449 15.5515 13.7879 15.9765 13.3119C16.4015 12.836 16.7585 12.037 16.6395 11.187C16.6395 11.187 17.1325 10.8413 17.7445 11.1813C18.3565 11.5213 19.6711 10.7733 19.6711 10.7733C20.2378 11.4986 21.5863 11.3627 21.7677 10.49C21.9491 9.61724 21.2917 9.51524 21.2917 9.51524Z" fill="#F5F5F5"/>
<path d="M19.4217 7.42993C19.0846 7.2333 18.4811 7.06727 18.2771 7.52059C18.0731 7.97391 17.8464 8.42724 17.1438 8.40455C16.4411 8.38186 16.1238 8.98251 15.6365 8.81255C15.6365 8.81255 16.0898 8.66522 16.1805 8.44988C16.2711 8.23454 16.6338 7.83788 16.6338 7.83788L16.5885 7.42989C16.5885 7.42989 15.7498 7.47512 15.5005 7.71315C15.2512 7.95118 14.3105 7.5092 14.3105 7.5092L14.4239 6.52324C14.4239 6.52324 15.1492 5.4126 16.1578 5.49195C17.1665 5.57131 17.3364 5.31064 17.8238 5.34463C18.3111 5.37861 18.5604 5.87726 19.0818 5.99061C19.6031 6.10395 20.6457 5.88861 20.7817 6.20595C20.9177 6.52329 20.521 6.64793 20.419 7.08991C20.317 7.53193 20.1017 7.82659 19.4217 7.42993Z" fill="#F5F5F5"/>
<path d="M16.4749 7.14661C16.4749 7.14661 15.9876 7.47524 15.5796 7.33926C15.1716 7.20328 14.8089 7.24861 14.3896 7.38459C14.3896 7.38459 15.1603 7.29393 15.4776 7.58859C15.7949 7.88324 16.5996 7.69059 16.6562 7.5659L16.4749 7.14661Z" fill="#FFF5DC"/>
<path d="M16.7243 7.906C16.7243 7.906 16.2484 8.24598 15.7724 8.15533C15.2964 8.06467 14.8657 8.25733 14.8657 8.25733C14.8657 8.25733 15.217 7.87202 15.693 7.93999C16.169 8.008 16.339 7.54333 16.339 7.54333L16.6563 7.56602L16.7243 7.906Z" fill="#FFF5DC"/>
<path d="M17.6238 7.09241C18.0242 7.72892 17.3521 8.40101 16.7156 8.00061C16.6673 7.97028 16.6261 7.92898 16.5957 7.88075C16.1953 7.24424 16.8674 6.57215 17.5039 6.97255C17.5522 7.00293 17.5934 7.04418 17.6238 7.09241Z" fill="#FFF5DC"/>
<path d="M16.7356 7.01072C16.7356 7.01072 16.4863 6.69338 15.8629 6.81806C15.2396 6.94275 15.0923 6.71606 15.0923 6.71606C15.0923 6.71606 15.3869 7.16939 15.8516 7.11272C16.3163 7.05605 16.5089 7.37339 16.5089 7.37339L16.7356 7.01072Z" fill="#FFF5DC"/>
<path d="M18.8324 6.21708C18.8884 6.13983 18.9589 6.06628 19.0552 6.01022C19.112 5.97717 19.1705 5.95627 19.2283 5.93911C19.2412 5.85309 19.2286 5.76024 19.1795 5.676C19.0724 5.49211 18.8496 5.42232 18.6819 5.51996C18.5143 5.61764 18.4652 5.84583 18.5724 6.02972C18.6325 6.13298 18.7295 6.19519 18.8324 6.21708Z" fill="#FFF5DC"/>
<path d="M18.2758 6.94728C18.3076 6.85733 18.3544 6.76686 18.4309 6.68582C18.4761 6.638 18.5262 6.60149 18.5768 6.56863C18.5648 6.48247 18.5265 6.39702 18.4555 6.33009C18.3008 6.18402 18.0674 6.18009 17.9342 6.32118C17.801 6.46227 17.8185 6.69505 17.9733 6.84111C18.0602 6.92319 18.1709 6.95539 18.2758 6.94728Z" fill="#FFF5DC"/>
</g>
<defs>
<clipPath id="clip0_8615_27582">
<path d="M-0.00146484 2C-0.00146484 0.895432 0.893966 0 1.99854 0H21.9983C23.1029 0 23.9983 0.895431 23.9983 2V21.9998C23.9983 23.1043 23.1029 23.9998 21.9983 23.9998H1.99854C0.893967 23.9998 -0.00146484 23.1043 -0.00146484 21.9998V2Z" fill="white"/>
</clipPath>
</defs>
</svg>
