<svg width="24" height="24" viewBox="0 0 24 24" fill="none" xmlns="http://www.w3.org/2000/svg">
<g clip-path="url(#clip0_8615_27689)">
<path d="M24.002 15.9998H0.00219727V23.9998H24.002V15.9998Z" fill="#73AF00"/>
<path d="M24.002 0H0.00219727V8.00008H24.002V0Z" fill="#FF4B55"/>
<path d="M24.002 8.00012H0.00219727V16.0002H24.002V8.00012Z" fill="#FFE15A"/>
<path d="M11.1862 8.41956C11.1862 8.41956 11.17 8.4399 11.1395 8.47801C11.1141 8.51317 11.0759 8.56736 11.0343 8.63931C10.9523 8.78232 10.8664 9.00404 10.8641 9.26837C10.8632 9.39722 10.8898 9.55369 10.9338 9.67814C10.9815 9.81548 11.0605 9.94687 11.1605 10.0642C11.2606 10.1826 11.3943 10.2739 11.5373 10.3413C11.6082 10.3773 11.686 10.3979 11.7633 10.417C11.8016 10.4287 11.8423 10.4293 11.8816 10.437C11.9013 10.4407 11.9217 10.4391 11.9418 10.4406L11.9719 10.442L11.9869 10.4427L11.9945 10.4431L11.9982 10.4433L12.0001 10.4434C11.994 10.4436 12.0164 10.4431 11.9869 10.4439C12.0359 10.441 12.0953 10.4407 12.1356 10.4358C12.1708 10.4276 12.2005 10.429 12.2408 10.417C12.318 10.3979 12.3958 10.3773 12.4668 10.3413C12.6097 10.2739 12.7435 10.1826 12.8435 10.0642C12.9435 9.94687 13.0225 9.81553 13.0702 9.67814C13.1158 9.53836 13.1402 9.40472 13.1399 9.2678C13.1377 9.00465 13.0516 8.78213 12.9697 8.63931C12.9283 8.56764 12.89 8.51312 12.8627 8.47642C12.8344 8.44023 12.8193 8.42092 12.8193 8.42092L12.8155 8.41609C12.7884 8.38136 12.7945 8.33111 12.8292 8.30392C12.8567 8.28245 12.8939 8.28184 12.9216 8.29956C12.9216 8.29956 12.9449 8.31451 12.9887 8.34255C13.03 8.37353 13.0941 8.4175 13.1631 8.48842C13.3017 8.62557 13.4816 8.87002 13.5465 9.22524C13.5786 9.39521 13.5821 9.60085 13.5378 9.80302C13.4949 10.0072 13.4078 10.2183 13.2672 10.4031C13.1292 10.5887 12.9437 10.7528 12.7231 10.8636C12.6143 10.9216 12.4958 10.9637 12.3743 10.993C12.3161 11.0101 12.2422 11.0172 12.1763 11.0276C12.1146 11.0344 12.0708 11.0345 12.017 11.0383L11.9961 11.0383L11.9903 11.0381L11.9786 11.0375L11.9551 11.0363L11.9081 11.0338C11.8769 11.0313 11.8455 11.0317 11.8145 11.0263C11.7528 11.0155 11.6899 11.0104 11.6297 10.993C11.5082 10.9636 11.3897 10.9215 11.281 10.8635C11.0604 10.7528 10.8748 10.5886 10.7368 10.4031C10.5962 10.2183 10.5092 10.0071 10.4662 9.80297C10.4203 9.58547 10.4261 9.40261 10.4576 9.22463C10.5224 8.87059 10.7024 8.62529 10.8409 8.48837C10.9097 8.41773 10.974 8.37344 11.0171 8.34091C11.0586 8.3148 11.0808 8.30087 11.0808 8.30087C11.1185 8.27725 11.1681 8.28859 11.1918 8.32619C11.2104 8.356 11.207 8.39359 11.1862 8.41956Z" fill="#73AF00"/>
<path d="M11.8433 14.7091V15.7087C11.8433 15.8084 11.7227 15.8583 11.6522 15.7878L11.5972 15.7328C11.5515 15.6871 11.5259 15.6252 11.5259 15.5606V14.7092L11.8433 14.7091Z" fill="#FF4B55"/>
<path d="M11.3672 14.5503V15.2758C11.3672 15.3195 11.3845 15.3613 11.4154 15.3921L11.5259 15.5026V14.5503H11.3672V14.5503Z" fill="#FFE15A"/>
<path d="M11.2085 14.5503V14.9397C11.2085 14.9953 11.2306 15.0486 11.2699 15.0879L11.3672 15.1852V14.5503H11.2085V14.5503Z" fill="#73AF00"/>
<path d="M12.1606 14.7091V15.7087C12.1606 15.8084 12.2812 15.8583 12.3517 15.7878L12.4067 15.7328C12.4524 15.6871 12.478 15.6252 12.478 15.5606V14.7092L12.1606 14.7091Z" fill="#FF4B55"/>
<path d="M12.6367 14.5503V15.2758C12.6367 15.3195 12.6194 15.3613 12.5886 15.3921L12.478 15.5026V14.5503H12.6367V14.5503Z" fill="#FFE15A"/>
<path d="M12.7957 14.5503V14.9397C12.7957 14.9953 12.7736 15.0486 12.7343 15.0879L12.637 15.1852V14.5503H12.7957V14.5503Z" fill="#73AF00"/>
<path d="M12.7956 11.6934L14.5416 10.4236V13.0348C14.5416 13.7842 13.9341 14.3916 13.1848 14.3916C12.9305 14.3916 12.6813 14.3201 12.4657 14.1854L11.5259 13.598V11.6713L12.7956 11.6934Z" fill="#FF4B55"/>
<path d="M13.9067 10.8853V12.7173C13.9067 13.4666 13.2992 14.0741 12.5499 14.0741C12.4373 14.0741 12.3261 14.0578 12.2179 14.0304L11.5259 13.5979V11.6712L12.7957 11.6932L13.9067 10.8853Z" fill="#FFE15A"/>
<path d="M13.4305 11.2316V12.4143C13.4305 13.1636 12.8231 13.7711 12.0737 13.7711C11.9611 13.7711 11.85 13.7548 11.7418 13.7275L11.5259 13.5925V11.6712L12.7957 11.6932L13.4305 11.2316Z" fill="#73AF00"/>
<path d="M14.6367 10.1379L15.3351 9.7887L14.8272 10.4236H14.5415L14.6367 10.1379Z" fill="#F5F5F5"/>
<path d="M13.7478 12.4869L15.4937 11.2172V13.8284C15.4937 14.5777 14.8863 15.1852 14.1369 15.1852C13.8826 15.1852 13.6334 15.1137 13.4178 14.9789L12.478 14.3916V12.4649L13.7478 12.4869Z" fill="#FF4B55"/>
<path d="M14.3827 12.0253V13.208C14.3827 13.9573 13.7752 14.5648 13.0259 14.5648C12.9133 14.5648 12.8021 14.5485 12.6939 14.5212L12.478 14.3862V12.465L13.7478 12.487L14.3827 12.0253Z" fill="#73AF00"/>
<path d="M15.5891 10.9314L16.2875 10.5823L15.7796 11.2171H15.4939L15.5891 10.9314Z" fill="#F5F5F5"/>
<path d="M13.2717 12.1696L15.0177 10.8998V13.511C15.0177 14.2604 14.4102 14.8678 13.6609 14.8678C13.4066 14.8678 13.1574 14.7963 12.9418 14.6616L12.002 14.0742V12.1475L13.2717 12.1696Z" fill="#FF4B55"/>
<path d="M14.3828 11.3615V13.1935C14.3828 13.9428 13.7754 14.5503 13.026 14.5503C12.9134 14.5503 12.8022 14.534 12.6941 14.5066L12.002 14.0741V12.1474L13.2717 12.1695L14.3828 11.3615Z" fill="#FFE15A"/>
<path d="M13.9066 11.7078V12.8905C13.9066 13.6398 13.2992 14.2473 12.5498 14.2473C12.4372 14.2473 12.326 14.231 12.2179 14.2036L12.002 14.0687V12.1474L13.2717 12.1695L13.9066 11.7078Z" fill="#73AF00"/>
<path d="M15.1128 10.6141L15.8112 10.2649L15.3033 10.8998H15.0176L15.1128 10.6141Z" fill="#F5F5F5"/>
<path d="M11.2083 11.6934L9.4624 10.4236V13.0348C9.4624 13.7842 10.0698 14.3916 10.8192 14.3916C11.0735 14.3916 11.3227 14.3201 11.5383 14.1854L12.4781 13.598V11.6713L11.2083 11.6934Z" fill="#FF4B55"/>
<path d="M10.0974 10.8853V12.7173C10.0974 13.4666 10.7049 14.0741 11.4542 14.0741C11.5668 14.0741 11.678 14.0578 11.7862 14.0304L12.4782 13.5979V11.6712L11.2084 11.6932L10.0974 10.8853Z" fill="#FFE15A"/>
<path d="M10.5735 11.2316V12.4143C10.5735 13.1636 11.1809 13.7711 11.9303 13.7711C12.0429 13.7711 12.154 13.7548 12.2622 13.7275L12.4781 13.5925V11.6712L11.2084 11.6932L10.5735 11.2316Z" fill="#73AF00"/>
<path d="M9.36733 10.1379L8.66895 9.7887L9.17688 10.4236H9.46258L9.36733 10.1379Z" fill="#F5F5F5"/>
<path d="M10.2559 12.4869L8.51001 11.2172V13.8284C8.51001 14.5777 9.11746 15.1852 9.86679 15.1852C10.1211 15.1852 10.3703 15.1137 10.5859 14.9789L11.5257 14.3916V12.4649L10.2559 12.4869Z" fill="#FF4B55"/>
<path d="M9.62109 12.0253V13.208C9.62109 13.9573 10.2285 14.5648 10.9779 14.5648C11.0905 14.5648 11.2017 14.5485 11.3098 14.5212L11.5257 14.3862V12.465L10.256 12.487L9.62109 12.0253Z" fill="#73AF00"/>
<path d="M8.41494 10.9314L7.71655 10.5823L8.22444 11.2171H8.51014L8.41494 10.9314Z" fill="#F5F5F5"/>
<path d="M10.7323 12.1696L8.98633 10.8998V13.511C8.98633 14.2604 9.59378 14.8678 10.3431 14.8678C10.5974 14.8678 10.8466 14.7963 11.0622 14.6616L12.002 14.0742V12.1475L10.7323 12.1696Z" fill="#FF4B55"/>
<path d="M9.62109 11.3615V13.1935C9.62109 13.9428 10.2285 14.5503 10.9779 14.5503C11.0905 14.5503 11.2017 14.534 11.3098 14.5066L12.0019 14.0741V12.1474L10.7321 12.1695L9.62109 11.3615Z" fill="#FFE15A"/>
<path d="M10.0974 11.7078V12.8905C10.0974 13.6398 10.7049 14.2473 11.4542 14.2473C11.5668 14.2473 11.678 14.231 11.7862 14.2036L12.0021 14.0687V12.1474L10.7323 12.1694L10.0974 11.7078Z" fill="#73AF00"/>
<path d="M9.91941 14.5294L9.71017 14.3202C9.58328 14.1933 9.5867 13.9865 9.71776 13.8639L13.1818 10.6089L13.6307 11.0578L10.3757 14.5218C10.2531 14.6529 10.0463 14.6564 9.91941 14.5294Z" fill="#FFBE5A"/>
<path d="M9.97574 14.4448C9.93463 14.6297 9.69514 14.6297 9.65404 14.4448C9.65113 14.4317 9.65113 14.4177 9.65404 14.4046C9.69514 14.2198 9.93463 14.2198 9.97574 14.4046C9.97864 14.4177 9.97864 14.4317 9.97574 14.4448Z" fill="#FFBE5A"/>
<path d="M13.5222 10.7211C13.3983 10.5972 13.2475 10.5469 13.1855 10.6089C13.1235 10.6709 13.1738 10.8216 13.2978 10.9456C13.4217 11.0696 13.5725 11.1198 13.6344 11.0578C13.6964 10.9958 13.6462 10.8451 13.5222 10.7211Z" fill="#F5F5F5"/>
<path d="M14.0829 14.5294L14.2921 14.3202C14.419 14.1933 14.4156 13.9865 14.2845 13.8639L10.8205 10.6089L10.3716 11.0578L13.6266 14.5218C13.7492 14.6529 13.956 14.6564 14.0829 14.5294Z" fill="#FFBE5A"/>
<path d="M14.0266 14.4448C14.0677 14.6297 14.3072 14.6297 14.3483 14.4448C14.3512 14.4317 14.3512 14.4177 14.3483 14.4046C14.3072 14.2198 14.0677 14.2198 14.0266 14.4046C14.0237 14.4177 14.0237 14.4317 14.0266 14.4448Z" fill="#FFBE5A"/>
<path d="M10.706 10.946C10.83 10.8221 10.8802 10.6713 10.8182 10.6094C10.7562 10.5474 10.6055 10.5976 10.4815 10.7216C10.3576 10.8456 10.3073 10.9963 10.3693 11.0583C10.4313 11.1203 10.582 11.07 10.706 10.946Z" fill="#F5F5F5"/>
<path d="M12.0021 14.3916C12.7771 14.3916 13.4055 13.6455 13.4055 12.725C13.4055 11.8046 12.7771 11.0585 12.0021 11.0585C11.227 11.0585 10.5986 11.8046 10.5986 12.725C10.5986 13.6455 11.227 14.3916 12.0021 14.3916Z" fill="#FFBE5A"/>
<path d="M12.0021 11.2172L12.0766 11.5405L12.2473 11.256L12.2183 11.5865L12.4686 11.3688L12.3388 11.6741L12.6441 11.5443L12.4263 11.7946L12.7569 11.7655L12.4724 11.9363L12.7957 12.0108L12.4724 12.0853L12.7569 12.256L12.4263 12.2269L12.6441 12.4772L12.3388 12.3475L12.4686 12.6528L12.2183 12.4351L12.2473 12.7655L12.0766 12.4811L12.0021 12.8044L11.9276 12.4811L11.7568 12.7655L11.7859 12.4351L11.5356 12.6528L11.6654 12.3475L11.36 12.4772L11.5778 12.2269L11.2473 12.256L11.5318 12.0853L11.2085 12.0108L11.5318 11.9363L11.2473 11.7655L11.5778 11.7946L11.36 11.5443L11.6654 11.6741L11.5356 11.3688L11.7859 11.5865L11.7568 11.256L11.9276 11.5405L12.0021 11.2172Z" fill="#FF4B55"/>
<path d="M13.7579 12.6953C13.7579 12.6953 13.2321 12.8342 12.8899 12.5465C12.5095 12.2268 12.2243 12.0758 12.1022 12.0191C12.0603 11.9996 12.0135 11.9997 11.9716 12.019C11.8841 12.0594 11.723 12.1432 11.5804 12.2688C11.3721 12.4523 10.7323 12.8144 10.6033 12.8144V13.6034L11.6101 14.476L12.8006 14.4412L13.7579 12.6953Z" fill="#73AF00"/>
<path d="M12.0021 14.7884C10.9956 14.7884 10.1768 13.8627 10.1768 12.725C10.1768 11.5873 10.9956 10.6616 12.0021 10.6616C13.0085 10.6616 13.8273 11.5873 13.8273 12.725C13.8273 13.8627 13.0085 14.7884 12.0021 14.7884ZM12.0021 11.1378C11.2581 11.1378 10.6529 11.8498 10.6529 12.725C10.6529 13.6001 11.2582 14.3122 12.0021 14.3122C12.746 14.3122 13.3512 13.6001 13.3512 12.725C13.3512 11.8498 12.746 11.1378 12.0021 11.1378Z" fill="#3CC8FF"/>
<path d="M11.7319 14.3571L11.7669 14.4619L11.8774 14.4628C11.8917 14.4629 11.8977 14.4812 11.8861 14.4896L11.7972 14.5553L11.8305 14.6607C11.8349 14.6743 11.8193 14.6856 11.8077 14.6773L11.7177 14.613L11.6278 14.6773C11.6161 14.6856 11.6006 14.6743 11.6049 14.6607L11.6382 14.5553L11.5493 14.4896C11.5378 14.4812 11.5437 14.4629 11.558 14.4628L11.6685 14.4619L11.7035 14.3571C11.7082 14.3435 11.7274 14.3435 11.7319 14.3571Z" fill="#FFBE5A"/>
<path d="M11.2358 14.1437L11.2708 14.2486L11.3813 14.2494C11.3956 14.2495 11.4016 14.2678 11.39 14.2763L11.3011 14.3419L11.3344 14.4473C11.3388 14.461 11.3232 14.4722 11.3116 14.4639L11.2216 14.3996L11.1317 14.4639C11.12 14.4722 11.1045 14.461 11.1088 14.4473L11.1421 14.3419L11.0532 14.2763C11.0417 14.2678 11.0476 14.2495 11.0619 14.2494L11.1725 14.2486L11.2074 14.1437C11.2121 14.1302 11.2313 14.1302 11.2358 14.1437Z" fill="#FFBE5A"/>
<path d="M10.8374 13.7817L10.8724 13.8865L10.9829 13.8874C10.9972 13.8875 11.0031 13.9058 10.9916 13.9142L10.9027 13.9799L10.936 14.0853C10.9403 14.0989 10.9248 14.1102 10.9131 14.1019L10.8232 14.0376L10.7332 14.1019C10.7216 14.1102 10.706 14.0989 10.7104 14.0853L10.7437 13.9799L10.6548 13.9142C10.6432 13.9058 10.6492 13.8875 10.6635 13.8874L10.774 13.8865L10.809 13.7817C10.8136 13.7681 10.8328 13.7681 10.8374 13.7817Z" fill="#FFBE5A"/>
<path d="M10.5657 13.2997L10.6006 13.4046L10.7112 13.4054C10.7255 13.4055 10.7314 13.4238 10.7199 13.4323L10.631 13.498L10.6643 13.6034C10.6686 13.617 10.6531 13.6283 10.6414 13.6199L10.5515 13.5557L10.4615 13.6199C10.4499 13.6283 10.4343 13.617 10.4386 13.6034L10.472 13.498L10.383 13.4323C10.3715 13.4238 10.3775 13.4055 10.3918 13.4054L10.5023 13.4046L10.5373 13.2997C10.5419 13.2862 10.5611 13.2862 10.5657 13.2997Z" fill="#FFBE5A"/>
<path d="M10.4455 12.7392L10.4805 12.8441L10.591 12.8449C10.6053 12.845 10.6113 12.8633 10.5998 12.8718L10.5108 12.9374L10.5442 13.0428C10.5485 13.0564 10.533 13.0677 10.5213 13.0594L10.4313 12.9951L10.3414 13.0594C10.3298 13.0677 10.3142 13.0564 10.3185 13.0428L10.3518 12.9374L10.2629 12.8718C10.2514 12.8633 10.2573 12.845 10.2716 12.8449L10.3822 12.8441L10.4171 12.7392C10.4218 12.7256 10.441 12.7256 10.4455 12.7392Z" fill="#FFBE5A"/>
<path d="M12.2782 14.3571L12.2433 14.4619L12.1327 14.4628C12.1184 14.4629 12.1125 14.4812 12.124 14.4896L12.2129 14.5553L12.1796 14.6607C12.1753 14.6743 12.1908 14.6856 12.2025 14.6773L12.2924 14.613L12.3823 14.6773C12.394 14.6856 12.4095 14.6743 12.4052 14.6607L12.3719 14.5553L12.4608 14.4896C12.4723 14.4812 12.4664 14.4629 12.4521 14.4628L12.3415 14.4619L12.3066 14.3571C12.3019 14.3435 12.2827 14.3435 12.2782 14.3571Z" fill="#FFBE5A"/>
<path d="M12.7743 14.1437L12.7393 14.2486L12.6288 14.2494C12.6145 14.2495 12.6086 14.2678 12.6201 14.2763L12.709 14.3419L12.6757 14.4473C12.6714 14.461 12.6869 14.4722 12.6986 14.4639L12.7885 14.3996L12.8785 14.4639C12.8901 14.4722 12.9057 14.461 12.9013 14.4473L12.868 14.3419L12.9569 14.2763C12.9685 14.2678 12.9625 14.2495 12.9482 14.2494L12.8377 14.2486L12.8027 14.1437C12.798 14.1302 12.7788 14.1302 12.7743 14.1437Z" fill="#FFBE5A"/>
<path d="M13.1728 13.7817L13.1378 13.8865L13.0273 13.8874C13.013 13.8875 13.007 13.9058 13.0185 13.9142L13.1075 13.9799L13.0741 14.0853C13.0698 14.0989 13.0853 14.1102 13.097 14.1019L13.187 14.0376L13.2769 14.1019C13.2885 14.1102 13.304 14.0989 13.2997 14.0853L13.2664 13.9799L13.3553 13.9142C13.3669 13.9058 13.3609 13.8875 13.3466 13.8874L13.2361 13.8865L13.2011 13.7817C13.1965 13.7681 13.1773 13.7681 13.1728 13.7817Z" fill="#FFBE5A"/>
<path d="M13.4445 13.2997L13.4095 13.4046L13.299 13.4054C13.2847 13.4055 13.2787 13.4238 13.2903 13.4323L13.3792 13.498L13.3459 13.6034C13.3415 13.617 13.3571 13.6283 13.3687 13.6199L13.4587 13.5557L13.5486 13.6199C13.5603 13.6283 13.5758 13.617 13.5715 13.6034L13.5382 13.498L13.6271 13.4323C13.6386 13.4238 13.6327 13.4055 13.6184 13.4054L13.5079 13.4046L13.4729 13.2997C13.4682 13.2862 13.449 13.2862 13.4445 13.2997Z" fill="#FFBE5A"/>
<path d="M13.5644 12.7392L13.5294 12.8441L13.4189 12.8449C13.4046 12.845 13.3986 12.8633 13.4101 12.8718L13.4991 12.9374L13.4657 13.0428C13.4614 13.0564 13.4769 13.0677 13.4886 13.0594L13.5786 12.9951L13.6685 13.0594C13.6801 13.0677 13.6957 13.0564 13.6914 13.0428L13.6581 12.9374L13.747 12.8718C13.7585 12.8633 13.7526 12.845 13.7383 12.8449L13.6277 12.8441L13.5928 12.7392C13.5881 12.7256 13.5689 12.7256 13.5644 12.7392Z" fill="#FFBE5A"/>
<path d="M11.3125 13.7426L11.3652 13.9948H11.3879V13.8228C11.3879 13.8228 11.4254 13.9428 11.4784 13.9948H11.5214C11.5009 13.9685 11.4639 13.9137 11.4639 13.857C11.4639 13.7789 11.5261 13.7683 11.5261 13.6849H11.5793V13.9948H11.6104L11.668 13.7186C11.668 13.7186 11.7156 13.8914 11.8051 13.9948H11.8448C11.8162 13.9527 11.7566 13.844 11.7675 13.6795C11.7675 13.6795 11.8526 13.6369 11.8526 13.5216V13.3574C11.8526 13.3267 11.8775 13.3018 11.9083 13.3018H11.9466C11.9466 13.3018 11.8897 13.1914 11.8287 13.1754V13.1062L11.7828 13.1755C11.7391 13.185 11.7132 13.2254 11.7132 13.2688V13.3687C11.7132 13.3994 11.6883 13.4244 11.6576 13.4244H11.4587C11.3997 13.4244 11.3054 13.4833 11.3054 13.5587C11.3054 13.6341 11.362 13.6836 11.362 13.6836L11.3125 13.7426Z" fill="#F5F5F5"/>
<path d="M12.2037 13.4912H12.1855C12.0412 13.4991 11.9607 13.5939 11.9607 13.5939L12.107 13.7402V14.0155H12.2822V13.7402L12.4285 13.5939C12.4285 13.5939 12.348 13.4991 12.2037 13.4912Z" fill="#FFBE5A"/>
<path d="M12.5612 13.041H12.5083V14.0165H12.5612V13.041Z" fill="#F5F5F5"/>
<path d="M12.5367 13.0334L12.2515 13.3781C12.2515 13.3781 12.2143 13.212 12.3805 13.0483L12.0134 13.1152C12.0134 13.1152 12.125 12.9069 12.4177 12.9292L12.1176 12.6787C12.1176 12.6787 12.3755 12.6638 12.5069 12.8573C12.5069 12.8573 12.5813 12.634 12.7896 12.6241L12.6177 12.8854C12.6177 12.8854 12.7896 12.7978 13.0277 12.8746L12.673 12.9689C12.673 12.9689 12.8715 12.9887 12.9533 13.2788L12.6458 13.068C12.6458 13.068 12.74 13.1797 12.7053 13.3979L12.5367 13.0334Z" fill="#F5F5F5"/>
<path d="M8.88833 10.6141L8.18994 10.2649L8.69787 10.8998H8.98357L8.88833 10.6141Z" fill="#F5F5F5"/>
<path d="M12.4984 10.2098L14.3828 9.62996L13.3824 9.25487C13.2042 9.18803 13.0155 9.15381 12.8252 9.15381H12.6368C12.5492 9.15381 12.4781 9.22487 12.4781 9.31253V9.47124H12.0019H11.5257V9.31253C11.5257 9.22487 11.4547 9.15381 11.367 9.15381H11.1787C10.9884 9.15381 10.7996 9.18803 10.6214 9.25487L9.62109 9.62996L11.5054 10.2098C11.5992 10.2386 11.6445 10.3447 11.6007 10.4325L11.367 10.8997H12.6368L12.4031 10.4325C12.3593 10.3447 12.4047 10.2386 12.4984 10.2098Z" fill="#825546"/>
<path d="M12.2545 9.42573C12.466 9.74855 12.1206 10.094 11.7977 9.88257C11.7786 9.87005 11.762 9.8535 11.7495 9.83438C11.538 9.51155 11.8835 9.16609 12.2063 9.37754C12.2255 9.39006 12.242 9.40656 12.2545 9.42573Z" fill="#F5F5F5"/>
<path d="M12.1608 9.62991C12.1608 9.71756 12.0897 9.78863 12.0021 9.78863H11.3672L11.6381 9.51769C11.6679 9.48793 11.7082 9.47119 11.7503 9.47119H12.0021C12.0897 9.47119 12.1608 9.54225 12.1608 9.62991Z" fill="#FFBE5A"/>
</g>
<defs>
<clipPath id="clip0_8615_27689">
<path d="M0 2C0 0.895432 0.895431 0 2 0H21.9998C23.1043 0 23.9998 0.895431 23.9998 2V21.9998C23.9998 23.1043 23.1043 23.9998 21.9998 23.9998H2C0.895432 23.9998 0 23.1043 0 21.9998V2Z" fill="white"/>
</clipPath>
</defs>
</svg>
