<svg width="24" height="24" viewBox="0 0 24 24" fill="none" xmlns="http://www.w3.org/2000/svg">
<g clip-path="url(#clip0_8615_27493)">
<path d="M24.0017 0H0.00195312V23.9998H24.0017V0Z" fill="#41479B"/>
<path d="M0.00195312 23.9998L24.0017 0H0.00195312V23.9998Z" fill="#F5F5F5"/>
<path d="M10.5384 0H0.00195312V10.5365L10.5384 0Z" fill="#FFE15A"/>
<path d="M9.21169 10.4641C9.02391 9.21086 8.03566 8.2226 6.78242 8.03487L6.35084 7.17163L5.91927 8.03487C4.66599 8.2226 3.67773 9.21086 3.49 10.4641L2.62671 10.8957L3.4899 11.3273C3.67768 12.5806 4.66594 13.5688 5.91918 13.7566L6.35075 14.6198L6.78232 13.7566C8.03561 13.5688 9.02387 12.5806 9.2116 11.3273L10.0748 10.8957L9.21169 10.4641ZM6.3508 13.3785C4.97962 13.3785 3.86804 12.2669 3.86804 10.8958C3.86804 9.52459 4.97958 8.41301 6.3508 8.41301C7.72202 8.41301 8.83355 9.52455 8.83355 10.8958C8.83355 12.267 7.72197 13.3785 6.3508 13.3785Z" fill="#464655"/>
<path d="M6.35087 9.30457L6.79641 10.1241L7.72884 10.1002L7.24191 10.8957L7.72884 11.6913L6.79641 11.6674L6.35087 12.4869L5.90538 11.6674L4.9729 11.6913L5.45983 10.8957L4.9729 10.1002L5.90538 10.1241L6.35087 9.30457Z" fill="#FF4B55"/>
</g>
<defs>
<clipPath id="clip0_8615_27493">
<path d="M0 2C0 0.895432 0.895431 0 2 0H21.9998C23.1043 0 23.9998 0.895431 23.9998 2V21.9998C23.9998 23.1043 23.1043 23.9998 21.9998 23.9998H2C0.895432 23.9998 0 23.1043 0 21.9998V2Z" fill="white"/>
</clipPath>
</defs>
</svg>
