<svg width="24" height="24" viewBox="0 0 24 24" fill="none" xmlns="http://www.w3.org/2000/svg">
<g clip-path="url(#clip0_8615_27571)">
<path d="M24.0015 0H0.00170898V23.9998H24.0015V0Z" fill="#41479B"/>
<path d="M20.691 0V23.9998L4.96704 0H20.691Z" fill="#FFE15A"/>
<path d="M9.9257 9.22273L10.2689 10.2517L11.3535 10.2601C11.4375 10.2607 11.4724 10.368 11.4048 10.4179L10.5323 11.0622L10.8594 12.0964C10.8848 12.1765 10.7936 12.2428 10.7252 12.1939L9.84278 11.5632L8.96037 12.1939C8.89203 12.2428 8.80081 12.1765 8.82612 12.0964L9.15331 11.0622L8.28078 10.4179C8.21319 10.368 8.24802 10.2607 8.33206 10.2601L9.41669 10.2517L9.75986 9.22273C9.78639 9.14304 9.89913 9.14304 9.9257 9.22273Z" fill="#F5F5F5"/>
<path d="M7.95695 6.35017L8.30012 7.37911L9.38475 7.3875C9.4688 7.38816 9.50363 7.49541 9.43603 7.54533L8.56351 8.18967L8.8907 9.22381C8.91605 9.30392 8.82484 9.3702 8.75645 9.32136L7.87403 8.69062L6.99162 9.32136C6.92328 9.3702 6.83206 9.30397 6.85737 9.22381L7.18456 8.18967L6.31203 7.54533C6.24444 7.49541 6.27927 7.38816 6.36331 7.3875L7.44794 7.37911L7.79111 6.35017C7.81764 6.27048 7.93038 6.27048 7.95695 6.35017Z" fill="#F5F5F5"/>
<path d="M6.22263 3.43334L6.5658 4.46228L7.65043 4.47067C7.73447 4.47133 7.7693 4.57858 7.70171 4.6285L6.82918 5.27284L7.15637 6.30698C7.18173 6.38709 7.09051 6.45337 7.02212 6.40453L6.13971 5.77379L5.25725 6.40448C5.1889 6.45333 5.09768 6.38709 5.123 6.30694L5.45018 5.27279L4.57766 4.62845C4.51007 4.57853 4.54489 4.47128 4.62894 4.47063L5.71357 4.46224L6.05674 3.43329C6.08332 3.35361 6.19605 3.35361 6.22263 3.43334Z" fill="#F5F5F5"/>
<path d="M4.21481 0.560777L4.55798 1.58972L5.64261 1.59811C5.72666 1.59877 5.76149 1.70602 5.69389 1.75594L4.82137 2.40027L5.14856 3.43442C5.17391 3.51453 5.0827 3.58081 5.01431 3.53197L4.13185 2.90118L3.24943 3.53192C3.18109 3.58076 3.08987 3.51453 3.11518 3.43437L3.44237 2.40023L2.56985 1.75594C2.50225 1.70602 2.53708 1.59877 2.62113 1.59811L3.70576 1.58972L4.04893 0.560777C4.0755 0.481043 4.18824 0.481043 4.21481 0.560777Z" fill="#F5F5F5"/>
<path d="M17.3137 20.4495L17.6569 21.4784L18.7415 21.4868C18.8255 21.4874 18.8604 21.5947 18.7928 21.6446L17.9202 22.289L18.2474 23.3231C18.2728 23.4032 18.1816 23.4695 18.1132 23.4206L17.2308 22.7899L16.3483 23.4206C16.28 23.4694 16.1887 23.4032 16.2141 23.3231L16.5412 22.2889L15.6687 21.6446C15.6011 21.5946 15.636 21.4874 15.72 21.4867L16.8046 21.4784L17.1478 20.4494C17.1743 20.3697 17.2871 20.3697 17.3137 20.4495Z" fill="#F5F5F5"/>
<path d="M15.5585 17.6652L15.9017 18.6942L16.9863 18.7026C17.0704 18.7032 17.1052 18.8105 17.0376 18.8604L16.1651 19.5047L16.4923 20.5389C16.5176 20.619 16.4264 20.6853 16.358 20.6364L15.4756 20.0057L14.5932 20.6364C14.5248 20.6853 14.4336 20.619 14.4589 20.5389L14.7861 19.5047L13.9136 18.8604C13.846 18.8105 13.8808 18.7032 13.9649 18.7026L15.0495 18.6942L15.3927 17.6652C15.4192 17.5855 15.5319 17.5855 15.5585 17.6652Z" fill="#F5F5F5"/>
<path d="M13.6366 14.837L13.9798 15.8659L15.0644 15.8743C15.1485 15.875 15.1833 15.9822 15.1157 16.0321L14.2432 16.6765L14.5704 17.7106C14.5957 17.7907 14.5045 17.857 14.4361 17.8082L13.5537 17.1774L12.6713 17.8082C12.603 17.857 12.5117 17.7908 12.5371 17.7106L12.8642 16.6765L11.9917 16.0321C11.9241 15.9822 11.959 15.875 12.043 15.8743L13.1276 15.8659L13.4708 14.837C13.4973 14.7573 13.6101 14.7573 13.6366 14.837Z" fill="#F5F5F5"/>
<path d="M11.6681 12.0527L12.0113 13.0817L13.0959 13.0901C13.18 13.0907 13.2148 13.198 13.1472 13.2479L12.2747 13.8922L12.6019 14.9264C12.6272 15.0065 12.536 15.0728 12.4676 15.0239L11.5852 14.3932L10.7028 15.0239C10.6345 15.0728 10.5432 15.0065 10.5686 14.9264L10.8957 13.8922L10.0232 13.2479C9.95562 13.198 9.99045 13.0907 10.0745 13.0901L11.1591 13.0817L11.5023 12.0527C11.5288 11.973 11.6416 11.973 11.6681 12.0527Z" fill="#F5F5F5"/>
</g>
<defs>
<clipPath id="clip0_8615_27571">
<path d="M0 2C0 0.895432 0.895431 0 2 0H21.9998C23.1043 0 23.9998 0.895431 23.9998 2V21.9998C23.9998 23.1043 23.1043 23.9998 21.9998 23.9998H2C0.895432 23.9998 0 23.1043 0 21.9998V2Z" fill="white"/>
</clipPath>
</defs>
</svg>
