<svg width="24" height="24" viewBox="0 0 24 24" fill="none" xmlns="http://www.w3.org/2000/svg">
<g clip-path="url(#clip0_8615_27487)">
<path d="M24.0007 0H0.000976562V23.9998H24.0007V0Z" fill="#73AF00"/>
<path d="M21.7975 11.9997L12.001 2.20312L2.20441 11.9997L12.001 21.7963L21.7975 11.9997Z" fill="#FFE15A"/>
<path d="M12.0012 16.0602C14.2436 16.0602 16.0615 14.2424 16.0615 12C16.0615 9.75754 14.2436 7.9397 12.0012 7.9397C9.75876 7.9397 7.94092 9.75754 7.94092 12C7.94092 14.2424 9.75876 16.0602 12.0012 16.0602Z" fill="#41479B"/>
<path d="M8.51825 9.92281C8.32668 10.2435 8.17879 10.5921 8.08105 10.9621C10.3319 10.7927 13.6616 11.4224 15.7809 13.4788C15.9192 13.1257 16.0105 12.7496 16.0448 12.3563C13.8564 10.5147 10.8311 9.85981 8.51825 9.92281Z" fill="#F5F5F5"/>
<path d="M12.1704 13.3855L12.2785 13.7096L12.6202 13.7123C12.6644 13.7126 12.6827 13.7691 12.6472 13.7953L12.3723 13.9983L12.4754 14.3241C12.4887 14.3663 12.4407 14.4011 12.4047 14.3754L12.1267 14.1767L11.8487 14.3754C11.8127 14.4011 11.7647 14.3662 11.778 14.3241L11.881 13.9983L11.6062 13.7953C11.5706 13.769 11.5889 13.7126 11.6332 13.7123L11.9749 13.7096L12.083 13.3855C12.097 13.3435 12.1564 13.3435 12.1704 13.3855Z" fill="#F5F5F5"/>
<path d="M13.4985 14.224L13.545 14.3635L13.6921 14.3646C13.7112 14.3647 13.7191 14.3891 13.7038 14.4004L13.5854 14.4877L13.6298 14.6279C13.6356 14.6461 13.6149 14.6611 13.5994 14.65L13.4797 14.5645L13.36 14.65C13.3446 14.6611 13.3239 14.6461 13.3296 14.6279L13.374 14.4877L13.2556 14.4004C13.2403 14.3891 13.2482 14.3647 13.2673 14.3646L13.4143 14.3635L13.4609 14.224C13.467 14.2059 13.4925 14.2059 13.4985 14.224Z" fill="#F5F5F5"/>
<path d="M11.5966 12.7698L11.6432 12.9093L11.7903 12.9104C11.8093 12.9105 11.8172 12.9349 11.8019 12.9461L11.6836 13.0335L11.7279 13.1737C11.7337 13.1919 11.713 13.2069 11.6975 13.1958L11.5778 13.1103L11.4582 13.1958C11.4427 13.2069 11.422 13.1919 11.4278 13.1737L11.4721 13.0335L11.3538 12.9461C11.3385 12.9349 11.3464 12.9105 11.3654 12.9104L11.5125 12.9093L11.559 12.7698C11.565 12.7517 11.5906 12.7517 11.5966 12.7698Z" fill="#F5F5F5"/>
<path d="M9.01998 12.6006L9.06653 12.7401L9.21362 12.7412C9.23265 12.7414 9.24057 12.7657 9.22525 12.777L9.10693 12.8644L9.15128 13.0046C9.15704 13.0227 9.13637 13.0378 9.12086 13.0266L9.00119 12.9412L8.88151 13.0266C8.86605 13.0377 8.84537 13.0227 8.85109 13.0046L8.89544 12.8644L8.77713 12.777C8.7618 12.7657 8.76972 12.7414 8.78875 12.7412L8.9358 12.7401L8.98234 12.6006C8.98844 12.5825 9.01398 12.5825 9.01998 12.6006Z" fill="#F5F5F5"/>
<path d="M11.1753 14.1759L11.2218 14.3154L11.3689 14.3165C11.3879 14.3167 11.3958 14.341 11.3805 14.3523L11.2622 14.4397L11.3066 14.5799C11.3123 14.598 11.2916 14.613 11.2761 14.6019L11.1565 14.5164L11.0368 14.6019C11.0213 14.613 11.0006 14.598 11.0064 14.5799L11.0507 14.4397L10.9324 14.3523C10.9171 14.341 10.925 14.3167 10.944 14.3165L11.0911 14.3154L11.1377 14.1759C11.1437 14.1578 11.1693 14.1578 11.1753 14.1759Z" fill="#F5F5F5"/>
<path d="M9.98929 12.5033L10.0274 12.6174L10.1476 12.6183C10.1632 12.6184 10.1697 12.6383 10.1571 12.6475L10.0604 12.719L10.0967 12.8336C10.1014 12.8485 10.0845 12.8608 10.0718 12.8517L9.97396 12.7818L9.87614 12.8517C9.86348 12.8608 9.84656 12.8485 9.85125 12.8336L9.88753 12.719L9.79078 12.6475C9.77826 12.6383 9.78473 12.6184 9.80029 12.6183L9.92057 12.6174L9.95864 12.5033C9.96346 12.4885 9.98437 12.4885 9.98929 12.5033Z" fill="#F5F5F5"/>
<path d="M13.6018 10.1483L13.6494 10.2909L13.7998 10.2921C13.8193 10.2922 13.8274 10.3171 13.8117 10.3287L13.6907 10.418L13.7361 10.5615C13.742 10.58 13.7208 10.5954 13.705 10.584L13.5826 10.4966L13.4602 10.584C13.4444 10.5954 13.4232 10.58 13.4291 10.5615L13.4745 10.418L13.3535 10.3287C13.3378 10.3171 13.3459 10.2922 13.3654 10.2921L13.5158 10.2909L13.5634 10.1483C13.5695 10.1298 13.5956 10.1298 13.6018 10.1483Z" fill="#F5F5F5"/>
<path d="M9.18607 11.8054L9.22413 11.9195L9.34441 11.9204C9.35997 11.9206 9.36644 11.9404 9.35393 11.9497L9.25718 12.0211L9.29346 12.1358C9.29815 12.1506 9.28127 12.1629 9.26857 12.1539L9.17074 12.0839L9.07291 12.1539C9.06026 12.1629 9.04334 12.1506 9.04802 12.1358L9.0843 12.0211L8.98755 11.9497C8.97504 11.9404 8.98151 11.9206 8.99707 11.9204L9.11735 11.9195L9.15541 11.8054C9.16024 11.7906 9.1811 11.7906 9.18607 11.8054Z" fill="#F5F5F5"/>
<path d="M9.76682 13.4133L9.82442 13.586L10.0066 13.5874C10.0302 13.5876 10.04 13.6177 10.021 13.6317L9.87444 13.7399L9.92938 13.9136C9.9365 13.9361 9.91091 13.9547 9.89169 13.941L9.74352 13.835L9.59535 13.941C9.57618 13.9547 9.55058 13.9361 9.55766 13.9136L9.6126 13.7399L9.46607 13.6317C9.44708 13.6177 9.45688 13.5876 9.48046 13.5874L9.66261 13.586L9.72022 13.4133C9.72772 13.3909 9.75936 13.3909 9.76682 13.4133Z" fill="#F5F5F5"/>
<path d="M14.2391 14.2603L14.2753 14.369L14.3899 14.3699C14.4047 14.37 14.4109 14.3889 14.399 14.3977L14.3068 14.4658L14.3413 14.5751C14.3458 14.5892 14.3297 14.6009 14.3176 14.5923L14.2244 14.5256L14.1311 14.5923C14.119 14.6009 14.103 14.5892 14.1074 14.5751L14.142 14.4658L14.0498 14.3977C14.0378 14.3889 14.044 14.37 14.0588 14.3699L14.1734 14.369L14.2096 14.2603C14.2145 14.2462 14.2344 14.2462 14.2391 14.2603Z" fill="#F5F5F5"/>
<path d="M14.6401 13.4307L14.6867 13.5702L14.8337 13.5713C14.8528 13.5714 14.8607 13.5957 14.8454 13.607L14.7271 13.6944L14.7714 13.8346C14.7772 13.8528 14.7565 13.8678 14.741 13.8567L14.6213 13.7712L14.5016 13.8567C14.4862 13.8677 14.4655 13.8527 14.4712 13.8346L14.5156 13.6944L14.3972 13.607C14.3819 13.5957 14.3898 13.5714 14.4089 13.5712L14.556 13.5701L14.6025 13.4306C14.6086 13.4126 14.6341 13.4126 14.6401 13.4307Z" fill="#F5F5F5"/>
</g>
<defs>
<clipPath id="clip0_8615_27487">
<path d="M0 2C0 0.895432 0.895431 0 2 0H21.9998C23.1043 0 23.9998 0.895431 23.9998 2V21.9998C23.9998 23.1043 23.1043 23.9998 21.9998 23.9998H2C0.895432 23.9998 0 23.1043 0 21.9998V2Z" fill="white"/>
</clipPath>
</defs>
</svg>
