<svg width="24" height="24" viewBox="0 0 24 24" fill="none" xmlns="http://www.w3.org/2000/svg">
<g clip-path="url(#clip0_8615_27512)">
<path d="M23.6253 23.9999H0.375485C0.168393 23.9999 0.000488281 23.832 0.000488281 23.6249V0.375118C0.000488281 0.168027 0.168393 0.00012207 0.375485 0.00012207H23.6253C23.8323 0.00012207 24.0003 0.168027 24.0003 0.375118V23.6249C24.0003 23.832 23.8323 23.9999 23.6253 23.9999Z" fill="#F5F5F5"/>
<path d="M24.0008 18.9473C22.7995 18.9473 22.7995 18.3157 21.5981 18.3157C20.3968 18.3157 20.3968 18.9473 19.1955 18.9473C17.995 18.9473 17.995 18.3157 16.7945 18.3157C15.5951 18.3157 15.5951 18.9473 14.3956 18.9473C13.1955 18.9473 13.1956 18.3157 11.9954 18.3157C10.7956 18.3157 10.7956 18.9473 9.59587 18.9473C8.39611 18.9473 8.39611 18.3157 7.19631 18.3157C5.99656 18.3157 5.99656 18.9473 4.79676 18.9473C3.59752 18.9473 3.59752 18.3157 2.39828 18.3157C1.19961 18.3157 1.19961 18.9473 0.000976562 18.9473V17.0526C1.19965 17.0526 1.19965 16.421 2.39828 16.421C3.59752 16.421 3.59752 17.0526 4.79676 17.0526C5.99651 17.0526 5.99651 16.421 7.19631 16.421C8.39607 16.421 8.39607 17.0526 9.59587 17.0526C10.7957 17.0526 10.7957 16.421 11.9954 16.421C13.1955 16.421 13.1955 17.0526 14.3956 17.0526C15.5951 17.0526 15.5951 16.421 16.7945 16.421C17.995 16.421 17.995 17.0526 19.1955 17.0526C20.3968 17.0526 20.3968 16.421 21.5981 16.421C22.7994 16.421 22.7994 17.0526 24.0008 17.0526V18.9473Z" fill="#41479B"/>
<path d="M24.0008 11.3685C22.7995 11.3685 22.7995 10.7369 21.5981 10.7369C20.3968 10.7369 20.3968 11.3685 19.1955 11.3685C17.995 11.3685 17.995 10.7369 16.7945 10.7369C15.5951 10.7369 15.5951 11.3685 14.3956 11.3685C13.1955 11.3685 13.1956 10.7369 11.9954 10.7369C10.7956 10.7369 10.7956 11.3685 9.59587 11.3685C8.39611 11.3685 8.39611 10.7369 7.19631 10.7369C5.99656 10.7369 5.99656 11.3685 4.79676 11.3685C3.59752 11.3685 3.59752 10.7369 2.39828 10.7369C1.19961 10.7369 1.19961 11.3685 0.000976562 11.3685V9.47375C1.19965 9.47375 1.19965 8.84216 2.39828 8.84216C3.59752 8.84216 3.59752 9.47375 4.79676 9.47375C5.99651 9.47375 5.99651 8.84216 7.19631 8.84216C8.39607 8.84216 8.39607 9.47375 9.59587 9.47375C10.7957 9.47375 10.7957 8.84216 11.9954 8.84216C13.1955 8.84216 13.1955 9.47375 14.3956 9.47375C15.5951 9.47375 15.5951 8.84216 16.7945 8.84216C17.995 8.84216 17.995 9.47375 19.1955 9.47375C20.3968 9.47375 20.3968 8.84216 21.5981 8.84216C22.7994 8.84216 22.7994 9.47375 24.0008 9.47375V11.3685Z" fill="#41479B"/>
<path d="M24.0008 7.57892C22.7995 7.57892 22.7995 6.94733 21.5981 6.94733C20.3968 6.94733 20.3968 7.57892 19.1955 7.57892C17.995 7.57892 17.995 6.94733 16.7945 6.94733C15.5951 6.94733 15.5951 7.57892 14.3956 7.57892C13.1955 7.57892 13.1956 6.94733 11.9954 6.94733C10.7956 6.94733 10.7956 7.57892 9.59587 7.57892C8.39611 7.57892 8.39611 6.94733 7.19631 6.94733C5.99656 6.94733 5.99656 7.57892 4.79676 7.57892C3.59752 7.57892 3.59752 6.94733 2.39828 6.94733C1.19961 6.94733 1.19961 7.57892 0.000976562 7.57892V5.6842C1.19965 5.6842 1.19965 5.05261 2.39828 5.05261C3.59752 5.05261 3.59752 5.6842 4.79676 5.6842C5.99651 5.6842 5.99651 5.05261 7.19631 5.05261C8.39607 5.05261 8.39607 5.6842 9.59587 5.6842C10.7957 5.6842 10.7957 5.05261 11.9954 5.05261C13.1955 5.05261 13.1955 5.6842 14.3956 5.6842C15.5951 5.6842 15.5951 5.05261 16.7945 5.05261C17.995 5.05261 17.995 5.6842 19.1955 5.6842C20.3968 5.6842 20.3968 5.05261 21.5981 5.05261C22.7994 5.05261 22.7994 5.6842 24.0008 5.6842V7.57892Z" fill="#41479B"/>
<path d="M24.0007 3.78949C22.7994 3.78949 22.7994 3.1579 21.5981 3.1579C20.3968 3.1579 20.3968 3.78949 19.1954 3.78949C17.9949 3.78949 17.9949 3.1579 16.7945 3.1579C15.5951 3.1579 15.5951 3.78949 14.3956 3.78949C13.1955 3.78949 13.1955 3.1579 11.9954 3.1579C10.7956 3.1579 10.7956 3.78949 9.59582 3.78949C8.39607 3.78949 8.39607 3.1579 7.19627 3.1579C5.99651 3.1579 5.99651 3.78949 4.79671 3.78949C3.59747 3.78949 3.59747 3.1579 2.39823 3.1579C1.19965 3.1579 1.19965 3.78949 0.000976562 3.78949V1.89477C1.19965 1.89477 1.19965 1.26318 2.39828 1.26318C3.59752 1.26318 3.59752 1.89477 4.79676 1.89477C5.99651 1.89477 5.99651 1.26318 7.19631 1.26318C8.39607 1.26318 8.39607 1.89477 9.59587 1.89477C10.7957 1.89477 10.7957 1.26318 11.9954 1.26318C13.1955 1.26318 13.1955 1.89477 14.3956 1.89477C15.5951 1.89477 15.5951 1.26318 16.7945 1.26318C17.995 1.26318 17.995 1.89477 19.1955 1.89477C20.3968 1.89477 20.3968 1.26318 21.5981 1.26318C22.7994 1.26318 22.7994 1.89477 24.0008 1.89477V3.78949H24.0007Z" fill="#41479B"/>
<path d="M24.0008 15.1579C22.7995 15.1579 22.7995 14.5263 21.5981 14.5263C20.3968 14.5263 20.3968 15.1579 19.1955 15.1579C17.995 15.1579 17.995 14.5263 16.7945 14.5263C15.5951 14.5263 15.5951 15.1579 14.3956 15.1579C13.1955 15.1579 13.1956 14.5263 11.9954 14.5263C10.7956 14.5263 10.7956 15.1579 9.59587 15.1579C8.39611 15.1579 8.39611 14.5263 7.19631 14.5263C5.99656 14.5263 5.99656 15.1579 4.79676 15.1579C3.59752 15.1579 3.59752 14.5263 2.39828 14.5263C1.19961 14.5263 1.19961 15.1579 0.000976562 15.1579V13.2632C1.19965 13.2632 1.19965 12.6316 2.39828 12.6316C3.59752 12.6316 3.59752 13.2632 4.79676 13.2632C5.99651 13.2632 5.99651 12.6316 7.19631 12.6316C8.39607 12.6316 8.39607 13.2632 9.59587 13.2632C10.7957 13.2632 10.7957 12.6316 11.9954 12.6316C13.1955 12.6316 13.1955 13.2632 14.3956 13.2632C15.5951 13.2632 15.5951 12.6316 16.7945 12.6316C17.995 12.6316 17.995 13.2632 19.1955 13.2632C20.3968 13.2632 20.3968 12.6316 21.5981 12.6316C22.7994 12.6316 22.7994 13.2632 24.0008 13.2632V15.1579Z" fill="#41479B"/>
<path d="M24.0008 22.7368C22.7995 22.7368 22.7995 22.1052 21.5981 22.1052C20.3968 22.1052 20.3968 22.7368 19.1955 22.7368C17.995 22.7368 17.995 22.1052 16.7945 22.1052C15.5951 22.1052 15.5951 22.7368 14.3956 22.7368C13.1955 22.7368 13.1956 22.1052 11.9954 22.1052C10.7956 22.1052 10.7956 22.7368 9.59587 22.7368C8.39611 22.7368 8.39611 22.1052 7.19631 22.1052C5.99656 22.1052 5.99656 22.7368 4.79676 22.7368C3.59752 22.7368 3.59752 22.1052 2.39828 22.1052C1.19961 22.1052 1.19961 22.7368 0.000976562 22.7368V20.842C1.19965 20.842 1.19965 20.2104 2.39828 20.2104C3.59752 20.2104 3.59752 20.842 4.79676 20.842C5.99651 20.842 5.99651 20.2104 7.19631 20.2104C8.39607 20.2104 8.39607 20.842 9.59587 20.842C10.7957 20.842 10.7957 20.2104 11.9954 20.2104C13.1955 20.2104 13.1955 20.842 14.3956 20.842C15.5951 20.842 15.5951 20.2104 16.7945 20.2104C17.995 20.2104 17.995 20.842 19.1955 20.842C20.3968 20.842 20.3968 20.2104 21.5981 20.2104C22.7994 20.2104 22.7994 20.842 24.0008 20.842V22.7368Z" fill="#41479B"/>
<path d="M18.5736 21.6529H18.4193C18.2759 21.6529 18.1597 21.5367 18.1597 21.3933V10.5394H18.8332V21.3933C18.8332 21.5366 18.717 21.6529 18.5736 21.6529Z" fill="#965032"/>
<path d="M23.2113 11.8864L22.5378 11.5496L20.0579 11.2397L21.5923 9.26692L21.8304 8.55255L21.116 8.79068L19.1433 10.325L18.8333 7.84517L18.4965 7.17163L18.1598 7.84517L17.8498 10.325L15.8771 8.79068L15.1627 8.55255L15.4008 9.26692L16.9351 11.2397L14.4553 11.5496L13.7817 11.8864L14.4553 12.2232L16.9351 12.5331L15.4008 14.5059L15.1627 15.2203L15.8771 14.9821L18.0203 13.3152L18.4965 12.56L18.9728 13.3152L21.116 14.9821L21.8304 15.2203L21.5923 14.5059L20.0579 12.5331L22.5378 12.2232L23.2113 11.8864Z" fill="#73AF00"/>
<path d="M19.9624 15.8086C19.6598 15.5066 19.0117 15.6176 18.6647 15.7052V15.4225C18.6647 15.3295 18.5893 15.2542 18.4963 15.2542C18.4033 15.2542 18.3279 15.3295 18.3279 15.4225V15.7051C17.981 15.6172 17.333 15.5062 17.0301 15.8086C16.7415 16.0971 16.9506 16.7928 17.1492 17.2764V17.7242C17.1492 17.848 17.2495 17.9483 17.3733 17.9483H19.6193C19.7431 17.9483 19.8434 17.848 19.8434 17.7242V17.2764C20.042 16.7928 20.2511 16.0971 19.9624 15.8086ZM19.7243 16.0468C19.8528 16.1754 19.7089 16.7393 19.4769 17.2748H18.6647V16.053C19.0428 15.946 19.5606 15.8827 19.7243 16.0468ZM17.2683 16.0468C17.4319 15.8827 17.9497 15.946 18.3279 16.053V17.2748H17.5157C17.2837 16.7393 17.1397 16.1754 17.2683 16.0468Z" fill="#FFE15A"/>
<path d="M4.422 0.000244141H0.000976562V0.936657L4.422 3.83318V0.000244141Z" fill="#41479B"/>
<path d="M0.000976562 3.20166V4.4212H1.86236L0.000976562 3.20166Z" fill="#41479B"/>
<path d="M0.000976562 7.5791V8.79864L1.86236 7.5791H0.000976562Z" fill="#41479B"/>
<path d="M12.0011 0.936657V0.000244141H7.58008V3.83318L12.0011 0.936657Z" fill="#41479B"/>
<path d="M12.001 8.79864V7.5791H10.1396L12.001 8.79864Z" fill="#41479B"/>
<path d="M7.58008 8.16724V12.0002H12.0011V11.0638L7.58008 8.16724Z" fill="#41479B"/>
<path d="M12.001 4.4212V3.20166L10.1396 4.4212H12.001Z" fill="#41479B"/>
<path d="M0.000976562 11.0638V12.0002H4.422V8.16724L0.000976562 11.0638Z" fill="#41479B"/>
<path d="M12.0008 11.0637V10.1279L8.07422 7.5791H9.23427L12.0008 9.37491V8.79863L10.1394 7.5791H12.0008V6.94751H6.94824V12.0001H7.57978V8.16719L12.0008 11.0637Z" fill="#F5F5F5"/>
<path d="M0.000976562 6.94751V7.5791H1.86236L0.000976562 8.79863V9.68461L3.24455 7.5791H4.4046L0.000976562 10.4376V11.0637L4.422 8.16719V12.0001H5.05354V6.94751H0.000976562Z" fill="#F5F5F5"/>
<path d="M5.05354 0.000244141H4.422V3.83318L0.000976562 0.936657V1.96143L3.79041 4.42126H2.63036L0.000976562 2.71447V3.20173L1.86236 4.42126H0.000976562V5.05285H5.05354V0.000244141Z" fill="#F5F5F5"/>
<path d="M12.0008 5.05285V4.42126H10.1394L12.0008 3.20173V2.30446L8.73983 4.42126H7.57978L12.0008 1.55146V0.936657L7.57978 3.83318V0.000244141H6.94824V5.05285H12.0008Z" fill="#F5F5F5"/>
<path d="M12.0009 6.94752V5.05285H6.9483V0.000244141H5.05354V5.05285H0.000976562V6.94752H5.05354V12.0001H6.9483V6.94752H12.0009Z" fill="#FF4B55"/>
<path d="M3.24455 7.5791L0.000976562 9.68461V10.4376L4.40461 7.5791H3.24455Z" fill="#FF4B55"/>
<path d="M8.07471 7.5791L12.0013 10.1279V9.37491L9.23476 7.5791H8.07471Z" fill="#FF4B55"/>
<path d="M3.79041 4.42126L0.000976562 1.96143V2.71447L2.63036 4.42126H3.79041Z" fill="#FF4B55"/>
<path d="M8.74013 4.42119L12.0011 2.30438V1.55139L7.58008 4.42119H8.74013Z" fill="#FF4B55"/>
</g>
<defs>
<clipPath id="clip0_8615_27512">
<path d="M0 2C0 0.895428 0.895431 0 2 0H21.9999C23.1044 0 23.9999 0.895431 23.9999 2V21.9999C23.9999 23.1044 23.1044 23.9999 21.9999 23.9999H2C0.895428 23.9999 0 23.1044 0 21.9999V2Z" fill="white"/>
</clipPath>
</defs>
</svg>
