<svg width="24" height="24" viewBox="0 0 24 24" fill="none" xmlns="http://www.w3.org/2000/svg">
<g clip-path="url(#clip0_8615_27588)">
<path d="M23.9986 0.00170898H0.00488281V12.0002H23.9986V0.00170898Z" fill="#41479B"/>
<path d="M0.00585938 12H23.9997V23.6233C23.9997 23.8303 23.8318 23.9982 23.6247 23.9982H0.380809C0.173764 23.9982 0.00585938 23.8303 0.00585938 23.6233V12Z" fill="#F5F5F5"/>
<path d="M23.9984 0.00170898H21.1038L13.4399 3.83412V0.00170898H10.5656V3.83412L2.90171 0.00170898H0.00195312L0.00589059 1.1341L6.58117 4.42212H0.00589059V7.57954H6.58117L0.00589059 10.8676V12H2.90171L10.5656 8.16753V12H13.4399V8.16753L21.1038 12H23.9997V10.8676L17.4244 7.57954H23.9997V4.42212H17.4244L23.9997 1.1341L23.9984 0.00170898Z" fill="#F5F5F5"/>
<path d="M23.9956 5.05359H0.00195312V6.94779H23.9956V5.05359Z" fill="#FF4B55"/>
<path d="M12.619 0.00170898H11.3779V12.0002H12.619V0.00170898Z" fill="#FF4B55"/>
<path d="M15.24 4.9007L14.3084 5.38234L13.9405 4.52641C13.9025 4.4381 13.7502 4.42225 13.6836 4.49974L12.9248 5.38234L12.1314 4.15193C12.0782 4.06947 11.9264 4.06947 11.8733 4.15193L11.0799 5.38234L10.3211 4.49974C10.2545 4.42225 10.1021 4.4381 10.0642 4.52641L9.69624 5.38234L8.76466 4.9007C8.64152 4.83705 8.48941 4.9412 8.5556 5.04386L9.46567 6.4553H9.42629C9.32064 6.4553 9.23509 6.52172 9.23509 6.60361V7.02234C9.23509 7.10427 9.32073 7.17065 9.42629 7.17065H14.5784C14.684 7.17065 14.7696 7.10423 14.7696 7.02234V6.60361C14.7696 6.52172 14.6839 6.4553 14.5784 6.4553H14.539L15.4491 5.04386C15.5152 4.9412 15.363 4.83705 15.24 4.9007Z" fill="#FFE15A"/>
<path d="M8.388 7.57959L0.00195312 11.733V12H0.985381L9.90767 7.57959H8.388Z" fill="#FF4B55"/>
<path d="M23.9956 12V11.4247L16.2346 7.57959H14.7148L23.6351 12H23.9956Z" fill="#FF4B55"/>
<path d="M23.9978 15.4731C22.7964 15.4731 22.7964 14.9206 21.595 14.9206C20.3944 14.9206 20.3944 15.4731 19.1938 15.4731C17.9943 15.4731 17.9943 14.9206 16.7948 14.9206C15.5954 14.9206 15.5954 15.4731 14.3961 15.4731C13.1964 15.4731 13.1964 14.9206 11.9967 14.9206C10.797 14.9206 10.797 15.4731 9.5973 15.4731C8.39764 15.4731 8.39759 14.9206 7.19793 14.9206C5.99879 14.9206 5.99879 15.4731 4.79959 15.4731C3.60101 15.4731 3.60101 14.9206 2.40248 14.9206C1.20314 14.9206 1.20314 15.4731 0.00390625 15.4731V13.8154C1.20324 13.8154 1.20324 13.2629 2.40248 13.2629C3.60106 13.2629 3.60106 13.8154 4.79959 13.8154C5.99874 13.8154 5.99874 13.2629 7.19793 13.2629C8.39764 13.2629 8.39764 13.8154 9.5973 13.8154C10.797 13.8154 10.797 13.2629 11.9967 13.2629C13.1964 13.2629 13.1964 13.8154 14.3961 13.8154C15.5954 13.8154 15.5954 13.2629 16.7948 13.2629C17.9943 13.2629 17.9943 13.8154 19.1938 13.8154C20.3944 13.8154 20.3944 13.2629 21.595 13.2629C22.7963 13.2629 22.7963 13.8154 23.9978 13.8154V15.4731Z" fill="#41479B"/>
<path d="M23.9978 18.7884C22.7964 18.7884 22.7964 18.2359 21.595 18.2359C20.3944 18.2359 20.3944 18.7884 19.1938 18.7884C17.9943 18.7884 17.9943 18.2359 16.7948 18.2359C15.5954 18.2359 15.5954 18.7884 14.3961 18.7884C13.1964 18.7884 13.1964 18.2359 11.9967 18.2359C10.797 18.2359 10.797 18.7884 9.5973 18.7884C8.39764 18.7884 8.39759 18.2359 7.19793 18.2359C5.99879 18.2359 5.99879 18.7884 4.79959 18.7884C3.60101 18.7884 3.60101 18.2359 2.40248 18.2359C1.20314 18.2359 1.20314 18.7884 0.00390625 18.7884V17.1308C1.20324 17.1308 1.20324 16.5782 2.40248 16.5782C3.60106 16.5782 3.60106 17.1308 4.79959 17.1308C5.99874 17.1308 5.99874 16.5782 7.19793 16.5782C8.39764 16.5782 8.39764 17.1308 9.5973 17.1308C10.797 17.1308 10.797 16.5782 11.9967 16.5782C13.1964 16.5782 13.1964 17.1308 14.3961 17.1308C15.5954 17.1308 15.5954 16.5782 16.7948 16.5782C17.9943 16.5782 17.9943 17.1308 19.1938 17.1308C20.3944 17.1308 20.3944 16.5782 21.595 16.5782C22.7963 16.5782 22.7963 17.1308 23.9978 17.1308V18.7884Z" fill="#41479B"/>
<path d="M23.9978 22.1038C22.7964 22.1038 22.7964 21.5513 21.595 21.5513C20.3944 21.5513 20.3944 22.1038 19.1938 22.1038C17.9943 22.1038 17.9943 21.5513 16.7948 21.5513C15.5954 21.5513 15.5954 22.1038 14.3961 22.1038C13.1964 22.1038 13.1964 21.5513 11.9967 21.5513C10.797 21.5513 10.797 22.1038 9.5973 22.1038C8.39764 22.1038 8.39759 21.5513 7.19793 21.5513C5.99879 21.5513 5.99879 22.1038 4.79959 22.1038C3.60101 22.1038 3.60101 21.5513 2.40248 21.5513C1.20314 21.5513 1.20314 22.1038 0.00390625 22.1038V20.4462C1.20324 20.4462 1.20324 19.8937 2.40248 19.8937C3.60106 19.8937 3.60106 20.4462 4.79959 20.4462C5.99874 20.4462 5.99874 19.8937 7.19793 19.8937C8.39764 19.8937 8.39764 20.4462 9.5973 20.4462C10.797 20.4462 10.797 19.8937 11.9967 19.8937C13.1964 19.8937 13.1964 20.4462 14.3961 20.4462C15.5954 20.4462 15.5954 19.8937 16.7948 19.8937C17.9943 19.8937 17.9943 20.4462 19.1938 20.4462C20.3944 20.4462 20.3944 19.8937 21.595 19.8937C22.7963 19.8937 22.7963 20.4462 23.9978 20.4462V22.1038Z" fill="#41479B"/>
<path d="M9.10696 4.42212L0.183545 0.00170898H0.00195312V0.663484L7.58729 4.42212H9.10696Z" fill="#FF4B55"/>
<path d="M15.5905 4.42212L23.998 0.265097L23.9993 0.00170898H22.9929L14.0708 4.42212H15.5905Z" fill="#FF4B55"/>
<path d="M20.084 23.3382C21.1133 22.8081 21.4836 22.013 21.6185 21.7176C21.8227 21.2702 22.7704 20.9092 22.7704 20.9092C22.7704 20.9092 21.5997 20.9147 20.9732 21.7281C20.3956 22.478 19.3557 22.5425 18.3528 23.1163C18.2571 22.9961 18.1588 22.8783 18.0567 22.7637L21.1818 18.9807L17.3988 22.1059C17.2506 21.9738 17.0976 21.8474 16.94 21.7263C17.0397 21.4673 17.2362 21.0671 17.622 20.6114C18.3701 19.7277 18.4079 18.8514 18.4195 18.5269C18.4369 18.0354 19.1743 17.3393 19.1743 17.3393C19.1743 17.3393 18.0949 17.7924 17.8273 18.7836C17.5808 19.6969 16.6455 20.1546 15.9387 21.0675C15.8045 20.9928 15.6686 20.9208 15.5299 20.8537L16.9686 16.1655L14.6702 20.4991C14.4832 20.4339 14.2933 20.3749 14.1004 20.3234C14.0935 20.0459 14.1222 19.6017 14.3038 19.0344C14.6568 17.9317 14.3564 17.1076 14.2429 16.8034C14.071 16.3425 14.4857 15.4173 14.4857 15.4173C14.4857 15.4173 13.6619 16.249 13.7941 17.2671C13.9158 18.2056 13.2265 18.9864 12.9229 20.1009C12.771 20.0837 12.6182 20.07 12.464 20.0612L11.9988 15.177L11.5336 20.0612C11.3339 20.0725 11.1365 20.0925 10.9409 20.118C10.8282 19.8644 10.6841 19.4424 10.6347 18.8472C10.5388 17.6934 9.94595 17.047 9.7247 16.8094C9.38945 16.4495 9.41866 15.4359 9.41866 15.4359C9.41866 15.4359 8.97579 16.5195 9.48752 17.4096C9.95907 18.2298 9.62125 19.2149 9.76698 20.3603C9.61867 20.4027 9.47209 20.4488 9.32744 20.4992L7.02899 16.1656L8.46767 20.8538C8.28833 20.9406 8.11372 21.0355 7.94202 21.1348C7.74092 20.9437 7.44651 20.609 7.17332 20.0785C6.64322 19.0492 5.84808 18.6789 5.55273 18.544C5.10526 18.3398 4.74438 17.3922 4.74438 17.3922C4.74438 17.3922 4.74986 18.5628 5.56327 19.1893C6.31317 19.7669 6.37767 20.8069 6.95142 21.8098C6.83123 21.9054 6.71339 22.0038 6.59887 22.1059L2.81568 18.9807L5.9408 22.7637C5.80871 22.9118 5.68233 23.065 5.56126 23.2225C5.30232 23.1228 4.90206 22.9263 4.44635 22.5405C3.56272 21.7924 2.6864 21.7546 2.36193 21.743C1.87036 21.7255 1.17432 20.9882 1.17432 20.9882C1.17432 20.9882 1.62736 22.0676 2.61861 22.3352C3.43793 22.5563 3.89313 23.3306 4.63666 23.9982H19.1395C19.3397 23.807 19.6401 23.5669 20.084 23.3382Z" fill="#FFE15A"/>
<path d="M22.4804 23.9982L23.9968 23.1938L21.376 23.9982H22.4804Z" fill="#FFE15A"/>
<path d="M0 23.1938L1.51649 23.9982H2.6209L0 23.1938Z" fill="#FFE15A"/>
</g>
<defs>
<clipPath id="clip0_8615_27588">
<path d="M0 2C0 0.895432 0.895431 0 2 0H21.9998C23.1043 0 23.9998 0.895431 23.9998 2V21.9998C23.9998 23.1043 23.1043 23.9998 21.9998 23.9998H2C0.895432 23.9998 0 23.1043 0 21.9998V2Z" fill="white"/>
</clipPath>
</defs>
</svg>
