<svg width="24" height="24" viewBox="0 0 24 24" fill="none" xmlns="http://www.w3.org/2000/svg">
<g clip-path="url(#clip0_8615_27641)">
<path d="M23.9998 0H0V23.9998H23.9998V0Z" fill="#FFE15A"/>
<path d="M0 4.42102L23.9998 19.5787V15.1578L0 0V4.42102Z" fill="#F5F5F5"/>
<path d="M0 8.84204L23.9998 23.9998V19.5787L0 4.42102V8.84204Z" fill="#464655"/>
<path d="M14.322 11.2653L14.3222 11.2535C14.3222 11.2535 14.3168 11.1968 14.3064 11.0904C14.3033 11.0373 14.2911 10.9726 14.2749 10.8971C14.2624 10.821 14.2383 10.7359 14.2074 10.642C14.1453 10.4556 14.0496 10.233 13.8844 10.0175C13.8645 9.9909 13.8408 9.96461 13.8191 9.93812C13.9128 9.83069 14.0042 9.70572 14.0904 9.55488C14.0904 9.55488 13.6179 9.57653 13.0872 9.34497C12.912 9.25376 12.7218 9.1789 12.5131 9.12987L12.4141 8.73396C12.3929 8.64926 12.3168 8.58982 12.2295 8.58982H12.0926V8.39956H12.7585L12.5683 8.01903L12.7585 7.63851H12.0926V7.44824H11.9024V8.58978H11.7656C11.6783 8.58978 11.6022 8.64921 11.581 8.73392L11.4841 9.12133C11.3556 9.14871 11.2276 9.18349 11.1034 9.23627C11.0017 9.27701 10.9033 9.328 10.8073 9.385C10.3192 9.57231 9.90469 9.55488 9.90469 9.55488C9.99084 9.70563 10.0821 9.8305 10.1758 9.93789C10.1568 9.961 10.1357 9.98167 10.1174 10.0054C9.9877 10.1814 9.88425 10.3793 9.80526 10.5894C9.73012 10.7935 9.68742 11.0525 9.67308 11.2418L9.6727 11.4248C9.67078 11.4823 9.67734 11.5393 9.68344 11.5964C9.69094 11.7116 9.71639 11.824 9.74034 11.9372C9.79969 12.1603 9.8865 12.3772 10.0049 12.5765C10.2418 12.9755 10.6031 13.2901 11.0082 13.4851C11.2175 13.5773 11.4152 13.6476 11.6511 13.6811C11.7768 13.7045 11.855 13.7042 11.9481 13.7123L11.9651 13.7136L11.9735 13.7142L12.0011 13.7149L12.0408 13.7133L12.1197 13.7097C12.1721 13.7062 12.2245 13.7068 12.2759 13.6992C12.6899 13.6538 13.0631 13.4928 13.3544 13.2838C13.6457 13.0711 13.855 12.8116 13.9983 12.5643C14.1439 12.3168 14.219 12.0772 14.2653 11.8811C14.2875 11.7831 14.304 11.6936 14.3099 11.6093C14.3193 11.526 14.3248 11.4577 14.3223 11.4131C14.3221 11.3167 14.322 11.2653 14.322 11.2653ZM10.8641 12.6061C10.7319 12.5031 10.6124 12.3803 10.5035 12.2449C10.3987 12.1062 10.3149 11.9497 10.2491 11.7833C10.1871 11.6205 10.153 11.4248 10.1362 11.2653C10.1316 11.0439 10.1419 10.893 10.1842 10.7041C10.2303 10.5249 10.2974 10.3494 10.391 10.1874C10.3964 10.1781 10.4038 10.1701 10.4093 10.1609C10.8418 10.4987 11.2985 10.4747 11.617 10.3107V10.6828C11.7221 10.6828 11.8073 10.8958 11.8073 11.1585C11.8073 11.4211 11.7221 11.6341 11.617 11.6341V11.8244C11.9738 12.3001 11.8101 12.7015 11.5909 12.9356C11.4913 12.914 11.3881 12.8849 11.2915 12.8469C11.1418 12.7886 10.9995 12.7047 10.8641 12.6061ZM13.8586 11.2439C13.8582 11.2467 13.8532 11.2957 13.8435 11.3888C13.8406 11.4408 13.8291 11.4901 13.8158 11.5446C13.8063 11.5995 13.7862 11.6661 13.7604 11.7416C13.7088 11.8894 13.6314 12.0659 13.4966 12.2351C13.365 12.4048 13.1874 12.5722 12.9658 12.7033C12.7973 12.8032 12.5993 12.8709 12.3901 12.919C12.1782 12.6829 12.029 12.2896 12.378 11.8243V11.634C12.2729 11.634 12.1877 11.4211 12.1877 11.1584C12.1877 10.8957 12.2729 10.6828 12.378 10.6828V10.3107C12.6968 10.4748 13.1542 10.4988 13.5871 10.1597C13.5945 10.1722 13.6036 10.1848 13.6106 10.1972C13.7257 10.3984 13.7826 10.5919 13.8183 10.7495C13.8354 10.829 13.8479 10.9 13.8508 10.9631C13.8574 11.0255 13.8622 11.0783 13.8594 11.1217C13.8589 11.1954 13.8586 11.2328 13.8586 11.2439Z" fill="#FF4B55"/>
<path d="M11.9976 14.1074C11.2951 14.1074 10.6579 13.8337 10.1823 13.389C10.095 13.3073 9.95684 13.3172 9.87907 13.408L9.1505 14.258C9.07306 14.3483 9.13724 14.4879 9.25625 14.4879H9.7145L10.3253 14.7933C10.4111 14.8362 10.5155 14.8085 10.5687 14.7286L10.7653 14.4337C11.1452 14.5905 11.561 14.6781 11.9976 14.6781C12.4341 14.6781 12.8499 14.5905 13.2299 14.4337L13.4264 14.7286C13.4796 14.8085 13.584 14.8362 13.6698 14.7933L14.2806 14.4879H14.7389C14.8579 14.4879 14.9221 14.3483 14.8446 14.258L14.1161 13.408C14.0382 13.3172 13.9001 13.3073 13.8128 13.389C13.3373 13.8337 12.7002 14.1074 11.9976 14.1074Z" fill="#FF4B55"/>
<path d="M9.33405 13.3463H8.38273L8.573 11.634C8.573 11.634 7.90705 11.301 7.9768 10.3236C7.98528 10.2047 8.08578 10.1119 8.20494 10.1119H8.36731C8.47944 10.1119 8.57342 10.1932 8.59198 10.3038C8.63201 10.5424 8.75656 10.9342 9.14379 11.0633L9.33405 13.3463Z" fill="#FF4B55"/>
<path d="M14.6611 13.3463H15.6125L15.4222 11.634C15.4222 11.634 16.0881 11.301 16.0184 10.3236C16.0099 10.2047 15.9094 10.1119 15.7902 10.1119H15.6279C15.5157 10.1119 15.4218 10.1932 15.4032 10.3038C15.3632 10.5424 15.2386 10.9342 14.8514 11.0633L14.6611 13.3463Z" fill="#FF4B55"/>
<path d="M9.43993 13.5365H8.28054C8.23291 13.5365 8.19434 13.4979 8.19434 13.4503V13.4324C8.19434 13.3848 8.23291 13.3462 8.28054 13.3462H9.43993C9.48756 13.3462 9.52613 13.3848 9.52613 13.4324V13.4503C9.52613 13.4978 9.48756 13.5365 9.43993 13.5365Z" fill="#FFE15A"/>
<path d="M15.7187 13.5365H14.5593C14.5117 13.5365 14.4731 13.4979 14.4731 13.4503V13.4324C14.4731 13.3848 14.5117 13.3462 14.5593 13.3462H15.7187C15.7664 13.3462 15.8049 13.3848 15.8049 13.4324V13.4503C15.8049 13.4978 15.7663 13.5365 15.7187 13.5365Z" fill="#FFE15A"/>
</g>
<defs>
<clipPath id="clip0_8615_27641">
<path d="M0 2C0 0.895432 0.895431 0 2 0H21.9998C23.1043 0 23.9998 0.895431 23.9998 2V21.9998C23.9998 23.1043 23.1043 23.9998 21.9998 23.9998H2C0.895432 23.9998 0 23.1043 0 21.9998V2Z" fill="white"/>
</clipPath>
</defs>
</svg>
