<svg width="24" height="24" viewBox="0 0 24 24" fill="none" xmlns="http://www.w3.org/2000/svg">
<g clip-path="url(#clip0_8615_27576)">
<path d="M23.9993 0H-0.000488281V11.9999H23.9993V0Z" fill="#FF4B55"/>
<path d="M23.9993 12H-0.000488281V23.9999H23.9993V12Z" fill="#73AF00"/>
<path d="M12.1943 8.5554L12.9889 10.9379L15.5003 10.9573C15.6948 10.9588 15.7755 11.2071 15.619 11.3227L13.5987 12.8147L14.3562 15.2091C14.4149 15.3947 14.2037 15.5481 14.0454 15.435L12.0022 13.9746L9.95894 15.435C9.80065 15.5481 9.58943 15.3947 9.64811 15.2091L10.4057 12.8147L8.38532 11.3227C8.2288 11.2071 8.30947 10.9588 8.50405 10.9573L11.0154 10.9379L11.81 8.5554C11.8717 8.37086 12.1327 8.37086 12.1943 8.5554Z" fill="#FFE15A"/>
</g>
<defs>
<clipPath id="clip0_8615_27576">
<path d="M0 2C0 0.895432 0.895431 0 2 0H21.9998C23.1043 0 23.9998 0.895431 23.9998 2V21.9998C23.9998 23.1043 23.1043 23.9998 21.9998 23.9998H2C0.895432 23.9998 0 23.1043 0 21.9998V2Z" fill="white"/>
</clipPath>
</defs>
</svg>
