<svg width="24" height="24" viewBox="0 0 24 24" fill="none" xmlns="http://www.w3.org/2000/svg">
<g clip-path="url(#clip0_8615_27605)">
<path d="M23.9993 0.00366211H-0.000488281V23.9964H23.9993V0.00366211Z" fill="#73AF00"/>
<path d="M-0.000976562 0V2.24974L11.8695 10.1994L23.9988 2.24899V0H-0.000976562Z" fill="#FF4B55"/>
<path d="M23.9988 23.9998V21.7436L12.0013 13.8905L-0.000976562 21.7541V23.9998H23.9988Z" fill="#FF4B55"/>
<path d="M17.4335 13.6681C17.596 13.1394 17.6843 12.5782 17.6843 11.9963C17.6843 11.4144 17.596 10.8532 17.4335 10.3245L23.9993 6.02273V2.24901L15.6994 7.68683C14.7052 6.83301 13.4152 6.31383 12.0018 6.31383C10.5885 6.31383 9.29848 6.83296 8.30427 7.68683L-0.000488281 2.23218V6.02119L6.57024 10.3245C6.40773 10.8531 6.31942 11.4143 6.31942 11.9962C6.31942 12.5781 6.40773 13.1394 6.57024 13.668L-0.000488281 17.9722V21.754L8.30432 16.3057C9.29853 17.1595 10.5885 17.6787 12.0019 17.6787C13.4152 17.6787 14.7052 17.1595 15.6994 16.3057L23.9993 21.7436V17.9698L17.4335 13.6681Z" fill="#F5F5F5"/>
<path d="M11.5925 10.1793L10.7363 10.2015L11.1834 9.47084L10.7363 8.7402L11.5925 8.76237L12.0016 8.00952L12.4107 8.76237L13.2668 8.7402L12.8198 9.47084L13.2668 10.2015L12.4107 10.1793L12.0016 10.9321L11.5925 10.1793Z" fill="#FF4B55"/>
<path d="M12.0015 8.20808L12.3551 8.85842L13.0951 8.83948L12.7086 9.47088L13.0951 10.1023L12.3551 10.0833L12.0015 10.7337L11.6479 10.0833L10.9079 10.1023L11.2943 9.47088L10.9079 8.83948L11.6479 8.85842L12.0015 8.20808ZM12.0015 7.81152L11.8351 8.11757L11.5369 8.66609L10.9127 8.65006L10.5645 8.64111L10.7463 8.93829L11.0722 9.47079L10.7463 10.0033L10.5645 10.3005L10.9127 10.2915L11.5369 10.2755L11.8351 10.824L12.0015 11.1301L12.1679 10.824L12.4661 10.2755L13.0902 10.2915L13.4385 10.3005L13.2566 10.0033L12.9307 9.47079L13.2566 8.93829L13.4385 8.64111L13.0902 8.65006L12.4661 8.66609L12.1679 8.11757L12.0015 7.81152Z" fill="#73AF00"/>
<path d="M9.24142 14.3641L8.38525 14.3863L8.8323 13.6556L8.38525 12.925L9.24142 12.9472L9.65049 12.1943L10.0596 12.9472L10.9157 12.925L10.4687 13.6556L10.9157 14.3863L10.0596 14.3641L9.65049 15.1169L9.24142 14.3641Z" fill="#FF4B55"/>
<path d="M9.65041 12.3928L10.004 13.0432L10.744 13.0242L10.3576 13.6556L10.744 14.287L10.004 14.2681L9.65041 14.9184L9.29684 14.2681L8.55683 14.287L8.94326 13.6556L8.55683 13.0242L9.29684 13.0432L9.65041 12.3928ZM9.65041 11.9963L9.48401 12.3024L9.18579 12.8509L8.56166 12.8349L8.21338 12.8259L8.39525 13.1231L8.72117 13.6556L8.39525 14.1881L8.21338 14.4853L8.56166 14.4763L9.18579 14.4603L9.48401 15.0088L9.65041 15.3149L9.81682 15.0088L10.115 14.4603L10.7392 14.4763L11.0874 14.4853L10.9056 14.1881L10.5797 13.6556L10.9056 13.1231L11.0874 12.8259L10.7392 12.8349L10.115 12.8509L9.81682 12.3024L9.65041 11.9963Z" fill="#73AF00"/>
<path d="M13.9441 14.3641L13.0879 14.3863L13.5349 13.6556L13.0879 12.925L13.9441 12.9472L14.3531 12.1943L14.7622 12.9472L15.6184 12.925L15.1714 13.6556L15.6184 14.3863L14.7622 14.3641L14.3531 15.1169L13.9441 14.3641Z" fill="#FF4B55"/>
<path d="M14.353 12.3928L14.7066 13.0432L15.4466 13.0242L15.0602 13.6556L15.4466 14.287L14.7066 14.2681L14.353 14.9184L13.9995 14.2681L13.2595 14.287L13.6459 13.6556L13.2595 13.0242L13.9995 13.0432L14.353 12.3928ZM14.353 11.9963L14.1866 12.3024L13.8884 12.8509L13.2643 12.8349L12.916 12.8259L13.0979 13.1231L13.4238 13.6556L13.0979 14.1881L12.916 14.4853L13.2643 14.4763L13.8884 14.4603L14.1866 15.0088L14.353 15.3149L14.5195 15.0088L14.8177 14.4603L15.4418 14.4763L15.7901 14.4853L15.6082 14.1881L15.2823 13.6556L15.6082 13.1231L15.7901 12.8259L15.4418 12.8349L14.8177 12.8509L14.5195 12.3024L14.353 11.9963Z" fill="#73AF00"/>
</g>
<defs>
<clipPath id="clip0_8615_27605">
<path d="M0 2C0 0.895432 0.895431 0 2 0H21.9998C23.1043 0 23.9998 0.895431 23.9998 2V21.9998C23.9998 23.1043 23.1043 23.9998 21.9998 23.9998H2C0.895432 23.9998 0 23.1043 0 21.9998V2Z" fill="white"/>
</clipPath>
</defs>
</svg>
