<svg width="24" height="24" viewBox="0 0 24 24" fill="none" xmlns="http://www.w3.org/2000/svg">
<g clip-path="url(#clip0_8615_27674)">
<path d="M23.9988 0H-0.000976562V23.9998H23.9988V0Z" fill="#41479B"/>
<path d="M23.9988 5.68408H-0.000976562V18.3154H23.9988V5.68408Z" fill="#FF4B55"/>
<path d="M20.3565 16.7887V15.8932H20.058V15.2962H19.7595V14.6992H19.461V14.1023H18.5656V12.3113H18.5655L18.8641 12.0129V11.1174H18.5656V10.5205H18.2671V9.62497H17.9686V9.02802H17.6701V8.43103H17.3716V8.13257H16.7746V8.43103H16.4762V9.02802H16.1777V9.62497H15.8792V10.5205H15.5807V11.1174H13.7898V10.222H13.4913V9.32652H13.1928V8.43103H12.8943V7.83408H12.5959V7.23708H12.2974V6.93863H12.1481V6.64014H11.8496V6.93863H11.7004V7.23708H11.4019V7.83408H11.1034V8.43103H10.8049V9.32652H10.5064V10.222H10.2079V11.1174H8.41704V10.5205H8.11854V9.62497H7.82004V9.02802H7.52155V8.43103H7.22309V8.13257H6.6261V8.43103H6.3276V9.02802H6.02915V9.62497H5.73066V10.5205H5.43216V11.1174H5.13366V12.0129L5.43202 12.3113H5.43216V14.1023H4.53671V14.6992H4.23822V15.2962H3.93972V15.8932H3.64127V16.7887H3.34277V17.6841H20.6549V16.7887H20.3565Z" fill="#F5F5F5"/>
</g>
<defs>
<clipPath id="clip0_8615_27674">
<path d="M0 2C0 0.895432 0.895431 0 2 0H21.9998C23.1043 0 23.9998 0.895431 23.9998 2V21.9998C23.9998 23.1043 23.1043 23.9998 21.9998 23.9998H2C0.895432 23.9998 0 23.1043 0 21.9998V2Z" fill="white"/>
</clipPath>
</defs>
</svg>
