<svg width="24" height="24" viewBox="0 0 24 24" fill="none" xmlns="http://www.w3.org/2000/svg">
<g clip-path="url(#clip0_8615_27662)">
<path d="M7.9991 0H-0.000976562V23.9998H7.9991V0Z" fill="#73AF00"/>
<path d="M15.9991 0H7.99902V23.9998H15.9991V0Z" fill="#FF4B55"/>
<path d="M23.9962 0H15.9961V23.9998H23.9962V0Z" fill="#FFE15A"/>
<path d="M12.1104 9.98722L12.5822 11.4018L14.0733 11.4134C14.1888 11.4143 14.2367 11.5617 14.1438 11.6303L12.9442 12.5162L13.394 13.9379C13.4288 14.0481 13.3035 14.1392 13.2095 14.072L11.9963 13.2048L10.7832 14.072C10.6892 14.1391 10.5637 14.048 10.5986 13.9379L11.0484 12.5162L9.84885 11.6303C9.7559 11.5617 9.8038 11.4143 9.91935 11.4134L11.4105 11.4018L11.8823 9.98722C11.9188 9.87763 12.0738 9.87763 12.1104 9.98722Z" fill="#FFE15A"/>
</g>
<defs>
<clipPath id="clip0_8615_27662">
<path d="M0 2C0 0.895432 0.895431 0 2 0H21.9998C23.1043 0 23.9998 0.895431 23.9998 2V21.9998C23.9998 23.1043 23.1043 23.9998 21.9998 23.9998H2C0.895432 23.9998 0 23.1043 0 21.9998V2Z" fill="white"/>
</clipPath>
</defs>
</svg>
