<svg width="24" height="24" viewBox="0 0 24 24" fill="none" xmlns="http://www.w3.org/2000/svg">
<g clip-path="url(#clip0_8615_27657)">
<path d="M23.583 19.862H0.410879C0.182365 19.862 -0.00292969 19.6767 -0.00292969 19.4481V4.55175C-0.00292969 4.32323 0.182319 4.13794 0.410879 4.13794H23.5831C23.8116 4.13794 23.9969 4.32319 23.9969 4.55175V19.4481C23.9968 19.6767 23.8116 19.862 23.583 19.862Z" fill="#F5F5F5"/>
<path d="M18.6176 0H5.37646V23.9998H18.6176V0Z" fill="#F5F5F5"/>
<path d="M5.37639 0H-0.00292969V23.9998H5.37639V0Z" fill="#FF4B55"/>
<path d="M23.997 0H18.6177V23.9998H23.997V0Z" fill="#FF4B55"/>
<path d="M14.5082 13.8168L16.9636 12.4137L16.4002 12.132C16.2422 12.0529 16.1517 11.8823 16.1751 11.7071L16.3584 10.3327L15.3189 10.6351C15.0892 10.7019 14.8509 10.5607 14.7993 10.3272L14.6997 9.87719L13.7236 11.0195C13.5884 11.1779 13.3306 11.0569 13.3658 10.8517L13.7827 8.42788L13.1445 8.60244C12.958 8.65344 12.7612 8.56859 12.6702 8.39811L11.9982 7.13855V7.13672L11.9977 7.13766L11.9972 7.13672V7.13855L11.3252 8.39811C11.2342 8.56859 11.0374 8.65344 10.8509 8.60244L10.2127 8.42788L10.6295 10.8517C10.6648 11.0569 10.407 11.1779 10.2718 11.0195L9.29568 9.87719L9.19612 10.3272C9.14447 10.5607 8.90616 10.7019 8.67652 10.6351L7.63694 10.3327L7.82026 11.7071C7.84361 11.8822 7.75318 12.0529 7.59517 12.132L7.03174 12.4137L9.48717 13.8168C9.74151 13.9621 9.85293 14.2704 9.75037 14.5447L9.54046 15.1061L11.6444 14.9265C11.7609 14.9166 11.86 15.0103 11.8565 15.1271L11.7903 17.3791H12.2041L12.1379 15.127C12.1345 15.0102 12.2335 14.9164 12.35 14.9264L14.4549 15.1061L14.245 14.5447C14.1424 14.2704 14.2538 13.9621 14.5082 13.8168Z" fill="#FF4B55"/>
</g>
<defs>
<clipPath id="clip0_8615_27657">
<path d="M0 2C0 0.89543 0.89543 0 2 0H21.9998C23.1044 0 23.9998 0.89543 23.9998 2V21.9998C23.9998 23.1044 23.1044 23.9998 21.9998 23.9998H2C0.89543 23.9998 0 23.1044 0 21.9998V2Z" fill="white"/>
</clipPath>
</defs>
</svg>
