<svg width="24" height="24" viewBox="0 0 24 24" fill="none" xmlns="http://www.w3.org/2000/svg">
<g clip-path="url(#clip0_8615_27611)">
<path d="M23.9978 0H-0.00195312V23.9998H23.9978V0Z" fill="#41479B"/>
<path d="M23.9959 13.8948H-0.00390625V15.579H23.9959V13.8948Z" fill="#F5F5F5"/>
<path d="M23.9959 17.2632H-0.00390625V18.9474H23.9959V17.2632Z" fill="#F5F5F5"/>
<path d="M23.9978 15.5789H-0.00195312V17.2631H23.9978V15.5789Z" fill="#FF4B55"/>
<path d="M8.69392 10.4734L8.88766 11.0543L9.49993 11.059C9.54737 11.0594 9.56706 11.1199 9.52885 11.1481L9.03629 11.5118L9.22098 12.0955C9.23528 12.1408 9.18381 12.1782 9.14518 12.1506L8.64705 11.7945L8.14891 12.1506C8.11034 12.1781 8.05882 12.1407 8.07312 12.0955L8.2578 11.5118L7.76525 11.1481C7.72709 11.1199 7.74678 11.0593 7.79417 11.059L8.40644 11.0543L8.60017 10.4734C8.61527 10.4284 8.67888 10.4284 8.69392 10.4734Z" fill="#FFE15A"/>
<path d="M8.69392 20.6799L8.88766 21.2607L9.49993 21.2654C9.54737 21.2658 9.56706 21.3263 9.52885 21.3545L9.03629 21.7182L9.22098 22.302C9.23528 22.3472 9.18381 22.3846 9.14518 22.357L8.64705 22.0009L8.14891 22.357C8.11034 22.3846 8.05882 22.3471 8.07312 22.302L8.2578 21.7182L7.76525 21.3545C7.72709 21.3263 7.74678 21.2658 7.79417 21.2654L8.40644 21.2607L8.60017 20.6799C8.61527 20.6349 8.67888 20.6349 8.69392 20.6799Z" fill="#FFE15A"/>
<path d="M5.38042 21.2503L5.87274 20.8863L6.3765 21.2343C6.41555 21.2612 6.46641 21.223 6.45136 21.178L6.25735 20.5973L6.744 20.2257C6.78168 20.197 6.76106 20.1367 6.71362 20.1371L6.10135 20.1423L5.89833 19.5646C5.88258 19.5199 5.81898 19.5209 5.80468 19.5661L5.62032 20.15L5.00823 20.1646C4.9608 20.1657 4.94214 20.2265 4.98072 20.2541L5.47904 20.6099L5.30378 21.1965C5.29018 21.2419 5.34226 21.2785 5.38042 21.2503Z" fill="#FFE15A"/>
<path d="M6.36515 12.953L5.86524 12.5994L5.36893 12.958C5.33049 12.9858 5.27879 12.9486 5.2929 12.9033L5.47463 12.3187L4.98029 11.9575C4.94199 11.9295 4.96135 11.8688 5.00879 11.8682L5.62102 11.8604L5.8118 11.2786C5.82656 11.2335 5.89022 11.2332 5.90545 11.2781L6.10209 11.858L6.71437 11.8597C6.7618 11.8598 6.78177 11.9202 6.74376 11.9486L6.25307 12.3148L6.44071 12.8976C6.4552 12.9427 6.40387 12.9804 6.36515 12.953Z" fill="#FFE15A"/>
<path d="M10.9761 12.9605L11.4684 12.5965L11.9722 12.9445C12.0113 12.9715 12.0621 12.9332 12.0471 12.8882L11.853 12.3075L12.3397 11.9359C12.3774 11.9072 12.3568 11.8469 12.3093 11.8474L11.6971 11.8525L11.494 11.2748C11.4783 11.2301 11.4147 11.2311 11.4004 11.2763L11.216 11.8602L10.6039 11.8748C10.5565 11.8759 10.5378 11.9367 10.5764 11.9643L11.0747 12.3201L10.8995 12.9067C10.8859 12.9521 10.938 12.9887 10.9761 12.9605Z" fill="#FFE15A"/>
<path d="M11.9609 21.2428L11.4609 20.8892L10.9646 21.2478C10.9262 21.2756 10.8745 21.2384 10.8886 21.1931L11.0703 20.6085L10.576 20.2472C10.5377 20.2193 10.5571 20.1586 10.6045 20.158L11.2167 20.1502L11.4075 19.5684C11.4223 19.5233 11.4859 19.523 11.5012 19.5679L11.6978 20.1478L12.3101 20.1495C12.3575 20.1496 12.3775 20.21 12.3395 20.2384L11.8488 20.6046L12.0364 21.1874C12.0509 21.2325 11.9996 21.2701 11.9609 21.2428Z" fill="#FFE15A"/>
<path d="M4.64834 17.6753L4.03606 17.6794L3.83403 17.1014C3.81838 17.0567 3.75472 17.0576 3.74038 17.1028L3.55503 17.6863L2.9429 17.6999C2.89546 17.7009 2.87667 17.7618 2.91524 17.7894L3.41296 18.1459L3.23671 18.7323C3.22307 18.7777 3.2751 18.8144 3.31326 18.7862L3.80619 18.4231L4.30939 18.7719C4.34839 18.7989 4.39934 18.7608 4.38434 18.7157L4.19126 18.1347L4.67852 17.7639C4.7163 17.7353 4.69577 17.675 4.64834 17.6753Z" fill="#FFE15A"/>
<path d="M2.94307 14.5286L3.55525 14.517L3.74246 13.934C3.75695 13.8889 3.8206 13.8882 3.83612 13.933L4.03627 14.5116L4.64855 14.5096C4.69599 14.5094 4.71633 14.5697 4.6785 14.5983L4.19002 14.9675L4.38118 15.5492C4.39599 15.5942 4.3449 15.6322 4.30604 15.605L3.80396 15.2546L3.30986 15.6161C3.27156 15.6441 3.21967 15.6073 3.23345 15.5619L3.41162 14.9761L2.91508 14.6179C2.87664 14.5902 2.89563 14.5294 2.94307 14.5286Z" fill="#FFE15A"/>
<path d="M14.3495 14.5059L13.7372 14.51L13.5352 13.932C13.5195 13.8872 13.4559 13.8881 13.4415 13.9334L13.2562 14.5169L12.6441 14.5304C12.5966 14.5315 12.5778 14.5923 12.6164 14.6199L13.1141 14.9765L12.9379 15.5629C12.9242 15.6083 12.9763 15.6449 13.0144 15.6168L13.5074 15.2536L14.0106 15.6025C14.0496 15.6295 14.1005 15.5914 14.0855 15.5463L13.8924 14.9653L14.3797 14.5945C14.4175 14.5658 14.3969 14.5056 14.3495 14.5059Z" fill="#FFE15A"/>
<path d="M12.6442 17.698L13.2564 17.6864L13.4436 17.1035C13.4581 17.0583 13.5218 17.0576 13.5373 17.1025L13.7374 17.6811L14.3497 17.679C14.3972 17.6789 14.4175 17.7391 14.3797 17.7677L13.8912 18.1369L14.0823 18.7186C14.0972 18.7636 14.0461 18.8017 14.0072 18.7745L13.5051 18.424L13.011 18.7855C12.9727 18.8136 12.9208 18.7767 12.9346 18.7313L13.1128 18.1455L12.6163 17.7873C12.5778 17.7596 12.5968 17.6989 12.6442 17.698Z" fill="#FFE15A"/>
</g>
<defs>
<clipPath id="clip0_8615_27611">
<path d="M0 2C0 0.895432 0.895431 0 2 0H21.9998C23.1043 0 23.9998 0.895431 23.9998 2V21.9998C23.9998 23.1043 23.1043 23.9998 21.9998 23.9998H2C0.895432 23.9998 0 23.1043 0 21.9998V2Z" fill="white"/>
</clipPath>
</defs>
</svg>
