<svg width="40" height="40" viewBox="0 0 40 40" fill="none" xmlns="http://www.w3.org/2000/svg">
<g clip-path="url(#clip0_9659_265)">
<g clip-path="url(#clip1_9659_265)">
<path fill-rule="evenodd" clip-rule="evenodd" d="M8.17916 15.8106C7.89092 16.6971 7.59318 17.6147 7.51749 17.8499L7.37991 18.2774L5.26221 18.2834L3.14453 18.2894L4.85314 19.5294C5.7929 20.2114 6.56178 20.7736 6.56178 20.7788C6.56178 20.784 6.26678 21.6963 5.90624 22.8063C5.5457 23.9163 5.25307 24.8264 5.25598 24.8289C5.25888 24.8314 6.0152 24.2854 6.9367 23.6155C7.8582 22.9457 8.63472 22.3823 8.66228 22.3636C8.70983 22.3313 8.80077 22.3937 10.4276 23.5743C11.371 24.259 12.147 24.815 12.1521 24.8099C12.1572 24.8049 11.867 23.8947 11.5073 22.7874C11.1475 21.68 10.8613 20.7686 10.8712 20.7619C10.881 20.7553 11.6516 20.1962 12.5836 19.5196L14.278 18.2894L12.1651 18.2834L10.0522 18.2774L10.0291 18.2248C10.0165 18.1959 9.72042 17.2917 9.37124 16.2155C9.02205 15.1394 8.7289 14.2454 8.71981 14.2289C8.71069 14.2124 8.46784 14.923 8.17916 15.8106Z" fill="white"/>
<path fill-rule="evenodd" clip-rule="evenodd" d="M0 19.9994V39.9882L2.2145 37.7738C15.8209 24.1682 19.9656 20.0208 19.9707 20.0061C19.9739 19.9966 15.4819 15.4937 9.98828 9.9997L0 0.0106201V19.9994ZM8.17861 15.8107C7.89036 16.6971 7.59262 17.6148 7.51693 17.8499L7.37936 18.2774L5.26165 18.2834L3.14397 18.2894L4.85258 19.5294C5.79234 20.2114 6.56122 20.7737 6.56122 20.7788C6.56122 20.784 6.26622 21.6964 5.90568 22.8064C5.54514 23.9163 5.25251 24.8265 5.25542 24.829C5.25832 24.8315 6.01465 24.2854 6.93615 23.6156C7.85765 22.9458 8.63417 22.3824 8.66172 22.3636C8.70927 22.3313 8.80021 22.3937 10.4271 23.5744C11.3705 24.259 12.1465 24.815 12.1515 24.81C12.1566 24.8049 11.8664 23.8948 11.5067 22.7874C11.147 21.6801 10.8607 20.7686 10.8706 20.762C10.8805 20.7553 11.6511 20.1963 12.583 19.5196L14.2774 18.2894L12.1645 18.2834L10.0516 18.2774L10.0286 18.2248C10.0159 18.1959 9.71986 17.2917 9.37069 16.2156C9.02149 15.1394 8.72834 14.2454 8.71925 14.229C8.71013 14.2124 8.46728 14.923 8.17861 15.8107Z" fill="#0F47AF"/>
<path fill-rule="evenodd" clip-rule="evenodd" d="M6.65572 6.66668L8.87004 8.88109H34.4296H59.9891V6.66668V4.45227H32.2152H4.44141L6.65572 6.66668ZM15.5485 15.5595L17.7746 17.7856H38.8818H59.9891V15.5595V13.3333H36.6558H13.3225L15.5485 15.5595ZM15.5485 24.4406L13.3225 26.6667H36.6558H59.9891V24.4406V22.2144H38.8818H17.7746L15.5485 24.4406ZM6.65572 33.3333L4.44141 35.5478H32.2152H59.9891V33.3333V31.1189H34.4296H8.87004L6.65572 33.3333Z" fill="#CC0504"/>
<path fill-rule="evenodd" clip-rule="evenodd" d="M0.206793 0.205038C0.310437 0.317821 1.30559 1.31958 2.41821 2.43117L4.44117 4.45226H32.2147H59.9883V2.22613V0H30.0033H0.0183691L0.206793 0.205038ZM8.90451 8.8987C8.90451 8.9084 9.89837 9.91016 11.1131 11.1248L13.3217 13.3333H36.655H59.9883V11.1072V8.88108H34.4464C20.3984 8.88108 8.90451 8.889 8.90451 8.8987ZM18.8811 18.8929L19.9882 20.0001L18.8811 21.1073L17.7739 22.2144H38.8811H59.9883V20V17.7856H38.8812H17.7741L18.8811 18.8929ZM11.113 28.8753C9.89835 30.09 8.90451 31.0918 8.90451 31.1014C8.90451 31.111 20.3984 31.1189 34.4464 31.1189H59.9883V28.8928V26.6667H36.6549H13.3215L11.113 28.8753ZM2.21467 37.7738L-0.0117188 39.9999L29.9844 40C46.4822 40 59.9849 39.9956 59.9902 39.9902C59.9956 39.9849 59.9973 38.9831 59.9939 37.7641L59.9878 35.5477H32.2144H4.44105L2.21467 37.7738Z" fill="#FBD50C"/>
</g>
</g>
<defs>
<clipPath id="clip0_9659_265">
<rect width="40" height="40" fill="white"/>
</clipPath>
<clipPath id="clip1_9659_265">
<rect width="59.9883" height="40" fill="white"/>
</clipPath>
</defs>
</svg>
