<svg width="24" height="24" viewBox="0 0 24 24" fill="none" xmlns="http://www.w3.org/2000/svg">
<g clip-path="url(#clip0_8615_27632)">
<path d="M23.9978 0H-0.00195312V23.9998H23.9978V0Z" fill="#41479B"/>
<path d="M18.5356 12.2507C18.5356 12.2507 18.3379 11.4597 17.7446 11.0642C17.7446 11.0642 18.3379 12.053 18.3379 12.844L18.5356 12.2507Z" fill="#FFE15A"/>
<path d="M17.6211 11.3917C17.6211 11.3917 18.0351 11.6451 18.2576 12.0591L18.0784 12.4732C18.0784 12.4732 17.9301 11.8861 17.6211 11.3917Z" fill="#FFE15A"/>
<path d="M17.1636 11.4845C17.1636 11.4845 17.8804 11.707 18.2203 12.1705L18.0164 12.4795C18.0164 12.4795 17.7445 11.9541 17.1636 11.4845Z" fill="#FFE15A"/>
<path d="M17.0586 11.8429C17.0586 11.8429 17.8125 11.9603 18.1524 12.3188L18.0659 12.6587C18.0659 12.6587 17.6519 12.1643 17.0586 11.8429Z" fill="#FFE15A"/>
<path d="M17.0835 12.0901C17.0835 12.0901 17.8127 12.1642 18.1464 12.5474C18.4801 12.9305 18.0228 12.8131 18.0228 12.8131C18.0228 12.8131 17.6397 12.3743 17.0835 12.0901Z" fill="#FFE15A"/>
<path d="M18.5356 12.2507C18.5356 12.2507 18.7334 11.4597 19.3267 11.0642C19.3267 11.0642 18.7334 12.053 18.7334 12.844L18.5356 12.2507Z" fill="#FFE15A"/>
<path d="M19.45 11.3917C19.45 11.3917 19.0359 11.6451 18.8135 12.0591L18.9927 12.4732C18.9927 12.4732 19.141 11.8861 19.45 11.3917Z" fill="#FFE15A"/>
<path d="M19.9073 11.4845C19.9073 11.4845 19.1905 11.707 18.8506 12.1705L19.0545 12.4795C19.0545 12.4795 19.3265 11.9541 19.9073 11.4845Z" fill="#FFE15A"/>
<path d="M20.0123 11.8429C20.0123 11.8429 19.2583 11.9603 18.9185 12.3188L19.005 12.6587C19.005 12.6587 19.419 12.1643 20.0123 11.8429Z" fill="#FFE15A"/>
<path d="M19.9875 12.0901C19.9875 12.0901 19.2583 12.1642 18.9246 12.5474C18.5909 12.9305 19.0482 12.8131 19.0482 12.8131C19.0482 12.8131 19.4314 12.3743 19.9875 12.0901Z" fill="#FFE15A"/>
<path d="M18.5356 11.0642C18.5356 11.0642 18.3379 11.4803 18.5356 11.6884C18.7334 11.4803 18.5356 11.0642 18.5356 11.0642Z" fill="#FFE15A"/>
<path d="M18.3386 11.1675C18.3386 11.1675 18.3121 11.6274 18.5736 11.7457C18.6785 11.4785 18.3386 11.1675 18.3386 11.1675Z" fill="#FFE15A"/>
<path d="M18.7326 11.1675C18.7326 11.1675 18.7591 11.6274 18.4976 11.7457C18.3928 11.4785 18.7326 11.1675 18.7326 11.1675Z" fill="#FFE15A"/>
<path d="M18.7974 11.4329C18.7974 11.4329 18.6249 11.86 18.3379 11.8552C18.3572 11.5688 18.7974 11.4329 18.7974 11.4329Z" fill="#FFE15A"/>
<path d="M18.2739 11.4329C18.2739 11.4329 18.4465 11.86 18.7335 11.8552C18.7141 11.5688 18.2739 11.4329 18.2739 11.4329Z" fill="#FFE15A"/>
<path d="M18.5376 13.2395C18.8652 13.2395 19.1308 12.8853 19.1308 12.4485C19.1308 12.0116 18.8652 11.6575 18.5376 11.6575C18.2099 11.6575 17.9443 12.0116 17.9443 12.4485C17.9443 12.8853 18.2099 13.2395 18.5376 13.2395Z" fill="#FFD255"/>
<path d="M17.179 13.256L17.0431 13.0459C17.0431 13.0459 16.6476 13.1407 16.5528 12.844L16.4004 12.8316C16.4004 12.8316 16.421 12.6298 16.5982 12.6009C16.5982 12.6009 16.7053 12.4691 16.8948 12.4938C17.0843 12.5185 17.1831 12.6792 17.2924 12.7204C17.4015 12.7616 17.4139 12.8975 17.4139 12.8975L18.2461 13.7504C18.2461 13.7504 18.0072 14.0553 17.7929 14.1541C17.5786 14.253 16.7917 13.771 17.179 13.256Z" fill="#73AF00"/>
<path d="M19.8819 13.4126C19.8819 13.4126 20.2279 13.6474 20.2403 14.2963H19.6656C19.6656 14.2963 19.6718 13.8576 19.5605 13.6227L19.8819 13.4126Z" fill="#73AF00"/>
<path d="M19.8076 13.4373C19.8076 13.4373 20.2402 13.5794 20.506 13.2395L20.0548 13.1777L19.8076 13.4373Z" fill="#73AF00"/>
<path d="M19.6778 12.9615L20.1171 13.1095C20.1725 13.1282 20.192 13.1968 20.1532 13.2405C19.9866 13.4282 19.4891 13.8781 18.687 13.8781C17.6426 13.8781 17.3728 13.221 17.3604 13.1716C17.3481 13.1221 17.2925 12.7205 17.2925 12.7205L17.7374 12.671L19.6778 12.9615Z" fill="#73AF00"/>
<path d="M15.4084 19.012H16.5586L15.9654 20.1611L15.3721 19.3701L15.4084 19.012Z" fill="#FF4B55"/>
<path d="M21.664 19.012H20.5137L21.107 20.1611L21.7002 19.3701L21.664 19.012Z" fill="#FF4B55"/>
<path d="M15.403 20.9521C14.8356 20.9521 14.4013 20.6476 14.3789 20.6317L14.8362 19.9861C14.84 19.9887 15.2231 20.249 15.6138 20.1306C16.0092 20.0113 16.2687 19.5447 16.4169 19.1741L17.1513 19.468C16.8397 20.2471 16.3954 20.7258 15.8308 20.8913C15.6831 20.9345 15.5391 20.9521 15.403 20.9521Z" fill="#FFD25A"/>
<path d="M21.6682 20.9521C22.2357 20.9521 22.67 20.6476 22.6924 20.6317L22.2351 19.9861C22.2313 19.9887 21.8482 20.249 21.4575 20.1306C21.0621 20.0113 20.8026 19.5447 20.6544 19.1741L19.9199 19.468C20.2315 20.2471 20.6759 20.7258 21.2405 20.8913C21.3881 20.9345 21.5321 20.9521 21.6682 20.9521Z" fill="#FFD25A"/>
<path d="M21.1084 16.7992H15.9668V14.8011C15.9668 14.5941 16.1347 14.4261 16.3418 14.4261H20.7334C20.9405 14.4261 21.1084 14.5941 21.1084 14.8011V16.7992Z" fill="#FF4B55"/>
<path d="M17.3701 15.8107L17.3084 15.4151C17.0179 15.4028 16.8511 15.0629 16.8511 15.0629L16.6162 15.1927C16.8634 15.786 17.3701 15.8107 17.3701 15.8107Z" fill="#FFE15A"/>
<path d="M20.4667 15.4028C20.5532 15.3369 20.7427 15.3121 20.7427 15.3121C20.6068 15.1721 20.4584 15.2709 20.4584 15.2709C20.582 15.1556 20.512 14.9908 20.512 14.9908C20.512 15.0444 20.4254 15.0814 20.4254 15.0814C20.4296 14.9743 20.3183 14.8714 20.3183 14.8714L20.2606 14.9661C20.2236 14.8754 20.0917 14.8054 20.0917 14.8054L20.0382 15.0279C19.9146 14.9208 19.6962 14.929 19.6962 14.929L19.7374 15.032C19.6056 15.0361 19.2472 15.1103 19.037 15.135C18.8269 15.1597 18.658 15.102 18.658 15.0073C18.658 14.9279 18.8417 14.9181 18.9211 14.9169C18.9773 14.9294 19.0479 14.9497 19.1472 14.9795C19.3326 15.0351 19.4412 14.9546 19.4412 14.9546C19.3763 14.9299 19.3691 14.901 19.3691 14.901C19.5081 14.8207 19.6385 14.8405 19.6385 14.8405C19.5922 14.7385 19.3913 14.7447 19.3913 14.7447C19.4439 14.7169 19.4841 14.6304 19.4841 14.6304C19.4717 14.6427 19.3575 14.6707 19.2016 14.6917C19.0843 14.7074 18.9741 14.7967 18.9286 14.8379C18.8049 14.8285 18.4817 14.8245 18.5385 15.0485C18.6085 15.3246 19.1648 15.2257 19.5067 15.1721C19.8487 15.1186 20.0258 15.1639 20.1 15.2092C20.1741 15.2546 20.0684 15.4081 19.7209 15.3452C19.4206 15.2908 19.2553 15.2893 19.1645 15.2988C19.0639 15.3053 18.978 15.3323 18.9175 15.3452C18.7816 15.374 18.2583 15.5594 18.1595 15.2916C18.0606 15.0238 17.5786 15.7283 17.5786 15.7283L17.6162 15.7731L17.4879 15.7428C17.3149 15.9745 16.7958 16.0456 16.7958 16.0456C16.7958 16.0456 16.7185 15.9065 16.6536 15.888C16.5888 15.8694 16.5609 15.9714 16.5609 15.9714C16.5609 15.9714 16.4837 15.9745 16.4775 16.0456C16.4713 16.1166 16.5331 16.1228 16.5331 16.1228C16.5331 16.1228 16.459 16.2309 16.5826 16.2618C16.5826 16.2618 16.5733 16.4132 16.7556 16.3082C17.2971 16.3764 17.6921 16.0983 17.8631 15.9467C17.9748 15.9538 18.1491 15.9503 18.283 15.8808C18.4973 15.7696 18.7445 15.6295 18.8887 15.683C18.8887 15.683 19.004 16.0374 18.5508 16.0456C18.5508 16.0456 18.4838 15.9608 18.4163 15.9608C18.3872 15.9608 18.357 15.9957 18.3663 16.0271C18.3663 16.0271 18.2872 16.0225 18.2732 16.069C18.2619 16.107 18.2895 16.1505 18.3477 16.1435C18.3477 16.1435 18.3081 16.2017 18.3477 16.2365C18.3872 16.2714 18.4361 16.2365 18.4361 16.2365C18.4361 16.2365 18.4151 16.3086 18.464 16.3157C18.5058 16.3216 18.5612 16.2534 18.577 16.2326C18.6495 16.2438 19.1444 16.3009 19.2512 15.7819C19.2512 15.7819 19.4984 15.889 19.7415 15.8685C19.9845 15.8479 20.2235 15.885 20.2029 16.0044C20.1759 16.091 20.1228 16.0853 20.1228 16.0853C20.0647 16.0621 19.9669 16.0644 19.953 16.1481C19.939 16.2319 20.053 16.2342 20.053 16.2342C20.0856 16.311 20.1787 16.2784 20.1787 16.2784C20.2601 16.3366 20.3136 16.2737 20.3136 16.2737C20.3485 16.304 20.3846 16.3097 20.4183 16.2807C20.4509 16.2528 20.4326 16.0667 20.4295 16.0003C20.4244 15.8897 20.4089 15.6007 20.2483 15.5965C20.0876 15.5924 19.8816 15.6872 19.5973 15.4482C19.5825 15.4358 19.568 15.4278 19.5533 15.4172C19.6878 15.4297 19.7842 15.4661 19.8774 15.4812C20.0052 15.5016 20.3801 15.4687 20.4667 15.4028Z" fill="#FFE15A"/>
<path d="M16.6166 15.1926C16.6166 15.1926 16.5378 15.1947 16.4992 15.1834C16.433 15.1639 16.425 15.0597 16.4961 15.0412C16.4961 15.0412 16.4105 14.9831 16.4497 14.9176C16.4811 14.8653 16.5611 14.8654 16.5889 14.8963C16.5889 14.8963 16.5628 14.8101 16.6382 14.7817C16.6982 14.759 16.7463 14.828 16.7463 14.9176C16.7463 14.9176 16.836 14.8447 16.8823 14.8929C16.9146 14.9265 16.9053 14.9707 16.8514 15.0629C16.7965 15.1568 16.6166 15.1926 16.6166 15.1926Z" fill="#FFE15A"/>
<path d="M16.5183 15.1544C16.5183 15.1544 16.4765 15.2265 16.3555 15.1823C16.3555 15.1823 16.4601 15.1335 16.4741 15.0916L16.5183 15.1544Z" fill="#41479B"/>
<path d="M16.4742 14.9427C16.4742 14.9427 16.409 14.9008 16.3369 14.9031C16.3369 14.9031 16.4439 14.824 16.5347 14.8938L16.4742 14.9427Z" fill="#41479B"/>
<path d="M16.6254 14.831C16.6254 14.831 16.6464 14.7543 16.6045 14.7124C16.6045 14.7124 16.6906 14.7496 16.7022 14.8194L16.6254 14.831Z" fill="#41479B"/>
<path d="M16.8164 14.9101C16.8164 14.9101 16.8583 14.817 16.821 14.7728C16.821 14.7728 16.9327 14.838 16.8862 14.945L16.8164 14.9101Z" fill="#41479B"/>
<path d="M16.5982 15.9441C16.5982 15.9441 16.5534 15.8524 16.4956 15.8528C16.4956 15.8528 16.6171 15.8086 16.6696 15.9128L16.5982 15.9441Z" fill="#41479B"/>
<path d="M16.5006 16.0608C16.5006 16.0608 16.4207 15.9973 16.3687 16.0225C16.3687 16.0225 16.4593 15.9303 16.5516 16.0018L16.5006 16.0608Z" fill="#41479B"/>
<path d="M16.5564 16.2257C16.5564 16.2257 16.4544 16.2246 16.4287 16.2764C16.4287 16.2764 16.4438 16.148 16.5604 16.1478L16.5564 16.2257Z" fill="#41479B"/>
<path d="M16.6497 16.3316C16.6497 16.3316 16.6078 16.4037 16.4868 16.3595C16.4868 16.3595 16.5915 16.3107 16.6055 16.2688L16.6497 16.3316Z" fill="#41479B"/>
<path d="M18.4884 16.2951C18.4884 16.2951 18.4541 16.3541 18.355 16.3179C18.355 16.3179 18.4354 16.2892 18.4469 16.2549L18.4884 16.2951Z" fill="#41479B"/>
<path d="M17.4415 15.0195C17.4415 15.0195 17.2189 15.3985 17.2725 15.9465C17.2725 15.9465 17.9286 15.8507 18.2128 15.1956C18.2128 15.1956 18.2821 15.1676 18.3091 15.1004C18.3321 15.0431 18.3302 14.949 18.22 14.9495C18.22 14.9495 18.2529 14.8836 18.2931 14.8681C18.2931 14.8681 18.2221 14.8403 18.1386 14.8588C18.1386 14.8588 18.2035 14.7939 18.2035 14.7105C18.2035 14.7105 18.1046 14.7754 18.0428 14.7816C18.0428 14.7816 18.0366 14.6796 18.0614 14.6672C18.0614 14.6672 17.9316 14.6796 17.8667 14.7476C17.8667 14.7476 17.8234 14.6889 17.8265 14.6271C17.8265 14.6271 17.706 14.6796 17.6597 14.7569C17.6597 14.7569 17.6226 14.7167 17.6257 14.6765C17.6257 14.6765 17.5391 14.7816 17.5206 14.8372C17.5206 14.8372 17.4391 14.8148 17.4032 14.8805C17.3774 14.9278 17.3833 14.9799 17.4415 15.0195Z" fill="#FFD255"/>
<path d="M18.3877 16.0191C18.3877 16.0191 18.3613 15.9695 18.2822 15.9587C18.2822 15.9587 18.3831 15.9121 18.4466 15.9788L18.3877 16.0191Z" fill="#41479B"/>
<path d="M20.0235 16.2075C20.0235 16.2075 19.9657 16.2258 19.9387 16.3076C19.9387 16.3076 19.9091 16.1915 19.9923 16.1371L20.0235 16.2075Z" fill="#41479B"/>
<path d="M20.1447 16.2502C20.1447 16.2502 20.09 16.3034 20.0926 16.3895C20.0926 16.3895 20.0251 16.2906 20.0846 16.2109L20.1447 16.2502Z" fill="#41479B"/>
<path d="M20.4065 16.2456C20.4065 16.2456 20.3899 16.3019 20.4399 16.362C20.4399 16.362 20.3363 16.3291 20.3345 16.2389L20.4065 16.2456Z" fill="#41479B"/>
<path d="M20.2834 16.2675C20.2834 16.2675 20.2395 16.3092 20.2511 16.3946C20.2511 16.3946 20.1694 16.3228 20.2203 16.2374L20.2834 16.2675Z" fill="#41479B"/>
<path d="M18.3033 16.1207C18.3033 16.1207 18.2504 16.1018 18.1846 16.147C18.1846 16.147 18.2278 16.0447 18.3197 16.0512L18.3033 16.1207Z" fill="#41479B"/>
<path d="M18.3757 16.2332C18.3757 16.2332 18.3214 16.219 18.2598 16.2698C18.2598 16.2698 18.2692 16.1711 18.3614 16.1696L18.3757 16.2332Z" fill="#41479B"/>
<path d="M21.1084 17.118C20.6796 17.118 20.6796 17.5048 20.2507 17.5048C19.8219 17.5048 19.8219 17.118 19.393 17.118C18.9644 17.118 18.9644 17.5048 18.5359 17.5048C18.1077 17.5048 18.1077 17.118 17.6795 17.118C17.2514 17.118 17.2514 17.5048 16.8233 17.5048C16.395 17.5048 16.395 17.118 15.9668 17.118V16.4038C16.395 16.4038 16.395 16.7907 16.8233 16.7907C17.2514 16.7907 17.2514 16.4038 17.6795 16.4038C18.1077 16.4038 18.1077 16.7907 18.5359 16.7907C18.9645 16.7907 18.9645 16.4038 19.393 16.4038C19.8219 16.4038 19.8219 16.7907 20.2507 16.7907C20.6796 16.7907 20.6796 16.4038 21.1084 16.4038V17.118Z" fill="#F5F5F5"/>
<path d="M20.2508 17.5048C19.8219 17.5048 19.8219 17.1179 19.393 17.1179C18.9645 17.1179 18.9645 17.5048 18.5359 17.5048C18.1077 17.5048 18.1077 17.1179 17.6796 17.1179C17.2515 17.1179 17.2515 17.5048 16.8233 17.5048C16.396 17.5048 16.3948 17.1198 15.9692 17.1182C15.9752 17.2892 15.9948 17.543 16.0449 17.8412C16.3928 17.8873 16.4245 18.219 16.8234 18.219C17.2515 18.219 17.2515 17.8321 17.6796 17.8321C18.1078 17.8321 18.1078 18.219 18.536 18.219C18.9646 18.219 18.9646 17.8321 19.3931 17.8321C19.822 17.8321 19.822 18.219 20.2508 18.219C20.6503 18.219 20.682 17.8873 21.0305 17.8412C21.0806 17.543 21.1002 17.2892 21.1062 17.1182C20.6799 17.1198 20.6787 17.5048 20.2508 17.5048Z" fill="#41479B"/>
<path d="M20.2503 18.219C19.8214 18.219 19.8214 17.8322 19.3926 17.8322C18.964 17.8322 18.964 18.219 18.5355 18.219C18.1073 18.219 18.1073 17.8322 17.6791 17.8322C17.251 17.8322 17.251 18.219 16.8229 18.219C16.424 18.219 16.3923 17.8873 16.0444 17.8412C16.0842 18.0775 16.1435 18.3411 16.2309 18.6136C16.4236 18.7242 16.5076 18.9331 16.8229 18.9331C17.251 18.9331 17.251 18.5463 17.6791 18.5463C18.1073 18.5463 18.1073 18.9331 18.5355 18.9331C18.9641 18.9331 18.9641 18.5463 19.3926 18.5463C19.8214 18.5463 19.8214 18.9331 20.2503 18.9331C20.5663 18.9331 20.6502 18.7238 20.8436 18.6133C20.931 18.3409 20.9902 18.0774 21.0299 17.8412C20.6815 17.8873 20.6498 18.219 20.2503 18.219Z" fill="#F5F5F5"/>
<path d="M20.2504 18.9331C19.8215 18.9331 19.8215 18.5463 19.3927 18.5463C18.9641 18.5463 18.9641 18.9331 18.5356 18.9331C18.1074 18.9331 18.1074 18.5463 17.6792 18.5463C17.2511 18.5463 17.2511 18.9331 16.823 18.9331C16.5077 18.9331 16.4238 18.7242 16.231 18.6136C16.3398 18.9531 16.4926 19.3052 16.7059 19.6336C16.7419 19.641 16.7789 19.6473 16.823 19.6473C17.2511 19.6473 17.2511 19.2605 17.6793 19.2605C18.1075 19.2605 18.1075 19.6473 18.5356 19.6473C18.9642 19.6473 18.9642 19.2605 19.3927 19.2605C19.8216 19.2605 19.8216 19.6473 20.2504 19.6473C20.295 19.6473 20.3325 19.641 20.3688 19.6335C20.5822 19.305 20.7349 18.9529 20.8438 18.6133C20.6503 18.7238 20.5664 18.9331 20.2504 18.9331Z" fill="#41479B"/>
<path d="M20.2506 19.6474C19.8217 19.6474 19.8217 19.2605 19.3929 19.2605C18.9643 19.2605 18.9643 19.6474 18.5358 19.6474C18.1076 19.6474 18.1076 19.2605 17.6794 19.2605C17.2513 19.2605 17.2513 19.6474 16.8231 19.6474C16.7791 19.6474 16.742 19.641 16.7061 19.6336C16.8416 19.8423 17.0021 20.0407 17.1911 20.2203C17.322 20.1096 17.426 19.9746 17.6794 19.9746C18.1076 19.9746 18.1076 20.3615 18.5358 20.3615C18.9643 20.3615 18.9643 19.9746 19.3929 19.9746C19.6473 19.9746 19.7513 20.1103 19.883 20.2211C20.0723 20.0412 20.2331 19.8425 20.3689 19.6335C20.3326 19.641 20.2951 19.6474 20.2506 19.6474Z" fill="#F5F5F5"/>
<path d="M19.8828 20.221C19.7512 20.1103 19.6471 19.9746 19.3927 19.9746C18.9641 19.9746 18.9641 20.3615 18.5356 20.3615C18.1074 20.3615 18.1074 19.9746 17.6793 19.9746C17.4259 19.9746 17.3219 20.1096 17.1909 20.2202C17.5354 20.5476 17.9746 20.8114 18.5373 20.952C19.0996 20.8115 19.5385 20.548 19.8828 20.221Z" fill="#41479B"/>
<path d="M19.391 16.4038C18.9625 16.4038 18.9625 16.7907 18.5339 16.7907C18.1057 16.7907 18.1057 16.4038 17.6776 16.4038C17.2495 16.4038 17.2495 16.7907 16.8213 16.7907C16.3931 16.7907 16.3931 16.4038 15.9648 16.4038C15.9648 16.6478 15.9648 16.8598 15.9648 16.9971C15.9648 17.0305 15.9656 17.0717 15.9672 17.1182C16.3928 17.1199 16.394 17.5048 16.8213 17.5048C17.2494 17.5048 17.2494 17.1179 17.6776 17.1179C18.1058 17.1179 18.1058 17.5048 18.5339 17.5048C18.9625 17.5048 18.9625 17.1179 19.391 17.1179C19.8199 17.1179 19.8199 17.5048 20.2488 17.5048C20.6767 17.5048 20.6779 17.1199 21.1041 17.1182C21.1057 17.0717 21.1065 17.0305 21.1065 16.9971C21.1065 16.8597 21.1065 16.6478 21.1065 16.4038C20.6776 16.4038 20.6776 16.7907 20.2488 16.7907C19.8199 16.7906 19.8199 16.4038 19.391 16.4038Z" fill="#F5F5F5"/>
<path d="M20.9086 14.4262C21.0178 14.4262 21.1063 14.5147 21.1063 14.624V16.4037V16.7993C21.1063 16.8742 21.1063 16.9427 21.1063 16.997C21.1063 17.0305 21.1056 17.0717 21.1039 17.1182C21.098 17.2892 21.0784 17.543 21.0282 17.8412C20.9885 18.0774 20.9292 18.3409 20.842 18.6133C20.7331 18.9528 20.5804 19.305 20.367 19.6335C20.2312 19.8425 20.0704 20.0413 19.881 20.2211C19.5367 20.548 19.0978 20.8115 18.5355 20.9521C17.9728 20.8114 17.5336 20.5475 17.1891 20.2203C17.0002 20.0407 16.8397 19.8423 16.7041 19.6336C16.4908 19.3052 16.338 18.9531 16.2291 18.6136C16.1418 18.3411 16.0825 18.0775 16.0427 17.8412C15.9926 17.543 15.973 17.2892 15.967 17.1182C15.9654 17.0717 15.9646 17.0305 15.9646 16.997C15.9646 16.9427 15.9646 16.8742 15.9646 16.7993V16.4037V14.624C15.9646 14.5147 16.0532 14.4262 16.1624 14.4262H20.9086ZM20.9086 14.2778H16.1625C15.9717 14.2778 15.8164 14.4331 15.8164 14.6239V16.4037V16.7992V16.997C15.8164 17.0319 15.8172 17.0748 15.8189 17.1233C15.8245 17.2847 15.8425 17.5445 15.8965 17.8658C15.9425 18.1393 16.0069 18.4061 16.088 18.6588C16.2133 19.0498 16.3788 19.405 16.5798 19.7143C16.7278 19.9422 16.8984 20.1485 17.0869 20.3277C17.4803 20.7014 17.9555 20.9599 18.4995 21.0959L18.5355 21.1049L18.5714 21.0959C19.115 20.96 19.59 20.7018 19.9831 20.3285C20.1721 20.1491 20.3431 19.9424 20.4913 19.7142C20.6923 19.4047 20.8578 19.0495 20.9832 18.6584C21.0641 18.4059 21.1285 18.1392 21.1745 17.8658C21.2285 17.5445 21.2465 17.2846 21.2521 17.1233C21.2538 17.0748 21.2546 17.0318 21.2546 16.9969V16.7992V16.4036V14.6239C21.2547 14.4331 21.0994 14.2778 20.9086 14.2778Z" fill="#F5F5F5"/>
<path d="M18.5376 19.7561L17.995 20.1337L18.1864 19.5009L17.6597 19.1016L18.3206 19.0881L18.5376 18.4636L18.7548 19.0881L19.4156 19.1016L18.8889 19.5009L19.0803 20.1337L18.5376 19.7561Z" fill="#73AF00"/>
<path d="M18.5375 18.5858L18.7258 19.1277L19.2994 19.1394L18.8423 19.486L19.0084 20.0351L18.5375 19.7074L18.0666 20.0351L18.2327 19.486L17.7755 19.1394L18.3491 19.1277L18.5375 18.5858ZM18.5375 18.3418L18.4618 18.5595L18.2918 19.0487L17.7739 19.0593L17.5435 19.0639L17.7271 19.2032L18.1398 19.5161L17.9898 20.0119L17.9231 20.2325L18.1123 20.1008L18.5374 19.805L18.9626 20.1008L19.1518 20.2325L19.085 20.0119L18.935 19.5161L19.3478 19.2032L19.5314 19.0639L19.301 19.0593L18.7831 19.0487L18.613 18.5595L18.5375 18.3418Z" fill="#FFE15A"/>
<path d="M17.3457 18.2138L16.8031 18.5914L16.9945 17.9586L16.4678 17.5592L17.1287 17.5458L17.3457 16.9213L17.5629 17.5458L18.2237 17.5592L17.697 17.9586L17.8884 18.5914L17.3457 18.2138Z" fill="#73AF00"/>
<path d="M17.3456 17.0432L17.5339 17.5851L18.1075 17.5969L17.6504 17.9434L17.8165 18.4926L17.3456 18.1649L16.8747 18.4926L17.0408 17.9434L16.5836 17.5969L17.1572 17.5851L17.3456 17.0432ZM17.3456 16.7992L17.2699 17.0169L17.0999 17.5061L16.582 17.5167L16.3516 17.5213L16.5352 17.6606L16.9479 17.9735L16.7979 18.4693L16.7312 18.6899L16.9204 18.5582L17.3455 18.2624L17.7707 18.5582L17.9599 18.6899L17.8931 18.4693L17.7431 17.9735L18.1559 17.6606L18.3395 17.5213L18.1091 17.5167L17.5912 17.5061L17.4211 17.0169L17.3456 16.7992Z" fill="#FFE15A"/>
<path d="M19.7188 18.2138L19.1762 18.5914L19.3676 17.9586L18.8408 17.5592L19.5017 17.5458L19.7188 16.9213L19.936 17.5458L20.5968 17.5592L20.0701 17.9586L20.2615 18.5914L19.7188 18.2138Z" fill="#73AF00"/>
<path d="M19.7206 17.0431L19.9089 17.585L20.4825 17.5967L20.0254 17.9433L20.1915 18.4925L19.7206 18.1648L19.2497 18.4925L19.4158 17.9433L18.9586 17.5967L19.5322 17.585L19.7206 17.0431ZM19.7206 16.7991L19.6449 17.0168L19.4749 17.506L18.957 17.5165L18.7266 17.5212L18.9102 17.6605L19.3229 17.9734L19.1729 18.4692L19.1062 18.6898L19.2954 18.5581L19.7205 18.2623L20.1457 18.5581L20.3349 18.6898L20.2681 18.4692L20.1181 17.9734L20.5309 17.6605L20.7145 17.5212L20.4841 17.5165L19.9662 17.506L19.7961 17.0168L19.7206 16.7991Z" fill="#FFE15A"/>
<path d="M21.6673 19.0118C21.1765 20.2614 19.9611 21.1497 18.5395 21.1497C17.1179 21.1497 15.9024 20.2614 15.4117 19.0118L14.6758 19.2998C15.282 20.8434 16.7834 21.9408 18.5395 21.9408C20.2956 21.9408 21.797 20.8434 22.4032 19.2998L21.6673 19.0118Z" fill="#FFE15A"/>
<path d="M18.9316 14.4261H18.3384L18.1406 13.8328H18.7339L18.9316 14.4261Z" fill="#F5F5F5"/>
<path d="M19.9205 14.426H19.5249L19.3931 14.0305H19.5736C19.702 14.0305 19.816 14.1127 19.8566 14.2345L19.9205 14.426Z" fill="#F5F5F5"/>
<path d="M17.7449 14.426H17.3493L17.3043 14.2908C17.2615 14.1628 17.3569 14.0305 17.4918 14.0305H17.613L17.7449 14.426Z" fill="#F5F5F5"/>
<path d="M19.5303 14.4263H18.937L18.7393 13.833H19.19C19.2751 13.833 19.3507 13.8875 19.3776 13.9682L19.5303 14.4263Z" fill="#41479B"/>
<path d="M18.3438 14.4263H17.7506L17.617 14.0255C17.5854 13.9308 17.6559 13.833 17.7558 13.833H18.1461L18.3438 14.4263Z" fill="#41479B"/>
<path d="M19.9895 13.0543C19.835 13.2768 19.4024 13.5425 18.6979 13.5425C18.1175 13.5425 17.7441 13.192 17.6195 13.0538C17.5891 13.0202 17.5732 12.9772 17.5732 12.9319V12.797C17.5732 12.739 17.6033 12.6861 17.6535 12.6569C17.7791 12.5839 18.0694 12.4673 18.6424 12.4673C19.353 12.4672 19.9895 13.0543 19.9895 13.0543Z" fill="#509664"/>
<path d="M4.41711 0.00219727H-0.00390625V0.93861L4.41711 3.83513V0.00219727Z" fill="#41479B"/>
<path d="M-0.00390625 3.20374V4.42327H1.85748L-0.00390625 3.20374Z" fill="#41479B"/>
<path d="M-0.00390625 7.58105V8.80059L1.85748 7.58105H-0.00390625Z" fill="#41479B"/>
<path d="M11.9957 0.93861V0.00219727H7.57471V3.83513L11.9957 0.93861Z" fill="#41479B"/>
<path d="M11.9957 8.80059V7.58105H10.1343L11.9957 8.80059Z" fill="#41479B"/>
<path d="M7.57471 8.16919V12.0021H11.9957V11.0657L7.57471 8.16919Z" fill="#41479B"/>
<path d="M11.9957 4.42327V3.20374L10.1343 4.42327H11.9957Z" fill="#41479B"/>
<path d="M-0.00390625 11.0657V12.0021H4.41711V8.16919L-0.00390625 11.0657Z" fill="#41479B"/>
<path d="M11.9959 11.0657V10.1299L8.06933 7.58105H9.22938L11.9959 9.37686V8.80059L10.1345 7.58105H11.9959V6.94946H6.94336V12.0021H7.5749V8.16914L11.9959 11.0657Z" fill="#F5F5F5"/>
<path d="M-0.00390625 6.94946V7.58105H1.85748L-0.00390625 8.80059V9.68656L3.23967 7.58105H4.39972L-0.00390625 10.4396V11.0657L4.41711 8.16914V12.0021H5.04865V6.94946H-0.00390625Z" fill="#F5F5F5"/>
<path d="M5.04865 0.00219727H4.41711V3.83513L-0.00390625 0.93861V1.96338L3.78553 4.42322H2.62547L-0.00390625 2.71642V3.20368L1.85748 4.42322H-0.00390625V5.0548H5.04865V0.00219727Z" fill="#F5F5F5"/>
<path d="M11.9959 5.0548V4.42322H10.1345L11.9959 3.20368V2.30641L8.73495 4.42322H7.5749L11.9959 1.55342V0.93861L7.5749 3.83513V0.00219727H6.94336V5.0548H11.9959Z" fill="#F5F5F5"/>
<path d="M11.996 6.94947V5.0548H6.94342V0.00219727H5.04865V5.0548H-0.00390625V6.94947H5.04865V12.0021H6.94342V6.94947H11.996Z" fill="#FF4B55"/>
<path d="M3.23967 7.58105L-0.00390625 9.68657V10.4396L4.39972 7.58105H3.23967Z" fill="#FF4B55"/>
<path d="M8.06934 7.58105L11.9959 10.1299V9.37687L9.22939 7.58105H8.06934Z" fill="#FF4B55"/>
<path d="M3.78553 4.42321L-0.00390625 1.96338V2.71642L2.62547 4.42321H3.78553Z" fill="#FF4B55"/>
<path d="M8.73476 4.42327L11.9957 2.30646V1.55347L7.57471 4.42327H8.73476Z" fill="#FF4B55"/>
</g>
<defs>
<clipPath id="clip0_8615_27632">
<path d="M0 2C0 0.895432 0.895431 0 2 0H21.9998C23.1043 0 23.9998 0.895431 23.9998 2V21.9998C23.9998 23.1043 23.1043 23.9998 21.9998 23.9998H2C0.895432 23.9998 0 23.1043 0 21.9998V2Z" fill="white"/>
</clipPath>
</defs>
</svg>
