<svg width="24" height="24" viewBox="0 0 24 24" fill="none" xmlns="http://www.w3.org/2000/svg">
<g clip-path="url(#clip0_8615_27630)">
<path d="M23.9973 17.9999H-0.00244141V23.9998H23.9973V17.9999Z" fill="#FFE15A"/>
<path d="M23.9973 12H-0.00244141V17.9999H23.9973V12Z" fill="#73AF00"/>
<path d="M23.9973 6H-0.00244141V11.9999H23.9973V6Z" fill="#F5F5F5"/>
<path d="M23.9973 0H-0.00244141V5.99994H23.9973V0Z" fill="#41479B"/>
<path d="M14.9975 0H8.99756V23.9998H14.9975V0Z" fill="#FF4B55"/>
<path d="M4.26605 0.80838L4.79306 2.38852L6.45874 2.40141C6.58779 2.4024 6.64132 2.56711 6.53749 2.64375L5.19754 3.63327L5.69999 5.22143C5.73889 5.34448 5.59883 5.44624 5.49383 5.37119L4.13869 4.40258L2.78355 5.37119C2.67855 5.44624 2.53849 5.34448 2.57739 5.22143L3.07979 3.63327L1.73984 2.64375C1.63601 2.56711 1.68954 2.4024 1.81859 2.40141L3.48427 2.38852L4.01128 0.80838C4.05206 0.685944 4.22522 0.685944 4.26605 0.80838Z" fill="#FFE15A"/>
</g>
<defs>
<clipPath id="clip0_8615_27630">
<path d="M0 2C0 0.895432 0.895431 0 2 0H21.9998C23.1043 0 23.9998 0.895431 23.9998 2V21.9998C23.9998 23.1043 23.1043 23.9998 21.9998 23.9998H2C0.895432 23.9998 0 23.1043 0 21.9998V2Z" fill="white"/>
</clipPath>
</defs>
</svg>
