<svg width="24" height="24" viewBox="0 0 24 24" fill="none" xmlns="http://www.w3.org/2000/svg">
<g clip-path="url(#clip0_8615_27652)">
<path d="M23.9974 0.0012207H0V23.9986H23.9974V0.0012207Z" fill="#F5F5F5"/>
<path d="M11.9959 11.9999V0.0012207H0.410994C0.310354 0.0012207 0.221574 0.062767 0.149902 0.153891L11.9959 11.9999Z" fill="#464655"/>
<path d="M23.9923 0.0012207L11.9961 11.9999H23.9948L23.9923 0.0012207Z" fill="#464655"/>
<path d="M-0.00488281 23.9987L11.9962 12H-0.00244534L-0.00488281 23.9987Z" fill="#464655"/>
<path d="M11.9961 12V23.9987H23.9923L11.9961 12Z" fill="#464655"/>
<path d="M13.5143 11.1159V13.1368C13.5143 13.9725 12.8344 14.6524 11.9987 14.6524C11.163 14.6524 10.483 13.9725 10.483 13.1368V11.1159H13.5143ZM14.0195 10.1055H9.97787C9.69887 10.1055 9.47266 10.3317 9.47266 10.6107V13.1368C9.47266 14.5318 10.6036 15.6628 11.9987 15.6628C13.3938 15.6628 14.5247 14.5318 14.5247 13.1368V10.6107C14.5247 10.3317 14.2985 10.1055 14.0195 10.1055Z" fill="#FF4B55"/>
<path d="M13.5142 11.1158V13.1367C13.5142 13.9724 12.8343 14.6523 11.9986 14.6523C11.1628 14.6523 10.4829 13.9724 10.4829 13.1367V11.1158H13.5142Z" fill="#F5F5F5"/>
<path d="M10.1779 10.4492C10.3445 10.7055 10.0709 10.979 9.81473 10.8124C9.79879 10.802 9.78496 10.7882 9.7746 10.7723C9.60801 10.516 9.88152 10.2425 10.1377 10.4091C10.1537 10.4195 10.1675 10.4333 10.1779 10.4492Z" fill="#FFE15A"/>
<path d="M14.2194 10.4492C14.386 10.7055 14.1124 10.979 13.8562 10.8124C13.8403 10.802 13.8265 10.7882 13.8161 10.7723C13.6495 10.516 13.923 10.2425 14.1792 10.4091C14.1952 10.4195 14.209 10.4333 14.2194 10.4492Z" fill="#FFE15A"/>
<path d="M10.1779 12.4701C10.3445 12.7263 10.0709 12.9999 9.81473 12.8333C9.79879 12.8229 9.78496 12.8091 9.7746 12.7931C9.60801 12.5369 9.88152 12.2634 10.1377 12.43C10.1537 12.4404 10.1675 12.4542 10.1779 12.4701Z" fill="#FFE15A"/>
<path d="M14.2194 12.4701C14.386 12.7263 14.1124 12.9999 13.8562 12.8333C13.8403 12.8229 13.8265 12.8091 13.8161 12.7931C13.6495 12.5369 13.923 12.2634 14.1792 12.43C14.1952 12.4404 14.209 12.4542 14.2194 12.4701Z" fill="#FFE15A"/>
<path d="M12.1989 10.4492C12.3655 10.7055 12.0919 10.979 11.8357 10.8124C11.8198 10.802 11.806 10.7882 11.7956 10.7723C11.629 10.516 11.9025 10.2425 12.1587 10.4091C12.1747 10.4195 12.1885 10.4333 12.1989 10.4492Z" fill="#FFE15A"/>
<path d="M12.1989 15.0159C12.3655 15.2721 12.0919 15.5456 11.8357 15.379C11.8198 15.3687 11.806 15.3549 11.7956 15.3389C11.629 15.0827 11.9025 14.8092 12.1587 14.9758C12.1747 14.9862 12.1885 15 12.1989 15.0159Z" fill="#FFE15A"/>
<path d="M13.7155 14.333C13.8821 14.5893 13.6085 14.8628 13.3523 14.6962C13.3364 14.6858 13.3226 14.672 13.3122 14.6561C13.1456 14.3998 13.4191 14.1263 13.6753 14.2929C13.6913 14.3033 13.7051 14.3171 13.7155 14.333Z" fill="#FFE15A"/>
<path d="M10.712 14.333C10.8786 14.5893 10.6051 14.8628 10.3489 14.6962C10.333 14.6858 10.3191 14.672 10.3088 14.6561C10.1422 14.3998 10.4157 14.1263 10.6719 14.2929C10.6879 14.3033 10.7017 14.3171 10.712 14.333Z" fill="#FFE15A"/>
<path d="M12.3214 12.5034V12.9385C12.3214 13.1184 12.1751 13.2647 11.9952 13.2647C11.8153 13.2647 11.6689 13.1183 11.6689 12.9385V12.5034H12.3214Z" fill="#41479B"/>
<path d="M12.3214 11.4719V11.907C12.3214 12.0869 12.1751 12.2332 11.9952 12.2332C11.8153 12.2332 11.6689 12.0868 11.6689 11.907V11.4719H12.3214Z" fill="#41479B"/>
<path d="M12.3214 13.5454V13.9805C12.3214 14.1604 12.1751 14.3067 11.9952 14.3067C11.8153 14.3067 11.6689 14.1603 11.6689 13.9805V13.5454H12.3214Z" fill="#41479B"/>
<path d="M13.2003 12.5034V12.9385C13.2003 13.1184 13.054 13.2647 12.8741 13.2647C12.6942 13.2647 12.5479 13.1183 12.5479 12.9385V12.5034H13.2003Z" fill="#41479B"/>
<path d="M11.4425 12.5034V12.9385C11.4425 13.1184 11.2961 13.2647 11.1163 13.2647C10.9363 13.2647 10.79 13.1183 10.79 12.9385V12.5034H11.4425Z" fill="#41479B"/>
<path d="M14.565 10.1054H9.45724C9.35979 10.1054 9.28076 10.0263 9.28076 9.92889V9.50168C9.28076 9.40423 9.35979 9.3252 9.45724 9.3252H14.565C14.6625 9.3252 14.7415 9.40423 14.7415 9.50168V9.92889C14.7415 10.0264 14.6624 10.1054 14.565 10.1054Z" fill="#FFE15A"/>
<path d="M12.0111 9.52039L11.6211 9.71543L12.0111 9.91048L12.4012 9.71543L12.0111 9.52039Z" fill="#FF4B55"/>
<path d="M13.2769 9.91035C13.4384 9.91035 13.5694 9.82303 13.5694 9.71531C13.5694 9.60759 13.4384 9.52026 13.2769 9.52026C13.1153 9.52026 12.9844 9.60759 12.9844 9.71531C12.9844 9.82303 13.1153 9.91035 13.2769 9.91035Z" fill="#4173CD"/>
<path d="M10.7417 9.91035C10.9033 9.91035 11.0342 9.82303 11.0342 9.71531C11.0342 9.60759 10.9033 9.52026 10.7417 9.52026C10.5802 9.52026 10.4492 9.60759 10.4492 9.71531C10.4492 9.82303 10.5802 9.91035 10.7417 9.91035Z" fill="#4173CD"/>
<path d="M12.7715 9.65527C12.8324 9.75282 12.7296 9.85557 12.6321 9.79468C12.6245 9.78994 12.6177 9.78319 12.613 9.7756C12.5521 9.67805 12.6549 9.57531 12.7524 9.6362C12.76 9.64093 12.7668 9.64768 12.7715 9.65527Z" fill="#F5F5F5"/>
<path d="M13.9414 9.65527C14.0023 9.75282 13.8995 9.85557 13.802 9.79468C13.7944 9.78994 13.7877 9.78319 13.7829 9.7756C13.722 9.67805 13.8248 9.57531 13.9223 9.6362C13.9299 9.64093 13.9367 9.64768 13.9414 9.65527Z" fill="#F5F5F5"/>
<path d="M11.4063 9.65527C11.4671 9.75282 11.3644 9.85557 11.2668 9.79468C11.2593 9.78994 11.2525 9.78319 11.2478 9.7756C11.1869 9.67805 11.2896 9.57531 11.3872 9.6362C11.3948 9.64093 11.4015 9.64768 11.4063 9.65527Z" fill="#F5F5F5"/>
<path d="M10.2363 9.65527C10.2972 9.75282 10.1945 9.85557 10.0969 9.79468C10.0893 9.78994 10.0826 9.78319 10.0778 9.7756C10.017 9.67805 10.1197 9.57531 10.2173 9.6362C10.2248 9.64093 10.2316 9.64768 10.2363 9.65527Z" fill="#F5F5F5"/>
<path d="M9.28027 9.61805V9.8131L9.47527 9.9106L9.86536 9.71555L9.47527 9.52051L9.28027 9.61805Z" fill="#FF4B55"/>
<path d="M14.7413 9.8131V9.61805L14.5463 9.52051L14.1562 9.71555L14.5463 9.9106L14.7413 9.8131Z" fill="#FF4B55"/>
<path d="M10.7117 8.05689C10.6495 8.02624 10.5755 8.04513 10.5133 8.09327C10.5452 8.04597 10.5636 7.98293 10.5601 7.91426C10.553 7.77476 10.46 7.6661 10.3524 7.67159C10.2449 7.67707 10.1634 7.79458 10.1705 7.93404C10.1743 8.00819 10.2032 8.07194 10.2448 8.11619C10.1608 8.07518 10.0689 8.07921 10.0128 8.13536C9.93666 8.21149 9.95499 8.35338 10.0538 8.45209C10.1525 8.55091 10.2943 8.56923 10.3705 8.49306C10.3918 8.47178 10.4039 8.44487 10.4108 8.41572C10.4263 8.4565 10.4502 8.49189 10.4882 8.51064C10.5848 8.55826 10.7132 8.49527 10.7749 8.36997C10.8367 8.24467 10.8084 8.10447 10.7117 8.05689ZM10.425 8.19757C10.4107 8.22658 10.4023 8.25639 10.3974 8.28569C10.3829 8.2472 10.3624 8.20933 10.3295 8.17638C10.3238 8.17066 10.3169 8.16799 10.311 8.16278C10.3323 8.17164 10.3546 8.17797 10.3782 8.1768C10.4098 8.17516 10.4378 8.16175 10.4633 8.14314C10.4497 8.1603 10.4353 8.17661 10.425 8.19757Z" fill="#F5F5F5"/>
<path d="M13.2192 8.36997C13.2809 8.49527 13.4093 8.55826 13.5059 8.51064C13.5439 8.49194 13.5678 8.4565 13.5834 8.41572C13.5902 8.44487 13.6024 8.47178 13.6236 8.49306C13.6998 8.56923 13.8417 8.55091 13.9404 8.45209C14.0391 8.35333 14.0575 8.21153 13.9813 8.13536C13.9251 8.07916 13.8333 8.07518 13.7493 8.11619C13.7908 8.07199 13.8198 8.00819 13.8236 7.93404C13.8306 7.79454 13.7492 7.67702 13.6416 7.67159C13.5341 7.6661 13.4411 7.77476 13.434 7.91426C13.4305 7.98293 13.4488 8.04597 13.4808 8.09327C13.4185 8.04508 13.3446 8.02624 13.2824 8.05689C13.1857 8.10447 13.1575 8.24467 13.2192 8.36997ZM13.5309 8.1431C13.5564 8.16171 13.5844 8.17516 13.616 8.17675C13.6395 8.17792 13.6618 8.1716 13.6832 8.16274C13.6772 8.16789 13.6703 8.17061 13.6647 8.17633C13.6317 8.20928 13.6113 8.24721 13.5967 8.28564C13.5918 8.25635 13.5835 8.22653 13.5691 8.19752C13.5588 8.17661 13.5444 8.1603 13.5309 8.1431Z" fill="#F5F5F5"/>
<path d="M15.5576 7.4838C15.2767 7.38382 14.6857 7.33029 14.4607 7.84089C14.4173 7.93956 14.4619 8.05459 14.5605 8.098C14.6558 8.14004 14.7654 8.09842 14.8119 8.00631L14.8854 8.0934C14.8239 8.26628 14.7992 8.42087 14.7923 8.47412C14.6919 8.89008 14.3058 8.93522 14.1435 8.93522C13.8817 8.93522 13.7337 8.65473 13.7323 8.65187C13.7056 8.60026 13.6569 8.56271 13.6 8.55034C13.543 8.53796 13.4834 8.55109 13.4377 8.5869C13.3309 8.6709 12.9985 8.89772 12.7476 8.93771C12.6267 8.95711 12.528 8.93696 12.4614 8.87982C12.4074 8.83374 12.3883 8.7758 12.3883 8.74018C12.3883 8.65276 12.4958 8.54513 12.5833 8.54513C12.6496 8.54513 12.675 8.5876 12.675 8.5876C12.7213 8.68552 12.8377 8.72682 12.9349 8.68093C13.0323 8.63466 13.0738 8.51846 13.0278 8.42115C12.9899 8.34114 12.8856 8.21776 12.7145 8.17314C12.8185 8.008 12.9141 7.80738 12.9734 7.57005L12.3883 7.375C12.3883 7.375 12.5833 6.78992 11.9983 6.78992C11.4132 6.78992 11.6082 7.375 11.6082 7.375L11.0231 7.57005C11.0825 7.80733 11.178 8.00805 11.2821 8.17314C11.1108 8.21781 11.0066 8.34118 10.9688 8.42115C10.9227 8.51846 10.9642 8.63466 11.0616 8.68093C11.1588 8.72682 11.2752 8.68552 11.3213 8.58798C11.3213 8.58798 11.3469 8.54513 11.4132 8.54513C11.5007 8.54513 11.6083 8.65276 11.6083 8.74018C11.6083 8.7758 11.5891 8.83369 11.5351 8.87982C11.4685 8.93696 11.3698 8.95716 11.2489 8.93771C10.9981 8.89772 10.6657 8.6709 10.5588 8.5869C10.5131 8.55109 10.4536 8.53796 10.3965 8.55034C10.3396 8.56271 10.2909 8.60026 10.2642 8.65187C10.2628 8.65473 10.1148 8.93522 9.85304 8.93522C9.69076 8.93522 9.30461 8.89008 9.20425 8.47412C9.19736 8.42087 9.17266 8.26623 9.11111 8.0934L9.18466 8.00631C9.23125 8.09842 9.34075 8.14004 9.436 8.098C9.53458 8.05459 9.57925 7.93951 9.5358 7.84089C9.31085 7.33029 8.7199 7.38382 8.43893 7.4838C8.35845 7.51239 8.3059 7.58988 8.30923 7.67524C8.31247 7.76055 8.37097 7.83372 8.45342 7.85598C8.69234 7.92016 8.79954 8.3769 8.81824 8.53173C8.81909 8.53838 8.82035 8.54546 8.82176 8.55212C8.93079 9.02902 9.32599 9.32536 9.853 9.32536C10.1551 9.32536 10.3639 9.15432 10.4851 9.01266C10.656 9.12525 10.9309 9.28214 11.1875 9.32288C11.2367 9.3307 11.2849 9.33469 11.332 9.33469C11.5082 9.33469 11.6667 9.28041 11.7883 9.17658C11.9198 9.06441 11.9983 8.90119 11.9983 8.74027C11.9983 8.90124 12.0768 9.06441 12.2083 9.17658C12.3299 9.28041 12.4884 9.33469 12.6646 9.33469C12.7117 9.33469 12.7599 9.3307 12.8091 9.32288C13.0657 9.2821 13.3407 9.12516 13.5115 9.01266C13.6327 9.15436 13.8415 9.32536 14.1436 9.32536C14.6706 9.32536 15.0658 9.02902 15.1749 8.55212C15.1763 8.54546 15.1775 8.53838 15.1784 8.53173C15.197 8.37685 15.3043 7.92016 15.5432 7.85598C15.6256 7.83372 15.6841 7.76055 15.6874 7.67524C15.6907 7.58992 15.6381 7.51239 15.5576 7.4838Z" fill="#FFE15A"/>
<path d="M8.61379 7.88532C8.51429 7.92658 8.4838 8.081 8.54568 8.23022C8.60757 8.37943 8.7384 8.46694 8.8379 8.42567C8.9374 8.38441 8.9679 8.22999 8.90601 8.08077C8.84412 7.93156 8.71329 7.84405 8.61379 7.88532Z" fill="#4173CD"/>
<path d="M15.1636 8.42502C15.2631 8.46629 15.3939 8.37878 15.4558 8.22956C15.5177 8.08034 15.4872 7.92593 15.3877 7.88466C15.2882 7.84339 15.1574 7.9309 15.0955 8.08012C15.0336 8.22933 15.0641 8.38375 15.1636 8.42502Z" fill="#4173CD"/>
<path d="M12 8.34991C12.1616 8.34991 12.2925 8.17528 12.2925 7.95987C12.2925 7.74445 12.1616 7.56982 12 7.56982C11.8385 7.56982 11.7075 7.74445 11.7075 7.95987C11.7075 8.17528 11.8385 8.34991 12 8.34991Z" fill="#4173CD"/>
</g>
<defs>
<clipPath id="clip0_8615_27652">
<path d="M0 2C0 0.895428 0.895431 0 2 0H21.9999C23.1044 0 23.9999 0.895431 23.9999 2V21.9999C23.9999 23.1044 23.1044 23.9999 21.9999 23.9999H2C0.895428 23.9999 0 23.1044 0 21.9999V2Z" fill="white"/>
</clipPath>
</defs>
</svg>
