<svg width="24" height="24" viewBox="0 0 24 24" fill="none" xmlns="http://www.w3.org/2000/svg">
<g clip-path="url(#clip0_8615_27627)">
<path d="M23.9968 0H-0.00292969V11.9999H23.9968V0Z" fill="#F5F5F5"/>
<path d="M0.82464 12V11.3684H-0.00292969V12V12.6316V23.9999H23.9968V12H0.82464Z" fill="#FF4B55"/>
<path d="M11.997 0H-0.00292969V11.9999H11.997V0Z" fill="#41479B"/>
<path d="M6.24022 3.30626L6.84233 5.11164L8.74539 5.1264C8.99176 5.12832 9.09395 5.44276 8.89571 5.5891L7.36479 6.71962L7.93886 8.53409C8.01321 8.76902 7.74569 8.96332 7.54526 8.82007L5.99695 7.71345L4.44868 8.82012C4.24824 8.96341 3.98073 8.76907 4.05507 8.53413L4.62915 6.71967L3.09822 5.58915C2.90004 5.44276 3.00218 5.12832 3.24855 5.12645L5.15161 5.11168L5.75371 3.30631C5.83162 3.07255 6.16227 3.07255 6.24022 3.30626Z" fill="#F5F5F5"/>
</g>
<defs>
<clipPath id="clip0_8615_27627">
<path d="M0 2C0 0.895432 0.895431 0 2 0H21.9998C23.1043 0 23.9998 0.895431 23.9998 2V21.9998C23.9998 23.1043 23.1043 23.9998 21.9998 23.9998H2C0.895432 23.9998 0 23.1043 0 21.9998V2Z" fill="white"/>
</clipPath>
</defs>
</svg>
