<svg width="24" height="24" viewBox="0 0 24 24" fill="none" xmlns="http://www.w3.org/2000/svg">
<g clip-path="url(#clip0_8615_27659)">
<path d="M23.9968 0H-0.00292969V23.9998H23.9968V0Z" fill="#FF4B55"/>
<path d="M5.34257 4.08681L5.93891 5.87488L7.82374 5.88951C8.06777 5.89138 8.16897 6.20282 7.97266 6.3478L6.45636 7.46749L7.0249 9.26462C7.0985 9.4973 6.83361 9.68977 6.63505 9.54783L5.10159 8.45177L3.56814 9.54783C3.36963 9.68972 3.10469 9.49725 3.17828 9.26462L3.74682 7.46749L2.23053 6.3478C2.03422 6.20282 2.13542 5.89143 2.37945 5.88951L4.26427 5.87488L4.86061 4.08681C4.93791 3.85534 5.26537 3.85534 5.34257 4.08681Z" fill="#FFE15A"/>
<path d="M12.1871 4.52743L12.6147 5.11055L13.3049 4.89474C13.3942 4.8668 13.4677 4.96866 13.413 5.04464L12.9906 5.63151L13.4091 6.22119C13.4633 6.29755 13.3891 6.39889 13.2999 6.37039L12.6112 6.14999L12.1797 6.7302C12.1239 6.80534 12.0045 6.76611 12.0041 6.6725L12.001 5.94941L11.3158 5.71837C11.2271 5.68846 11.2275 5.56284 11.3164 5.5335L12.0031 5.30705L12.0111 4.58401C12.0122 4.49035 12.1318 4.45191 12.1871 4.52743Z" fill="#FFE15A"/>
<path d="M9.58335 2.78933L10.3022 2.86747L10.6089 2.21263C10.6486 2.12784 10.7734 2.14241 10.7925 2.23405L10.9403 2.94186L11.6579 3.03116C11.7508 3.04273 11.7755 3.16587 11.6943 3.21237L11.0667 3.57167L11.2036 4.28167C11.2213 4.3736 11.1118 4.43519 11.0425 4.37228L10.5068 3.88652L9.87383 4.23607C9.7919 4.2813 9.69951 4.19622 9.73785 4.11082L10.0343 3.45129L9.50624 2.95728C9.4379 2.89334 9.49031 2.77921 9.58335 2.78933Z" fill="#FFE15A"/>
<path d="M10.7197 9.79683L10.2922 10.38L9.60202 10.1641C9.51268 10.1362 9.43918 10.2381 9.49388 10.314L9.91632 10.9009L9.49782 11.4906C9.44363 11.567 9.51779 11.6683 9.60699 11.6398L10.2957 11.4194L10.7272 11.9996C10.783 12.0748 10.9024 12.0355 10.9027 11.9419L10.9059 11.2188L11.5911 10.9878C11.6798 10.9579 11.6794 10.8322 11.5905 10.803L10.9038 10.5765L10.8958 9.85346C10.8947 9.75976 10.7751 9.72132 10.7197 9.79683Z" fill="#FFE15A"/>
<path d="M13.3235 8.16348L12.6047 8.24161L12.298 7.58678C12.2583 7.50198 12.1335 7.51656 12.1144 7.6082L11.9666 8.31601L11.249 8.4053C11.1561 8.41688 11.1314 8.54002 11.2127 8.58652L11.8402 8.94581L11.7034 9.65582C11.6856 9.74774 11.7951 9.80933 11.8645 9.74643L12.4001 9.26067L13.0331 9.61021C13.115 9.65545 13.2074 9.57037 13.1691 9.48496L12.8726 8.82544L13.4007 8.33143C13.469 8.26754 13.4166 8.15335 13.3235 8.16348Z" fill="#FFE15A"/>
</g>
<defs>
<clipPath id="clip0_8615_27659">
<path d="M0 2C0 0.895432 0.895431 0 2 0H21.9998C23.1043 0 23.9998 0.895431 23.9998 2V21.9998C23.9998 23.1043 23.1043 23.9998 21.9998 23.9998H2C0.895432 23.9998 0 23.1043 0 21.9998V2Z" fill="white"/>
</clipPath>
</defs>
</svg>
