<svg width="24" height="24" viewBox="0 0 24 24" fill="none" xmlns="http://www.w3.org/2000/svg">
<g clip-path="url(#clip0_8615_27664)">
<path d="M23.9963 0H-0.00341797V23.9998H23.9963V0Z" fill="#41479B"/>
<path d="M23.9963 23.9998L-0.00341797 0H23.9963V23.9998Z" fill="#73AF00"/>
<path d="M14.8478 9.91663C16.9285 13.3495 13.3459 16.932 9.91309 14.8513C9.59917 14.6611 9.33531 14.3972 9.145 14.0833C7.06433 10.6504 10.6469 7.06787 14.0797 9.14854C14.3937 9.3388 14.6575 9.60266 14.8478 9.91663Z" fill="#FFE15A"/>
<path d="M2.10121 15.3537L2.24483 15.7175L2.6188 15.603C2.63956 15.5966 2.65742 15.619 2.6466 15.6378L2.45174 15.9769L2.77442 16.1979C2.79233 16.2101 2.786 16.238 2.76449 16.2413L2.37786 16.3004L2.40632 16.6904C2.40791 16.7121 2.38213 16.7245 2.36619 16.7097L2.07894 16.4443L1.7917 16.7097C1.77576 16.7245 1.74998 16.7121 1.75157 16.6904L1.78003 16.3004L1.3934 16.2413C1.37194 16.238 1.36556 16.2101 1.38347 16.1979L1.70615 15.9769L1.51129 15.6378C1.50047 15.619 1.51828 15.5966 1.53909 15.603L1.91306 15.7175L2.05668 15.3537C2.0646 15.3334 2.09324 15.3334 2.10121 15.3537Z" fill="#F5F5F5"/>
<path d="M7.33168 14.3731L7.4753 14.7369L7.84927 14.6223C7.87003 14.616 7.88789 14.6383 7.87706 14.6572L7.68221 14.9963L8.00489 15.2172C8.0228 15.2295 8.01647 15.2574 7.99495 15.2607L7.60833 15.3197L7.63679 15.7098C7.63838 15.7314 7.6126 15.7439 7.59666 15.7291L7.30941 15.4636L7.02217 15.7291C7.00623 15.7439 6.98045 15.7314 6.98204 15.7098L7.01049 15.3197L6.62387 15.2607C6.6024 15.2574 6.59603 15.2295 6.61394 15.2172L6.93662 14.9963L6.74176 14.6572C6.73093 14.6383 6.74875 14.616 6.76956 14.6223L7.14352 14.7369L7.28715 14.3731C7.29512 14.3529 7.32371 14.3529 7.33168 14.3731Z" fill="#F5F5F5"/>
<path d="M4.71644 12.0147L4.86007 12.3785L5.23403 12.2639C5.2548 12.2576 5.27266 12.2799 5.26183 12.2988L5.06697 12.6379L5.38966 12.8588C5.40756 12.8711 5.40123 12.899 5.37972 12.9023L4.9931 12.9613L5.02155 13.3514C5.02314 13.373 4.99736 13.3855 4.98143 13.3707L4.69418 13.1052L4.40693 13.3707C4.39099 13.3855 4.36521 13.373 4.36681 13.3514L4.39526 12.9613L4.00864 12.9023C3.98717 12.899 3.9808 12.8711 3.9987 12.8588L4.32139 12.6379L4.12653 12.2988C4.1157 12.2799 4.13351 12.2576 4.15433 12.2639L4.52829 12.3785L4.67191 12.0147C4.67988 11.9945 4.70848 11.9945 4.71644 12.0147Z" fill="#F5F5F5"/>
<path d="M4.71644 20.5839L4.86007 20.9477L5.23403 20.8332C5.2548 20.8268 5.27266 20.8491 5.26183 20.868L5.06697 21.2071L5.38966 21.428C5.40756 21.4403 5.40123 21.4682 5.37972 21.4715L4.9931 21.5306L5.02155 21.9206C5.02314 21.9423 4.99736 21.9547 4.98143 21.9399L4.69418 21.6745L4.40693 21.9399C4.39099 21.9547 4.36521 21.9423 4.36681 21.9206L4.39526 21.5306L4.00864 21.4715C3.98717 21.4682 3.9808 21.4403 3.9987 21.428L4.32139 21.2071L4.12653 20.868C4.1157 20.8491 4.13351 20.8268 4.15433 20.8332L4.52829 20.9477L4.67191 20.5839C4.67988 20.5637 4.70848 20.5637 4.71644 20.5839Z" fill="#F5F5F5"/>
<path d="M5.78691 15.6828L5.88718 15.9834L6.20405 15.9859C6.22861 15.9861 6.23878 16.0174 6.21905 16.032L5.96415 16.2203L6.05972 16.5224C6.06713 16.5458 6.04046 16.5652 6.02049 16.5509L5.76268 16.3666L5.50487 16.5509C5.4849 16.5652 5.45823 16.5458 5.46564 16.5224L5.56121 16.2203L5.30631 16.032C5.28658 16.0174 5.29675 15.9861 5.32131 15.9859L5.63818 15.9834L5.73845 15.6828C5.74623 15.6596 5.77918 15.6596 5.78691 15.6828Z" fill="#F5F5F5"/>
<path d="M9.9396 10.5086C9.7978 10.4755 9.65531 10.8402 9.81323 10.9666C9.97119 11.093 10.2555 11.3299 10.0817 11.4721C9.90796 11.6142 9.84482 11.63 9.81323 11.8037C9.78163 11.9775 9.81323 12.0091 9.67105 12.088C9.52888 12.167 9.1972 12.3249 9.33937 12.4829C9.48154 12.6409 9.67105 12.5461 9.79743 12.2934C9.79743 12.2934 10.6819 12.2618 10.7135 12.325C10.7451 12.3882 10.8241 12.6251 11.0136 12.5619C11.2031 12.4987 11.2031 12.4987 11.2031 12.4987C11.2031 12.4987 11.3137 12.4513 11.3926 12.5461C11.4716 12.6409 11.6611 12.6725 11.8823 12.6725C12.1034 12.6725 12.2929 12.7988 12.2771 13.0989C12.267 13.2912 12.218 13.6909 12.1841 13.9533C12.166 14.0938 12.2623 14.2232 12.4021 14.2465L12.8065 14.3139C12.9129 14.3316 13.0118 14.2557 13.0212 14.1482C13.0402 13.9321 13.0678 13.6156 13.0668 13.6044C13.0577 13.4909 13.2879 12.9094 13.2721 12.6409C13.2563 12.3724 13.2563 12.3724 13.2563 12.3724C13.2563 12.3724 13.4933 12.3408 13.588 12.1829C13.6828 12.0249 13.8881 11.6301 14.2988 11.4879L14.4094 11.2195C14.4094 11.2195 14.0935 11.0773 14.1567 10.9825C14.2199 10.8878 14.2514 10.6351 14.2041 10.4298C14.1567 10.2244 14.1409 9.9401 14.1409 9.9401C14.1409 9.9401 14.0283 9.89253 14.0045 9.95796C13.9807 10.0234 13.9569 10.0591 13.8975 10.0472C13.838 10.0353 13.7488 10.0293 13.725 9.97582C13.7012 9.92229 13.6358 9.86881 13.5764 9.89853C13.5169 9.92825 13.4158 10.3266 13.2731 10.3683C13.2731 10.3683 13.2612 10.1958 13.172 10.2315C13.0829 10.2671 13.0888 10.3504 13.0769 10.499C13.065 10.6477 12.066 11.6526 11.1919 11.385C11.1919 11.385 11.0967 11.1947 10.9005 11.2126C10.7043 11.2304 10.514 11.2245 10.401 11.0877C10.288 10.9509 10.1083 10.5479 9.9396 10.5086Z" fill="#73AF00"/>
<path d="M14.3211 8.47128C14.5097 8.67172 16.5823 9.23609 18.6773 8.13875C20.7722 7.04142 22.0192 6.72549 22.0192 6.72549C22.0192 6.72549 22.0358 6.44283 22.2935 6.40125C22.5513 6.35968 22.4266 6.25163 22.3601 6.16848C22.2935 6.08532 21.9693 5.86088 21.5287 6.05209C21.5287 6.05209 21.0161 6.07149 20.9385 5.36209C20.8609 4.65269 20.8276 3.93223 20.6503 3.62183C20.4729 3.31147 19.0098 1.75964 18.8325 1.88156C18.6551 2.00349 19.2758 3.5442 19.8522 4.08734C19.8522 4.08734 19.9852 5.04058 19.819 5.08492C19.6527 5.12927 18.7327 4.28684 17.0922 4.08734C17.0922 4.08734 17.7906 5.04058 18.6441 5.43962C19.4976 5.83867 19.7303 6.20443 19.7082 6.35963C19.686 6.51483 19.3978 7.25747 18.9212 7.60106C18.4446 7.94469 17.2474 8.87576 14.5318 8.38803C14.5317 8.38813 14.2324 8.37706 14.3211 8.47128Z" fill="#FFE15A"/>
</g>
<defs>
<clipPath id="clip0_8615_27664">
<path d="M0 2C0 0.895432 0.895431 0 2 0H21.9998C23.1043 0 23.9998 0.895431 23.9998 2V21.9998C23.9998 23.1043 23.1043 23.9998 21.9998 23.9998H2C0.895432 23.9998 0 23.1043 0 21.9998V2Z" fill="white"/>
</clipPath>
</defs>
</svg>
