<svg width="24" height="24" viewBox="0 0 24 24" fill="none" xmlns="http://www.w3.org/2000/svg">
<g clip-path="url(#clip0_8615_27644)">
<path d="M24.0037 0H0.00390625V5.99994H24.0037V0Z" fill="#FFE15A"/>
<path d="M24.0037 6H0.00390625V11.9999H24.0037V6Z" fill="#F5F5F5"/>
<path d="M24.0037 12H0.00390625V17.9999H24.0037V12Z" fill="#FF4B55"/>
<path d="M24.0037 17.9999H0.00390625V23.9998H24.0037V17.9999Z" fill="#4173CD"/>
<path d="M0.00390625 23.9998L11.8765 12.3272C12.0462 12.1599 12.0462 11.8399 11.8765 11.6726L0.00390625 0V23.9998Z" fill="#73AF00"/>
<path d="M2.99734 11.9998C2.99734 10.0081 4.29923 8.32285 6.09781 7.74244C6.19236 7.71193 6.17918 7.57388 6.0807 7.56099C5.89559 7.53671 5.70697 7.52368 5.51516 7.52368C3.04309 7.52368 1.03906 9.52771 1.03906 11.9998C1.03906 14.4718 3.04309 16.4759 5.51516 16.4759C5.70697 16.4759 5.89555 16.4628 6.0807 16.4386C6.17923 16.4257 6.19236 16.2876 6.09781 16.2571C4.29928 15.6767 2.99734 13.9915 2.99734 11.9998Z" fill="#F5F5F5"/>
<path d="M6.12042 8.58094L6.24366 8.9504L6.63309 8.9534C6.68353 8.95378 6.70443 9.01814 6.66384 9.04809L6.35053 9.27946L6.468 9.6508C6.48319 9.6989 6.42848 9.73865 6.38747 9.7093L6.07064 9.48285L5.75382 9.7093C5.7128 9.73865 5.65805 9.69885 5.67329 9.6508L5.79076 9.27946L5.47745 9.04809C5.4369 9.01814 5.45781 8.95378 5.5082 8.9534L5.89763 8.9504L6.02086 8.58094C6.03685 8.53308 6.10449 8.53308 6.12042 8.58094Z" fill="#F5F5F5"/>
<path d="M6.12042 10.4532L6.24366 10.8227L6.63309 10.8257C6.68353 10.8261 6.70443 10.8904 6.66384 10.9204L6.35053 11.1517L6.468 11.5231C6.48319 11.5712 6.42848 11.6109 6.38747 11.5816L6.07064 11.3551L5.75382 11.5816C5.7128 11.6109 5.65805 11.5711 5.67329 11.5231L5.79076 11.1517L5.47745 10.9204C5.4369 10.8904 5.45781 10.8261 5.5082 10.8257L5.89763 10.8227L6.02086 10.4532C6.03685 10.4054 6.10449 10.4054 6.12042 10.4532Z" fill="#F5F5F5"/>
<path d="M6.12042 12.3256L6.24366 12.695L6.63309 12.698C6.68353 12.6984 6.70443 12.7628 6.66384 12.7927L6.35053 13.0241L6.468 13.3954C6.48319 13.4435 6.42848 13.4833 6.38747 13.4539L6.07064 13.2275L5.75382 13.4539C5.7128 13.4833 5.65805 13.4435 5.67329 13.3954L5.79076 13.0241L5.47745 12.7927C5.4369 12.7628 5.45781 12.6984 5.5082 12.698L5.89763 12.695L6.02086 12.3256C6.03685 12.2777 6.10449 12.2777 6.12042 12.3256Z" fill="#F5F5F5"/>
<path d="M6.12042 14.1978L6.24366 14.5673L6.63309 14.5703C6.68353 14.5707 6.70443 14.635 6.66384 14.665L6.35053 14.8964L6.468 15.2677C6.48319 15.3158 6.42848 15.3556 6.38747 15.3262L6.07064 15.0998L5.75382 15.3262C5.7128 15.3556 5.65805 15.3158 5.67329 15.2677L5.79076 14.8964L5.47745 14.665C5.4369 14.635 5.45781 14.5707 5.5082 14.5703L5.89763 14.5673L6.02086 14.1978C6.03685 14.15 6.10449 14.15 6.12042 14.1978Z" fill="#F5F5F5"/>
</g>
<defs>
<clipPath id="clip0_8615_27644">
<path d="M0 2C0 0.895432 0.895431 0 2 0H21.9998C23.1043 0 23.9998 0.895431 23.9998 2V21.9998C23.9998 23.1043 23.1043 23.9998 21.9998 23.9998H2C0.895432 23.9998 0 23.1043 0 21.9998V2Z" fill="white"/>
</clipPath>
</defs>
</svg>
