<svg width="24" height="24" viewBox="0 0 24 24" fill="none" xmlns="http://www.w3.org/2000/svg">
<g clip-path="url(#clip0_8615_27623)">
<path d="M24.0066 0H0.00683594V23.9998H24.0066V0Z" fill="#41479B"/>
<path d="M4.42786 0.00219727H0.00683594V0.93861L4.42786 3.83513V0.00219727Z" fill="#41479B"/>
<path d="M0.00683594 3.20374V4.42327H1.86822L0.00683594 3.20374Z" fill="#41479B"/>
<path d="M0.00683594 7.58105V8.80059L1.86822 7.58105H0.00683594Z" fill="#41479B"/>
<path d="M12.007 0.93861V0.00219727H7.58594V3.83513L12.007 0.93861Z" fill="#41479B"/>
<path d="M12.0069 8.80059V7.58105H10.1455L12.0069 8.80059Z" fill="#41479B"/>
<path d="M7.58594 8.16919V12.0021H12.007V11.0657L7.58594 8.16919Z" fill="#41479B"/>
<path d="M12.0069 4.42327V3.20374L10.1455 4.42327H12.0069Z" fill="#41479B"/>
<path d="M0.00683594 11.0657V12.0021H4.42786V8.16919L0.00683594 11.0657Z" fill="#41479B"/>
<path d="M12.0067 11.0657V10.1299L8.08007 7.58105H9.24013L12.0067 9.37686V8.80059L10.1453 7.58105H12.0067V6.94946H6.9541V12.0021H7.58564V8.16914L12.0067 11.0657Z" fill="#F5F5F5"/>
<path d="M0.00683594 6.94946V7.58105H1.86822L0.00683594 8.80059V9.68656L3.25041 7.58105H4.41046L0.00683594 10.4396V11.0657L4.42786 8.16914V12.0021H5.0594V6.94946H0.00683594Z" fill="#F5F5F5"/>
<path d="M5.0594 0.00219727H4.42786V3.83513L0.00683594 0.93861V1.96338L3.79627 4.42322H2.63622L0.00683594 2.71642V3.20368L1.86822 4.42322H0.00683594V5.0548H5.0594V0.00219727Z" fill="#F5F5F5"/>
<path d="M12.0067 5.0548V4.42322H10.1453L12.0067 3.20368V2.30641L8.74569 4.42322H7.58564L12.0067 1.55342V0.93861L7.58564 3.83513V0.00219727H6.9541V5.0548H12.0067Z" fill="#F5F5F5"/>
<path d="M12.0067 6.94947V5.0548H6.95416V0.00219727H5.0594V5.0548H0.00683594V6.94947H5.0594V12.0021H6.95416V6.94947H12.0067Z" fill="#FF4B55"/>
<path d="M3.25041 7.58105L0.00683594 9.68657V10.4396L4.41046 7.58105H3.25041Z" fill="#FF4B55"/>
<path d="M8.08008 7.58105L12.0067 10.1299V9.37687L9.24013 7.58105H8.08008Z" fill="#FF4B55"/>
<path d="M3.79627 4.42321L0.00683594 1.96338V2.71642L2.63622 4.42321H3.79627Z" fill="#FF4B55"/>
<path d="M8.74599 4.42327L12.007 2.30646V1.55347L7.58594 4.42327H8.74599Z" fill="#FF4B55"/>
<path d="M17.1667 11.3248L17.3283 11.8092L17.839 11.8131C17.8785 11.8135 17.8949 11.864 17.8631 11.8874L17.4523 12.1908L17.6063 12.6777C17.6183 12.7154 17.5753 12.7466 17.5431 12.7236L17.1277 12.4267L16.7122 12.7236C16.68 12.7466 16.6371 12.7154 16.6491 12.6777L16.8031 12.1908L16.3923 11.8874C16.3605 11.864 16.3769 11.8134 16.4164 11.8131L16.9271 11.8092L17.0887 11.3248C17.1011 11.2873 17.1542 11.2873 17.1667 11.3248Z" fill="#F5F5F5"/>
<path d="M14.9953 11.9206L15.34 12.2975L15.8081 12.0934C15.8444 12.0776 15.8799 12.117 15.8604 12.1515L15.6085 12.5957L15.9473 12.9779C15.9735 13.0075 15.947 13.0534 15.9082 13.0455L15.4079 12.9432L15.1491 13.3835C15.1291 13.4176 15.0772 13.4066 15.0727 13.3673L15.0154 12.8598L14.5167 12.7498C14.4781 12.7412 14.4725 12.6885 14.5085 12.6721L14.9734 12.4607L14.924 11.9524C14.9201 11.913 14.9686 11.8914 14.9953 11.9206Z" fill="#F5F5F5"/>
<path d="M13.2541 13.3482L13.7222 13.5522L14.0669 13.1754C14.0936 13.1462 14.1421 13.1678 14.1383 13.2072L14.0888 13.7155L14.5537 13.9268C14.5897 13.9431 14.5842 13.996 14.5456 14.0045L14.0469 14.1146L13.9896 14.622C13.9851 14.6613 13.9332 14.6724 13.9132 14.6382L13.6544 14.1979L13.1541 14.3002C13.1153 14.3081 13.0888 14.2622 13.115 14.2326L13.4538 13.8504L13.2018 13.4062C13.1823 13.3718 13.2178 13.3324 13.2541 13.3482Z" fill="#F5F5F5"/>
<path d="M12.2435 15.3605L12.7542 15.3566L12.9158 14.8722C12.9283 14.8346 12.9814 14.8346 12.9939 14.8722L13.1555 15.3566L13.6662 15.3605C13.7058 15.3609 13.7222 15.4114 13.6904 15.4348L13.2796 15.7382L13.4336 16.2251C13.4455 16.2628 13.4026 16.294 13.3704 16.271L12.9549 15.9741L12.5395 16.271C12.5073 16.294 12.4644 16.2628 12.4763 16.2251L12.6303 15.7382L12.2195 15.4348C12.1876 15.4114 12.204 15.3608 12.2435 15.3605Z" fill="#F5F5F5"/>
<path d="M12.1394 17.6099L12.6043 17.3986L12.5548 16.8903C12.551 16.8509 12.5995 16.8293 12.6262 16.8585L12.9709 17.2354L13.439 17.0313C13.4753 17.0155 13.5108 17.0549 13.4913 17.0893L13.2394 17.5336L13.5781 17.9157C13.6044 17.9454 13.5779 17.9913 13.5391 17.9834L13.0388 17.8811L12.78 18.3214C12.7599 18.3555 12.7081 18.3444 12.7036 18.3051L12.6463 17.7977L12.1476 17.6876C12.1089 17.679 12.1034 17.6262 12.1394 17.6099Z" fill="#F5F5F5"/>
<path d="M12.9588 19.7071L13.2975 19.3249L13.0456 18.8807C13.0261 18.8463 13.0616 18.8068 13.0979 18.8226L13.566 19.0267L13.9107 18.6499C13.9374 18.6207 13.9859 18.6423 13.9821 18.6816L13.9326 19.1899L14.3975 19.4013C14.4335 19.4176 14.428 19.4704 14.3894 19.479L13.8907 19.589L13.8334 20.0965C13.8289 20.1358 13.777 20.1468 13.7569 20.1128L13.4982 19.6725L12.9979 19.7748C12.959 19.7827 12.9325 19.7367 12.9588 19.7071Z" fill="#F5F5F5"/>
<path d="M14.5607 21.2898L14.7147 20.8029L14.3039 20.4995C14.2721 20.476 14.2885 20.4255 14.328 20.4252L14.8387 20.4213L15.0003 19.9369C15.0128 19.8993 15.0659 19.8993 15.0785 19.9369L15.24 20.4213L15.7507 20.4252C15.7903 20.4256 15.8067 20.476 15.7749 20.4995L15.3641 20.8029L15.518 21.2898C15.53 21.3275 15.487 21.3587 15.4549 21.3357L15.0394 21.0388L14.624 21.3357C14.5917 21.3587 14.5487 21.3275 14.5607 21.2898Z" fill="#F5F5F5"/>
<path d="M16.6674 22.0841L16.6101 21.5766L16.1114 21.4665C16.0728 21.458 16.0672 21.4052 16.1033 21.3888L16.5682 21.1775L16.5187 20.6692C16.5149 20.6298 16.5634 20.6082 16.5901 20.6374L16.9348 21.0143L17.4029 20.8102C17.4392 20.7944 17.4747 20.8338 17.4552 20.8683L17.2033 21.3125L17.542 21.6947C17.5683 21.7243 17.5417 21.7702 17.503 21.7623L17.0026 21.66L16.7439 22.1003C16.7238 22.1344 16.6719 22.1234 16.6674 22.0841Z" fill="#F5F5F5"/>
<path d="M18.9156 21.9527L18.6568 21.5124L18.1565 21.6147C18.1177 21.6226 18.0912 21.5767 18.1175 21.5471L18.4562 21.1649L18.2043 20.7207C18.1848 20.6863 18.2203 20.6468 18.2566 20.6626L18.7247 20.8667L19.0694 20.4898C19.0961 20.4606 19.1446 20.4822 19.1408 20.5216L19.0913 21.0299L19.5562 21.2412C19.5922 21.2576 19.5867 21.3104 19.5481 21.3189L19.0494 21.429L18.992 21.9365C18.9876 21.9758 18.9357 21.9869 18.9156 21.9527Z" fill="#F5F5F5"/>
<path d="M20.9157 20.9184L20.5003 20.6214L20.0848 20.9184C20.0526 20.9414 20.0097 20.9102 20.0216 20.8724L20.1756 20.3855L19.7648 20.0822C19.733 20.0587 19.7494 20.0082 19.789 20.0079L20.2997 20.0039L20.4613 19.5195C20.4738 19.4819 20.5269 19.4819 20.5394 19.5195L20.701 20.0039L21.2117 20.0079C21.2512 20.0082 21.2676 20.0587 21.2358 20.0822L20.825 20.3855L20.979 20.8724C20.9908 20.9102 20.9479 20.9414 20.9157 20.9184Z" fill="#F5F5F5"/>
<path d="M22.3223 19.16L21.8219 19.0577L21.5632 19.498C21.5431 19.5321 21.4912 19.521 21.4868 19.4818L21.4295 18.9743L20.9308 18.8642C20.8921 18.8557 20.8866 18.8029 20.9226 18.7865L21.3875 18.5752L21.338 18.0669C21.3342 18.0275 21.3827 18.0059 21.4094 18.0351L21.7541 18.412L22.2222 18.2079C22.2585 18.1921 22.2941 18.2315 22.2745 18.266L22.0226 18.7102L22.3614 19.0924C22.3876 19.1219 22.361 19.1679 22.3223 19.16Z" fill="#F5F5F5"/>
<path d="M22.8918 16.9815L22.3931 17.0916L22.3357 17.5991C22.3313 17.6384 22.2794 17.6494 22.2593 17.6153L22.0006 17.175L21.5003 17.2773C21.4615 17.2852 21.435 17.2393 21.4612 17.2097L21.8 16.8275L21.5481 16.3833C21.5286 16.3489 21.5641 16.3094 21.6003 16.3252L22.0685 16.5293L22.4131 16.1524C22.4399 16.1232 22.4883 16.1448 22.4845 16.1842L22.4351 16.6925L22.9 16.9038C22.9359 16.9202 22.9304 16.973 22.8918 16.9815Z" fill="#F5F5F5"/>
<path d="M22.5262 14.7597L22.1154 15.063L22.2694 15.5499C22.2814 15.5877 22.2384 15.6188 22.2062 15.5959L21.7908 15.2989L21.3753 15.5959C21.3431 15.6189 21.3002 15.5877 21.3121 15.5499L21.4662 15.063L21.0554 14.7597C21.0235 14.7362 21.0399 14.6857 21.0795 14.6854L21.5902 14.6814L21.7518 14.197C21.7643 14.1594 21.8174 14.1594 21.8299 14.197L21.9915 14.6814L22.5022 14.6854C22.5416 14.6857 22.558 14.7361 22.5262 14.7597Z" fill="#F5F5F5"/>
<path d="M21.2886 12.8786L21.0367 13.3229L21.3755 13.705C21.4017 13.7347 21.3752 13.7806 21.3364 13.7727L20.8361 13.6704L20.5773 14.1107C20.5573 14.1448 20.5054 14.1338 20.5009 14.0944L20.4436 13.587L19.9449 13.4769C19.9063 13.4684 19.9007 13.4156 19.9368 13.3992L20.4017 13.1879L20.3522 12.6796C20.3484 12.6402 20.3969 12.6186 20.4236 12.6478L20.7683 13.0247L21.2364 12.8206C21.2726 12.8048 21.3082 12.8442 21.2886 12.8786Z" fill="#F5F5F5"/>
<path d="M19.3927 11.6636L19.3432 12.1719L19.8081 12.3832C19.8441 12.3996 19.8386 12.4524 19.8 12.4609L19.3013 12.571L19.244 13.0784C19.2395 13.1178 19.1876 13.1288 19.1675 13.0947L18.9088 12.6544L18.4085 12.7567C18.3697 12.7646 18.3432 12.7186 18.3694 12.689L18.7082 12.3069L18.4563 11.8627C18.4368 11.8282 18.4723 11.7888 18.5085 11.8046L18.9767 12.0087L19.3213 11.6318C19.348 11.6026 19.3965 11.6242 19.3927 11.6636Z" fill="#F5F5F5"/>
<path d="M17.1667 11.3248L17.3283 11.8092L17.839 11.8131C17.8785 11.8135 17.8949 11.864 17.8631 11.8874L17.4523 12.1908L17.6063 12.6777C17.6183 12.7154 17.5753 12.7466 17.5431 12.7236L17.1277 12.4267L16.7122 12.7236C16.68 12.7466 16.6371 12.7154 16.6491 12.6777L16.8031 12.1908L16.3923 11.8874C16.3605 11.864 16.3769 11.8134 16.4164 11.8131L16.9271 11.8092L17.0887 11.3248C17.1011 11.2873 17.1542 11.2873 17.1667 11.3248Z" fill="#F5F5F5"/>
</g>
<defs>
<clipPath id="clip0_8615_27623">
<path d="M0 2C0 0.895432 0.895431 0 2 0H21.9998C23.1043 0 23.9998 0.895431 23.9998 2V21.9998C23.9998 23.1043 23.1043 23.9998 21.9998 23.9998H2C0.895432 23.9998 0 23.1043 0 21.9998V2Z" fill="white"/>
</clipPath>
</defs>
</svg>
