<svg width="24" height="24" viewBox="0 0 24 24" fill="none" xmlns="http://www.w3.org/2000/svg">
<g clip-path="url(#clip0_8615_27562)">
<path d="M24.0032 0H0.00341797V23.9998H24.0032V0Z" fill="#F5F5F5"/>
<path d="M6.67115 12.8128C6.67115 12.8128 6.68263 13.0323 6.49781 13.2286C6.31298 13.4251 6.40537 13.6792 6.64799 13.7948C6.64799 13.7948 6.48056 14.1933 6.7289 14.3608C6.88569 14.4666 7.09855 14.4532 7.09855 14.4532C7.09855 14.4532 7.21409 14.9269 7.12171 15.2271C7.02927 15.5275 7.15635 16.3939 9.27039 15.8972C9.27039 15.8972 9.28956 16.4516 10.1368 16.8829C10.9838 17.3142 10.818 18.3358 10.818 18.3358C10.818 18.3358 11.984 19.0109 13.2728 17.4152C14.5615 15.8196 14.6536 15.6048 15.5742 15.2366C15.5742 15.2366 14.132 13.7637 14.6536 12.475C14.7223 12.3051 14.7999 12.1269 14.8808 11.9436C15.0302 12.4287 15.3252 13.137 15.8522 13.5489C16.0162 13.6764 16.2186 13.7167 16.4142 13.756C16.6242 13.7982 16.8054 13.8346 16.8907 13.9641C16.9658 14.0794 16.9726 14.2828 16.9146 14.5642C16.2879 15.2478 15.6824 15.43 15.6739 15.4322L15.5281 15.4715L15.8345 16.4819L14.9202 17.3231L14.9365 17.4047C15.0496 17.9685 15.3977 18.0433 15.5415 18.05C15.5502 18.05 15.5588 18.0509 15.5674 18.0509C15.9002 18.0509 16.2387 17.7709 16.3461 17.4017C16.5321 16.7641 17.1391 16.6912 17.1458 16.6912L17.2378 16.6806L17.2685 16.5934C17.2819 16.555 17.5975 15.646 17.7528 14.7196C17.8152 14.3449 17.8271 14.0467 17.8144 13.7858C17.8192 13.7768 17.8247 13.7718 17.8295 13.7626L17.8136 13.7544C17.7551 12.7667 17.2194 12.5039 16.6903 12.26C16.2393 12.0506 16.0622 11.8473 15.9746 11.6861C15.9928 11.6866 16.0083 11.6914 16.0267 11.6914C16.1706 11.6914 16.3221 11.6751 16.4755 11.632C16.9032 11.5131 17.2493 11.2206 17.5044 10.7632C17.6597 10.4833 18.8152 7.31308 18.9466 6.95252L19.0376 6.70226L17.546 7.02063L17.6597 6.11352L15.7265 6.79531L15.7725 6.9334C15.7792 6.95163 16.3949 8.80041 16.3354 9.92901C16.3191 10.2253 16.2261 10.4401 16.0564 10.5667C15.843 10.7243 15.5538 10.7159 15.4028 10.6996C15.7392 9.80568 15.9562 8.86646 15.6354 8.02558C15.104 6.63242 12.751 5.35598 10.9713 5.5401C9.19154 5.72422 7.7165 6.1543 7.22553 7.93403C6.73457 9.71376 6.87144 10.184 6.93285 10.4908C6.99421 10.7977 5.83823 12.1522 6.04729 12.5702C6.18595 12.8475 6.67115 12.8128 6.67115 12.8128ZM15.2022 11.2033C15.2331 11.1303 15.264 11.0577 15.2941 10.9837C15.3486 10.9934 15.4294 11.0049 15.5482 11.0049C15.7496 11.0049 16.0133 10.9666 16.2329 10.8026C16.4755 10.6214 16.6087 10.3327 16.6289 9.94438C16.6835 8.9318 16.2425 7.43875 16.0967 6.97751L17.3088 6.55081L17.0144 8.90203L17.3059 8.93846L17.5074 7.32963L18.5793 7.10116C18.0682 8.50116 17.35 10.4353 17.2474 10.6194C17.0316 11.0058 16.7449 11.2513 16.3958 11.3481C15.8717 11.4969 15.3724 11.2869 15.2022 11.2033ZM15.9292 16.7951L16.0788 17.2886C16.075 17.3006 16.0677 17.307 16.0641 17.3193C15.9941 17.5591 15.7687 17.7557 15.5683 17.7557C15.5635 17.7557 15.5587 17.7557 15.5549 17.7557C15.3727 17.748 15.2855 17.5706 15.2442 17.4258L15.9292 16.7951ZM17.513 14.2482C17.5012 14.3805 17.4883 14.5145 17.4622 14.6718C17.3376 15.4168 17.0978 16.1725 17.0173 16.4151C16.8523 16.4537 16.5119 16.5703 16.269 16.9001L15.8944 15.6672C16.193 15.5485 16.8925 15.1565 17.513 14.2482ZM15.0718 11.5107C15.0774 11.4979 15.0829 11.4862 15.0884 11.4733C15.1992 11.5258 15.386 11.603 15.6353 11.6517C15.7046 11.8579 15.8669 12.2028 16.5666 12.5267C17.0517 12.7507 17.4599 12.9407 17.5249 13.6906C17.4333 13.859 17.3329 13.976 17.2351 14.1143C17.2209 13.9951 17.1932 13.8882 17.1371 13.803C16.9836 13.57 16.7123 13.5153 16.4716 13.4674C16.3019 13.4329 16.1417 13.4012 16.0334 13.3168C15.4142 12.8333 15.1488 11.8506 15.0718 11.5107ZM7.41045 9.33558C7.41045 9.33558 7.45658 8.29599 7.91881 7.41799L14.9886 10.6988L14.3879 11.9926L7.41045 9.33558Z" fill="#464655"/>
</g>
<defs>
<clipPath id="clip0_8615_27562">
<path d="M0 2C0 0.895432 0.895431 0 2 0H21.9998C23.1043 0 23.9998 0.895431 23.9998 2V21.9998C23.9998 23.1043 23.1043 23.9998 21.9998 23.9998H2C0.895432 23.9998 0 23.1043 0 21.9998V2Z" fill="white"/>
</clipPath>
</defs>
</svg>
