<svg width="24" height="24" viewBox="0 0 24 24" fill="none" xmlns="http://www.w3.org/2000/svg">
<g clip-path="url(#clip0_8615_27694)">
<path d="M24.0027 8.21057H0.00292969V15.7892H24.0027V8.21057Z" fill="#FF4B55"/>
<path d="M24.0027 0H0.00292969V4.10527H24.0027V0Z" fill="#41479B"/>
<path d="M24.0027 4.10535H0.00292969V8.21062H24.0027V4.10535Z" fill="#F5F5F5"/>
<path d="M24.0027 19.8945H0.00292969V23.9998H24.0027V19.8945Z" fill="#41479B"/>
<path d="M24.0056 15.7893H0.00585938V19.8946H24.0056V15.7893Z" fill="#F5F5F5"/>
<path d="M5.49114 15.1579C7.12261 15.1579 8.44518 13.7441 8.44518 12C8.44518 10.2559 7.12261 8.84204 5.49114 8.84204C3.85968 8.84204 2.53711 10.2559 2.53711 12C2.53711 13.7441 3.85968 15.1579 5.49114 15.1579Z" fill="#F5F5F5"/>
<path d="M7.01571 10.7775H3.95996V12.3055H7.01571V10.7775Z" fill="#3CC8FF"/>
<path d="M4.36779 11.6464L4.40267 11.9835L4.54001 11.6736L4.46899 12.005L4.69535 11.7528L4.52543 12.046L4.81863 11.8761L4.5664 12.1025L4.89776 12.0314L4.58796 12.1687L4.92504 12.2036L4.58796 12.2385L4.89776 12.3758L4.5664 12.3048L4.81863 12.5312L4.52543 12.3612L4.69535 12.6544L4.46899 12.4022L4.54001 12.7336L4.40267 12.4238L4.36779 12.7609L4.33292 12.4238L4.19562 12.7336L4.26659 12.4022L4.04023 12.6544L4.2102 12.3612L3.91695 12.5312L4.16918 12.3048L3.83783 12.3758L4.14762 12.2385L3.81055 12.2036L4.14762 12.1687L3.83783 12.0314L4.16918 12.1025L3.91695 11.8761L4.2102 12.046L4.04023 11.7528L4.26659 12.005L4.19562 11.6736L4.33292 11.9835L4.36779 11.6464Z" fill="#FFE15A"/>
<path d="M6.09928 14.4447H4.87688L3.75635 13.5279V12.2036H7.32167V13.5279L6.09928 14.4447Z" fill="#41479B"/>
<path d="M6.71082 11.7963H6.71068C6.71035 11.7684 6.68776 11.7459 6.65987 11.7459C6.63197 11.7459 6.60938 11.7684 6.60905 11.7963H6.60891C6.60891 11.9731 6.50649 12.2176 6.38082 12.3927C6.20542 12.1712 6.13942 11.9143 6.11457 11.7526C6.10271 11.6755 6.01932 11.6327 5.94948 11.6676C5.91587 11.6844 5.89323 11.7172 5.88742 11.7544C5.80942 12.2539 5.57392 12.4662 5.42144 12.5535C5.19311 12.3328 5.11788 11.9756 5.09308 11.7644C5.08343 11.6823 4.99558 11.6351 4.92166 11.6721C4.89321 11.6864 4.87207 11.7121 4.86213 11.7423C4.54264 12.7163 3.65479 12.8149 3.65479 12.8149V13.1206H7.22011V13.0187V12.9168V12.815V12.7131V12.6113C6.81268 12.5093 6.71082 11.7963 6.71082 11.7963Z" fill="#73AF00"/>
<path d="M7.21626 10.8794C6.80877 10.6757 6.80877 10.4719 6.80877 10.4719C6.80877 10.4719 6.29944 10.2682 5.89196 10.2682C5.89196 10.2682 5.99381 10.0645 5.7901 10.0645C5.58638 10.0645 5.48448 10.0645 5.48448 10.0645C5.48448 10.0645 5.38262 10.0645 5.17885 10.0645C4.97509 10.0645 5.07699 10.2682 5.07699 10.2682C4.66951 10.2682 4.16018 10.4719 4.16018 10.4719C4.16018 10.4719 4.16018 10.6756 3.75269 10.8794C3.34521 11.0831 3.34521 11.5415 3.34521 11.5415C3.34521 11.6259 3.4136 11.6943 3.49803 11.6943C3.58245 11.6943 3.65084 11.6259 3.65084 11.5415C3.65084 11.5241 3.64732 11.5077 3.64193 11.4921L3.65084 11.4906L4.66951 10.7775H5.48443H6.29934L7.31802 11.4906L7.32693 11.4921C7.32158 11.5077 7.31802 11.5241 7.31802 11.5415C7.31802 11.6259 7.38641 11.6943 7.47083 11.6943C7.55525 11.6943 7.62364 11.6259 7.62364 11.5415C7.62374 11.5415 7.62374 11.0831 7.21626 10.8794Z" fill="#F0AA00"/>
<path d="M7.52155 12.1018C7.41969 12.1018 7.11407 12.1018 7.11407 11.7962C7.11407 11.4906 7.52155 11.4906 7.52155 11.4906L6.91035 11.2869C6.70659 12 7.11407 12 7.11407 12.9168C7.11407 13.7381 6.19725 14.241 5.89167 14.241C5.58605 14.241 5.48419 14.4448 5.48419 14.4448C5.48419 14.4448 5.38234 14.241 5.07671 14.241C4.77109 14.241 3.85432 13.738 3.85432 12.9168C3.85432 12 4.2618 12 4.05804 11.2869L3.44684 11.4906C3.44684 11.4906 3.85432 11.4906 3.85432 11.7963C3.85432 12.1019 3.5487 12.1019 3.44684 12.1019C3.34498 12.1019 2.9375 12.1019 2.9375 12.6112C2.9375 13.1206 3.44684 13.7317 4.15989 14.1392C4.87295 14.5467 4.56737 14.9541 5.48415 14.9541C6.40092 14.9541 6.09534 14.5467 6.8084 14.1392C7.52146 13.7317 8.03079 13.1206 8.03079 12.6112C8.03079 12.1019 7.62341 12.1018 7.52155 12.1018Z" fill="#F0AA00"/>
<path d="M5.28392 10.5073L5.0375 10.3966C4.99662 10.3782 4.95125 10.3739 4.90756 10.384C4.7487 10.4207 4.35468 10.5414 4.06152 10.8793L4.36715 10.9812L5.28392 10.5073Z" fill="#73AF00"/>
<path d="M5.69141 10.5073L5.93783 10.3966C5.9787 10.3782 6.02408 10.3739 6.06776 10.384C6.22662 10.4207 6.62065 10.5414 6.9138 10.8793L6.60818 10.9812L5.69141 10.5073Z" fill="#73AF00"/>
<path d="M5.52396 10.5737L5.70968 10.3879C5.71961 10.378 5.71961 10.3619 5.70968 10.3519C5.69974 10.342 5.68361 10.342 5.67368 10.3519L5.48796 10.5377L5.30224 10.3519C5.2923 10.342 5.27618 10.342 5.26624 10.3519C5.2563 10.3619 5.2563 10.378 5.26624 10.3879L5.45196 10.5737L5.26624 10.7594C5.2563 10.7693 5.2563 10.7854 5.26624 10.7954C5.27121 10.8003 5.27773 10.8028 5.28424 10.8028C5.29076 10.8028 5.29727 10.8003 5.30224 10.7954L5.48796 10.6097L5.67368 10.7954C5.67864 10.8003 5.68516 10.8028 5.69168 10.8028C5.69819 10.8028 5.70471 10.8003 5.70968 10.7954C5.71961 10.7854 5.71961 10.7693 5.70968 10.7594L5.52396 10.5737Z" fill="#73AF00"/>
<path d="M7.52593 11.4906C7.52593 11.3172 7.36215 11.2423 7.22031 11.2099V11.1292C7.02854 11.1112 6.92153 11.0391 6.73558 10.9125C6.66395 10.8636 6.58272 10.8083 6.4847 10.7488C6.12654 10.5312 5.8512 10.4998 5.69229 10.5073V10.6756H5.28481V10.5073C5.12591 10.4998 4.85056 10.5312 4.4924 10.7488C4.39438 10.8083 4.31315 10.8636 4.24152 10.9125C4.05557 11.0391 3.9486 11.1112 3.75679 11.1292V11.2099C3.61495 11.2423 3.45117 11.3172 3.45117 11.4906L3.75679 11.3887V11.4352C4.04587 11.4139 4.2112 11.3029 4.41355 11.1651C4.48213 11.1184 4.55985 11.0654 4.65107 11.01C4.8837 10.8686 5.0645 10.8248 5.18295 10.8145V10.9813H5.79415V10.8145C5.91255 10.8248 6.0934 10.8686 6.32603 11.01C6.41725 11.0654 6.49497 11.1183 6.56355 11.1651C6.76591 11.3029 6.93123 11.4139 7.22031 11.4352V11.3887L7.52593 11.4906Z" fill="#F5F5F5"/>
<path d="M6.7106 9.8849V9.75885H6.42683C6.47642 9.71629 6.50684 9.66613 6.50684 9.60604C6.50684 9.3246 5.86653 9.24951 5.48816 9.24951C5.10979 9.24951 4.46949 9.3246 4.46949 9.60604C4.46949 9.66613 4.49995 9.71629 4.5495 9.75885H4.26572V9.8849C4.01635 9.94054 3.81245 10.0744 3.80176 10.0815L3.91477 10.251C3.91754 10.2492 4.19785 10.0644 4.46949 10.0644V9.96257H6.50679V10.0644C6.77843 10.0644 7.05869 10.2492 7.06151 10.251L7.17452 10.0815C7.16388 10.0744 6.96002 9.94054 6.7106 9.8849ZM5.89569 9.73068V9.65329C5.89569 9.60341 5.84882 9.56685 5.80044 9.57895L5.48821 9.65699L5.17598 9.57895C5.1276 9.56685 5.08073 9.60346 5.08073 9.65329V9.73068C4.85189 9.69707 4.71656 9.6411 4.67967 9.60609C4.7348 9.55377 5.0047 9.45328 5.48821 9.45328C5.97172 9.45328 6.24162 9.55373 6.29675 9.60609C6.25986 9.64105 6.12453 9.69707 5.89569 9.73068Z" fill="#3CC8FF"/>
<path d="M5.49955 11.0197L5.52538 11.0971L5.60694 11.0977C5.61749 11.0978 5.62189 11.1113 5.61336 11.1176L5.54774 11.166L5.57235 11.2438C5.57553 11.2539 5.56405 11.2622 5.55547 11.2561L5.4891 11.2086L5.42272 11.2561C5.41414 11.2622 5.40266 11.2539 5.40585 11.2438L5.43046 11.166L5.36483 11.1176C5.35635 11.1113 5.36071 11.0978 5.37125 11.0977L5.45282 11.0971L5.47864 11.0197C5.48207 11.0097 5.49622 11.0097 5.49955 11.0197Z" fill="#F5F5F5"/>
<path d="M5.10033 11.0459L5.13413 11.1201L5.21531 11.1122C5.22581 11.1112 5.23158 11.1241 5.2238 11.1312L5.16361 11.1863L5.19624 11.2611C5.20045 11.2708 5.18995 11.2802 5.18072 11.275L5.10975 11.2348L5.04872 11.289C5.0408 11.296 5.02857 11.2889 5.03068 11.2785L5.04699 11.1986L4.97663 11.1573C4.96754 11.152 4.97044 11.1381 4.98094 11.1369L5.06199 11.1278L5.07952 11.0481C5.08186 11.0378 5.09597 11.0363 5.10033 11.0459Z" fill="#F5F5F5"/>
<path d="M4.6901 11.155L4.73918 11.2202L4.81675 11.1949C4.82679 11.1916 4.83522 11.203 4.82918 11.2117L4.78235 11.2785L4.83039 11.3444C4.83663 11.3529 4.82838 11.3645 4.8183 11.3614L4.7403 11.3375L4.69244 11.4036C4.68626 11.4122 4.67271 11.4079 4.67257 11.3973L4.67116 11.3158L4.59354 11.2907C4.58351 11.2875 4.58337 11.2733 4.59335 11.2698L4.67051 11.2433L4.67037 11.1617C4.67032 11.1511 4.68372 11.1466 4.6901 11.155Z" fill="#F5F5F5"/>
<path d="M4.27919 11.3283L4.33647 11.3864L4.40997 11.351C4.41949 11.3464 4.42938 11.3566 4.4245 11.366L4.38696 11.4384L4.4433 11.4973C4.45061 11.505 4.44396 11.5175 4.43355 11.5158L4.35307 11.5024L4.3144 11.5742C4.30938 11.5835 4.29541 11.5811 4.29386 11.5707L4.28168 11.49L4.20143 11.4754C4.19102 11.4735 4.18901 11.4595 4.19848 11.4548L4.27146 11.4183L4.26054 11.3374C4.25908 11.327 4.27179 11.3207 4.27919 11.3283Z" fill="#F5F5F5"/>
<path d="M5.87804 11.0459L5.84424 11.1201L5.76306 11.1122C5.75256 11.1112 5.74679 11.1241 5.75457 11.1312L5.81476 11.1863L5.78214 11.2611C5.77792 11.2708 5.78842 11.2802 5.79765 11.275L5.86862 11.2348L5.92965 11.289C5.93757 11.296 5.94981 11.2889 5.9477 11.2785L5.93138 11.1986L6.00174 11.1573C6.01084 11.152 6.00793 11.1381 5.99743 11.1369L5.91638 11.1278L5.89885 11.0481C5.89651 11.0378 5.8824 11.0363 5.87804 11.0459Z" fill="#F5F5F5"/>
<path d="M6.28796 11.155L6.23889 11.2202L6.16131 11.1949C6.15128 11.1916 6.14284 11.203 6.14889 11.2117L6.19571 11.2785L6.14767 11.3444C6.14143 11.3529 6.14968 11.3645 6.15976 11.3614L6.23776 11.3375L6.28562 11.4036C6.29181 11.4122 6.30535 11.4079 6.3055 11.3973L6.3069 11.3158L6.38453 11.2907C6.39456 11.2875 6.3947 11.2733 6.38471 11.2698L6.30756 11.2433L6.3077 11.1617C6.30775 11.1511 6.29429 11.1466 6.28796 11.155Z" fill="#F5F5F5"/>
<path d="M6.69893 11.3283L6.64165 11.3864L6.56815 11.351C6.55864 11.3464 6.54875 11.3566 6.55362 11.366L6.59117 11.4384L6.53483 11.4973C6.52751 11.505 6.53417 11.5175 6.54458 11.5158L6.62506 11.5024L6.66373 11.5742C6.66875 11.5835 6.68271 11.5811 6.68426 11.5707L6.69645 11.49L6.7767 11.4754C6.7871 11.4735 6.78912 11.4595 6.77965 11.4548L6.70667 11.4183L6.71759 11.3374C6.71904 11.327 6.70634 11.3207 6.69893 11.3283Z" fill="#F5F5F5"/>
<path d="M4.78467 13.4642L5.30352 13.8112H5.93066L6.22034 13.563L5.9975 13.6521H5.25894L4.78467 13.4642Z" fill="#8C5A28"/>
<path d="M5.13836 13.0165L5.0883 13.5216L4.86035 13.4346C4.86035 13.4346 4.96521 13.1912 5.13836 13.0165Z" fill="#F5F5F5"/>
<path d="M5.6255 12.8167H5.5918V13.6768H5.6255V12.8167Z" fill="#8C5A28"/>
<path d="M5.93751 12.8893H5.90381V13.6766H5.93751V12.8893Z" fill="#8C5A28"/>
<path d="M5.31495 12.8893H5.28125V13.6766H5.31495V12.8893Z" fill="#8C5A28"/>
<path d="M5.72319 13.5948H5.48591C5.4732 13.5948 5.46289 13.5845 5.46289 13.5718V13.4363C5.46289 13.4236 5.4732 13.4133 5.48591 13.4133H5.72319C5.73589 13.4133 5.7462 13.4236 5.7462 13.4363V13.5718C5.74615 13.5845 5.73589 13.5948 5.72319 13.5948Z" fill="#F5F5F5"/>
<path d="M5.72319 13.3528H5.48591C5.4732 13.3528 5.46289 13.3425 5.46289 13.3298V13.1944C5.46289 13.1817 5.4732 13.1714 5.48591 13.1714H5.72319C5.73589 13.1714 5.7462 13.1817 5.7462 13.1944V13.3298C5.74615 13.3426 5.73589 13.3528 5.72319 13.3528Z" fill="#F5F5F5"/>
<path d="M5.72319 13.1301H5.48591C5.4732 13.1301 5.46289 13.1197 5.46289 13.107V12.9716C5.46289 12.9589 5.4732 12.9486 5.48591 12.9486H5.72319C5.73589 12.9486 5.7462 12.9589 5.7462 12.9716V13.107C5.74615 13.1197 5.73589 13.1301 5.72319 13.1301Z" fill="#F5F5F5"/>
<path d="M6.01555 13.5948H5.81647C5.80377 13.5948 5.79346 13.5845 5.79346 13.5718V13.4363C5.79346 13.4236 5.80377 13.4133 5.81647 13.4133H6.01555C6.02825 13.4133 6.03856 13.4236 6.03856 13.4363V13.5718C6.03856 13.5845 6.02825 13.5948 6.01555 13.5948Z" fill="#F5F5F5"/>
<path d="M6.01555 13.372H5.81647C5.80377 13.372 5.79346 13.3617 5.79346 13.349V13.242C5.79346 13.2293 5.80377 13.219 5.81647 13.219H6.01555C6.02825 13.219 6.03856 13.2293 6.03856 13.242V13.349C6.03856 13.3617 6.02825 13.372 6.01555 13.372Z" fill="#F5F5F5"/>
<path d="M6.01555 13.1513H5.81647C5.80377 13.1513 5.79346 13.141 5.79346 13.1282V13.0458C5.79346 13.0331 5.80377 13.0228 5.81647 13.0228H6.01555C6.02825 13.0228 6.03856 13.0331 6.03856 13.0458V13.1282C6.03856 13.141 6.02825 13.1513 6.01555 13.1513Z" fill="#F5F5F5"/>
<path d="M5.39299 13.5948H5.19391C5.18121 13.5948 5.1709 13.5845 5.1709 13.5718V13.4363C5.1709 13.4236 5.18121 13.4133 5.19391 13.4133H5.39299C5.40569 13.4133 5.41601 13.4236 5.41601 13.4363V13.5718C5.41601 13.5845 5.40569 13.5948 5.39299 13.5948Z" fill="#F5F5F5"/>
<path d="M5.39299 13.372H5.19391C5.18121 13.372 5.1709 13.3617 5.1709 13.349V13.242C5.1709 13.2293 5.18121 13.219 5.19391 13.219H5.39299C5.40569 13.219 5.41601 13.2293 5.41601 13.242V13.349C5.41601 13.3617 5.40569 13.372 5.39299 13.372Z" fill="#F5F5F5"/>
<path d="M5.39299 13.1513H5.19391C5.18121 13.1513 5.1709 13.141 5.1709 13.1282V13.0458C5.1709 13.0331 5.18121 13.0228 5.19391 13.0228H5.39299C5.40569 13.0228 5.41601 13.0331 5.41601 13.0458V13.1282C5.41601 13.141 5.40569 13.1513 5.39299 13.1513Z" fill="#F5F5F5"/>
<path d="M5.31055 12.8893V12.991L5.46031 12.9392L5.31055 12.8893Z" fill="#F5F5F5"/>
<path d="M5.93262 12.8893V12.991L6.08238 12.9392L5.93262 12.8893Z" fill="#F5F5F5"/>
<path d="M5.62061 12.8162V12.9179L5.77037 12.8661L5.62061 12.8162Z" fill="#F5F5F5"/>
<path d="M5.22363 12.1288L5.40391 12.2493H5.62178L5.72242 12.1631L5.64503 12.194H5.38844L5.22363 12.1288Z" fill="#8C5A28"/>
<path d="M5.34656 11.9731L5.32917 12.1486L5.25 12.1184C5.25 12.1184 5.28642 12.0338 5.34656 11.9731Z" fill="#F5F5F5"/>
<path d="M5.51807 11.9038H5.50635V12.2026H5.51807V11.9038Z" fill="#8C5A28"/>
<path d="M5.62646 11.9292H5.61475V12.2027H5.62646V11.9292Z" fill="#8C5A28"/>
<path d="M5.41016 11.9292H5.39844V12.2027H5.41016V11.9292Z" fill="#8C5A28"/>
<path d="M5.55189 12.1739H5.46944C5.46504 12.1739 5.46143 12.1704 5.46143 12.1659V12.1189C5.46143 12.1145 5.46499 12.1108 5.46944 12.1108H5.55189C5.5563 12.1108 5.55991 12.1144 5.55991 12.1189V12.1659C5.55991 12.1704 5.5563 12.1739 5.55189 12.1739Z" fill="#F5F5F5"/>
<path d="M5.55189 12.0899H5.46944C5.46504 12.0899 5.46143 12.0864 5.46143 12.0819V12.0349C5.46143 12.0305 5.46499 12.0269 5.46944 12.0269H5.55189C5.5563 12.0269 5.55991 12.0304 5.55991 12.0349V12.0819C5.55991 12.0864 5.5563 12.0899 5.55189 12.0899Z" fill="#F5F5F5"/>
<path d="M5.55189 12.0126H5.46944C5.46504 12.0126 5.46143 12.009 5.46143 12.0045V11.9575C5.46143 11.9531 5.46499 11.9495 5.46944 11.9495H5.55189C5.5563 11.9495 5.55991 11.953 5.55991 11.9575V12.0045C5.55991 12.0089 5.5563 12.0126 5.55189 12.0126Z" fill="#F5F5F5"/>
<path d="M5.65337 12.1739H5.58419C5.57978 12.1739 5.57617 12.1704 5.57617 12.1659V12.1189C5.57617 12.1145 5.57973 12.1108 5.58419 12.1108H5.65337C5.65778 12.1108 5.66139 12.1144 5.66139 12.1189V12.1659C5.66134 12.1704 5.65778 12.1739 5.65337 12.1739Z" fill="#F5F5F5"/>
<path d="M5.65337 12.0967H5.58419C5.57978 12.0967 5.57617 12.0931 5.57617 12.0886V12.0515C5.57617 12.0471 5.57973 12.0435 5.58419 12.0435H5.65337C5.65778 12.0435 5.66139 12.047 5.66139 12.0515V12.0886C5.66134 12.0931 5.65778 12.0967 5.65337 12.0967Z" fill="#F5F5F5"/>
<path d="M5.65337 12.0199H5.58419C5.57978 12.0199 5.57617 12.0163 5.57617 12.0119V11.9832C5.57617 11.9788 5.57973 11.9752 5.58419 11.9752H5.65337C5.65778 11.9752 5.66139 11.9788 5.66139 11.9832V12.0119C5.66134 12.0163 5.65778 12.0199 5.65337 12.0199Z" fill="#F5F5F5"/>
<path d="M5.43707 12.1739H5.36788C5.36347 12.1739 5.35986 12.1704 5.35986 12.1659V12.1189C5.35986 12.1145 5.36343 12.1108 5.36788 12.1108H5.43707C5.44147 12.1108 5.44508 12.1144 5.44508 12.1189V12.1659C5.44508 12.1704 5.44152 12.1739 5.43707 12.1739Z" fill="#F5F5F5"/>
<path d="M5.43707 12.0967H5.36788C5.36347 12.0967 5.35986 12.0931 5.35986 12.0886V12.0515C5.35986 12.0471 5.36343 12.0435 5.36788 12.0435H5.43707C5.44147 12.0435 5.44508 12.047 5.44508 12.0515V12.0886C5.44508 12.0931 5.44152 12.0967 5.43707 12.0967Z" fill="#F5F5F5"/>
<path d="M5.43707 12.0199H5.36788C5.36347 12.0199 5.35986 12.0163 5.35986 12.0119V11.9832C5.35986 11.9788 5.36343 11.9752 5.36788 11.9752H5.43707C5.44147 11.9752 5.44508 11.9788 5.44508 11.9832V12.0119C5.44508 12.0163 5.44152 12.0199 5.43707 12.0199Z" fill="#F5F5F5"/>
<path d="M5.4082 11.9288V11.9642L5.46023 11.9462L5.4082 11.9288Z" fill="#F5F5F5"/>
<path d="M5.62451 11.9288V11.9642L5.67654 11.9462L5.62451 11.9288Z" fill="#F5F5F5"/>
<path d="M5.51611 11.9034V11.9388L5.56814 11.9208L5.51611 11.9034Z" fill="#F5F5F5"/>
<path d="M5.13301 11.5923H4.93037C4.90206 11.5923 4.87891 11.5692 4.87891 11.5409V11.4704C4.87891 11.4421 4.90206 11.4189 4.93037 11.4189H5.13301C5.16133 11.4189 5.18448 11.4421 5.18448 11.4704V11.5409C5.18453 11.5692 5.16133 11.5923 5.13301 11.5923Z" fill="#F5F5F5"/>
<path d="M6.13879 11.5923H5.98116C5.95275 11.5923 5.92969 11.5693 5.92969 11.5409V11.4704C5.92969 11.442 5.95275 11.4189 5.98116 11.4189H6.13879C6.1672 11.4189 6.19026 11.442 6.19026 11.4704V11.5409C6.19026 11.5693 6.1672 11.5923 6.13879 11.5923Z" fill="#F5F5F5"/>
<path d="M6.74316 11.7229H6.62612C6.60985 11.7229 6.59668 11.7098 6.59668 11.6935V11.645C6.59668 11.6288 6.60985 11.6156 6.62612 11.6156H6.74316C6.75943 11.6156 6.7726 11.6288 6.7726 11.645V11.6935C6.7726 11.7097 6.75943 11.7229 6.74316 11.7229Z" fill="#F5F5F5"/>
</g>
<defs>
<clipPath id="clip0_8615_27694">
<path d="M0 2C0 0.895432 0.895431 0 2 0H21.9998C23.1043 0 23.9998 0.895431 23.9998 2V21.9998C23.9998 23.1043 23.1043 23.9998 21.9998 23.9998H2C0.895432 23.9998 0 23.1043 0 21.9998V2Z" fill="white"/>
</clipPath>
</defs>
</svg>
