<svg width="24" height="24" viewBox="0 0 24 24" fill="none" xmlns="http://www.w3.org/2000/svg">
<g clip-path="url(#clip0_8615_27708)">
<path d="M24.0027 15.9998H0.00292969V23.9998H24.0027V15.9998Z" fill="#41479B"/>
<path d="M24.0027 0H0.00292969V8.00008H24.0027V0Z" fill="#FF4B55"/>
<path d="M24.0027 8.00012H0.00292969V16.0002H24.0027V8.00012Z" fill="#F5F5F5"/>
<path d="M9.35335 8.21045H7.58496V10.2317H9.35335V8.21045Z" fill="#FF4B55"/>
<path d="M12.8905 8.21045H11.1221V10.2317H12.8905V8.21045Z" fill="#FF4B55"/>
<path d="M11.1219 10.2312H9.35352V12.2524H11.1219V10.2312Z" fill="#FF4B55"/>
<path d="M16.4271 8.21045H14.6587V10.2317H16.4271V8.21045Z" fill="#FF4B55"/>
<path d="M14.6585 10.2312H12.8901V12.2524H14.6585V10.2312Z" fill="#FF4B55"/>
<path d="M11.1219 8.21045H9.35352V10.2317H11.1219V8.21045Z" fill="#F5F5F5"/>
<path d="M14.6585 8.21045H12.8901V10.2317H14.6585V8.21045Z" fill="#F5F5F5"/>
<path d="M9.35335 10.2312H7.58496V12.2524H9.35335V10.2312Z" fill="#F5F5F5"/>
<path d="M12.8905 10.2312H11.1221V12.2524H12.8905V10.2312Z" fill="#F5F5F5"/>
<path d="M16.4271 10.2312H14.6587V12.2524H16.4271V10.2312Z" fill="#F5F5F5"/>
<path d="M12.8856 12.2524H11.1172V14.2737H12.8856V12.2524Z" fill="#FF4B55"/>
<path d="M11.117 14.2732H9.34863V16.2944H11.117V14.2732Z" fill="#FF4B55"/>
<path d="M14.6536 14.2732H12.8853V16.2944H14.6536V14.2732Z" fill="#FF4B55"/>
<path d="M11.117 12.2524H9.34863V14.2737H11.117V12.2524Z" fill="#F5F5F5"/>
<path d="M14.6536 12.2524H12.8853V14.2737H14.6536V12.2524Z" fill="#F5F5F5"/>
<path d="M12.8856 14.2732H11.1172V16.2944H12.8856V14.2732Z" fill="#F5F5F5"/>
<path d="M16.4235 8.21045V13.8946C16.4235 16.3362 14.4441 18.3156 12.0024 18.3156C9.56079 18.3156 7.58142 16.3362 7.58142 13.8946V8.21045H16.4235ZM16.7393 7.89465H16.4235H7.58142H7.26562V8.21045V13.8946C7.26562 16.5064 9.39054 18.6314 12.0024 18.6314C14.6143 18.6314 16.7393 16.5065 16.7393 13.8946V8.21045V7.89465Z" fill="#FF4B55"/>
<path d="M9.34993 14.2735V12.2524H7.58154V13.8945C7.58154 14.0225 7.59003 14.1483 7.60067 14.2735H9.34993Z" fill="#FF4B55"/>
<path d="M16.4036 14.2734H14.6543V16.2945H15.7113C16.0948 15.7028 16.3405 15.0147 16.4036 14.2734Z" fill="#F5F5F5"/>
<path d="M8.2919 16.2945H9.34887V14.2734H7.59961C7.6627 15.0147 7.90832 15.7028 8.2919 16.2945Z" fill="#F5F5F5"/>
<path d="M14.6592 14.2737H16.4084C16.4191 14.1486 16.4276 14.0228 16.4276 13.8948V12.2527H14.6592V14.2737Z" fill="#FF4B55"/>
<path d="M9.35385 17.4256V16.2948H8.29688C8.58009 16.7317 8.93882 17.1133 9.35385 17.4256Z" fill="#FF4B55"/>
<path d="M15.7162 16.2948H14.6592V17.4256C15.0742 17.1133 15.4329 16.7317 15.7162 16.2948Z" fill="#FF4B55"/>
<path d="M9.34863 17.4255C9.86336 17.8129 10.4624 18.0941 11.117 18.2269V16.2947H9.34863V17.4255Z" fill="#F5F5F5"/>
<path d="M12.8853 18.2269C13.5399 18.0941 14.1389 17.8129 14.6536 17.4255V16.2947H12.8853V18.2269Z" fill="#F5F5F5"/>
<path d="M12.8866 16.2947H11.1182V18.2269C11.4039 18.285 11.6995 18.3157 12.0024 18.3157C12.3052 18.3157 12.6009 18.285 12.8866 18.2269V16.2947H12.8866Z" fill="#FF4B55"/>
<path d="M8.80307 4.86628C8.41833 4.80675 8.02463 4.76381 7.62338 4.73901C7.31303 4.99453 7.01715 5.26087 6.73633 5.53672C7.01833 6.21744 7.30028 6.8982 7.58223 7.57895C8.14838 7.34449 8.7285 7.15685 9.31701 7.01613C9.14573 6.29951 8.97435 5.5829 8.80307 4.86628Z" fill="#4173CD"/>
<path d="M13.0769 4.5309C12.7312 4.35597 12.3731 4.1942 12.0036 4.04688C11.634 4.19425 11.2759 4.35601 10.9302 4.5309C10.9876 5.26543 11.0451 6 11.1026 6.73466C11.7023 6.68769 12.3048 6.68769 12.9045 6.73466C12.962 6.00009 13.0195 5.26552 13.0769 4.5309Z" fill="#4173CD"/>
<path d="M17.2702 5.53672C16.9894 5.26087 16.6935 4.99453 16.3831 4.73901C15.9819 4.76386 15.5882 4.80679 15.2034 4.86628C15.0321 5.58294 14.8608 6.29951 14.6895 7.01618C15.278 7.1569 15.8581 7.34449 16.4242 7.579C16.7062 6.8982 16.9882 6.21744 17.2702 5.53672Z" fill="#4173CD"/>
<path d="M10.9266 4.53098C10.5579 4.41202 10.1785 4.30786 9.78942 4.21997C9.4462 4.42322 9.11611 4.63912 8.7998 4.86623C8.97113 5.58289 9.14246 6.29947 9.31378 7.01613C9.90234 6.87541 10.4992 6.78166 11.099 6.73474C11.0415 6.00017 10.9841 5.2656 10.9266 4.53098Z" fill="#41479B"/>
<path d="M15.2006 4.86623C14.8842 4.63908 14.5541 4.42322 14.2109 4.21997C13.8219 4.30786 13.4425 4.41202 13.0738 4.53098C13.0163 5.26551 12.9588 6.00008 12.9014 6.73474C13.5011 6.78166 14.0981 6.87541 14.6866 7.01613C14.8579 6.29947 15.0293 5.58285 15.2006 4.86623Z" fill="#41479B"/>
<path d="M10.9972 5.41249C10.3287 5.46475 9.66315 5.56928 9.00709 5.72617C8.97283 5.58283 8.93856 5.43953 8.9043 5.29615C9.5829 5.13396 10.2712 5.02582 10.9627 4.97168C10.9743 5.11868 10.9858 5.26554 10.9972 5.41249Z" fill="#FF4B55"/>
<path d="M11.0662 6.29391C10.4435 6.34261 9.82372 6.44002 9.21266 6.58608C9.17835 6.44278 9.14413 6.29939 9.10986 6.1561C9.74342 6.0046 10.3861 5.90359 11.0317 5.85315C11.0432 6.00005 11.0547 6.14705 11.0662 6.29391Z" fill="#FF4B55"/>
<path d="M14.1009 6.4424C13.9467 6.41498 13.7921 6.39065 13.6372 6.36933C13.3824 6.33412 13.1926 6.1178 13.2146 5.87456C13.2367 5.63152 13.4803 5.45513 13.7577 5.49338C13.924 5.51626 14.09 5.54241 14.2556 5.57185C14.5316 5.6206 14.7104 5.86383 14.6565 6.10177C14.6027 6.34008 14.3547 6.48712 14.1009 6.4424Z" fill="#FFE15A"/>
<path d="M16.5927 7.17045C16.0049 6.92703 15.4025 6.73217 14.7915 6.58611C14.8258 6.44281 14.86 6.29942 14.8943 6.15613C15.5279 6.30753 16.1524 6.50952 16.7619 6.76198C16.7055 6.89815 16.6491 7.03432 16.5927 7.17045Z" fill="#FF4B55"/>
<path d="M16.434 5.84421C16.3716 6.01642 16.161 6.09836 15.9619 6.03363C15.7629 5.96884 15.6412 5.77961 15.6916 5.6035C15.7419 5.4274 15.9552 5.33416 16.1664 5.40274C16.3776 5.47122 16.4965 5.67208 16.434 5.84421Z" fill="#FFE15A"/>
<path d="M8.31188 5.60352C8.36223 5.77986 8.2403 5.96904 8.04151 6.03364C7.84257 6.09809 7.63192 6.01615 7.56939 5.84422C7.50681 5.672 7.62592 5.47124 7.83709 5.40275C8.04807 5.33441 8.26163 5.42755 8.31188 5.60352Z" fill="#FFE15A"/>
<path d="M11.9008 5.31409C11.9012 5.46057 11.7695 5.57982 11.6064 5.58479C11.4434 5.59004 11.3044 5.47885 11.2958 5.33293C11.2873 5.18696 11.4188 5.06068 11.5899 5.05511C11.7611 5.04976 11.9001 5.16761 11.9008 5.31409Z" fill="#FFE15A"/>
<path d="M12.7075 5.33294C12.6988 5.4791 12.5598 5.59 12.3969 5.5848C12.2338 5.57978 12.1021 5.46053 12.1025 5.3141C12.1031 5.1678 12.2422 5.04963 12.4134 5.05512C12.5846 5.06032 12.7159 5.18688 12.7075 5.33294Z" fill="#FFE15A"/>
<path d="M12.2884 5.99597C12.2843 6.14246 12.156 6.25763 12.0017 6.25758C11.8474 6.25749 11.7191 6.14246 11.7149 5.99597C11.7109 5.84996 11.8392 5.72729 12.0017 5.72766C12.1641 5.72738 12.2924 5.84986 12.2884 5.99597Z" fill="#FFE15A"/>
</g>
<defs>
<clipPath id="clip0_8615_27708">
<path d="M0 2C0 0.895432 0.895431 0 2 0H21.9998C23.1043 0 23.9998 0.895431 23.9998 2V21.9998C23.9998 23.1043 23.1043 23.9998 21.9998 23.9998H2C0.895432 23.9998 0 23.1043 0 21.9998V2Z" fill="white"/>
</clipPath>
</defs>
</svg>
