<svg width="24" height="24" viewBox="0 0 24 24" fill="none" xmlns="http://www.w3.org/2000/svg">
<g clip-path="url(#clip0_8615_27696)">
<path d="M24.0017 0H0.00195312V23.9998H24.0017V0Z" fill="#41479B"/>
<path d="M24.0017 16.4211H0.00195312V19.5791H24.0017V16.4211Z" fill="#FFE15A"/>
<path d="M8.51082 5.909L7.88964 7.77161L5.92625 7.78684C5.73795 7.7883 5.65991 8.02858 5.81136 8.14042L7.39084 9.3068L6.79858 11.1788C6.74177 11.3584 6.94619 11.5069 7.09938 11.3974L8.69677 10.2556L10.2942 11.3974C10.4473 11.5069 10.6517 11.3584 10.595 11.1788L10.0027 9.3068L11.5822 8.14042C11.7336 8.02858 11.6556 7.7883 11.4673 7.78684L9.5039 7.77161L8.88272 5.909C8.823 5.73036 8.57039 5.73036 8.51082 5.909Z" fill="#F5F5F5"/>
<path d="M4.03552 2.47185L3.67595 3.54996L2.53952 3.55873C2.43054 3.55957 2.38535 3.69865 2.473 3.76338L3.38725 4.43847L3.04445 5.52202C3.01159 5.62594 3.1299 5.71186 3.21854 5.64849L4.14314 4.98765L5.06774 5.64849C5.15638 5.71186 5.2747 5.62589 5.24184 5.52202L4.89904 4.43847L5.81328 3.76338C5.90094 3.69865 5.85575 3.55957 5.74677 3.55873L4.61034 3.54991L4.25077 2.4718C4.21622 2.36844 4.06997 2.36844 4.03552 2.47185Z" fill="#F5F5F5"/>
</g>
<defs>
<clipPath id="clip0_8615_27696">
<path d="M0 2C0 0.895432 0.895431 0 2 0H21.9998C23.1043 0 23.9998 0.895431 23.9998 2V21.9998C23.9998 23.1043 23.1043 23.9998 21.9998 23.9998H2C0.895432 23.9998 0 23.1043 0 21.9998V2Z" fill="white"/>
</clipPath>
</defs>
</svg>
