<?xml version="1.0" encoding="utf-8"?>
<!-- Generator: Adobe Illustrator 28.1.0, SVG Export Plug-In . SVG Version: 6.00 Build 0)  -->
<svg version="1.1" id="Layer_1" xmlns="http://www.w3.org/2000/svg" xmlns:xlink="http://www.w3.org/1999/xlink" x="0px" y="0px"
	 viewBox="0 0 512 512" style="enable-background:new 0 0 512 512;" xml:space="preserve">
<g>
	<defs>
		<path id="SVGID_1_" d="M512,400V112C512,50.1,461.9,0,400,0H112C50.2,0,0,50.1,0,112v288c0,61.8,50.2,112,112,112h288
			C461.9,512,512,461.9,512,400z"/>
	</defs>
	<clipPath id="SVGID_00000031894894098561848400000003906025650526264227_">
		<use xlink:href="#SVGID_1_"  style="overflow:visible;"/>
	</clipPath>
	<g style="clip-path:url(#SVGID_00000031894894098561848400000003906025650526264227_);">
		<rect x="-65.8" y="-20" fill="#FFFFFF" width="641.7" height="550.2"/>
		<path id="branch" fill="#4E5B31" d="M264.4,402.5c-0.1,0-0.2-0.1-0.2-0.2l-0.1-0.1c-0.4-0.4-0.8-0.8-1.1-1.2
			c-0.9-1.1-2.2-2.7-3.3-4.1c-2.2-2.8-4.1-5.2-4.4-5.6l-0.6-0.7l-5.5-1.7l-4-1.9l2.2-2.4l7.4,3.2l5.5,1.1l10.2,7.5l0,0
			c0,0-1.5,1.2-2.9,2.6c-0.7,0.6-1.5,1.4-2.1,2c-0.2,0.3-0.5,0.5-0.7,0.8C264.6,402,264.5,402.3,264.4,402.5 M226.4,391
			c-5,0-9.9-1.4-14.2-4h0v0c0.5-0.9,1.2-1.6,2.1-2.2c1.4-1,3.9-2.2,7.9-2.2h0.1c4.8,0,10.6,1.6,17.4,4.8
			C235.6,389.8,231,391.1,226.4,391L226.4,391L226.4,391z M205.4,386.4c-0.9,0-1.7-0.3-2.3-1c-0.5-0.6-0.9-1.3-1-2.1
			c-0.2-1-0.3-2-0.3-3c0.4-0.2,0.7-0.2,1.1-0.3h0.1c1.8,0,3.2,1.6,3.8,3.1c0.3,0.7,0.4,1.5,0.2,2.2
			C206.8,386.1,206.1,386.4,205.4,386.4L205.4,386.4z M242.3,382.1c-12.4-1.8-17.6-6.2-19.8-9.7c-1.4-2.1-2.1-4.6-1.9-7.1v0h0
			c0.6-0.1,1.3-0.2,1.9-0.2C225.7,365.1,234.2,366.8,242.3,382.1L242.3,382.1L242.3,382.1L242.3,382.1z M216.9,379.7
			c-5.3,0-9.3-0.9-12-2.7c-1.1-0.7-2-1.7-2.6-2.9c-0.2-0.5-0.4-0.9-0.4-1.4c1.8-0.7,3.6-1.1,5.5-1.2c0.3,0,0.5,0,0.8,0
			c4.1,0,10.3,1.3,16.9,7.7l0,0h0C222.4,379.5,219.6,379.7,216.9,379.7L216.9,379.7z M191.3,378.7c-5.6,0-13.2-1.7-18-6.5l0,0h0
			c3.6-0.9,7.3-1.4,11.1-1.5c0.3,0,0.7,0,1.1,0c5.2,0,9.2,1,11.9,3c0.7,0.4,1.3,1.2,1.6,2c0.1,0.6-0.2,1.2-0.8,1.5
			c-1.2,0.9-3.3,1.4-6.4,1.4L191.3,378.7L191.3,378.7z M173.2,369.4c-0.7,0-1.3-0.3-1.8-0.8c-0.4-0.5-0.7-1.1-0.8-1.8
			c-0.2-0.9-0.3-1.7-0.2-2.6v0c0.3-0.1,0.6-0.2,0.9-0.2l0,0c0.7,0,1.4,0.3,1.8,0.8c0.5,0.5,1,1.2,1.2,1.9c0.3,0.6,0.3,1.3,0.1,1.9
			C174.3,369.1,173.8,369.4,173.2,369.4L173.2,369.4z M215,368.5c-0.9,0-1.7-0.3-2.3-1c-0.5-0.6-0.9-1.3-1-2.1c-0.2-1-0.3-2-0.3-3
			c0.4-0.2,0.7-0.2,1.1-0.3h0.1c1.8,0,3.2,1.6,3.8,3.1c0.3,0.7,0.4,1.5,0.2,2.2C216.3,368.1,215.7,368.5,215,368.5L215,368.5z
			 M194.6,367.6c-11.2-0.4-17-3.6-20-6.2c-1.2-1.1-2.3-2.4-3-3.9c-0.3-0.6-0.5-1.1-0.6-1.7l0,0c0.9-0.3,1.8-0.4,2.8-0.4h0.3
			C177.8,355.4,185.5,357,194.6,367.6L194.6,367.6L194.6,367.6z M206.8,366.5c-9-1.4-14.1-5.2-16.8-8.3c-1.7-1.8-2.9-3.9-3.7-6.2
			c0.9-0.2,1.8-0.3,2.8-0.3c0.1,0,0.2,0,0.4,0s0.3,0,0.4,0C194.4,351.8,202.6,353.8,206.8,366.5L206.8,366.5L206.8,366.5z
			 M160.5,362.2c-2.9,0-5.7-0.3-8.5-1c-4.7-1.2-6.8-3-7.6-4.3c-0.4-0.5-0.6-1.2-0.7-1.8c0-0.3,0-0.5,0-0.8l0,0
			c2.4-0.6,4.9-0.9,7.5-0.9c0.2,0,0.3,0,0.5,0c2,0,4.1,0.2,6.1,0.6c4.6,1,8.6,3.5,11.4,7.2v0h0C166.3,361.9,163.4,362.2,160.5,362.2
			L160.5,362.2z M181.4,354.6c-0.9,0-1.7-0.3-2.3-0.9c-0.5-0.6-0.9-1.3-1-2.1c-0.2-1-0.3-2-0.3-3c0.4-0.2,0.7-0.2,1.1-0.3h0.1
			c1.8,0,3.2,1.6,3.8,3.1c0.3,0.7,0.4,1.4,0.2,2.2C182.8,354.2,182.1,354.6,181.4,354.6L181.4,354.6z M165.7,352.4
			c-3-0.8-5.9-2.1-8.5-3.7c-4-2.4-8.8-6.7-9.4-13.4l0,0h0c0.3-0.1,0.6-0.1,0.9-0.1c0.1,0,0.2,0,0.2,0c1.2,0,3.6,0.3,6.5,2.6
			C159.2,340.5,162.6,345.5,165.7,352.4L165.7,352.4z M176,352c-2.4-1.1-4.7-2.6-6.8-4.3c-5.2-4.5-9.3-10.2-11.9-16.6
			c0.6-0.3,1.3-0.5,2.1-0.5c0.1,0,0.1,0,0.2,0c0.1,0,0.2,0,0.3,0c1.7,0,4.3,0.8,7.2,3.9C170.5,338,173.4,343.9,176,352L176,352
			L176,352L176,352z M149.3,351.2c-3.4,0-4.6-1.9-5-2.7c-0.3-0.8-0.5-1.7-0.4-2.6v0c0.6-0.1,1.1-0.2,1.7-0.2h0.1
			c2.2-0.1,4.4,1,5.8,2.7c0.2,0.3,0.7,1.2,0.3,1.9C151.4,351,150.6,351.2,149.3,351.2L149.3,351.2z M141.7,341.6
			c-2.7,0-5.3-0.2-7.9-0.7c-3.1-0.6-4.8-3.2-5.7-5.2c-0.6-1.4-1-2.9-1.3-4.5h0c9.5,0.3,13.9,3,16,5.3c1.3,1.3,2.1,3.1,2.3,4.9h0
			C145,341.5,143.7,341.6,141.7,341.6L141.7,341.6z M151.5,331.8c0,0-1.1-1.4-2.2-3c-1.1-1.7-2.2-3.6-2.2-5.1c0-1.4-0.3-4.5-0.5-6.1
			c-0.3-2.1-0.5-4-0.5-4.1h0c0.2,0.1,5.9,2.2,5.9,7.6S151.6,331.7,151.5,331.8L151.5,331.8L151.5,331.8L151.5,331.8z M144.2,331.3
			c-0.1,0-0.1,0-0.2,0c-1.7-0.3-4.6-1.6-7.9-3.4c-3.6-2.1-6.6-4.3-8.3-6.3c-1.6-1.8-2.5-4.6-2.8-8.4c-0.1-1.7-0.1-3.4,0.1-5.1
			c0.3-0.1,0.6-0.1,0.9-0.1c1.3,0,2.6,0.6,4.4,1.8c1.7,1.2,3.2,2.5,4.6,3.9c1.8,1.8,3.5,3.7,5.1,5.7l0,0c0.2,0.3,1.8,3.3,3.1,6.1
			c0.6,1.3,1.1,2.7,1.4,4.1c0.1,0.4,0.1,0.9,0,1.3c-0.1,0.1-0.1,0.2-0.3,0.3C144.4,331.3,144.3,331.3,144.2,331.3L144.2,331.3z"/>
		<g transform="matrix(-1,0,0,1,900,0)">
			<path id="branch_00000033371249919856425490000017848098137415874491_" fill="#4E5B31" d="M245.7,402.5c0.1,0,0.2-0.1,0.2-0.2
				l0.1-0.1c0.4-0.4,0.8-0.8,1.1-1.2c0.9-1.1,2.2-2.7,3.3-4.1c2.2-2.8,4.1-5.2,4.4-5.6l0.6-0.7l5.5-1.7l4-1.9l-2.2-2.4l-7.4,3.2
				l-5.5,1.1l-10.2,7.5l0,0c0,0,1.5,1.2,2.9,2.6c0.7,0.6,1.5,1.4,2.1,2c0.2,0.3,0.5,0.5,0.7,0.8C245.5,402,245.6,402.3,245.7,402.5
				 M283.8,391c5,0,9.9-1.4,14.2-4h0v0c-0.5-0.9-1.2-1.6-2.1-2.2c-1.4-1-3.9-2.2-7.9-2.2h-0.1c-4.8,0-10.6,1.6-17.4,4.8
				C274.5,389.8,279.1,391.1,283.8,391L283.8,391L283.8,391z M304.7,386.4c0.9,0,1.7-0.3,2.3-1c0.5-0.6,0.9-1.3,1-2.1
				c0.2-1,0.3-2,0.3-3c-0.4-0.2-0.7-0.2-1.1-0.3H307c-1.8,0-3.2,1.6-3.8,3.1c-0.3,0.7-0.4,1.5-0.2,2.2
				C303.3,386.1,304,386.4,304.7,386.4L304.7,386.4z M267.8,382.1c12.4-1.8,17.6-6.2,19.8-9.7c1.4-2.1,2.1-4.6,1.9-7.1v0h0
				c-0.6-0.1-1.3-0.2-1.9-0.2C284.4,365.1,275.9,366.8,267.8,382.1L267.8,382.1L267.8,382.1L267.8,382.1z M293.2,379.7
				c5.3,0,9.3-0.9,12-2.7c1.1-0.7,2-1.7,2.6-2.9c0.2-0.5,0.4-0.9,0.4-1.4c-1.8-0.7-3.6-1.1-5.5-1.2c-0.3,0-0.5,0-0.8,0
				c-4.1,0-10.3,1.3-16.9,7.7l0,0h0C287.7,379.5,290.5,379.7,293.2,379.7L293.2,379.7z M318.8,378.7c5.6,0,13.2-1.7,18-6.5l0,0h0
				c-3.6-0.9-7.3-1.4-11.1-1.5c-0.3,0-0.7,0-1.1,0c-5.2,0-9.2,1-11.9,3c-0.7,0.4-1.3,1.2-1.6,2c-0.1,0.6,0.2,1.2,0.8,1.5
				c1.2,0.9,3.3,1.4,6.4,1.4L318.8,378.7L318.8,378.7z M336.9,369.4c0.7,0,1.3-0.3,1.8-0.8c0.4-0.5,0.7-1.1,0.8-1.8
				c0.2-0.9,0.3-1.7,0.2-2.6v0c-0.3-0.1-0.6-0.2-0.9-0.2l0,0c-0.7,0-1.4,0.3-1.8,0.8c-0.5,0.5-1,1.2-1.2,1.9
				c-0.3,0.6-0.3,1.3-0.1,1.9C335.8,369.1,336.3,369.4,336.9,369.4L336.9,369.4z M295.2,368.5c0.9,0,1.7-0.3,2.3-1
				c0.5-0.6,0.9-1.3,1-2.1c0.2-1,0.3-2,0.3-3c-0.4-0.2-0.7-0.2-1.1-0.3h-0.1c-1.8,0-3.2,1.6-3.8,3.1c-0.3,0.7-0.4,1.5-0.2,2.2
				C293.8,368.1,294.4,368.5,295.2,368.5L295.2,368.5z M315.5,367.6c11.2-0.4,17-3.6,20-6.2c1.2-1.1,2.3-2.4,3-3.9
				c0.3-0.6,0.5-1.1,0.6-1.7l0,0c-0.9-0.3-1.8-0.4-2.8-0.4h-0.3C332.3,355.4,324.6,357,315.5,367.6L315.5,367.6L315.5,367.6z
				 M303.3,366.5c9-1.4,14.1-5.2,16.8-8.3c1.7-1.8,2.9-3.9,3.7-6.2c-0.9-0.2-1.8-0.3-2.8-0.3c-0.1,0-0.2,0-0.4,0s-0.3,0-0.4,0
				C315.8,351.8,307.5,353.8,303.3,366.5L303.3,366.5L303.3,366.5z M349.6,362.2c2.9,0,5.7-0.3,8.5-1c4.7-1.2,6.8-3,7.6-4.3
				c0.4-0.5,0.6-1.2,0.7-1.8c0-0.3,0-0.5,0-0.8l0,0c-2.4-0.6-4.9-0.9-7.5-0.9c-0.2,0-0.3,0-0.5,0c-2,0-4.1,0.2-6.1,0.6
				c-4.6,1-8.6,3.5-11.4,7.2v0h0C343.8,361.9,346.7,362.2,349.6,362.2L349.6,362.2z M328.7,354.6c0.9,0,1.7-0.3,2.3-0.9
				c0.5-0.6,0.9-1.3,1-2.1c0.2-1,0.3-2,0.3-3c-0.4-0.2-0.7-0.2-1.1-0.3H331c-1.8,0-3.2,1.6-3.8,3.1c-0.3,0.7-0.4,1.4-0.2,2.2
				C327.3,354.2,328,354.6,328.7,354.6L328.7,354.6z M344.4,352.4c3-0.8,5.9-2.1,8.5-3.7c4-2.4,8.8-6.7,9.4-13.4l0,0h0
				c-0.3-0.1-0.6-0.1-0.9-0.1c-0.1,0-0.2,0-0.2,0c-1.2,0-3.6,0.3-6.5,2.6C351,340.5,347.5,345.5,344.4,352.4L344.4,352.4z
				 M334.2,352c2.4-1.1,4.7-2.6,6.8-4.3c5.2-4.5,9.3-10.2,11.9-16.6c-0.6-0.3-1.3-0.5-2.1-0.5c-0.1,0-0.1,0-0.2,0
				c-0.1,0-0.2,0-0.3,0c-1.7,0-4.3,0.8-7.2,3.9C339.6,338,336.7,343.9,334.2,352L334.2,352L334.2,352L334.2,352z M360.8,351.2
				c3.4,0,4.6-1.9,5-2.7c0.3-0.8,0.5-1.7,0.4-2.6v0c-0.6-0.1-1.1-0.2-1.7-0.2h-0.1c-2.2-0.1-4.4,1-5.8,2.7c-0.2,0.3-0.7,1.2-0.3,1.9
				C358.7,351,359.5,351.2,360.8,351.2L360.8,351.2z M368.4,341.6c2.7,0,5.3-0.2,7.9-0.7c3.1-0.6,4.8-3.2,5.7-5.2
				c0.6-1.4,1-2.9,1.3-4.5h0c-9.5,0.3-13.9,3-16,5.3c-1.3,1.3-2.1,3.1-2.3,4.9h0C365.1,341.5,366.4,341.6,368.4,341.6L368.4,341.6z
				 M358.6,331.8c0,0,1.1-1.4,2.2-3c1.1-1.7,2.2-3.6,2.2-5.1c0-1.4,0.3-4.5,0.5-6.1c0.3-2.1,0.5-4,0.5-4.1h0
				c-0.2,0.1-5.9,2.2-5.9,7.6S358.6,331.7,358.6,331.8L358.6,331.8L358.6,331.8L358.6,331.8z M365.9,331.3c0.1,0,0.1,0,0.2,0
				c1.7-0.3,4.6-1.6,7.9-3.4c3.6-2.1,6.6-4.3,8.3-6.3c1.6-1.8,2.5-4.6,2.8-8.4c0.1-1.7,0.1-3.4-0.1-5.1c-0.3-0.1-0.6-0.1-0.9-0.1
				c-1.3,0-2.6,0.6-4.4,1.8c-1.7,1.2-3.2,2.5-4.6,3.9c-1.8,1.8-3.5,3.7-5.1,5.7l0,0c-0.2,0.3-1.8,3.3-3.1,6.1
				c-0.6,1.3-1.1,2.7-1.4,4.1c-0.1,0.4-0.1,0.9,0,1.3c0.1,0.1,0.1,0.2,0.3,0.3C365.7,331.3,365.8,331.3,365.9,331.3L365.9,331.3z"/>
		</g>
		<path fill="#D57800" d="M452.7,115.3L451,116l-0.7,0.3l-2-0.1l-1.9,0.9l-3.4,2.3l-0.1,0.1l-1.3,0.3l-1.2-0.5l-0.7,0.3l-0.2,1.4
			l-0.6,1l-0.8,0.5l-2.7,0.3l-2.3,1.2l-3-0.8l-1.4,0.5l-2.9,2.6l-1.5,0.7l-0.5,0l-2-0.1l-0.8,0.3l-1.2,1.2l-2.4,0.2l-0.7,0.5
			l-1.2,2.3l-1.2,1.3l-0.7,0.2l-0.8-0.3l-0.6,0.1l-0.3,1.5l-0.6,0.6l-1.6,0.5l-1.3,1.1l-1.1,0.6l-1.5,0h-0.3l-1.5,0.8l-2.8,0.2
			l-1.2,1.1l-0.3,0.2l-0.5,0.3l-0.9,0.5l-0.2,0.1l-1.1-0.2l-1.2,0.5l-0.5-0.8l-0.9,0.5l-1.1,0l-1.4-0.6l-1.1-0.5l-0.8,0.1l-0.3,1.4
			l0,0.1L389,142l-1.6,0.9l-0.2,0.3l-1.8,2.3l-3.4,3.5l-2.8,1.4l-3,0.9l-2.1,1.7l-5.4,2.7l-8.6,4.3l-1.7,0.6L356,161l-4.5,1.6
			l-3.9,1.2l-0.2,0.1l-0.8,0.2l-5.6,1.7l-2.6-0.3l-1.5,0.6l-4-0.4l-2.8,0.1l-1.8,0.4l-3.3,1.6l-5.6,2.7l-1.8,1.7l-2.9,1.5l-3.4,1.1
			l0-1.4l0-0.1l-1.2,0.4l-0.8,0.3l-2.7,0.4h-1.5l-0.9-0.3l-0.1,0l-5.6,1.8l-6.2,0.6l-3.1,1l-2.3,0l-1.5,0.4l-2.9,0.3l-1-0.3
			l-0.2-0.1l-8.4,0.4l-3.8-0.4l-1.8,0.4l-3.1-1l-4.5-0.5l-1-0.3l-2.4-0.7l-1.1,0.6l-0.8,0.1l-1.9-0.7l-0.7,0l-1.6,0.6l-0.9-0.2
			l-0.8-0.7l-2-0.3l-1.2-1l-6.7,0.9l-1.8-0.5l-6.1-1.8l-1,0l-1.2,0.9l-1.8,0.7l-1.6,0.4l-2.1,0.1l-2.5-0.7l-2.6-1.2l-1-0.2l-2.1,0.2
			l-0.6,0.1l-3.9-2.1l-5-3.1l-3.4-1.6l-1.3-0.2l-0.2,0.6l0.6,2l0.2,2l-0.1,1.8l0,1.1l0.3,1l1.2,1.4l0.5,1.4l0.4,3.8l0,3.8l-0.6,6.1
			l-0.2,0.9l-0.7,3.2l-0.7,2.9l-2.5,7.7l-0.7,1l-1.7,1.2l-3.9,2.6l-2.8,1.6l-0.9,0.4l-2.3,0.2l-1.4-0.1l-1.8-1l-1.8-0.5l-2.3-1.7
			l-2.6-0.5L174,207l-0.7-0.9l-1.5-0.1l-2.1-0.6v0l-0.8-0.2l-0.5-0.2l0,0l-2.7-0.1l-2.5-1.2l-1.3-0.3l-1.8-0.1l-1.9,0.9l0,0l-1,0.4
			l-1.2-0.5l-0.9,0.1l-1,1.5l-0.1,0.2l-0.7,0.4l-0.9,0l-0.7,0l-0.7,0.3l-1,0.4l0,0l-0.9,0.4l-0.4,0.2l0,0l-0.3,0.1l-0.5,0.1
			l-0.6,0.1l-1-0.6l-0.5-0.3l-0.9-0.2l-0.5,0.3l-0.1,1.6l-0.4,1l-1.4,1.2l-1.4,1.3l-1,1.5l-2.6,6l-1.6,2.4l-0.5,0.6l-1.7,1.9
			l-1.5,1.2l-3.5,2.7l-3.3,1.2l-2.9,0.6l-1.4,0l-2.6-0.4l-2.4-0.7l-2.6-1.6l-2.9-2.3l-4.1-4.1l-0.6-0.4l-0.1-0.1l-1.3-0.8l-1,0
			l-0.4,0.6l-0.2,0.9l-0.2,0.8l-0.5,4.5l0,0.3l0.2,1.9l3.1,4.4l1,2.3l0.2,0.3l0.6,1.1l0.5,0.8l0,0.1l1.1,3.2l-0.8,1.8l0.4,1.2
			l-1,0.7l-0.2,1l2.8,3.5l0.6,1.6l-0.7,2.2l-1.1,1.2l-0.3,0.3l0.2,0.9l1.3,1.2l2.2,2l1.2,2.9l0.9,0.8l1-0.2l0.6,0.4l0.9,0l0.9,0.9
			l0.6,0.3l0.9,0.4l0.7,0.9l0.2,2.8l1.3,3.5l0,1.9l0,0.3l0.8,1.4l0.3,1.1l-0.4,2.9l1,0.9l1.1-0.2l0.7,0.1l1.2,1l1.4,2.1l1.4-0.2
			l0.9,0.4l4.2,3.8l1,0.5l0.1,0l0.7,0.3l0.9,0.9l1.3-0.9l0.1,0l1.4-0.1l0.6,0.4l1.2,0.8l1.6,0l3.5,1.1l1.5,0.4l3,1.9l1.3,0.8
			l0.8,0.6l1,0.8l2,0.9l1.7,0.4l0.9,0.2l0.7,0.3l0,0h0l0,0l3.8,1.4l2,0.5l1.9,0.7l1.4,0.5l1,0l1.4-1.2l1.4-0.1l1.1,0.3l1.1-0.2
			l1.8-1.1l0.3-0.5l1.3-0.6l4.2-0.5l1.2,0.4l3.2-1.4l2.1,0.6l1.9-0.7l4.1,0.9l1.1,0.8l1.2,1.4l0.1,0l1.4,0l-0.6,0.9l1.8,1.9l1.6,2.5
			l0.1,0.3l1.2,3.5l0.9,1.2l0.6,1.7l0,1.1l-1,0.7l-0.2,0.4l-0.1,0.2l0.2,0.5l0.4-0.2l0.7-0.4l0.8-0.1l1.5,0.2l1,0.1l1.5-0.8l1-0.5
			l1.6,0.7l1.8,0l0.8,0.3l2.1,1l1.1,0.1l0.4-0.3l0.3-0.6l-0.1-0.7l-0.8-0.9l-1.8-2.1l-0.7-1.1l-0.6-1.6l-0.2-2l-0.1-1.3l0.2-1.8
			l0.5-0.6l0.4-1.4h0l0.1-0.4l1-1.3l2.7-1.7l2.9-2.6l2.3-1.5l2.3-1l0.1-0.3l0.3,0.1l5.9-2l0.1,0l2.6-0.5l17.8,1.3l0.7-0.2v0l0.6-1.7
			l0.3-0.3l0.2-0.2l2-0.9l0.9-0.1l2.5,0.6l1,0.3l1.7-0.9l1.2,0l2.4-1.3l1.5,0l0.6-0.2l2.9-2.1l2.8-0.8l0.7-0.4l0.3-0.1l2.9-1.5
			l1.8-1.4l1.6-0.8l1.7-0.4l4.5-0.3l0.9-1.5l2-0.3l1.2-1.3l1.4-0.5l1-1.4l0.8-1.2l1.1-0.7l3.6-0.2l4.3,0.5l0.6-0.3l1-3.5l1-0.7
			l2.7-4l0-1.5v-1.2l0.5-1.7l-0.3-3.1l0.4-3.2l1.7-4l1.5-1.6l2.4-1.6l1.2-0.5l1.7-0.3v0l0.3,0l0.4-0.1l6-0.1c0.1-0.1,2.2,0,2.2,0
			l2,0l5.1,0.9l0.4,0.1l1.7,0.6l2,1.5l2.1,2l0.4,0.4l1.4,0.6l0.4,0.2l1.1-0.2l1.6-0.8l1.2-1l1.6-0.9l0-0.1l0.9-1.4l0,0l0,0v0h0
			l0.4-0.6l3.2-1.2l3.7-0.2l0.4-0.2l0.2-0.1l1-1.2l0.9,0l2.2,0.8l1.6-0.3l1.2,0.5l1-0.1l1.8-0.2l2,1.4l1.1,0.1l4,2.4l0.2,0l0.1,0
			l0.2,0l0.5-0.1l0.7-0.2l0.1,0l0.1,0.1l0.5,0.6l0.6,0.1l0.7-1l-0.3-0.5l-0.1-0.2l-1.4-0.3l-1.3-2.2l1.2-1.3l-1.9-2.4l-0.3-0.4
			l-0.1-0.2l-0.7-1l-3.4-5.2l-4.4-3.5l0,0l-1.5-1.2l0,0l-0.5-0.4l-2.4-2.4l-1.7-2.2l-0.2-0.5l-0.3-0.8l-1-2.2l-1.8-1.4l-1.4-1.6
			l-0.1-0.1l-3-4l-0.5-0.7l-0.7-0.4l-1.5,0l-0.1-0.1l-0.1-0.1l0-0.1l0.7-0.7l0.8-0.2l0.3-0.8l-1.5-4.3l0-0.2l-0.1-1.4l1.2-6.3
			l0.2-0.8l2.1-4.2l1.3-1.1l1.4-2.8l1.2-1.8l1.2-1.1l0.2-0.1l2.1-1.3l1.8-0.2l1.7-0.2l2.9,0.9l2.8-0.1l0.5-0.1l1.3-0.1l2.1-0.7
			l1-0.6l0.5-0.8l1.1-3.6l0.3-1.1l0.7-1.2l3.8-4.4l2.9-2.6l6.4-4.7l3.1-1.9l1.6-1l14.4-6.4l3.7-3.8l1.9-2l3.4-2.3l4-1.6l3.5-2.7
			l0.8-1l1-3.1l0.8-0.2l0.7-1.6l0.2-0.4l2.8-2l0.3-0.2l11-5.5l1.6,0.2l0.9-1.3l3.2-0.5l0.6-0.1l0.8-0.4l0.7-1.1v-0.2l0.1-3l0.7-0.8
			l0.4-2l0.4-0.5l0.4-0.5l0.9-0.6L452.7,115.3L452.7,115.3z"/>
	</g>
</g>
</svg>
