<svg width="24" height="24" viewBox="0 0 24 24" fill="none" xmlns="http://www.w3.org/2000/svg">
<g clip-path="url(#clip0_8615_27705)">
<path d="M24.0012 0H0.00146484V23.9998H24.0012V0Z" fill="#82AFFF"/>
<path d="M22.4027 0L0.00292969 17.684V18.9472L24.0027 0H22.4027Z" fill="#FFE15A"/>
<path d="M1.6029 23.9998L24.0027 6.31579V5.05261L0.00292969 23.9998H1.6029Z" fill="#FFE15A"/>
<path d="M24.0012 0L0.00146484 18.9472V23.9998L24.0012 5.05256V0Z" fill="#FF4B55"/>
<path d="M5.7521 2.86255L6.34825 4.65011L8.23256 4.66474C8.33794 4.66553 8.38163 4.80002 8.29688 4.86259L6.78105 5.98196L7.34945 7.77856C7.38123 7.87902 7.26686 7.96212 7.18112 7.90086L5.64809 6.80512L4.11506 7.90086C4.02932 7.96212 3.91495 7.87902 3.94673 7.77856L4.51513 5.98196L2.9993 4.86259C2.91455 4.80002 2.95824 4.66553 3.06362 4.66474L4.94792 4.65011L5.54412 2.86255C5.57736 2.76261 5.71878 2.76261 5.7521 2.86255Z" fill="#FFE15A"/>
</g>
<defs>
<clipPath id="clip0_8615_27705">
<path d="M0 2C0 0.895432 0.895431 0 2 0H21.9998C23.1043 0 23.9998 0.895431 23.9998 2V21.9998C23.9998 23.1043 23.1043 23.9998 21.9998 23.9998H2C0.895432 23.9998 0 23.1043 0 21.9998V2Z" fill="white"/>
</clipPath>
</defs>
</svg>
