<svg width="24" height="24" viewBox="0 0 24 24" fill="none" xmlns="http://www.w3.org/2000/svg">
<g clip-path="url(#clip0_8615_27609)">
<path d="M24.0007 0H0.000976562V11.9999H24.0007V0Z" fill="#82AFFF"/>
<path d="M24.0007 12H0.000976562V23.9999H24.0007V12Z" fill="#73AF00"/>
<path d="M0.000976562 23.9998L12.0009 11.9999L0.000976562 0V23.9998Z" fill="#F5F5F5"/>
<path d="M2.82087 14.6193L3.38922 12.6791L1.7375 11.5133C1.64694 11.4493 1.68988 11.307 1.80064 11.3037L3.8215 11.2447L4.41985 9.31353C4.45266 9.20764 4.60135 9.20445 4.63866 9.30884L5.31928 11.2126L7.34079 11.1849C7.4516 11.1834 7.50059 11.3238 7.41288 11.3915L5.81268 12.6271L6.46367 14.5411C6.49935 14.6461 6.38094 14.736 6.2894 14.6735L4.61982 13.5335L3.00063 14.7441C2.91185 14.8104 2.7897 14.7256 2.82087 14.6193Z" fill="#FF4B55"/>
</g>
<defs>
<clipPath id="clip0_8615_27609">
<path d="M0 2C0 0.895432 0.895431 0 2 0H21.9998C23.1043 0 23.9998 0.895431 23.9998 2V21.9998C23.9998 23.1043 23.1043 23.9998 21.9998 23.9998H2C0.895432 23.9998 0 23.1043 0 21.9998V2Z" fill="white"/>
</clipPath>
</defs>
</svg>
