<svg width="24" height="24" viewBox="0 0 24 24" fill="none" xmlns="http://www.w3.org/2000/svg">
<g clip-path="url(#clip0_8615_27668)">
<path d="M24.0007 0H0.000976562V23.9998H24.0007V0Z" fill="#73AF00"/>
<path d="M24.0007 9.47339H0.000976562V11.1576H24.0007V9.47339Z" fill="#FFE15A"/>
<path d="M24.0007 11.1576H0.000976562V12.8418H24.0007V11.1576Z" fill="#464655"/>
<path d="M24.0007 12.8418H0.000976562V14.526H24.0007V12.8418Z" fill="#F5F5F5"/>
<path d="M11.1583 0H9.47412V23.9998H11.1583V0Z" fill="#FFE15A"/>
<path d="M12.8429 0H11.1587V23.9998H12.8429V0Z" fill="#464655"/>
<path d="M14.527 0H12.8428V23.9998H14.527V0Z" fill="#F5F5F5"/>
<path d="M17.0987 8.04967C21.126 14.4012 14.4021 21.1251 8.05055 17.0978C7.58846 16.8048 7.19589 16.4123 6.90287 15.9501C2.8756 9.59864 9.59952 2.87472 15.9511 6.90204C16.4132 7.19506 16.8057 7.58758 17.0987 8.04967Z" fill="#FF4B55"/>
<path d="M11.4584 13.0863C11.4584 13.0863 11.3847 13.6026 11.8862 14.3696H12.8597L12.6385 13.4403L11.4584 13.0863Z" fill="#73AF00"/>
<path d="M11.3898 9.62971C11.3898 9.62971 9.79676 12.2357 12.1372 13.7894L12.3831 12.3144L12.5404 10.4066L12.2946 9.59033L11.3898 9.62971Z" fill="#A561CD"/>
<path d="M11.39 9.62966C11.39 9.62966 11.208 9.9328 11.0571 10.3889C11.2622 10.6032 11.8227 10.8688 12.5121 10.7524L12.5406 10.4066L12.2947 9.59033L11.39 9.62966Z" fill="#73AF00"/>
<path d="M11.085 9.25606C11.085 9.25606 11.1046 8.73486 11.616 8.73486C12.2552 8.73486 12.7764 8.88238 13.6025 10.5935C13.6025 10.5935 12.8677 11.3147 12.4027 10.3181C12.265 10.0231 12.2159 9.66912 12.2159 9.66912C12.2159 9.66912 11.6455 9.86581 11.2521 9.63964L11.085 9.25606Z" fill="#A561CD"/>
<path d="M11.3403 9.50186L11.2223 9.18719C11.2223 9.18719 10.5634 9.079 10.8388 9.87559C10.8388 9.87559 10.8584 9.71823 11.0256 9.73792C11.1928 9.7576 11.3698 9.62968 11.3403 9.50186Z" fill="#FFE15A"/>
<path d="M12.4455 12.4913C12.4455 12.4913 11.7523 13.0345 12.1406 14.3106C12.3472 14.9892 13.1732 15.7341 13.1732 15.7341C13.1732 15.7341 13.7854 14.1336 13.5862 13.5141C13.4691 13.1494 12.4455 12.4913 12.4455 12.4913Z" fill="#73AF00"/>
<path d="M13.7637 14.5467C13.7637 14.5467 11.974 12.8405 11.8559 11.4981C11.7379 10.1558 12.512 10.3689 12.6525 10.4557C12.9868 10.6622 13.8326 11.5276 13.7637 14.5467Z" fill="#73AF00"/>
<path d="M13.5829 14.9375H10.5291C10.4925 14.9375 10.4629 14.9079 10.4629 14.8714V14.5612C10.4629 14.5246 10.4925 14.495 10.5291 14.495H13.5829C13.6195 14.495 13.6491 14.5246 13.6491 14.5612V14.8714C13.649 14.9079 13.6194 14.9375 13.5829 14.9375Z" fill="#B34900"/>
<path d="M12.8155 14.5172C12.7124 14.5601 12.5058 14.613 12.5574 14.7974C12.597 14.9387 12.8672 14.9228 12.8155 15.0851C12.7806 15.1947 12.2318 15.2049 12.019 15.1736C11.8886 15.1544 11.606 15.0777 11.6453 14.7531C11.6846 14.4286 11.8027 14.3787 11.9502 14.3204C12.0965 14.2626 12.7365 14.2754 12.8303 14.3548C12.8783 14.3955 12.8937 14.4847 12.8155 14.5172Z" fill="#FFE15A"/>
<path d="M12.0559 6.35779L12.1997 6.7888L12.654 6.79232C12.7129 6.79278 12.7372 6.86783 12.6899 6.9028L12.3244 7.1727L12.4615 7.60592C12.4792 7.66203 12.4154 7.70838 12.3675 7.67421L11.9978 7.40998L11.6282 7.67421C11.5803 7.70843 11.5165 7.66203 11.5342 7.60592L11.6713 7.1727L11.3057 6.9028C11.2584 6.86783 11.2828 6.79278 11.3416 6.79232L11.796 6.7888L11.9398 6.35779C11.9584 6.30196 12.0373 6.30196 12.0559 6.35779Z" fill="#73AF00"/>
<path d="M12.0559 16.435L12.1997 16.866L12.654 16.8695C12.7129 16.87 12.7372 16.9451 12.6899 16.98L12.3244 17.25L12.4615 17.6832C12.4792 17.7393 12.4154 17.7857 12.3675 17.7515L11.9978 17.4873L11.6282 17.7515C11.5803 17.7857 11.5165 17.7393 11.5342 17.6832L11.6713 17.25L11.3057 16.9801C11.2584 16.9452 11.2828 16.8701 11.3416 16.8696L11.796 16.8661L11.9398 16.4351C11.9584 16.3792 12.0373 16.3792 12.0559 16.435Z" fill="#73AF00"/>
<path d="M12.0559 6.35779L12.1997 6.7888L12.654 6.79232C12.7129 6.79278 12.7372 6.86783 12.6899 6.9028L12.3244 7.1727L12.4615 7.60592C12.4792 7.66203 12.4154 7.70838 12.3675 7.67421L11.9978 7.40998L11.6282 7.67421C11.5803 7.70843 11.5165 7.66203 11.5342 7.60592L11.6713 7.1727L11.3057 6.9028C11.2584 6.86783 11.2828 6.79278 11.3416 6.79232L11.796 6.7888L11.9398 6.35779C11.9584 6.30196 12.0373 6.30196 12.0559 6.35779Z" fill="#73AF00"/>
<path d="M12.0559 16.435L12.1997 16.866L12.654 16.8695C12.7129 16.87 12.7372 16.9451 12.6899 16.98L12.3244 17.25L12.4615 17.6832C12.4792 17.7393 12.4154 17.7857 12.3675 17.7515L11.9978 17.4873L11.6282 17.7515C11.5803 17.7857 11.5165 17.7393 11.5342 17.6832L11.6713 17.25L11.3057 16.9801C11.2584 16.9452 11.2828 16.8701 11.3416 16.8696L11.796 16.8661L11.9398 16.4351C11.9584 16.3792 12.0373 16.3792 12.0559 16.435Z" fill="#73AF00"/>
<path d="M8.54452 7.39191L8.67047 7.8285L8.29819 8.08898C8.25 8.12268 8.27246 8.19838 8.33124 8.20035L8.78536 8.21549L8.91806 8.65007C8.93522 8.70632 9.01415 8.70833 9.03417 8.65302L9.1889 8.2258L9.64321 8.23391C9.70204 8.23494 9.72833 8.16055 9.68193 8.12441L9.32343 7.84523L9.47151 7.41567C9.49068 7.36008 9.42801 7.31203 9.37931 7.34503L9.003 7.5997L8.64023 7.32614C8.59327 7.29061 8.52825 7.33538 8.54452 7.39191Z" fill="#73AF00"/>
<path d="M14.2574 15.6934L14.3834 16.13L14.0111 16.3905C13.9629 16.4242 13.9853 16.4999 14.0441 16.5019L14.4982 16.517L14.631 16.9516C14.6481 17.0078 14.727 17.0098 14.7471 16.9545L14.9018 16.5273L15.3561 16.5354C15.4149 16.5365 15.4412 16.4621 15.3948 16.4259L15.0363 16.1467L15.1844 15.7172C15.2036 15.6616 15.1409 15.6135 15.0922 15.6465L14.7159 15.9012L14.3531 15.6277C14.3061 15.5921 14.2411 15.6369 14.2574 15.6934Z" fill="#73AF00"/>
<path d="M6.40924 10.2849L6.77205 10.5585L6.63068 10.9903C6.6124 11.0462 6.67577 11.0932 6.72396 11.0595L7.09623 10.799L7.46322 11.0669C7.51075 11.1015 7.57506 11.0558 7.55785 10.9995L7.42515 10.565L7.79335 10.2987C7.84102 10.2643 7.8174 10.1889 7.75857 10.1879L7.30426 10.1798L7.16481 9.74738C7.14677 9.69141 7.06783 9.69062 7.04866 9.74621L6.90058 10.1758L6.44623 10.1747C6.38744 10.1747 6.36227 10.2495 6.40924 10.2849Z" fill="#73AF00"/>
<path d="M15.9615 13.4946L16.3243 13.7682L16.1829 14.2C16.1646 14.2559 16.228 14.3029 16.2762 14.2692L16.6485 14.0087L17.0155 14.2766C17.063 14.3113 17.1273 14.2655 17.1101 14.2093L16.9774 13.7747L17.3456 13.5084C17.3933 13.474 17.3697 13.3987 17.3108 13.3976L16.8565 13.3896L16.7171 12.9571C16.699 12.9011 16.6201 12.9003 16.6009 12.9559L16.4528 13.3855L15.9985 13.3845C15.9397 13.3844 15.9145 13.4592 15.9615 13.4946Z" fill="#73AF00"/>
<path d="M15.2114 7.39191L15.0855 7.8285L15.4578 8.08898C15.5059 8.12268 15.4835 8.19838 15.4247 8.20035L14.9706 8.21549L14.8379 8.65007C14.8207 8.70632 14.7418 8.70833 14.7218 8.65302L14.5671 8.2258L14.1127 8.23391C14.0539 8.23494 14.0276 8.16055 14.074 8.12441L14.4325 7.84523L14.2844 7.41567C14.2653 7.36008 14.3279 7.31203 14.3766 7.34503L14.753 7.5997L15.1157 7.32614C15.1627 7.29061 15.2277 7.33538 15.2114 7.39191Z" fill="#73AF00"/>
<path d="M9.49855 15.6934L9.37259 16.13L9.74487 16.3905C9.79306 16.4242 9.77061 16.4999 9.71183 16.5019L9.2577 16.517L9.125 16.9516C9.10785 17.0078 9.02891 17.0098 9.00889 16.9545L8.85416 16.5273L8.39985 16.5354C8.34103 16.5365 8.31473 16.4621 8.36114 16.4259L8.71963 16.1467L8.57155 15.7172C8.55238 15.6616 8.61505 15.6135 8.66376 15.6465L9.04007 15.9012L9.40283 15.6277C9.4498 15.5921 9.51486 15.6369 9.49855 15.6934Z" fill="#73AF00"/>
<path d="M17.3466 10.2849L16.9838 10.5585L17.1252 10.9903C17.1434 11.0462 17.0801 11.0932 17.0319 11.0595L16.6596 10.799L16.2926 11.0669C16.2451 11.1015 16.1808 11.0558 16.198 10.9995L16.3307 10.565L15.9625 10.2987C15.9148 10.2643 15.9384 10.1889 15.9973 10.1879L16.4516 10.1798L16.591 9.74738C16.6091 9.69141 16.688 9.69062 16.7072 9.74621L16.8552 10.1758L17.3096 10.1747C17.3684 10.1747 17.3936 10.2495 17.3466 10.2849Z" fill="#73AF00"/>
<path d="M7.79434 13.4946L7.43153 13.7682L7.5729 14.2C7.59119 14.2559 7.52781 14.3029 7.47962 14.2692L7.10735 14.0087L6.74037 14.2766C6.69283 14.3113 6.62852 14.2655 6.64573 14.2093L6.77843 13.7747L6.41023 13.5084C6.36256 13.474 6.38618 13.3987 6.44501 13.3976L6.89932 13.3896L7.03877 12.9571C7.05682 12.9011 7.13575 12.9003 7.15492 12.9559L7.303 13.3855L7.75736 13.3845C7.81618 13.3844 7.84131 13.4592 7.79434 13.4946Z" fill="#73AF00"/>
</g>
<defs>
<clipPath id="clip0_8615_27668">
<path d="M0 2C0 0.895432 0.895431 0 2 0H21.9998C23.1043 0 23.9998 0.895431 23.9998 2V21.9998C23.9998 23.1043 23.1043 23.9998 21.9998 23.9998H2C0.895432 23.9998 0 23.1043 0 21.9998V2Z" fill="white"/>
</clipPath>
</defs>
</svg>
