<svg width="24" height="24" viewBox="0 0 24 24" fill="none" xmlns="http://www.w3.org/2000/svg">
<g clip-path="url(#clip0_8615_27603)">
<path d="M24.0003 0H0.000488281V23.9998H24.0003V0Z" fill="#F5F5F5"/>
<path d="M9.47432 0H0.000976562V9.47334H9.47432V0Z" fill="#41479B"/>
<path d="M24.0007 14.526H14.5273V23.9993H24.0007V14.526Z" fill="#41479B"/>
<path d="M24.0007 0H14.5273V9.47334H24.0007V0Z" fill="#FF4B55"/>
<path d="M9.47432 14.526H0.000976562V23.9993H9.47432V14.526Z" fill="#FF4B55"/>
<path d="M11.6411 13.8007C11.6411 13.8007 12.0185 13.9388 11.9692 14.4126L12.1218 14.4097C12.1218 14.4097 12.0255 13.8623 11.946 13.7967C11.8665 13.7311 11.6411 13.8007 11.6411 13.8007Z" fill="#64B496"/>
<path d="M12.0195 13.7275C11.8595 13.7275 11.5797 13.7273 11.2856 13.6479C11.3511 13.5796 11.4418 13.4421 11.4418 13.2024C11.4418 12.8269 11.1831 13.0664 11.1831 13.0664C11.1831 13.0664 11.0129 13.2096 11.1158 13.5923C11.0154 13.5541 10.916 13.5047 10.821 13.4415C10.8801 13.3674 10.9978 13.1946 11.0663 12.9208C11.0663 12.9208 10.6352 12.8356 10.5172 13.1602C10.445 13.0685 10.3832 12.9654 10.3316 12.8513C10.4424 12.8527 10.597 12.7796 10.597 12.3576C10.597 12.3576 10.3155 12.358 10.2402 12.6023C10.2106 12.5003 10.188 12.3908 10.1714 12.2752C10.2838 12.3078 10.5744 12.3312 10.5744 11.7006C10.5744 11.7006 10.2255 11.7012 10.1447 12.0103C10.1403 11.9312 10.1385 11.8495 10.1393 11.7652C10.3087 11.6767 10.5427 11.4815 10.5183 11.0812C10.5183 11.0812 10.3574 11.1177 10.2099 11.2414C10.239 11.0897 10.2269 10.8675 9.99422 10.6821C9.99422 10.6821 9.78033 11.0606 10.0927 11.3679C10.0656 11.4061 10.0419 11.4496 10.0223 11.4979C9.95213 11.391 9.83953 11.2916 9.65832 11.2312C9.65832 11.2312 9.57483 11.7382 10.0481 11.9502C10.0593 12.2463 10.1057 12.5078 10.1852 12.7353C10.0497 12.6158 9.93989 12.4515 9.93989 12.4515C9.93989 11.8883 9.47823 11.8741 9.47823 11.8741C9.39202 12.5169 9.86733 12.5429 9.86733 12.5429L10.1276 12.8269C9.56443 12.7331 9.56443 13.2024 9.56443 13.2024C9.93989 13.2962 10.1276 13.1085 10.1276 13.1085L10.3307 13.2129C9.97055 13.2234 9.84605 13.5778 9.84605 13.5778C10.2987 13.6533 10.6297 13.547 10.7423 13.5022C11.1982 13.821 11.76 13.8214 12.0195 13.8214V13.7275Z" fill="#64B496"/>
<path d="M11.9878 13.7275C12.1478 13.7275 12.4276 13.7273 12.7218 13.6479C12.6562 13.5796 12.5656 13.4421 12.5656 13.2024C12.5656 12.8269 12.8243 13.0664 12.8243 13.0664C12.8243 13.0664 12.9944 13.2096 12.8915 13.5923C12.9919 13.5541 13.0913 13.5047 13.1863 13.4415C13.1272 13.3674 13.0095 13.1946 12.941 12.9208C12.941 12.9208 13.3721 12.8356 13.4901 13.1602C13.5623 13.0685 13.6241 12.9654 13.6757 12.8513C13.5649 12.8527 13.4103 12.7796 13.4103 12.3576C13.4103 12.3576 13.6919 12.358 13.7672 12.6023C13.7967 12.5003 13.8193 12.3908 13.8359 12.2752C13.7235 12.3078 13.4329 12.3312 13.4329 11.7006C13.4329 11.7006 13.7818 11.7012 13.8626 12.0103C13.867 11.9312 13.8688 11.8495 13.868 11.7652C13.6986 11.6767 13.4647 11.4815 13.489 11.0812C13.489 11.0812 13.65 11.1177 13.7975 11.2414C13.7684 11.0897 13.7805 10.8675 14.0131 10.6821C14.0131 10.6821 14.227 11.0606 13.9147 11.3679C13.9418 11.4061 13.9655 11.4496 13.9851 11.4979C14.0552 11.391 14.1678 11.2916 14.3491 11.2312C14.3491 11.2312 14.4325 11.7382 13.9592 11.9502C13.948 12.2463 13.9017 12.5078 13.8222 12.7353C13.9577 12.6158 14.0675 12.4515 14.0675 12.4515C14.0675 11.8883 14.5291 11.8741 14.5291 11.8741C14.6153 12.5169 14.14 12.5429 14.14 12.5429L13.8797 12.8269C14.4429 12.7331 14.4429 13.2024 14.4429 13.2024C14.0675 13.2962 13.8797 13.1085 13.8797 13.1085L13.6767 13.2129C14.0368 13.2234 14.1613 13.5778 14.1613 13.5778C13.7087 13.6533 13.3777 13.547 13.2651 13.5022C12.8092 13.821 12.2473 13.8214 11.9878 13.8214V13.7275H11.9878Z" fill="#64B496"/>
<path d="M10.4166 9.63574C10.0865 9.84729 9.79555 10.1167 9.56104 10.4347C9.66177 10.509 9.7625 10.5832 9.86324 10.6575C10.0701 10.3769 10.3269 10.1391 10.6181 9.95233L10.4166 9.63574Z" fill="#41479B"/>
<path d="M12.0015 12.0762H13.3156V12.8271C13.3156 13.0345 13.1475 13.2026 12.9401 13.2026H12.3769C12.2227 13.2026 12.087 13.278 12.0015 13.3929V12.0762H12.0015Z" fill="#FF6B71"/>
<path d="M12.2832 11.2314V10.1989H13.6912L13.3157 10.5743V11.6068H12.2832V11.2314Z" fill="#5F64B9"/>
<path d="M13.3159 11.6067H12.8467V12.0759H13.3159V11.6067Z" fill="#F5F5F5"/>
<path d="M12.0016 12.0762H10.6875V12.8271C10.6875 13.0345 10.8556 13.2026 11.063 13.2026H11.6262C11.7804 13.2026 11.9161 13.278 12.0016 13.3929V12.0762Z" fill="#FF6B71"/>
<path d="M11.7671 13.2252C11.8607 13.2552 11.9415 13.3134 11.9996 13.3903H12.0039C12.062 13.3134 12.1428 13.2552 12.2364 13.2252V12.4517H11.7671V13.2252Z" fill="#F5F5F5"/>
<path d="M11.72 11.2314V10.1989H10.312L10.6875 10.5743V11.6068H11.72V11.2314Z" fill="#5F64B9"/>
<path d="M11.1567 11.6067H10.6875V12.0759H11.1567V11.6067Z" fill="#F5F5F5"/>
<path d="M11.1567 10.6682V10.9498L11.4384 11.1376V10.9498L11.1567 10.6682Z" fill="#41479B"/>
<path d="M11.4385 10.9498V11.2314L11.8139 11.4191V11.3253L11.4385 10.9498Z" fill="#F5F5F5"/>
<path d="M12.8461 10.6682V10.9498L12.5645 11.1376V10.9498L12.8461 10.6682Z" fill="#41479B"/>
<path d="M12.5649 10.9498V11.2314L12.1895 11.4191V11.3253L12.5649 10.9498Z" fill="#F5F5F5"/>
<path d="M12.5682 12.7332H11.4358C11.1784 12.7332 10.9697 12.5231 10.9697 12.2639V10.8121L12.0089 11.513L13.0344 10.8121V12.2639C13.0343 12.5231 12.8256 12.7332 12.5682 12.7332Z" fill="#FF4B55"/>
<path d="M11.3451 11.0438L10.9697 10.7622V11.7947L11.3451 11.9824V11.0438Z" fill="#41479B"/>
<path d="M12.6592 11.0438L13.0346 10.7622V11.7947L12.6592 11.9824V11.0438Z" fill="#41479B"/>
<path d="M12.5654 11.9823H11.439V12.4515H12.5654V11.9823Z" fill="#41479B"/>
<path d="M11.4385 11.1376L12.0017 11.4191L12.5648 11.1376V11.9823H11.4385V11.1376Z" fill="#FF4B55"/>
<path d="M12.4252 11.2263V12.17C12.4252 12.2477 12.3621 12.3108 12.2844 12.3108H11.7212C11.6436 12.3108 11.5804 12.2477 11.5804 12.17V11.2301L11.2988 11.0415V12.17C11.2988 12.403 11.4883 12.5924 11.7212 12.5924H12.2844C12.5173 12.5924 12.7068 12.403 12.7068 12.17V11.0352L12.4252 11.2263Z" fill="#F5F5F5"/>
<path d="M12.5235 11.882C12.3654 11.8962 12.1874 11.9122 12.0028 11.9764C11.8182 11.9122 11.6402 11.8962 11.4821 11.882C11.2175 11.8583 11.0606 11.8351 10.9707 11.6755V11.9465C11.1087 12.0362 11.2834 12.0527 11.4653 12.069C11.6285 12.0837 11.7972 12.0989 11.9696 12.1641L12.0028 12.1767L12.036 12.1641C12.2084 12.0989 12.3771 12.0837 12.5403 12.069C12.7223 12.0527 12.8973 12.0365 13.0353 11.9467V11.6749C12.9455 11.8351 12.7884 11.8582 12.5235 11.882Z" fill="#F5F5F5"/>
<path d="M12.1894 10.9968H12.0486V10.856H11.9547V10.9968H11.814V11.0907H11.9547V11.513H12.0486V11.0907H12.1894V10.9968Z" fill="#FFE15A"/>
<path d="M11.1277 10.5704L11.0762 10.6219L11.901 11.4468L11.9525 11.3952L11.1277 10.5704Z" fill="#464655"/>
<path d="M10.9473 10.4417L11.0503 10.6479L11.1535 10.5448L10.9473 10.4417Z" fill="#FFE15A"/>
<path d="M11.3172 10.4369L11.2583 10.4799L11.9451 11.4227L12.004 11.3798L11.3172 10.4369Z" fill="#464655"/>
<path d="M11.1582 10.2816L11.228 10.5014L11.3459 10.4155L11.1582 10.2816Z" fill="#FFE15A"/>
<path d="M10.9636 10.7433L10.9219 10.8031L11.8783 11.4709L11.92 11.4111L10.9636 10.7433Z" fill="#464655"/>
<path d="M10.7637 10.6483L10.9013 10.8333L10.9847 10.7138L10.7637 10.6483Z" fill="#FFE15A"/>
<path d="M12.05 11.3957L12.1016 11.4473L12.9264 10.6225L12.8748 10.5709L12.05 11.3957Z" fill="#464655"/>
<path d="M13.0553 10.4417L12.9522 10.6479L12.8491 10.5448L13.0553 10.4417Z" fill="#FFE15A"/>
<path d="M11.9992 11.3793L12.0581 11.4222L12.7449 10.4794L12.686 10.4365L11.9992 11.3793Z" fill="#464655"/>
<path d="M12.8444 10.2816L12.7746 10.5014L12.6567 10.4155L12.8444 10.2816Z" fill="#FFE15A"/>
<path d="M12.0833 11.4114L12.125 11.4712L13.0814 10.8034L13.0397 10.7436L12.0833 11.4114Z" fill="#464655"/>
<path d="M13.2391 10.6483L13.1015 10.8333L13.0181 10.7138L13.2391 10.6483Z" fill="#FFE15A"/>
<path d="M11.954 13.1759C11.954 13.1759 11.591 12.7861 11.6614 12.4282C11.718 12.1404 11.8898 11.8231 12.0243 11.7459C12.0243 11.7459 12.2144 11.7342 12.1667 11.8993C12.119 12.0645 12.061 12.1071 12.0779 12.2698C12.1072 12.5514 12.1527 12.8852 11.954 13.1759Z" fill="#F5F5F5"/>
<path d="M12.0642 11.7479C12.0415 11.7449 12.0242 11.7459 12.0242 11.7459C11.8898 11.8231 11.718 12.1404 11.6614 12.4282C11.6294 12.591 11.6872 12.7601 11.7596 12.8964C11.7138 12.3063 11.8861 12.0969 12.0642 11.7479Z" fill="#41479B"/>
<path d="M12.0781 12.2698C12.0611 12.107 12.1191 12.0644 12.1669 11.8993C12.2002 11.7837 12.1173 11.7548 12.0643 11.7478C12.0643 11.7478 11.9432 12.0262 11.9353 12.213C11.9284 12.3773 11.9705 13.046 11.9542 13.1758C12.1529 12.8852 12.1074 12.5513 12.0781 12.2698Z" fill="#FF4B55"/>
<path d="M11.8317 11.8872C11.9074 11.8135 12.0137 11.7804 12.1178 11.7983C12.0684 11.6394 12.019 11.4804 11.9697 11.3215C11.8656 11.3037 11.7592 11.3367 11.6836 11.4104C11.733 11.5693 11.7824 11.7283 11.8317 11.8872Z" fill="#F5F0F0"/>
<path d="M12.1178 11.7983C12.1935 11.7246 12.2998 11.6916 12.4039 11.7094C12.3546 11.5505 12.3052 11.3916 12.2558 11.2327C12.1517 11.2148 12.0454 11.2478 11.9697 11.3215C12.0191 11.4804 12.0684 11.6394 12.1178 11.7983Z" fill="#F5F5F5"/>
<path d="M11.5726 9.73584C11.0631 9.72408 10.5598 9.84937 10.1152 10.0987C10.054 9.98948 9.99281 9.88031 9.93164 9.77114C10.4348 9.489 11.0046 9.34721 11.5813 9.36047C11.5784 9.48558 11.5755 9.61069 11.5726 9.73584Z" fill="#5F64B9"/>
<path d="M13.5862 9.63574C13.9163 9.84729 14.2073 10.1167 14.4418 10.4347C14.3411 10.509 14.2404 10.5832 14.1396 10.6575C13.9327 10.3769 13.676 10.1391 13.3848 9.95233L13.5862 9.63574Z" fill="#41479B"/>
<path d="M12.4305 9.73584C12.9401 9.72408 13.4434 9.84937 13.8879 10.0987C13.9491 9.98948 14.0104 9.88031 14.0715 9.77114C13.5683 9.489 12.9986 9.34721 12.4219 9.36047C12.4248 9.48558 12.4276 9.61069 12.4305 9.73584Z" fill="#5F64B9"/>
<path d="M12.7528 9.63573C12.2612 9.50124 11.7425 9.50124 11.2509 9.63573C11.2179 9.51503 11.1849 9.39428 11.1519 9.27358C11.7083 9.12137 12.2954 9.12137 12.8519 9.27358C12.8188 9.39428 12.7858 9.51503 12.7528 9.63573Z" fill="#41479B"/>
<path d="M10.7421 13.8425C10.3369 13.9483 9.94089 14.0911 9.55957 14.2707C9.61291 14.3839 9.66626 14.4971 9.7196 14.6104C10.0876 14.4369 10.4701 14.3001 10.8615 14.1995L10.7421 13.8425Z" fill="#FF6B71"/>
<path d="M13.2581 13.8425C13.6632 13.9483 14.0592 14.0911 14.4406 14.2707C14.3872 14.3839 14.3339 14.4971 14.2805 14.6104C13.9126 14.4369 13.53 14.3001 13.1387 14.1995L13.2581 13.8425Z" fill="#FF6B71"/>
<path d="M13.5103 14.1331C12.5231 13.8961 11.4938 13.8961 10.5066 14.1331C10.4774 14.0114 10.4481 13.8897 10.4189 13.768C11.4637 13.5171 12.5531 13.5171 13.5979 13.768C13.5687 13.8896 13.5395 14.0113 13.5103 14.1331Z" fill="#FF4B55"/>
<path d="M12 14.2351L11.7411 14.2997C11.6819 14.3146 11.6245 14.2697 11.6245 14.2087V14.0737C11.6245 14.0126 11.6819 13.9678 11.7411 13.9826L12 14.0473V14.2351Z" fill="#FF4B55"/>
<path d="M12 14.0474L12.2588 13.9827C12.3181 13.9679 12.3755 14.0127 12.3755 14.0738V14.2088C12.3755 14.2699 12.3181 14.3147 12.2588 14.2999L12 14.2352V14.0474Z" fill="#FF4B55"/>
<path d="M12.0217 14.2351H11.9814C11.9407 14.2351 11.9077 14.2021 11.9077 14.1614V14.1211C11.9077 14.0804 11.9407 14.0474 11.9814 14.0474H12.0217C12.0624 14.0474 12.0954 14.0804 12.0954 14.1211V14.1614C12.0954 14.2021 12.0624 14.2351 12.0217 14.2351Z" fill="#FF6B71"/>
</g>
<defs>
<clipPath id="clip0_8615_27603">
<path d="M0 2C0 0.895432 0.895431 0 2 0H21.9998C23.1043 0 23.9998 0.895431 23.9998 2V21.9998C23.9998 23.1043 23.1043 23.9998 21.9998 23.9998H2C0.895432 23.9998 0 23.1043 0 21.9998V2Z" fill="white"/>
</clipPath>
</defs>
</svg>
