<svg width="24" height="24" viewBox="0 0 24 24" fill="none" xmlns="http://www.w3.org/2000/svg">
<g clip-path="url(#clip0_8615_27640)">
<path d="M23.9998 17.9933H0V23.9867H23.9998V17.9933Z" fill="#FF4B55"/>
<path d="M23.9998 0.0131836H0V11.9999H23.9998V0.0131836Z" fill="#FFE15A"/>
<path d="M23.9998 12H0V17.9934H23.9998V12Z" fill="#41479B"/>
<path d="M11.5684 14.3073L14.5908 11.7167V15.466C14.5908 16.0979 14.0786 16.6102 13.4467 16.6102C13.164 16.6102 12.8914 16.5056 12.6813 16.3165L11.5684 15.3149V14.3073Z" fill="#FFE15A"/>
<path d="M13.1628 15.7815L12.2881 14.9943V13.6904L13.8713 12.3334V13.2812V15.4659C13.8713 15.7 13.6808 15.8904 13.4468 15.8904C13.3417 15.8904 13.2409 15.8518 13.1628 15.7815Z" fill="#FF4B55"/>
<path d="M12.7199 13.3204V14.8025L13.4395 15.4522V13.2723V12.7036L13.8713 12.3335V13.2813V15.466C13.8713 15.7001 13.6808 15.8905 13.4468 15.8905C13.3417 15.8905 13.2409 15.8518 13.1628 15.7815L12.2881 14.9943V13.6905L12.7199 13.3204Z" fill="#41479B"/>
<path d="M12.4316 14.3073L9.40918 11.7167V15.466C9.40918 16.0979 9.92142 16.6102 10.5533 16.6102C10.836 16.6102 11.1086 16.5056 11.3187 16.3165L12.4316 15.3149V14.3073Z" fill="#FFE15A"/>
<path d="M10.8374 15.7815L11.7121 14.9943V13.6904L10.1289 12.3334V13.2812V15.4659C10.1289 15.7 10.3194 15.8904 10.5534 15.8904C10.6584 15.8904 10.7593 15.8518 10.8374 15.7815Z" fill="#FF4B55"/>
<path d="M11.2808 13.3204V14.8025L10.5612 15.4522V13.2723V12.7036L10.1294 12.3335V13.2813V15.466C10.1294 15.7001 10.3198 15.8905 10.5539 15.8905C10.6589 15.8905 10.7598 15.8518 10.8379 15.7815L11.7126 14.9943V13.6905L11.2808 13.3204Z" fill="#41479B"/>
<path d="M14.6937 11.7295H14.4868V12.9692H14.6937V11.7295Z" fill="#41479B"/>
<path d="M9.51257 11.7295H9.30566V12.9692H9.51257V11.7295Z" fill="#41479B"/>
<path d="M11.5709 11.1409C11.5709 11.1409 11.8588 9.77367 10.8513 9.95357C9.84381 10.1335 9.84381 10.4213 8.69238 10.997C8.69238 10.997 9.98771 11.2849 10.5634 11.1409C10.5634 11.1409 10.9952 11.7167 11.427 11.8606H11.8588L11.5709 11.1409Z" fill="#5A4646"/>
<path d="M12.4343 11.1409C12.4343 11.1409 12.1465 9.77367 13.154 9.95357C14.1614 10.1335 14.1614 10.4213 15.3129 10.997C15.3129 10.997 14.0175 11.2849 13.4418 11.1409C13.4418 11.1409 13.0101 11.7167 12.5782 11.8606H12.1465L12.4343 11.1409Z" fill="#5A4646"/>
<path d="M12.4339 11.8605H11.5703V11.1356C11.5703 10.9 11.7612 10.7091 11.9968 10.7091H12.0074C12.243 10.7091 12.4339 10.9 12.4339 11.1356V11.8605Z" fill="#5A4646"/>
<path d="M12.0003 11.4286C12.1592 11.4286 12.2881 11.2997 12.2881 11.1408C12.2881 10.9818 12.1592 10.8529 12.0003 10.8529C11.8413 10.8529 11.7124 10.9818 11.7124 11.1408C11.7124 11.2997 11.8413 11.4286 12.0003 11.4286Z" fill="#E6E1CD"/>
<path d="M11.3823 10.955L11.9236 11.244C11.969 11.2682 12.0249 11.2599 12.0613 11.2236C12.107 11.1779 12.107 11.1039 12.0613 11.0582L11.7122 10.7091H11.6282C11.4924 10.7091 11.3823 10.8192 11.3823 10.955Z" fill="#FFD0AF"/>
<path d="M11.5703 10.997H11.1367L11.3265 10.7748C11.3621 10.7331 11.4142 10.7091 11.4691 10.7091H11.7124V10.8548C11.7124 10.9333 11.6487 10.997 11.5703 10.997Z" fill="#FFAF94"/>
<path d="M13.2296 11.8609C13.1325 11.7457 13.1118 11.593 13.1591 11.4606C13.2976 11.4364 13.4446 11.4827 13.5417 11.5979C13.6247 11.6964 13.6487 11.8217 13.6253 11.9387C13.6541 11.9876 13.6893 12.0504 13.7279 12.1245C13.7298 12.114 13.7294 12.1035 13.7324 12.093C13.7664 11.9737 13.861 11.8892 13.9731 11.8606C14.0534 11.9439 14.0895 12.0655 14.0556 12.1848C14.0264 12.2875 13.9512 12.3619 13.8596 12.3996C13.8958 12.4824 13.9315 12.5719 13.9649 12.6663C13.9668 12.6608 13.967 12.6551 13.9692 12.6496C14.0161 12.5348 14.1195 12.4613 14.234 12.4452C14.3046 12.5368 14.3271 12.6617 14.2802 12.7765C14.2392 12.877 14.1542 12.9433 14.057 12.9697C14.107 13.1672 14.1402 13.3767 14.1402 13.5877H13.9963C13.9963 13.4039 13.9681 13.2197 13.9255 13.0435C13.8367 13.0722 13.7375 13.0661 13.6516 13.0135C13.5468 12.9493 13.4915 12.8364 13.4941 12.7218C13.595 12.6674 13.7207 12.6654 13.8255 12.7297C13.8293 12.732 13.8318 12.7353 13.8355 12.7378C13.8047 12.6492 13.7718 12.5651 13.7382 12.4863C13.6518 12.5272 13.5501 12.5334 13.4569 12.4896C13.3457 12.4374 13.2782 12.3312 13.2682 12.217C13.3622 12.1521 13.4864 12.1363 13.5974 12.188C13.5578 12.1118 13.5221 12.0481 13.4941 12.0004C13.3946 11.9892 13.2992 11.9435 13.2296 11.8609Z" fill="#8CB400"/>
<path d="M10.7745 11.8609C10.8716 11.7457 10.8923 11.593 10.845 11.4606C10.7065 11.4364 10.5595 11.4827 10.4624 11.5979C10.3795 11.6964 10.3554 11.8217 10.3788 11.9387C10.3501 11.9876 10.3149 12.0504 10.2762 12.1245C10.2743 12.114 10.2747 12.1035 10.2717 12.093C10.2378 11.9737 10.1431 11.8892 10.031 11.8606C9.95074 11.9439 9.9146 12.0655 9.94853 12.1848C9.97774 12.2875 10.0529 12.3619 10.1445 12.3996C10.1083 12.4824 10.0726 12.5719 10.0392 12.6663C10.0373 12.6608 10.0371 12.6551 10.0349 12.6496C9.98805 12.5348 9.88464 12.4613 9.77008 12.4452C9.69949 12.5368 9.67699 12.6617 9.72386 12.7765C9.76488 12.877 9.84996 12.9433 9.94713 12.9697C9.89707 13.1672 9.86388 13.3767 9.86388 13.5877H10.0078C10.0078 13.4039 10.036 13.2197 10.0786 13.0435C10.1674 13.0722 10.2666 13.0661 10.3525 13.0135C10.4573 12.9493 10.5126 12.8364 10.51 12.7218C10.4091 12.6674 10.2834 12.6654 10.1786 12.7297C10.1748 12.732 10.1723 12.7353 10.1686 12.7378C10.1994 12.6492 10.2323 12.5651 10.2659 12.4863C10.3523 12.5272 10.454 12.5334 10.5472 12.4896C10.6584 12.4374 10.7259 12.3312 10.7359 12.217C10.6419 12.1521 10.5177 12.1363 10.4067 12.188C10.4463 12.1118 10.4821 12.0481 10.51 12.0004C10.6095 11.9892 10.7049 11.9435 10.7745 11.8609Z" fill="#8CB400"/>
<path d="M12 15.0269L8.97754 12.4363V16.1856C8.97754 16.8175 9.48978 17.3298 10.1217 17.3298C10.4044 17.3298 10.677 17.2252 10.8871 17.0361L12 16.0344V15.0269Z" fill="#FFE15A"/>
<path d="M10.4058 16.5012L11.2805 15.714V14.4102L9.69727 13.0531V14.0009V16.1856C9.69727 16.4197 9.88772 16.6101 10.1218 16.6101C10.2269 16.6102 10.3277 16.5715 10.4058 16.5012Z" fill="#FF4B55"/>
<path d="M10.8486 14.04V15.5221L10.129 16.1718V13.9919V13.4232L9.69727 13.0531V14.0009V16.1856C9.69727 16.4197 9.88772 16.6101 10.1218 16.6101C10.2268 16.6101 10.3277 16.5714 10.4058 16.5011L11.2805 15.7139V14.4101L10.8486 14.04Z" fill="#41479B"/>
<path d="M12 15.0269L15.0225 12.4363V16.1856C15.0225 16.8175 14.5102 17.3298 13.8783 17.3298C13.5957 17.3298 13.323 17.2252 13.1129 17.0361L12 16.0344V15.0269Z" fill="#FFE15A"/>
<path d="M13.5944 16.5012L12.7197 15.714V14.4102L14.3029 13.0531V14.0009V16.1856C14.3029 16.4197 14.1125 16.6101 13.8784 16.6101C13.7733 16.6102 13.6725 16.5715 13.5944 16.5012Z" fill="#FF4B55"/>
<path d="M13.1515 14.04V15.5221L13.8712 16.1718V13.9919V13.4232L14.3029 13.0531V14.0009V16.1856C14.3029 16.4197 14.1125 16.6101 13.8784 16.6101C13.7734 16.6101 13.6725 16.5714 13.5944 16.5011L12.7197 15.7139V14.4101L13.1515 14.04Z" fill="#41479B"/>
<path d="M12.0003 16.1783C12.7952 16.1783 13.4396 15.2117 13.4396 14.0193C13.4396 12.8269 12.7952 11.8602 12.0003 11.8602C11.2054 11.8602 10.561 12.8269 10.561 14.0193C10.561 15.2117 11.2054 16.1783 12.0003 16.1783Z" fill="#69C3FF"/>
<path d="M10.7046 14.5951H13.2953L13.4392 14.0194L12.7833 14.1287C12.6517 14.1507 12.5171 14.1132 12.4158 14.0264L11.6713 13.3882C11.6048 13.3311 11.52 13.2998 11.4324 13.2998C11.335 13.2998 11.2416 13.3385 11.1728 13.4073L10.7046 13.8755L10.7046 14.5951Z" fill="#009B64"/>
<path d="M11.8634 13.9227L12.1107 13.7648L11.6713 13.3882C11.6048 13.3311 11.52 13.2998 11.4324 13.2998C11.335 13.2998 11.2416 13.3385 11.1728 13.4073L10.7046 13.8755V14.0194L11.4242 13.8755L11.5515 13.9391C11.6511 13.9889 11.7696 13.9826 11.8634 13.9227Z" fill="#F5F5F5"/>
<path d="M10.7046 14.5951L10.8485 15.4587L11.5682 16.1783H11.9999L12.5756 16.0344L13.1513 15.4587L13.2953 14.5951H10.7046Z" fill="#5AA0E6"/>
<path d="M12.0002 16.3223C11.1272 16.3223 10.417 15.2892 10.417 14.0195C10.417 12.7497 11.1272 11.7167 12.0002 11.7167C12.8732 11.7167 13.5834 12.7497 13.5834 14.0195C13.5834 15.2892 12.8732 16.3223 12.0002 16.3223ZM12.0002 12.0044C11.286 12.0044 10.7048 12.9083 10.7048 14.0194C10.7048 15.1305 11.286 16.0344 12.0002 16.0344C12.7144 16.0344 13.2955 15.1305 13.2955 14.0194C13.2955 12.9084 12.7144 12.0044 12.0002 12.0044Z" fill="#FFC88C"/>
<path d="M10.9851 16.1653C10.8644 15.9987 10.6848 15.8904 10.4813 15.8904C10.2778 15.8904 10.0982 15.9987 9.97754 16.1653C10.1833 16.2223 10.3517 16.3894 10.4314 16.6096C10.4635 16.6983 10.4813 16.7956 10.4813 16.8979C10.4813 16.5418 10.6965 16.2453 10.9851 16.1653Z" fill="#E1E1E1"/>
<path d="M10.596 16.6193C10.596 16.6193 10.5847 16.8112 10.4863 16.9012L10.4822 16.8978C10.3838 16.8079 10.3726 16.616 10.3726 16.616L10.596 16.6193Z" fill="#E1E1E1"/>
<path d="M13.7999 16.6821H10.2C10.1607 16.6821 10.1289 16.6503 10.1289 16.6111V16.6093C10.1289 16.57 10.1607 16.5382 10.2 16.5382H13.7999C13.8392 16.5382 13.871 16.57 13.871 16.6093V16.6111C13.871 16.6503 13.8392 16.6821 13.7999 16.6821Z" fill="#966446"/>
<path d="M12.7233 16.8981H11.277C11.1199 16.8981 10.9927 16.7707 10.9927 16.6138V16.6067C10.9927 16.4497 11.12 16.3224 11.277 16.3224H12.7233C12.8804 16.3224 13.0076 16.4497 13.0076 16.6067V16.6138C13.0076 16.7707 12.8804 16.8981 12.7233 16.8981Z" fill="#BE915A"/>
<path d="M10.7046 16.5381H10.2009C10.1611 16.5381 10.1289 16.5703 10.1289 16.61C10.1289 16.6498 10.1611 16.682 10.2009 16.682H10.7046V16.5381Z" fill="#B9B9B9"/>
<path d="M12 16.8979V18.2129L11.4243 18.0493L11.7122 16.8979H12Z" fill="#FF4B55"/>
<path d="M11.8562 16.8979L11.5684 17.9054L10.9927 17.7615L11.4244 16.8979H11.8562Z" fill="#41479B"/>
<path d="M11.2804 16.8979L10.8486 17.4737L11.2804 17.6176L11.5683 16.8979H11.2804Z" fill="#FFE15A"/>
<path d="M12 16.8979V18.2129L12.5757 18.0493L12.2879 16.8979H12Z" fill="#FF4B55"/>
<path d="M12.144 16.8979L12.4319 17.9054L13.0076 17.7615L12.5759 16.8979H12.144Z" fill="#41479B"/>
<path d="M12.7195 16.8979L13.1513 17.4737L12.7195 17.6176L12.4316 16.8979H12.7195Z" fill="#FFE15A"/>
<path d="M9.08088 13.676L8.87402 13.4675V12.4363H9.08088V13.676Z" fill="#41479B"/>
<path d="M15.1239 13.4675L14.917 13.676V12.4363H15.1239V13.4675Z" fill="#41479B"/>
</g>
<defs>
<clipPath id="clip0_8615_27640">
<path d="M0 2C0 0.895432 0.895431 0 2 0H21.9998C23.1043 0 23.9998 0.895431 23.9998 2V21.9998C23.9998 23.1043 23.1043 23.9998 21.9998 23.9998H2C0.895432 23.9998 0 23.1043 0 21.9998V2Z" fill="white"/>
</clipPath>
</defs>
</svg>
