<svg width="24" height="24" viewBox="0 0 24 24" fill="none" xmlns="http://www.w3.org/2000/svg">
<g clip-path="url(#clip0_8615_27601)">
<path d="M23.9998 0.0032959H0V7.99916H23.9998V0.0032959Z" fill="#FF4B55"/>
<path d="M23.9998 15.9946H0V23.9966H23.9998V15.9946Z" fill="#464655"/>
<path d="M23.9998 7.99927H0V15.9951H23.9998V7.99927Z" fill="#F5F5F5"/>
<path d="M13.7709 10.9016C13.7709 10.6265 13.5014 10.4322 13.2404 10.5192L12.75 10.6827L12.6309 9.96353C12.5597 9.53453 12.1921 9.22314 11.757 9.22314H11.2983L10.8186 9.81362H11.4538L11.276 10.6917L10.7586 10.5192C10.4976 10.4322 10.2281 10.6265 10.2281 10.9016V13.8851L10.9422 13.1711L10.6056 14.1804H10.228V14.7709H13.7708V14.1804H13.3932L13.0567 13.1711L13.7708 13.8851V10.9016H13.7709ZM11.7043 14.1804H11.2283L11.5556 13.3062L11.7043 13.4961V14.1804ZM12.2947 14.1804V13.4961L12.4434 13.3062L12.7707 14.1804H12.2947ZM11.9995 13.1102C11.9995 13.1102 11.0862 12.492 11.1231 11.3388C11.1231 11.3388 11.6858 11.2465 11.9995 10.7483C12.3132 11.2465 12.876 11.3388 12.876 11.3388C12.9129 12.492 11.9995 13.1102 11.9995 13.1102Z" fill="#F0C727"/>
</g>
<defs>
<clipPath id="clip0_8615_27601">
<path d="M0 2C0 0.895432 0.895431 0 2 0H21.9998C23.1043 0 23.9998 0.895431 23.9998 2V21.9998C23.9998 23.1043 23.1043 23.9998 21.9998 23.9998H2C0.895432 23.9998 0 23.1043 0 21.9998V2Z" fill="white"/>
</clipPath>
</defs>
</svg>
