<svg width="24" height="24" viewBox="0 0 24 24" fill="none" xmlns="http://www.w3.org/2000/svg">
<g clip-path="url(#clip0_8615_27684)">
<path d="M23.9988 0H-0.000976562V8.00008H23.9988V0Z" fill="#41479B"/>
<path d="M23.9988 15.9998H-0.000976562V23.9998H23.9988V15.9998Z" fill="#41479B"/>
<path d="M23.9993 8.00012H-0.000488281V16.0002H23.9993V8.00012Z" fill="#F5F5F5"/>
<path d="M11.9828 14.6873C10.4593 14.6873 9.21973 13.4478 9.21973 11.9242C9.21973 11.2734 9.4504 10.6414 9.86936 10.1444L9.99011 10.2462C9.59514 10.7146 9.37765 11.3106 9.37765 11.9242C9.37765 13.3607 10.5464 14.5295 11.9829 14.5295L11.9828 14.6873Z" fill="#50AF69"/>
<path d="M10.9718 13.8715C10.9373 13.9303 10.9203 14.0111 10.9128 14.0933C10.8816 14.0708 10.8486 14.05 10.8126 14.0324C10.8126 14.0324 10.7583 14.2237 10.8007 14.3615C10.8007 14.3615 10.6567 14.3793 10.5246 14.512C10.5246 14.512 10.5701 14.5442 10.6484 14.5778C10.5171 14.6802 10.4766 14.7815 10.4766 14.7815C11.2514 15.1689 11.6227 14.6284 11.6389 14.6042C11.4491 14.0626 10.9718 13.8715 10.9718 13.8715Z" fill="#50AF69"/>
<path d="M11.6387 14.6043C11.6391 14.6057 11.6398 14.6069 11.6402 14.6082V14.6021C11.6402 14.6021 11.639 14.6037 11.6387 14.6043Z" fill="#50AF69"/>
<path d="M10.2561 13.355C10.2055 13.392 10.1616 13.4539 10.1253 13.5204C10.1072 13.49 10.087 13.4604 10.063 13.4324C10.063 13.4324 9.94728 13.5738 9.93275 13.7055C9.93275 13.7055 9.80483 13.6679 9.64489 13.7314C9.64489 13.7314 9.67151 13.7752 9.72519 13.8321C9.57706 13.8705 9.50586 13.9411 9.50586 13.9411C10.0174 14.551 10.5281 14.2312 10.5505 14.2166C10.5886 13.6906 10.2561 13.355 10.2561 13.355Z" fill="#50AF69"/>
<path d="M10.5504 14.2167C10.5503 14.218 10.5504 14.2192 10.5503 14.2206L10.5525 14.2153C10.5525 14.2153 10.5509 14.2164 10.5504 14.2167Z" fill="#50AF69"/>
<path d="M9.81248 12.68C9.75717 12.6916 9.6982 12.7262 9.64368 12.7673C9.64008 12.7357 9.63445 12.7038 9.62512 12.672C9.62512 12.672 9.47766 12.7453 9.41691 12.848C9.41691 12.848 9.32578 12.7697 9.17086 12.7626C9.17086 12.7626 9.17649 12.8085 9.1995 12.8751C9.06361 12.8517 8.979 12.8833 8.979 12.8833C9.17316 13.5738 9.71109 13.5004 9.73495 13.4968C9.96117 13.0788 9.81248 12.68 9.81248 12.68Z" fill="#50AF69"/>
<path d="M9.73495 13.4968C9.73438 13.4978 9.73396 13.4989 9.7334 13.4999L9.7372 13.4965C9.7372 13.4965 9.73551 13.4967 9.73495 13.4968Z" fill="#50AF69"/>
<path d="M9.63666 11.9104C9.58421 11.9138 9.52318 11.9367 9.46468 11.9657C9.46871 11.9379 9.47092 11.9095 9.46984 11.8809C9.46984 11.8809 9.32031 11.9266 9.24207 12.0084C9.24207 12.0084 9.178 11.9295 9.04023 11.9045C9.04023 11.9045 9.03475 11.945 9.04019 12.0056C8.92323 11.9689 8.83984 11.986 8.83984 11.986C8.85616 12.6086 9.3572 12.6099 9.37951 12.6097C9.67899 12.2744 9.63666 11.9104 9.63666 11.9104Z" fill="#50AF69"/>
<path d="M9.37955 12.6097C9.3788 12.6106 9.37819 12.6114 9.37744 12.6123L9.38166 12.6097C9.38166 12.6097 9.38002 12.6097 9.37955 12.6097Z" fill="#50AF69"/>
<path d="M9.69486 11.2732C9.65 11.2626 9.59286 11.2659 9.53628 11.2752C9.54687 11.2529 9.55606 11.2297 9.56258 11.2053C9.56258 11.2053 9.42533 11.205 9.33852 11.2534C9.33852 11.2534 9.30519 11.1706 9.19607 11.114C9.19607 11.114 9.18102 11.1465 9.16986 11.1988C9.08127 11.1377 9.00688 11.1306 9.00688 11.1306C8.85951 11.657 9.27946 11.7877 9.29821 11.7933C9.63622 11.5896 9.69486 11.2732 9.69486 11.2732Z" fill="#50AF69"/>
<path d="M9.29834 11.7932C9.29749 11.7937 9.29679 11.7943 9.2959 11.7948L9.30007 11.7938C9.30007 11.7938 9.29876 11.7934 9.29834 11.7932Z" fill="#50AF69"/>
<path d="M9.36228 10.4982C9.36228 10.4982 9.21917 10.8732 9.44121 11.0903C9.44121 11.0903 9.73066 11.0048 9.87377 10.7038L9.75208 10.6808L9.6896 10.4933L9.48237 10.5854L9.36228 10.4982Z" fill="#50AF69"/>
<path d="M9.76557 9.89551C9.76557 9.89551 9.54127 10.2284 9.70833 10.4901C9.70833 10.4901 10.0096 10.4724 10.2172 10.2116L10.1039 10.1616L10.0854 9.96483L9.86274 10.0076L9.76557 9.89551Z" fill="#50AF69"/>
<path d="M12.0127 14.6873V14.5295C13.4492 14.5295 14.6179 13.3607 14.6179 11.9242C14.6179 11.3106 14.4004 10.7146 14.0055 10.2462L14.1262 10.1444C14.5452 10.6414 14.7759 11.2734 14.7759 11.9242C14.7759 13.4478 13.5363 14.6873 12.0127 14.6873Z" fill="#50AF69"/>
<path d="M13.0235 13.8715C13.058 13.9303 13.075 14.0111 13.0825 14.0933C13.1137 14.0708 13.1468 14.05 13.1827 14.0324C13.1827 14.0324 13.237 14.2237 13.1946 14.3615C13.1946 14.3615 13.3386 14.3793 13.4707 14.512C13.4707 14.512 13.4252 14.5442 13.347 14.5778C13.4782 14.6802 13.5187 14.7815 13.5187 14.7815C12.7439 15.1689 12.3726 14.6284 12.3564 14.6042C12.5462 14.0626 13.0235 13.8715 13.0235 13.8715Z" fill="#50AF69"/>
<path d="M12.3565 14.6043C12.3561 14.6057 12.3555 14.6069 12.355 14.6082V14.6021C12.355 14.6021 12.3562 14.6037 12.3565 14.6043Z" fill="#50AF69"/>
<path d="M13.7393 13.355C13.7899 13.392 13.8338 13.4539 13.8702 13.5204C13.8883 13.49 13.9085 13.4604 13.9324 13.4324C13.9324 13.4324 14.0482 13.5738 14.0627 13.7055C14.0627 13.7055 14.1906 13.6679 14.3506 13.7314C14.3506 13.7314 14.3239 13.7752 14.2703 13.8321C14.4184 13.8705 14.4896 13.9411 14.4896 13.9411C13.9781 14.551 13.4674 14.2312 13.4449 14.2166C13.4068 13.6906 13.7393 13.355 13.7393 13.355Z" fill="#50AF69"/>
<path d="M13.445 14.2167C13.4451 14.218 13.445 14.2192 13.4451 14.2206L13.4429 14.2153C13.4429 14.2153 13.4445 14.2164 13.445 14.2167Z" fill="#50AF69"/>
<path d="M14.1832 12.68C14.2385 12.6916 14.2975 12.7262 14.352 12.7673C14.3556 12.7357 14.3612 12.7038 14.3706 12.672C14.3706 12.672 14.518 12.7453 14.5788 12.848C14.5788 12.848 14.6699 12.7697 14.8248 12.7626C14.8248 12.7626 14.8192 12.8085 14.7962 12.8751C14.9321 12.8517 15.0167 12.8833 15.0167 12.8833C14.8225 13.5738 14.2846 13.5004 14.2607 13.4968C14.0345 13.0788 14.1832 12.68 14.1832 12.68Z" fill="#50AF69"/>
<path d="M14.2605 13.4968C14.2611 13.4978 14.2615 13.4989 14.2621 13.4999L14.2583 13.4965C14.2583 13.4965 14.26 13.4967 14.2605 13.4968Z" fill="#50AF69"/>
<path d="M14.359 11.9104C14.4114 11.9138 14.4725 11.9367 14.531 11.9657C14.5269 11.9379 14.5247 11.9095 14.5258 11.8809C14.5258 11.8809 14.6753 11.9266 14.7536 12.0084C14.7536 12.0084 14.8177 11.9295 14.9554 11.9045C14.9554 11.9045 14.9609 11.945 14.9555 12.0056C15.0724 11.9689 15.1558 11.986 15.1558 11.986C15.1395 12.6086 14.6385 12.6099 14.6161 12.6097C14.3167 12.2744 14.359 11.9104 14.359 11.9104Z" fill="#50AF69"/>
<path d="M14.6159 12.6097C14.6166 12.6106 14.6172 12.6114 14.618 12.6123L14.6138 12.6097C14.6138 12.6097 14.6154 12.6097 14.6159 12.6097Z" fill="#50AF69"/>
<path d="M14.3003 11.2732C14.3452 11.2626 14.4023 11.2659 14.4589 11.2752C14.4483 11.2529 14.4391 11.2297 14.4326 11.2053C14.4326 11.2053 14.5698 11.205 14.6566 11.2534C14.6566 11.2534 14.69 11.1706 14.7991 11.114C14.7991 11.114 14.8141 11.1465 14.8253 11.1988C14.9139 11.1377 14.9883 11.1306 14.9883 11.1306C15.1356 11.657 14.7157 11.7877 14.6969 11.7933C14.3589 11.5896 14.3003 11.2732 14.3003 11.2732Z" fill="#50AF69"/>
<path d="M14.697 11.7932C14.6979 11.7937 14.6986 11.7943 14.6995 11.7948L14.6953 11.7938C14.6953 11.7938 14.6966 11.7934 14.697 11.7932Z" fill="#50AF69"/>
<path d="M14.6331 10.4982C14.6331 10.4982 14.7762 10.8732 14.5541 11.0903C14.5541 11.0903 14.2647 11.0048 14.1216 10.7038L14.2433 10.6808L14.3058 10.4933L14.513 10.5854L14.6331 10.4982Z" fill="#50AF69"/>
<path d="M14.23 9.89551C14.23 9.89551 14.4543 10.2284 14.2872 10.4901C14.2872 10.4901 13.9859 10.4724 13.7783 10.2116L13.8917 10.1616L13.9101 9.96483L14.1328 10.0076L14.23 9.89551Z" fill="#50AF69"/>
<path d="M11.9996 13.0262L11.7555 13.3924C11.7138 13.4549 11.722 13.5382 11.7752 13.5913L11.9996 13.8157L12.224 13.5913C12.2771 13.5382 12.2854 13.4549 12.2436 13.3924L11.9996 13.0262Z" fill="#41479B"/>
<path d="M12.1036 13.3924L11.9996 13.0262L11.8956 13.3924C11.8778 13.4549 11.8813 13.5382 11.904 13.5913L11.9996 13.8157L12.0952 13.5913C12.1178 13.5382 12.1214 13.4549 12.1036 13.3924Z" fill="#F5F5F5"/>
<path d="M11.9979 9.74979V8.76294C11.9979 8.76294 11.6229 9.30242 11.6821 10.0919" fill="#41479B"/>
<path d="M10.3166 9.75317C9.77417 10.9305 10.3306 11.8993 10.4474 12.0816C10.4505 12.0865 11.222 10.8384 11.222 10.8384L10.3166 9.75317Z" fill="#41479B"/>
<path d="M10.8887 11.3785C10.8032 11.1119 10.7907 10.8008 10.8935 10.4436L10.5578 10.0413C10.282 10.7845 10.3962 11.3333 10.6722 11.727C10.74 11.6181 10.8153 11.4969 10.8887 11.3785Z" fill="#F5F5F5"/>
<path d="M11.2102 10.9044C11.1866 10.9044 11.1634 10.8939 11.1478 10.8739L10.1578 9.60099C10.131 9.56658 10.1372 9.51694 10.1716 9.49027C10.2061 9.46346 10.2556 9.46974 10.2823 9.50415L11.2723 10.777C11.2991 10.8114 11.2929 10.8611 11.2585 10.8877C11.2441 10.899 11.227 10.9044 11.2102 10.9044Z" fill="#FFE15A"/>
<path d="M9.63129 10.9768C9.3155 14.1347 11.8418 13.3452 11.9997 13.0294L10.4208 12.2399L10.7365 11.6083L9.63129 10.9768Z" fill="#41479B"/>
<path d="M10.3946 11.3401L9.95456 11.076C9.85556 12.9525 10.8576 13.265 11.5967 13.172C10.9975 13.0915 10.3988 12.6491 10.3946 11.3401Z" fill="#F5F5F5"/>
<path d="M10.7365 11.6871C10.7222 11.6871 10.7077 11.6832 10.6947 11.675L9.43162 10.8857C9.39468 10.8626 9.38343 10.8139 9.40654 10.777C9.4296 10.7398 9.47826 10.7286 9.51534 10.7519L10.7784 11.5412C10.8154 11.5643 10.8266 11.6131 10.8035 11.6499C10.7885 11.674 10.7628 11.6871 10.7365 11.6871Z" fill="#FFE15A"/>
<path d="M13.6813 9.75024C14.2237 10.9275 13.6673 11.8963 13.5505 12.0787C13.5474 12.0836 12.7759 10.8355 12.7759 10.8355L13.6813 9.75024Z" fill="#41479B"/>
<path d="M13.1102 11.3754C13.1958 11.1089 13.2082 10.7977 13.1055 10.4406L13.4411 10.0382C13.717 10.7814 13.6028 11.3302 13.3268 11.7239C13.2589 11.615 13.1837 11.4938 13.1102 11.3754Z" fill="#F5F5F5"/>
<path d="M12.7889 10.9014C12.772 10.9014 12.7549 10.896 12.7404 10.8848C12.706 10.8581 12.6998 10.8084 12.7267 10.774L13.7166 9.50116C13.7435 9.46675 13.793 9.46061 13.8274 9.48728C13.8618 9.51395 13.8681 9.56359 13.8412 9.598L12.8512 10.8709C12.8357 10.8909 12.8124 10.9014 12.7889 10.9014Z" fill="#FFE15A"/>
<path d="M14.3679 10.9736C14.6837 14.1315 12.1574 13.342 11.9995 13.0262L13.5784 12.2368L13.2626 11.6052L14.3679 10.9736Z" fill="#41479B"/>
<path d="M13.6044 11.3369L14.0445 11.0729C14.1435 12.9494 13.1414 13.2619 12.4023 13.1688C13.0016 13.0884 13.6002 12.6459 13.6044 11.3369Z" fill="#F5F5F5"/>
<path d="M13.2631 11.684C13.2368 11.684 13.211 11.6709 13.1961 11.6469C13.173 11.61 13.1842 11.5613 13.2212 11.5382L14.4843 10.7488C14.5213 10.7255 14.57 10.7368 14.593 10.774C14.6162 10.8108 14.6049 10.8595 14.568 10.8827L13.3049 11.672C13.2918 11.6802 13.2773 11.684 13.2631 11.684Z" fill="#FFE15A"/>
<path d="M11.9998 11.7629C12.3486 11.7629 12.6313 11.4802 12.6313 11.1313C12.6313 10.7825 12.3486 10.4998 11.9998 10.4998C11.6509 10.4998 11.3682 10.7825 11.3682 11.1313C11.3682 11.4802 11.6509 11.7629 11.9998 11.7629Z" fill="#FFE6E6"/>
<path d="M11.9994 11.4471C12.1738 11.4471 12.3152 11.3058 12.3152 11.1313C12.3152 10.9569 12.1738 10.8156 11.9994 10.8156C11.825 10.8156 11.6836 10.9569 11.6836 11.1313C11.6836 11.3058 11.825 11.4471 11.9994 11.4471Z" fill="#F5F5F5"/>
<path d="M11.9993 12.1579C11.9557 12.1579 11.9204 12.1226 11.9204 12.0789V11.1315C11.9204 11.0879 11.9557 11.0526 11.9993 11.0526C12.043 11.0526 12.0783 11.0879 12.0783 11.1315V12.0789C12.0783 12.1226 12.043 12.1579 11.9993 12.1579Z" fill="#FFE15A"/>
<path d="M14.1575 13.0131H9.92725L10.4207 12.0742H13.5917L14.1575 13.0131Z" fill="#5AA0E6"/>
<path d="M12.1279 12.25H13.2281L12.8858 11.9077C12.8697 11.8916 12.8501 11.8795 12.8285 11.8723L12.7094 11.8326C12.6665 11.8183 12.6193 11.8246 12.5817 11.8497L12.2013 12.1033L12.1279 12.25Z" fill="#FFB750"/>
<path d="M11.7539 12.3091H13.067L12.6585 11.9007C12.6393 11.8814 12.6158 11.8669 12.5901 11.8584L12.4479 11.811C12.3967 11.7939 12.3404 11.8014 12.2954 11.8314L11.8414 12.1341L11.7539 12.3091Z" fill="#FFC455"/>
<path d="M11.2974 12.3749H12.883L12.3897 11.8816C12.3665 11.8584 12.3382 11.8409 12.3071 11.8305L12.1354 11.7733C12.0735 11.7527 12.0055 11.7618 11.9513 11.798L11.4031 12.1634L11.2974 12.3749Z" fill="#FFCD55"/>
<path d="M10.8452 12.4342H12.6608L12.096 11.8694C12.0694 11.8428 12.037 11.8228 12.0013 11.8109L11.8047 11.7453C11.7339 11.7217 11.6561 11.7321 11.5939 11.7736L10.9662 12.1921L10.8452 12.4342Z" fill="#FFD25A"/>
<path d="M10.105 12.5525H12.4734L11.7366 11.8158C11.7019 11.7811 11.6597 11.755 11.6132 11.7395L11.3567 11.654C11.2643 11.6232 11.1628 11.6368 11.0817 11.6909L10.2629 12.2368L10.105 12.5525Z" fill="#FFE15A"/>
<path d="M12.1715 11.273H11.8301L11.9087 10.9434H12.0273C12.0658 10.9434 12.0991 10.9697 12.1081 11.0071L12.1715 11.273Z" fill="#FF4B55"/>
<path d="M12.1517 11.326H11.8452C11.8201 11.326 11.7998 11.3056 11.7998 11.2805V11.2654C11.7998 11.2403 11.8201 11.22 11.8452 11.22H12.1517C12.1768 11.22 12.1971 11.2403 12.1971 11.2654V11.2805C12.1971 11.3056 12.1768 11.326 12.1517 11.326Z" fill="#FF4B55"/>
<path d="M11.9495 11.0936L11.8728 11.0742C11.8497 11.0683 11.8397 11.0411 11.8534 11.0217L11.9089 10.9435L11.9495 11.0936Z" fill="#FF4B55"/>
<path d="M11.6059 10.3204C11.6022 10.3494 11.5985 10.3784 11.5947 10.4074C11.7174 10.333 11.8528 10.2883 11.9998 10.2883C12.1467 10.2885 12.2821 10.3329 12.4048 10.4074C12.4011 10.3784 12.3974 10.3494 12.3936 10.3204C12.2715 10.2567 12.1402 10.2201 11.9998 10.2202C11.8594 10.2202 11.728 10.2567 11.6059 10.3204Z" fill="#41479B"/>
<path d="M11.6108 10.2826C11.6071 10.3116 11.6033 10.3406 11.5996 10.3696C11.721 10.295 11.8547 10.2503 11.9998 10.2501C12.1449 10.2503 12.2786 10.295 12.3999 10.3696C12.3962 10.3406 12.3925 10.3116 12.3887 10.2826C12.268 10.2184 12.1384 10.1821 11.9998 10.182C11.8612 10.1821 11.7315 10.2186 11.6108 10.2826Z" fill="#5AA0E6"/>
<path d="M11.6152 10.2477C11.6115 10.2767 11.6077 10.3057 11.604 10.3347C11.7241 10.2598 11.8563 10.2147 11.9997 10.2148C12.1431 10.2148 12.2752 10.2598 12.3953 10.3347C12.3916 10.3057 12.3878 10.2767 12.3841 10.2477C12.2647 10.1836 12.1366 10.1468 11.9997 10.1467C11.8628 10.1467 11.7346 10.1835 11.6152 10.2477Z" fill="#9BC800"/>
<path d="M11.6201 10.2078C11.6163 10.2368 11.6126 10.2658 11.6089 10.2948C11.7276 10.2197 11.858 10.1745 11.9994 10.1746C12.1408 10.1747 12.2712 10.2196 12.3899 10.2948C12.3862 10.2658 12.3824 10.2368 12.3787 10.2078C12.2607 10.1434 12.1344 10.1065 11.9994 10.1064C11.8644 10.1065 11.7381 10.1434 11.6201 10.2078Z" fill="#FFE14E"/>
<path d="M11.6255 10.1685C11.6217 10.1976 11.618 10.2265 11.6143 10.2555C11.7316 10.1802 11.8602 10.1349 11.9997 10.1349C12.1392 10.1351 12.2678 10.1801 12.3852 10.2555C12.3814 10.2265 12.3777 10.1976 12.374 10.1685C12.2574 10.104 12.1329 10.0669 11.9997 10.0668C11.8666 10.0669 11.742 10.1039 11.6255 10.1685Z" fill="#FFB14E"/>
<path d="M11.6275 10.1518C11.6248 10.1721 11.6222 10.1925 11.6196 10.2128C11.7355 10.1373 11.8622 10.0916 11.9995 10.0917C12.1369 10.0916 12.2636 10.1373 12.3795 10.2128C12.3768 10.1925 12.3742 10.1721 12.3716 10.1518C12.2557 10.0872 12.1319 10.05 11.9995 10.0499C11.8672 10.0497 11.7434 10.087 11.6275 10.1518Z" fill="#FF4B55"/>
<path d="M14.2089 13.1052H9.78792C9.75876 13.1052 9.73204 13.0892 9.71831 13.0636C9.70457 13.0379 9.70612 13.0067 9.72224 12.9825L11.9328 9.66675C11.9621 9.62297 12.0348 9.62297 12.0641 9.66675L14.2747 12.9825C14.2908 13.0067 14.2923 13.0379 14.2786 13.0636C14.2648 13.0892 14.2381 13.1052 14.2089 13.1052ZM9.93538 12.9474H14.0614L11.9984 9.85284L9.93538 12.9474Z" fill="#FFE15A"/>
<path d="M11.9984 9.00003C11.9547 9.00003 11.9194 8.96474 11.9194 8.9211V8.6053C11.9194 8.56166 11.9547 8.52637 11.9984 8.52637C12.042 8.52637 12.0773 8.56166 12.0773 8.6053V8.9211C12.0773 8.96474 12.042 9.00003 11.9984 9.00003Z" fill="#FFE15A"/>
<path d="M12.1564 9.00004H11.8407C11.797 9.00004 11.7617 8.96474 11.7617 8.9211C11.7617 8.87746 11.797 8.84216 11.8407 8.84216H12.1564C12.2001 8.84216 12.2354 8.87746 12.2354 8.9211C12.2354 8.96474 12.2001 9.00004 12.1564 9.00004Z" fill="#FFE15A"/>
<path d="M11.9981 14.684C11.9924 14.684 11.9866 14.6834 11.981 14.6822C11.9037 14.665 11.6458 14.6031 11.5699 14.5277C11.4733 14.4318 11.4727 14.2753 11.5685 14.1786C11.615 14.1319 11.6769 14.106 11.7428 14.1058H11.7436C11.8092 14.1058 11.8709 14.1313 11.9175 14.1776C11.9935 14.2531 12.0573 14.5103 12.0751 14.5874C12.0812 14.6138 12.0732 14.6415 12.0542 14.6608C12.0391 14.6759 12.0189 14.684 11.9981 14.684ZM11.7436 14.2637C11.7227 14.2706 11.6973 14.2731 11.6806 14.2899C11.6461 14.3246 11.6464 14.381 11.6811 14.4156C11.7003 14.4342 11.7856 14.4665 11.8879 14.4956C11.858 14.3937 11.8251 14.3086 11.8062 14.2894L11.8618 14.2335L11.8061 14.2894C11.7894 14.2728 11.7672 14.2637 11.7436 14.2637Z" fill="#41479B"/>
<path d="M11.9979 14.684C11.9771 14.684 11.9569 14.6758 11.9419 14.6607C11.9228 14.6414 11.9149 14.6136 11.921 14.5873C11.9387 14.5101 12.0025 14.2529 12.0785 14.1774C12.1253 14.131 12.1811 14.1099 12.2533 14.1057C12.3192 14.1059 12.381 14.1318 12.4274 14.1785C12.5233 14.2752 12.5227 14.4317 12.4262 14.5274C12.3501 14.603 12.0922 14.6648 12.015 14.6821C12.0094 14.6833 12.0036 14.684 11.9979 14.684ZM12.1342 14.2334L12.1898 14.2894C12.1709 14.3085 12.1381 14.3936 12.1082 14.4955C12.2105 14.4664 12.2958 14.4342 12.315 14.4153C12.3497 14.3809 12.35 14.3245 12.3154 14.2898C12.2988 14.273 12.2765 14.2636 12.2527 14.2636H12.2524C12.2288 14.2636 12.2066 14.2727 12.1899 14.2893L12.1342 14.2334Z" fill="#41479B"/>
<path d="M11.6825 15.1576C11.6388 15.1576 11.6035 15.1223 11.6035 15.0787C11.6035 14.7182 11.9483 14.5418 11.9629 14.5344C12.0022 14.5148 12.0492 14.5308 12.0687 14.5695C12.0882 14.6084 12.0726 14.6557 12.0338 14.6755C12.0311 14.6769 11.7614 14.8168 11.7614 15.0787C11.7614 15.1223 11.7261 15.1576 11.6825 15.1576Z" fill="#41479B"/>
<path d="M12.314 15.1576C12.2704 15.1576 12.2351 15.1223 12.2351 15.0787C12.2351 14.8168 11.9655 14.6769 11.9627 14.6755C11.9239 14.6557 11.9083 14.6084 11.9279 14.5695C11.9475 14.5308 11.9945 14.5148 12.0336 14.5344C12.0483 14.5418 12.393 14.7182 12.393 15.0787C12.393 15.1223 12.3577 15.1576 12.314 15.1576Z" fill="#41479B"/>
</g>
<defs>
<clipPath id="clip0_8615_27684">
<path d="M0 2C0 0.895432 0.895431 0 2 0H21.9998C23.1043 0 23.9998 0.895431 23.9998 2V21.9998C23.9998 23.1043 23.1043 23.9998 21.9998 23.9998H2C0.895432 23.9998 0 23.1043 0 21.9998V2Z" fill="white"/>
</clipPath>
</defs>
</svg>
