<svg width="24" height="24" viewBox="0 0 24 24" fill="none" xmlns="http://www.w3.org/2000/svg">
<g clip-path="url(#clip0_8615_27546)">
<path d="M23.9988 0H-0.000976562V11.9999H23.9988V0Z" fill="#73AF00"/>
<path d="M23.9988 12H-0.000976562V23.9999H23.9988V12Z" fill="#4173CD"/>
<path d="M-0.000976562 0V23.9998L23.9988 11.9999L-0.000976562 0Z" fill="#FF4B55"/>
<path d="M9.7904 14.7862C9.7904 14.7862 11.1836 14.2781 11.5771 12.7537C11.5771 12.7537 10.9706 13.5405 10.5444 13.7699C10.5444 13.7699 11.4787 12.5242 11.282 11.3112C11.282 11.3112 11.1673 11.803 10.9378 11.9997C10.9378 11.9997 11.3476 10.2458 10.8231 9.50818C10.8231 9.50818 10.8395 10.1311 10.61 10.7539C10.61 10.7539 10.6974 8.78149 9.80136 8.27885C9.80136 8.27885 10.151 8.90172 10.0035 9.42625C10.0035 9.42625 9.75768 8.31162 8.61572 7.86907C8.61572 7.86907 8.5447 7.95101 8.56106 8.19692C8.56106 8.19692 8.24963 7.8199 7.47925 7.83631C7.47925 7.83631 7.49565 8.11498 7.69234 8.37724C7.69234 8.37724 7.3809 8.54116 7.18422 8.49199C7.18422 8.49199 7.49565 8.83619 8.59388 8.80342C8.59388 8.80342 8.44636 8.93453 8.15133 8.96734C8.15133 8.96734 8.59992 9.17341 9.04195 9.2132C9.64841 9.26781 9.88883 9.62298 10.0036 10.0656C10.0036 10.0656 9.52823 9.7869 9.34795 9.50828C9.34795 9.50828 9.31518 9.98363 10.2167 10.9015L9.75772 10.7048C9.75772 10.7048 10.0528 11.5572 10.4134 12.5243L10.0363 12.1145C10.0363 12.1145 9.95441 12.8029 9.88883 14.0815L9.62657 13.475C9.62657 13.475 9.16762 14.983 8.46277 15.2288C7.91101 15.4213 7.30075 15.5531 7.06094 15.6015C7.03853 14.7578 7.39731 14.5732 7.39731 14.5732C8.03658 14.6059 8.1841 13.9011 8.1841 13.9011C8.05299 14.0322 7.80709 14.0322 7.80709 14.0322C8.1841 13.6389 8.1841 13.0815 8.1841 13.0815C7.9546 13.5241 7.59399 13.5896 7.59399 13.5896L7.62676 13.1471C6.96006 13.632 7.00764 14.1998 7.01866 14.2831C7.00361 14.1769 6.88492 13.3465 6.82357 13.1471C6.75799 12.934 6.9055 12.5078 7.135 12.5734C7.87777 12.7856 8.0529 12.2456 8.0529 12.2456C7.65953 12.4259 7.43003 12.2947 7.43003 12.2947C7.93815 11.803 7.72506 11.344 7.72506 11.344C7.56114 11.8194 7.10219 11.9013 7.10219 11.9013L7.08578 11.3768C6.87269 11.4915 6.676 11.9997 6.676 11.9997C6.676 11.9997 6.62683 11.5899 6.77435 11.2293C6.92186 10.8687 7.29887 11.0489 7.29887 11.0489C7.97091 11.1801 8.184 10.5408 8.184 10.5408L7.74146 10.6064C8.23322 10.2458 8.08566 9.80321 8.08566 9.80321C7.97091 10.0819 7.56114 10.1311 7.56114 10.1311L7.75782 9.60653C7.33164 9.60653 7.08578 10.1638 7.08578 10.1638L7.05302 9.62289C7.2497 8.91808 6.79075 8.60665 6.79075 8.60665C6.69241 8.73775 6.74158 9.01642 6.74158 9.01642C6.3318 8.65582 6.02037 9.082 6.02037 9.082C6.3318 9.40984 6.62683 9.37703 6.62683 9.37703C6.52849 9.44261 6.16788 9.47537 6.16788 9.47537C6.57766 9.81957 6.80716 9.75404 6.80716 9.75404C7.00384 10.59 6.47932 10.967 6.47932 10.967C6.38098 10.3441 6.00396 10.0491 6.00396 10.0491L6.02037 10.4589C5.77451 10.3114 5.57783 9.86879 5.57783 9.86879C5.41391 10.4917 5.8565 11.0326 5.8565 11.0326L5.44672 10.9998C5.80732 11.8358 6.38102 11.5735 6.38102 11.5735C6.33185 12.1636 6.52854 13.1307 6.52854 13.1307C6.4466 13.0324 5.57783 12.2128 5.57783 12.2128C5.54506 12.5406 5.8565 12.9668 5.8565 12.9668C5.69258 12.9341 5.21722 12.5735 5.21722 12.5735C5.26639 13.098 5.95484 13.4422 5.95484 13.4422C5.69258 13.4749 5.18446 13.1799 5.18446 13.1799C5.47948 14.4421 6.56135 13.8847 6.56135 13.8847L6.64432 15.5919C6.4158 15.5371 5.91607 15.4097 5.39755 15.2288C4.69274 14.983 4.23375 13.475 4.23375 13.475L3.97148 14.0815C3.90591 12.8029 3.82397 12.1145 3.82397 12.1145L3.44696 12.5243C3.80756 11.5572 4.10259 10.7048 4.10259 10.7048L3.64364 10.9015C4.54518 9.98363 4.51237 9.50828 4.51237 9.50828C4.33204 9.78695 3.85673 10.0656 3.85673 10.0656C3.97148 9.62303 4.33209 9.16403 4.77463 9.13127C5.21717 9.0985 5.70894 8.96734 5.70894 8.96734C5.41391 8.93458 5.26639 8.80342 5.26639 8.80342C6.5449 8.68868 6.67605 8.34448 6.67605 8.34448C6.47936 8.39365 5.87286 8.32807 5.87286 8.32807C6.38098 8.0494 7.21694 7.78714 7.21694 7.78714C6.18429 7.60681 5.29916 8.19692 5.29916 8.19692C5.44667 7.91825 5.70894 7.60681 5.70894 7.60681C4.44679 8.1641 3.85673 9.42625 3.85673 9.42625C3.70922 8.90172 4.0589 8.27885 4.0589 8.27885C3.16285 8.78149 3.25027 10.7539 3.25027 10.7539C3.02077 10.1311 3.03718 9.50818 3.03718 9.50818C2.51265 10.2458 2.92243 11.9997 2.92243 11.9997C2.69293 11.803 2.57823 11.3112 2.57823 11.3112C2.38155 12.5242 3.31585 13.7699 3.31585 13.7699C2.88967 13.5404 2.2832 12.7537 2.2832 12.7537C2.67657 14.2781 4.06987 14.7862 4.06987 14.7862C3.29949 14.4912 2.97165 14.737 2.97165 14.737C3.51258 14.8518 4.03711 15.1796 4.46324 15.4911C4.88938 15.8025 5.46313 15.8681 5.97125 15.9336C6.1812 15.9607 6.3551 15.9959 6.48982 16.0283C6.21213 16.1642 6.02042 16.4487 6.02042 16.7787H7.69234C7.69234 16.4611 7.51525 16.1849 7.25439 16.0434C7.42229 16.0075 7.64593 15.965 7.88902 15.9336C8.39714 15.868 8.928 15.7331 9.39702 15.4911C9.90514 15.2288 10.3477 14.8518 10.8886 14.737C10.8886 14.737 10.5608 14.4911 9.7904 14.7862Z" fill="#FFE15A"/>
</g>
<defs>
<clipPath id="clip0_8615_27546">
<path d="M0 2C0 0.895432 0.895431 0 2 0H21.9998C23.1043 0 23.9998 0.895431 23.9998 2V21.9998C23.9998 23.1043 23.1043 23.9998 21.9998 23.9998H2C0.895432 23.9998 0 23.1043 0 21.9998V2Z" fill="white"/>
</clipPath>
</defs>
</svg>
