<?xml version="1.0" encoding="utf-8"?>
<!-- Generator: Adobe Illustrator 28.1.0, SVG Export Plug-In . SVG Version: 6.00 Build 0)  -->
<svg version="1.1" id="Layer_1" xmlns="http://www.w3.org/2000/svg" xmlns:xlink="http://www.w3.org/1999/xlink" x="0px" y="0px"
	 viewBox="0 0 512 512" style="enable-background:new 0 0 512 512;" xml:space="preserve">

<g>
	<defs>
		<path id="SVGID_1_" d="M512,400V112C512,50.1,461.9,0,400,0H112C50.2,0,0,50.1,0,112v288c0,61.8,50.2,112,112,112h288
			C461.9,512,512,461.9,512,400z"/>
	</defs>
	<clipPath id="SVGID_00000063609083816121564440000013437646688181739933_">
		<use xlink:href="#SVGID_1_"  style="overflow:visible;"/>
	</clipPath>
	<g style="clip-path:url(#SVGID_00000063609083816121564440000013437646688181739933_);">
		<g>
			<path fill="#3E5EB9" d="M519.5,458.8c0,49.8-26.2,90.1-58.6,90.1H51c-32.3,0-58.6-40.4-58.6-90.1V53.2C-7.5,3.4,18.7-37,51-37h410
				c32.3,0,58.6,40.4,58.6,90.1V458.8z"/>
			<path fill="#FFD900" d="M-7.5,138.9h527.1v234.3H-7.5V138.9z"/>
			<path fill="#B10D0D" d="M-7.5,153.5h527.1v205H-7.5V153.5z"/>
			<path fill="#FFFFFF" d="M395.3,238.1l22.9,8.7l22.4-8.7l-22.4-7.3L395.3,238.1z"/>
			<path fill="#FFD900" d="M410.2,238.4c0,2.3-1.8,4.1-4.1,4.1l0,0h-329c-2.3,0-4.1-1.8-4.1-4.1s1.8-4.1,4.1-4.1h329
				C408.3,234.3,410.2,236.2,410.2,238.4z"/>
			<path fill="#FFFFFF" d="M409.9,223.5l22.9,8.7l22.4-8.7l-22.4-7.3L409.9,223.5z"/>
			<path fill="#FFD900" d="M424.8,223.8c0,2.3-1.8,4.1-4.1,4.1h-329c-2.3,0-4.1-1.8-4.1-4.1s1.8-4.1,4.1-4.1h329
				C423,219.7,424.8,221.5,424.8,223.8C424.8,223.8,424.8,223.8,424.8,223.8L424.8,223.8z M486.3,255.9c0,3.4-2.7,6.2-6.1,6.2
				c0,0,0,0,0,0H38.5c-3.4,0-6.2-2.8-6.2-6.2c0-3.4,2.8-6.2,6.2-6.2h441.5C483.5,249.7,486.3,252.5,486.3,255.9L486.3,255.9z"/>
			<path fill="#FFFFFF" d="M391.1,256.5c0,0-59.4,80.4-132.7,80.4s-132.7-80.4-132.7-80.4s59.4-80.4,132.7-80.4
				S391.1,256.5,391.1,256.5z"/>
			<path d="M270.3,319.7c-6.4-3-17.4-6.7-17.1-9.5c0.3-2.8,8.5-3.7,16.2-4.6s7.3-4.6,5.2-6.4c-2.1-1.8-11-4.3-16.2-7.3
				c-5.2-3-0.3-5.8,4.3-9.5c4.7-3.7,4.8-7.9,4.8-11c0-3.1,3.7-9.5,9.8-13.4c6.1-4,0.3-4.6-4.6-7c-4.9-2.4-4.6-10.7-3.7-16.8
				s0.6-9.5-1.5-9.8s-3.4-2.1-4.6-3.8c-1.2-1.7,0-4.7-4.6-5.3c-4.6-0.6-4.3-2.1-5.5-4.9c-1.2-2.7-5.2-7-7-12.2
				c-1.5-4.4,2.2-12.6,12.1-22.2c-73.1,0.3-132.3,80.4-132.3,80.4s59.4,80.4,132.7,80.4c9.4,0,18.5-1.3,27.4-3.6
				C283.7,324.6,275.5,322.2,270.3,319.7L270.3,319.7z"/>
			<path fill="#FFFFFF" d="M175.2,227.3h6.4V249h-6.4V227.3z M175.2,263.3h6.4V285h-6.4V263.3z M187.7,227.3h6.4V249h-6.4V227.3z
				 M187.7,263.3h6.4V285h-6.4V263.3z M200.2,227.3h6.4V249h-6.4V227.3z M200.2,263.3h6.4V285h-6.4V263.3z M212.7,227.3h6.4V249
				h-6.4V227.3z M212.7,263.3h6.4V285h-6.4V263.3z M225.2,227.3h6.4V249h-6.4V227.3z M225.2,263.3h6.4V285h-6.4V263.3z M237.7,227.3
				h6.4V249h-6.4V227.3z M237.7,263.3h6.4V285h-6.4V263.3z"/>
			<path d="M274,227.3h6.4V249H274V227.3z M274,263.3h6.4V285H274V263.3z M286.5,227.3h6.4V249h-6.4V227.3z M286.5,263.3h6.4V285
				h-6.4V263.3z M299,227.3h6.4V249H299V227.3z M299,263.3h6.4V285H299V263.3z M311.5,227.3h6.4V249h-6.4V227.3z M311.5,263.3h6.4
				V285h-6.4V263.3z M324,227.3h6.4V249H324V227.3z M324,263.3h6.4V285H324V263.3z M336.5,227.3h6.4V249h-6.4V227.3z M336.5,263.3
				h6.4V285h-6.4V263.3z"/>
			<path fill="#3D5DA7" d="M214.4,191.5c-5.9,3.9-17.8,15.8-18.5,24.5c2.5-2.3,5.5-2.8,5.5-2.8s-3.4,4.8-3,10.7
				c2.1-2.3,4.1-3.2,4.1-3.2s1.2,5.5,5.7,11.2c2.3-1.4,3-3.7,3-3.7s1.4,4.8,6.2,8.5c1.8-0.5,1.8-2.5,1.8-2.5s2.8,5.9,14.5,8.5
				c-2.1-3.9,4.6-9.3,2.1-15.4c2,1.2,4.1,4.2,4.1,4.2s2-3-2.1-8.5c2.5,2.3,3.9,4.3,3.9,4.3s1.6-9.5-3.9-15.5c3.4,1.4,6.4,3,6.4,3
				s-0.6-11.5-9.2-16.7C224,191.5,214.4,196.3,214.4,191.5L214.4,191.5z M53.3,254.6c0,0,5.3,4.8-2.1,5.5c-7.3,0.7-13.3,9.4-13,18.1
				l3.9-1.8c0,0-1.1,5.9,0.7,9.8c1.6-3.9,3.9-3.7,3.9-3.7s0.5,5.7,1.4,10.1c1.8-2.3,1.6-4.8,1.6-4.8s2.8,0.9,4.1,4.8
				s2.1,6.9,5.3,8.7c1.4-0.7,2.1-2.5,2.1-2.5s2.8,2.3,7.1,4.1c-0.9-6.2,5-5.5,7.6-9.8c0.9,1.1,1.1,3.4,1.1,3.4s1.8-3.4,1.8-6.9
				s2.1-6.2,2.1-6.2s0.2,1.6,0,4.1c2.1-1.1,2.5-14.2,1.6-18.3c1.4,1.1,2.5,3.7,2.5,3.7s1.6-6.6,0-10.9c-1.6-4.2-6.2-7.7-11.9-5.6
				c-5.7,2.1-14.2-3.4-14.2-3.4s1.4,3.4-0.5,4.6S58.1,255.8,53.3,254.6L53.3,254.6z M454.3,252.3c0,0-4.6,1.6-11.9,8.5
				c-7.3,6.9-9.6,18.5-9.6,18.5s4.1-3.4,5.7-3.9c-3.9,8.9,3.7,13,2.5,20.1c3-0.5,5.7-5.7,5.7-5.7s5.5,9.8,13.3,15.3
				c1.8-5.3,7.1-9.6,7.1-9.6l1.1,3l3.2-8l2.3,3.9c0,0,2.1-4.5,0-9.5c0.3,0.9,3.4,3.3,3.4,3.3v-11c0,0,1.8,3.4,3.2,4.3
				c0-4.8-2.8-8.2-1.6-10.3l1.6,2.8c0,0,1.4-7.6-6.6-13.6c-8-5.9-15.5-5.5-17.1-4.7C455,256.7,454.3,252.3,454.3,252.3L454.3,252.3z
				"/>
			<path fill="#A70000" d="M210,205.9c4.2-1.3,2.8,12.4-2.3,17.8C210.5,214.4,204.8,207.5,210,205.9z M220,202c1-3.5,8.3,5.7,17.7,6.2
				C229.5,209.6,218.7,206.4,220,202z M217.1,216.2c2.5-1.2,3.2,12.6,0,16.5C217.6,225.8,213.7,217.8,217.1,216.2z M226.3,212.8
				c-3.2,0.9,6.2,8.5,11.4,8C232.7,219.8,231.3,211.4,226.3,212.8L226.3,212.8z M224.4,227.3c-3.3,0,0,8.8,5.9,10.8
				C228.3,234.9,229.8,227.3,224.4,227.3L224.4,227.3z M54.4,264.9c3,0-0.9,10.3-7.3,14.4C50.6,274.3,50.1,264.9,54.4,264.9z
				 M64.3,263.3c-2.4,1.9,4.3,10.2,12.1,10.8C71.4,270.6,67.3,261.1,64.3,263.3z M57,276.6c1.8-0.3,2.2,9.6-3,12.1
				C56.7,282.3,54.2,277.1,57,276.6z M65.7,276.6c3-1.9,4.5,5.9,8.9,8.4C67.3,283.2,62.7,278.4,65.7,276.6z M61.9,283.9
				c3-1.3,4.7,9.6,0,12.8C63.6,289.6,59.3,285,61.9,283.9z M448.6,274.2c3.2-0.1-2.5,9.3-7.3,11.8
				C445.9,279.1,445.2,274.2,448.6,274.2z M460.1,269.3c-2.4,1.6,4.3,6.2,7.6,6.2C463.7,274.2,463,267.2,460.1,269.3z M451.8,285
				c2.4-1.8,3.4,4.2,0,8.5C453.9,289.1,448.6,287.4,451.8,285z M461.7,278.8c-2.5,1,2.3,8.1,5.9,8.6
				C463.6,284.9,465.3,277.3,461.7,278.8z M458.2,286c2.1-1.6,6.3,8.7,1.3,14C461.9,292.3,454.3,288.9,458.2,286z"/>
		</g>
	</g>
</g>
</svg>
