<svg width="24" height="24" viewBox="0 0 24 24" fill="none" xmlns="http://www.w3.org/2000/svg">
<g clip-path="url(#clip0_8615_27591)">
<path d="M23.9978 0H-0.00195312V23.9998H23.9978V0Z" fill="#41479B"/>
<path d="M12.1813 4.68256L12.3814 5.28274L13.0141 5.28766C13.0959 5.28832 13.1299 5.3928 13.064 5.4415L12.5551 5.81734L12.7459 6.42052C12.7706 6.49862 12.6817 6.56321 12.6151 6.51559L12.1004 6.14771L11.5857 6.51559C11.5191 6.56321 11.4302 6.49862 11.4549 6.42052L11.6457 5.81734L11.1368 5.4415C11.0709 5.39285 11.1049 5.28832 11.1868 5.28766L11.8194 5.28274L12.0196 4.68256C12.0454 4.60484 12.1554 4.60484 12.1813 4.68256Z" fill="#FFE15A"/>
<path d="M12.1813 17.5684L12.3814 18.1686L13.0141 18.1735C13.0959 18.1742 13.1299 18.2787 13.064 18.3274L12.5551 18.7032L12.7459 19.3064C12.7706 19.3845 12.6817 19.4491 12.6151 19.4014L12.1004 19.0336L11.5857 19.4014C11.5191 19.4491 11.4302 19.3845 11.4549 19.3064L11.6457 18.7032L11.1368 18.3274C11.0709 18.2787 11.1049 18.1742 11.1868 18.1735L11.8194 18.1686L12.0196 17.5684C12.0454 17.4907 12.1554 17.4907 12.1813 17.5684Z" fill="#FFE15A"/>
<path d="M18.6242 11.1254L18.8243 11.7256L19.4569 11.7305C19.5388 11.7312 19.5728 11.8357 19.5069 11.8844L18.998 12.2602L19.1888 12.8634C19.2135 12.9415 19.1246 13.0061 19.058 12.9585L18.5433 12.5906L18.0286 12.9585C17.962 13.0061 17.873 12.9415 17.8978 12.8634L18.0886 12.2602L17.5797 11.8844C17.5138 11.8357 17.5478 11.7312 17.6297 11.7305L18.2623 11.7256L18.4624 11.1254C18.4884 11.0477 18.5982 11.0477 18.6242 11.1254Z" fill="#FFE15A"/>
<path d="M5.73841 11.1254L5.93856 11.7256L6.57118 11.7305C6.65307 11.7312 6.68706 11.8357 6.62115 11.8844L6.11223 12.2602L6.30306 12.8634C6.32776 12.9415 6.23884 13.0061 6.17223 12.9585L5.65755 12.5906L5.14287 12.9585C5.07621 13.0061 4.98729 12.9415 5.01204 12.8634L5.20287 12.2602L4.69395 11.8844C4.62805 11.8357 4.66203 11.7312 4.74392 11.7305L5.37654 11.7256L5.57669 11.1254C5.60261 11.0477 5.71249 11.0477 5.73841 11.1254Z" fill="#FFE15A"/>
<path d="M6.70569 7.76089L6.90585 8.36107L7.53847 8.36599C7.62036 8.36665 7.65434 8.47113 7.58844 8.51984L7.07952 8.89568L7.27035 9.49886C7.29505 9.57695 7.20613 9.64154 7.13952 9.59392L6.62484 9.22605L6.11015 9.59392C6.0435 9.64154 5.95458 9.57695 5.97933 9.49886L6.17015 8.89568L5.66124 8.51984C5.59533 8.47118 5.62931 8.36665 5.7112 8.36599L6.34382 8.36107L6.54398 7.76089C6.56985 7.68322 6.67977 7.68322 6.70569 7.76089Z" fill="#FFE15A"/>
<path d="M17.8654 14.2038L18.0655 14.804L18.6981 14.8089C18.78 14.8096 18.814 14.914 18.7481 14.9627L18.2392 15.3386L18.43 15.9418C18.4547 16.0199 18.3658 16.0844 18.2992 16.0368L17.7845 15.669L17.2698 16.0368C17.2032 16.0844 17.1143 16.0199 17.139 15.9418L17.3298 15.3386L16.8209 14.9627C16.755 14.9141 16.789 14.8096 16.8709 14.8089L17.5035 14.804L17.7036 14.2038C17.7296 14.1261 17.8395 14.1261 17.8654 14.2038Z" fill="#FFE15A"/>
<path d="M15.507 5.40261L15.7071 6.0028L16.3397 6.00772C16.4216 6.00837 16.4556 6.11286 16.3897 6.16156L15.8808 6.5374L16.0716 7.14058C16.0963 7.21867 16.0074 7.28327 15.9408 7.23564L15.4261 6.86777L14.9114 7.23564C14.8448 7.28327 14.7559 7.21867 14.7806 7.14058L14.9714 6.5374L14.4625 6.16156C14.3966 6.1129 14.4306 6.00837 14.5125 6.00772L15.1451 6.0028L15.3452 5.40261C15.3712 5.32494 15.481 5.32494 15.507 5.40261Z" fill="#FFE15A"/>
<path d="M9.06409 16.5621L9.26425 17.1623L9.89687 17.1672C9.97876 17.1678 10.0127 17.2723 9.94683 17.321L9.43792 17.6968L9.62874 18.3C9.65345 18.3781 9.56453 18.4427 9.49792 18.3951L8.98323 18.0272L8.46855 18.3951C8.4019 18.4427 8.31302 18.3781 8.33772 18.3L8.52855 17.6968L8.01963 17.321C7.95373 17.2723 7.98771 17.1678 8.0696 17.1671L8.70222 17.1622L8.90238 16.562C8.92825 16.4844 9.03817 16.4844 9.06409 16.5621Z" fill="#FFE15A"/>
<path d="M17.7036 7.76089L17.5035 8.36107L16.8709 8.36599C16.789 8.36665 16.755 8.47113 16.8209 8.51984L17.3298 8.89568L17.139 9.49886C17.1143 9.57695 17.2032 9.64154 17.2698 9.59392L17.7845 9.22605L18.2992 9.59392C18.3658 9.64154 18.4547 9.57695 18.43 9.49886L18.2392 8.89568L18.7481 8.51984C18.814 8.47118 18.78 8.36665 18.6981 8.36599L18.0655 8.36107L17.8654 7.76089C17.8394 7.68322 17.7296 7.68322 17.7036 7.76089Z" fill="#FFE15A"/>
<path d="M6.54398 14.2038L6.34382 14.804L5.7112 14.8089C5.62931 14.8096 5.59533 14.914 5.66124 14.9627L6.17015 15.3386L5.97933 15.9418C5.95462 16.0199 6.04355 16.0844 6.11015 16.0368L6.62484 15.669L7.13952 16.0368C7.20617 16.0844 7.29509 16.0199 7.27035 15.9418L7.07952 15.3386L7.58844 14.9627C7.65434 14.9141 7.62036 14.8096 7.53847 14.8089L6.90585 14.804L6.70569 14.2038C6.67982 14.1261 6.5699 14.1261 6.54398 14.2038Z" fill="#FFE15A"/>
<path d="M8.90238 5.40261L8.70222 6.0028L8.0696 6.00772C7.98771 6.00837 7.95373 6.11286 8.01963 6.16156L8.52855 6.5374L8.33773 7.14058C8.31302 7.21867 8.40194 7.28327 8.46855 7.23564L8.98323 6.86777L9.49792 7.23564C9.56457 7.28327 9.65349 7.21867 9.62874 7.14058L9.43792 6.5374L9.94683 6.16156C10.0127 6.1129 9.97876 6.00837 9.89687 6.00772L9.26425 6.0028L9.06409 5.40261C9.03822 5.32494 8.9283 5.32494 8.90238 5.40261Z" fill="#FFE15A"/>
<path d="M15.3452 16.5621L15.1451 17.1623L14.5125 17.1672C14.4306 17.1678 14.3966 17.2723 14.4625 17.321L14.9714 17.6968L14.7806 18.3C14.7559 18.3781 14.8448 18.4427 14.9114 18.3951L15.4261 18.0272L15.9408 18.3951C16.0074 18.4427 16.0964 18.3781 16.0716 18.3L15.8808 17.6968L16.3897 17.321C16.4556 17.2723 16.4216 17.1678 16.3397 17.1671L15.7071 17.1622L15.507 16.562C15.481 16.4844 15.3712 16.4844 15.3452 16.5621Z" fill="#FFE15A"/>
</g>
<defs>
<clipPath id="clip0_8615_27591">
<path d="M0 2C0 0.895432 0.895431 0 2 0H21.9998C23.1043 0 23.9998 0.895431 23.9998 2V21.9998C23.9998 23.1043 23.1043 23.9998 21.9998 23.9998H2C0.895432 23.9998 0 23.1043 0 21.9998V2Z" fill="white"/>
</clipPath>
</defs>
</svg>
