<svg width="24" height="24" viewBox="0 0 24 24" fill="none" xmlns="http://www.w3.org/2000/svg">
<g clip-path="url(#clip0_8615_27697)">
<path d="M23.9959 0H-0.00390625V23.9998H23.9959V0Z" fill="#41479B"/>
<path d="M4.41711 0H-0.00390625V0.936413L4.41711 3.83293V0Z" fill="#41479B"/>
<path d="M-0.00390625 3.20154V4.42107H1.85748L-0.00390625 3.20154Z" fill="#41479B"/>
<path d="M-0.00390625 7.57898V8.79851L1.85748 7.57898H-0.00390625Z" fill="#41479B"/>
<path d="M11.9957 0.936413V0H7.57471V3.83293L11.9957 0.936413Z" fill="#41479B"/>
<path d="M11.9957 8.79851V7.57898H10.1343L11.9957 8.79851Z" fill="#41479B"/>
<path d="M7.57471 8.16699V11.9999H11.9957V11.0635L7.57471 8.16699Z" fill="#41479B"/>
<path d="M11.9957 4.42107V3.20154L10.1343 4.42107H11.9957Z" fill="#41479B"/>
<path d="M-0.00390625 11.0635V11.9999H4.41711V8.16699L-0.00390625 11.0635Z" fill="#41479B"/>
<path d="M11.9959 11.0636V10.1278L8.06933 7.57898H9.22938L11.9959 9.37479V8.79851L10.1345 7.57898H11.9959V6.94739H6.94336V12H7.5749V8.16706L11.9959 11.0636Z" fill="#F5F5F5"/>
<path d="M-0.00390625 6.94739V7.57898H1.85748L-0.00390625 8.79851V9.68449L3.23967 7.57898H4.39972L-0.00390625 10.4375V11.0636L4.41711 8.16706V12H5.04865V6.94739H-0.00390625Z" fill="#F5F5F5"/>
<path d="M5.04865 0H4.41711V3.83293L-0.00390625 0.936413V1.96118L3.78553 4.42102H2.62547L-0.00390625 2.71422V3.20148L1.85748 4.42102H-0.00390625V5.05261H5.04865V0Z" fill="#F5F5F5"/>
<path d="M11.9959 5.05261V4.42102H10.1345L11.9959 3.20148V2.30421L8.73495 4.42102H7.5749L11.9959 1.55122V0.936413L7.5749 3.83293V0H6.94336V5.05261H11.9959Z" fill="#F5F5F5"/>
<path d="M11.996 6.94728V5.05261H6.94342V0H5.04865V5.05261H-0.00390625V6.94728H5.04865V11.9999H6.94342V6.94728H11.996Z" fill="#FF4B55"/>
<path d="M3.23967 7.57898L-0.00390625 9.68449V10.4375L4.39972 7.57898H3.23967Z" fill="#FF4B55"/>
<path d="M8.06934 7.57898L11.9959 10.1278V9.37479L9.22939 7.57898H8.06934Z" fill="#FF4B55"/>
<path d="M3.78553 4.42114L-0.00390625 1.9613V2.71434L2.62547 4.42114H3.78553Z" fill="#FF4B55"/>
<path d="M8.73476 4.42107L11.9957 2.30426V1.55127L7.57471 4.42107H8.73476Z" fill="#FF4B55"/>
<path d="M15.478 21.2486L15.2678 20.758L15.3729 21.0033L15.2666 20.7586C15.3109 20.7391 16.3512 20.2645 16.3512 18.8689H16.8848C16.8848 20.6254 15.5355 21.2239 15.478 21.2486Z" fill="#E67346"/>
<path d="M15.6868 20.0553L15.3096 19.678C16.0308 18.9568 16.4057 18.7589 16.4461 18.7386L16.6847 19.216L16.5654 18.9773L16.6868 19.2149C16.6834 19.2166 16.3455 19.3965 15.6868 20.0553Z" fill="#EB7D4B"/>
<path d="M20.961 21.2486L21.1712 20.758L21.0661 21.0033L21.1724 20.7586C21.1281 20.7391 20.0878 20.2645 20.0878 18.8689H19.5542C19.5542 20.6254 20.9035 21.2239 20.961 21.2486Z" fill="#E67346"/>
<path d="M20.7524 20.0553L21.1297 19.678C20.4084 18.9568 20.0335 18.7589 19.9931 18.7386L19.7545 19.216L19.8738 18.9773L19.7524 19.2149C19.7558 19.2166 20.0936 19.3965 20.7524 20.0553Z" fill="#EB7D4B"/>
<path d="M18.2189 11.9321H15.373C15.373 11.9321 15.373 15.3116 15.373 16.2009C15.373 17.0902 15.5509 19.4025 18.2189 20.2918C20.8869 19.4025 21.0647 17.0903 21.0647 16.2009C21.0647 15.3115 21.0647 11.9321 21.0647 11.9321H18.2189Z" fill="#4173CD"/>
<path d="M19.4638 12.9993H17.9347C17.7731 12.9993 17.6164 12.9443 17.4902 12.8434L16.8932 12.3658C16.8301 12.3154 16.7517 12.2878 16.671 12.2878H16.6179C16.4214 12.2878 16.2621 12.4471 16.2621 12.6436H15.9953C15.848 12.6436 15.7285 12.763 15.7285 12.9104C15.7285 13.0577 15.848 13.1772 15.9953 13.1772H16.2621C16.3604 13.1772 16.44 13.2568 16.44 13.3551V14.2444C16.44 14.5756 16.6673 14.8514 16.9736 14.9307V15.4895H17.3293L17.4627 14.9558H19.108L19.2859 15.1337V15.4895H19.4637V14.9558H19.6416V15.4895H19.8194V14.9065C19.9253 14.8449 19.9973 14.7315 19.9973 14.6002V13.533C19.9974 13.2382 19.7585 12.9993 19.4638 12.9993Z" fill="#C8C8C8"/>
<path d="M16.2622 15.3116L16.6179 16.3788H19.8195L20.1752 15.3116H16.2622Z" fill="#73AF00"/>
<path d="M20.1138 16.0231C19.6396 16.0231 19.6396 16.3788 19.1654 16.3788C18.6913 16.3788 18.6913 16.0231 18.2173 16.0231C17.7433 16.0231 17.7433 16.3788 17.2693 16.3788C16.7951 16.3788 16.7951 16.0231 16.3209 16.0231C15.8478 16.0231 15.8466 16.3772 15.3755 16.3787C15.3812 16.5768 15.3982 16.8191 15.4419 17.0869C15.8473 17.0538 15.8713 16.7345 16.3209 16.7345C16.795 16.7345 16.795 17.0903 17.2692 17.0903C17.7432 17.0903 17.7432 16.7345 18.2173 16.7345C18.6913 16.7345 18.6913 17.0903 19.1654 17.0903C19.6396 17.0903 19.6396 16.7345 20.1138 16.7345C20.5646 16.7345 20.5883 17.0545 20.9957 17.087C21.0394 16.8192 21.0564 16.5769 21.0621 16.3788C20.5888 16.3779 20.5882 16.0231 20.1138 16.0231Z" fill="#F5F5F5"/>
<path d="M20.1137 16.7346C19.6396 16.7346 19.6396 17.0903 19.1654 17.0903C18.6913 17.0903 18.6913 16.7346 18.2172 16.7346C17.7432 16.7346 17.7432 17.0903 17.2692 17.0903C16.7951 17.0903 16.7951 16.7346 16.3209 16.7346C15.8713 16.7346 15.8473 17.0539 15.4419 17.087C15.4767 17.3002 15.529 17.5295 15.6055 17.7651C15.8649 17.6745 15.9407 17.4461 16.3209 17.4461C16.795 17.4461 16.795 17.8018 17.2692 17.8018C17.7432 17.8018 17.7432 17.4461 18.2172 17.4461C18.6913 17.4461 18.6913 17.8018 19.1654 17.8018C19.6396 17.8018 19.6396 17.4461 20.1137 17.4461C20.4953 17.4461 20.5708 17.6754 20.8319 17.7657C20.9085 17.5298 20.9608 17.3004 20.9956 17.0871C20.5883 17.0545 20.5646 16.7346 20.1137 16.7346Z" fill="#4173CD"/>
<path d="M20.1137 17.446C19.6395 17.446 19.6395 17.8018 19.1654 17.8018C18.6913 17.8018 18.6913 17.446 18.2172 17.446C17.7432 17.446 17.7432 17.8018 17.2692 17.8018C16.7951 17.8018 16.7951 17.446 16.3209 17.446C15.9407 17.446 15.8649 17.6745 15.6055 17.7651C15.6668 17.954 15.7445 18.1469 15.8416 18.3391C15.9619 18.249 16.0804 18.1575 16.3208 18.1575C16.795 18.1575 16.795 18.5132 17.2691 18.5132C17.7431 18.5132 17.7431 18.1575 18.2172 18.1575C18.6913 18.1575 18.6913 18.5132 19.1653 18.5132C19.6395 18.5132 19.6395 18.1575 20.1137 18.1575C20.3555 18.1575 20.4743 18.2497 20.5953 18.3403C20.6926 18.1478 20.7703 17.9547 20.8318 17.7656C20.5707 17.6754 20.4953 17.446 20.1137 17.446Z" fill="#F5F5F5"/>
<path d="M20.1139 18.1575C19.6397 18.1575 19.6397 18.5132 19.1655 18.5132C18.6914 18.5132 18.6914 18.1575 18.2174 18.1575C17.7434 18.1575 17.7434 18.5132 17.2694 18.5132C16.7952 18.5132 16.7952 18.1575 16.321 18.1575C16.0806 18.1575 15.962 18.249 15.8418 18.3392C15.9344 18.5223 16.045 18.7046 16.1773 18.8822C16.2203 18.874 16.2673 18.8689 16.3211 18.8689C16.7952 18.8689 16.7952 19.2247 17.2694 19.2247C17.7434 19.2247 17.7434 18.8689 18.2174 18.8689C18.6915 18.8689 18.6915 19.2247 19.1656 19.2247C19.6398 19.2247 19.6398 18.8689 20.1139 18.8689C20.1688 18.8689 20.2167 18.8741 20.2603 18.8825C20.3924 18.7052 20.503 18.5232 20.5955 18.3402C20.4745 18.2497 20.3558 18.1575 20.1139 18.1575Z" fill="#4173CD"/>
<path d="M20.2603 18.8824C20.2167 18.8741 20.1687 18.8689 20.1139 18.8689C19.6397 18.8689 19.6397 19.2246 19.1655 19.2246C18.6915 19.2246 18.6915 18.8689 18.2174 18.8689C17.7434 18.8689 17.7434 19.2246 17.2694 19.2246C16.7952 19.2246 16.7952 18.8689 16.3211 18.8689C16.2672 18.8689 16.2202 18.874 16.1772 18.8821C16.4655 19.2691 16.8566 19.6319 17.3858 19.9271C17.7461 19.8739 17.7862 19.5804 18.2174 19.5804C18.6495 19.5804 18.6888 19.8752 19.0514 19.9274C19.5808 19.6322 19.9719 19.2694 20.2603 18.8824Z" fill="#F5F5F5"/>
<path d="M18.3053 16.0232H18.1274V19.0471H18.3053V16.0232Z" fill="#FF965A"/>
<path d="M18.7498 16.4675H17.6826V16.6454H18.7498V16.4675Z" fill="#FF965A"/>
<path d="M18.7498 17.5349H17.6826V17.7128H18.7498V17.5349Z" fill="#FF965A"/>
<path d="M18.7523 16.6453H17.6851V17.3488H18.7523V16.6453Z" fill="#FFE15A"/>
<path d="M18.1298 16.0231V16.3788L17.5962 16.2009L18.1298 16.0231Z" fill="#FF4B55"/>
<path d="M19.4977 16.0232H19.3198V18.1131H19.4977V16.0232Z" fill="#FF965A"/>
<path d="M19.9422 16.4675H18.875V16.6454H19.9422V16.4675Z" fill="#FF965A"/>
<path d="M19.9422 17.5349H18.875V17.7128H19.9422V17.5349Z" fill="#FF965A"/>
<path d="M19.9383 16.6453H18.8711V17.3488H19.9383V16.6453Z" fill="#FFE15A"/>
<path d="M19.3158 16.0231V16.3788L18.7822 16.2009L19.3158 16.0231Z" fill="#FF4B55"/>
<path d="M17.1149 16.0232H16.937V18.0983H17.1149V16.0232Z" fill="#FF965A"/>
<path d="M17.5594 16.4675H16.4922V16.6454H17.5594V16.4675Z" fill="#FF965A"/>
<path d="M17.5594 17.5349H16.4922V17.7128H17.5594V17.5349Z" fill="#FF965A"/>
<path d="M17.5594 16.6453H16.4922V17.3488H17.5594V16.6453Z" fill="#FFE15A"/>
<path d="M16.9365 16.0231V16.3788L16.4028 16.2009L16.9365 16.0231Z" fill="#FF4B55"/>
<path d="M19.1083 17.9795C19.1083 18.4699 18.7093 18.8689 18.2189 18.8689C17.7286 18.8689 17.3296 18.4699 17.3296 17.9795H17.1517H16.9753L15.7707 17.7075L15.7314 17.881L16.2624 18.001V18.1574L16.6539 18.314C16.8082 19.0366 17.451 19.5804 18.2189 19.5804C18.9792 19.5804 19.6161 19.0471 19.7785 18.3353H20.3533V17.8017L19.1083 17.9795Z" fill="#FF965A"/>
<path d="M21.0648 11.9322C21.0648 11.9322 21.0648 15.3116 21.0648 16.2009C21.0648 17.0902 20.8869 19.4025 18.219 20.2919C15.5509 19.4025 15.3731 17.0903 15.3731 16.2009C15.3731 15.3116 15.3731 11.9322 15.3731 11.9322H18.219H21.0648ZM21.2427 11.7543H21.0648H18.219H15.3732H15.1953V11.9322V16.2009C15.1953 18.31 16.2492 19.8227 18.1628 20.4606L18.219 20.4793L18.2753 20.4606C20.1889 19.8227 21.2428 18.3099 21.2428 16.2009V11.9322V11.7543H21.2427Z" fill="#F5F5F5"/>
<path d="M18.2188 21.1812C16.9096 21.1812 15.6956 20.7426 14.9712 20.0081L15.4777 19.5085C16.0713 20.1104 17.096 20.4698 18.2188 20.4698C19.3416 20.4698 20.3663 20.1104 20.9599 19.5085L21.4664 20.0081C20.742 20.7427 19.528 21.1812 18.2188 21.1812Z" fill="#FF965A"/>
</g>
<defs>
<clipPath id="clip0_8615_27697">
<path d="M0 2C0 0.895432 0.895431 0 2 0H21.9998C23.1043 0 23.9998 0.895431 23.9998 2V21.9998C23.9998 23.1043 23.1043 23.9998 21.9998 23.9998H2C0.895432 23.9998 0 23.1043 0 21.9998V2Z" fill="white"/>
</clipPath>
</defs>
</svg>
