<svg width="24" height="24" viewBox="0 0 24 24" fill="none" xmlns="http://www.w3.org/2000/svg">
<g clip-path="url(#clip0_8615_27587)">
<path d="M23.9973 0H-0.00244141V23.9998H23.9973V0Z" fill="#82AFFF"/>
<path d="M13.7324 11.1752V17.422C13.7324 19.9553 17.2911 21.2574 17.7247 21.4065C18.1579 21.2574 21.717 19.9533 21.717 17.422V11.1752H13.7324Z" fill="#F5F5F5"/>
<path d="M21.8582 14.0402V11.0342H13.5918V14.0402H17.1614V16.8582H13.5918V17.9855H17.1614V21.3672L17.725 21.555L18.2886 21.3672V17.9855H21.8582V16.8582H18.2886V14.0402H21.8582Z" fill="#FF4B55"/>
<path d="M14.9071 12.5867C15.1867 13.0513 14.7029 13.535 14.2383 13.2555C14.1947 13.2292 14.1576 13.1921 14.1313 13.1484C13.8517 12.6838 14.3355 12.2001 14.8 12.4797C14.8437 12.506 14.8808 12.543 14.9071 12.5867Z" fill="#F5F5F5"/>
<path d="M15.4215 12.2315C15.271 12.1487 15.0001 11.9267 14.891 11.9643C14.7818 12.002 14.7574 12.0791 14.6048 12.0909C14.456 12.1023 14.2212 12.2475 14.319 12.4084C14.4463 12.6178 14.8446 12.4549 14.8709 12.3571C14.8709 12.3571 14.9688 12.3727 15.051 12.3532C15.051 12.3532 15.2146 12.5815 15.4178 12.5664C15.621 12.5514 15.7151 12.2993 15.6699 12.2993C15.6247 12.2993 15.4215 12.2315 15.4215 12.2315Z" fill="#FFE15A"/>
<path d="M16.0459 13.2287C16.012 13.2908 15.7542 13.5111 15.3234 13.6125C15.2275 13.6351 15.2444 13.7479 15.1484 13.6915C15.0525 13.6351 14.7872 13.5899 14.5501 13.5786C14.313 13.5673 14.2895 13.3477 14.33 13.2682C14.3814 13.1673 14.7598 13.1057 14.8276 13.2299C14.8953 13.3541 14.946 13.3281 15.1145 13.3641C15.219 13.3864 15.2218 13.4375 15.2218 13.4375C15.2218 13.4375 15.4137 13.2456 15.5774 13.1892C15.7411 13.1327 15.8822 13.0085 15.9104 13.0085C15.9386 13.0085 16.0854 13.0481 16.0854 13.0481L16.0459 13.2287Z" fill="#FFE15A"/>
<path d="M16.6728 12.5626C16.9212 12.6529 17.655 12.6247 18.4395 12.3707C19.224 12.1167 19.4498 12.0715 19.8336 12.2127C20.2175 12.3538 20.3836 11.908 20.1316 11.8326C19.7356 11.7141 18.5112 12.4255 17.6246 12.0263C17.6246 12.0263 17.5985 12.1337 17.6267 12.1845C17.6267 12.1845 16.9833 12.2071 17.1357 11.541C17.1357 11.541 17.1795 11.7842 17.4837 11.7562C18.0591 11.7034 18.1413 12.1085 19.3595 11.7329C20.0359 11.5244 20.5613 11.6267 20.566 11.9559C20.5716 12.352 20.0255 12.4441 20.0255 12.4441C20.0255 12.4441 20.2381 12.8787 20.6671 12.6868C21.0961 12.4949 21.1187 12.826 21.1563 12.9389C21.1939 13.0518 21.2654 13.1609 21.3595 13.1722C21.3595 13.1722 21.4272 13.3754 21.4009 13.4017C21.3746 13.4281 21.1977 13.6501 21.0208 13.6501C20.844 13.6501 20.4602 13.6501 20.4602 13.6501C20.4602 13.6501 20.3586 13.398 20.5542 13.3942C20.7499 13.3905 20.987 13.3754 20.9569 13.27C20.9268 13.1647 20.7725 13.1158 20.7762 12.9991C20.7762 12.9991 20.321 13.3302 20.0387 12.9389L20.0312 13.1233C20.0312 13.1233 19.6888 13.0593 19.5646 12.7846C19.5646 12.7846 19.5984 13.0931 19.3049 13.048C19.3049 13.048 19.3651 13.1383 19.4668 13.2023C19.5683 13.2662 19.463 13.4055 19.2673 13.5221C19.0716 13.6387 18.4696 13.9774 18.1949 13.6312C17.9202 13.285 18.2551 13.0856 18.3379 13.1082C18.4207 13.1308 18.6577 13.4957 18.8195 13.4468C18.9813 13.3979 19.0604 13.2323 18.9249 13.1308C18.7894 13.0292 18.6879 12.9331 18.7734 12.8306C18.8908 12.6897 19.3237 12.7319 19.3087 12.6378C19.2936 12.5438 18.891 12.5701 18.6276 12.8335C18.3642 13.0969 17.2203 13.7027 16.765 13.3189C16.3097 12.9351 16.6728 12.5626 16.6728 12.5626Z" fill="#FFE15A"/>
<path d="M16.5265 12.3935C16.5265 12.3935 16.8707 12.7321 17.4521 12.8393C17.4521 12.8393 17.3448 13.003 17.0344 12.9579C17.0344 12.9579 17.1586 13.0651 17.2433 13.2457C17.2433 13.2457 17.0457 13.2909 16.8707 13.1949C16.8707 13.1949 16.8933 13.3417 16.978 13.4602C16.978 13.4602 16.7466 13.4602 16.549 13.2852L16.47 13.511C16.47 13.511 16.3345 13.4206 16.2499 13.2457C16.2499 13.2457 16.0919 13.3699 15.9338 13.3699C15.9338 13.3699 15.9903 13.2006 15.9903 13.1046C15.9903 13.1046 15.7645 13.2401 15.5782 13.1893C15.5782 13.1893 15.5839 12.9522 15.646 12.8845C15.646 12.8845 15.4992 12.9014 15.4032 12.8506C15.4032 12.8506 15.4597 12.7208 15.4879 12.6361C15.4879 12.6361 15.3298 12.6418 15.2339 12.5515C15.2339 12.5515 15.5387 12.4329 15.6064 12.3201L16.5265 12.3935Z" fill="#FFD25A"/>
<path d="M15.9712 11.4452C16.0389 11.4828 16.1481 11.5656 16.1932 11.7048C16.1932 11.7048 16.3174 11.5242 16.5319 11.4903C16.5319 11.4903 16.6259 11.5957 16.5996 11.8704C16.5996 11.8704 16.8366 11.8027 16.9646 11.9268C16.9646 11.9268 16.7125 11.9833 16.5958 12.194C16.5958 12.194 16.5506 12.4093 16.6296 12.5372C16.6296 12.5372 16.5416 12.5489 16.4529 12.51C16.4529 12.51 16.4077 12.7245 16.4529 12.7923C16.4529 12.7923 16.3287 12.7772 16.261 12.6455C16.261 12.6455 16.1594 12.7998 16.1669 12.8938C16.1669 12.8938 16.0314 12.8148 16.0239 12.6982C16.0239 12.6982 15.9299 12.8751 15.8283 12.8901C15.8283 12.8901 15.817 12.6418 15.7718 12.5477C15.7718 12.5477 15.6853 12.6418 15.5724 12.638C15.5724 12.638 15.5724 12.4461 15.6665 12.3558C15.6665 12.3558 15.5085 12.4047 15.4219 12.2316C15.4219 12.2316 15.6815 12.3068 15.7455 12.1488C15.8095 11.9908 15.8283 11.9419 15.9186 11.8553C16.0088 11.7688 15.9712 11.4452 15.9712 11.4452Z" fill="#FFBE5A"/>
<path d="M16.5266 12.1733C16.5266 12.1733 16.2049 12.7885 15.9114 12.6023C15.5898 12.3982 15.9904 11.9193 16.0412 11.8685C16.0412 11.8685 16.2783 11.9306 16.5266 12.1733Z" fill="#FFE15A"/>
<path d="M15.3659 15.3243C15.3659 15.3243 15.3321 14.8825 15.0926 14.755C14.8673 14.6351 14.7344 14.5752 14.7085 14.4216C14.7085 14.4216 14.9042 14.5115 15.1111 14.5677C15.2979 14.6185 15.4803 14.9348 15.425 15.2906L15.3659 15.3243Z" fill="#5ABEA0"/>
<path d="M14.6099 15.6877L14.6403 15.7439L14.6625 15.8647L14.6182 16.0079C14.6182 16.0079 14.7942 16.0779 14.8343 16.3169C14.8618 16.481 14.934 16.5164 14.9783 16.4827C15.0226 16.449 15.0495 16.4091 15.0032 16.2298C14.9442 16.001 14.7844 15.7832 14.7844 15.7832L14.6598 15.5922L14.6099 15.6877Z" fill="#B46446"/>
<path d="M14.7872 15.7831C14.6266 15.5752 14.1889 15.1426 14.1058 15.7325C14.1058 15.7325 13.9343 15.2355 14.2554 15.255C14.6265 15.2775 14.7872 15.7831 14.7872 15.7831Z" fill="#5ABEA0"/>
<path d="M14.643 15.7438C14.5045 15.5921 14.4602 15.4797 14.3882 15.1988C14.3162 14.9179 14.294 14.8336 14.2109 14.8392C14.1278 14.8448 14.0779 14.9347 14.0779 15.1145C14.0779 15.1145 13.8342 14.8954 14.0004 14.7212C14.1666 14.5471 14.5377 14.6426 14.5599 14.9516C14.5821 15.2606 14.5765 15.4685 14.6873 15.7269L14.643 15.7438Z" fill="#5ABEA0"/>
<path d="M14.6817 15.6089C14.6817 15.6089 14.3882 14.9628 15.2135 14.6144C15.2135 14.6144 14.4823 14.4178 14.5709 15.4572L14.6817 15.6089Z" fill="#5ABEA0"/>
<path d="M14.7756 15.8393C14.7756 15.8393 14.1551 15.6033 14.2105 16.1764C14.2105 16.1764 14.3158 15.9067 14.6205 16.0078L14.7756 15.8393Z" fill="#5ABEA0"/>
<path d="M15.4771 15.6128C15.4771 15.7804 15.543 16.2667 15.4494 16.3282C15.4023 16.3591 15.2693 16.3338 15.2804 16.2158C15.2915 16.0978 15.3441 15.5248 15.3441 15.3843C15.3441 15.2438 15.4771 15.6128 15.4771 15.6128Z" fill="#B46446"/>
<path d="M15.0858 16.0023C15.1929 15.8937 15.2261 15.6465 15.1892 15.3169C15.1892 15.3169 15.4108 15.4705 15.4809 15.6128C15.4809 15.6128 15.5511 15.2869 15.3221 15.2008C15.0931 15.1146 14.9713 15.1633 14.9307 15.2682C14.89 15.373 15.0007 15.4903 15.0488 15.6615C15.0931 15.8188 15.0858 16.0023 15.0858 16.0023Z" fill="#5ABEA0"/>
<path d="M15.4659 15.5267C15.4659 15.5267 15.5028 15.3544 15.6247 15.2832C15.6247 15.2832 15.8758 15.4593 15.8573 15.6953C15.8573 15.6953 15.9238 15.3731 15.7872 15.2458C15.6505 15.1184 15.4954 15.0847 15.4179 15.1971C15.3403 15.3094 15.4659 15.5267 15.4659 15.5267Z" fill="#5ABEA0"/>
<path d="M15.5251 15.1971C15.5251 15.1971 15.6026 14.7363 15.7984 14.6352C15.9941 14.5341 16.356 14.4405 16.3781 14.418C16.3781 14.418 15.9461 14.4404 15.8759 14.4404C15.8057 14.4404 15.418 14.7213 15.418 15.1371C15.418 15.5529 15.4549 15.2682 15.466 15.2645C15.4771 15.2607 15.5251 15.1971 15.5251 15.1971Z" fill="#5ABEA0"/>
<path d="M15.7012 16.4153C15.7455 16.508 15.8507 16.5305 15.8729 16.4827C15.895 16.4349 15.9947 16.0697 15.9947 16.0697L15.8535 16.0023L15.7012 16.4153Z" fill="#B46446"/>
<path d="M16.5294 14.8824C16.703 14.7812 16.8175 15.0809 16.8175 15.0809C16.8175 14.7281 16.7067 14.6164 16.4297 14.7513C16.3463 14.7919 16.2853 14.877 16.2404 14.9757C16.1001 14.5728 15.7909 14.579 15.7909 14.579L15.7207 14.6277C15.9739 14.6763 16.1189 14.9798 16.1803 15.1454C16.1472 15.2662 16.1312 15.3833 16.1244 15.4503C15.9585 15.6223 15.8537 16.0023 15.8537 16.0023C15.8537 16.0023 15.9728 16.0725 15.995 16.0697C15.995 16.0697 16.0725 15.8309 16.1695 15.8365C16.2664 15.8422 16.38 15.9967 16.3828 16.095C16.3828 16.095 16.5268 15.8028 16.3551 15.6905C16.2906 15.6482 16.2389 15.6323 16.1973 15.6315L16.3246 15.4882C16.5323 15.5275 16.6763 15.7242 16.6763 15.7242C16.6806 15.373 16.5255 15.3045 16.362 15.3339C16.3913 15.1926 16.4555 14.9255 16.5294 14.8824Z" fill="#5ABEA0"/>
<path d="M19.9487 15.3687C19.9487 15.6631 19.9487 16.3163 19.9487 16.3645C19.9487 16.4126 19.7378 16.6 19.7378 16.6H20.2985C20.2985 16.6 20.1184 16.3912 20.1184 16.3645C20.1184 16.3377 20.1596 15.4436 20.1596 15.4436L19.9487 15.3687Z" fill="#B46446"/>
<path d="M19.9843 15.4702C19.8506 15.4595 19.4802 15.7647 19.3722 16.2304C19.3722 16.2304 19.043 15.695 19.866 15.2507C19.866 15.2507 19.5008 15.1436 18.9453 15.7218C18.9153 15.753 18.8887 14.8491 19.8866 15.0901C19.8866 15.0901 19.506 14.5387 18.7241 14.9723C18.7241 14.9723 19.2436 14.0408 20.0101 14.8759C20.0101 14.8759 20.0152 14.1532 20.0203 14.2281C20.0255 14.3031 20.0821 14.635 20.0821 14.635L20.2312 14.3727L20.1129 14.908C20.1129 14.908 20.7971 13.9979 21.3783 14.9455C21.3783 14.9455 20.6273 14.635 20.2672 14.9829C20.2672 14.9829 21.0388 14.7741 20.9771 15.6682C20.9771 15.6682 20.6736 15.1382 20.1798 15.2078C20.1798 15.2078 20.761 15.4755 20.5759 16.1982C20.5758 16.1983 20.2256 15.4895 19.9843 15.4702Z" fill="#5ABEA0"/>
<path d="M15.0723 18.6876C15.0437 18.6488 15.0035 18.6302 14.9642 18.6253C14.9793 18.5731 14.9894 18.5493 14.9854 18.5112C14.9974 18.5142 15.0088 18.5196 15.0212 18.5211L15.0264 18.4781C14.9807 18.4726 14.931 18.4521 14.8798 18.4209C14.9113 18.3938 14.9342 18.3524 14.9342 18.3015C14.9342 18.2463 14.9088 18.2 14.8728 18.1737C14.8367 18.2 14.8114 18.2463 14.8114 18.3015C14.8114 18.3431 14.8283 18.3763 14.8507 18.403C14.8317 18.3898 14.8125 18.3746 14.7932 18.3582C14.7882 18.3242 14.7752 18.29 14.745 18.2625C14.7042 18.2253 14.6529 18.2128 14.6092 18.2218C14.6044 18.2661 14.6215 18.316 14.6623 18.3532C14.6938 18.382 14.731 18.3918 14.7666 18.3926C14.7748 18.3995 14.7833 18.4064 14.7923 18.4134C14.7678 18.4104 14.7414 18.413 14.715 18.4226C14.6631 18.4415 14.6283 18.4811 14.6158 18.524C14.6529 18.5488 14.7051 18.5568 14.757 18.5379C14.8023 18.5214 14.8315 18.4882 14.8472 18.4518C14.8776 18.4712 14.911 18.4873 14.9455 18.5003L14.94 18.501C14.9389 18.5322 14.9409 18.545 14.9254 18.6029C14.8905 18.5803 14.8443 18.5701 14.7955 18.5845C14.7425 18.6001 14.7053 18.6374 14.6902 18.6794C14.7256 18.7066 14.7772 18.7178 14.8302 18.7022C14.87 18.6905 14.8971 18.6648 14.9164 18.6358C14.9091 18.6578 14.8999 18.6805 14.8896 18.7036C14.8585 18.718 14.8293 18.7402 14.8114 18.7769C14.7872 18.8266 14.7898 18.8793 14.8107 18.9187C14.8546 18.9108 14.8976 18.8803 14.9218 18.8306C14.9405 18.7922 14.9394 18.7538 14.9301 18.7194C14.9344 18.7096 14.9386 18.6995 14.9428 18.6889C14.9469 18.7132 14.9568 18.7378 14.9735 18.7604C15.0063 18.8049 15.0541 18.8271 15.0988 18.8269C15.1122 18.7843 15.1051 18.7321 15.0723 18.6876Z" fill="#5ABEA0"/>
<path d="M14.8184 18.549C15.0061 18.549 15.2517 18.5417 15.2444 18.7295C15.2372 18.9173 15.0278 19.5528 15.5117 19.7478C15.9956 19.9428 16.0533 19.9139 16.0533 19.9139L16.27 20.4123L16.7972 20.2245L16.2916 19.8201C16.2916 19.8201 16.2483 19.5456 16.1255 19.3579C16.1255 19.3579 16.436 19.199 16.5444 19.0618L16.3277 19.0473C16.3277 19.0473 16.6094 18.8668 16.7394 18.6645L16.5877 18.679C16.5877 18.679 16.7611 18.5056 16.8044 18.3034C16.8044 18.3034 16.5227 18.5851 16.2339 18.6212C16.2339 18.6212 16.3566 18.3034 16.3855 18.1807C16.3855 18.1807 16.1689 18.3179 16.0172 18.3757C15.8656 18.4335 15.6272 18.4407 15.7356 18.9317C15.7356 18.9317 15.6056 18.8234 15.5261 18.5923C15.4467 18.3612 15.4178 18.2746 15.3095 18.2746C15.1325 18.2746 15.0639 18.4334 15.0639 18.4334L14.8184 18.549Z" fill="#FFECDE"/>
<path d="M20.1488 18.6419C20.2137 18.5553 20.3437 18.2846 20.4573 18.355C20.571 18.4253 20.7226 18.5986 20.8147 18.5174C20.9067 18.4362 20.9121 18.3333 20.7714 18.2846C20.6306 18.2359 20.4736 18.1547 20.3762 18.1871C20.2787 18.2196 19.981 18.5282 19.981 18.5282L20.1488 18.6419Z" fill="#B46446"/>
<path d="M19.3093 18.8746C19.3039 18.7501 19.3879 18.2095 19.7262 18.2791C19.9103 18.317 20.0008 18.5121 20.2405 18.604C20.4949 18.7014 20.6573 18.7609 20.6086 18.9288C20.5599 19.0966 20.4679 19.297 20.2567 19.3457C20.0456 19.3944 19.3093 18.8746 19.3093 18.8746Z" fill="#FFE15A"/>
<path d="M19.0878 19.3203C19.0156 19.3347 18.7485 19.7246 19.0661 20.1215C19.0661 20.1215 19.456 20.2803 19.7663 20.0349C20.0767 19.7895 19.8457 19.6668 19.8457 19.6668L19.0878 19.3203Z" fill="#5ABEA0"/>
<path d="M19.1148 19.4052C19.0823 19.3565 19.0877 19.3204 19.0877 19.3204C19.0877 19.3204 19.0715 18.761 19.3043 18.7502C19.5371 18.7393 20.3762 19.2915 20.3762 19.3836C20.3762 19.4756 20.1055 19.7409 19.8782 19.795C19.6508 19.8492 19.1148 19.4052 19.1148 19.4052Z" fill="#5ABEA0"/>
<path d="M18.5405 20.7585C18.5405 20.7585 19.28 20.4263 19.141 20.1561C19.0407 19.9611 18.8152 20.086 18.7796 20.2349C18.7352 20.4207 18.5906 20.6797 18.5405 20.7585Z" fill="#B46446"/>
<path d="M17.7248 21.703L17.682 21.6894C17.6391 21.6756 16.6183 21.3468 15.5807 20.6629C14.1872 19.7446 13.4507 18.6238 13.4507 17.4219V10.8933H21.9989V17.4219C21.9989 18.6238 21.2623 19.7446 19.8689 20.6629C18.8313 21.3469 17.8104 21.6757 17.7675 21.6894L17.7248 21.703ZM13.7325 11.1751V17.4219C13.7325 19.9552 17.2912 21.2573 17.7248 21.4065C18.158 21.2573 21.7171 19.9532 21.7171 17.4219V11.1751H13.7325Z" fill="#464655"/>
<path d="M4.41614 0H-0.00488281V0.936413L4.41614 3.83293V0Z" fill="#41479B"/>
<path d="M-0.00488281 3.20154V4.42107H1.85651L-0.00488281 3.20154Z" fill="#41479B"/>
<path d="M-0.00488281 7.57898V8.79851L1.85651 7.57898H-0.00488281Z" fill="#41479B"/>
<path d="M11.9952 0.936413V0H7.57422V3.83293L11.9952 0.936413Z" fill="#41479B"/>
<path d="M11.9952 8.79851V7.57898H10.1338L11.9952 8.79851Z" fill="#41479B"/>
<path d="M7.57422 8.16699V11.9999H11.9952V11.0635L7.57422 8.16699Z" fill="#41479B"/>
<path d="M11.9952 4.42107V3.20154L10.1338 4.42107H11.9952Z" fill="#41479B"/>
<path d="M-0.00488281 11.0635V11.9999H4.41614V8.16699L-0.00488281 11.0635Z" fill="#41479B"/>
<path d="M11.9949 11.0636V10.1278L8.06836 7.57898H9.22841L11.9949 9.37479V8.79851L10.1336 7.57898H11.9949V6.94739H6.94238V12H7.57392V8.16706L11.9949 11.0636Z" fill="#F5F5F5"/>
<path d="M-0.00488281 6.94739V7.57898H1.85651L-0.00488281 8.79851V9.68449L3.23869 7.57898H4.39875L-0.00488281 10.4375V11.0636L4.41614 8.16706V12H5.04768V6.94739H-0.00488281Z" fill="#F5F5F5"/>
<path d="M5.04768 0H4.41614V3.83293L-0.00488281 0.936413V1.96118L3.78455 4.42102H2.6245L-0.00488281 2.71422V3.20148L1.85651 4.42102H-0.00488281V5.05261H5.04768V0Z" fill="#F5F5F5"/>
<path d="M11.9949 5.05261V4.42102H10.1336L11.9949 3.20148V2.30421L8.73397 4.42102H7.57392L11.9949 1.55122V0.936413L7.57392 3.83293V0H6.94238V5.05261H11.9949Z" fill="#F5F5F5"/>
<path d="M11.995 6.94728V5.05261H6.94244V0H5.04768V5.05261H-0.00488281V6.94728H5.04768V11.9999H6.94244V6.94728H11.995Z" fill="#FF4B55"/>
<path d="M3.23869 7.57898L-0.00488281 9.68449V10.4375L4.39875 7.57898H3.23869Z" fill="#FF4B55"/>
<path d="M8.06836 7.57898L11.9949 10.1278V9.37479L9.22841 7.57898H8.06836Z" fill="#FF4B55"/>
<path d="M3.78455 4.42114L-0.00488281 1.9613V2.71434L2.6245 4.42114H3.78455Z" fill="#FF4B55"/>
<path d="M8.73427 4.42107L11.9952 2.30426V1.55127L7.57422 4.42107H8.73427Z" fill="#FF4B55"/>
</g>
<defs>
<clipPath id="clip0_8615_27587">
<path d="M0 2C0 0.895432 0.895431 0 2 0H21.9998C23.1043 0 23.9998 0.895431 23.9998 2V21.9998C23.9998 23.1043 23.1043 23.9998 21.9998 23.9998H2C0.895432 23.9998 0 23.1043 0 21.9998V2Z" fill="white"/>
</clipPath>
</defs>
</svg>
