<svg width="24" height="24" viewBox="0 0 24 24" fill="none" xmlns="http://www.w3.org/2000/svg">
<g clip-path="url(#clip0_8615_27499)">
<path d="M23.9939 17.684H-0.00585938V23.9998H23.9939V17.684Z" fill="#FF4B55"/>
<path d="M23.9939 0H-0.00585938V6.31588H23.9939V0Z" fill="#FF4B55"/>
<path d="M23.9968 6.31592H-0.00292969V17.6844H23.9968V6.31592Z" fill="#F5F5F5"/>
<path d="M16.1602 10.3871L12.1511 12.0236C12.1495 12.0195 12.1476 12.0159 12.1457 12.012L16.0176 10.0729C15.8645 9.76734 15.6786 9.48113 15.4628 9.22018L12.1247 11.9808C12.1213 11.9766 12.1194 11.9713 12.1157 11.9674L15.1757 8.90443C14.9574 8.68609 14.7161 8.49095 14.4568 8.32108L12.0877 11.9474C12.0823 11.9438 12.0774 11.9396 12.0717 11.9367L14.0073 8.06242C13.6964 7.90666 13.3651 7.78619 13.0182 7.70557L12.0345 11.9244C12.022 11.9214 12.0101 11.9167 11.9966 11.9167C11.9832 11.9167 11.9713 11.9214 11.9587 11.9244L10.975 7.70557C10.6282 7.78619 10.2968 7.90666 9.98594 8.06242L11.9216 11.9367C11.9158 11.9397 11.9109 11.9439 11.9056 11.9474L9.53646 8.32108C9.27715 8.491 9.03588 8.68609 8.81754 8.90443L11.8775 11.9674C11.8738 11.9713 11.8719 11.9765 11.8686 11.9808L8.53048 9.22018C8.31472 9.48113 8.12872 9.76734 7.97563 10.0729L11.8475 12.012C11.8456 12.0159 11.8437 12.0195 11.8422 12.0236L7.83304 10.3871C7.71219 10.6835 7.62234 10.9956 7.56688 11.3197L11.8351 12.0587C11.8345 12.0624 11.8332 12.0658 11.8329 12.0696L7.52455 11.6208C7.50904 11.7728 7.50098 11.927 7.50098 12.0831C7.50098 12.3531 7.5261 12.617 7.57171 12.8739L11.9966 12.4161L16.4215 12.8739C16.4671 12.617 16.4923 12.3531 16.4923 12.0831C16.4923 11.9269 16.4842 11.7727 16.4687 11.6207L12.1604 12.0695C12.16 12.0657 12.1587 12.0623 12.1582 12.0586L16.4264 11.3196C16.371 10.9956 16.2811 10.6835 16.1602 10.3871Z" fill="#FFB955"/>
<path d="M7.65527 13.2388C7.68612 13.3551 7.72169 13.4694 7.76144 13.5818H16.2391C16.2788 13.4695 16.3144 13.3551 16.3453 13.2388C15.9299 13.1852 15.8783 12.9158 15.3724 12.9158C14.8107 12.9158 14.8107 13.2488 14.249 13.2488C13.6873 13.2488 13.6872 12.9158 13.1255 12.9158C12.5636 12.9158 12.5636 13.2488 12.0017 13.2488C11.4402 13.2488 11.4402 12.9158 10.8786 12.9158C10.3165 12.9158 10.3165 13.2488 9.75441 13.2488C9.19196 13.2488 9.19196 12.9158 8.62951 12.9158C8.12289 12.9158 8.07133 13.1852 7.65527 13.2388Z" fill="#4173CD"/>
<path d="M15.2398 14.0813C14.6991 14.0812 14.699 13.7483 14.1581 13.7483C13.6172 13.7483 13.6172 14.0813 13.0763 14.0813C12.5354 14.0813 12.5354 13.7483 11.9944 13.7483C11.4533 13.7483 11.4533 14.0813 10.9123 14.0813C10.3715 14.0813 10.3715 13.7483 9.83069 13.7483C9.28943 13.7483 9.28943 14.0813 8.74817 14.0813C8.26794 14.0813 8.21272 13.82 7.8291 13.7606C7.92069 13.9881 8.02926 14.207 8.15521 14.4143H15.2395H15.24H15.8449C15.9711 14.2065 16.0799 13.9871 16.1716 13.759C15.7765 13.8145 15.725 14.0812 15.2398 14.0813Z" fill="#4173CD"/>
<path d="M15.6697 14.6786C15.565 14.6237 15.4411 14.5808 15.2473 14.5808C14.7064 14.5808 14.7064 14.9138 14.1655 14.9138C13.6245 14.9138 13.6245 14.5808 13.0836 14.5808C12.5425 14.5808 12.5425 14.9138 12.0015 14.9138C11.4607 14.9138 11.4607 14.5808 10.9199 14.5808C10.3786 14.5808 10.3786 14.9138 9.83735 14.9138C9.29571 14.9138 9.29571 14.5808 8.75413 14.5808C8.55974 14.5808 8.43547 14.6239 8.33057 14.6789C8.47382 14.881 8.63263 15.0713 8.80653 15.2469H15.1935C15.3675 15.0712 15.5264 14.8809 15.6697 14.6786Z" fill="#4173CD"/>
<path d="M14.7706 15.6225C14.6071 15.5278 14.4757 15.4133 14.1584 15.4133C13.6174 15.4133 13.6174 15.7463 13.0765 15.7463C12.5356 15.7463 12.5356 15.4133 11.9946 15.4133C11.4536 15.4133 11.4536 15.7463 10.9125 15.7463C10.3717 15.7463 10.3717 15.4133 9.8309 15.4133C9.51774 15.4133 9.38555 15.5247 9.2251 15.6186C9.44794 15.7938 9.68761 15.9483 9.94153 16.0793H14.0591C14.3111 15.9492 14.5491 15.7961 14.7706 15.6225Z" fill="#4173CD"/>
<path d="M10.9202 16.2458C10.7429 16.2458 10.6241 16.2818 10.5249 16.3298C10.9872 16.4905 11.4833 16.5788 12.0004 16.5788H12.0012C11.461 16.5786 11.4608 16.2458 10.9202 16.2458Z" fill="#4173CD"/>
<path d="M12.0044 16.5788C12.5207 16.5783 13.0161 16.4898 13.4778 16.3292C13.3789 16.2815 13.2604 16.2458 13.084 16.2458C12.5438 16.2458 12.5427 16.5776 12.0044 16.5788Z" fill="#4173CD"/>
<path d="M12.5845 11.5141L11.1599 11.1024C11.08 11.0793 11.0247 11.0072 11.0236 10.924C11.0171 10.3965 10.9941 8.53891 10.9941 8.25368C10.9941 7.92068 11.3271 7.42114 11.9932 7.42114H12.5183C12.568 7.42114 12.583 7.48878 12.5373 7.50838C12.2968 7.6115 11.9932 7.82633 11.9932 8.25368C11.9932 8.7611 12.4764 8.97855 12.7065 9.05336C12.7777 9.07647 12.8257 9.14181 12.8257 9.21663V11.3327C12.8257 11.4584 12.7052 11.549 12.5845 11.5141Z" fill="#FF4B55"/>
<path d="M11.328 13.3776C11.3802 13.346 11.4422 13.3988 11.4187 13.4551C11.2792 13.7899 10.9375 14.4143 10.3281 14.4143C9.4956 14.4143 9.3291 13.7483 9.3291 13.2488V9.71699C9.3291 9.64447 9.38788 9.58569 9.4604 9.58569H9.6973C9.76982 9.58569 9.8286 9.64447 9.8286 9.71699V13.0823C9.82864 13.5325 10.7754 13.7122 11.328 13.3776Z" fill="#FF4B55"/>
<path d="M12.5885 13.3776C12.5362 13.346 12.4743 13.3988 12.4978 13.4551C12.6373 13.7899 12.979 14.4143 13.5883 14.4143C14.4209 14.4143 14.5874 13.7483 14.5874 13.2488V9.71699C14.5874 9.64447 14.5286 9.58569 14.4561 9.58569H14.2192C14.1467 9.58569 14.0879 9.64447 14.0879 9.71699V13.0823C14.0878 13.5325 13.1411 13.7122 12.5885 13.3776Z" fill="#FF4B55"/>
<path d="M13.777 12.8326H10.2093C10.183 12.8326 10.1616 12.8113 10.1616 12.7849V12.7139C10.1616 12.6875 10.183 12.6661 10.2093 12.6661H13.777C13.8034 12.6661 13.8247 12.6875 13.8247 12.7139V12.7849C13.8247 12.8113 13.8034 12.8326 13.777 12.8326Z" fill="#AA4650"/>
<path d="M10.5154 12.2041L10.6957 11.9637C10.7233 11.9269 10.7158 11.8748 10.679 11.8471C10.6422 11.8196 10.5901 11.8273 10.5625 11.8639L10.4923 11.9574V11.8928C10.4923 11.8468 10.4551 11.8096 10.4091 11.8096C10.3631 11.8096 10.3258 11.8468 10.3258 11.8928V11.9514L10.2602 11.8639C10.2326 11.8271 10.1805 11.8195 10.1437 11.8472C10.1069 11.8748 10.0994 11.927 10.127 11.9637L10.3073 12.2042L10.127 12.4446C10.0994 12.4813 10.1069 12.5335 10.1437 12.5612C10.1587 12.5724 10.1762 12.5778 10.1936 12.5778C10.2189 12.5778 10.2439 12.5662 10.2602 12.5444L10.4113 12.3429L10.5625 12.5444C10.5788 12.5662 10.6038 12.5778 10.6291 12.5778C10.6465 12.5778 10.664 12.5724 10.6789 12.5612C10.7158 12.5335 10.7232 12.4813 10.6956 12.4446L10.5154 12.2041Z" fill="#AA4650"/>
<path d="M12.0696 12.2041L12.2499 11.9637C12.2775 11.9269 12.27 11.8748 12.2332 11.8471C12.1964 11.8196 12.1443 11.8273 12.1167 11.8639L12.0465 11.9574V11.8928C12.0465 11.8468 12.0093 11.8096 11.9633 11.8096C11.9173 11.8096 11.88 11.8468 11.88 11.8928V11.9514L11.8144 11.8639C11.7868 11.8271 11.7346 11.8195 11.6979 11.8472C11.6611 11.8748 11.6536 11.927 11.6812 11.9637L11.8615 12.2042L11.6812 12.4446C11.6536 12.4813 11.6611 12.5335 11.6979 12.5612C11.7129 12.5724 11.7304 12.5778 11.7478 12.5778C11.7731 12.5778 11.7981 12.5662 11.8144 12.5444L11.9655 12.3429L12.1167 12.5444C12.133 12.5662 12.158 12.5778 12.1833 12.5778C12.2007 12.5778 12.2182 12.5724 12.2331 12.5612C12.27 12.5335 12.2774 12.4813 12.2498 12.4446L12.0696 12.2041Z" fill="#AA4650"/>
<path d="M11.2923 12.2041L11.4725 11.9637C11.5002 11.9269 11.4927 11.8748 11.4558 11.8471C11.4191 11.8196 11.3669 11.8273 11.3394 11.8639L11.2692 11.9574V11.8928C11.2692 11.8468 11.232 11.8096 11.1859 11.8096C11.1399 11.8096 11.1027 11.8468 11.1027 11.8928V11.9514L11.0371 11.8639C11.0095 11.8271 10.9573 11.8195 10.9206 11.8472C10.8837 11.8748 10.8763 11.927 10.9039 11.9637L11.0842 12.2042L10.9039 12.4446C10.8762 12.4813 10.8837 12.5335 10.9206 12.5612C10.9355 12.5724 10.953 12.5778 10.9704 12.5778C10.9958 12.5778 11.0208 12.5662 11.0371 12.5444L11.1882 12.3429L11.3393 12.5444C11.3557 12.5662 11.3806 12.5778 11.406 12.5778C11.4234 12.5778 11.4408 12.5724 11.4558 12.5612C11.4926 12.5335 11.5001 12.4813 11.4725 12.4446L11.2923 12.2041Z" fill="#AA4650"/>
<path d="M12.8465 12.2041L13.0267 11.9637C13.0544 11.9269 13.0469 11.8748 13.01 11.8471C12.9733 11.8196 12.9211 11.8273 12.8936 11.8639L12.8234 11.9574V11.8928C12.8234 11.8468 12.7862 11.8096 12.7401 11.8096C12.6941 11.8096 12.6569 11.8468 12.6569 11.8928V11.9514L12.5913 11.8639C12.5637 11.8271 12.5115 11.8195 12.4748 11.8472C12.4379 11.8748 12.4305 11.927 12.4581 11.9637L12.6384 12.2042L12.4581 12.4446C12.4304 12.4813 12.4379 12.5335 12.4748 12.5612C12.4897 12.5724 12.5072 12.5778 12.5246 12.5778C12.55 12.5778 12.575 12.5662 12.5913 12.5444L12.7424 12.3429L12.8935 12.5444C12.9099 12.5662 12.9348 12.5778 12.9602 12.5778C12.9776 12.5778 12.995 12.5724 13.01 12.5612C13.0468 12.5335 13.0543 12.4813 13.0267 12.4446L12.8465 12.2041Z" fill="#AA4650"/>
<path d="M13.6238 12.2041L13.8041 11.9637C13.8317 11.9269 13.8242 11.8748 13.7874 11.8471C13.7506 11.8196 13.6985 11.8273 13.6709 11.8639L13.6007 11.9574V11.8928C13.6007 11.8468 13.5635 11.8096 13.5175 11.8096C13.4715 11.8096 13.4342 11.8468 13.4342 11.8928V11.9514L13.3686 11.8639C13.341 11.8271 13.2888 11.8195 13.2521 11.8472C13.2153 11.8748 13.2078 11.927 13.2354 11.9637L13.4157 12.2042L13.2354 12.4446C13.2078 12.4813 13.2153 12.5335 13.2521 12.5612C13.2671 12.5724 13.2846 12.5778 13.302 12.5778C13.3273 12.5778 13.3523 12.5662 13.3686 12.5444L13.5197 12.3429L13.6709 12.5444C13.6872 12.5662 13.7122 12.5778 13.7375 12.5778C13.7549 12.5778 13.7724 12.5724 13.7873 12.5612C13.8242 12.5335 13.8316 12.4813 13.804 12.4446L13.6238 12.2041Z" fill="#AA4650"/>
<path d="M10.3618 13.3468C10.485 13.4007 11.2083 13.4084 11.393 13.216C11.5777 13.0236 11.5392 12.939 11.5392 12.939L10.6619 12.9467L10.3618 13.3468Z" fill="#AA4650"/>
<path d="M13.5894 13.3468C13.4663 13.4007 12.7429 13.4084 12.5582 13.216C12.3735 13.0236 12.412 12.939 12.412 12.939L13.2893 12.9467L13.5894 13.3468Z" fill="#AA4650"/>
</g>
<defs>
<clipPath id="clip0_8615_27499">
<path d="M0 2C0 0.895432 0.895431 0 2 0H21.9998C23.1043 0 23.9998 0.895431 23.9998 2V21.9998C23.9998 23.1043 23.1043 23.9998 21.9998 23.9998H2C0.895432 23.9998 0 23.1043 0 21.9998V2Z" fill="white"/>
</clipPath>
</defs>
</svg>
