<?xml version="1.0" encoding="utf-8"?>
<!-- Generator: Adobe Illustrator 28.1.0, SVG Export Plug-In . SVG Version: 6.00 Build 0)  -->
<svg version="1.1" id="Layer_1" xmlns="http://www.w3.org/2000/svg" xmlns:xlink="http://www.w3.org/1999/xlink" x="0px" y="0px"
	 viewBox="0 0 512 512" style="enable-background:new 0 0 512 512;" xml:space="preserve">
<g>
	<defs>
		<path id="SVGID_1_" d="M512,400V112C512,50.1,461.9,0,400,0H112C50.2,0,0,50.1,0,112v288c0,61.8,50.2,112,112,112h288
			C461.9,512,512,461.9,512,400z"/>
	</defs>
	<clipPath id="SVGID_00000047061835240644007750000008263652328943079080_">
		<use xlink:href="#SVGID_1_"  style="overflow:visible;"/>
	</clipPath>
	<path style="clip-path:url(#SVGID_00000047061835240644007750000008263652328943079080_);fill:#214D9B;" d="M-7.9-17.2h808.6v539.1
		H-7.9V-17.2z"/>
	
		<rect x="-9.7" y="-19" style="clip-path:url(#SVGID_00000047061835240644007750000008263652328943079080_);fill:#FFFFFF;" width="406.1" height="271.3"/>
	
		<rect x="-4.3" y="-13.7" style="clip-path:url(#SVGID_00000047061835240644007750000008263652328943079080_);fill:#214D9B;" width="133" height="262.3"/>
	
		<rect x="259.8" y="-13.7" style="clip-path:url(#SVGID_00000047061835240644007750000008263652328943079080_);fill:#EB2E2E;" width="133" height="262.3"/>
	<path style="clip-path:url(#SVGID_00000047061835240644007750000008263652328943079080_);fill:#FFFFFF;" d="M348.7,280.8l5.9,15.4
		h27.4v90.4l-8.5,11.9l16.2,39.2l16.2-39.2l-8.5-11.9v-63.1h16.9l5.9-15.4h-22.8v-11.9h27.4l5.9-15.4H348.7z"/>
	<path style="clip-path:url(#SVGID_00000047061835240644007750000008263652328943079080_);fill:#FFFFFF;" d="M308.5,314.9l8.6,6.4
		l-3.2,10.1l8.5-6.2l8.4,6.2l-3.2-10.1l8.6-6.4h-10.6l-3.2-10.2l-3.2,10.2H308.5z M443.4,314.9l8.6,6.4l-3.2,10.1l8.4-6.2l8.5,6.2
		l-3.2-10.1l8.6-6.4h-10.6l-3.2-10.2l-3.2,10.2H443.4z M349.6,433.9l-3.2,10.1l8.5-6.2l8.5,6.2l-3.2-10.1l8.6-6.4H358l-3.2-10.2
		l-3.2,10.2H341L349.6,433.9z M419.5,433.9l-3.2,10.1l8.4-6.2l8.5,6.2l-3.2-10.1l8.6-6.4H428l-3.2-10.2l-3.2,10.2h-10.6L419.5,433.9
		z M384.6,469.8l-3.2,10.1l8.4-6.2l8.5,6.2l-3.2-10.1l8.6-6.4H393l-3.2-10.2l-3.2,10.2H376L384.6,469.8z"/>
	<path style="clip-path:url(#SVGID_00000047061835240644007750000008263652328943079080_);fill:#FFFFFF;" d="M346.3,388.3h23.9
		l3.4,10.2H394L368.4,332H348l-25.6,66.6h20.5L346.3,388.3z M349.7,372.9l8.5-25.6l8.5,25.6H349.7z"/>
	<path style="clip-path:url(#SVGID_00000047061835240644007750000008263652328943079080_);fill:#FFFFFF;" d="M409.4,388.3h23.9
		l3.4,10.2h20.5L431.6,332h-20.5l-25.6,66.6H406L409.4,388.3z M412.8,372.9l8.5-25.6l8.5,25.6H412.8z"/>
</g>
</svg>
