<svg width="24" height="24" viewBox="0 0 24 24" fill="none" xmlns="http://www.w3.org/2000/svg">
<g clip-path="url(#clip0_8615_27600)">
<path d="M23.9959 15.7748H-0.00390625V23.9999H23.9959V15.7748Z" fill="#73AF00"/>
<path d="M23.9959 0H-0.00390625V8.22508H23.9959V0Z" fill="#FF4B55"/>
<path d="M23.9959 8.2251H-0.00390625V15.7742H23.9959V8.2251Z" fill="#41479B"/>
<path d="M23.992 8.2251H-0.0078125V9.4833H23.992V8.2251Z" fill="#F5F5F5"/>
<path d="M23.992 14.5161H-0.0078125V15.7743H23.992V14.5161Z" fill="#F5F5F5"/>
</g>
<defs>
<clipPath id="clip0_8615_27600">
<path d="M0 2C0 0.895432 0.895431 0 2 0H21.9998C23.1043 0 23.9998 0.895431 23.9998 2V21.9998C23.9998 23.1043 23.1043 23.9998 21.9998 23.9998H2C0.895432 23.9998 0 23.1043 0 21.9998V2Z" fill="white"/>
</clipPath>
</defs>
</svg>
