<svg width="24" height="24" viewBox="0 0 24 24" fill="none" xmlns="http://www.w3.org/2000/svg">
<g clip-path="url(#clip0_8615_27661)">
<path d="M24.0037 0H0.00390625V23.9998H24.0037V0Z" fill="#F5F5F5"/>
<path d="M24.0076 10.1052H13.9024V0H10.113V10.1052H0.0078125V13.8946H10.113V23.9998H13.9024V13.8946H24.0076V10.1052Z" fill="#FF4B55"/>
<path d="M7.50764 4.18952C6.8821 4.25243 6.26921 4.31547 5.65548 4.37852C5.71853 3.7647 5.78158 3.15181 5.84453 2.52637C5.27083 2.60057 4.69193 2.60057 4.11823 2.52637C4.18114 3.15191 4.24419 3.76479 4.30728 4.37852C3.6935 4.31547 3.08057 4.25248 2.45508 4.18952C2.52928 4.76313 2.52928 5.34212 2.45508 5.91572C3.08062 5.85282 3.6935 5.78977 4.30728 5.72673C4.24419 6.34055 4.18114 6.95343 4.11823 7.57888C4.69193 7.50468 5.27083 7.50468 5.84453 7.57888C5.78158 6.95334 5.71853 6.34045 5.65548 5.72673C6.26926 5.78977 6.88219 5.85277 7.50764 5.91572C7.43344 5.34217 7.43344 4.76313 7.50764 4.18952Z" fill="#FF4B55"/>
<path d="M21.6165 4.18952C20.991 4.25243 20.3781 4.31547 19.7644 4.37852C19.8274 3.7647 19.8905 3.15181 19.9534 2.52637C19.3797 2.60057 18.8008 2.60057 18.2271 2.52637C18.29 3.15191 18.3531 3.76479 18.4162 4.37852C17.8024 4.31547 17.1895 4.25248 16.564 4.18952C16.6382 4.76313 16.6382 5.34212 16.564 5.91572C17.1895 5.85282 17.8024 5.78977 18.4162 5.72673C18.3531 6.34055 18.29 6.95343 18.2271 7.57888C18.8008 7.50468 19.3797 7.50468 19.9534 7.57888C19.8905 6.95334 19.8274 6.34045 19.7644 5.72673C20.3781 5.78977 20.9911 5.85277 21.6165 5.91572C21.5423 5.34217 21.5423 4.76313 21.6165 4.18952Z" fill="#FF4B55"/>
<path d="M7.50764 18.0841C6.8821 18.147 6.26921 18.21 5.65548 18.2731C5.71853 17.6592 5.78158 17.0463 5.84453 16.4209C5.27083 16.4951 4.69193 16.4951 4.11823 16.4209C4.18114 17.0464 4.24419 17.6593 4.30728 18.2731C3.6935 18.21 3.08057 18.147 2.45508 18.0841C2.52928 18.6577 2.52928 19.2367 2.45508 19.8103C3.08062 19.7473 3.6935 19.6843 4.30728 19.6213C4.24419 20.2351 4.18114 20.848 4.11823 21.4734C4.69193 21.3992 5.27083 21.3992 5.84453 21.4734C5.78158 20.8479 5.71853 20.235 5.65548 19.6213C6.26926 19.6843 6.88219 19.7473 7.50764 19.8103C7.43344 19.2367 7.43344 18.6577 7.50764 18.0841Z" fill="#FF4B55"/>
<path d="M21.6165 18.0841C20.991 18.147 20.3781 18.21 19.7644 18.2731C19.8274 17.6592 19.8905 17.0463 19.9534 16.4209C19.3797 16.4951 18.8008 16.4951 18.2271 16.4209C18.29 17.0464 18.3531 17.6593 18.4162 18.2731C17.8024 18.21 17.1895 18.147 16.564 18.0841C16.6382 18.6577 16.6382 19.2367 16.564 19.8103C17.1895 19.7473 17.8024 19.6843 18.4162 19.6213C18.3531 20.2351 18.29 20.848 18.2271 21.4734C18.8008 21.3992 19.3797 21.3992 19.9534 21.4734C19.8905 20.8479 19.8274 20.235 19.7644 19.6213C20.3781 19.6843 20.9911 19.7473 21.6165 19.8103C21.5423 19.2367 21.5423 18.6577 21.6165 18.0841Z" fill="#FF4B55"/>
</g>
<defs>
<clipPath id="clip0_8615_27661">
<path d="M0 2C0 0.895432 0.895431 0 2 0H21.9998C23.1043 0 23.9998 0.895431 23.9998 2V21.9998C23.9998 23.1043 23.1043 23.9998 21.9998 23.9998H2C0.895432 23.9998 0 23.1043 0 21.9998V2Z" fill="white"/>
</clipPath>
</defs>
</svg>
