<svg width="24" height="24" viewBox="0 0 24 24" fill="none" xmlns="http://www.w3.org/2000/svg">
<g clip-path="url(#clip0_8615_27646)">
<path d="M24.0027 0H0.00292969V23.9998H24.0027V0Z" fill="#F5F5F5"/>
<path d="M24.0056 15.7893H0.00585938V23.9999H24.0056V15.7893Z" fill="#FF4B55"/>
<path d="M18.2163 9.30444V8.17523H17.0871V5.35217H17.6517V4.22296H14.264V5.35217H14.8286V8.17523H13.1348V4.22296H13.6994V3.09375H10.3118V4.22296H10.8764V8.17523H9.18254V5.35217H9.74715V4.22296H6.35953V5.35217H6.92413V8.17523H5.79492V9.30444H6.35953V13.8213H5.79492V14.9505H18.2163V13.8213H17.6517V9.30444H18.2163Z" fill="#FF4B55"/>
<path d="M13.1334 14.386H10.875V11.7483C10.875 11.3341 11.2108 10.9983 11.625 10.9983H12.3834C12.7977 10.9983 13.1334 11.3341 13.1334 11.7483V14.386Z" fill="#464655"/>
<path d="M12.0041 6.48145C11.6922 6.48145 11.4395 6.73424 11.4395 7.04605V8.73986H12.5687V7.04605C12.5687 6.73419 12.3159 6.48145 12.0041 6.48145Z" fill="#464655"/>
<path d="M15.9567 7.04602C15.6449 7.04602 15.3921 7.29881 15.3921 7.61062V8.73983H16.5213V7.61062C16.5213 7.29877 16.2685 7.04602 15.9567 7.04602Z" fill="#464655"/>
<path d="M8.05191 7.04602C7.7401 7.04602 7.4873 7.29881 7.4873 7.61062V8.73983H8.61651V7.61062C8.61651 7.29877 8.36372 7.04602 8.05191 7.04602Z" fill="#464655"/>
<path d="M16.5211 14.3859H14.2627V12.3129C14.2627 11.8986 14.5985 11.5629 15.0127 11.5629H15.7711C16.1853 11.5629 16.5211 11.8986 16.5211 12.3129V14.3859Z" fill="#464655"/>
<path d="M9.74572 14.3859H7.4873V12.3129C7.4873 11.8986 7.82307 11.5629 8.2373 11.5629H8.99573C9.40996 11.5629 9.74572 11.8986 9.74572 12.3129V14.3859Z" fill="#464655"/>
<path d="M13.7397 16.7368C13.7397 16.6313 13.687 16.5327 13.5991 16.4741L12.3187 15.6204V15.3531L13.4073 14.8088C13.5633 14.7308 13.6265 14.5411 13.5485 14.3851C13.4702 14.2287 13.2811 14.1658 13.1248 14.2438L12.0029 14.8048L10.881 14.2438C10.7256 14.1658 10.5353 14.2287 10.4573 14.3851C10.3793 14.5411 10.4425 14.7308 10.5985 14.8088L11.6872 15.3531V15.6204L10.4067 16.4741C10.3188 16.5327 10.2661 16.6313 10.2661 16.7368C10.2661 16.8423 10.3188 16.9409 10.4067 16.9995L11.6872 17.8532V20.5262H10.424V21.0098C10.424 21.1844 10.5653 21.3256 10.7398 21.3256C10.8607 21.3256 10.9659 21.2578 11.0189 21.1578H11.6872V21.7894H11.0134C10.9588 21.695 10.8567 21.6315 10.7398 21.6315C10.5653 21.6315 10.424 21.7728 10.424 21.9473V22.421H11.6872V22.7368C11.6872 22.9113 11.8284 23.0526 12.003 23.0526C12.1775 23.0526 12.3187 22.9113 12.3187 22.7368V22.421V20.5263V17.8532L13.5992 16.9996C13.687 16.9409 13.7397 16.8423 13.7397 16.7368ZM12.0029 17.3045L11.1511 16.7368L12.0029 16.169L12.8546 16.7368L12.0029 17.3045Z" fill="#FFE15A"/>
</g>
<defs>
<clipPath id="clip0_8615_27646">
<path d="M0 2C0 0.895432 0.895431 0 2 0H21.9998C23.1043 0 23.9998 0.895431 23.9998 2V21.9998C23.9998 23.1043 23.1043 23.9998 21.9998 23.9998H2C0.895432 23.9998 0 23.1043 0 21.9998V2Z" fill="white"/>
</clipPath>
</defs>
</svg>
