<svg width="24" height="24" viewBox="0 0 24 24" fill="none" xmlns="http://www.w3.org/2000/svg">
<g clip-path="url(#clip0_8615_27599)">
<path d="M24.0022 0H0.00244141V11.9999H24.0022V0Z" fill="#F5F5F5"/>
<path d="M24.0046 12H0.00488281V23.9999H24.0046V12Z" fill="#FF4B55"/>
<path d="M8.28064 6.62073C5.30978 6.62073 2.90137 9.02909 2.90137 12H13.6599C13.6599 9.02914 11.2515 6.62073 8.28064 6.62073Z" fill="#FF4B55"/>
<path d="M8.2782 17.3793C11.2491 17.3793 13.6575 14.9709 13.6575 12H2.89893C2.89893 14.9709 5.30729 17.3793 8.2782 17.3793Z" fill="#F5F5F5"/>
</g>
<defs>
<clipPath id="clip0_8615_27599">
<path d="M0 2C0 0.895432 0.895431 0 2 0H21.9998C23.1043 0 23.9998 0.895431 23.9998 2V21.9998C23.9998 23.1043 23.1043 23.9998 21.9998 23.9998H2C0.895432 23.9998 0 23.1043 0 21.9998V2Z" fill="white"/>
</clipPath>
</defs>
</svg>
