<svg width="24" height="24" viewBox="0 0 24 24" fill="none" xmlns="http://www.w3.org/2000/svg">
<g clip-path="url(#clip0_8615_27586)">
<path d="M24.0046 2.68018H0.00488281V5.34298H24.0046V2.68018Z" fill="#F5F5F5"/>
<path d="M24.0046 8.00562H0.00488281V10.6684H24.0046V8.00562Z" fill="#F5F5F5"/>
<path d="M24.0046 13.3311H0.00488281V15.9939H24.0046V13.3311Z" fill="#F5F5F5"/>
<path d="M24.0022 15.994H0.00244141V18.6568H24.0022V15.994Z" fill="#41479B"/>
<path d="M24.0022 18.657H0.00244141V21.3198H24.0022V18.657Z" fill="#F5F5F5"/>
<path d="M24.0046 21.3197H0.00488281V23.9825H24.0046V21.3197Z" fill="#41479B"/>
<path d="M24.0046 2.67989V0.0170898H0.00488281V5.34269V8.00554V13.3311H24.0046V10.6683H12.6182V8.00554H24.0046V5.34269H12.6182V2.67989H24.0046Z" fill="#41479B"/>
<path d="M12.6158 5.34282H7.64046V0.0172119H4.97771V5.34282H0.00244141V8.00566H4.97771V13.3313H7.64046V8.00566H12.6158V5.34282Z" fill="#F5F5F5"/>
</g>
<defs>
<clipPath id="clip0_8615_27586">
<path d="M0 2C0 0.895432 0.895431 0 2 0H21.9998C23.1043 0 23.9998 0.895431 23.9998 2V21.9998C23.9998 23.1043 23.1043 23.9998 21.9998 23.9998H2C0.895432 23.9998 0 23.1043 0 21.9998V2Z" fill="white"/>
</clipPath>
</defs>
</svg>
