<svg width="24" height="24" viewBox="0 0 24 24" fill="none" xmlns="http://www.w3.org/2000/svg">
<g clip-path="url(#clip0_8615_27583)">
<path d="M24.0018 0.0012207H0.00439453V23.9986H24.0018V0.0012207Z" fill="#41479B"/>
<path d="M12.0031 5.68481C9.60305 6.94747 7.98438 9.9549 7.98438 11.9999C7.98438 14.0449 9.60305 17.0523 12.0031 18.315C14.4031 17.0523 16.0218 14.0449 16.0218 11.9999C16.0218 9.9549 14.4031 6.94747 12.0031 5.68481Z" fill="#3CC8FF"/>
<path d="M12.521 9.83763C12.9087 9.63321 13.5708 9.4083 14.323 9.68435C14.323 9.68435 13.5985 8.87736 12.5931 9.53487C12.8636 9.20689 13.2699 8.80081 13.7097 8.6877C13.7097 8.6877 12.8343 8.3608 12.3046 9.52826C12.4072 8.93942 12.3884 8.01233 11.4394 7.47412C11.4394 7.47412 11.9701 8.61298 12.0222 9.55793C11.9914 9.39026 11.9296 9.21499 11.7667 9.04503C11.265 8.52139 10.8286 8.47775 10.8286 8.47775C10.8286 8.47775 11.5244 9.24879 11.8663 9.97835C11.6693 9.74275 11.3222 9.44093 10.7632 9.45959C9.45405 9.50323 9.17041 10.2887 9.17041 10.2887C9.71312 10.0601 10.5743 9.94638 11.242 10.0028C10.3801 10.1547 10.0739 11.2285 10.0739 11.2285C10.7659 10.3655 11.5214 10.2253 11.8231 10.2048C11.2721 10.6606 11.3057 11.4999 11.3057 11.4999C11.4337 11.0274 11.9298 10.4889 12.1715 10.2475C12.8224 10.9517 12.8994 11.7432 12.8994 11.7432C12.8994 11.7432 13.0418 11.5051 12.9761 11.0204C12.914 10.5629 12.6269 10.2625 12.4077 10.086C13.5569 10.2443 14.3067 11.0779 14.3067 11.0779C13.9308 9.98078 12.9899 9.83796 12.521 9.83763Z" fill="#73AF00"/>
<path d="M22.7387 1.26426V22.7356H1.26743V1.26426H22.7387ZM23.9993 0.0012207H0.00195312V23.9985H23.9993V0.0012207Z" fill="#FF4B55"/>
<path d="M10.7202 13.5262L11.2991 12.5263L16.0551 12.421L15.7394 13.7366L10.7202 13.5262Z" fill="#FF965A"/>
<path d="M8.15771 13.2629C8.63438 15.1338 10.0628 17.2943 12.0029 18.315C13.943 17.2943 15.3714 15.1338 15.848 13.2629H8.15771Z" fill="#4173CD"/>
<path d="M8.84668 15.1576C8.84668 15.1576 10.2241 15.0894 11.0517 15.4292C11.2584 15.5141 11.2851 15.7933 11.0985 15.9161C10.6954 16.1814 10.1097 16.638 10.1097 17.0521L8.84668 15.1576Z" fill="#FFE15A"/>
<path d="M11.2677 17.6837C11.2151 17.1574 11.6807 16.7746 12.3202 16.5259C13.1491 16.2036 12.6952 15.6905 12.2808 15.355C11.7865 14.955 12.4255 14.8419 15.1094 14.7893L13.7938 16.8417L12.0045 18.3153L11.2677 17.6837Z" fill="#FFE15A"/>
<path d="M12.003 18.6721L11.8559 18.5944C9.35111 17.2771 7.66846 14.1208 7.66846 11.9999C7.66846 9.87904 9.35111 6.72275 11.8559 5.40548L12.003 5.32776L12.1501 5.40548C14.6549 6.72275 16.3375 9.87904 16.3375 11.9999C16.3375 14.1208 14.6549 17.2771 12.1501 18.5944L12.003 18.6721ZM12.003 6.04438C9.78133 7.29874 8.29995 10.1048 8.29995 11.9999C8.29995 13.8951 9.78128 16.7011 12.003 17.9555C14.2247 16.7011 15.706 13.8951 15.706 11.9999C15.706 10.1048 14.2247 7.29879 12.003 6.04438Z" fill="#FF4B55"/>
<path d="M13.3423 15.6047C13.3134 15.6047 13.2843 15.597 13.2585 15.5807C12.4003 15.0414 11.9082 14.1487 11.9082 13.1314V10.2239C11.9082 10.1366 11.9788 10.066 12.0661 10.066C12.1534 10.066 12.2239 10.1367 12.2239 10.2239V13.1314C12.2239 14.0377 12.6621 14.8329 13.4262 15.313C13.5002 15.3595 13.5224 15.457 13.4762 15.5307C13.4459 15.5785 13.3947 15.6047 13.3423 15.6047Z" fill="#A54B37"/>
<path d="M12.3408 10.0115C12.5708 10.3627 12.195 10.7385 11.8438 10.5085C11.823 10.4949 11.805 10.4769 11.7913 10.4561C11.5613 10.1048 11.9371 9.72903 12.2883 9.95904C12.3092 9.97268 12.3272 9.99064 12.3408 10.0115Z" fill="#A54B37"/>
</g>
<defs>
<clipPath id="clip0_8615_27583">
<path d="M0 2C0 0.895428 0.895431 0 2 0H21.9999C23.1044 0 23.9999 0.895431 23.9999 2V21.9999C23.9999 23.1044 23.1044 23.9999 21.9999 23.9999H2C0.895428 23.9999 0 23.1044 0 21.9999V2Z" fill="white"/>
</clipPath>
</defs>
</svg>
