<svg width="24" height="24" viewBox="0 0 24 24" fill="none" xmlns="http://www.w3.org/2000/svg">
<g clip-path="url(#clip0_8615_27578)">
<path d="M8.00154 0H0.00146484V23.9998H8.00154V0Z" fill="#82AFFF"/>
<path d="M16.002 0H8.00195V23.9998H16.002V0Z" fill="#F5F5F5"/>
<path d="M24.0015 0H16.0015V23.9998H24.0015V0Z" fill="#82AFFF"/>
<path d="M11.8825 9.6416L11.6113 9.77716L11.8608 9.88019L11.8825 9.6416Z" fill="#FFC855"/>
<path d="M12.0018 14.6526C10.4947 14.6526 9.26855 13.4264 9.26855 11.9193C9.26855 10.983 9.73978 10.1222 10.5291 9.61646L10.5993 9.726C9.8475 10.2077 9.39872 11.0277 9.39872 11.9193C9.39872 13.3547 10.5665 14.5224 12.0018 14.5224V14.6526Z" fill="#73AF00"/>
<path d="M10.4375 14.8231C10.5417 14.8443 10.7023 14.8168 10.8673 14.74C11.0324 14.6631 11.1567 14.5577 11.2075 14.4643C11.1033 14.4431 10.9427 14.4706 10.7776 14.5474C10.6126 14.6244 10.4883 14.7297 10.4375 14.8231Z" fill="#73AF00"/>
<path d="M11.2075 14.4644C11.2287 14.3603 11.2012 14.1996 11.1244 14.0346C11.0475 13.8695 10.9421 13.7452 10.8487 13.6945C10.8275 13.7986 10.855 13.9593 10.9318 14.1243C11.0088 14.2893 11.1141 14.4137 11.2075 14.4644Z" fill="#73AF00"/>
<path d="M9.89307 14.4889C9.99296 14.5252 10.1559 14.5216 10.3305 14.4698C10.505 14.4179 10.6435 14.332 10.7074 14.2471C10.6075 14.2108 10.4445 14.2143 10.27 14.2662C10.0955 14.318 9.957 14.4039 9.89307 14.4889Z" fill="#73AF00"/>
<path d="M10.7073 14.247C10.7435 14.1472 10.74 13.9842 10.6881 13.8097C10.6363 13.6351 10.5504 13.4966 10.4654 13.4327C10.4292 13.5326 10.4327 13.6956 10.4846 13.8701C10.5364 14.0447 10.6224 14.1832 10.7073 14.247Z" fill="#73AF00"/>
<path d="M9.38965 14.033C9.48138 14.0867 9.64235 14.1124 9.82333 14.0928C10.0043 14.0732 10.156 14.0135 10.2341 13.9414C10.1424 13.8878 9.98139 13.862 9.80041 13.8817C9.61943 13.9013 9.46774 13.961 9.38965 14.033Z" fill="#73AF00"/>
<path d="M10.2341 13.9415C10.2877 13.8498 10.3135 13.6888 10.2939 13.5078C10.2742 13.3268 10.2145 13.1751 10.1425 13.097C10.0889 13.1888 10.0631 13.3497 10.0827 13.5307C10.1024 13.7117 10.162 13.8634 10.2341 13.9415Z" fill="#73AF00"/>
<path d="M8.97314 13.4037C9.05396 13.4728 9.2078 13.5266 9.38939 13.5393C9.57098 13.5521 9.73083 13.5202 9.8205 13.4631C9.73968 13.3941 9.58584 13.3402 9.40425 13.3275C9.22261 13.3147 9.06277 13.3466 8.97314 13.4037Z" fill="#73AF00"/>
<path d="M9.82022 13.4631C9.88927 13.3823 9.94308 13.2284 9.95583 13.0468C9.96853 12.8652 9.93666 12.7054 9.87961 12.6157C9.81056 12.6965 9.75675 12.8504 9.744 13.032C9.73125 13.2136 9.76313 13.3735 9.82022 13.4631Z" fill="#73AF00"/>
<path d="M8.729 12.7103C8.7935 12.7948 8.93253 12.8798 9.10742 12.9304C9.28231 12.9811 9.44525 12.9836 9.5449 12.9466C9.4804 12.8621 9.34137 12.7771 9.16648 12.7265C8.99164 12.6758 8.82866 12.6734 8.729 12.7103Z" fill="#73AF00"/>
<path d="M9.54514 12.9466C9.62961 12.8821 9.71464 12.7431 9.76527 12.5682C9.81589 12.3933 9.81837 12.2304 9.78144 12.1307C9.69697 12.1952 9.61194 12.3343 9.56132 12.5092C9.51069 12.684 9.50821 12.847 9.54514 12.9466Z" fill="#73AF00"/>
<path d="M8.62598 11.9009C8.66657 11.9991 8.77907 12.1171 8.93507 12.211C9.09102 12.3049 9.24791 12.3492 9.3537 12.3391C9.31311 12.2409 9.20061 12.1229 9.04461 12.029C8.88861 11.9352 8.73177 11.8909 8.62598 11.9009Z" fill="#73AF00"/>
<path d="M9.35394 12.3391C9.45215 12.2985 9.57008 12.186 9.66397 12.03C9.75786 11.874 9.80216 11.7171 9.79208 11.6113C9.69388 11.6519 9.57594 11.7644 9.48205 11.9204C9.38812 12.0764 9.34387 12.2333 9.35394 12.3391Z" fill="#73AF00"/>
<path d="M8.72412 11.1366C8.7432 11.2411 8.82851 11.38 8.96135 11.5045C9.0942 11.629 9.23824 11.7052 9.3438 11.7175C9.32472 11.613 9.23941 11.4741 9.10657 11.3496C8.97373 11.2251 8.82968 11.1489 8.72412 11.1366Z" fill="#73AF00"/>
<path d="M9.34375 11.7176C9.44828 11.6985 9.58717 11.6132 9.71167 11.4803C9.83617 11.3475 9.91239 11.2035 9.92467 11.0979C9.82014 11.117 9.68125 11.2023 9.55675 11.3351C9.43225 11.468 9.35608 11.6121 9.34375 11.7176Z" fill="#73AF00"/>
<path d="M9.10801 10.3097C9.08612 10.4137 9.11256 10.5745 9.1884 10.74C9.26424 10.9056 9.36882 11.0306 9.46187 11.0819C9.48376 10.9779 9.45732 10.8171 9.38148 10.6515C9.30563 10.4861 9.20106 10.361 9.10801 10.3097Z" fill="#73AF00"/>
<path d="M9.46143 11.0819C9.56544 11.1038 9.72627 11.0773 9.89178 11.0015C10.0573 10.9256 10.1823 10.8211 10.2336 10.728C10.1296 10.7061 9.9688 10.7326 9.80328 10.8084C9.63777 10.8843 9.51275 10.9888 9.46143 11.0819Z" fill="#73AF00"/>
<path d="M9.56706 9.69727C9.51803 9.79158 9.50026 9.95358 9.52881 10.1334C9.55736 10.3132 9.62448 10.4617 9.70032 10.5362C9.74936 10.4419 9.76712 10.2799 9.73857 10.1001C9.71003 9.92025 9.6429 9.7717 9.56706 9.69727Z" fill="#73AF00"/>
<path d="M9.7002 10.5361C9.79451 10.5852 9.95651 10.6029 10.1363 10.5744C10.3161 10.5458 10.4647 10.4787 10.5391 10.4029C10.4448 10.3538 10.2828 10.3361 10.103 10.3646C9.92318 10.3932 9.77468 10.4603 9.7002 10.5361Z" fill="#73AF00"/>
<path d="M10.0171 9.271C9.95475 9.35706 9.91331 9.51465 9.91509 9.69671C9.91688 9.87877 9.96136 10.0356 10.0254 10.1204C10.0878 10.0343 10.1292 9.87671 10.1274 9.69465C10.1257 9.51259 10.0812 9.35579 10.0171 9.271Z" fill="#73AF00"/>
<path d="M10.0254 10.1204C10.1115 10.1828 10.269 10.2242 10.4511 10.2224C10.6332 10.2206 10.79 10.1761 10.8748 10.1121C10.7887 10.0497 10.6311 10.0083 10.449 10.0101C10.267 10.0118 10.1102 10.0563 10.0254 10.1204Z" fill="#73AF00"/>
<path d="M10.2441 9.89707C10.3501 9.90565 10.5063 9.85919 10.6609 9.7631C10.8155 9.66701 10.9264 9.54752 10.9656 9.44876C10.8597 9.44018 10.7035 9.48663 10.5488 9.58273C10.3942 9.67877 10.2834 9.79826 10.2441 9.89707Z" fill="#73AF00"/>
<path d="M12.002 14.6526V14.5224C13.4373 14.5224 14.605 13.3547 14.605 11.9193C14.605 11.0277 14.1562 10.2077 13.4045 9.726L13.4747 9.61646C14.264 10.1222 14.7352 10.9831 14.7352 11.9193C14.7352 13.4264 13.5091 14.6526 12.002 14.6526Z" fill="#73AF00"/>
<path d="M13.5663 14.8231C13.4622 14.8443 13.3016 14.8168 13.1365 14.74C12.9715 14.6631 12.8471 14.5577 12.7964 14.4643C12.9005 14.4431 13.0612 14.4706 13.2262 14.5474C13.3912 14.6244 13.5156 14.7297 13.5663 14.8231Z" fill="#73AF00"/>
<path d="M12.7965 14.4644C12.7753 14.3603 12.8027 14.1996 12.8796 14.0346C12.9565 13.8695 13.0618 13.7452 13.1552 13.6945C13.1765 13.7986 13.149 13.9593 13.0721 14.1243C12.9952 14.2893 12.8899 14.4137 12.7965 14.4644Z" fill="#73AF00"/>
<path d="M14.1107 14.4889C14.0108 14.5252 13.8479 14.5216 13.6733 14.4698C13.4988 14.4179 13.3603 14.332 13.2964 14.2471C13.3963 14.2108 13.5592 14.2143 13.7338 14.2662C13.9083 14.318 14.0468 14.4039 14.1107 14.4889Z" fill="#73AF00"/>
<path d="M13.2965 14.247C13.2602 14.1472 13.2638 13.9842 13.3156 13.8097C13.3675 13.6351 13.4534 13.4966 13.5383 13.4327C13.5746 13.5326 13.571 13.6956 13.5192 13.8701C13.4674 14.0447 13.3814 14.1832 13.2965 14.247Z" fill="#73AF00"/>
<path d="M14.6145 14.033C14.5227 14.0867 14.3618 14.1124 14.1808 14.0928C13.9998 14.0732 13.8481 14.0135 13.77 13.9414C13.8618 13.8878 14.0227 13.862 14.2037 13.8817C14.3847 13.9013 14.5364 13.961 14.6145 14.033Z" fill="#73AF00"/>
<path d="M13.7699 13.9415C13.7163 13.8498 13.6905 13.6888 13.7102 13.5078C13.7298 13.3268 13.7895 13.1751 13.8615 13.097C13.9152 13.1888 13.9409 13.3497 13.9213 13.5307C13.9017 13.7117 13.842 13.8634 13.7699 13.9415Z" fill="#73AF00"/>
<path d="M15.0309 13.4037C14.9501 13.4728 14.7963 13.5266 14.6147 13.5393C14.4331 13.552 14.2733 13.5202 14.1836 13.4631C14.2644 13.3941 14.4182 13.3402 14.5998 13.3275C14.7814 13.3147 14.9413 13.3466 15.0309 13.4037Z" fill="#73AF00"/>
<path d="M14.1833 13.4631C14.1143 13.3823 14.0604 13.2284 14.0477 13.0468C14.035 12.8652 14.0669 12.7054 14.1239 12.6157C14.193 12.6965 14.2468 12.8504 14.2595 13.032C14.2723 13.2136 14.2404 13.3735 14.1833 13.4631Z" fill="#73AF00"/>
<path d="M15.2744 12.7103C15.2099 12.7948 15.0709 12.8798 14.896 12.9304C14.7211 12.9811 14.5582 12.9836 14.4585 12.9466C14.523 12.8621 14.662 12.7771 14.8369 12.7265C15.0118 12.6758 15.1747 12.6734 15.2744 12.7103Z" fill="#73AF00"/>
<path d="M14.4587 12.9466C14.3742 12.8821 14.2892 12.7431 14.2386 12.5682C14.1879 12.3933 14.1855 12.2304 14.2224 12.1307C14.3069 12.1952 14.3919 12.3343 14.4425 12.5092C14.4931 12.684 14.4956 12.847 14.4587 12.9466Z" fill="#73AF00"/>
<path d="M15.3776 11.9009C15.337 11.9991 15.2245 12.1171 15.0685 12.211C14.9126 12.3049 14.7557 12.3492 14.6499 12.3391C14.6905 12.2409 14.803 12.1229 14.959 12.029C15.1149 11.9352 15.2718 11.8909 15.3776 11.9009Z" fill="#73AF00"/>
<path d="M14.65 12.3391C14.5518 12.2985 14.4339 12.186 14.34 12.03C14.2461 11.874 14.2018 11.7171 14.2119 11.6113C14.3101 11.6519 14.428 11.7644 14.5219 11.9204C14.6158 12.0764 14.6601 12.2333 14.65 12.3391Z" fill="#73AF00"/>
<path d="M15.2798 11.1366C15.2608 11.2411 15.1754 11.38 15.0426 11.5045C14.9098 11.629 14.7657 11.7052 14.6602 11.7175C14.6792 11.613 14.7645 11.4741 14.8974 11.3496C15.0302 11.2251 15.1743 11.1489 15.2798 11.1366Z" fill="#73AF00"/>
<path d="M14.66 11.7176C14.5555 11.6985 14.4166 11.6132 14.2921 11.4803C14.1676 11.3475 14.0914 11.2035 14.0791 11.0979C14.1836 11.117 14.3225 11.2023 14.447 11.3351C14.5715 11.468 14.6477 11.6121 14.66 11.7176Z" fill="#73AF00"/>
<path d="M14.8959 10.3097C14.9178 10.4137 14.8914 10.5745 14.8156 10.74C14.7397 10.9056 14.6351 11.0306 14.5421 11.0819C14.5202 10.9779 14.5466 10.8171 14.6225 10.6515C14.6983 10.4861 14.8029 10.361 14.8959 10.3097Z" fill="#73AF00"/>
<path d="M14.5422 11.0819C14.4382 11.1038 14.2774 11.0773 14.1119 11.0015C13.9464 10.9256 13.8213 10.8211 13.77 10.728C13.874 10.7061 14.0349 10.7326 14.2004 10.8084C14.3659 10.8843 14.4909 10.9888 14.5422 11.0819Z" fill="#73AF00"/>
<path d="M14.4367 9.69727C14.4857 9.79158 14.5034 9.95358 14.4749 10.1334C14.4464 10.3132 14.3792 10.4617 14.3034 10.5362C14.2544 10.4419 14.2366 10.2799 14.2651 10.1001C14.2937 9.92025 14.3608 9.7717 14.4367 9.69727Z" fill="#73AF00"/>
<path d="M14.3038 10.5361C14.2094 10.5852 14.0474 10.6029 13.8676 10.5744C13.6878 10.5458 13.5393 10.4787 13.4648 10.4029C13.5592 10.3538 13.7212 10.3361 13.901 10.3646C14.0807 10.3932 14.2293 10.4603 14.3038 10.5361Z" fill="#73AF00"/>
<path d="M13.9868 9.271C14.0492 9.35706 14.0906 9.51465 14.0889 9.69671C14.0871 9.87877 14.0426 10.0356 13.9786 10.1204C13.9162 10.0343 13.8747 9.87671 13.8765 9.69465C13.8783 9.51259 13.9228 9.35579 13.9868 9.271Z" fill="#73AF00"/>
<path d="M13.9783 10.1204C13.8922 10.1828 13.7346 10.2242 13.5526 10.2224C13.3705 10.2206 13.2137 10.1761 13.1289 10.1121C13.215 10.0497 13.3726 10.0083 13.5546 10.0101C13.7366 10.0118 13.8934 10.0563 13.9783 10.1204Z" fill="#73AF00"/>
<path d="M13.76 9.89707C13.6541 9.90565 13.4979 9.85919 13.3433 9.7631C13.1886 9.66701 13.0778 9.54752 13.0386 9.44876C13.1445 9.44018 13.3007 9.48663 13.4553 9.58273C13.61 9.67877 13.7208 9.79826 13.76 9.89707Z" fill="#73AF00"/>
<path d="M10.5096 14.0471L10.0359 14.5209L9.80225 14.0537L10.5031 13.3528L10.7367 13.5864L10.6692 13.7889C10.6368 13.8862 10.5821 13.9746 10.5096 14.0471Z" fill="#966446"/>
<path d="M13.0728 10.5493L10.503 13.1192C10.4385 13.1837 10.4385 13.2883 10.503 13.3528L10.6198 13.4696L11.087 13.0024L12.956 10.8998L13.1896 10.6661L13.0728 10.5493Z" fill="#B9B9B9"/>
<path d="M11.1353 12.7204C11.1043 12.7514 11.0869 12.7934 11.0869 12.8372V13.0024L12.9559 10.8998L11.1353 12.7204Z" fill="#966446"/>
<path d="M13.1897 10.6662L13.0729 10.5493L12.9561 10.6662L13.0729 10.783L13.1897 10.8998L14.4746 9.38123L13.1897 10.6662Z" fill="#A0A0A0"/>
<path d="M13.6241 14.0471L14.0978 14.5209L14.3315 14.0537L13.6306 13.3528L13.397 13.5864L13.4645 13.7889C13.4969 13.8862 13.5515 13.9746 13.6241 14.0471Z" fill="#966446"/>
<path d="M11.0607 10.5493L13.6305 13.1192C13.695 13.1837 13.695 13.2883 13.6305 13.3528L13.5137 13.4696L13.0465 13.0024L11.1775 10.8998L10.9438 10.6661L11.0607 10.5493Z" fill="#B9B9B9"/>
<path d="M12.9979 12.7204C13.0288 12.7514 13.0462 12.7934 13.0462 12.8372V13.0024L11.1772 10.8998L12.9979 12.7204Z" fill="#966446"/>
<path d="M10.9436 10.6662L11.0604 10.5493L11.1772 10.6662L11.0604 10.783L10.9436 10.8998L9.65869 9.38123L10.9436 10.6662Z" fill="#A0A0A0"/>
<path d="M11.1079 13.9499L11.224 14.0558C11.6475 13.5915 12.3887 12.7789 13.5635 11.724C13.5635 11.724 12.5902 12.3248 11.1079 13.9499Z" fill="#B9B9B9"/>
<path d="M10.7794 14.4266C10.7377 14.3886 10.7348 14.324 10.7728 14.2823L11.0216 14.0095C11.0596 13.9678 11.1242 13.9649 11.1659 14.0029C11.2075 14.0409 11.2105 14.1055 11.1725 14.1472L10.9237 14.42C10.8857 14.4616 10.8211 14.4646 10.7794 14.4266Z" fill="#FFE15A"/>
<path d="M11.0135 13.864L10.9461 13.894C10.8862 13.9238 10.7285 14.0131 10.7013 14.1402C10.6884 14.2004 10.7066 14.259 10.7534 14.3146C10.7578 14.3031 10.7639 14.292 10.7727 14.2824L10.804 14.2481C10.7828 14.2173 10.7716 14.1871 10.778 14.1568C10.7951 14.0772 10.9012 14.0063 10.9678 13.9712L11.2659 14.243L11.34 14.1618L11.0135 13.864Z" fill="#FFC855"/>
<path d="M13.0245 14.0786L12.9084 14.1845C12.4849 13.7201 11.7437 12.9076 10.5688 11.8527C10.5688 11.8527 11.5422 12.4535 13.0245 14.0786Z" fill="#B9B9B9"/>
<path d="M13.3529 14.5551C13.3946 14.5171 13.3975 14.4525 13.3595 14.4108L13.1107 14.138C13.0727 14.0964 13.0081 14.0934 12.9664 14.1314C12.9247 14.1694 12.9218 14.234 12.9598 14.2757L13.2086 14.5485C13.2466 14.5901 13.3112 14.5931 13.3529 14.5551Z" fill="#FFE15A"/>
<path d="M13.1184 13.9926L13.1858 14.0226C13.2458 14.0524 13.4035 14.1416 13.4307 14.2687C13.4436 14.3289 13.4253 14.3876 13.3786 14.4431C13.3742 14.4316 13.3681 14.4206 13.3593 14.4109L13.328 14.3766C13.3491 14.3458 13.3603 14.3157 13.3539 14.2853C13.3369 14.2058 13.2308 14.1349 13.1642 14.0997L12.8661 14.3716L12.792 14.2903L13.1184 13.9926Z" fill="#FFC855"/>
<path d="M12.1173 9.77964C12.1264 9.7571 12.1317 9.73254 12.1317 9.70671C12.1317 9.5989 12.0443 9.51147 11.9364 9.51147C11.8286 9.51147 11.7412 9.5989 11.7412 9.70671C11.7412 9.77097 11.7727 9.8275 11.8206 9.86308C11.75 10.4302 12.309 10.4734 12.5221 10.5527C12.8454 10.6729 13.2509 10.9163 13.2254 11.5964C13.2006 12.2575 12.7825 12.8954 12.7825 12.8954L13.1295 12.4236C13.0026 12.9604 12.7063 13.6441 12.0016 14.4573C12.0016 14.4573 12.4834 13.9859 12.8855 13.3781C12.5897 14.0741 12.2618 14.7176 12.2618 14.7176C12.2618 14.7176 12.8421 13.9638 13.3112 12.6596C13.8799 11.0783 12.6836 10.1283 12.1173 9.77964Z" fill="#69B469"/>
<path d="M11.6111 12.1143H11.0903V12.3746H11.6111V12.1143Z" fill="#F4E08F"/>
<path d="M11.0923 12.6353C11.2361 12.6353 11.3526 12.5188 11.3526 12.375C11.3526 12.2313 11.2361 12.1147 11.0923 12.1147C10.9486 12.1147 10.832 12.2313 10.832 12.375C10.832 12.5188 10.9486 12.6353 11.0923 12.6353Z" fill="#ECD077"/>
<path d="M11.0923 10.9432C11.2361 10.9432 11.3526 10.8267 11.3526 10.6829C11.3526 10.5391 11.2361 10.4226 11.0923 10.4226C10.9486 10.4226 10.832 10.5391 10.832 10.6829C10.832 10.8267 10.9486 10.9432 11.0923 10.9432Z" fill="#ECD077"/>
<path d="M12.6522 10.9431C12.796 10.9431 12.9125 10.8265 12.9125 10.6828C12.9125 10.539 12.796 10.4225 12.6522 10.4225H11.0904C11.2341 10.4225 11.3507 10.539 11.3507 10.6828C11.3507 10.8265 11.2341 10.9431 11.0904 10.9431C10.9466 10.9431 10.8301 10.8265 10.8301 10.6828C10.8301 11.1197 11.1957 11.6481 11.3136 12.1145C11.3136 12.1145 11.3507 12.231 11.3507 12.3748C11.3507 12.5185 11.2341 12.6351 11.0904 12.6351H12.6522C12.796 12.6351 12.9125 12.5185 12.9125 12.3748C12.9125 11.9378 12.5469 11.4095 12.429 10.9431H12.6522Z" fill="#FCF0A8"/>
<path d="M11.3472 10.6829C11.3472 10.8266 11.2307 10.9432 11.0869 10.9432H12.6488C12.7925 10.9432 12.9091 10.8266 12.9091 10.6829H11.3472Z" fill="#F4E08F"/>
<path d="M11.3472 12.3749C11.3472 12.5186 11.2307 12.6352 11.0869 12.6352H12.6488C12.7925 12.6352 12.9091 12.5186 12.9091 12.3749H11.3472Z" fill="#F4E08F"/>
</g>
<defs>
<clipPath id="clip0_8615_27578">
<path d="M0 2C0 0.895432 0.895431 0 2 0H21.9998C23.1043 0 23.9998 0.895431 23.9998 2V21.9998C23.9998 23.1043 23.1043 23.9998 21.9998 23.9998H2C0.895432 23.9998 0 23.1043 0 21.9998V2Z" fill="white"/>
</clipPath>
</defs>
</svg>
