<svg width="24" height="24" viewBox="0 0 24 24" fill="none" xmlns="http://www.w3.org/2000/svg">
<g clip-path="url(#clip0_8615_27577)">
<path d="M24.0012 0H0.00146484V23.9998H24.0012V0Z" fill="#F5F5F5"/>
<path d="M24.0012 9.47358H14.5277V0H9.47509V9.47358H0.00146484V14.5262H9.47509V23.9998H14.5277V14.5262H24.0012V9.47358Z" fill="#FF4B55"/>
<path d="M19.5806 13.8945V10.1051L18.6332 11.0524H5.37023L4.42285 10.1051V13.8945L5.37023 12.9472H18.6332L19.5806 13.8945Z" fill="#FFE15A"/>
<path d="M10.1069 19.5786H13.8964L12.949 18.6313V5.36823L13.8964 4.4209H10.1069L11.0543 5.36823V18.6313L10.1069 19.5786Z" fill="#FFE15A"/>
</g>
<defs>
<clipPath id="clip0_8615_27577">
<path d="M0 2C0 0.895432 0.895431 0 2 0H21.9998C23.1043 0 23.9998 0.895431 23.9998 2V21.9998C23.9998 23.1043 23.1043 23.9998 21.9998 23.9998H2C0.895432 23.9998 0 23.1043 0 21.9998V2Z" fill="white"/>
</clipPath>
</defs>
</svg>
