<svg width="24" height="24" viewBox="0 0 24 24" fill="none" xmlns="http://www.w3.org/2000/svg">
<g clip-path="url(#clip0_8615_27663)">
<path d="M24.0003 0H0.000488281V2.99997H24.0003V0Z" fill="#F5F5F5"/>
<path d="M24.0003 3H0.000488281V5.99997H24.0003V3Z" fill="#FF4B55"/>
<path d="M24.0003 6H0.000488281V8.99997H24.0003V6Z" fill="#41479B"/>
<path d="M24.0003 9H0.000488281V12H24.0003V9Z" fill="#F5F5F5"/>
<path d="M24.0003 15H0.000488281V11.3684H0.517749L0.517702 12H24.0003V15Z" fill="#FF4B55"/>
<path d="M24.0003 17.9999H0.000488281V20.9998H24.0003V17.9999Z" fill="#F5F5F5"/>
<path d="M24.0003 20.9999H0.000488281V23.9998H24.0003V20.9999Z" fill="#FF4B55"/>
<path d="M24.0007 14.9999H0.000976562V17.9998H24.0007V14.9999Z" fill="#41479B"/>
<path d="M4.422 0H0.000976562V0.936413L4.422 3.83293V0Z" fill="#41479B"/>
<path d="M0.000976562 3.20154V4.42107H1.86236L0.000976562 3.20154Z" fill="#41479B"/>
<path d="M0.000976562 7.57898V8.79851L1.86236 7.57898H0.000976562Z" fill="#41479B"/>
<path d="M12.0006 0.936413V0H7.57959V3.83293L12.0006 0.936413Z" fill="#41479B"/>
<path d="M12.0005 8.79851V7.57898H10.1392L12.0005 8.79851Z" fill="#41479B"/>
<path d="M7.57959 8.16699V11.9999H12.0006V11.0635L7.57959 8.16699Z" fill="#41479B"/>
<path d="M12.0005 4.42107V3.20154L10.1392 4.42107H12.0005Z" fill="#41479B"/>
<path d="M0.000976562 11.0635V11.9999H4.422V8.16699L0.000976562 11.0635Z" fill="#41479B"/>
<path d="M12.0008 11.0636V10.1278L8.07422 7.57898H9.23427L12.0008 9.37479V8.79851L10.1394 7.57898H12.0008V6.94739H6.94824V12H7.57978V8.16706L12.0008 11.0636Z" fill="#F5F5F5"/>
<path d="M0.000976562 6.94739V7.57898H1.86236L0.000976562 8.79851V9.68449L3.24455 7.57898H4.4046L0.000976562 10.4375V11.0636L4.422 8.16706V12H5.05354V6.94739H0.000976562Z" fill="#F5F5F5"/>
<path d="M5.05354 0H4.422V3.83293L0.000976562 0.936413V1.96118L3.79041 4.42102H2.63036L0.000976562 2.71422V3.20148L1.86236 4.42102H0.000976562V5.05261H5.05354V0Z" fill="#F5F5F5"/>
<path d="M12.0008 5.05261V4.42102H10.1394L12.0008 3.20148V2.30421L8.73983 4.42102H7.57978L12.0008 1.55122V0.936413L7.57978 3.83293V0H6.94824V5.05261H12.0008Z" fill="#F5F5F5"/>
<path d="M12.0009 6.94728V5.05261H6.9483V0H5.05354V5.05261H0.000976562V6.94728H5.05354V11.9999H6.9483V6.94728H12.0009Z" fill="#FF4B55"/>
<path d="M3.24455 7.57898L0.000976562 9.68449V10.4375L4.40461 7.57898H3.24455Z" fill="#FF4B55"/>
<path d="M8.07422 7.57898L12.0008 10.1278V9.37479L9.23427 7.57898H8.07422Z" fill="#FF4B55"/>
<path d="M3.79041 4.42114L0.000976562 1.9613V2.71434L2.63036 4.42114H3.79041Z" fill="#FF4B55"/>
<path d="M8.73964 4.42107L12.0006 2.30426V1.55127L7.57959 4.42107H8.73964Z" fill="#FF4B55"/>
</g>
<defs>
<clipPath id="clip0_8615_27663">
<path d="M0 2C0 0.895432 0.895431 0 2 0H21.9998C23.1043 0 23.9998 0.895431 23.9998 2V21.9998C23.9998 23.1043 23.1043 23.9998 21.9998 23.9998H2C0.895432 23.9998 0 23.1043 0 21.9998V2Z" fill="white"/>
</clipPath>
</defs>
</svg>
