<?xml version="1.0" encoding="utf-8"?>
<!-- Generator: Adobe Illustrator 28.1.0, SVG Export Plug-In . SVG Version: 6.00 Build 0)  -->
<svg version="1.1" id="Layer_1" xmlns="http://www.w3.org/2000/svg" xmlns:xlink="http://www.w3.org/1999/xlink" x="0px" y="0px"
	 viewBox="0 0 512 512" style="enable-background:new 0 0 512 512;" xml:space="preserve">
<g>
	<defs>
		<path id="SVGID_1_" d="M512,400V112C512,50.1,461.9,0,400,0H112C50.2,0,0,50.1,0,112v288c0,61.8,50.2,112,112,112h288
			C461.9,512,512,461.9,512,400z"/>
	</defs>
	<clipPath id="SVGID_00000157296109398624250430000008009715643435845508_">
		<use xlink:href="#SVGID_1_"  style="overflow:visible;"/>
	</clipPath>
	<path style="clip-path:url(#SVGID_00000157296109398624250430000008009715643435845508_);fill:#00247D;" d="M484.4-45.7H13.8
		c-3.4,0-6.8,0.3-10.2,1L3.6-5.7l-45.9-0.1c-7.3,14.5-11.1,31.5-11.1,48.9v399.5c0,49,30.1,88.8,67.2,88.8h470.6
		c37.1,0,67.2-39.8,67.2-88.8V43.1C551.6-5.9,521.5-45.7,484.4-45.7z"/>
	<path style="clip-path:url(#SVGID_00000157296109398624250430000008009715643435845508_);fill:#FFFFFF;" d="M101.1,348.3
		l-18.7,17.3l1.9-25.4l-25.2-3.8l21-14.4l-12.7-22.1l24.3,7.5l9.3-23.7l9.4,23.7l24.3-7.5L122.1,322l21,14.4l-25.2,3.8l1.9,25.4
		L101.1,348.3z M391,96.6l-12.2,11.3l1.2-16.6l-16.5-2.5l13.8-9.4L369,64.9l15.9,4.9l6.1-15.5l6.1,15.5l15.9-4.9l-8.3,14.4l13.7,9.4
		L402,91.2l1.2,16.6L391,96.6z M329.8,188.3l-12.2,11.3l1.2-16.6l-16.5-2.5l13.8-9.4l-8.3-14.4l15.9,4.9l6.1-15.5l6.1,15.5l15.9-4.9
		l-8.3,14.4l13.7,9.4l-16.5,2.5l1.2,16.6L329.8,188.3z M467.5,157.7l-12.2,11.3l1.2-16.6l-16.5-2.5l13.8-9.4l-8.3-14.4l15.9,4.9
		l6.1-15.5l6.1,15.5l15.9-4.9l-8.3,14.4l13.7,9.4l-16.5,2.5l1.2,16.6L467.5,157.7z M391,371.9l-12.2,11.3l1.2-16.6l-16.5-2.5
		l13.8-9.4l-8.3-14.4l15.9,4.9l6.1-15.5l6.1,15.5l15.9-4.9l-8.3,14.4l13.7,9.4l-16.5,2.5l1.2,16.6L391,371.9z M437.6,195l4.5,9.1
		l10,1.5l-7.3,7.1l1.7,10l-9-4.7l-9,4.7l1.7-10l-7.3-7.1l10-1.5L437.6,195z"/>
	<path style="clip-path:url(#SVGID_00000157296109398624250430000008009715643435845508_);fill:#00247D;" d="M290.6,198.8V0H61.2
		c-4.9,0-9.2,0.7-9.2,0.7l-0.1,26.8l-41.8-0.1c0,0-0.6,0.9-1.9,3.1C2.8,39.9,0,50.4,0,61.2v137.7H290.6z"/>
	<path style="clip-path:url(#SVGID_00000157296109398624250430000008009715643435845508_);fill:#EEEEEE;" d="M290.6,0H255l-71.4,50
		V0h-76.5v39.3L51.9,0.7C42.7,2.1,34,5.5,26.4,10.9l71.9,50.3H71.7L14.8,21.3c-1.7,2-3.2,4-4.7,6.2l48.2,33.7H0v76.5h59.4L0,180
		v18.9h51l56.1-39.3v39.3h76.5v-50l71.4,50h35.7v-31l-43.1-30.1h43.1V61.2h-43l43-30.1V0z"/>
	<path style="clip-path:url(#SVGID_00000157296109398624250430000008009715643435845508_);fill:#CF1B2B;" d="M168.3,0h-45.9v76.5H0
		v45.9h122.4v76.5h45.9v-76.5h122.4V76.5H168.3V0z"/>
	<path style="clip-path:url(#SVGID_00000157296109398624250430000008009715643435845508_);fill:#CF1B2B;" d="M290.6,0h-22.3
		l-84.7,59.3v1.9h24l83-58.2V0z M26.4,10.9c-4.3,3-8.2,6.5-11.6,10.4l56.9,39.9h26.5L26.4,10.9L26.4,10.9z M98.5,137.7l-87.2,61.2
		h26.4l69.4-48.6v-12.6H98.5z M290.6,195.8v-18.7l-56.4-39.5h-26.7L290.6,195.8z"/>
</g>
</svg>
