<svg width="24" height="24" viewBox="0 0 24 24" fill="none" xmlns="http://www.w3.org/2000/svg">
<g clip-path="url(#clip0_8615_27455)">
<path d="M24.0009 0H12.001V23.9998H24.0009V0Z" fill="#F5F5F5"/>
<path d="M12.0009 0H0.000976562V23.9998H12.0009V0Z" fill="#FFE15A"/>
<path d="M19.1359 8.19161L19.1084 8.24659C19.1972 8.29206 19.248 8.34386 19.248 8.39889L19.2342 8.12561C19.2156 8.16231 19.1794 8.18866 19.1359 8.19161Z" fill="#EBEBEB"/>
<path d="M16.9873 8.24659L16.9598 8.19161C16.9163 8.18861 16.8801 8.16231 16.8614 8.12561L16.8477 8.39889C16.8477 8.34386 16.8984 8.29206 16.9873 8.24659Z" fill="#EBEBEB"/>
<path d="M16.9685 7.95321C17.0348 7.95321 17.0885 8.00693 17.0885 8.07321C17.0885 8.09721 17.0797 8.1183 17.0675 8.13705L17.0991 8.20024C17.1897 8.16841 17.3012 8.14137 17.4285 8.12046L17.415 8.06646C17.3654 8.05174 17.3285 8.00763 17.3285 7.95321C17.3285 7.88693 17.3822 7.83321 17.4485 7.83321C17.5148 7.83321 17.5685 7.88693 17.5685 7.95321C17.5685 7.98701 17.5543 8.01729 17.5318 8.03913L17.5478 8.10321C17.6147 8.09487 17.6848 8.08821 17.7576 8.08329C17.7522 8.06074 17.7486 8.03749 17.7486 8.01326C17.7486 7.84756 17.8829 7.71326 18.0486 7.71326C18.2143 7.71326 18.3486 7.84756 18.3486 8.01326C18.3486 8.03749 18.3449 8.06074 18.3395 8.08329C18.4123 8.08821 18.4824 8.09487 18.5493 8.10321L18.5653 8.03913C18.5428 8.01734 18.5286 7.98705 18.5286 7.95321C18.5286 7.88693 18.5823 7.83321 18.6486 7.83321C18.7149 7.83321 18.7686 7.88693 18.7686 7.95321C18.7686 8.00759 18.7317 8.05169 18.6821 8.06646L18.6686 8.12046C18.7959 8.14137 18.9074 8.16841 18.998 8.20024L19.0296 8.13705C19.0175 8.1183 19.0086 8.09721 19.0086 8.07321C19.0086 8.00693 19.0623 7.95321 19.1286 7.95321C19.1718 7.95321 19.2079 7.97726 19.229 8.01152L19.2198 7.82852C19.1014 7.69399 18.6224 7.59326 18.0486 7.59326C17.4749 7.59326 16.9959 7.69399 16.8774 7.82852L16.8682 8.01152C16.8892 7.97726 16.9254 7.95321 16.9685 7.95321Z" fill="#EBEBEB"/>
<path d="M18.2379 6.54144C18.2703 6.50052 18.2905 6.44938 18.2905 6.39309C18.2905 6.28138 18.2139 6.18834 18.1105 6.16157V6.01471C18.1457 5.99381 18.1705 5.95706 18.1705 5.91309C18.1705 5.84681 18.1168 5.79309 18.0505 5.79309C17.9843 5.79309 17.9305 5.84681 17.9305 5.91309C17.9305 5.95701 17.9553 5.99381 17.9905 6.01471V6.16157C17.8872 6.18834 17.8105 6.28138 17.8105 6.39309C17.8105 6.44938 17.8307 6.50047 17.8632 6.54144C17.9243 6.52476 17.9864 6.51308 18.0505 6.51308C18.1147 6.51308 18.1768 6.52476 18.2379 6.54144Z" fill="#E6B432"/>
<path d="M17.547 7.14899L17.5363 7.10638C17.4867 7.09166 17.4498 7.04755 17.4498 6.99313C17.4498 6.92685 17.5036 6.87313 17.5698 6.87313C17.6361 6.87313 17.6898 6.92685 17.6898 6.99313C17.6898 7.02693 17.6756 7.05721 17.6531 7.07905L17.6667 7.13315C17.7841 7.12035 17.9136 7.11313 18.0499 7.11313C17.9505 7.11313 17.8699 7.03255 17.8699 6.93313C17.8699 6.83371 17.9505 6.75313 18.0499 6.75313C18.1493 6.75313 18.2299 6.83371 18.2299 6.93313C18.2299 7.03255 18.1493 7.11313 18.0499 7.11313C18.1862 7.11313 18.3156 7.12035 18.4331 7.13315L18.4466 7.07905C18.4241 7.05726 18.4099 7.02698 18.4099 6.99313C18.4099 6.92685 18.4636 6.87313 18.5299 6.87313C18.5962 6.87313 18.6499 6.92685 18.6499 6.99313C18.6499 7.04751 18.613 7.09162 18.5634 7.10638L18.5528 7.14899C18.6138 7.15841 18.6705 7.16933 18.7214 7.1818L18.8099 7.0049C18.6569 6.76771 18.4591 6.60225 18.2373 6.54154C18.1762 6.52486 18.1141 6.51318 18.05 6.51318C17.9858 6.51318 17.9237 6.52481 17.8627 6.54154C17.6408 6.60229 17.4431 6.76771 17.29 7.0049L17.3785 7.1818C17.4292 7.16929 17.486 7.15841 17.547 7.14899Z" fill="#EBEBEB"/>
<path d="M17.9303 16.9752V16.7131C17.9303 16.6851 17.9342 16.6581 17.9403 16.6319C17.9372 16.6298 17.9336 16.6283 17.9303 16.6264C17.8949 16.6058 17.8542 16.5931 17.8103 16.5931C17.7664 16.5931 17.7257 16.6058 17.6903 16.6264C17.6189 16.668 17.5703 16.7445 17.5703 16.8331C17.5703 16.8977 17.5961 16.956 17.6376 16.9991C17.689 16.9707 17.7474 16.9531 17.8103 16.9531C17.8526 16.9531 17.8926 16.9618 17.9303 16.9752Z" fill="#E6B432"/>
<path d="M18.1698 16.0264C18.0984 16.068 18.0498 16.1445 18.0498 16.2332C18.0498 16.2977 18.0756 16.356 18.1171 16.3991C18.1685 16.3707 18.2268 16.3532 18.2898 16.3532C18.3528 16.3532 18.4111 16.3707 18.4625 16.3991C18.504 16.356 18.5298 16.2977 18.5298 16.2332C18.5298 16.1445 18.4812 16.068 18.4098 16.0264C18.3744 16.0058 18.3337 15.9932 18.2898 15.9932C18.2459 15.9932 18.2052 16.0059 18.1698 16.0264Z" fill="#E6B432"/>
<path d="M18.1175 16.399C18.0293 16.4477 17.9636 16.5311 17.9402 16.6317C17.9341 16.6579 17.9302 16.6849 17.9302 16.713V16.9751C17.8925 16.9616 17.8525 16.953 17.8102 16.953C17.7472 16.953 17.6889 16.9706 17.6375 16.999C17.5264 17.0603 17.4502 17.1772 17.4502 17.313V17.793H18.1702V17.313C18.1702 17.2707 18.1616 17.2307 18.1482 17.193H18.6502V16.713C18.6502 16.5772 18.574 16.4603 18.4629 16.399C18.4115 16.3706 18.3531 16.353 18.2902 16.353C18.2272 16.353 18.1689 16.3707 18.1175 16.399Z" fill="#FF4B57"/>
<path d="M18.1716 11.5731L18.3767 11.7782L18.4468 11.708C18.4634 11.6914 18.4841 11.6828 18.5055 11.6779L19.5203 10.6628L20.1704 11.3129L20.5947 10.8886L20.425 10.7189L20.3401 10.8038L20.1704 10.6341L20.2553 10.5492L20.1704 10.4644L20.3401 10.2947L20.425 10.3796L20.5098 10.2947L20.6795 10.4644L20.5947 10.5492L20.7644 10.7189L21.1886 10.2947L20.5384 9.64448L20.9833 9.1994C20.9619 9.19059 20.9417 9.17761 20.9243 9.16017L20.6843 8.92017C20.6664 8.90227 20.6533 8.8815 20.6445 8.85938L18.1445 11.36C18.1605 11.3804 18.1716 11.4049 18.1716 11.4329L18.1716 11.5731Z" fill="#E6B432"/>
<path d="M17.8964 12.2873L17.557 11.9479L16.5019 13.0032C16.4082 13.097 16.4082 13.2489 16.502 13.3426C16.5488 13.3895 16.6102 13.4129 16.6716 13.4129C16.733 13.4129 16.7945 13.3895 16.8414 13.3426L17.666 12.5177L17.8964 12.2873Z" fill="#E6B432"/>
<path d="M14.6166 13.5329C14.6233 13.5141 14.6276 13.4941 14.6276 13.473C14.6276 13.3735 14.547 13.293 14.4476 13.293C14.3482 13.293 14.2676 13.3735 14.2676 13.473C14.2676 13.5724 14.3482 13.653 14.4476 13.653C14.4687 13.653 14.4887 13.6487 14.5075 13.642C14.5415 13.6033 14.5779 13.5669 14.6166 13.5329Z" fill="#D2D2D2"/>
<path d="M14.5075 15.224C14.4887 15.2173 14.4687 15.213 14.4476 15.213C14.3482 15.213 14.2676 15.2936 14.2676 15.393C14.2676 15.4924 14.3482 15.573 14.4476 15.573C14.547 15.573 14.6276 15.4924 14.6276 15.393C14.6276 15.3719 14.6233 15.3519 14.6166 15.3331C14.5779 15.2991 14.5416 15.2627 14.5075 15.224Z" fill="#D2D2D2"/>
<path d="M16.3075 13.6421C16.3264 13.6488 16.3464 13.6531 16.3675 13.6531C16.4669 13.6531 16.5475 13.5725 16.5475 13.4731C16.5475 13.3737 16.4669 13.2931 16.3675 13.2931C16.2681 13.2931 16.1875 13.3737 16.1875 13.4731C16.1875 13.4942 16.1918 13.5142 16.1985 13.533C16.2372 13.567 16.2736 13.6034 16.3075 13.6421Z" fill="#D2D2D2"/>
<path d="M16.1875 15.393C16.1875 15.4925 16.2681 15.573 16.3675 15.573C16.423 15.573 16.4719 15.5474 16.5049 15.508C16.3922 15.4672 16.2867 15.4218 16.1897 15.3719C16.1888 15.379 16.1875 15.3858 16.1875 15.393Z" fill="#D2D2D2"/>
<path d="M15.9394 15.2192C15.9141 15.2009 15.899 15.1744 15.8931 15.1461C15.8727 15.1505 15.8517 15.153 15.83 15.153C15.6875 15.153 15.5684 15.0529 15.538 14.9194C15.5053 14.9525 15.4601 14.973 15.41 14.973C15.3599 14.973 15.3147 14.9525 15.282 14.9194C15.2517 15.0529 15.1325 15.153 14.99 15.153C14.8246 15.153 14.69 15.0185 14.69 14.853C14.69 14.7105 14.7901 14.5914 14.9236 14.561C14.8905 14.5284 14.87 14.4831 14.87 14.433C14.87 14.3829 14.8905 14.3377 14.9236 14.3051C14.7901 14.2747 14.69 14.1556 14.69 14.013C14.69 13.8476 14.8246 13.713 14.99 13.713C15.1325 13.713 15.2516 13.8131 15.282 13.9466C15.3147 13.9136 15.3599 13.893 15.41 13.893C15.4601 13.893 15.5053 13.9136 15.538 13.9466C15.5683 13.8131 15.6874 13.713 15.83 13.713C15.9954 13.713 16.13 13.8476 16.13 14.013C16.13 14.1556 16.0299 14.2747 15.8964 14.3051C15.9295 14.3377 15.95 14.383 15.95 14.433C15.95 14.4831 15.9295 14.5284 15.8964 14.561C16.0299 14.5914 16.13 14.7104 16.13 14.853C16.13 14.9163 16.1101 14.9748 16.0765 15.0233C16.0776 15.0241 16.079 15.0241 16.0801 15.025C16.1577 15.0812 16.2472 15.1334 16.3466 15.1812C16.3765 15.1438 16.4037 15.1044 16.429 15.0636C16.5081 14.9362 16.564 14.7934 16.5908 14.6404C16.6026 14.5729 16.6099 14.5038 16.6099 14.433C16.6099 14.1299 16.496 13.8535 16.31 13.642C16.276 13.6033 16.2396 13.567 16.201 13.533C15.9895 13.3469 15.7131 13.233 15.4099 13.233C15.1068 13.233 14.8304 13.3469 14.6189 13.533C14.5803 13.567 14.5439 13.6034 14.5099 13.642C14.3239 13.8535 14.21 14.1299 14.21 14.433C14.21 14.7362 14.3239 15.0126 14.5099 15.224C14.5439 15.2627 14.5803 15.2991 14.6189 15.3331C14.8304 15.5192 15.1068 15.6331 15.4099 15.6331C15.6983 15.6331 15.9631 15.5307 16.1703 15.3606C16.0867 15.3165 16.009 15.2696 15.9394 15.2192ZM16.3377 14.1903C16.358 14.268 16.37 14.349 16.37 14.433C16.37 14.517 16.358 14.5981 16.3377 14.6758C16.3038 14.5791 16.2437 14.4958 16.1652 14.433C16.2437 14.3703 16.3038 14.287 16.3377 14.1903ZM15.6528 13.5053C15.5561 13.5392 15.4728 13.5993 15.41 13.6778C15.3472 13.5993 15.2639 13.5392 15.1672 13.5053C15.245 13.485 15.326 13.473 15.41 13.473C15.494 13.473 15.5751 13.485 15.6528 13.5053ZM14.4823 14.1903C14.5162 14.2869 14.5763 14.3703 14.6548 14.433C14.5763 14.4958 14.5162 14.5791 14.4823 14.6758C14.462 14.5981 14.4501 14.517 14.4501 14.433C14.45 14.349 14.462 14.268 14.4823 14.1903ZM15.1672 15.3607C15.2639 15.3268 15.3472 15.2667 15.41 15.1883C15.4728 15.2667 15.5561 15.3269 15.6528 15.3607C15.575 15.3811 15.494 15.393 15.41 15.393C15.326 15.393 15.245 15.3811 15.1672 15.3607Z" fill="#E6B432"/>
<path d="M15.233 14.433C15.233 14.3336 15.1525 14.2531 15.053 14.2531C15.0037 14.2531 14.9591 14.2729 14.9266 14.3051C14.8936 14.3377 14.873 14.383 14.873 14.433C14.873 14.4832 14.8936 14.5284 14.9266 14.561C14.9592 14.5931 15.0037 14.613 15.053 14.613C15.1525 14.613 15.233 14.5325 15.233 14.433Z" fill="#F0C814"/>
<path d="M15.5928 14.433C15.5928 14.5325 15.6734 14.613 15.7728 14.613C15.8221 14.613 15.8667 14.5932 15.8992 14.561C15.9322 14.5284 15.9528 14.4831 15.9528 14.433C15.9528 14.3829 15.9322 14.3377 15.8992 14.3051C15.8667 14.273 15.8221 14.2531 15.7728 14.2531C15.6734 14.2531 15.5928 14.3337 15.5928 14.433Z" fill="#F0C814"/>
<path d="M15.4134 14.2531C15.5128 14.2531 15.5934 14.1725 15.5934 14.0731C15.5934 14.0238 15.5735 13.9791 15.5414 13.9466C15.5087 13.9136 15.4635 13.8931 15.4134 13.8931C15.3633 13.8931 15.3181 13.9136 15.2854 13.9466C15.2533 13.9792 15.2334 14.0238 15.2334 14.0731C15.2334 14.1725 15.314 14.2531 15.4134 14.2531Z" fill="#F0C814"/>
<path d="M15.4134 14.613C15.314 14.613 15.2334 14.6936 15.2334 14.793C15.2334 14.8423 15.2533 14.887 15.2854 14.9195C15.3181 14.9525 15.3633 14.973 15.4134 14.973C15.4635 14.973 15.5087 14.9525 15.5414 14.9195C15.5735 14.887 15.5934 14.8423 15.5934 14.793C15.5934 14.6937 15.5128 14.613 15.4134 14.613Z" fill="#F0C814"/>
<path d="M20.9225 9.16036C20.9399 9.1778 20.9601 9.19079 20.9816 9.1996C21.0033 9.2085 21.0266 9.2131 21.0498 9.2131C21.0958 9.2131 21.1419 9.19552 21.177 9.16036C21.2394 9.09797 21.2432 9.00282 21.1948 8.93269L21.2612 8.66734C21.2705 8.66968 21.2796 8.6731 21.2897 8.6731C21.356 8.6731 21.4097 8.61938 21.4097 8.5531C21.4097 8.48682 21.356 8.43311 21.2897 8.43311C21.2234 8.43311 21.1697 8.48682 21.1697 8.5531C21.1697 8.56323 21.1731 8.57228 21.1755 8.58165L20.9101 8.64798C20.84 8.59965 20.7448 8.60345 20.6824 8.66579C20.63 8.7182 20.6169 8.79479 20.6426 8.85952C20.6515 8.88165 20.6645 8.90241 20.6824 8.92032L20.9225 9.16036Z" fill="#D2D2D2"/>
<path d="M17.9291 11.9833V11.913V11.433C17.9291 11.4051 17.9402 11.3806 17.9562 11.3602L15.4562 8.8595C15.4474 8.88162 15.4343 8.90239 15.4164 8.92029L15.1764 9.16029C15.159 9.17773 15.1388 9.19071 15.1174 9.19952L15.5623 9.6446L14.9121 10.2948L15.3364 10.7191L15.5061 10.5494L15.4212 10.4645L15.5909 10.2948L15.6757 10.3797L15.7606 10.2948L15.9303 10.4645L15.8454 10.5494L15.9303 10.6342L15.7606 10.8039L15.6757 10.7191L15.5061 10.8887L15.9303 11.313L16.5804 10.6629L17.5952 11.6781C17.6166 11.6829 17.6373 11.6915 17.6539 11.7082L17.9291 11.9833Z" fill="#D2D2D2"/>
<path d="M18.2051 12.2875L18.4354 12.5179L19.26 13.3427C19.3069 13.3896 19.3683 13.413 19.4298 13.413C19.4912 13.413 19.5526 13.3896 19.5995 13.3427C19.6932 13.2491 19.6932 13.0971 19.5995 13.0033L18.5444 11.948L18.2051 12.2875Z" fill="#D2D2D2"/>
<path d="M18.1699 11.913V11.9833L18.375 11.7783L18.1699 11.5732V11.913Z" fill="#D2D2D2"/>
<path d="M21.5898 13.6421C21.6086 13.6488 21.6286 13.6531 21.6497 13.6531C21.7491 13.6531 21.8297 13.5725 21.8297 13.4731C21.8297 13.3737 21.7491 13.2931 21.6497 13.2931C21.5503 13.2931 21.4697 13.3737 21.4697 13.4731C21.4697 13.4942 21.474 13.5142 21.4807 13.533C21.5194 13.567 21.5558 13.6034 21.5898 13.6421Z" fill="#D2D2D2"/>
<path d="M21.6497 15.213C21.6286 15.213 21.6086 15.2173 21.5898 15.224C21.5557 15.2627 21.5194 15.2991 21.4807 15.3331C21.474 15.3519 21.4697 15.3719 21.4697 15.3931C21.4697 15.4925 21.5503 15.5731 21.6497 15.5731C21.7491 15.5731 21.8297 15.4925 21.8297 15.3931C21.8297 15.2936 21.7491 15.213 21.6497 15.213Z" fill="#D2D2D2"/>
<path d="M19.8988 13.5329C19.9055 13.5141 19.9098 13.4941 19.9098 13.473C19.9098 13.3735 19.8292 13.293 19.7298 13.293C19.6304 13.293 19.5498 13.3735 19.5498 13.473C19.5498 13.5724 19.6304 13.653 19.7298 13.653C19.7509 13.653 19.7709 13.6487 19.7898 13.642C19.8237 13.6033 19.8601 13.5669 19.8988 13.5329Z" fill="#D2D2D2"/>
<path d="M19.7292 15.573C19.8286 15.573 19.9092 15.4925 19.9092 15.393C19.9092 15.3858 19.9079 15.3789 19.9071 15.3719C19.81 15.4218 19.7046 15.4672 19.5918 15.5081C19.6248 15.5475 19.6738 15.573 19.7292 15.573Z" fill="#D2D2D2"/>
<path d="M21.5903 15.224C21.7763 15.0126 21.8902 14.7362 21.8902 14.433C21.8902 14.1299 21.7763 13.8535 21.5903 13.642C21.5562 13.6033 21.5199 13.567 21.4812 13.533C21.2698 13.3469 20.9934 13.233 20.6902 13.233C20.3871 13.233 20.1107 13.3469 19.8992 13.533C19.8605 13.567 19.8242 13.6034 19.7902 13.642C19.6041 13.8535 19.4902 14.1299 19.4902 14.433C19.4902 14.5042 19.4976 14.5736 19.5096 14.6415C19.5365 14.7941 19.5923 14.9365 19.6712 15.0635C19.6965 15.1043 19.7237 15.1438 19.7536 15.1811C19.8529 15.1334 19.9423 15.0812 20.0199 15.025C20.021 15.0242 20.0225 15.0241 20.0237 15.0233C19.9902 14.9749 19.9702 14.9163 19.9702 14.853C19.9702 14.7105 20.0704 14.5914 20.2038 14.561C20.1708 14.5284 20.1502 14.4831 20.1502 14.433C20.1502 14.3829 20.1708 14.3377 20.2038 14.3051C20.0704 14.2747 19.9702 14.1556 19.9702 14.013C19.9702 13.8476 20.1048 13.713 20.2702 13.713C20.4127 13.713 20.5318 13.8131 20.5623 13.9466C20.5949 13.9136 20.6401 13.893 20.6902 13.893C20.7403 13.893 20.7856 13.9136 20.8182 13.9466C20.8486 13.8131 20.9677 13.713 21.1102 13.713C21.2756 13.713 21.4102 13.8476 21.4102 14.013C21.4102 14.1556 21.3101 14.2747 21.1766 14.3051C21.2097 14.3377 21.2302 14.383 21.2302 14.433C21.2302 14.4831 21.2097 14.5284 21.1766 14.561C21.3101 14.5914 21.4102 14.7104 21.4102 14.853C21.4102 15.0185 21.2756 15.153 21.1102 15.153C20.9677 15.153 20.8486 15.0529 20.8182 14.9194C20.7856 14.9525 20.7403 14.973 20.6902 14.973C20.6401 14.973 20.5949 14.9525 20.5623 14.9194C20.5319 15.0529 20.4128 15.153 20.2702 15.153C20.2485 15.153 20.2274 15.1504 20.2069 15.146C20.2011 15.1744 20.1859 15.2011 20.1606 15.2193C20.0912 15.2697 20.0134 15.3166 19.93 15.3605C20.1371 15.5306 20.4019 15.633 20.6903 15.633C20.9934 15.633 21.2698 15.5192 21.4813 15.3331C21.5199 15.2991 21.5563 15.2627 21.5903 15.224ZM19.7626 14.6758C19.7422 14.5981 19.7303 14.517 19.7303 14.433C19.7303 14.349 19.7422 14.268 19.7626 14.1903C19.7965 14.2869 19.8566 14.3703 19.935 14.433C19.8566 14.4958 19.7964 14.5791 19.7626 14.6758ZM20.6902 13.6778C20.6274 13.5994 20.5441 13.5392 20.4475 13.5054C20.5252 13.485 20.6062 13.4731 20.6902 13.4731C20.7742 13.4731 20.8553 13.485 20.933 13.5054C20.8363 13.5392 20.753 13.5993 20.6902 13.6778ZM21.6179 14.1903C21.6383 14.268 21.6502 14.349 21.6502 14.433C21.6502 14.517 21.6383 14.5981 21.6179 14.6758C21.584 14.5791 21.5239 14.4958 21.4455 14.433C21.5239 14.3703 21.584 14.287 21.6179 14.1903ZM20.4475 15.3607C20.5441 15.3268 20.6274 15.2667 20.6902 15.1883C20.753 15.2667 20.8363 15.3269 20.933 15.3607C20.8553 15.3811 20.7742 15.393 20.6902 15.393C20.6062 15.393 20.5252 15.3811 20.4475 15.3607Z" fill="#E6B432"/>
<path d="M20.8721 14.433C20.8721 14.5325 20.9526 14.613 21.0521 14.613C21.1014 14.613 21.146 14.5932 21.1785 14.561C21.2115 14.5284 21.2321 14.4831 21.2321 14.433C21.2321 14.3829 21.2115 14.3377 21.1785 14.3051C21.146 14.273 21.1014 14.2531 21.0521 14.2531C20.9527 14.2531 20.8721 14.3337 20.8721 14.433Z" fill="#F0C814"/>
<path d="M20.5123 14.433C20.5123 14.3336 20.4318 14.2531 20.3323 14.2531C20.283 14.2531 20.2384 14.2729 20.2059 14.3051C20.1729 14.3377 20.1523 14.383 20.1523 14.433C20.1523 14.4832 20.1729 14.5284 20.2059 14.561C20.2385 14.5931 20.283 14.613 20.3323 14.613C20.4318 14.613 20.5123 14.5325 20.5123 14.433Z" fill="#F0C814"/>
<path d="M20.6927 14.2531C20.7921 14.2531 20.8727 14.1725 20.8727 14.0731C20.8727 14.0238 20.8528 13.9791 20.8207 13.9466C20.788 13.9136 20.7428 13.8931 20.6927 13.8931C20.6426 13.8931 20.5974 13.9136 20.5647 13.9466C20.5326 13.9792 20.5127 14.0238 20.5127 14.0731C20.5127 14.1725 20.5933 14.2531 20.6927 14.2531Z" fill="#F0C814"/>
<path d="M20.6927 14.613C20.5933 14.613 20.5127 14.6936 20.5127 14.793C20.5127 14.8423 20.5326 14.887 20.5647 14.9195C20.5974 14.9525 20.6426 14.973 20.6927 14.973C20.7428 14.973 20.788 14.9525 20.8207 14.9195C20.8528 14.887 20.8727 14.8423 20.8727 14.793C20.8727 14.6937 20.7921 14.613 20.6927 14.613Z" fill="#F0C814"/>
<path d="M15.4177 8.92032C15.4356 8.90241 15.4487 8.88165 15.4575 8.85952C15.4832 8.79479 15.4701 8.7182 15.4177 8.66579C15.3553 8.6034 15.2601 8.59965 15.19 8.64798L14.9247 8.58165C14.927 8.57228 14.9304 8.56323 14.9304 8.5531C14.9304 8.48682 14.8767 8.43311 14.8104 8.43311C14.7441 8.43311 14.6904 8.48682 14.6904 8.5531C14.6904 8.61938 14.7441 8.6731 14.8104 8.6731C14.8206 8.6731 14.8296 8.66973 14.839 8.66734L14.9053 8.93269C14.857 9.00282 14.8608 9.09797 14.9231 9.16036C14.9583 9.19552 15.0043 9.2131 15.0504 9.2131C15.0736 9.2131 15.0968 9.2085 15.1186 9.1996C15.1401 9.19079 15.1602 9.1778 15.1776 9.16036L15.4177 8.92032Z" fill="#F7B518"/>
<path d="M20.1606 15.2194C20.1859 15.201 20.2011 15.1744 20.2069 15.146C20.2134 15.1142 20.2079 15.0801 20.1874 15.0518C20.1493 14.9994 20.0771 14.9874 20.0236 15.0233C20.0224 15.0241 20.021 15.0242 20.0198 15.0251C19.9422 15.0812 19.8528 15.1334 19.7535 15.1812C19.4017 15.3504 18.9254 15.4633 18.4102 15.4998V13.8143C18.9339 14.5295 19.4439 14.9138 19.6711 15.0635C19.5922 14.9365 19.5364 14.7941 19.5095 14.6415C19.2191 14.4012 18.8084 13.9977 18.4102 13.3891V12.5738C18.4186 12.555 18.4274 12.5368 18.4358 12.5179L18.2054 12.2875L18.5448 11.9481L18.615 11.8779C18.6618 11.8311 18.6618 11.7551 18.615 11.7083C18.5847 11.678 18.5428 11.6695 18.504 11.6782C18.4826 11.683 18.4619 11.6916 18.4453 11.7083L18.3751 11.7784L18.1701 11.9834V11.9131V11.5733V11.4331C18.1701 11.4052 18.1591 11.3807 18.1431 11.3603C18.1211 11.3322 18.0885 11.3131 18.0501 11.3131C18.0118 11.3131 17.9792 11.3322 17.9572 11.3603C17.9412 11.3807 17.9301 11.4052 17.9301 11.4331V11.9131V11.9834L17.655 11.7083C17.6383 11.6916 17.6176 11.683 17.5962 11.6782C17.5574 11.6695 17.5155 11.678 17.4853 11.7083C17.4384 11.7551 17.4384 11.8311 17.4853 11.8779L17.5554 11.9481L17.8948 12.2875L17.6645 12.5179C17.6729 12.5369 17.6816 12.5551 17.6901 12.5738V13.3882C17.2923 13.9955 16.8815 14.3995 16.5909 14.6404C16.5641 14.7935 16.5083 14.9362 16.4292 15.0636C16.6564 14.9138 17.1663 14.5295 17.6901 13.8143V15.4999C17.1749 15.4634 16.6986 15.3505 16.3467 15.1812C16.2474 15.1334 16.1579 15.0812 16.0803 15.025C16.0791 15.0241 16.0778 15.0241 16.0767 15.0233C16.0233 14.9872 15.9508 14.9994 15.9127 15.0517C15.8921 15.0801 15.8867 15.1142 15.8933 15.1461C15.8991 15.1744 15.9143 15.2009 15.9395 15.2193C16.0091 15.2696 16.0869 15.3166 16.1705 15.3606C16.1777 15.3644 16.1849 15.3682 16.1923 15.372C16.2893 15.4218 16.3948 15.4672 16.5076 15.5081C16.8483 15.6314 17.2544 15.712 17.6901 15.7408V16.6263C17.7256 16.6057 17.7662 16.5931 17.8101 16.5931C17.854 16.5931 17.8947 16.6057 17.9301 16.6263V15.7513C17.97 15.7522 18.0099 15.7531 18.0501 15.7531C18.0903 15.7531 18.1302 15.7522 18.1701 15.7513V16.0263C18.2056 16.0057 18.2462 15.9931 18.2901 15.9931C18.334 15.9931 18.3747 16.0057 18.4101 16.0263V15.7408C18.8459 15.7121 19.252 15.6314 19.5927 15.5081C19.7055 15.4673 19.811 15.4218 19.908 15.372C19.9153 15.3682 19.9226 15.3644 19.9298 15.3606C20.0133 15.3166 20.091 15.2697 20.1606 15.2194ZM18.0502 15.513C18.01 15.513 17.9701 15.5122 17.9302 15.5113V13.4633C17.9704 13.4001 18.0104 13.3344 18.0502 13.2671C18.09 13.3345 18.1299 13.4002 18.1702 13.4633V15.5113C18.1303 15.5122 18.0903 15.513 18.0502 15.513Z" fill="#FF4B55"/>
<path d="M18.0477 8.64641C18.7104 8.64641 19.2477 8.75984 19.2477 8.89972C19.2477 8.66431 19.2477 8.43463 19.2477 8.39877C19.2477 8.34374 19.1969 8.29194 19.1081 8.24647L19.1356 8.19149C19.1791 8.18849 19.2153 8.16219 19.2339 8.12549C19.2421 8.10955 19.2477 8.0923 19.2477 8.07308C19.2477 8.04998 19.2395 8.02968 19.2282 8.0114C19.207 7.97718 19.1709 7.95309 19.1277 7.95309C19.0614 7.95309 19.0077 8.0068 19.0077 8.07308C19.0077 8.09708 19.0165 8.11818 19.0287 8.13693L18.9971 8.20011C18.9066 8.16829 18.795 8.14124 18.6677 8.12033L18.6812 8.06633C18.7308 8.05162 18.7677 8.00751 18.7677 7.95309C18.7677 7.88681 18.714 7.83309 18.6477 7.83309C18.5815 7.83309 18.5277 7.88681 18.5277 7.95309C18.5277 7.98688 18.5419 8.01716 18.5644 8.03901L18.5484 8.10308C18.4816 8.09474 18.4114 8.08808 18.3386 8.08316C18.3441 8.06062 18.3477 8.03737 18.3477 8.01313C18.3477 7.84743 18.2134 7.71313 18.0477 7.71313C17.882 7.71313 17.7477 7.84743 17.7477 8.01313C17.7477 8.03737 17.7513 8.06062 17.7567 8.08316C17.6839 8.08808 17.6139 8.09474 17.547 8.10308L17.5309 8.03901C17.5534 8.01721 17.5676 7.98693 17.5676 7.95309C17.5676 7.88681 17.5139 7.83309 17.4476 7.83309C17.3814 7.83309 17.3277 7.88681 17.3277 7.95309C17.3277 8.00746 17.3645 8.05157 17.4141 8.06633L17.4276 8.12033C17.3004 8.14124 17.1888 8.16829 17.0982 8.20011L17.0667 8.13693C17.0788 8.11818 17.0877 8.09708 17.0877 8.07308C17.0877 8.0068 17.0339 7.95309 16.9677 7.95309C16.9245 7.95309 16.8883 7.97713 16.8672 8.0114C16.8559 8.02968 16.8477 8.05002 16.8477 8.07308C16.8477 8.0923 16.8534 8.10955 16.8614 8.12549C16.88 8.16219 16.9162 8.18849 16.9598 8.19149L16.9873 8.24647C16.8985 8.29194 16.8477 8.34374 16.8477 8.39877C16.8477 8.43463 16.8477 8.66431 16.8477 8.89972C16.8477 8.75984 17.385 8.64641 18.0477 8.64641Z" fill="#E6B432"/>
<path d="M16.8477 8.91302L16.8492 8.91241C16.8488 8.90838 16.8477 8.90294 16.8477 8.89966C16.8477 8.90416 16.8477 8.90856 16.8477 8.91302Z" fill="#E6B432"/>
<path d="M19.2486 8.91302C19.2486 8.90856 19.2486 8.90416 19.2486 8.89966C19.2486 8.90294 19.2474 8.90838 19.2471 8.91241L19.2486 8.91302Z" fill="#E6B432"/>
<path d="M17.0897 9.15303C17.0897 9.17703 17.0809 9.19812 17.0687 9.21687L17.1142 9.30786C17.1935 9.26853 17.302 9.23468 17.4317 9.20872L17.4161 9.14623C17.3665 9.13151 17.3297 9.0874 17.3297 9.03298C17.3297 8.9667 17.3834 8.91298 17.4497 8.91298C17.5159 8.91298 17.5696 8.9667 17.5696 9.03298C17.5696 9.06678 17.5554 9.09706 17.5329 9.1189L17.5502 9.18814C17.666 9.17084 17.7939 9.15931 17.9296 9.15505V9.0463C17.8931 9.01334 17.8696 8.96609 17.8696 8.91303C17.8696 8.81361 17.9502 8.73303 18.0496 8.73303C18.1491 8.73303 18.2296 8.81361 18.2296 8.91303C18.2296 8.96614 18.2062 9.01339 18.1696 9.0463V9.15505C18.3053 9.15936 18.4333 9.17084 18.549 9.18814L18.5663 9.1189C18.5438 9.09711 18.5296 9.06683 18.5296 9.03298C18.5296 8.9667 18.5834 8.91298 18.6496 8.91298C18.7159 8.91298 18.7696 8.9667 18.7696 9.03298C18.7696 9.08736 18.7327 9.13147 18.6832 9.14623L18.6675 9.20872C18.7973 9.23464 18.9058 9.26848 18.9851 9.30786L19.0306 9.21687C19.0184 9.19812 19.0096 9.17703 19.0096 9.15303C19.0096 9.08675 19.0633 9.03303 19.1296 9.03303C19.1583 9.03303 19.1836 9.04451 19.2043 9.0613C19.231 8.99572 19.2452 8.94364 19.2481 8.91242C19.2485 8.90839 19.2496 8.90295 19.2496 8.89967C19.2496 8.75975 18.7123 8.64636 18.0496 8.64636C17.3869 8.64636 16.8496 8.7598 16.8496 8.89967C16.8496 8.90295 16.8507 8.90839 16.8511 8.91242C16.854 8.94364 16.8682 8.99572 16.8949 9.0613C16.9156 9.04447 16.9409 9.03303 16.9696 9.03303C17.036 9.03303 17.0897 9.08675 17.0897 9.15303Z" fill="#EBEBEB"/>
<path d="M16.8496 9.15303C16.8496 9.2165 16.8993 9.26717 16.9617 9.27143L17.0135 9.37503C16.9854 9.40254 16.9696 9.43151 16.9696 9.4616C16.9696 9.49624 16.9905 9.52943 17.0273 9.56051L17.2096 9.87307C17.2096 9.74051 17.5857 9.63307 18.0496 9.63307C18.5135 9.63307 18.8896 9.74051 18.8896 9.87307L19.0719 9.56051C19.1087 9.52943 19.1296 9.49624 19.1296 9.4616C19.1296 9.43151 19.1138 9.40249 19.0857 9.37503L19.1375 9.27143C19.1999 9.26717 19.2496 9.2165 19.2496 9.15303C19.2496 9.11548 19.2313 9.08333 19.2043 9.06129C19.1836 9.04447 19.1583 9.03303 19.1296 9.03303C19.0633 9.03303 19.0096 9.08675 19.0096 9.15303C19.0096 9.17703 19.0184 9.19812 19.0306 9.21687L18.9851 9.30785C18.9058 9.26853 18.7972 9.23468 18.6675 9.20871L18.6832 9.14623C18.7327 9.13151 18.7696 9.0874 18.7696 9.03298C18.7696 8.9667 18.7159 8.91298 18.6496 8.91298C18.5834 8.91298 18.5296 8.9667 18.5296 9.03298C18.5296 9.06678 18.5438 9.09706 18.5663 9.1189L18.549 9.18814C18.4333 9.17084 18.3053 9.15931 18.1696 9.15504V9.04629C18.2062 9.01334 18.2296 8.96609 18.2296 8.91303C18.2296 8.81361 18.1491 8.73303 18.0496 8.73303C17.9502 8.73303 17.8696 8.81361 17.8696 8.91303C17.8696 8.96614 17.8931 9.01339 17.9296 9.04629V9.15504C17.7939 9.15936 17.666 9.17084 17.5502 9.18814L17.5329 9.1189C17.5554 9.09711 17.5696 9.06683 17.5696 9.03298C17.5696 8.9667 17.5159 8.91298 17.4497 8.91298C17.3834 8.91298 17.3297 8.9667 17.3297 9.03298C17.3297 9.08736 17.3665 9.13147 17.4161 9.14623L17.4317 9.20871C17.302 9.23464 17.1935 9.26848 17.1142 9.30785L17.0687 9.21687C17.0808 9.19812 17.0897 9.17703 17.0897 9.15303C17.0897 9.08675 17.036 9.03303 16.9697 9.03303C16.941 9.03303 16.9157 9.04451 16.895 9.06129C16.8679 9.08333 16.8496 9.11548 16.8496 9.15303Z" fill="#E6B432"/>
<path d="M18.05 10.1133C18.5139 10.1133 18.8899 10.0058 18.8899 9.8733C18.8899 9.74075 18.5139 9.6333 18.05 9.6333C17.586 9.6333 17.21 9.74075 17.21 9.8733C17.21 10.0058 17.586 10.1133 18.05 10.1133Z" fill="#EBEBEB"/>
<path d="M19.2175 7.82837L19.0063 7.3531C19.0063 7.3231 18.9833 7.29446 18.943 7.26798L19.1136 6.92678C19.1433 6.86748 19.1193 6.79539 19.06 6.76577C19.0006 6.73633 18.9286 6.76023 18.8989 6.81944L18.8063 7.00483L18.7178 7.18173C18.6669 7.16926 18.6102 7.15834 18.5492 7.14892L18.5598 7.10631C18.6094 7.09159 18.6463 7.04748 18.6463 6.99306C18.6463 6.92678 18.5926 6.87306 18.5263 6.87306C18.46 6.87306 18.4063 6.92678 18.4063 6.99306C18.4063 7.02686 18.4205 7.05714 18.443 7.07898L18.4295 7.13307C18.312 7.12028 18.1826 7.11306 18.0463 7.11306C17.9099 7.11306 17.7805 7.12028 17.6631 7.13307L17.6495 7.07898C17.672 7.05719 17.6862 7.0269 17.6862 6.99306C17.6862 6.92678 17.6325 6.87306 17.5662 6.87306C17.4999 6.87306 17.4462 6.92678 17.4462 6.99306C17.4462 7.04743 17.4831 7.09154 17.5327 7.10631L17.5433 7.14892C17.4824 7.15834 17.4256 7.16926 17.3747 7.18173L17.2862 7.00483L17.1936 6.81944C17.1638 6.76028 17.092 6.73638 17.0325 6.76577C16.9733 6.79539 16.9492 6.86748 16.9789 6.92678L17.1495 7.26798C17.1092 7.29446 17.0862 7.32306 17.0862 7.3531L16.875 7.82837C16.9935 7.69384 17.4725 7.5931 18.0462 7.5931C18.62 7.5931 19.099 7.69384 19.2175 7.82837Z" fill="#E6B432"/>
<path d="M18.0462 7.11329C18.1456 7.11329 18.2262 7.0327 18.2262 6.93329C18.2262 6.83388 18.1456 6.7533 18.0462 6.7533C17.9468 6.7533 17.8662 6.83388 17.8662 6.93329C17.8662 7.0327 17.9468 7.11329 18.0462 7.11329Z" fill="#E6B432"/>
</g>
<defs>
<clipPath id="clip0_8615_27455">
<path d="M0 2C0 0.895432 0.895431 0 2 0H21.9998C23.1043 0 23.9998 0.895431 23.9998 2V21.9998C23.9998 23.1043 23.1043 23.9998 21.9998 23.9998H2C0.895432 23.9998 0 23.1043 0 21.9998V2Z" fill="white"/>
</clipPath>
</defs>
</svg>
