<svg width="24" height="24" viewBox="0 0 24 24" fill="none" xmlns="http://www.w3.org/2000/svg">
<g clip-path="url(#clip0_8615_27568)">
<path d="M23.9998 0H0V8.00008H23.9998V0Z" fill="#4173CD"/>
<path d="M23.9998 15.9998H0V23.9998H23.9998V15.9998Z" fill="#4173CD"/>
<path d="M23.9998 8.00012H0V16.0002H23.9998V8.00012Z" fill="#F5F5F5"/>
<path d="M12.0909 10.968L12.3169 11.6457L13.0313 11.6513C13.1238 11.652 13.1621 11.77 13.0878 11.825L12.513 12.2494L12.7285 12.9305C12.7564 13.0187 12.656 13.0917 12.5808 13.0379L11.9995 12.6224L11.4183 13.0379C11.3431 13.0916 11.2427 13.0187 11.2706 12.9305L11.486 12.2494L10.9113 11.825C10.8369 11.7701 10.8753 11.652 10.9678 11.6513L11.6822 11.6457L11.9082 10.968C11.9375 10.8803 12.0616 10.8803 12.0909 10.968Z" fill="#4173CD"/>
<path d="M5.63965 12.7869L5.86568 13.4646L6.5801 13.4701C6.67258 13.4708 6.71092 13.5889 6.63653 13.6438L6.0618 14.0682L6.27729 14.7494C6.30518 14.8375 6.20477 14.9105 6.12954 14.8567L5.54834 14.4413L4.96714 14.8567C4.89191 14.9105 4.7915 14.8375 4.81939 14.7494L5.03488 14.0682L4.46015 13.6438C4.38576 13.5889 4.4241 13.4709 4.51659 13.4701L5.231 13.4646L5.45703 12.7869C5.48628 12.6991 5.6104 12.6991 5.63965 12.7869Z" fill="#4173CD"/>
<path d="M5.63965 9.14906L5.86568 9.82678L6.5801 9.83231C6.67258 9.83301 6.71092 9.95104 6.63653 10.006L6.0618 10.4304L6.27729 11.1116C6.30518 11.1997 6.20477 11.2727 6.12954 11.2189L5.54834 10.8035L4.96714 11.2189C4.89191 11.2727 4.7915 11.1997 4.81939 11.1116L5.03488 10.4304L4.46015 10.006C4.38576 9.95109 4.4241 9.83306 4.51659 9.83231L5.231 9.82678L5.45703 9.14906C5.48628 9.06131 5.6104 9.06131 5.63965 9.14906Z" fill="#4173CD"/>
<path d="M18.5421 12.7869L18.7681 13.4646L19.4825 13.4701C19.575 13.4708 19.6134 13.5889 19.539 13.6438L18.9642 14.0682L19.1797 14.7494C19.2076 14.8375 19.1072 14.9105 19.032 14.8567L18.4507 14.4413L17.8695 14.8567C17.7943 14.9105 17.6938 14.8375 17.7217 14.7494L17.9372 14.0682L17.3625 13.6438C17.2881 13.5889 17.3264 13.4709 17.4189 13.4701L18.1333 13.4646L18.3594 12.7869C18.3887 12.6991 18.5128 12.6991 18.5421 12.7869Z" fill="#4173CD"/>
<path d="M18.5421 9.14906L18.7681 9.82678L19.4825 9.83231C19.575 9.83301 19.6134 9.95104 19.539 10.006L18.9642 10.4304L19.1797 11.1116C19.2076 11.1997 19.1072 11.2727 19.032 11.2189L18.4507 10.8035L17.8695 11.2189C17.7943 11.2727 17.6938 11.1997 17.7217 11.1116L17.9372 10.4304L17.3625 10.006C17.2881 9.95109 17.3264 9.83306 17.4189 9.83231L18.1333 9.82678L18.3594 9.14906C18.3887 9.06131 18.5128 9.06131 18.5421 9.14906Z" fill="#4173CD"/>
</g>
<defs>
<clipPath id="clip0_8615_27568">
<path d="M0 2C0 0.895432 0.895431 0 2 0H21.9998C23.1043 0 23.9998 0.895431 23.9998 2V21.9998C23.9998 23.1043 23.1043 23.9998 21.9998 23.9998H2C0.895432 23.9998 0 23.1043 0 21.9998V2Z" fill="white"/>
</clipPath>
</defs>
</svg>
