<svg width="24" height="24" viewBox="0 0 24 24" fill="none" xmlns="http://www.w3.org/2000/svg">
<g clip-path="url(#clip0_8615_27563)">
<path d="M23.9993 0H-0.000488281V23.9998H23.9993V0Z" fill="#41479B"/>
<path d="M23.9993 9.93093H10.758V0H6.62012V9.93093H-0.000488281V14.0688H6.62012V23.9998H10.758V14.0688H23.9993V9.93093Z" fill="#F5F5F5"/>
<path d="M23.9993 10.7585H9.93045V0H7.44774V10.7585H-0.000488281V13.2413H7.44774V23.9998H9.93045V13.2413H23.9993V10.7585Z" fill="#FF4B55"/>
</g>
<defs>
<clipPath id="clip0_8615_27563">
<path d="M0 2C0 0.895432 0.895431 0 2 0H21.9998C23.1043 0 23.9998 0.895431 23.9998 2V21.9998C23.9998 23.1043 23.1043 23.9998 21.9998 23.9998H2C0.895432 23.9998 0 23.1043 0 21.9998V2Z" fill="white"/>
</clipPath>
</defs>
</svg>
