<svg width="24" height="24" viewBox="0 0 24 24" fill="none" xmlns="http://www.w3.org/2000/svg">
<g clip-path="url(#clip0_8615_27561)">
<path d="M23.9988 0.0131836H-0.000976562V8.00436H23.9988V0.0131836Z" fill="#FAB446"/>
<path d="M23.9988 15.9956H-0.000976562V23.9868H23.9988V15.9956Z" fill="#73AF00"/>
<path d="M23.9988 8.00439H-0.000976562V15.9956H23.9988V8.00439Z" fill="#F5F5F5"/>
<path d="M12.0005 14.7399C10.4897 14.7399 9.26074 13.5109 9.26074 12.0002C9.26074 10.4895 10.4897 9.2605 12.0005 9.2605C13.5112 9.2605 14.7402 10.4895 14.7402 12.0002C14.7402 13.5109 13.5112 14.7399 12.0005 14.7399ZM12.0005 9.77021C10.7707 9.77021 9.77046 10.7705 9.77046 12.0002C9.77046 13.23 10.7707 14.2302 12.0005 14.2302C13.2302 14.2302 14.2305 13.23 14.2305 12.0002C14.2305 10.7705 13.2302 9.77021 12.0005 9.77021Z" fill="#41479B"/>
<path d="M12.0005 12.3108C12.1721 12.3108 12.3111 12.1717 12.3111 12.0002C12.3111 11.8286 12.1721 11.6896 12.0005 11.6896C11.829 11.6896 11.6899 11.8286 11.6899 12.0002C11.6899 12.1717 11.829 12.3108 12.0005 12.3108Z" fill="#41479B"/>
<path d="M12.0005 12.0468L11.2112 12.1265L9.51562 12.0468V11.9536L11.2112 11.8739L12.0005 11.9536V12.0468Z" fill="#41479B"/>
<path d="M12.0005 12.0468L12.7898 12.1265L14.4854 12.0468V11.9536L12.7898 11.8739L12.0005 11.9536V12.0468Z" fill="#41479B"/>
<path d="M11.9542 12.0002L11.8745 11.2109L11.9542 9.51538H12.0474L12.1271 11.2109L12.0474 12.0002H11.9542Z" fill="#41479B"/>
<path d="M11.9542 12.0002L11.8745 12.7896L11.9542 14.4851H12.0474L12.1271 12.7896L12.0474 12.0002H11.9542Z" fill="#41479B"/>
<path d="M11.9675 12.0332L11.353 11.5314L10.2104 10.2761L10.2763 10.2102L11.5316 11.3528L12.0334 11.9673L11.9675 12.0332Z" fill="#41479B"/>
<path d="M11.9673 12.0332L12.4691 12.6477L13.7244 13.7902L13.7902 13.7244L12.6477 12.4691L12.0332 11.9673L11.9673 12.0332Z" fill="#41479B"/>
<path d="M11.9673 11.9673L12.4691 11.3528L13.7244 10.2102L13.7902 10.2761L12.6477 11.5314L12.0332 12.0332L11.9673 11.9673Z" fill="#41479B"/>
<path d="M11.9675 11.9673L11.353 12.4691L10.2104 13.7244L10.2763 13.7902L11.5316 12.6477L12.0334 12.0332L11.9675 11.9673Z" fill="#41479B"/>
<path d="M12.0184 12.0432L11.3197 12.4189L9.72264 12.9942L9.68701 12.9081L11.223 12.1856L11.9827 11.9572L12.0184 12.0432Z" fill="#41479B"/>
<path d="M12.0185 12.0432L12.7783 11.8148L14.3143 11.0923L14.2786 11.0062L12.6816 11.5815L11.9829 11.9572L12.0185 12.0432Z" fill="#41479B"/>
<path d="M11.9573 12.018L11.5816 11.3193L11.0063 9.72227L11.0925 9.68665L11.8149 11.2226L12.0434 11.9824L11.9573 12.018Z" fill="#41479B"/>
<path d="M11.9575 12.018L12.1859 12.7778L12.9084 14.3138L12.9945 14.2781L12.4193 12.6811L12.0436 11.9824L11.9575 12.018Z" fill="#41479B"/>
<path d="M11.9827 12.0432L11.223 11.8148L9.68701 11.0923L9.72264 11.0062L11.3197 11.5815L12.0184 11.9572L11.9827 12.0432Z" fill="#41479B"/>
<path d="M11.9829 12.0432L12.6816 12.4189L14.2786 12.9942L14.3143 12.9081L12.7783 12.1856L12.0185 11.9572L11.9829 12.0432Z" fill="#41479B"/>
<path d="M11.9575 11.9824L12.1859 11.2226L12.9084 9.68665L12.9945 9.72227L12.4193 11.3193L12.0436 12.018L11.9575 11.9824Z" fill="#41479B"/>
<path d="M11.9573 11.9824L11.5816 12.6811L11.0063 14.2781L11.0925 14.3138L11.8149 12.7778L12.0434 12.018L11.9573 11.9824Z" fill="#41479B"/>
<path d="M11.9989 12.3401C12.1867 12.3401 12.339 12.1878 12.339 12C12.339 11.8121 12.1867 11.6598 11.9989 11.6598C11.811 11.6598 11.6587 11.8121 11.6587 12C11.6587 12.1878 11.811 12.3401 11.9989 12.3401Z" fill="#F5F5F5"/>
<path d="M11.9988 12.2512C12.1375 12.2512 12.25 12.1387 12.25 12C12.25 11.8612 12.1375 11.7488 11.9988 11.7488C11.86 11.7488 11.7476 11.8612 11.7476 12C11.7476 12.1387 11.86 12.2512 11.9988 12.2512Z" fill="#41479B"/>
</g>
<defs>
<clipPath id="clip0_8615_27561">
<path d="M0 2C0 0.895432 0.895431 0 2 0H21.9998C23.1043 0 23.9998 0.895431 23.9998 2V21.9998C23.9998 23.1043 23.1043 23.9998 21.9998 23.9998H2C0.895432 23.9998 0 23.1043 0 21.9998V2Z" fill="white"/>
</clipPath>
</defs>
</svg>
