<svg width="24" height="24" viewBox="0 0 24 24" fill="none" xmlns="http://www.w3.org/2000/svg">
<g clip-path="url(#clip0_8615_27618)">
<path d="M23.9983 0H-0.00146484V8.00523H23.9983V0Z" fill="#73AF00"/>
<path d="M23.9918 23.9998H0.00505072C0.00144138 23.9998 -0.00146484 23.9969 -0.00146484 23.9933V15.9945H23.9983V23.9933C23.9983 23.9969 23.9954 23.9998 23.9918 23.9998Z" fill="#FF4B55"/>
<path d="M23.9968 7.99719H-0.00292969V16.0024H23.9968V7.99719Z" fill="#F5F5F5"/>
<path d="M0.427051 6.64049V6.62957C0.427051 6.57468 0.38252 6.53015 0.32763 6.53015H-0.00292969V6.73992H0.32763C0.382567 6.73992 0.427051 6.69538 0.427051 6.64049Z" fill="#F5F5F5"/>
<path d="M0.427051 7.47404V7.46832C0.427051 7.41343 0.38252 7.3689 0.32763 7.3689H0.117538C0.0626478 7.3689 0.018117 7.32436 0.018117 7.26947V7.25869C0.018117 7.2038 0.0626478 7.15927 0.117538 7.15927H0.529518C0.584408 7.15927 0.628939 7.2038 0.628939 7.25869V7.47404C0.628939 7.52893 0.67347 7.57346 0.72836 7.57346H1.5571C1.61199 7.57346 1.65652 7.52893 1.65652 7.47404V6.62945C1.65652 6.57456 1.61199 6.53003 1.5571 6.53003H1.55152C1.49663 6.53003 1.4521 6.57456 1.4521 6.62945V7.26947C1.4521 7.32436 1.40757 7.3689 1.35268 7.3689H1.34443C1.28954 7.3689 1.24501 7.32436 1.24501 7.26947V6.62945C1.24501 6.57456 1.20048 6.53003 1.14559 6.53003H1.14259C1.0877 6.53003 1.04317 6.57456 1.04317 6.62945V7.26947C1.04317 7.32436 0.998639 7.3689 0.943749 7.3689H0.935499C0.880609 7.3689 0.836078 7.32436 0.836078 7.26947V6.62945C0.836078 6.57456 0.791547 6.53003 0.736657 6.53003H0.728407C0.673517 6.53003 0.628986 6.57456 0.628986 6.62945V6.85004C0.628986 6.90493 0.584455 6.94946 0.529565 6.94946H-0.00292969V7.57346H0.32763C0.382567 7.57346 0.427051 7.52897 0.427051 7.47404Z" fill="#F5F5F5"/>
<path d="M5.65205 6.53003H5.64647C5.59158 6.53003 5.54705 6.57456 5.54705 6.62945V7.26947C5.54705 7.32436 5.50252 7.3689 5.44763 7.3689H5.44463C5.38974 7.3689 5.34521 7.32436 5.34521 7.26947V6.62945C5.34521 6.57456 5.30068 6.53003 5.24579 6.53003H5.23754C5.18265 6.53003 5.13812 6.57456 5.13812 6.62945V7.26947C5.13812 7.32436 5.09359 7.3689 5.0387 7.3689H5.03045C4.97556 7.3689 4.93103 7.32436 4.93103 7.26947V6.62945C4.93103 6.57456 4.88649 6.53003 4.8316 6.53003H4.82589C4.771 6.53003 4.72646 6.57456 4.72646 6.62945V6.85004C4.72646 6.90493 4.68193 6.94946 4.62704 6.94946H4.00811C3.95322 6.94946 3.90869 6.99399 3.90869 7.04888V7.47404C3.90869 7.52893 3.95322 7.57346 4.00811 7.57346H4.42534C4.48023 7.57346 4.52476 7.52893 4.52476 7.47404V7.46832C4.52476 7.41343 4.48023 7.3689 4.42534 7.3689H4.21253C4.15764 7.3689 4.11311 7.32436 4.11311 7.26947V7.25869C4.11311 7.2038 4.15764 7.15927 4.21253 7.15927H4.62709C4.68198 7.15927 4.72651 7.2038 4.72651 7.25869V7.47404C4.72651 7.52893 4.77104 7.57346 4.82593 7.57346H5.6521C5.70699 7.57346 5.75152 7.52893 5.75152 7.47404V6.62945C5.75152 6.57456 5.70699 6.53003 5.65205 6.53003Z" fill="#F5F5F5"/>
<path d="M2.37502 7.57346C2.42991 7.57346 2.47444 7.52893 2.47444 7.47404V7.46832C2.47444 7.41343 2.42991 7.3689 2.37502 7.3689H2.36944C2.31455 7.3689 2.27002 7.41343 2.27002 7.46832V7.47404C2.27002 7.52893 2.31455 7.57346 2.36944 7.57346H2.37502Z" fill="#F5F5F5"/>
<path d="M1.96075 6.73992H4.42537C4.48026 6.73992 4.52479 6.69538 4.52479 6.64049V6.62957C4.52479 6.57468 4.48026 6.53015 4.42537 6.53015H1.96075C1.90586 6.53015 1.86133 6.57468 1.86133 6.62957V6.64049C1.86133 6.69538 1.90581 6.73992 1.96075 6.73992Z" fill="#F5F5F5"/>
<path d="M3.60473 6.94951H3.19022C3.13533 6.94951 3.0908 6.99404 3.0908 7.04893V7.05985C3.0908 7.11474 3.13533 7.15927 3.19022 7.15927H3.40036C3.45525 7.15927 3.49978 7.2038 3.49978 7.25869V7.26948C3.49978 7.32437 3.45525 7.3689 3.40036 7.3689H2.98313C2.92824 7.3689 2.88371 7.32437 2.88371 7.26948V7.04888C2.88371 6.99399 2.83918 6.94946 2.78429 6.94946H1.96075C1.90586 6.94946 1.86133 6.99399 1.86133 7.04888V7.47404C1.86133 7.52893 1.90586 7.57346 1.96075 7.57346H1.96633C2.02122 7.57346 2.06575 7.52893 2.06575 7.47404V7.25869C2.06575 7.2038 2.11028 7.15927 2.16517 7.15927H2.57982C2.63471 7.15927 2.67924 7.2038 2.67924 7.25869V7.47404C2.67924 7.52893 2.72377 7.57346 2.77866 7.57346H3.60473C3.65962 7.57346 3.70415 7.52893 3.70415 7.47404V7.04888C3.70415 6.99404 3.65962 6.94951 3.60473 6.94951Z" fill="#F5F5F5"/>
<path d="M6.46975 7.57346C6.52464 7.57346 6.56917 7.52893 6.56917 7.47404V7.46832C6.56917 7.41343 6.52464 7.3689 6.46975 7.3689H6.46417C6.40928 7.3689 6.36475 7.41343 6.36475 7.46832V7.47404C6.36475 7.52893 6.40928 7.57346 6.46417 7.57346H6.46975Z" fill="#F5F5F5"/>
<path d="M6.05499 6.73992H8.51689C8.57178 6.73992 8.61631 6.69538 8.61631 6.64049V6.62957C8.61631 6.57468 8.57178 6.53015 8.51689 6.53015H6.05499C6.0001 6.53015 5.95557 6.57468 5.95557 6.62957V6.64049C5.95557 6.69538 6.0001 6.73992 6.05499 6.73992Z" fill="#F5F5F5"/>
<path d="M9.74656 6.53003H9.74099C9.6861 6.53003 9.64157 6.57456 9.64157 6.62945V7.26947C9.64157 7.32436 9.59703 7.3689 9.54214 7.3689H9.53643C9.48154 7.3689 9.43701 7.32436 9.43701 7.26947V6.62945C9.43701 6.57456 9.39247 6.53003 9.33758 6.53003H9.32933C9.27444 6.53003 9.22991 6.57456 9.22991 6.62945V7.26947C9.22991 7.32436 9.18538 7.3689 9.13049 7.3689H9.12749C9.0726 7.3689 9.02807 7.32436 9.02807 7.26947V6.62945C9.02807 6.57456 8.98354 6.53003 8.92865 6.53003H8.92307C8.86818 6.53003 8.82365 6.57456 8.82365 6.62945V6.85004C8.82365 6.90493 8.77912 6.94946 8.72423 6.94946H8.09991C8.04502 6.94946 8.00049 6.99399 8.00049 7.04888V7.47404C8.00049 7.52893 8.04502 7.57346 8.09991 7.57346H8.51714C8.57203 7.57346 8.61656 7.52893 8.61656 7.47404V7.46832C8.61656 7.41343 8.57203 7.3689 8.51714 7.3689H8.307C8.25211 7.3689 8.20758 7.32436 8.20758 7.26947V7.25869C8.20758 7.2038 8.25211 7.15927 8.307 7.15927H8.72423C8.77912 7.15927 8.82365 7.2038 8.82365 7.25869V7.47404C8.82365 7.52893 8.86818 7.57346 8.92307 7.57346H9.74656C9.80146 7.57346 9.84599 7.52893 9.84599 7.47404V6.62945C9.84599 6.57456 9.80146 6.53003 9.74656 6.53003Z" fill="#F5F5F5"/>
<path d="M7.69941 6.94951H7.28218C7.22729 6.94951 7.18276 6.99404 7.18276 7.04893V7.05985C7.18276 7.11474 7.22729 7.15927 7.28218 7.15927H7.49232C7.54721 7.15927 7.59174 7.2038 7.59174 7.25869V7.26948C7.59174 7.32437 7.54721 7.3689 7.49232 7.3689H7.07781C7.02292 7.3689 6.97839 7.32437 6.97839 7.26948V7.04888C6.97839 6.99399 6.93386 6.94946 6.87897 6.94946H6.05548C6.00059 6.94946 5.95605 6.99399 5.95605 7.04888V7.47404C5.95605 7.52893 6.00059 7.57346 6.05548 7.57346H6.06105C6.11594 7.57346 6.16047 7.52893 6.16047 7.47404V7.25869C6.16047 7.2038 6.20501 7.15927 6.2599 7.15927H6.67441C6.7293 7.15927 6.77383 7.2038 6.77383 7.25869V7.47404C6.77383 7.52893 6.81836 7.57346 6.87325 7.57346H7.69941C7.7543 7.57346 7.79883 7.52893 7.79883 7.47404V7.04888C7.79883 6.99404 7.75435 6.94951 7.69941 6.94951Z" fill="#F5F5F5"/>
<path d="M13.8412 6.53003H13.8355C13.7806 6.53003 13.7361 6.57456 13.7361 6.62945V7.26947C13.7361 7.32436 13.6916 7.3689 13.6367 7.3689H13.6311C13.5762 7.3689 13.5317 7.32436 13.5317 7.26947V6.62945C13.5317 6.57456 13.4872 6.53003 13.4323 6.53003H13.4267C13.3718 6.53003 13.3273 6.57456 13.3273 6.62945V7.26947C13.3273 7.32436 13.2827 7.3689 13.2278 7.3689H13.2221C13.1672 7.3689 13.1227 7.32436 13.1227 7.26947V6.62945C13.1227 6.57456 13.0782 6.53003 13.0233 6.53003H13.0177C12.9628 6.53003 12.9183 6.57456 12.9183 6.62945V6.85004C12.9183 6.90493 12.8738 6.94946 12.8189 6.94946H12.1971C12.1422 6.94946 12.0977 6.99399 12.0977 7.04888V7.47404C12.0977 7.52893 12.1422 7.57346 12.1971 7.57346H12.6143C12.6692 7.57346 12.7137 7.52893 12.7137 7.47404V7.46832C12.7137 7.41343 12.6692 7.3689 12.6143 7.3689H12.4016C12.3467 7.3689 12.3022 7.32436 12.3022 7.26947V7.25869C12.3022 7.2038 12.3467 7.15927 12.4016 7.15927H12.8189C12.8738 7.15927 12.9183 7.2038 12.9183 7.25869V7.47404C12.9183 7.52893 12.9628 7.57346 13.0177 7.57346H13.8412C13.8961 7.57346 13.9406 7.52893 13.9406 7.47404V6.62945C13.9407 6.57456 13.8961 6.53003 13.8412 6.53003Z" fill="#F5F5F5"/>
<path d="M11.7943 6.94951H11.3771C11.3222 6.94951 11.2777 6.99404 11.2777 7.04893V7.05985C11.2777 7.11474 11.3222 7.15927 11.3771 7.15927H11.5898C11.6447 7.15927 11.6892 7.2038 11.6892 7.25869V7.26948C11.6892 7.32437 11.6447 7.3689 11.5898 7.3689H11.1752C11.1203 7.3689 11.0758 7.32437 11.0758 7.26948V7.04888C11.0758 6.99399 11.0313 6.94946 10.9764 6.94946H10.1502C10.0953 6.94946 10.0508 6.99399 10.0508 7.04888V7.47404C10.0508 7.52893 10.0953 7.57346 10.1502 7.57346H10.1559C10.2108 7.57346 10.2553 7.52893 10.2553 7.47404V7.25869C10.2553 7.2038 10.2999 7.15927 10.3548 7.15927H10.7693C10.8242 7.15927 10.8687 7.2038 10.8687 7.25869V7.47404C10.8687 7.52893 10.9132 7.57346 10.9681 7.57346H11.7943C11.8492 7.57346 11.8937 7.52893 11.8937 7.47404V7.04888C11.8937 6.99404 11.8492 6.94951 11.7943 6.94951Z" fill="#F5F5F5"/>
<path d="M10.1502 6.73992H12.6148C12.6697 6.73992 12.7142 6.69538 12.7142 6.64049V6.62957C12.7142 6.57468 12.6697 6.53015 12.6148 6.53015H10.1502C10.0953 6.53015 10.0508 6.57468 10.0508 6.62957V6.64049C10.0508 6.69538 10.0953 6.73992 10.1502 6.73992Z" fill="#F5F5F5"/>
<path d="M10.5648 7.57346C10.6197 7.57346 10.6642 7.52893 10.6642 7.47404V7.46832C10.6642 7.41343 10.6197 7.3689 10.5648 7.3689H10.5618C10.5069 7.3689 10.4624 7.41343 10.4624 7.46832V7.47404C10.4624 7.52893 10.5069 7.57346 10.5618 7.57346H10.5648Z" fill="#F5F5F5"/>
<path d="M15.889 6.94951H15.4744C15.4195 6.94951 15.3749 6.99404 15.3749 7.04893V7.05985C15.3749 7.11474 15.4195 7.15927 15.4744 7.15927H15.6819C15.7368 7.15927 15.7813 7.2038 15.7813 7.25869V7.26948C15.7813 7.32437 15.7368 7.3689 15.6819 7.3689H15.2699C15.215 7.3689 15.1705 7.32437 15.1705 7.26948V7.04888C15.1705 6.99399 15.126 6.94946 15.0711 6.94946H14.2449C14.19 6.94946 14.1455 6.99399 14.1455 7.04888V7.47404C14.1455 7.52893 14.19 7.57346 14.2449 7.57346H14.2506C14.3055 7.57346 14.3501 7.52893 14.3501 7.47404V7.25869C14.3501 7.2038 14.3946 7.15927 14.4495 7.15927H14.864C14.9189 7.15927 14.9635 7.2038 14.9635 7.25869V7.47404C14.9635 7.52893 15.008 7.57346 15.0629 7.57346H15.8891C15.9439 7.57346 15.9885 7.52893 15.9885 7.47404V7.04888C15.9885 6.99404 15.9439 6.94951 15.889 6.94951Z" fill="#F5F5F5"/>
<path d="M17.9362 6.53003H17.9305C17.8756 6.53003 17.831 6.57456 17.831 6.62945V7.26947C17.831 7.32436 17.7865 7.3689 17.7316 7.3689H17.726C17.6712 7.3689 17.6266 7.32436 17.6266 7.26947V6.62945C17.6266 6.57456 17.5821 6.53003 17.5272 6.53003H17.5215C17.4666 6.53003 17.4221 6.57456 17.4221 6.62945V7.26947C17.4221 7.32436 17.3775 7.3689 17.3226 7.3689H17.3171C17.2622 7.3689 17.2176 7.32436 17.2176 7.26947V6.62945C17.2176 6.57456 17.1731 6.53003 17.1182 6.53003H17.1125C17.0576 6.53003 17.0131 6.57456 17.0131 6.62945V6.85004C17.0131 6.90493 16.9686 6.94946 16.9137 6.94946H16.2947C16.2398 6.94946 16.1953 6.99399 16.1953 7.04888V7.47404C16.1953 7.52893 16.2398 7.57346 16.2947 7.57346H16.7092C16.7641 7.57346 16.8087 7.52893 16.8087 7.47404V7.46832C16.8087 7.41343 16.7641 7.3689 16.7092 7.3689H16.4966C16.4417 7.3689 16.3972 7.32436 16.3972 7.26947V7.25869C16.3972 7.2038 16.4417 7.15927 16.4966 7.15927H16.9137C16.9686 7.15927 17.0131 7.2038 17.0131 7.25869V7.47404C17.0131 7.52893 17.0576 7.57346 17.1125 7.57346H17.9361C17.991 7.57346 18.0356 7.52893 18.0356 7.47404V6.62945C18.0356 6.57456 17.9911 6.53003 17.9362 6.53003Z" fill="#F5F5F5"/>
<path d="M14.6591 7.57346C14.714 7.57346 14.7585 7.52893 14.7585 7.47404V7.46832C14.7585 7.41343 14.714 7.3689 14.6591 7.3689H14.6561C14.6012 7.3689 14.5566 7.41343 14.5566 7.46832V7.47404C14.5566 7.52893 14.6012 7.57346 14.6561 7.57346H14.6591Z" fill="#F5F5F5"/>
<path d="M14.2449 6.73992H16.7095C16.7644 6.73992 16.809 6.69538 16.809 6.64049V6.62957C16.809 6.57468 16.7644 6.53015 16.7095 6.53015H14.2449C14.19 6.53015 14.1455 6.57468 14.1455 6.62957V6.64049C14.1455 6.69538 14.19 6.73992 14.2449 6.73992Z" fill="#F5F5F5"/>
<path d="M18.7561 7.57346C18.811 7.57346 18.8555 7.52893 18.8555 7.47404V7.46832C18.8555 7.41343 18.811 7.3689 18.7561 7.3689H18.7479C18.693 7.3689 18.6484 7.41343 18.6484 7.46832V7.47404C18.6484 7.52893 18.693 7.57346 18.7479 7.57346H18.7561Z" fill="#F5F5F5"/>
<path d="M18.3397 6.73992H20.8042C20.8591 6.73992 20.9036 6.69538 20.9036 6.64049V6.62957C20.9036 6.57468 20.8591 6.53015 20.8042 6.53015H18.3397C18.2848 6.53015 18.2402 6.57468 18.2402 6.62957V6.64049C18.2402 6.69538 18.2848 6.73992 18.3397 6.73992Z" fill="#F5F5F5"/>
<path d="M22.0308 6.53003H22.0279C21.973 6.53003 21.9284 6.57456 21.9284 6.62945V7.26947C21.9284 7.32436 21.8839 7.3689 21.829 7.3689H21.8208C21.7659 7.3689 21.7214 7.32436 21.7214 7.26947V6.62945C21.7214 6.57456 21.6768 6.53003 21.6219 6.53003H21.6162C21.5613 6.53003 21.5168 6.57456 21.5168 6.62945V7.26947C21.5168 7.32436 21.4723 7.3689 21.4174 7.3689H21.4118C21.3569 7.3689 21.3124 7.32436 21.3124 7.26947V6.62945C21.3124 6.57456 21.2678 6.53003 21.213 6.53003H21.2072C21.1523 6.53003 21.1078 6.57456 21.1078 6.62945V6.85004C21.1078 6.90493 21.0633 6.94946 21.0084 6.94946H20.3895C20.3346 6.94946 20.29 6.99399 20.29 7.04888V7.47404C20.29 7.52893 20.3346 7.57346 20.3895 7.57346H20.804C20.8589 7.57346 20.9034 7.52893 20.9034 7.47404V7.46832C20.9034 7.41343 20.8589 7.3689 20.804 7.3689H20.5964C20.5415 7.3689 20.497 7.32436 20.497 7.26947V7.25869C20.497 7.2038 20.5415 7.15927 20.5964 7.15927H21.0084C21.0633 7.15927 21.1078 7.2038 21.1078 7.25869V7.47404C21.1078 7.52893 21.1523 7.57346 21.2072 7.57346H22.0307C22.0856 7.57346 22.1301 7.52893 22.1301 7.47404V6.62945C22.1302 6.57456 22.0857 6.53003 22.0308 6.53003Z" fill="#F5F5F5"/>
<path d="M19.9837 6.94951H19.5691C19.5142 6.94951 19.4697 6.99404 19.4697 7.04893V7.05985C19.4697 7.11474 19.5142 7.15927 19.5691 7.15927H19.7819C19.8368 7.15927 19.8813 7.2038 19.8813 7.25869V7.26948C19.8813 7.32437 19.8368 7.3689 19.7819 7.3689H19.362C19.3071 7.3689 19.2626 7.32437 19.2626 7.26948V7.04888C19.2626 6.99399 19.218 6.94946 19.1631 6.94946H18.3397C18.2848 6.94946 18.2402 6.99399 18.2402 7.04888V7.47404C18.2402 7.52893 18.2848 7.57346 18.3397 7.57346H18.3454C18.4003 7.57346 18.4448 7.52893 18.4448 7.47404V7.25869C18.4448 7.2038 18.4893 7.15927 18.5442 7.15927H18.9613C19.0162 7.15927 19.0607 7.2038 19.0607 7.25869V7.47404C19.0607 7.52893 19.1053 7.57346 19.1601 7.57346H19.9838C20.0387 7.57346 20.0832 7.52893 20.0832 7.47404V7.04888C20.0832 6.99404 20.0386 6.94951 19.9837 6.94951Z" fill="#F5F5F5"/>
<path d="M23.5665 7.04893V7.05985C23.5665 7.11474 23.611 7.15927 23.6659 7.15927H23.8759C23.9308 7.15927 23.9753 7.2038 23.9753 7.25869V7.26948C23.9753 7.32437 23.9308 7.3689 23.8759 7.3689H23.4588C23.4039 7.3689 23.3594 7.32437 23.3594 7.26948V7.04888C23.3594 6.99399 23.3149 6.94946 23.26 6.94946H22.4363C22.3814 6.94946 22.3369 6.99399 22.3369 7.04888V7.47404C22.3369 7.52893 22.3814 7.57346 22.4363 7.57346H22.4393C22.4942 7.57346 22.5388 7.52893 22.5388 7.47404V7.25869C22.5388 7.2038 22.5833 7.15927 22.6382 7.15927H23.0528C23.1077 7.15927 23.1522 7.2038 23.1522 7.25869V7.47404C23.1522 7.52893 23.1968 7.57346 23.2517 7.57346H23.9965V6.94946H23.6659C23.611 6.94951 23.5665 6.99404 23.5665 7.04893Z" fill="#F5F5F5"/>
<path d="M22.3369 6.62945V6.64037C22.3369 6.69526 22.3814 6.73979 22.4363 6.73979H23.9965V6.53003H22.4363C22.3814 6.53003 22.3369 6.57456 22.3369 6.62945Z" fill="#F5F5F5"/>
<path d="M22.8455 7.57346H22.8512C22.9061 7.57346 22.9507 7.52893 22.9507 7.47404V7.46832C22.9507 7.41343 22.9061 7.3689 22.8512 7.3689H22.8455C22.7906 7.3689 22.7461 7.41343 22.7461 7.46832V7.47404C22.7461 7.52897 22.7906 7.57346 22.8455 7.57346Z" fill="#F5F5F5"/>
<path d="M1.65652 8.10834V7.88775C1.65652 7.83286 1.61199 7.78833 1.5571 7.78833H-0.00292969V8.20776H1.5571C1.61199 8.20776 1.65652 8.16328 1.65652 8.10834Z" fill="#F5F5F5"/>
<path d="M3.60473 7.78833H1.96075C1.90586 7.78833 1.86133 7.83286 1.86133 7.88775V8.10834C1.86133 8.16323 1.90586 8.20776 1.96075 8.20776H3.60473C3.65962 8.20776 3.70415 8.16323 3.70415 8.10834V7.88775C3.70415 7.83286 3.65962 7.78833 3.60473 7.78833Z" fill="#F5F5F5"/>
<path d="M5.65205 7.78833H4.00811C3.95322 7.78833 3.90869 7.83286 3.90869 7.88775V8.10834C3.90869 8.16323 3.95322 8.20776 4.00811 8.20776H5.6521C5.70699 8.20776 5.75152 8.16323 5.75152 8.10834V7.88775C5.75152 7.83286 5.70699 7.78833 5.65205 7.78833Z" fill="#F5F5F5"/>
<path d="M7.69897 7.78833H6.05499C6.0001 7.78833 5.95557 7.83286 5.95557 7.88775V8.10834C5.95557 8.16323 6.0001 8.20776 6.05499 8.20776H7.69897C7.75386 8.20776 7.79839 8.16323 7.79839 8.10834V7.88775C7.79839 7.83286 7.75391 7.78833 7.69897 7.78833Z" fill="#F5F5F5"/>
<path d="M9.74656 7.78833H8.09991C8.04502 7.78833 8.00049 7.83286 8.00049 7.88775V8.10834C8.00049 8.16323 8.04502 8.20776 8.09991 8.20776H9.74656C9.80146 8.20776 9.84599 8.16323 9.84599 8.10834V7.88775C9.84599 7.83286 9.80146 7.78833 9.74656 7.78833Z" fill="#F5F5F5"/>
<path d="M11.7943 7.78833H10.1502C10.0953 7.78833 10.0508 7.83286 10.0508 7.88775V8.10834C10.0508 8.16323 10.0953 8.20776 10.1502 8.20776H11.7943C11.8492 8.20776 11.8937 8.16323 11.8937 8.10834V7.88775C11.8937 7.83286 11.8492 7.78833 11.7943 7.78833Z" fill="#F5F5F5"/>
<path d="M13.8412 7.78833H12.1971C12.1422 7.78833 12.0977 7.83286 12.0977 7.88775V8.10834C12.0977 8.16323 12.1422 8.20776 12.1971 8.20776H13.8412C13.8961 8.20776 13.9406 8.16323 13.9406 8.10834V7.88775C13.9406 7.83286 13.8961 7.78833 13.8412 7.78833Z" fill="#F5F5F5"/>
<path d="M17.9361 7.78833H16.2947C16.2398 7.78833 16.1953 7.83286 16.1953 7.88775V8.10834C16.1953 8.16323 16.2398 8.20776 16.2947 8.20776H17.9361C17.991 8.20776 18.0356 8.16323 18.0356 8.10834V7.88775C18.0356 7.83286 17.9911 7.78833 17.9361 7.78833Z" fill="#F5F5F5"/>
<path d="M15.8891 7.78833H14.2449C14.19 7.78833 14.1455 7.83286 14.1455 7.88775V8.10834C14.1455 8.16323 14.19 8.20776 14.2449 8.20776H15.8891C15.9439 8.20776 15.9885 8.16323 15.9885 8.10834V7.88775C15.9885 7.83286 15.944 7.78833 15.8891 7.78833Z" fill="#F5F5F5"/>
<path d="M19.9838 7.78833H18.3397C18.2848 7.78833 18.2402 7.83286 18.2402 7.88775V8.10834C18.2402 8.16323 18.2848 8.20776 18.3397 8.20776H19.9838C20.0387 8.20776 20.0832 8.16323 20.0832 8.10834V7.88775C20.0832 7.83286 20.0387 7.78833 19.9838 7.78833Z" fill="#F5F5F5"/>
<path d="M22.0308 7.78833H20.3895C20.3346 7.78833 20.29 7.83286 20.29 7.88775V8.10834C20.29 8.16323 20.3346 8.20776 20.3895 8.20776H22.0308C22.0857 8.20776 22.1302 8.16323 22.1302 8.10834V7.88775C22.1302 7.83286 22.0857 7.78833 22.0308 7.78833Z" fill="#F5F5F5"/>
<path d="M22.3369 7.88775V8.10834C22.3369 8.16323 22.3814 8.20776 22.4363 8.20776H23.9965V7.78833H22.4363C22.3814 7.78833 22.3369 7.83286 22.3369 7.88775Z" fill="#F5F5F5"/>
<path d="M23.5673 16.5256V16.5313C23.5673 16.5862 23.6118 16.6307 23.6667 16.6307H23.8769C23.9318 16.6307 23.9763 16.6752 23.9763 16.7301V16.7409C23.9763 16.7958 23.9318 16.8403 23.8769 16.8403H23.4649C23.41 16.8403 23.3655 16.7958 23.3655 16.7409V16.5256C23.3655 16.4707 23.3209 16.4261 23.2661 16.4261H22.4373C22.3824 16.4261 22.3379 16.4707 22.3379 16.5256V17.3702C22.3379 17.425 22.3824 17.4696 22.4373 17.4696H22.4429C22.4978 17.4696 22.5423 17.425 22.5423 17.3702V16.7301C22.5423 16.6752 22.5868 16.6307 22.6417 16.6307H22.65C22.7049 16.6307 22.7494 16.6752 22.7494 16.7301V17.3702C22.7494 17.425 22.7939 17.4696 22.8488 17.4696H22.8518C22.9067 17.4696 22.9512 17.425 22.9512 17.3702V16.7301C22.9512 16.6752 22.9958 16.6307 23.0507 16.6307H23.0589C23.1138 16.6307 23.1583 16.6752 23.1583 16.7301V17.3702C23.1583 17.425 23.2029 17.4696 23.2578 17.4696H23.266C23.3209 17.4696 23.3654 17.425 23.3654 17.3702V17.1496C23.3654 17.0947 23.41 17.0501 23.4648 17.0501H23.9973V16.4261H23.6667C23.6118 16.4261 23.5673 16.4706 23.5673 16.5256Z" fill="#F5F5F5"/>
<path d="M23.5674 17.3592V17.3701C23.5674 17.425 23.6119 17.4695 23.6668 17.4695H23.9974V17.2598H23.6668C23.6119 17.2598 23.5674 17.3043 23.5674 17.3592Z" fill="#F5F5F5"/>
<path d="M21.6245 16.6307C21.6794 16.6307 21.724 16.5862 21.724 16.5313V16.5256C21.724 16.4707 21.6794 16.4261 21.6245 16.4261H21.619C21.5641 16.4261 21.5195 16.4707 21.5195 16.5256V16.5313C21.5195 16.5862 21.5641 16.6307 21.619 16.6307H21.6245Z" fill="#F5F5F5"/>
<path d="M20.0859 16.9507V16.5256C20.0859 16.4707 20.0414 16.4261 19.9865 16.4261H19.5693C19.5144 16.4261 19.4699 16.4707 19.4699 16.5256V16.5313C19.4699 16.5862 19.5144 16.6307 19.5693 16.6307H19.7821C19.837 16.6307 19.8815 16.6752 19.8815 16.7301V16.7409C19.8815 16.7958 19.837 16.8403 19.7821 16.8403H19.3676C19.3127 16.8403 19.2682 16.7958 19.2682 16.7409V16.5256C19.2682 16.4707 19.2236 16.4261 19.1687 16.4261H18.3426C18.2877 16.4261 18.2432 16.4707 18.2432 16.5256V17.3702C18.2432 17.425 18.2877 17.4696 18.3426 17.4696H18.3482C18.4031 17.4696 18.4476 17.425 18.4476 17.3702V16.7301C18.4476 16.6752 18.4921 16.6307 18.547 16.6307H18.55C18.6049 16.6307 18.6494 16.6752 18.6494 16.7301V17.3702C18.6494 17.425 18.694 17.4696 18.7488 17.4696H18.7571C18.812 17.4696 18.8565 17.425 18.8565 17.3702V16.7301C18.8565 16.6752 18.901 16.6307 18.9559 16.6307H18.9642C19.0191 16.6307 19.0636 16.6752 19.0636 16.7301V17.3702C19.0636 17.425 19.1081 17.4696 19.163 17.4696H19.1687C19.2236 17.4696 19.2682 17.425 19.2682 17.3702V17.1496C19.2682 17.0947 19.3127 17.0501 19.3676 17.0501H19.9865C20.0414 17.0501 20.0859 17.0056 20.0859 16.9507Z" fill="#F5F5F5"/>
<path d="M22.0338 17.2598H19.5691C19.5143 17.2598 19.4697 17.3043 19.4697 17.3592V17.3701C19.4697 17.425 19.5143 17.4695 19.5691 17.4695H22.0338C22.0887 17.4695 22.1332 17.425 22.1332 17.3701V17.3592C22.1332 17.3043 22.0887 17.2598 22.0338 17.2598Z" fill="#F5F5F5"/>
<path d="M22.0334 16.4261H22.0279C21.973 16.4261 21.9284 16.4707 21.9284 16.5256V16.7409C21.9284 16.7958 21.8839 16.8403 21.829 16.8403H21.4144C21.3595 16.8403 21.315 16.7958 21.315 16.7409V16.5256C21.315 16.4707 21.2704 16.4261 21.2155 16.4261H20.3895C20.3346 16.4261 20.29 16.4707 20.29 16.5256V16.9507C20.29 17.0056 20.3346 17.0501 20.3895 17.0501H20.804C20.8589 17.0501 20.9034 17.0056 20.9034 16.9507V16.9398C20.9034 16.8849 20.8589 16.8404 20.804 16.8404H20.5938C20.5389 16.8404 20.4944 16.7958 20.4944 16.741V16.7302C20.4944 16.6753 20.5389 16.6308 20.5938 16.6308H21.0111C21.066 16.6308 21.1105 16.6753 21.1105 16.7302V16.9508C21.1105 17.0057 21.155 17.0502 21.2099 17.0502H22.0334C22.0883 17.0502 22.1328 17.0057 22.1328 16.9508V16.5256C22.1329 16.4706 22.0884 16.4261 22.0334 16.4261Z" fill="#F5F5F5"/>
<path d="M15.9939 16.9507V16.5256C15.9939 16.4707 15.9494 16.4261 15.8945 16.4261H15.4773C15.4224 16.4261 15.3779 16.4707 15.3779 16.5256V16.5313C15.3779 16.5862 15.4224 16.6307 15.4773 16.6307H15.6874C15.7423 16.6307 15.7868 16.6752 15.7868 16.7301V16.7409C15.7868 16.7958 15.7423 16.8403 15.6874 16.8403H15.2702C15.2153 16.8403 15.1708 16.7958 15.1708 16.7409V16.5256C15.1708 16.4707 15.1262 16.4261 15.0714 16.4261H14.2479C14.193 16.4261 14.1484 16.4707 14.1484 16.5256V17.3702C14.1484 17.425 14.193 17.4696 14.2479 17.4696H14.2534C14.3083 17.4696 14.3529 17.425 14.3529 17.3702V16.7301C14.3529 16.6752 14.3974 16.6307 14.4523 16.6307H14.458C14.5129 16.6307 14.5574 16.6752 14.5574 16.7301V17.3702C14.5574 17.425 14.6019 17.4696 14.6568 17.4696H14.6651C14.72 17.4696 14.7645 17.425 14.7645 17.3702V16.7301C14.7645 16.6752 14.809 16.6307 14.8639 16.6307H14.8669C14.9218 16.6307 14.9664 16.6752 14.9664 16.7301V17.3702C14.9664 17.425 15.0109 17.4696 15.0658 17.4696H15.0714C15.1262 17.4696 15.1708 17.425 15.1708 17.3702V17.1496C15.1708 17.0947 15.2153 17.0501 15.2702 17.0501H15.8945C15.9495 17.0501 15.9939 17.0056 15.9939 16.9507Z" fill="#F5F5F5"/>
<path d="M17.9392 17.2598H15.4774C15.4225 17.2598 15.3779 17.3043 15.3779 17.3592V17.3701C15.3779 17.425 15.4225 17.4695 15.4774 17.4695H17.9392C17.9941 17.4695 18.0387 17.425 18.0387 17.3701V17.3592C18.0387 17.3043 17.9941 17.2598 17.9392 17.2598Z" fill="#F5F5F5"/>
<path d="M17.5298 16.6307C17.5847 16.6307 17.6292 16.5862 17.6292 16.5313V16.5256C17.6292 16.4707 17.5847 16.4261 17.5298 16.4261H17.5242C17.4693 16.4261 17.4248 16.4707 17.4248 16.5256V16.5313C17.4248 16.5862 17.4693 16.6307 17.5242 16.6307H17.5298Z" fill="#F5F5F5"/>
<path d="M17.9387 16.4261H17.9331C17.8782 16.4261 17.8337 16.4707 17.8337 16.5256V16.7409C17.8337 16.7958 17.7892 16.8403 17.7343 16.8403H17.3197C17.2648 16.8403 17.2203 16.7958 17.2203 16.7409V16.5256C17.2203 16.4707 17.1758 16.4261 17.1209 16.4261H16.2947C16.2398 16.4261 16.1953 16.4707 16.1953 16.5256V16.9507C16.1953 17.0056 16.2398 17.0501 16.2947 17.0501H16.712C16.7669 17.0501 16.8114 17.0056 16.8114 16.9507V16.9398C16.8114 16.8849 16.7669 16.8404 16.712 16.8404H16.5018C16.4469 16.8404 16.4024 16.7958 16.4024 16.741V16.7302C16.4024 16.6753 16.4469 16.6308 16.5018 16.6308H16.9163C16.9712 16.6308 17.0158 16.6753 17.0158 16.7302V16.9508C17.0158 17.0057 17.0603 17.0502 17.1152 17.0502H17.9387C17.9936 17.0502 18.0381 17.0057 18.0381 16.9508V16.5256C18.0381 16.4706 17.9936 16.4261 17.9387 16.4261Z" fill="#F5F5F5"/>
<path d="M11.8962 16.9507V16.5256C11.8962 16.4707 11.8517 16.4261 11.7968 16.4261H11.3795C11.3246 16.4261 11.2801 16.4707 11.2801 16.5256V16.5313C11.2801 16.5862 11.3246 16.6307 11.3795 16.6307H11.5922C11.6471 16.6307 11.6916 16.6752 11.6916 16.7301V16.7409C11.6916 16.7958 11.6471 16.8403 11.5922 16.8403H11.175C11.1201 16.8403 11.0756 16.7958 11.0756 16.7409V16.5256C11.0756 16.4707 11.031 16.4261 10.9761 16.4261H10.1526C10.0978 16.4261 10.0532 16.4707 10.0532 16.5256V17.3702C10.0532 17.425 10.0978 17.4696 10.1526 17.4696H10.1584C10.2133 17.4696 10.2578 17.425 10.2578 17.3702V16.7301C10.2578 16.6752 10.3023 16.6307 10.3572 16.6307H10.3628C10.4177 16.6307 10.4622 16.6752 10.4622 16.7301V17.3702C10.4622 17.425 10.5067 17.4696 10.5616 17.4696H10.5672C10.6221 17.4696 10.6666 17.425 10.6666 17.3702V16.7301C10.6666 16.6752 10.7112 16.6307 10.766 16.6307H10.7718C10.8267 16.6307 10.8712 16.6752 10.8712 16.7301V17.3702C10.8712 17.425 10.9157 17.4696 10.9706 17.4696H10.9762C11.0311 17.4696 11.0756 17.425 11.0756 17.3702V17.1496C11.0756 17.0947 11.1201 17.0501 11.175 17.0501H11.7968C11.8517 17.0501 11.8962 17.0056 11.8962 16.9507Z" fill="#F5F5F5"/>
<path d="M13.4325 16.6307C13.4874 16.6307 13.5319 16.5862 13.5319 16.5313V16.5256C13.5319 16.4707 13.4874 16.4261 13.4325 16.4261H13.4295C13.3746 16.4261 13.3301 16.4707 13.3301 16.5256V16.5313C13.3301 16.5862 13.3746 16.6307 13.4295 16.6307H13.4325Z" fill="#F5F5F5"/>
<path d="M13.8441 16.4261H13.8384C13.7835 16.4261 13.739 16.4707 13.739 16.5256V16.7409C13.739 16.7958 13.6945 16.8403 13.6396 16.8403H13.2251C13.1702 16.8403 13.1256 16.7958 13.1256 16.7409V16.5256C13.1256 16.4707 13.0811 16.4261 13.0262 16.4261H12.2C12.1451 16.4261 12.1006 16.4707 12.1006 16.5256V16.9507C12.1006 17.0056 12.1451 17.0501 12.2 17.0501H12.6172C12.6721 17.0501 12.7167 17.0056 12.7167 16.9507V16.9398C12.7167 16.8849 12.6721 16.8404 12.6172 16.8404H12.4046C12.3497 16.8404 12.3051 16.7958 12.3051 16.741V16.7302C12.3051 16.6753 12.3497 16.6308 12.4046 16.6308H12.8191C12.874 16.6308 12.9185 16.6753 12.9185 16.7302V16.9508C12.9185 17.0057 12.9631 17.0502 13.018 17.0502H13.8441C13.899 17.0502 13.9436 17.0057 13.9436 16.9508V16.5256C13.9436 16.4706 13.899 16.4261 13.8441 16.4261Z" fill="#F5F5F5"/>
<path d="M13.8438 17.2598H11.3792C11.3243 17.2598 11.2798 17.3043 11.2798 17.3592V17.3701C11.2798 17.425 11.3243 17.4695 11.3792 17.4695H13.8438C13.8987 17.4695 13.9432 17.425 13.9432 17.3701V17.3592C13.9432 17.3043 13.8987 17.2598 13.8438 17.2598Z" fill="#F5F5F5"/>
<path d="M9.7494 16.4261H9.74369C9.6888 16.4261 9.64427 16.4707 9.64427 16.5256V16.7409C9.64427 16.7958 9.59973 16.8403 9.54484 16.8403H9.13029C9.0754 16.8403 9.03087 16.7958 9.03087 16.7409V16.5256C9.03087 16.4707 8.98633 16.4261 8.93144 16.4261H8.10528C8.05039 16.4261 8.00586 16.4707 8.00586 16.5256V16.9507C8.00586 17.0056 8.05039 17.0501 8.10528 17.0501H8.51993C8.57482 17.0501 8.61935 17.0056 8.61935 16.9507V16.9398C8.61935 16.8849 8.57482 16.8404 8.51993 16.8404H8.31237C8.25748 16.8404 8.21295 16.7958 8.21295 16.741V16.7302C8.21295 16.6753 8.25748 16.6308 8.31237 16.6308H8.72435C8.77924 16.6308 8.82377 16.6753 8.82377 16.7302V16.9508C8.82377 17.0057 8.8683 17.0502 8.92319 17.0502H9.74936C9.80425 17.0502 9.84878 17.0057 9.84878 16.9508V16.5256C9.84883 16.4706 9.80434 16.4261 9.7494 16.4261Z" fill="#F5F5F5"/>
<path d="M9.33728 16.6307C9.39217 16.6307 9.43671 16.5862 9.43671 16.5313V16.5256C9.43671 16.4707 9.39217 16.4261 9.33728 16.4261H9.33428C9.27939 16.4261 9.23486 16.4707 9.23486 16.5256V16.5313C9.23486 16.5862 9.27939 16.6307 9.33428 16.6307H9.33728Z" fill="#F5F5F5"/>
<path d="M9.74958 17.2598H7.28497C7.23008 17.2598 7.18555 17.3043 7.18555 17.3592V17.3701C7.18555 17.425 7.23008 17.4695 7.28497 17.4695H9.74958C9.80447 17.4695 9.84901 17.425 9.84901 17.3701V17.3592C9.84901 17.3043 9.80452 17.2598 9.74958 17.2598Z" fill="#F5F5F5"/>
<path d="M7.79874 16.9507V16.5256C7.79874 16.4707 7.75421 16.4261 7.69932 16.4261H7.28481C7.22992 16.4261 7.18539 16.4707 7.18539 16.5256V16.5313C7.18539 16.5862 7.22992 16.6307 7.28481 16.6307H7.49748C7.55237 16.6307 7.5969 16.6752 7.5969 16.7301V16.7409C7.5969 16.7958 7.55237 16.8403 7.49748 16.8403H7.08039C7.0255 16.8403 6.98097 16.7958 6.98097 16.7409V16.5256C6.98097 16.4707 6.93644 16.4261 6.88155 16.4261H6.05792C6.00303 16.4261 5.9585 16.4707 5.9585 16.5256V17.3702C5.9585 17.425 6.00303 17.4696 6.05792 17.4696H6.06364C6.11853 17.4696 6.16306 17.425 6.16306 17.3702V16.7301C6.16306 16.6752 6.20759 16.6307 6.26248 16.6307H6.26806C6.32295 16.6307 6.36748 16.6752 6.36748 16.7301V17.3702C6.36748 17.425 6.41201 17.4696 6.4669 17.4696H6.47262C6.52751 17.4696 6.57204 17.425 6.57204 17.3702V16.7301C6.57204 16.6752 6.61657 16.6307 6.67146 16.6307H6.67704C6.73193 16.6307 6.77646 16.6752 6.77646 16.7301V17.3702C6.77646 17.425 6.82099 17.4696 6.87588 17.4696H6.8816C6.93649 17.4696 6.98102 17.425 6.98102 17.3702V17.1496C6.98102 17.0947 7.02555 17.0501 7.08044 17.0501H7.69937C7.75426 17.0501 7.79874 17.0056 7.79874 16.9507Z" fill="#F5F5F5"/>
<path d="M5.24585 16.6307C5.30074 16.6307 5.34528 16.5862 5.34528 16.5313V16.5256C5.34528 16.4707 5.30074 16.4261 5.24585 16.4261H5.2376C5.18271 16.4261 5.13818 16.4707 5.13818 16.5256V16.5313C5.13818 16.5862 5.18271 16.6307 5.2376 16.6307H5.24585Z" fill="#F5F5F5"/>
<path d="M5.65468 16.4261H5.64896C5.59407 16.4261 5.54954 16.4707 5.54954 16.5256V16.7409C5.54954 16.7958 5.50501 16.8403 5.45012 16.8403H5.03303C4.97814 16.8403 4.93361 16.7958 4.93361 16.7409V16.5256C4.93361 16.4707 4.88908 16.4261 4.83419 16.4261H4.01055C3.95566 16.4261 3.91113 16.4707 3.91113 16.5256V16.9507C3.91113 17.0056 3.95566 17.0501 4.01055 17.0501H4.42521C4.4801 17.0501 4.52463 17.0056 4.52463 16.9507V16.9398C4.52463 16.8849 4.4801 16.8404 4.42521 16.8404H4.2124C4.15751 16.8404 4.11297 16.7958 4.11297 16.741V16.7302C4.11297 16.6753 4.15751 16.6308 4.2124 16.6308H4.6323C4.68719 16.6308 4.73172 16.6753 4.73172 16.7302V16.9508C4.73172 17.0057 4.77625 17.0502 4.83114 17.0502H5.65463C5.70952 17.0502 5.75405 17.0057 5.75405 16.9508V16.5256C5.7541 16.4706 5.70957 16.4261 5.65468 16.4261Z" fill="#F5F5F5"/>
<path d="M3.70392 16.9507V16.5256C3.70392 16.4707 3.65939 16.4261 3.6045 16.4261H3.18999C3.1351 16.4261 3.09057 16.4707 3.09057 16.5256V16.5313C3.09057 16.5862 3.1351 16.6307 3.18999 16.6307H3.39755C3.45244 16.6307 3.49697 16.6752 3.49697 16.7301V16.7409C3.49697 16.7958 3.45244 16.8403 3.39755 16.8403H2.98557C2.93068 16.8403 2.88615 16.7958 2.88615 16.7409V16.5256C2.88615 16.4707 2.84162 16.4261 2.78673 16.4261H1.96319C1.9083 16.4261 1.86377 16.4707 1.86377 16.5256V17.3702C1.86377 17.425 1.9083 17.4696 1.96319 17.4696H1.9661C2.02099 17.4696 2.06552 17.425 2.06552 17.3702V16.7301C2.06552 16.6752 2.11005 16.6307 2.16494 16.6307H2.17319C2.22808 16.6307 2.27261 16.6752 2.27261 16.7301V17.3702C2.27261 17.425 2.31714 17.4696 2.37203 17.4696H2.37775C2.43264 17.4696 2.47717 17.425 2.47717 17.3702V16.7301C2.47717 16.6752 2.5217 16.6307 2.57659 16.6307H2.58217C2.63706 16.6307 2.68159 16.6752 2.68159 16.7301V17.3702C2.68159 17.425 2.72612 17.4696 2.78101 17.4696H2.78673C2.84162 17.4696 2.88615 17.425 2.88615 17.3702V17.1496C2.88615 17.0947 2.93068 17.0501 2.98557 17.0501H3.6045C3.65939 17.0501 3.70392 17.0056 3.70392 16.9507Z" fill="#F5F5F5"/>
<path d="M5.65437 17.2598H3.18975C3.13486 17.2598 3.09033 17.3043 3.09033 17.3592V17.3701C3.09033 17.425 3.13486 17.4695 3.18975 17.4695H5.65437C5.70926 17.4695 5.75379 17.425 5.75379 17.3701V17.3592C5.75379 17.3043 5.70926 17.2598 5.65437 17.2598Z" fill="#F5F5F5"/>
<path d="M0.427051 16.9507V16.9398C0.427051 16.8849 0.38252 16.8403 0.32763 16.8403H0.117632C0.0627415 16.8403 0.0182107 16.7958 0.0182107 16.7409V16.7301C0.0182107 16.6752 0.0627415 16.6307 0.117632 16.6307H0.534721C0.589611 16.6307 0.634142 16.6752 0.634142 16.7301V16.9507C0.634142 17.0056 0.678673 17.0501 0.733563 17.0501H1.5572C1.61209 17.0501 1.65662 17.0056 1.65662 16.9507V16.5256C1.65662 16.4707 1.61209 16.4261 1.5572 16.4261H1.5542C1.49931 16.4261 1.45477 16.4707 1.45477 16.5256V16.7409C1.45477 16.7958 1.41024 16.8403 1.35535 16.8403H0.940702C0.885812 16.8403 0.841281 16.7958 0.841281 16.7409V16.5256C0.841281 16.4707 0.79675 16.4261 0.74186 16.4261H-0.00292969V17.0501H0.32763C0.382567 17.0501 0.427051 17.0056 0.427051 16.9507Z" fill="#F5F5F5"/>
<path d="M1.65666 17.3701V17.3592C1.65666 17.3043 1.61213 17.2598 1.55724 17.2598H-0.00292969V17.4695H1.55724C1.61213 17.4695 1.65666 17.425 1.65666 17.3701Z" fill="#F5F5F5"/>
<path d="M1.14811 16.4261H1.14239C1.0875 16.4261 1.04297 16.4707 1.04297 16.5256V16.5313C1.04297 16.5862 1.0875 16.6307 1.14239 16.6307H1.14811C1.203 16.6307 1.24753 16.5862 1.24753 16.5313V16.5256C1.24753 16.4706 1.203 16.4261 1.14811 16.4261Z" fill="#F5F5F5"/>
<path d="M22.3379 15.8913V16.1119C22.3379 16.1668 22.3824 16.2113 22.4373 16.2113H23.9973V15.7919H22.4373C22.3824 15.7919 22.3379 15.8364 22.3379 15.8913Z" fill="#F5F5F5"/>
<path d="M18.3426 16.2113H19.9866C20.0415 16.2113 20.086 16.1668 20.086 16.1119V15.8913C20.086 15.8364 20.0415 15.7919 19.9866 15.7919H18.3426C18.2877 15.7919 18.2432 15.8364 18.2432 15.8913V16.1119C18.2431 16.1668 18.2876 16.2113 18.3426 16.2113Z" fill="#F5F5F5"/>
<path d="M22.0334 15.7919H20.3895C20.3346 15.7919 20.29 15.8364 20.29 15.8913V16.1119C20.29 16.1668 20.3346 16.2113 20.3895 16.2113H22.0334C22.0883 16.2113 22.1329 16.1668 22.1329 16.1119V15.8913C22.1329 15.8364 22.0884 15.7919 22.0334 15.7919Z" fill="#F5F5F5"/>
<path d="M17.9387 15.7919H16.2947C16.2398 15.7919 16.1953 15.8364 16.1953 15.8913V16.1119C16.1953 16.1668 16.2398 16.2113 16.2947 16.2113H17.9387C17.9936 16.2113 18.0381 16.1668 18.0381 16.1119V15.8913C18.0381 15.8364 17.9936 15.7919 17.9387 15.7919Z" fill="#F5F5F5"/>
<path d="M14.2479 16.2113H15.8945C15.9494 16.2113 15.9939 16.1668 15.9939 16.1119V15.8913C15.9939 15.8364 15.9494 15.7919 15.8945 15.7919H14.2479C14.193 15.7919 14.1484 15.8364 14.1484 15.8913V16.1119C14.1484 16.1668 14.193 16.2113 14.2479 16.2113Z" fill="#F5F5F5"/>
<path d="M10.1526 16.2113H11.7968C11.8517 16.2113 11.8962 16.1668 11.8962 16.1119V15.8913C11.8962 15.8364 11.8517 15.7919 11.7968 15.7919H10.1526C10.0978 15.7919 10.0532 15.8364 10.0532 15.8913V16.1119C10.0532 16.1668 10.0978 16.2113 10.1526 16.2113Z" fill="#F5F5F5"/>
<path d="M13.8441 15.7919H12.2C12.1451 15.7919 12.1006 15.8364 12.1006 15.8913V16.1119C12.1006 16.1668 12.1451 16.2113 12.2 16.2113H13.8441C13.899 16.2113 13.9436 16.1668 13.9436 16.1119V15.8913C13.9436 15.8364 13.899 15.7919 13.8441 15.7919Z" fill="#F5F5F5"/>
<path d="M9.7494 15.7919H8.10528C8.05039 15.7919 8.00586 15.8364 8.00586 15.8913V16.1119C8.00586 16.1668 8.05039 16.2113 8.10528 16.2113H9.7494C9.80429 16.2113 9.84883 16.1668 9.84883 16.1119V15.8913C9.84883 15.8364 9.80434 15.7919 9.7494 15.7919Z" fill="#F5F5F5"/>
<path d="M6.05792 16.2113H7.69932C7.75421 16.2113 7.79874 16.1668 7.79874 16.1119V15.8913C7.79874 15.8364 7.75421 15.7919 7.69932 15.7919H6.05792C6.00303 15.7919 5.9585 15.8364 5.9585 15.8913V16.1119C5.9585 16.1668 6.00298 16.2113 6.05792 16.2113Z" fill="#F5F5F5"/>
<path d="M5.65468 15.7919H4.01055C3.95566 15.7919 3.91113 15.8364 3.91113 15.8913V16.1119C3.91113 16.1668 3.95566 16.2113 4.01055 16.2113H5.65468C5.70957 16.2113 5.7541 16.1668 5.7541 16.1119V15.8913C5.7541 15.8364 5.70957 15.7919 5.65468 15.7919Z" fill="#F5F5F5"/>
<path d="M1.96319 16.2113H3.6045C3.65939 16.2113 3.70392 16.1668 3.70392 16.1119V15.8913C3.70392 15.8364 3.65939 15.7919 3.6045 15.7919H1.96319C1.9083 15.7919 1.86377 15.8364 1.86377 15.8913V16.1119C1.86377 16.1668 1.9083 16.2113 1.96319 16.2113Z" fill="#F5F5F5"/>
<path d="M1.65666 16.1119V15.8913C1.65666 15.8364 1.61213 15.7919 1.55724 15.7919H-0.00292969V16.2113H1.55724C1.61213 16.2113 1.65666 16.1668 1.65666 16.1119Z" fill="#F5F5F5"/>
<path d="M11.5876 9.65986C11.7344 9.69905 11.8911 9.65592 11.9987 9.54628C12.1612 9.71076 12.4274 9.71465 12.5958 9.5542C12.7055 9.44845 12.7505 9.28786 12.7113 9.14307C12.5685 9.37411 12.2669 9.4485 12.0359 9.30361C12.0241 9.29569 12.0085 9.28786 11.9986 9.28008C11.7813 9.44063 11.474 9.39755 11.3095 9.18225C11.3036 9.17039 11.2919 9.15479 11.2841 9.14307C11.2254 9.37017 11.3624 9.60501 11.5876 9.65986Z" fill="#FF4B55"/>
<path d="M12.4993 14.2338C13.0256 13.9449 13.4647 13.4897 13.7055 12.8902C14.1156 11.8624 13.8573 10.7024 13.073 9.95C13.046 9.92412 13.005 9.95872 13.0246 9.99059C13.7982 11.2522 13.4935 12.9102 12.2963 13.8187L12.3535 10.1538C12.3543 10.104 12.3321 10.0567 12.2934 10.0254L12.0988 9.86801C12.0391 9.81983 11.9539 9.82006 11.8945 9.86858L11.7027 10.0254C11.6644 10.0567 11.6425 10.1038 11.6433 10.1532L11.6989 13.8207C10.5016 12.9127 10.1961 11.2532 10.9686 9.99068C10.9881 9.95881 10.9471 9.92426 10.9201 9.95014C10.1372 10.7026 9.87738 11.8625 10.2874 12.8902C10.5282 13.4897 10.9673 13.9449 11.4937 14.2338C11.1587 14.3486 10.8066 14.4095 10.4506 14.3992C10.413 14.3982 10.4054 14.4511 10.4414 14.462C10.8937 14.5993 11.3589 14.6088 11.7964 14.5107L11.9681 14.8439C11.98 14.8669 12.0129 14.867 12.0248 14.844L12.1978 14.511C12.6352 14.6089 13.1006 14.5992 13.5533 14.462C13.5893 14.4511 13.5817 14.3982 13.5441 14.3993C13.1878 14.4094 12.8348 14.3486 12.4993 14.2338Z" fill="#FF4B55"/>
<path d="M14.6413 10.8267C14.3719 10.3235 13.9246 9.94209 13.3922 9.75524C13.3588 9.74352 13.3328 9.78759 13.36 9.81004C14.5355 10.7784 14.7712 12.503 13.8621 13.7516C13.8151 13.8143 13.7642 13.8809 13.7153 13.9356C14.8312 13.3366 15.2443 11.9426 14.6413 10.8267Z" fill="#FF4B55"/>
<path d="M10.1332 13.7517C9.22417 12.5031 9.45793 10.7785 10.6332 9.81016C10.6605 9.78766 10.6345 9.74365 10.6011 9.75537C10.0693 9.94226 9.62514 10.3236 9.35401 10.8268C8.74718 11.9427 9.16417 13.3366 10.282 13.9356C10.2292 13.8808 10.1783 13.8143 10.1332 13.7517Z" fill="#FF4B55"/>
</g>
<defs>
<clipPath id="clip0_8615_27618">
<path d="M0 2C0 0.895432 0.895431 0 2 0H21.9998C23.1043 0 23.9998 0.895431 23.9998 2V21.9998C23.9998 23.1043 23.1043 23.9998 21.9998 23.9998H2C0.895432 23.9998 0 23.1043 0 21.9998V2Z" fill="white"/>
</clipPath>
</defs>
</svg>
