<svg width="24" height="24" viewBox="0 0 24 24" fill="none" xmlns="http://www.w3.org/2000/svg">
<g clip-path="url(#clip0_8615_27559)">
<path d="M23.9978 0H-0.00195312V8.00664H23.9978V0Z" fill="#FF4B55"/>
<path d="M23.9978 16.0138H-0.00195312V23.9998H23.9978V16.0138Z" fill="#464655"/>
<path d="M23.9978 8.00671H-0.00195312V16.0134H23.9978V8.00671Z" fill="#F5F5F5"/>
<path d="M14.4403 10.9464C14.3968 10.9237 14.3453 10.8428 14.3614 10.8073C14.3783 10.7701 14.352 10.7734 14.4409 10.7998C14.6017 10.8414 14.7057 10.8224 14.8079 10.7355L14.8986 10.6636L15.0046 10.7166C15.0632 10.743 15.1237 10.7619 15.1407 10.7581C15.19 10.7468 15.2846 10.6257 15.2826 10.5841C15.2807 10.5274 15.3223 10.5425 15.3431 10.6031C15.3866 10.7166 15.3066 10.9124 15.1969 10.9388C15.144 10.9539 15.0948 10.9502 15.0115 10.9237C14.9132 10.8859 14.898 10.8859 14.8451 10.9237C14.7355 11.0107 14.5785 11.0184 14.4403 10.9464Z" fill="#73AF00"/>
<path d="M14.8535 10.5085C14.8004 10.4342 14.7366 10.1738 14.7553 10.1102C14.7738 10.0517 14.7924 10.0411 14.8429 10.057C14.9332 10.0888 14.9545 10.1473 14.9438 10.3599C14.9278 10.5191 14.9067 10.5723 14.8535 10.5085Z" fill="#73AF00"/>
<path d="M11.296 11.6591C11.078 11.7832 10.7538 11.8045 10.7538 12.1482C10.2789 12.1659 9.719 12.1872 9.21393 12.1765C9.3508 11.9998 10.2171 11.1991 10.5773 10.8817C10.6369 10.8292 10.6572 10.7276 10.6225 10.6561L10.6132 10.6369C10.5612 10.5297 10.42 10.5042 10.3339 10.5865C9.97498 10.9299 9.61925 11.2499 9.56131 11.3048C9.09655 11.7744 8.96029 11.9113 8.88726 11.9848C8.83527 12.0371 8.80635 12.108 8.80673 12.1817L8.80677 12.1865C8.80757 12.3397 8.93202 12.4636 9.0853 12.4636H11.1188C11.234 12.4636 11.0923 12.0631 11.2411 12.0631C11.3445 12.0631 11.354 12.2068 11.3495 12.359C11.346 12.4748 11.2507 12.5663 11.1348 12.5665C10.2557 12.5677 9.34053 12.5761 8.47935 12.5769C8.4082 12.5769 8.3511 12.5192 8.3511 12.4481V12.2933C8.3511 12.1619 8.20523 12.0855 8.09545 12.1576C8.09142 12.1603 8.08748 12.1628 8.08355 12.1653C8.02622 12.2011 7.99683 12.2714 8.01923 12.3352C8.03376 12.3766 8.04005 12.427 8.0415 12.4798C8.04337 12.5495 7.98661 12.6069 7.91691 12.6091C7.6321 12.6178 7.32258 12.6203 7.23465 12.4524C7.18505 12.3578 7.07954 12.313 6.98392 12.3608L6.97117 12.3672C6.87048 12.4175 6.83012 12.5421 6.88534 12.6402C6.99024 12.8267 7.08596 13.043 7.03627 13.3461C6.99577 13.4416 6.91946 13.5014 6.83678 13.5553C6.74495 13.6151 6.80256 13.755 6.91032 13.7351C7.1716 13.6868 7.3516 13.4799 7.40668 13.2362H11.4576C11.6062 13.2362 11.7266 13.1158 11.7266 12.9672V12.088C11.6894 11.8257 11.4076 11.8363 11.296 11.6591Z" fill="#73AF00"/>
<path d="M16.435 10.4974C16.4947 10.5359 16.5547 10.5744 16.6213 10.6062C16.6942 10.641 16.7221 10.73 16.6794 10.7987C16.6682 10.8169 16.6588 10.8371 16.6534 10.8618V12.6054C16.7725 12.6301 16.8409 12.6067 16.8953 12.5693C16.9565 12.527 17.0395 12.5577 17.0588 12.6296C17.0999 12.7826 17.1672 12.932 17.2031 13.068C17.2256 13.153 17.1617 13.2362 17.0738 13.2362H16.3907C16.3303 13.2362 16.2812 13.1872 16.2812 13.1267V10.5814C16.2812 10.5025 16.3686 10.4547 16.435 10.4974Z" fill="#73AF00"/>
<path d="M15.6078 10.9221C15.6083 11.4035 15.6139 11.9222 15.6147 12.4383C15.6148 12.5051 15.5606 12.5593 15.4937 12.5593H15.4859C15.4191 12.5593 15.3649 12.5052 15.3649 12.4384V11.2154C15.3649 11.1489 15.2867 11.1133 15.2366 11.1571L15.0763 11.2956C15.0436 11.324 15.0247 11.3647 15.0246 11.408C15.024 11.6069 15.0223 12.1861 15.0216 12.439C15.0214 12.5056 14.9673 12.5594 14.9007 12.5594H14.8897C14.8232 12.5594 14.7692 12.506 14.7687 12.4395C14.7676 12.2712 14.7655 11.9593 14.7646 11.7253C14.7644 11.658 14.6847 11.6228 14.6341 11.6672C14.468 11.8127 14.4297 11.8456 14.3426 11.9357C14.3496 11.9817 14.3851 11.9357 14.4064 11.9711V12.205C13.8013 12.0911 13.7561 12.5744 13.7788 13.0931C13.7822 13.171 13.8462 13.2327 13.9242 13.2327H15.8238C15.8943 13.2327 15.9514 13.1756 15.9514 13.1052V10.7436C15.9514 10.6647 15.8578 10.6242 15.7996 10.6775C15.7532 10.7199 15.7037 10.7624 15.6611 10.8009C15.6268 10.832 15.6077 10.8757 15.6078 10.9221ZM14.2097 12.5416C14.1725 12.4353 14.3817 12.3963 14.4064 12.492C14.4153 12.6089 14.2558 12.6125 14.2097 12.5416Z" fill="#73AF00"/>
<path d="M7.93452 13.424C8.00718 13.424 8.06563 13.4842 8.06563 13.5551C8.06563 13.6295 8.00722 13.6863 7.93452 13.6863C7.86013 13.6863 7.7998 13.6295 7.7998 13.5551C7.7998 13.4842 7.86013 13.424 7.93452 13.424Z" fill="#73AF00"/>
<path d="M12.2545 10.5509C12.29 10.5723 12.3265 10.5927 12.3653 10.611C12.4354 10.6441 12.4631 10.7313 12.4202 10.7959C12.4073 10.8154 12.3963 10.8374 12.3898 10.8654V12.6054C12.5161 12.6335 12.5852 12.606 12.6402 12.5652C12.695 12.5247 12.7739 12.5527 12.7915 12.6186C12.8231 12.7367 12.8705 12.8535 12.9071 12.9644C12.9519 13.1 12.8513 13.2398 12.7085 13.2398H12.1758C12.0895 13.2398 12.0195 13.1698 12.0195 13.0835V10.6857C12.0195 10.5651 12.1511 10.4888 12.2545 10.5509Z" fill="#73AF00"/>
</g>
<defs>
<clipPath id="clip0_8615_27559">
<path d="M0 2C0 0.895432 0.895431 0 2 0H21.9998C23.1043 0 23.9998 0.895431 23.9998 2V21.9998C23.9998 23.1043 23.1043 23.9998 21.9998 23.9998H2C0.895432 23.9998 0 23.1043 0 21.9998V2Z" fill="white"/>
</clipPath>
</defs>
</svg>
