<svg width="24" height="24" viewBox="0 0 24 24" fill="none" xmlns="http://www.w3.org/2000/svg">
<g clip-path="url(#clip0_8615_27555)">
<path d="M23.9978 0H-0.00195312V23.9998H23.9978V0Z" fill="#FF4B55"/>
<path d="M12.0905 12.0272L11.9155 12.1282C11.6124 11.6918 11.629 10.6244 11.629 10.6122C11.6322 10.5805 11.6132 10.5521 11.5847 10.5394L10.2734 9.96559L10.2809 9.83096C10.9647 9.90985 11.7551 10.2279 11.7661 10.2334C11.793 10.2503 11.827 10.2461 11.851 10.2263L12.9391 9.31909L13.1732 9.52839C12.834 9.9451 12.0085 10.5207 11.9979 10.5266C11.9687 10.5392 11.953 10.5696 11.9558 10.6007L12.0905 12.0272Z" fill="#FFE15A"/>
<path d="M16.8483 5.56375C16.875 5.57739 16.9071 5.57476 16.9314 5.5569L17.2157 5.34644L17.1253 5.60889C17.1152 5.63875 17.124 5.67203 17.1475 5.69364L17.2813 5.81326C17.2416 5.88038 17.2258 5.96307 17.2243 6.04932L17.0259 6.15005C17.0091 6.15868 16.9958 6.17293 16.9885 6.19041L16.8405 6.54867L16.7594 6.25163C16.749 6.21249 16.7118 6.18863 16.6725 6.19402L16.3154 6.24282L16.6052 5.91456C16.6207 5.89693 16.6275 5.87354 16.6241 5.85052L16.5596 5.41703L16.8483 5.56375Z" fill="#FFE15A"/>
<path d="M13.6141 17.2616C13.5892 17.2783 13.576 17.3077 13.5798 17.3375L13.6259 17.6883L13.4403 17.4819C13.4191 17.4586 13.3857 17.4501 13.3554 17.4601L13.1858 17.5191C13.1464 17.4517 13.0818 17.3979 13.0071 17.3546L13.0154 17.1323C13.016 17.1134 13.01 17.0949 12.9982 17.0801L12.7568 16.7768L13.0559 16.8501C13.0951 16.86 13.1341 16.839 13.1485 16.802L13.2791 16.4662L13.4255 16.8789C13.4333 16.901 13.4505 16.9183 13.4723 16.9265L13.8826 17.0804L13.6141 17.2616Z" fill="#FFE15A"/>
<path d="M4.92982 9.03782C4.92603 9.0081 4.90568 8.98307 4.87728 8.97323L4.54297 8.85773L4.81053 8.78385C4.84086 8.77532 4.8634 8.74926 4.86795 8.71767L4.89097 8.53959C4.96882 8.53443 5.04593 8.50064 5.11793 8.45325L5.31316 8.55998C5.32976 8.56898 5.34902 8.57184 5.36759 8.568L5.74675 8.48751L5.54758 8.72231C5.52119 8.75301 5.5226 8.79726 5.54922 8.8266L5.79133 9.09351L5.35676 9.04002C5.33346 9.03721 5.3103 9.0448 5.29324 9.06065L4.97215 9.35896L4.92982 9.03782Z" fill="#FFE15A"/>
<path d="M11.8856 19.7728C11.6925 20.1622 11.2747 20.485 11.1702 20.504C11.1512 20.5072 11.1354 20.5008 11.1196 20.485C11.0721 20.4312 11.05 20.2856 11.1133 20.0925C11.1196 20.0735 11.1259 20.0482 11.1355 20.0197L11.8856 19.7728Z" fill="#F5F5F5"/>
<path d="M12.0242 19.3708C11.9988 19.4468 11.9767 19.5228 11.9608 19.5798L11.1885 19.8362C11.2106 19.7666 11.2328 19.6906 11.2549 19.6083L12.0242 19.3708Z" fill="#F5F5F5"/>
<path d="M12.1932 18.9371C12.1552 19.0226 12.1204 19.1049 12.0887 19.184L11.3037 19.4246C11.3259 19.3391 11.3512 19.2505 11.3734 19.1619L12.1932 18.9371Z" fill="#FFE15A"/>
<path d="M12.3486 18.6237C12.3264 18.6649 12.3043 18.706 12.2821 18.7503L11.418 18.9846C11.4559 18.8358 11.4876 18.6902 11.5129 18.5636L12.3486 18.6237Z" fill="#F5F5F5"/>
<path d="M12.5922 18.2946C12.5415 18.3421 12.494 18.4023 12.4466 18.4719L11.5381 18.4055C11.5507 18.3231 11.5602 18.2503 11.5602 18.1965C11.5602 18.1554 11.5571 18.1174 11.5539 18.0763C11.5887 18.0794 11.6267 18.0794 11.6583 18.0794C11.8862 18.0794 12.0477 18.0383 12.1648 17.9781C12.2946 18.168 12.4624 18.2535 12.5922 18.2946Z" fill="#F5F5F5"/>
<path d="M12.776 18.1648C12.7191 18.1585 12.4658 18.1331 12.2949 17.8862C12.3803 17.8134 12.4215 17.7343 12.4405 17.6804C12.5354 17.4146 11.8739 16.9999 11.4687 16.7783C11.2788 16.6738 11.13 16.4681 10.9971 16.2307C11.0129 16.2339 11.0256 16.2339 11.0414 16.2339C11.244 16.2339 11.4054 16.139 11.4908 16.0662C11.5668 16.1928 11.6364 16.3099 11.6998 16.4112C11.9878 16.8987 12.1207 17.1202 12.4278 17.3355C12.4373 17.3418 12.4499 17.3481 12.4627 17.3481C12.6114 17.3671 13.0419 17.4621 13.0672 17.652C13.1021 17.9116 13.0071 18.0761 12.776 18.1648Z" fill="#F5F5F5"/>
<path d="M12.2919 17.6267C12.2571 17.728 12.1115 17.9559 11.5354 17.9179C11.4848 17.5887 11.3392 17.3544 11.1081 17.2468C10.8074 17.1044 9.68366 16.3004 9.1709 15.8224C9.27219 15.4995 9.53811 15.2368 9.91475 15.0975C9.96856 15.0753 10.016 15.0564 10.0572 15.0342C10.1585 15.1165 10.2503 15.2083 10.3262 15.3128C10.4434 15.4774 10.5446 15.6863 10.6522 15.9078C10.8516 16.313 11.0574 16.734 11.3929 16.9176C12.0134 17.2595 12.3204 17.5539 12.2919 17.6267Z" fill="#F5F5F5"/>
<path d="M11.405 15.9301C11.3448 15.9902 11.1454 16.1264 10.9049 16.0567C10.8668 15.9839 10.8321 15.9111 10.794 15.8383C10.6833 15.6104 10.5788 15.3952 10.4522 15.2211C10.3794 15.1166 10.2876 15.0248 10.1895 14.9425C10.3319 14.819 10.354 14.6861 10.3604 14.5721C10.6104 14.7874 10.8447 15.0565 11.0599 15.3888C11.196 15.5946 11.3068 15.7719 11.405 15.9301Z" fill="#F5F5F5"/>
<path d="M10.212 14.455C10.2088 14.4803 10.2057 14.5088 10.2057 14.5373C10.1993 14.645 10.1898 14.7495 10.0632 14.8444C9.79735 14.6544 9.49027 14.5247 9.22754 14.4392C9.34782 14.3157 9.42694 14.1923 9.46496 14.072C9.46496 14.072 9.46496 14.072 9.46815 14.072C9.72769 14.1448 9.97777 14.2746 10.212 14.455Z" fill="#F5F5F5"/>
<path d="M9.90856 14.9267C9.89272 14.933 9.88006 14.9425 9.86108 14.9488C9.46541 15.0944 9.17418 15.3635 9.04443 15.6958C8.88932 15.5407 8.77851 15.4014 8.68992 15.2906C8.59181 15.164 8.5095 15.0659 8.4082 14.9963C8.69306 14.8507 8.92101 14.7051 9.0951 14.5626C9.09829 14.5626 9.09829 14.5626 9.10143 14.5626C9.34832 14.6386 9.64902 14.7525 9.90856 14.9267Z" fill="#F5F5F5"/>
<path d="M8.94572 14.4771C8.7811 14.6069 8.55005 14.7525 8.22399 14.9108C8.14801 14.8918 8.07207 14.8759 8.00874 14.8633C7.85364 14.8348 7.75234 14.8126 7.67322 14.724C7.62573 14.6734 7.53395 14.5309 7.44531 14.3505C7.45797 14.3569 7.47062 14.3632 7.48333 14.3664C7.57511 14.3885 7.7049 14.3474 7.86634 14.2904C8.06574 14.2239 8.30949 14.1416 8.53107 14.1701C8.73047 14.1954 8.78428 14.2746 8.84761 14.3632C8.87606 14.4012 8.90456 14.4423 8.94572 14.4771Z" fill="#F5F5F5"/>
<path d="M9.32259 14.0023C9.29728 14.1004 9.22762 14.2239 9.06932 14.3727C9.03136 14.3474 9.00604 14.3125 8.97754 14.2714C8.90794 14.1733 8.8193 14.0498 8.55338 14.015C8.29697 13.9802 8.0311 14.0688 7.81585 14.1416C7.69557 14.1828 7.56896 14.227 7.51829 14.2144C7.46448 14.2017 7.39483 14.1163 7.39169 14.0308C7.3885 13.9327 7.47714 13.8883 7.54993 13.8662C7.71456 13.8155 7.91396 13.8535 8.11022 13.8883C8.30963 13.9263 8.49956 13.9611 8.65148 13.901C8.75597 13.8598 8.87625 13.7301 9.02184 13.5433C9.12314 13.5655 9.20859 13.6003 9.25926 13.6731C9.33206 13.7776 9.35104 13.8884 9.32259 14.0023Z" fill="#FFE15A"/>
<path d="M8.83643 13.5214C8.73833 13.6416 8.65283 13.7303 8.58955 13.7556C8.48192 13.7999 8.31416 13.7682 8.13688 13.7334C7.93429 13.6954 7.70324 13.6543 7.50379 13.7144C7.38351 13.7493 7.31704 13.8094 7.27907 13.8664C7.24425 13.6923 7.24425 13.5245 7.32342 13.3916C7.40254 13.2523 7.50698 13.1352 7.6146 13.0181C7.75705 13.0371 7.86149 13.0655 8.22233 13.3821C8.3458 13.4897 8.5452 13.5024 8.73828 13.5118C8.76992 13.515 8.80479 13.5182 8.83643 13.5214Z" fill="#F5F5F5"/>
<path d="M11.7766 12.2141C11.4221 12.4483 9.84256 13.4865 9.51336 13.6227C9.49752 13.629 9.48486 13.6417 9.47539 13.6543C9.46588 13.6702 9.45955 13.6828 9.45008 13.6986C9.43424 13.6575 9.41211 13.6195 9.38676 13.5815C9.32343 13.4896 9.22851 13.439 9.12402 13.4074C9.17151 13.3472 9.21899 13.284 9.26962 13.2143C9.49752 12.9009 9.76025 12.5496 10.061 12.2362C10.5769 11.6981 11.2669 11.3436 11.498 11.236C11.5329 11.5715 11.6089 11.9672 11.7766 12.2141Z" fill="#F5F5F5"/>
<path d="M11.4824 11.0683C11.3178 11.1411 10.5359 11.5114 9.9472 12.1255C9.63698 12.4483 9.36159 12.8187 9.14321 13.1194C9.07674 13.208 9.01341 13.2935 8.95327 13.3726C8.88366 13.3663 8.81401 13.36 8.74754 13.3568C8.57345 13.3441 8.40882 13.3346 8.32656 13.2618C8.02267 12.9959 7.88022 12.9168 7.74414 12.882C7.7568 12.8693 7.76631 12.8567 7.77897 12.844C7.97837 12.6414 8.18729 12.4294 8.35192 12.135C8.63677 11.6254 9.58954 10.5143 10.21 10.1123L11.4666 10.6631C11.4666 10.739 11.4697 10.8878 11.4824 11.0683Z" fill="#F5F5F5"/>
<path d="M3.4527 6.36925C3.19067 6.02252 3.08858 5.50447 3.11825 5.40251C3.12392 5.38409 3.13663 5.3728 3.15786 5.36572C3.22724 5.3473 3.36739 5.39253 3.51186 5.53545C3.52601 5.54961 3.54584 5.56657 3.56708 5.58781L3.4527 6.36925Z" fill="#F5F5F5"/>
<path d="M3.75037 6.67343C3.69375 6.61681 3.63567 6.56304 3.5918 6.52343L3.70758 5.7179C3.75998 5.76885 3.81801 5.82261 3.88176 5.87919L3.75037 6.67343Z" fill="#F5F5F5"/>
<path d="M4.06383 7.02004C4.00435 6.94785 3.94627 6.87993 3.88965 6.81627L4.02526 6.00647C4.09182 6.0645 4.15979 6.12675 4.22916 6.18619L4.06383 7.02004Z" fill="#FFE15A"/>
<path d="M4.27689 7.29884C4.24998 7.26064 4.22308 7.22244 4.19336 7.18278L4.36998 6.30505C4.48609 6.40551 4.6022 6.49888 4.70415 6.57814L4.27689 7.29884Z" fill="#F5F5F5"/>
<path d="M4.46266 7.66398C4.44278 7.59747 4.4102 7.52809 4.36914 7.4545L4.83456 6.67151C4.90253 6.7196 4.96342 6.76062 5.01156 6.78466C5.04835 6.80304 5.08374 6.81719 5.12199 6.83276C5.10362 6.86248 5.08665 6.89646 5.07249 6.92477C4.97063 7.12868 4.93529 7.29147 4.93679 7.42314C4.70889 7.45436 4.55748 7.56625 4.46266 7.66398Z" fill="#F5F5F5"/>
<path d="M4.4965 7.88622C4.52762 7.83808 4.66342 7.62288 4.96069 7.58027C4.9876 7.68926 5.04001 7.76144 5.07971 7.8025C5.27513 8.00627 5.94173 7.59977 6.32099 7.33629C6.4993 7.21306 6.74985 7.1719 7.02163 7.15906C7.01174 7.17181 7.00606 7.1831 6.99899 7.19731C6.90847 7.37852 6.92127 7.56537 6.94822 7.6744C6.80099 7.68579 6.6651 7.69572 6.54618 7.70711C5.98139 7.74696 5.72372 7.76688 5.39396 7.94538C5.38407 7.95105 5.37272 7.95953 5.3671 7.97088C5.28361 8.09547 5.0063 8.43817 4.82509 8.37592C4.57731 8.29103 4.47254 8.13255 4.4965 7.88622Z" fill="#F5F5F5"/>
<path d="M5.19431 7.69343C5.11927 7.61703 4.98043 7.38495 5.27184 6.88654C5.589 6.98835 5.86359 6.96275 6.06313 6.80413C6.32493 6.59877 7.54634 5.9528 8.2031 5.70764C8.44666 5.94253 8.56286 6.29779 8.51913 6.69702C8.51491 6.75505 8.51069 6.80605 8.51209 6.85274C8.39322 6.9066 8.27008 6.94771 8.14268 6.96899C7.94308 7.00021 7.71091 6.99744 7.46464 6.99472C7.01305 6.99205 6.54449 6.98802 6.23034 7.20613C5.64726 7.60836 5.24672 7.75147 5.19431 7.69343Z" fill="#F5F5F5"/>
<path d="M7.10867 7.65877C7.08177 7.5781 7.04909 7.33885 7.21892 7.15477C7.30104 7.15332 7.38172 7.15468 7.46379 7.15323C7.7172 7.15599 7.95644 7.15871 8.16874 7.12323C8.29474 7.1048 8.41788 7.06369 8.53535 7.0127C8.58213 7.19527 8.69116 7.27449 8.79025 7.33111C8.48594 7.45861 8.14057 7.54796 7.74706 7.59197C7.50218 7.62183 7.29411 7.6417 7.10867 7.65877Z" fill="#F5F5F5"/>
<path d="M8.9615 7.25036C8.94026 7.2362 8.91617 7.22064 8.89072 7.20789C8.79725 7.15412 8.70805 7.09895 8.67969 6.94323C8.96843 6.79024 9.22174 6.57358 9.41557 6.37671C9.47224 6.5395 9.54734 6.66546 9.63794 6.75316C9.63794 6.75316 9.63794 6.75316 9.63654 6.75597C9.45541 6.9557 9.22756 7.1214 8.9615 7.25036Z" fill="#F5F5F5"/>
<path d="M8.67501 6.76774C8.67642 6.75077 8.67361 6.73516 8.67642 6.71538C8.72297 6.29632 8.61239 5.91561 8.37305 5.65095C8.58112 5.58149 8.75521 5.54464 8.89396 5.51488C9.05109 5.48366 9.17563 5.45389 9.28321 5.39441C9.28616 5.71433 9.31457 5.98329 9.36421 6.20267C9.3628 6.20548 9.3628 6.20548 9.3614 6.20834C9.18309 6.39523 8.94674 6.61333 8.67501 6.76774Z" fill="#F5F5F5"/>
<path d="M9.50726 6.10776C9.4647 5.9025 9.4377 5.63072 9.44182 5.26833C9.49277 5.20885 9.54087 5.14796 9.58048 5.09701C9.67526 4.97101 9.74036 4.89029 9.85502 4.85907C9.92154 4.83924 10.09 4.82077 10.291 4.82209C10.2797 4.83062 10.2684 4.8391 10.2599 4.84899C10.199 4.92123 10.1778 5.05571 10.1567 5.22558C10.1271 5.43371 10.0918 5.68852 9.96724 5.874C9.85549 6.04106 9.76062 6.05386 9.65304 6.07087C9.60635 6.0794 9.5568 6.08653 9.50726 6.10776Z" fill="#F5F5F5"/>
<path d="M9.76112 6.65693C9.68467 6.59042 9.60536 6.47295 9.54297 6.26487C9.58258 6.24223 9.62505 6.23511 9.67459 6.22803C9.79351 6.20961 9.94356 6.18547 10.0935 5.96314C10.2392 5.74935 10.2788 5.4719 10.3098 5.2468C10.3268 5.12081 10.3437 4.98773 10.3777 4.94807C10.4131 4.9056 10.5206 4.88146 10.5985 4.91685C10.6877 4.95787 10.6877 5.05696 10.675 5.13201C10.6468 5.30188 10.5237 5.46332 10.4049 5.62335C10.2818 5.78478 10.1657 5.93909 10.1516 6.10189C10.1417 6.21373 10.2041 6.37934 10.3061 6.59304C10.241 6.67376 10.1716 6.73465 10.0839 6.74745C9.9579 6.76582 9.85032 6.73334 9.76112 6.65693Z" fill="#FFE15A"/>
<path d="M10.4054 6.43873C10.3417 6.29722 10.3006 6.18111 10.3062 6.11319C10.3146 5.99708 10.4179 5.86114 10.5283 5.71813C10.6528 5.55388 10.7928 5.36554 10.8282 5.16028C10.8508 5.03709 10.8267 4.95079 10.7927 4.89136C10.964 4.938 11.1141 5.013 11.1976 5.14317C11.2869 5.2762 11.345 5.42198 11.4016 5.57062C11.321 5.68954 11.2488 5.77026 10.8044 5.95161C10.653 6.01396 10.5525 6.18669 10.4577 6.3552C10.4408 6.38206 10.4224 6.41183 10.4054 6.43873Z" fill="#F5F5F5"/>
<path d="M10.261 9.65358C10.2099 9.23176 9.98695 7.35476 10.0123 6.99945C10.0137 6.98248 10.008 6.96547 10.001 6.95131C9.99108 6.93575 9.98255 6.92445 9.97266 6.90884C10.0165 6.91306 10.0604 6.91025 10.1057 6.90453C10.2162 6.88892 10.3039 6.82658 10.3789 6.74731C10.4115 6.81669 10.4469 6.88742 10.4866 6.96387C10.6651 7.30779 10.862 7.69985 11.0079 8.10888C11.2588 8.81092 11.2675 9.58665 11.2606 9.84146C10.9504 9.77339 10.5913 9.69661 10.261 9.65358Z" fill="#F5F5F5"/>
<path d="M11.4176 9.90221C11.426 9.72244 11.4441 8.85752 11.1579 8.05638C11.0076 7.63461 10.7994 7.22272 10.628 6.89296C10.5784 6.79386 10.5302 6.69904 10.4863 6.60988C10.5231 6.55044 10.5599 6.49096 10.5924 6.43288C10.6815 6.28279 10.7636 6.13978 10.8655 6.09871C11.2392 5.94567 11.3736 5.85361 11.4656 5.74744C11.4713 5.76445 11.4783 5.77856 11.484 5.79558C11.5761 6.0645 11.6725 6.34617 11.8623 6.62497C12.1909 7.10755 12.759 8.45641 12.8414 9.19107L11.7871 10.0691C11.7191 10.0351 11.5846 9.97149 11.4176 9.90221Z" fill="#F5F5F5"/>
<path d="M19.8789 5.85658C20.313 5.83647 20.7981 6.04507 20.8654 6.12719C20.8774 6.14224 20.8795 6.15916 20.8734 6.18067C20.8494 6.24831 20.7328 6.33836 20.5333 6.3767C20.5136 6.38036 20.4884 6.38711 20.4589 6.39264L19.8789 5.85658Z" fill="#F5F5F5"/>
<path d="M19.46 5.92994C19.5387 5.91522 19.6159 5.89774 19.6733 5.88391L20.2723 6.43478C20.2007 6.44922 20.1235 6.4667 20.0408 6.48728L19.46 5.92994Z" fill="#F5F5F5"/>
<path d="M18.999 5.9909C19.0922 5.98265 19.181 5.97314 19.2656 5.9624L19.8569 6.53202C19.7714 6.5541 19.6816 6.57501 19.5934 6.59863L18.999 5.9909Z" fill="#FFE15A"/>
<path d="M18.6494 6.00736C18.6961 6.00675 18.7429 6.00618 18.7924 6.00403L19.4166 6.64588C19.2681 6.68488 19.1254 6.72786 19.0024 6.76715L18.6494 6.00736Z" fill="#F5F5F5"/>
<path d="M18.2432 5.9541C18.3092 5.97534 18.3849 5.98766 18.4688 5.99535L18.8516 6.82189C18.7735 6.85077 18.7052 6.87781 18.6582 6.90392C18.6222 6.92389 18.5905 6.94508 18.5561 6.96781C18.542 6.93584 18.5235 6.90261 18.5082 6.87495C18.3976 6.67569 18.2832 6.55452 18.1738 6.4813C18.2769 6.27571 18.2702 6.08755 18.2432 5.9541Z" fill="#F5F5F5"/>
<path d="M18.0403 5.85653C18.0625 5.90941 18.1632 6.14313 18.0303 6.41242C17.9252 6.373 17.836 6.37544 17.7797 6.38495C17.5011 6.43098 17.4597 7.21065 17.4626 7.67241C17.4634 7.88915 17.3557 8.11907 17.2127 8.35054C17.2078 8.33517 17.2016 8.3241 17.1939 8.31028C17.0956 8.13318 16.9342 8.03812 16.8291 7.9987C16.9029 7.87083 16.9716 7.75308 17.0294 7.64859C17.3158 7.16016 17.445 6.93638 17.4842 6.56345C17.4851 6.55206 17.4845 6.53795 17.4784 6.52689C17.4228 6.38762 17.2969 5.9651 17.4507 5.85082C17.6607 5.69435 17.8507 5.69754 18.0403 5.85653Z" fill="#F5F5F5"/>
<path d="M17.8052 6.54111C17.9106 6.5224 18.1805 6.53909 18.4269 7.06123C18.1637 7.26527 18.0296 7.50625 18.0476 7.76055C18.069 8.09256 17.9113 9.46528 17.7423 10.1456C17.4109 10.2137 17.0521 10.1088 16.7475 9.84703C16.7021 9.81075 16.6624 9.77845 16.623 9.75323C16.6458 9.6247 16.6815 9.49992 16.736 9.38278C16.8231 9.20049 16.9566 9.01055 17.0981 8.8089C17.3556 8.43788 17.6238 8.0537 17.6215 7.6712C17.6193 6.96284 17.7277 6.55156 17.8052 6.54111Z" fill="#F5F5F5"/>
<path d="M16.7517 8.1394C16.8335 8.16279 17.0492 8.27112 17.1051 8.51524C17.0599 8.58382 17.0131 8.64959 16.9679 8.71812C16.8224 8.92558 16.6849 9.12138 16.5941 9.31656C16.5381 9.43089 16.5024 9.55572 16.4781 9.68144C16.301 9.6168 16.174 9.66198 16.0713 9.71172C16.1381 9.38861 16.2597 9.05322 16.4458 8.70373C16.5597 8.48492 16.6609 8.30201 16.7517 8.1394Z" fill="#F5F5F5"/>
<path d="M16.0415 9.89875C16.0652 9.88923 16.0917 9.87817 16.1166 9.86434C16.2137 9.81766 16.3097 9.77523 16.4542 9.83987C16.4171 10.1645 16.4527 10.496 16.5054 10.7671C16.3391 10.7219 16.1928 10.7126 16.0692 10.7378C16.0692 10.7378 16.0692 10.7378 16.0676 10.735C16.0053 10.4728 15.9975 10.1912 16.0415 9.89875Z" fill="#F5F5F5"/>
<path d="M16.6013 9.93555C16.6145 9.94633 16.629 9.9528 16.6437 9.96634C16.9631 10.2416 17.3397 10.3657 17.6933 10.3178C17.6329 10.5287 17.5649 10.6932 17.5111 10.8244C17.448 10.9717 17.4021 11.0912 17.3904 11.2136C17.1248 11.0352 16.8869 10.9066 16.6779 10.8235C16.6764 10.8208 16.6764 10.8208 16.6748 10.818C16.6214 10.5652 16.5751 10.247 16.6013 9.93555Z" fill="#F5F5F5"/>
<path d="M16.6749 10.995C16.8683 11.0759 17.1077 11.2073 17.4043 11.4156C17.4246 11.4912 17.4476 11.5653 17.4673 11.6268C17.5176 11.7762 17.5474 11.8755 17.5084 11.9878C17.4871 12.0538 17.4071 12.2032 17.2924 12.3683C17.2918 12.3541 17.2912 12.34 17.2878 12.3274C17.2626 12.2363 17.1637 12.1429 17.0355 12.0294C16.8806 11.8873 16.6904 11.7141 16.6078 11.5065C16.5331 11.3199 16.5762 11.2344 16.6229 11.1361C16.6423 11.0928 16.6644 11.0479 16.6749 10.995Z" fill="#F5F5F5"/>
<path d="M16.0782 10.8961C16.1764 10.8706 16.3181 10.8716 16.525 10.9378C16.5213 10.9833 16.5031 11.0223 16.4809 11.0672C16.429 11.1757 16.364 11.3131 16.4626 11.5625C16.5566 11.8035 16.7631 11.993 16.9312 12.1459C17.0256 12.2311 17.1258 12.3203 17.1393 12.3707C17.1543 12.4239 17.1134 12.5262 17.0402 12.5705C16.956 12.6209 16.8742 12.5649 16.8195 12.512C16.6953 12.3927 16.6317 12.1999 16.5669 12.0114C16.5033 11.8186 16.4416 11.6356 16.3153 11.532C16.2286 11.4606 16.0568 11.4184 15.8228 11.3818C15.793 11.2824 15.782 11.1908 15.8211 11.1112C15.8772 10.9969 15.9648 10.9265 16.0782 10.8961Z" fill="#FFE15A"/>
<path d="M15.8926 11.553C16.0454 11.5804 16.1644 11.6121 16.2172 11.6552C16.3082 11.7278 16.3619 11.8898 16.4175 12.0617C16.4826 12.2573 16.5588 12.4793 16.7081 12.6244C16.7969 12.7127 16.8818 12.7416 16.95 12.7472C16.8147 12.8621 16.668 12.9436 16.5134 12.9389C16.3532 12.9373 16.2001 12.9028 16.0455 12.8655C15.9929 12.7317 15.9672 12.6266 16.0688 12.1575C16.103 11.9973 16.0173 11.8168 15.9319 11.6434C15.9193 11.6142 15.9052 11.5822 15.8926 11.553Z" fill="#F5F5F5"/>
<path d="M13.3224 9.61646C13.6993 9.81277 15.3736 10.6899 15.6524 10.9116C15.6656 10.9224 15.6829 10.9273 15.6986 10.9295C15.717 10.9301 15.7311 10.9295 15.7496 10.9302C15.7213 10.964 15.6988 11.0018 15.6779 11.0423C15.6284 11.1422 15.6302 11.2498 15.6532 11.3565C15.5776 11.3442 15.4992 11.3334 15.4137 11.3229C15.0291 11.2757 14.5944 11.2166 14.1745 11.1057C13.4536 10.9157 12.8087 10.4845 12.6025 10.3347C12.8301 10.1313 13.131 9.86752 13.3224 9.61646Z" fill="#F5F5F5"/>
<path d="M12.4637 10.4299C12.6073 10.5385 13.3105 11.0424 14.1332 11.2591C14.566 11.3736 15.0235 11.4347 15.3924 11.4797C15.5021 11.4948 15.6076 11.5087 15.706 11.5229C15.7343 11.5868 15.7625 11.6508 15.792 11.7104C15.8655 11.8688 15.937 12.0173 15.9133 12.1246C15.8283 12.5193 15.8282 12.6823 15.8639 12.8182C15.8467 12.8133 15.831 12.8111 15.8138 12.8062C15.5398 12.7302 15.253 12.6504 14.9157 12.6493C14.3319 12.6476 12.8981 12.3538 12.2455 12.0064L12.1172 10.6404C12.1836 10.6036 12.3121 10.5286 12.4637 10.4299Z" fill="#F5F5F5"/>
<path d="M21.0117 6.06148C21.004 6.04765 20.9978 6.03659 20.9889 6.02703C20.8663 5.87787 20.1488 5.60276 19.6399 5.72956C19.0905 5.86803 18.3424 5.90309 18.1571 5.74531C17.9197 5.53526 17.6559 5.52697 17.395 5.70472L17.2897 5.61073L17.4459 5.15708C17.4533 5.13528 17.4508 5.11208 17.4402 5.09291C17.4348 5.08316 17.4273 5.07444 17.4178 5.0675C17.3898 5.04697 17.3518 5.04707 17.3238 5.06769L16.874 5.40064L16.4921 5.20658C16.4658 5.19313 16.4341 5.19552 16.4101 5.21291C16.3861 5.23011 16.3737 5.25945 16.3781 5.28866L16.4598 5.83742L16.0536 6.29763C16.0317 6.32252 16.0275 6.35824 16.0431 6.3874C16.0588 6.40643 16.0909 6.43287 16.1236 6.42846L16.6227 6.36016L16.7464 6.814C16.7557 6.84756 16.7841 6.87016 16.8178 6.87217C16.8515 6.87433 16.8829 6.85478 16.8959 6.82347L17.1213 6.27799L17.2356 6.22001C17.259 6.37207 17.3065 6.51044 17.3267 6.56463C17.2885 6.89359 17.1617 7.10875 16.8968 7.57074C16.7424 7.83385 16.5538 8.1594 16.3077 8.62908C15.8979 9.41043 15.766 10.1317 15.9155 10.7728C15.8703 10.7762 15.8023 10.7776 15.7313 10.7736C15.3536 10.491 13.4029 9.48121 13.3202 9.43659C13.3156 9.4342 12.9984 9.16176 12.9984 9.16176C12.9104 8.39255 12.3367 7.04083 11.9974 6.53575C11.8176 6.27251 11.7255 6.00359 11.6362 5.74315C11.5512 5.50255 11.4746 5.27324 11.3344 5.05813C11.0228 4.57696 10.0475 4.64526 9.81248 4.70479C9.64547 4.74876 9.5549 4.86627 9.45164 5.00221C9.41062 5.05602 9.36389 5.11405 9.30591 5.18061C9.20967 5.28824 9.07519 5.31659 8.85863 5.36056C8.6888 5.396 8.47506 5.44137 8.1962 5.53916C7.5423 5.77151 6.24017 6.46568 5.96281 6.68097C5.68968 6.89481 5.29185 6.74917 5.07951 6.64305C4.77933 6.49315 3.87305 5.66534 3.62663 5.42197C3.45526 5.255 3.26129 5.17578 3.11837 5.21408C3.05748 5.22969 3.00939 5.2693 2.98389 5.3203C2.97681 5.33445 2.97119 5.34575 2.96833 5.3585C2.91461 5.54398 3.09325 6.2913 3.48549 6.63944C3.91032 7.01439 4.3621 7.61162 4.33674 7.85368C4.29769 8.1683 4.43995 8.39058 4.73409 8.50524L4.71605 8.64525L4.25353 8.77289C4.23141 8.77912 4.21364 8.79426 4.20385 8.8139C4.19888 8.82384 4.19593 8.835 4.19555 8.84676C4.19447 8.88145 4.21599 8.91276 4.2488 8.92415L4.77769 9.10696L4.83351 9.53169C4.83731 9.56108 4.85723 9.58588 4.88507 9.59582C4.91287 9.6059 4.94404 9.59952 4.96565 9.57941L5.37215 9.20179L5.98142 9.2767C6.01433 9.28068 6.0462 9.26395 6.06139 9.23456C6.06823 9.21084 6.07194 9.16949 6.04981 9.14498L5.71133 8.77186L6.01574 8.41322C6.03819 8.3866 6.04072 8.35036 6.02338 8.32149C6.00608 8.29247 5.97219 8.27761 5.93905 8.28455L5.36165 8.40699L5.24924 8.34553C5.36146 8.2403 5.44879 8.12293 5.48202 8.07558C5.77499 7.92118 6.02413 7.90407 6.55493 7.86141C6.85929 7.84009 7.23443 7.81159 7.76102 7.74915C8.63724 7.64546 9.3067 7.34654 9.75103 6.86083C9.77934 6.89622 9.81899 6.95139 9.85584 7.01228C9.8362 7.4837 10.106 9.6636 10.1159 9.75702C10.1166 9.76194 10.1113 9.99252 10.1113 9.99252C9.46251 10.4169 8.5141 11.5276 8.21453 12.0557C8.05942 12.3343 7.85997 12.5369 7.66689 12.7331C7.48961 12.9167 7.31871 13.0877 7.18891 13.3092C6.89773 13.803 7.39469 14.645 7.55294 14.8286C7.66689 14.9584 7.81248 14.9869 7.98025 15.0185C8.04672 15.0312 8.11951 15.047 8.20501 15.0692C8.34428 15.1071 8.42977 15.2148 8.56585 15.3889C8.67348 15.525 8.80955 15.6959 9.02166 15.9017C9.52176 16.3828 10.7246 17.2374 11.0412 17.3894C11.3545 17.5381 11.402 17.9591 11.402 18.1965C11.402 18.5321 11.0665 19.7128 10.9588 20.042C10.886 20.2699 10.9019 20.4788 11 20.5895C11.0412 20.637 11.0981 20.6623 11.1551 20.6623C11.171 20.6623 11.1836 20.6623 11.1963 20.6591C11.3862 20.6243 11.9749 20.1305 12.1111 19.6241C12.2567 19.0765 12.589 18.4054 12.8169 18.3199C13.1159 18.2143 13.2511 17.9877 13.2223 17.6733L13.3556 17.6269L13.6764 17.9836C13.6919 18.0006 13.7134 18.0097 13.7353 18.0097C13.7464 18.0097 13.7577 18.0074 13.7684 18.0024C13.8 17.9879 13.8183 17.9547 13.8138 17.9202L13.741 17.3654L14.0961 17.1257C14.1206 17.1091 14.1339 17.0802 14.1304 17.0508C14.127 17.0215 14.1074 16.9964 14.0797 16.9861L13.5602 16.7912L13.3549 16.2126C13.3438 16.1814 13.3146 16.1604 13.2815 16.1599C13.2572 16.1644 13.2186 16.1796 13.2066 16.2103L13.024 16.6799L12.5672 16.5678C12.5333 16.5596 12.4998 16.5735 12.4817 16.602C12.4635 16.6304 12.4653 16.6674 12.4863 16.6939L12.8539 17.1557L12.8492 17.2838C12.7049 17.2305 12.5609 17.2048 12.5036 17.1962C12.2346 17.0031 12.108 16.7879 11.8326 16.3321C11.6775 16.0693 11.4844 15.7465 11.1932 15.3033C10.7089 14.5658 10.1423 14.1005 9.5092 13.92C9.52818 13.8789 9.55987 13.8187 9.59784 13.7586C10.0283 13.5655 11.8579 12.35 11.937 12.2994C11.9381 12.2986 11.938 12.2968 11.939 12.2961L12.1865 12.1531C12.8725 12.5143 14.3067 12.8039 14.9137 12.8095C15.2325 12.81 15.5065 12.886 15.7717 12.9596C16.0183 13.0254 16.2507 13.092 16.5074 13.0979C17.0805 13.1129 17.5755 12.2697 17.6592 12.0422C17.7174 11.8796 17.6717 11.7385 17.6179 11.5765C17.5967 11.5122 17.5752 11.4408 17.5531 11.3553C17.5187 11.2151 17.5713 11.0882 17.6575 10.8847C17.7242 10.7246 17.8077 10.5226 17.8846 10.2373C18.0626 9.56652 18.2261 8.10005 18.2053 7.74952C18.1833 7.40331 18.5283 7.15755 18.7359 7.04228C19.0292 6.87944 20.2244 6.59979 20.5645 6.53411C20.7991 6.48715 20.9741 6.37193 21.0233 6.23234C21.0448 6.17341 21.0393 6.11131 21.0117 6.06148ZM17.2219 6.04938L17.0235 6.15012C17.0067 6.15874 16.9934 6.17299 16.9861 6.19048L16.8381 6.54874L16.757 6.2517C16.7466 6.21256 16.7093 6.1887 16.6701 6.19409L16.313 6.24288L16.6028 5.91462C16.6183 5.897 16.6251 5.87361 16.6217 5.85054L16.5572 5.41705L16.846 5.56376C16.8726 5.5774 16.9047 5.57478 16.929 5.55697L17.2133 5.3465L17.1229 5.6089C17.1128 5.63876 17.1216 5.67204 17.1451 5.6937L17.2789 5.81332C17.2392 5.8805 17.2234 5.96318 17.2219 6.04938ZM17.0306 7.6486C17.317 7.16017 17.4462 6.93644 17.4854 6.5635C17.4863 6.55211 17.4857 6.53801 17.4796 6.5269C17.424 6.38763 17.2981 5.96515 17.4519 5.85082C17.6619 5.6944 17.8519 5.69754 18.0415 5.85659C18.0637 5.90946 18.1644 6.14318 18.0315 6.41243C17.9264 6.37305 17.8372 6.37549 17.781 6.38496C17.5024 6.43099 17.4609 7.21065 17.4638 7.67242C17.4647 7.88916 17.357 8.11908 17.2139 8.35055C17.209 8.33517 17.2029 8.32411 17.1952 8.31028C17.0968 8.13319 16.9355 8.03808 16.8303 7.99871C16.9041 7.87084 16.9727 7.75309 17.0306 7.6486ZM16.4469 8.70384C16.5608 8.48499 16.662 8.30213 16.7527 8.13947C16.8345 8.16286 17.0503 8.27119 17.1062 8.51531C17.061 8.58384 17.0142 8.64966 16.969 8.71819C16.8235 8.92565 16.686 9.12145 16.5952 9.31668C16.5392 9.43105 16.5035 9.55583 16.4792 9.68155C16.3021 9.61691 16.1751 9.6621 16.0724 9.71183C16.1392 9.38873 16.2608 9.05334 16.4469 8.70384ZM16.0422 9.89872C16.0658 9.88921 16.0923 9.87814 16.1172 9.86432C16.2144 9.81763 16.3103 9.77521 16.4548 9.83985C16.4178 10.1645 16.4533 10.496 16.5061 10.7671C16.3398 10.7218 16.1934 10.7126 16.0698 10.7377C16.0698 10.7377 16.0698 10.7377 16.0683 10.735C16.006 10.4727 15.9981 10.1911 16.0422 9.89872ZM15.6984 10.9295C15.7168 10.9301 15.731 10.9295 15.7494 10.9301C15.7211 10.9639 15.6987 11.0018 15.6778 11.0423C15.6282 11.1422 15.63 11.2498 15.653 11.3565C15.5774 11.3442 15.499 11.3334 15.4135 11.3229C15.0289 11.2757 14.5942 11.2166 14.1743 11.1057C13.4534 10.9158 12.8086 10.4845 12.6023 10.3347C12.8005 10.1458 13.0874 9.92319 13.3223 9.61644C13.6991 9.81275 15.3734 10.6899 15.6523 10.9116C15.6655 10.9224 15.6827 10.9273 15.6984 10.9295ZM12.0882 12.0272L11.9133 12.1283C11.6102 11.6918 11.6268 10.6244 11.6268 10.6122C11.6299 10.5806 11.6109 10.5521 11.5825 10.5394L10.2712 9.96561L10.2787 9.83099C10.9625 9.90988 11.7529 10.2279 11.7639 10.2334C11.7908 10.2504 11.8247 10.2462 11.8488 10.2263L12.9369 9.31912L13.171 9.52841C12.8317 9.94513 12.0063 10.5207 11.9957 10.5266C11.9665 10.5392 11.9508 10.5696 11.9535 10.6007L12.0882 12.0272ZM11.4677 5.74751C11.4734 5.76448 11.4805 5.77864 11.4861 5.79561C11.5782 6.06453 11.6746 6.34624 11.8644 6.625C12.193 7.10758 12.7612 8.45644 12.8435 9.1911L11.7893 10.0692C11.7213 10.0352 11.5868 9.97156 11.4197 9.90224C11.4282 9.72247 11.4462 8.85754 11.16 8.05641C11.0097 7.63463 10.8015 7.22275 10.6301 6.89299C10.5805 6.79389 10.5324 6.69911 10.4885 6.60991C10.5253 6.55047 10.562 6.49099 10.5946 6.43296C10.6837 6.28287 10.7658 6.13985 10.8676 6.09874C11.2413 5.94575 11.3757 5.85368 11.4677 5.74751ZM11.2 5.14316C11.2892 5.27619 11.3473 5.42197 11.404 5.57056C11.3233 5.68953 11.2512 5.7702 10.8067 5.9516C10.6553 6.01395 10.5548 6.18668 10.4601 6.35519C10.4431 6.3821 10.4247 6.41182 10.4077 6.43872C10.344 6.29721 10.3029 6.1811 10.3085 6.11318C10.317 5.99707 10.4203 5.86114 10.5306 5.71812C10.6551 5.55387 10.7953 5.36553 10.8305 5.16027C10.8532 5.03708 10.829 4.95079 10.7951 4.89135C10.9663 4.93799 11.1164 5.01294 11.2 5.14316ZM9.57768 5.09703C9.67246 4.97099 9.73757 4.89027 9.85223 4.8591C9.91874 4.83927 10.0872 4.8208 10.2882 4.82212C10.2769 4.83065 10.2656 4.83913 10.2571 4.84907C10.1962 4.92125 10.1751 5.05574 10.1539 5.22561C10.1242 5.43373 10.089 5.68854 9.96445 5.87403C9.8527 6.04109 9.75782 6.05388 9.65025 6.0709C9.60351 6.07938 9.55397 6.08651 9.50447 6.10774C9.4619 5.90248 9.43491 5.6307 9.43903 5.26831C9.48994 5.20888 9.53803 5.14803 9.57768 5.09703ZM8.89125 5.51492C9.04838 5.4837 9.17292 5.45394 9.2805 5.39445C9.28345 5.71437 9.31186 5.98334 9.3615 6.20271C9.36009 6.20557 9.36009 6.20557 9.35864 6.20838C9.18038 6.39532 8.94404 6.61343 8.6723 6.76783C8.67376 6.75086 8.6709 6.73525 8.67371 6.71547C8.72026 6.29641 8.60973 5.91565 8.37038 5.65104C8.57841 5.58153 8.75255 5.54464 8.89125 5.51492ZM6.06055 6.80411C6.32234 6.59875 7.54375 5.95278 8.20051 5.70767C8.44407 5.94256 8.56027 6.29782 8.51654 6.69705C8.51232 6.75508 8.5081 6.80603 8.50951 6.85277C8.39063 6.90663 8.2675 6.94774 8.14009 6.96902C7.9405 7.00023 7.70833 6.99752 7.46205 6.99475C7.01046 6.99208 6.5419 6.98805 6.2277 7.20611C5.64463 7.60838 5.24409 7.75149 5.19168 7.69346C5.11664 7.61706 4.97779 7.38493 5.26926 6.88656C5.58641 6.98833 5.861 6.96278 6.06055 6.80411ZM3.45428 6.36912C3.19225 6.02238 3.09015 5.50433 3.11983 5.40238C3.1255 5.384 3.1382 5.37266 3.15944 5.36558C3.22881 5.34716 3.36896 5.39239 3.51343 5.53531C3.52759 5.54947 3.54742 5.56644 3.56865 5.58767L3.45428 6.36912ZM3.75165 6.67338C3.69502 6.61675 3.63695 6.56299 3.59307 6.52338L3.70885 5.71789C3.76121 5.76879 3.81929 5.82261 3.88304 5.87918L3.75165 6.67338ZM3.88904 6.8163L4.02465 6.00654C4.09116 6.06453 4.15918 6.12682 4.22855 6.18621L4.06327 7.02006C4.00374 6.94788 3.94571 6.87995 3.88904 6.8163ZM4.27425 7.29887C4.24735 7.26067 4.22044 7.22242 4.19068 7.18286L4.3673 6.30513C4.48341 6.40558 4.59956 6.49896 4.70147 6.57822L4.27425 7.29887ZM4.36631 7.45454L4.83173 6.67155C4.8997 6.71964 4.96059 6.76066 5.00873 6.78471C5.04553 6.80308 5.08092 6.81724 5.11917 6.8328C5.10079 6.86252 5.08378 6.8965 5.06967 6.92481C4.96781 7.12872 4.93251 7.29151 4.93396 7.42314C4.70606 7.45436 4.55466 7.56624 4.45983 7.66398C4.44 7.59746 4.40742 7.52814 4.36631 7.45454ZM5.31149 8.56003C5.32809 8.56903 5.3474 8.57189 5.36591 8.56805L5.74508 8.48756L5.54591 8.72236C5.51952 8.75306 5.52093 8.79731 5.54755 8.82665L5.78966 9.09356L5.35509 9.04007C5.33179 9.03726 5.30863 9.04486 5.29157 9.0607L4.97048 9.35901L4.92825 9.03782C4.9244 9.00811 4.90411 8.98307 4.8757 8.97323L4.54139 8.85773L4.80895 8.78386C4.83933 8.77537 4.86182 8.74926 4.86637 8.71767L4.88939 8.53964C4.96725 8.53449 5.04435 8.50069 5.11635 8.4533L5.31149 8.56003ZM6.9964 7.19734C6.90588 7.37856 6.91868 7.5654 6.94563 7.67438C6.7984 7.68577 6.66251 7.69571 6.54359 7.7071C5.9788 7.74695 5.72118 7.76687 5.39141 7.94537C5.38152 7.95099 5.37018 7.95952 5.36455 7.97087C5.28107 8.09546 5.00376 8.43816 4.82254 8.37591C4.57477 8.29107 4.46995 8.13254 4.49395 7.88621C4.52508 7.83807 4.66087 7.62287 4.95815 7.58026C4.98511 7.68924 5.03751 7.76143 5.07717 7.80249C5.27259 8.00626 5.93914 7.59976 6.31845 7.33628C6.49676 7.21309 6.74731 7.17189 7.01908 7.15909C7.00915 7.17184 7.00348 7.18314 6.9964 7.19734ZM7.744 7.59198C7.49908 7.62179 7.291 7.64171 7.10557 7.65873C7.07866 7.57806 7.04599 7.33881 7.21582 7.15473C7.29794 7.15328 7.37861 7.15464 7.46069 7.15319C7.71409 7.15595 7.95334 7.15867 8.16564 7.12319C8.29164 7.10476 8.41477 7.06366 8.53224 7.01266C8.57902 7.19523 8.68805 7.27445 8.78715 7.33103C8.48288 7.45862 8.13751 7.54796 7.744 7.59198ZM9.63351 6.75607C9.45239 6.95575 9.22453 7.12141 8.95847 7.25036C8.93724 7.2362 8.91314 7.22064 8.88769 7.20789C8.79422 7.15412 8.70502 7.09895 8.67666 6.94323C8.96536 6.79028 9.21872 6.57358 9.41255 6.37671C9.46926 6.5395 9.54431 6.66546 9.63492 6.75316C9.63492 6.75325 9.63492 6.75325 9.63351 6.75607ZM9.76087 6.65697C9.68442 6.59046 9.60511 6.47299 9.54272 6.26491C9.58233 6.24227 9.62479 6.23515 9.67434 6.22807C9.79321 6.2096 9.94331 6.18551 10.0933 5.96318C10.239 5.74939 10.2785 5.47194 10.3096 5.24685C10.3265 5.12085 10.3435 4.98777 10.3774 4.94811C10.4128 4.90565 10.5204 4.88151 10.5982 4.9169C10.6874 4.95791 10.6875 5.057 10.6748 5.13205C10.6465 5.30192 10.5234 5.46336 10.4046 5.62339C10.2815 5.78482 10.1655 5.93914 10.1514 6.10193C10.1415 6.21377 10.2038 6.37938 10.3058 6.59308C10.2408 6.6738 10.1714 6.73469 10.0836 6.74749C9.95765 6.76586 9.85007 6.73333 9.76087 6.65697ZM10.0144 6.99944C10.0158 6.98247 10.0101 6.96545 10.003 6.9513C9.99313 6.93574 9.98465 6.92444 9.97471 6.90883C10.0186 6.91309 10.0625 6.91024 10.1078 6.90456C10.2182 6.88895 10.306 6.82661 10.381 6.74735C10.4136 6.81672 10.4489 6.88745 10.4886 6.96386C10.6671 7.30778 10.8641 7.69984 11.01 8.10886C11.2609 8.8109 11.2696 9.58668 11.2626 9.84149C10.9557 9.77483 10.6442 9.7056 10.2632 9.65357C10.212 9.23174 9.98906 7.35475 10.0144 6.99944ZM7.78084 12.8438C7.98025 12.6413 8.18917 12.4292 8.35379 12.1348C8.63865 11.6252 9.59142 10.5141 10.2119 10.1121L11.4685 10.6629C11.4685 10.7389 11.4717 10.8877 11.4844 11.0681C11.3198 11.1409 10.5379 11.5113 9.94917 12.1253C9.63895 12.4482 9.36356 12.8185 9.14517 13.1192C9.07871 13.2079 9.01538 13.2933 8.95524 13.3725C8.88563 13.3661 8.81597 13.3598 8.74951 13.3566C8.57541 13.344 8.41079 13.3344 8.32853 13.2616C8.02464 12.9957 7.88219 12.9166 7.74611 12.8818C7.75872 12.8692 7.76819 12.8565 7.78084 12.8438ZM7.28074 13.8663C7.24591 13.6922 7.24591 13.5244 7.32508 13.3915C7.40421 13.2522 7.50864 13.1351 7.61627 13.018C7.75872 13.037 7.86315 13.0655 8.224 13.382C8.34746 13.4896 8.54687 13.5023 8.73994 13.5118C8.77158 13.515 8.80641 13.5181 8.83805 13.5213C8.73994 13.6416 8.65444 13.7302 8.59116 13.7555C8.48354 13.7998 8.31578 13.7682 8.1385 13.7333C7.9359 13.6954 7.70486 13.6542 7.50541 13.7144C7.38518 13.7491 7.31871 13.8093 7.28074 13.8663ZM7.5498 13.8663C7.71442 13.8157 7.91383 13.8536 8.11009 13.8884C8.30949 13.9264 8.49943 13.9612 8.65135 13.9011C8.75583 13.8599 8.87611 13.7302 9.02171 13.5435C9.123 13.5656 9.20845 13.6004 9.25913 13.6732C9.33192 13.7777 9.35091 13.8884 9.32245 14.0024C9.29714 14.1005 9.22749 14.224 9.06919 14.3728C9.03122 14.3474 9.00591 14.3126 8.97741 14.2715C8.9078 14.1734 8.81916 14.0499 8.55324 14.0151C8.29684 13.9802 8.03097 14.0689 7.81572 14.1417C7.69544 14.1828 7.56883 14.2271 7.51816 14.2145C7.46435 14.2018 7.39469 14.1164 7.39155 14.0309C7.38836 13.9327 7.477 13.8884 7.5498 13.8663ZM8.224 14.9108C8.14801 14.8918 8.07207 14.876 8.00875 14.8633C7.85364 14.8348 7.75234 14.8127 7.67322 14.7241C7.62574 14.6734 7.53396 14.531 7.44532 14.3506C7.45797 14.3569 7.47063 14.3632 7.48333 14.3664C7.57511 14.3886 7.70491 14.3474 7.86634 14.2904C8.06575 14.224 8.30949 14.1417 8.53107 14.1702C8.73047 14.1955 8.78429 14.2746 8.84761 14.3632C8.87611 14.4012 8.90457 14.4424 8.94572 14.4772C8.7811 14.6069 8.55005 14.7525 8.224 14.9108ZM8.68932 15.2907C8.59121 15.164 8.5089 15.0659 8.4076 14.9963C8.69246 14.8507 8.92041 14.7051 9.0945 14.5626C9.09769 14.5626 9.09769 14.5626 9.10083 14.5626C9.34772 14.6386 9.64842 14.7526 9.90801 14.9267C9.89217 14.933 9.87951 14.9425 9.86053 14.9488C9.46486 15.0944 9.17363 15.3635 9.04388 15.6958C8.88872 15.5407 8.77796 15.4015 8.68932 15.2907ZM11.1076 17.2469C10.8069 17.1045 9.6832 16.3004 9.17044 15.8224C9.27174 15.4996 9.53765 15.2368 9.91429 15.0976C9.9681 15.0754 10.0156 15.0564 10.0567 15.0342C10.158 15.1166 10.2498 15.2083 10.3258 15.3128C10.4429 15.4774 10.5441 15.6863 10.6518 15.9079C10.8512 16.3131 11.057 16.7341 11.3925 16.9177C12.0129 17.2595 12.3199 17.5539 12.2914 17.6267C12.2566 17.728 12.111 17.9559 11.5349 17.9179C11.4843 17.5887 11.3387 17.3545 11.1076 17.2469ZM11.1678 20.504C11.1488 20.5072 11.133 20.5009 11.1172 20.4851C11.0697 20.4312 11.0475 20.2857 11.1109 20.0925C11.1172 20.0735 11.1235 20.0482 11.133 20.0197L11.8832 19.7728C11.6901 20.1622 11.2722 20.4851 11.1678 20.504ZM11.9591 19.5797L11.1868 19.8361C11.209 19.7665 11.2311 19.6905 11.2533 19.6082L12.0224 19.3708C11.9971 19.4468 11.9749 19.5228 11.9591 19.5797ZM12.0889 19.1841L11.3039 19.4246C11.3261 19.3392 11.3514 19.2505 11.3736 19.1619L12.1934 18.9371C12.1554 19.0227 12.1206 19.1049 12.0889 19.1841ZM12.282 18.7504L11.4179 18.9846C11.4559 18.8359 11.4875 18.6903 11.5129 18.5637L12.3485 18.6238C12.3263 18.665 12.3041 18.7061 12.282 18.7504ZM12.4466 18.4718L11.5381 18.4054C11.5508 18.3231 11.5602 18.2503 11.5602 18.1965C11.5602 18.1553 11.5571 18.1173 11.5539 18.0762C11.5887 18.0794 11.6267 18.0794 11.6584 18.0794C11.8863 18.0794 12.0477 18.0382 12.1648 17.9781C12.2946 18.168 12.4624 18.2535 12.5921 18.2946C12.5416 18.3421 12.4941 18.4022 12.4466 18.4718ZM12.7546 16.7768L13.0537 16.8501C13.0929 16.86 13.1319 16.839 13.1462 16.802L13.2768 16.4662L13.4232 16.8789C13.4311 16.901 13.4483 16.9183 13.4701 16.9265L13.8804 17.0804L13.6119 17.2617C13.5871 17.2784 13.5738 17.3078 13.5776 17.3376L13.6237 17.6883L13.4381 17.482C13.4169 17.4586 13.3835 17.4502 13.3532 17.4602L13.1836 17.5192C13.1442 17.4518 13.0796 17.3979 13.005 17.3547L13.0132 17.1324C13.0138 17.1135 13.0078 17.0949 12.9961 17.0801L12.7546 16.7768ZM11.6996 16.4112C11.9876 16.8987 12.1205 17.1203 12.4276 17.3355C12.4371 17.3418 12.4497 17.3482 12.4624 17.3482C12.6112 17.3671 13.0417 17.4621 13.067 17.6521C13.1019 17.9116 13.0069 18.0762 12.7758 18.1649C12.7189 18.1585 12.4656 18.1332 12.2947 17.8863C12.3802 17.8135 12.4213 17.7344 12.4403 17.6805C12.5353 17.4146 11.8737 17 11.4686 16.7784C11.2786 16.6739 11.1298 16.4682 10.9969 16.2308C11.0127 16.234 11.0254 16.234 11.0412 16.234C11.2438 16.234 11.4052 16.139 11.4907 16.0662C11.5666 16.1928 11.6363 16.3099 11.6996 16.4112ZM11.0602 15.3888C11.1963 15.5945 11.3071 15.7718 11.4052 15.9301C11.345 15.9902 11.1456 16.1263 10.9051 16.0567C10.8671 15.9839 10.8323 15.9111 10.7943 15.8383C10.6835 15.6104 10.579 15.3951 10.4524 15.221C10.3796 15.1166 10.2878 15.0248 10.1897 14.9425C10.3321 14.819 10.3543 14.6861 10.3606 14.5721C10.6107 14.7874 10.8449 15.0564 11.0602 15.3888ZM10.2119 14.455C10.2087 14.4803 10.2055 14.5088 10.2055 14.5373C10.1992 14.645 10.1897 14.7494 10.0631 14.8444C9.7972 14.6544 9.49012 14.5247 9.22739 14.4392C9.34767 14.3157 9.4268 14.1923 9.46481 14.072C9.46481 14.072 9.46481 14.072 9.468 14.072C9.72754 14.1448 9.97762 14.2746 10.2119 14.455ZM9.51548 13.6225C9.49964 13.6289 9.48698 13.6415 9.47751 13.6542C9.468 13.67 9.46167 13.6827 9.4522 13.6985C9.43636 13.6573 9.41423 13.6193 9.38887 13.5813C9.32555 13.4895 9.23063 13.4389 9.12614 13.4072C9.17363 13.3471 9.22111 13.2838 9.27173 13.2142C9.49964 12.9008 9.76237 12.5494 10.0631 12.2361C10.579 11.698 11.2691 11.3434 11.5001 11.2358C11.535 11.5713 11.611 11.967 11.7787 12.2139C11.4242 12.4482 9.84468 13.4864 9.51548 13.6225ZM15.9128 12.1246C15.8278 12.5193 15.8277 12.6823 15.8634 12.8182C15.8462 12.8133 15.8305 12.8111 15.8133 12.8062C15.5393 12.7302 15.2525 12.6504 14.9152 12.6494C14.3314 12.6476 12.8976 12.3538 12.245 12.0064L12.1167 10.6404C12.1831 10.6035 12.3116 10.5286 12.4633 10.43C12.6068 10.5385 13.3101 11.0424 14.1327 11.2592C14.5656 11.3737 15.023 11.4348 15.3919 11.4798C15.5016 11.4949 15.6071 11.5088 15.7055 11.5229C15.7338 11.5869 15.762 11.6508 15.7915 11.7105C15.865 11.8688 15.9365 12.0173 15.9128 12.1246ZM16.5133 12.939C16.3531 12.9374 16.2 12.9029 16.0454 12.8656C15.9928 12.7319 15.9671 12.6267 16.0687 12.1576C16.1029 11.9974 16.0172 11.8169 15.9318 11.6434C15.9192 11.6142 15.9051 11.5822 15.8925 11.553C16.0452 11.5804 16.1642 11.6122 16.2171 11.6552C16.3081 11.7278 16.3618 11.8899 16.4174 12.0617C16.4825 12.2573 16.5587 12.4793 16.7081 12.6245C16.7969 12.7127 16.8817 12.7417 16.95 12.7472C16.8146 12.8622 16.6679 12.9436 16.5133 12.939ZM17.0401 12.5705C16.9558 12.6209 16.874 12.5649 16.8193 12.512C16.6952 12.3927 16.6316 12.1999 16.5668 12.0114C16.5033 11.8186 16.4415 11.6357 16.3152 11.532C16.2285 11.4606 16.0567 11.4185 15.8227 11.3818C15.7929 11.2825 15.7819 11.1909 15.821 11.1112C15.877 10.9969 15.9646 10.9265 16.0781 10.8961C16.1762 10.8706 16.3179 10.8716 16.5248 10.9378C16.5211 10.9833 16.5029 11.0223 16.4808 11.0672C16.4287 11.1757 16.3639 11.3131 16.4624 11.5625C16.5564 11.8036 16.7629 11.9931 16.9311 12.1459C17.0254 12.2312 17.1256 12.3204 17.1392 12.3707C17.1542 12.4239 17.1133 12.5263 17.0401 12.5705ZM17.5095 11.9878C17.4882 12.0539 17.4083 12.2033 17.2935 12.3684C17.2929 12.3542 17.2923 12.34 17.2889 12.3274C17.2638 12.2364 17.1648 12.1429 17.0366 12.0295C16.8817 11.8874 16.6915 11.7142 16.6089 11.5066C16.5342 11.32 16.5773 11.2345 16.6241 11.1362C16.6435 11.0929 16.6656 11.0479 16.6761 10.9951C16.8694 11.076 17.1089 11.2074 17.4055 11.4156C17.4257 11.4913 17.4488 11.5653 17.4685 11.6268C17.5187 11.7762 17.5486 11.8756 17.5095 11.9878ZM17.5117 10.8244C17.4486 10.9716 17.4028 11.0912 17.3911 11.2136C17.1255 11.0352 16.8876 10.9066 16.6786 10.8235C16.677 10.8207 16.677 10.8207 16.6755 10.818C16.6221 10.5653 16.5758 10.247 16.602 9.93556C16.6152 9.94635 16.6297 9.95282 16.6444 9.96636C16.9638 10.2416 17.3404 10.3657 17.694 10.3178C17.6336 10.5287 17.5656 10.6931 17.5117 10.8244ZM18.0484 7.76059C18.0699 8.0926 17.9122 9.46532 17.7432 10.1457C17.4117 10.2138 17.053 10.1088 16.7484 9.84707C16.7029 9.81079 16.6632 9.77849 16.6239 9.75327C16.6467 9.62479 16.6824 9.49996 16.7368 9.38282C16.8239 9.20053 16.9574 9.01059 17.0989 8.80898C17.3564 8.43797 17.6246 8.05379 17.6223 7.67129C17.6201 6.96292 17.7285 6.5516 17.8059 6.54119C17.9114 6.52249 18.1813 6.53918 18.4277 7.06131C18.1645 7.26531 18.0304 7.50629 18.0484 7.76059ZM18.6591 6.90395C18.6231 6.92392 18.5914 6.94511 18.557 6.96784C18.5429 6.93588 18.5244 6.90264 18.5091 6.87499C18.3984 6.67572 18.2841 6.5545 18.1747 6.48133C18.2778 6.2757 18.2711 6.08754 18.2441 5.95409C18.3102 5.97532 18.3858 5.98765 18.4697 5.99534L18.8525 6.82188C18.7744 6.8508 18.7061 6.87785 18.6591 6.90395ZM19.0031 6.76727L18.6502 6.00743C18.6969 6.00682 18.7436 6.00621 18.7931 6.0041L19.4173 6.64596C19.2688 6.68496 19.1261 6.72794 19.0031 6.76727ZM19.5938 6.59871L18.9994 5.99098C19.0926 5.98273 19.1814 5.97321 19.266 5.96248L19.8573 6.5321C19.7718 6.55418 19.6821 6.57504 19.5938 6.59871ZM20.0424 6.48724L19.4615 5.9299C19.5402 5.91518 19.6174 5.8977 19.6749 5.88387L20.2739 6.43474C20.2023 6.44918 20.1251 6.46666 20.0424 6.48724ZM20.535 6.37676C20.5153 6.38041 20.4901 6.38716 20.4606 6.39269L19.8806 5.85659C20.3147 5.83648 20.7998 6.04507 20.8671 6.1272C20.8791 6.14224 20.8812 6.15917 20.8751 6.18068C20.8511 6.24837 20.7345 6.33841 20.535 6.37676Z" fill="#464655"/>
</g>
<defs>
<clipPath id="clip0_8615_27555">
<path d="M0 2C0 0.895432 0.895431 0 2 0H21.9998C23.1043 0 23.9998 0.895431 23.9998 2V21.9998C23.9998 23.1043 23.1043 23.9998 21.9998 23.9998H2C0.895432 23.9998 0 23.1043 0 21.9998V2Z" fill="white"/>
</clipPath>
</defs>
</svg>
