<svg width="24" height="24" viewBox="0 0 24 24" fill="none" xmlns="http://www.w3.org/2000/svg">
<g clip-path="url(#clip0_8615_27672)">
<path d="M23.9978 0H-0.00195312V23.9998H23.9978V0Z" fill="#41479B"/>
<path d="M23.9978 4.39966H-0.00195312V19.6001H23.9978V4.39966Z" fill="#F5F5F5"/>
<path d="M14.8786 12L16.3192 9.50465H13.4379L11.997 7.00891L10.5561 9.50465H7.6748L9.11545 12L7.6748 14.4953H10.5561L11.997 16.991L13.4379 14.4953H16.3192L14.8786 12ZM14.9058 10.3207L14.4074 11.1839L13.909 10.3207H14.9058ZM13.9363 12L12.9668 13.6792H11.0273L10.0578 12L11.0273 10.3207H12.9668L13.9363 12ZM11.997 8.64113L12.4956 9.50465H11.4985L11.997 8.64113ZM9.08826 10.3207H10.085L9.58663 11.1839L9.08826 10.3207ZM9.08826 13.6792L9.58663 12.816L10.085 13.6792H9.08826ZM11.997 15.3588L11.4985 14.4953H12.4956L11.997 15.3588ZM14.4074 12.816L14.9058 13.6792H13.9091L14.4074 12.816Z" fill="#41479B"/>
</g>
<defs>
<clipPath id="clip0_8615_27672">
<path d="M0 2C0 0.895432 0.895431 0 2 0H21.9998C23.1043 0 23.9998 0.895431 23.9998 2V21.9998C23.9998 23.1043 23.1043 23.9998 21.9998 23.9998H2C0.895432 23.9998 0 23.1043 0 21.9998V2Z" fill="white"/>
</clipPath>
</defs>
</svg>
