<svg width="24" height="24" viewBox="0 0 24 24" fill="none" xmlns="http://www.w3.org/2000/svg">
<g clip-path="url(#clip0_8615_27548)">
<path d="M23.9968 0H-0.00292969V23.9998H23.9968V0Z" fill="#F5F5F5"/>
<path d="M11.9968 16.5514C14.5106 16.5514 16.5483 14.5136 16.5483 11.9999C16.5483 9.48615 14.5106 7.44836 11.9968 7.44836C9.4831 7.44836 7.44531 9.48615 7.44531 11.9999C7.44531 14.5136 9.4831 16.5514 11.9968 16.5514Z" fill="#FF4B55"/>
</g>
<defs>
<clipPath id="clip0_8615_27548">
<path d="M0 2C0 0.895432 0.895431 0 2 0H21.9998C23.1043 0 23.9998 0.895431 23.9998 2V21.9998C23.9998 23.1043 23.1043 23.9998 21.9998 23.9998H2C0.895432 23.9998 0 23.1043 0 21.9998V2Z" fill="white"/>
</clipPath>
</defs>
</svg>
