<svg width="24" height="24" viewBox="0 0 24 24" fill="none" xmlns="http://www.w3.org/2000/svg">
<g clip-path="url(#clip0_8615_27547)">
<path d="M23.9959 0H-0.00390625V23.9998H23.9959V0Z" fill="#F5F5F5"/>
<path d="M23.9959 0H22.4857L11.996 10.4898L1.5062 0H-0.00390625V1.51011L10.4859 11.9999L-0.00390625 22.4897V23.9998H1.5062L11.996 13.51L22.4857 23.9998H23.9959V22.4897L13.5061 11.9999L23.9959 1.51011V0Z" fill="#FF4B55"/>
<path d="M13.2411 2.56733C13.2411 2.56733 13.1101 2.37079 12.9135 2.5018C12.9135 2.5018 13.1408 2.66558 12.9872 2.83757C12.8247 3.01958 12.6013 2.84155 12.5873 2.7111C12.6469 2.70655 12.694 2.65729 12.694 2.59654C12.694 2.53279 12.6423 2.48108 12.5786 2.48108C12.5148 2.48108 12.4631 2.53279 12.4631 2.59654C12.4631 2.64632 12.4948 2.68836 12.5389 2.70458C12.5108 2.81624 12.2179 2.90169 12.1335 2.71677C12.0384 2.50855 12.1887 2.33188 12.3914 2.35644C12.3914 2.35644 12.3525 2.09849 12.0782 2.20696C12.0782 2.20696 12.1928 1.91212 11.9963 1.71558C11.7997 1.91212 11.9144 2.20696 11.9144 2.20696C11.64 2.09845 11.6011 2.35644 11.6011 2.35644C11.8038 2.33188 11.9541 2.50855 11.8591 2.71677C11.7747 2.90169 11.4818 2.81624 11.4536 2.70458C11.4978 2.68836 11.5295 2.64632 11.5295 2.59654C11.5295 2.53279 11.4778 2.48108 11.414 2.48108C11.3503 2.48108 11.2986 2.53279 11.2986 2.59654C11.2986 2.65733 11.3457 2.70655 11.4053 2.7111C11.3913 2.84155 11.1679 3.01953 11.0054 2.83757C10.8518 2.66558 11.079 2.5018 11.079 2.5018C10.8825 2.37079 10.7514 2.56733 10.7514 2.56733C10.6859 2.30526 10.4238 2.37079 10.4238 2.37079C10.6859 2.69839 10.8786 3.37409 10.8786 3.37409H13.1139C13.1139 3.37409 13.3066 2.69839 13.5686 2.37079C13.5687 2.37079 13.3067 2.30526 13.2411 2.56733Z" fill="#FFE15A"/>
<path d="M13.1139 3.37402C12.7523 3.24656 12.3743 3.18286 11.9963 3.18286C11.6183 3.18286 11.2402 3.24656 10.8786 3.37402C10.2924 5.94274 11.9963 6.62931 11.9963 6.62931C11.9963 6.62931 13.7001 5.94269 13.1139 3.37402Z" fill="#FF4B55"/>
<path d="M11.1818 4.28781C11.1818 4.28781 11.128 4.27769 11.0814 4.31505C11.0814 4.31505 11.065 4.25045 11.1491 4.23484C11.2331 4.21928 11.1818 4.28781 11.1818 4.28781Z" fill="#82AFFF"/>
<path d="M11.117 4.2061C11.117 4.2061 11.0745 4.17178 11.0156 4.18266C11.0156 4.18266 11.0317 4.11797 11.1132 4.14399C11.1947 4.17 11.117 4.2061 11.117 4.2061Z" fill="#82AFFF"/>
<path d="M11.1522 4.23959C11.1522 4.23959 11.0935 4.22947 11.0424 4.26683C11.0424 4.26683 11.0246 4.20223 11.1164 4.18663C11.2084 4.17106 11.1522 4.23959 11.1522 4.23959Z" fill="#82AFFF"/>
<path d="M12.1687 4.41118C12.1687 4.41118 12.1141 4.41376 12.0773 4.46092C12.0773 4.46092 12.0464 4.40186 12.1246 4.36722C12.2028 4.33258 12.1687 4.41118 12.1687 4.41118Z" fill="#82AFFF"/>
<path d="M12.0894 4.34086C12.0894 4.34086 12.0401 4.31733 11.9854 4.34151C11.9854 4.34151 11.9861 4.27486 12.0713 4.28133C12.1566 4.28779 12.0894 4.34086 12.0894 4.34086Z" fill="#82AFFF"/>
<path d="M12.1289 4.37102C12.1289 4.37102 12.0695 4.37477 12.0284 4.42291C12.0284 4.42291 11.9961 4.36417 12.0819 4.32775C12.1677 4.29138 12.1289 4.37102 12.1289 4.37102Z" fill="#82AFFF"/>
<path d="M12.7928 4.44487C12.7928 4.44487 12.7724 4.44487 12.7357 4.47932C12.7357 4.47932 12.7095 4.42073 12.7867 4.39199C12.8639 4.36326 12.7928 4.44487 12.7928 4.44487Z" fill="#82AFFF"/>
<path d="M12.7534 4.36443C12.7534 4.36443 12.7074 4.33893 12.6533 4.35899C12.6533 4.35899 12.6579 4.29496 12.7395 4.30611C12.8212 4.31732 12.7534 4.36443 12.7534 4.36443Z" fill="#82AFFF"/>
<path d="M12.7905 4.39584C12.7905 4.39584 12.7331 4.39598 12.6909 4.4399C12.6909 4.4399 12.6632 4.38154 12.7478 4.35149C12.8325 4.32149 12.7905 4.39584 12.7905 4.39584Z" fill="#82AFFF"/>
<path d="M11.0924 3.88247C11.0924 3.88247 11.043 3.84966 10.9805 3.86709C10.9805 3.86709 10.9916 3.79585 11.0822 3.81595C11.1728 3.83602 11.0924 3.88247 11.0924 3.88247Z" fill="#82AFFF"/>
<path d="M11.0872 3.75947C11.0872 3.75947 11.0553 3.70931 10.9873 3.70495C10.9873 3.70495 11.0313 3.63741 11.1086 3.68925C11.1859 3.74109 11.0872 3.75947 11.0872 3.75947Z" fill="#82AFFF"/>
<path d="M11.0876 3.82485C11.0876 3.82485 11.0356 3.78641 10.9668 3.80061C10.9668 3.80061 10.9822 3.72547 11.0797 3.75322C11.1771 3.78097 11.0876 3.82485 11.0876 3.82485Z" fill="#82AFFF"/>
<path d="M12.6324 4.04974C12.7188 4.05208 12.8216 4.01782 12.8379 3.92829C12.8567 3.8254 12.7687 3.77337 12.6503 3.77806C12.564 3.78148 12.3453 3.83107 12.1886 3.82554C12.0337 3.8201 12.0295 3.66678 12.2641 3.68309C12.6121 3.70723 12.6674 3.66209 12.6674 3.66209C12.4806 3.6971 12.4058 3.63171 12.2073 3.63171C12.0088 3.63171 11.9707 3.7692 12.0509 3.84424C12.1407 3.92834 12.4666 3.87227 12.553 3.85592C12.6394 3.83956 12.7491 3.83871 12.7577 3.89951C12.7655 3.95402 12.6207 3.95107 12.5182 3.94713C12.3549 3.94085 12.1174 3.98515 11.906 3.99607C11.73 4.00516 11.7054 3.95552 11.6654 3.90466C11.6747 3.88774 11.6801 3.8689 11.6801 3.84893C11.6801 3.83885 11.6784 3.8291 11.6759 3.81968C11.6892 3.80506 11.7032 3.78176 11.7096 3.74384C11.7096 3.74384 11.6646 3.73592 11.6305 3.75312C11.6033 3.7316 11.5672 3.71815 11.5271 3.71815C11.4871 3.71815 11.451 3.7316 11.4237 3.75312C11.3897 3.73596 11.3447 3.74384 11.3447 3.74384C11.3511 3.78176 11.365 3.80506 11.3783 3.81968C11.3758 3.8291 11.3741 3.83885 11.3741 3.84893C11.3741 3.88559 11.3918 3.91873 11.4202 3.94249C11.4339 3.95393 11.4441 3.96907 11.4476 3.98665L11.4525 4.01154C11.4547 4.02241 11.4617 4.03099 11.4708 4.03619C11.3257 4.02124 11.257 3.93002 11.2217 3.87931C11.1819 3.82212 11.1571 3.69556 11.0964 3.68159L11.0605 3.87232C11.0605 3.87232 11.1373 4.04979 11.2801 4.12221C11.4412 4.20396 11.4716 4.2063 11.5245 4.22965C11.5307 4.25768 11.4249 4.27479 11.3174 4.25299C11.2424 4.23776 11.1414 4.12887 11.0837 4.13665L11.1508 4.28566C11.333 4.40088 11.4922 4.40332 11.6288 4.37908C11.7253 4.36197 11.7621 4.28336 11.7684 4.24975C11.8078 4.24244 11.8507 4.23429 11.9838 4.20161C12.0395 4.18793 12.1036 4.18071 12.1675 4.17771C12.1855 4.21877 12.2267 4.27141 12.3684 4.27633C12.3684 4.27633 12.4027 4.33085 12.2859 4.31993C12.1691 4.30905 12.1391 4.27263 12.0706 4.28041L12.1318 4.42582C12.1318 4.42582 12.2813 4.37444 12.465 4.3931C12.465 4.3931 12.4992 4.40243 12.5195 4.37285C12.5397 4.34327 12.5303 4.32616 12.5117 4.29968C12.5012 4.28477 12.4951 4.23644 12.4918 4.19697C12.5591 4.2139 12.7656 4.17199 12.8402 4.17822C12.915 4.18446 12.9259 4.27165 12.9088 4.30122C12.8917 4.3308 12.7351 4.30549 12.7351 4.30549L12.7877 4.44911C12.7877 4.44911 12.8034 4.44152 12.8433 4.40397C12.8758 4.37346 13.0084 4.38372 13.0084 4.36038V4.09432C13.0084 4.08171 12.9974 4.07187 12.9848 4.07299C12.6922 4.09849 12.6324 4.04974 12.6324 4.04974Z" fill="#FFE15A"/>
<path d="M11.4658 3.9552C11.4702 3.96378 11.4735 3.97311 11.4752 3.983L11.4796 4.00789C11.4812 4.01661 11.4881 4.02293 11.4961 4.02293H11.5639C11.5719 4.02293 11.5787 4.01661 11.5803 4.00789L11.5847 3.983C11.5864 3.97315 11.5897 3.96383 11.5941 3.9552H11.4658Z" fill="#FF4B55"/>
<path d="M11.5273 4.00415C11.5117 4.00415 11.4995 4.00603 11.5011 4.02787L11.5075 4.12091C11.5085 4.13516 11.5171 4.14599 11.5273 4.14599C11.5375 4.14599 11.5461 4.13516 11.5472 4.12091L11.5535 4.02787C11.5552 4.00607 11.543 4.00415 11.5273 4.00415Z" fill="#82AFFF"/>
<path d="M11.3252 5.20679C11.3252 5.20679 11.2813 5.19854 11.2432 5.22901C11.2432 5.22901 11.2299 5.17632 11.2985 5.16362C11.3671 5.15092 11.3252 5.20679 11.3252 5.20679Z" fill="#82AFFF"/>
<path d="M11.2721 5.14016C11.2721 5.14016 11.2374 5.11218 11.1895 5.12104C11.1895 5.12104 11.2026 5.06831 11.269 5.08949C11.3355 5.11073 11.2721 5.14016 11.2721 5.14016Z" fill="#82AFFF"/>
<path d="M11.3006 5.16736C11.3006 5.16736 11.2527 5.15911 11.2111 5.18958C11.2111 5.18958 11.1965 5.1369 11.2715 5.12419C11.3464 5.11149 11.3006 5.16736 11.3006 5.16736Z" fill="#82AFFF"/>
<path d="M12.1302 5.30742C12.1302 5.30742 12.0857 5.30953 12.0557 5.34801C12.0557 5.34801 12.0305 5.29982 12.0943 5.2716C12.1581 5.24334 12.1302 5.30742 12.1302 5.30742Z" fill="#82AFFF"/>
<path d="M12.0654 5.24997C12.0654 5.24997 12.0251 5.2308 11.9805 5.25049C11.9805 5.25049 11.9811 5.19612 12.0506 5.20141C12.1202 5.20666 12.0654 5.24997 12.0654 5.24997Z" fill="#82AFFF"/>
<path d="M12.0976 5.27463C12.0976 5.27463 12.049 5.27767 12.0156 5.31695C12.0156 5.31695 11.9892 5.26905 12.0592 5.23933C12.1292 5.20966 12.0976 5.27463 12.0976 5.27463Z" fill="#82AFFF"/>
<path d="M12.6389 5.3349C12.6389 5.3349 12.6222 5.3349 12.5924 5.36297C12.5924 5.36297 12.571 5.31516 12.634 5.29173C12.6969 5.26833 12.6389 5.3349 12.6389 5.3349Z" fill="#82AFFF"/>
<path d="M12.607 5.26931C12.607 5.26931 12.5695 5.24849 12.5254 5.2649C12.5254 5.2649 12.5291 5.21264 12.5957 5.22178C12.6623 5.23082 12.607 5.26931 12.607 5.26931Z" fill="#82AFFF"/>
<path d="M12.6376 5.29489C12.6376 5.29489 12.5907 5.29498 12.5563 5.33084C12.5563 5.33084 12.5337 5.28326 12.6027 5.25875C12.6718 5.23428 12.6376 5.29489 12.6376 5.29489Z" fill="#82AFFF"/>
<path d="M11.2514 4.87605C11.2514 4.87605 11.2112 4.84928 11.1602 4.86348C11.1602 4.86348 11.1692 4.80536 11.2432 4.82177C11.3171 4.83812 11.2514 4.87605 11.2514 4.87605Z" fill="#82AFFF"/>
<path d="M11.2485 4.7759C11.2485 4.7759 11.2224 4.73498 11.167 4.73142C11.167 4.73142 11.2029 4.67634 11.2659 4.71857C11.329 4.76081 11.2485 4.7759 11.2485 4.7759Z" fill="#82AFFF"/>
<path d="M11.2489 4.82905C11.2489 4.82905 11.2065 4.79769 11.1504 4.80927C11.1504 4.80927 11.163 4.74801 11.2425 4.77065C11.3219 4.79329 11.2489 4.82905 11.2489 4.82905Z" fill="#82AFFF"/>
<path d="M12.5135 5.01264C12.584 5.01456 12.6678 4.98663 12.6811 4.9136C12.6964 4.82969 12.6246 4.78722 12.528 4.79102C12.4576 4.79379 12.2793 4.83424 12.1515 4.82974C12.0251 4.82529 12.0217 4.70027 12.2131 4.71354C12.497 4.73322 12.542 4.69638 12.542 4.69638C12.3896 4.72497 12.3286 4.67163 12.1667 4.67163C12.0048 4.67163 11.9738 4.78375 12.0391 4.84497C12.1124 4.9136 12.3782 4.86785 12.4487 4.85449C12.5192 4.84118 12.6086 4.84043 12.6157 4.89007C12.622 4.9345 12.5039 4.93211 12.4203 4.92893C12.2871 4.92382 12.0934 4.95996 11.921 4.96882C11.7773 4.97622 11.7573 4.93572 11.7247 4.89428C11.7323 4.8805 11.7367 4.86513 11.7367 4.84882C11.7367 4.84057 11.7353 4.83264 11.7333 4.82496C11.7441 4.81305 11.7555 4.79402 11.7608 4.76308C11.7608 4.76308 11.724 4.75666 11.6963 4.77063C11.674 4.7531 11.6446 4.74213 11.6119 4.74213C11.5793 4.74213 11.5498 4.7531 11.5276 4.77063C11.4998 4.75661 11.4631 4.76308 11.4631 4.76308C11.4683 4.79402 11.4797 4.81305 11.4906 4.82496C11.4885 4.83264 11.4872 4.84057 11.4872 4.84882C11.4872 4.87872 11.5016 4.90577 11.5248 4.92513C11.536 4.93446 11.5443 4.94683 11.5471 4.96113L11.5511 4.98142C11.5529 4.99033 11.5586 4.99727 11.566 5.00153C11.4477 4.98935 11.3916 4.91491 11.3629 4.87357C11.3304 4.82693 11.3102 4.72371 11.2606 4.71227L11.2314 4.86785C11.2314 4.86785 11.2941 5.0126 11.4105 5.0717C11.5419 5.13836 11.5667 5.14028 11.6099 5.15931C11.615 5.18219 11.5286 5.19616 11.441 5.17834C11.3798 5.16592 11.2974 5.0771 11.2504 5.08347L11.3051 5.20502C11.4537 5.299 11.5836 5.30097 11.695 5.28123C11.7737 5.26727 11.8037 5.20314 11.8088 5.17572C11.841 5.16977 11.876 5.16311 11.9845 5.13644C12.03 5.12528 12.0823 5.11938 12.1344 5.11694C12.1491 5.15045 12.1827 5.19334 12.2982 5.19738C12.2982 5.19738 12.3262 5.24181 12.2309 5.23295C12.1357 5.22405 12.1112 5.19438 12.0553 5.20075L12.1051 5.31934C12.1051 5.31934 12.2271 5.27744 12.3769 5.29267C12.3769 5.29267 12.4049 5.30031 12.4214 5.27617C12.4379 5.25203 12.4303 5.23806 12.415 5.2165C12.4065 5.20436 12.4015 5.16494 12.3988 5.13274C12.4537 5.14652 12.6221 5.11239 12.683 5.11745C12.744 5.12252 12.7529 5.19367 12.7389 5.21777C12.7249 5.24191 12.5973 5.22128 12.5973 5.22128L12.6401 5.33842C12.6401 5.33842 12.653 5.33223 12.6855 5.30158C12.712 5.27669 12.8202 5.28508 12.8202 5.266V5.04897C12.8202 5.03866 12.8112 5.03064 12.801 5.03158C12.5623 5.05244 12.5135 5.01264 12.5135 5.01264Z" fill="#FFE15A"/>
<path d="M11.5615 4.93542C11.5651 4.94246 11.5678 4.95005 11.5692 4.95807L11.5728 4.97836C11.5741 4.98549 11.5797 4.99064 11.5862 4.99064H11.6415C11.648 4.99064 11.6536 4.98549 11.6549 4.97836L11.6585 4.95807C11.6599 4.95 11.6626 4.94241 11.6661 4.93542H11.5615Z" fill="#FF4B55"/>
<path d="M11.6172 4.97559C11.6044 4.97559 11.5945 4.97713 11.5958 4.99495L11.601 5.07084C11.6019 5.08246 11.6089 5.09127 11.6172 5.09127C11.6255 5.09127 11.6325 5.08246 11.6334 5.07084L11.6386 4.99495C11.6399 4.97713 11.63 4.97559 11.6172 4.97559Z" fill="#82AFFF"/>
<path d="M11.4957 5.93732C11.4957 5.93732 11.4629 5.93113 11.4344 5.95396C11.4344 5.95396 11.4244 5.91449 11.4757 5.90497C11.527 5.89546 11.4957 5.93732 11.4957 5.93732Z" fill="#82AFFF"/>
<path d="M11.4565 5.88739C11.4565 5.88739 11.4304 5.86644 11.3945 5.8731C11.3945 5.8731 11.4044 5.83358 11.4541 5.84947C11.5038 5.86536 11.4565 5.88739 11.4565 5.88739Z" fill="#82AFFF"/>
<path d="M11.478 5.90777C11.478 5.90777 11.4422 5.90159 11.411 5.92441C11.411 5.92441 11.4001 5.88495 11.4562 5.87543C11.5123 5.86592 11.478 5.90777 11.478 5.90777Z" fill="#82AFFF"/>
<path d="M12.0986 6.01258C12.0986 6.01258 12.0652 6.01418 12.0427 6.04296C12.0427 6.04296 12.0239 6.00687 12.0716 5.98573C12.1194 5.96458 12.0986 6.01258 12.0986 6.01258Z" fill="#82AFFF"/>
<path d="M12.0499 5.96963C12.0499 5.96963 12.0197 5.95524 11.9863 5.97C11.9863 5.97 11.9868 5.92931 12.0388 5.93325C12.0909 5.93724 12.0499 5.96963 12.0499 5.96963Z" fill="#82AFFF"/>
<path d="M12.0748 5.98804C12.0748 5.98804 12.0384 5.99034 12.0134 6.01973C12.0134 6.01973 11.9937 5.98387 12.0461 5.9616C12.0984 5.93943 12.0748 5.98804 12.0748 5.98804Z" fill="#82AFFF"/>
<path d="M12.4798 6.03324C12.4798 6.03324 12.4674 6.03324 12.445 6.05429C12.445 6.05429 12.429 6.01848 12.4761 6.00095C12.5233 5.98337 12.4798 6.03324 12.4798 6.03324Z" fill="#82AFFF"/>
<path d="M12.4557 5.98406C12.4557 5.98406 12.4275 5.9685 12.3945 5.98073C12.3945 5.98073 12.3973 5.94159 12.4472 5.94844C12.497 5.95528 12.4557 5.98406 12.4557 5.98406Z" fill="#82AFFF"/>
<path d="M12.4785 6.00327C12.4785 6.00327 12.4435 6.00336 12.4177 6.03017C12.4177 6.03017 12.4008 5.99455 12.4525 5.97618C12.5042 5.9578 12.4785 6.00327 12.4785 6.00327Z" fill="#82AFFF"/>
<path d="M11.4414 5.68968C11.4414 5.68968 11.4112 5.66961 11.373 5.68025C11.373 5.68025 11.3799 5.63675 11.4352 5.64904C11.4905 5.66132 11.4414 5.68968 11.4414 5.68968Z" fill="#82AFFF"/>
<path d="M11.4389 5.61457C11.4389 5.61457 11.4195 5.58396 11.3779 5.58124C11.3779 5.58124 11.4048 5.53999 11.452 5.57163C11.4992 5.60332 11.4389 5.61457 11.4389 5.61457Z" fill="#82AFFF"/>
<path d="M11.439 5.65443C11.439 5.65443 11.4072 5.63095 11.3652 5.63962C11.3652 5.63962 11.3747 5.59373 11.4342 5.6107C11.4937 5.62762 11.439 5.65443 11.439 5.65443Z" fill="#82AFFF"/>
<path d="M12.3808 5.79182C12.4336 5.79323 12.4963 5.77232 12.5063 5.71767C12.5178 5.65486 12.464 5.62303 12.3917 5.62589C12.339 5.62795 12.2054 5.65828 12.1098 5.6549C12.0151 5.65158 12.0125 5.55797 12.1559 5.5679C12.3684 5.58262 12.4022 5.55506 12.4022 5.55506C12.2881 5.57644 12.2424 5.5365 12.1212 5.5365C11.9999 5.5365 11.9766 5.62045 12.0256 5.66629C12.0804 5.71767 12.2795 5.6834 12.3322 5.67342C12.385 5.66344 12.452 5.66292 12.4573 5.70004C12.462 5.73333 12.3736 5.73154 12.311 5.72911C12.2113 5.72526 12.0662 5.75231 11.9372 5.75897C11.8296 5.7645 11.8146 5.73422 11.7902 5.70314C11.7959 5.69283 11.7992 5.68129 11.7992 5.66911C11.7992 5.66292 11.7982 5.65701 11.7966 5.65125C11.8048 5.64234 11.8133 5.62809 11.8172 5.60494C11.8172 5.60494 11.7897 5.60011 11.7689 5.61061C11.7523 5.59748 11.7302 5.58928 11.7058 5.58928C11.6814 5.58928 11.6593 5.59748 11.6427 5.61061C11.6219 5.60011 11.5944 5.60494 11.5944 5.60494C11.5983 5.62809 11.6068 5.64234 11.615 5.65125C11.6134 5.65701 11.6124 5.66297 11.6124 5.66911C11.6124 5.69151 11.6232 5.71172 11.6406 5.72625C11.649 5.73323 11.6552 5.74251 11.6573 5.7532L11.6603 5.76839C11.6616 5.77504 11.6659 5.78025 11.6714 5.78348C11.5828 5.77434 11.5409 5.71865 11.5193 5.68767C11.4951 5.65275 11.4799 5.57545 11.4428 5.56692L11.4209 5.6834C11.4209 5.6834 11.4678 5.79178 11.555 5.83603C11.6534 5.88595 11.6719 5.88735 11.7043 5.90165C11.7081 5.91876 11.6434 5.92921 11.5778 5.9159C11.532 5.90662 11.4703 5.84011 11.4351 5.84484L11.4761 5.93587C11.5874 6.00623 11.6846 6.00773 11.768 5.99292C11.827 5.98246 11.8494 5.93446 11.8533 5.91393C11.8773 5.90948 11.9036 5.90446 11.9848 5.88454C12.0189 5.8762 12.0581 5.87175 12.0971 5.86996C12.1081 5.89504 12.1332 5.9272 12.2197 5.9302C12.2197 5.9302 12.2406 5.96348 12.1693 5.95682C12.098 5.95017 12.0797 5.92795 12.0379 5.93268L12.0752 6.02146C12.0752 6.02146 12.1665 5.9901 12.2787 6.00149C12.2787 6.00149 12.2996 6.00721 12.3119 5.98912C12.3243 5.97107 12.3186 5.96057 12.3072 5.94445C12.3008 5.93535 12.2971 5.90582 12.2951 5.88173C12.3362 5.89204 12.4623 5.8665 12.5079 5.87029C12.5535 5.87409 12.5602 5.92734 12.5497 5.94543C12.5393 5.96348 12.4437 5.94806 12.4437 5.94806L12.4758 6.03576C12.4758 6.03576 12.4854 6.03112 12.5098 6.0082C12.5296 5.98954 12.6106 5.99582 12.6106 5.98157V5.81906C12.6106 5.81132 12.6039 5.80537 12.5962 5.80603C12.4174 5.82164 12.3808 5.79182 12.3808 5.79182Z" fill="#FFE15A"/>
<path d="M11.668 5.73401C11.6706 5.73926 11.6727 5.74498 11.6737 5.75098L11.6764 5.76616C11.6773 5.77151 11.6816 5.77535 11.6864 5.77535H11.7279C11.7327 5.77535 11.7369 5.77151 11.7379 5.76616L11.7405 5.75098C11.7416 5.74498 11.7436 5.73926 11.7463 5.73401H11.668Z" fill="#FF4B55"/>
<path d="M11.7075 5.76404C11.698 5.76404 11.6905 5.76521 11.6915 5.77852L11.6953 5.83533C11.696 5.84405 11.7012 5.85062 11.7075 5.85062C11.7137 5.85062 11.719 5.84401 11.7196 5.83533L11.7235 5.77852C11.7245 5.76516 11.7171 5.76404 11.7075 5.76404Z" fill="#82AFFF"/>
</g>
<defs>
<clipPath id="clip0_8615_27547">
<path d="M0 2C0 0.895432 0.895431 0 2 0H21.9998C23.1043 0 23.9998 0.895431 23.9998 2V21.9998C23.9998 23.1043 23.1043 23.9998 21.9998 23.9998H2C0.895432 23.9998 0 23.1043 0 21.9998V2Z" fill="white"/>
</clipPath>
</defs>
</svg>
