<svg width="24" height="24" viewBox="0 0 24 24" fill="none" xmlns="http://www.w3.org/2000/svg">
<g clip-path="url(#clip0_8615_27545)">
<path d="M24.0037 0H0.00390625V8.00008H24.0037V0Z" fill="#464655"/>
<path d="M24.0037 15.9998H0.00390625V23.9998H24.0037V15.9998Z" fill="#73AF00"/>
<path d="M24.0037 8.00012H0.00390625V16.0002H24.0037V8.00012Z" fill="#F5F5F5"/>
<path d="M14.1773 12.2555C14.3103 12.1456 14.3103 11.8542 14.1773 11.7442L0.00390625 0V23.9998L14.1773 12.2555Z" fill="#FF4B55"/>
<path d="M4.69475 10.105L5.13012 11.0494L6.13993 10.801C6.20298 10.7854 6.2552 10.851 6.22609 10.909L5.75922 11.8382L6.58304 12.4727C6.63446 12.5123 6.6158 12.594 6.55229 12.6074L5.53469 12.8217L5.55217 13.8615C5.55325 13.9264 5.47778 13.9627 5.42772 13.9214L4.6257 13.2595L3.82368 13.9215C3.77361 13.9628 3.6981 13.9265 3.69922 13.8615L3.71671 12.8218L2.69911 12.6075C2.63559 12.5941 2.61694 12.5124 2.66836 12.4728L3.49218 11.8382L3.02531 10.909C2.99615 10.851 3.04842 10.7855 3.11146 10.801L4.12128 11.0494L4.55665 10.1051C4.58379 10.046 4.66761 10.046 4.69475 10.105Z" fill="#F5F5F5"/>
</g>
<defs>
<clipPath id="clip0_8615_27545">
<path d="M0 2C0 0.895432 0.895431 0 2 0H21.9998C23.1043 0 23.9998 0.895431 23.9998 2V21.9998C23.9998 23.1043 23.1043 23.9998 21.9998 23.9998H2C0.895432 23.9998 0 23.1043 0 21.9998V2Z" fill="white"/>
</clipPath>
</defs>
</svg>
