<svg width="24" height="24" viewBox="0 0 24 24" fill="none" xmlns="http://www.w3.org/2000/svg">
<g clip-path="url(#clip0_8615_27542)">
<path d="M24.0037 0H0.00390625V23.9998H24.0037V0Z" fill="#82C3D2"/>
<path d="M3.25619 2.25922C3.1954 2.00198 3.18035 1.90715 3.29576 1.79174C3.35205 1.73545 3.35205 1.64428 3.29576 1.58798C3.23946 1.53168 3.14829 1.53168 3.09199 1.58798C2.85832 1.82165 2.91406 2.06422 2.97457 2.32096C2.7904 2.26077 2.59943 2.30539 2.49701 2.43458C2.4462 2.49903 2.348 2.67973 2.53208 2.9682C2.57487 3.03518 2.66337 3.05487 2.73106 3.0124C2.79818 2.96961 2.81773 2.8804 2.77498 2.81342C2.70589 2.70477 2.70392 2.63778 2.72318 2.61331C2.74596 2.58434 2.81675 2.56911 2.89081 2.59531C2.93867 2.61191 3.04981 2.66933 3.04981 2.84272C3.04981 2.98118 2.98577 3.10812 2.87417 3.19057C2.76228 3.27331 2.61748 3.2967 2.47789 3.25334C2.30548 3.2007 2.1852 3.01915 2.1852 2.81173C2.1852 2.66342 2.21699 2.51338 2.27539 2.38194C2.28467 2.36253 2.50489 1.9063 2.56161 1.73629C2.67378 1.39997 2.55978 1.2308 2.48197 1.16016C2.37781 1.06533 2.2257 1.04166 2.09469 1.09908C2.07482 1.10789 2.05836 1.12069 2.04107 1.13259C2.02377 1.12069 2.00732 1.10789 1.98744 1.09908C1.85657 1.04166 1.70446 1.06528 1.60016 1.16016C1.52235 1.2308 1.40835 1.39997 1.52052 1.73629C1.57724 1.9063 1.79746 2.36249 1.80477 2.37772C1.86515 2.51338 1.89693 2.66337 1.89693 2.81173C1.89693 3.01915 1.7766 3.2007 1.60424 3.25334C1.46423 3.2967 1.31985 3.27359 1.20796 3.19057C1.09636 3.10812 1.03233 2.98118 1.03233 2.84272C1.03233 2.66933 1.14351 2.61195 1.19132 2.59531C1.26562 2.56916 1.33598 2.58434 1.35895 2.61331C1.37821 2.63778 1.37624 2.70477 1.30715 2.81342C1.26435 2.8804 1.28395 2.96961 1.35107 3.0124C1.41876 3.0552 1.50754 3.03518 1.55005 2.9682C1.73413 2.67973 1.63588 2.49903 1.58512 2.43458C1.4827 2.30539 1.29173 2.26077 1.10756 2.32096C1.16807 2.06422 1.22381 1.82165 0.990138 1.58798C0.933842 1.53168 0.842671 1.53168 0.786375 1.58798C0.730078 1.64428 0.730078 1.73545 0.786375 1.79174C0.90178 1.90715 0.886733 2.00198 0.825937 2.25922C0.789468 2.41344 0.744187 2.60567 0.744187 2.84267C0.744187 3.0004 0.799593 3.15115 0.89292 3.27499H0.88828C0.80864 3.27499 0.744187 3.33945 0.744187 3.41909C0.744187 3.49873 0.80864 3.56318 0.88828 3.56318H0.89292C0.79964 3.68702 0.744187 3.83777 0.744187 3.9955C0.744187 4.2325 0.789515 4.42473 0.825937 4.57895C0.886733 4.8362 0.90178 4.93102 0.786375 5.04643C0.730078 5.10273 0.730078 5.1939 0.786375 5.25019C0.814499 5.27832 0.85139 5.29243 0.88828 5.29243C0.92517 5.29243 0.962013 5.27836 0.990185 5.25019C1.22385 5.01652 1.16812 4.7739 1.10761 4.51722C1.29178 4.57717 1.48274 4.53278 1.58516 4.40359C1.63598 4.33914 1.73418 4.15844 1.5501 3.86997C1.50745 3.80299 1.41838 3.78302 1.35112 3.82577C1.28399 3.86857 1.26445 3.95777 1.3072 4.02475C1.37629 4.13341 1.37826 4.20039 1.35899 4.22486C1.33607 4.25355 1.26571 4.26878 1.19137 4.24286C1.14351 4.22627 1.03237 4.16884 1.03237 3.99546C1.03237 3.85699 1.0964 3.73005 1.20801 3.6476C1.3199 3.56487 1.46456 3.54119 1.60429 3.58483C1.77669 3.63747 1.89697 3.81902 1.89697 4.02644C1.89697 4.17475 1.86519 4.3248 1.80482 4.46045L0.861093 6.58363C0.783562 6.75815 0.744141 6.94358 0.744141 7.13469C0.744141 7.38055 0.855936 7.60508 1.03186 7.74204C0.855936 7.87906 0.744141 8.10354 0.744141 8.3494C0.744141 8.5405 0.783562 8.72599 0.861093 8.90045L1.80477 11.0237C1.86515 11.1593 1.89693 11.3093 1.89693 11.4577C1.89693 11.6651 1.7766 11.8467 1.60424 11.8993C1.46423 11.9429 1.31985 11.9195 1.20796 11.8365C1.09636 11.7541 1.03233 11.6271 1.03233 11.4887C1.03233 11.3153 1.14351 11.2579 1.19132 11.2413C1.26562 11.2154 1.33598 11.2303 1.35895 11.2593C1.37821 11.2837 1.37624 11.3507 1.30715 11.4594C1.26435 11.5264 1.28395 11.6156 1.35107 11.6584C1.41876 11.7012 1.50754 11.6814 1.55005 11.6142C1.73413 11.3257 1.63588 11.145 1.58512 11.0805C1.4827 10.9514 1.29173 10.907 1.10756 10.9669C1.16807 10.7102 1.22381 10.4676 0.990138 10.2339C0.933842 10.1776 0.842671 10.1776 0.786375 10.2339C0.730078 10.2902 0.730078 10.3814 0.786375 10.4377C0.90178 10.5531 0.886733 10.6479 0.825937 10.9052C0.789468 11.0594 0.744187 11.2516 0.744187 11.4886C0.744187 11.6464 0.799593 11.7971 0.89292 11.921H0.88828C0.80864 11.921 0.744187 11.9854 0.744187 12.065C0.744187 12.1447 0.80864 12.2091 0.88828 12.2091H0.89292C0.79964 12.333 0.744187 12.4837 0.744187 12.6415C0.744187 12.8785 0.789515 13.0706 0.825937 13.2249C0.886733 13.4822 0.90178 13.577 0.786375 13.6924C0.730078 13.7487 0.730078 13.8399 0.786375 13.8962C0.814499 13.9243 0.85139 13.9384 0.88828 13.9384C0.92517 13.9384 0.962013 13.9243 0.990185 13.8962C1.22385 13.6625 1.16812 13.4199 1.10761 13.1632C1.29178 13.2231 1.48274 13.1787 1.58516 13.0496C1.63598 12.9851 1.73418 12.8044 1.5501 12.5159C1.50745 12.449 1.41838 12.429 1.35112 12.4717C1.28399 12.5145 1.26445 12.6037 1.3072 12.6707C1.37629 12.7794 1.37826 12.8464 1.35899 12.8708C1.33607 12.8998 1.26571 12.915 1.19137 12.8888C1.14351 12.8722 1.03237 12.8148 1.03237 12.6414C1.03237 12.503 1.0964 12.376 1.20801 12.2936C1.3199 12.2108 1.46456 12.1872 1.60429 12.2308C1.77669 12.2834 1.89697 12.465 1.89697 12.6724C1.89697 12.8207 1.86519 12.9708 1.80482 13.1064L0.861139 15.2296C0.783609 15.4042 0.744187 15.5896 0.744187 15.7807C0.744187 16.0266 0.855983 16.2511 1.0319 16.3881C0.855983 16.5251 0.744187 16.7496 0.744187 16.9954C0.744187 17.1865 0.783609 17.372 0.861139 17.5465L1.80482 19.6697C1.86519 19.8053 1.89697 19.9553 1.89697 20.1037C1.89697 20.3111 1.77665 20.4927 1.60429 20.5453C1.46427 20.5889 1.3199 20.5653 1.20801 20.4825C1.0964 20.4001 1.03237 20.2732 1.03237 20.1347C1.03237 19.9613 1.14356 19.9039 1.19137 19.8873C1.26567 19.8614 1.33603 19.8763 1.35899 19.9053C1.37826 19.9298 1.37629 19.9967 1.3072 20.1054C1.2644 20.1724 1.28399 20.2616 1.35112 20.3044C1.41881 20.3472 1.50759 20.3274 1.5501 20.2602C1.73418 19.9717 1.63593 19.791 1.58516 19.7266C1.48274 19.5971 1.29178 19.5527 1.10761 19.6129C1.16812 19.3562 1.22385 19.1136 0.990185 18.8799C0.933889 18.8237 0.842718 18.8237 0.786421 18.8799C0.730125 18.9362 0.730125 19.0274 0.786421 19.0837C0.901827 19.1991 0.88678 19.2939 0.825984 19.5512C0.789515 19.7054 0.744234 19.8976 0.744234 20.1346C0.744234 20.3605 0.852468 20.5755 1.03336 20.7111C0.852468 20.8466 0.744234 21.0616 0.744234 21.2875C0.744234 21.5245 0.789562 21.7167 0.825984 21.8709C0.88678 22.1282 0.901827 22.223 0.786421 22.3384C0.730125 22.3947 0.730125 22.4859 0.786421 22.5422C0.814546 22.5703 0.851436 22.5844 0.888327 22.5844C0.925217 22.5844 0.96206 22.5703 0.990232 22.5422C1.2239 22.3085 1.16817 22.0659 1.10765 21.8092C1.29182 21.8691 1.48279 21.8248 1.58521 21.6956C1.63602 21.6311 1.73422 21.4504 1.55015 21.1619C1.50749 21.095 1.41843 21.0753 1.35117 21.1177C1.28404 21.1605 1.26449 21.2497 1.30724 21.3167C1.37634 21.4254 1.37831 21.4924 1.35904 21.5168C1.33612 21.5458 1.26576 21.5608 1.19142 21.5348C1.14356 21.5182 1.03242 21.4608 1.03242 21.2874C1.03242 21.149 1.09645 21.022 1.20806 20.9396C1.31995 20.8568 1.4646 20.8334 1.60434 20.8768C1.77674 20.9294 1.89702 21.111 1.89702 21.3184C1.89702 21.4667 1.86524 21.6168 1.80683 21.7482C1.79755 21.7676 1.57734 22.2238 1.52062 22.3939C1.40845 22.7302 1.52245 22.8993 1.60026 22.97C1.66682 23.0305 1.75251 23.0623 1.84007 23.0623C1.88975 23.0623 1.94014 23.0519 1.98753 23.0311C2.00741 23.0223 2.02386 23.0095 2.04116 22.9976C2.05846 23.0095 2.07491 23.0223 2.09478 23.0311C2.14222 23.0519 2.19256 23.0623 2.24225 23.0623C2.32963 23.0623 2.4155 23.0305 2.48206 22.97C2.55987 22.8993 2.67387 22.7302 2.5617 22.3939C2.50498 22.2238 2.28477 21.7677 2.27745 21.7524C2.21708 21.6168 2.1853 21.4668 2.1853 21.3184C2.1853 21.111 2.30563 20.9294 2.47798 20.8768C2.61814 20.8334 2.76237 20.8568 2.87426 20.9396C2.98587 21.022 3.0499 21.149 3.0499 21.2874C3.0499 21.4608 2.93871 21.5182 2.8909 21.5348C2.81689 21.5607 2.74611 21.5458 2.72328 21.5168C2.70401 21.4924 2.70598 21.4254 2.77507 21.3167C2.81787 21.2497 2.79828 21.1605 2.73115 21.1177C2.66389 21.0755 2.57511 21.0952 2.53217 21.1619C2.34809 21.4504 2.44634 21.6311 2.49711 21.6956C2.59953 21.8248 2.7905 21.8691 2.97467 21.8092C2.91415 22.0659 2.85842 22.3085 3.09209 22.5422C3.12021 22.5703 3.1571 22.5844 3.19399 22.5844C3.23088 22.5844 3.26773 22.5703 3.2959 22.5422C3.35219 22.4859 3.35219 22.3947 3.2959 22.3384C3.18049 22.223 3.19554 22.1282 3.25633 21.8709C3.2928 21.7167 3.33808 21.5245 3.33808 21.2875C3.33808 21.0616 3.22985 20.8466 3.04896 20.7111C3.22985 20.5755 3.33808 20.3605 3.33808 20.1346C3.33808 19.8976 3.29276 19.7055 3.25633 19.5512C3.19554 19.2939 3.18049 19.1991 3.2959 19.0837C3.35219 19.0274 3.35219 18.9362 3.2959 18.8799C3.2396 18.8237 3.14843 18.8237 3.09213 18.8799C2.85846 19.1136 2.9142 19.3562 2.97471 19.6129C2.79054 19.5527 2.59958 19.5971 2.49715 19.7266C2.44634 19.791 2.34814 19.9717 2.53222 20.2602C2.57501 20.3272 2.66351 20.3468 2.7312 20.3044C2.79832 20.2616 2.81787 20.1724 2.77512 20.1054C2.70603 19.9967 2.70406 19.9298 2.72332 19.9053C2.74611 19.8763 2.81689 19.8614 2.89095 19.8873C2.93881 19.9039 3.04995 19.9613 3.04995 20.1347C3.04995 20.2732 2.98592 20.4001 2.87431 20.4825C2.76242 20.5653 2.61762 20.5889 2.47803 20.5453C2.30563 20.4927 2.18535 20.3111 2.18535 20.1037C2.18535 19.9554 2.21713 19.8053 2.2775 19.6697L3.22118 17.5465C3.29871 17.372 3.33813 17.1865 3.33813 16.9954C3.33813 16.7496 3.22634 16.525 3.05042 16.3881C3.22634 16.251 3.33813 16.0266 3.33813 15.7807C3.33813 15.5896 3.29871 15.4041 3.22118 15.2296L2.2775 13.1064C2.21713 12.9708 2.18535 12.8208 2.18535 12.6724C2.18535 12.465 2.30567 12.2834 2.47803 12.2308C2.61818 12.1874 2.76242 12.2108 2.87431 12.2936C2.98592 12.376 3.04995 12.503 3.04995 12.6414C3.04995 12.8148 2.93876 12.8722 2.89095 12.8888C2.81693 12.915 2.74615 12.8998 2.72332 12.8708C2.70406 12.8464 2.70603 12.7794 2.77512 12.6707C2.81792 12.6037 2.79832 12.5145 2.7312 12.4717C2.66393 12.4295 2.57515 12.4492 2.53222 12.5159C2.34814 12.8044 2.44639 12.9851 2.49715 13.0496C2.59958 13.1787 2.79054 13.2231 2.97471 13.1632C2.9142 13.4199 2.85846 13.6625 3.09213 13.8962C3.12026 13.9243 3.15715 13.9384 3.19404 13.9384C3.23093 13.9384 3.26777 13.9243 3.29594 13.8962C3.35224 13.8399 3.35224 13.7487 3.29594 13.6924C3.18054 13.577 3.19559 13.4822 3.25638 13.2249C3.29285 13.0707 3.33813 12.8785 3.33813 12.6415C3.33813 12.4837 3.28273 12.333 3.1894 12.2091H3.19404C3.27368 12.2091 3.33813 12.1447 3.33813 12.065C3.33813 11.9854 3.27368 11.921 3.19404 11.921H3.1894C3.28268 11.7971 3.33813 11.6464 3.33813 11.4886C3.33813 11.2516 3.2928 11.0594 3.25638 10.9052C3.19559 10.6479 3.18054 10.5531 3.29594 10.4377C3.35224 10.3814 3.35224 10.2902 3.29594 10.2339C3.23965 10.1776 3.14848 10.1776 3.09218 10.2339C2.85851 10.4676 2.91424 10.7102 2.97476 10.9669C2.79059 10.907 2.59962 10.9514 2.4972 11.0805C2.44639 11.145 2.34819 11.3257 2.53226 11.6142C2.57506 11.6811 2.66356 11.7006 2.73125 11.6584C2.79837 11.6156 2.81792 11.5264 2.77517 11.4594C2.70607 11.3507 2.70411 11.2837 2.72337 11.2593C2.74615 11.2303 2.81693 11.2154 2.89099 11.2413C2.93885 11.2579 3.04999 11.3153 3.04999 11.4887C3.04999 11.6271 2.98596 11.7541 2.87435 11.8365C2.76246 11.9193 2.61767 11.9427 2.47808 11.8993C2.30567 11.8467 2.18539 11.6651 2.18539 11.4577C2.18539 11.3094 2.21717 11.1593 2.27755 11.0237L3.22123 8.90045C3.29876 8.72594 3.33818 8.5405 3.33818 8.3494C3.33818 8.10354 3.22638 7.87901 3.05046 7.74204C3.22638 7.60503 3.33818 7.38055 3.33818 7.13469C3.33818 6.94358 3.29876 6.7581 3.22123 6.58363L2.27731 4.4604C2.21694 4.32475 2.18516 4.17475 2.18516 4.02639C2.18516 3.81897 2.30548 3.63743 2.47784 3.58479C2.618 3.54143 2.76223 3.56482 2.87412 3.64755C2.98573 3.73001 3.04976 3.85694 3.04976 3.99541C3.04976 4.1688 2.93857 4.22622 2.89076 4.24281C2.81675 4.26869 2.74597 4.2535 2.72314 4.22481C2.70387 4.20034 2.70584 4.13336 2.77493 4.02471C2.81773 3.95772 2.79814 3.86852 2.73101 3.82572C2.66375 3.78349 2.57497 3.80294 2.53203 3.86993C2.34795 4.15839 2.4462 4.33909 2.49697 4.40355C2.59939 4.53273 2.79035 4.57712 2.97453 4.51717C2.91401 4.77385 2.85828 5.01648 3.09195 5.25015C3.12007 5.27827 3.15696 5.29238 3.19385 5.29238C3.23074 5.29238 3.26758 5.27832 3.29576 5.25015C3.35205 5.19385 3.35205 5.10268 3.29576 5.04638C3.18035 4.93098 3.1954 4.83615 3.25619 4.5789C3.29266 4.42469 3.33794 4.23245 3.33794 3.99546C3.33794 3.83772 3.28254 3.68697 3.18921 3.56313H3.19385C3.27349 3.56313 3.33794 3.49868 3.33794 3.41904C3.33794 3.3394 3.27349 3.27495 3.19385 3.27495H3.18921C3.28249 3.1511 3.33794 3.00036 3.33794 2.84262C3.33794 2.60567 3.29266 2.41344 3.25619 2.25922ZM1.7938 1.64507C1.74257 1.49142 1.76043 1.40386 1.79422 1.3732C1.8163 1.35239 1.84982 1.35323 1.87091 1.36279C1.89693 1.37433 1.89693 1.39261 1.89693 1.40165C1.89693 1.48129 1.96138 1.54575 2.04102 1.54575C2.12066 1.54575 2.18511 1.48129 2.18511 1.40165C2.18511 1.39265 2.18511 1.37437 2.21113 1.36279C2.23194 1.35323 2.26517 1.35239 2.28781 1.3732C2.32161 1.40386 2.33947 1.49142 2.28823 1.64507C2.25097 1.75654 2.11611 2.04651 2.04102 2.20396C1.96761 2.05021 1.83135 1.75729 1.7938 1.64507ZM2.04107 7.59092C2.08246 7.64717 2.12919 7.69944 2.1861 7.74204C2.12919 7.7847 2.08246 7.83692 2.04107 7.89317C1.99968 7.83692 1.95294 7.78465 1.89604 7.74204C1.95289 7.69944 1.99968 7.64717 2.04107 7.59092ZM2.04107 16.237C2.08246 16.2932 2.12919 16.3455 2.1861 16.3881C2.12919 16.4308 2.08246 16.483 2.04107 16.5392C1.99968 16.483 1.95294 16.4307 1.89604 16.3881C1.95289 16.3455 1.99968 16.2932 2.04107 16.237ZM2.28828 22.4851C2.33952 22.6388 2.32166 22.7263 2.28786 22.757C2.26522 22.7775 2.23199 22.7767 2.21117 22.7674C2.18516 22.7559 2.18516 22.7376 2.18516 22.7285C2.18516 22.6489 2.12071 22.5844 2.04107 22.5844C1.96143 22.5844 1.89697 22.6489 1.89697 22.7285C1.89697 22.7375 1.89697 22.7558 1.87096 22.7674C1.84986 22.7767 1.81635 22.7775 1.79427 22.757C1.76047 22.7263 1.74262 22.6388 1.79385 22.4851C1.83111 22.3737 1.96597 22.0837 2.04107 21.9262C2.11447 22.08 2.25074 22.3729 2.28828 22.4851ZM2.18469 20.7112C2.13013 20.7536 2.0818 20.8044 2.04107 20.8618C2.00033 20.8044 1.952 20.7536 1.89744 20.7112C1.952 20.6687 2.00033 20.6179 2.04107 20.5605C2.08175 20.6179 2.13013 20.6687 2.18469 20.7112ZM2.95756 17.4295L2.04102 19.4916L1.12453 17.4295C1.06415 17.2938 1.03237 17.1438 1.03237 16.9955C1.03237 16.788 1.1527 16.6065 1.32506 16.5538C1.46507 16.5105 1.60959 16.5339 1.72133 16.6166C1.83294 16.6991 1.89697 16.826 1.89697 16.9645C1.89697 17.1379 1.78579 17.1952 1.73797 17.2119C1.66368 17.2377 1.59304 17.2228 1.57035 17.1939C1.55109 17.1694 1.55305 17.1024 1.62215 16.9938C1.66494 16.9268 1.64535 16.8376 1.57823 16.7948C1.51096 16.7526 1.42218 16.7723 1.37924 16.839C1.19517 17.1275 1.29342 17.3082 1.34418 17.3726C1.44848 17.5043 1.64479 17.5497 1.83247 17.4841C1.8539 17.4767 1.8755 17.4675 1.89693 17.4566V17.8211C1.89688 17.821 1.89669 17.8209 1.89669 17.8209C1.89229 17.745 1.82952 17.6851 1.75283 17.6851C1.67319 17.6851 1.60874 17.7495 1.60874 17.8292C1.60874 17.9231 1.67446 18.0862 1.89693 18.1367V18.4056C1.89693 18.4852 1.96138 18.5497 2.04102 18.5497C2.12066 18.5497 2.18511 18.4852 2.18511 18.4056V18.1367C2.40758 18.0862 2.4733 17.9231 2.4733 17.8292C2.4733 17.7495 2.40898 17.6803 2.32948 17.6803C2.24984 17.6803 2.18567 17.74 2.18567 17.8196C2.18563 17.8199 2.18516 17.8202 2.18511 17.8204V17.4567C2.20653 17.4675 2.22814 17.4767 2.24956 17.4841C2.4373 17.5497 2.63347 17.5044 2.73786 17.3727C2.78867 17.3082 2.88687 17.1275 2.70279 16.839C2.66 16.772 2.57108 16.7524 2.50381 16.7948C2.43669 16.8376 2.41714 16.9268 2.45989 16.9938C2.52898 17.1025 2.53095 17.1695 2.51169 17.1939C2.4889 17.2229 2.41826 17.2378 2.34406 17.2119C2.2962 17.1953 2.18506 17.1379 2.18506 16.9645C2.18506 16.826 2.24909 16.6991 2.3607 16.6167C2.47259 16.5339 2.61739 16.5103 2.75698 16.5539C2.92938 16.6065 3.04966 16.7881 3.04966 16.9955C3.04976 17.1438 3.01793 17.2938 2.95756 17.4295ZM2.95756 15.3468C3.01793 15.4824 3.04971 15.6324 3.04971 15.7808C3.04971 15.9882 2.92938 16.1698 2.75703 16.2224C2.61715 16.266 2.4725 16.2424 2.36075 16.1596C2.24914 16.0772 2.18511 15.9502 2.18511 15.8118C2.18511 15.6384 2.2963 15.581 2.34411 15.5644C2.41826 15.5385 2.4889 15.5534 2.51173 15.5824C2.531 15.6068 2.52903 15.6738 2.45994 15.7825C2.41714 15.8495 2.43673 15.9387 2.50386 15.9815C2.57154 16.0243 2.66032 16.0045 2.70284 15.9373C2.88692 15.6488 2.78867 15.4681 2.7379 15.4036C2.63347 15.2719 2.4373 15.2272 2.24961 15.2922C2.22819 15.2996 2.20658 15.3088 2.18516 15.3196V14.9551L2.18544 14.9555C2.1898 15.0312 2.25256 15.0912 2.32925 15.0912C2.40889 15.0912 2.47334 15.0267 2.47334 14.9471C2.47334 14.8531 2.40762 14.6901 2.18516 14.6395V14.3707C2.18516 14.291 2.12071 14.2266 2.04107 14.2266C1.96143 14.2266 1.89697 14.291 1.89697 14.3707V14.6395C1.67451 14.6901 1.60879 14.8531 1.60879 14.9471C1.60879 15.0267 1.6731 15.096 1.7526 15.096C1.83224 15.096 1.89641 15.0363 1.89641 14.9566C1.89646 14.9564 1.89693 14.9561 1.89693 14.9561L1.89697 15.3196C1.87555 15.3087 1.85394 15.2995 1.83252 15.2921C1.64479 15.2271 1.44848 15.2719 1.34423 15.4036C1.29342 15.468 1.19521 15.6487 1.37929 15.9372C1.42209 16.0042 1.51101 16.0236 1.57827 15.9814C1.6454 15.9386 1.66494 15.8494 1.62219 15.7824C1.5531 15.6738 1.55113 15.6068 1.5704 15.5823C1.59304 15.5534 1.66368 15.5384 1.73802 15.5643C1.78588 15.5809 1.89702 15.6383 1.89702 15.8117C1.89702 15.9502 1.83299 16.0771 1.72138 16.1596C1.60949 16.2423 1.46498 16.266 1.3251 16.2224C1.1527 16.1697 1.03242 15.9882 1.03242 15.7807C1.03242 15.6324 1.0642 15.4824 1.12457 15.3467L2.04111 13.2846L2.95756 15.3468ZM2.18469 12.0651C2.13013 12.1076 2.0818 12.1583 2.04107 12.2158C2.00033 12.1583 1.952 12.1076 1.89744 12.0651C1.952 12.0226 2.00033 11.9719 2.04107 11.9144C2.08175 11.9719 2.13013 12.0226 2.18469 12.0651ZM2.95756 8.78341L2.04102 10.8455L1.12448 8.78341C1.06411 8.64775 1.03233 8.49776 1.03233 8.3494C1.03233 8.14198 1.15265 7.96043 1.32501 7.90779C1.46502 7.86443 1.60954 7.88782 1.72129 7.97056C1.8329 8.05301 1.89693 8.17995 1.89693 8.31841C1.89693 8.4918 1.78574 8.54918 1.73793 8.56582C1.66363 8.59197 1.59299 8.57679 1.5703 8.54782C1.55104 8.52335 1.55301 8.45637 1.6221 8.34771C1.6649 8.28073 1.6453 8.19152 1.57818 8.14873C1.51091 8.10621 1.42213 8.12595 1.3792 8.19293C1.19512 8.4814 1.29337 8.6621 1.34413 8.72655C1.44843 8.85827 1.64474 8.90331 1.83243 8.83802C1.85385 8.83061 1.87546 8.82142 1.89688 8.81055V9.17505L1.8966 9.17467C1.89224 9.09897 1.82947 9.03902 1.75279 9.03902C1.67315 9.03902 1.60869 9.10347 1.60869 9.18311C1.60869 9.27709 1.67441 9.44012 1.89688 9.49065V9.75952C1.89688 9.83916 1.96133 9.90362 2.04097 9.90362C2.12061 9.90362 2.18506 9.83916 2.18506 9.75952V9.49065C2.40753 9.44012 2.47325 9.27709 2.47325 9.18311C2.47325 9.10347 2.40894 9.03423 2.32944 9.03423C2.2498 9.03423 2.18563 9.09391 2.18563 9.17355C2.18558 9.17383 2.18511 9.17411 2.18511 9.17411L2.18502 8.8106C2.20644 8.82147 2.22805 8.83066 2.24947 8.83806C2.4372 8.90336 2.63337 8.85831 2.73776 8.7266C2.78857 8.66215 2.88678 8.48144 2.7027 8.19298C2.6599 8.12571 2.57098 8.10602 2.50372 8.14877C2.43659 8.19157 2.41705 8.28077 2.4598 8.34776C2.52889 8.45641 2.53086 8.5234 2.51159 8.54786C2.48881 8.57683 2.41817 8.59207 2.34397 8.56586C2.29611 8.54927 2.18497 8.49185 2.18497 8.31846C2.18497 8.17999 2.249 8.05306 2.36061 7.9706C2.4725 7.88787 2.61729 7.86448 2.75689 7.90784C2.92929 7.96048 3.04957 8.14202 3.04957 8.34944C3.04976 8.49776 3.01793 8.64775 2.95756 8.78341ZM2.95756 6.70073C3.01793 6.83638 3.04971 6.98638 3.04971 7.13474C3.04971 7.34216 2.92938 7.5237 2.75703 7.57634C2.61715 7.61998 2.4725 7.59631 2.36075 7.51358C2.24914 7.43113 2.18511 7.30419 2.18511 7.16572C2.18511 6.99233 2.2963 6.93496 2.34411 6.91832C2.41826 6.89244 2.4889 6.90735 2.51173 6.93632C2.531 6.96079 2.52903 7.02777 2.45994 7.13643C2.41714 7.20341 2.43673 7.29261 2.50386 7.33541C2.57154 7.37792 2.66032 7.35847 2.70284 7.2912C2.88692 7.00274 2.78867 6.82204 2.7379 6.75758C2.63347 6.62587 2.4373 6.58082 2.24961 6.64612C2.22819 6.65352 2.20658 6.66271 2.18516 6.67359V6.30909C2.1852 6.30918 2.18539 6.30932 2.18539 6.30932C2.1898 6.38517 2.25256 6.44512 2.32925 6.44512C2.40889 6.44512 2.47334 6.38067 2.47334 6.30103C2.47334 6.20704 2.40762 6.04401 2.18516 5.99348V5.72461C2.18516 5.64497 2.12071 5.58052 2.04107 5.58052C1.96143 5.58052 1.89697 5.64497 1.89697 5.72461V5.99348C1.67451 6.04401 1.60879 6.20704 1.60879 6.30103C1.60879 6.38067 1.6731 6.4499 1.7526 6.4499C1.83224 6.4499 1.89641 6.39023 1.89641 6.31059C1.89646 6.31031 1.89693 6.31003 1.89697 6.30975V6.67354C1.87555 6.66266 1.85394 6.65348 1.83252 6.64607C1.64479 6.58077 1.44848 6.62582 1.34423 6.75754C1.29342 6.82199 1.19521 7.00269 1.37929 7.29116C1.42209 7.35814 1.51101 7.37755 1.57827 7.33536C1.6454 7.29256 1.66494 7.20336 1.62219 7.13638C1.5531 7.02772 1.55113 6.96074 1.5704 6.93627C1.59304 6.9073 1.66368 6.89235 1.73802 6.91827C1.78588 6.93486 1.89702 6.99229 1.89702 7.16568C1.89702 7.30414 1.83299 7.43108 1.72138 7.51353C1.60949 7.59626 1.46498 7.61994 1.3251 7.5763C1.1527 7.52366 1.03242 7.34211 1.03242 7.13469C1.03242 6.98638 1.0642 6.83633 1.12457 6.70068L2.04111 4.63857L2.95756 6.70073ZM1.89744 3.41904C1.952 3.37657 2.00033 3.32581 2.04107 3.26838C2.0818 3.32581 2.13013 3.37657 2.18469 3.41904C2.13013 3.46151 2.0818 3.51227 2.04107 3.56969C2.00033 3.51227 1.95196 3.46151 1.89744 3.41904Z" fill="#FFE15A"/>
<path d="M12.6711 13.4165C14.182 13.4165 15.4067 12.1917 15.4067 10.6809C15.4067 9.17008 14.182 7.94531 12.6711 7.94531C11.1603 7.94531 9.93555 9.17008 9.93555 10.6809C9.93555 12.1917 11.1603 13.4165 12.6711 13.4165Z" fill="#FFE15A"/>
<path d="M12.8762 7.19258C12.8762 7.30588 12.7843 7.39775 12.671 7.39775C12.5577 7.39775 12.4658 7.30588 12.4658 7.19258C12.4658 7.07929 12.671 6.57703 12.671 6.57703C12.671 6.57703 12.8762 7.07929 12.8762 7.19258Z" fill="#FFE15A"/>
<path d="M12.4658 14.1688C12.4658 14.0555 12.5577 13.9636 12.671 13.9636C12.7843 13.9636 12.8762 14.0555 12.8762 14.1688C12.8762 14.2821 12.671 14.7843 12.671 14.7843C12.671 14.7843 12.4658 14.2821 12.4658 14.1688Z" fill="#FFE15A"/>
<path d="M16.1583 10.8859C16.045 10.8859 15.9531 10.7941 15.9531 10.6808C15.9531 10.5675 16.045 10.4756 16.1583 10.4756C16.2716 10.4756 16.7739 10.6808 16.7739 10.6808C16.7739 10.6808 16.2716 10.8859 16.1583 10.8859Z" fill="#FFE15A"/>
<path d="M9.18294 10.4756C9.29624 10.4756 9.38811 10.5675 9.38811 10.6808C9.38811 10.7941 9.29624 10.8859 9.18294 10.8859C9.06964 10.8859 8.56738 10.6808 8.56738 10.6808C8.56738 10.6808 9.06964 10.4756 9.18294 10.4756Z" fill="#FFE15A"/>
<path d="M15.2819 8.35936C15.2018 8.43947 15.0718 8.43947 14.9917 8.35936C14.9116 8.27925 14.9116 8.14931 14.9917 8.06921C15.0718 7.9891 15.5721 7.77905 15.5721 7.77905C15.5721 7.77905 15.362 8.2792 15.2819 8.35936Z" fill="#FFE15A"/>
<path d="M10.0588 13.0021C10.1389 12.922 10.2688 12.922 10.3489 13.0021C10.429 13.0822 10.429 13.2121 10.3489 13.2923C10.2688 13.3724 9.76855 13.5824 9.76855 13.5824C9.76855 13.5824 9.97865 13.0822 10.0588 13.0021Z" fill="#FFE15A"/>
<path d="M14.9917 13.2923C14.9116 13.2121 14.9116 13.0822 14.9917 13.0021C15.0718 12.922 15.2018 12.922 15.2819 13.0021C15.362 13.0822 15.572 13.5825 15.572 13.5825C15.572 13.5825 15.0718 13.3724 14.9917 13.2923Z" fill="#FFE15A"/>
<path d="M10.3489 8.06913C10.429 8.14924 10.429 8.27918 10.3489 8.35928C10.2688 8.43939 10.1388 8.43939 10.0587 8.35928C9.9786 8.27918 9.76855 7.77893 9.76855 7.77893C9.76855 7.77893 10.2688 7.98902 10.3489 8.06913Z" fill="#FFE15A"/>
<path d="M11.5257 7.37969C11.5691 7.48436 11.5194 7.60441 11.4146 7.64777C11.3099 7.69113 11.1899 7.64144 11.1466 7.53672C11.1032 7.43205 11.1006 6.88953 11.1006 6.88953C11.1006 6.88953 11.4823 7.27498 11.5257 7.37969Z" fill="#FFE15A"/>
<path d="M13.8155 13.9817C13.7721 13.8771 13.8218 13.757 13.9265 13.7137C14.0312 13.6703 14.1512 13.72 14.1946 13.8247C14.238 13.9294 14.2406 14.4719 14.2406 14.4719C14.2406 14.4719 13.8588 14.0864 13.8155 13.9817Z" fill="#FFE15A"/>
<path d="M15.9712 9.53546C15.8666 9.57882 15.7465 9.52913 15.7032 9.42441C15.6598 9.31974 15.7095 9.19969 15.8142 9.15634C15.9189 9.11298 16.4614 9.11035 16.4614 9.11035C16.4614 9.11035 16.0759 9.4921 15.9712 9.53546Z" fill="#FFE15A"/>
<path d="M9.37005 11.826C9.47472 11.7826 9.59477 11.8323 9.63813 11.937C9.68148 12.0417 9.6318 12.1617 9.52708 12.2051C9.42241 12.2485 8.87988 12.2511 8.87988 12.2511C8.87988 12.2511 9.26538 11.8693 9.37005 11.826Z" fill="#FFE15A"/>
<path d="M14.1946 7.53672C14.1512 7.64139 14.0312 7.69113 13.9265 7.64777C13.8218 7.60441 13.7721 7.48436 13.8155 7.37969C13.8588 7.27502 14.2406 6.88953 14.2406 6.88953C14.2406 6.88953 14.238 7.43201 14.1946 7.53672Z" fill="#FFE15A"/>
<path d="M11.1466 13.8247C11.1899 13.72 11.31 13.6703 11.4146 13.7137C11.5193 13.757 11.5691 13.8771 11.5257 13.9817C11.4823 14.0864 11.1006 14.4719 11.1006 14.4719C11.1006 14.4719 11.1032 13.9294 11.1466 13.8247Z" fill="#FFE15A"/>
<path d="M15.8142 12.2051C15.7095 12.1617 15.6598 12.0417 15.7032 11.937C15.7465 11.8323 15.8666 11.7826 15.9712 11.826C16.0759 11.8693 16.4614 12.2511 16.4614 12.2511C16.4614 12.2511 15.9189 12.2484 15.8142 12.2051Z" fill="#FFE15A"/>
<path d="M9.52708 9.15634C9.63175 9.19969 9.68148 9.31974 9.63813 9.42441C9.59477 9.52908 9.47472 9.57882 9.37005 9.53546C9.26538 9.4921 8.87988 9.11035 8.87988 9.11035C8.87988 9.11035 9.42236 9.11298 9.52708 9.15634Z" fill="#FFE15A"/>
<path d="M12.1917 7.21967C12.2138 7.33081 12.1416 7.43881 12.0305 7.46094C11.9194 7.48306 11.8114 7.41087 11.7892 7.29973C11.7671 7.18859 11.8704 6.65601 11.8704 6.65601C11.8704 6.65601 12.1696 7.10853 12.1917 7.21967Z" fill="#FFE15A"/>
<path d="M13.1505 14.1417C13.1283 14.0306 13.2005 13.9226 13.3117 13.9005C13.4228 13.8783 13.5308 13.9505 13.5529 14.0617C13.5751 14.1728 13.4718 14.7054 13.4718 14.7054C13.4718 14.7054 13.1726 14.2529 13.1505 14.1417Z" fill="#FFE15A"/>
<path d="M16.132 10.2015C16.0208 10.2236 15.9128 10.1514 15.8907 10.0403C15.8686 9.92913 15.9408 9.82113 16.0519 9.79901C16.163 9.77688 16.6956 9.88015 16.6956 9.88015C16.6956 9.88015 16.2431 10.1794 16.132 10.2015Z" fill="#FFE15A"/>
<path d="M9.20917 11.16C9.32031 11.1379 9.42831 11.2101 9.45044 11.3212C9.47256 11.4323 9.40038 11.5403 9.28924 11.5625C9.1781 11.5846 8.64551 11.4813 8.64551 11.4813C8.64551 11.4813 9.09804 11.1821 9.20917 11.16Z" fill="#FFE15A"/>
<path d="M14.7791 7.89445C14.7162 7.98867 14.5888 8.01403 14.4945 7.95108C14.4003 7.88812 14.375 7.76072 14.4379 7.6665C14.5009 7.57228 14.9505 7.26868 14.9505 7.26868C14.9505 7.26868 14.8421 7.80023 14.7791 7.89445Z" fill="#FFE15A"/>
<path d="M10.562 13.467C10.625 13.3727 10.7524 13.3474 10.8466 13.4103C10.9408 13.4733 10.9662 13.6007 10.9032 13.6949C10.8402 13.7891 10.3906 14.0927 10.3906 14.0927C10.3906 14.0927 10.499 13.5612 10.562 13.467Z" fill="#FFE15A"/>
<path d="M15.4565 12.7891C15.3622 12.7262 15.3369 12.5988 15.3998 12.5045C15.4628 12.4103 15.5902 12.385 15.6844 12.4479C15.7786 12.5109 16.0822 12.9605 16.0822 12.9605C16.0822 12.9605 15.5507 12.8521 15.4565 12.7891Z" fill="#FFE15A"/>
<path d="M9.88456 8.57225C9.97878 8.63521 10.0041 8.76261 9.94119 8.85683C9.87824 8.95105 9.75083 8.97641 9.65661 8.91345C9.5624 8.8505 9.25879 8.40088 9.25879 8.40088C9.25879 8.40088 9.79035 8.5093 9.88456 8.57225Z" fill="#FFE15A"/>
<path d="M10.9032 7.6665C10.9662 7.76072 10.9408 7.88812 10.8466 7.95108C10.7524 8.01403 10.625 7.98867 10.562 7.89445C10.499 7.80023 10.3906 7.26868 10.3906 7.26868C10.3906 7.26868 10.8402 7.57228 10.9032 7.6665Z" fill="#FFE15A"/>
<path d="M14.4379 13.6949C14.375 13.6007 14.4003 13.4733 14.4945 13.4103C14.5888 13.3474 14.7162 13.3727 14.7791 13.467C14.8421 13.5612 14.9505 14.0927 14.9505 14.0927C14.9505 14.0927 14.5009 13.7891 14.4379 13.6949Z" fill="#FFE15A"/>
<path d="M15.6844 8.91345C15.5902 8.97641 15.4628 8.95105 15.3998 8.85683C15.3369 8.76261 15.3622 8.63521 15.4565 8.57225C15.5507 8.5093 16.0822 8.40088 16.0822 8.40088C16.0822 8.40088 15.7786 8.8505 15.6844 8.91345Z" fill="#FFE15A"/>
<path d="M9.65661 12.4479C9.75083 12.385 9.87824 12.4103 9.94119 12.5045C10.0041 12.5988 9.97878 12.7262 9.88456 12.7891C9.79035 12.8521 9.25879 12.9605 9.25879 12.9605C9.25879 12.9605 9.5624 12.5109 9.65661 12.4479Z" fill="#FFE15A"/>
<path d="M13.5529 7.29973C13.5308 7.41087 13.4228 7.48306 13.3117 7.46094C13.2005 7.43881 13.1283 7.33081 13.1505 7.21967C13.1726 7.10853 13.4718 6.65601 13.4718 6.65601C13.4718 6.65601 13.5751 7.18859 13.5529 7.29973Z" fill="#FFE15A"/>
<path d="M11.7892 14.0617C11.8114 13.9505 11.9194 13.8783 12.0305 13.9005C12.1416 13.9226 12.2138 14.0306 12.1917 14.1417C12.1696 14.2529 11.8704 14.7054 11.8704 14.7054C11.8704 14.7054 11.7671 14.1728 11.7892 14.0617Z" fill="#FFE15A"/>
<path d="M16.0519 11.5625C15.9408 11.5403 15.8686 11.4323 15.8907 11.3212C15.9128 11.2101 16.0208 11.1379 16.132 11.16C16.2431 11.1821 16.6956 11.4813 16.6956 11.4813C16.6956 11.4813 16.163 11.5845 16.0519 11.5625Z" fill="#FFE15A"/>
<path d="M9.28924 9.79901C9.40038 9.82113 9.47256 9.92913 9.45044 10.0403C9.42831 10.1514 9.32031 10.2236 9.20917 10.2015C9.09804 10.1793 8.64551 9.88015 8.64551 9.88015C8.64551 9.88015 9.1781 9.77688 9.28924 9.79901Z" fill="#FFE15A"/>
<path d="M19.1057 11.4006C19.0256 11.3668 18.934 11.4055 18.9005 11.4851C18.9005 11.4854 18.9005 11.4854 18.9005 11.4854C18.8999 11.487 18.8969 11.4943 18.8915 11.5069C18.7729 11.7839 18.5276 12.1887 18.2799 12.5696C18.5106 11.8268 18.7216 11.0335 18.7363 10.9777C18.7584 10.8944 18.709 10.8089 18.6258 10.7862C18.5425 10.7638 18.4568 10.8122 18.4335 10.8952C18.3258 11.281 18.1056 11.7888 17.9025 12.2187C17.9397 11.7394 17.9468 11.2954 17.9472 11.2633C17.9484 11.1784 17.8819 11.1082 17.7971 11.1042C17.7172 11.1066 17.6402 11.1649 17.6339 11.2498C17.433 14.0131 14.7741 15.2491 14.5151 15.3628C14.3797 15.3763 13.7488 15.4474 13.1761 15.6463C13.1111 15.6689 13.0559 15.6914 13.0008 15.7138C12.9803 15.7062 12.9583 15.7019 12.9352 15.7032C11.1776 15.8304 9.77617 15.1094 8.76897 13.5647C8.00797 12.3976 7.76928 11.1725 7.76698 11.1602C7.75091 11.0751 7.66939 11.0202 7.58375 11.0352C7.49858 11.0514 7.44266 11.1333 7.45874 11.2184C7.46511 11.2523 7.56978 11.787 7.85825 12.4907C7.47233 11.8816 7.2035 11.1437 7.10882 10.7594C7.10694 10.7517 7.10202 10.7459 7.09912 10.7388C7.09471 10.7279 7.09096 10.717 7.08444 10.7076C7.0798 10.7009 7.0738 10.6961 7.06827 10.6903C7.05969 10.6813 7.05144 10.6724 7.04104 10.6657C7.03504 10.6618 7.02829 10.6598 7.02182 10.6568C7.01019 10.6514 6.9989 10.6461 6.98601 10.6437C6.9771 10.6419 6.96791 10.6431 6.95868 10.6429C6.9493 10.6428 6.9404 10.6404 6.93079 10.6421C6.92868 10.6424 6.92709 10.6439 6.92498 10.6443C6.92296 10.6447 6.92099 10.644 6.91898 10.6445C6.91059 10.6466 6.90416 10.6518 6.89648 10.6551C6.88668 10.6593 6.87665 10.6626 6.86807 10.6685C6.85963 10.6743 6.85335 10.6818 6.84627 10.6891C6.83929 10.6963 6.83188 10.7026 6.8264 10.711C6.82082 10.7195 6.81777 10.729 6.81388 10.7384C6.81009 10.7476 6.80573 10.7562 6.80371 10.7661C6.80165 10.7763 6.80259 10.7868 6.80263 10.7973C6.80263 10.8058 6.80034 10.8139 6.80179 10.8225C6.8024 10.8262 6.80362 10.8299 6.80423 10.8336V10.8342C6.80442 10.8349 6.80465 10.8358 6.80484 10.8364C6.90187 11.4082 7.13319 12.001 7.3423 12.453C7.01015 12.0761 6.7327 11.6419 6.63431 11.3848C6.63145 11.3773 6.62578 11.3721 6.62193 11.3653C6.61607 11.3549 6.61101 11.3443 6.60314 11.3358C6.5976 11.3297 6.59076 11.3257 6.58443 11.3206C6.57492 11.3129 6.56582 11.3052 6.55481 11.2999C6.54773 11.2965 6.54009 11.2955 6.53259 11.2932C6.52101 11.2896 6.50981 11.2858 6.49748 11.2851C6.48778 11.2844 6.47822 11.2869 6.46842 11.2881C6.45937 11.2893 6.45042 11.2881 6.44142 11.291C6.43968 11.2915 6.43851 11.2929 6.43683 11.2935C6.43514 11.294 6.43345 11.2937 6.43176 11.2943C6.42323 11.2976 6.41718 11.3038 6.40954 11.3084C6.40059 11.3137 6.39108 11.3181 6.38348 11.3249C6.37565 11.3319 6.37031 11.3406 6.36417 11.3489C6.35836 11.3568 6.35184 11.3638 6.34758 11.3725C6.34308 11.3817 6.34144 11.3917 6.33881 11.4015C6.33623 11.4112 6.33281 11.4202 6.33215 11.4303C6.33145 11.4404 6.33394 11.4505 6.33529 11.4608C6.33647 11.4697 6.33525 11.4785 6.33801 11.4873C6.50868 12.0379 6.9193 12.6931 7.24086 13.1545C6.97288 12.948 6.77587 12.7247 6.71873 12.6572C6.71259 12.6498 6.70649 12.6425 6.70035 12.6351C6.64504 12.5686 6.54731 12.5591 6.48032 12.6134C6.41353 12.6679 6.40312 12.766 6.45703 12.8331C6.45993 12.8367 6.47175 12.8515 6.49134 12.8744C6.72665 13.1545 6.98315 13.4159 7.21541 13.6365L6.89765 13.5011C6.82518 13.4698 6.74001 13.498 6.70031 13.5669C6.6606 13.6359 6.67856 13.7232 6.74212 13.771C6.77306 13.794 7.33579 14.2144 7.823 14.463C7.77702 14.4657 7.72311 14.4623 7.66273 14.4578C7.58905 14.4507 7.51658 14.5034 7.49863 14.5782C7.481 14.6533 7.52024 14.7299 7.59149 14.7593C7.60344 14.7642 7.75189 14.8254 7.93531 14.8907C7.89256 14.9082 7.85853 14.944 7.84447 14.9906C7.82333 15.0601 7.85305 15.1355 7.91619 15.1717C7.93259 15.1812 8.15445 15.3083 8.42881 15.4211C8.42145 15.4324 8.41549 15.4447 8.41104 15.4582C8.38957 15.524 8.41409 15.5963 8.47127 15.6359C8.5189 15.6686 9.5845 16.3918 10.829 16.3918C10.9107 16.3918 10.9933 16.3888 11.0763 16.382C11.1625 16.3753 11.227 16.2996 11.2201 16.2132C11.2132 16.1268 11.1383 16.0615 11.0512 16.0694C10.2693 16.1332 9.51615 15.8396 9.06817 15.6153C9.12733 15.6009 9.16131 15.5878 9.16975 15.5844C9.23884 15.5562 9.27869 15.4836 9.26519 15.4103C9.25169 15.3371 9.1886 15.2835 9.11397 15.2819C8.9321 15.2783 8.68024 15.1897 8.4633 15.0947C8.54529 15.0537 8.59305 15.0144 8.59737 15.0111C8.64457 14.9715 8.66449 14.9084 8.64837 14.849C8.63215 14.7898 8.58279 14.7454 8.52213 14.7356C8.45548 14.7246 8.37246 14.7031 8.28542 14.6768C8.36998 14.6281 8.40598 14.5744 8.41976 14.5471C8.44151 14.5036 8.44198 14.4528 8.42112 14.409C8.40012 14.3651 8.36013 14.3336 8.31265 14.3235C8.27159 14.3146 8.22518 14.2996 8.17493 14.28C8.18412 14.2708 8.19256 14.2604 8.19945 14.2484C8.23943 14.1807 8.22289 14.0937 8.16082 14.0449C8.15759 14.0425 8.03581 13.9469 7.8515 13.7878C7.88075 13.7771 7.90667 13.7572 7.92533 13.7302C7.96484 13.6732 7.96208 13.5969 7.91872 13.543C7.91525 13.5387 7.79328 13.3854 7.62524 13.1525C7.68069 13.1956 7.73619 13.2396 7.79155 13.2752C7.81761 13.2917 7.84714 13.3 7.87644 13.3C7.91614 13.3 7.95533 13.285 7.98551 13.2558C7.99793 13.2438 8.00764 13.23 8.01528 13.2153C8.11043 13.317 8.21046 13.4093 8.31551 13.4881C8.32924 13.4984 8.34579 13.4981 8.36121 13.5033C8.4057 13.5779 8.45206 13.6527 8.50062 13.7274C9.4533 15.1933 10.7966 15.9784 12.4078 16.0256C12.2594 16.1157 12.0984 16.2088 11.8433 16.308C11.7877 16.3297 11.7385 16.3515 11.689 16.3732C11.6652 16.3779 11.6428 16.3865 11.6241 16.4014C11.179 16.6074 10.9947 16.811 10.9199 16.9534C10.8453 17.0949 10.9096 17.2402 11.0008 17.3156C11.0292 17.3389 11.0652 17.3508 11.1013 17.3508C11.1261 17.3508 11.151 17.3453 11.1735 17.3339C11.2289 17.3064 11.266 17.2478 11.2635 17.1862C11.27 17.1792 11.2972 17.1565 11.3827 17.1537C11.4451 17.1485 11.5762 17.1626 11.7293 17.1749C11.8749 17.1869 12.0495 17.2005 12.2353 17.21C12.1191 17.3455 11.9841 17.5024 11.9841 17.5024C11.9435 17.5496 11.9346 17.6164 11.9616 17.6725C11.9887 17.7289 12.0471 17.7638 12.1083 17.7617C12.2323 17.7573 12.3165 17.7549 12.3718 17.7537C12.4201 17.8168 12.4792 17.842 12.5174 17.8518C12.6252 17.8793 12.7328 17.8361 12.8139 17.785C12.8751 17.8291 12.9364 17.8478 12.985 17.8548C13.0946 17.8698 13.196 17.8379 13.2694 17.8018C13.3453 17.8508 13.4198 17.8634 13.4765 17.8634C13.4772 17.8634 13.4782 17.8634 13.4791 17.8634C13.6016 17.8628 13.7086 17.8036 13.7845 17.7457C13.8514 17.7856 13.9155 17.7984 13.9649 17.8006C14.0772 17.8046 14.1704 17.7613 14.2323 17.7209C14.4534 17.7653 14.6439 17.6611 14.7699 17.5462C14.8274 17.5796 14.8821 17.5879 14.9256 17.5857C15.0376 17.5818 15.1229 17.5137 15.1776 17.4528C15.4283 17.4831 15.6081 17.4368 15.7122 17.3134C15.7688 17.2462 15.7919 17.1706 15.7981 17.1016C16.4936 17.0976 16.5565 16.718 16.5616 16.6711C16.5662 16.6285 16.5531 16.586 16.5254 16.5531C16.4979 16.5204 16.4579 16.5001 16.4151 16.4977L14.592 16.388C14.5157 16.3825 14.4476 16.4337 14.4299 16.5081C14.4295 16.5094 14.3985 16.6252 14.3012 16.7177C14.1703 16.8426 13.9596 16.9087 13.7303 16.9436C13.7312 16.9226 13.7282 16.9012 13.7201 16.8804C13.6889 16.7995 13.5979 16.7603 13.5173 16.7907C13.1409 16.9367 12.5315 16.9183 12.0547 16.8852C12.1279 16.8253 12.2159 16.7662 12.2863 16.7276C12.3457 16.6948 12.3776 16.6277 12.365 16.5609C12.3559 16.5124 12.3208 16.4786 12.2785 16.4569C12.4111 16.39 12.5197 16.3253 12.6229 16.2624C12.8018 16.1527 12.9709 16.0495 13.2789 15.9425C13.8734 15.736 14.5613 15.6732 14.5682 15.6726C14.5838 15.6713 14.5991 15.6674 14.6137 15.6615C14.6382 15.6514 16.5786 14.8385 17.4928 12.9629C17.4808 13.0196 17.468 13.0714 17.454 13.1168C17.4301 13.194 17.4687 13.2764 17.5432 13.3077C17.6008 13.3319 17.6662 13.3193 17.7105 13.2782C17.6527 13.4305 17.6005 13.5504 17.5579 13.6211C17.5144 13.6931 17.5354 13.7866 17.6054 13.8332C17.6218 13.8439 17.6394 13.8513 17.6575 13.8556C17.5867 13.9591 17.515 14.0572 17.4434 14.147C17.3958 14.2067 17.3985 14.2919 17.4484 14.3483C17.3255 14.477 17.2166 14.583 17.1338 14.6504C17.0797 14.6942 17.0621 14.7675 17.087 14.83C17.0071 14.8756 16.9416 14.9078 16.896 14.9216C16.8197 14.9446 16.7728 15.0215 16.7872 15.1C16.7947 15.1413 16.818 15.1763 16.8502 15.1993C16.7543 15.225 16.6493 15.2498 16.5353 15.2725C16.4711 15.2854 16.4217 15.3365 16.4111 15.4012C16.4007 15.4658 16.4313 15.5302 16.4881 15.5627C16.4931 15.5654 16.5467 15.5958 16.6286 15.6307C16.3251 15.7529 15.7832 15.9126 14.894 16.0003C14.8079 16.0088 14.7447 16.0858 14.7534 16.1719C14.7618 16.258 14.8362 16.3177 14.925 16.3128C16.613 16.1458 17.1343 15.7233 17.1555 15.7052C17.2042 15.6644 17.2235 15.5979 17.2042 15.5373C17.1913 15.4972 17.1632 15.4647 17.127 15.446C17.6663 15.2762 17.8978 15.0884 17.9099 15.0783C17.9691 15.0292 17.9839 14.9444 17.945 14.8779C17.9058 14.8114 17.8241 14.7826 17.7529 14.8114C17.7328 14.819 17.7008 14.827 17.6603 14.835C18.0222 14.5871 18.4065 14.292 18.5755 14.1602C18.6052 14.1382 18.6321 14.117 18.6559 14.0971C18.7215 14.0419 18.7307 13.9445 18.6766 13.878C18.6228 13.8118 18.5249 13.8008 18.4578 13.8538C18.4333 13.8731 18.4078 13.8931 18.3815 13.9136C18.3035 13.9715 18.2038 14.0371 18.095 14.1045C18.5058 13.6382 18.9193 13.1326 19.0374 12.9873C19.0481 12.9741 19.0587 12.961 19.0694 12.9478C19.1237 12.8804 19.1131 12.7817 19.0457 12.7275C18.9781 12.6723 18.8793 12.6836 18.8252 12.7508L18.8249 12.7511L18.8247 12.7514C18.8218 12.7548 18.8085 12.7713 18.7861 12.7989C18.6623 12.95 18.5321 13.0961 18.4036 13.2328C18.822 12.4744 19.1388 11.728 19.1852 11.6173C19.1869 11.6134 19.1885 11.6094 19.1902 11.6054C19.2235 11.5256 19.1857 11.4336 19.1057 11.4006ZM11.7525 16.689L11.7953 16.6945C11.7428 16.7436 11.7 16.7987 11.6661 16.8555C11.5915 16.8495 11.524 16.8443 11.471 16.8419C11.544 16.7943 11.6379 16.7425 11.7525 16.689Z" fill="#FFE15A"/>
</g>
<defs>
<clipPath id="clip0_8615_27542">
<path d="M0 2C0 0.895432 0.895431 0 2 0H21.9998C23.1043 0 23.9998 0.895431 23.9998 2V21.9998C23.9998 23.1043 23.1043 23.9998 21.9998 23.9998H2C0.895432 23.9998 0 23.1043 0 21.9998V2Z" fill="white"/>
</clipPath>
</defs>
</svg>
