<svg width="24" height="24" viewBox="0 0 24 24" fill="none" xmlns="http://www.w3.org/2000/svg">
<g clip-path="url(#clip0_8615_27709)">
<path d="M24.0027 15.9998H0.00292969V23.9998H24.0027V15.9998Z" fill="#73AF00"/>
<path d="M24.0027 0H0.00292969V8.00008H24.0027V0Z" fill="#464655"/>
<path d="M24.0027 8.00012H0.00292969V16.0002H24.0027V8.00012Z" fill="#C8414B"/>
<path d="M24.0056 7.57874H0.00585938V8.84186H24.0056V7.57874Z" fill="#F5F5F5"/>
<path d="M24.0056 15.1578H0.00585938V16.421H24.0056V15.1578Z" fill="#F5F5F5"/>
<path d="M15.3884 6.67825C15.897 5.62962 16.4276 3.20044 16.4276 3.20044C16.4276 3.20044 14.8484 5.12103 14.3398 6.16966C14.2332 6.38946 14.2784 6.6422 14.4324 6.8132L8.63965 18.7566L9.03288 18.9473L14.8257 7.00393C15.0553 7.01903 15.2818 6.89804 15.3884 6.67825Z" fill="#F5F5F5"/>
<path d="M8.62412 6.67825C8.11553 5.62962 7.58496 3.20044 7.58496 3.20044C7.58496 3.20044 9.16416 5.12103 9.67275 6.16966C9.77935 6.38946 9.73416 6.6422 9.58013 6.8132L15.3729 18.7566L14.9797 18.9473L9.18685 7.00393C8.95721 7.01903 8.73072 6.89804 8.62412 6.67825Z" fill="#F5F5F5"/>
<path d="M15.1614 11.9999C15.1614 15.488 12.5849 18.3157 12.0035 18.3157C11.4222 18.3157 8.8457 15.488 8.8457 11.9999C8.8457 8.51186 11.4222 5.6842 12.0035 5.6842C12.5849 5.6842 15.1614 8.51186 15.1614 11.9999Z" fill="#C8414B"/>
<path d="M14.532 15.047C14.904 14.1432 15.1636 13.1053 15.1636 11.9998C15.1636 10.8944 14.904 9.85638 14.532 8.95264C14.1599 9.85638 13.9004 10.8944 13.9004 11.9998C13.9004 13.1053 14.1599 14.1432 14.532 15.047Z" fill="#464655"/>
<path d="M9.47924 8.95264C9.1072 9.85638 8.84766 10.8944 8.84766 11.9998C8.84766 13.1053 9.1072 14.1432 9.47924 15.047C9.85129 14.1432 10.1108 13.1053 10.1108 11.9998C10.1108 10.8944 9.85129 9.85638 9.47924 8.95264Z" fill="#464655"/>
<path d="M11.9988 12.9472C12.3476 12.9472 12.6304 12.523 12.6304 11.9998C12.6304 11.4766 12.3476 11.0525 11.9988 11.0525C11.65 11.0525 11.3672 11.4766 11.3672 11.9998C11.3672 12.523 11.65 12.9472 11.9988 12.9472Z" fill="#F5F5F5"/>
<path d="M12.0938 5.68408V11.0524C12.266 10.694 12.5714 9.63481 12.5714 8.36826C12.5714 7.10162 12.266 6.04253 12.0938 5.68408Z" fill="#F5F5F5"/>
<path d="M11.9044 5.68408C11.7321 6.04253 11.4268 7.10162 11.4268 8.36826C11.4268 9.63481 11.7322 10.694 11.9044 11.0524V5.68408Z" fill="#F5F5F5"/>
<path d="M12.0938 12.9471V18.3155C12.266 17.957 12.5714 16.8979 12.5714 15.6313C12.5714 14.3647 12.266 13.3055 12.0938 12.9471Z" fill="#F5F5F5"/>
<path d="M11.9044 12.9471C11.7321 13.3056 11.4268 14.3647 11.4268 15.6313C11.4268 16.8979 11.7322 17.957 11.9044 18.3155V12.9471Z" fill="#F5F5F5"/>
</g>
<defs>
<clipPath id="clip0_8615_27709">
<path d="M0 2C0 0.895432 0.895431 0 2 0H21.9998C23.1043 0 23.9998 0.895431 23.9998 2V21.9998C23.9998 23.1043 23.1043 23.9998 21.9998 23.9998H2C0.895432 23.9998 0 23.1043 0 21.9998V2Z" fill="white"/>
</clipPath>
</defs>
</svg>
