<svg width="24" height="24" viewBox="0 0 24 24" fill="none" xmlns="http://www.w3.org/2000/svg">
<g clip-path="url(#clip0_8615_27593)">
<path d="M24.0027 0H0.00292969V23.9998H24.0027V0Z" fill="#41479B"/>
<path d="M12.5327 9.49132C12.2935 9.44604 12.0026 9.1422 12.106 8.97411C12.2095 8.80601 12.0155 8.43102 11.7828 8.5603C11.55 8.68962 11.3948 8.84478 11.175 8.89648C10.9551 8.94818 10.7741 9.11632 10.9422 9.27148C11.1103 9.42663 11.3689 9.73699 11.1232 10.0603C10.8776 10.3836 10.9551 10.1637 10.6577 10.306C10.3603 10.4482 10.1534 10.7327 10.2439 10.9008C10.3344 11.0689 10.412 11.1336 10.1534 11.2499C9.89479 11.3663 9.7784 11.2887 9.57149 11.3404C9.36459 11.3921 8.86031 11.6508 8.70511 11.8706C8.54996 12.0904 8.21372 11.8835 8.07151 11.8576C7.92929 11.8318 7.64481 11.9352 7.58012 12.1033C7.51548 12.2714 7.63182 12.4266 7.87754 12.5042C8.12321 12.5818 8.22666 12.5947 8.11032 12.8016C7.99393 13.0085 8.07151 13.4094 8.26547 13.5257C8.45944 13.6421 8.83444 14.0042 8.83444 14.2498C8.83444 14.4955 8.78273 14.8576 9.14479 14.9093C9.50685 14.961 10.0629 15.1162 10.2568 15.4524C10.4508 15.7886 10.5025 15.9826 10.5413 16.1895C10.5801 16.3964 10.6189 16.5645 10.7353 16.7972C10.8517 17.03 10.9293 17.4308 10.8129 17.5213C10.6965 17.6119 10.606 17.6765 10.6965 17.8511C10.787 18.0256 10.8064 18.0903 10.9745 17.9933C11.1426 17.8963 11.1426 17.9998 11.2331 17.9803C11.3236 17.9609 11.7374 17.8123 11.6598 17.6118C11.5822 17.4114 11.4141 16.9523 11.6533 16.7131C11.8925 16.4739 12.2158 16.4351 12.4227 16.2735C12.6296 16.1119 12.9723 16.086 13.2374 15.8274C13.5024 15.5688 13.7869 15.7239 13.8322 15.905C13.8775 16.086 13.9486 16.4351 14.1555 16.4287C14.3624 16.4222 14.4076 16.4222 14.4464 16.17C14.4853 15.9179 14.8085 15.3554 14.9378 15.4265C15.0672 15.4976 15.1835 15.4395 15.19 15.3295C15.1964 15.2196 15.4421 15.1226 15.5456 15.2778C15.649 15.433 15.8753 15.5559 15.8689 15.3619C15.8624 15.1679 15.5973 15.1938 15.5908 14.9804C15.5844 14.767 15.8042 14.6313 15.9982 14.5408C16.1921 14.4503 16.0758 14.2175 16.134 14.0882C16.1921 13.9589 16.509 13.7973 16.5219 13.6679C16.5348 13.5386 16.4443 13.4869 16.5801 13.4546C16.7159 13.4222 16.884 13.364 16.787 13.2154C16.69 13.0667 16.7223 12.9568 16.8258 12.8856C16.9292 12.8145 16.9778 12.4769 16.8269 12.4331C16.676 12.3893 16.4034 12.5159 16.3352 12.5986C16.2671 12.6814 15.9896 12.326 15.8581 12.2384C15.7267 12.1508 14.8796 12.2043 14.8991 12.0583C14.9186 11.9122 15.2741 11.3791 15.119 11.2951C14.9638 11.2111 14.7181 11.0882 14.5176 11.0236C14.3172 10.9589 14.3625 11.1787 14.2526 11.0041C14.1427 10.8296 14.1039 10.2089 13.981 10.2089C13.8582 10.2089 13.7677 10.4675 13.716 10.3705C13.6642 10.2735 13.7354 9.6011 13.4509 9.58816C13.1664 9.57522 13.1599 9.74332 12.9983 9.6205C12.8366 9.49779 12.8598 9.55319 12.5327 9.49132Z" fill="#FF9B55"/>
<path d="M10.7769 5.81309L10.5621 6.45715L9.88324 6.4624C9.84602 6.46268 9.8306 6.51016 9.8605 6.53229L10.4066 6.9356L10.2018 7.58289C10.1906 7.61837 10.231 7.64772 10.2613 7.62611L10.8136 7.23133L11.3659 7.62611C11.3962 7.64776 11.4366 7.61837 11.4254 7.58289L11.2206 6.9356L11.7667 6.53229C11.7967 6.51016 11.7812 6.46268 11.744 6.4624L11.0651 6.45715L10.8503 5.81309C10.8386 5.7778 10.7887 5.7778 10.7769 5.81309Z" fill="#F5F5F5"/>
<path d="M13.1695 5.81309L12.9547 6.45715L12.2758 6.4624C12.2386 6.46268 12.2232 6.51016 12.2531 6.53229L12.7992 6.9356L12.5945 7.58289C12.5832 7.61837 12.6236 7.64772 12.6539 7.62611L13.2062 7.23133L13.7585 7.62611C13.7888 7.64776 13.8292 7.61837 13.818 7.58289L13.6132 6.9356L14.1593 6.53229C14.1893 6.51016 14.1738 6.46268 14.1366 6.4624L13.4577 6.45715L13.243 5.81309C13.2312 5.7778 13.1812 5.7778 13.1695 5.81309Z" fill="#F5F5F5"/>
<path d="M8.41751 6.2075L8.20273 6.85156L7.52385 6.85681C7.48663 6.85709 7.47121 6.90457 7.50116 6.9267L8.0473 7.33001L7.8425 7.9773C7.83125 8.01278 7.87166 8.04213 7.90194 8.02052L8.45426 7.62574L9.00658 8.02052C9.03687 8.04217 9.07727 8.01278 9.06602 7.9773L8.86123 7.33001L9.40736 6.9267C9.43731 6.90457 9.42189 6.85709 9.38463 6.85681L8.70574 6.85156L8.49096 6.2075C8.47925 6.17221 8.42928 6.17221 8.41751 6.2075Z" fill="#F5F5F5"/>
<path d="M6.18413 7.01906L5.96935 7.66312L5.29046 7.66837C5.25324 7.66865 5.23782 7.71613 5.26773 7.73826L5.81386 8.14157L5.60907 8.78886C5.59782 8.82434 5.63822 8.85368 5.66851 8.83208L6.22083 8.4373L6.77315 8.83208C6.80343 8.85373 6.84384 8.82434 6.83259 8.78886L6.62779 8.14157L7.17393 7.73826C7.20388 7.71613 7.18846 7.66865 7.15119 7.66837L6.47231 7.66312L6.25753 7.01906C6.24586 6.98372 6.19589 6.98372 6.18413 7.01906Z" fill="#F5F5F5"/>
<path d="M15.5965 6.2075L15.8113 6.85156L16.4901 6.85681C16.5274 6.85709 16.5428 6.90457 16.5128 6.9267L15.9667 7.33001L16.1715 7.9773C16.1827 8.01278 16.1423 8.04213 16.1121 8.02052L15.5597 7.62574L15.0074 8.02052C14.9771 8.04217 14.9367 8.01278 14.948 7.9773L15.1528 7.33001L14.6066 6.9267C14.5767 6.90457 14.5921 6.85709 14.6293 6.85681L15.3082 6.85156L15.523 6.2075C15.5347 6.17221 15.5847 6.17221 15.5965 6.2075Z" fill="#F5F5F5"/>
<path d="M17.8289 7.01906L18.0437 7.66312L18.7226 7.66837C18.7598 7.66865 18.7752 7.71613 18.7453 7.73826L18.1991 8.14157L18.4039 8.78886C18.4152 8.82434 18.3748 8.85368 18.3445 8.83208L17.7922 8.4373L17.2398 8.83208C17.2095 8.85373 17.1691 8.82434 17.1804 8.78886L17.3852 8.14157L16.8391 7.73826C16.8091 7.71613 16.8245 7.66865 16.8617 7.66837L17.5406 7.66312L17.7554 7.01906C17.7672 6.98372 17.8171 6.98372 17.8289 7.01906Z" fill="#F5F5F5"/>
</g>
<defs>
<clipPath id="clip0_8615_27593">
<path d="M0 2C0 0.895432 0.895431 0 2 0H21.9998C23.1043 0 23.9998 0.895431 23.9998 2V21.9998C23.9998 23.1043 23.1043 23.9998 21.9998 23.9998H2C0.895432 23.9998 0 23.1043 0 21.9998V2Z" fill="white"/>
</clipPath>
</defs>
</svg>
