<svg width="24" height="24" viewBox="0 0 24 24" fill="none" xmlns="http://www.w3.org/2000/svg">
<g clip-path="url(#clip0_8615_27538)">
<path d="M24.0017 0H0.00195312V23.9998H24.0017V0Z" fill="#FF4B55"/>
<path d="M18.6785 13.8837C18.6785 13.8837 17.4203 13.674 16.4883 12.9011C16.2133 12.6731 15.8143 12.4988 15.4256 12.3701C15.7381 12.3562 16.0694 12.3649 16.3826 12.4283C17.6799 12.6906 18.9377 12.0609 18.9377 12.0609C18.9377 12.0609 17.6686 12.1889 16.5663 11.6879C16.2682 11.5524 15.8815 11.4885 15.5042 11.4616C15.7756 11.3835 16.0637 11.3224 16.348 11.3067C17.6695 11.2334 18.7279 10.307 18.7279 10.307C18.7279 10.307 17.5321 10.7509 16.3391 10.5439C15.9917 10.4836 15.5652 10.5287 15.1683 10.6085C15.4294 10.4445 15.7168 10.2913 16.0151 10.1925C17.2716 9.77681 18.0515 8.60612 18.0515 8.60612C18.0515 8.60612 17.0131 9.34678 15.8074 9.45848C15.4494 9.49167 15.0416 9.65236 14.6737 9.83746C14.886 9.60473 15.1283 9.37439 15.3966 9.19631C16.4994 8.46451 16.9436 7.1298 16.9436 7.1298C16.9436 7.1298 16.1368 8.11773 15.003 8.54288C14.694 8.65876 14.3737 8.89088 14.086 9.141C14.2235 8.89102 14.3852 8.6409 14.5771 8.42621C15.4592 7.4395 15.5518 6.03589 15.5518 6.03589C15.5518 6.03589 15.0207 7.19561 14.0311 7.89339C13.7427 8.09682 13.4731 8.4309 13.2489 8.76835C13.3174 8.46741 13.4121 8.15532 13.5532 7.87417C14.147 6.69134 13.8697 5.31229 13.8697 5.31229C13.8697 5.31229 13.6599 6.57045 12.887 7.50245C12.659 7.77742 12.4848 8.17642 12.356 8.5651C12.3422 8.25259 12.3509 7.92128 12.4142 7.60806C12.6765 6.31081 12.0468 5.05298 12.0468 5.05298C12.0468 5.05298 12.1748 6.32211 11.6738 7.42436C11.5383 7.72244 11.4745 8.10915 11.4476 8.48649C11.3695 8.21509 11.3084 7.927 11.2926 7.64266C11.2194 6.32117 10.2929 5.26274 10.2929 5.26274C10.2929 5.26274 10.7368 6.45856 10.5299 7.65156C10.4696 7.999 10.5147 8.42551 10.5944 8.82239C10.4305 8.5613 10.2772 8.27392 10.1785 7.97556C9.7628 6.71904 8.59211 5.93919 8.59211 5.93919C8.59211 5.93919 9.33277 6.97765 9.44447 8.18326C9.47766 8.54129 9.63835 8.9491 9.82345 9.31701C9.59072 9.10472 9.36038 8.86243 9.18226 8.59402C8.45045 7.49125 7.11575 7.04712 7.11575 7.04712C7.11575 7.04712 8.10367 7.85397 8.52883 8.98767C8.6447 9.29672 8.87682 9.61711 9.12694 9.90468C8.87701 9.7672 8.62689 9.60553 8.4122 9.41358C7.42549 8.53149 6.02188 8.43896 6.02188 8.43896C6.02188 8.43896 7.1816 8.97005 7.87938 9.95952C8.08277 10.2479 8.4168 10.5176 8.75425 10.7418C8.45336 10.6733 8.14131 10.5786 7.86021 10.4375C6.67737 9.84379 5.29828 10.1211 5.29828 10.1211C5.29828 10.1211 6.55649 10.3308 7.48845 11.1037C7.76341 11.3317 8.16241 11.506 8.55114 11.6347C8.23862 11.6486 7.90732 11.6398 7.59415 11.5765C6.29689 11.3142 5.03906 11.9439 5.03906 11.9439C5.03906 11.9439 6.30819 11.8159 7.41045 12.3169C7.70852 12.4524 8.09524 12.5162 8.47258 12.5432C8.20117 12.6212 7.91308 12.6823 7.62874 12.6981C6.30725 12.7713 5.24883 13.6978 5.24883 13.6978C5.24883 13.6978 6.44464 13.2539 7.63765 13.4609C7.98508 13.5211 8.41159 13.476 8.80848 13.3963C8.54739 13.5602 8.26 13.7135 7.96164 13.8122C6.70512 14.2279 5.92527 15.3986 5.92527 15.3986C5.92527 15.3986 6.96368 14.6579 8.16934 14.5462C8.52737 14.513 8.93518 14.3523 9.3031 14.1672C9.0908 14.3999 8.84851 14.6303 8.58011 14.8084C7.47734 15.5403 7.03315 16.8749 7.03315 16.8749C7.03315 16.8749 7.84 15.887 8.97371 15.4618C9.28276 15.346 9.6031 15.1138 9.89072 14.8637C9.75328 15.1137 9.59156 15.3637 9.39961 15.5784C8.51753 16.5651 8.425 17.9687 8.425 17.9687C8.425 17.9687 8.95609 16.809 9.94561 16.1112C10.2341 15.9078 10.5036 15.5738 10.7279 15.2363C10.6594 15.5373 10.5647 15.8493 10.4236 16.1305C9.82983 17.3133 10.1071 18.6924 10.1071 18.6924C10.1071 18.6924 10.3169 17.4342 11.0898 16.5022C11.3178 16.2273 11.492 15.8283 11.6208 15.4395C11.6346 15.752 11.6259 16.0834 11.5626 16.3966C11.3003 17.6938 11.93 18.9516 11.93 18.9516C11.93 18.9516 11.802 17.6825 12.303 16.5803C12.4385 16.2822 12.5023 15.8954 12.5292 15.5181C12.6073 15.7895 12.6684 16.0776 12.6842 16.3619C12.7574 17.6834 13.6839 18.7418 13.6839 18.7418C13.6839 18.7418 13.24 17.546 13.447 16.353C13.5073 16.0056 13.4621 15.5791 13.3824 15.1822C13.5463 15.4434 13.6996 15.7307 13.7983 16.029C14.2141 17.2855 15.3847 18.0654 15.3847 18.0654C15.3847 18.0654 14.6441 17.0269 14.5324 15.8213C14.4992 15.4633 14.3385 15.0554 14.1534 14.6875C14.3861 14.8998 14.6165 15.1421 14.7946 15.4105C15.5264 16.5133 16.8611 16.9575 16.8611 16.9575C16.8611 16.9575 15.8732 16.1506 15.448 15.0169C15.3321 14.7079 15.1 14.3875 14.85 14.0999C15.0999 14.2373 15.35 14.399 15.5646 14.591C16.5514 15.473 17.955 15.5656 17.955 15.5656C17.955 15.5656 16.7952 15.0345 16.0975 14.045C15.894 13.7565 15.56 13.4869 15.2225 13.2627C15.5234 13.3313 15.8355 13.4259 16.1167 13.567C17.2994 14.161 18.6785 13.8837 18.6785 13.8837ZM11.9966 15.2071C10.2256 15.2071 8.78996 13.7715 8.78996 12.0005C8.78996 10.2295 10.2256 8.7939 11.9966 8.7939C13.7675 8.7939 15.2032 10.2295 15.2032 12.0005C15.2032 13.7715 13.7675 15.2071 11.9966 15.2071Z" fill="#FFE15A"/>
<path d="M10.9804 10.7027C11.0488 10.6493 11.1168 10.5957 11.1861 10.5481C10.7317 10.3415 10.3228 10.2423 10.0359 10.1979C9.99024 10.2475 9.94904 10.3009 9.90723 10.3538C10.1888 10.4085 10.5673 10.5129 10.9804 10.7027Z" fill="#FFE15A"/>
<path d="M10.1738 10.0563C10.4821 10.0911 10.9284 10.183 11.4235 10.3959C11.5065 10.3465 11.5891 10.3026 11.6718 10.2604C11.1372 10.0409 10.6545 9.95906 10.3223 9.93384C10.2724 9.97429 10.2207 10.0124 10.1738 10.0563Z" fill="#FFE15A"/>
<path d="M11.7794 11.5427C11.7154 11.4822 11.6506 11.4251 11.5853 11.3711C10.985 11.9424 10.4597 12.7757 10.2227 13.9848C10.3089 14.0619 10.3944 14.1399 10.4901 14.2055C10.6643 12.9758 11.1749 12.1271 11.7794 11.5427Z" fill="#FFE15A"/>
<path d="M11.546 11.0116C11.614 10.9569 11.682 10.9019 11.7509 10.853C11.6669 10.7994 11.5832 10.7524 11.4998 10.7064C11.4284 10.7554 11.3567 10.8027 11.2861 10.8578C11.3726 10.9054 11.4591 10.956 11.546 11.0116Z" fill="#FFE15A"/>
<path d="M13.2051 10.8567C13.7198 11.3088 14.1902 11.9453 14.525 12.828C14.6109 12.5658 14.6691 12.2911 14.6691 12.0003C14.6691 11.4483 14.5013 10.9355 14.2145 10.5096C13.949 10.5626 13.5926 10.6656 13.2051 10.8567Z" fill="#FFE15A"/>
<path d="M11.7979 11.1832C11.8649 11.2331 11.9306 11.2893 11.9965 11.3446C12.0625 11.2893 12.1281 11.2331 12.1952 11.1832C12.1292 11.1283 12.0634 11.0743 11.9965 11.0249C11.9296 11.0743 11.8639 11.1284 11.7979 11.1832Z" fill="#FFE15A"/>
<path d="M11.9965 10.4095C11.9126 10.4521 11.8285 10.5001 11.7441 10.55C11.8281 10.5942 11.912 10.6416 11.9965 10.6934C12.081 10.6416 12.1648 10.5942 12.2488 10.55C12.1644 10.5001 12.0804 10.4521 11.9965 10.4095Z" fill="#FFE15A"/>
<path d="M9.93056 13.6762C10.2133 12.5218 10.7461 11.7309 11.3424 11.1869C11.259 11.128 11.176 11.0741 11.0928 11.024C10.5189 11.5287 9.99956 12.2579 9.67969 13.3085C9.75342 13.4387 9.83676 13.5607 9.93056 13.6762Z" fill="#FFE15A"/>
<path d="M10.7882 10.8567C10.4006 10.6656 10.0443 10.5626 9.77876 10.5096C9.49194 10.9355 9.32422 11.4483 9.32422 12.0003C9.32422 12.2911 9.38234 12.5658 9.46826 12.828C9.80304 11.9453 10.2734 11.3088 10.7882 10.8567Z" fill="#FFE15A"/>
<path d="M11.9972 10.1096C12.5657 9.87476 13.0901 9.79137 13.4631 9.76934C13.0419 9.49203 12.5391 9.32825 11.9972 9.32825C11.4552 9.32825 10.9525 9.49203 10.5312 9.76934C10.9042 9.79137 11.4287 9.87476 11.9972 10.1096Z" fill="#FFE15A"/>
<path d="M11.9974 11.7687C11.4643 12.3593 11.0245 13.2073 10.8818 14.4217C11.2223 14.5789 11.5978 14.6726 11.9974 14.6726C12.397 14.6726 12.7725 14.5789 13.1129 14.4217C12.9702 13.2073 12.5304 12.3592 11.9974 11.7687Z" fill="#FFE15A"/>
<path d="M12.901 11.024C12.8178 11.0741 12.7348 11.1281 12.6514 11.1869C13.2477 11.7309 13.7805 12.5218 14.0632 13.6762C14.157 13.5607 14.2404 13.4387 14.3141 13.3084C13.9942 12.2578 13.4749 11.5287 12.901 11.024Z" fill="#FFE15A"/>
<path d="M13.7715 13.9846C13.5345 12.7756 13.0092 11.9423 12.4089 11.371C12.3436 11.425 12.2788 11.4822 12.2148 11.5425C12.8193 12.127 13.3299 12.9757 13.5041 14.2053C13.5998 14.1398 13.6853 14.0618 13.7715 13.9846Z" fill="#FFE15A"/>
<path d="M12.3223 10.2604C12.405 10.3026 12.4876 10.3465 12.5706 10.3959C13.0657 10.1829 13.512 10.0911 13.8202 10.0563C13.7734 10.0124 13.7217 9.97429 13.6718 9.93384C13.3396 9.95906 12.8569 10.0409 12.3223 10.2604Z" fill="#FFE15A"/>
<path d="M12.4471 11.0115C12.534 10.9559 12.6205 10.9054 12.7069 10.8578C12.6364 10.8027 12.5647 10.7554 12.4933 10.7064C12.4099 10.7524 12.3262 10.7994 12.2422 10.853C12.3111 10.9018 12.3791 10.9568 12.4471 11.0115Z" fill="#FFE15A"/>
<path d="M13.0133 10.7027C13.4263 10.513 13.8048 10.4085 14.0864 10.3538C14.0446 10.3008 14.0034 10.2475 13.9578 10.1979C13.6709 10.2423 13.262 10.3415 12.8076 10.5481C12.8769 10.5957 12.9449 10.6493 13.0133 10.7027Z" fill="#FFE15A"/>
</g>
<defs>
<clipPath id="clip0_8615_27538">
<path d="M0 2C0 0.895432 0.895431 0 2 0H21.9998C23.1043 0 23.9998 0.895431 23.9998 2V21.9998C23.9998 23.1043 23.1043 23.9998 21.9998 23.9998H2C0.895432 23.9998 0 23.1043 0 21.9998V2Z" fill="white"/>
</clipPath>
</defs>
</svg>
