<svg width="24" height="24" viewBox="0 0 24 24" fill="none" xmlns="http://www.w3.org/2000/svg">
<g clip-path="url(#clip0_8615_27651)">
<path d="M24.0037 0H0.00390625V5.05261H24.0037V0Z" fill="#FF4B55"/>
<path d="M24.0037 18.9473H0.00390625V23.9999H24.0037V18.9473Z" fill="#FF4B55"/>
<path d="M24.0017 5.05261H0.00195312V18.9472H24.0017V5.05261Z" fill="#F5F5F5"/>
<path d="M13.3509 16.2482L19.1877 15.0809C19.6089 14.9966 19.7969 14.5008 19.5376 14.1584C19.4465 14.0382 19.3123 13.958 19.1632 13.9347L12.9451 12.9652C12.7733 12.9384 12.6515 12.7771 12.6804 12.5986C12.7084 12.4258 12.8834 12.3158 13.0569 12.3387L17.3682 12.9059C17.7186 12.9521 17.9335 12.5333 17.6918 12.2755L17.3457 11.9063C17.2162 11.7681 17.0463 11.6743 16.8603 11.6383L13.2587 10.9409L16.3295 11.1621C16.5649 11.179 16.7013 10.9008 16.5437 10.7251L16.3862 10.5496C16.291 10.4436 16.1645 10.3706 16.025 10.3415L12.9762 9.70435L15.143 9.64163C15.3345 9.6361 15.432 9.40895 15.304 9.26631L15.2068 9.15808C15.1307 9.07328 15.0323 9.01164 14.9227 8.98019L12.9903 8.42538H14.509C14.6592 8.42538 14.7603 8.27144 14.7005 8.13363L14.6493 8.01546C14.5879 7.87367 14.4694 7.7644 14.3231 7.71462L12.9187 7.23688L13.6094 7.23463C13.8146 7.23397 13.9523 7.02355 13.8707 6.83521C13.8049 6.68348 13.6889 6.55907 13.5421 6.48299L12.0014 5.6842L10.4608 6.48295C10.3139 6.55907 10.1979 6.68348 10.1322 6.83516C10.0506 7.0235 10.1882 7.23392 10.3935 7.23458L11.0842 7.23683L9.67978 7.71458C9.53349 7.76436 9.41499 7.87362 9.35354 8.01542L9.30235 8.13359C9.24263 8.27144 9.34364 8.42533 9.49388 8.42533H11.0125L9.08012 8.98014C8.97062 9.01159 8.87218 9.07323 8.79606 9.15803L8.69889 9.26626C8.57087 9.4089 8.66832 9.63606 8.8599 9.64159L11.0266 9.70431L7.97786 10.3414C7.83836 10.3706 7.71185 10.4435 7.61669 10.5495L7.45919 10.725C7.30156 10.9007 7.43791 11.1789 7.67332 11.162L10.7441 10.9408L7.1426 11.6383C6.95661 11.6743 6.78673 11.7681 6.65712 11.9063L6.31105 12.2755C6.06932 12.5333 6.28424 12.952 6.63467 12.9059L10.946 12.3386C11.1194 12.3158 11.2945 12.4258 11.3225 12.5985C11.3514 12.777 11.2296 12.9384 11.0578 12.9652L4.8397 13.9347C4.69064 13.9579 4.55644 14.0381 4.46532 14.1584C4.20591 14.5008 4.39397 14.9966 4.81524 15.0808L10.652 16.2482V16.9766C10.652 17.3743 10.494 17.7557 10.2128 18.0369L9.30254 18.9472H12.0014H14.7004L13.7901 18.0369C13.5089 17.7557 13.3509 17.3743 13.3509 16.9766V16.2482Z" fill="#73AF00"/>
</g>
<defs>
<clipPath id="clip0_8615_27651">
<path d="M0 2C0 0.895432 0.895431 0 2 0H21.9998C23.1043 0 23.9998 0.895431 23.9998 2V21.9998C23.9998 23.1043 23.1043 23.9998 21.9998 23.9998H2C0.895432 23.9998 0 23.1043 0 21.9998V2Z" fill="white"/>
</clipPath>
</defs>
</svg>
