<svg width="24" height="24" viewBox="0 0 24 24" fill="none" xmlns="http://www.w3.org/2000/svg">
<g clip-path="url(#clip0_8615_27636)">
<path d="M24.0007 15.9998H0.000976562V23.9998H24.0007V15.9998Z" fill="#73AF00"/>
<path d="M24.0007 0H0.000976562V8.00008H24.0007V0Z" fill="#41479B"/>
<path d="M24.0007 8.00012H0.000976562V16.0002H24.0007V8.00012Z" fill="#F5F5F5"/>
<path d="M14.1818 13.4246L14.035 13.4994C14.015 13.5096 13.9934 13.5183 13.9731 13.5282L12.6761 11.8899C12.9427 11.3105 13.1007 10.5196 13.1007 10.1601C13.1007 9.56935 12.7131 9.07716 12.203 8.97306C12.1689 8.89599 12.092 8.84204 12.0024 8.84204C11.9126 8.84204 11.8358 8.89599 11.8017 8.97306C11.2917 9.07721 10.904 9.56939 10.904 10.1601C10.904 10.5196 11.062 11.3105 11.3286 11.8899L10.0317 13.5281C10.0115 13.5183 9.99004 13.5096 9.97017 13.4994L9.82331 13.4247L9.27539 14.5017L9.42225 14.5764C10.1699 14.9567 11.0621 15.1578 12.0024 15.1578C12.9427 15.1578 13.8351 14.9566 14.5829 14.5763L14.7298 14.5016L14.1818 13.4246ZM12.8811 10.1602C12.8811 10.4273 12.7818 10.9891 12.598 11.504C12.5737 11.5718 12.5488 11.6361 12.5234 11.6971L12.3318 11.4551V10.5995H12.6614L12.222 10.1602V9.20415C12.6004 9.3143 12.8811 9.7005 12.8811 10.1602ZM11.4068 11.504C11.2229 10.9891 11.1237 10.4273 11.1237 10.1602C11.1237 9.7005 11.4043 9.3143 11.7827 9.20415V10.1602L11.3433 10.5995H11.6728V11.4551L11.4813 11.6971C11.4559 11.6361 11.431 11.5718 11.4068 11.504ZM9.92957 13.9425L9.97443 14.1271L9.81337 14.171L9.92957 13.9425ZM9.73781 14.3624L10.0133 14.2872L10.064 14.4954C9.95287 14.4544 9.84356 14.4107 9.73781 14.3624ZM10.1556 13.9426C10.281 13.9921 10.4115 14.0359 10.5455 14.0749L10.5851 14.1964L10.2382 14.282L10.1556 13.9426ZM10.3105 14.5794L10.2771 14.4421L10.6363 14.3535L10.7477 14.6949C10.5987 14.6624 10.4529 14.6237 10.3105 14.5794ZM10.7982 14.141C10.936 14.1732 11.0764 14.2008 11.2197 14.2218L11.2794 14.3285L10.8981 14.4473L10.7982 14.141ZM10.9943 14.7424L10.9492 14.604L11.3615 14.4755L11.5483 14.8097C11.3604 14.7958 11.1755 14.7734 10.9943 14.7424ZM11.4896 14.2542C11.6588 14.2703 11.8301 14.2791 12.0023 14.2791C12.039 14.2791 12.0755 14.2771 12.1121 14.2763L12.158 14.3467L11.6511 14.5432L11.4896 14.2542ZM12.0024 14.8283C11.9371 14.8283 11.8726 14.8255 11.8078 14.8235L11.7324 14.6885L12.25 14.4878L12.4598 14.8095C12.3089 14.8207 12.1567 14.8283 12.0024 14.8283ZM12.3671 14.2653C12.5413 14.2536 12.7134 14.2338 12.8822 14.2059L12.9316 14.269L12.5304 14.5155L12.3671 14.2653ZM12.7067 14.7861L12.6203 14.6535L13.0337 14.3996L13.2635 14.6934C13.0821 14.7332 12.8962 14.764 12.7067 14.7861ZM13.1251 14.1599C13.2687 14.1289 13.4094 14.0925 13.5456 14.0499L13.5967 14.1161L13.305 14.3899L13.1251 14.1599ZM13.4985 14.6372L13.4069 14.5202L13.6979 14.2471L13.9007 14.5098C13.7696 14.5569 13.636 14.6004 13.4985 14.6372ZM13.765 13.9747C13.8576 13.9404 13.9485 13.9042 14.0359 13.8645L14.0789 13.9489L13.9385 14.1993L13.765 13.9747ZM14.1146 14.4273L14.048 14.3411L14.1688 14.1256L14.2853 14.3546C14.2295 14.3804 14.1719 14.4036 14.1146 14.4273Z" fill="#464655"/>
</g>
<defs>
<clipPath id="clip0_8615_27636">
<path d="M0 2C0 0.895432 0.895431 0 2 0H21.9998C23.1043 0 23.9998 0.895431 23.9998 2V21.9998C23.9998 23.1043 23.1043 23.9998 21.9998 23.9998H2C0.895432 23.9998 0 23.1043 0 21.9998V2Z" fill="white"/>
</clipPath>
</defs>
</svg>
