<svg width="24" height="24" viewBox="0 0 24 24" fill="none" xmlns="http://www.w3.org/2000/svg">
<g clip-path="url(#clip0_8615_27635)">
<path d="M24.0007 0.000244141H0.000976562V2.18202H24.0007V0.000244141Z" fill="#FF4B55"/>
<path d="M24.0007 2.18201H0.000976562V4.36378H24.0007V2.18201Z" fill="#F5F5F5"/>
<path d="M24.0007 4.36365H0.000976562V6.54542H24.0007V4.36365Z" fill="#FF4B55"/>
<path d="M24.0007 6.54565H0.000976562V8.72743H24.0007V6.54565Z" fill="#F5F5F5"/>
<path d="M24.0007 10.9092H0.375973C0.168881 10.9092 0.000976562 10.7413 0.000976562 10.5342V8.72742H24.0007V10.9092Z" fill="#FF4B55"/>
<path d="M24.0007 13.091H0.000976562V10.1053H0.632424L0.632564 10.9092H24.0007V13.091Z" fill="#F5F5F5"/>
<path d="M24.0007 13.0908H0.000976562V15.2726H24.0007V13.0908Z" fill="#FF4B55"/>
<path d="M24.0007 15.2728H0.000976562V17.4546H24.0007V15.2728Z" fill="#F5F5F5"/>
<path d="M24.0007 17.4543H0.000976562V19.6361H24.0007V17.4543Z" fill="#FF4B55"/>
<path d="M24.0007 19.6364H0.000976562V21.8181H24.0007V19.6364Z" fill="#F5F5F5"/>
<path d="M24.0007 21.8179H0.000976562V23.9996H24.0007V21.8179Z" fill="#FF4B55"/>
<path d="M10.7376 0.000244141H0.000976562V10.9094H10.7376V0.000244141Z" fill="#41479B"/>
<path d="M5.18913 2.82352L4.58614 4.63152L2.68031 4.64629C2.49755 4.64769 2.42175 4.88094 2.5688 4.9895L4.10197 6.12166L3.5271 7.93875C3.47197 8.11299 3.67035 8.25717 3.81908 8.15086L5.3696 7.04261L6.92011 8.15086C7.0688 8.25713 7.26722 8.11299 7.21209 7.93875L6.63723 6.12166L8.1704 4.9895C8.31744 4.88094 8.24165 4.64769 8.05888 4.64629L6.15306 4.63152L5.55002 2.82352C5.49217 2.65013 5.24693 2.65013 5.18913 2.82352Z" fill="#F5F5F5"/>
</g>
<defs>
<clipPath id="clip0_8615_27635">
<path d="M0 2C0 0.895432 0.895431 0 2 0H21.9998C23.1043 0 23.9998 0.895431 23.9998 2V21.9998C23.9998 23.1043 23.1043 23.9998 21.9998 23.9998H2C0.895432 23.9998 0 23.1043 0 21.9998V2Z" fill="white"/>
</clipPath>
</defs>
</svg>
