<svg width="24" height="24" viewBox="0 0 24 24" fill="none" xmlns="http://www.w3.org/2000/svg">
<g clip-path="url(#clip0_8615_27592)">
<path d="M24.0007 17.684H0.000976562V23.9998H24.0007V17.684Z" fill="#73AF00"/>
<path d="M24.0007 0H0.000976562V6.31588H24.0007V0Z" fill="#FF4B55"/>
<path d="M24.0007 6.31592H0.000976562V17.6844H24.0007V6.31592Z" fill="#464655"/>
<path d="M15.5822 9.95598L16.5327 11.1994L18.0169 10.7026C18.0999 10.6749 18.1705 10.7687 18.1208 10.8407L17.2319 12.1289L18.1631 13.387C18.2151 13.4573 18.1477 13.5535 18.0638 13.5284L16.564 13.0812L15.6553 14.3554C15.6045 14.4267 15.4922 14.3923 15.49 14.3048L15.4519 12.7401L13.9592 12.2697C13.8757 12.2434 13.8738 12.1259 13.9564 12.0969L15.4327 11.5771L15.4188 10.0121C15.418 9.92462 15.529 9.88647 15.5822 9.95598Z" fill="#F5F5F5"/>
<path d="M13.002 15.069C11.3083 15.069 9.93445 13.6951 9.93445 11.9999C9.93445 10.3078 11.3083 8.93083 13.002 8.93083C13.6321 8.93083 14.2133 9.12466 14.6975 9.45264C14.7717 9.50289 14.8563 9.40544 14.7942 9.34084C14.0705 8.58837 13.0461 8.12932 11.9104 8.16804C9.95906 8.23465 8.34371 9.79909 8.21903 11.7475C8.0762 13.9793 9.84337 15.834 12.0436 15.834C13.1274 15.834 14.1014 15.3809 14.797 14.6565C14.8584 14.5925 14.7736 14.4965 14.7001 14.5463C14.2153 14.8749 13.6333 15.069 13.002 15.069Z" fill="#F5F5F5"/>
</g>
<defs>
<clipPath id="clip0_8615_27592">
<path d="M0 2C0 0.895432 0.895431 0 2 0H21.9998C23.1043 0 23.9998 0.895431 23.9998 2V21.9998C23.9998 23.1043 23.1043 23.9998 21.9998 23.9998H2C0.895432 23.9998 0 23.1043 0 21.9998V2Z" fill="white"/>
</clipPath>
</defs>
</svg>
