<svg width="24" height="24" viewBox="0 0 24 24" fill="none" xmlns="http://www.w3.org/2000/svg">
<g clip-path="url(#clip0_8615_27666)">
<path d="M24.0007 0H0.000976562V11.9999H24.0007V0Z" fill="#41479B"/>
<path d="M24.0007 12H0.000976562V23.9999H24.0007V12Z" fill="#FF4B55"/>
<path d="M11.5422 7.01482C11.5349 6.99321 11.5184 6.97573 11.4971 6.96715C11.4949 6.9663 11.4508 6.94952 11.3801 6.9296C11.4112 6.88746 11.4332 6.8381 11.4332 6.78185C11.4332 6.73362 11.4161 6.69106 11.3925 6.65257C11.4703 6.60912 11.5251 6.52915 11.5251 6.434C11.5251 6.35858 11.4905 6.29267 11.438 6.24612C11.5009 6.19991 11.5444 6.12903 11.5444 6.04522C11.5444 5.95175 11.4912 5.87328 11.4158 5.82927C11.4554 5.78446 11.4815 5.72713 11.4815 5.66277C11.4815 5.55069 11.4073 5.4584 11.3062 5.42488C11.3293 5.38668 11.3461 5.3444 11.3461 5.29659C11.3461 5.15887 11.2354 5.04754 11.0984 5.04407C11.1042 5.02298 11.1115 5.0024 11.1115 4.97948C11.1115 4.83956 10.9977 4.7257 10.8576 4.7257C10.834 4.7257 10.8127 4.73311 10.791 4.7392C10.7914 4.73358 10.7943 4.72879 10.7943 4.72308C10.7943 4.58316 10.6805 4.4693 10.5405 4.4693C10.4924 4.4693 10.45 4.48631 10.4116 4.50961C10.382 4.40231 10.2878 4.32164 10.1712 4.32164C10.1013 4.32164 10.0379 4.35009 9.99196 4.39599C9.94902 4.31667 9.86788 4.26075 9.77155 4.26075C9.68362 4.26075 9.60979 4.30838 9.56423 4.37644C9.51792 4.32722 9.45328 4.29558 9.38053 4.29558C9.28654 4.29558 9.2077 4.3492 9.16383 4.42523C9.11733 4.3732 9.05161 4.33899 8.97647 4.33899C8.88356 4.33899 8.80571 4.39153 8.76146 4.46616C8.71828 4.43217 8.66625 4.40864 8.60714 4.40864C8.50046 4.40864 8.40985 4.4752 8.37235 4.56862C8.32665 4.52442 8.26496 4.49662 8.19657 4.49662C8.09982 4.49662 8.01831 4.55297 7.97551 4.63284C7.95685 4.62126 7.93773 4.61212 7.91626 4.60565C7.96974 4.52658 8.00101 4.43128 8.00101 4.32886C8.00101 4.13002 7.88251 3.9593 7.71306 3.88055L7.78421 3.73824C7.79523 3.71626 7.79523 3.6902 7.78421 3.66816L7.69858 3.49688C7.70481 3.49117 7.71072 3.48531 7.71639 3.47907L7.88785 3.56471C7.89887 3.5702 7.91078 3.57287 7.92278 3.57287C7.93478 3.57287 7.94673 3.57001 7.9577 3.56452L8.37479 3.35598C8.40137 3.34276 8.41805 3.31567 8.41805 3.28614C8.41805 3.25661 8.40137 3.22951 8.37479 3.21629L7.9577 3.00775C7.93571 2.99673 7.90984 2.99673 7.88785 3.00775L7.71658 3.09329C7.71081 3.08701 7.70486 3.08106 7.69858 3.07525L7.78421 2.90397C7.79523 2.88198 7.79523 2.85592 7.78421 2.83389L7.57567 2.4168C7.54919 2.36383 7.46223 2.36383 7.43575 2.4168L7.22721 2.83389C7.21619 2.85588 7.21619 2.88194 7.22721 2.90397L7.31284 3.07525C7.30661 3.08097 7.3007 3.08683 7.29503 3.09306L7.12357 3.00742C7.10158 2.99641 7.07571 2.99664 7.05372 3.00761L6.63663 3.21615C6.61005 3.22937 6.59337 3.25647 6.59337 3.286C6.59337 3.31553 6.61005 3.34262 6.63663 3.35584L7.05372 3.56438C7.06474 3.56987 7.07664 3.57273 7.08864 3.57273C7.10064 3.57273 7.1126 3.56987 7.12357 3.56438L7.29489 3.47874C7.30066 3.48503 7.30661 3.49098 7.31289 3.49679L7.22725 3.66807C7.21624 3.69005 7.21624 3.71612 7.22725 3.73815L7.29841 3.88046C7.12896 3.95921 7.01046 4.12993 7.01046 4.32877C7.01046 4.42908 7.04093 4.52227 7.09239 4.60036C7.06141 4.60626 7.03328 4.61667 7.00741 4.63275C6.96461 4.55292 6.8831 4.49653 6.78635 4.49653C6.71791 4.49653 6.65623 4.52437 6.61057 4.56853C6.57312 4.47506 6.48246 4.40855 6.37578 4.40855C6.31667 4.40855 6.26464 4.43208 6.22146 4.46606C6.17721 4.39149 6.09931 4.33889 6.00645 4.33889C5.93136 4.33889 5.86559 4.37311 5.81909 4.42514C5.77522 4.34911 5.69633 4.29549 5.60239 4.29549C5.52964 4.29549 5.465 4.32713 5.41869 4.37634C5.37313 4.30828 5.2993 4.26066 5.21137 4.26066C5.11504 4.26066 5.0339 4.31663 4.99096 4.39589C4.94502 4.35 4.8816 4.32155 4.81171 4.32155C4.69514 4.32155 4.60087 4.40222 4.57129 4.50952C4.53295 4.48622 4.49048 4.4692 4.44239 4.4692C4.30247 4.4692 4.18861 4.58306 4.18861 4.72298C4.18861 4.7287 4.19152 4.73348 4.19189 4.73911C4.17019 4.73306 4.14891 4.72561 4.12528 4.72561C3.98527 4.72561 3.87141 4.83947 3.87141 4.97939C3.87141 5.00231 3.87877 5.02284 3.88449 5.04398C3.74747 5.04745 3.6368 5.15877 3.6368 5.29649C3.6368 5.3443 3.65363 5.38658 3.67669 5.42479C3.57563 5.4583 3.50138 5.55055 3.50138 5.66268C3.50138 5.72703 3.52744 5.78441 3.56715 5.82917C3.49168 5.87319 3.43848 5.95166 3.43848 6.04513C3.43848 6.12894 3.48202 6.19981 3.54488 6.24603C3.49243 6.29253 3.45784 6.35848 3.45784 6.4339C3.45784 6.52906 3.51268 6.60903 3.5904 6.65248C3.56691 6.69092 3.54976 6.73352 3.54976 6.78176C3.54976 6.84101 3.57333 6.89318 3.60751 6.9364C3.55102 6.95313 3.51634 6.96635 3.51441 6.96705C3.49313 6.97558 3.47663 6.99312 3.46932 7.01473C3.46201 7.03652 3.46463 7.06033 3.47635 7.08012C3.48259 7.09029 4.09739 8.12284 4.30097 9.14049C4.30598 9.1657 4.32426 9.18188 4.34578 9.19209C4.50215 9.40326 5.85687 9.56836 7.50583 9.56836C9.15478 9.56836 10.5095 9.40326 10.6659 9.19209C10.6874 9.18188 10.7057 9.1657 10.7107 9.14049C10.914 8.12364 11.5291 7.09029 11.5353 7.08012C11.5469 7.06043 11.5495 7.03657 11.5422 7.01482Z" fill="#FFE15A"/>
<path d="M11.5432 7.0147C11.5359 6.99309 11.5194 6.9756 11.4981 6.96703C11.4959 6.96618 11.4518 6.9494 11.381 6.92948C11.4122 6.88734 11.4341 6.83798 11.4341 6.78173C11.4341 6.7335 11.417 6.69093 11.3935 6.65245C11.4713 6.609 11.5261 6.52903 11.5261 6.43387C11.5261 6.35845 11.4915 6.29255 11.439 6.246C11.5019 6.19978 11.5454 6.12891 11.5454 6.0451C11.5454 5.95163 11.4922 5.87316 11.4167 5.82915C11.4564 5.78433 11.4825 5.72701 11.4825 5.66265C11.4825 5.55057 11.4083 5.45827 11.3072 5.42476C11.3303 5.38656 11.3471 5.34428 11.3471 5.29646C11.3471 5.15875 11.2364 5.04742 11.0994 5.04395C11.1051 5.02286 11.1125 5.00228 11.1125 4.97936C11.1125 4.83944 10.9986 4.72558 10.8586 4.72558C10.835 4.72558 10.8137 4.73298 10.792 4.73908C10.7924 4.73345 10.7953 4.72867 10.7953 4.72295C10.7953 4.58303 10.6814 4.46917 10.5415 4.46917C10.4934 4.46917 10.451 4.48619 10.4126 4.50949C10.383 4.40219 10.2888 4.32152 10.1722 4.32152C10.1022 4.32152 10.0389 4.34997 9.99294 4.39586C9.95 4.31655 9.86886 4.26063 9.77253 4.26063C9.68459 4.26063 9.61077 4.30825 9.5652 4.37632C9.51889 4.3271 9.45425 4.29546 9.3815 4.29546C9.28752 4.29546 9.20868 4.34908 9.1648 4.42511C9.1183 4.37308 9.05259 4.33886 8.97745 4.33886C8.88454 4.33886 8.80668 4.39141 8.76243 4.46603C8.71926 4.43205 8.66723 4.40852 8.60812 4.40852C8.50143 4.40852 8.41083 4.47508 8.37333 4.5685C8.32762 4.5243 8.26594 4.4965 8.19755 4.4965C8.1008 4.4965 8.01928 4.55285 7.97649 4.63272C7.95783 4.62114 7.93871 4.612 7.91724 4.60553C7.97072 4.52646 8.00199 4.43116 8.00199 4.32874C8.00199 4.1299 7.88349 3.95918 7.71404 3.88043L7.78519 3.73812C7.79621 3.71614 7.79621 3.69007 7.78519 3.66804L7.69955 3.49676C7.70579 3.49104 7.71169 3.48518 7.71736 3.47895L7.88883 3.56459C7.89985 3.57007 7.91175 3.57275 7.92375 3.57275C7.93575 3.57275 7.94771 3.56989 7.95867 3.5644L8.37576 3.35586C8.40234 3.34264 8.41903 3.31555 8.41903 3.28601C8.41903 3.25648 8.40234 3.22939 8.37576 3.21617L7.95867 3.00763C7.93669 2.99661 7.91082 2.99661 7.88883 3.00763L7.71755 3.09317C7.71179 3.08689 7.70583 3.08094 7.69955 3.07513L7.78519 2.90385C7.79621 2.88186 7.79621 2.8558 7.78519 2.83377L7.57665 2.41668C7.55016 2.36371 7.46321 2.36371 7.43673 2.41668L7.22818 2.83377C7.21717 2.85575 7.21717 2.88182 7.22818 2.90385L7.31382 3.07513C7.30759 3.08084 7.30168 3.0867 7.29601 3.09294L7.12454 3.0073C7.10256 2.99628 7.07668 2.99652 7.0547 3.00749L6.63761 3.21603C6.61103 3.22925 6.59434 3.25634 6.59434 3.28587C6.59434 3.3154 6.61103 3.3425 6.63761 3.35572L7.0547 3.56426C7.06571 3.56975 7.07762 3.57261 7.08962 3.57261C7.10162 3.57261 7.11357 3.56975 7.12454 3.56426L7.29587 3.47862C7.30163 3.4849 7.30759 3.49086 7.31387 3.49667L7.22823 3.66795C7.21721 3.68993 7.21721 3.71599 7.22823 3.73803L7.29938 3.88034C7.12993 3.95909 7.01143 4.1298 7.01143 4.32864C7.01143 4.42896 7.0419 4.52214 7.09337 4.60024C7.06239 4.60614 7.03426 4.61655 7.00839 4.63263C6.96559 4.5528 6.88408 4.49641 6.78733 4.49641C6.71889 4.49641 6.6572 4.52425 6.61155 4.56841C6.57409 4.47494 6.48344 4.40843 6.37675 4.40843C6.31764 4.40843 6.26561 4.43196 6.22244 4.46594C6.17819 4.39136 6.10029 4.33877 6.00743 4.33877C5.93233 4.33877 5.86657 4.37299 5.82007 4.42502C5.7762 4.34899 5.69731 4.29536 5.60337 4.29536C5.53062 4.29536 5.46598 4.327 5.41967 4.37622C5.37411 4.30816 5.30028 4.26054 5.21234 4.26054C5.11601 4.26054 5.03488 4.3165 4.99194 4.39577C4.946 4.34988 4.88258 4.32143 4.81269 4.32143C4.69611 4.32143 4.60185 4.4021 4.57227 4.50939C4.53393 4.4861 4.49146 4.46908 4.44337 4.46908C4.30344 4.46908 4.18959 4.58294 4.18959 4.72286C4.18959 4.72858 4.19249 4.73336 4.19287 4.73898C4.17116 4.73294 4.14988 4.72549 4.12626 4.72549C3.98624 4.72549 3.87239 4.83934 3.87239 4.97926C3.87239 5.00219 3.87975 5.02272 3.88546 5.04386C3.74845 5.04733 3.63778 5.15865 3.63778 5.29637C3.63778 5.34418 3.65461 5.38646 3.67767 5.42467C3.57661 5.45818 3.50236 5.55043 3.50236 5.66255C3.50236 5.72691 3.52842 5.78429 3.56812 5.82905C3.49266 5.87307 3.43945 5.95154 3.43945 6.045C3.43945 6.12881 3.483 6.19969 3.54586 6.24591C3.49341 6.29241 3.45881 6.35836 3.45881 6.43378C3.45881 6.52894 3.51366 6.6089 3.59137 6.65236C3.56789 6.69079 3.55073 6.7334 3.55073 6.78164C3.55073 6.84089 3.57431 6.89306 3.60848 6.93628C3.552 6.95301 3.51731 6.96623 3.51539 6.96693C3.49411 6.97546 3.47761 6.99299 3.4703 7.0146C3.46298 7.0364 3.46561 7.06021 3.47733 7.07999C3.48356 7.09017 4.09837 8.12272 4.30194 9.14036C4.30696 9.16558 4.32524 9.18175 4.34676 9.19197C4.50313 9.40314 5.85785 9.56823 7.5068 9.56823C9.15576 9.56823 10.5105 9.40314 10.6669 9.19197C10.6884 9.18175 10.7066 9.16558 10.7117 9.14036C10.915 8.12351 11.53 7.09017 11.5363 7.07999C11.5479 7.06031 11.5505 7.03645 11.5432 7.0147ZM9.33238 6.51094V5.28709C9.43161 5.27851 9.52813 5.27579 9.62085 5.27903V6.55045C9.5346 6.50869 9.4371 6.49655 9.33238 6.51094ZM8.43229 4.84398C8.43445 4.84609 8.4375 4.84698 8.43975 4.849C8.43642 4.8497 8.43314 4.85041 8.42976 4.85116C8.43079 4.84881 8.43131 4.84637 8.43229 4.84398ZM11.1804 6.68433C11.234 6.68433 11.2777 6.72792 11.2777 6.78168C11.2777 6.83545 11.234 6.87904 11.1804 6.87904C11.1267 6.87904 11.083 6.83545 11.083 6.78168C11.083 6.72792 11.1267 6.68433 11.1804 6.68433ZM11.2722 6.53119C11.2185 6.53119 11.1748 6.48759 11.1748 6.43383C11.1748 6.38006 11.2185 6.33647 11.2722 6.33647C11.326 6.33647 11.3696 6.38006 11.3696 6.43383C11.3696 6.48759 11.326 6.53119 11.2722 6.53119ZM11.1943 6.04505C11.1943 5.99129 11.238 5.94769 11.2916 5.94769C11.3453 5.94769 11.389 5.99129 11.389 6.04505C11.389 6.09882 11.3453 6.14241 11.2916 6.14241C11.238 6.14241 11.1943 6.09882 11.1943 6.04505ZM8.28619 7.01465C8.19281 6.65953 8.07155 6.12492 8.02041 5.59051C8.07422 5.57171 8.16661 5.54082 8.28619 5.50463V7.01465ZM6.98261 5.59688C6.92758 6.16556 6.79323 6.73523 6.69859 7.0859V5.50449C6.83275 5.54513 6.93334 5.5794 6.98261 5.59688ZM7.60402 4.95428C7.60402 5.00804 7.56033 5.05164 7.50666 5.05164C7.45299 5.05164 7.4093 5.00804 7.4093 4.95428C7.4093 4.90051 7.45299 4.85692 7.50666 4.85692C7.56033 4.85692 7.60402 4.90051 7.60402 4.95428ZM6.55258 4.84445L6.55197 4.84431C6.55197 4.84431 6.55234 4.84412 6.55248 4.84394C6.55258 4.84412 6.55253 4.84431 6.55258 4.84445ZM3.69314 5.94774C3.74681 5.94774 3.7905 5.99133 3.7905 6.0451C3.7905 6.09886 3.74681 6.14246 3.69314 6.14246C3.63947 6.14246 3.59578 6.09886 3.59578 6.0451C3.59578 5.99129 3.63947 5.94774 3.69314 5.94774ZM3.8099 6.43383C3.8099 6.48759 3.76622 6.53119 3.71254 6.53119C3.65878 6.53119 3.61509 6.48759 3.61509 6.43383C3.61509 6.38006 3.65878 6.33647 3.71254 6.33647C3.76622 6.33652 3.8099 6.38006 3.8099 6.43383ZM3.80442 6.68433C3.85809 6.68433 3.90178 6.72792 3.90178 6.78168C3.90178 6.83545 3.85809 6.87904 3.80442 6.87904C3.75075 6.87904 3.70706 6.83545 3.70706 6.78168C3.70706 6.72792 3.75075 6.68433 3.80442 6.68433ZM4.20604 5.36668C4.35908 5.11904 4.65796 4.82392 5.21272 4.82392C5.7544 4.82392 6.51859 4.98939 7.00806 5.11112C7.00829 5.21729 7.00342 5.32604 6.99592 5.43549C6.66194 5.3192 5.33375 4.89414 4.76882 5.28071C4.12954 5.71918 4.33152 6.55551 4.45096 6.90187C4.34929 6.87435 4.24645 6.86184 4.14796 6.85987C3.91706 6.39656 3.94026 5.7968 4.20604 5.36668ZM4.64657 6.97776C4.59158 6.84989 4.23998 5.96564 4.76263 5.48752V7.0477C4.72503 7.02074 4.68613 6.99806 4.64657 6.97776ZM4.91905 5.37728C5.00164 5.33448 5.099 5.30673 5.20751 5.29196V6.68362C5.05062 6.84267 4.98088 7.06143 4.95017 7.22605C4.94024 7.21359 4.92927 7.20355 4.919 7.19184L4.91905 5.37728ZM5.36393 5.27889C5.4567 5.27565 5.55317 5.27837 5.6524 5.28695V6.50958C5.63534 6.50808 5.61748 6.50372 5.60088 6.50372C5.52401 6.50372 5.45192 6.5198 5.38634 6.5528C5.37828 6.55683 5.37176 6.56226 5.36393 6.56658V5.27889ZM5.80882 5.30368C5.90576 5.31657 6.00246 5.3334 6.09729 5.35238V6.69108C5.99801 6.62264 5.90144 6.57314 5.80882 6.54286V5.30368ZM6.25371 5.38599C6.35622 5.40957 6.45297 5.43437 6.54217 5.45921V7.11445C6.45597 7.00537 6.3566 6.9021 6.25371 6.81234V5.38599ZM7.16368 5.15064C7.28129 5.18115 7.37401 5.20661 7.42848 5.22189V6.5483C7.21651 6.56972 7.05456 6.67795 6.931 6.81103C7.04115 6.35245 7.1596 5.72673 7.16368 5.15064ZM7.5849 5.22189C7.63791 5.20698 7.72688 5.18256 7.83994 5.15312C7.8443 5.72335 7.9605 6.34158 8.06958 6.79842C7.94757 6.67139 7.78988 6.56897 7.58485 6.5483V5.22189H7.5849ZM8.44261 5.45935C8.53181 5.43451 8.62856 5.40971 8.73107 5.38613V6.82467C8.73107 6.82832 8.73267 6.83151 8.73318 6.83503C8.62785 6.93014 8.52815 7.03931 8.44261 7.15246V5.45935ZM8.88749 5.35253C8.98232 5.33354 9.07902 5.31671 9.17596 5.30382V6.55017C9.08319 6.58425 8.98635 6.63825 8.88749 6.70968V5.35253ZM9.77727 5.29206C9.88578 5.30678 9.98319 5.33448 10.0657 5.37728V7.20913C10.0657 7.21321 10.0675 7.21677 10.0681 7.22066C10.0665 7.22259 10.0647 7.22409 10.0632 7.22601C10.0308 7.0522 9.95351 6.8189 9.77727 6.65845V5.29206ZM10.2222 5.48752C10.7821 6.00014 10.3361 6.98324 10.3312 6.9937C10.3307 6.99478 10.3309 6.9959 10.3304 6.99693C10.2933 7.01812 10.2573 7.04282 10.2222 7.0702V5.48752ZM10.2159 5.28076C9.66219 4.90155 8.3722 5.30368 8.00724 5.42912C8.00006 5.32267 7.99538 5.21692 7.99556 5.11361C8.48456 4.99164 9.25536 4.82397 9.80066 4.82397C10.3554 4.82397 10.6543 5.11904 10.8073 5.36673C11.0731 5.79685 11.0963 6.39661 10.8654 6.85992C10.7566 6.86212 10.6425 6.8774 10.5305 6.91143C10.6495 6.57098 10.861 5.72316 10.2159 5.28076ZM11.2286 5.75996C11.1749 5.75996 11.1312 5.71637 11.1312 5.6626C11.1312 5.60884 11.1749 5.56524 11.2286 5.56524C11.2824 5.56524 11.326 5.60884 11.326 5.6626C11.326 5.71637 11.2824 5.75996 11.2286 5.75996ZM11.1906 5.29642C11.1906 5.35018 11.1469 5.39396 11.0932 5.39396C11.0395 5.39396 10.9958 5.35018 10.9958 5.29642C10.9958 5.24265 11.0395 5.19906 11.0932 5.19906C11.1469 5.19906 11.1906 5.24265 11.1906 5.29642ZM10.956 4.97936C10.956 5.03312 10.9123 5.07672 10.8586 5.07672C10.8049 5.07672 10.7612 5.03312 10.7612 4.97936C10.7612 4.92559 10.8049 4.882 10.8586 4.882C10.9123 4.882 10.956 4.92555 10.956 4.97936ZM10.5415 4.6256C10.5951 4.6256 10.6388 4.66919 10.6388 4.72295C10.6388 4.77672 10.5951 4.8205 10.5415 4.8205C10.4877 4.8205 10.444 4.77672 10.444 4.72295C10.444 4.66914 10.4877 4.6256 10.5415 4.6256ZM10.1721 4.47794C10.2258 4.47794 10.2695 4.52153 10.2695 4.5753C10.2695 4.62906 10.2258 4.67266 10.1721 4.67266C10.1185 4.67266 10.0748 4.62906 10.0748 4.5753C10.0748 4.52153 10.1185 4.47794 10.1721 4.47794ZM9.77248 4.41705C9.82616 4.41705 9.86984 4.46064 9.86984 4.51441C9.86984 4.56817 9.82616 4.61195 9.77248 4.61195C9.71872 4.61195 9.67503 4.56817 9.67503 4.51441C9.67503 4.46064 9.71872 4.41705 9.77248 4.41705ZM9.38146 4.45188C9.43513 4.45188 9.47882 4.49547 9.47882 4.54924C9.47882 4.603 9.43513 4.6466 9.38146 4.6466C9.32769 4.6466 9.28401 4.603 9.28401 4.54924C9.28401 4.49547 9.32769 4.45188 9.38146 4.45188ZM8.9774 4.49524C9.03107 4.49524 9.07476 4.53883 9.07476 4.5926C9.07476 4.64636 9.03107 4.69014 8.9774 4.69014C8.92363 4.69014 8.87995 4.64636 8.87995 4.5926C8.87995 4.53883 8.92363 4.49524 8.9774 4.49524ZM8.60807 4.56489C8.66175 4.56489 8.70543 4.60849 8.70543 4.66225C8.70543 4.71602 8.66175 4.75961 8.60807 4.75961C8.5544 4.75961 8.51072 4.71602 8.51072 4.66225C8.51072 4.60849 8.5544 4.56489 8.60807 4.56489ZM8.1975 4.65288C8.25117 4.65288 8.29486 4.69647 8.29486 4.75023C8.29486 4.804 8.25117 4.84759 8.1975 4.84759C8.14383 4.84759 8.10014 4.804 8.10014 4.75023C8.10014 4.69647 8.14383 4.65288 8.1975 4.65288ZM7.84557 4.94205C7.79189 4.94205 7.74821 4.89845 7.74821 4.84469C7.74821 4.79092 7.79189 4.74733 7.84557 4.74733C7.89924 4.74733 7.94292 4.79092 7.94292 4.84469C7.94292 4.89845 7.89924 4.94205 7.84557 4.94205ZM7.37635 3.28592C7.37635 3.21402 7.4348 3.15556 7.50671 3.15556C7.57862 3.15556 7.63707 3.21402 7.63707 3.28592C7.63707 3.35783 7.57862 3.41628 7.50671 3.41628C7.4348 3.41628 7.37635 3.35783 7.37635 3.28592ZM7.9238 3.16475L8.16605 3.28592L7.9238 3.40709L7.7881 3.33922C7.79138 3.32192 7.79349 3.30415 7.79349 3.28592C7.79349 3.26764 7.79138 3.24992 7.7881 3.23258L7.9238 3.16475ZM7.38563 2.86883L7.50671 2.62668L7.62779 2.86883L7.55991 3.00453C7.54262 3.00125 7.52494 2.99914 7.50671 2.99914C7.48848 2.99914 7.4708 3.00125 7.45351 3.00453L7.38563 2.86883ZM7.08962 3.40709L6.84737 3.28592L7.08962 3.16475L7.22532 3.23262C7.22204 3.24992 7.21993 3.26769 7.21993 3.28592C7.21993 3.3042 7.22204 3.32192 7.22532 3.33926L7.08962 3.40709ZM7.38563 3.70301L7.45351 3.56731C7.4708 3.57059 7.48848 3.5727 7.50671 3.5727C7.52494 3.5727 7.54262 3.57059 7.55991 3.56731L7.62779 3.70301L7.55991 3.83871C7.54219 3.83679 7.52494 3.83332 7.50671 3.83332C7.48848 3.83332 7.47123 3.83679 7.45351 3.83871L7.38563 3.70301ZM7.50671 3.98979C7.69355 3.98979 7.84561 4.14171 7.84561 4.32869C7.84561 4.51567 7.6936 4.66759 7.50671 4.66759C7.31987 4.66759 7.16781 4.51567 7.16781 4.32869C7.16781 4.14171 7.31982 3.98979 7.50671 3.98979ZM7.13921 4.74738C7.19288 4.74738 7.23657 4.79097 7.23657 4.84473C7.23657 4.8985 7.19288 4.94209 7.13921 4.94209C7.08554 4.94209 7.04186 4.8985 7.04186 4.84473C7.04186 4.79097 7.08554 4.74738 7.13921 4.74738ZM6.78728 4.65288C6.84095 4.65288 6.88464 4.69647 6.88464 4.75023C6.88464 4.804 6.84095 4.84759 6.78728 4.84759C6.73361 4.84759 6.68992 4.804 6.68992 4.75023C6.68992 4.69647 6.73361 4.65288 6.78728 4.65288ZM6.37671 4.56489C6.43038 4.56489 6.47406 4.60849 6.47406 4.66225C6.47406 4.71602 6.43038 4.75961 6.37671 4.75961C6.32303 4.75961 6.27935 4.71602 6.27935 4.66225C6.27935 4.60849 6.32303 4.56489 6.37671 4.56489ZM6.00738 4.49524C6.06115 4.49524 6.10483 4.53883 6.10483 4.5926C6.10483 4.64636 6.06115 4.69014 6.00738 4.69014C5.95371 4.69014 5.91002 4.64636 5.91002 4.5926C5.91002 4.53883 5.95371 4.49524 6.00738 4.49524ZM5.60332 4.45188C5.65709 4.45188 5.70077 4.49547 5.70077 4.54924C5.70077 4.603 5.65709 4.6466 5.60332 4.6466C5.54965 4.6466 5.50596 4.603 5.50596 4.54924C5.50596 4.49547 5.54965 4.45188 5.60332 4.45188ZM5.21229 4.41705C5.26606 4.41705 5.30975 4.46064 5.30975 4.51441C5.30975 4.56817 5.26606 4.61195 5.21229 4.61195C5.15862 4.61195 5.11494 4.56817 5.11494 4.51441C5.11494 4.46064 5.15862 4.41705 5.21229 4.41705ZM4.81264 4.47794C4.86631 4.47794 4.91 4.52153 4.91 4.5753C4.91 4.62906 4.86631 4.67266 4.81264 4.67266C4.75897 4.67266 4.71528 4.62906 4.71528 4.5753C4.71528 4.52153 4.75897 4.47794 4.81264 4.47794ZM4.44327 4.6256C4.49704 4.6256 4.54072 4.66919 4.54072 4.72295C4.54072 4.77672 4.49704 4.8205 4.44327 4.8205C4.3896 4.8205 4.34591 4.77672 4.34591 4.72295C4.34596 4.66914 4.38965 4.6256 4.44327 4.6256ZM4.12621 4.882C4.17988 4.882 4.22357 4.92559 4.22357 4.97936C4.22357 5.03312 4.17988 5.07672 4.12621 5.07672C4.07245 5.07672 4.02876 5.03312 4.02876 4.97936C4.02876 4.92559 4.07245 4.882 4.12621 4.882ZM3.8916 5.19906C3.94528 5.19906 3.98896 5.24265 3.98896 5.29642C3.98896 5.35018 3.94528 5.39396 3.8916 5.39396C3.83784 5.39396 3.79415 5.35018 3.79415 5.29642C3.79415 5.24265 3.83784 5.19906 3.8916 5.19906ZM3.75614 5.56524C3.80981 5.56524 3.8535 5.60884 3.8535 5.6626C3.8535 5.71637 3.80981 5.75996 3.75614 5.75996C3.70237 5.75996 3.65869 5.71637 3.65869 5.6626C3.65869 5.60884 3.70237 5.56524 3.75614 5.56524ZM10.5726 9.04408C10.212 8.86573 8.97796 8.73415 7.50666 8.73415C6.03536 8.73415 4.80135 8.86573 4.44069 9.04408C4.25423 8.18061 3.80822 7.34526 3.65958 7.08271C3.90721 7.00673 4.61624 6.85603 4.93414 7.49188C4.95045 7.52427 4.98697 7.54138 5.02203 7.53304C5.05737 7.52469 5.08231 7.4931 5.08231 7.45686C5.08231 7.45115 5.08658 6.87745 5.45614 6.69253C5.82209 6.51047 6.41416 7.11491 6.6025 7.49188C6.6025 7.49188 6.60269 7.49202 6.60273 7.49211C6.60897 7.5044 6.61919 7.51386 6.63114 7.5215C6.63363 7.52305 6.63592 7.52441 6.63855 7.52568C6.64192 7.52736 6.64459 7.52999 6.6483 7.53116C6.65636 7.53379 6.66447 7.53505 6.67244 7.53505C6.67394 7.53505 6.67506 7.53383 6.67656 7.53374C6.67816 7.53374 6.67933 7.53472 6.68092 7.53468C6.68828 7.53383 6.69367 7.52886 6.70028 7.52615C6.70726 7.52333 6.71434 7.52202 6.7203 7.51733C6.72756 7.51161 6.73141 7.50346 6.73628 7.49549C6.73951 7.49024 6.74495 7.48705 6.74692 7.48091C6.74922 7.47379 6.75892 7.44337 6.77331 7.39602C6.84165 7.19845 7.05821 6.70092 7.50666 6.70092C7.88719 6.70092 8.1008 7.05937 8.19858 7.28873C8.2305 7.39893 8.25295 7.46947 8.25666 7.48096C8.26744 7.51415 8.29809 7.53515 8.33109 7.53515C8.33901 7.53515 8.34717 7.53393 8.35523 7.53125C8.35669 7.53079 8.35762 7.52966 8.35903 7.5291C8.38078 7.52352 8.40047 7.51265 8.41083 7.49193C8.59931 7.11477 9.19185 6.51173 9.55719 6.69258C9.58175 6.70486 9.60444 6.71911 9.62586 6.73457C9.64705 6.75248 9.66139 6.7657 9.68558 6.78515C9.92637 7.02023 9.93101 7.45194 9.93101 7.45691C9.93111 7.49315 9.95604 7.52474 9.99129 7.53308C10.0268 7.54124 10.063 7.52432 10.0792 7.49193C10.3965 6.85753 11.1056 7.00724 11.3537 7.08299C11.205 7.34568 10.7591 8.1808 10.5726 9.04408Z" fill="#464655"/>
<path d="M7.81449 7.32482C7.80437 7.33321 7.79448 7.34198 7.78473 7.35112C7.70889 7.42251 7.58415 7.3664 7.58415 7.26225V7.24823C7.58415 7.20506 7.54914 7.17004 7.50597 7.17004C7.46279 7.17004 7.42778 7.20506 7.42778 7.24823V7.26225C7.42778 7.3664 7.30305 7.42251 7.2272 7.35112C7.2175 7.34198 7.20756 7.33321 7.19744 7.32482C7.16425 7.29754 7.11484 7.30162 7.08738 7.33523C7.05977 7.36842 7.06436 7.41773 7.09764 7.44539C7.3113 7.62238 7.42778 8.04088 7.42778 8.20625V8.29096C7.42778 8.33413 7.46279 8.36914 7.50597 8.36914C7.54914 8.36914 7.58415 8.33413 7.58415 8.29096V8.20625C7.58415 8.04088 7.70064 7.62238 7.91429 7.44539C7.94757 7.41768 7.95216 7.36842 7.92456 7.33523C7.89695 7.30181 7.84768 7.2975 7.81449 7.32482Z" fill="#464655"/>
<path d="M9.5881 7.65341C9.57892 7.65271 9.56977 7.65243 9.56059 7.65271C9.48737 7.65777 9.41579 7.55376 9.45132 7.47309C9.45282 7.46966 9.45432 7.46624 9.45582 7.46282C9.46951 7.4316 9.45906 7.3806 9.43299 7.34746C9.40693 7.31442 9.37318 7.3161 9.35706 7.35281C9.35532 7.3567 9.35364 7.36063 9.3519 7.36457C9.31501 7.44838 9.2087 7.42335 9.19192 7.30012C9.18981 7.28423 9.18765 7.26815 9.18517 7.25217C9.17697 7.20009 9.14697 7.1639 9.115 7.17839C9.08322 7.19231 9.0618 7.25071 9.06944 7.30363C9.11462 7.65327 9.06283 8.02194 9.00353 8.156C8.99312 8.17967 8.98272 8.20334 8.97227 8.22702C8.95619 8.26358 8.97672 8.2918 9.01872 8.2887C9.06072 8.28552 9.10637 8.25673 9.12011 8.22556C9.1292 8.20489 9.13829 8.18427 9.14739 8.16359C9.20345 8.03567 9.43867 7.75208 9.63127 7.7668C9.66226 7.76661 9.67548 7.74646 9.6631 7.71618C9.65073 7.68618 9.61806 7.6559 9.5881 7.65341Z" fill="#464655"/>
<path d="M10.7486 7.89673C10.7409 7.89673 10.7333 7.8971 10.7256 7.89804C10.6642 7.90831 10.6121 7.81282 10.6476 7.73215C10.6491 7.72873 10.6506 7.72531 10.6521 7.72189C10.6658 7.69067 10.6608 7.64206 10.6415 7.61192C10.6221 7.58182 10.5938 7.58595 10.5777 7.62265C10.576 7.62654 10.5743 7.63048 10.5725 7.63442C10.5357 7.71828 10.4488 7.70178 10.4438 7.5837C10.4432 7.56851 10.4426 7.55309 10.4417 7.53781C10.4387 7.48798 10.4162 7.45517 10.3885 7.47153C10.361 7.48733 10.3388 7.54545 10.3414 7.59607C10.3535 7.93123 10.2834 8.29183 10.2242 8.42589C10.2138 8.44957 10.2034 8.47324 10.193 8.49691C10.1769 8.53347 10.1919 8.5593 10.2272 8.55325C10.2625 8.54711 10.3026 8.51589 10.3164 8.48472C10.3255 8.46405 10.3346 8.44343 10.3437 8.42275C10.3998 8.29483 10.6167 8.00318 10.7763 8.00341C10.8021 8.00098 10.8146 7.98049 10.8065 7.95209C10.7984 7.92387 10.7733 7.89696 10.7486 7.89673Z" fill="#464655"/>
<path d="M6.00791 8.15612C5.94866 8.02206 5.89681 7.65339 5.942 7.30376C5.94964 7.25084 5.92822 7.19243 5.89644 7.17851C5.86447 7.16402 5.83442 7.20021 5.82627 7.25229C5.82383 7.26827 5.82163 7.28435 5.81952 7.30024C5.80274 7.42347 5.69643 7.44851 5.65954 7.36469C5.6578 7.36076 5.65607 7.35682 5.65438 7.35293C5.63825 7.31623 5.6045 7.31449 5.5784 7.34758C5.55233 7.38072 5.54188 7.43172 5.55557 7.46294C5.55707 7.46636 5.55857 7.46979 5.56007 7.47321C5.5956 7.55388 5.52402 7.65789 5.4508 7.65283C5.44157 7.65255 5.43247 7.65283 5.42329 7.65353C5.39338 7.65602 5.36071 7.68625 5.34834 7.71639C5.33601 7.74667 5.34918 7.76683 5.38016 7.76702C5.57277 7.7523 5.80794 8.03584 5.86405 8.16381C5.87314 8.18448 5.88224 8.20511 5.89133 8.22578C5.90506 8.25695 5.95067 8.28578 5.99272 8.28892C6.03472 8.29197 6.05525 8.26375 6.03917 8.22723C6.02872 8.20347 6.01831 8.17979 6.00791 8.15612Z" fill="#464655"/>
<path d="M4.78793 8.42589C4.72872 8.29183 4.6586 7.93123 4.67079 7.59607C4.67332 7.54545 4.65115 7.48733 4.62363 7.47153C4.59593 7.45517 4.57347 7.48798 4.57047 7.53781C4.56958 7.55309 4.56893 7.56851 4.56832 7.5837C4.5633 7.70173 4.47649 7.71823 4.43955 7.63442C4.43782 7.63048 4.43609 7.62659 4.4344 7.62265C4.41827 7.58595 4.38996 7.58182 4.37065 7.61192C4.35134 7.64206 4.34632 7.69071 4.36001 7.72189C4.36151 7.72531 4.36301 7.72873 4.36451 7.73215C4.40004 7.81282 4.34791 7.90831 4.28646 7.89804C4.27873 7.8971 4.27118 7.89668 4.26354 7.89673C4.23874 7.89696 4.21371 7.92387 4.20556 7.95209C4.19749 7.98049 4.20996 8.00098 4.23584 8.00341C4.39545 8.00318 4.61233 8.29483 4.66844 8.42275C4.67754 8.44343 4.68663 8.46405 4.69572 8.48472C4.70946 8.51589 4.74963 8.54711 4.78493 8.55325C4.82018 8.5593 4.83527 8.53342 4.81919 8.49691C4.80874 8.47324 4.79833 8.44957 4.78793 8.42589Z" fill="#464655"/>
</g>
<defs>
<clipPath id="clip0_8615_27666">
<path d="M0 2C0 0.895432 0.895431 0 2 0H21.9998C23.1043 0 23.9998 0.895431 23.9998 2V21.9998C23.9998 23.1043 23.1043 23.9998 21.9998 23.9998H2C0.895432 23.9998 0 23.1043 0 21.9998V2Z" fill="white"/>
</clipPath>
</defs>
</svg>
