<svg width="24" height="24" viewBox="0 0 24 24" fill="none" xmlns="http://www.w3.org/2000/svg">
<g clip-path="url(#clip0_8615_27534)">
<path d="M23.9998 0H0V23.9998H23.9998V0Z" fill="#5AA587"/>
<path d="M13.5089 15.2628C14.2169 15.432 14.9728 15.4452 15.7286 15.2576C17.0602 14.9269 18.1135 14.0588 18.7256 12.944C17.6632 12.245 16.3261 11.9704 14.9945 12.3011C14.2786 12.4788 13.6506 12.8196 13.1213 13.2633C13.1263 13.2566 13.1305 13.2501 13.1354 13.2435C15.0963 11.4752 17.2854 12.0461 17.2854 12.0461L17.8033 11.6036C17.8033 11.6036 15.5952 10.8408 13.6175 12.4767C14.8415 10.1069 13.5207 8.07395 13.5207 8.07395L13.2161 8.68323C13.2161 8.68323 14.3145 10.6976 13.0295 13.0477C13.0279 13.0494 13.0265 13.0513 13.0249 13.053C13.3381 12.424 13.5207 11.7189 13.5207 10.9679C13.5207 9.59592 12.932 8.36443 11.9976 7.50171C11.0632 8.36443 10.4744 9.59588 10.4744 10.9679C10.4744 11.7189 10.6571 12.424 10.9702 13.053C10.9687 13.0513 10.9672 13.0494 10.9657 13.0477C9.68061 10.6976 10.7791 8.68323 10.7791 8.68323L10.4744 8.07395C10.4744 8.07395 9.15365 10.1069 10.3777 12.4767C8.39991 10.8408 6.19188 11.6036 6.19188 11.6036L6.7098 12.0461C6.7098 12.0461 8.89884 11.4752 10.8597 13.2435C10.8647 13.2501 10.8689 13.2566 10.8739 13.2633C10.3445 12.8196 9.71652 12.4788 9.00065 12.3011C7.66904 11.9704 6.33199 12.2451 5.26953 12.944C5.88162 14.0588 6.93494 14.927 8.26655 15.2576C9.02235 15.4452 9.77816 15.432 10.4863 15.2628C7.84805 16.0004 6.12255 14.4113 6.12255 14.4113L5.45783 14.5602C5.45783 14.5602 8.12419 17.4194 11.9977 14.6146C15.8711 17.4194 18.5375 14.5602 18.5375 14.5602L17.8728 14.4113C17.8726 14.4113 16.1471 16.0004 13.5089 15.2628Z" fill="#F5F5F5"/>
<path d="M8.14844 18.5541C8.42373 18.725 8.71154 18.8773 9.00962 19.011H14.9864C15.2845 18.8773 15.5723 18.7249 15.8476 18.5541H8.14844Z" fill="#F5F5F5"/>
<path d="M9.54492 19.2271C10.3118 19.5002 11.1372 19.6501 11.9979 19.6501C12.8585 19.6501 13.6839 19.5002 14.4508 19.2271H9.54492Z" fill="#F5F5F5"/>
<path d="M6.52734 17.1874C6.61959 17.2914 6.71395 17.3934 6.81192 17.492H17.1831C17.2811 17.3934 17.3755 17.2914 17.4677 17.1874H6.52734Z" fill="#F5F5F5"/>
<path d="M7.19629 17.8496C7.34891 17.9827 7.50641 18.1102 7.66977 18.2304H16.3262C16.4895 18.1102 16.6471 17.9827 16.7997 17.8496H7.19629Z" fill="#F5F5F5"/>
<path d="M15.0441 16.3753C13.338 16.3753 12.1707 15.235 12.1591 15.2234L11.9974 15.0627L11.8363 15.2237C11.8247 15.2353 10.6649 16.3753 8.95149 16.3753H5.90234C6.00645 16.5322 6.11703 16.6842 6.23258 16.8323H8.95149C10.4841 16.8323 11.5969 16.0305 11.9978 15.6926C12.3987 16.0305 13.5114 16.8323 15.0441 16.8323H17.7631C17.8786 16.6842 17.9892 16.5322 18.0933 16.3753L15.0441 16.3753Z" fill="#F5F5F5"/>
<path d="M11.9207 4.40727L11.6534 5.20877L10.8084 5.21534C10.7274 5.21594 10.6938 5.31935 10.759 5.36749L11.4387 5.86942L11.1838 6.67501C11.1594 6.75226 11.2473 6.81615 11.3132 6.76904L12.0007 6.2777L12.6881 6.76904C12.754 6.81615 12.842 6.75226 12.8175 6.67501L12.5626 5.86942L13.2423 5.36749C13.3075 5.31935 13.2739 5.21594 13.1929 5.21534L12.3479 5.20877L12.0806 4.40727C12.055 4.33039 11.9463 4.33039 11.9207 4.40727Z" fill="#FFE15A"/>
<path d="M7.92168 6.04786L8.07642 6.60984L7.59483 6.93815C7.54866 6.96965 7.56909 7.04179 7.62497 7.04432L8.20724 7.0708L8.37069 7.6303C8.38635 7.68397 8.4613 7.68678 8.48099 7.63447L8.68611 7.0889L9.26872 7.10633C9.32459 7.10802 9.35042 7.03762 9.30678 7.00274L8.8513 6.63904L9.04794 6.09033C9.06678 6.03769 9.00781 5.99138 8.96117 6.02213L8.47452 6.34294L8.01342 5.98636C7.96912 5.95224 7.90682 5.994 7.92168 6.04786Z" fill="#FFE15A"/>
<path d="M5.59043 8.87832L6.01188 9.28097L5.76734 9.81009C5.7439 9.86081 5.79851 9.91223 5.84773 9.8857L6.36091 9.60928L6.78855 10.0053C6.82956 10.0433 6.89533 10.0072 6.8853 9.95221L6.781 9.37875L7.28982 9.09441C7.33862 9.06713 7.3246 8.99344 7.26925 8.98599L6.69161 8.90799L6.57846 8.33621C6.56758 8.28137 6.49319 8.2719 6.46896 8.32229L6.21626 8.84757L5.6375 8.77852C5.582 8.77187 5.55003 8.83969 5.59043 8.87832Z" fill="#FFE15A"/>
<path d="M16.2117 6.04786L16.057 6.60984L16.5386 6.93815C16.5848 6.96965 16.5643 7.04179 16.5085 7.04432L15.9262 7.0708L15.7627 7.6303C15.7471 7.68397 15.6721 7.68678 15.6524 7.63447L15.4473 7.0889L14.8647 7.10633C14.8088 7.10802 14.783 7.03762 14.8267 7.00274L15.2822 6.63904L15.0855 6.09033C15.0667 6.03769 15.1257 5.99138 15.1723 6.02213L15.659 6.34294L16.1201 5.98636C16.1642 5.95224 16.2265 5.994 16.2117 6.04786Z" fill="#FFE15A"/>
<path d="M18.5427 8.87832L18.1213 9.28097L18.3658 9.81009C18.3892 9.86081 18.3346 9.91223 18.2854 9.8857L17.7722 9.60928L17.3446 10.0053C17.3036 10.0433 17.2378 10.0072 17.2478 9.95221L17.3521 9.37875L16.8433 9.09441C16.7945 9.06713 16.8085 8.99344 16.8639 8.98599L17.4415 8.90799L17.5547 8.33621C17.5656 8.28137 17.6399 8.2719 17.6642 8.32229L17.9169 8.84757L18.4956 8.77852C18.5511 8.77187 18.5831 8.83969 18.5427 8.87832Z" fill="#FFE15A"/>
</g>
<defs>
<clipPath id="clip0_8615_27534">
<path d="M0 2C0 0.895432 0.895431 0 2 0H21.9998C23.1043 0 23.9998 0.895431 23.9998 2V21.9998C23.9998 23.1043 23.1043 23.9998 21.9998 23.9998H2C0.895432 23.9998 0 23.1043 0 21.9998V2Z" fill="white"/>
</clipPath>
</defs>
</svg>
