<svg width="24" height="24" viewBox="0 0 24 24" fill="none" xmlns="http://www.w3.org/2000/svg">
<g clip-path="url(#clip0_8615_27529)">
<path d="M23.9988 15.9998H-0.000976562V23.9998H23.9988V15.9998Z" fill="#73AF00"/>
<path d="M23.9988 0H-0.000976562V8.00008H23.9988V0Z" fill="#464655"/>
<path d="M23.9978 8H-0.00195312V16.0001H23.9978V8Z" fill="#FF4B55"/>
<path d="M16.9046 7.24546C15.9188 5.55789 14.0931 4.4209 11.9977 4.4209C9.90231 4.4209 8.07659 5.55793 7.09082 7.24546H16.9046Z" fill="#FF4B55"/>
<path d="M12.3245 1.73677C12.3245 2.02017 11.9982 3.78936 11.9982 3.78936C11.9982 3.78936 11.6719 2.02017 11.6719 1.73677C11.6719 1.45336 11.818 1.22363 11.9982 1.22363C12.1784 1.22359 12.3245 1.45336 12.3245 1.73677Z" fill="#FF4B55"/>
<path d="M18.1323 4.41275C17.9319 4.61314 16.4502 5.63341 16.4502 5.63341C16.4502 5.63341 17.4705 4.15166 17.6709 3.95127C17.8712 3.75089 18.137 3.69173 18.2644 3.81914C18.3919 3.94659 18.3327 4.21237 18.1323 4.41275Z" fill="#FF4B55"/>
<path d="M6.32486 3.95126C6.52525 4.15165 7.54552 5.6334 7.54552 5.6334C7.54552 5.6334 6.06377 4.61313 5.86338 4.41274C5.663 4.21235 5.60384 3.94657 5.73124 3.81917C5.8587 3.69172 6.12448 3.75087 6.32486 3.95126Z" fill="#FF4B55"/>
<path d="M9.10467 2.24734C9.21314 2.50918 9.5887 4.26857 9.5887 4.26857C9.5887 4.26857 8.61019 2.75893 8.50173 2.49709C8.39326 2.23524 8.44032 1.96707 8.60682 1.89812C8.77332 1.82917 8.99621 1.9855 9.10467 2.24734Z" fill="#FF4B55"/>
<path d="M15.4942 2.49709C15.3858 2.75893 14.4072 4.26857 14.4072 4.26857C14.4072 4.26857 14.7828 2.50918 14.8913 2.24734C14.9997 1.9855 15.2226 1.82917 15.3891 1.89812C15.5556 1.96707 15.6027 2.23524 15.4942 2.49709Z" fill="#FF4B55"/>
<path d="M10.6575 1.83854C10.7139 2.11627 10.7457 3.91503 10.7457 3.91503C10.7457 3.91503 10.0743 2.24602 10.0179 1.96824C9.96158 1.69046 10.0591 1.43631 10.2357 1.40045C10.4124 1.36468 10.6012 1.56081 10.6575 1.83854Z" fill="#FF4B55"/>
<path d="M16.8815 3.30668C16.725 3.54293 15.4756 4.83737 15.4756 4.83737C15.4756 4.83737 16.181 3.18237 16.3375 2.94612C16.4941 2.70987 16.7428 2.59911 16.893 2.69867C17.0432 2.79823 17.0381 3.07043 16.8815 3.30668Z" fill="#FF4B55"/>
<path d="M5.21879 5.20131C5.45504 5.35787 6.74948 6.60727 6.74948 6.60727C6.74948 6.60727 5.09448 5.9019 4.85823 5.74534C4.62198 5.58878 4.51122 5.34006 4.61078 5.18988C4.71034 5.0396 4.98254 5.04475 5.21879 5.20131Z" fill="#FF4B55"/>
<path d="M7.60433 2.97897C7.76268 3.21399 8.48047 4.86365 8.48047 4.86365C8.48047 4.86365 7.22137 3.57863 7.06307 3.34356C6.90473 3.10853 6.89756 2.83633 7.047 2.73564C7.19643 2.63495 7.44599 2.74389 7.60433 2.97897Z" fill="#FF4B55"/>
<path d="M19.1044 5.69174C18.8694 5.85008 17.2197 6.56787 17.2197 6.56787C17.2197 6.56787 18.5047 5.30877 18.7398 5.15048C18.9748 4.99213 19.247 4.98496 19.3477 5.1344C19.4484 5.28388 19.3395 5.53344 19.1044 5.69174Z" fill="#FF4B55"/>
<path d="M13.9163 1.9536C13.862 2.23175 13.2031 3.90578 13.2031 3.90578C13.2031 3.90578 13.2215 2.10683 13.2757 1.82868C13.33 1.55052 13.5173 1.35299 13.6942 1.38745C13.8711 1.42195 13.9706 1.67544 13.9163 1.9536Z" fill="#FF4B55"/>
<path d="M14.1101 2.00194C14.0278 2.2731 13.8262 4.06085 13.8262 4.06085C13.8262 4.06085 14.6523 2.46271 14.7346 2.1915C14.8169 1.92028 14.7438 1.65802 14.5714 1.6057C14.3989 1.55339 14.1925 1.73077 14.1101 2.00194Z" fill="#FF4B55"/>
<path d="M7.7756 2.87557C7.90914 3.12555 9.03066 4.53221 9.03066 4.53221C9.03066 4.53221 8.48476 2.818 8.35122 2.56802C8.21767 2.31804 7.98053 2.18426 7.82158 2.2692C7.66268 2.35413 7.64205 2.62563 7.7756 2.87557Z" fill="#FF4B55"/>
<path d="M19.2074 5.86338C18.9574 5.99693 17.5508 7.11845 17.5508 7.11845C17.5508 7.11845 19.265 6.57254 19.515 6.439C19.7649 6.30545 19.8987 6.06832 19.8138 5.90936C19.7289 5.75041 19.4574 5.72983 19.2074 5.86338Z" fill="#FF4B55"/>
<path d="M17.0434 3.42574C16.8636 3.64479 15.9932 5.21926 15.9932 5.21926C15.9932 5.21926 17.368 4.05892 17.5478 3.83988C17.7276 3.62083 17.7605 3.35056 17.6212 3.23623C17.4819 3.12181 17.2232 3.2067 17.0434 3.42574Z" fill="#FF4B55"/>
<path d="M5.33808 5.04007C5.55712 5.21988 7.13159 6.0903 7.13159 6.0903C7.13159 6.0903 5.97126 4.71547 5.75221 4.53566C5.53317 4.35585 5.26289 4.32294 5.14856 4.46225C5.03419 4.60156 5.11903 4.86026 5.33808 5.04007Z" fill="#FF4B55"/>
<path d="M10.8564 1.80877C10.8842 2.09081 11.382 3.81959 11.382 3.81959C11.382 3.81959 11.5336 2.02697 11.5059 1.74493C11.4782 1.46288 11.3103 1.24853 11.131 1.26615C10.9517 1.28378 10.8287 1.52673 10.8564 1.80877Z" fill="#FF4B55"/>
<path d="M12.5026 1.7457C12.4744 2.0277 12.6232 3.8206 12.6232 3.8206C12.6232 3.8206 13.1238 2.09257 13.152 1.81057C13.1801 1.52858 13.0576 1.28544 12.8783 1.26753C12.6989 1.24958 12.5307 1.4637 12.5026 1.7457Z" fill="#FF4B55"/>
<path d="M6.4579 3.83103C6.63739 4.05036 8.01039 5.21289 8.01039 5.21289C8.01039 5.21289 7.14246 3.63706 6.96298 3.41774C6.78349 3.19841 6.52493 3.11315 6.38544 3.22729C6.24594 3.34143 6.27842 3.61171 6.4579 3.83103Z" fill="#FF4B55"/>
<path d="M18.252 4.54553C18.0327 4.72501 16.8701 6.09802 16.8701 6.09802C16.8701 6.09802 18.4459 5.23009 18.6653 5.0506C18.8846 4.87112 18.9699 4.61256 18.8557 4.47306C18.7416 4.33361 18.4713 4.36605 18.252 4.54553Z" fill="#FF4B55"/>
<path d="M15.6562 2.57385C15.5222 2.8236 14.9736 4.53696 14.9736 4.53696C14.9736 4.53696 16.0974 3.13203 16.2313 2.88228C16.3653 2.63254 16.3451 2.36099 16.1863 2.27582C16.0274 2.19065 15.7901 2.3241 15.6562 2.57385Z" fill="#FF4B55"/>
<path d="M4.48582 6.42721C4.73557 6.56117 6.44892 7.10975 6.44892 7.10975C6.44892 7.10975 5.044 5.98602 4.79425 5.85206C4.54451 5.71809 4.27296 5.73829 4.18779 5.8971C4.10267 6.05591 4.23607 6.29329 4.48582 6.42721Z" fill="#FF4B55"/>
<path d="M9.27274 2.18715C9.35463 2.45846 10.1783 4.05791 10.1783 4.05791C10.1783 4.05791 9.97942 2.26988 9.89753 1.99857C9.81564 1.72726 9.60939 1.54951 9.43685 1.60159C9.26435 1.65367 9.19085 1.91579 9.27274 2.18715Z" fill="#FF4B55"/>
</g>
<defs>
<clipPath id="clip0_8615_27529">
<path d="M0 2C0 0.895432 0.895431 0 2 0H21.9998C23.1043 0 23.9998 0.895431 23.9998 2V21.9998C23.9998 23.1043 23.1043 23.9998 21.9998 23.9998H2C0.895432 23.9998 0 23.1043 0 21.9998V2Z" fill="white"/>
</clipPath>
</defs>
</svg>
