<svg width="24" height="24" viewBox="0 0 24 24" fill="none" xmlns="http://www.w3.org/2000/svg">
<g clip-path="url(#clip0_8615_27532)">
<path d="M23.9988 0H-0.000976562V1.71425H23.9988V0Z" fill="#FF4B55"/>
<path d="M23.9988 1.71436H-0.000976562V3.4286H23.9988V1.71436Z" fill="#F5F5F5"/>
<path d="M23.9988 3.42847H-0.000976562V5.14272H23.9988V3.42847Z" fill="#FF4B55"/>
<path d="M23.9988 5.1427H-0.000976562V6.85695H23.9988V5.1427Z" fill="#F5F5F5"/>
<path d="M23.9988 6.8573H-0.000976562V8.57155H23.9988V6.8573Z" fill="#FF4B55"/>
<path d="M23.9988 8.57153H-0.000976562V10.2858H23.9988V8.57153Z" fill="#F5F5F5"/>
<path d="M23.9988 10.2858H-0.000976562V12H23.9988V10.2858Z" fill="#FF4B55"/>
<path d="M23.9988 12H-0.000976562V13.7142H23.9988V12Z" fill="#F5F5F5"/>
<path d="M23.9988 15.4285H-0.000976562V12.6316H0.630611L0.630752 13.7143H23.9988V15.4285Z" fill="#FF4B55"/>
<path d="M23.9988 15.4283H-0.000976562V17.1426H23.9988V15.4283Z" fill="#F5F5F5"/>
<path d="M23.9988 17.1426H-0.000976562V18.8568H23.9988V17.1426Z" fill="#FF4B55"/>
<path d="M23.9988 18.8572H-0.000976562V20.5714H23.9988V18.8572Z" fill="#F5F5F5"/>
<path d="M23.9988 20.5714H-0.000976562V22.2857H23.9988V20.5714Z" fill="#FF4B55"/>
<path d="M23.9988 22.2856H-0.000976562V23.9999H23.9988V22.2856Z" fill="#F5F5F5"/>
<path d="M13.7131 0H-0.000976562V13.7141H13.7131V0Z" fill="#41479B"/>
<path d="M2.94304 6.85041C2.94304 4.81222 4.59738 3.15886 6.6337 3.15886C7.14604 3.15886 7.63326 3.26376 8.07692 3.45276C8.13453 3.47728 8.17789 3.39712 8.12614 3.36192C7.39199 2.86214 6.49425 2.58839 5.53131 2.63841C3.41422 2.74847 1.6831 4.45367 1.54622 6.56921C1.38704 9.02994 3.33425 11.0684 5.75598 11.0684C6.63113 11.0684 7.44468 10.7988 8.12028 10.3415C8.17231 10.3063 8.12919 10.226 8.07135 10.2505C7.62913 10.438 7.14389 10.5421 6.6337 10.5421C4.59738 10.5421 2.94304 8.88871 2.94304 6.85041Z" fill="#FFE15A"/>
<path d="M11.3796 6.85034L12.9399 6.2466C13.017 6.21674 12.9907 6.10157 12.9082 6.10818L11.2411 6.24168L12.3868 5.01708C12.4433 4.9567 12.3697 4.86441 12.2982 4.90608L10.8503 5.75076L11.3501 4.1528C11.3747 4.07392 11.2684 4.02273 11.2221 4.09126L10.2848 5.47978L10.0444 3.82243C10.0325 3.74054 9.91438 3.7405 9.90238 3.82234L9.74877 4.87102L9.68503 5.31478L9.66051 5.47978L8.72316 4.09243C8.67685 4.0239 8.57049 4.07518 8.59529 4.15412L9.09689 5.75076L7.64908 4.90608C7.57764 4.86441 7.50405 4.9567 7.56053 5.01708L8.7061 6.24172L7.03858 6.10822C6.95608 6.10161 6.92979 6.21683 7.00699 6.24664L8.56866 6.85034L7.00694 7.45418C6.92979 7.48404 6.95604 7.59921 7.03854 7.5926L8.7061 7.4591L7.56044 8.68684C7.504 8.74731 7.57778 8.83946 7.64912 8.7977L9.09684 7.95002L8.59524 9.54666C8.57044 9.62555 8.67685 9.67688 8.72311 9.60835L9.66042 8.22095L9.68493 8.38984L9.74868 8.82971L9.90229 9.88115C9.91424 9.96304 10.0324 9.96295 10.0443 9.88106L10.2847 8.22095L11.2221 9.60952C11.2684 9.67805 11.3747 9.62686 11.35 9.54797L10.8503 7.95002L12.2981 8.79765C12.3694 8.83942 12.4432 8.74726 12.3868 8.68679L11.2411 7.45905L12.9082 7.59255C12.9907 7.59916 13.017 7.48399 12.9399 7.45413L11.3796 6.85034Z" fill="#FFE15A"/>
</g>
<defs>
<clipPath id="clip0_8615_27532">
<path d="M0 2C0 0.89543 0.89543 0 2 0H21.9998C23.1044 0 23.9998 0.89543 23.9998 2V21.9998C23.9998 23.1044 23.1044 23.9998 21.9998 23.9998H2C0.89543 23.9998 0 23.1044 0 21.9998V2Z" fill="white"/>
</clipPath>
</defs>
</svg>
