<svg width="24" height="24" viewBox="0 0 24 24" fill="none" xmlns="http://www.w3.org/2000/svg">
<g clip-path="url(#clip0_8615_27527)">
<path d="M23.9988 0H-0.000976562V23.9998H23.9988V0Z" fill="#FF4B55"/>
<path d="M18.9454 5.05261V18.9472H5.05078V5.05261H18.9454Z" fill="#73AF00"/>
<path d="M10.7372 12.0018C10.7372 9.61045 12.3661 7.60769 14.5712 7.02761C14.6446 7.0083 14.6393 6.90213 14.564 6.89243C14.3639 6.86669 14.1605 6.85193 13.9534 6.85193C11.107 6.85193 8.80273 9.15581 8.80273 12.0018C8.80273 14.8355 11.107 17.1456 13.9534 17.1456C14.1608 17.1456 14.3644 17.1307 14.5647 17.1049C14.64 17.0952 14.6452 16.9891 14.5719 16.9698C12.3665 16.3887 10.7372 14.3831 10.7372 12.0018Z" fill="#F5F5F5"/>
</g>
<defs>
<clipPath id="clip0_8615_27527">
<path d="M0 2C0 0.895432 0.895431 0 2 0H21.9998C23.1043 0 23.9998 0.895431 23.9998 2V21.9998C23.9998 23.1043 23.1043 23.9998 21.9998 23.9998H2C0.895432 23.9998 0 23.1043 0 21.9998V2Z" fill="white"/>
</clipPath>
</defs>
</svg>
