<svg width="24" height="24" viewBox="0 0 24 24" fill="none" xmlns="http://www.w3.org/2000/svg">
<g clip-path="url(#clip0_8615_27524)">
<path d="M23.9979 0H11.998V23.9998H23.9979V0Z" fill="#FF4B55"/>
<path d="M11.9979 0H-0.00195312V23.9998H11.9979V0Z" fill="#F5F5F5"/>
<path d="M5.35737 1.47374V3.16362C5.45041 3.16727 5.55424 3.20951 5.64054 3.2958C5.72683 3.3821 5.76911 3.48593 5.77272 3.57897H7.46264V5.26318H5.77272C5.76907 5.35622 5.72683 5.46005 5.64054 5.54634C5.55429 5.63264 5.45046 5.67487 5.35737 5.67853V7.36845H3.67316V5.67853C3.58012 5.67492 3.47629 5.63264 3.39 5.54634C3.3037 5.4601 3.26147 5.35627 3.25781 5.26318H1.56794V3.57897H3.25786C3.26147 3.48593 3.30375 3.3821 3.39004 3.2958C3.47629 3.20956 3.58012 3.16727 3.67321 3.16362V1.47374H5.35737ZM5.56793 1.26318H5.35741H3.67321H3.4627V1.4737V2.99782C3.38231 3.03078 3.30693 3.08117 3.24122 3.14688C3.1755 3.21265 3.12506 3.28802 3.09211 3.36841H1.56794H1.35742V3.57893V5.26313V5.47364H1.56794H3.09206C3.12501 5.55403 3.17545 5.62945 3.24117 5.69517C3.30689 5.76089 3.38226 5.81128 3.46265 5.84423V7.36836V7.57887H3.67316H5.35737H5.56788V7.36836V5.84423C5.64827 5.81128 5.72369 5.76084 5.78941 5.69512C5.85513 5.62945 5.90552 5.55403 5.93847 5.47364H7.4626H7.67311V5.26313V3.57893V3.36846H7.4626H5.93847C5.90552 3.28807 5.85508 3.2127 5.78936 3.14693C5.72365 3.08121 5.64827 3.03082 5.56788 2.99787V1.47374L5.56793 1.26318Z" fill="#FF4B55"/>
<path d="M7.46307 3.57898H5.35779V1.47375H3.67364V3.57898H1.56836V5.26319H3.67364V7.36842H5.35779V5.26319H7.46307V3.57898Z" fill="#CDCDCD"/>
<path d="M4.51495 5.26343C4.98003 5.26343 5.35705 4.8864 5.35705 4.42132C5.35705 3.95624 4.98003 3.57922 4.51495 3.57922C4.04987 3.57922 3.67285 3.95624 3.67285 4.42132C3.67285 4.8864 4.04987 5.26343 4.51495 5.26343Z" fill="#B4A08C"/>
<path d="M3.7602 5.17603C3.61395 5.02979 3.41242 4.99422 3.31005 5.09659C3.20769 5.19895 3.24326 5.40049 3.3895 5.54673C3.53574 5.69297 3.73728 5.72854 3.83964 5.62618C3.94201 5.52381 3.90644 5.32228 3.7602 5.17603Z" fill="#B4A08C"/>
<path d="M5.64037 5.54657C5.78661 5.40033 5.82218 5.19879 5.71982 5.09643C5.61746 4.99407 5.41592 5.02964 5.26968 5.17588C5.12344 5.32212 5.08787 5.52366 5.19023 5.62602C5.29259 5.72838 5.49413 5.69281 5.64037 5.54657Z" fill="#B4A08C"/>
<path d="M5.27008 3.66698C5.41632 3.81323 5.61786 3.8488 5.72022 3.74643C5.82258 3.64407 5.78701 3.44253 5.64077 3.29629C5.49453 3.15005 5.29299 3.11448 5.19063 3.21684C5.08827 3.31921 5.12384 3.52074 5.27008 3.66698Z" fill="#B4A08C"/>
<path d="M3.3899 3.29632C3.24366 3.44257 3.20809 3.6441 3.31045 3.74647C3.41282 3.84883 3.61435 3.81326 3.7606 3.66702C3.90684 3.52077 3.94241 3.31924 3.84004 3.21687C3.73768 3.11451 3.53614 3.15008 3.3899 3.29632Z" fill="#B4A08C"/>
<path d="M4.51504 5.57391C3.87938 5.57391 3.3623 5.05684 3.3623 4.42117C3.3623 3.78551 3.87938 3.26843 4.51504 3.26843C5.15071 3.26843 5.66778 3.78551 5.66778 4.42117C5.66778 5.05684 5.15076 5.57391 4.51504 5.57391ZM4.51504 3.37367C3.93755 3.37367 3.46759 3.84363 3.46759 4.42112C3.46759 4.99862 3.93755 5.46858 4.51504 5.46858C5.09254 5.46858 5.5625 4.99862 5.5625 4.42112C5.5625 3.84363 5.09258 3.37367 4.51504 3.37367Z" fill="#B4A08C"/>
</g>
<defs>
<clipPath id="clip0_8615_27524">
<path d="M0 2C0 0.895432 0.895431 0 2 0H21.9998C23.1043 0 23.9998 0.895431 23.9998 2V21.9998C23.9998 23.1043 23.1043 23.9998 21.9998 23.9998H2C0.895432 23.9998 0 23.1043 0 21.9998V2Z" fill="white"/>
</clipPath>
</defs>
</svg>
