<svg width="24" height="24" viewBox="0 0 24 24" fill="none" xmlns="http://www.w3.org/2000/svg">
<g clip-path="url(#clip0_8615_27589)">
<path d="M23.9978 0H-0.00195312V23.9998H23.9978V0Z" fill="#41479B"/>
<path d="M-0.00195312 23.9998L23.9978 8.84204V4.42102L-0.00195312 23.3682V23.9998Z" fill="#F5F5F5"/>
<path d="M23.9978 0L-0.00195312 22.7366V23.3682L23.9978 4.42102V0Z" fill="#FF9B55"/>
<path d="M8.26768 6.88368L10.9457 6.54927L8.26768 6.21482L9.62493 5.38238L7.93623 5.7953L8.96395 4.39314L7.5618 5.42086L7.97471 3.73211L7.14227 5.08941L6.80782 2.41138L6.47337 5.08941L5.64092 3.73211L6.05384 5.42086L4.65168 4.39314L5.67941 5.7953L3.99066 5.38238L5.34796 6.21482L2.66992 6.54927L5.34791 6.88368L3.99066 7.71617L5.67941 7.30325L4.65168 8.70541L6.05384 7.67769L5.64092 9.36639L6.47337 8.00913L6.80782 10.6872L7.14227 8.00913L7.97471 9.36639L7.5618 7.67769L8.96395 8.70541L7.93623 7.30325L9.62493 7.71617L8.26768 6.88368Z" fill="#F5F5F5"/>
</g>
<defs>
<clipPath id="clip0_8615_27589">
<path d="M0 2C0 0.895432 0.895431 0 2 0H21.9998C23.1043 0 23.9998 0.895431 23.9998 2V21.9998C23.9998 23.1043 23.1043 23.9998 21.9998 23.9998H2C0.895432 23.9998 0 23.1043 0 21.9998V2Z" fill="white"/>
</clipPath>
</defs>
</svg>
