<svg width="40" height="40" viewBox="0 0 40 40" fill="none" xmlns="http://www.w3.org/2000/svg">
<path d="M0 3.33337C0 1.4924 1.4924 0 3.33337 0H36.6666C38.5076 0 40 1.4924 40 3.33337V36.6666C40 38.5076 38.5076 40 36.6666 40H3.33337C1.4924 40 0 38.5076 0 36.6666V3.33337Z" fill="#E51818"/>
<path d="M20.0283 4.23387C20.018 4.17451 19.9537 4.21453 19.9593 4.25922C19.181 6.95892 18.4323 9.66662 17.6513 12.3653C17.5286 12.7845 17.422 13.2111 17.239 13.6096C16.7226 14.7755 15.7993 15.758 14.6673 16.3437C13.9913 16.6485 13.2829 16.8729 12.5889 17.1311C11.6539 17.4562 10.7246 17.7974 9.79323 18.1329C9.55423 18.2213 9.3079 18.2936 9.07856 18.4057C9.15456 18.4514 9.23389 18.4917 9.31823 18.5198C10.0102 18.7562 10.6959 19.0117 11.3849 19.2575C12.3049 19.5786 13.2229 19.9058 14.1386 20.2396C14.736 20.4424 15.264 20.8033 15.7526 21.1955C17.083 19.8588 18.423 18.5318 19.753 17.1944C19.8263 17.1237 19.8913 17.0437 19.9727 16.982C20.007 16.9733 20.0353 16.9823 20.058 17.009C21.4513 18.407 22.8507 19.7994 24.246 21.1955C24.7407 20.7942 25.2797 20.4317 25.8874 20.229C26.6404 19.9545 27.3944 19.6847 28.1504 19.4189C28.9294 19.1494 29.7014 18.8589 30.4798 18.5875C30.6264 18.5321 30.7878 18.5014 30.9121 18.4007C30.6518 18.281 30.3768 18.1983 30.1084 18.0989C28.8351 17.6313 27.5534 17.1864 26.2787 16.7232C25.9451 16.5955 25.6047 16.4821 25.2844 16.3213C23.9117 15.5936 22.8557 14.282 22.4644 12.7752C21.6364 9.93275 20.8523 7.07731 20.0283 4.23387Z" fill="white"/>
<path d="M20.0641 19.711C20.0311 19.6673 19.9671 19.6696 19.9341 19.712C18.9318 20.7158 17.9278 21.718 16.9234 22.7198C17.1184 23.1851 17.3048 23.6563 17.4221 24.1482C17.4935 24.3867 17.5248 24.6341 17.5871 24.8749C18.3058 28.0992 19.0011 31.3285 19.6988 34.5575C19.7865 34.9724 19.8838 35.3852 19.9635 35.8021C19.9811 35.8031 20.0165 35.8055 20.0345 35.8065C20.8585 31.9538 21.6942 28.1036 22.5485 24.2576C22.6722 23.7283 22.8642 23.2188 23.0762 22.7198C22.0715 21.7177 21.0672 20.7145 20.0641 19.711Z" fill="white"/>
</svg>
