<svg width="24" height="24" viewBox="0 0 24 24" fill="none" xmlns="http://www.w3.org/2000/svg">
<g clip-path="url(#clip0_8615_27575)">
<path d="M23.9978 0H-0.00195312V23.9998H23.9978V0Z" fill="#41479B"/>
<path d="M23.9959 11.1723H12.8235V0H11.1684V11.1723H-0.00390625V12.8275H11.1684V23.9998H12.8235V12.8275H23.9959V11.1723Z" fill="#F5F5F5"/>
<path d="M8.07743 7.56019C8.06557 7.48978 8.03885 7.40639 8.0051 7.35272C7.93802 7.25996 7.8604 7.19503 7.78521 7.15468C7.19276 6.88247 6.69678 6.93591 6.22344 6.93394C5.75596 6.94599 5.31867 7.02661 4.96364 7.10433C4.86727 7.12374 4.78379 7.13822 4.69449 7.155C4.73865 7.06374 4.9005 6.94965 5.11847 6.88046C5.64979 6.69896 6.2564 6.62612 6.85255 6.50987C7.00311 6.48038 7.15573 6.44584 7.31201 6.4014C7.3962 6.37257 7.46698 6.35007 7.56607 6.30409C7.62968 6.26814 7.69221 6.22286 7.74579 6.17458C7.80279 6.12329 7.79848 6.10895 7.82777 6.07436C7.9631 5.81664 7.83499 5.63322 7.72756 5.53741C7.62401 5.45243 7.53678 5.41919 7.45376 5.38507C7.29261 5.32854 7.14331 5.2931 6.99922 5.26305C6.72158 5.20751 6.44858 5.15285 6.18144 5.09941C6.05451 5.07002 5.93174 5.0374 5.82403 4.99784C5.72887 4.97248 5.59453 4.87854 5.61445 4.90409C5.36887 4.88285 5.95073 4.60901 6.37035 4.45601C6.48186 4.4068 6.59272 4.35711 6.7063 4.28698C6.81772 4.21334 6.93256 4.15081 7.05636 3.94461C7.08069 3.90186 7.07961 3.89141 7.0924 3.86338L7.10656 3.8278C7.13731 3.71816 7.12034 3.74774 7.12751 3.70016C7.142 3.58513 7.09686 3.46223 7.02542 3.35976C6.87959 3.20217 6.73461 3.15703 6.62685 3.12689C6.18135 3.02132 5.86082 3.0502 5.58234 3.05128C5.05425 3.07607 4.75243 3.09028 4.75243 3.09028L4.73204 3.09121C4.73143 3.09126 4.73082 3.09126 4.73026 3.09131C4.56146 3.1012 4.4327 3.24599 4.44254 3.41474C4.44348 3.43124 4.45121 3.44502 4.45463 3.46068C4.21548 3.52654 3.83701 3.59399 3.46267 3.50573C3.40568 3.49255 3.35304 3.52687 3.33986 3.58148C3.32669 3.63651 3.361 3.69149 3.41561 3.70429C3.5627 3.73897 3.70863 3.75252 3.8478 3.75252C4.14334 3.75252 4.39581 3.69238 4.56821 3.63955C4.6238 3.6808 4.6914 3.70682 4.76597 3.70251C4.76597 3.70251 5.07094 3.68465 5.6047 3.65343C5.85459 3.64443 6.1904 3.63126 6.46747 3.69632C6.4904 3.69993 6.50272 3.70705 6.51786 3.71347C6.52007 3.68891 6.4731 3.75815 6.39993 3.79372C6.32882 3.83961 6.23629 3.88358 6.14001 3.92727C5.94318 4.01647 5.71786 4.09316 5.46816 4.2275C5.34759 4.29866 5.19849 4.37094 5.07469 4.58239C5.01685 4.68036 4.98933 4.83874 5.01975 4.9504L5.02875 4.99591L5.03391 5.01846L5.03663 5.02962C5.01746 4.98987 5.06578 5.09684 5.06199 5.08718L5.08697 5.1288C5.10914 5.16049 5.10572 5.17362 5.15892 5.22893C5.20163 5.27519 5.24986 5.3194 5.29959 5.35807C5.34319 5.38807 5.37572 5.40222 5.41495 5.42444C5.49225 5.47 5.56242 5.4911 5.63568 5.51983C5.78006 5.57064 5.92063 5.60524 6.06102 5.63622C6.33201 5.68722 6.60889 5.73935 6.89047 5.79231C7.00859 5.81514 7.11908 5.84392 7.22117 5.87538C7.09034 5.92258 6.90725 5.97006 6.74933 6.00053C6.17488 6.12179 5.5657 6.19511 4.94616 6.41265C4.79105 6.47167 4.63224 6.54221 4.47648 6.66146C4.32976 6.7726 4.17568 6.99427 4.19537 7.23774C4.14278 7.24505 4.08245 7.25583 4.03389 7.26122C3.50833 7.33078 3.28746 7.23825 3.30166 7.23553C3.23304 7.19503 3.14458 7.21772 3.10408 7.28635C3.06354 7.35492 3.08627 7.44342 3.15485 7.48392C3.15485 7.48392 3.24494 7.54514 3.40577 7.58034C3.5658 7.61658 3.79094 7.63312 4.06511 7.61156C4.14062 7.60636 4.22907 7.59511 4.31214 7.5863C4.36956 7.66908 4.4364 7.76043 4.49874 7.80464C4.64349 7.92609 4.79686 8.00376 4.94968 8.07182C5.56481 8.30971 6.17962 8.35973 6.77905 8.33615C7.07998 8.31351 7.37618 8.27845 7.68031 8.14274C7.8221 8.0766 8.01672 7.97245 8.07682 7.67114C8.07668 7.63284 8.08329 7.61526 8.07743 7.56019ZM7.63498 7.65511C7.62715 7.61058 7.60263 7.71159 7.48774 7.73944C7.29007 7.82629 7.02026 7.86604 6.75505 7.88001C6.22021 7.89759 5.63615 7.83515 5.13535 7.63205C5.0566 7.59567 4.99243 7.54987 4.92488 7.50609C4.962 7.50042 4.99421 7.49648 5.03227 7.49048C5.40445 7.43123 5.79229 7.36134 6.23788 7.35403C6.66224 7.34625 7.20261 7.35216 7.56143 7.53061C7.60315 7.55301 7.62134 7.57645 7.63512 7.59056C7.63512 7.59056 7.62321 7.57631 7.63648 7.56717C7.64238 7.57622 7.63502 7.62708 7.63498 7.65511Z" fill="#F5F5F5"/>
<path d="M20.9045 7.56019C20.8926 7.48978 20.8659 7.40639 20.8322 7.35272C20.7651 7.25996 20.6875 7.19503 20.6123 7.15468C20.0198 6.88247 19.5238 6.93591 19.0505 6.93394C18.583 6.94599 18.1457 7.02661 17.7907 7.10433C17.6943 7.12374 17.6108 7.13822 17.5215 7.155C17.5657 7.06374 17.7276 6.94965 17.9455 6.88046C18.4768 6.69896 19.0835 6.62612 19.6796 6.50987C19.8302 6.48038 19.9828 6.44584 20.1391 6.4014C20.2233 6.37257 20.294 6.35007 20.3931 6.30409C20.4567 6.26814 20.5193 6.22286 20.5728 6.17458C20.6298 6.12329 20.6255 6.10895 20.6548 6.07436C20.7902 5.81664 20.662 5.63322 20.5546 5.53741C20.4511 5.45243 20.3638 5.41919 20.2808 5.38507C20.1197 5.32854 19.9704 5.2931 19.8263 5.26305C19.5486 5.20751 19.2756 5.15285 19.0085 5.09941C18.8816 5.07002 18.7588 5.0374 18.6511 4.99784C18.5559 4.97248 18.4216 4.87854 18.4416 4.90409C18.196 4.88285 18.7778 4.60901 19.1975 4.45601C19.309 4.4068 19.4198 4.35711 19.5334 4.28698C19.6448 4.21334 19.7597 4.15081 19.8835 3.94461C19.9078 3.90186 19.9067 3.89141 19.9195 3.86338L19.9337 3.8278C19.9644 3.71816 19.9474 3.74774 19.9546 3.70016C19.9691 3.58513 19.924 3.46223 19.8525 3.35976C19.7067 3.20217 19.5617 3.15703 19.4539 3.12689C19.0085 3.02132 18.6879 3.0502 18.4094 3.05128C17.8814 3.07607 17.5796 3.09028 17.5796 3.09028L17.5592 3.09121C17.5586 3.09126 17.558 3.09126 17.5574 3.09131C17.3886 3.1012 17.2598 3.24599 17.2697 3.41474C17.2706 3.43124 17.2784 3.44502 17.2818 3.46068C17.0426 3.52654 16.6642 3.59399 16.2898 3.50573C16.2328 3.49255 16.1802 3.52687 16.167 3.58148C16.1538 3.63651 16.1882 3.69149 16.2428 3.70429C16.3899 3.73897 16.5358 3.75252 16.6749 3.75252C16.9705 3.75252 17.223 3.69238 17.3954 3.63955C17.451 3.6808 17.5185 3.70682 17.5931 3.70251C17.5931 3.70251 17.8981 3.68465 18.4318 3.65343C18.6817 3.64443 19.0175 3.63126 19.2946 3.69632C19.3175 3.69993 19.3299 3.70705 19.345 3.71347C19.3472 3.68891 19.3002 3.75815 19.2271 3.79372C19.156 3.83961 19.0634 3.88358 18.9672 3.92727C18.7703 4.01647 18.545 4.09316 18.2953 4.2275C18.1747 4.29866 18.0256 4.37094 17.9018 4.58239C17.844 4.68036 17.8165 4.83874 17.8469 4.9504L17.8559 4.99591L17.8611 5.01846L17.8638 5.02962C17.8446 4.98987 17.8929 5.09684 17.8891 5.08718L17.9141 5.1288C17.9363 5.16049 17.9329 5.17362 17.9861 5.22893C18.0288 5.27519 18.077 5.3194 18.1267 5.35807C18.1703 5.38807 18.2029 5.40222 18.2421 5.42444C18.3194 5.47 18.3896 5.4911 18.4628 5.51983C18.6072 5.57064 18.7478 5.60524 18.8882 5.63622C19.1592 5.68722 19.436 5.73935 19.7176 5.79231C19.8357 5.81514 19.9462 5.84392 20.0483 5.87538C19.9175 5.92258 19.7344 5.97006 19.5765 6.00053C19.002 6.12179 18.3928 6.19511 17.7733 6.41265C17.6182 6.47167 17.4594 6.54221 17.3036 6.66146C17.1569 6.7726 17.0028 6.99427 17.0225 7.23774C16.9699 7.24505 16.9096 7.25583 16.861 7.26122C16.3355 7.33078 16.1146 7.23825 16.1288 7.23553C16.0602 7.19503 15.9717 7.21772 15.9312 7.28635C15.8907 7.35492 15.9134 7.44342 15.982 7.48392C15.982 7.48392 16.0721 7.54514 16.2329 7.58034C16.3929 7.61658 16.6181 7.63312 16.8923 7.61156C16.9678 7.60636 17.0562 7.59511 17.1393 7.5863C17.1967 7.66908 17.2635 7.76043 17.3259 7.80464C17.4706 7.92609 17.624 8.00376 17.7768 8.07182C18.392 8.30971 19.0068 8.35973 19.6062 8.33615C19.9071 8.31351 20.2033 8.27845 20.5075 8.14274C20.6492 8.0766 20.8439 7.97245 20.904 7.67114C20.9037 7.63284 20.9103 7.61526 20.9045 7.56019ZM20.462 7.65511C20.4542 7.61058 20.4297 7.71159 20.3148 7.73944C20.1171 7.82629 19.8473 7.86604 19.5821 7.88001C19.0473 7.89759 18.4632 7.83515 17.9624 7.63205C17.8837 7.59567 17.8195 7.54987 17.7519 7.50609C17.7891 7.50042 17.8213 7.49648 17.8593 7.49048C18.2315 7.43123 18.6193 7.36134 19.0649 7.35403C19.4893 7.34625 20.0297 7.35216 20.3885 7.53061C20.4302 7.55301 20.4484 7.57645 20.4622 7.59056C20.4622 7.59056 20.4503 7.57631 20.4635 7.56717C20.4695 7.57622 20.4621 7.62708 20.462 7.65511Z" fill="#F5F5F5"/>
<path d="M8.07743 20.1718C8.06557 20.1014 8.03885 20.018 8.0051 19.9643C7.93802 19.8715 7.8604 19.8066 7.78521 19.7662C7.19276 19.494 6.69678 19.5475 6.22344 19.5455C5.75596 19.5576 5.31867 19.6382 4.96364 19.7159C4.86727 19.7353 4.78379 19.7498 4.69449 19.7666C4.73865 19.6753 4.9005 19.5612 5.11847 19.492C5.64979 19.3105 6.2564 19.2377 6.85255 19.1214C7.00311 19.092 7.15573 19.0574 7.31201 19.013C7.3962 18.9841 7.46698 18.9616 7.56607 18.9157C7.62968 18.8797 7.69221 18.8344 7.74579 18.7861C7.80279 18.7349 7.79848 18.7205 7.82777 18.6859C7.9631 18.4283 7.83499 18.2448 7.72756 18.149C7.62401 18.064 7.53678 18.0308 7.45376 17.9966C7.29261 17.9401 7.14331 17.9047 6.99922 17.8746C6.72158 17.8191 6.44858 17.7644 6.18144 17.711C6.05451 17.6816 5.93174 17.649 5.82403 17.6094C5.72887 17.5841 5.59453 17.4901 5.61445 17.5157C5.36887 17.4944 5.95073 17.2206 6.37035 17.0676C6.48186 17.0184 6.59272 16.9687 6.7063 16.8986C6.81772 16.8249 6.93256 16.7624 7.05636 16.5562C7.08069 16.5134 7.07961 16.503 7.0924 16.475L7.10656 16.4394C7.13731 16.3297 7.12034 16.3593 7.12751 16.3117C7.142 16.1967 7.09686 16.0738 7.02542 15.9713C6.87959 15.8137 6.73461 15.7686 6.62685 15.7385C6.18135 15.6329 5.86082 15.6618 5.58234 15.6628C5.05425 15.6876 4.75243 15.7018 4.75243 15.7018L4.73204 15.7028C4.73143 15.7028 4.73082 15.7028 4.73026 15.7029C4.56146 15.7128 4.4327 15.8576 4.44254 16.0263C4.44348 16.0428 4.45121 16.0566 4.45463 16.0723C4.21548 16.1381 3.83701 16.2056 3.46267 16.1173C3.40568 16.1041 3.35304 16.1384 3.33986 16.193C3.32669 16.2481 3.361 16.3031 3.41561 16.3159C3.5627 16.3505 3.70863 16.3641 3.8478 16.3641C4.14334 16.3641 4.39581 16.304 4.56821 16.2511C4.6238 16.2924 4.6914 16.3184 4.76597 16.3141C4.76597 16.3141 5.07094 16.2962 5.6047 16.265C5.85459 16.256 6.1904 16.2428 6.46747 16.3079C6.4904 16.3115 6.50272 16.3186 6.51786 16.325C6.52007 16.3005 6.4731 16.3697 6.39993 16.4053C6.32882 16.4512 6.23629 16.4952 6.14001 16.5388C5.94318 16.628 5.71786 16.7047 5.46816 16.8391C5.34759 16.9102 5.19849 16.9825 5.07469 17.194C5.01685 17.2919 4.98933 17.4503 5.01975 17.562L5.02875 17.6075L5.03391 17.63L5.03663 17.6412C5.01746 17.6014 5.06578 17.7084 5.06199 17.6988L5.08697 17.7404C5.10914 17.7721 5.10572 17.7852 5.15892 17.8405C5.20163 17.8868 5.24986 17.931 5.29959 17.9696C5.34319 17.9996 5.37572 18.0138 5.41495 18.036C5.49225 18.0816 5.56242 18.1027 5.63568 18.1314C5.78006 18.1822 5.92063 18.2168 6.06102 18.2478C6.33201 18.2988 6.60889 18.3509 6.89047 18.4039C7.00859 18.4267 7.11908 18.4555 7.22117 18.4869C7.09034 18.5342 6.90725 18.5816 6.74933 18.6121C6.17488 18.7334 5.5657 18.8067 4.94616 19.0242C4.79105 19.0832 4.63224 19.1538 4.47648 19.273C4.32976 19.3842 4.17568 19.6058 4.19537 19.8493C4.14278 19.8566 4.08245 19.8674 4.03389 19.8728C3.50833 19.9424 3.28746 19.8498 3.30166 19.8471C3.23304 19.8066 3.14458 19.8293 3.10408 19.8979C3.06354 19.9665 3.08627 20.055 3.15485 20.0955C3.15485 20.0955 3.24494 20.1567 3.40577 20.1919C3.5658 20.2281 3.79094 20.2447 4.06511 20.2231C4.14062 20.2179 4.22907 20.2067 4.31214 20.1979C4.36956 20.2806 4.4364 20.372 4.49874 20.4162C4.64349 20.5377 4.79686 20.6153 4.94968 20.6833C5.56481 20.9212 6.17962 20.9713 6.77905 20.9477C7.07998 20.925 7.37618 20.89 7.68031 20.7543C7.8221 20.6881 8.01672 20.584 8.07682 20.2827C8.07668 20.2445 8.08329 20.2268 8.07743 20.1718ZM7.63498 20.2667C7.62715 20.2222 7.60263 20.3232 7.48774 20.3511C7.29007 20.4379 7.02026 20.4777 6.75505 20.4916C6.22021 20.5092 5.63615 20.4468 5.13535 20.2437C5.0566 20.2073 4.99243 20.1615 4.92488 20.1177C4.962 20.112 4.99421 20.1081 5.03227 20.1021C5.40445 20.0429 5.79229 19.973 6.23788 19.9657C6.66224 19.9579 7.20261 19.9638 7.56143 20.1422C7.60315 20.1646 7.62134 20.1881 7.63512 20.2022C7.63512 20.2022 7.62321 20.1879 7.63648 20.1788C7.64238 20.1878 7.63502 20.2386 7.63498 20.2667Z" fill="#F5F5F5"/>
<path d="M20.9045 20.1718C20.8926 20.1014 20.8659 20.018 20.8322 19.9643C20.7651 19.8715 20.6875 19.8066 20.6123 19.7662C20.0198 19.494 19.5238 19.5475 19.0505 19.5455C18.583 19.5576 18.1457 19.6382 17.7907 19.7159C17.6943 19.7353 17.6108 19.7498 17.5215 19.7666C17.5657 19.6753 17.7276 19.5612 17.9455 19.492C18.4768 19.3105 19.0835 19.2377 19.6796 19.1214C19.8302 19.092 19.9828 19.0574 20.1391 19.013C20.2233 18.9841 20.294 18.9616 20.3931 18.9157C20.4567 18.8797 20.5193 18.8344 20.5728 18.7861C20.6298 18.7349 20.6255 18.7205 20.6548 18.6859C20.7902 18.4283 20.662 18.2448 20.5546 18.149C20.4511 18.064 20.3638 18.0308 20.2808 17.9966C20.1197 17.9401 19.9704 17.9047 19.8263 17.8746C19.5486 17.8191 19.2756 17.7644 19.0085 17.711C18.8816 17.6816 18.7588 17.649 18.6511 17.6094C18.5559 17.5841 18.4216 17.4901 18.4416 17.5157C18.196 17.4944 18.7778 17.2206 19.1975 17.0676C19.309 17.0184 19.4198 16.9687 19.5334 16.8986C19.6448 16.8249 19.7597 16.7624 19.8835 16.5562C19.9078 16.5134 19.9067 16.503 19.9195 16.475L19.9337 16.4394C19.9644 16.3297 19.9474 16.3593 19.9546 16.3117C19.9691 16.1967 19.924 16.0738 19.8525 15.9713C19.7067 15.8137 19.5617 15.7686 19.4539 15.7385C19.0085 15.6329 18.6879 15.6618 18.4094 15.6628C17.8814 15.6876 17.5796 15.7018 17.5796 15.7018L17.5592 15.7028C17.5586 15.7028 17.558 15.7028 17.5574 15.7029C17.3886 15.7128 17.2598 15.8576 17.2697 16.0263C17.2706 16.0428 17.2784 16.0566 17.2818 16.0723C17.0426 16.1381 16.6642 16.2056 16.2898 16.1173C16.2328 16.1041 16.1802 16.1384 16.167 16.193C16.1538 16.2481 16.1882 16.3031 16.2428 16.3159C16.3899 16.3505 16.5358 16.3641 16.6749 16.3641C16.9705 16.3641 17.223 16.304 17.3954 16.2511C17.451 16.2924 17.5185 16.3184 17.5931 16.3141C17.5931 16.3141 17.8981 16.2962 18.4318 16.265C18.6817 16.256 19.0175 16.2428 19.2946 16.3079C19.3175 16.3115 19.3299 16.3186 19.345 16.325C19.3472 16.3005 19.3002 16.3697 19.2271 16.4053C19.156 16.4512 19.0634 16.4952 18.9672 16.5388C18.7703 16.628 18.545 16.7047 18.2953 16.8391C18.1747 16.9102 18.0256 16.9825 17.9018 17.194C17.844 17.2919 17.8165 17.4503 17.8469 17.562L17.8559 17.6075L17.8611 17.63L17.8638 17.6412C17.8446 17.6014 17.8929 17.7084 17.8891 17.6988L17.9141 17.7404C17.9363 17.7721 17.9329 17.7852 17.9861 17.8405C18.0288 17.8868 18.077 17.931 18.1267 17.9696C18.1703 17.9996 18.2029 18.0138 18.2421 18.036C18.3194 18.0816 18.3896 18.1027 18.4628 18.1314C18.6072 18.1822 18.7478 18.2168 18.8882 18.2478C19.1592 18.2988 19.436 18.3509 19.7176 18.4039C19.8357 18.4267 19.9462 18.4555 20.0483 18.4869C19.9175 18.5342 19.7344 18.5816 19.5765 18.6121C19.002 18.7334 18.3928 18.8067 17.7733 19.0242C17.6182 19.0832 17.4594 19.1538 17.3036 19.273C17.1569 19.3842 17.0028 19.6058 17.0225 19.8493C16.9699 19.8566 16.9096 19.8674 16.861 19.8728C16.3355 19.9424 16.1146 19.8498 16.1288 19.8471C16.0602 19.8066 15.9717 19.8293 15.9312 19.8979C15.8907 19.9665 15.9134 20.055 15.982 20.0955C15.982 20.0955 16.0721 20.1567 16.2329 20.1919C16.3929 20.2281 16.6181 20.2447 16.8923 20.2231C16.9678 20.2179 17.0562 20.2067 17.1393 20.1979C17.1967 20.2806 17.2635 20.372 17.3259 20.4162C17.4706 20.5377 17.624 20.6153 17.7768 20.6833C18.392 20.9212 19.0068 20.9713 19.6062 20.9477C19.9071 20.925 20.2033 20.89 20.5075 20.7543C20.6492 20.6881 20.8439 20.584 20.904 20.2827C20.9037 20.2445 20.9103 20.2268 20.9045 20.1718ZM20.462 20.2667C20.4542 20.2222 20.4297 20.3232 20.3148 20.3511C20.1171 20.4379 19.8473 20.4777 19.5821 20.4916C19.0473 20.5092 18.4632 20.4468 17.9624 20.2437C17.8837 20.2073 17.8195 20.1615 17.7519 20.1177C17.7891 20.112 17.8213 20.1081 17.8593 20.1021C18.2315 20.0429 18.6193 19.973 19.0649 19.9657C19.4893 19.9579 20.0297 19.9638 20.3885 20.1422C20.4302 20.1646 20.4484 20.1881 20.4622 20.2022C20.4622 20.2022 20.4503 20.1879 20.4635 20.1788C20.4695 20.1878 20.4621 20.2386 20.462 20.2667Z" fill="#F5F5F5"/>
</g>
<defs>
<clipPath id="clip0_8615_27575">
<path d="M0 2C0 0.895432 0.895431 0 2 0H21.9998C23.1043 0 23.9998 0.895431 23.9998 2V21.9998C23.9998 23.1043 23.1043 23.9998 21.9998 23.9998H2C0.895432 23.9998 0 23.1043 0 21.9998V2Z" fill="white"/>
</clipPath>
</defs>
</svg>
