<svg width="24" height="24" viewBox="0 0 24 24" fill="none" xmlns="http://www.w3.org/2000/svg">
<g clip-path="url(#clip0_8615_27520)">
<path d="M23.9968 0H-0.00292969V23.9998H23.9968V0Z" fill="#73AF00"/>
<path d="M16.4501 10.546C16.439 10.4753 16.3365 10.4788 16.3284 10.5499C16.0816 12.725 14.2366 14.4149 11.9948 14.4149C9.75365 14.4149 7.90806 12.7251 7.66108 10.55C7.65301 10.4789 7.5505 10.4754 7.53939 10.5461C7.50512 10.7649 7.48633 10.9886 7.48633 11.2171C7.48633 13.7046 9.50521 15.7241 11.9947 15.7241C14.485 15.7241 16.5031 13.7046 16.5031 11.2171C16.5032 10.9886 16.4844 10.7648 16.4501 10.546Z" fill="#FFE15A"/>
<path d="M11.9383 8.68451L11.6123 9.66208L10.5819 9.67005C10.5254 9.67047 10.502 9.74256 10.5474 9.77613L11.3764 10.3883L11.0656 11.3708C11.0485 11.4246 11.1099 11.4692 11.1558 11.4363L11.9941 10.8371L12.8325 11.4363C12.8784 11.4691 12.9398 11.4246 12.9227 11.3707L12.6119 10.3882L13.4409 9.77608C13.4863 9.74252 13.4629 9.67042 13.4064 9.67L12.376 9.66203L12.0499 8.68446C12.032 8.63089 11.9562 8.63089 11.9383 8.68451Z" fill="#FFE15A"/>
</g>
<defs>
<clipPath id="clip0_8615_27520">
<path d="M0 2C0 0.895432 0.895431 0 2 0H21.9998C23.1043 0 23.9998 0.895431 23.9998 2V21.9998C23.9998 23.1043 23.1043 23.9998 21.9998 23.9998H2C0.895432 23.9998 0 23.1043 0 21.9998V2Z" fill="white"/>
</clipPath>
</defs>
</svg>
