<?xml version="1.0" encoding="utf-8"?>
<!-- Generator: Adobe Illustrator 28.1.0, SVG Export Plug-In . SVG Version: 6.00 Build 0)  -->
<svg version="1.1" id="Layer_1" xmlns="http://www.w3.org/2000/svg" xmlns:xlink="http://www.w3.org/1999/xlink" x="0px" y="0px"
	 viewBox="0 0 512 512" style="enable-background:new 0 0 512 512;" xml:space="preserve">
<g>
	<defs>
		<path id="SVGID_1_" d="M512,400V112C512,50.1,461.9,0,400,0H112C50.2,0,0,50.1,0,112v288c0,61.8,50.2,112,112,112h288
			C461.9,512,512,461.9,512,400z"/>
	</defs>
	<clipPath id="SVGID_00000055684952514109503720000016255559060089216924_">
		<use xlink:href="#SVGID_1_"  style="overflow:visible;"/>
	</clipPath>
	<path style="clip-path:url(#SVGID_00000055684952514109503720000016255559060089216924_);fill:#FFFFFF;" d="M484.4-45.7H13.8
		c-3.4,0-6.8,0.3-10.2,1L3.6-5.7l-45.9-0.1c-7.3,14.5-11.1,31.5-11.1,48.9v399.5c0,49,30.1,88.8,67.2,88.8h470.6
		c37.1,0,67.2-39.8,67.2-88.8V43.1C551.6-5.9,521.5-45.7,484.4-45.7z"/>
	<g style="clip-path:url(#SVGID_00000055684952514109503720000016255559060089216924_);">
		<rect x="-72.8" y="-19.4" fill="#FFFFFF" width="657.7" height="550.9"/>
		<path fill="#D42E12" d="M88.5,128.9V81.1h15.6l10.2,36.3l10-36.3H140v47.7h-9.9V90.4l-10.4,38.5h-10.8L98.4,90.4v38.5H88.5
			 M169.7,90.7l-7.1,20.3h14.2L169.7,90.7 M163.6,81.1h12.2l18.5,47.7h-11l-3.5-9.8h-19.8l-3.4,9.8h-11.1L163.6,81.1 M222.3,128.9
			h-10.5v-17.8l-18.6-29.9h12.9l10.9,20.6l10.1-20.6h12l-16.9,29.9V128.9 M252.3,105.1c0,5.3,1.3,9.3,3.8,12.3
			c2.5,2.9,6,4.3,10.5,4.3c4.5,0,8.1-1.4,10.6-4.3c2.5-2.9,3.8-7,3.8-12.3c0-5.3-1.3-9.3-3.8-12.2c-2.5-2.9-6.1-4.4-10.6-4.4
			c-4.5,0-8,1.4-10.5,4.3C253.5,95.7,252.3,99.8,252.3,105.1 M241.6,105.1c0-7.7,2.2-13.8,6.7-18.3c4.5-4.5,10.6-6.8,18.2-6.8
			c7.6,0,13.7,2.3,18.2,6.8c4.5,4.5,6.8,10.7,6.8,18.3c0,7.7-2.3,13.8-6.8,18.3c-4.5,4.5-10.6,6.8-18.2,6.8
			c-7.6,0-13.7-2.3-18.2-6.8C243.8,118.9,241.6,112.8,241.6,105.1 M310.5,128.9V89.7h-15.2v-8.5h40.8v8.5h-15.1v39.2H310.5
			 M352.8,128.9V89.7h-15.2v-8.5h40.8v8.5h-15.1v39.2H352.8 M384.4,128.9V81.1h37.1v8.3h-26.8v10.2h24.5v8.2h-24.5v12.3h28v8.8
			L384.4,128.9"/>
		<g id="seahorse" transform="translate(-98.734,-81.608796)">
			<path fill="#DFDFDF" d="M219.3,245.4c-4.5,0.6-7.8,1.8-12.3,4.5c-1.4,0.9-2.8,1.5-3,1.4c-0.3-0.1-0.5-0.8-0.7-1.8
				c-0.1-0.8-0.4-1.8-0.6-2.1c-0.6-0.9-1.2-0.2-2.4,2.8c-0.5,1.4-1.1,2.8-1.3,2.9c-0.6,0.7-1.3,0.4-2.2-0.7
				c-0.9-1.2-2.3-1.5-2.6-0.7c-0.1,0.3,0,1.3,0.2,2.3c0.6,2.9-0.3,3.4-2.9,1.4c-2.2-1.7-3.1-2.1-3.9-1.6c-0.9,0.5-0.8,1.1,0.3,3.7
				c1,2.3,1,3.9,0.1,2.6c-0.3-0.3-1.4-1.1-2.6-1.7c-1.2-0.6-3-1.6-4.1-2.2c-1.1-0.6-2.6-1.3-3.4-1.6c-1.4-0.5-8.8-1.6-9.5-1.3
				c-0.2,0.1,0.8,0.9,2.3,1.9c3.1,2.1,9.1,7.6,9.1,8.3c0,0.4-0.3,0.5-2.5,0.3c-2.9-0.3-2.8-0.3-2.2,2.6c0.2,1,0.3,1.7,0.1,1.9
				c-0.2,0.2-1.2,0.1-2.6-0.2c-1.3-0.3-2.4-0.5-2.5-0.5c-0.5,0-0.3,2.5,0.4,4.6c0.6,2,0.6,2.2,0.1,2.5c-0.6,0.5-1.3,0.3-6.1-1.9
				c-2.8-1.3-3.5-1.5-5.1-1.5c-1,0-2.1,0.3-2.6,0.5l-0.9,0.4l2,2.2c2.4,2.6,4.9,6.1,5.2,7.6c0.7,2.4-1.6,2.8-9.4,1.8
				c-4.3-0.6-7.1-0.5-8.6,0.3c-1.1,0.6-4.9,4.1-4.9,4.5c0,0.2,1.8,0.4,4,0.5c4.7,0.2,8.1,1,10.8,2.5c2.6,1.4,2.6,1.8-0.3,1.8
				c-2.4,0-3.8,0.4-5,1.4c-0.6,0.5-0.6,0.5,0,1.2c0.9,1,2.7,1.8,4.8,2.1c1.1,0.2,2,0.4,2.1,0.5c0.1,0.1-0.9,0.3-2.2,0.5
				c-3.3,0.5-7.8,1.9-10.1,3c-2,1-2.1,1.1-2.5,4l-0.2,1.2l1-0.2c1.6-0.3,9.7-0.5,11-0.3c2,0.4,1.4,0.9-1.7,1.3
				c-3.9,0.5-6.1,0.9-7.1,1.4l-0.8,0.4l1.7,0.8c0.9,0.5,3.1,1.1,4.8,1.5c7.3,1.5,8.2,2.4,2.1,2c-5-0.3-7.1-0.1-6.9,0.7
				c0.2,0.9,3.3,2.4,6.5,3.2c2,0.5,1.2,0.9-2,1c-2.9,0.1-5.1,0.8-6,2.1c-0.7,0.9-0.3,5,0.6,5.6c0.2,0.1,0.6,0,0.8-0.3
				c0.3-0.3,1.6-1,2.9-1.6c2.4-1.2,2.4-1.2,5.9-0.6c1.5,0.2,2.8,1.4,3.9,3.7c0.5,1.1,1.6,2.8,2.4,3.8c0.8,1,1.8,2.2,2.1,2.6
				c0.6,0.7,0.6,0.8-0.1,2.1c-0.3,0.8-0.7,1.6-0.8,1.9c-0.6,1.9-10.2,1.3-17.7-1.2c-3-1-7.5-3.2-9.5-4.7l-1.5-1.1v1.2
				c0,3,2.4,8.1,4.7,10.2l1.5,1.3L138,347c-1.9,3.7-2,5.1-0.6,6.6c0.5,0.6,0.9,1.2,0.8,1.4c-0.1,0.3-0.9,0.9-1.8,1.4
				c-2.8,1.6-2.7,1.4-1.5,2c0.6,0.3,2.1,0.6,3.4,0.7c1.4,0.1,2.5,0.3,2.7,0.6c0.8,0.9-0.8,3-3.7,4.7c-0.5,0.3-0.1,0.4,1.9,0.7
				c1.4,0.2,3.4,0.4,4.5,0.4l1.9,0.1l-0.7,1.2c-0.8,1.4-2.3,2.9-3.5,3.7l-0.9,0.6l1,0.1c0.5,0.1,1.6,0,2.4-0.1
				c2.4-0.4,5.2-0.3,5.8,0.1c1,0.7,0.2,2.4-2.3,4.7l-2.1,2.1l1.4,0.2c2.6,0.4,5.9,0,7.6-0.9c0.9-0.4,1.7-0.8,1.8-0.7
				c0.4,0.5-1.3,5-2.4,6.3c-0.3,0.3-0.4,0.6-0.3,0.8c0.1,0.1,1.8,0.2,3.7,0.2c2.7,0,3.8-0.1,4.6-0.6c0.6-0.3,1.1-0.5,1.2-0.5
				c0,0,0.1,0.7,0.1,1.5c0,1.1-0.2,1.7-0.8,2.5l-0.8,1h0.9c2,0,6.9-1.6,8.6-2.9c1.1-0.8,1.2-0.8,1.2,0.4c0,1.3-0.7,3.2-1.4,4
				c-0.7,0.8-0.5,0.8,2.6,0c2.8-0.7,5.2-1.7,6.5-2.5c1.2-0.8,1.3-0.8,1,0.6c-0.3,1.6-0.9,2.5-2.1,3.1c-0.5,0.3-0.9,0.6-0.8,0.6
				c0.3,0.3,6.9-0.8,8.4-1.3c0.8-0.3,1.6-0.7,1.9-1c0.5-0.5,0.6-0.5,0.6,0.3c0,0.4-0.3,1.4-0.8,2.3c-0.4,0.8-0.8,1.5-0.8,1.6
				c0,0.3,1.7-0.3,3.7-1.2c1.1-0.5,2.4-0.9,2.9-0.9c1.1,0,2.3,1,3.3,2.5c0.5,0.8,1.3,1.5,2.9,2.3l2.2,1.1l0.1-1.3
				c0.2-1.2,5.3-14.8,5.8-15.3c0.2-0.2,6.5,4.1,12.6,8.6c3.7,2.7,12.1,11.1,14.6,14.5c6.8,9.3,9,15.7,9.1,26c0,5.7-0.4,8.7-1.7,14.2
				c-2.9,11.7-9.6,22.9-17.2,28.5c-5,3.7-10.9,5-22,4.6c-13.4-0.4-21.7-3.2-27.9-9.2c-4.6-4.5-7.6-10.4-8.8-17.3
				c-0.2-1.1-0.3-3.9-0.3-6.1c0-7.6,1.7-12.9,5.5-17c3.3-3.5,6.7-5.4,11.2-6.1c4.2-0.7,9.1,0.8,12,3.5c2.1,1.9,2.2,2.8,0.5,6.1
				c-1.4,2.9-1.6,3.7-0.7,4.6c0.8,0.8,2.6,0.8,4.6-0.2c2.9-1.3,4.4-4.6,4.1-9.2c-0.3-4.1-2.2-6.8-6.5-9c-4.2-2.1-6.3-2.5-12.9-2.5
				c-5.4,0-6,0.1-8.6,0.9c-5.3,1.6-8.5,3.7-10.9,7.2c-5.6,8-8.7,21.6-6.9,30.5c1.4,6.7,5.2,14,10.4,20.1
				c8.8,10.2,20.6,14.9,37.4,14.9c12.5,0,21.3-2.4,30.1-8.1c9.8-6.3,16.1-14.5,21.5-27.8c1.4-3.6,2-5.9,2.3-9
				c0.1-1.5,0.3-2.8,0.6-3.1c1.3-1.4,1.7-5.5,0.9-8.2l-0.5-1.5l1-0.8c1.7-1.5,1.5-4.9-0.4-7.1l-0.9-1l1-1c1.3-1.4,1.9-4,1.7-7.4
				c-0.2-2.4-1.2-5.7-1.8-5.7c-0.6,0-0.2-0.8,0.7-1.4c1.4-0.8,2.2-2.3,2.2-4.1c0-3.8-1.6-9.6-2.7-10.1c-0.5-0.2-0.6-1-0.1-1
				c0.7,0,1.7-2.9,1.8-5.6c0.2-3.4-0.5-5.9-1.8-7.3l-0.9-0.9l1-2c0.8-1.7,1-2.2,0.8-3.7c-0.3-3.3-4-9.5-6.8-11.3
				c-1-0.7-1.3-1-1.3-1.8c0-2.1-1.7-5.2-4.6-8.3c-3-3.2-4-4.6-4.6-6.9c-0.4-1.4-0.9-2.2-2.2-3.5c-1.5-1.5-4.8-3.5-6.7-4
				c-0.4-0.1-0.6-0.4-0.6-0.9c0-2-2.5-5.4-4.7-6.4c-1.1-0.5-1.3-0.7-1.3-1.6c0-1.3-1.1-2.6-3.6-4.3c-2.4-1.6-6.1-2.6-11.9-3.1
				c-12.2-1-17.6-3-23.3-8.7c-3.5-3.4-4.8-5.8-6.1-10.3c-1-3.8-1.1-7.3-0.2-10.1c0.7-1.9,2.8-5.9,3.1-5.9c0.1,0-0.1,1-0.4,2.3
				c-0.8,3-0.9,7.9-0.2,10.2c1,3.3,3.1,5.8,5.9,7.3c1.9,1,2.9,1.2,6.2,1.5c3.4,0.3,5.8,1,6.9,2c1.7,1.6,5.5,1.8,9.1,0.5
				c0.9-0.3,2.7-0.7,3.9-0.8l2.3-0.2l2.9,2c3,2.1,16,9.4,18.3,10.3c4.2,1.7,8.9,0.5,10.8-2.7c1.6-2.5,0.2-4.9-6.6-11.1
				c-5.5-5-6.8-6.6-7.6-9.5c-0.3-1.2-1.3-3.9-2.3-5.9c-2.3-4.9-2.3-5.8-0.2-8c0.8-0.9,1.8-2.2,2-2.8c0.5-1.2,0.7-3.8,0.4-4.2
				c-0.2-0.2-2.3,0.3-3.4,0.7c-0.3,0.1-0.4-0.3-0.3-2.5c0.1-1.7-0.1-3-0.3-3.6l-0.4-0.9l-1.1,1.1c-1.2,1.1-2,1.4-2.4,0.8
				c-0.1-0.2-0.3-1.1-0.5-2c-0.3-2-1.6-5-1.9-4.7c-0.1,0.1-0.4,0.8-0.6,1.4c-0.2,0.7-0.5,1.2-0.6,1.2c-0.1,0-0.3-0.8-0.5-1.7
				c-0.3-2.7-0.7-3.8-1.6-4.6c-0.7-0.7-0.9-0.7-1.1-0.3c-0.2,0.3-0.3,0.8-0.3,1.3c0,1.4-0.9,4.2-2,6.5c-2.3,4.5-4.4,4.1-8.8-1.7
				c-2.5-3.3-2.9-4.4-2.2-5.9c1.7-3.5,8.6-8.2,15.2-10.3c1.2-0.4,2.2-0.8,2.2-0.9c0-0.6-1.6-2-2.9-2.7
				C223.7,245.2,221.9,245,219.3,245.4z"/>
			<path d="M154.6,307.7c2-1.1-7.7-0.9-9.7-0.9c-1.4,0.4-2.7,1-3.1,0.8c-0.4-0.2-0.1-1.7,0.3-4.4c1.5-1.2,3.1-1.9,4.8-2.4
				c1.6-0.6,3-0.9,4.8-1.5c1.7-0.2,2.3-0.1,4.8-0.7c-2.9-0.5-5-0.1-7.9-3.2c1.2-0.7,1.6-1.6,3-1.9c1.4-0.3,1.9-0.3,3.1-0.3
				c2.2,0,2.9,0.4,1.4-0.7c-1.5-1.1-4.3-2.3-7.5-2.9c-2.8-0.5-7-0.5-9.1-0.6c0.9-1.9,2.7-2.9,3.7-4.1c1.7-2.1,5.7-2.1,11.7-1.1
				c9.5,1.2,10,0,4.1-7.5l-3.8-4.2l2.4-1l2.6-0.1c2.5,0.6,5.7,2.5,7.6,3.3c3.1,1.4,2.9,0.1,2-2.4c-0.8-2.1-0.2-2.1-0.5-4.5
				c1.5,0,5.6,1.5,5.6,0.6c0-1.2-0.5-1.9-0.8-4.6c1.4,0,4.4,0.4,5,0.2s-0.9-1.7-2.5-3.1l-4.2-3.7l-5.9-4l8.8,1.1
				c2.7,0,7,2.9,9.2,4.1c1.1,0.6,2.2,0.8,2.9,1.5c1.6,0.6-0.3,2.1,0.8,0.7c0.6-1-2.1-4.1-1.7-5.7c1.9-3.6,6.2,3,7.1,2
				c1.8-0.2-0.9-4.3,0.5-5.2c2-1.2,3.2,2.9,4.3,2.2c1.1-0.7,1.8-6,3.5-6.7c1.7-0.7,1,5.4,2.2,4.6c2.5-1.7,7.9-5.1,12.4-5.8
				c2.2-0.3,4.8-1,7-0.6c2.2,0.4,4.3,1.9,4.9,3.8c-3,0.9-3.4,0.9-6.5,2.3c-3.1,1.2-7.1,4.1-9.1,6c-3.3,3.7-3.3,4.1,0.4,8.7
				c4.6,6.4,6.9,6,9.5-1.4c1.1-2.9,0.7-4.7,1.2-5.7c0.3,0.2,1.3,0.6,2,1.6c0.6,0.9,1.1,4.7,1,5.7c0.5-0.3,0.9-1.5,1.3-3.6
				c1.2,2.2,1.5,3,1.9,4c0.4,1.1,0.1,3.9,1.2,3.9c0.7,0,1.5-1.3,2.9-2.6c1.2,2.3,1.1,5.2,0.6,7.5c1-0.3,3-1,3.9-1.1
				c0.3,1.2,0.3,2.6,0,3.6c-0.7,1.5-0.9,2.8-2.5,4c-2.3,1.9-2.3,3.1,0,7.5c1.5,2.9,2.7,6.2,2.7,7.5c0,1.2,3.5,5,7.9,8.7
				c5.4,4.6,7.3,7.5,6.6,9.6c-1.9,4.6-7.9,6-13.3,3.1c-2.5-1.4-8.1-4.4-12.5-6.9c-3-1.6-5-3.4-6.8-4.6c-2.9,0-5.2,0.2-7.7,1.5
				c-3.9,0.6-6.9,0.2-7.7-1c-0.8-1.2-3.9-2.1-6.8-2.1c-7.7,0-12.8-5.1-13.1-12.6c-0.1-3.2,0.3-5.3,1.4-9c-4.3,6.7-4.5,9.8-3,15.8
				c1.8,8.3,10.4,18.9,29.3,19.1c3.6,0.1,6.6,1.1,9.9,1.8c2.2,1.3,6.8,3.7,5.8,6.8c3.5,0.9,5.9,4.6,6,7.5c8.6,2.6,9.7,7.6,9.7,8.6
				s2.1,3.9,4.8,6.4c2.7,2.5,4.5,6.6,4.2,8.8c3,1.5,4.1,3.8,5.9,6.2c1.5,3.1,4.1,7,0.3,11.7c4,1.5,3.8,12.7,0.6,14.3
				c2.3,1.6,2.8,5.5,3.3,10.8c0,1.8-0.6,3.4-3.4,4.8c0.8,0.4,1.4,1.4,1.8,2.8c0.4,1.4,0.6,3.1,0.6,4.7c0,1.7-0.2,3.3-0.7,4.6
				c-0.5,1.3-1.2,2.2-2.3,2.4c3.5,2.3,3.5,8.4,0.4,9.1c1.7,3.1,1.2,9.3-1,10.5c0.5,6.3-2,10.8-3.3,14.1c-2.6,6.7-6.1,12.3-10.5,17
				c-4.4,4.7-9.6,8.6-15.8,11.6c-13.5,6.6-36.5,6.4-49.6-0.4c-11.6-6-21-18.9-23-31.4c-1.7-11.2,3.7-27.6,10.6-32.8
				c11-8.1,32.4-5.4,35.5,4.4c1.5,5-0.4,11-4.1,12.3c-4.8,1.7-6.8-0.6-4.1-4.8c1.9-3.3,1.7-4.2-1.4-6.8c-9.3-6.8-23.2-0.8-26.4,11.2
				c-4.1,15.4,2.3,31.1,15.2,37.4c10.8,5.4,32.6,5.8,40.3,1c15-9.5,24.5-35.1,19.9-54.4c-2.5-10.6-12.9-23.7-26.4-32.8l-8.5-6
				L205,388c-1.6,4.1-3.1,6.5-2.7,9.1c-2.5-1.5-3.4-1.3-5.1-2.9c-0.8-1.7-2.2-3.7-4.3-3.1c-0.5,0.1-3.4,1.9-6.3,2.3
				c1-2.3,2-2.4,1.9-4.7c-1.6,2-6,2.2-11.8,2.9c4.5-2.6,3.7-3.1,4-5.3c-1.7,2-6.1,3.2-11.1,4.1c2.6-2.7,2.1-3.5,2.4-6
				c-2.5,2.5-8.7,3.9-11,3.7c2-2.3,2-2.3,2-5.2c-2.3,1.8-6.4,1.5-10.2,0.9c2.3-2.5,3-5.2,3.1-7.2c-3,2.8-8,2.2-11.2,1.7
				c2.5-2.2,4.1-3.5,4.9-4.9c0.9-1.8,0.3-2.4-2.8-2.4c-2.1,0-3.6,1.4-6.7,0.2c4.5-1.8,5.8-7.6,6.8-7.7c4.1-0.5-5.7,7.4,3,5.7
				c2.2-0.3,3.2-0.3,4.8-0.2c-1.1,1.7-1.3,1.7-2.3,3c-1.1,1.6-1.3,3.7-3.9,5.1c2.2,0,4,0.2,5.4-0.9c1.5-1.2,1.5-1.6,4.5-3.8
				c0.4,2.3,0.2,2.8,0,4.3c-0.4,2.6-0.9,3.3-1.7,5.4c3.3,0.8,5.4-0.3,5.9-1.7c0.9-0.9,2.1-3.2,3.8-3.7c0.7,2.1,0,2.2-0.3,3.9
				c-0.7,2-0.9,3.4-1.5,5.3c3.4-1,5.4-2.2,7.6-4.7c3.7-3.1,3.7-3.1,2.5,1c-0.5,2.7-0.4,3.3-1.3,5.6c3.2-0.6,6.3-2.1,7.9-4.7
				c1.9-2.9,2.1-2.7,1.4,1c-0.1,2.5,0.3,2.9-0.3,5.3c2.9-0.6,5.1-1.8,6.7-4.3c1.9-2.9,2.1-2.7,1.4,1c-0.5,2.3,0.4,2.8-1,5.2
				c3.3-1.4,3.5-1.1,4.6-2.9c0.8-1.5,2,0.5,3.6,3.4c1.3,2.2,2.3,2.4,3.2,2.5c0.2-1.7,0.9-2.8,2.5-6.5c1.7-4.2,2.9-7.7,2.7-8.1
				c-0.4-0.2-5.2-2.7-10.6-5.6c-5.6-2.7-10.2-5.8-10.2-6.9c0-1-1-1.7-2.3-1.7c-3.1,0-11.2-7.7-11.2-10.6c0-1.4-1.7-4.6-3.9-7.1
				c-2.9-3.9-6.2-5.2-14.9-6.2c-6.1-1.1-11.3-2.7-14.5-4.4c-1.6-0.8-1.8-1.5-3-2c0,1,0.6,4.1,2.8,6.3c1.3,1.4,2.5,1.6,3.7,2.3
				c-1.1,1.1-1.8,3.1-2.7,4.6c-1.9,3.1-1.9,4.1,0.8,5c2.5,1,2.5,1.5,0.4,2.9c-0.9,0.7-2.2,1.1-3.1,1.7c1.4,0.4,2.6,0.4,5.3-0.3
				c3.5-2.1,3.7-1.5,2.2,0.6c-1.2,1.9-2.1,3.9-3.9,5.4c2,0.1,3-0.3,4.8-0.9c1.9-0.8,3.6-1.3,2.2,1.7c-1.3,2.1-0.6-1.1-1.8,1.6
				c-2.1,0.4-6.7-0.1-10.2-0.9c3.1-1.7,4.2-3,4.6-3.9c0.6-1.7-1.1-1.6-2.6-1.6c-0.7,0-2.9,0.3-4.6-1.6c1.4-0.8,3.5-1.4,4.8-3
				c-4-2.3-1.7-5.7-0.7-7.4c0.8-1.3,0.8-2,1.7-3.4c-1.2-0.1-3-2.4-3.9-3.9c-1.8-3.3-2.6-6.4-2.4-9.1c2.6,2,3.6,2.7,5.3,3.5
				c2.8,1.7,8.7,3.7,13.9,4.5c5.2,0.8,9.8,0.7,9.8-1.2c0-1.9,2.1-1.8,0.6-3.3c-2.8-2.9-4.4-5.5-5.3-8c-1.7-2-3.7-2.1-6.5-2.2
				c-1.5,0.8-4.3,1.5-5.7,3.4c-1.2-0.6-1.9-4.4-1.3-6.2c0.3-0.8,3.5-2.3,5.3-2.3c1.8-0.1,2.8,0.4,4.3-0.2c-1.9-0.5-2.9-0.5-4.8-1.5
				c-1.7-0.9-3.4-1.4-3.2-2.5c0.3-1.4,9.9-0.4,11.2-0.4c1.1,0-2.1-1.3-4.5-1.6c-1.5-0.6-5-0.3-8.5-2.9c2.6-1.7,3.9-1,6-1.7
				 M157.7,308.4c-0.8,1.6-10.1,1.2-7.5,1.9c0,0,7.2,1.3,9.6,3.4c0.4,1.8-2.1,2.6-2.1,2.6l-9.1-1c-0.1,1.2,8.9,1.7,8.5,3.6
				c-0.1,0.6,0.5,1.8-2.5,1.4c-2.7,0.1-6-0.2-8.1,0.9c-1.5,0.7-1.6,2.4-1.2,3.7c1.3-1.1,3.4-2,4.6-2.4c2.5-0.3,4.3,0.2,5.9,0.9
				c1.7,0.7,2.8,1.5,4.3,4.3c1,2.5,4.1,5.4,6.9,6.6c3.1,1,8,3.6,10.2,6.6c2.4,3.3,4.3,5.9,10.2,9.3c5.8,5.2,0.8,3.4,3.3,3.7
				c6.6,1,10.3,2.6,11.5,4.1c1.4,1.5,4.4,3.3,6.9,3.9c2.7,0.8,4.8,2.1,4.8,3.1c0,1.2,1.4,1.9,3.1,1.9c4.2,0,23.2,19.9,26.6,27.8
				c6.6,14.9,7.7,20.3,7.7,34.7c-0.2,9.6-1.4,18.3-3.1,22.4c-3.9,9.1-20.3,27.3-24.7,27.3c-0.8,0.2-0.5,0.1-1.4,0.3
				c-0.4,0.6-0.7,0.7-2.2,1.4c-2.2,1.1-5,1.6-8.4,1.7c-3.4,0.1-7.5-0.2-12.1-0.9c-4.7-0.7-9.2-1.6-12.6-2.7
				c-3.4-1.1-4.7-1.7-5.6-2.8c-0.3-0.3-1.1-0.7-0.9-2.1c-0.7,0.6-2.3,0.5-4.3-1.3c-1.6-1.4-3.1-2.1-2.3-3.5
				c-2.1-0.2-2.4-1.1-4.1-3.4c-1.1-1.5-2.3-2.9-1.8-5c-1.4,0.3-2.2-1.7-3-3.6c-0.7-1.7-2-3.9-0.4-4.8c-1.8,0-1.5-2.2-1.7-3.8
				c-0.2-1.6-0.7-4,1.2-4.4c-1.9-0.6-1.1-2.6-0.8-4.3c0.4-2.5,0.6-3.8,2.2-4.1c-1.4-0.6-0.6-3,0.4-6.1c0.7-2.5,2.5-3.5,4.4-3
				c-1.9-1.4,1.6-3.8,2.3-4.4c2.1-1.7,4.4-2.3,4.8-1.2c-0.2-2.1,7.1-2.3,9.9-2c2.8,0.3,5.2,1.6,7.8,3.7c4.1,3.3,4.2,4.2,2.1,7.7
				c-2.5,4.4-0.6,5.4,3.1,1.7c3.9-3.9,2.7-8.7-2.9-13.1c-4.2-3.5-7.1-4.1-14.5-3.5C169.9,417,164.7,421,161,433
				c-5.8,19.9,2.1,39.5,19.5,48c7.7,3.7,12.3,4.6,24.9,4.6c18.3-0.2,29.7-4.6,40.3-16.4c6.6-7.1,13.9-25.8,11.6-29.3
				c-3.8-1.6,0-1.6,1.2-1.6c1.5,0,2.1-8-0.8-9.4c5.7,0,2.7-7.1-0.8-8.6c3.1-0.1,4.6-3.1,4.7-6.3c0.1-3.2-1.3-6.6-3.9-7.3
				c-2-0.6-0.2-1.1,1.7-1.5c2.2-0.5,3.1-0.8,2.8-4.8c-0.3-2.6-1.3-7-3.2-7.8c-2-0.8-5-1.1-6.7-1.2c2.1-0.7,4-1.1,5.6-1.2
				c3.5-1.4,4.6-8.5,1.5-10.4c-3.1-2-11,1.9-11.4,0.3c1.5-1.7,6.3-2.1,8.4-3.6c2.6-2.5,5-5,0.7-10.9c-2.1-3.3-1.8-4.1-4.2-5
				c-3.3-0.1-10.2,4.3-15.6,4.1c2.4-2,10.8-3.7,13.4-5.6c2.7-1.9,0.6-4.9-2.1-8.3c-3.3-2.9-4.6-3.1-8.9-1.2
				c-2.9,1.2-7.5,2.4-12.4,3.2c1.9-2,10.7-4.2,12.6-5.7c3.7-2.7,3.7-3.8,0.2-7.7l-5.2-2.1l-5.8,3.1c-4.2,1.9-10.8,4.2-10.8,3.6
				c0-0.4,6-3.1,9.1-4.8c3.3-1.7,5.3-4.2,5.3-5.6c0-4.8-4.5-5.5-11.3-0.7c-3.5,2-12.1,4.7-12.7,3.7c-0.6-1.2,5.8-2.4,9-3.9
				c3.2-1.8,9.1-4.8,9.1-6.3c-0.8-2.6-4.3-4.5-19.5-6.2c-11.4-1.4-17.4-5-22.4-13.3c-6.2-10-5-18.7,3.3-26.6l6.9-6.6l-4.1,6.2
				c-7.5,10.8-3.9,23.7,6.8,23.7c2.5,0,6.2,1,8.1,2.3c2.7,1.5,5.1,1.2,7.3,0.5l3.7-1.1l1.3-0.3l-5.3-3.6c-6-2.9-8.5-8.5-5.2-11.8
				c1.2-1.2,1.5,0,1,3.1c-0.8,3.7,0,5.4,2.7,6.4c1.9,1,5.8,3.1,8.3,5c8.3,6,19.5,12.9,20.6,12.9c0.6,0-0.4-1.9-2.5-4.4
				c-2.1-2.3-1-1.9,2.5,1.4c5.2,4.6,6.8,5.2,9.3,3.1c4.2-3.5,3.7-5-3.7-9.6c-4.4-2.5-7.5-6.6-9.1-11.2c-1.2-3.9-3.1-8.1-3.9-9.3
				c-1.2-1.4-0.6-3.1,1.2-4.6c1.6-1.4,3.3-4.5,3.1-5.6c-0.8,0.1-1.3,0.4-2.1,0.8c-1,0.6-1.9-0.2-1.9-1.9c0-0.9,0.7-4.2,0.5-5
				c-0.5,0.8-1.8,2.7-2.4,3c-1,0.6-2.1,0-2.1-1.4c-0.3-2.8-0.6-3.6-0.9-4.9c-0.4,0.7-2.4,3.6-3.3,4.3c0.8-2.1,0.2-9-0.2-9.6
				c-0.1,1.8-1.1,5.1-1.4,6.3c-2,2.9-2.5,3.5-4.9,4.2c-2,0.1-2.9-0.7-5.6-3.9c-2.7-3.3-4.4-5.7-4.5-7.4c0-1.7,5.7-8.6,12.5-11.2
				c2.9-1,3.3-1.3,5-1.8c-0.5-0.1-1.2-0.8-3.3-1.2c-1.1-0.2-5.5-0.2-8.4,1.2c-2.6,0.8-8.5,3.4-11.2,6.1c-1.5,0.2,0.2-4.7-1.5-4
				s-1,5.8-2.5,6.6c-2.2,1.2-2.5-2.6-3.5-2.6c-1,0.1,0.8,4.5-1,5.5c-1.2,0.7-5.2-4.3-5.7-3.5c-0.4,0.6,3.1,4.7,2.2,5.3
				c-1.2,0.9-1.1,2.1-3.6,1.1c-2.1-1.1-11.4-6.9-13.8-6.7c2.2,1.5,4,3.2,6.4,5.4c3.9,4.1,4.9,4.6,1.9,5c-2.9-0.5-3.6-1.3-5-0.4
				c-0.7,0.5,0.6,4.1-0.3,4.7c-1,0.6-4.2-0.7-4.6-0.3c-1.5,1.5,1.1,3.6,0.3,5.8c-1.2,3.3-1.7,3.3-5.6,0.6c-3.1-2.2-7-3.8-7.2-3
				c-0.2,1.1,0.8,1.6,2.5,4.1c5.6,7.9,4.1,9.5-6.9,8.3c0,0-9-2.6-11.6,1.5c2.6-0.5,9,0.8,10.7,1.5c0.9,0.4,2.9,1.6,4.6,2.9
				c0.9,0.7,0.4,1.2-0.2,2.7c-2,0.7-4.2,1.2-6.6,1c7.2,2.9,6.5,0.5,9.1,1.9c-1.9,3.1-3.3,2.8-9.7,3.7c-1.6,0.8-3.1,1.1-4.8,1.6
				c-1.8,0.5-2.9,1.9-2.4,2c0.4,0.2,2.2-0.3,4.2-0.5c2.3,0,1.1,0,6.3,0.5C157.1,305.7,158.2,307.5,157.7,308.4L157.7,308.4z"/>
			<path d="M223.4,289.1c0,1.1-0.7,2-1.5,2c-0.8,0-1.5-0.9-1.5-2s0.7-2,1.5-2C222.7,287.1,223.3,287.9,223.4,289.1"/>
			<path fill="none" stroke="#000000" stroke-width="1.7" d="M226.3,290.6c-0.9,2.3-3.6,3.5-6.1,2.6s-3.6-3.5-2.7-5.9c0.9-2.3,3.6-3.5,6.1-2.6
				C226,285.7,227.2,288.3,226.3,290.6"/>
			<path fill="none" stroke="#000000" stroke-width="1.7" d="M209.3,283c6.1-3.2,14.5,1.8,14.5,1.8"/>
			<g>
				<path fill="#DFDFDF" d="M163.6,338.3c-0.2-1,0.3-1.5,1.9-2.6c2.1,0.3,5.7,1.7,7.9,3.7c3.9,3.4,4.5,4.7,6.7,7.7
					c-0.9,1.8-1.5,2.1-3.2,3.8c-1.7,1.1-2.7,1.8-3.9,2.4c-0.9-2.9-2.1-4.3-4.6-7.6c-1.2-1.8-4.8-3.2-6.6-4.6
					C162.3,339.6,163,339.5,163.6,338.3z"/>
				<path fill="#DFDFDF" d="M178.1,352c1.8-1.1,2.2-2.8,3.5-3.5c1.6,0.7,1.2,0.9,3.8,2.2c2.8,1.8,1.8,1.4,4,4.3
					c-0.9,1.8-1.4,2.6-2.7,4.5c-1.5,1.3-1.5,2.4-2.9,4c-2.6-0.7-4.3-1.7-6.3-4c-1.4-1.7-3.1-1.8-3.8-4.7
					C175.6,353.6,177,353,178.1,352z"/>
				<path fill="#DFDFDF" d="M188.2,360.2c1.3-1.8,1.6-3.1,2.7-4.4c2,0.3,3.5,0.6,5.8,1.3c3.2,0.7,3.6,1.7,5.2,3.4c-0.9,1.8-1,4-1.7,7.2
					c-0.5,2.2-1,3.5-1.9,5.5c-2.6-1.1-4.5-2.1-6.7-3.5c-2.3-1.4-4.5-2.8-5.6-5.7C187.2,361.9,187.1,361.2,188.2,360.2L188.2,360.2z"
					/>
				<path fill="#DFDFDF" d="M202,368.8c0.6-2.5,0.5-5.1,1.7-7.1c2,0.3,1.6,0.9,3.9,1.6c2.4,1,4,1.3,5.3,3.9c-2.1,2-2.6,1.7-3.3,4.9
					c-0.5,2.2,0.5,5.4-0.5,7.3c-2.6-1.1-2.8-1.8-5.1-3.2c-2.3-1.4-2.5-0.8-4-2.3C201,371.5,201.5,370.3,202,368.8L202,368.8z"/>
				<path fill="#DFDFDF" d="M211.6,372.3c1.1-2.3,1.6-2.8,2.8-3.8c2.3,0.9,3.3,0.3,5.5,2.3c2.1,1.5,6.3,5,8,6.8c-1.6,0.8-3,1.3-4.8,3.7
					c-1.8,2.4-1.3,3-2.3,5.7c-1.9-1.2-2.8-1.9-4.6-3c-1.9-1.7-2.7-2.2-4.8-3.7C212.1,377.8,211.3,374.3,211.6,372.3L211.6,372.3z"/>
				<path fill="#DFDFDF" d="M224.3,382.7c1.1-2.3,2.7-2.7,3.9-3.7c2.3,0.9,3.2,2.9,5.4,4.9c2.7,3,3.1,3.5,4.4,5.3c-2,1-2.6,1.1-4.4,2.7
					c-1.9,1.7-2.4,1.7-3.7,3.1c-1.4-1.6-1.2-1.4-3-3.2c-1.9-1.7-2.1-1.7-4.6-3.9C223.2,385.3,223.5,384.5,224.3,382.7z"/>
				<path fill="#DFDFDF" d="M234.9,393.5c1.3-1,2.6-1.8,3.7-2.5c1.1,1.3,2.1,2.2,2.7,3.6c1.1,1.3,1.1,1.6,2,3.4c-2,1-1.8,0.7-3.3,1.5
					c-1.4,0.7-2.1,1.5-3.8,2.6c-1.4-1.6-0.4-1-2.2-2.8c-0.9-1.1-1.3-1.9-2.7-3.3C233.4,394.4,233.6,394.2,234.9,393.5L234.9,393.5z"
					/>
				<path fill="#DFDFDF" d="M240.2,401.3c1.6-0.8,2.3-1.2,3.6-1.7c0.9,1.7,1.1,2,1.8,3.4c0.4,1.2,0.7,1.8,1.4,3.7
					c-1.5,0.5-2,0.7-2.9,1.1c-1,0.5-2.1,1.1-3.2,1.8c-1.1-2.1-1.1-1.6-1.7-2.8c-0.6-1.2-1-1.5-2.1-3.1
					C238.7,402.4,239.2,401.9,240.2,401.3z"/>
				<path fill="#DFDFDF" d="M244.2,409.3c1.6-0.8,1.6-0.6,2.9-1.2c0.9,1.7,1.5,4.7,2,6.5c0.4,2.1,0.7,4.4,0.8,6.9
					c-1.4,0.3-0.8,0.1-2.1,0.4c-1.2,0.2-1.3,0.3-2.6,0.8c-0.4-2.8-0.7-4.3-1.4-6.2c-0.5-1.3-1.5-4.3-2.5-5.9
					C242.6,409.9,243.2,409.9,244.2,409.3z"/>
				<path fill="#DFDFDF" d="M247.7,423.6c0.5-0.1,1-0.2,2.1-0.3c0.2,3.6,0.2,4.5,0.1,8.1c-0.3,3.8-0.3,6.8-0.9,10.7
					c-0.7-0.2-0.8-0.4-2.1-0.5c-1.2-0.1-1.2-0.1-2.5,0c0.9-3.6,0.9-4.8,1.2-9.1c0.1-3.3,0.1-4.4-0.2-8.1
					C246.4,424,246.8,423.8,247.7,423.6L247.7,423.6z"/>
				<path fill="#DFDFDF" d="M245.9,443.3c0.5-0.1,1.7,0,2.8-0.1c-1.1,6.4-2.1,8.7-4.2,12.6c-2.5,3.7-5,7.1-8.3,10.7
					c-0.4-0.3-0.7-0.6-1.1-1c-0.4-0.4-0.7-0.5-1.1-0.9c3.7-4.9,4.4-6.4,6.6-10.9c1.8-4.5,2.1-5.7,3.4-10.6
					C245,443.5,245.1,443.5,245.9,443.3L245.9,443.3z"/>
				<path fill="#DFDFDF" d="M234.3,466.5c0.6,0.4,0.3,0.3,1.3,0.9c-1.5,1.8-2.6,2.9-5.5,5.7c-2.1,1.6-2.8,2.9-7.2,4.7
					c-0.5-0.6-0.5-0.7-0.8-1c-0.2-0.4-0.3-0.5-0.6-1.2c2.2-0.7,4.9-2.2,6.5-3.9c2.8-2.4,3.5-3.5,5.3-5.8
					C233.8,466.2,234,466.3,234.3,466.5L234.3,466.5z"/>
				<path fill="#DFDFDF" d="M220.4,477.4c0.3,0.6,0.2,0.7,0.5,1.4c-2,1.2-2.4,1.3-7.3,2.2c-6,0.2-8.5,0.1-11.4-0.3
					c0.1-0.8,0.1-0.8,0.1-1.5c0-0.7-0.1-0.5,0-1.2c5.6,0.4,7.3,0,9.5-0.1c4-0.4,7-1.3,8-1.6C220.3,477.1,220.3,476.9,220.4,477.4
					L220.4,477.4z"/>
				<path fill="#DFDFDF" d="M200.8,479.3c-0.1,0.6-0.1,0.4-0.3,1.2c-4.7-0.8-4.7-0.7-10.4-1.9c-4.2-1.2-5.6-2.1-8.3-3.5
					c-0.2-0.9-0.1-0.8,0.1-1.2c0.3-0.5,0.1-0.3,0.7-0.7c3.1,1.9,6.5,2.4,8.3,3c4.3,0.9,6.4,1.1,10,1.5
					C200.8,478.6,200.8,478.8,200.8,479.3L200.8,479.3z"/>
				<path fill="#DFDFDF" d="M180.7,472.8c-0.7,0.5-0.8,0.8-1.6,0.7c-1.4-0.2-1.6-0.6-3-1.7c-0.7-0.6-1.7-1.6-1.5-2c0.3-0.5,0.7-2,1.4-1
					c0.5,0.9,2.8,2.2,4.2,3.2C181.1,472.5,180.9,472.6,180.7,472.8z"/>
				<path fill="#DFDFDF" d="M173.7,468c-0.8,0.3-0.6,0.4-1.3-0.2c-0.5-0.5-0.9-1.3-1.9-2.5c-0.6-0.7-1.7-2.6-1.8-3
					c-0.2-1.3,0.5-2.1,1.1-1c1,1.9,2.2,3.8,3.9,5.3C174.7,467.5,174,467.9,173.7,468L173.7,468z"/>
				<path fill="#DFDFDF" d="M168.7,459.9c-0.8,0.3-0.7,0.4-1.4-0.2c-0.5-0.5-1.1-1.7-1.7-3.1c-0.4-0.8-1.2-2.1-0.9-2.9
					c0.3-0.9,1.5-1.5,1.8-0.4c0.6,2,0.7,2,1.7,4.4C168.5,458.7,169,459.8,168.7,459.9z"/>
				<path fill="#DFDFDF" d="M166,451.4c-0.3,0.6-0.9,0.5-1.9,0.1c-0.8-0.3-0.5-1.6-0.6-3.1c-0.1-0.8-0.2-1.6,0-2.7
					c0.2-0.9,2-1.3,2.1-0.1c0.1,0.8,0,1.3,0.1,2.8C166,450.6,166.2,450.9,166,451.4L166,451.4z"/>
				<path fill="#DFDFDF" d="M165.3,443.2c-0.2,0.5-1,0.3-1.4-0.2c-0.5-0.7,0.1-1.8,0.1-3.1c0-0.8,0.3-1.7,0.7-2.7
					c0.3-0.6,1.3-0.7,1.3,0.4c0,0.6-0.2,1.3-0.3,2.5C165.5,441.6,165.6,442.4,165.3,443.2L165.3,443.2z"/>
				<path fill="#DFDFDF" d="M166.7,435.1c-0.2,0.5-1,0-1.2-0.7c-0.2-1,0.5-2.2,0.8-3.5c0.3-1.1,0.7-2.3,1.6-3c0.6-0.5,1.8-0.8,1.5,0.3
					c-0.2,0.9-1.4,2.6-1.9,4C167.1,433.5,167,434.2,166.7,435.1L166.7,435.1z"/>
				<path fill="#DFDFDF" d="M171.8,425.7c-0.6,0-1.2,0.2-1-0.5c0.2-0.6,0.8-0.9,1.9-1.8c0.6-0.5,1.6-1.3,2.2-1.6c0.7-0.3,2-0.7,1.5,0.3
					c-0.2,0.4-0.8,0.6-1.8,1.4C173.4,424.2,172.2,425.7,171.8,425.7L171.8,425.7z"/>
			</g>
		</g>
		<g transform="matrix(-1,0,0,1,750,0)">
			<g id="seahorse_00000098219482653364283580000017961825050890821021_" transform="translate(-98.734,-81.608796)">
				<path fill="#DFDFDF" d="M490.2,245.4c4.5,0.6,7.8,1.8,12.3,4.5c1.4,0.9,2.8,1.5,3,1.4c0.3-0.1,0.5-0.8,0.7-1.8
					c0.1-0.8,0.4-1.8,0.6-2.1c0.6-0.9,1.2-0.2,2.4,2.8c0.5,1.4,1.1,2.8,1.3,2.9c0.6,0.7,1.3,0.4,2.2-0.7c0.9-1.2,2.3-1.5,2.6-0.7
					c0.1,0.3,0,1.3-0.2,2.3c-0.6,2.9,0.3,3.4,2.9,1.4c2.2-1.7,3.1-2.1,3.9-1.6c0.9,0.5,0.8,1.1-0.3,3.7c-1,2.3-1,3.9-0.1,2.6
					c0.3-0.3,1.4-1.1,2.6-1.7c1.2-0.6,3-1.6,4.1-2.2c1.1-0.6,2.6-1.3,3.4-1.6c1.4-0.5,8.8-1.6,9.5-1.3c0.2,0.1-0.8,0.9-2.3,1.9
					c-3.1,2.1-9.1,7.6-9.1,8.3c0,0.4,0.3,0.5,2.5,0.3c2.9-0.3,2.8-0.3,2.2,2.6c-0.2,1-0.3,1.7-0.1,1.9c0.2,0.2,1.2,0.1,2.6-0.2
					c1.3-0.3,2.4-0.5,2.5-0.5c0.5,0,0.3,2.5-0.4,4.6c-0.6,2-0.6,2.2-0.1,2.5c0.6,0.5,1.3,0.3,6.1-1.9c2.8-1.3,3.5-1.5,5.1-1.5
					c1,0,2.1,0.3,2.6,0.5l0.9,0.4l-2,2.2c-2.4,2.6-4.9,6.1-5.2,7.6c-0.7,2.4,1.6,2.8,9.4,1.8c4.3-0.6,7.1-0.5,8.6,0.3
					c1.1,0.6,4.9,4.1,4.9,4.5c0,0.2-1.8,0.4-4,0.5c-4.7,0.2-8.1,1-10.8,2.5c-2.6,1.4-2.6,1.8,0.3,1.8c2.4,0,3.8,0.4,5,1.4
					c0.6,0.5,0.6,0.5,0,1.2c-0.9,1-2.7,1.8-4.8,2.1c-1.1,0.2-2,0.4-2.1,0.5c-0.1,0.1,0.9,0.3,2.2,0.5c3.3,0.5,7.8,1.9,10.1,3
					c2,1,2.1,1.1,2.5,4l0.2,1.2l-1-0.2c-1.6-0.3-9.7-0.5-11-0.3c-2,0.4-1.4,0.9,1.7,1.3c3.9,0.5,6.1,0.9,7.1,1.4l0.8,0.4l-1.7,0.8
					c-0.9,0.5-3.1,1.1-4.8,1.5c-7.3,1.5-8.2,2.4-2.1,2c5-0.3,7.1-0.1,6.9,0.7c-0.2,0.9-3.3,2.4-6.5,3.2c-2,0.5-1.2,0.9,2,1
					c2.9,0.1,5.1,0.8,6,2.1c0.7,0.9,0.3,5-0.6,5.6c-0.2,0.1-0.6,0-0.8-0.3c-0.3-0.3-1.6-1-2.9-1.6c-2.4-1.2-2.4-1.2-5.9-0.6
					c-1.5,0.2-2.8,1.4-3.9,3.7c-0.5,1.1-1.6,2.8-2.4,3.8s-1.8,2.2-2.1,2.6c-0.6,0.7-0.6,0.8,0.1,2.1c0.3,0.8,0.7,1.6,0.8,1.9
					c0.6,1.9,10.2,1.3,17.7-1.2c3-1,7.5-3.2,9.5-4.7l1.5-1.1v1.2c0,3-2.4,8.1-4.7,10.2l-1.5,1.3l1.5,2.9c1.9,3.7,2,5.1,0.6,6.6
					c-0.5,0.6-0.9,1.2-0.8,1.4c0.1,0.3,0.9,0.9,1.8,1.4c2.8,1.6,2.7,1.4,1.5,2c-0.6,0.3-2.1,0.6-3.4,0.7c-1.4,0.1-2.5,0.3-2.7,0.6
					c-0.8,0.9,0.8,3,3.7,4.7c0.5,0.3,0.1,0.4-1.9,0.7c-1.4,0.2-3.4,0.4-4.5,0.4l-1.9,0.1l0.7,1.2c0.8,1.4,2.3,2.9,3.5,3.7l0.9,0.6
					l-1,0.1c-0.5,0.1-1.6,0-2.4-0.1c-2.4-0.4-5.2-0.3-5.8,0.1c-1,0.7-0.2,2.4,2.3,4.7l2.1,2.1l-1.4,0.2c-2.6,0.4-5.9,0-7.6-0.9
					c-0.9-0.4-1.7-0.8-1.8-0.7c-0.4,0.5,1.3,5,2.4,6.3c0.3,0.3,0.4,0.6,0.3,0.8c-0.1,0.1-1.8,0.2-3.7,0.2c-2.7,0-3.8-0.1-4.6-0.6
					c-0.6-0.3-1.1-0.5-1.2-0.5c0,0-0.1,0.7-0.1,1.5c0,1.1,0.2,1.7,0.8,2.5l0.8,1h-0.9c-2,0-6.9-1.6-8.6-2.9
					c-1.1-0.8-1.2-0.8-1.2,0.4c0,1.3,0.7,3.2,1.4,4c0.7,0.8,0.5,0.8-2.6,0c-2.8-0.7-5.2-1.7-6.5-2.5c-1.2-0.8-1.3-0.8-1,0.6
					c0.3,1.6,0.9,2.5,2.1,3.1c0.5,0.3,0.9,0.6,0.8,0.6c-0.3,0.3-6.9-0.8-8.4-1.3c-0.8-0.3-1.6-0.7-1.9-1c-0.5-0.5-0.6-0.5-0.6,0.3
					c0,0.4,0.3,1.4,0.8,2.3c0.4,0.8,0.8,1.5,0.8,1.6c0,0.3-1.7-0.3-3.7-1.2c-1.1-0.5-2.4-0.9-2.9-0.9c-1.1,0-2.3,1-3.3,2.5
					c-0.5,0.8-1.3,1.5-2.9,2.3l-2.2,1.1l-0.1-1.3c-0.2-1.2-5.3-14.8-5.8-15.3c-0.2-0.2-6.5,4.1-12.6,8.6
					c-3.7,2.7-12.1,11.1-14.6,14.5c-6.8,9.3-9,15.7-9.1,26c0,5.7,0.4,8.7,1.7,14.2c2.9,11.7,9.6,22.9,17.2,28.5c5,3.7,10.9,5,22,4.6
					c13.4-0.4,21.7-3.2,27.9-9.2c4.6-4.5,7.6-10.4,8.8-17.3c0.2-1.1,0.3-3.9,0.3-6.1c0-7.6-1.7-12.9-5.5-17
					c-3.3-3.5-6.7-5.4-11.2-6.1c-4.2-0.7-9.1,0.8-12,3.5c-2.1,1.9-2.2,2.8-0.5,6.1c1.4,2.9,1.6,3.7,0.7,4.6
					c-0.8,0.8-2.6,0.8-4.6-0.2c-2.9-1.3-4.4-4.6-4.1-9.2c0.3-4.1,2.2-6.8,6.5-9c4.2-2.1,6.3-2.5,12.9-2.5c5.4,0,6,0.1,8.6,0.9
					c5.3,1.6,8.5,3.7,10.9,7.2c5.6,8,8.7,21.6,6.9,30.5c-1.4,6.7-5.2,14-10.4,20.1c-8.8,10.2-20.6,14.9-37.4,14.9
					c-12.5,0-21.3-2.4-30.1-8.1c-9.8-6.3-16.1-14.5-21.5-27.8c-1.4-3.6-2-5.9-2.3-9c-0.1-1.5-0.3-2.8-0.6-3.1
					c-1.3-1.4-1.7-5.5-0.9-8.2l0.5-1.5l-1-0.8c-1.7-1.5-1.5-4.9,0.4-7.1l0.9-1l-1-1c-1.3-1.4-1.9-4-1.7-7.4c0.2-2.4,1.2-5.7,1.8-5.7
					c0.6,0,0.2-0.8-0.7-1.4c-1.4-0.8-2.2-2.3-2.2-4.1c0-3.8,1.6-9.6,2.7-10.1c0.5-0.2,0.6-1,0.1-1c-0.7,0-1.7-2.9-1.8-5.6
					c-0.2-3.4,0.5-5.9,1.8-7.3l0.9-0.9l-1-2c-0.8-1.7-1-2.2-0.8-3.7c0.3-3.3,4-9.5,6.8-11.3c1-0.7,1.3-1,1.3-1.8
					c0-2.1,1.7-5.2,4.6-8.3c3-3.2,4-4.6,4.6-6.9c0.4-1.4,0.9-2.2,2.2-3.5c1.5-1.5,4.8-3.5,6.7-4c0.4-0.1,0.6-0.4,0.6-0.9
					c0-2,2.5-5.4,4.7-6.4c1.1-0.5,1.3-0.7,1.3-1.6c0-1.3,1.1-2.6,3.6-4.3c2.4-1.6,6.1-2.6,11.9-3.1c12.2-1,17.6-3,23.3-8.7
					c3.5-3.4,4.8-5.8,6.1-10.3c1-3.8,1.1-7.3,0.2-10.1c-0.7-1.9-2.8-5.9-3.1-5.9c-0.1,0,0.1,1,0.4,2.3c0.8,3,0.9,7.9,0.2,10.2
					c-1,3.3-3.1,5.8-5.9,7.3c-1.9,1-2.9,1.2-6.2,1.5c-3.4,0.3-5.8,1-6.9,2c-1.7,1.6-5.5,1.8-9.1,0.5c-0.9-0.3-2.7-0.7-3.9-0.8
					l-2.3-0.2l-2.9,2c-3,2.1-16,9.4-18.3,10.3c-4.2,1.7-8.9,0.5-10.8-2.7c-1.6-2.5-0.2-4.9,6.6-11.1c5.5-5,6.8-6.6,7.6-9.5
					c0.3-1.2,1.3-3.9,2.3-5.9c2.3-4.9,2.3-5.8,0.2-8c-0.8-0.9-1.8-2.2-2-2.8c-0.5-1.2-0.7-3.8-0.4-4.2c0.2-0.2,2.3,0.3,3.4,0.7
					c0.3,0.1,0.4-0.3,0.3-2.5c-0.1-1.7,0.1-3,0.3-3.6l0.4-0.9l1.1,1.1c1.2,1.1,2,1.4,2.4,0.8c0.1-0.2,0.3-1.1,0.5-2
					c0.3-2,1.6-5,1.9-4.7c0.1,0.1,0.4,0.8,0.6,1.4c0.2,0.7,0.5,1.2,0.6,1.2c0.1,0,0.3-0.8,0.5-1.7c0.3-2.7,0.7-3.8,1.6-4.6
					c0.7-0.7,0.9-0.7,1.1-0.3c0.2,0.3,0.3,0.8,0.3,1.3c0,1.4,0.9,4.2,2,6.5c2.3,4.5,4.4,4.1,8.8-1.7c2.5-3.3,2.9-4.4,2.2-5.9
					c-1.7-3.5-8.6-8.2-15.2-10.3c-1.2-0.4-2.2-0.8-2.2-0.9c0-0.6,1.6-2,2.9-2.7C485.8,245.2,487.6,245,490.2,245.4z"/>
				<path d="M554.9,307.7c-2-1.1,7.7-0.9,9.7-0.9c1.4,0.4,2.7,1,3.1,0.8c0.4-0.2,0.1-1.7-0.3-4.4c-1.5-1.2-3.1-1.9-4.8-2.4
					c-1.6-0.6-3-0.9-4.8-1.5c-1.7-0.2-2.3-0.1-4.8-0.7c2.9-0.5,5-0.1,7.9-3.2c-1.2-0.7-1.6-1.6-3-1.9c-1.4-0.3-1.9-0.3-3.1-0.3
					c-2.2,0-2.9,0.4-1.4-0.7c1.5-1.1,4.3-2.3,7.5-2.9c2.8-0.5,7-0.5,9.1-0.6c-0.9-1.9-2.7-2.9-3.7-4.1c-1.7-2.1-5.7-2.1-11.7-1.1
					c-9.5,1.2-10,0-4.1-7.5l3.8-4.2l-2.4-1l-2.6-0.1c-2.5,0.6-5.7,2.5-7.6,3.3c-3.1,1.4-2.9,0.1-2-2.4c0.8-2.1,0.2-2.1,0.5-4.5
					c-1.5,0-5.6,1.5-5.6,0.6c0-1.2,0.5-1.9,0.8-4.6c-1.4,0-4.4,0.4-5,0.2s0.9-1.7,2.5-3.1l4.2-3.7l5.9-4l-8.8,1.1
					c-2.7,0-7,2.9-9.2,4.1c-1.1,0.6-2.2,0.8-2.9,1.5c-1.6,0.6,0.3,2.1-0.8,0.7c-0.6-1,2.1-4.1,1.7-5.7c-1.9-3.6-6.2,3-7.1,2
					c-1.8-0.2,0.9-4.3-0.5-5.2c-2-1.2-3.2,2.9-4.3,2.2c-1.1-0.7-1.8-6-3.5-6.7c-1.7-0.7-1,5.4-2.2,4.6c-2.5-1.7-7.9-5.1-12.4-5.8
					c-2.2-0.3-4.8-1-7-0.6s-4.3,1.9-4.9,3.8c3,0.9,3.4,0.9,6.5,2.3c3.1,1.2,7.1,4.1,9.1,6c3.3,3.7,3.3,4.1-0.4,8.7
					c-4.6,6.4-6.9,6-9.5-1.4c-1.1-2.9-0.7-4.7-1.2-5.7c-0.3,0.2-1.3,0.6-2,1.6c-0.6,0.9-1.1,4.7-1,5.7c-0.5-0.3-0.9-1.5-1.3-3.6
					c-1.2,2.2-1.5,3-1.9,4c-0.4,1.1-0.1,3.9-1.2,3.9c-0.7,0-1.5-1.3-2.9-2.6c-1.2,2.3-1.1,5.2-0.6,7.5c-1-0.3-3-1-3.9-1.1
					c-0.3,1.2-0.3,2.6,0,3.6c0.7,1.5,0.9,2.8,2.5,4c2.3,1.9,2.3,3.1,0,7.5c-1.5,2.9-2.7,6.2-2.7,7.5c0,1.2-3.5,5-7.9,8.7
					c-5.4,4.6-7.3,7.5-6.6,9.6c1.9,4.6,7.9,6,13.3,3.1c2.5-1.4,8.1-4.4,12.5-6.9c3-1.6,5-3.4,6.8-4.6c2.9,0,5.2,0.2,7.7,1.5
					c3.9,0.6,6.9,0.2,7.7-1c0.8-1.2,3.9-2.1,6.8-2.1c7.7,0,12.8-5.1,13.1-12.6c0.1-3.2-0.3-5.3-1.4-9c4.3,6.7,4.5,9.8,3,15.8
					c-1.8,8.3-10.4,18.9-29.3,19.1c-3.6,0.1-6.6,1.1-9.9,1.8c-2.2,1.3-6.8,3.7-5.8,6.8c-3.5,0.9-5.9,4.6-6,7.5
					c-8.6,2.6-9.7,7.6-9.7,8.6s-2.1,3.9-4.8,6.4s-4.5,6.6-4.2,8.8c-3,1.5-4.1,3.8-5.9,6.2c-1.5,3.1-4.1,7-0.3,11.7
					c-4,1.5-3.8,12.7-0.6,14.3c-2.3,1.6-2.8,5.5-3.3,10.8c0,1.8,0.6,3.4,3.4,4.8c-0.8,0.4-1.4,1.4-1.8,2.8c-0.4,1.4-0.6,3.1-0.6,4.7
					c0,1.7,0.2,3.3,0.7,4.6c0.5,1.3,1.2,2.2,2.3,2.4c-3.5,2.3-3.5,8.4-0.4,9.1c-1.7,3.1-1.2,9.3,1,10.5c-0.5,6.3,2,10.8,3.3,14.1
					c2.6,6.7,6.1,12.3,10.5,17c4.4,4.7,9.6,8.6,15.8,11.6c13.5,6.6,36.5,6.4,49.6-0.4c11.6-6,21-18.9,23-31.4
					c1.7-11.2-3.7-27.6-10.6-32.8c-11-8.1-32.4-5.4-35.5,4.4c-1.5,5,0.4,11,4.1,12.3c4.8,1.7,6.8-0.6,4.1-4.8
					c-1.9-3.3-1.7-4.2,1.4-6.8c9.3-6.8,23.2-0.8,26.4,11.2c4.1,15.4-2.3,31.1-15.2,37.4c-10.8,5.4-32.6,5.8-40.3,1
					c-15-9.5-24.5-35.1-19.9-54.4c2.5-10.6,12.9-23.7,26.4-32.8l8.5-6l3.1,7.9c1.6,4.1,3.1,6.5,2.7,9.1c2.5-1.5,3.4-1.3,5.1-2.9
					c0.8-1.7,2.2-3.7,4.3-3.1c0.5,0.1,3.4,1.9,6.3,2.3c-1-2.3-2-2.4-1.9-4.7c1.6,2,6,2.2,11.8,2.9c-4.5-2.6-3.7-3.1-4-5.3
					c1.7,2,6.1,3.2,11.1,4.1c-2.6-2.7-2.1-3.5-2.4-6c2.5,2.5,8.7,3.9,11,3.7c-2-2.3-2-2.3-2-5.2c2.3,1.8,6.4,1.5,10.2,0.9
					c-2.3-2.5-3-5.2-3.1-7.2c3,2.8,8,2.2,11.2,1.7c-2.5-2.2-4.1-3.5-4.9-4.9c-0.9-1.8-0.3-2.4,2.8-2.4c2.1,0,3.6,1.4,6.7,0.2
					c-4.5-1.8-5.8-7.6-6.8-7.7c-4.1-0.5,5.7,7.4-3,5.7c-2.2-0.3-3.2-0.3-4.8-0.2c1.1,1.7,1.3,1.7,2.3,3c1.1,1.6,1.3,3.7,3.9,5.1
					c-2.2,0-4,0.2-5.4-0.9c-1.5-1.2-1.5-1.6-4.5-3.8c-0.4,2.3-0.2,2.8,0,4.3c0.4,2.6,0.9,3.3,1.7,5.4c-3.3,0.8-5.4-0.3-5.9-1.7
					c-0.9-0.9-2.1-3.2-3.8-3.7c-0.7,2.1,0,2.2,0.3,3.9c0.7,2,0.9,3.4,1.5,5.3c-3.4-1-5.4-2.2-7.6-4.7c-3.7-3.1-3.7-3.1-2.5,1
					c0.5,2.7,0.4,3.3,1.3,5.6c-3.2-0.6-6.3-2.1-7.9-4.7c-1.9-2.9-2.1-2.7-1.4,1c0.1,2.5-0.3,2.9,0.3,5.3c-2.9-0.6-5.1-1.8-6.7-4.3
					c-1.9-2.9-2.1-2.7-1.4,1c0.5,2.3-0.4,2.8,1,5.2c-3.3-1.4-3.5-1.1-4.6-2.9c-0.8-1.5-2,0.5-3.6,3.4c-1.3,2.2-2.3,2.4-3.2,2.5
					c-0.2-1.7-0.9-2.8-2.5-6.5c-1.7-4.2-2.9-7.7-2.7-8.1c0.4-0.2,5.2-2.7,10.6-5.6c5.6-2.7,10.2-5.8,10.2-6.9c0-1,1-1.7,2.3-1.7
					c3.1,0,11.2-7.7,11.2-10.6c0-1.4,1.7-4.6,3.9-7.1c2.9-3.9,6.2-5.2,14.9-6.2c6.1-1.1,11.3-2.7,14.5-4.4c1.6-0.8,1.8-1.5,3-2
					c0,1-0.6,4.1-2.8,6.3c-1.3,1.4-2.5,1.6-3.7,2.3c1.1,1.1,1.8,3.1,2.7,4.6c1.9,3.1,1.9,4.1-0.8,5c-2.5,1-2.5,1.5-0.4,2.9
					c0.9,0.7,2.2,1.1,3.1,1.7c-1.4,0.4-2.6,0.4-5.3-0.3c-3.5-2.1-3.7-1.5-2.2,0.6c1.2,1.9,2.1,3.9,3.9,5.4c-2,0.1-3-0.3-4.8-0.9
					c-1.9-0.8-3.6-1.3-2.2,1.7c1.3,2.1,0.6-1.1,1.8,1.6c2.1,0.4,6.7-0.1,10.2-0.9c-3.1-1.7-4.2-3-4.6-3.9c-0.6-1.7,1.1-1.6,2.6-1.6
					c0.7,0,2.9,0.3,4.6-1.6c-1.4-0.8-3.5-1.4-4.8-3c4-2.3,1.7-5.7,0.7-7.4c-0.8-1.3-0.8-2-1.7-3.4c1.2-0.1,3-2.4,3.9-3.9
					c1.8-3.3,2.6-6.4,2.4-9.1c-2.6,2-3.6,2.7-5.3,3.5c-2.8,1.7-8.7,3.7-13.9,4.5s-9.8,0.7-9.8-1.2c0-1.9-2.1-1.8-0.6-3.3
					c2.8-2.9,4.4-5.5,5.3-8c1.7-2,3.7-2.1,6.5-2.2c1.5,0.8,4.3,1.5,5.7,3.4c1.2-0.6,1.9-4.4,1.3-6.2c-0.3-0.8-3.5-2.3-5.3-2.3
					c-1.8-0.1-2.8,0.4-4.3-0.2c1.9-0.5,2.9-0.5,4.8-1.5c1.7-0.9,3.4-1.4,3.2-2.5c-0.3-1.4-9.9-0.4-11.2-0.4c-1.1,0,2.1-1.3,4.5-1.6
					c1.5-0.6,5-0.3,8.5-2.9c-2.6-1.7-3.9-1-6-1.7 M551.8,308.4c0.8,1.6,10.1,1.2,7.5,1.9c0,0-7.2,1.3-9.6,3.4
					c-0.4,1.8,2.1,2.6,2.1,2.6l9.1-1c0.1,1.2-8.9,1.7-8.5,3.6c0.1,0.6-0.5,1.8,2.5,1.4c2.7,0.1,6-0.2,8.1,0.9
					c1.5,0.7,1.6,2.4,1.2,3.7c-1.3-1.1-3.4-2-4.6-2.4c-2.5-0.3-4.3,0.2-5.9,0.9c-1.7,0.7-2.8,1.5-4.3,4.3c-1,2.5-4.1,5.4-6.9,6.6
					c-3.1,1-8,3.6-10.2,6.6c-2.4,3.3-4.3,5.9-10.2,9.3c-5.8,5.2-0.8,3.4-3.3,3.7c-6.6,1-10.3,2.6-11.5,4.1c-1.4,1.5-4.4,3.3-6.9,3.9
					c-2.7,0.8-4.8,2.1-4.8,3.1c0,1.2-1.4,1.9-3.1,1.9c-4.2,0-23.2,19.9-26.6,27.8c-6.6,14.9-7.7,20.3-7.7,34.7
					c0.2,9.6,1.4,18.3,3.1,22.4c3.9,9.1,20.3,27.3,24.7,27.3c0.8,0.2,0.5,0.1,1.4,0.3c0.4,0.6,0.7,0.7,2.2,1.4
					c2.2,1.1,5,1.6,8.4,1.7c3.4,0.1,7.5-0.2,12.1-0.9c4.7-0.7,9.2-1.6,12.6-2.7c3.4-1.1,4.7-1.7,5.6-2.8c0.3-0.3,1.1-0.7,0.9-2.1
					c0.7,0.6,2.3,0.5,4.3-1.3c1.6-1.4,3.1-2.1,2.3-3.5c2.1-0.2,2.4-1.1,4.1-3.4c1.1-1.5,2.3-2.9,1.8-5c1.4,0.3,2.2-1.7,3-3.6
					c0.7-1.7,2-3.9,0.4-4.8c1.8,0,1.5-2.2,1.7-3.8c0.2-1.6,0.7-4-1.2-4.4c1.9-0.6,1.1-2.6,0.8-4.3c-0.4-2.5-0.6-3.8-2.2-4.1
					c1.4-0.6,0.6-3-0.4-6.1c-0.7-2.5-2.5-3.5-4.4-3c1.9-1.4-1.6-3.8-2.3-4.4c-2.1-1.7-4.4-2.3-4.8-1.2c0.2-2.1-7.1-2.3-9.9-2
					c-2.8,0.3-5.2,1.6-7.8,3.7c-4.1,3.3-4.2,4.2-2.1,7.7c2.5,4.4,0.6,5.4-3.1,1.7c-3.9-3.9-2.7-8.7,2.9-13.1
					c4.2-3.5,7.1-4.1,14.5-3.5c12.9,1.4,18.1,5.4,21.8,17.4c5.8,19.9-2.1,39.5-19.5,48c-7.7,3.7-12.3,4.6-24.9,4.6
					c-18.3-0.2-29.7-4.6-40.3-16.4c-6.6-7.1-13.9-25.8-11.6-29.3c3.8-1.6,0-1.6-1.2-1.6c-1.5,0-2.1-8,0.8-9.4
					c-5.7,0-2.7-7.1,0.8-8.6c-3.1-0.1-4.6-3.1-4.7-6.3c-0.1-3.2,1.3-6.6,3.9-7.3c2-0.6,0.2-1.1-1.7-1.5c-2.2-0.5-3.1-0.8-2.8-4.8
					c0.3-2.6,1.3-7,3.2-7.8c2-0.8,5-1.1,6.7-1.2c-2.1-0.7-4-1.1-5.6-1.2c-3.5-1.4-4.6-8.5-1.5-10.4c3.1-2,11,1.9,11.4,0.3
					c-1.5-1.7-6.3-2.1-8.4-3.6c-2.6-2.5-5-5-0.7-10.9c2.1-3.3,1.8-4.1,4.2-5c3.3-0.1,10.2,4.3,15.6,4.1c-2.4-2-10.8-3.7-13.4-5.6
					c-2.7-1.9-0.6-4.9,2.1-8.3c3.3-2.9,4.6-3.1,8.9-1.2c2.9,1.2,7.5,2.4,12.4,3.2c-1.9-2-10.7-4.2-12.6-5.7
					c-3.7-2.7-3.7-3.8-0.2-7.7l5.2-2.1l5.8,3.1c4.2,1.9,10.8,4.2,10.8,3.6c0-0.4-6-3.1-9.1-4.8c-3.3-1.7-5.3-4.2-5.3-5.6
					c0-4.8,4.5-5.5,11.3-0.7c3.5,2,12.1,4.7,12.7,3.7c0.6-1.2-5.8-2.4-9-3.9c-3.2-1.8-9.1-4.8-9.1-6.3c0.8-2.6,4.3-4.5,19.5-6.2
					c11.4-1.4,17.4-5,22.4-13.3c6.2-10,5-18.7-3.3-26.6l-6.9-6.6l4.1,6.2c7.5,10.8,3.9,23.7-6.8,23.7c-2.5,0-6.2,1-8.1,2.3
					c-2.7,1.5-5.1,1.2-7.3,0.5l-3.7-1.1l-1.3-0.3l5.3-3.6c6-2.9,8.5-8.5,5.2-11.8c-1.2-1.2-1.5,0-1,3.1c0.8,3.7,0,5.4-2.7,6.4
					c-1.9,1-5.8,3.1-8.3,5c-8.3,6-19.5,12.9-20.6,12.9c-0.6,0,0.4-1.9,2.5-4.4c2.1-2.3,1-1.9-2.5,1.4c-5.2,4.6-6.8,5.2-9.3,3.1
					c-4.2-3.5-3.7-5,3.7-9.6c4.4-2.5,7.5-6.6,9.1-11.2c1.2-3.9,3.1-8.1,3.9-9.3c1.2-1.4,0.6-3.1-1.2-4.6c-1.6-1.4-3.3-4.5-3.1-5.6
					c0.8,0.1,1.3,0.4,2.1,0.8c1,0.6,1.9-0.2,1.9-1.9c0-0.9-0.7-4.2-0.5-5c0.5,0.8,1.8,2.7,2.4,3c1,0.6,2.1,0,2.1-1.4
					c0.3-2.8,0.6-3.6,0.9-4.9c0.4,0.7,2.4,3.6,3.3,4.3c-0.8-2.1-0.2-9,0.2-9.6c0.1,1.8,1.1,5.1,1.4,6.3c2,2.9,2.5,3.5,4.9,4.2
					c2,0.1,2.9-0.7,5.6-3.9c2.7-3.3,4.4-5.7,4.5-7.4c0-1.7-5.7-8.6-12.5-11.2c-2.9-1-3.3-1.3-5-1.8c0.5-0.1,1.2-0.8,3.3-1.2
					c1.1-0.2,5.5-0.2,8.4,1.2c2.6,0.8,8.5,3.4,11.2,6.1c1.5,0.2-0.2-4.7,1.5-4s1,5.8,2.5,6.6c2.2,1.2,2.5-2.6,3.5-2.6
					c1,0.1-0.8,4.5,1,5.5c1.2,0.7,5.2-4.3,5.7-3.5c0.4,0.6-3.1,4.7-2.2,5.3c1.2,0.9,1.1,2.1,3.6,1.1c2.1-1.1,11.4-6.9,13.8-6.7
					c-2.2,1.5-4,3.2-6.4,5.4c-3.9,4.1-4.9,4.6-1.9,5c2.9-0.5,3.6-1.3,5-0.4c0.7,0.5-0.6,4.1,0.3,4.7c1,0.6,4.2-0.7,4.6-0.3
					c1.5,1.5-1.1,3.6-0.3,5.8c1.2,3.3,1.7,3.3,5.6,0.6c3.1-2.2,7-3.8,7.2-3c0.2,1.1-0.8,1.6-2.5,4.1c-5.6,7.9-4.1,9.5,6.9,8.3
					c0,0,9-2.6,11.6,1.5c-2.6-0.5-9,0.8-10.7,1.5c-0.9,0.4-2.9,1.6-4.6,2.9c-0.9,0.7-0.4,1.2,0.2,2.7c2,0.7,4.2,1.2,6.6,1
					c-7.2,2.9-6.5,0.5-9.1,1.9c1.9,3.1,3.3,2.8,9.7,3.7c1.6,0.8,3.1,1.1,4.8,1.6c1.8,0.5,2.9,1.9,2.4,2s-2.2-0.3-4.2-0.5
					c-2.3,0-1.1,0-6.3,0.5C552.4,305.7,551.3,307.5,551.8,308.4L551.8,308.4z"/>
				<path d="M486.1,289.1c0,1.1,0.7,2,1.5,2s1.5-0.9,1.5-2s-0.7-2-1.5-2C486.8,287.1,486.2,287.9,486.1,289.1"/>
				<path fill="none" stroke="#000000" stroke-width="1.7" d="M483.2,290.6c0.9,2.3,3.6,3.5,6.1,2.6c2.4-0.9,3.6-3.5,2.7-5.9c-0.9-2.3-3.6-3.5-6.1-2.6
					C483.5,285.7,482.3,288.3,483.2,290.6"/>
				<path fill="none" stroke="#000000" stroke-width="1.7" d="M500.2,283c-6.1-3.2-14.5,1.8-14.5,1.8"/>
				<g>
					<path fill="#DFDFDF" d="M545.9,338.3c0.2-1-0.3-1.5-1.9-2.6c-2.1,0.3-5.7,1.7-7.9,3.7c-3.9,3.4-4.5,4.7-6.7,7.7
						c0.9,1.8,1.5,2.1,3.2,3.8c1.7,1.1,2.7,1.8,3.9,2.4c0.9-2.9,2.1-4.3,4.6-7.6c1.2-1.8,4.8-3.2,6.6-4.6
						C547.2,339.6,546.5,339.5,545.9,338.3z"/>
					<path fill="#DFDFDF" d="M531.4,352c-1.8-1.1-2.2-2.8-3.5-3.5c-1.6,0.7-1.2,0.9-3.8,2.2c-2.8,1.8-1.8,1.4-4,4.3
						c0.9,1.8,1.4,2.6,2.7,4.5c1.5,1.3,1.5,2.4,2.9,4c2.6-0.7,4.3-1.7,6.3-4c1.4-1.7,3.1-1.8,3.8-4.7
						C533.9,353.6,532.5,353,531.4,352z"/>
					<path fill="#DFDFDF" d="M521.3,360.2c-1.3-1.8-1.6-3.1-2.7-4.4c-2,0.3-3.5,0.6-5.8,1.3c-3.2,0.7-3.6,1.7-5.2,3.4
						c0.9,1.8,1,4,1.7,7.2c0.5,2.2,1,3.5,1.9,5.5c2.6-1.1,4.5-2.1,6.7-3.5c2.3-1.4,4.5-2.8,5.6-5.7
						C522.3,361.9,522.4,361.2,521.3,360.2L521.3,360.2z"/>
					<path fill="#DFDFDF" d="M507.5,368.8c-0.6-2.5-0.5-5.1-1.7-7.1c-2,0.3-1.6,0.9-3.9,1.6c-2.4,1-4,1.3-5.3,3.9
						c2.1,2,2.6,1.7,3.3,4.9c0.5,2.2-0.5,5.4,0.5,7.3c2.6-1.1,2.8-1.8,5.1-3.2c2.3-1.4,2.5-0.8,4-2.3
						C508.5,371.5,508,370.3,507.5,368.8L507.5,368.8z"/>
					<path fill="#DFDFDF" d="M497.9,372.3c-1.1-2.3-1.6-2.8-2.8-3.8c-2.3,0.9-3.3,0.3-5.5,2.3c-2.1,1.5-6.3,5-8,6.8
						c1.6,0.8,3,1.3,4.8,3.7c1.8,2.4,1.3,3,2.3,5.7c1.9-1.2,2.8-1.9,4.6-3c1.9-1.7,2.7-2.2,4.8-3.7
						C497.4,377.8,498.2,374.3,497.9,372.3L497.9,372.3z"/>
					<path fill="#DFDFDF" d="M485.2,382.7c-1.1-2.3-2.7-2.7-3.9-3.7c-2.3,0.9-3.2,2.9-5.4,4.9c-2.7,3-3.1,3.5-4.4,5.3
						c2,1,2.6,1.1,4.4,2.7c1.9,1.7,2.4,1.7,3.7,3.1c1.4-1.6,1.2-1.4,3-3.2c1.9-1.7,2.1-1.7,4.6-3.9
						C486.3,385.3,485.9,384.5,485.2,382.7z"/>
					<path fill="#DFDFDF" d="M474.6,393.5c-1.3-1-2.6-1.8-3.7-2.5c-1.1,1.3-2.1,2.2-2.7,3.6c-1.1,1.3-1.1,1.6-2,3.4
						c2,1,1.8,0.7,3.3,1.5c1.4,0.7,2.1,1.5,3.8,2.6c1.4-1.6,0.4-1,2.2-2.8c0.9-1.1,1.3-1.9,2.7-3.3
						C476.1,394.4,475.9,394.2,474.6,393.5L474.6,393.5z"/>
					<path fill="#DFDFDF" d="M469.3,401.3c-1.6-0.8-2.3-1.2-3.6-1.7c-0.9,1.7-1.1,2-1.8,3.4c-0.4,1.2-0.7,1.8-1.4,3.7
						c1.5,0.5,2,0.7,2.9,1.1c1,0.5,2.1,1.1,3.2,1.8c1.1-2.1,1.1-1.6,1.7-2.8c0.6-1.2,1-1.5,2.1-3.1
						C470.8,402.4,470.3,401.9,469.3,401.3z"/>
					<path fill="#DFDFDF" d="M465.3,409.3c-1.6-0.8-1.6-0.6-2.9-1.2c-0.9,1.7-1.5,4.7-2,6.5c-0.4,2.1-0.7,4.4-0.8,6.9
						c1.4,0.3,0.8,0.1,2.1,0.4c1.2,0.2,1.3,0.3,2.6,0.8c0.4-2.8,0.7-4.3,1.4-6.2c0.5-1.3,1.5-4.3,2.5-5.9
						C466.9,409.9,466.3,409.9,465.3,409.3z"/>
					<path fill="#DFDFDF" d="M461.8,423.6c-0.5-0.1-1-0.2-2.1-0.3c-0.2,3.6-0.2,4.5-0.1,8.1c0.3,3.8,0.3,6.8,0.9,10.7
						c0.7-0.2,0.8-0.4,2.1-0.5c1.2-0.1,1.2-0.1,2.5,0c-0.9-3.6-0.9-4.8-1.2-9.1c-0.1-3.3-0.1-4.4,0.2-8.1
						C463.1,424,462.7,423.8,461.8,423.6L461.8,423.6z"/>
					<path fill="#DFDFDF" d="M463.6,443.3c-0.5-0.1-1.7,0-2.8-0.1c1.1,6.4,2.1,8.7,4.2,12.6c2.5,3.7,5,7.1,8.3,10.7
						c0.4-0.3,0.7-0.6,1.1-1c0.4-0.4,0.7-0.5,1.1-0.9c-3.7-4.9-4.4-6.4-6.6-10.9c-1.8-4.5-2.1-5.7-3.4-10.6
						C464.5,443.5,464.4,443.5,463.6,443.3L463.6,443.3z"/>
					<path fill="#DFDFDF" d="M475.2,466.5c-0.6,0.4-0.3,0.3-1.3,0.9c1.5,1.8,2.6,2.9,5.5,5.7c2.1,1.6,2.8,2.9,7.2,4.7
						c0.5-0.6,0.5-0.7,0.8-1c0.2-0.4,0.3-0.5,0.6-1.2c-2.2-0.7-4.9-2.2-6.5-3.9c-2.8-2.4-3.5-3.5-5.3-5.8
						C475.7,466.2,475.5,466.3,475.2,466.5L475.2,466.5z"/>
					<path fill="#DFDFDF" d="M489.1,477.4c-0.3,0.6-0.2,0.7-0.5,1.4c2,1.2,2.4,1.3,7.3,2.2c6,0.2,8.5,0.1,11.4-0.3
						c-0.1-0.8-0.1-0.8-0.1-1.5c0-0.7,0.1-0.5,0-1.2c-5.6,0.4-7.3,0-9.5-0.1c-4-0.4-7-1.3-8-1.6
						C489.1,477.1,489.2,476.9,489.1,477.4L489.1,477.4z"/>
					<path fill="#DFDFDF" d="M508.7,479.3c0.1,0.6,0.1,0.4,0.3,1.2c4.7-0.8,4.7-0.7,10.4-1.9c4.2-1.2,5.6-2.1,8.3-3.5
						c0.2-0.9,0.1-0.8-0.1-1.2c-0.3-0.5-0.1-0.3-0.7-0.7c-3.1,1.9-6.5,2.4-8.3,3c-4.3,0.9-6.4,1.1-10,1.5
						C508.6,478.6,508.7,478.8,508.7,479.3L508.7,479.3z"/>
					<path fill="#DFDFDF" d="M528.8,472.8c0.7,0.5,0.8,0.8,1.6,0.7c1.4-0.2,1.6-0.6,3-1.7c0.7-0.6,1.7-1.6,1.5-2c-0.3-0.5-0.7-2-1.4-1
						c-0.5,0.9-2.8,2.2-4.2,3.2C528.4,472.5,528.5,472.6,528.8,472.8z"/>
					<path fill="#DFDFDF" d="M535.8,468c0.8,0.3,0.6,0.4,1.3-0.2c0.5-0.5,0.9-1.3,1.9-2.5c0.6-0.7,1.7-2.6,1.8-3c0.2-1.3-0.5-2.1-1.1-1
						c-1,1.9-2.2,3.8-3.9,5.3C534.8,467.5,535.5,467.9,535.8,468L535.8,468z"/>
					<path fill="#DFDFDF" d="M540.8,459.9c0.8,0.3,0.7,0.4,1.4-0.2c0.5-0.5,1.1-1.7,1.7-3.1c0.4-0.8,1.2-2.1,0.9-2.9
						c-0.3-0.9-1.5-1.5-1.8-0.4c-0.6,2-0.7,2-1.7,4.4C541,458.7,540.5,459.8,540.8,459.9z"/>
					<path fill="#DFDFDF" d="M543.5,451.4c0.3,0.6,0.9,0.5,1.9,0.1c0.8-0.3,0.5-1.6,0.6-3.1c0.1-0.8,0.2-1.6,0-2.7
						c-0.2-0.9-2-1.3-2.1-0.1c-0.1,0.8,0,1.3-0.1,2.8C543.5,450.6,543.3,450.9,543.5,451.4L543.5,451.4z"/>
					<path fill="#DFDFDF" d="M544.2,443.2c0.2,0.5,1,0.3,1.4-0.2c0.5-0.7-0.1-1.8-0.1-3.1c0-0.8-0.3-1.7-0.7-2.7
						c-0.3-0.6-1.3-0.7-1.3,0.4c0,0.6,0.2,1.3,0.3,2.5C544,441.6,543.9,442.4,544.2,443.2L544.2,443.2z"/>
					<path fill="#DFDFDF" d="M542.8,435.1c0.2,0.5,1,0,1.2-0.7c0.2-1-0.5-2.2-0.8-3.5c-0.3-1.1-0.7-2.3-1.6-3c-0.6-0.5-1.8-0.8-1.5,0.3
						c0.2,0.9,1.4,2.6,1.9,4C542.3,433.5,542.5,434.2,542.8,435.1L542.8,435.1z"/>
					<path fill="#DFDFDF" d="M537.7,425.7c0.6,0,1.2,0.2,1-0.5c-0.2-0.6-0.8-0.9-1.9-1.8c-0.6-0.5-1.6-1.3-2.2-1.6
						c-0.7-0.3-2-0.7-1.5,0.3c0.2,0.4,0.8,0.6,1.8,1.4C536.1,424.2,537.3,425.7,537.7,425.7L537.7,425.7z"/>
				</g>
			</g>
		</g>
		<g>
			<path d="M171.7,398.4c-11.4,3.9-27.8,11.8-34.3,16.2c-2.1,1.5-1.9,3.3,1.4,9.8c2.3,4.2,4.6,7.9,5,7.9c0.6,0,6.9-2.9,14.1-6.6
				c7.1-3.5,16.3-8.1,20.4-8.9c3.2-0.6,6.1-1.2,7.9-2c0.7,1.8,0.3,0.8,1.6,3.6c1.9,4,0.7,3.9,4,5c3.5,1.2,12.1-3.5,12.1-3.5
				c10-3.5,15.6-3.9,51.7-3.9s41.7,0.4,51.7,4.1c0,0,8.1,2.7,9.1,3.1c1,0.3,1.6,0.6,2.7,0.3c1-0.2,2-1.8,2.5-2.7
				c0,0,2.2-5.3,2.8-7.2c1.9,0.9,5.4,2.1,8.8,3.2c4.1,1.4,13.1,5.4,20.3,8.9c7.1,3.7,13.5,6.6,14.1,6.6c0.4,0,2.7-3.7,5-7.9
				c4.6-9.1,5-8.3-11.8-17c-22.4-11.6-44.8-16.8-46.9-11.2c-0.4,1.1-0.7,1.7-1.2,3.1c-2.2-0.5-8.1-1.9-14-2.9
				c-18.1-3.3-67.9-3.3-86,0c-5.9,1-9.9,2.6-13.2,3.5c-1.9-3.8-1.5-2.3-1.9-3.3C196,392.8,185.8,393.4,171.7,398.4L171.7,398.4z"/>
			<g>
				<path fill="#DFDFDF" d="M190,395.7c-8.3,0.3-23.8,5.6-39.5,13.6c-13.5,6.8-13.9,7.1-10.2,14.3c1.5,3.3,3.3,6.2,3.5,6.6c0,0,0,0,0,0
					c0.7,0.2,6.7-2.5,13.6-6c7.3-3.7,16.6-7.7,20.7-8.9c3-1.1,5.2-1.2,7.8-1.7c-0.5-2.8,0.1-0.4-1.8-5.8c2.2-5.5,6.4-10.2,10.5-11.3
					C193.6,395.9,192,395.6,190,395.7L190,395.7z"/>
				<path fill="#DFDFDF" d="M253.4,395.8c-16,0.2-31.7,0.9-38.9,2.1c-12.3,2-18.9,5.9-23.4,8.3c-1.7,1.2-3.1,1.5-4.9,2.6
					c1.4,3.3,1.4,5.2,2.6,8.1c1.3,3,0.6,4.9,4.2,5c3.5,0.1,11.2-3.7,11.2-3.7c9.8-3.5,15.6-3.9,51.5-3.9c36.1,0,43.3,1.1,51.7,4.1
					c6,2.1,8.5,3.7,11,3.3c1.2-0.2,1.9-2,2.8-4.2c1.2-3,2.6-6.9,3.3-11.9c-1.9-0.3-1.1,0.7-3.6-0.5c-5.6-2.5-6.6-2.7-10.3-4.2
					c-4.4-1.8-8.5-1.8-14.9-3c-7.5-1.2-24.2-1.6-40.6-1.9C254.4,395.8,253.9,395.8,253.4,395.8L253.4,395.8z"/>
				<path fill="#DFDFDF" d="M320.4,395.8c-1.1,0-2,0.1-2.8,0.4c1.7,1.1,3.6,2.8,4.7,3.4c4.1,2.1,4,4.1,3.6,7.7c-0.2,1.7-0.3,2.3-1,4.6
					c1.5,0.7,5.2,2.2,8.3,3.3c3.9,1.2,13.1,5.2,20.4,8.9c6.8,3.5,12.7,6.1,13.6,6c0,0,0,0,0.1,0c0,0,0,0,0,0
					c0.2-0.4,1.9-3.3,3.5-6.6c2.5-4.8,2.7-6.5,0.8-8.1c-4.2-3.5-21.4-11.4-33.8-15.6C330.1,397.1,324.3,395.8,320.4,395.8
					L320.4,395.8z"/>
				<path fill="#DFDFDF" d="M315.6,397.4c-0.1,0.1-0.2,0.3-0.4,0.5c-0.6,0.7-0.7,1.5-0.8,2.4c1.3,0.5,5.6,3.1,7.8,3
					c0.5,0,0.9,0,1.1-0.1c0,0,0,0,0.1,0c0,0,0,0,0,0c0,0,0,0,0.1-0.1c0,0,0,0,0,0c0,0,0,0,0,0c0,0,0,0,0,0c0,0,0,0,0,0c0,0,0,0,0,0
					c0,0,0,0,0,0c0,0,0-0.1,0-0.1c0,0,0,0,0-0.1c0,0,0-0.1-0.1-0.1c-0.3-0.4-1.2-1.1-3.1-2.1C318.9,399.8,316.8,398.4,315.6,397.4
					L315.6,397.4z"/>
				<path fill="#DFDFDF" d="M195.8,397.4c-1.3,1-3.4,2.3-4.8,3.2c-2.5,1.7-2.8,3-3.9,5.3c0,0,0,0.1-0.1,0.1c0,0,0,0,0,0c0,0,0,0,0,0
					c0,0,0,0,0,0c0.4-0.2,2.2-1.8,6.7-3.4c3.8-1.4,1.8-0.7,4.2-1.7c-1.6-2.4-1.8-2.6-2-3.2C196,397.7,195.9,397.6,195.8,397.4
					L195.8,397.4z"/>
			</g>
			<path d="M212.5,403.2l0.4,3.8l2.6-0.3c0.9-0.1,1.6-0.3,1.9-0.7c0.4-0.4,0.5-0.9,0.4-1.6c-0.1-0.7-0.3-1.1-0.7-1.4
				c-0.4-0.2-1.1-0.3-2.1-0.2L212.5,403.2 M210.9,402l4.4-0.5c0.7-0.1,1.2-0.1,1.6-0.1c0.3,0,0.7,0.1,0.9,0.2c0.5,0.2,0.9,0.5,1.2,1
				c0.3,0.4,0.5,1,0.6,1.6c0.1,0.6,0,1.1-0.2,1.6c-0.2,0.5-0.6,0.8-1,1.1c0.5,0.1,0.8,0.2,1,0.5c0.2,0.3,0.4,0.7,0.5,1.4l0.3,1.8
				c0.1,0.4,0.2,0.7,0.3,0.9c0.1,0.2,0.2,0.3,0.4,0.4l0,0.3l-1.8,0.2c-0.2-0.2-0.3-0.7-0.5-1.5c0,0,0,0,0,0l-0.3-1.5
				c-0.1-0.7-0.4-1.2-0.7-1.4s-1-0.2-2.1-0.1l-2.5,0.3l0.6,4.8l-1.5,0.2L210.9,402 M224.3,407.3l3.5-0.3l-2.1-4.9L224.3,407.3
				 M221.3,412.2l3.4-11.6l1.7-0.1l5.1,11l-1.7,0.1l-1.4-3.3l-4.5,0.3l-1,3.5L221.3,412.2 M236.9,411.3l-0.3-11.3l1.5,0l0.1,4.7
				l5.9-0.2l-0.1-4.7l1.5,0l0.3,11.3l-1.5,0l-0.2-5.3l-5.9,0.2l0.2,5.3L236.9,411.3 M250.3,406.2l3.5,0l-1.8-5L250.3,406.2
				 M247.1,411l4.2-11.4l1.7,0l4.3,11.3l-1.7,0l-1.2-3.4l-4.5,0l-1.2,3.4L247.1,411 M266.4,406.9l1.5,0c-0.1,1.4-0.6,2.5-1.5,3.3
				c-0.9,0.8-2,1.2-3.4,1.2c-1.6,0-2.8-0.6-3.7-1.7c-0.9-1.1-1.3-2.6-1.3-4.5c0-1.8,0.5-3.2,1.5-4.2c1-1,2.3-1.5,3.9-1.5
				c1.3,0,2.3,0.4,3.1,1c0.8,0.7,1.3,1.6,1.4,2.7l-1.5,0c-0.1-0.8-0.5-1.3-1-1.7c-0.5-0.4-1.2-0.6-2.1-0.6c-1.2,0-2.1,0.4-2.7,1.2
				c-0.6,0.8-1,1.9-1,3.4c0,1.4,0.3,2.5,0.9,3.4c0.6,0.8,1.5,1.3,2.6,1.3c0.9,0,1.7-0.3,2.3-0.8C266,408.6,266.4,407.8,266.4,406.9
				 M269.6,411.2l0.5-11.3l1.5,0.1l-0.2,4.7l5.9,0.3l0.2-4.7l1.5,0.1l-0.5,11.3l-1.5-0.1l0.2-5.3l-5.9-0.3l-0.2,5.3L269.6,411.2
				 M281.1,411.7l0.8-11.3l1.5,0.1l-0.8,11.3L281.1,411.7 M287.6,402.2l-0.4,3.8l2.6,0.3c0.9,0.1,1.6,0,2-0.3
				c0.4-0.3,0.7-0.8,0.7-1.5c0.1-0.7-0.1-1.2-0.4-1.5c-0.3-0.3-1-0.5-2-0.6L287.6,402.2 M286.2,400.7l4.4,0.4
				c0.7,0.1,1.2,0.2,1.6,0.2c0.3,0.1,0.6,0.2,0.9,0.4c0.5,0.3,0.8,0.7,1,1.2c0.2,0.5,0.3,1,0.2,1.7c-0.1,0.6-0.2,1.1-0.5,1.5
				c-0.3,0.4-0.7,0.7-1.3,0.9c0.4,0.2,0.7,0.4,0.9,0.7c0.2,0.3,0.2,0.8,0.2,1.5l-0.1,1.9c0,0.4,0,0.7,0.1,0.9
				c0.1,0.2,0.2,0.4,0.3,0.4l0,0.3l-1.8-0.2c-0.1-0.2-0.2-0.8-0.2-1.5c0,0,0,0,0,0l0.1-1.5c0-0.8-0.1-1.3-0.3-1.5
				c-0.2-0.3-0.9-0.4-2-0.5l-2.5-0.2l-0.5,4.8l-1.5-0.1L286.2,400.7 M295.6,413.1l1.5-11.3l1.5,0.2l-1.5,11.3L295.6,413.1"/>
		</g>
		<g>
			<path fill="#171796" stroke="#000000" stroke-width="2" d="M190,177.6c-5.2,2.7-7.9,6.7-8.4,12.2c-0.4,5.9,0.9,10,4.2,13.2c1.5,1.5,2.8,2.9,2.8,3.3
				c0,0.3-1.1,1.7-2.6,3.1c-3.4,3.1-5.3,7.3-5.3,11.6c0,4.4,1.4,7.5,5,11.5l3,3.3l-3.3,3.6c-6.6,7.3-6.4,15.7,0.5,22.6l2.9,3.1h67.4
				h67.3l3.3-3.5c6.4-6.8,6.4-14.2,0.1-22l-3.2-3.9l3-3.6c6.6-7.9,6.4-15.1-0.4-22.7c-3.1-3.4-3.1-4-0.7-5.6
				c3.9-2.6,6.4-11.6,4.6-17c-2.6-8.2-14-13.6-21-10c-1.3,0.6-3.9,2.4-5.8,3.9c-1.9,1.6-3.7,2.8-4.1,2.8c-0.3,0-2-1.3-3.8-2.9
				c-6.9-5.9-15.1-5.5-22,1.2l-2.6,2.6l-3.5-3.2c-7.1-6.7-16-6.4-23.2,0.6l-2.6,2.6l-2.9-2.6c-4.2-3.9-7-5-11.9-5.1
				c-4.7-0.1-9,1.9-12.4,5.6l-1.7,1.8l-3.7-3.1C202.2,175.1,196.6,174.1,190,177.6L190,177.6z"/>
			<path fill="#D42E12" stroke="#000000" stroke-width="2" d="M186.5,269.2c-7,7.8-6.9,15.7,0.1,23.6l2.6,2.9l-3,3.3c-1.6,1.8-3.4,4.4-4,5.7c-2.3,5.5-0.6,12.9,3.9,17.1
				c2.7,2.6,2.8,3.7,0.2,6.9c-1.1,1.4-2.5,3.3-3,4.3c-5.4,10.2,2.6,22.9,14.5,22.9c4.7,0,8.3-1.5,11.5-4.9c2.6-2.7,3.9-2.8,6.2-0.4
				c3.4,3.7,7.8,6,11.5,6c4.4,0,7.1-1.4,11.5-5.6l3.4-3.3l3.1,3.4c6.7,7.2,13.4,7.4,22.3,0.6l3.6-2.7l3.1,2.9
				c3.9,3.4,6.9,4.8,10.7,4.8c3.9,0,6.7-1.5,11.2-5.9l3.7-3.6l2.9,2.6c5.5,4.9,8.5,6.5,12.5,6.5c4.1,0,7.1-1.4,11.2-5.1
				c3.9-3.5,5.9-7.6,5.4-10.9c-0.5-3.6-3.8-10.3-6.2-12.6l-2.1-2l3.2-3.6c7-8.2,7.1-14.6,0.1-22.8l-2.9-3.4l3-3.6
				c6.7-7.9,6.7-15.3-0.1-22.5l-3.6-3.8l-67,0.1l-67,0.1L186.5,269.2L186.5,269.2z"/>
			<path d="M171.7,259.9c0,0,0,66.9,0.2,92.5c-0.2,3.8,2,4.7,5.2,7.2c5.2,4.1,10.8,8.3,40.9,6c27.6,0.2,33.4,2.3,36.3,13.3l1.5,6.2
				l1.4-6.2c2.1-10.6,8.7-13.1,35.3-13.3c34.3,0.5,37.1-1.6,42-5.8c0,0,3.6-2.8,4.5-5.4c1-3,0.5-5.4,0.5-5.4v-89.1v-93.8h-83.9
				h-83.9L171.7,259.9L171.7,259.9z M337.6,260.7l0.4,77.2c0,10.4,0.7,13.6-0.4,15.6c-1.1,2-3.4,4.6-3.4,4.6
				c-5.2,5.2-9.6,6.3-33.4,6c-15.3,0-23.6,0.5-35.7,2.4c-1.9,1.7-7.1,1.6-9.5,11.5c-3.1-9.9-5.4-9.5-5.4-9.5
				c-12.8-5.4-18.6-4.3-39.2-4.5c-13.3,1.9-27.6-0.6-33-6c0,0-0.8,0.2-4.4-4.1c0-18.8,0-93.2,0-93.2v-92.6h82h82L337.6,260.7
				L337.6,260.7z"/>
			<path fill="#FFFFFF" d="M232.4,208.3c-5.1,10.5-5.3,15.2-1.1,23.6c3.3,6.5,7.2,10.6,12.4,13.2c13.8,6.9,31.5,1.8,38.4-11.1
				c4.3-7.9,3.8-21.2-0.9-27l-1.3-1.5l-1.2,4.6c-1.7,6.5-3.4,9.8-6.9,13.3c-6.4,6.5-15.3,8-24.5,4c-7.1-3.2-9.9-7.5-12.6-19.7
				l-0.6-3L232.4,208.3L232.4,208.3z"/>
			<path d="M230.7,209c-4.2,9.6-3.9,14.5,1.4,24.7c13.5,26.6,53.6,16.6,53.4-13.5c-0.2-4.8,0-8-2.7-13.3c-1.3-2.2-1.8-2.9-2.7-4.2
				c-0.4,1.5-0.9,4-1.9,8.3c-3.9,14.9-16.6,21.8-29.9,16.2c-7.5-3.1-11-8.1-12.9-18.5l-1.4-6.8L230.7,209L230.7,209z M243.9,228.1
				c9.3,6,23.3,4.1,30.5-3.9c2.9-3.3,4.7-8.4,5.4-11c0.7-2.6,0.9-2.9,1.3-5.5c1.1,2.5,1.7,3.8,2.3,7.6c0.8,5.7-0.5,10.4-1.8,13.9
				c-6.8,17.7-28.4,23.2-41.9,10.4c-6.6-6-11.8-17.7-8.9-25.3c1-2.7,1.2-4.2,2.6-7.1c0.2,1.9,0.4,4.6,1.7,8.6
				C236.7,221.5,239.8,225.6,243.9,228.1L243.9,228.1z"/>
			<g id="flower" transform="translate(310.25716,43.566)">
				<path fill="#E9D315" stroke="#000000" stroke-width="1.625" d="M-87.2,254.2c-0.1,4.2,0.1,6.1,0.7,9.2c-2.1-2-4.2-3.4-7.1-5.1c-3.7-2.2-8.4-4.2-10-1.6
					c-1.5,2.5,2.9,6,6.3,7.9c3.8,2.1,5.9,2.4,8.4,3.4c-2.1,1.1-4.9,1.8-8,3.8c-3.1,2-7.7,6-5.9,8.6c1.8,2.6,6.9-0.3,9.8-2.3
					c2.4-1.6,5.6-4.1,6.8-5.4c-0.2,1.9-1,5.6-0.9,9.1c0.1,4.3,0.7,9.2,3.9,9.1c3.3,0,4-5.7,3.9-9.5c-0.1-4-0.5-6.9-0.9-8.8
					c1.4,1.5,3.6,3.5,6.4,5.8c2.3,1.8,8.1,4.6,9.8,2c1.7-2.7-1-5.3-6-8.5c-3.5-2.2-6-3-8.3-3.9c2.3-0.9,4.8-1.2,8.5-3.4
					c5.5-3.3,7.8-5.5,6.1-8.4c-1.6-2.8-4.9-1.3-9.9,1.9c-2.7,1.7-5.2,4-6.9,5.6c0.4-2.6,0.8-6.3,0.8-9.1c0-4.1-1-9.5-3.8-9.5
					C-86.3,244.9-87.1,249.6-87.2,254.2L-87.2,254.2z"/>
				<path fill="#FFFFFF" stroke="#000000" stroke-width="1.8685" stroke-miterlimit="2.6759" d="M-79.1,267.9c0,2.4-2,4.4-4.4,4.4c-2.4,0-4.4-2-4.4-4.4c0-2.4,2-4.4,4.4-4.4
					C-81.1,263.5-79.1,265.5-79.1,267.9"/>
			</g>
			<g>
				<g id="flower_00000046302899968607388100000009398131051578721179_" transform="translate(310.25716,43.566)">
					<path fill="#E9D315" stroke="#000000" stroke-width="1.625" d="M-29.6,254.2c-0.1,4.2,0.1,6.1,0.7,9.2c-2.1-2-4.2-3.4-7.1-5.1c-3.7-2.2-8.4-4.2-10-1.6
						c-1.5,2.5,2.9,6,6.3,7.9c3.8,2.1,5.9,2.4,8.4,3.4c-2.1,1.1-4.9,1.8-8,3.8c-3.1,2-7.7,6-5.9,8.6c1.8,2.6,6.9-0.3,9.8-2.3
						c2.4-1.6,5.6-4.1,6.8-5.4c-0.2,1.9-1,5.6-0.9,9.1c0.1,4.3,0.7,9.2,3.9,9.1c3.3,0,4-5.7,3.9-9.5c-0.1-4-0.5-6.9-0.9-8.8
						c1.4,1.5,3.6,3.5,6.4,5.8c2.3,1.8,8.1,4.6,9.8,2c1.7-2.7-1-5.3-6-8.5c-3.5-2.2-6-3-8.3-3.9c2.3-0.9,4.8-1.2,8.5-3.4
						c5.5-3.3,7.8-5.5,6.1-8.4c-1.6-2.8-4.9-1.3-9.9,1.9c-2.7,1.7-5.2,4-6.9,5.6c0.4-2.6,0.8-6.3,0.8-9.1c0-4.1-1-9.5-3.8-9.5
						C-28.8,244.9-29.5,249.6-29.6,254.2L-29.6,254.2z"/>
					<path fill="#FFFFFF" stroke="#000000" stroke-width="1.8685" stroke-miterlimit="2.6759" d="M-21.5,267.9c0,2.4-2,4.4-4.4,4.4s-4.4-2-4.4-4.4c0-2.4,2-4.4,4.4-4.4C-23.5,263.5-21.5,265.5-21.5,267.9"
						/>
				</g>
			</g>
		</g>
	</g>
</g>
</svg>
