<svg width="24" height="24" viewBox="0 0 24 24" fill="none" xmlns="http://www.w3.org/2000/svg">
<g clip-path="url(#clip0_8615_27492)">
<path d="M23.9968 0H-0.00292969V23.9998H23.9968V0Z" fill="#4173CD"/>
<path d="M9.17212 18.3156C9.11906 19.2591 9.74362 19.3754 10.082 19.3805C10.4204 19.3856 10.9331 19.5343 11.4099 19.6317C11.8867 19.7291 12.0405 19.3343 12.0405 19.3343C12.3225 19.7035 12.5976 19.5907 12.5976 19.5907C12.8232 19.3651 13.4248 19.2523 13.6606 19.2369C13.8965 19.2216 13.8401 18.8985 13.8401 18.8985C14.0872 18.7611 14.2544 18.6036 14.3739 18.4444C14.379 18.4468 14.3835 18.4503 14.3886 18.4525C14.7937 18.6268 15.1064 18.2577 15.1731 18.1192C15.2143 18.0336 15.2898 17.9957 15.3437 17.9773L15.3628 18.191C15.5371 17.9398 15.9165 18.0321 15.9165 18.0321C15.5269 17.4322 15.1321 17.7091 15.1321 17.7091L15.285 17.8544C15.0529 17.9714 14.9151 18.4345 14.5732 18.2986C14.544 18.287 14.5193 18.2704 14.4933 18.2551C14.6313 17.9814 14.6358 17.7233 14.5989 17.5757C14.5322 17.3091 14.1221 17.2476 13.9221 17.5193C13.7823 17.7093 13.8708 18.0027 14.0733 18.2227C13.9664 18.2974 13.8298 18.3667 13.6504 18.4166C13.0966 18.5704 12.2661 17.8424 11.6919 17.8116C11.1176 17.7809 10.6152 18.2628 10.3281 18.5704C10.041 18.8781 9.65573 18.6056 9.66159 18.4064M14.199 17.6271C14.3067 17.5809 14.3528 17.663 14.3682 17.7962C14.3746 17.8521 14.3439 17.9435 14.2687 18.0418C14.15 17.8593 14.1306 17.6564 14.199 17.6271Z" fill="#73AF00"/>
<path d="M10.7984 19.4537L10.4922 19.6113L10.5777 19.3997L10.7984 19.4537Z" fill="#F5F5F5"/>
<path d="M10.5125 19.3808L10.2295 19.5264L10.3086 19.3308L10.5125 19.3808Z" fill="#F5F5F5"/>
<path d="M10.2483 19.3276L10.0391 19.4455L10.0931 19.2958L10.2483 19.3276Z" fill="#F5F5F5"/>
<path d="M12.5979 19.5909L12.2646 19.6776L12.3945 19.4899L12.5979 19.5909Z" fill="#F5F5F5"/>
<path d="M12.3661 19.4676L12.0557 19.5379L12.1811 19.3683L12.3661 19.4676Z" fill="#F5F5F5"/>
<path d="M12.1496 19.3539L11.9365 19.4647L11.9956 19.3169L12.1496 19.3539Z" fill="#F5F5F5"/>
<path d="M7.73476 7.98273C7.6695 8.02864 7.66527 8.13504 7.7253 8.22037C7.78533 8.3057 7.88689 8.33765 7.95215 8.29174C8.01741 8.24584 8.02165 8.13944 7.96162 8.05411C7.90159 7.96878 7.80002 7.93683 7.73476 7.98273Z" fill="#F5F5F5"/>
<path d="M16.0414 8.29265C16.1067 8.33856 16.2082 8.3066 16.2682 8.22127C16.3283 8.13594 16.324 8.02955 16.2588 7.98364C16.1935 7.93773 16.092 7.96969 16.0319 8.05502C15.9719 8.14035 15.9761 8.24674 16.0414 8.29265Z" fill="#F5F5F5"/>
<path d="M13.9778 11.2628V14.9426C13.9778 16.0352 13.0889 16.924 11.9963 16.924C10.9038 16.924 10.0149 16.0352 10.0149 14.9426V11.2628H13.9778ZM15.11 9.84753H8.88268C8.72636 9.84753 8.59961 9.97428 8.59961 10.1306V14.9426C8.59961 16.8186 10.1204 18.3393 11.9963 18.3393C13.8723 18.3393 15.393 16.8186 15.393 14.9426V10.1306C15.393 9.97428 15.2663 9.84753 15.11 9.84753Z" fill="#F5F5F5"/>
<path d="M10.0139 11.2627H8.59863V10.2224C8.59863 10.0153 8.76654 9.84741 8.97363 9.84741H10.0139V11.2627Z" fill="#FF4B55"/>
<path d="M12.7023 9.84741H11.2871V11.2626H12.7023V9.84741Z" fill="#FF4B55"/>
<path d="M10.0128 12.6777H8.59766V14.0929H10.0128V12.6777Z" fill="#FF4B55"/>
<path d="M15.3917 12.6777H13.9766V14.0929H15.3917V12.6777Z" fill="#FF4B55"/>
<path d="M15.3918 11.2627H13.9766V9.84741H15.0169C15.2239 9.84741 15.3918 10.0153 15.3918 10.2224V11.2627Z" fill="#FF4B55"/>
<path d="M13.1993 18.1155L12.6547 16.8086C12.448 16.8819 12.2266 16.9239 11.9951 16.9239C11.7636 16.9239 11.5422 16.8819 11.3355 16.8086L10.791 18.1155C11.1657 18.2578 11.5705 18.3392 11.9951 18.3392C12.4198 18.3392 12.8245 18.2578 13.1993 18.1155Z" fill="#FF4B55"/>
<path d="M9.48933 17.23L10.5963 16.3444C10.3162 16.0649 10.1206 15.7018 10.0471 15.2968L8.68262 15.6866C8.81396 16.2735 9.09769 16.8013 9.48933 17.23Z" fill="#FF4B55"/>
<path d="M15.3073 15.6866L13.9428 15.2968C13.8692 15.7018 13.6737 16.0649 13.3936 16.3444L14.5005 17.23C14.8922 16.8013 15.176 16.2735 15.3073 15.6866Z" fill="#FF4B55"/>
<path d="M9.59164 10.1306H9.02539V10.98H9.59164V10.1306Z" fill="#FFE15A"/>
<path d="M9.59164 12.9608H9.02539V13.8102H9.59164V12.9608Z" fill="#FFE15A"/>
<path d="M9.87484 15.7916H9.30859V16.641H9.87484V15.7916Z" fill="#FFE15A"/>
<path d="M14.6873 15.7916H14.1211V16.641H14.6873V15.7916Z" fill="#FFE15A"/>
<path d="M14.9705 10.1306H14.4043V10.98H14.9705V10.1306Z" fill="#FFE15A"/>
<path d="M9.59164 11.5369H9.02539V12.3862H9.59164V11.5369Z" fill="#FF4B55"/>
<path d="M14.9705 11.5369H14.4043V12.3862H14.9705V11.5369Z" fill="#FF4B55"/>
<path d="M9.59164 14.3436H9.02539V15.193H9.59164V14.3436Z" fill="#FF4B55"/>
<path d="M10.8123 16.8473H10.2461V17.6967H10.8123V16.8473Z" fill="#FF4B55"/>
<path d="M13.7498 16.8473H13.1836V17.6967H13.7498V16.8473Z" fill="#FF4B55"/>
<path d="M14.9705 14.3436H14.4043V15.193H14.9705V14.3436Z" fill="#FF4B55"/>
<path d="M12.2801 10.1306H11.7139V10.98H12.2801V10.1306Z" fill="#FFE15A"/>
<path d="M10.9373 10.1306H10.3711V10.98H10.9373V10.1306Z" fill="#FF4B55"/>
<path d="M13.6024 10.1306H13.0361V10.98H13.6024V10.1306Z" fill="#FF4B55"/>
<path d="M14.9657 12.9609H14.3994V13.8103H14.9657V12.9609Z" fill="#FFE15A"/>
<path d="M12.2772 17.2069H11.7109V18.0563H12.2772V17.2069Z" fill="#FFE15A"/>
<path d="M11.9936 11.8024C12.5399 11.8024 12.9843 12.2469 12.9843 12.7931C12.9843 13.3394 12.5399 13.7838 11.9936 13.7838C11.4473 13.7838 11.0029 13.3394 11.0029 12.7931C11.0029 12.2469 11.4473 11.8024 11.9936 11.8024ZM11.9936 11.6609C11.3683 11.6609 10.8613 12.1678 10.8613 12.7931C10.8613 13.4184 11.3682 13.9254 11.9936 13.9254C12.6189 13.9254 13.1258 13.4185 13.1258 12.7931C13.1258 12.1678 12.6189 11.6609 11.9936 11.6609Z" fill="#FFE15A"/>
<path d="M11.8283 12.7132C11.5475 12.7132 11.3724 12.7922 11.2626 12.8905C11.3077 12.6682 11.4015 12.4302 11.5984 12.4302C11.6375 12.4302 11.6691 12.3984 11.6691 12.3594C11.6691 12.3204 11.6375 12.2886 11.5984 12.2886C11.4032 12.2886 11.2818 12.4246 11.2057 12.5951C11.1591 11.6668 11.0149 11.6633 10.9615 11.6633C10.9224 11.6633 10.8907 11.6951 10.8907 11.7341C10.8907 11.7681 10.9145 11.7963 10.9464 11.8032C10.976 11.8385 11.0012 11.9577 11.0218 12.1226C10.9302 11.9282 10.7971 11.7872 10.6017 11.7872C10.5626 11.7872 10.5309 11.819 10.5309 11.858C10.5309 11.8969 10.5626 11.9287 10.6017 11.9287C10.795 11.9287 10.9136 12.1645 10.9844 12.4477C10.8486 12.2541 10.6437 12.1117 10.3423 12.1117C10.3032 12.1117 10.2715 12.1435 10.2715 12.1825C10.2715 12.2215 10.3031 12.2533 10.3423 12.2533C10.6553 12.2533 10.835 12.4339 10.9386 12.6425C10.8172 12.5397 10.6441 12.4656 10.3953 12.4656C10.3562 12.4656 10.3245 12.4974 10.3245 12.5364C10.3245 12.5753 10.3562 12.6071 10.3953 12.6071C11.0687 12.6071 11.0792 13.2407 11.0793 13.2678C11.0794 13.2781 11.0863 13.2853 11.0903 13.2941C11.0938 13.3019 11.094 13.3114 11.0999 13.3173L11.1001 13.3176C11.1129 13.3304 11.1306 13.3383 11.1501 13.3383H11.1502C11.1575 13.3383 11.1622 13.3326 11.1689 13.3306C11.1905 13.3238 11.2053 13.3092 11.2125 13.2878C11.2148 13.2809 11.2207 13.2758 11.2208 13.2681C11.2211 13.2513 11.233 12.8549 11.8283 12.8549C11.8674 12.8549 11.8991 12.8231 11.8991 12.7841C11.8991 12.7451 11.8674 12.7132 11.8283 12.7132Z" fill="#73AF00"/>
<path d="M12.1762 12.7132C12.457 12.7132 12.6322 12.7922 12.7419 12.8905C12.6968 12.6682 12.603 12.4302 12.4062 12.4302C12.3671 12.4302 12.3354 12.3984 12.3354 12.3594C12.3354 12.3204 12.367 12.2886 12.4062 12.2886C12.6013 12.2886 12.7228 12.4246 12.7988 12.5951C12.8455 11.6668 12.9896 11.6633 13.0431 11.6633C13.0821 11.6633 13.1138 11.6951 13.1138 11.7341C13.1138 11.7681 13.0901 11.7963 13.0581 11.8032C13.0286 11.8385 13.0033 11.9577 12.9828 12.1226C13.0744 11.9282 13.2074 11.7872 13.4028 11.7872C13.4419 11.7872 13.4736 11.819 13.4736 11.858C13.4736 11.8969 13.442 11.9287 13.4028 11.9287C13.2095 11.9287 13.0909 12.1645 13.0201 12.4477C13.1559 12.2541 13.3609 12.1117 13.6623 12.1117C13.7014 12.1117 13.733 12.1435 13.733 12.1825C13.733 12.2215 13.7014 12.2533 13.6623 12.2533C13.3492 12.2533 13.1695 12.4339 13.0659 12.6425C13.1874 12.5397 13.3604 12.4656 13.6092 12.4656C13.6483 12.4656 13.68 12.4974 13.68 12.5364C13.68 12.5753 13.6483 12.6071 13.6092 12.6071C12.9359 12.6071 12.9254 13.2407 12.9252 13.2678C12.9252 13.2781 12.9182 13.2853 12.9142 13.2941C12.9107 13.3019 12.9105 13.3114 12.9046 13.3173L12.9044 13.3176C12.8916 13.3304 12.874 13.3383 12.8544 13.3383H12.8543C12.847 13.3383 12.8423 13.3326 12.8357 13.3306C12.814 13.3238 12.7992 13.3092 12.792 13.2878C12.7897 13.2809 12.7838 13.2758 12.7837 13.2681C12.7834 13.2513 12.7716 12.8549 12.1762 12.8549C12.1372 12.8549 12.1055 12.8231 12.1055 12.7841C12.1055 12.7451 12.1371 12.7132 12.1762 12.7132Z" fill="#73AF00"/>
<path d="M10.9043 13.076C11.0306 13.5635 11.4696 13.9252 11.9965 13.9252C12.5235 13.9252 12.9625 13.5635 13.0887 13.076H10.9043Z" fill="#FF4B55"/>
<path d="M11.9941 13.9254C12.5211 13.9254 12.9601 13.5637 13.0864 13.0762H11.9941V13.9254Z" fill="#FFE15A"/>
<path d="M11.9936 14.3676C12.5399 14.3676 12.9843 14.812 12.9843 15.3583C12.9843 15.9046 12.5399 16.349 11.9936 16.349C11.4473 16.349 11.0029 15.9046 11.0029 15.3583C11.0029 14.812 11.4473 14.3676 11.9936 14.3676ZM11.9936 14.2261C11.3683 14.2261 10.8613 14.733 10.8613 15.3583C10.8613 15.9836 11.3682 16.4906 11.9936 16.4906C12.6189 16.4906 13.1258 15.9837 13.1258 15.3583C13.1258 14.733 12.6189 14.2261 11.9936 14.2261Z" fill="#FFE15A"/>
<path d="M11.8283 15.2786C11.5475 15.2786 11.3724 15.3576 11.2626 15.4559C11.3077 15.2336 11.4015 14.9956 11.5984 14.9956C11.6375 14.9956 11.6691 14.9638 11.6691 14.9248C11.6691 14.8858 11.6375 14.854 11.5984 14.854C11.4032 14.854 11.2818 14.99 11.2057 15.1605C11.1591 14.2323 11.0149 14.2288 10.9615 14.2288C10.9224 14.2288 10.8907 14.2605 10.8907 14.2995C10.8907 14.3335 10.9145 14.3617 10.9464 14.3686C10.976 14.404 11.0012 14.5231 11.0218 14.688C10.9302 14.4936 10.7971 14.3526 10.6017 14.3526C10.5626 14.3526 10.5309 14.3844 10.5309 14.4234C10.5309 14.4623 10.5626 14.4942 10.6017 14.4942C10.795 14.4942 10.9136 14.7299 10.9844 15.0132C10.8486 14.8195 10.6437 14.6772 10.3423 14.6772C10.3032 14.6772 10.2715 14.7089 10.2715 14.7479C10.2715 14.7869 10.3031 14.8187 10.3423 14.8187C10.6553 14.8187 10.835 14.9993 10.9386 15.208C10.8172 15.1052 10.6441 15.031 10.3953 15.031C10.3562 15.031 10.3245 15.0628 10.3245 15.1018C10.3245 15.1408 10.3562 15.1726 10.3953 15.1726C11.0687 15.1726 11.0792 15.8061 11.0793 15.8332C11.0794 15.8435 11.0863 15.8508 11.0903 15.8596C11.0938 15.8673 11.094 15.8768 11.0999 15.8828L11.1001 15.883C11.1129 15.8958 11.1306 15.9038 11.1501 15.9038H11.1502C11.1575 15.9037 11.1622 15.8981 11.1689 15.896C11.1905 15.8892 11.2053 15.8746 11.2125 15.8532C11.2148 15.8463 11.2207 15.8412 11.2208 15.8336C11.2211 15.8167 11.233 15.4203 11.8283 15.4203C11.8674 15.4203 11.8991 15.3885 11.8991 15.3495C11.8991 15.3105 11.8674 15.2786 11.8283 15.2786Z" fill="#73AF00"/>
<path d="M12.1762 15.2786C12.457 15.2786 12.6322 15.3576 12.7419 15.4559C12.6968 15.2336 12.603 14.9956 12.4062 14.9956C12.3671 14.9956 12.3354 14.9638 12.3354 14.9248C12.3354 14.8858 12.367 14.854 12.4062 14.854C12.6013 14.854 12.7228 14.99 12.7988 15.1605C12.8455 14.2323 12.9896 14.2288 13.0431 14.2288C13.0821 14.2288 13.1138 14.2605 13.1138 14.2995C13.1138 14.3335 13.0901 14.3617 13.0581 14.3686C13.0286 14.404 13.0033 14.5231 12.9828 14.688C13.0744 14.4936 13.2074 14.3526 13.4028 14.3526C13.4419 14.3526 13.4736 14.3844 13.4736 14.4234C13.4736 14.4623 13.442 14.4942 13.4028 14.4942C13.2095 14.4942 13.0909 14.7299 13.0201 15.0132C13.1559 14.8195 13.3609 14.6772 13.6623 14.6772C13.7014 14.6772 13.733 14.7089 13.733 14.7479C13.733 14.7869 13.7014 14.8187 13.6623 14.8187C13.3492 14.8187 13.1695 14.9993 13.0659 15.208C13.1874 15.1052 13.3604 15.031 13.6092 15.031C13.6483 15.031 13.68 15.0628 13.68 15.1018C13.68 15.1408 13.6483 15.1726 13.6092 15.1726C12.9359 15.1726 12.9254 15.8061 12.9252 15.8332C12.9252 15.8435 12.9182 15.8508 12.9142 15.8596C12.9107 15.8673 12.9105 15.8768 12.9046 15.8828L12.9044 15.883C12.8916 15.8958 12.874 15.9038 12.8544 15.9038H12.8543C12.847 15.9037 12.8423 15.8981 12.8357 15.896C12.814 15.8892 12.7992 15.8746 12.792 15.8532C12.7897 15.8463 12.7838 15.8412 12.7837 15.8336C12.7834 15.8167 12.7716 15.4203 12.1762 15.4203C12.1372 15.4203 12.1055 15.3885 12.1055 15.3495C12.1055 15.3105 12.1371 15.2786 12.1762 15.2786Z" fill="#73AF00"/>
<path d="M10.9043 15.6412C11.0306 16.1287 11.4696 16.4904 11.9965 16.4904C12.5235 16.4904 12.9625 16.1287 13.0887 15.6412H10.9043Z" fill="#FF4B55"/>
<path d="M11.9971 16.4904C12.524 16.4904 12.963 16.1287 13.0893 15.6412H11.9971V16.4904Z" fill="#FFE15A"/>
<path d="M8.03447 10.6967V10.1306H6.61914V10.6967H6.90222V16.924H6.61914V17.4902H6.90222H7.7514H8.03447V16.924H7.7514V10.6967H8.03447Z" fill="#F5F5F5"/>
<path d="M17.3752 10.6967V10.1306H15.96V10.6967H16.243V16.924H15.96V17.4902H16.243H17.0922H17.3752V16.924H17.0922V10.6967H17.3752Z" fill="#F5F5F5"/>
<path d="M15.3399 9.84734H8.65254C8.46692 9.84734 8.31641 9.69683 8.31641 9.5112V9.05122C8.31641 8.8656 8.46692 8.71509 8.65254 8.71509H15.3398C15.5254 8.71509 15.6759 8.8656 15.6759 9.05122V9.5112C15.6759 9.69687 15.5255 9.84734 15.3399 9.84734Z" fill="#FFE15A"/>
<path d="M12.2954 9.49356H11.6983C11.6287 9.49356 11.5723 9.43712 11.5723 9.36751V9.19502C11.5723 9.12541 11.6287 9.06897 11.6983 9.06897H12.2954C12.365 9.06897 12.4214 9.12541 12.4214 9.19502V9.36751C12.4214 9.43712 12.365 9.49356 12.2954 9.49356Z" fill="#FF4B55"/>
<path d="M14.4214 9.49368H13.8243C13.7547 9.49368 13.6982 9.43724 13.6982 9.36764V9.19514C13.6982 9.12553 13.7547 9.06909 13.8243 9.06909H14.4214C14.491 9.06909 14.5474 9.12553 14.5474 9.19514V9.36764C14.5474 9.43724 14.491 9.49368 14.4214 9.49368Z" fill="#73AF00"/>
<path d="M10.1763 9.49368H9.57917C9.50956 9.49368 9.45312 9.43724 9.45312 9.36764V9.19514C9.45312 9.12553 9.50956 9.06909 9.57917 9.06909H10.1763C10.2459 9.06909 10.3023 9.12553 10.3023 9.19514V9.36764C10.3023 9.43724 10.2459 9.49368 10.1763 9.49368Z" fill="#73AF00"/>
<path d="M15.9712 7.54165L15.5585 7.68316L15.5983 8.07695C15.1424 8.59496 14.9136 8.62839 14.8194 8.59557C14.7029 8.55531 14.6491 8.38914 14.6274 8.26169L14.7977 8.43203C15.6469 7.58285 15.1604 6.33561 15.1604 6.33561C14.9216 6.37986 14.8154 6.60097 14.8154 6.60097C14.5942 6.5833 14.3643 6.60097 14.3643 6.60097C14.3466 6.79559 14.4173 7.06981 14.4173 7.06981C13.9319 7.16989 13.7321 7.43299 13.7321 7.43299C13.8153 7.6661 14.0812 7.86593 14.0812 7.86593C14.0016 8.06055 14.0989 8.29051 14.0989 8.29051C14.2204 8.29051 14.3255 8.25391 14.3998 8.21795C14.0828 8.61315 13.9336 8.62262 13.8829 8.60359C13.7298 8.54678 13.6909 8.09439 13.7124 7.7913C13.7146 7.76036 13.6962 7.73144 13.6672 7.72024C13.6384 7.70946 13.6054 7.71832 13.586 7.74265L13.3419 8.05385C12.3233 6.69664 13.1287 5.88449 13.1287 5.88449V5.31848H12.8456V5.60156H12.603V5.31848H12.3603V5.60156H12.1177V5.31848H11.8751V5.60156H11.6325V5.31848H11.3899V5.60156H11.1472V5.31848H10.8642V5.88459C10.8642 5.88459 11.6696 6.69673 10.6509 8.05394L10.4068 7.74274C10.3874 7.71813 10.3544 7.70904 10.3257 7.72033C10.2967 7.73154 10.2783 7.76041 10.2805 7.79139C10.302 8.09449 10.2633 8.54673 10.1099 8.60368C10.0591 8.62211 9.90961 8.61297 9.59199 8.21669C9.66647 8.25311 9.77245 8.29066 9.8955 8.29066C9.8955 8.29066 9.99281 8.06069 9.91317 7.86607C9.91317 7.86607 10.179 7.66624 10.2623 7.43313C10.2623 7.43313 10.0625 7.17003 9.57703 7.06995C9.57703 7.06995 9.64781 6.79573 9.63009 6.60111C9.63009 6.60111 9.40013 6.58344 9.17897 6.60111C9.17897 6.60111 9.07285 6.37996 8.83398 6.33575C8.83398 6.33575 8.34747 7.58299 9.19665 8.43217L9.36507 8.26375C9.34318 8.39092 9.28941 8.55559 9.1734 8.59567C9.07866 8.62853 8.85066 8.59511 8.39593 8.07864L8.43592 7.68321L8.02314 7.54169C7.81085 6.8989 7.30371 6.97559 7.30371 6.97559C7.63985 7.26457 7.71063 8.00167 7.71063 8.00167L8.58339 8.85085L8.63059 8.71525C8.61109 8.60186 8.58067 8.51317 8.54804 8.44131C8.82184 8.69429 9.04412 8.79104 9.22008 8.72935C9.39286 8.6695 9.46608 8.47436 9.49706 8.32703C9.72928 8.61395 9.9157 8.75204 10.0715 8.75204C10.1019 8.75204 10.131 8.74679 10.1591 8.73629C10.3816 8.65393 10.4246 8.26127 10.4278 7.99891L10.581 8.19438V8.71525H11.7133C11.7133 8.55892 11.84 8.43217 11.9964 8.43217C12.1527 8.43217 12.2794 8.55887 12.2794 8.71525H13.4117V8.19438L13.565 7.99891C13.5682 8.26122 13.6111 8.65389 13.8337 8.73629C13.8617 8.74679 13.8909 8.75204 13.9213 8.75204C14.077 8.75204 14.2635 8.61381 14.4957 8.32703C14.5266 8.47436 14.5999 8.66954 14.7727 8.72935C14.9495 8.79099 15.1724 8.69368 15.4473 8.43906C15.4142 8.51129 15.3834 8.60064 15.3637 8.71525L15.4109 8.85085L16.2837 8.00167C16.2837 8.00167 16.3544 7.26457 16.6906 6.97559C16.6907 6.97554 16.1835 6.89886 15.9712 7.54165Z" fill="#FFE15A"/>
<path d="M11.0173 9.49368H10.8448C10.7752 9.49368 10.7188 9.43724 10.7188 9.36764V9.19514C10.7188 9.12553 10.7752 9.06909 10.8448 9.06909H11.0173C11.0869 9.06909 11.1433 9.12553 11.1433 9.19514V9.36764C11.1433 9.43724 11.0869 9.49368 11.0173 9.49368Z" fill="#F5F5F5"/>
<path d="M13.1403 9.49368H12.9678C12.8982 9.49368 12.8418 9.43724 12.8418 9.36764V9.19514C12.8418 9.12553 12.8982 9.06909 12.9678 9.06909H13.1403C13.21 9.06909 13.2664 9.12553 13.2664 9.19514V9.36764C13.2664 9.43724 13.21 9.49368 13.1403 9.49368Z" fill="#F5F5F5"/>
<path d="M15.2653 9.49368H15.0928C15.0232 9.49368 14.9668 9.43724 14.9668 9.36764V9.19514C14.9668 9.12553 15.0232 9.06909 15.0928 9.06909H15.2653C15.3349 9.06909 15.3914 9.12553 15.3914 9.19514V9.36764C15.3914 9.43724 15.3349 9.49368 15.2653 9.49368Z" fill="#FF4B55"/>
<path d="M8.8962 9.49368H8.7237C8.65409 9.49368 8.59766 9.43724 8.59766 9.36764V9.19514C8.59766 9.12553 8.65409 9.06909 8.7237 9.06909H8.8962C8.96581 9.06909 9.02225 9.12553 9.02225 9.19514V9.36764C9.02225 9.43724 8.96581 9.49368 8.8962 9.49368Z" fill="#FF4B55"/>
<path d="M12.2229 6.83567C12.4096 7.12283 12.1031 7.42934 11.8159 7.24264C11.7981 7.23106 11.7826 7.21559 11.771 7.19773C11.5843 6.91058 11.8908 6.60407 12.178 6.79077C12.1958 6.80239 12.2113 6.81786 12.2229 6.83567Z" fill="#F5F5F5"/>
<path d="M9.10361 7.27636C9.00572 7.30107 8.94962 7.41325 8.97831 7.52694C9.007 7.64062 9.10962 7.71275 9.20751 7.68804C9.30541 7.66334 9.36151 7.55115 9.33282 7.43747C9.30413 7.32379 9.20151 7.25166 9.10361 7.27636Z" fill="#F5F5F5"/>
<path d="M14.7872 7.68823C14.8851 7.71293 14.9877 7.6408 15.0164 7.52712C15.0451 7.41344 14.989 7.30125 14.8911 7.27655C14.7932 7.25184 14.6906 7.32397 14.6619 7.43765C14.6332 7.55134 14.6893 7.66352 14.7872 7.68823Z" fill="#F5F5F5"/>
<path d="M8.6004 12.5857C8.33298 12.5352 7.97678 12.4982 7.5858 12.5395C7.20284 12.5798 6.75551 12.6989 6.33594 12.984V14.777C6.92182 13.3609 8.22836 13.6347 8.6004 13.747V12.5857Z" fill="#F5F5F5"/>
<path d="M15.3936 12.5857C15.661 12.5352 16.0172 12.4982 16.4082 12.5395C16.7911 12.5798 17.2384 12.6989 17.658 12.984V14.777C17.0721 13.3609 15.7656 13.6347 15.3936 13.747V12.5857Z" fill="#F5F5F5"/>
<path d="M10.4524 17.3763C10.4524 17.3763 10.1474 17.855 9.99302 17.9013C9.99302 17.9013 9.78368 18.0538 9.74121 18.0383L10.4755 17.1871L10.4524 17.3763Z" fill="#FF4B55"/>
<path d="M10.4256 17.6527C10.282 17.6374 10.1692 17.7194 10.0974 17.8168C10.0257 17.9142 9.83232 17.9463 9.8123 17.8197C9.79435 17.7059 10.1953 17.3502 10.1953 17.3502C10.1953 17.3502 10.1287 17.2302 9.94552 17.2769C9.77133 17.3212 9.6001 17.6014 9.6001 17.6014C9.6001 17.6014 9.42601 17.5333 9.28614 17.6499L8.6875 18.3346C8.6875 18.3346 9.42277 18.9628 10.3589 18.0372L10.2 17.986C10.2513 17.7911 10.4256 17.6527 10.4256 17.6527Z" fill="#73AF00"/>
<path d="M9.59917 17.7877C9.64108 17.8566 9.56913 17.9286 9.50022 17.8867C9.49417 17.883 9.48874 17.8775 9.48508 17.8715C9.44318 17.8026 9.51513 17.7306 9.58403 17.7726C9.59008 17.7762 9.59552 17.7817 9.59917 17.7877Z" fill="#F5F5F5"/>
<path d="M6.61816 5.71717C7.48769 5.71417 8.35046 5.86618 9.1657 6.16754V5.28058C8.34755 4.99849 7.48534 4.86457 6.61816 4.88571V5.71717Z" fill="#F5F5F5"/>
<path d="M13.6946 4.75235C12.5782 4.48432 11.4142 4.48432 10.2979 4.75235C10.2979 4.46927 10.2979 4.18625 10.2979 3.90317C11.4142 3.63514 12.5782 3.63514 13.6946 3.90317C13.6946 4.18625 13.6946 4.46932 13.6946 4.75235Z" fill="#F5F5F5"/>
<path d="M10.5814 4.10535C9.88896 4.16971 9.20679 4.33189 8.55664 4.59148C8.59733 4.8716 8.63801 5.15173 8.67875 5.43185C9.2906 5.18754 9.931 5.03131 10.5815 4.95978L10.5814 4.10535Z" fill="#F5F5F5"/>
<path d="M6.33594 6.68659C6.72157 6.57891 7.1142 6.4996 7.51155 6.45587V5.60144C7.11462 5.63833 6.722 5.71117 6.33594 5.81224V6.68659Z" fill="#F5F5F5"/>
<path d="M17.3747 5.71717C16.5052 5.71417 15.6424 5.86618 14.8271 6.16754V5.28058C15.6453 4.99849 16.5075 4.86457 17.3747 4.88571V5.71717Z" fill="#F5F5F5"/>
<path d="M13.4122 4.10535C14.1046 4.16971 14.7868 4.33189 15.4369 4.59148C15.3963 4.8716 15.3556 5.15173 15.3148 5.43185C14.703 5.18754 14.0626 5.03131 13.4121 4.95978L13.4122 4.10535Z" fill="#F5F5F5"/>
<path d="M17.6581 6.68659C17.2724 6.57891 16.8798 6.4996 16.4824 6.45587V5.60144C16.8794 5.63833 17.272 5.71117 17.6581 5.81224V6.68659Z" fill="#F5F5F5"/>
</g>
<defs>
<clipPath id="clip0_8615_27492">
<path d="M0 2C0 0.895432 0.895431 0 2 0H21.9998C23.1043 0 23.9998 0.895431 23.9998 2V21.9998C23.9998 23.1043 23.1043 23.9998 21.9998 23.9998H2C0.895432 23.9998 0 23.1043 0 21.9998V2Z" fill="white"/>
</clipPath>
</defs>
</svg>
