<svg width="24" height="24" viewBox="0 0 24 24" fill="none" xmlns="http://www.w3.org/2000/svg">
<g clip-path="url(#clip0_8615_27517)">
<path d="M23.9959 0H-0.00390625V23.9998H23.9959V0Z" fill="#82AFFF"/>
<path d="M11.9411 6.40161L11.6223 7.35747L10.6148 7.3653C10.5595 7.36572 10.5366 7.43622 10.5811 7.46904L11.3916 8.06758L11.0877 9.02827C11.071 9.08096 11.131 9.1245 11.1759 9.0924L11.9957 8.50646L12.8154 9.0924C12.8604 9.1245 12.9203 9.08096 12.9037 9.02827L12.5998 8.06758L13.4103 7.46904C13.4547 7.43622 13.4318 7.36572 13.3766 7.3653L12.369 7.35747L12.0502 6.40161C12.0328 6.3492 11.9586 6.3492 11.9411 6.40161Z" fill="#F5F5F5"/>
<path d="M11.9411 14.9358L11.6223 15.8917L10.6148 15.8995C10.5595 15.8999 10.5366 15.9704 10.5811 16.0032L11.3916 16.6018L11.0877 17.5625C11.071 17.6151 11.131 17.6587 11.1759 17.6266L11.9957 17.0406L12.8154 17.6266C12.8604 17.6587 12.9203 17.6151 12.9037 17.5625L12.5998 16.6018L13.4103 16.0032C13.4547 15.9704 13.4318 15.8999 13.3766 15.8995L12.369 15.8917L12.0502 14.9358C12.0328 14.8834 11.9586 14.8834 11.9411 14.9358Z" fill="#F5F5F5"/>
<path d="M17.5934 11.9454L16.6375 11.6266L16.6297 10.619C16.6292 10.5638 16.5587 10.5409 16.5259 10.5853L15.9274 11.3959L14.9667 11.092C14.914 11.0753 14.8705 11.1353 14.9026 11.1802L15.4885 12L14.9026 12.8197C14.8705 12.8647 14.914 12.9246 14.9667 12.908L15.9274 12.604L16.5259 13.4146C16.5587 13.459 16.6292 13.4361 16.6297 13.3809L16.6375 12.3733L17.5934 12.0545C17.6458 12.037 17.6458 11.9629 17.5934 11.9454Z" fill="#F5F5F5"/>
<path d="M6.39673 11.9454L7.35259 11.6266L7.36042 10.619C7.36084 10.5638 7.43134 10.5409 7.46415 10.5853L8.06269 11.3959L9.02339 11.092C9.07607 11.0753 9.11962 11.1353 9.08751 11.1802L8.50158 12L9.08751 12.8197C9.11962 12.8647 9.07607 12.9246 9.02339 12.908L8.06269 12.604L7.46415 13.4146C7.43134 13.459 7.36084 13.4361 7.36042 13.3809L7.35259 12.3733L6.39673 12.0545C6.34432 12.037 6.34432 11.9629 6.39673 11.9454Z" fill="#F5F5F5"/>
</g>
<defs>
<clipPath id="clip0_8615_27517">
<path d="M0 2C0 0.895432 0.895431 0 2 0H21.9998C23.1043 0 23.9998 0.895431 23.9998 2V21.9998C23.9998 23.1043 23.1043 23.9998 21.9998 23.9998H2C0.895432 23.9998 0 23.1043 0 21.9998V2Z" fill="white"/>
</clipPath>
</defs>
</svg>
