<svg width="24" height="24" viewBox="0 0 24 24" fill="none" xmlns="http://www.w3.org/2000/svg">
<g clip-path="url(#clip0_8615_27626)">
<path d="M22.5496 1.26318H1.45605V22.7369H22.5496V1.26318Z" fill="#C8414B"/>
<path d="M24.0027 0H0.00292969V23.9998H24.0027V0ZM22.5027 22.7366H1.45604V1.26313H22.5027V22.7366Z" fill="#E6B432"/>
<path d="M17.1847 16.9225C17.7156 16.9225 18.1459 16.4922 18.1459 15.9614C18.1459 15.4306 17.7156 15.0002 17.1847 15.0002C16.6539 15.0002 16.2236 15.4306 16.2236 15.9614C16.2236 16.4922 16.6539 16.9225 17.1847 16.9225Z" fill="#41479B"/>
<path d="M18.8703 10.4434C18.1629 11.0381 17.6872 11.0631 17.6872 11.0631C18.9454 10.5498 18.8139 9.57338 18.8139 9.57338C18.2193 10.3558 17.6121 10.5749 17.6121 10.5749C18.8765 9.71738 18.6762 8.56562 18.6762 8.56562C18.2631 9.47949 17.7404 9.8363 17.7404 9.8363C18.792 8.43733 18.2756 7.53598 18.2756 7.53598C17.8625 8.83168 17.5151 9.20724 17.5151 9.20724C18.3225 7.04773 17.6309 6.42491 17.6309 6.42491C17.6309 7.5829 17.199 8.24641 17.199 8.24641C17.6497 6.71909 16.9424 5.84277 16.9424 5.84277C16.9424 5.84277 16.9357 7.0879 16.6959 7.74016C16.6383 7.65279 16.6043 7.66427 16.6043 7.66427C16.4824 8.46409 16.0526 9.0271 15.867 9.23902C15.8258 9.03966 15.7019 8.97863 15.7019 8.97863C15.7019 8.97863 15.6795 9.17433 15.5039 9.46289C15.3889 9.65194 14.8454 10.0929 14.7578 10.481C14.6875 10.7921 14.9957 11.0506 15.0958 11.1132C15.1959 11.1757 15.3024 11.2884 15.2586 11.47C15.2147 11.6515 14.8893 11.6327 14.6577 11.6264C14.4261 11.6202 14.3948 12.002 14.1382 11.9895L14.0947 12.2742L13.9942 12.2962C13.9942 12.2962 12.9426 14.3917 12.8531 15.1048L12.0788 15.2069L11.3046 15.1048C11.215 14.3917 10.1635 12.2962 10.1635 12.2962L10.063 12.2742L10.0195 11.9895C9.76286 12.002 9.73155 11.6202 9.49999 11.6264C9.26838 11.6327 8.94288 11.6515 8.8991 11.47C8.85528 11.2884 8.96168 11.1758 9.06185 11.1132C9.16202 11.0505 9.47013 10.7921 9.39986 10.481C9.31226 10.0929 8.76879 9.65194 8.65376 9.46289C8.47817 9.17433 8.45581 8.97863 8.45581 8.97863C8.45581 8.97863 8.33188 9.03966 8.29067 9.23902C8.1051 9.0271 7.67526 8.46405 7.55334 7.66427C7.55334 7.66427 7.51935 7.65279 7.46179 7.74016C7.22198 7.0879 7.21532 5.84277 7.21532 5.84277C7.21532 5.84277 6.50799 6.71909 6.95869 8.24641C6.95869 8.24641 6.52678 7.5829 6.52678 6.42491C6.52678 6.42491 5.8351 7.04773 6.64261 9.20724C6.64261 9.20724 6.29522 8.83168 5.88207 7.53598C5.88207 7.53598 5.36565 8.43733 6.41724 9.8363C6.41724 9.8363 5.89459 9.47949 5.48148 8.56562C5.48148 8.56562 5.28119 9.71733 6.54558 10.5749C6.54558 10.5749 5.93841 10.3558 5.34376 9.57338C5.34376 9.57338 5.21233 10.5499 6.47044 11.0631C6.47044 11.0631 5.99471 11.0381 5.28742 10.4434C5.28742 10.4434 5.16227 11.3072 6.80222 11.7516C6.80222 11.7516 6.13247 11.7391 5.45017 11.2822C5.45017 11.2822 5.43137 12.1335 6.83348 12.3025C6.83348 12.3025 6.37027 12.3713 5.85076 12.1835C5.85076 12.1835 5.86956 12.8721 7.09012 12.9597C7.09012 12.9597 6.60816 12.9972 6.29518 12.9221C6.29518 12.9221 6.32649 13.6295 7.29042 13.5105C7.29042 13.5105 6.96492 13.6169 6.85851 13.6482C6.85851 13.6482 6.87731 14.2257 7.88193 14.0191C7.88193 14.0191 7.70352 14.1302 7.4594 14.1677C7.4594 14.1677 7.66598 14.6497 8.50475 14.4369L8.33263 14.6247C8.33263 14.6247 8.98048 15.0002 9.4781 14.4838L9.29969 14.803C9.29969 14.803 9.72222 14.9626 9.98509 14.5495C9.98509 14.5495 9.91309 15.1692 9.03677 15.2819C9.03677 15.2819 9.06809 15.4133 9.10563 15.4634C9.10563 15.4634 9.04929 15.5698 8.54229 15.6575C8.54229 15.6575 8.6487 15.8202 8.76134 15.8703C8.76134 15.8703 8.54229 16.058 8.42333 16.0956C8.42333 16.0956 8.61111 16.1895 8.73007 16.2083C8.73007 16.2083 8.4672 16.4649 8.14166 16.4712C7.81616 16.4774 7.23403 16.4398 7.23403 16.4398C7.23403 16.4398 7.22779 16.1269 7.07756 15.8577C6.92733 15.5886 6.87726 15.5682 6.87726 15.5682C6.87726 15.5682 6.91012 15.3523 6.81623 15.2631C6.72234 15.1739 6.67069 15.1316 6.67069 15.1316C6.67069 15.1316 6.72075 14.6997 6.58303 14.4306C6.44532 14.1614 5.95712 13.573 5.93209 13.1349C5.90706 12.6967 5.9258 12.534 5.9258 12.534L5.77557 12.5715L5.67545 12.3649L5.84443 12.3461L5.77557 12.0332L5.54396 12.1208L5.51265 11.8516L5.23726 11.9643L5.37498 12.2084L5.13086 12.2773L5.27481 12.5652L5.46259 12.4463L5.51265 12.6966C5.51265 12.6966 5.39997 12.7217 5.33739 12.8218C5.33739 12.8218 5.64709 13.0274 5.73798 13.2725C5.88193 13.6606 5.83815 14.5369 6.04473 14.7998C6.2513 15.0627 6.414 15.2443 6.414 15.2443C6.414 15.2443 6.35611 15.4227 6.42183 15.5212C6.48755 15.6198 6.58144 15.648 6.58144 15.648C6.58144 15.648 6.5251 16.047 6.67064 16.3099C6.81619 16.5728 6.90065 16.6385 6.90065 16.6385C6.90065 16.6385 6.37018 16.9624 6.74573 17.3381C6.74573 17.3381 6.69567 17.6792 7.05243 17.7606C7.05243 17.7606 7.07123 18.0297 7.37793 17.9984C7.37793 17.9984 7.52816 17.9546 7.56571 18.0297C7.60326 18.1048 7.56571 18.5367 7.56571 18.5367C7.56571 18.5367 7.70343 18.5242 7.79104 18.4616L8.06642 18.5994L8.07271 18.2927L8.41695 18.1549C8.41695 18.1549 8.26672 18.18 7.96002 17.8921C7.96002 17.8921 8.01008 17.8608 8.04763 17.6166C8.04763 17.6166 8.29175 17.4226 8.34181 17.2661C8.39187 17.1096 8.73617 16.7653 9.13676 16.6527L9.19155 16.8968C9.19155 16.8968 9.76427 16.3898 10.0037 16.3617L10.2009 16.6214C10.2009 16.6214 10.9395 15.526 11.265 15.332C11.2399 15.4196 11.4214 15.4322 11.0177 15.8828C10.614 16.3335 10.8643 16.6903 10.8643 16.6903C10.614 16.8969 10.664 17.0846 10.6327 17.2975C10.6014 17.5103 9.76891 18.0611 9.76891 18.0611C10.0318 18.3928 10.326 18.3177 10.326 18.3177C10.1633 18.4241 10.2133 18.7809 10.2133 18.7809C10.4512 18.8435 10.6891 18.7371 10.6891 18.7371C10.6077 18.9624 10.7329 19.119 10.7329 19.119C10.8831 19.0251 11.2274 18.9687 11.2274 18.9687C11.1836 19.3568 11.434 19.5634 11.434 19.5634L11.653 19.3255C11.6906 19.7637 12.0787 20.0141 12.0787 20.0141C12.0787 20.0141 12.4668 19.7637 12.5044 19.3255L12.7234 19.5634C12.7234 19.5634 12.9738 19.3568 12.93 18.9687C12.93 18.9687 13.2743 19.0251 13.4245 19.119C13.4245 19.119 13.5497 18.9625 13.4683 18.7371C13.4683 18.7371 13.7062 18.8435 13.9441 18.7809C13.9441 18.7809 13.9941 18.4241 13.8314 18.3177C13.8314 18.3177 14.1256 18.3928 14.3885 18.0611C14.3885 18.0611 13.556 17.5103 13.5247 17.2975C13.4934 17.0846 13.5435 16.8969 13.2931 16.6903C13.2931 16.6903 13.5434 16.3335 13.1397 15.8828C12.736 15.4321 12.9175 15.4196 12.8924 15.332C13.2179 15.5261 13.9565 16.6214 13.9565 16.6214L14.1537 16.3617C14.3931 16.3898 14.9658 16.8968 14.9658 16.8968L15.0206 16.6527L15.031 16.6414C15.3296 16.8022 15.8228 17.0198 16.0222 17.1722C16.235 17.335 16.4102 17.3475 16.9235 17.1722C17.4368 16.9969 18.3918 16.7274 18.2505 16.4086C18.2428 16.3912 18.2341 16.3795 18.2257 16.366C18.2481 16.2836 18.2573 16.1399 18.1066 16.0142C18.1066 16.0142 18.1084 16.0492 18.1071 16.0941L17.6178 15.9118C17.6016 15.8685 17.5775 15.826 17.5307 15.7889C17.5307 15.7889 17.5315 15.8265 17.5247 15.8771L17.3992 15.8303L17.6496 15.1256C17.6307 15.115 17.6094 15.1091 17.5897 15.0998C17.5948 15.036 17.6069 14.9478 17.6255 14.8556C17.6866 14.877 17.7425 14.9034 17.783 14.9365L17.8537 14.6785C17.8537 14.6785 17.7777 14.6735 17.6774 14.6548C17.7028 14.577 17.7328 14.5071 17.7685 14.4619L17.4367 14.3618C17.4367 14.3618 17.4453 14.4623 17.4394 14.5877C17.3761 14.562 17.3157 14.5294 17.2669 14.4876L17.1891 14.7739C17.2158 14.7755 17.3064 14.7833 17.4113 14.802C17.3924 14.886 17.359 14.9606 17.3111 15.0166C17.2992 15.015 17.2883 15.0108 17.2763 15.0096L17.0331 15.6939L16.3734 15.4481C16.3451 15.4926 16.3234 15.5411 16.3029 15.5902C16.3065 15.583 16.3095 15.5719 16.3132 15.5674C16.3132 15.5674 16.058 15.7008 16.0615 15.8969C16.0146 15.9148 15.9734 15.95 15.9501 16.0111C15.875 16.2083 16.335 16.6496 16.2224 16.7059C16.1118 16.7612 15.5339 16.2852 15.4413 16.2053C15.5604 16.1821 15.7342 16.0956 15.7342 16.0956C15.6152 16.058 15.3961 15.8703 15.3961 15.8703C15.5088 15.8202 15.6152 15.6575 15.6152 15.6575C15.1082 15.5698 15.0519 15.4634 15.0519 15.4634C15.0894 15.4133 15.1207 15.2819 15.1207 15.2819C14.2444 15.1692 14.1724 14.5495 14.1724 14.5495C14.4353 14.9626 14.8578 14.803 14.8578 14.803L14.6794 14.4838C15.177 15.0002 15.8249 14.6247 15.8249 14.6247L15.6527 14.4369C16.4915 14.6497 16.6981 14.1677 16.6981 14.1677C16.454 14.1302 16.2756 14.0191 16.2756 14.0191C17.2802 14.2257 17.299 13.6482 17.299 13.6482C17.1926 13.6169 16.8671 13.5105 16.8671 13.5105C17.831 13.6294 17.8623 12.9221 17.8623 12.9221C17.5493 12.9972 17.0674 12.9597 17.0674 12.9597C18.2879 12.872 18.3067 12.1835 18.3067 12.1835C17.7872 12.3713 17.324 12.3025 17.324 12.3025C18.7261 12.1335 18.7073 11.2822 18.7073 11.2822C18.0251 11.7391 17.3553 11.7516 17.3553 11.7516C18.9954 11.3072 18.8703 10.4434 18.8703 10.4434ZM17.4478 16.6355C17.381 16.5269 17.5403 16.4299 17.6121 16.3264L17.8895 16.4298C17.7952 16.542 17.5167 16.7475 17.4478 16.6355ZM17.2624 16.1961C17.1725 16.3355 17.1098 16.4919 16.8328 16.4994C16.4854 16.5087 16.4291 16.1989 16.354 16.0299C16.3321 15.9807 16.2943 15.9434 16.251 15.9179C16.2508 15.8877 16.2524 15.8543 16.2551 15.8207L17.2624 16.1961Z" fill="#E6B432"/>
<path d="M11.976 9.5827C11.976 9.5827 11.53 9.20246 11.3986 8.99588C11.3986 8.99588 11.5488 8.93485 11.6239 8.84096C11.6239 8.84096 11.2202 8.62501 11.0042 8.40437C11.0042 8.40437 11.1451 8.38088 11.253 8.29168C11.253 8.29168 10.8904 8.2262 10.7066 7.92925C11.1258 7.78614 10.9855 7.39502 10.9855 7.39502C10.9009 7.50771 10.5536 7.64852 10.178 7.48891C9.80244 7.3293 9.38933 7.44194 9.38933 7.64852C9.38933 7.64852 8.54432 7.40439 8.75559 8.22128C8.75559 8.22128 8.89171 7.91612 9.19218 8.02881C9.49264 8.1415 9.7978 8.52643 9.7978 8.52643C9.7978 8.52643 9.61002 8.6297 9.26263 8.51706C9.26263 8.51706 9.40349 9.05691 10.0372 8.78466C10.0372 8.78466 10.2876 8.91924 10.3001 9.31355C10.3001 9.31355 10.4065 9.2572 10.4754 9.13205C10.4754 9.13205 10.5755 9.51389 10.4441 9.82682C10.4441 9.82682 10.6194 9.79551 10.6757 9.73917C10.6757 9.73917 10.7258 10.0709 10.5067 10.3401C10.5067 10.3401 11.4691 10.7986 12.0794 10.2962C12.0794 10.2962 11.8494 10.0334 11.7743 9.78923C11.7742 9.78928 11.9009 9.73762 11.976 9.5827Z" fill="#E6B432"/>
<path d="M14.769 7.64852C14.769 7.44194 14.3559 7.3293 13.9804 7.48891C13.6048 7.64852 13.2574 7.50771 13.1729 7.39502C13.1729 7.39502 13.0326 7.78614 13.4518 7.92925C13.2679 8.2262 12.9054 8.29168 12.9054 8.29168C13.0133 8.38088 13.1542 8.40437 13.1542 8.40437C12.9382 8.62501 12.5345 8.84096 12.5345 8.84096C12.6096 8.93485 12.7598 8.99588 12.7598 8.99588C12.6284 9.20245 12.1824 9.5827 12.1824 9.5827C12.2575 9.73762 12.3843 9.78928 12.3843 9.78928C12.3092 10.0334 12.0791 10.2963 12.0791 10.2963C12.6894 10.7986 13.6518 10.3401 13.6518 10.3401C13.4327 10.0709 13.4828 9.73922 13.4828 9.73922C13.5391 9.79556 13.7144 9.82687 13.7144 9.82687C13.583 9.51389 13.6831 9.1321 13.6831 9.1321C13.752 9.25725 13.8584 9.31359 13.8584 9.31359C13.8709 8.91924 14.1213 8.78471 14.1213 8.78471C14.755 9.057 14.8959 8.5171 14.8959 8.5171C14.5485 8.62979 14.3607 8.52648 14.3607 8.52648C14.3607 8.52648 14.6659 8.14154 14.9663 8.02886C15.2668 7.91617 15.4029 8.22132 15.4029 8.22132C15.6141 7.40439 14.769 7.64852 14.769 7.64852Z" fill="#E6B432"/>
<path d="M14.3867 12.6357C14.3043 12.1559 14.2333 11.7415 14.4402 11.2667L14.4788 11.1781L13.6592 10.2368L13.5623 10.2691C13.5539 10.272 12.6972 10.552 12.1479 10.2773L12.0794 10.2431L12.0109 10.2773C11.4642 10.5513 10.6052 10.2719 10.5963 10.2689L10.4995 10.2369L9.67995 11.178L9.71852 11.2667C9.92548 11.7415 9.85446 12.1559 9.77206 12.6356C9.69443 13.0886 9.60635 13.6021 9.76127 14.2284C9.92951 14.9082 10.4958 15.1499 10.9955 15.3633C11.3806 15.5277 11.7443 15.6829 11.9499 16.0088L12.0794 16.2141L12.2089 16.0088C12.4146 15.6829 12.7783 15.5277 13.1633 15.3633C13.663 15.1499 14.2293 14.9083 14.3975 14.2284C14.5524 13.6022 14.4643 13.0887 14.3867 12.6357ZM10.0362 11.235L10.5988 10.5891C10.8536 10.6591 11.5425 10.8107 12.0793 10.5828C12.616 10.8107 13.3048 10.6591 13.5598 10.5891L14.1224 11.235C13.9249 11.7553 14.0026 12.2089 14.0847 12.6874C14.1462 13.046 14.2073 13.4154 14.156 13.8408H10.0026C9.9513 13.4154 10.0125 13.046 10.0739 12.6874C10.1561 12.2089 10.2338 11.7553 10.0362 11.235ZM13.043 15.0816C12.6949 15.2303 12.3367 15.3831 12.0793 15.6732C11.8219 15.3831 11.4638 15.2303 11.1156 15.0816C10.6271 14.873 10.2056 14.6907 10.0667 14.1789H14.0919C13.953 14.6907 13.5316 14.873 13.043 15.0816Z" fill="#E6B432"/>
<path d="M10.0372 11.2349L10.5998 10.589C10.8546 10.659 11.5434 10.8107 12.0803 10.5828C12.617 10.8107 13.3058 10.659 13.5607 10.589L14.1233 11.2349C13.9258 11.7552 14.0036 12.2088 14.0856 12.6873C14.1471 13.0459 14.2082 13.4153 14.1569 13.8407H10.0036C9.95224 13.4153 10.0134 13.0459 10.0749 12.6873C10.157 12.2088 10.2348 11.7552 10.0372 11.2349Z" fill="#41479B"/>
<path d="M10.0459 14.0895C10.0507 14.1115 10.0538 14.1326 10.0594 14.1548C10.191 14.6865 10.6198 14.8695 11.1165 15.0816C11.4647 15.2302 11.8228 15.3831 12.0802 15.6732C12.3376 15.3831 12.6957 15.2302 13.0439 15.0816C13.5405 14.8695 13.9694 14.6865 14.1011 14.1548C14.1066 14.1326 14.1096 14.1114 14.1145 14.0895H10.0459Z" fill="#73AF00"/>
<path d="M13.9212 12.3141C13.9212 12.0372 13.658 11.9935 13.4187 11.9983C13.1794 12.003 12.8294 11.9593 12.8206 11.7734C12.815 11.6574 13.0096 11.6466 13.1364 11.6872C13.21 11.7108 13.6676 11.7925 13.8112 11.4862C13.8112 11.4862 13.6438 11.4916 13.4672 11.452C13.3311 11.4214 12.7727 11.491 12.6722 11.7063C12.5717 11.9217 12.8958 12.1366 13.2691 12.1366C13.6424 12.1366 13.6936 12.2113 13.6907 12.3023C13.6868 12.4219 13.3909 12.4558 13.2207 12.4542C12.953 12.357 12.328 12.4332 12.3251 12.4213C12.3215 12.4069 12.181 12.1655 12.181 12.1655C12.181 12.1655 12.4368 12.1475 12.4692 12.1006C12.5017 12.0538 12.2751 11.8739 12.2751 11.8739C12.2751 11.8739 12.4656 11.7979 12.4728 11.7439C12.4808 11.6844 12.3182 11.5437 12.3182 11.5437C12.3182 11.5437 12.381 11.4818 12.4283 11.3762C12.4621 11.3007 12.1938 11.2805 12.1938 11.2805C12.2081 11.2231 12.2027 11.1674 12.1316 11.1417C12.0767 11.1219 11.8732 11.1991 11.7344 11.1991C11.5956 11.1991 11.5429 11.2996 11.5429 11.2996C11.5429 11.2996 11.2989 11.3283 11.2654 11.357C11.2319 11.3858 11.275 11.5724 11.275 11.5724C11.1506 11.5532 11.0931 11.4432 11.0931 11.4432C11.0309 11.7255 11.3228 11.7542 11.3228 11.7542L11.3707 11.9074C11.3707 11.9074 11.3707 11.9074 11.4903 11.9217C11.6099 11.9361 11.5525 12.0509 11.3659 12.0509C11.1792 12.0509 11.1 12.2735 11.1 12.2735C10.9703 12.2771 10.8982 12.1726 10.8694 12.0393C10.8377 11.8926 10.8564 11.6671 10.8802 11.5241C10.9091 11.3511 10.8226 11.3007 10.8226 11.3007L10.7649 11.4448C10.7613 11.2971 10.6316 11.2827 10.6316 11.2827L10.61 11.4629C10.5451 11.3439 10.4334 11.398 10.4334 11.398C10.4334 11.398 10.5415 11.7871 10.5379 11.8088C10.5343 11.8304 10.4983 11.8484 10.4478 11.7944C10.3974 11.7403 10.3613 11.7764 10.3613 11.7764C10.4154 12.1655 10.6241 12.1084 10.6241 12.1084C10.6241 12.1084 10.6334 12.2303 10.6964 12.4778C10.7637 12.742 11.0404 12.6922 11.0404 12.6922C11.0404 12.7784 11.1074 12.9028 11.1266 13.1899C11.1457 13.477 10.8825 13.678 10.8825 13.678C10.6432 13.6732 10.6671 13.9077 10.6671 13.9077H11.3276C11.3276 13.2971 11.59 13.1924 11.59 13.1924C11.9792 13.2104 12.3539 13.0482 12.3539 13.0482C12.2962 13.2824 12.3971 13.3797 12.3971 13.3797C12.5557 13.3581 12.4764 13.6715 12.4295 13.6715C12.3827 13.6715 12.2854 13.6715 12.2277 13.6715C12.1701 13.6715 12.0043 13.8517 12.0043 13.8517H12.6889C12.6889 13.8517 12.7934 13.7004 12.8295 13.6247C12.8655 13.5491 12.7502 13.4445 12.743 13.3653C12.7358 13.286 12.8619 13.2356 12.8619 13.2356C12.9952 13.4229 13.3015 13.4338 13.3015 13.4338L13.2943 13.2932C13.2943 13.2932 13.4528 13.3473 13.4888 13.3941C13.5248 13.4409 13.5177 13.6571 13.3267 13.6824C13.1357 13.7076 13.1213 13.8445 13.1213 13.8445C13.1213 13.8445 13.5573 13.8445 13.6438 13.8445C13.7302 13.8445 13.7987 13.6824 13.7987 13.6211C13.7987 13.5598 13.7987 13.1599 13.7987 13.0734C13.7987 12.9869 13.7266 12.9978 13.5573 12.9798C13.4034 12.9634 13.4182 12.7951 13.3548 12.5998C13.5773 12.5922 13.9212 12.5436 13.9212 12.3141Z" fill="#E6B432"/>
<path d="M13.8804 5.76639C13.8376 5.38854 13.5363 4.90741 12.3891 4.6819C12.3853 4.56003 12.3103 4.45667 12.2031 4.41317V4.20266H12.3909V3.97733H12.2031V3.78955H11.9778V3.97733H11.79V4.20266H11.9778V4.41317C11.8707 4.45667 11.7957 4.56003 11.7919 4.6819C10.6446 4.90741 10.3434 5.38854 10.3005 5.76639C10.2471 6.23753 10.5845 6.68424 10.8887 6.85547V7.09453H13.2923V6.85547C13.5964 6.68429 13.9338 6.23753 13.8804 5.76639ZM12.6221 6.4936H12.2857V5.1079C12.563 5.23315 12.7346 5.42528 12.7845 5.68909C12.8467 6.01764 12.7154 6.3526 12.6221 6.4936ZM11.3964 5.68895C11.4463 5.42514 11.6179 5.23305 11.8952 5.10785V6.49365H11.5587C11.4654 6.3526 11.3341 6.0175 11.3964 5.68895ZM11.1183 5.30838C11.063 5.41905 11.0278 5.52977 11.0099 5.63144C10.9554 5.93926 11.0178 6.25206 11.1208 6.4936H11.0418C10.8733 6.37754 10.6567 6.09212 10.6887 5.81041C10.711 5.61339 10.8604 5.44427 11.1183 5.30838ZM13.1391 6.4936H13.06C13.163 6.2521 13.2254 5.93931 13.1711 5.63158C13.1531 5.52986 13.1179 5.41905 13.0626 5.30833C13.3205 5.44422 13.4699 5.61339 13.4922 5.81041C13.5242 6.09212 13.3076 6.37754 13.1391 6.4936Z" fill="#E6B432"/>
</g>
<defs>
<clipPath id="clip0_8615_27626">
<path d="M0 2C0 0.895432 0.895431 0 2 0H21.9998C23.1043 0 23.9998 0.895431 23.9998 2V21.9998C23.9998 23.1043 23.1043 23.9998 21.9998 23.9998H2C0.895432 23.9998 0 23.1043 0 21.9998V2Z" fill="white"/>
</clipPath>
</defs>
</svg>
