<svg width="24" height="24" viewBox="0 0 24 24" fill="none" xmlns="http://www.w3.org/2000/svg">
<g clip-path="url(#clip0_8615_27523)">
<path d="M24.0056 0H0.00585938V23.9998H24.0056V0Z" fill="#41479B"/>
<path d="M4.42688 0H0.00585938V0.936413L4.42688 3.83293V0Z" fill="#41479B"/>
<path d="M0.00585938 3.20154V4.42107H1.86725L0.00585938 3.20154Z" fill="#41479B"/>
<path d="M0.00585938 7.57898V8.79851L1.86725 7.57898H0.00585938Z" fill="#41479B"/>
<path d="M12.006 0.936413V0H7.58496V3.83293L12.006 0.936413Z" fill="#41479B"/>
<path d="M12.0059 8.79851V7.57898H10.1445L12.0059 8.79851Z" fill="#41479B"/>
<path d="M7.58496 8.16699V11.9999H12.006V11.0635L7.58496 8.16699Z" fill="#41479B"/>
<path d="M12.0059 4.42107V3.20154L10.1445 4.42107H12.0059Z" fill="#41479B"/>
<path d="M0.00585938 11.0635V11.9999H4.42688V8.16699L0.00585938 11.0635Z" fill="#41479B"/>
<path d="M12.0057 11.0636V10.1278L8.0791 7.57898H9.23915L12.0057 9.37479V8.79851L10.1443 7.57898H12.0057V6.94739H6.95312V12H7.58467V8.16706L12.0057 11.0636Z" fill="#F5F5F5"/>
<path d="M0.00585938 6.94739V7.57898H1.86725L0.00585938 8.79851V9.68449L3.24944 7.57898H4.40949L0.00585938 10.4375V11.0636L4.42688 8.16706V12H5.05842V6.94739H0.00585938Z" fill="#F5F5F5"/>
<path d="M5.05842 0H4.42688V3.83293L0.00585938 0.936413V1.96118L3.79529 4.42102H2.63524L0.00585938 2.71422V3.20148L1.86725 4.42102H0.00585938V5.05261H5.05842V0Z" fill="#F5F5F5"/>
<path d="M12.0057 5.05261V4.42102H10.1443L12.0057 3.20148V2.30421L8.74472 4.42102H7.58467L12.0057 1.55122V0.936413L7.58467 3.83293V0H6.95312V5.05261H12.0057Z" fill="#F5F5F5"/>
<path d="M12.0057 6.94728V5.05261H6.95318V0H5.05842V5.05261H0.00585938V6.94728H5.05842V11.9999H6.95318V6.94728H12.0057Z" fill="#FF4B55"/>
<path d="M3.24944 7.57898L0.00585938 9.68449V10.4375L4.40949 7.57898H3.24944Z" fill="#FF4B55"/>
<path d="M8.0791 7.57898L12.0057 10.1278V9.37479L9.23915 7.57898H8.0791Z" fill="#FF4B55"/>
<path d="M3.79529 4.42114L0.00585938 1.9613V2.71434L2.63524 4.42114H3.79529Z" fill="#FF4B55"/>
<path d="M8.74501 4.42107L12.006 2.30426V1.55127L7.58496 4.42107H8.74501Z" fill="#FF4B55"/>
<path d="M20.782 13.1334H14.334V18.1157H20.782V13.1334Z" fill="#82AFFF"/>
<path d="M14.334 18.1161C14.334 19.8157 16.2391 21.1935 17.5579 21.1935C18.7303 21.1935 20.7819 19.8157 20.7819 18.1161H14.334Z" fill="#C86464"/>
<path d="M18.4185 14.9531C18.5223 14.9715 18.6994 14.9959 18.7177 15.2462C18.736 15.4966 18.6444 16.388 18.5528 16.498C18.5528 16.498 18.852 17.1757 18.8642 17.5787C18.8764 17.9817 18.8215 19.1876 18.8581 19.38C18.8948 19.5723 19.0321 19.9661 19.0321 19.9661C19.0321 19.9661 18.6108 19.7188 18.446 19.8745C18.2811 20.0302 17.6766 20.2409 17.4385 19.9936C17.4385 19.9936 17.7224 19.1876 17.7224 18.2717C17.7224 17.3558 17.7224 15.0936 17.7224 15.0936C17.7224 15.0936 17.8415 14.9989 17.9972 14.9959C18.1529 14.9928 18.4185 14.9531 18.4185 14.9531Z" fill="#73AF00"/>
<path d="M18.4804 19.795C18.4987 19.9111 18.5475 19.9966 18.5231 20.0393C18.4987 20.082 18.3399 20.4728 18.4315 20.4728C18.5231 20.4728 18.6819 20.424 18.7246 20.3385C18.7674 20.253 18.7857 20.1248 18.8101 20.0881C18.8345 20.0514 18.7674 19.8683 18.7124 19.8377C18.6575 19.8072 18.4804 19.795 18.4804 19.795Z" fill="#FFF5E1"/>
<path d="M17.4241 15.2094L17.0883 15.2522C17.0883 15.2522 17.1311 15.0324 17.1372 14.8797C17.1433 14.7271 17.1555 14.4462 17.1555 14.4462C17.1555 14.4462 17.3936 14.2997 17.3997 14.2752C17.4028 14.263 17.431 14.1867 17.4089 14.147C17.3867 14.1073 17.3142 14.1042 17.3142 14.1042C17.3142 14.1042 17.0333 14.2508 17.0333 14.2752C17.0333 14.2996 17.0333 14.4462 17.0028 14.5011C16.9723 14.5561 16.8013 15.014 16.7891 15.1361C16.7769 15.2583 16.7586 15.5147 16.8075 15.5269C16.8563 15.5391 17.3631 15.5941 17.418 15.5697C17.473 15.5453 17.4241 15.2094 17.4241 15.2094Z" fill="#FFF5E1"/>
<path d="M18.9449 14.0037H17.7226V13.4266H17.3013V14.0037H16.0791V14.425H17.3013V19.9661H17.7226V14.425H18.9449V14.0037Z" fill="#464655"/>
<path d="M18.2234 14.7516C18.2234 14.7516 18.6324 14.8694 18.6874 14.7332C18.7515 14.5745 18.5378 14.5531 18.4981 14.3852C18.4937 14.3664 18.4554 14.141 18.2905 14.0982C18.1257 14.0555 17.973 14.0982 17.9669 14.2082C17.9608 14.3181 18.2234 14.7516 18.2234 14.7516Z" fill="#963C3C"/>
<path d="M18.0032 15.2706C17.9912 15.2726 17.9727 15.1485 17.9971 14.9958C18.0215 14.8431 17.9971 14.7943 17.9971 14.7943C17.9971 14.7943 17.8262 14.8126 17.8262 14.7455C17.8262 14.6783 17.8628 14.3669 17.9666 14.2081C17.9666 14.2081 18.0399 14.2997 18.1742 14.2997C18.1742 14.2997 18.1681 14.4096 18.2414 14.4829C18.2414 14.4829 18.1498 14.5623 18.1925 14.6173C18.2353 14.6722 18.3147 14.7394 18.3147 14.7394C18.3147 14.7394 18.3207 14.8676 18.4184 14.9531C18.4184 14.9531 18.2963 15.2217 18.0032 15.2706Z" fill="#FFF5E1"/>
<path d="M16.3687 17.9208H16.332V18.6473H16.3687V17.9208Z" fill="#464655"/>
<path d="M16.5161 17.7802H16.4795V18.788H16.5161V17.7802Z" fill="#464655"/>
<path d="M16.6636 17.6517H16.627V18.9167H16.6636V17.6517Z" fill="#464655"/>
<path d="M16.8111 17.468H16.7744V19.1003H16.8111V17.468Z" fill="#464655"/>
<path d="M16.9585 17.2275H16.9219V19.3402H16.9585V17.2275Z" fill="#464655"/>
<path d="M17.106 17.2275H17.0693V19.4391H17.106V17.2275Z" fill="#464655"/>
<path d="M17.7289 18.3847C17.567 17.5427 17.1184 17.0536 16.9596 17.0292C16.8008 17.0047 16.6848 17.133 16.6726 17.2246C16.6604 17.3162 16.5749 17.5909 16.3978 17.7192C16.2207 17.8474 15.891 17.9207 15.8178 18.1588C15.7445 18.3969 15.9399 18.5007 16.0559 18.4763C16.0646 18.4744 16.0731 18.4711 16.0818 18.4682L17.33 20.0036C17.3753 20.0594 17.4636 20.0502 17.4952 19.9856C17.6235 19.7234 17.867 19.1026 17.7289 18.3847ZM16.1865 18.4017C16.2355 18.3492 16.2561 18.2767 16.2024 18.2015C16.1108 18.0732 16.007 18.2564 16.007 18.2564C16.007 18.2564 15.9765 18.0977 16.2147 18.0183C16.4528 17.9389 16.7215 17.8046 16.8436 17.5176C16.9657 17.2307 16.9596 17.2856 16.9596 17.2856C16.9596 17.2856 17.4481 17.5604 17.5152 18.4213C17.5824 19.2823 17.3443 19.6303 17.3443 19.6303L16.1865 18.4017Z" fill="#FFE15A"/>
<path d="M17.3034 16.5427C17.2473 16.5786 17.1968 16.6095 17.1614 16.6279C17.0469 16.6874 16.9095 16.747 16.8958 16.8019C16.8821 16.8568 16.8042 16.9026 16.8088 16.9668C16.8134 17.0309 16.8088 17.2232 16.8088 17.2232C16.8775 17.2095 17.0149 17.1865 17.0606 17.1041C17.1064 17.0217 17.1476 16.8614 17.2942 16.7928C17.2968 16.7915 17.3006 16.7903 17.3034 16.7891V16.5427Z" fill="#FFF5E1"/>
<path d="M18.5169 15.3731C18.4482 15.4051 18.2421 15.6524 18.21 15.7669C18.178 15.8814 18.0772 16.1516 18.0772 16.1516C18.0772 16.1516 17.8692 16.1787 17.7246 16.2596V16.6595C17.8047 16.6363 17.8755 16.6135 17.9169 16.5912C18.036 16.5271 18.2054 16.408 18.2924 16.3851C18.3794 16.3623 18.4527 16.2157 18.4848 16.1287C18.5168 16.0417 18.6176 15.7852 18.6313 15.6112C18.645 15.4371 18.5856 15.341 18.5169 15.3731Z" fill="#FFF5E1"/>
<path d="M17.558 21.2974L17.542 21.2948C14.2691 20.7781 14.2314 17.9433 14.2314 17.823V13.031H20.8846V17.823C20.8846 17.9434 20.8469 20.7781 17.5741 21.2948L17.558 21.2974ZM14.4367 13.2362V17.823C14.4367 17.9361 14.4721 20.5933 17.558 21.0896C20.6439 20.5933 20.6793 17.9361 20.6793 17.823V13.2362H14.4367Z" fill="#F5F5F5"/>
</g>
<defs>
<clipPath id="clip0_8615_27523">
<path d="M0 2C0 0.895432 0.895431 0 2 0H21.9998C23.1043 0 23.9998 0.895431 23.9998 2V21.9998C23.9998 23.1043 23.1043 23.9998 21.9998 23.9998H2C0.895432 23.9998 0 23.1043 0 21.9998V2Z" fill="white"/>
</clipPath>
</defs>
</svg>
