<svg width="24" height="24" viewBox="0 0 24 24" fill="none" xmlns="http://www.w3.org/2000/svg">
<g clip-path="url(#clip0_8615_27681)">
<path d="M24.0027 0H0.00292969V23.9998H24.0027V0Z" fill="#FF4B55"/>
<path d="M14.1269 13.124L17.5428 10.6177H13.3126L12.0019 6.5835L10.6912 10.6177H6.46094L9.87683 13.124L8.57624 17.1269L11.9986 14.6808L12.0019 14.6832L12.0052 14.6808L15.4275 17.1269L14.1269 13.124ZM14.8122 11.512L13.8359 12.2283L13.6032 11.512H14.8122ZM10.9271 12.7855L11.341 11.512H12.6628L13.0766 12.7855L12.0019 13.574L10.9271 12.7855ZM12.0019 9.47791L12.3722 10.6177H11.6316L12.0019 9.47791ZM9.19157 11.512H10.4006L10.1678 12.2283L9.19157 11.512ZM10.2663 14.8195L10.6361 13.6811L11.2395 14.1238L10.2663 14.8195ZM13.3676 13.6811L13.7375 14.8195L12.7643 14.1238L13.3676 13.6811Z" fill="#5A8250"/>
</g>
<defs>
<clipPath id="clip0_8615_27681">
<path d="M0 2C0 0.895432 0.895431 0 2 0H21.9998C23.1043 0 23.9998 0.895431 23.9998 2V21.9998C23.9998 23.1043 23.1043 23.9998 21.9998 23.9998H2C0.895432 23.9998 0 23.1043 0 21.9998V2Z" fill="white"/>
</clipPath>
</defs>
</svg>
