<svg width="24" height="24" viewBox="0 0 24 24" fill="none" xmlns="http://www.w3.org/2000/svg">
<g clip-path="url(#clip0_8615_27489)">
<path d="M23.9998 0H0V8.00008H23.9998V0Z" fill="#5AA587"/>
<path d="M23.9998 15.9998H0V23.9998H23.9998V15.9998Z" fill="#FFE15A"/>
<path d="M23.9998 8.00012H0V16.0002H23.9998V8.00012Z" fill="#464655"/>
<path d="M23.9998 7.28955H0V8.28704H23.9998V7.28955Z" fill="#F5F5F5"/>
<path d="M23.9998 15.7129H0V16.7104H23.9998V15.7129Z" fill="#F5F5F5"/>
<path d="M11.4526 12.3272C11.6163 12.1599 11.6163 11.8399 11.4526 11.6726L0 0V23.9998L11.4526 12.3272Z" fill="#FF4B55"/>
<path d="M4.80145 7.8916L5.72479 10.6601L8.64305 10.6827C8.80622 10.684 8.87391 10.8922 8.74261 10.9892L6.395 12.7228L7.2753 15.5052C7.32452 15.6608 7.14738 15.7895 7.01463 15.6946L4.64039 13.9976L2.26615 15.6946C2.1334 15.7895 1.95626 15.6608 2.00548 15.5052L2.88578 12.7228L0.538023 10.9892C0.406728 10.8922 0.474415 10.684 0.637585 10.6827L3.55585 10.6601L4.47919 7.8916C4.53084 7.73682 4.74979 7.73682 4.80145 7.8916Z" fill="#FFE15A"/>
<path d="M4.46895 13.0334L4.24067 13.263H2.33203L2.85295 11.3515L3.06581 11.2451L2.72414 12.9493C2.72132 12.9703 2.72554 12.9913 2.73956 13.0082C2.75217 13.0249 2.77176 13.0334 2.79276 13.0334H4.46895Z" fill="#F5F5F5"/>
<path d="M4.92654 13.3513C4.8439 13.4129 4.74307 13.4479 4.63808 13.4479C4.53308 13.4479 4.43225 13.4129 4.34961 13.3513L4.63808 13.0629L4.92654 13.3513Z" fill="#F5F5F5"/>
<path d="M6.94458 13.2631H5.0359L4.80762 13.0335H6.48385C6.50485 13.0335 6.52444 13.0251 6.53705 13.0083C6.55107 12.9915 6.55524 12.9705 6.55247 12.9495L6.21081 11.2452L6.42366 11.3516L6.94458 13.2631Z" fill="#F5F5F5"/>
<path d="M6.39826 12.8934H4.70801V11.1499C4.9909 10.9104 5.73728 11.0743 6.05373 11.1723L6.39826 12.8934Z" fill="#F5F5F5"/>
<path d="M4.56813 11.1499V12.8933H2.87793L3.22241 11.1723C3.53886 11.0743 4.28524 10.9104 4.56813 11.1499Z" fill="#F5F5F5"/>
<path d="M7.10841 13.315L6.55529 11.2845C6.54972 11.2663 6.53711 11.2495 6.51887 11.2411L6.14917 11.0563C6.14777 11.0549 6.14636 11.0549 6.14355 11.0549C6.14214 11.0549 6.14214 11.0535 6.14073 11.0521C6.09592 11.0366 5.07228 10.7034 4.64234 11.0297C4.21246 10.7034 3.18876 11.0366 3.14395 11.0521C3.14255 11.0535 3.14255 11.0535 3.14114 11.0549C3.13833 11.0549 3.13692 11.0549 3.13551 11.0563L2.76581 11.2411C2.74763 11.2495 2.73502 11.2663 2.72939 11.2845L2.17627 13.315C2.17065 13.336 2.17487 13.3584 2.18748 13.3753C2.20149 13.392 2.22249 13.4033 2.24349 13.4033H4.20407C4.32032 13.5195 4.47716 13.5881 4.64239 13.5881C4.80762 13.5881 4.96447 13.5195 5.08071 13.4033H7.0412C7.06219 13.4033 7.08319 13.3921 7.09721 13.3753C7.10982 13.3584 7.11399 13.336 7.10841 13.315ZM4.71242 11.1501C4.99531 10.9106 5.74169 11.0745 6.05814 11.1725L6.40262 12.8935H4.71237L4.71242 11.1501ZM3.22664 11.1725C3.54314 11.0745 4.28952 10.9106 4.57236 11.1501V12.8935H2.88216L3.22664 11.1725ZM2.33602 13.2632L2.85694 11.3517L3.0698 11.2453L2.72813 12.9495C2.72532 12.9705 2.72953 12.9915 2.74355 13.0084C2.75616 13.0251 2.77575 13.0336 2.79675 13.0336H4.47299L4.24471 13.2632H2.33602ZM4.64239 13.4481C4.53734 13.4481 4.43656 13.413 4.35392 13.3514L4.64239 13.063L4.93086 13.3514C4.84822 13.413 4.74739 13.4481 4.64239 13.4481ZM5.04007 13.2632L4.81179 13.0336H6.48803C6.50903 13.0336 6.52862 13.0252 6.54123 13.0084C6.55525 12.9916 6.55942 12.9705 6.55665 12.9495L6.21498 11.2453L6.42784 11.3517L6.94876 13.2632H5.04007Z" fill="#464655"/>
<path d="M6.3929 9.32109C6.32151 9.37087 6.22472 9.3623 6.16317 9.30075L6.07003 9.20761V9.43561L5.50004 10.0056H5.27204L4.36005 10.9176H4.13205L2.37861 12.671C2.33544 12.7142 2.32035 12.7781 2.33966 12.836L2.42216 13.0835L2.08016 13.4255H1.85216L1.15505 14.1226C1.09936 14.1783 1.09936 14.2686 1.15505 14.3243L1.61507 14.7843C1.68149 14.8507 1.79034 14.8465 1.85146 14.7752L2.87811 13.5395L2.99211 13.1975L3.2201 12.9695L3.6761 13.6535L4.0181 13.3115L3.65332 12.7643L3.74416 12.6735C3.83247 12.5852 3.83247 12.442 3.74416 12.3536L3.6761 12.2855L3.74018 12.2215C4.22669 12.6384 4.81098 12.7462 5.36729 12.5078L5.17679 12.0633C4.71718 12.2602 4.34186 12.0955 4.08072 11.8809L5.04399 10.9176L5.00598 10.7276L5.27194 10.4616H5.49994L7.20988 8.75171L6.3929 9.32109Z" fill="#464655"/>
<path d="M2.99242 9.0936L2.76442 9.3216C2.70147 9.38455 2.70147 9.48664 2.76442 9.5496L2.80239 9.58756L2.42243 9.6636L1.39648 10.6895L1.96648 11.2595L2.99242 10.2336L3.06841 9.85358L3.22042 10.0056L3.33442 9.89159L7.12633 13.6835L7.35433 13.4555L3.56242 9.6636L3.67642 9.5496L3.22042 9.0936C3.15742 9.03065 3.05537 9.03065 2.99242 9.0936Z" fill="#464655"/>
</g>
<defs>
<clipPath id="clip0_8615_27489">
<path d="M0 2C0 0.895432 0.895431 0 2 0H21.9998C23.1043 0 23.9998 0.895431 23.9998 2V21.9998C23.9998 23.1043 23.1043 23.9998 21.9998 23.9998H2C0.895432 23.9998 0 23.1043 0 21.9998V2Z" fill="white"/>
</clipPath>
</defs>
</svg>
