<svg width="24" height="24" viewBox="0 0 24 24" fill="none" xmlns="http://www.w3.org/2000/svg">
<g clip-path="url(#clip0_8615_27513)">
<path d="M24.0017 15.9998H0.00195312V23.9998H24.0017V15.9998Z" fill="#FF4B55"/>
<path d="M24.0017 0H0.00195312V8.00008H24.0017V0Z" fill="#FFE15A"/>
<path d="M24.0017 8.00012H0.00195312V16.0002H24.0017V8.00012Z" fill="#73AF00"/>
<path d="M12.3619 4.05547L14.2532 9.72635L20.231 9.77271C20.5956 9.77552 20.7469 10.2409 20.4535 10.4575L15.6446 14.0087L17.4478 19.7082C17.5578 20.0559 17.1619 20.3435 16.8652 20.1314L12.0019 16.6553L7.13852 20.1315C6.84185 20.3435 6.446 20.0559 6.55597 19.7082L8.35914 14.0087L3.55028 10.4575C3.25694 10.2409 3.40815 9.77557 3.77279 9.77271L9.75056 9.72635L11.6419 4.05547C11.7573 3.70954 12.2465 3.70954 12.3619 4.05547Z" fill="#F5F5F5"/>
</g>
<defs>
<clipPath id="clip0_8615_27513">
<path d="M0 2C0 0.895432 0.895431 0 2 0H21.9998C23.1043 0 23.9998 0.895431 23.9998 2V21.9998C23.9998 23.1043 23.1043 23.9998 21.9998 23.9998H2C0.895432 23.9998 0 23.1043 0 21.9998V2Z" fill="white"/>
</clipPath>
</defs>
</svg>
