<svg width="24" height="24" viewBox="0 0 24 24" fill="none" xmlns="http://www.w3.org/2000/svg">
<g clip-path="url(#clip0_8615_27671)">
<path d="M0.00195312 18.3156V0H18.2087L0.00195312 18.3156Z" fill="#41479B"/>
<path d="M24.0016 5.6842V23.9998H5.79492L24.0016 5.6842Z" fill="#73AF00"/>
<path d="M24.0017 6.04025V0H17.9615L0.00195312 17.9595V23.9998H6.04221L24.0017 6.04025Z" fill="#F5F5F5"/>
<path d="M24.0017 3.77556V0H20.2262L0.00195312 20.2242V23.9998H3.77746L24.0017 3.77556Z" fill="#FF4B55"/>
<path d="M4.70135 3.58172C5.16489 3.58172 5.58451 3.7695 5.8884 4.07315L6.05504 2.91643L5.13578 3.63979L4.70135 2.55371L4.26691 3.63979L3.34766 2.91647L3.5143 4.0732C3.81818 3.7695 4.23785 3.58172 4.70135 3.58172Z" fill="#FFE15A"/>
<path d="M3.51358 6.44821C3.20993 6.14432 3.02215 5.7247 3.02215 5.26116C3.02215 4.79762 3.20993 4.378 3.51358 4.07411L2.35686 3.90747L3.08022 4.82673L1.99414 5.26116L3.08022 5.69559L2.35686 6.61485L3.51358 6.44821Z" fill="#FFE15A"/>
<path d="M7.40904 5.26116L6.32296 4.82673L7.04632 3.90747L5.88965 4.07411C6.1933 4.378 6.38108 4.79762 6.38108 5.26116C6.38108 5.72466 6.1933 6.14432 5.88965 6.44821L7.04632 6.61485L6.32296 5.69559L7.40904 5.26116Z" fill="#FFE15A"/>
<path d="M4.70135 6.94065C4.2378 6.94065 3.81818 6.75287 3.5143 6.44922L3.34766 7.60589L4.26691 6.88253L4.70135 7.96861L5.13578 6.88253L6.05504 7.60589L5.8884 6.44922C5.58456 6.75283 5.16489 6.94065 4.70135 6.94065Z" fill="#FFE15A"/>
<path d="M4.70116 6.63218C5.45839 6.63218 6.07224 6.01832 6.07224 5.2611C6.07224 4.50387 5.45839 3.89001 4.70116 3.89001C3.94393 3.89001 3.33008 4.50387 3.33008 5.2611C3.33008 6.01832 3.94393 6.63218 4.70116 6.63218Z" fill="#FFE15A"/>
</g>
<defs>
<clipPath id="clip0_8615_27671">
<path d="M0 2C0 0.895432 0.895431 0 2 0H21.9998C23.1043 0 23.9998 0.895431 23.9998 2V21.9998C23.9998 23.1043 23.1043 23.9998 21.9998 23.9998H2C0.895432 23.9998 0 23.1043 0 21.9998V2Z" fill="white"/>
</clipPath>
</defs>
</svg>
