<svg width="24" height="24" viewBox="0 0 24 24" fill="none" xmlns="http://www.w3.org/2000/svg">
<g clip-path="url(#clip0_8615_27701)">
<path d="M24.0017 0H0.00195312V23.9998H24.0017V0Z" fill="#41479B"/>
<path d="M18.5901 11.8544L16.8804 11.4745C16.6349 9.18418 14.8164 7.36648 12.526 7.12077L12.1459 5.41027C12.1156 5.27405 11.8851 5.27405 11.8548 5.41027L11.4756 7.11674C9.18434 7.3618 7.36608 9.18343 7.12041 11.4745L5.41066 11.8544C5.34255 11.8695 5.29395 11.9301 5.29395 11.9999C5.29395 12.0698 5.34255 12.1303 5.41066 12.1455L7.12046 12.5254C7.36608 14.8161 9.18439 16.6357 11.4752 16.8811L11.8548 18.5897C11.87 18.6578 11.9305 18.7064 12.0004 18.7064C12.0702 18.7064 12.1308 18.6578 12.1459 18.5897L12.5262 16.8785C14.8163 16.6327 16.6348 14.8156 16.8804 12.5254L18.5901 12.1455C18.6582 12.1303 18.7068 12.0698 18.7068 11.9999C18.7068 11.9301 18.6582 11.8695 18.5901 11.8544ZM16.5787 11.4074L13.3176 10.6827L12.5933 7.42339C14.6666 7.6909 16.3116 9.334 16.5787 11.4074ZM11.4076 7.42287L10.6832 10.6828L7.42313 11.4072C7.69045 9.334 9.33434 7.69025 11.4076 7.42287ZM10.7607 10.971L11.7896 11.9999H6.12991L10.7607 10.971ZM7.42313 12.5927L10.6832 13.3171L11.4077 16.5778C9.33434 16.3107 7.69045 14.666 7.42313 12.5927ZM12.0004 17.8704L10.9714 13.2397L12.0004 12.2107V17.8704ZM12.0004 11.7892V6.12946L13.0293 10.7602L12.0004 11.7892ZM12.5939 16.574L13.3176 13.3171L16.5787 12.5924C16.3115 14.6654 14.6667 16.3062 12.5939 16.574ZM13.2401 13.0289L12.2111 11.9999H17.8709L13.2401 13.0289Z" fill="#F5F5F5"/>
<path d="M4.3461 12.149H1.34078C1.31111 12.149 1.28711 12.0823 1.28711 12C1.28711 11.9176 1.31111 11.851 1.34078 11.851H4.3461C4.37577 11.851 4.39977 11.9176 4.39977 12C4.39977 12.0823 4.37577 12.149 4.3461 12.149Z" fill="#F5F5F5"/>
<path d="M22.5031 12.149H19.6525C19.6243 12.149 19.6016 12.0823 19.6016 12C19.6016 11.9176 19.6243 11.851 19.6525 11.851H22.5031C22.5313 11.851 22.554 11.9176 22.554 12C22.554 12.0823 22.5313 12.149 22.5031 12.149Z" fill="#F5F5F5"/>
<path d="M12.0006 4.39933C11.9182 4.39933 11.8516 4.33268 11.8516 4.25032V1.86581C11.8516 1.78345 11.9182 1.7168 12.0006 1.7168C12.0829 1.7168 12.1496 1.78345 12.1496 1.86581V4.25032C12.1496 4.33268 12.0829 4.39933 12.0006 4.39933Z" fill="#F5F5F5"/>
<path d="M12.0006 22.2831C11.9182 22.2831 11.8516 22.2165 11.8516 22.1341V19.7496C11.8516 19.6672 11.9182 19.6006 12.0006 19.6006C12.0829 19.6006 12.1496 19.6672 12.1496 19.7496V22.1341C12.1496 22.2165 12.0829 22.2831 12.0006 22.2831Z" fill="#F5F5F5"/>
</g>
<defs>
<clipPath id="clip0_8615_27701">
<path d="M0 2C0 0.895432 0.895431 0 2 0H21.9998C23.1043 0 23.9998 0.895431 23.9998 2V21.9998C23.9998 23.1043 23.1043 23.9998 21.9998 23.9998H2C0.895432 23.9998 0 23.1043 0 21.9998V2Z" fill="white"/>
</clipPath>
</defs>
</svg>
