<svg width="24" height="24" viewBox="0 0 24 24" fill="none" xmlns="http://www.w3.org/2000/svg">
<g clip-path="url(#clip0_8615_27511)">
<path d="M24.0007 0H0.000976562V23.9998H24.0007V0Z" fill="#41479B"/>
<path d="M24.0007 10.7367H0.000976562V13.263H24.0007V10.7367Z" fill="#FFE15A"/>
<path d="M6.06568 15.703L6.43351 17.1725L7.48673 16.0838L7.07053 17.5403L8.52702 17.1241L7.43831 18.1773L8.90778 18.5451L7.43831 18.9129L8.52702 19.9661L7.07053 19.5499L7.48673 21.0064L6.43351 19.9177L6.06568 21.3872L5.69791 19.9177L4.64468 21.0064L5.06088 19.5499L3.60439 19.9661L4.6931 18.9129L3.22363 18.5451L4.6931 18.1773L3.60439 17.1241L5.06088 17.5403L4.64468 16.0838L5.69791 17.1725L6.06568 15.703Z" fill="#F5F5F5"/>
</g>
<defs>
<clipPath id="clip0_8615_27511">
<path d="M0 2C0 0.895432 0.895431 0 2 0H21.9998C23.1043 0 23.9998 0.895431 23.9998 2V21.9998C23.9998 23.1043 23.1043 23.9998 21.9998 23.9998H2C0.895432 23.9998 0 23.1043 0 21.9998V2Z" fill="white"/>
</clipPath>
</defs>
</svg>
