<svg width="24" height="24" viewBox="0 0 24 24" fill="none" xmlns="http://www.w3.org/2000/svg">
<g clip-path="url(#clip0_8615_27514)">
<path d="M24.0007 0H0.000976562V23.9998H24.0007V0Z" fill="#F5F5F5"/>
<path d="M0.822031 1.61694L13.9068 11.1788H5.66337H3.82453L5.05204 12.548L14.583 23.1787H0.822031V1.61694ZM0.000976562 0V23.9998H16.4219L5.66337 11.9999H16.4219L0.000976562 0Z" fill="#41479B"/>
<path d="M0.822266 1.61694L13.907 11.1788H5.66361H3.82477L5.05227 12.5479L14.5833 23.1787H0.822266V1.61694Z" fill="#FF4B55"/>
<path d="M4.81828 14.8904L5.32387 15.9337L6.28339 15.283C6.32572 15.2542 6.38253 15.287 6.37883 15.3381L6.29502 16.4944L7.45136 16.4106C7.50241 16.4069 7.53518 16.4637 7.50649 16.5061L6.85573 17.4656L7.89906 17.9712C7.94509 17.9935 7.94509 18.0591 7.89906 18.0814L6.85573 18.587L7.50649 19.5465C7.53522 19.5888 7.50241 19.6456 7.45136 19.6419L6.29502 19.5581L6.37883 20.7145C6.38253 20.7655 6.32572 20.7983 6.28339 20.7696L5.32387 20.1188L4.81828 21.1622C4.79597 21.2082 4.73039 21.2082 4.70808 21.1622L4.20249 20.1188L3.24297 20.7696C3.20064 20.7983 3.14383 20.7655 3.14753 20.7145L3.23134 19.5581L2.075 19.6419C2.02395 19.6456 1.99118 19.5888 2.01987 19.5465L2.67063 18.587L1.6273 18.0814C1.58127 18.0591 1.58127 17.9935 1.6273 17.9712L2.67063 17.4656L2.01987 16.5061C1.99114 16.4637 2.02395 16.4069 2.075 16.4106L3.23134 16.4944L3.14753 15.3381C3.14383 15.287 3.20064 15.2543 3.24297 15.283L4.20249 15.9337L4.70808 14.8904C4.73034 14.8443 4.79597 14.8443 4.81828 14.8904Z" fill="#F5F5F5"/>
<path d="M6.13117 8.85647L5.69219 8.55662L6.07862 8.15162L5.52794 8.05117L5.71628 7.52411L5.17235 7.6563L5.12998 7.09821L4.68687 7.44016L4.42114 6.94751L4.15541 7.44016L3.7123 7.09821L3.66993 7.6563L3.126 7.52411L3.31434 8.05117L2.76366 8.15162L3.15009 8.55662L2.71111 8.85647C2.15729 8.59787 1.67036 8.22011 1.28711 7.75277C1.54454 9.25242 2.84784 10.3949 4.42105 10.3949C5.99425 10.3949 7.2976 9.25247 7.55499 7.75277C7.17193 8.22011 6.68499 8.59792 6.13117 8.85647Z" fill="#F5F5F5"/>
</g>
<defs>
<clipPath id="clip0_8615_27514">
<path d="M0 2C0 0.895432 0.895431 0 2 0H21.9998C23.1043 0 23.9998 0.895431 23.9998 2V21.9998C23.9998 23.1043 23.1043 23.9998 21.9998 23.9998H2C0.895432 23.9998 0 23.1043 0 21.9998V2Z" fill="white"/>
</clipPath>
</defs>
</svg>
