<?xml version="1.0" encoding="utf-8"?>
<!-- Generator: Adobe Illustrator 28.1.0, SVG Export Plug-In . SVG Version: 6.00 Build 0)  -->
<svg version="1.1" id="Layer_1" xmlns="http://www.w3.org/2000/svg" xmlns:xlink="http://www.w3.org/1999/xlink" x="0px" y="0px"
	 viewBox="0 0 512 512" style="enable-background:new 0 0 512 512;" xml:space="preserve">
<g>
	<defs>
		<path id="SVGID_1_" d="M512,400V112C512,50.1,461.9,0,400,0H112C50.2,0,0,50.1,0,112v288c0,61.8,50.2,112,112,112h288
			C461.9,512,512,461.9,512,400z"/>
	</defs>
	<clipPath id="SVGID_00000057126745086852806420000009092186900847227825_">
		<use xlink:href="#SVGID_1_"  style="overflow:visible;"/>
	</clipPath>
	<g style="clip-path:url(#SVGID_00000057126745086852806420000009092186900847227825_);">
		<g>
			<path id="path18" fill="#009543" d="M-141.2,522.1H923.7V-10.4H-141.2V522.1z"/>
			<path id="path20" fill="#ED4135" d="M-141.2,344.6H923.7v-355H-141.2V344.6z"/>
			<path id="path22" fill="#0035AD" d="M-141.2,167.1H923.7V-10.4H-141.2V167.1z"/>
		</g>
		<g id="g24">
			<g>
				<defs>
					<rect id="SVGID_00000014616299566305434460000008852047472624185765_" x="-962" y="-10.4" width="1885.6" height="532.7"/>
				</defs>
				<clipPath id="SVGID_00000062912815856658917250000013104958114567891331_">
					<use xlink:href="#SVGID_00000014616299566305434460000008852047472624185765_"  style="overflow:visible;"/>
				</clipPath>
				<g id="g26" style="clip-path:url(#SVGID_00000062912815856658917250000013104958114567891331_);">
					<g id="g32" transform="translate(544,204.0571)">
						<path id="path34" fill="#FAE600" d="M-330.3-122.7c96.4,0,174.5,78.1,174.5,174.5c0,96.4-78.1,174.5-174.5,174.5
							c-96.4,0-174.5-78.1-174.5-174.5C-504.8-44.6-426.6-122.7-330.3-122.7"/>
					</g>
					<g id="g36" transform="translate(544,204.0571)">
						<path id="path38" fill="none" stroke="#000000" stroke-width="6.25" stroke-miterlimit="5" d="M-330.3-122.7c96.4,0,174.5,78.1,174.5,174.5c0,96.4-78.1,174.5-174.5,174.5
							c-96.4,0-174.5-78.1-174.5-174.5C-504.8-44.6-426.6-122.7-330.3-122.7z"/>
					</g>
					<g id="g40" transform="translate(544,203.7954)">
						<path id="path42" stroke="#000000" stroke-width="7.5" stroke-miterlimit="5" d="M-330.3-121.9v298.2 M-359.9,34.3h59.2 M-359.9,78.1h59.2"/>
					</g>
					<g id="g44" transform="translate(511.4902,49.1699)">
						<path id="path46" d="M-368,366.9c71.2,29.1,138,1.8,138,1.8s-25.2-27.3-38.1-37.9c-12.6-10.4-49.7-10-62.3,0
							C-341.1,339.1-371.3,369.8-368,366.9"/>
					</g>
					<g id="g48" transform="translate(544,99.2217)">
						<path id="path50" d="M-330.3,208.7c10.8,0,19.5,12.7,19.5,28.4c0,15.7-8.7,28.4-19.5,28.4s-19.5-12.7-19.5-28.4
							C-349.8,221.4-341.1,208.7-330.3,208.7"/>
					</g>
					<g id="g52" transform="translate(544,128.3281)">
						<path id="path54" d="M-330.3,116.7c13.1,0,23.7,6.7,23.7,15c0,8.3-10.6,15-23.7,15c-13.1,0-23.7-6.7-23.7-15
							C-353.9,123.4-343.3,116.7-330.3,116.7"/>
					</g>
					<g id="g56" transform="translate(544,164.3755)">
						<path id="path58" d="M-330.3,2.7c13.1,0,23.7,10.6,23.7,23.7c0,13.1-10.6,23.7-23.7,23.7c-13.1,0-23.7-10.6-23.7-23.7
							C-353.9,13.3-343.3,2.7-330.3,2.7"/>
					</g>
					<g id="g60" transform="translate(557.1406,194.2139)">
						<path id="path62" d="M-315-91.6c0,0,2.1,3.4-2.3,11.2c-20.6,37.1-41.3,37.9-45.2,41.1c-4.3,3.5-6.2,3.3-6.2,3.3
							c0.3-3.2,0.6-16.2,0.8-17.4c3.1-17.4,29.3-17.1,49.9-34.9C-314.8-91.1-315-91.6-315-91.6L-315-91.6z"/>
					</g>
					<g id="g64" transform="translate(525.1113,157.2573)">
						<path id="path66" d="M-352.2,25.2c0,0,4.6,13.3,5.3,26.6c1.1,21.3,21.5,21.9,35.5,21.9V61.9c-10.5,0-19.6-1.6-27.2-17.2
							C-342.4,37.1-352.2,25.2-352.2,25.2"/>
					</g>
					<g id="g68" transform="translate(524.8379,77.8691)">
						<path id="path70" d="M-352.5,276.2c0,0,7.4-9.2,16.2-30.7c4.5-11.2,15.3-17.8,25.2-17.8v-16.6c-22.5,0-33.3,8.3-34.4,20.5
							C-347.9,256.7-352.5,276.2-352.5,276.2"/>
					</g>
					<g id="g72" transform="translate(562.8887,157.2573)">
						<path id="path74" d="M-308.3,25.2c0,0-4.6,13.3-5.3,26.6c-1.1,21.3-21.5,21.9-35.5,21.9V61.9c10.5,0,19.6-1.6,27.2-17.2
							C-318.2,37.1-308.3,25.2-308.3,25.2"/>
					</g>
					<g id="g76" transform="translate(563.1621,77.8691)">
						<path id="path78" d="M-308,276.2c0,0-7.4-9.2-16.2-30.7c-4.5-11.2-15.3-17.8-25.2-17.8v-16.6c22.5,0,33.3,8.3,34.4,20.5
							C-312.6,256.7-308,276.2-308,276.2"/>
					</g>
				</g>
			</g>
		</g>
	</g>
</g>
</svg>
