<svg width="24" height="24" viewBox="0 0 24 24" fill="none" xmlns="http://www.w3.org/2000/svg">
<g clip-path="url(#clip0_8615_27506)">
<path d="M23.9998 0H0V8.00008H23.9998V0Z" fill="#41479B"/>
<path d="M23.9998 15.9998H0V23.9998H23.9998V15.9998Z" fill="#41479B"/>
<path d="M23.9998 8.00012H0V16.0002H23.9998V8.00012Z" fill="#F5F5F5"/>
<path d="M11.9998 9.68738L10.0732 12.5205H13.9263L11.9998 9.68738Z" fill="#AFEBFF"/>
<path d="M10.0737 12.5205L8.82715 14.3338H15.1734L13.9268 12.5205H10.0737Z" fill="#557DE6"/>
<path d="M12.4307 12.481C12.4404 12.4654 12.45 12.45 12.4591 12.4341C12.4501 12.45 12.4404 12.4655 12.4307 12.481Z" fill="#73AF00"/>
<path d="M12.5762 12.8286C12.6032 12.8542 12.6299 12.8786 12.6568 12.9018C12.8006 12.7773 12.9507 12.6191 13.056 12.4341C13.0485 12.4473 13.0403 12.4602 13.0323 12.4732C12.934 12.2923 12.882 12.1358 12.8569 12.0431C12.8425 11.9901 12.7877 11.9532 12.7251 11.9531C12.7491 12.1645 12.8008 12.5529 12.5762 12.8286Z" fill="#73AF00"/>
<path d="M13.2326 11.983C13.2086 12.0017 13.1922 12.0278 13.1885 12.0577C13.1923 12.0278 13.2086 12.0017 13.2326 11.983Z" fill="#73AF00"/>
<path d="M13.0938 12.362C13.1014 12.3461 13.1095 12.3306 13.1164 12.3145C13.1095 12.3306 13.1014 12.3462 13.0938 12.362Z" fill="#73AF00"/>
<path d="M14.3165 12.9737C14.0981 12.9737 13.8913 12.8689 13.7652 12.6906C13.5751 12.422 13.4889 12.1716 13.454 12.0431C13.4396 11.99 13.3847 11.9531 13.322 11.9531L13.3222 11.9532C13.3509 12.2054 13.4194 12.7098 13.0095 12.9737H12.7427C12.7317 12.965 12.721 12.9568 12.7099 12.9476C12.7101 12.9478 12.7103 12.948 12.7106 12.9482C12.636 13.0457 12.4866 13.0731 12.3707 13.0134C11.8857 12.7635 11.9611 12.2186 11.9912 11.9532C11.9287 11.9533 11.8739 11.9902 11.8595 12.0432C11.8343 12.1359 11.7824 12.2924 11.684 12.4733C11.676 12.4603 11.6679 12.4474 11.6603 12.4342C11.7788 12.6424 11.9546 12.8181 12.1134 12.9482C12.0387 13.0457 11.8893 13.0731 11.7735 13.0134C11.2885 12.7635 11.3638 12.2186 11.394 11.9532C11.3314 11.9533 11.2766 11.9902 11.2622 12.0432C11.2371 12.1359 11.1851 12.2924 11.0868 12.4733C11.0788 12.4603 11.0706 12.4474 11.0631 12.4342C11.1816 12.6424 11.3574 12.8181 11.5162 12.9482C11.4415 13.0457 11.2921 13.0731 11.1762 13.0134C10.6912 12.7635 10.7666 12.2186 10.7968 11.9532L10.797 11.9532C10.7343 11.9532 10.6794 11.9901 10.665 12.0431C10.6301 12.1716 10.5439 12.422 10.3539 12.6906C10.2277 12.8689 10.021 12.9737 9.80253 12.9737H9.62305V13.2004H14.2694H14.3828V12.9737H14.3165V12.9737Z" fill="#73AF00"/>
<path d="M12.1982 12.3145C12.2052 12.3306 12.2132 12.3461 12.2209 12.362C12.2132 12.3462 12.2051 12.3306 12.1982 12.3145Z" fill="#73AF00"/>
<path d="M12.2578 12.4341C12.2669 12.45 12.2765 12.4654 12.2862 12.481C12.2766 12.4655 12.2669 12.45 12.2578 12.4341Z" fill="#73AF00"/>
<path d="M12.3621 12.5912C12.361 12.5897 12.3599 12.5881 12.3588 12.5865C12.3685 12.5736 12.3778 12.5605 12.3872 12.5472C12.3779 12.5605 12.3683 12.5734 12.3586 12.5863C12.349 12.5734 12.3394 12.5604 12.3301 12.5472C12.3405 12.5621 12.3512 12.5767 12.3621 12.5912Z" fill="#73AF00"/>
<path d="M12.4121 12.6539C12.4232 12.6672 12.4341 12.6803 12.4454 12.6932C12.4341 12.6804 12.4231 12.6671 12.4121 12.6539Z" fill="#73AF00"/>
<path d="M12.5333 12.7869C12.5228 12.7763 12.5124 12.7652 12.502 12.7543C12.5125 12.7652 12.5227 12.7763 12.5333 12.7869Z" fill="#73AF00"/>
<path d="M13.32 11.9533L13.3197 11.9532C13.2853 11.9532 13.2536 11.9645 13.2295 11.9832C13.2055 12.0019 13.1891 12.028 13.1854 12.0578L13.1854 12.058C13.1798 12.1026 13.1703 12.1463 13.1583 12.1891C13.1543 12.2035 13.1485 12.2174 13.1438 12.2316C13.1345 12.2596 13.1251 12.2876 13.1135 12.3147C13.1065 12.3309 13.0985 12.3464 13.0908 12.3622C13.079 12.3866 13.067 12.4108 13.0537 12.4343C12.9483 12.6193 12.7983 12.7775 12.6544 12.902C12.6276 12.8788 12.6009 12.8544 12.5738 12.8288C12.7985 12.5531 12.7467 12.1647 12.7227 11.9534L12.7225 11.9533C12.7053 11.9533 12.6887 11.9562 12.6735 11.9613C12.6582 11.9665 12.6443 11.9739 12.6323 11.9832C12.6082 12.0019 12.5919 12.0281 12.5882 12.0579L12.5881 12.0581C12.5825 12.1027 12.573 12.1464 12.561 12.1892C12.557 12.2036 12.5512 12.2175 12.5465 12.2317C12.5373 12.2597 12.5278 12.2876 12.5162 12.3148C12.5093 12.331 12.5012 12.3465 12.4935 12.3623C12.4818 12.3866 12.4698 12.4109 12.4564 12.4344C12.4474 12.4503 12.4377 12.4657 12.4279 12.4812C12.4139 12.5037 12.3995 12.526 12.3843 12.5476C12.375 12.5608 12.3656 12.5739 12.3559 12.5868C12.3461 12.5739 12.3366 12.5609 12.3272 12.5476C12.312 12.526 12.2976 12.5037 12.2836 12.4812C12.2739 12.4657 12.2642 12.4503 12.2552 12.4344C12.2418 12.4109 12.2298 12.3866 12.218 12.3623C12.2104 12.3465 12.2023 12.331 12.1954 12.3148C12.1837 12.2877 12.1743 12.2597 12.165 12.2317C12.1603 12.2175 12.1546 12.2036 12.1505 12.1892C12.1385 12.1464 12.1291 12.1027 12.1234 12.0581L12.1234 12.0579C12.1197 12.0281 12.1033 12.0019 12.0793 11.9832C12.0552 11.9646 12.0236 11.9533 11.9891 11.9533L11.9889 11.9534C11.9587 12.2187 11.8834 12.7637 12.3683 13.0135C12.4501 13.0557 12.5482 13.0541 12.6252 13.0153C12.6744 12.9905 12.7271 12.9739 12.7821 12.9739H13.0072C13.4171 12.7099 13.3487 12.2056 13.32 11.9533Z" fill="#FFE15A"/>
<path d="M11.5986 12.3145C11.6056 12.3306 11.6136 12.3461 11.6213 12.362C11.6136 12.3462 11.6055 12.3306 11.5986 12.3145Z" fill="#73AF00"/>
<path d="M11.7707 13.0134C11.8865 13.0731 12.0359 13.0457 12.1106 12.9482C11.9518 12.8181 11.776 12.6424 11.6575 12.4342C11.6441 12.4107 11.6322 12.3864 11.6204 12.3621C11.6127 12.3463 11.6046 12.3307 11.5977 12.3146C11.5861 12.2875 11.5767 12.2595 11.5674 12.2315C11.5627 12.2173 11.5569 12.2034 11.5529 12.189C11.5409 12.1462 11.5314 12.1025 11.5258 12.0578L11.5258 12.0577C11.5221 12.0278 11.5057 12.0017 11.4816 11.983C11.4696 11.9737 11.4557 11.9662 11.4404 11.9611C11.4252 11.956 11.4087 11.9531 11.3915 11.9531L11.3912 11.9532C11.361 12.2186 11.2857 12.7635 11.7707 13.0134Z" fill="#FFE15A"/>
<path d="M11.173 13.0134C11.2889 13.0731 11.4383 13.0457 11.513 12.9482C11.3541 12.8181 11.1784 12.6424 11.0599 12.4342C11.0465 12.4107 11.0345 12.3864 11.0227 12.3621C11.0151 12.3463 11.007 12.3307 11.0001 12.3146C10.9884 12.2875 10.979 12.2595 10.9697 12.2315C10.965 12.2173 10.9593 12.2034 10.9552 12.189C10.9432 12.1462 10.9338 12.1025 10.9281 12.0578L10.9281 12.0577C10.9244 12.0278 10.908 12.0017 10.884 11.983C10.8599 11.9644 10.8283 11.9531 10.7938 11.9531L10.7936 11.9532C10.7634 12.2186 10.688 12.7635 11.173 13.0134Z" fill="#FFE15A"/>
<path d="M11.0458 11.0522C11.0364 11.0883 11.027 11.1244 11.0176 11.1606C11.327 11.0679 11.6683 11.0121 12.0388 11.0121C12.4093 11.0123 12.7507 11.0677 13.0601 11.1606C13.0507 11.1244 13.0412 11.0883 13.0318 11.0522C12.7241 10.9728 12.3929 10.9271 12.0388 10.9272C11.6848 10.9272 11.3536 10.9727 11.0458 11.0522Z" fill="#41479B"/>
<path d="M11.0576 11.005C11.0481 11.0412 11.0387 11.0773 11.0293 11.1135C11.3352 11.0205 11.6725 10.9647 12.0383 10.9645C12.4041 10.9647 12.7413 11.0204 13.0472 11.1135C13.0378 11.0773 13.0284 11.0412 13.019 11.005C12.7147 10.9251 12.3877 10.8798 12.0383 10.8796C11.6888 10.8797 11.3619 10.9252 11.0576 11.005Z" fill="#5AA0E6"/>
<path d="M11.0693 10.9614C11.0599 10.9975 11.0504 11.0337 11.041 11.0698C11.344 10.9765 11.6772 10.9203 12.0386 10.9204C12.4001 10.9204 12.7333 10.9765 13.0362 11.0698C13.0268 11.0337 13.0173 10.9975 13.0079 10.9614C12.7069 10.8815 12.3839 10.8356 12.0386 10.8356C11.6934 10.8355 11.3704 10.8815 11.0693 10.9614Z" fill="#9BC800"/>
<path d="M11.082 10.9116C11.0726 10.9478 11.0631 10.9839 11.0537 11.0201C11.3531 10.9265 11.6819 10.8702 12.0383 10.8702C12.3948 10.8703 12.7236 10.9264 13.0229 11.0201C13.0135 10.9839 13.0041 10.9478 12.9946 10.9116C12.6972 10.8313 12.3788 10.7854 12.0383 10.7853C11.6979 10.7854 11.3794 10.8313 11.082 10.9116Z" fill="#FFE14E"/>
<path d="M11.0947 10.8627C11.0852 10.8988 11.0758 10.935 11.0664 10.9711C11.3623 10.8772 11.6866 10.8208 12.0383 10.8207C12.3899 10.821 12.7142 10.8771 13.0101 10.9711C13.0007 10.935 12.9913 10.8988 12.9818 10.8627C12.688 10.7822 12.374 10.7359 12.0383 10.7358C11.7027 10.736 11.3885 10.7821 11.0947 10.8627Z" fill="#FFB14E"/>
<path d="M11.1008 10.8419C11.0942 10.8672 11.0877 10.8925 11.0811 10.9178C11.3731 10.8238 11.6927 10.7668 12.039 10.7669C12.3854 10.7667 12.7049 10.8236 12.997 10.9178C12.9903 10.8925 12.9838 10.8672 12.9772 10.8419C12.685 10.7613 12.3726 10.7149 12.039 10.7148C11.7054 10.7146 11.3931 10.7611 11.1008 10.8419Z" fill="#FF4B55"/>
<path d="M15.1735 14.4438H8.82717C8.78536 14.4438 8.74692 14.4208 8.72724 14.384C8.70755 14.347 8.70975 14.3024 8.73286 14.2676L11.906 9.50784C11.9481 9.44498 12.0526 9.44498 12.0946 9.50784L15.2678 14.2676C15.2909 14.3023 15.2931 14.347 15.2734 14.384C15.2537 14.4208 15.2153 14.4438 15.1735 14.4438ZM9.03891 14.2171H14.9618L12.0003 9.77502L9.03891 14.2171Z" fill="#FFE15A"/>
<path d="M12.2167 11.4943C12.2167 11.3947 12.1157 11.243 11.9539 11.243C11.8594 11.243 11.7828 11.3008 11.7828 11.3721C11.7828 11.4077 11.8019 11.4399 11.8327 11.4632C11.8326 11.4645 11.8325 11.4658 11.8324 11.4671C11.7937 11.4908 11.7686 11.5264 11.7686 11.5669C11.7686 11.6349 11.8386 11.6899 11.9271 11.6949L11.9999 11.8406L12.0657 11.7091C12.1521 11.687 12.2167 11.5994 12.2167 11.4943Z" fill="#FF4B55"/>
</g>
<defs>
<clipPath id="clip0_8615_27506">
<path d="M0 2C0 0.895432 0.895431 0 2 0H21.9998C23.1043 0 23.9998 0.895431 23.9998 2V21.9998C23.9998 23.1043 23.1043 23.9998 21.9998 23.9998H2C0.895432 23.9998 0 23.1043 0 21.9998V2Z" fill="white"/>
</clipPath>
</defs>
</svg>
