<svg width="24" height="24" viewBox="0 0 24 24" fill="none" xmlns="http://www.w3.org/2000/svg">
<g clip-path="url(#clip0_8615_27698)">
<path d="M23.9998 15.9998H0V23.9998H23.9998V15.9998Z" fill="#73AF00"/>
<path d="M23.9998 0H0V8.00008H23.9998V0Z" fill="#FF9B55"/>
<path d="M23.9998 8.00012H0V16.0002H23.9998V8.00012Z" fill="#F5F5F5"/>
<path d="M11.9997 15.1579C13.7438 15.1579 15.1577 13.7441 15.1577 12C15.1577 10.2559 13.7438 8.84204 11.9997 8.84204C10.2557 8.84204 8.8418 10.2559 8.8418 12C8.8418 13.7441 10.2557 15.1579 11.9997 15.1579Z" fill="#FF9B55"/>
</g>
<defs>
<clipPath id="clip0_8615_27698">
<path d="M0 2C0 0.895432 0.895431 0 2 0H21.9998C23.1043 0 23.9998 0.895431 23.9998 2V21.9998C23.9998 23.1043 23.1043 23.9998 21.9998 23.9998H2C0.895432 23.9998 0 23.1043 0 21.9998V2Z" fill="white"/>
</clipPath>
</defs>
</svg>
