<svg width="24" height="24" viewBox="0 0 24 24" fill="none" xmlns="http://www.w3.org/2000/svg">
<g clip-path="url(#clip0_8615_27569)">
<path d="M23.9998 0H0V23.9998H23.9998V0Z" fill="#FFE15A"/>
<path d="M4.42102 0H0V0.936413L4.42102 3.83293V0Z" fill="#41479B"/>
<path d="M0 3.20154V4.42107H1.86139L0 3.20154Z" fill="#41479B"/>
<path d="M0 7.57898V8.79851L1.86139 7.57898H0Z" fill="#41479B"/>
<path d="M11.9991 0.936413V0H7.57812V3.83293L11.9991 0.936413Z" fill="#41479B"/>
<path d="M11.9991 8.79851V7.57898H10.1377L11.9991 8.79851Z" fill="#41479B"/>
<path d="M7.57812 8.16699V11.9999H11.9991V11.0635L7.57812 8.16699Z" fill="#41479B"/>
<path d="M11.9991 4.42107V3.20154L10.1377 4.42107H11.9991Z" fill="#41479B"/>
<path d="M0 11.0635V11.9999H4.42102V8.16699L0 11.0635Z" fill="#41479B"/>
<path d="M11.9998 11.0636V10.1278L8.07324 7.57898H9.23329L11.9998 9.37479V8.79851L10.1384 7.57898H11.9998V6.94739H6.94727V12H7.57881V8.16706L11.9998 11.0636Z" fill="#F5F5F5"/>
<path d="M0 6.94739V7.57898H1.86139L0 8.79851V9.68449L3.24358 7.57898H4.40363L0 10.4375V11.0636L4.42102 8.16706V12H5.05256V6.94739H0Z" fill="#F5F5F5"/>
<path d="M5.05256 0H4.42102V3.83293L0 0.936413V1.96118L3.78943 4.42102H2.62938L0 2.71422V3.20148L1.86139 4.42102H0V5.05261H5.05256V0Z" fill="#F5F5F5"/>
<path d="M11.9998 5.05261V4.42102H10.1384L11.9998 3.20148V2.30421L8.73886 4.42102H7.57881L11.9998 1.55122V0.936413L7.57881 3.83293V0H6.94727V5.05261H11.9998Z" fill="#F5F5F5"/>
<path d="M11.9999 6.94728V5.05261H6.94732V0H5.05256V5.05261H0V6.94728H5.05256V11.9999H6.94732V6.94728H11.9999Z" fill="#FF4B55"/>
<path d="M3.24358 7.57898L0 9.68449V10.4375L4.40363 7.57898H3.24358Z" fill="#FF4B55"/>
<path d="M8.07324 7.57898L11.9998 10.1278V9.37479L9.23329 7.57898H8.07324Z" fill="#FF4B55"/>
<path d="M3.78943 4.42114L0 1.9613V2.71434L2.62938 4.42114H3.78943Z" fill="#FF4B55"/>
<path d="M8.73818 4.42107L11.9991 2.30426V1.55127L7.57812 4.42107H8.73818Z" fill="#FF4B55"/>
<path d="M7.53018 4.81758C8.73434 6.72139 6.72052 8.73526 4.81671 7.53105C4.67636 7.44227 4.55693 7.32284 4.46819 7.18254C3.26403 5.27873 5.27786 3.26486 7.18167 4.46907C7.32196 4.5578 7.4414 4.67724 7.53018 4.81758Z" fill="#41479B"/>
<path d="M6.10327 4.43492L6.41982 5.38403L7.42031 5.39177C7.54982 5.39275 7.60354 5.55808 7.49934 5.63505L6.6945 6.22937L6.99628 7.18327C7.03537 7.30678 6.89475 7.40892 6.78938 7.33359L5.9754 6.75178L5.16142 7.33359C5.05605 7.40892 4.91543 7.30673 4.95452 7.18327L5.2563 6.22937L4.45146 5.63505C4.34726 5.55808 4.40098 5.3928 4.53049 5.39177L5.53098 5.38403L5.84753 4.43492C5.88845 4.31206 6.06226 4.31206 6.10327 4.43492Z" fill="#FFE15A"/>
<path d="M2.32379 5.19553L2.494 5.70581L3.03193 5.70998C3.10158 5.71054 3.13046 5.79942 3.07444 5.84076L2.6417 6.1603L2.80398 6.67316C2.82498 6.73958 2.74937 6.79447 2.69274 6.75397L2.25512 6.44117L1.8175 6.75397C1.76083 6.79447 1.68522 6.73953 1.70627 6.67316L1.86855 6.1603L1.4358 5.84076C1.37979 5.79937 1.40866 5.71049 1.47832 5.70998L2.01625 5.70581L2.18645 5.19553C2.20834 5.12948 2.30176 5.12948 2.32379 5.19553Z" fill="#FFE15A"/>
<path d="M9.81305 5.19553L9.98325 5.70581L10.5212 5.70998C10.5908 5.71054 10.6197 5.79942 10.5637 5.84076L10.131 6.1603L10.2932 6.67316C10.3142 6.73958 10.2386 6.79447 10.182 6.75397L9.74438 6.44117L9.30676 6.75397C9.25009 6.79447 9.17448 6.73953 9.19553 6.67316L9.35781 6.1603L8.92506 5.84076C8.86905 5.79937 8.89792 5.71049 8.96758 5.70998L9.50551 5.70581L9.67571 5.19553C9.6976 5.12948 9.79102 5.12948 9.81305 5.19553Z" fill="#FFE15A"/>
<path d="M6.05231 1.36203L6.22251 1.87231L6.76044 1.87648C6.8301 1.87705 6.85897 1.96592 6.80296 2.00726L6.37021 2.32681L6.53249 2.83966C6.55349 2.90608 6.47788 2.96097 6.42126 2.92047L5.98364 2.60768L5.54602 2.92047C5.48935 2.96097 5.41374 2.90604 5.43478 2.83966L5.59706 2.32681L5.16432 2.00726C5.1083 1.96587 5.13718 1.877 5.20683 1.87648L5.74477 1.87231L5.91497 1.36203C5.93686 1.29599 6.03028 1.29599 6.05231 1.36203Z" fill="#FFE15A"/>
<path d="M6.05231 9.11915L6.22251 9.62943L6.76044 9.6336C6.8301 9.63416 6.85897 9.72303 6.80296 9.76438L6.37021 10.0839L6.53249 10.5968C6.55349 10.6632 6.47788 10.7181 6.42126 10.6776L5.98364 10.3648L5.54602 10.6776C5.48935 10.7181 5.41374 10.6632 5.43478 10.5968L5.59706 10.0839L5.16432 9.76438C5.1083 9.72299 5.13718 9.63411 5.20683 9.6336L5.74477 9.62943L5.91497 9.11915C5.93686 9.05306 6.03028 9.05306 6.05231 9.11915Z" fill="#FFE15A"/>
</g>
<defs>
<clipPath id="clip0_8615_27569">
<path d="M0 2C0 0.895432 0.895431 0 2 0H21.9998C23.1043 0 23.9998 0.895431 23.9998 2V21.9998C23.9998 23.1043 23.1043 23.9998 21.9998 23.9998H2C0.895432 23.9998 0 23.1043 0 21.9998V2Z" fill="white"/>
</clipPath>
</defs>
</svg>
