<svg width="24" height="24" viewBox="0 0 24 24" fill="none" xmlns="http://www.w3.org/2000/svg">
<g clip-path="url(#clip0_8615_27567)">
<path d="M7.9991 0H-0.000976562V23.9998H7.9991V0Z" fill="#73AF00"/>
<path d="M15.9991 0H7.99902V23.9998H15.9991V0Z" fill="#F5F5F5"/>
<path d="M23.9971 0H15.9971V23.9998H23.9971V0Z" fill="#73AF00"/>
<path d="M14.7613 16.0592L13.4772 8.56811C13.4281 8.28208 13.3264 8.00763 13.1771 7.75882L11.9976 5.79309L10.8182 7.75877C10.6689 8.00763 10.5671 8.28204 10.5181 8.56806L9.23389 16.0592C9.20938 16.2023 9.31958 16.333 9.46475 16.333H11.5292V18.2068H12.466V16.333H14.5304C14.6757 16.333 14.7859 16.2023 14.7613 16.0592Z" fill="#73AF00"/>
</g>
<defs>
<clipPath id="clip0_8615_27567">
<path d="M0 2C0 0.895432 0.895431 0 2 0H21.9998C23.1043 0 23.9998 0.895431 23.9998 2V21.9998C23.9998 23.1043 23.1043 23.9998 21.9998 23.9998H2C0.895432 23.9998 0 23.1043 0 21.9998V2Z" fill="white"/>
</clipPath>
</defs>
</svg>
