<svg width="24" height="24" viewBox="0 0 24 24" fill="none" xmlns="http://www.w3.org/2000/svg">
<g clip-path="url(#clip0_8615_27625)">
<path d="M23.9988 0H-0.000976562V23.9998H23.9988V0Z" fill="#4173CD"/>
<path d="M11.998 17.9999C8.68968 17.9999 5.99805 15.3083 5.99805 11.9999C5.99805 8.69163 8.68968 6 11.998 6C15.3063 6 17.9979 8.69163 17.9979 11.9999C17.9979 15.3083 15.3063 17.9999 11.998 17.9999ZM11.998 7.24138C9.37405 7.24138 7.23943 9.376 7.23943 11.9999C7.23943 14.6239 9.37405 16.7585 11.998 16.7585C14.6219 16.7585 16.7566 14.6239 16.7566 11.9999C16.7566 9.376 14.6219 7.24138 11.998 7.24138Z" fill="#F5F5F5"/>
<path d="M12.0002 17.5862C8.92002 17.5862 6.41406 15.0802 6.41406 12.0001C6.41406 8.9199 8.92002 6.41394 12.0002 6.41394C15.0804 6.41394 17.5863 8.9199 17.5863 12.0001C17.5863 15.0802 15.0804 17.5862 12.0002 17.5862ZM12.0002 6.8277C9.14811 6.8277 6.82782 9.14799 6.82782 12.0001C6.82782 14.8522 9.14811 17.1724 12.0002 17.1724C14.8523 17.1724 17.1726 14.8522 17.1726 12.0001C17.1726 9.14799 14.8523 6.8277 12.0002 6.8277Z" fill="#FFDC00"/>
<path d="M6.9982 11.8241C7.14885 12.1851 6.80587 12.5281 6.44484 12.3775C6.35428 12.3397 6.28121 12.2666 6.24342 12.176C6.09277 11.8151 6.43575 11.472 6.79678 11.6227C6.88734 11.6605 6.96042 11.7336 6.9982 11.8241Z" fill="#FFDC00"/>
<path d="M17.757 11.8241C17.9076 12.1851 17.5647 12.5281 17.2036 12.3775C17.1131 12.3397 17.04 12.2666 17.0022 12.176C16.8516 11.8151 17.1945 11.472 17.5556 11.6227C17.6461 11.6605 17.7192 11.7336 17.757 11.8241Z" fill="#FFDC00"/>
<path d="M12.1767 6.9982C11.8157 7.14885 11.4726 6.80587 11.6233 6.44484C11.6611 6.35428 11.7342 6.28121 11.8247 6.24342C12.1857 6.09277 12.5287 6.43575 12.3781 6.79678C12.3403 6.88734 12.2672 6.96042 12.1767 6.9982Z" fill="#FFDC00"/>
<path d="M8.5879 8.33882C8.43917 8.70064 7.95406 8.70064 7.80533 8.33882C7.76802 8.24807 7.76802 8.14471 7.80533 8.05396C7.95406 7.69214 8.43917 7.69214 8.5879 8.05396C8.62521 8.14471 8.62521 8.24807 8.5879 8.33882Z" fill="#FFDC00"/>
<path d="M15.662 8.58765C15.3002 8.43892 15.3002 7.95382 15.662 7.80508C15.7527 7.76777 15.8561 7.76777 15.9468 7.80508C16.3087 7.95382 16.3087 8.43892 15.9468 8.58765C15.8561 8.62497 15.7527 8.62497 15.662 8.58765Z" fill="#FFDC00"/>
<path d="M17.2519 9.63454C17.5293 9.9104 17.3436 10.3586 16.9524 10.3575C16.8543 10.3573 16.7588 10.3177 16.6892 10.2485C16.4119 9.97265 16.5975 9.52448 16.9887 9.52551C17.0869 9.5258 17.1823 9.56531 17.2519 9.63454Z" fill="#FFDC00"/>
<path d="M10.2494 7.31159C9.97351 7.58895 9.52534 7.40328 9.52637 7.01211C9.52665 6.91396 9.56617 6.81852 9.6354 6.74891C9.91126 6.47155 10.3594 6.65718 10.3584 7.04839C10.3581 7.14655 10.3185 7.24198 10.2494 7.31159Z" fill="#FFDC00"/>
<path d="M7.44628 9.92336C7.44731 10.3145 6.99915 10.5002 6.72329 10.2228C6.6541 10.1533 6.61454 10.0578 6.61426 9.95964C6.61323 9.56847 7.0614 9.3828 7.33725 9.66016C7.40644 9.72972 7.446 9.8252 7.44628 9.92336Z" fill="#FFDC00"/>
<path d="M14.0776 7.44628C13.6864 7.44731 13.5007 6.99915 13.7781 6.72329C13.8476 6.6541 13.9431 6.61454 14.0413 6.61426C14.4324 6.61323 14.6181 7.0614 14.3408 7.33725C14.2712 7.40644 14.1757 7.446 14.0776 7.44628Z" fill="#FFDC00"/>
<path d="M17.612 10.7044C17.8302 11.029 17.5606 11.4324 17.1772 11.3551C17.081 11.3357 16.9951 11.2782 16.9404 11.1968C16.7222 10.8722 16.9917 10.4688 17.3751 10.5461C17.4713 10.5656 17.5572 10.623 17.612 10.7044Z" fill="#FFDC00"/>
<path d="M11.1974 7.05997C10.8728 7.27817 10.4694 7.00865 10.5468 6.62521C10.5662 6.52903 10.6236 6.4431 10.705 6.38836C11.0297 6.17015 11.433 6.43968 11.3557 6.82312C11.3363 6.9193 11.2789 7.00522 11.1974 7.05997Z" fill="#FFDC00"/>
<path d="M7.93942 9.07482C7.86414 9.45867 7.38836 9.55331 7.17189 9.22749C7.11757 9.14574 7.09741 9.0444 7.1163 8.94812C7.19158 8.56426 7.66736 8.46962 7.88382 8.79545C7.93815 8.8772 7.95831 8.97854 7.93942 9.07482Z" fill="#FFDC00"/>
<path d="M14.9257 7.93893C14.5418 7.86365 14.4472 7.38787 14.773 7.17141C14.8547 7.11708 14.9561 7.09692 15.0524 7.11581C15.4362 7.19109 15.5309 7.66687 15.205 7.88334C15.1233 7.93766 15.0219 7.95782 14.9257 7.93893Z" fill="#FFDC00"/>
<path d="M16.6894 8.65551C17.0152 8.87198 16.9206 9.34775 16.5367 9.42303C16.4404 9.44192 16.3391 9.42177 16.2574 9.36744C15.9315 9.15097 16.0262 8.6752 16.41 8.59992C16.5063 8.58107 16.6077 8.60123 16.6894 8.65551Z" fill="#FFDC00"/>
<path d="M9.3682 7.74336C9.15173 8.06918 8.67596 7.97454 8.60067 7.59069C8.58178 7.49436 8.60194 7.39302 8.65627 7.31132C8.87273 6.98549 9.34851 7.08013 9.42379 7.46399C9.44264 7.56031 9.42248 7.66161 9.3682 7.74336Z" fill="#FFDC00"/>
<path d="M7.12911 10.8517C7.20645 11.2351 6.8031 11.5046 6.47844 11.2864C6.39697 11.2317 6.3396 11.1458 6.32019 11.0496C6.24285 10.6661 6.64621 10.3966 6.97086 10.6148C7.05233 10.6695 7.1097 10.7554 7.12911 10.8517Z" fill="#FFDC00"/>
<path d="M13.1486 7.12862C12.7651 7.20596 12.4956 6.80261 12.7138 6.47795C12.7686 6.39649 12.8545 6.33911 12.9507 6.31971C13.3341 6.24236 13.6036 6.64572 13.3854 6.97037C13.3307 7.05184 13.2448 7.10921 13.1486 7.12862Z" fill="#FFDC00"/>
<path d="M17.3776 12.2069C17.2632 12.2069 17.1707 12.1143 17.1707 12C17.1707 9.14787 14.8504 6.82758 11.9983 6.82758C9.14621 6.82758 6.82592 9.14787 6.82592 12C6.82592 12.1143 6.73339 12.2069 6.61901 12.2069C6.50464 12.2069 6.41211 12.1143 6.41211 12C6.41211 8.91978 8.91807 6.41382 11.9982 6.41382C15.0784 6.41382 17.5844 8.91978 17.5844 12C17.5844 12.1143 17.4919 12.2069 17.3776 12.2069Z" fill="#FFA000"/>
<path d="M13.1475 18.2068H10.8482C10.3568 18.2068 9.97372 17.7813 10.0251 17.2926L10.7565 10.3448H13.2392L13.9706 17.2926C14.022 17.7813 13.6389 18.2068 13.1475 18.2068Z" fill="#B4B4B4"/>
<path d="M13.2281 10.3448H10.7592C10.6504 10.3448 10.5591 10.2628 10.5473 10.1546L10.3931 8.73424C10.3665 8.48946 10.5582 8.27576 10.8045 8.27576H13.1925C13.4387 8.27576 13.6304 8.48946 13.6039 8.73424L13.4507 10.145C13.4383 10.2586 13.3424 10.3448 13.2281 10.3448Z" fill="#AAAAAA"/>
<path d="M12.0943 8.75782L12.8613 10.9646L15.1971 11.0122C15.2933 11.0141 15.333 11.1363 15.2563 11.1944L13.3946 12.6058L14.0712 14.842C14.099 14.9341 13.9951 15.0096 13.9161 14.9547L11.9985 13.6203L10.0808 14.9547C10.0018 15.0097 9.89786 14.9342 9.92571 14.8421L10.6022 12.6059L8.74053 11.1945C8.66389 11.1363 8.70359 11.0141 8.79973 11.0122L11.1355 10.9646L11.9026 8.75787C11.9342 8.66698 12.0627 8.66698 12.0943 8.75782Z" fill="#F5F5F5"/>
</g>
<defs>
<clipPath id="clip0_8615_27625">
<path d="M0 2C0 0.895432 0.895431 0 2 0H21.9998C23.1043 0 23.9998 0.895431 23.9998 2V21.9998C23.9998 23.1043 23.1043 23.9998 21.9998 23.9998H2C0.895432 23.9998 0 23.1043 0 21.9998V2Z" fill="white"/>
</clipPath>
</defs>
</svg>
