<svg width="24" height="24" viewBox="0 0 24 24" fill="none" xmlns="http://www.w3.org/2000/svg">
<g clip-path="url(#clip0_8615_27535)">
<path d="M23.9988 0H-0.000976562V23.9998H23.9988V0Z" fill="#F5F5F5"/>
<path d="M23.9978 2.57373H-0.00195312V5.08738H23.9978V2.57373Z" fill="#FF4B55"/>
<path d="M23.9978 18.9125H-0.00195312V21.4261H23.9978V18.9125Z" fill="#FF4B55"/>
<path d="M11.6458 10.7265L12.2283 11.4885L13.1379 11.184C13.1888 11.167 13.232 11.2245 13.2016 11.2686L12.6569 12.0581L13.2275 12.8291C13.2594 12.8722 13.2181 12.9311 13.1667 12.9158L12.2476 12.6417L11.6907 13.4226C11.6596 13.4663 11.5908 13.4452 11.5894 13.3916L11.5661 12.4327L10.6513 12.1444C10.6002 12.1283 10.599 12.0563 10.6496 12.0385L11.5543 11.72L11.5458 10.7609C11.5452 10.7073 11.6133 10.6839 11.6458 10.7265Z" fill="#FF4B55"/>
<path d="M8.64582 14.981C7.00076 14.981 5.66624 13.6465 5.66624 11.9999C5.66624 10.3564 7.00072 9.01894 8.64582 9.01894C9.25787 9.01894 9.82233 9.20719 10.2927 9.52579C10.3647 9.57459 10.4469 9.4799 10.3866 9.41723C9.68363 8.68636 8.68862 8.24045 7.58548 8.27809C5.6902 8.34278 4.12117 9.86235 4.00004 11.7549C3.86134 13.9226 5.57775 15.7241 7.7148 15.7241C8.76751 15.7241 9.71358 15.284 10.3892 14.5803C10.4489 14.5182 10.3664 14.4249 10.2952 14.4733C9.82434 14.7925 9.25899 14.981 8.64582 14.981Z" fill="#FF4B55"/>
</g>
<defs>
<clipPath id="clip0_8615_27535">
<path d="M0 2C0 0.895432 0.895431 0 2 0H21.9998C23.1043 0 23.9998 0.895431 23.9998 2V21.9998C23.9998 23.1043 23.1043 23.9998 21.9998 23.9998H2C0.895432 23.9998 0 23.1043 0 21.9998V2Z" fill="white"/>
</clipPath>
</defs>
</svg>
