<svg width="24" height="24" viewBox="0 0 24 24" fill="none" xmlns="http://www.w3.org/2000/svg">
<g clip-path="url(#clip0_8615_27700)">
<path d="M23.9978 0H-0.00195312V8.00008H23.9978V0Z" fill="#F5F5F5"/>
<path d="M23.9978 15.9998H-0.00195312V23.9998H23.9978V15.9998Z" fill="#73AF00"/>
<path d="M23.9959 8.00012H-0.00390625V16.0002H23.9959V8.00012Z" fill="#FF4B55"/>
<path d="M9.46944 0H-0.00390625V23.9998H9.46944V0Z" fill="#FF4B55"/>
<path d="M2.58122 5.23499C2.54587 5.23902 2.51175 5.24328 2.47852 5.24769V5.6975C2.51198 5.70603 2.54611 5.71446 2.58122 5.72271V5.23499Z" fill="#F5F5F5"/>
<path d="M4.13708 6.09225C4.04333 6.08475 3.89924 6.07032 3.72721 6.04932L2.64844 7.00879C2.78817 7.03017 2.95565 7.05843 3.02559 7.0807C3.30267 6.83821 3.67429 6.50775 4.13708 6.09225Z" fill="#F5F5F5"/>
<path d="M5.76071 4.56627V4.51902V4.47388H3.84668V4.51902V4.56627V4.61145H5.76071V4.56627Z" fill="#F5F5F5"/>
<path d="M4.34375 1.82894C4.34375 1.96371 4.54686 2.07757 4.78737 2.07757C5.02784 2.07757 5.23099 1.96371 5.23099 1.82894C5.23099 1.69418 5.02788 1.58032 4.78737 1.58032C4.54686 1.58032 4.34375 1.69418 4.34375 1.82894Z" fill="#F5F5F5"/>
<path d="M3.92868 5.17414C3.49659 5.17203 3.06543 5.18787 2.71289 5.2212V5.75219C3.12707 5.84107 3.60955 5.90918 3.92868 5.94307V5.17414Z" fill="#F5F5F5"/>
<path d="M1.70312 7.79461C1.87389 7.791 2.24903 7.7235 2.50299 7.52508C2.58174 7.46358 2.71613 7.35038 2.90508 7.18623C2.77693 7.15993 2.56201 7.1281 2.44735 7.1123L1.70312 7.79461Z" fill="#F5F5F5"/>
<path d="M4.17495 4.34242V4.10101C4.14256 4.05273 4.10914 4.00309 4.07511 3.95251L3.78125 4.16622C3.8397 4.26671 3.87725 4.3306 3.88414 4.34237L4.17495 4.34242Z" fill="#F5F5F5"/>
<path d="M1.91383 5.4324C1.91285 5.43638 1.91055 5.44548 1.92536 5.46451C1.97992 5.5344 2.1377 5.60115 2.34709 5.6619V5.26721C2.09561 5.30893 1.93094 5.36405 1.91383 5.4324Z" fill="#F5F5F5"/>
<path d="M5.27601 5.24389V4.7428H4.30664V5.96679H4.55311C4.95168 5.96679 5.27601 5.64246 5.27601 5.24389Z" fill="#F5F5F5"/>
<path d="M3.71828 3.4237C3.19929 2.65866 2.645 1.85471 2.50977 1.69543C2.52912 1.76668 2.57595 1.90042 2.68522 2.15082C2.82626 2.47402 3.16854 3.09361 3.45185 3.5924L3.71828 3.4237Z" fill="#F5F5F5"/>
<path d="M3.5166 3.70678C3.59038 3.83601 3.65807 3.95353 3.71502 4.05192L4.00171 3.84342C3.93346 3.74222 3.86333 3.63844 3.79166 3.53259L3.5166 3.70678Z" fill="#F5F5F5"/>
<path d="M4.17558 5.96446V5.17716C4.13733 5.17636 4.09903 5.17561 4.06055 5.17505V5.95584C4.10489 5.95978 4.14347 5.96263 4.17558 5.96446Z" fill="#F5F5F5"/>
<path d="M5.27601 3.66675H4.30664V3.80432H5.27601V3.66675Z" fill="#F5F5F5"/>
<path d="M6.62305 4.3342V4.3424H6.67231C6.70864 4.3424 6.73803 4.37179 6.73803 4.40812V4.67713C6.73803 4.71346 6.70864 4.74285 6.67231 4.74285H6.62305V4.75105C6.62305 4.78724 6.65248 4.81677 6.68876 4.81677H7.79777C7.83405 4.81677 7.86349 4.78724 7.86349 4.75105V4.33415C7.86349 4.29796 7.83405 4.26843 7.79777 4.26843H6.68876C6.65248 4.26848 6.62305 4.29801 6.62305 4.3342Z" fill="#F5F5F5"/>
<path d="M7.86385 7.79091L7.12375 7.1123C7.00914 7.1281 6.79417 7.15993 6.66602 7.18623C6.85844 7.3531 6.99273 7.4663 7.06811 7.52522C7.31809 7.72045 7.68549 7.78884 7.86385 7.79091Z" fill="#F5F5F5"/>
<path d="M6.34375 4.51902V4.56627V4.61145H6.60662V4.47388H6.34375V4.51902Z" fill="#F5F5F5"/>
<path d="M6.54514 7.08083C6.61499 7.05842 6.7828 7.03011 6.92276 7.00874L5.33344 5.59045C5.29031 5.68716 5.23026 5.77467 5.15625 5.8485L5.19806 5.88586C5.77392 6.40134 6.22391 6.80038 6.54514 7.08083Z" fill="#F5F5F5"/>
<path d="M2.9836 4.75101V4.7428H2.93429C2.89797 4.7428 2.86857 4.71341 2.86857 4.67708V4.40807C2.86857 4.37174 2.89797 4.34235 2.93429 4.34235H2.9836V4.33415C2.9836 4.29796 2.95417 4.26843 2.91789 4.26843H1.80888C1.7726 4.26843 1.74316 4.29796 1.74316 4.33415V4.75105C1.74316 4.78724 1.7726 4.81677 1.80888 4.81677H2.91789C2.95412 4.81672 2.9836 4.78724 2.9836 4.75101Z" fill="#F5F5F5"/>
<path d="M3.26287 4.56627V4.51902V4.47388H3V4.61145H3.26287V4.56627Z" fill="#F5F5F5"/>
<path d="M5.78935 4.16622L5.49549 3.95251C5.4654 3.99723 5.43605 4.04092 5.40723 4.08381V4.34242H5.68641C5.69335 4.33065 5.7309 4.26671 5.78935 4.16622Z" fill="#F5F5F5"/>
<path d="M4.39453 3.26426H5.18835L5.01365 3.07043H4.56928L4.39453 3.26426Z" fill="#F5F5F5"/>
<path d="M5.27601 3.40186H4.30664V3.53535H5.27601V3.40186Z" fill="#F5F5F5"/>
<path d="M4.78719 2.20901C4.72335 2.20901 4.66344 2.2008 4.60645 2.18866V2.93153H4.97202V2.18787C4.91394 2.20057 4.85258 2.20901 4.78719 2.20901Z" fill="#F5F5F5"/>
<path d="M4.30669 4.07337H5.27179C5.2716 4.06512 5.27301 4.05715 5.27601 4.04918V3.93579H4.30664L4.30669 4.07337Z" fill="#F5F5F5"/>
<path d="M5.56934 3.84342L5.85602 4.05192C5.91297 3.95353 5.98071 3.83601 6.05449 3.70678L5.77938 3.53259C5.70771 3.63839 5.63754 3.74222 5.56934 3.84342Z" fill="#F5F5F5"/>
<path d="M5.27601 4.20483H4.30664V4.34241H5.27601V4.20483Z" fill="#F5F5F5"/>
<path d="M6.11902 3.59238C6.40233 3.09364 6.74461 2.47405 6.88565 2.15085C6.9952 1.89979 7.04198 1.76591 7.06129 1.69495C6.92845 1.85085 6.3728 2.65677 5.85254 3.42373L6.11902 3.59238Z" fill="#F5F5F5"/>
<path d="M8.04349 7.7804L7.18644 6.99446C7.17204 6.98124 7.15269 6.97482 7.13323 6.97777C7.12597 6.97875 7.10942 6.98096 7.08744 6.98405C7.08626 6.98283 7.08575 6.98124 7.08448 6.98007L5.37619 5.45561C5.39363 5.38774 5.40384 5.31701 5.40384 5.24379V4.7427H5.81821C5.87156 4.81212 5.95453 4.85773 6.0487 4.85773C6.14287 4.85773 6.22584 4.81217 6.27918 4.7427H6.48819V4.7509C6.48819 4.8596 6.57664 4.94806 6.68535 4.94806H7.79435C7.90305 4.94806 7.99151 4.8596 7.99151 4.7509V4.334C7.99151 4.2253 7.90305 4.13684 7.79435 4.13684H6.68535C6.57664 4.13684 6.48819 4.2253 6.48819 4.334V4.3422H6.27918C6.22584 4.27278 6.14287 4.22717 6.0487 4.22717C5.97735 4.22717 5.91276 4.25389 5.86204 4.29659C6.08357 3.91738 6.77947 2.71547 7.00302 2.20327C7.24278 1.65367 7.22347 1.58265 7.16675 1.53709C7.10694 1.48923 7.03128 1.54426 7.00269 1.56521C6.89277 1.64509 5.82646 3.22035 5.4038 3.84814V3.32971C5.4038 3.32826 5.40305 3.32704 5.40295 3.32559L5.40291 3.3254C5.40141 3.30313 5.38894 3.28462 5.37075 3.27393L5.09982 2.97347V2.1474C5.25647 2.08018 5.35856 1.96398 5.35856 1.82879C5.35856 1.6157 5.10596 1.44873 4.78351 1.44873C4.46106 1.44873 4.20845 1.61574 4.20845 1.82879C4.20845 1.9651 4.31246 2.08191 4.47132 2.14885V2.97853L4.2055 3.27337C4.18553 3.28467 4.17151 3.30524 4.17151 3.32981V3.86539C3.757 3.2496 2.672 1.64588 2.56114 1.56526C2.53245 1.54445 2.4567 1.48942 2.39703 1.53714C2.34031 1.5827 2.321 1.65367 2.56076 2.20332C2.77718 2.69925 3.43638 3.84168 3.67914 4.25802C3.64038 4.23894 3.59735 4.22722 3.55131 4.22722C3.45714 4.22722 3.37418 4.27278 3.32083 4.34225H3.11182V4.33405C3.11182 4.22534 3.02337 4.13689 2.91466 4.13689H1.80575C1.69705 4.13689 1.6086 4.22534 1.6086 4.33405V4.75095C1.6086 4.85965 1.69705 4.9481 1.80575 4.9481H2.91476C3.02346 4.9481 3.11191 4.85965 3.11191 4.75095V4.74275H3.32093C3.37427 4.81217 3.45724 4.85778 3.55141 4.85778C3.64558 4.85778 3.72855 4.81221 3.78189 4.74275H4.17161V5.04532C3.56228 5.03224 1.87555 5.03032 1.78307 5.40044C1.77449 5.43471 1.77364 5.48786 1.8185 5.54524C1.9963 5.77295 2.89727 5.93917 3.55094 6.02701L2.47948 6.97997C2.47817 6.98115 2.47761 6.98279 2.47643 6.98405C2.45445 6.981 2.4379 6.97875 2.43064 6.97777C2.41086 6.97496 2.39173 6.98124 2.37744 6.99446L1.52033 7.7804C1.49446 7.80403 1.49179 7.84392 1.51429 7.87087C1.54274 7.905 1.61483 7.92168 1.7114 7.92168C1.949 7.92168 2.33436 7.82039 2.58003 7.62853C2.78253 7.47038 3.34343 6.97866 4.24731 6.16679C4.28645 6.13168 4.31237 6.10834 4.32385 6.09812H4.54946C4.73691 6.09812 4.90993 6.03672 5.05097 5.93392L5.10666 5.98361C6.14732 6.9151 6.77881 7.46845 6.9838 7.62848C7.22947 7.82048 7.61473 7.92164 7.85233 7.92164C7.94894 7.92164 8.02104 7.90495 8.04954 7.87082C8.07204 7.84396 8.06932 7.80403 8.04349 7.7804ZM4.30304 5.96673V4.74275H5.27241V5.24383C5.27241 5.64236 4.94813 5.96673 4.54951 5.96673H4.30304ZM2.34383 5.66177C2.13444 5.60102 1.97666 5.53427 1.9221 5.46438C1.90728 5.44539 1.90958 5.43625 1.91057 5.43227C1.92767 5.36393 2.09234 5.3088 2.34383 5.26708V5.66177ZM2.50592 1.69534C2.64115 1.85466 3.19544 2.65861 3.71444 3.4236L3.448 3.5923C3.16469 3.09356 2.82242 2.47392 2.68137 2.15072C2.57211 1.90032 2.52532 1.76654 2.50592 1.69534ZM4.07176 3.95239C4.10579 4.00292 4.13917 4.05261 4.17161 4.10089V4.3423H3.8808C3.87386 4.33053 3.83636 4.26664 3.77791 4.16614L4.07176 3.95239ZM3.71163 4.05186C3.65467 3.95347 3.58699 3.83596 3.51321 3.70672L3.78831 3.53254C3.85998 3.63833 3.93011 3.74216 3.99836 3.84336L3.71163 4.05186ZM4.17161 5.17713V5.96444C4.1395 5.96261 4.10092 5.95975 4.05658 5.95586V5.17502C4.09506 5.17558 4.13336 5.17629 4.17161 5.17713ZM2.70935 5.22105C3.0619 5.18773 3.49305 5.17188 3.92514 5.17399V5.94292C3.60602 5.90903 3.12354 5.84092 2.70935 5.75205V5.22105ZM2.47526 5.24758C2.5085 5.24318 2.54257 5.23891 2.57796 5.23488V5.72266C2.54286 5.71441 2.50878 5.70597 2.47526 5.69744V5.24758ZM3.72395 6.04919C3.89598 6.07019 4.04003 6.08467 4.13382 6.09212C3.67103 6.50767 3.29941 6.83808 3.02234 7.08061C2.9524 7.0583 2.78496 7.03004 2.64518 7.00871L3.72395 6.04919ZM2.90126 7.18613C2.71231 7.35028 2.57792 7.46348 2.49917 7.52498C2.2452 7.7234 1.87011 7.79095 1.6993 7.79451L2.44353 7.11216C2.55818 7.128 2.7731 7.15983 2.90126 7.18613ZM3.84301 4.61131V4.56612V4.51887V4.47369H5.75704V4.51887V4.56612V4.61131H3.84301ZM5.22722 1.82879C5.22722 1.96355 5.02411 2.07741 4.7836 2.07741C4.54313 2.07741 4.33998 1.96355 4.33998 1.82879C4.33998 1.69402 4.54309 1.58017 4.7836 1.58017C5.02407 1.58017 5.22722 1.69402 5.22722 1.82879ZM4.30304 3.80422V3.6666H5.27241V3.80418L4.30304 3.80422ZM5.27241 3.93566V4.04905C5.26941 4.05702 5.268 4.06499 5.26819 4.07324H4.30304V3.93566H5.27241ZM4.30304 3.53516V3.40166H5.27241V3.53516H4.30304ZM5.0101 3.07026L5.18485 3.26409H4.39098L4.56573 3.07026H5.0101ZM4.6029 2.93137V2.1885C4.65985 2.20064 4.71976 2.20885 4.78365 2.20885C4.84904 2.20885 4.91035 2.20041 4.96847 2.18766V2.93137H4.6029ZM4.30304 4.20467H5.27241V4.34225H4.30304V4.20467ZM6.8825 2.15072C6.74146 2.47392 6.39918 3.09351 6.11587 3.59226L5.84943 3.42356C6.36965 2.65659 6.9253 1.85068 7.05819 1.69477C7.03883 1.76579 6.99205 1.89966 6.8825 2.15072ZM6.20887 4.51887V4.56612C6.20887 4.65443 6.13701 4.72629 6.0487 4.72629C5.96038 4.72629 5.88853 4.65443 5.88853 4.56612V4.51887C5.88853 4.43056 5.96038 4.3587 6.0487 4.3587C6.13701 4.3587 6.20887 4.43061 6.20887 4.51887ZM5.85225 4.05186L5.56556 3.84336C5.63376 3.74216 5.70393 3.63838 5.77556 3.53254L6.05067 3.70672C5.97688 3.83591 5.9092 3.95342 5.85225 4.05186ZM5.40384 4.08369C5.43267 4.04075 5.46201 3.99711 5.49211 3.95239L5.78596 4.16609C5.72747 4.26664 5.68997 4.33053 5.68303 4.3423H5.40384V4.08369ZM5.32969 5.59038L6.91902 7.00866C6.7791 7.03004 6.61128 7.05835 6.54139 7.08075C6.22016 6.8003 5.77017 6.40121 5.19431 5.88573L5.1525 5.84837C5.22647 5.77459 5.28656 5.68708 5.32969 5.59038ZM7.12034 7.11221L7.86044 7.79081C7.68209 7.78875 7.31468 7.72036 7.0647 7.52512C6.98937 7.4662 6.85503 7.353 6.66261 7.18613C6.79077 7.15983 7.00573 7.128 7.12034 7.11221ZM7.86007 4.33405V4.75095C7.86007 4.78714 7.83063 4.81667 7.79435 4.81667H6.68535C6.64907 4.81667 6.61963 4.78714 6.61963 4.75095V4.74275H6.66889C6.70522 4.74275 6.73461 4.71335 6.73461 4.67703V4.40801C6.73461 4.37169 6.70522 4.3423 6.66889 4.3423H6.61963V4.33409C6.61963 4.29791 6.64907 4.26837 6.68535 4.26837H7.79435C7.83059 4.26833 7.86007 4.29786 7.86007 4.33405ZM6.60318 4.61131H6.3403V4.56612V4.51887V4.47369H6.60318V4.61131ZM1.74004 4.75095V4.33405C1.74004 4.29786 1.76947 4.26833 1.80575 4.26833H2.91476C2.95104 4.26833 2.98048 4.29786 2.98048 4.33405V4.34225H2.93116C2.89484 4.34225 2.86545 4.37164 2.86545 4.40797V4.67698C2.86545 4.71331 2.89484 4.7427 2.93116 4.7427H2.98048V4.7509C2.98048 4.78709 2.95104 4.81662 2.91476 4.81662H1.80575C1.76947 4.81667 1.74004 4.78718 1.74004 4.75095ZM2.99688 4.47373H3.25976V4.51892V4.56617V4.61136H2.99688V4.47373ZM3.71158 4.56612C3.71158 4.65443 3.63972 4.72629 3.55141 4.72629C3.4631 4.72629 3.39124 4.65443 3.39124 4.56612V4.51887C3.39124 4.43056 3.4631 4.3587 3.55141 4.3587C3.63972 4.3587 3.71158 4.43056 3.71158 4.51887V4.56612Z" fill="#D23741"/>
</g>
<defs>
<clipPath id="clip0_8615_27700">
<path d="M0 2C0 0.895432 0.895431 0 2 0H21.9998C23.1043 0 23.9998 0.895431 23.9998 2V21.9998C23.9998 23.1043 23.1043 23.9998 21.9998 23.9998H2C0.895432 23.9998 0 23.1043 0 21.9998V2Z" fill="white"/>
</clipPath>
</defs>
</svg>
