<svg width="24" height="24" viewBox="0 0 24 24" fill="none" xmlns="http://www.w3.org/2000/svg">
<g clip-path="url(#clip0_8615_27658)">
<path d="M23.9972 0H6.2041V23.9998H23.9972V0Z" fill="#73AF00"/>
<path d="M6.2008 0H-0.00585938V23.9998H6.2008V0Z" fill="#F5F5F5"/>
<path d="M19.712 14.3502C17.6425 16.1938 14.4744 16.0043 12.6345 13.9311C10.7982 11.8618 10.9841 8.68451 13.0535 6.84103C13.0565 6.83836 13.0595 6.83569 13.0625 6.83302C13.1114 6.78998 13.0642 6.71194 13.0035 6.73556C10.9626 7.53032 9.51562 9.51546 9.51562 11.8398C9.51562 14.8675 11.964 17.3196 14.9845 17.3196C17.0739 17.3196 18.8846 16.1439 19.8044 14.418C19.8351 14.3604 19.7632 14.3043 19.7145 14.3478C19.7137 14.3486 19.7129 14.3494 19.712 14.3502Z" fill="#F5F5F5"/>
<path d="M17.0493 7.74947L17.7684 8.55632L18.7646 8.13708C18.8936 8.0828 19.0175 8.22394 18.9469 8.34478L18.4017 9.2781L19.1083 10.096C19.1998 10.2019 19.1038 10.3633 18.9671 10.3335L17.9111 10.1035L17.3515 11.0282C17.2791 11.1479 17.0959 11.1065 17.082 10.9673L16.9744 9.89183L15.922 9.64545C15.7858 9.61353 15.7686 9.4266 15.8967 9.3703L16.8863 8.93568L16.7954 7.85864C16.7837 7.71914 16.9562 7.64499 17.0493 7.74947Z" fill="#F5F5F5"/>
</g>
<defs>
<clipPath id="clip0_8615_27658">
<path d="M0 2C0 0.895432 0.895431 0 2 0H21.9998C23.1043 0 23.9998 0.895431 23.9998 2V21.9998C23.9998 23.1043 23.1043 23.9998 21.9998 23.9998H2C0.895432 23.9998 0 23.1043 0 21.9998V2Z" fill="white"/>
</clipPath>
</defs>
</svg>
