<svg width="24" height="24" viewBox="0 0 24 24" fill="none" xmlns="http://www.w3.org/2000/svg">
<g clip-path="url(#clip0_8615_27507)">
<path d="M23.9968 0H-0.00292969V23.9998H23.9968V0Z" fill="#3CC8FF"/>
<path d="M16.5107 9.85097C18.3634 14.2092 14.207 18.3656 9.84877 16.5129C8.78631 16.0612 7.93643 15.2113 7.48474 14.1488C5.63198 9.79064 9.78844 5.63418 14.1466 7.48694C15.2091 7.93862 16.059 8.78851 16.5107 9.85097Z" fill="#FFE15A"/>
</g>
<defs>
<clipPath id="clip0_8615_27507">
<path d="M0 2C0 0.895432 0.895431 0 2 0H21.9998C23.1043 0 23.9998 0.895431 23.9998 2V21.9998C23.9998 23.1043 23.1043 23.9998 21.9998 23.9998H2C0.895432 23.9998 0 23.1043 0 21.9998V2Z" fill="white"/>
</clipPath>
</defs>
</svg>
