<svg width="24" height="24" viewBox="0 0 24 24" fill="none" xmlns="http://www.w3.org/2000/svg">
<g clip-path="url(#clip0_8615_27522)">
<path d="M23.9968 0H-0.00292969V8.00008H23.9968V0Z" fill="#464655"/>
<path d="M23.9968 15.9998H-0.00292969V23.9998H23.9968V15.9998Z" fill="#73AF00"/>
<path d="M23.9968 8.00012H-0.00292969V16.0002H23.9968V8.00012Z" fill="#F5F5F5"/>
<path d="M-0.00292969 23.9998L11.4497 12.3272C11.6134 12.1599 11.6134 11.8399 11.4497 11.6726L-0.00292969 0V23.9998Z" fill="#FF4B55"/>
</g>
<defs>
<clipPath id="clip0_8615_27522">
<path d="M0 2C0 0.895432 0.895431 0 2 0H21.9998C23.1043 0 23.9998 0.895431 23.9998 2V21.9998C23.9998 23.1043 23.1043 23.9998 21.9998 23.9998H2C0.895432 23.9998 0 23.1043 0 21.9998V2Z" fill="white"/>
</clipPath>
</defs>
</svg>
