<svg width="24" height="24" viewBox="0 0 24 24" fill="none" xmlns="http://www.w3.org/2000/svg">
<g clip-path="url(#clip0_8615_27525)">
<path d="M23.9968 0H-0.00292969V23.9998H23.9968V0Z" fill="#F5F5F5"/>
<path d="M23.997 0H11.9971V11.9999H23.997V0Z" fill="#FF4B55"/>
<path d="M11.994 11.9999H-0.00585938V23.9998H11.994V11.9999Z" fill="#4173CD"/>
<path d="M6.15341 4.23497L6.54791 5.4178L7.79477 5.42745C7.95621 5.42872 8.02315 5.63473 7.89326 5.73059L6.89024 6.4713L7.26636 7.66009C7.31506 7.81398 7.1398 7.94134 7.0085 7.84745L5.99404 7.12244L4.97963 7.84749C4.84829 7.94138 4.67307 7.81402 4.72177 7.66014L5.09789 6.47135L4.09487 5.73064C3.96503 5.63473 4.03197 5.42872 4.19336 5.4275L5.44022 5.41784L5.83472 4.23501C5.88571 4.08183 6.10237 4.08183 6.15341 4.23497Z" fill="#4173CD"/>
<path d="M18.1563 16.235L18.5508 17.4178L19.7977 17.4275C19.9591 17.4287 20.0261 17.6347 19.8962 17.7306L18.8932 18.4713L19.2693 19.6601C19.318 19.814 19.1427 19.9413 19.0114 19.8474L17.997 19.1224L16.9826 19.8475C16.8512 19.9414 16.676 19.814 16.7247 19.6601L17.1008 18.4713L16.0978 17.7306C15.968 17.6347 16.0349 17.4287 16.1963 17.4275L17.4431 17.4178L17.8376 16.235C17.8886 16.0818 18.1053 16.0818 18.1563 16.235Z" fill="#FF4B55"/>
</g>
<defs>
<clipPath id="clip0_8615_27525">
<path d="M0 2C0 0.895432 0.895431 0 2 0H21.9998C23.1043 0 23.9998 0.895431 23.9998 2V21.9998C23.9998 23.1043 23.1043 23.9998 21.9998 23.9998H2C0.895432 23.9998 0 23.1043 0 21.9998V2Z" fill="white"/>
</clipPath>
</defs>
</svg>
