<svg width="24" height="24" viewBox="0 0 24 24" fill="none" xmlns="http://www.w3.org/2000/svg">
<g clip-path="url(#clip0_8615_27504)">
<path d="M23.9959 0H-0.00390625V23.9998H23.9959V0Z" fill="#FF4B55"/>
<path d="M-0.00390625 0V23.9998H23.9959L-0.00390625 0Z" fill="#464655"/>
<path d="M3.34862 13.6886L3.11181 14.3987L2.36331 14.4045C2.29155 14.4051 2.26178 14.4966 2.31953 14.5393L2.92164 14.984L2.69584 15.6976C2.67419 15.766 2.75209 15.8226 2.8105 15.7809L3.41945 15.3456L4.02839 15.7809C4.0868 15.8226 4.1647 15.766 4.14305 15.6976L3.91725 14.984L4.51936 14.5393C4.57711 14.4966 4.54734 14.4051 4.47558 14.4045L3.72708 14.3987L3.49027 13.6886C3.46763 13.6206 3.3713 13.6206 3.34862 13.6886Z" fill="#F5F5F5"/>
<path d="M8.44823 13.6886L8.21142 14.3987L7.46292 14.4045C7.39116 14.4051 7.36139 14.4966 7.41914 14.5393L8.02125 14.984L7.7955 15.6976C7.77384 15.766 7.85175 15.8226 7.91015 15.7809L8.5191 15.3456L9.12805 15.7809C9.18645 15.8226 9.26436 15.766 9.2427 15.6976L9.01691 14.984L9.61901 14.5393C9.67676 14.4966 9.647 14.4051 9.57523 14.4045L8.82674 14.3987L8.58993 13.6886C8.56724 13.6206 8.47096 13.6206 8.44823 13.6886Z" fill="#F5F5F5"/>
<path d="M5.89842 10.5979L5.66161 11.308L4.91312 11.3138C4.84135 11.3144 4.81159 11.4059 4.86934 11.4486L5.47144 11.8933L5.24565 12.6069C5.22399 12.6753 5.3019 12.7319 5.3603 12.6902L5.96925 12.2549L6.5782 12.6902C6.6366 12.7319 6.71451 12.6753 6.69285 12.6069L6.46706 11.8933L7.06916 11.4486C7.12691 11.4059 7.09715 11.3144 7.02538 11.3138L6.27689 11.308L6.04008 10.5979C6.01748 10.5299 5.92116 10.5299 5.89842 10.5979Z" fill="#F5F5F5"/>
<path d="M5.89842 18.1985L5.66161 18.9086L4.91312 18.9144C4.84135 18.915 4.81159 19.0065 4.86934 19.0492L5.47144 19.4939L5.24565 20.2075C5.22399 20.2759 5.3019 20.3325 5.3603 20.2908L5.96925 19.8555L6.5782 20.2908C6.6366 20.3325 6.71451 20.2759 6.69285 20.2075L6.46706 19.4939L7.06916 19.0492C7.12691 19.0065 7.09715 18.915 7.02538 18.9144L6.27689 18.9086L6.04008 18.1985C6.01748 18.1304 5.92116 18.1305 5.89842 18.1985Z" fill="#F5F5F5"/>
<path d="M7.08592 16.3466L6.95996 16.7242L6.56195 16.7273C6.5238 16.7275 6.50795 16.7763 6.53866 16.7989L6.85886 17.0354L6.73881 17.4149C6.72728 17.4512 6.76872 17.4814 6.79979 17.4592L7.1236 17.2277L7.44741 17.4592C7.47844 17.4813 7.51988 17.4512 7.5084 17.4149L7.38835 17.0354L7.70855 16.7989C7.73925 16.7763 7.72341 16.7275 7.68525 16.7273L7.28724 16.7242L7.16129 16.3466C7.14924 16.3104 7.09801 16.3104 7.08592 16.3466Z" fill="#F5F5F5"/>
<path d="M19.9774 8.99416C19.9168 8.52528 19.7165 8.06188 19.5709 7.77566C19.6427 7.81157 19.7545 7.87635 19.7545 7.87635L19.6559 7.51879C19.9025 7.61741 20.0874 7.80852 20.0874 7.80852C19.9641 7.19203 19.773 6.90229 19.773 6.90229L19.9272 6.95779C19.6374 6.24268 19.2059 6.03924 19.2059 6.03924L19.4525 5.9776C19.0888 5.52142 18.5771 5.36729 18.5771 5.36729L18.91 5.20703C18.0285 4.70768 17.1777 5.23169 17.1777 5.23169C17.1777 5.23169 17.4737 4.92344 17.5846 4.79397C17.6956 4.6645 17.4305 4.62138 17.4305 4.62138C17.4305 4.62138 17.6894 4.4426 17.6771 4.33779C17.6648 4.23298 17.4305 4.28848 17.4305 4.28848C17.4305 4.28848 17.6339 4.07885 17.6339 3.96176C17.6339 3.84467 17.4243 3.91859 17.4243 3.91859C17.4243 3.91859 17.4921 3.77679 17.5106 3.66584C17.5291 3.55489 17.3257 3.64733 17.3257 3.64733C17.3257 3.64733 17.5538 3.24046 17.5414 3.15416C17.5291 3.06786 16.9435 3.43156 16.5243 3.83229C16.1051 4.23302 16.1554 4.87694 16.1925 5.03013C16.2297 5.18331 16.2529 5.54073 16.0672 5.66603C15.8816 5.79137 15.5503 5.48443 15.3859 5.29539C15.2215 5.10634 15.016 5.17211 14.8023 5.24608C14.5886 5.32004 14.1858 5.22142 14.0625 5.20497C13.9392 5.18856 14.2022 5.32825 14.4241 5.41047C14.6461 5.49264 14.7447 5.68993 15.0571 5.80501C15.3307 5.90579 15.5498 6.16177 15.3345 6.27971C15.1667 6.37158 15.168 6.22421 14.4283 6.0331C13.6885 5.84199 12.8008 7.72222 12.8008 7.72222C13.276 7.66349 13.5189 7.37882 13.5189 7.37882L13.3906 7.74707C13.7418 7.68055 13.9135 7.46699 13.9135 7.46699L13.8207 7.83833C14.0899 7.75476 14.2755 7.46699 14.2755 7.46699L14.1966 7.83369C14.4612 7.7084 14.6004 7.46699 14.6004 7.46699C14.6283 7.60162 14.6502 7.87635 14.6502 7.87635C15.0599 7.6573 15.1557 7.3462 15.1557 7.3462C15.6242 8.7641 16.3023 8.99834 16.3023 8.99834L16.3393 8.62845C16.5489 8.92437 16.8448 9.07231 16.8448 9.07231L16.7955 8.75173C17.5229 9.63944 18.3613 9.86139 18.3613 9.86139L18.1466 9.3701L18.4106 9.42372C18.127 9.1833 18.0222 8.7641 18.0222 8.7641L18.2442 8.80109C17.8866 8.47437 17.7078 8.0983 17.7078 8.0983L17.9236 8.13528C17.8558 8.03047 17.8003 7.66058 17.8003 7.66058C18.1949 7.78386 18.3983 7.93799 18.3983 7.93799L18.4216 7.80374C18.7601 8.04763 19.316 8.50165 19.7012 9.07245C19.7017 9.25868 19.6716 9.44664 19.5943 9.63536C19.2409 10.4972 18.312 10.4409 17.901 10.2601C17.901 10.2601 19.1751 11.2546 19.8737 9.84086C19.918 9.75128 19.9457 9.65542 19.9656 9.55708C20.0527 9.76492 20.1129 9.98172 20.1245 10.2066C20.1984 11.6492 18.6942 11.5135 18.6942 11.5135C18.6942 11.5135 20.3587 12.1793 20.4327 10.2559C20.4491 9.8283 20.268 9.40071 19.9774 8.99416ZM18.465 7.55427L18.4722 7.51265C18.725 7.58662 18.99 7.7654 18.99 7.7654L19.0486 7.58971C19.2987 7.89022 19.4984 8.21356 19.6096 8.54839C19.2721 8.18567 18.8675 7.84883 18.465 7.55427Z" fill="#FFE15A"/>
</g>
<defs>
<clipPath id="clip0_8615_27504">
<path d="M0 2C0 0.895432 0.895431 0 2 0H21.9998C23.1043 0 23.9998 0.895431 23.9998 2V21.9998C23.9998 23.1043 23.1043 23.9998 21.9998 23.9998H2C0.895432 23.9998 0 23.1043 0 21.9998V2Z" fill="white"/>
</clipPath>
</defs>
</svg>
