<svg width="24" height="24" viewBox="0 0 24 24" fill="none" xmlns="http://www.w3.org/2000/svg">
<g clip-path="url(#clip0_8615_27508)">
<path d="M23.9959 0H-0.00390625V8.00008H23.9959V0Z" fill="#FF4B55"/>
<path d="M23.9959 15.9998H-0.00390625V23.9998H23.9959V15.9998Z" fill="#41479B"/>
<path d="M23.9959 8.00012H-0.00390625V16.0002H23.9959V8.00012Z" fill="#F5F5F5"/>
<path d="M11.9957 8.84216C10.2517 8.84216 8.83789 10.2559 8.83789 12C8.83789 13.7441 10.2517 15.1579 11.9957 15.1579C13.7397 15.1579 15.1536 13.7441 15.1536 12C15.1536 10.2559 13.7397 8.84216 11.9957 8.84216ZM11.9957 14.3816C10.6804 14.3816 9.61418 13.3153 9.61418 12C9.61418 10.6847 10.6804 9.61845 11.9957 9.61845C13.311 9.61845 14.3773 10.6847 14.3773 12C14.3773 13.3153 13.311 14.3816 11.9957 14.3816Z" fill="#FF4B55"/>
<path d="M11.9958 13.0953C12.6007 13.0953 13.0911 12.6049 13.0911 11.9999C13.0911 11.395 12.6007 10.9045 11.9958 10.9045C11.3908 10.9045 10.9004 11.395 10.9004 11.9999C10.9004 12.6049 11.3908 13.0953 11.9958 13.0953Z" fill="#41479B"/>
<path d="M12.0672 11.1702L12.2438 11.6996L12.8018 11.7039C12.8741 11.7045 12.904 11.7967 12.8459 11.8396L12.397 12.1711L12.5653 12.7032C12.5871 12.7721 12.5087 12.829 12.4499 12.787L11.9959 12.4625L11.5419 12.787C11.4831 12.829 11.4047 12.772 11.4265 12.7031L11.5948 12.171L11.1459 11.8395C11.0878 11.7966 11.1177 11.7044 11.19 11.7038L11.748 11.6995L11.9246 11.1701C11.9474 11.1016 12.0443 11.1016 12.0672 11.1702Z" fill="#FFE15A"/>
<path d="M14.0679 12.0254C14.0679 12.0254 14.1305 11.7359 13.8226 12.0833C13.8226 12.0833 13.827 11.9844 13.8184 11.9028C13.8861 11.8295 13.9701 11.6691 13.9505 11.3267C13.9505 11.3267 13.9022 11.0345 13.7436 11.4708C13.7436 11.4708 13.7003 11.3421 13.6543 11.2708C13.6926 11.1916 13.722 11.0472 13.6304 10.7738C13.6304 10.7738 13.5233 10.5399 13.4899 10.9417C13.4899 10.9417 13.402 10.8102 13.3448 10.7779C13.3559 10.7131 13.3472 10.6018 13.2179 10.4215C13.2179 10.4215 13.0888 10.277 13.154 10.5736C13.154 10.5736 13.0359 10.4779 12.9981 10.4892C12.9785 10.4326 12.9218 10.3368 12.7313 10.2108C12.7313 10.2108 12.5662 10.1203 12.7556 10.3562C12.7556 10.3562 12.5882 10.2898 12.5902 10.3278C12.5922 10.3659 12.6731 10.4361 12.7396 10.4674C12.7396 10.4674 12.4941 10.4929 12.5949 10.5476C12.5949 10.5476 12.844 10.6335 12.9936 10.5509C13.0056 10.5945 13.03 10.6433 13.0662 10.6784C13.0662 10.6784 12.774 10.6217 12.8531 10.7094C12.8531 10.7094 13.0723 10.8705 13.2888 10.8458C13.2878 10.9054 13.3058 10.9825 13.3375 11.0402C13.3375 11.0402 12.9892 10.8539 13.0552 10.9961C13.0552 10.9961 13.2635 11.2748 13.5407 11.3353C13.5293 11.3973 13.5296 11.4722 13.5445 11.5342C13.5445 11.5342 13.2138 11.2218 13.2442 11.3998C13.2442 11.3998 13.3824 11.7662 13.6626 11.9219C13.6398 11.9684 13.621 12.0205 13.6142 12.069C13.6142 12.069 13.4215 11.6568 13.3843 11.8335C13.3843 11.8335 13.3779 12.2452 13.5977 12.4913C13.5509 12.5302 13.505 12.5848 13.4769 12.6382C13.4769 12.6382 13.4347 12.1853 13.34 12.3389C13.34 12.3389 13.209 12.682 13.2976 12.9777C13.2391 12.995 13.1752 13.027 13.128 13.0653C13.128 13.0653 13.2677 12.6324 13.1201 12.7362C13.1201 12.7362 12.8572 13.0206 12.8371 13.3406C12.7674 13.3392 12.6731 13.3642 12.6047 13.4051C12.6047 13.4051 12.8047 12.9966 12.6437 13.0783C12.6437 13.0783 12.357 13.3125 12.283 13.6166C12.2152 13.6552 12.1 13.721 11.9849 13.7863C11.918 13.7474 11.8529 13.7096 11.7973 13.6772L11.7992 13.6742L11.1473 13.1277L11.1603 13.3064L10.8329 12.7211L10.7925 12.9203L10.6853 12.2731L10.5903 12.3686L10.6271 11.7649L10.5031 11.8317L10.7282 11.3826L10.6224 11.4125L10.9005 11.1459L10.7536 11.1584L11.1051 10.9987L10.9766 10.979L11.3198 10.8052L11.172 10.798L11.6169 10.6441L11.5354 10.5729L11.9206 10.4592L11.4591 10.4241L11.5906 10.2623L11.2384 10.4425L11.289 10.1989L10.981 10.5161L11.0346 10.294L10.7463 10.5808L10.765 10.3644L10.4799 10.847L10.4432 10.631L10.2063 11.1729L10.1411 10.9368L10.0354 11.6089L9.94714 11.5089L10.0631 12.1571L9.91602 12.0468L10.1857 12.6291C10.1857 12.6291 9.98961 12.5432 9.96509 12.5432C9.94058 12.5432 10.434 13.0443 10.434 13.0443L10.1765 13.0167L10.6739 13.3664L10.4891 13.4121L10.9028 13.5729L10.8017 13.6511L11.6582 13.7124C11.6582 13.7124 11.7408 13.7811 11.8531 13.8608C11.7938 13.8942 11.7417 13.9234 11.7093 13.941C11.6768 13.9588 11.6386 13.9605 11.6043 13.9463C11.5231 13.9122 11.4054 13.8641 11.3486 13.8414C11.3486 13.8414 11.3541 14.0848 11.6076 14.0909C11.7118 14.0933 11.8537 14.0271 11.9857 13.9486C12.1209 14.0329 12.27 14.1072 12.3777 14.1047C12.6257 14.0986 12.6311 13.8552 12.6311 13.8552C12.5756 13.8779 12.4605 13.926 12.381 13.9601C12.3474 13.9743 12.3101 13.9726 12.2783 13.9548C12.2431 13.9352 12.1854 13.9021 12.1191 13.8639C12.1867 13.818 12.2435 13.7764 12.2834 13.7457C12.3457 13.7947 12.5243 13.8808 12.9234 13.731C12.9234 13.731 13.1881 13.598 12.7245 13.5763C12.7245 13.5763 12.8105 13.5131 12.8686 13.4531C12.9446 13.4923 13.1326 13.5386 13.4899 13.3424C13.4899 13.3424 13.733 13.1731 13.271 13.2177C13.271 13.2177 13.3327 13.1576 13.3812 13.0964C13.4609 13.1054 13.6577 13.0841 13.9187 12.7503C13.9187 12.7503 14.0754 12.4989 13.6683 12.7218C13.6683 12.7218 13.7209 12.5963 13.7333 12.5123C13.8232 12.4693 13.9604 12.351 14.0679 12.0254Z" fill="#64C86E"/>
</g>
<defs>
<clipPath id="clip0_8615_27508">
<path d="M0 2C0 0.895432 0.895431 0 2 0H21.9998C23.1043 0 23.9998 0.895431 23.9998 2V21.9998C23.9998 23.1043 23.1043 23.9998 21.9998 23.9998H2C0.895432 23.9998 0 23.1043 0 21.9998V2Z" fill="white"/>
</clipPath>
</defs>
</svg>
