<svg width="24" height="24" viewBox="0 0 24 24" fill="none" xmlns="http://www.w3.org/2000/svg">
<g clip-path="url(#clip0_8615_27500)">
<path d="M0.00390625 23.9998L12.0038 11.9999L0.00390625 0V23.9998Z" fill="#F5F5F5"/>
<path d="M0.00390625 23.9999H24.0037V12H12.0038L0.00390625 23.9999Z" fill="#FF4B55"/>
<path d="M0.00390625 0H24.0037V11.9999H12.0038L0.00390625 0Z" fill="#41479B"/>
<path d="M4.29405 13.3448C5.03678 13.3448 5.63888 12.7427 5.63888 12C5.63888 11.2573 5.03678 10.6552 4.29405 10.6552C3.55132 10.6552 2.94922 11.2573 2.94922 12C2.94922 12.7427 3.55132 13.3448 4.29405 13.3448Z" fill="#FFE15A"/>
<path d="M4.29436 11.9999L3.79004 9.98272L4.29436 9.3103L4.79864 9.98272L4.29436 11.9999Z" fill="#FFE15A"/>
<path d="M4.29436 12L4.79864 14.0172L4.29436 14.6896L3.79004 14.0172L4.29436 12Z" fill="#FFE15A"/>
<path d="M4.29415 11.9999L2.27691 12.5043L1.60449 11.9999L2.27691 11.4956L4.29415 11.9999Z" fill="#FFE15A"/>
<path d="M4.29492 11.9999L6.31212 11.4956L6.98454 11.9999L6.31212 12.5043L4.29492 11.9999Z" fill="#FFE15A"/>
<path d="M4.29492 12L5.36469 10.217L6.19676 10.0981L6.07789 10.9302L4.29492 12Z" fill="#FFE15A"/>
<path d="M4.29447 12L3.22465 13.783L2.39258 13.9018L2.51145 13.0698L4.29447 12Z" fill="#FFE15A"/>
<path d="M4.29447 12L2.51145 10.9302L2.39258 10.0981L3.22465 10.217L4.29447 12Z" fill="#FFE15A"/>
<path d="M4.29492 12L6.07789 13.0698L6.19676 13.9018L5.36469 13.783L4.29492 12Z" fill="#FFE15A"/>
<path d="M1.32922 3.50269L1.39935 4.02581L0.927084 4.26149C0.86596 4.29201 0.878804 4.3828 0.946069 4.39508L1.46525 4.49005L1.54348 5.01205C1.55361 5.07964 1.64394 5.09544 1.67642 5.0353L1.9272 4.57086L2.44779 4.65777C2.51519 4.66902 2.55813 4.58802 2.51098 4.53857L2.14676 4.15654L2.39027 3.68826C2.42182 3.62765 2.35802 3.56175 2.29643 3.59133L1.82056 3.81965L1.45044 3.44334C1.40253 3.39464 1.32017 3.43495 1.32922 3.50269Z" fill="#FFE15A"/>
<path d="M1.50524 19.0848L1.41665 19.6051L0.895686 19.6897C0.828234 19.7007 0.813562 19.7912 0.874077 19.8229L1.34156 20.0679L1.26107 20.5895C1.25067 20.6571 1.33218 20.699 1.38107 20.6513L1.75855 20.2824L2.22978 20.5201C2.29081 20.5509 2.35588 20.4863 2.32555 20.425L2.09136 19.952L2.46312 19.5773C2.51126 19.5288 2.46992 19.447 2.40233 19.4568L1.8801 19.5334L1.6386 19.064C1.60734 19.0034 1.51673 19.0174 1.50524 19.0848Z" fill="#FFE15A"/>
<path d="M9.50334 11.2291L9.1996 11.6608L8.69288 11.5132C8.62726 11.494 8.57509 11.5695 8.6161 11.6241L8.93274 12.0464L8.63569 12.4827C8.59726 12.5392 8.6528 12.6121 8.71749 12.5901L9.21694 12.4194L9.54009 12.8367C9.58195 12.8908 9.66848 12.8604 9.66745 12.7921L9.65948 12.2643L10.1563 12.0859C10.2206 12.0628 10.2185 11.9712 10.1532 11.951L9.64879 11.7955L9.63267 11.2679C9.63047 11.1996 9.54267 11.1733 9.50334 11.2291Z" fill="#FFE15A"/>
</g>
<defs>
<clipPath id="clip0_8615_27500">
<path d="M0 2C0 0.895432 0.895431 0 2 0H21.9998C23.1043 0 23.9998 0.895431 23.9998 2V21.9998C23.9998 23.1043 23.1043 23.9998 21.9998 23.9998H2C0.895432 23.9998 0 23.1043 0 21.9998V2Z" fill="white"/>
</clipPath>
</defs>
</svg>
