<svg width="24" height="24" viewBox="0 0 24 24" fill="none" xmlns="http://www.w3.org/2000/svg">
<g clip-path="url(#clip0_8615_27606)">
<path d="M24.0027 0H0.00292969V23.9998H24.0027V0Z" fill="#41479B"/>
<path d="M18.3394 12.0673C18.3301 12.0673 18.3206 12.0643 18.3125 12.0582C18.306 12.0533 17.6638 11.5528 18.0421 10.7045C18.0521 10.682 18.0785 10.6721 18.1011 10.6819C18.1236 10.692 18.1337 10.7183 18.1237 10.7409C17.7748 11.5231 18.3422 11.9686 18.3665 11.9872C18.3861 12.0021 18.3899 12.0301 18.375 12.0496C18.3662 12.0612 18.3529 12.0673 18.3394 12.0673Z" fill="#73AF00"/>
<path d="M17.9706 11.3346C17.9688 11.3346 17.9671 11.3345 17.9653 11.3343C17.9408 11.3315 17.9233 11.3093 17.9261 11.2848C17.9446 11.1244 18.005 11.0125 18.1055 10.9522C18.2672 10.855 18.4693 10.9326 18.4777 10.9361C18.5006 10.9451 18.5119 10.9708 18.5029 10.9938C18.4939 11.0167 18.4679 11.0281 18.4452 11.0191C18.4434 11.0184 18.2746 10.9543 18.1509 11.0289C18.0757 11.0743 18.0298 11.1638 18.0148 11.2951C18.0122 11.3179 17.9929 11.3346 17.9706 11.3346Z" fill="#73AF00"/>
<path d="M18.091 10.7593C18.0872 10.7495 17.9907 10.5204 17.5545 10.6179C17.0605 10.7286 17.0547 11.3802 17.0547 11.3867C17.0547 11.4091 17.0713 11.4281 17.0936 11.431C17.0956 11.4313 17.0975 11.4314 17.0993 11.4314C17.1194 11.4314 17.1373 11.4179 17.1425 11.3981C17.3266 10.6967 18.0123 10.8145 18.0414 10.8197C18.0579 10.8226 18.0738 10.8166 18.084 10.8042C18.0944 10.7916 18.097 10.7744 18.091 10.7593Z" fill="#73AF00"/>
<path d="M17.9879 11.1226C17.9879 11.1226 17.6904 10.9329 17.5677 11.1747C17.445 11.4165 17.5379 11.6768 17.5863 11.781C17.5863 11.781 17.7637 11.5849 17.9322 11.5578C18.1405 11.5244 18.1925 11.264 18.0475 11.1338C17.8741 10.9783 17.9879 11.1226 17.9879 11.1226Z" fill="#73AF00"/>
<path d="M18.3136 10.6782C18.3093 10.9385 18.4544 10.9727 18.4544 10.9727C18.5483 10.7337 18.3136 10.6782 18.3136 10.6782Z" fill="#73AF00"/>
<path d="M18.2686 11.2251C18.2705 10.9781 18.4381 10.9503 18.4381 10.9503C18.5396 11.18 18.2686 11.2251 18.2686 11.2251Z" fill="#73AF00"/>
<path d="M19.2344 11.0259C19.2344 11.0259 18.9975 10.9909 18.9066 10.948C18.831 10.9123 18.7323 10.8261 18.6045 10.843C18.5069 10.843 18.4277 10.9221 18.4277 11.0198C18.4277 11.1174 18.4948 11.2344 18.8457 11.2085C19.0159 11.1958 19.1608 11.2736 19.1608 11.2736C19.1384 11.1805 19.2344 11.0259 19.2344 11.0259Z" fill="#FF4B55"/>
<path d="M18.9886 11.1033C18.9886 11.1033 18.6253 11.1286 18.5454 11.0697C18.4718 11.0155 18.491 10.929 18.5664 10.9206C18.6799 10.908 18.9886 11.1033 18.9886 11.1033Z" fill="#FFE15A"/>
<path d="M19.6955 11.515L18.8921 12.0171L18.8 11.9278L19.2408 11.501L19.344 11.5429L19.4444 11.409L19.2045 11.2834C19.2045 11.2834 18.5684 11.8832 18.0273 11.9334C17.8452 11.9503 17.6597 11.9384 17.515 11.8788L17.1904 12.3463L17.8711 12.9265L18.8698 12.8874L19.6955 11.766L19.8405 11.833L19.9632 11.6879L19.6955 11.515Z" fill="#B49B91"/>
<path d="M17.4571 12.867C17.2336 12.867 17.0518 12.6852 17.0518 12.4618C17.0518 12.2383 17.2336 12.0564 17.4571 12.0564C17.6805 12.0564 17.8624 12.2382 17.8624 12.4618C17.8624 12.6852 17.6805 12.867 17.4571 12.867ZM17.4571 12.1903C17.3075 12.1903 17.1857 12.3121 17.1857 12.4618C17.1857 12.6114 17.3075 12.7331 17.4571 12.7331C17.6068 12.7331 17.7285 12.6114 17.7285 12.4618C17.7285 12.3121 17.6068 12.1903 17.4571 12.1903Z" fill="#9B8278"/>
<path d="M19.1462 13.2425C19.1462 13.2425 19.2206 13.1941 19.295 12.9673L19.1425 12.9896C19.1425 12.9896 19.1722 12.8631 19.1388 12.7701L18.9677 12.904C18.9677 12.904 18.8896 12.7404 18.8561 12.7181C18.8561 12.7181 18.7371 12.8855 18.6702 12.9078C18.6702 12.9078 18.6032 12.666 18.5362 12.6177L18.4209 12.7813L18.2498 12.6474C18.2498 12.6474 18.2498 12.7627 18.2461 12.7887C18.2424 12.8147 18.023 12.5581 18.023 12.5581C18.023 12.5581 17.9263 12.599 17.7961 12.8073L17.6325 12.6399L17.5655 12.8594L17.3386 12.7998L17.3758 12.93L17.1787 12.9151C17.1787 12.9151 17.2122 13.1086 17.3089 13.1755L19.1462 13.2425Z" fill="#73AF00"/>
<path d="M17.1745 14.0701C17.1745 14.0701 16.5609 14.8511 15.4004 14.7619L16.6613 14.9349L17.3085 14.3212L17.1745 14.0701Z" fill="#73AF00"/>
<path d="M15.1729 14.6447C15.2956 14.734 16.0544 14.9516 16.6011 14.6894C16.6011 14.6894 16.6123 14.8177 16.5509 14.8902C16.5509 14.8902 16.9526 14.7284 17.1702 14.4271C17.3878 14.1259 16.7183 15.0743 16.7183 15.0743L15.6918 15.264L15.2733 14.9182L15.1729 14.6447Z" fill="#FFE15A"/>
<path d="M15.0922 11.8321C14.9559 11.8435 14.8085 11.9256 14.7331 12.0253C14.692 12.0078 14.6008 12.0001 14.5251 12.0505C14.4245 12.1176 14.2384 12.3601 14.0822 12.2959C14.0822 12.2959 14.0682 12.5247 14.3109 12.5163C14.3109 12.5163 14.2496 12.6111 14.2607 12.7618C14.2719 12.9124 14.1631 13.0128 14.1631 13.0128C14.1631 13.0128 14.654 13.0826 14.6736 12.7004C14.676 12.6537 14.6783 12.6126 14.6806 12.5759C14.9368 12.7142 15.0377 12.5189 15.0377 12.5189C15.0377 12.5189 14.8837 12.3735 15.0404 12.1664C15.1971 11.9593 15.6279 12.4475 15.6279 12.4475C15.6362 12.2521 15.6187 11.7878 15.0922 11.8321Z" fill="#FFE15A"/>
<path d="M16.9894 13.1198C16.9894 13.1198 16.848 13.2165 16.4091 13.1272C16.4091 13.1272 16.5059 12.9115 16.4612 12.785C16.4612 12.785 16.3422 12.8966 16.0521 13.0082C15.762 13.1198 15.4049 13.4768 15.3008 13.7075C15.3008 13.7075 15.9533 12.2034 15.4291 12.0505C15.2494 11.998 15.0947 12.083 15.04 12.1664C15.0664 12.1977 15.0918 12.2421 15.0944 12.3015C15.1 12.4299 14.9717 13.2946 14.782 13.8915C14.782 13.8915 14.7262 13.6851 14.6369 13.5847C14.5477 13.4843 14.4807 13.3225 14.4807 13.3225C14.4807 13.3225 14.33 13.4229 14.3523 13.607C14.3523 13.607 14.2687 13.5401 14.1069 13.5847C13.945 13.6293 13.8837 13.5233 13.8837 13.5233C13.8837 13.5233 13.7498 13.8804 14.1459 14.0645C14.1459 14.0645 14.0399 14.1147 13.9897 14.1538C13.9395 14.1928 13.8613 14.1928 13.8613 14.1928C13.8613 14.1928 14.0008 14.4494 14.2965 14.4773C14.5922 14.5052 14.7281 14.5896 14.8209 14.7414C15.1222 15.2343 15.6987 15.608 16.6397 15.0315C16.6397 15.0315 15.3008 15.4481 15.2412 14.5926C15.1891 13.8443 16.0074 13.6926 16.0892 13.8562C16.1711 14.0198 16.0818 14.1612 16.0818 14.1612C16.0818 14.1612 16.5281 14.0571 16.3124 13.6479C16.3124 13.6479 16.7513 13.7149 16.9894 13.1198Z" fill="#73AF00"/>
<path d="M21.2871 14.6447C21.1644 14.734 20.3888 15.0688 19.8532 14.5332C19.3176 13.9976 19.1088 13.1934 19.1391 13.2834H18.6035L18.7821 14.8903L20.7682 15.2641L21.1867 14.9182L21.2871 14.6447Z" fill="#73AF00"/>
<path d="M21.367 11.8321C21.5033 11.8435 21.6508 11.9256 21.7262 12.0253C21.7672 12.0078 21.8585 12.0001 21.9341 12.0505C22.0348 12.1176 22.2209 12.3601 22.3771 12.2959C22.3771 12.2959 22.3911 12.5247 22.1483 12.5163C22.1483 12.5163 22.2097 12.6111 22.1985 12.7618C22.1874 12.9124 22.2962 13.0128 22.2962 13.0128C22.2962 13.0128 21.8052 13.0826 21.7857 12.7004C21.7833 12.6537 21.7809 12.6126 21.7786 12.5759C21.5224 12.7142 21.4216 12.5189 21.4216 12.5189C21.4216 12.5189 21.5755 12.3735 21.4188 12.1664C21.2621 11.9593 20.8314 12.4475 20.8314 12.4475C20.823 12.2521 20.8405 11.7878 21.367 11.8321Z" fill="#73AF00"/>
<path d="M19.4688 13.1199C19.4688 13.1199 19.6101 13.2166 20.049 13.1273C20.049 13.1273 19.9523 12.9116 19.9969 12.7851C19.9969 12.7851 20.1159 12.8967 20.406 13.0083C20.6961 13.1199 21.0532 13.477 21.1573 13.7076C21.1573 13.7076 20.5048 12.2035 21.029 12.0506C21.2087 11.9981 21.3634 12.0832 21.4181 12.1665C21.3917 12.1978 21.3663 12.2422 21.3637 12.3016C21.3581 12.43 21.4864 13.2947 21.6761 13.8917C21.6761 13.8917 21.7319 13.6852 21.8212 13.5848C21.9104 13.4844 21.9774 13.3226 21.9774 13.3226C21.9774 13.3226 22.1281 13.423 22.1058 13.6071C22.1058 13.6071 22.1894 13.5402 22.3513 13.5848C22.5131 13.6294 22.5744 13.5235 22.5744 13.5235C22.5744 13.5235 22.7083 13.8805 22.3122 14.0646C22.3122 14.0646 22.4182 14.1148 22.4684 14.1539C22.5187 14.1929 22.5968 14.1929 22.5968 14.1929C22.5968 14.1929 22.4573 14.4496 22.1616 14.4775C21.8659 14.5053 21.73 14.5897 21.6372 14.7415C21.3359 15.2344 20.7594 15.6082 19.8184 15.0317C19.8184 15.0317 21.1574 15.4482 21.2169 14.5928C21.269 13.8444 20.4507 13.6927 20.3689 13.8563C20.287 14.02 20.3763 14.1613 20.3763 14.1613C20.3763 14.1613 19.93 14.0572 20.1457 13.6481C20.1457 13.6481 19.7068 13.715 19.4688 13.1199Z" fill="#FFE15A"/>
<path d="M19.0886 14.3696C19.3081 14.6895 19.613 14.9796 20.4982 15.2549C21.3835 15.5301 21.62 15.571 22.084 15.9462C22.084 15.9462 22.1721 16.0393 22.2058 16.1885C22.2454 16.3637 21.9752 16.8691 21.9752 16.8691C21.9752 16.8691 22.0012 16.7501 21.8376 16.5195C21.674 16.2889 20.7069 15.8723 20.2011 15.7459C19.6952 15.6194 18.8211 15.0327 19.0629 14.5928L19.0886 14.3696Z" fill="#73AF00"/>
<path d="M22.0828 15.9448C22.0831 15.9452 22.0833 15.9457 22.0836 15.9462C22.0831 15.9456 22.0826 15.9449 22.082 15.9443L22.0828 15.9448Z" fill="#73AF00"/>
<path d="M22.0609 17.0326C22.0609 17.0326 22.0832 17.1945 21.9493 17.3339C21.8154 17.4734 21.7206 17.5738 21.7261 17.6909C21.7261 17.6909 21.5253 17.5459 21.5587 17.2223C21.5587 17.2223 21.2965 17.4399 20.9004 17.2279C20.9004 17.2279 20.9394 16.8317 21.4527 16.7815C21.4527 16.7815 21.2519 16.6253 21.5141 16.3854C21.5141 16.3854 21.5445 16.4926 21.7819 16.5472C21.9883 16.5946 22.3556 16.3358 22.084 15.946C22.5518 16.4747 22.3119 16.8374 22.0609 17.0326Z" fill="#FFE15A"/>
<path d="M18.8965 14.0757C18.8965 14.0757 19.0096 14.2606 19.3038 14.4402C19.6571 14.6559 19.6888 14.7563 19.6888 14.7563L19.4489 14.7508C19.4489 14.7508 19.7557 14.9182 19.8394 15.1302C19.8394 15.1302 19.7111 15.1525 19.566 15.1134C19.566 15.1134 19.6832 15.2194 19.6274 15.5598H19.0305L18.8965 14.0757Z" fill="#FFE15A"/>
<path d="M17.7092 15.6045V14.1763C17.7092 14.1763 17.2244 15.0056 16.8057 15.6045H17.7092Z" fill="#73AF00"/>
<path d="M17.2923 14.1465C17.1733 14.3622 16.8013 15.0727 15.9161 15.3479C15.0309 15.6231 14.8691 15.5711 14.4051 15.9463C14.4051 15.9463 14.317 16.0393 14.2833 16.1885C14.2437 16.3637 14.5139 16.8692 14.5139 16.8692C14.5139 16.8692 14.4879 16.7502 14.6515 16.5195C14.8151 16.2889 15.7768 15.8481 16.288 15.7459C16.9951 15.6046 17.6349 14.8458 17.5307 14.3549C17.4266 13.8639 17.2923 14.1465 17.2923 14.1465Z" fill="#FFE15A"/>
<path d="M14.4042 15.9448C14.4038 15.9452 14.4036 15.9457 14.4033 15.9462C14.4039 15.9456 14.4044 15.9449 14.4049 15.9443L14.4042 15.9448Z" fill="#73AF00"/>
<path d="M14.4264 17.0328C14.4264 17.0328 14.4041 17.1946 14.538 17.334C14.6719 17.4735 14.7667 17.5739 14.7612 17.6911C14.7612 17.6911 14.962 17.546 14.9285 17.2224C14.9285 17.2224 15.1908 17.44 15.5869 17.228C15.5869 17.228 15.5479 16.8319 15.0346 16.7817C15.0346 16.7817 15.2354 16.6254 14.9732 16.3855C14.9732 16.3855 14.9427 16.4928 14.7054 16.5473C14.499 16.5948 14.1317 16.3359 14.4033 15.9462C13.9355 16.4748 14.1754 16.8375 14.4264 17.0328Z" fill="#73AF00"/>
<path d="M15.6641 19.4132C15.6641 19.4132 15.7905 19.9822 15.798 20.5699C15.798 20.5699 16.3522 20.5885 16.62 20.1719C16.62 20.1719 16.0844 19.893 15.798 19.3536L15.6641 19.4132Z" fill="#FFE15A"/>
<path d="M15.5454 18.1561C15.5231 17.8883 15.6421 17.2113 16.1851 16.7204L16.1984 16.1191C16.1984 16.1191 16.0367 16.1359 15.8932 16.2615L15.5863 16.7371L15.3018 17.8139L15.5454 18.1561Z" fill="#73AF00"/>
<path d="M15.5599 18.3494C15.5599 18.3494 15.5599 18.9222 15.7979 19.3536L15.664 19.4132C15.664 19.4132 15.1842 19.0357 15.0838 18.2602C15.0838 18.2602 14.6542 18.5447 14.4961 17.9626C14.4961 17.9626 14.9573 18.1486 15.1061 17.7246C15.2403 17.342 15.3759 16.6455 15.8928 16.2615C15.6471 16.639 15.2772 17.6055 15.5636 17.9477C15.6394 18.0383 15.8574 18.1151 16.096 18.0132C16.0804 18.2035 15.9897 18.4944 15.5599 18.3494Z" fill="#FFE15A"/>
<path d="M15.6296 19.5147L15.5512 19.3707C15.5376 19.3455 15.5468 19.314 15.5721 19.3003L15.7151 19.2225C15.7402 19.2088 15.7718 19.2181 15.7855 19.2433L15.8638 19.3873C15.8775 19.4125 15.8682 19.444 15.843 19.4578L15.7 19.5355C15.6748 19.5492 15.6433 19.5399 15.6296 19.5147Z" fill="#FFCE5A"/>
<path d="M20.4676 19.4132C20.4676 19.4132 20.3412 19.9822 20.3337 20.5699C20.3337 20.5699 19.7795 20.5885 19.5117 20.1719C19.5117 20.1719 20.0473 19.893 20.3337 19.3536L20.4676 19.4132Z" fill="#FFE15A"/>
<path d="M20.5867 18.1561C20.609 17.8883 20.4899 17.2113 19.9469 16.7204L19.9336 16.1191C19.9336 16.1191 20.0953 16.1359 20.2388 16.2615L20.5457 16.7371L20.8303 17.8139L20.5867 18.1561Z" fill="#FFE15A"/>
<path d="M20.0371 18.0132C20.2757 18.1151 20.4937 18.0383 20.5696 17.9477C20.856 17.6055 20.486 16.639 20.2404 16.2615C20.7572 16.6455 20.8928 17.3419 21.0271 17.7246C21.1758 18.1486 21.637 17.9626 21.637 17.9626C21.479 18.5447 21.0494 18.2602 21.0494 18.2602C20.949 19.0357 20.4692 19.4132 20.4692 19.4132L20.3352 19.3536C20.5733 18.9222 20.5733 18.3494 20.5733 18.3494C20.1435 18.4944 20.0527 18.2035 20.0371 18.0132Z" fill="#73AF00"/>
<path d="M20.5042 19.5147L20.5825 19.3707C20.5962 19.3455 20.587 19.314 20.5617 19.3003L20.4187 19.2225C20.3936 19.2088 20.362 19.2181 20.3483 19.2433L20.27 19.3873C20.2563 19.4125 20.2656 19.444 20.2908 19.4578L20.4338 19.5355C20.459 19.5492 20.4905 19.5399 20.5042 19.5147Z" fill="#FFCE5A"/>
<path d="M16.2811 15.4259C16.1825 15.4259 16.1025 15.5058 16.1025 15.6044V17.5683C16.1025 18.1039 16.2811 20.0677 18.0664 20.7819C19.8517 20.0677 20.0303 18.1039 20.0303 17.5683V15.6044C20.0303 15.5058 19.9503 15.4259 19.8517 15.4259H16.2811Z" fill="#4173CD"/>
<path d="M17.9588 15.4259L16.2656 18.6711C16.308 18.8212 16.3609 18.9765 16.4272 19.1334L18.067 15.9904L19.7068 19.1334C19.7732 18.9765 19.826 18.8211 19.8684 18.6711L18.1752 15.4259H17.9588Z" fill="#FFE15A"/>
<path d="M19.7064 19.1336L18.0666 15.9905L16.4268 19.1336C16.6968 19.7728 17.1856 20.4296 18.0666 20.782C18.9476 20.4296 19.4363 19.7728 19.7064 19.1336Z" fill="#73AF00"/>
<path d="M18.7302 19.337L18.8382 19.3888C18.7929 19.4557 18.6986 19.564 18.5184 19.662C18.3822 19.7361 18.2506 19.8238 18.1555 19.891V18.4177L18.6019 18.3718V18.1932L18.1555 18.1473V17.9254C18.1555 17.8761 18.1156 17.8362 18.0663 17.8362C18.0242 17.8362 17.9906 17.8659 17.9812 17.905C17.9515 17.8838 17.9171 17.8686 17.8779 17.8686C17.778 17.8686 17.6967 17.9499 17.6967 18.0498C17.6967 18.0969 17.7158 18.1389 17.7453 18.1712L17.5307 18.1933V18.3718L17.977 18.4177V19.8911C17.882 19.8239 17.7504 19.7361 17.6142 19.6621C17.434 19.564 17.3397 19.4557 17.2944 19.3888L17.4024 19.337L16.9951 18.8182V19.5323L17.1324 19.4665C17.1867 19.554 17.3016 19.6953 17.529 19.8189C17.7192 19.9225 17.9038 20.057 17.977 20.1121L18.0663 20.1814L18.1555 20.1121C18.2287 20.0571 18.4134 19.9225 18.6036 19.8189C18.8311 19.6953 18.9459 19.554 19.0002 19.4665L19.1375 19.5323V18.8182L18.7302 19.337ZM17.8779 18.1418C17.8272 18.1418 17.7859 18.1006 17.7859 18.0498C17.7859 17.9991 17.8272 17.9579 17.8779 17.9579C17.9286 17.9579 17.9699 17.9991 17.9699 18.0498C17.9699 18.1006 17.9286 18.1418 17.8779 18.1418Z" fill="#FFE15A"/>
<path d="M18.2168 17.7468H17.9165C17.8515 17.7468 17.7988 17.6942 17.7988 17.6291V17.1504C17.7988 17.0854 17.8515 17.0327 17.9165 17.0327H18.2168C18.2818 17.0327 18.3345 17.0854 18.3345 17.1504V17.6291C18.3345 17.6941 18.2818 17.7468 18.2168 17.7468Z" fill="#F5F5F5"/>
<path d="M19.3167 15.4259C18.9596 14.8903 18.9596 13.8191 18.9596 13.8191C18.9596 13.8191 18.9596 13.105 18.0669 13.105C17.6147 13.105 17.392 13.2882 17.282 13.4691C16.8535 13.6412 16.6387 13.9976 16.6387 13.9976C16.8213 14.0889 16.9827 14.1325 17.1291 14.1436C17.4201 14.49 17.5169 14.8244 17.5427 15.065C17.3751 15.2362 17.2821 15.649 17.5313 15.9615C17.5313 15.9615 18.0594 15.8388 18.5053 15.4259L19.3167 15.4259Z" fill="#B49B91"/>
<path d="M18.5078 15.426H19.1741C19.1406 15.0969 18.817 15.1499 18.5078 15.426Z" fill="#9B8278"/>
<path d="M19.1578 15.0891C18.9626 14.5352 18.9623 13.8193 18.9623 13.8193C18.9623 13.8193 18.9623 13.8077 18.9605 13.7877C18.728 13.7561 18.4901 13.7732 18.025 13.9532C17.5298 14.1449 17.2875 14.1504 17.1318 14.1439C17.4229 14.4902 17.5197 14.8247 17.5455 15.0652L17.5527 15.4447C17.5527 15.4447 17.8316 15.4856 18.4454 15.1323C18.7514 14.956 19.0109 14.941 19.1578 15.0891Z" fill="#9B8278"/>
<path d="M18.2076 13.7412C18.5697 13.6507 18.8008 13.66 18.9496 13.7129C18.9097 13.514 18.7458 13.1052 18.07 13.1052C17.6178 13.1052 17.3951 13.2885 17.285 13.4693L17.0137 13.8491C17.0137 13.8491 17.3531 13.9549 18.2076 13.7412Z" fill="#9B8278"/>
<path d="M17.4763 13.0269C17.5115 13.062 17.6163 13.3149 17.5947 13.3525C17.5807 13.3767 17.3014 13.4461 17.2561 13.4107C17.2157 13.3791 17.1684 13.1067 17.1955 13.0752C17.22 13.0468 17.4469 12.9977 17.4763 13.0269Z" fill="#FFE15A"/>
<path d="M17.8358 13.0135C17.8682 13.0506 17.9417 13.2979 17.9126 13.3294C17.8938 13.3497 17.5824 13.3743 17.5392 13.3354C17.5007 13.3006 17.4921 13.0435 17.5262 13.0184C17.557 12.9957 17.8087 12.9824 17.8358 13.0135Z" fill="#73AF00"/>
<path d="M18.176 13.0041C18.2096 13.0391 18.2863 13.2716 18.2562 13.3011C18.2369 13.3201 17.9148 13.3425 17.87 13.3058C17.83 13.2731 17.8206 13.0315 17.8557 13.008C17.8875 12.9868 18.148 12.9749 18.176 13.0041Z" fill="#FFE15A"/>
<path d="M18.5226 13.0201C18.5523 13.0583 18.6084 13.3022 18.5772 13.3305C18.5571 13.3487 18.2449 13.3495 18.2045 13.3087C18.1684 13.2724 18.1778 13.0237 18.2135 13.0021C18.2458 12.9825 18.4978 12.9881 18.5226 13.0201Z" fill="#73AF00"/>
<path d="M19.2357 13.1679C19.2587 13.2106 19.2565 13.4372 19.221 13.4599C19.1982 13.4745 18.917 13.4243 18.8839 13.3775C18.8544 13.3357 18.9047 13.092 18.9435 13.0765C18.9786 13.0625 19.2165 13.1324 19.2357 13.1679Z" fill="#73AF00"/>
<path d="M18.9068 13.0715C18.9351 13.1102 18.9565 13.3377 18.9225 13.3617C18.9006 13.3772 18.5789 13.3508 18.5399 13.3087C18.5051 13.2711 18.5306 13.0367 18.5687 13.0192C18.6032 13.0035 18.8833 13.0391 18.9068 13.0715Z" fill="#FFE15A"/>
<path d="M17.5646 12.4044C17.6156 12.5142 17.509 12.6209 17.3992 12.5699C17.3769 12.5595 17.3584 12.5411 17.3481 12.5188C17.2971 12.409 17.4038 12.3023 17.5135 12.3533C17.5359 12.3637 17.5543 12.3821 17.5646 12.4044Z" fill="#9B8278"/>
<path d="M4.42688 0H0.00585938V0.936413L4.42688 3.83293V0Z" fill="#41479B"/>
<path d="M0.00585938 3.20154V4.42107H1.86725L0.00585938 3.20154Z" fill="#41479B"/>
<path d="M0.00585938 7.57898V8.79851L1.86725 7.57898H0.00585938Z" fill="#41479B"/>
<path d="M12.006 0.936413V0H7.58496V3.83293L12.006 0.936413Z" fill="#41479B"/>
<path d="M12.0059 8.79851V7.57898H10.1445L12.0059 8.79851Z" fill="#41479B"/>
<path d="M7.58496 8.16699V11.9999H12.006V11.0635L7.58496 8.16699Z" fill="#41479B"/>
<path d="M12.0059 4.42107V3.20154L10.1445 4.42107H12.0059Z" fill="#41479B"/>
<path d="M0.00585938 11.0635V11.9999H4.42688V8.16699L0.00585938 11.0635Z" fill="#41479B"/>
<path d="M12.0057 11.0636V10.1278L8.0791 7.57898H9.23915L12.0057 9.37479V8.79851L10.1443 7.57898H12.0057V6.94739H6.95312V12H7.58467V8.16706L12.0057 11.0636Z" fill="#F5F5F5"/>
<path d="M0.00585938 6.94739V7.57898H1.86725L0.00585938 8.79851V9.68449L3.24944 7.57898H4.40949L0.00585938 10.4375V11.0636L4.42688 8.16706V12H5.05842V6.94739H0.00585938Z" fill="#F5F5F5"/>
<path d="M5.05842 0H4.42688V3.83293L0.00585938 0.936413V1.96118L3.79529 4.42102H2.63524L0.00585938 2.71422V3.20148L1.86725 4.42102H0.00585938V5.05261H5.05842V0Z" fill="#F5F5F5"/>
<path d="M12.0057 5.05261V4.42102H10.1443L12.0057 3.20148V2.30421L8.74472 4.42102H7.58467L12.0057 1.55122V0.936413L7.58467 3.83293V0H6.95312V5.05261H12.0057Z" fill="#F5F5F5"/>
<path d="M12.0057 6.94728V5.05261H6.95318V0H5.05842V5.05261H0.00585938V6.94728H5.05842V11.9999H6.95318V6.94728H12.0057Z" fill="#FF4B55"/>
<path d="M3.24944 7.57898L0.00585938 9.68449V10.4375L4.40949 7.57898H3.24944Z" fill="#FF4B55"/>
<path d="M8.08008 7.57898L12.0067 10.1278V9.37479L9.24013 7.57898H8.08008Z" fill="#FF4B55"/>
<path d="M3.79529 4.42114L0.00585938 1.9613V2.71434L2.63524 4.42114H3.79529Z" fill="#FF4B55"/>
<path d="M8.74501 4.42107L12.006 2.30426V1.55127L7.58496 4.42107H8.74501Z" fill="#FF4B55"/>
</g>
<defs>
<clipPath id="clip0_8615_27606">
<path d="M0 2C0 0.895432 0.895431 0 2 0H21.9998C23.1043 0 23.9998 0.895431 23.9998 2V21.9998C23.9998 23.1043 23.1043 23.9998 21.9998 23.9998H2C0.895432 23.9998 0 23.1043 0 21.9998V2Z" fill="white"/>
</clipPath>
</defs>
</svg>
