<svg width="24" height="24" viewBox="0 0 24 24" fill="none" xmlns="http://www.w3.org/2000/svg">
<g clip-path="url(#clip0_8615_27667)">
<path d="M11.22 0H0.00195312V23.9998H11.22V0Z" fill="#F5F5F5"/>
<path d="M24.0023 0H6.14258C6.15927 0 6.17586 0.00248435 6.1918 0.00740618L10.0113 1.17449C10.1704 1.22305 10.1703 1.44833 10.0112 1.49684L6.69612 2.50619C6.53698 2.55471 6.53689 2.77989 6.69598 2.82855L10.0114 3.84174C10.1705 3.89031 10.1703 4.11559 10.0112 4.16401L6.69612 5.17345C6.53698 5.22196 6.53689 5.44715 6.69598 5.49581L10.0114 6.509C10.1705 6.55756 10.1703 6.78284 10.0112 6.83126L6.69715 7.84024C6.53792 7.8888 6.53792 8.11417 6.69715 8.16264L10.0112 9.17166C10.1704 9.22018 10.1705 9.44536 10.0114 9.49402L6.69598 10.5072C6.53689 10.5559 6.53703 10.7811 6.69612 10.8296L10.0112 11.8389C10.1704 11.8873 10.1705 12.1126 10.0114 12.1613L6.69598 13.1745C6.53689 13.2231 6.53703 13.4483 6.69612 13.4968L10.0112 14.5062C10.1704 14.5546 10.1705 14.7799 10.0114 14.8284L6.69598 15.8416C6.53689 15.8903 6.53703 16.1156 6.69612 16.164L10.0112 17.1734C10.1703 17.2218 10.1704 17.4471 10.0113 17.4957L6.69593 18.5088C6.53684 18.5574 6.53698 18.7826 6.69607 18.8311L10.0102 19.8404C10.1694 19.8888 10.1694 20.1142 10.0102 20.1626L6.69607 21.1718C6.53693 21.2202 6.53684 21.4455 6.69593 21.4941L10.0113 22.5073C10.1704 22.5558 10.1703 22.7811 10.0112 22.8295L6.19166 23.9925C6.17577 23.9974 6.15922 23.9999 6.14258 23.9999H24.0023V0Z" fill="#873250"/>
</g>
<defs>
<clipPath id="clip0_8615_27667">
<path d="M0 2C0 0.895428 0.895431 0 2 0H21.9999C23.1044 0 23.9999 0.895431 23.9999 2V21.9999C23.9999 23.1044 23.1044 23.9999 21.9999 23.9999H2C0.895428 23.9999 0 23.1044 0 21.9999V2Z" fill="white"/>
</clipPath>
</defs>
</svg>
