<svg width="24" height="24" viewBox="0 0 24 24" fill="none" xmlns="http://www.w3.org/2000/svg">
<g clip-path="url(#clip0_8615_27495)">
<path d="M24.0017 0H0.00195312V23.9998H24.0017V0Z" fill="#F5F5F5"/>
<path d="M22.6229 6.62947C22.5427 6.60121 22.4534 6.64278 22.4249 6.72402C22.3225 7.01319 22.2116 7.27226 22.0967 7.51713C21.8042 7.80649 21.44 8.0223 21.0885 8.08619C20.5196 8.18964 20.2437 8.4655 20.2437 8.4655C19.2438 8.17239 19.0541 8.72411 18.8299 8.96551C18.7044 9.1007 18.5417 9.14757 18.395 9.14907C17.8594 8.85695 17.4987 8.50089 17.492 8.49433C17.4318 8.4333 17.3332 8.43292 17.2726 8.49311C17.2116 8.5533 17.2112 8.6515 17.2714 8.71253C17.3168 8.75851 18.189 9.62302 19.308 9.80278C18.9832 9.89841 18.7437 9.96549 18.7437 9.96549C18.7437 9.96549 18.3817 9.96549 17.2955 10.8448C16.2092 11.7241 15.4506 11.8103 14.9679 11.7931C14.4851 11.7758 14.1231 11.6034 13.6058 12C13.0886 12.3965 12.4162 12.3276 12.0024 12.3276C11.5886 12.3276 10.9162 12.3965 10.399 12C9.88174 11.6034 9.51963 11.7758 9.03687 11.7931C8.55416 11.8103 7.79549 11.7241 6.70931 10.8448C5.62314 9.96549 5.26103 9.96549 5.26103 9.96549C5.26103 9.96549 5.02164 9.89841 4.6968 9.80278C5.81575 9.62302 6.68794 8.75856 6.73341 8.71253C6.79359 8.6515 6.79322 8.5533 6.73219 8.49311C6.67158 8.43292 6.57296 8.4333 6.51277 8.49433C6.50607 8.50094 6.14537 8.857 5.60978 9.14907C5.46306 9.14757 5.30036 9.10065 5.17483 8.96551C4.95068 8.72411 4.76102 8.17239 3.76105 8.4655C3.76105 8.4655 3.48519 8.18964 2.91623 8.08619C2.56476 8.0223 2.20055 7.80649 1.9081 7.51713C1.79321 7.27226 1.68225 7.01314 1.57983 6.72402C1.55133 6.64278 1.46204 6.60116 1.38184 6.62947C1.30102 6.65816 1.2586 6.74666 1.28729 6.82747C1.29038 6.83624 1.29395 6.84364 1.29709 6.85241C1.31223 6.93172 1.62699 8.51973 2.77832 9.62068C3.58916 10.396 4.37557 11.5791 4.70937 12.2413C5.79554 14.3965 7.86449 17.293 12.0024 17.293C16.1403 17.293 18.2092 14.3965 19.2954 12.2413C19.6292 11.5791 20.4156 10.396 21.2265 9.62068C22.3778 8.51973 22.6925 6.93172 22.7077 6.85241C22.7108 6.84369 22.7143 6.83624 22.7175 6.82747C22.7462 6.74666 22.7038 6.65816 22.6229 6.62947Z" fill="#FF4B55"/>
</g>
<defs>
<clipPath id="clip0_8615_27495">
<path d="M0 2C0 0.895432 0.895431 0 2 0H21.9998C23.1043 0 23.9998 0.895431 23.9998 2V21.9998C23.9998 23.1043 23.1043 23.9998 21.9998 23.9998H2C0.895432 23.9998 0 23.1043 0 21.9998V2Z" fill="white"/>
</clipPath>
</defs>
</svg>
