<svg width="24" height="24" viewBox="0 0 24 24" fill="none" xmlns="http://www.w3.org/2000/svg">
<g clip-path="url(#clip0_8615_27494)">
<path d="M24.0017 0H0.00195312V23.9998H24.0017V0Z" fill="#FF4B55"/>
<path d="M9.838 9.71156C9.83762 9.71194 9.8372 9.71217 9.83678 9.71255L0.635494 0H0.00390625V4.1379L9.36527 10.2712C9.50022 10.0656 9.66011 9.87998 9.838 9.71156Z" fill="#FFE15A"/>
<path d="M8.87852 12.3234C8.86737 12.2155 8.8459 12.1107 8.8459 11.9999C8.8459 11.8891 8.86737 11.7843 8.87852 11.6764L8.87848 11.6766L0.00390625 10.7585V13.2413L8.87848 12.3232L8.87852 12.3234Z" fill="#FFE15A"/>
<path d="M12.0041 8.84204C12.1722 8.84204 12.3339 8.86618 12.4949 8.89149L13.8988 0H10.1094L11.5133 8.89149C11.6743 8.86613 11.836 8.84204 12.0041 8.84204Z" fill="#FFE15A"/>
<path d="M14.1689 9.71156C14.3468 9.87998 14.5067 10.0657 14.6417 10.2712L24.003 4.1379V0H23.3714L14.1701 9.7125C14.1697 9.71217 14.1693 9.71189 14.1689 9.71156Z" fill="#FFE15A"/>
<path d="M14.6417 13.7286C14.5068 13.9342 14.3469 14.1199 14.1689 14.2883C14.1693 14.2879 14.1697 14.2877 14.1702 14.2873L23.3715 23.9998H24.0031V19.8619L14.6417 13.7286Z" fill="#FFE15A"/>
<path d="M15.1289 11.6764C15.1401 11.7843 15.1615 11.8891 15.1615 11.9999C15.1615 12.1107 15.1401 12.2155 15.1289 12.3234L15.129 12.3232L24.0035 13.2413V10.7585L15.129 11.6766L15.1289 11.6764Z" fill="#FFE15A"/>
<path d="M12.0041 15.1577C11.836 15.1577 11.6743 15.1336 11.5133 15.1083L10.1094 23.9998H13.8988L12.4949 15.1083C12.3339 15.1336 12.1722 15.1577 12.0041 15.1577Z" fill="#FFE15A"/>
<path d="M9.838 14.2883C9.66011 14.1199 9.50022 13.9342 9.36522 13.7286L0.00390625 19.8619V23.9998H0.635494L9.83682 14.2873C9.8372 14.2877 9.83762 14.2879 9.838 14.2883Z" fill="#FFE15A"/>
<path d="M12.0038 13.6551C12.9179 13.6551 13.6589 12.9141 13.6589 12C13.6589 11.0859 12.9179 10.3448 12.0038 10.3448C11.0897 10.3448 10.3486 11.0859 10.3486 12C10.3486 12.9141 11.0897 13.6551 12.0038 13.6551Z" fill="#FFE15A"/>
</g>
<defs>
<clipPath id="clip0_8615_27494">
<path d="M0 2C0 0.895432 0.895431 0 2 0H21.9998C23.1043 0 23.9998 0.895431 23.9998 2V21.9998C23.9998 23.1043 23.1043 23.9998 21.9998 23.9998H2C0.895432 23.9998 0 23.1043 0 21.9998V2Z" fill="white"/>
</clipPath>
</defs>
</svg>
