<svg width="24" height="24" viewBox="0 0 24 24" fill="none" xmlns="http://www.w3.org/2000/svg">
<g clip-path="url(#clip0_8615_27558)">
<path d="M24.004 0H16.0039V23.9998H24.004V0Z" fill="#FF4B55"/>
<path d="M16.004 0H8.00391V23.9998H16.004V0Z" fill="#FFE15A"/>
<path d="M8.00398 0H0.00390625V23.9998H8.00398V0Z" fill="#41479B"/>
<path d="M13.4699 14.8364L13.6758 14.6686L12.7378 13.5182L12.5319 13.686L13.4699 14.8364Z" fill="#FFCD5A"/>
<path d="M12.8412 14.276L13.2529 13.9406L12.8403 13.4341L12.4286 13.7695L12.8412 14.276Z" fill="#FFBE5A"/>
<path d="M11.5906 13.6856L11.3848 13.5178L10.4468 14.6682L10.6526 14.8361L11.5906 13.6856Z" fill="#FFCD5A"/>
<path d="M11.693 13.7694L11.2812 13.434L10.8686 13.9405L11.2804 14.2759L11.693 13.7694Z" fill="#FFBE5A"/>
<path d="M11.7294 13.9492L11.0654 15.277L11.9949 15.9409V14.082L11.7294 13.9492Z" fill="#FFE15A"/>
<path d="M12.2597 13.9492L12.9236 15.277L11.9941 15.9409V14.082L12.2597 13.9492Z" fill="#FFCD5A"/>
<path d="M10.1357 13.9493V10.4969H10.5341C10.5341 10.4969 10.5341 12.7542 10.5341 13.1526C10.5341 13.5509 10.1357 13.9493 10.1357 13.9493Z" fill="#FFBE5A"/>
<path d="M9.87012 14.6131V10.4969H10.2685C10.2685 10.4969 10.2685 13.4181 10.2685 13.8165C10.2685 14.2148 9.87012 14.6131 9.87012 14.6131Z" fill="#FFCD5A"/>
<path d="M9.60449 15.1443V10.4969H10.0028C10.0028 10.4969 10.0028 13.9493 10.0028 14.3476C10.0028 14.7459 9.60449 15.1443 9.60449 15.1443Z" fill="#FFE15A"/>
<path d="M10.5342 10.6298C10.5342 10.6298 10.5342 12.5219 10.5342 13.1526C10.5342 13.8165 11.4968 13.728 11.9948 14.2148C12.4927 13.7279 13.4554 13.8165 13.4554 13.1526C13.4554 12.5219 13.4554 10.6298 13.4554 10.6298H10.5342Z" fill="#FF4B55"/>
<path d="M10.5342 12.0903C10.5342 12.5107 10.5342 12.9185 10.5342 13.1526C10.5342 13.8164 11.4968 13.7279 11.9948 14.2148C12.4927 13.7279 13.4554 13.8164 13.4554 13.1526C13.4554 12.9185 13.4554 12.5107 13.4554 12.0903H10.5342Z" fill="#41479B"/>
<path d="M11.9979 13.8166L11.5995 13.551V13.4182L11.7323 13.2855V12.4888L11.334 12.2232L11.7323 11.6921H11.8651L11.9979 11.8249L12.1307 11.6921H12.2635L12.6618 12.2232L12.2635 12.4888V13.2855L12.3962 13.4182V13.551L11.9979 13.8166Z" fill="#FFE15A"/>
<path d="M11.4667 10.7627C11.4667 10.7627 10.9355 10.8955 10.9355 11.4266C10.9355 11.9577 11.4667 12.2233 11.4667 12.2233L11.7322 11.8249C10.9356 11.5594 11.4667 10.7627 11.4667 10.7627Z" fill="#FFE15A"/>
<path d="M12.5282 10.7627C12.5282 10.7627 13.0594 10.8955 13.0594 11.4266C13.0594 11.9577 12.5282 12.2233 12.5282 12.2233L12.2627 11.8249C13.0594 11.5594 12.5282 10.7627 12.5282 10.7627Z" fill="#FFE15A"/>
<path d="M10.6699 12.0904L10.9355 12.2232L11.2011 12.0904L10.9355 11.9576L10.6699 12.0904Z" fill="#FFE15A"/>
<path d="M12.7939 12.0904L13.0595 12.2232L13.3251 12.0904L13.0595 11.9576L12.7939 12.0904Z" fill="#FFE15A"/>
<path d="M11.997 10.8291L12.0936 10.928L12.2318 10.9263L12.2301 11.0645L12.329 11.1611L12.2301 11.2576L12.2318 11.3958L12.0936 11.3941L11.997 11.493L11.9004 11.3941L11.7623 11.3958L11.7639 11.2576L11.665 11.1611L11.7639 11.0645L11.7623 10.9263L11.9004 10.928L11.997 10.8291Z" fill="#FFE15A"/>
<path d="M11.0955 12.6703L11.1912 12.7768L11.3244 12.724C11.3933 12.6967 11.458 12.7717 11.4209 12.8358L11.3492 12.9598L11.4405 13.0701C11.4878 13.1272 11.4365 13.212 11.364 13.1965L11.2239 13.1666L11.1472 13.2876C11.1075 13.3502 11.0111 13.3276 11.0034 13.2539L10.9886 13.1114L10.8498 13.0758C10.778 13.0574 10.7697 12.9587 10.8375 12.9286L10.9684 12.8704L10.9593 12.7275C10.9546 12.6535 11.0459 12.6152 11.0955 12.6703Z" fill="#FFE15A"/>
<path d="M12.8648 12.9731C12.8941 12.822 13.0187 12.7151 13.164 12.699C13.1342 12.683 13.1025 12.6697 13.0676 12.6629C12.8816 12.6269 12.7016 12.7484 12.6655 12.9344C12.6295 13.1204 12.751 13.3004 12.937 13.3364C12.9719 13.3432 13.0062 13.3428 13.0399 13.3391C12.9111 13.2698 12.8355 13.1241 12.8648 12.9731Z" fill="#FFE15A"/>
<path d="M11.4658 10.6299L11.7313 9.30211L11.2002 8.90377L11.333 8.77098H11.5985C11.5985 8.77098 11.7313 8.63818 11.9969 8.63818C12.2624 8.63818 12.528 8.77098 12.528 9.16932C12.528 9.56766 12.6608 10.6299 12.6608 10.6299H11.4658Z" fill="#FFE15A"/>
<path d="M10.5341 10.0986C10.2407 10.0986 10.0029 10.3364 10.0029 10.6298H11.0652C11.0652 10.3364 10.8274 10.0986 10.5341 10.0986Z" fill="#FFAA5A"/>
<path d="M10.4041 10.6299H9.60742V9.74606C9.60742 9.57417 9.74678 9.43481 9.91867 9.43481H10.0929C10.2648 9.43481 10.4041 9.57417 10.4041 9.74606L10.4041 10.6299Z" fill="#FFBE5A"/>
<path d="M13.8563 13.9494V10.4971H13.458C13.458 10.4971 13.458 12.7544 13.458 13.1527C13.458 13.551 13.8563 13.9494 13.8563 13.9494Z" fill="#FFBE5A"/>
<path d="M14.119 14.6131V10.4969H13.7207C13.7207 10.4969 13.7207 13.4181 13.7207 13.8165C13.7207 14.2148 14.119 14.6131 14.119 14.6131Z" fill="#FFCD5A"/>
<path d="M14.3847 15.1443V10.4969H13.9863C13.9863 10.4969 13.9863 13.9493 13.9863 14.3476C13.9863 14.7459 14.3847 15.1443 14.3847 15.1443Z" fill="#FFE15A"/>
<path d="M13.4549 10.0986C13.7483 10.0986 13.9861 10.3364 13.9861 10.6298H12.9238C12.9238 10.3364 13.1616 10.0986 13.4549 10.0986Z" fill="#FFAA5A"/>
<path d="M13.5879 10.6298H14.3846V9.74594C14.3846 9.57405 14.2453 9.43469 14.0734 9.43469H13.8991C13.7272 9.43469 13.5879 9.57405 13.5879 9.74594V10.6298H13.5879Z" fill="#FFBE5A"/>
<path d="M15.1252 12.1419L14.9551 12.0383L13.0957 15.0918L13.2658 15.1954L15.1252 12.1419Z" fill="#FFAA5A"/>
<path d="M13.5033 15.0197L13.835 14.6049L13.5107 14.3457L13.1791 14.7606L13.5033 15.0197Z" fill="#FFE15A"/>
<path d="M15.181 12.1764L14.8975 12.0038L14.4992 12.6582L14.7827 12.8308L15.181 12.1764Z" fill="#FFCD5A"/>
<path d="M10.9817 15.0892L9.10742 12.1899L8.9959 12.262L10.8702 15.1613L10.9817 15.0892Z" fill="#73AF00"/>
<path d="M10.2869 13.5649C10.2392 13.6189 10.2077 13.7008 10.1997 13.7952C10.1342 13.7291 10.059 13.687 9.98894 13.6758C9.97047 13.7442 9.97797 13.8301 10.0114 13.917C9.92205 13.8855 9.83444 13.8807 9.76562 13.9019C9.78498 13.9998 9.86472 14.106 9.98692 14.1789C10.1091 14.2518 10.2405 14.2715 10.3358 14.2421L10.363 14.2245C10.4289 14.1497 10.4649 14.0218 10.4486 13.8804C10.4323 13.7391 10.3682 13.6228 10.2869 13.5649Z" fill="#73AF00"/>
<path d="M10.3515 14.3658C10.4249 14.3658 10.4843 14.3064 10.4843 14.233C10.4843 14.1597 10.4249 14.1002 10.3515 14.1002C10.2782 14.1002 10.2188 14.1597 10.2188 14.233C10.2188 14.3064 10.2782 14.3658 10.3515 14.3658Z" fill="#FF4B55"/>
<path d="M9.78394 12.7843C9.73632 12.8383 9.70472 12.9201 9.69675 13.0146C9.63127 12.9485 9.55608 12.9064 9.48601 12.8951C9.46754 12.9636 9.47504 13.0495 9.50846 13.1363C9.41912 13.1048 9.33151 13.1 9.2627 13.1213C9.28205 13.2191 9.36179 13.3254 9.48399 13.3983C9.60619 13.4712 9.73753 13.4909 9.83283 13.4615L9.86006 13.4438C9.92602 13.369 9.96197 13.2411 9.94566 13.0998C9.92935 12.9584 9.86522 12.8421 9.78394 12.7843Z" fill="#73AF00"/>
<path d="M9.84666 13.5854C9.92 13.5854 9.97946 13.526 9.97946 13.4526C9.97946 13.3793 9.92 13.3198 9.84666 13.3198C9.77332 13.3198 9.71387 13.3793 9.71387 13.4526C9.71387 13.526 9.77332 13.5854 9.84666 13.5854Z" fill="#FF4B55"/>
<path d="M9.28003 12.0038C9.23241 12.0578 9.20082 12.1396 9.19285 12.2341C9.12736 12.168 9.05218 12.1258 8.9821 12.1146C8.96363 12.1831 8.97113 12.269 9.00455 12.3558C8.91521 12.3243 8.8276 12.3195 8.75879 12.3408C8.77815 12.4386 8.85788 12.5449 8.98008 12.6177C9.10229 12.6907 9.23363 12.7104 9.32892 12.6809L9.35616 12.6633C9.42211 12.5885 9.45806 12.4606 9.44175 12.3193C9.42549 12.1779 9.36131 12.0616 9.28003 12.0038Z" fill="#73AF00"/>
<path d="M9.34276 12.8049C9.4161 12.8049 9.47555 12.7454 9.47555 12.6721C9.47555 12.5988 9.4161 12.5393 9.34276 12.5393C9.26942 12.5393 9.20996 12.5988 9.20996 12.6721C9.20996 12.7454 9.26942 12.8049 9.34276 12.8049Z" fill="#FF4B55"/>
<path d="M10.941 14.7609L10.6094 14.3461L10.2852 14.6052L10.6168 15.0201L10.941 14.7609Z" fill="#FFE15A"/>
<path d="M11.3291 8.37231H11.1963V9.30179H11.3291V8.37231Z" fill="#FFE15A"/>
<path d="M11.4618 8.50549H11.0635V8.63829H11.4618V8.50549Z" fill="#FFE15A"/>
<path d="M11.1982 8.90355L11.5966 9.20233V8.77075H11.331L11.1982 8.90355Z" fill="#FF875A"/>
<path d="M11.3312 8.37251V8.50531H11.4639V8.6381H11.3312V8.7709H11.5967C11.5967 8.7709 11.7295 8.6381 11.995 8.6381C12.2606 8.6381 12.5262 8.7709 12.5262 9.16924C12.5262 9.56758 12.659 10.6298 12.659 10.6298H12.9245C12.9245 10.3365 13.1623 10.0987 13.4556 10.0987C13.5018 10.0987 13.5457 10.1064 13.5884 10.1175V9.83317C13.5884 9.61319 13.7668 9.43483 13.9868 9.43483C14.2068 9.43483 14.3851 9.61319 14.3851 9.83317V10.4971V10.6298V12.9748L14.5566 12.6931L14.4999 12.6586L14.8982 12.0042L14.9549 12.0387V12.0386L15.04 12.0904L15.1818 12.1767L14.7835 12.8311L14.7267 12.7966L14.3851 13.3578V15.1443C14.3851 15.1443 14.068 14.8264 14.0002 14.4746C13.9517 14.4122 13.8958 14.3327 13.8466 14.2425L13.6947 14.4921L13.8359 14.605L13.5043 15.0199L13.4162 14.9495L13.2661 15.1961L13.096 15.0925L13.2594 14.8241L13.1801 14.7608L13.293 14.6195L12.9446 14.1922L12.8416 14.2761L12.5318 13.8959C12.4494 13.9291 12.3679 13.9654 12.2895 14.0071L12.9245 15.2771L11.995 15.941L11.0655 15.2771L11.7005 14.0071C11.6536 13.9822 11.606 13.9586 11.5573 13.9372L11.2811 14.2761L11.1782 14.1922L10.8298 14.6195L10.9427 14.7608L10.8299 14.8509L10.984 15.0893L10.8725 15.1614L10.7257 14.9342L10.6185 15.0199L10.2868 14.605L10.4358 14.4859L10.3569 14.3637C10.355 14.3638 10.3531 14.3638 10.3513 14.3638C10.3079 14.3638 10.2654 14.3445 10.2401 14.3053C10.2293 14.2887 10.2235 14.2705 10.2209 14.2521C10.1959 14.2506 10.1706 14.247 10.1442 14.2408C10.0949 14.3318 10.0386 14.4119 9.98984 14.4746C9.92201 14.8264 9.6049 15.1443 9.6049 15.1443V13.4507C9.56478 13.4381 9.52433 13.422 9.48453 13.3983C9.36233 13.3254 9.28264 13.2192 9.26324 13.1213C9.29117 13.1127 9.32216 13.1084 9.35516 13.1084C9.40344 13.1084 9.45589 13.1177 9.509 13.1364C9.4917 13.0914 9.48167 13.0468 9.47825 13.0047L9.34766 12.8026C9.34578 12.8027 9.34395 12.8027 9.34208 12.8027C9.29867 12.8027 9.2562 12.7834 9.23089 12.7442C9.22011 12.7276 9.2143 12.7094 9.21167 12.691C9.13817 12.6866 9.05764 12.6641 8.97993 12.6177C8.85772 12.5448 8.77804 12.4385 8.75863 12.3407C8.78657 12.3321 8.81755 12.3278 8.85055 12.3278C8.89883 12.3278 8.95129 12.3371 9.00439 12.3558C8.97102 12.2689 8.96347 12.183 8.98194 12.1146C9.05197 12.1258 9.12721 12.1679 9.19269 12.234C9.20066 12.1396 9.23225 12.0578 9.27988 12.0037C9.36116 12.0616 9.42528 12.1779 9.44159 12.3193C9.45195 12.4092 9.43944 12.4918 9.41323 12.5607C9.42894 12.5706 9.44309 12.5834 9.45387 12.6C9.48026 12.6409 9.47933 12.6899 9.45917 12.7305L9.58976 12.9325C9.59483 12.9353 9.59979 12.9387 9.60486 12.9418V10.6298V10.497V9.83307C9.60486 9.61309 9.78321 9.43473 10.0032 9.43473C10.2232 9.43473 10.4015 9.61309 10.4015 9.83307V10.1174C10.4442 10.1064 10.4882 10.0986 10.5343 10.0986C10.8277 10.0986 11.0655 10.3364 11.0655 10.6298H11.4638L11.7294 9.30194L11.5966 9.20233L11.331 9.00316V9.30194H11.1982V8.63806H11.0654V8.50526H11.1982V8.37246L11.3312 8.37251ZM13.4626 14.4073L13.5117 14.3459L13.5378 14.3668L13.7518 14.0152C13.7331 13.9502 13.7212 13.8835 13.7212 13.8166C13.7212 13.8101 13.7212 13.8011 13.7212 13.7932C13.6054 13.6408 13.4557 13.3969 13.4557 13.1526C13.4557 13.4323 13.284 13.578 13.0491 13.6899L13.2534 13.9406L13.1505 14.0245L13.4626 14.4073ZM10.5402 14.4026L10.6112 14.3459L10.6603 14.4072L10.9724 14.0245L10.8695 13.9406L11.0385 13.7333C10.7548 13.6148 10.5345 13.4697 10.5345 13.1526C10.5345 13.3304 10.4551 13.5079 10.3673 13.6503C10.409 13.7115 10.4405 13.7898 10.4509 13.8805C10.4613 13.9704 10.4488 14.053 10.4226 14.1219C10.4383 14.1318 10.4524 14.1446 10.4632 14.1612C10.4896 14.2021 10.4887 14.2511 10.4685 14.2917L10.5402 14.4026ZM11.3312 8.27295H11.1984C11.1434 8.27295 11.0987 8.31753 11.0987 8.37256V8.40575H11.0656C11.0106 8.40575 10.966 8.45032 10.966 8.50535V8.63815C10.966 8.69313 11.0105 8.73776 11.0656 8.73776H11.0987V9.30208C11.0987 9.35706 11.1433 9.40169 11.1984 9.40169H11.3312C11.3861 9.40169 11.4308 9.35711 11.4308 9.30208V9.20247L11.537 9.28216L11.6196 9.34408L11.3823 10.5303H11.1574C11.1095 10.2297 10.8484 9.99915 10.5345 9.99915C10.5235 9.99915 10.5124 9.99948 10.5013 10.0002V9.83317C10.5013 9.55862 10.278 9.33522 10.0034 9.33522C9.72879 9.33522 9.50544 9.55858 9.50544 9.83317V10.4971V10.6298V12.1569C9.46948 12.0577 9.41103 11.9748 9.33777 11.9227C9.32033 11.9103 9.30013 11.9042 9.28006 11.9042C9.25231 11.9042 9.22489 11.9158 9.2053 11.938C9.17464 11.9728 9.14942 12.0152 9.13063 12.063C9.08703 12.0393 9.04218 12.0234 8.99793 12.0163C8.99258 12.0155 8.98728 12.015 8.98203 12.015C8.93774 12.015 8.89785 12.0447 8.88599 12.0887C8.87432 12.1319 8.87043 12.1794 8.87408 12.2288C8.86626 12.2284 8.85847 12.2282 8.85074 12.2282C8.80761 12.2282 8.76683 12.2341 8.72943 12.2456C8.68068 12.2607 8.65119 12.3101 8.66108 12.3601C8.68682 12.4903 8.78699 12.6185 8.92902 12.7032C8.99455 12.7423 9.06571 12.7692 9.13794 12.7822C9.14085 12.7877 9.14399 12.7931 9.14736 12.7983C9.18008 12.8488 9.23131 12.8836 9.28995 12.8966L9.36252 13.0088C9.36008 13.0088 9.35769 13.0088 9.3553 13.0088C9.31217 13.0088 9.27139 13.0146 9.23399 13.0262C9.18528 13.0412 9.15575 13.0906 9.16569 13.1406C9.19142 13.2708 9.29159 13.3991 9.43362 13.4838C9.45636 13.4974 9.47994 13.5094 9.50544 13.5202V15.1443C9.50544 15.1846 9.52972 15.221 9.56698 15.2364C9.57926 15.2414 9.5922 15.2439 9.605 15.2439C9.63097 15.2439 9.65647 15.2337 9.67554 15.2146C9.68909 15.2011 10.0014 14.8846 10.0828 14.5172C10.1163 14.4732 10.1472 14.4288 10.1753 14.3844C10.2074 14.4214 10.2507 14.447 10.2992 14.4577L10.3035 14.4643L10.2248 14.5272C10.2041 14.5437 10.1909 14.5677 10.188 14.594C10.1851 14.6202 10.1927 14.6466 10.2092 14.6672L10.5408 15.0821C10.5573 15.1027 10.5813 15.1159 10.6076 15.1189C10.6112 15.1193 10.6149 15.1195 10.6186 15.1195C10.6411 15.1195 10.663 15.1119 10.6807 15.0977L10.7019 15.0808L10.789 15.2154C10.8033 15.2376 10.8258 15.2532 10.8517 15.2588C10.8586 15.2603 10.8656 15.261 10.8726 15.261C10.8916 15.261 10.9104 15.2555 10.9267 15.245L10.9911 15.2034L10.9765 15.2326C10.9546 15.2764 10.9678 15.3297 11.0076 15.3582L11.9371 16.0221C11.9544 16.0344 11.9747 16.0406 11.995 16.0406C12.0153 16.0406 12.0356 16.0344 12.0529 16.0221L12.9824 15.3582C13.0222 15.3297 13.0355 15.2764 13.0135 15.2326L12.423 14.0516C12.4481 14.0398 12.4742 14.0281 12.5015 14.0163L12.7644 14.3389C12.7841 14.3631 12.8128 14.3756 12.8417 14.3756C12.8638 14.3756 12.886 14.3683 12.9045 14.3533L12.9303 14.3323L13.165 14.6201L13.1023 14.6986C13.0858 14.7192 13.0782 14.7455 13.0811 14.7718C13.0841 14.798 13.0973 14.822 13.1179 14.8385L13.1288 14.8472L13.011 15.0407C12.9824 15.0877 12.9973 15.149 13.0443 15.1776L13.2144 15.2812C13.2301 15.2907 13.248 15.2957 13.2662 15.2957C13.2741 15.2957 13.2819 15.2948 13.2897 15.2929C13.3154 15.2866 13.3375 15.2705 13.3513 15.2479L13.4425 15.0979C13.4608 15.1124 13.4826 15.1194 13.5043 15.1194C13.5336 15.1194 13.5625 15.1066 13.5822 15.082L13.9138 14.6672C13.926 14.6519 13.933 14.6341 13.935 14.616C14.0432 14.9396 14.3024 15.2022 14.3147 15.2146C14.3337 15.2337 14.3592 15.2438 14.3852 15.2438C14.398 15.2438 14.411 15.2413 14.4232 15.2363C14.4605 15.2209 14.4848 15.1845 14.4848 15.1442V13.3856L14.763 12.9285C14.7698 12.9299 14.7766 12.9306 14.7834 12.9306C14.817 12.9306 14.8498 12.9136 14.8686 12.8828L15.2669 12.2284C15.2807 12.2058 15.2849 12.1787 15.2786 12.153C15.2724 12.1274 15.2562 12.1052 15.2336 12.0915L15.0919 12.0052L15.0068 11.9534L14.95 11.9189C14.9338 11.909 14.916 11.9044 14.8984 11.9044C14.8647 11.9044 14.8319 11.9214 14.8132 11.9522L14.4847 12.4918V10.6297V10.4969V9.83298C14.4847 9.55844 14.2614 9.33503 13.9868 9.33503C13.7122 9.33503 13.4888 9.55839 13.4888 9.83298V9.99999C13.4777 9.99929 13.4667 9.99896 13.4556 9.99896C13.1417 9.99896 12.8807 10.2294 12.8328 10.5301H12.7471C12.7158 10.2687 12.6257 9.49075 12.6257 9.1691C12.6257 8.70405 12.2999 8.5384 11.995 8.5384C11.7693 8.5384 11.6236 8.62446 11.5611 8.6712H11.5578C11.5615 8.66084 11.5635 8.64963 11.5635 8.63801V8.50521C11.5635 8.45023 11.5189 8.4056 11.4639 8.4056H11.4307V8.37242C11.4307 8.31753 11.3861 8.27295 11.3312 8.27295ZM10.4831 13.6501C10.5086 13.6052 10.5309 13.561 10.5499 13.5174C10.633 13.6287 10.7524 13.708 10.8795 13.7707L10.7923 13.8777C10.7756 13.8982 10.7678 13.9245 10.7704 13.9508C10.7731 13.9771 10.7861 14.0012 10.8066 14.0178L10.8323 14.0387L10.6548 14.2563C10.6447 14.2514 10.6337 14.2482 10.6223 14.2469C10.6186 14.2465 10.6149 14.2463 10.6113 14.2463C10.6014 14.2463 10.5915 14.2478 10.5821 14.2507C10.5867 14.2006 10.5748 14.1504 10.5469 14.1071C10.5435 14.1019 10.5399 14.0969 10.5361 14.092C10.5538 14.0208 10.5586 13.9449 10.5499 13.869C10.5408 13.7912 10.518 13.7166 10.4831 13.6501ZM13.2032 13.7215C13.2909 13.6703 13.3761 13.6055 13.4407 13.5185C13.4915 13.6346 13.5584 13.7402 13.6217 13.8264C13.6225 13.8819 13.63 13.939 13.6447 13.9996L13.4935 14.248C13.4848 14.2496 13.4762 14.2524 13.4681 14.2563L13.2906 14.0388L13.3163 14.0179C13.3368 14.0012 13.3498 13.9771 13.3525 13.9508C13.3551 13.9245 13.3473 13.8983 13.3306 13.8778L13.2032 13.7215ZM11.2812 14.3757C11.3101 14.3757 11.3387 14.3632 11.3584 14.339L11.5263 14.1329L11.0718 15.042C11.0706 15.0397 11.0692 15.0375 11.0678 15.0352L10.9625 14.8725L11.005 14.8385C11.0256 14.822 11.0388 14.798 11.0417 14.7718C11.0447 14.7455 11.0371 14.7192 11.0206 14.6986L10.9578 14.6201L11.1925 14.3323L11.2183 14.3533C11.2368 14.3683 11.2591 14.3757 11.2812 14.3757ZM13.8253 14.4691L13.847 14.4334C13.8661 14.4615 13.8862 14.4894 13.9073 14.5172C13.9092 14.5256 13.9112 14.534 13.9132 14.5423C13.9088 14.5368 13.9038 14.5318 13.8981 14.5273L13.8253 14.4691Z" fill="#FFAA5A"/>
</g>
<defs>
<clipPath id="clip0_8615_27558">
<path d="M0 2C0 0.895432 0.895431 0 2 0H21.9998C23.1043 0 23.9998 0.895431 23.9998 2V21.9998C23.9998 23.1043 23.1043 23.9998 21.9998 23.9998H2C0.895432 23.9998 0 23.1043 0 21.9998V2Z" fill="white"/>
</clipPath>
</defs>
</svg>
