<svg width="24" height="24" viewBox="0 0 24 24" fill="none" xmlns="http://www.w3.org/2000/svg">
<g clip-path="url(#clip0_8615_27604)">
<path d="M24.0027 0H0.00292969V23.9998H24.0027V0Z" fill="#F5F5F5"/>
<path d="M14.2995 8.55619C12.3982 7.28861 9.83004 7.8069 8.56331 9.70494C7.92792 10.6523 8.18615 11.9396 9.13682 12.5734C10.0867 13.2072 11.3699 12.9498 12.0037 11.9991C12.6375 11.0485 13.9215 10.7943 14.8714 11.4248C15.8229 12.0586 16.0787 13.3459 15.4441 14.2933C16.7117 12.3919 16.1993 9.82377 14.2995 8.55619Z" fill="#FF4B55"/>
<path d="M8.56347 9.70496C7.92809 10.6523 8.18632 11.9397 9.13698 12.5734C10.0869 13.2072 11.3701 12.9498 12.0039 11.9991C12.6377 11.0485 13.9217 10.7943 14.8716 11.4248C15.823 12.0586 16.0789 13.3459 15.4443 14.2933C14.1784 16.1979 11.6111 16.7096 9.70974 15.442C7.81006 14.1745 7.29594 11.6063 8.56347 9.70496Z" fill="#41479B"/>
<path d="M16.4037 6.99318L17.1554 8.12291C17.2185 8.21783 17.1929 8.34598 17.0982 8.4094L16.9076 8.53704C16.8125 8.6007 16.6838 8.5751 16.6203 8.47985L15.8678 7.35037C15.8044 7.25535 15.8301 7.12696 15.925 7.06359L16.1166 6.93571C16.2118 6.8722 16.3404 6.89798 16.4037 6.99318Z" fill="#464655"/>
<path d="M17.5631 8.73518L18.3172 9.86425C18.3809 9.95959 18.3549 10.0885 18.2592 10.1518L18.0678 10.2783C17.9728 10.3411 17.8449 10.3153 17.7817 10.2206L17.028 9.09279C16.9646 8.99782 16.9901 8.86934 17.0851 8.80582L17.2761 8.67814C17.3711 8.61458 17.4997 8.64012 17.5631 8.73518Z" fill="#464655"/>
<path d="M17.2088 6.45619L19.1226 9.32838C19.1859 9.42344 19.1602 9.55187 19.0652 9.61525L18.8729 9.74345C18.7778 9.80682 18.6494 9.78114 18.586 9.68608L16.6715 6.81412C16.6081 6.71901 16.6338 6.59048 16.729 6.52715L16.9219 6.39876C17.017 6.33539 17.1454 6.36112 17.2088 6.45619Z" fill="#464655"/>
<path d="M18.0118 5.91991L18.765 7.05188C18.8285 7.14722 18.8024 7.27599 18.7069 7.33913L18.5153 7.46574C18.4202 7.52855 18.2923 7.50272 18.2291 7.40789L17.4752 6.27742C17.4118 6.18236 17.4375 6.05387 17.5326 5.9905L17.7247 5.86244C17.8198 5.79897 17.9484 5.82475 18.0118 5.91991Z" fill="#464655"/>
<path d="M19.1717 7.6655L19.9239 8.79513C19.9871 8.8901 19.9615 9.01835 19.8666 9.08177L19.6756 9.2095C19.5805 9.27311 19.4518 9.24742 19.3884 9.15217L18.6363 8.02254C18.573 7.92758 18.5986 7.79933 18.6935 7.73591L18.8845 7.60817C18.9796 7.54457 19.1083 7.57025 19.1717 7.6655Z" fill="#464655"/>
<path d="M6.22306 13.7803L8.13666 16.6494C8.20004 16.7445 8.1744 16.8729 8.07943 16.9363L7.88776 17.0643C7.7927 17.1278 7.66417 17.1021 7.60075 17.007L5.68714 14.1379C5.62377 14.0429 5.64936 13.9145 5.74437 13.851L5.93604 13.7231C6.03115 13.6596 6.15964 13.6853 6.22306 13.7803Z" fill="#464655"/>
<path d="M5.41926 14.317L6.17052 15.4439C6.2338 15.5388 6.2083 15.6671 6.11347 15.7306L5.92288 15.8582C5.82787 15.9218 5.69924 15.8963 5.63573 15.8012L4.88349 14.6745C4.82002 14.5795 4.84566 14.451 4.94067 14.3876L5.1322 14.2597C5.22731 14.1962 5.35584 14.2219 5.41926 14.317Z" fill="#464655"/>
<path d="M6.58053 16.0595L7.33272 17.1892C7.39595 17.2842 7.37036 17.4125 7.27549 17.4759L7.08433 17.6037C6.98922 17.6673 6.8606 17.6416 6.79718 17.5464L6.04452 16.4169C5.98119 16.3219 6.00683 16.1935 6.1018 16.1301L6.29342 16.0021C6.38853 15.9386 6.5171 15.9643 6.58053 16.0595Z" fill="#464655"/>
<path d="M4.61625 14.8535L6.52863 17.7227C6.59196 17.8177 6.56637 17.9461 6.47145 18.0095L6.28034 18.1373C6.18528 18.2008 6.0567 18.1752 5.99323 18.0801L4.07972 15.2112C4.0163 15.1161 4.04199 14.9877 4.13709 14.9242L4.32933 14.7961C4.42439 14.7328 4.55287 14.7584 4.61625 14.8535Z" fill="#464655"/>
<path d="M5.68709 9.86442L7.60042 6.99307C7.66384 6.89792 7.79237 6.87223 7.88748 6.93575L8.07905 7.06367C8.17407 7.12709 8.19966 7.25552 8.13629 7.35054L6.22221 10.2203C6.15898 10.3151 6.03096 10.3409 5.9359 10.278L5.74508 10.1518C5.64959 10.0885 5.62358 9.95976 5.68709 9.86442Z" fill="#464655"/>
<path d="M4.88338 9.32853L6.79708 6.45657C6.8605 6.36137 6.98913 6.33573 7.08424 6.39929L7.27534 6.52707C7.37022 6.59049 7.39581 6.71879 7.33253 6.81376L5.41935 9.6859C5.35597 9.78106 5.22739 9.80674 5.13229 9.74328L4.94066 9.61536C4.8457 9.55189 4.82005 9.42355 4.88338 9.32853Z" fill="#464655"/>
<path d="M4.07964 8.79483L5.99348 5.92002C6.0569 5.82477 6.18557 5.79908 6.28068 5.86269L6.47179 5.99047C6.56661 6.05389 6.59225 6.18209 6.52907 6.27706L4.61635 9.15225C4.55302 9.24745 4.42449 9.27324 4.32934 9.20981L4.13711 9.08166C4.04204 9.01829 4.01631 8.8899 4.07964 8.79483Z" fill="#464655"/>
<path d="M15.8679 16.6493L16.6201 15.5227C16.6836 15.4276 16.8122 15.402 16.9073 15.4656L17.0979 15.5933C17.1927 15.6568 17.2182 15.785 17.1549 15.88L16.4036 17.0068C16.3402 17.1019 16.2117 17.1276 16.1166 17.0641L15.9251 16.9362C15.83 16.8728 15.8044 16.7444 15.8679 16.6493Z" fill="#464655"/>
<path d="M17.0278 14.9127L17.7812 13.7805C17.8446 13.6853 17.9731 13.6596 18.0683 13.723L18.2603 13.851C18.3554 13.9144 18.381 14.043 18.3175 14.138L17.5625 15.2685C17.4992 15.3632 17.3712 15.389 17.2762 15.326L17.0858 15.1998C16.9904 15.1366 16.9645 15.008 17.0278 14.9127Z" fill="#464655"/>
<path d="M16.6715 17.1888L17.4242 16.0592C17.4875 15.9641 17.616 15.9384 17.7111 16.0018L17.9035 16.1301C17.9985 16.1934 18.0243 16.3218 17.9609 16.4169L17.2087 17.5466C17.1454 17.6417 17.017 17.6675 16.9219 17.6042L16.729 17.4758C16.6339 17.4124 16.6081 17.284 16.6715 17.1888Z" fill="#464655"/>
<path d="M17.8327 15.4435L18.5858 14.3166C18.6492 14.2216 18.7776 14.196 18.8726 14.2594L19.0648 14.3875C19.16 14.451 19.1856 14.5795 19.1221 14.6746L18.369 15.8016C18.3056 15.8965 18.1773 15.9221 18.0822 15.8588L17.89 15.7306C17.7949 15.6672 17.7692 15.5386 17.8327 15.4435Z" fill="#464655"/>
<path d="M17.4753 17.7224L18.2288 16.5948C18.2921 16.5001 18.4199 16.4743 18.5149 16.5371L18.7065 16.6637C18.8021 16.7269 18.8281 16.8558 18.7645 16.9511L18.0116 18.0802C17.9482 18.1753 17.8198 18.201 17.7247 18.1376L17.5326 18.0095C17.4374 17.9461 17.4118 17.8174 17.4753 17.7224Z" fill="#464655"/>
<path d="M18.6362 15.9828L19.3879 14.8539C19.4513 14.7586 19.58 14.7329 19.6751 14.7965L19.866 14.9241C19.9609 14.9876 19.9865 15.116 19.9231 15.2109L19.1708 16.3384C19.1076 16.4332 18.9795 16.459 18.8844 16.396L18.6942 16.2699C18.5988 16.2067 18.5729 16.0781 18.6362 15.9828Z" fill="#464655"/>
</g>
<defs>
<clipPath id="clip0_8615_27604">
<path d="M0 2C0 0.895432 0.895431 0 2 0H21.9998C23.1043 0 23.9998 0.895431 23.9998 2V21.9998C23.9998 23.1043 23.1043 23.9998 21.9998 23.9998H2C0.895432 23.9998 0 23.1043 0 21.9998V2Z" fill="white"/>
</clipPath>
</defs>
</svg>
