<svg width="24" height="24" viewBox="0 0 24 24" fill="none" xmlns="http://www.w3.org/2000/svg">
<g clip-path="url(#clip0_8615_27691)">
<path d="M24.0018 0.0771484H0.15625V12.0002H24.0018V0.0771484Z" fill="#4173CD"/>
<path d="M0.155972 12H24.0017V23.2954C24.0017 23.6419 23.7208 23.9229 23.3742 23.9229H0.155972C-0.190571 23.9229 0.155972 23.642 0.155972 23.2954V12Z" fill="#4173CD"/>
<path d="M24.0008 11.9999H0.155273V17.9614H24.0008V11.9999Z" fill="#FFE15A"/>
<path d="M24.0008 17.9613H0.155273V23.9228H24.0008V17.9613Z" fill="#73AF00"/>
<path d="M20.1742 6.46377L22.7428 6.03857L20.1742 5.61337L22.3846 4.23756L19.8487 4.82771L21.3643 2.71076L19.2474 4.22636L19.8375 1.69049L18.4617 3.90086L18.0365 1.33228L17.6113 3.90086L16.2354 1.69044L16.8255 4.22631L14.7086 2.71072L16.2242 4.82766L13.6883 4.23751L15.8987 5.61333L13.3301 6.03853L15.8987 6.46373L13.6883 7.83954L16.2242 7.24944L14.7086 9.36638L16.8256 7.85079L16.2355 10.3866L17.6113 8.17629L18.0365 10.7449L18.4617 8.17629L19.8375 10.3866L19.2474 7.85079L21.3643 9.36638L19.8488 7.24944L22.3846 7.83954L20.1742 6.46377ZM18.0364 7.60732C17.17 7.60732 16.4676 6.90496 16.4676 6.03853C16.4676 5.1721 17.17 4.46973 18.0364 4.46973C18.9029 4.46973 19.6052 5.1721 19.6052 6.03853C19.6052 6.90496 18.9028 7.60732 18.0364 7.60732Z" fill="#FFE15A"/>
<path d="M18.0369 7.21504C18.6867 7.21504 19.2135 6.68828 19.2135 6.03849C19.2135 5.3887 18.6867 4.86194 18.0369 4.86194C17.3871 4.86194 16.8604 5.3887 16.8604 6.03849C16.8604 6.68828 17.3871 7.21504 18.0369 7.21504Z" fill="#FFE15A"/>
</g>
<defs>
<clipPath id="clip0_8615_27691">
<path d="M0 2C0 0.895432 0.895431 0 2 0H21.9998C23.1043 0 23.9998 0.895431 23.9998 2V21.9998C23.9998 23.1043 23.1043 23.9998 21.9998 23.9998H2C0.895432 23.9998 0 23.1043 0 21.9998V2Z" fill="white"/>
</clipPath>
</defs>
</svg>
