<?xml version="1.0" encoding="utf-8"?>
<!-- Generator: Adobe Illustrator 28.1.0, SVG Export Plug-In . SVG Version: 6.00 Build 0)  -->
<svg version="1.1" id="Layer_1" xmlns="http://www.w3.org/2000/svg" xmlns:xlink="http://www.w3.org/1999/xlink" x="0px" y="0px"
	 viewBox="0 0 512 512" style="enable-background:new 0 0 512 512;" xml:space="preserve">
<g>
	<defs>
		<path id="SVGID_1_" d="M512,400V112C512,50.1,461.9,0,400,0H112C50.2,0,0,50.1,0,112v288c0,61.8,50.2,112,112,112h288
			C461.9,512,512,461.9,512,400z"/>
	</defs>
	<clipPath id="SVGID_00000067225171312518975850000016047330110329800582_">
		<use xlink:href="#SVGID_1_"  style="overflow:visible;"/>
	</clipPath>
	<g style="clip-path:url(#SVGID_00000067225171312518975850000016047330110329800582_);">
		<path fill="#3366FF" d="M-131.3,1.3h779.7V521h-779.7V1.3z"/>
		<path fill="#FF0000" d="M258.5,261.2L-131.3,521h779.7L258.5,261.2z"/>
		<path fill="#FFFF00" d="M-131.3,241.7v39l779.7-39v39L-131.3,241.7z"/>
		<polygon fill="#FFFF00" points="-92.9,1.3 258.5,261.2 -131.3,33.8 -131.3,1.3 		"/>
		<polygon fill="#FFFF00" points="278,1.3 258.5,261.1 239,1.3 		"/>
		<polygon fill="#FFFF00" points="648.4,1.3 648.4,33.8 258.5,261.2 258.5,261.2 258.5,261.1 610,1.3 		"/>
		<polygon fill="#FFFF00" points="278,1.3 258.5,261.1 239,1.3 		"/>
		<polygon fill="#FFFF00" points="633.4,32.3 258.5,261.1 610,1.3 611.7,0 612.5,1.3 		"/>
		<polygon fill="#FFFF00" points="258.5,261.2 -116.4,32.3 -95.5,1.3 -94.6,0 -92.9,1.3 		"/>
	</g>
</g>
</svg>
