<svg width="24" height="24" viewBox="0 0 24 24" fill="none" xmlns="http://www.w3.org/2000/svg">
<g clip-path="url(#clip0_8615_27638)">
<path d="M24.0007 12H0.000976562V23.9999H24.0007V12Z" fill="#41479B"/>
<path d="M24.0007 0.00012207H0.000976562V12H24.0007V0.00012207Z" fill="#FF4B55"/>
<path d="M12.0007 0.000166623L0.000976562 11.9999L12.0007 23.9996L24.0004 11.9999L12.0007 0.000166623Z" fill="#F5F5F5"/>
<path d="M12.1245 7.43932L13.1178 10.2969L16.1425 10.3585C16.267 10.3611 16.3184 10.5193 16.2191 10.5945L13.8084 12.4223L14.6844 15.3179C14.7205 15.4371 14.5859 15.535 14.4837 15.4638L12.0004 13.7358L9.51721 15.4638C9.41497 15.535 9.28035 15.4371 9.31644 15.3179L10.1925 12.4223L7.78173 10.5945C7.68249 10.5193 7.73387 10.3611 7.85841 10.3585L10.8831 10.2969L11.8764 7.43932C11.9172 7.32166 12.0836 7.32166 12.1245 7.43932Z" fill="#FFE15A"/>
</g>
<defs>
<clipPath id="clip0_8615_27638">
<path d="M0 2C0 0.89543 0.89543 0 2 0H21.9998C23.1044 0 23.9998 0.89543 23.9998 2V21.9998C23.9998 23.1044 23.1044 23.9998 21.9998 23.9998H2C0.89543 23.9998 0 23.1044 0 21.9998V2Z" fill="white"/>
</clipPath>
</defs>
</svg>
