<svg width="24" height="24" viewBox="0 0 24 24" fill="none" xmlns="http://www.w3.org/2000/svg">
<g clip-path="url(#clip0_8615_27490)">
<path d="M23.9998 0H0V8.00008H23.9998V0Z" fill="#464655"/>
<path d="M23.9998 15.9998H0V23.9998H23.9998V15.9998Z" fill="#73AF00"/>
<path d="M23.9998 8.00012H0V16.0002H23.9998V8.00012Z" fill="#F5F5F5"/>
<path d="M0 23.9998L11.4526 12.3272C11.6164 12.1599 11.6164 11.8399 11.4526 11.6726L0 0V23.9998Z" fill="#FF4B55"/>
<path d="M14.8785 11.9568C14.8785 10.5163 15.8194 9.29583 17.12 8.87555C17.1948 8.85141 17.185 8.742 17.1068 8.73432C16.8571 8.70975 16.5991 8.7136 16.3356 8.75058C14.8079 8.96499 13.6292 10.257 13.5556 11.7979C13.4666 13.6585 14.9488 15.1949 16.7899 15.1949C16.8964 15.1949 17.0016 15.1896 17.1054 15.1795C17.1839 15.1718 17.1942 15.0621 17.1191 15.0378C15.8189 14.6173 14.8785 13.3971 14.8785 11.9568Z" fill="#FF4B55"/>
<path d="M17.628 9.82942L17.2025 11.1051L15.8579 11.1155C15.6838 11.1168 15.6116 11.339 15.7516 11.4424L16.8334 12.2413L16.4278 13.5233C16.3753 13.6893 16.5643 13.8266 16.7059 13.7254L17.7999 12.9434L18.8939 13.7254C19.0355 13.8266 19.2245 13.6893 19.172 13.5233L18.7664 12.2413L19.8481 11.4424C19.9882 11.339 19.916 11.1168 19.7419 11.1155L18.3972 11.1051L17.9718 9.82942C17.9167 9.66428 17.6831 9.66428 17.628 9.82942Z" fill="#FF4B55"/>
</g>
<defs>
<clipPath id="clip0_8615_27490">
<path d="M0 2C0 0.895432 0.895431 0 2 0H21.9998C23.1043 0 23.9998 0.895431 23.9998 2V21.9998C23.9998 23.1043 23.1043 23.9998 21.9998 23.9998H2C0.895432 23.9998 0 23.1043 0 21.9998V2Z" fill="white"/>
</clipPath>
</defs>
</svg>
