<?xml version="1.0" encoding="utf-8"?>
<!-- Generator: Adobe Illustrator 28.1.0, SVG Export Plug-In . SVG Version: 6.00 Build 0)  -->
<svg version="1.1" id="Layer_1" xmlns="http://www.w3.org/2000/svg" xmlns:xlink="http://www.w3.org/1999/xlink" x="0px" y="0px"
	 viewBox="0 0 512 512" style="enable-background:new 0 0 512 512;" xml:space="preserve">
<g>
	<defs>
		<path id="SVGID_1_" d="M512,400V112C512,50.1,461.9,0,400,0H112C50.2,0,0,50.1,0,112v288c0,61.8,50.2,112,112,112h288
			C461.9,512,512,461.9,512,400z"/>
	</defs>
	<clipPath id="SVGID_00000161609511547820319830000012292192672775718272_">
		<use xlink:href="#SVGID_1_"  style="overflow:visible;"/>
	</clipPath>
	<g style="clip-path:url(#SVGID_00000161609511547820319830000012292192672775718272_);">
		<g>
			<path fill="#012169" d="M-13.4-10.8h862.1v431H-13.4V-10.8z"/>
		</g>
		<g>
			<path d="M-13.4-10.8l431,215.5 M417.6-10.8l-431,215.5"/>
			<polygon fill="#FFFFFF" points="408,224 202.1,121 -3.8,224 -23.1,185.4 153.9,97 -23.1,8.5 -3.8,-30.1 202.1,72.9 408,-30.1 
				427.3,8.5 250.3,97 427.3,185.4 			"/>
		</g>
		<g>
			<defs>
				<path id="SVGID_00000143619102290588393450000007531152151751461822_" d="M-13.4-10.8V97h502.9v107.8h-71.8L-13.4-10.8z
					 M417.6-10.8H202.1v251.4H-13.4v-35.9L417.6-10.8z"/>
			</defs>
			<clipPath id="SVGID_00000119096800986124191500000004959213859397203372_">
				<use xlink:href="#SVGID_00000143619102290588393450000007531152151751461822_"  style="overflow:visible;"/>
			</clipPath>
			<g style="clip-path:url(#SVGID_00000119096800986124191500000004959213859397203372_);">
				<path d="M-13.4-10.8l431,215.5 M417.6-10.8l-431,215.5"/>
				<polygon fill="#C8102E" points="411.2,217.6 202.1,113 -7,217.6 -19.8,191.9 170,97 -19.8,2 -7,-23.7 202.1,80.9 411.2,-23.7 
					424,2 234.2,97 424,191.9 				"/>
			</g>
		</g>
		<g>
			<path d="M202.1-10.8v251.4 M-13.4,97h502.9"/>
			<polygon fill="#FFFFFF" points="238,240.6 166.2,240.6 166.2,132.9 -13.4,132.9 -13.4,61 166.2,61 166.2,-10.8 238,-10.8 238,61 
				489.5,61 489.5,132.9 238,132.9 			"/>
		</g>
		<g>
			<path d="M202.1-10.8v251.4 M-13.4,97h502.9"/>
			<polygon fill="#C8102E" points="223.7,240.6 180.5,240.6 180.5,118.5 -13.4,118.5 -13.4,75.4 180.5,75.4 180.5,-10.8 223.7,-10.8 
				223.7,75.4 489.5,75.4 489.5,118.5 223.7,118.5 			"/>
		</g>
		<g>
			<path fill="#012169" d="M-13.4,204.7h431V-10.8h431v544.5H-13.4V204.7z"/>
		</g>
		<g>
			<path fill="#128BBF" d="M460.6,327.5c-0.1,48.7-7.9,101.3-71.5,126.3c-63.6-25-71.3-77.5-71.5-126.3L460.6,327.5z"/>
		</g>
		<g>
			<path fill="#E8ECE9" d="M389.1,453.8c28.8-11.3,46.7-29.8,57-49.6c-1.6-0.6-4.9-0.6-6.2-0.1c-1.6-0.1-61.5-4.5-68.5-7.1
				c-6.1-2.2-29.5,1.9-40.4,5.8C341.3,423.7,358.9,441.9,389.1,453.8L389.1,453.8z"/>
		</g>
		<g>
			<path fill="#69522B" d="M344.7,423.6c1-0.3,2.8-0.2,3.6-0.1c0.9,0.2,1,0.2,1.3-0.7c0.3-0.9,1-0.7,1.6-0.2c0.5,0.5,2,0.2,2.5-0.5
				c0.5-0.8,0.7-0.7,1.3-0.2c0.5,0.5,0.8,0.4,1.3,0.2c0.5-0.2,1.5-0.8,2-1.6c0.5-0.9,1.2-1.2,1.6-0.7c0.4,0.5,0.8,0.7,1.3,0.6
				c0.5-0.1,0.7,0.5,0.6,1.2c-0.1,0.7,0.2,0.9,1.6-0.2c1.2,1.2,1.6,0.7,1.6-0.5c0-1.2-0.3-5.8-0.8-6.4c-0.5-0.6-0.9-2.4-1-3.8
				c-0.1-2.6-0.2-2.8-3.4-4.4c0-0.9-0.2-1.3-2.5-1.2c0.1-0.3-0.3-1.2-0.8-1.6c-0.5-0.4-0.5-0.5-0.3-1.6c0.9,0.1,2-0.1,2.5-0.9
				c0.5-0.8,2.3-0.6,3.4-0.2c1.1,0.5,2.5,0.5,4.6,0.2c0.8-0.6,2.1-1.3,3.5-2.1c1.4-0.8,1.8-1.1,1.9-2.2c0.2-2.8-0.8-6-1.6-7.4
				c-0.8-1.5-1-3.3-2.1-5.7c-1.2-2.5-1.2-3.2-2.5-4.7c-0.4-0.4-0.8-0.8-0.9-1.6c-0.1-0.9-0.4-2-1.3-2.9c-2.4-2.2-3.3-9.1-4.2-14.2
				c-0.5-2.9-0.2-9.8-1.4-10.9c-2.1-1.7-3.1-1.4-4.5-1.9c-1-1.4-1.5-4.2-2.4-6.7c-1.5,0.2-2.5,1.8-3.5,2.3c-1,0.5-1.2,0.5-1.2,1.9
				c0,1.4-0.8,3.3-2.2,5.5c-1.4,2.2-3.8,1.6-5.7,4.8c-4.3-5.2-4.4-6.7-4.7-8.1c-0.3-1.5-1-1.8-3.4-3.9c0-0.6-0.3-3.1-0.1-4.5
				c-1.8-1.5-3.1-1.2-4-0.2c-0.9,1.1-1.5,2.7-2.8,3.3c-0.8,1-3.2,3.5-5.2,6.6C320.1,375.3,326.2,402.1,344.7,423.6L344.7,423.6z"/>
		</g>
		<g>
			<path fill="#BCA76B" d="M460.6,327.5c0.1-18.4-1-36.2-0.5-51.8c-23.8-10.6-55-12.7-71-12.7c-15.9,0-47.2,2.2-71,12.7
				c0.5,15.6-0.6,33.4-0.5,51.8L460.6,327.5z"/>
		</g>
		<g>
			<path fill="#CFA763" d="M321.5,348.8c0.8,1.2,2.2,3.4,2.3,4.5c0.5-1.1,1-1.6,1.1-2.3c0.1-0.7,0.9-2.1,0.6-2.8
				c-0.3-0.7-0.5-1.3,0.3-0.8c0.9,0.5,0.7,1.5,0.5,2.9c-0.5,3.8-2.1,4.6-2.3,7.1c2.3,5.4,0.6,7.3,3.1,12.6c0.4,0.2,1.4-0.2,1.7-0.1
				c1.3-0.9,2.3-0.6,4.2-0.2c1.9,0.4,2.9,1.7,2.9,2.9s0,1.5,0.4,2.2c0.4,0.7,1.2,1.8,1,2.6c-0.2,0.8,0.2,1.2,0.4,1.6
				c0.2,0.4-0.1,1.2-0.3,1.8c-0.2,0.5-0.2,1.2,0.8,2.4c0.9,1.2,3.1,6,3.1,8.9c0,2.9,0.2,4.2,1.3,4.7c1.2,0.5,1.6,1,1.4,2.3
				c-0.2,1.2,0.5,7.7,0.7,8.7c0.2,1,0.5,0.8,1,1.3c0.5,0.5,0.8,1.2,2.3,1.2c1.6,0,3.1-0.2,4.1-0.1c1.4,1.9,2.3,4.6,2.6,6.2
				c0.3,1.6,0.3,3.9,0.8,3.9c0.5,0,1.1,0.1,0.9-1.9c-0.2-2-0.3-2.3-1-3.3c-0.7-1-1.1-1.5-0.7-2.1c0.4-0.6,0.5-1.6,0.3-2.4
				c-0.2-0.8-0.4-1.9,0.9-0.4c1.3,1.6,1.7,1.9,2.1,2.5c0.4,0.5,0.5,1.6,0.5,2.5c-0.1,0.9,0.1,1.3,0.6,0.9c0.5-0.5,1.3,0.3,0.9,1.3
				c-0.3,1,0.1,1.6,1,1.9c0.9,0.3,1.3,0.5,1.6,1.2c0.2,0.7,1,1,1-0.4c0-1.4-0.5-4.3-0.9-5.3c-0.4-0.9-0.7-2.9-0.8-4.1
				c-0.1-1.2-0.3-1.5-0.9-1.7c-0.5-0.2-1-0.6-1.1-1.2c-0.1-0.5-0.5-0.7-0.9-0.7s-0.7-0.3-0.9-0.7c-0.2-0.4-0.4-0.4-0.8-0.5
				c-0.4,0-1,0.2-1.2-0.4s-0.5-1.5-0.9-2c-0.4-0.5-0.7-0.7-0.8-2.4c0-1.7-0.1-2-0.6-2.6c-0.5-0.6-1.5-2.2-1.9-2.9
				c-0.4-0.7-0.8-1.4-0.8,0.1c0,1.5,0,2.2,0.9,2.8c0.9,0.5,1.2,0.5,0.8,1.3c-0.4,0.8,0,1.3,0.2,1.9c0.2,0.5,0.5,1.1,0,1.6
				c-0.5,0.5-0.9,0.4-0.9-0.5c0.1-0.9-0.2-1.9-0.6-2.6c-0.4-0.7-0.7-1.2-1.2-0.8c-0.5,0.4-0.9-0.1-0.5-0.4c0.3-0.3,0.2-0.5,0-0.8
				c-0.2-0.2-0.3-0.5,0.1-0.9c0.4-0.5,0.4-0.7,0.2-1.8c-0.2-1.1-2-6.5-2.7-7.8c-0.8-1.2-0.7-2.2,0.3-0.9c1,1.2,1.9,2.3,2,3.3
				c0.1,1,0.3,1.6,0.6,2c0.3,0.4,0.5,0.2,0.7-0.6s0.8-0.5-0.3-2.2c-1.1-1.6-3.1-4.3-3.9-9.2c-0.8-4.9-1.1-8.1-1.9-9.5
				c-0.8-1.3-1-1.6-1.1-2.9c-0.1-1.2,0-2.5-0.5-3.4c-0.5-0.9-0.9-1.1-1,0.3c-0.1,1.4,0.1,4.5,0.5,5c0.4,0.5,0.2,1.9,0.1,2.7
				c-0.1,0.8-1.3,1.5,1.3,3.1c1,0.6,0.9,1.5,0.7,2c-0.2,0.5-0.3,0.5-0.9-0.4c-0.5-0.9-1.1-1.6-1.6-2c-0.5-0.5-0.6-0.8-0.5-1.9
				c0.1-1.1,0.3-1.9,0-2.2c-0.3-0.4-0.5-0.1-0.6,0.5c-0.2,0.6-0.3,2.3-0.6,2.8c-0.3,0.5-0.5,0.2-0.7-0.9c-0.2-1,0.1-2.6,0.6-4.3
				c0.5-1.8,0.9-3.6,0.4-6c-0.5-2.3-0.2-3-2-5c-1.8-1.9-3.8-3.8-4.7-6.2c-0.9-2.4-1-4.5-2-5.6c-0.9-1.1-2.3-2.5-3.1-2.9V340
				c0-0.9-0.4-1.4-1.4-1.2s-1.6,1-2.3,2.2c-0.6,1.2-1.1,0.6-2,2.6S321.5,346.6,321.5,348.8L321.5,348.8z"/>
		</g>
		<g>
			<path fill="#CFA763" d="M327.2,371.5c0.6,0.4,1.2,0.6,2.2,0.2c0.9-0.5,2.1-1.8,3.3-0.5c1.2,1.3,2,3.5,2,5.2c0,1.7,0,4.9,2,6.7
				c2,1.8,3,3.6,3,6c0.1,2.3,0.9,5.9,1.2,6.8c0.2,0.9,0.8,2,1.4,2.6c0.6,0.6,1.1,2.4,1.2,4.3c0.1,1.9-0.2,3.2,0,4.1
				c0.2,0.9,0,1.7-0.7,1.2c-0.7-0.5-0.9-0.7-1.3-1.5c-0.4-0.8-0.9-0.6-0.5,0.5c0.4,1.2,1.6,2.2,2.6,2.2s1.3,0.2,2,0.8
				c0.6,0.6,0.7,0.9,1.8,0.9c1.1,0,1.3,0,2.3,0.3s1,0.2,1.6,0c0.5-0.2,1.1,0.3,1.5,1.3c0.4,1,1.3,3.8,1.3,4.6s0,1.6,0.5,2.3
				c0.5,0.8,0.4,1.6-0.2,1.1c-0.6-0.5-0.6-0.3-1.1-0.2c-0.5,0.1-0.8-0.2-1.4-0.5c-0.6-0.4-0.2-0.3-0.9-1.2c-0.6-0.9-1-1.2-1-0.5
				s-0.1,1.6-0.5,1.2s-0.7-0.4-1.1,0c-0.4,0.4-0.5,0.7-1-0.1c-0.5-0.8-1-0.8-1.5-0.9c-0.5-0.2-0.5-0.2-0.7-0.9
				c-0.2-0.7-0.9-0.9-1.6-0.9c-0.6,0-0.9-0.3-1-0.8c-0.1-0.5-0.5-0.8-0.8-1c-0.3-0.2-0.2-0.8-0.2-1.3c-0.1-0.5-0.5-0.3-0.9-0.5
				c-0.3-0.2-0.5-0.1-0.5-0.9s-0.3-1-0.5-1.6c-0.2-0.5,0-1.1,0.2-1.7c0.2-0.6,0.1-1-0.4-1.6c-0.5-0.5-0.1-1.1-1.3-2.2
				c-1.3-1.1-1.9-0.2-2.3-2.7c-0.4-2.6-1.2-7.8-1.9-8.7c-0.7-0.9-1.2-1.5-1.9-1.7c-0.7-0.2-1.2-0.1-1.3-1.6
				c-0.1-1.5-0.5-3.3-1.5-4.3c-0.9-0.9-1.3-1.2-1.8-1.6c-0.5-0.4-0.6-1.1,0-2.4c0.6-1.3,0.4-3.1,0.3-4c-0.1-0.9-0.3-1.9-0.2-2.9
				c0.2-0.9,0.1-2.1-0.2-2.7C327.1,372.1,326.8,372,327.2,371.5L327.2,371.5z"/>
		</g>
		<g>
			<path fill="#D7C99C" d="M350.9,413.9c-0.5,0.9-1,0.6-1.5,0.2c-0.5-0.5-1-0.5-0.8-1.3c0.2-0.9,0.2-1-0.5-1.5
				c-0.1-0.1-0.1-0.1-0.2-0.1c-0.2,0-0.4,0-0.7,0c-1.1,0-1.2-0.3-1.8-0.9c-0.1-0.1-0.3-0.2-0.4-0.3c0,0.1,0,0.3,0,0.6
				c0,0.9,0,0.7-0.9,0.9c-0.9,0.2-0.7-0.9-0.9-1.6c0-0.1-0.1-0.3-0.1-0.4c-0.9-0.2-1.9-1.2-2.3-2.2c-0.4-1.2,0.1-1.3,0.5-0.5
				c0.4,0.8,0.5,1,1.3,1.5c0.7,0.5,0.9-0.3,0.7-1.2c-0.1-0.3-0.1-0.6-0.1-1c-0.2-0.3-0.4-0.5-0.7-0.7c-1.3-0.5-0.9-0.7-0.8-1.7
				c0.1-1-0.2-1-0.9-0.5c-0.8,0.5-0.9-0.1-0.9-1.6c0-1.6-1-1.6-1.2-0.5c-0.2,1.1-0.6,0.4-1.1-1.2c-0.5-1.6-1.1-1.9-1.2-0.5
				c-0.1,1.2-0.4,1.5-1.2,0.9c0.1,0.9,0.3,1.7,0.4,2.4c0.4,2.6,1,1.6,2.3,2.7c1.3,1.1,0.9,1.6,1.3,2.2c0.5,0.5,0.5,0.9,0.4,1.6
				c-0.2,0.6-0.4,1.2-0.2,1.7c0.2,0.5,0.5,0.8,0.5,1.6c0,0.8,0.2,0.7,0.5,0.9c0.2,0.1,0.4,0,0.6,0.1c0.2-0.3,0.4-0.6,0.6-0.8
				c0.9-0.9,2.3,0.1,2.8,1.2c0.5,1.2,1,1.5,1.7,0.5c0.7-0.9,0.5-0.8,1.3,0.1c0.8,0.9,1.1,0.7,1.1,0.7s0.8-0.3,1.3,0.2
				c0.5,0.5,0.9,0.4,1.9-1.1C352.9,412.5,351.4,413,350.9,413.9L350.9,413.9z"/>
		</g>
		<g>
			<g>
				<path fill="#7FB8C1" d="M351.6,424.8c1.9-0.2,7-1.6,7.5-2.1c1.3,0.9,3.4,2,4.4,2c-1.8,0.4-3,0.2-3.4-0.2c0.2,0.5,0.9,1.4,1.3,1.5
					c-1.7-0.1-3.7-0.5-4.3-1.1C355.5,425.5,353,425.7,351.6,424.8L351.6,424.8z M355,427.1c0.7,0.2,4,0.7,4.4,0.7
					c-1.1,0.9-0.2,1.8,1.7,1.7c-0.9,0.1-1.9,0.5-1.2,0.6c1.6,0.3,5.9-0.9,6.8-1.3C365.2,430.7,357.9,432.4,355,427.1z M357.9,431.8
					c0.9-0.5,3.1-0.3,4.2,0.2C361,432.5,358.7,432.5,357.9,431.8z"/>
			</g>
			<g>
				<path fill="#7FB8C1" d="M361.3,431.8c1.6-0.3,6.1,0.8,7.7-0.2c-0.5,1.4-3.4,1.6-4.4,1.3c-1-0.3-1.9-0.7-2.6-0.7
					C362.4,432.1,361.9,432,361.3,431.8L361.3,431.8z M362.9,434c1.2,0.2,5.5-0.3,6.9-0.9c1.4,0.5,4.2,1.2,4.8,1.1
					c-1.3,0.8-3.9,0.3-4.7,0C367.6,435,365.7,435.2,362.9,434z"/>
			</g>
			<g>
				<path fill="#7FB8C1" d="M365,434.7c1.7,0.4,3.2,0.1,4.9-0.5c0.5,0.2,1.8,0.5,3,0.4c0.8,0.4,1.8,1.1,2.9,1.1
					c-1.1,0.4-4.9,0-5.7-0.4c-2,0-5.3,0.5-6.1,1.1C363.9,436,364.2,435.2,365,434.7L365,434.7z M362.9,425.9
					c1.4,0.4,6.3,0.2,8.8-0.9c1-0.5,1.6,0.3,0.5,0.7c-4.1,1.4-7.3,1.9-9.6,0.7C361.6,425.9,361.5,425.5,362.9,425.9L362.9,425.9z
					 M386.9,419.3c-6,2.8-10,3.6-18.4,1.1c-0.8-0.2-1.3,0-0.5,0.5c0.9,0.5,5.5,1.8,6.6,1.9c1.1,0.1,0.7,0.6,0,0.8
					c-0.7,0.2-0.9,0.7,0,0.3c0.9-0.3,5.9-0.5,8,0.6c0.9,0.5,1.1,0.4,1.1,0c-0.1-0.3,0.4-0.6,1.1-0.7c0.7-0.1,1.1-0.3,0.5-0.5
					c-0.5-0.2-0.6-0.3-0.2-0.5c0.4-0.2,0.4-0.4-0.2-0.5c-0.6-0.1-1-0.3-0.4-0.5c0.5-0.3,1.4-0.5,2-0.5
					C386.7,420.9,386.5,419.7,386.9,419.3L386.9,419.3z"/>
			</g>
			<g>
				<path fill="#7FB8C1" d="M376.9,420c3.4,0.2,9.8-1.3,13.1-4.6c1.2,0.7,2.8,1.5,3.7,1.6c0.9,0.2,1.6,0.9,0.3,0.9
					c-1.3,0-3.2-0.5-4.1-0.9c-4.5,2.7-9.7,3.6-13,3.3C376.1,420.4,375.8,420,376.9,420L376.9,420z M371.5,410.3
					c-0.5,0.1-2.5,0.5-3,0.5c-0.5,0-1.1,0.1-1.1,0.5c0,0.4,0.2,0.6-0.6,0.5c-0.8-0.1-1.5,0.2-1.7,0.5c-0.2,0.2-0.4,0.5,0.5,0.5
					c0.8,0.1,1.3,0.2,2.2-0.3c0.9-0.4,1.8-1.1,2.9-1.1C371.6,411.5,372.6,410.2,371.5,410.3L371.5,410.3z"/>
			</g>
			<g>
				<path fill="#7FB8C1" d="M368.7,412.7c0.9,0.5,5.1,2,6.6,1.9s1.2,0.6,0.1,0.9c-2.4,0.5-5.3-0.5-7.3-2.1
					C367.1,412.6,368,412.3,368.7,412.7L368.7,412.7z"/>
			</g>
			<g>
				<path fill="#7FB8C1" d="M388.7,414.8c-3.2,1-6.5,0.7-7.9,0.3s-2.5-0.4-1.6,0.4c0.9,0.9,3.8,1.4,5.4,1c-5.8,1.3-7.3,1.2-8.8,1
					c-1.4-0.2-4.2-0.2-5.3-0.1c-0.9,0.1-2,0-2.5-0.3s-0.7-0.9,0.9-0.7c1.5,0.2,1.7-0.2,0.4-0.3c-1.3-0.2-3.2,0.3-1.4,1.5
					c1.8,1.1,5.7-0.1,8.2,0.6c2.5,0.7,7.8,1.2,12.9-2.8C389.2,415.1,389.7,414.5,388.7,414.8L388.7,414.8z M381.2,411.6
					c-0.7,0-1.8-0.4-2.5-0.7c-0.6-0.3-1.5-0.3-0.9,0.6c0.7,0.9,3.6,1.4,4.6,1c1-0.4,0.6-0.9,1.6-0.3c1,0.6,2.1,1,2.8,1
					c0.7,0,1,0,0.2-0.5c-0.8-0.5-1.2-0.6-1.3-1c-0.1-0.4-0.2-0.6,0.5-0.4c0.7,0.2,1.6,0.7,2.2,0.3c0.6-0.3,1.7-1,2.7-1l0.2-0.6
					c-1.4-0.1-2.3,0.3-2.7,0.5c-0.4,0.2-1.1,0.2-1.8,0.1c-0.7-0.1-1.7-0.2-2-0.4c-0.2-0.2-0.2-0.3,0.4-0.5c0.6-0.1,0.8-0.5,0-0.4
					c-0.9,0.2-3.2,0.1-4.4-0.3c-1.2-0.4-1.7-0.4-2.2-0.2c-0.5,0.2-0.4,0.7,0.3,0.8c0.7,0,2.4,0.2,3,0.7c0.6,0.5,0.5,0.6-0.2,0.3
					C381.1,410.5,379.9,410.7,381.2,411.6L381.2,411.6z M409.4,409.5c-2.3,1.7-5.2,2.1-8.5,2.3c-1,0.1-0.7,0.3,0.2,0.4
					c3.5,0.3,7.6-0.9,8.9-2.3C410.4,409.5,410.3,408.8,409.4,409.5z M393.5,413.4c1,0,4.5,0.9,5.7,1.3c0.9-0.1,1.1-0.3,0.9-0.6
					c-0.2-0.3-0.3-0.7,1.3-0.6c1.6,0.1,5.2,0,5.8,0c0.5-0.2,1.8-1.2,2.3-1.2c-1.4,0.1-7.3,0.4-8,0.3c-0.7-0.1-1.1,0-1.6,0.3
					c-0.5,0.3-0.7,0.4-1.3,0.2c-0.6-0.2-1.6-0.5-2.2-0.2C395.7,413.3,394.5,413,393.5,413.4L393.5,413.4z"/>
			</g>
			<g>
				<path fill="#7FB8C1" d="M407.2,413.6c0.5-0.2,1.8-1.2,2.3-1.2c1-0.1,2.2,0.3,2.7,0.4c0.5,0.1,1.1,0,0.7-0.5c-0.4-0.4,0-1.2,1.6-1
					c1.6,0.2,2.4,0.5,4,0.3c1.6-0.2,2.3,1,5.2-0.2c-0.2,1.2,0.3,1.2,0.9,1c0.5-0.2,1.2-0.2,2.1,0.5c0.9,0.7,6.6,0.8,8,0.5
					c1.3-0.2,2,0.5,1,0.8c-1,0.3-1.3,0.8-1,1.1c0.2,0.3,0.5,0.7-0.8,0.5c-1.3-0.2-1.5,0.2-2.1,0.7c-0.6,0.5-0.8,0.6-2.5,0.3
					c-1.7-0.3-2-0.1-3,0.1c-0.9,0.2-1.2,0.2-2.1-0.2c-0.9-0.3-3-0.6-4.2-0.2c-1.3,0.4-2.2,0.8-3.3,0.5c-1.1-0.3-1.2-0.2-0.5-0.9
					c0.7-0.7,0.9-0.6,2.2-0.8c1.3-0.2,2.3-0.5,1.4-1.1c-0.9-0.5-1.3-0.5-2.5,0.2c-1.3,0.6-1.9,1-3.3,0.2c-1.4-0.8-2.1-0.6-3-0.4
					C410.1,414.8,408.5,414.2,407.2,413.6L407.2,413.6z M411.9,416c-1.8,0.3-2.3-0.9-4.1-0.7c-0.6,0.1-1.7,0.9-0.2,0.7
					c1.4-0.1,3,0.7,4.4,0.5C413.3,416.5,412.7,415.9,411.9,416L411.9,416z M409.8,417.3c0.9-0.3,2.9,0.3,3.7,0.2
					c0.8-0.2,1.6,0.3,0.7,0.6c-0.9,0.3-2.9-0.5-3.9-0.2C409.4,418.1,408.5,417.8,409.8,417.3L409.8,417.3z M391.1,422.3
					c1.3,0,5.9-0.2,7.8-4c0.1-0.3,0.3-0.4,0.9,0c0.6,0.4,2.7,1.7,6.8,2c1.1,0.1,2.3,0.7,0.1,0.5c-2.3-0.2-5.9-0.8-7.1-1.5
					c-2,3.2-5.7,3.6-8.4,3.5C389.5,422.7,389.9,422.3,391.1,422.3z"/>
			</g>
			<g>
				<path fill="#7FB8C1" d="M401.2,417.1c-0.6,0.9-2.8,2.3-3.8,2.4c-1,0.1-3.9-0.2-4.6-0.5c-0.7-0.3-1.6-0.2-0.6,0.5
					c1.1,0.7,3.7,1.2,4.7,1c1.1-0.2,2.3-0.6,3.1-0.1c0.8,0.5,2.3,1.5,3.2,1.3c0.9-0.2,2.7-0.2,3.3,0.1c0.6,0.3,1.6,1.1,0.1,0.6
					s-2.8-0.1-3.5-0.4c0.8,1.1,2.6,2.8,4.1,2.8c0.4,0,0.6,0.6-0.2,1c0.7,0.3,2.5,0.6,3.4-0.2c-0.2,0.3-0.1,0.5,0.3,0.7
					c0.4,0.2,0.9,0.5,0.2,0.5c-0.7,0.1-2.3,0.3-2.8,0.1c1.5,1,5.5,2.5,9.5,1.7c0.8-0.1,1.2-0.5-0.1-0.4c-2.6,0.1-2.7,0-3.2-0.2
					c-0.5-0.3-0.4-0.5,0.4-0.7c0.7-0.2,2.6-0.5,3.4-0.5c0.8,0,1.6-0.3,0-0.3s-3.6,0-4.3-0.3c-0.8-0.3-1.4-0.6-0.5-1.2
					c0.8-0.5,1.7-0.4,2.1-0.9c-2.6,0-5.7-1.4-4-2.6c0.4-0.3,0.3-0.3-0.4-0.4c-0.7-0.1-2.6-0.6-3.4-1.1c-0.8-0.5-0.3-0.9,0.4-1
					C406.2,419.4,403.2,418.6,401.2,417.1L401.2,417.1z M424.1,417c-1.4,1-4.1,1.5-5.2,1.5s-1.3,0.4-0.4,0.5
					c0.9,0.1,1.9,0.2,2.3,0.1c0.4-0.1,0.6-0.2,1.2,0.1c0.6,0.3,1.8,0.4,2.9,0.1c1.1-0.3,2.9-0.5,3.6-0.5c0.7,0,1.6,0.1,0.1-0.3
					c-1.5-0.4-3.9-0.1-4.5,0c-0.6,0.2-2.2,0-1.3-0.2s1.6-0.7,2-1C424.5,417.1,424.3,417.1,424.1,417L424.1,417z M423.4,420
					c-1.2,0.9-3,1.7-4.8,1.8c1.6,0.6,3,2.3,4.1,2.2c-0.5,0.3-1.1,0.8-1.8,0.9c1,0.3,2.7,0,4.1-0.8c2.3,0.7,5.4,0.2,6.4-0.6
					c-1.5,0-3.4-0.5-4.2-1.2c0.7,0,1.4-0.5,1.8-0.9C427.3,421.6,424.3,420.7,423.4,420L423.4,420z"/>
			</g>
			<g>
				<path fill="#7FB8C1" d="M420.9,424.8c0.7-0.1,1.3-0.5,1.8-0.9c-1.3,0.4-6.9-0.5-8.6-1.9c-1.7-1.5-1.7-0.3-0.5,0.7
					C414.7,423.8,416.8,425.4,420.9,424.8L420.9,424.8z M425,428.4c-0.7,0.4-4.1,0.6-5.2,0.4c-1.1-0.2-1.6-0.1-1.3,0.3
					c0.3,0.4,0.4,0.8-0.5,0.7c-0.9-0.1-2.5,0.1-3.2,0.3c-0.7,0.2-1.5,0.8-0.1,0.6c1.4-0.2,2.7-0.5,3.8-0.2c1.1,0.3,4.8,0.3,5.5,0
					c0.7-0.3,0.2-0.3-0.1-0.3c-0.4,0-0.5-0.2,0-0.5C424.5,429.5,424.9,428.8,425,428.4L425,428.4z M392.5,423.9
					c-1.4,0.6-6.1,1.9-7.3,1.9c-1.6,0.7-2.8,1.1-3.6,1.1c0.5,0.5,2.7,0.9,3.5,0.7c-0.5,0.5-1.6,1-2,1.2c1.2-0.2,2.7,0.2,3.4,0.2
					c-1.6,0.9-3.9,1.2-5.1,1.1c0.4,0.5,0.9,1.1,1.6,1.1c-1.5,0.4-3.3,0.4-4.2,0.1c0.4,0.8,0.8,1.2,1.3,1.3c-1.3,0.2-2.8,0.4-4.1-0.4
					c1,1.3,3.3,1.8,6.6,1.4c3.4-0.4,6.2-1.9,7-2.5c-1.4,0.2-3.3,0.2-4.2,0.1c1.9-0.5,5.9-2.2,6.6-2.9c-0.8,0-1.6-0.2-2.1-0.6
					c1.1,0.2,4.9-0.3,6.1-0.8c-1.4-0.3-2.3-1.2-2.7-1.7c4.9,1.6,10.4,1,13.1,0.4c0.6-0.2,0.7-0.9-0.5-0.9c-2.2,0.2-6.4-0.5-7.5-1
					c1,0.8,2.3,1.2,3.1,1.4C399.4,425.8,396.6,426.2,392.5,423.9z"/>
			</g>
			<g>
				<path fill="#7FB8C1" d="M383.1,428.9c0.4-0.2,1.5-0.8,2-1.2c-0.9,0.2-3-0.2-3.5-0.7c0.8,0,2-0.4,3.6-1.1c-2.8-0.1-4.8-0.1-5.8-0.6
					c-1-0.5-2.9-0.4-3.6-0.2c-0.7,0.2-0.5,1.3,2.5,1c-1.3,0.9-4.6,1.2-5.9,0.9c0.3,1,0.5,2,0.2,2.6c1.6,0.9,5.9,2.1,8,1.9
					c-1.9-0.7-2.9-1.5-1.3-1.6C380.9,429.6,381.8,429.3,383.1,428.9L383.1,428.9z M378.3,433.9c3.7-0.3,8.8-0.4,12.7-3.7
					c1-0.9,1.7-0.6,0.7,0.3c-2.1,1.9-7.3,4.4-12.3,4.5C377.3,435,376.4,434.1,378.3,433.9L378.3,433.9z M406.3,427.8
					c-0.9,0.3-3.6,0.8-4.3,0.7c-0.8-0.1-1.9-0.2-2.5,0.2c-0.6,0.4-0.7,0.6,0.2,0.7c0.9,0.1,2,0.2,2.5,0.1c-0.7,0.4-1.2,0.9-1.3,1.2
					c1.3-0.3,3.6,0.2,4.2,0.6c-0.5,0.2-1.1,0-1.5-0.3c2.1,2.2,8.4,2.2,9.4,1.8c-0.5,0.3-0.9,0.7-1.4,0.8c1.8,0.3,3.8,0.3,5.8-0.9
					c-0.7,0.1-2.7-0.1-3.2-0.1c0.4-0.4,1-0.7,1.5-0.9c-0.8-0.2-3.2-0.1-3.8,0.2c0.2-0.5,0.7-1,1.1-1.2c-3.1,0-6.8,0-8.2-0.8
					c2.2,0.2,4.6-1,5.6-1C408.6,428.9,406.8,428.5,406.3,427.8L406.3,427.8z M398.4,429.5c-1.5,0.3-3.8,0.9-4.5,1.3
					c-0.6,0.3-1.3,0.5,0.1,0.5c1.4,0,5.1,0.2,5.9,0.3c-2.1-0.3-4.9-0.4-5.4-0.4s-1.2,0-0.2-0.3C395.4,430.5,396.7,429.9,398.4,429.5
					L398.4,429.5z M395.3,433.1c0.5,0,2.9,0,3.9-0.8c1,0.7,2.9,1.8,4.1,1.8c1.2,0,1.1,0.3,0,0.4c-1.1,0.1-3.1-0.5-4.2-1.3
					C397.7,433.7,396.6,433.3,395.3,433.1L395.3,433.1z M377.3,443.5c2.4,0.9,5.6,1.6,8,0.9c1.3,1.2,4.1,1.2,5.5,0.9
					c1.5-0.3,2.8-0.5,4.5,0.1c1.6,0.5,5,0.6,5.9,1.4c-0.9,0-2.7,0-3.1,0.1c-0.4,0.1-0.2,0.4,0.6,0.8c-2.7-0.2-7.2,1-8.6,2.2
					c0.5-1.2,2.1-2.8,4.5-2.8c-1.4-0.5-5.9-0.5-7.3,0.3c-0.4-0.5-0.9-1.2-1-1.5C383.8,447.2,379.1,445.2,377.3,443.5L377.3,443.5z
					 M371,439.2c2.9-0.4,4.8-1.3,5.7-2.2c0.5,0.5,2.6,0.9,4.9,0.2c-0.5,0.3-0.5,1-0.3,1.4c-1.5,0-4.4,0.8-5.4,1.3
					c-1,0.5-3.8,0.9-4.8,0.3C370.3,439.7,370.2,439.3,371,439.2L371,439.2z"/>
			</g>
			<g>
				<path fill="#7FB8C1" d="M381.4,438.6c-1.5,0-4.4,0.8-5.4,1.3c0.2,0.4,0.3,1,0.4,1.4c2.8-1,9.3-1.6,11.7-1.2
					c-1.2,0.1-3.4,1.3-4.6,1.4c3-0.2,6,0.4,6.8,0.6c0.8,0.2,0.9,0.8,0.4,1.3c-0.6,0.5-0.9,0.6,0.4,0.7c1.3,0,3.8-0.1,5-1.2
					c-0.5-0.5-1.7-0.3-2-0.7c0.8-0.3,1.8-0.9,2.1-1.3c-2.1,0-2.9-0.1-3.6-0.2c-0.7-0.2-1.2-0.3-0.4-0.8c0.9-0.5,1.3-0.9,1.5-1.2
					c-1.5,0.4-3.9,0.8-5.9-0.8c0.7,0.2,2.5,0.1,3.1-0.2c-0.7-0.3-1.2-0.6-1.8-0.6c1.6-0.8,4.8-1.5,8.7,0.1c2-0.2,4.1-0.1,5.5,0.3
					c0.6-0.6,2-2.1,2.7-2.5c-4.6,0.4-12.9-0.5-12.7-2.9c-1.5,1.9-4.9,3-6.4,2.7c-0.2,0.7,0.5,1.6,1,2c-1.6,0.3-4.2,0.5-5.5,0.3
					c0.7,0.7,2,1.3,2.8,1.2C383.5,438.4,382.6,438.7,381.4,438.6L381.4,438.6z"/>
			</g>
			<g>
				<path fill="#7FB8C1" d="M390.9,444.1c1.3,0,3.8-0.1,5-1.2c-0.5-0.5-1.7-0.3-2-0.7c0.8-0.3,1.8-0.9,2.1-1.3
					c3.3-0.3,6.2-0.1,7.6-0.5c1.4-0.4,5-0.2,5.7-0.4c-3.1,0.5-3.8,0.8-3.9,1.3c-0.2,0.5,1,0.9,1.8,0.9c-1.4-0.1-3.2,1.4-3.3,2
					c-1.9-1.1-2.8,0.2-3,0.6c-0.8-0.3-3.4-0.2-4.7,0.9c-1.7-0.5-2.9-0.8-4.6-0.5C392.7,444.9,392.5,444.2,390.9,444.1L390.9,444.1z
					 M405.9,435c1.1,0,3.4,0.1,4.2,0c-0.5,0.3-1.2,0.8-1.4,1c2.7-0.3,6.3-0.5,7.3-0.3c-1.3-0.2-2.6,0.6-3.3,1
					c-0.7,0.4-0.3,0.7,0.6,0.8c0.9,0.1,2.1,0.8,0.5,0.6c-1.6-0.2-4.9-0.2-5.7-0.1c-0.8,0.1-1.2-0.3-0.1-0.4c1.1-0.2,1.9-0.5,2.5-0.9
					c-0.9,0.2-2.7,0.2-3.3,0.1c-0.5-0.2-0.9-0.5-0.3-0.6c0.6-0.2,0.2-0.4-0.5-0.3c-0.7,0.1-2.3,0.8-3.3,1.7
					C404.3,436.4,405.2,435.5,405.9,435L405.9,435z M394,436.8c1.3,1.4,2.8,2.3,5.2,2.3c0.5,0,1.5,0.7,0.2,0.7
					c-3.3,0.1-4.9-0.7-6.4-2.8C392.8,436.6,393.4,436,394,436.8z M435.7,419.1c-1,0.7-2.3,1.8-1.4,3.5c0.1-0.1,0.2-0.1,0.3-0.2
					c3.7-4.5,7.1-9.3,9.9-14.4c0-0.2,0.1-0.3,0.1-0.5c-1.1,0.9-2.8,1.9-3.5,2.1c0.5,1.2-1.7,2.9-2.9,3.3c0.5,0.8,0.3,1.9-0.7,2.2
					c0.2,0.7-0.5,0.7-1.5,1.1c-0.9,0.4-1.4,0.7-1.7,1.2c0.5-0.3,1.2-0.5,1.6-0.4c0.4,0.1,0.5,0.7-0.2,0.9c-0.7,0.2-1.2,0.5-1.4,0.9
					C435.2,418.3,436.6,418.5,435.7,419.1L435.7,419.1z M366.8,401.4c1.2,0.8,3.2,2.2,5.9,2c1.3,1,3.4,1.9,4.3,2.1
					c-1.8,0.7-3.8,1.4-4.3,1.9c-0.8-0.8-1.9-0.7-2.1-1c-0.8,0.6-0.7,1-0.2,1.3c0.5,0.3,4.5,1,5.4,0.7c1-0.3,1.2,0.5,0.4,0.8
					c-2.1,0.7-6.2,0-7.6-2.2c-1.4-2.3-2.6-3.1-6.4-1c-0.4-1.1-0.4-1.4-1.2-1.4s-2.1-1-1.1-0.9C361.1,403.8,364.2,403.3,366.8,401.4
					L366.8,401.4z"/>
			</g>
			<g>
				<path fill="#7FB8C1" d="M367.7,406.4c-0.7,0.2-2.5,1.2-3.2,1.2c-0.7,0.1-1.8,1-0.6,1c1.2,0,2.8-1.3,3.6-1.4
					C368.4,407.2,368.5,406.2,367.7,406.4z M372.8,410.1c0.1,0.4,0.1,0.8,0,1.1c-0.1,0.3-0.1,0.6,0.4,0.2c0.5-0.4,0.8-0.9,1.3-0.6
					c0.5,0.3,1.8,0.2,2.4,0.2c0.6-0.1,0.8-0.2-0.1-0.5c-0.9-0.3-1.7-0.5-2.2-0.4c-0.5,0-1.1-0.1-1.4-0.2S372.7,409.7,372.8,410.1z
					 M391.4,410.2l-0.2,0.6c1.4,0,5,0.3,6.1,1c1.1-0.9,0.9-1.1,1.7-1c0.8,0.2,1.8,0.4,2.2,0.2c0.4-0.2,0.7-0.2,1.2-0.1
					c0.5,0.1,1.5-0.1,2.1-0.5c0.6-0.3,1.8-0.8,2.5-0.8c0.7,0,1.6-0.2,0.3-0.3c-1.3-0.2-3.2,0.2-3.9,0.4c-0.7,0.2-2.7,0.4-3.8,0.4
					c-1.2,0-2.8,0.6-4.1,0.2C394,410,392.1,410.2,391.4,410.2L391.4,410.2z M413.6,409.6c1.7,0.8,5.2,1.5,7.9,1.4
					c0.5,0,1.4,0.5,0.2,0.6c-3,0.3-5.8-0.2-8.3-1.6C412.7,409.7,412.9,409.3,413.6,409.6z M415.3,409.6c2.7-0.1,4.6,0,5.5,0.7
					c1.5-0.5,4.3-0.7,4.9-0.6c0.6,0.1,1.3-0.2-0.1-0.5c-1.4-0.3-4.8-0.5-5.9-0.3c-1.1,0.2-4.3,0.3-5.4,0.2
					C414.8,409.2,415.1,409.3,415.3,409.6L415.3,409.6z M425.7,410.7c1.3-0.7,4.8,0,5.9-0.5c-0.8,0.9,2.5,1,5.4,0.3
					c-1.1,0.7-3.4,0.8-4.5,1.2c-1,0.4-1.6,0.1-2.3-0.2C429.4,411.1,427.4,410.4,425.7,410.7z"/>
			</g>
			<g>
				<path fill="#7FB8C1" d="M437,410.4c-2.9,0.7-6.1,0.7-5.4-0.3c-1.1,0.5-4.7-0.2-5.9,0.5c1.3-0.8,2.3-0.2,3.2-1.7
					c0.6,0.1,2,0.2,2.4-0.4c0.8,0.2,2.3,0.5,2.7,1c0.4,0.4,1.1-0.1,0.5-0.8c1.3-0.5,0.5,0.6,3.5-0.2c0.6-0.2,2.2-0.4,2.7-0.5
					C439.7,408.8,438.4,409.7,437,410.4L437,410.4z"/>
			</g>
		</g>
		<g>
			<path d="M389.1,454.5l-0.3-0.1c-29.1-11.5-48.7-29.3-59.9-54.6c-10.5-23.8-11.9-51.1-12-72.3l0-0.7l144.4,0l0,0.7
				c-0.1,40.3-6.5,59.8-12,72.3c-11.2,25.3-30.8,43.2-59.9,54.6L389.1,454.5z M318.4,328.2c0.2,50.5,9.1,100.4,70.7,124.8
				c61.6-24.4,70.5-74.3,70.7-124.8H318.4z"/>
		</g>
		<g>
			<g>
				<path fill="#CFA763" d="M346,349.4c-1.1,1.4-2.2,2.5-3.6,3.5c-1.5,1-3.3,1.9-2.3,3.6c1,1.8,1.9,2,2.1,3.3c0.2,1.3,0.5,2.5,1.6,2.8
					c1,0.3,1.5,0.1,1.5,2.3c0,2.2,0,3,0.9,3.8c0.9,0.8,0.8,1.7,1.3,3.6c0.4,2,0.4,6.2,1.7,9.1c1.3,2.9,4.1,8.4,3.8,9.5
					c-0.3,1.1-0.7,2,0.5,3.3c1.3,1.3,2.1,3.3,2.2,4.4c0.1,1.1,0.3,1.6,1.6,1.1c1.3-0.4,1.9-0.8,2.3-1.3c0.4-0.5,1.2-0.4,2.4,0.2
					c1.1,0.6,2.9,1.2,4,0.6c1-0.6,1.6-1.5,2.5-1.5c1.5-1,2-3.2,2.3-3.8c0.3-0.6,0.1-0.6-0.5-1.2c-0.6-0.6-0.3-1.7-0.4-2.7
					c-0.1-1-0.5-2.6-1.8-4.9c-1.2-2.3-2-5.1-2.8-5.8c-0.8-0.7-1.3-2.5-1.4-3.3c-0.1-0.8-1-1.6-1.7-2.2c-0.6-0.6-1.3-1.5-2-5.2
					c-0.7-3.6-1.3-6.2-1.3-6.8s-0.1-0.7-0.7-0.9c-0.6-0.2-0.9-1.2-0.7-1.8c0.2-0.5-0.2-1-0.4-1.7c-0.2-0.6,0-1.8,0.4-2.4
					c0.4-0.6,0.3-2.4-0.1-3.8c-0.4-1.4-0.8-2.7-2.5-2.9c-1.7-0.2-2-0.6-2.6-2c-0.6-1.3-1.3-3.7-1.5-4.2c-0.2-0.5-0.5-0.6-1.8,0.4
					c-1.3,1-1.7,1.4-1.7,3.3c0,1.2,0.2,1.7,0.6,2.4c0.4,0.7,0.5,0.9,0.8,2.9c0.3,2,2.1,5.1-0.2,6.8c-2.3,1.8-2,2.2-1.9,3.4
					c0.1,1.2-0.6,2.1-1,0.3c-0.4-1.8,0-2.8,1.3-3.6c1.3-0.8,2.4-1.9,1.6-3c-0.8-1.1-1.1-3.8-1.3-5.1
					C346.9,348.9,346.7,348.5,346,349.4L346,349.4z"/>
			</g>
			<g>
				<g>
					<path fill="#D7C99C" d="M327.4,375.8c-0.1,0.8,0.1,1.8,0.2,2.5c0.1,0.9,0.3,2.6-0.3,4c-0.6,1.3-0.5,2,0,2.4c0,0,0.1,0,0.1,0.1
						c1.3-0.4,1.4-1.8,1.1-2.5c-0.4-0.7-0.3-1.6,0.2-2.3c0.4-0.7,0.4-1.1,0.1-1.7c-0.4-0.5-0.4-0.5,0.1-2
						C329.1,375,328.2,375,327.4,375.8L327.4,375.8z M340.8,395.8c-0.2-0.9-1.1-4.5-1.2-6.8c-0.1-2.3-1.1-4.2-3-6
						c-1.5-1.4-1.9-3.6-1.9-5.4c-1.1-0.7-1.6-0.4-1.5,0.9c0.1,1.4,1.5,2.1,1.3,4.1c-0.2,2-0.2,1.5,0.8,2.5c1,1,1.4,1.9,0.8,2.3
						c-0.5,0.4-0.6,1.1,0.2,1.4c0.7,0.3,0.8,1,0.7,1.8c-0.1,0.7,0.6,0.9,1,1.4c0.4,0.5,0.5,1.8,0.1,2.5c-0.4,0.7-0.5,1.9,0.3,1.2
						c0.7-0.6,1-0.1,1.6,0.9c0.5,0.8,0.9,0.6,1.4,0.3C341,396.6,340.9,396.2,340.8,395.8L340.8,395.8z M334.7,352.8
						c-0.8,0.1-1.3,0.7-0.9,3.1c0.3,1.5-0.8,1.1-1.2,0.4c-0.4-0.7-0.7-2.3-1.6-3.6c-0.8-1.3-0.4,0.9-0.5,2.2
						c-0.1,1.2,0.7,1.2,1.5,2.3c0.7,1,0.1,1.5-0.7,1.5c-0.8,0-0.4,1.7-0.2,2.8c0.2,1.1-0.2,1.3-0.8,0.4c-0.6-0.9-0.2-2.4-0.1-4.1
						c0.1-1.8,0.2-1.3-0.9-1.8c-1.1-0.4-0.9-0.6-0.5-1.7c0.4-1,0.8-1.6,0.3-2.1c-0.5-0.5-0.4-0.8,0.4-0.9c0.8-0.1,0.5-0.7,1.3-0.9
						c0.7-0.2,1,0.1,1.1-1.2c0.1-1.1,0.5-1.8,1.3-1.5C333.5,349.3,334.2,352,334.7,352.8L334.7,352.8z M353.7,371.4
						c0.3-2.3,0.1-4.5,1-5.4c0.9-0.8,2.1-2.5,2,1c-0.1,3.5-0.2,3.3-0.9,4.1c-0.7,0.8-1.4,1-0.6,2.4c0.7,1.3,0.8,1.4,0.7,3.5
						c-0.1,2.1-0.1,2.9,0.7,3.9c0.8,1,1,1.1,1.3,2.3c0.2,1.1,0.9,2.7,1.9,3.5c0.9,0.8,2,3.2,2.1,4.9c0.1,1.7,1.6,2.1,2.9,3.2
						c1.4,1.1-0.3,2-1.4,1.4c-1-0.5-0.6,0-1.3,0.7c-0.6,0.7-0.8,0.8-1.4-0.4c-0.5-1.2-2.3-2.1-3.1-2.4c-0.8-0.3-1.6-1.7-2.3-3
						c-0.6-1.2-1.9-2-3-2.1c0.3,0.9,0.5,1.6,0.4,1.9c-0.3,1.1-0.7,2,0.5,3.3c1.3,1.3,2.1,3.3,2.2,4.4c0.1,1.1,0.3,1.6,1.6,1.1
						c1.3-0.4,1.9-0.8,2.3-1.3c0.4-0.5,1.2-0.4,2.4,0.2c1.1,0.6,2.9,1.2,4,0.6c1-0.6,1.6-1.5,2.5-1.5c1.5-1,2-3.2,2.3-3.8
						c0.3-0.6,0.1-0.6-0.5-1.2c-0.6-0.6-0.3-1.7-0.4-2.7c-0.1-1-0.5-2.6-1.8-4.9c-1.2-2.3-2-5.1-2.8-5.8c-0.8-0.7-1.3-2.5-1.4-3.3
						c-0.1-0.8-1-1.6-1.7-2.2c-0.6-0.6-1.3-1.5-2-5.2c-0.6-2.8-1-5-1.2-6.1c-0.7,1.2-1.3,1.5-1.5,0.7c-0.3-0.9-0.7-1.4-1.1-0.8
						c-0.4,0.6-0.5-0.5-0.5-1c0-0.5-0.1-0.6-0.6-0.6c-0.5,0-0.1-0.8-0.3-2.4c-0.2-1.6-0.5-1.8-0.7,0.1c-0.2,1.9-1.3,3-0.8,3.4
						c0.4,0.4,0.2,1.2-0.2,2.5c-0.4,1.2-0.2,2,0.1,2.8c0.3,0.8-0.2,2.4-0.4,3.7C352.3,372.3,353.4,373.6,353.7,371.4L353.7,371.4z
						 M345.2,364.9c0,2.2,0,3,0.9,3.8c0.9,0.8,0.8,1.7,1.3,3.6c0.4,2,0.4,6.2,1.7,9.1c0.4,0.9,0.9,2,1.4,3.1c0.7-0.5,1.3-1.5,1.5-2
						c0.3-0.7-0.6-2.2-1.4-3.4c-0.7-1.2,0.1-1.7,0.8-3.2c0.7-1.5-0.1-1.7-1.2-2.1c-1.1-0.4-1.1-1.4-1.8-3.1
						c-0.6-1.7-0.5-2.4-0.1-3.3c0.4-0.9,0.1-1.7-0.7-1.9c-0.8-0.2-0.6-0.8-0.3-1.9c0.3-1,0.5-1.2-0.7-0.9c-0.9,0.2-1.2,0.4-1.5,0.7
						C345.1,363.9,345.2,364.3,345.2,364.9z"/>
				</g>
			</g>
		</g>
		<g>
			<g>
				<path d="M368.8,395.2l-0.3-0.1c1.3-4.2,2.6-9.4,3.7-14.3l0.4,0.1C371.4,385.8,370.1,391,368.8,395.2z M366.6,394l-0.3-0.1
					c0.2-0.6,0.4-1.2,0.6-1.7c1.3-3.5,2.6-7.1,3.6-11l0.3,0.1c-1,3.9-2.3,7.5-3.6,11C367,392.8,366.8,393.4,366.6,394z M362.5,391.4
					l-0.4,0l2.5-27.3l0.4,0L362.5,391.4z M413.9,391.1l-0.3-0.1l2.5-10.8l0.3,0.1L413.9,391.1z M416.4,390.3l-0.4,0l1.4-10.5l0.4,0
					L416.4,390.3z M412.2,371.4c-1-0.5-1.9-0.8-2.8-1.2c-1.7-0.6-3.2-1.2-4.5-2.4l0.2-0.3c1.2,1.1,2.7,1.7,4.4,2.3
					c0.9,0.3,1.9,0.7,2.8,1.2L412.2,371.4z"/>
			</g>
		</g>
		<g>
			<path fill="#666666" d="M424.9,406.6c-0.1,0-0.1,0-0.2,0c-0.1,0-0.2,0-0.2,0l-0.2,0c-0.1,0-0.2,0-0.2,0c-0.1,0-0.2,0-0.2,0
				c-0.1,0-0.1,0-0.2,0.1c-0.1,0-0.1,0.1-0.2,0.1c0,0-0.1,0.1-0.1,0.2c-0.1,0.1-0.1,0.2-0.2,0.2l-0.1,0.1c-0.1,0.1-0.2,0.2-0.2,0.2
				l-0.1,0.1c0,0-0.1,0.1-0.1,0.1c0,0-0.1,0.1-0.1,0.1c-0.6,0.5-1.2,0.7-1.9,0.8c-0.5,0.1-1.7,0.2-2.2,0c-1,0-2-0.1-2.6-0.5
				c-0.7-0.4-1.6-0.1-2.1,0.2c-0.4,0.2-0.5,0.7-1,0.8c-0.3,0.4-1.6,0.3-2.1,0.2c-1.2,0.1-1.9-0.3-2.7-0.6c-0.5-0.4-1.4-0.7-2-0.1
				c-0.4,0.4-0.9,0.7-1.6,0.8c-1.1,0-2.4,0.1-3.2-0.3c-0.9-0.1-1.3-0.6-2.1-0.8c-1-0.2-1.4,0.3-2,0.6c-0.6,0.5-1.3,0.5-2.3,0.5
				c-1,0-2.2,0.1-2.9-0.3c-0.8-0.1-1.3-0.6-1.9-0.8c-0.6-0.5-1.7,0-2.2,0.3c-0.9,0.1-1.2,0.8-2.3,0.7c-0.9-0.1-1.5-0.5-2.4-0.7
				c-0.8-0.4-1.5-0.9-2.8-0.8c-0.4,0.5-1.2,0.7-2,0.7c-0.7,0-1.5,0-2-0.2c-1.5,0-2.2-1.6-3.3-2.5l-5.5-5.4c0.3-1,0.4-1.1-0.1-1.8
				c0.2-1-0.5-1.1-0.2-2.1c0.4-0.7-0.7-0.6-1-1c-0.7-0.1-0.9-0.6-1.6-0.8c-0.5-0.4-1-0.6-1.7-0.9c-0.6-0.2-1.1-0.5-1.6-0.8
				c-0.4-0.4-0.9-0.6-1.3-0.9c-0.5-0.2-0.9-0.5-1.3-0.8c-0.5-0.2-0.8-0.6-1.3-0.8c-0.4-0.3-1-0.6-1.4-0.9c-0.7-0.2-1.3-0.7-2-0.8
				c-0.5,0-0.7-1.1,0.3-1.1c0.7,0,1.1,0.4,1.6,0.7c0.8,0.3,1.6,0.7,2.5,0.8c0.5,0.3,1,0.5,1.7,0.7c0.5,0.4,1.3,0.5,1.9,0.9
				c0.6,0.3,1.4,0.6,1.8,0.9c0.5,0.2,0.8,0.6,1.4,0.8c0.2,0.2,0.6,0.4,0.9,0.6c0.6,0.2,1.1,0.5,1.5,0.7c0.5,0.3,0.8,0.4,1.2,0.7
				c0.5,0.1,3.5,1.7,3.3,1.5c3,0.6,4.3,0.7,7.2,1.2l21.6,0.3l7.8-3.3l2.4-3.8l11.6-2.1c-0.2-0.2,20.3-0.7,20.7,1
				c0.2,0.7,0.7,2.2,0.1,2.5c-0.4,0.2-19.4-2.4-19.7-0.7c-0.1,0.7,0,5.3,0.1,6.1l0.3,2.2l0.3,2.2l0.3,2.2L424.9,406.6L424.9,406.6z"
				/>
		</g>
		<g>
			<g>
				<path d="M382.9,396.3c-1.3-4.7-2.3-9.2-3.4-14.6l0.4-0.1c1.1,5.4,2.1,9.9,3.4,14.6L382.9,396.3z M355.7,387.8l-0.2-0.3
					c4.2-3.4,7.5-6.6,10.7-10.1l0.3,0.2C363.3,381.2,360,384.3,355.7,387.8z M388.6,375c-3.8-1-6.4-2.6-8.3-3.9l0.2-0.3
					c1.8,1.3,4.4,2.9,8.1,3.8L388.6,375z M386.7,362.1c-4.9-1.3-6.6-3.4-8-5.7l0.3-0.2c1.3,2,2.7,3.9,6.5,5.2l-0.1-0.1l11.2-9.7
					l0.2,0.3l-11.1,9.6c0.4,0.1,0.7,0.2,1.1,0.3L386.7,362.1z M385.7,351.3c-2.4-0.9-4.6-1.8-6.2-3.3l0.2-0.3
					c1.6,1.5,3.8,2.4,6.1,3.3L385.7,351.3z M368.6,339.7l-0.2-0.3c3.1-1.5,5.5-3.4,7.1-5.4l0.3,0.2
					C374.2,336.3,371.7,338.2,368.6,339.7z"/>
			</g>
			<g>
				<path d="M378.9,396.2l-0.3-0.3c6.6-6.8,11.1-13.1,14-19.7l0.3,0.1C390,383.1,385.6,389.4,378.9,396.2z M411.6,359.1
					c-2.8-0.7-4.8-2-7-4.3l0.3-0.2c2.1,2.3,4.1,3.5,6.8,4.2L411.6,359.1z M418.1,354.9c-0.5-0.6-0.9-1.2-1.4-1.7
					c-1.4-1.7-2.8-3.4-4-5.6l0.3-0.2c1.2,2.1,2.6,3.9,4,5.5c0.5,0.6,0.9,1.2,1.4,1.7L418.1,354.9z M392.6,346.8l-0.3-0.2
					c0.2-0.4,0.4-0.9,0.7-1.3c1.1-2.1,2.3-4.4,2.4-6.7l0.4,0c-0.2,2.4-1.4,4.8-2.5,6.9C393.1,345.9,392.8,346.3,392.6,346.8z"/>
			</g>
			<g>
				<path d="M424.2,389.3L424,389c2.8-1.7,5.3-4,7.8-6.3c-2.9,2.2-6.2,4.4-9.7,6.2l-0.2-0.3c4.7-2.4,8.9-5.5,12.3-8.2l0.2,0.3
					l-0.4,0.4C431,384,427.8,387.1,424.2,389.3z M415,374.7l-0.2-0.3c1.8-1.1,3.3-2.7,4.8-4.2c0.6-0.6,1.2-1.3,1.9-1.9l0.2,0.3
					c-0.6,0.6-1.3,1.3-1.9,1.9C418.4,372,416.8,373.6,415,374.7z M415.1,357.8l-0.2-0.3c2.4-1.5,3.9-3.4,5.5-5.2
					c0.3-0.3,0.5-0.6,0.8-1l0.3,0.2c-0.3,0.3-0.5,0.6-0.8,1C419.2,354.2,417.5,356.3,415.1,357.8z M426.9,357.2
					c-1.8-1.5-3.4-3.5-4.1-5.3l0.3-0.1c0.7,1.7,2.2,3.7,4,5.2L426.9,357.2z M392.8,346.3l-0.2-0.3c2.5-1.3,4.4-3.4,6.2-5.4
					c0.2-0.3,0.5-0.5,0.7-0.8l0.3,0.2c-0.2,0.3-0.5,0.5-0.7,0.8C397.2,342.9,395.3,345.1,392.8,346.3z M395.1,332.7l-0.1-0.3
					c1.6-0.6,3.7-1.8,4.9-2.7l0.2,0.3C398.8,330.9,396.7,332.1,395.1,332.7z"/>
			</g>
		</g>
		<g>
			<path fill="#BCA76B" d="M420.6,333.3l-0.3,56l4.1-0.2l-1.7-55.9L420.6,333.3z"/>
			<path fill="#472B1F" d="M420.1,389.4l0-0.1l0.3-56.1l2.3-0.2l0,0.1l1.7,56l-0.1,0L420.1,389.4z M420.7,333.4l-0.3,55.7l3.8-0.2
				l-1.7-55.6L420.7,333.4z"/>
		</g>
		<g>
			<g>
				<path fill="#333333" d="M423.3,405.4c1,0.6,1.5,1.1,2.3,1.9c1.8,1.6,3,1.6,5.5,0c0.9,0.1,1.9,0.6,2.9,0.4c0.9,0,1.8-0.1,2.7-0.3
					c1.1-0.3,1.2-1.6,1.6-2.4c0.5-1,1-2.1,1.8-3c0.9-0.6,2-1.3,2.6-2.2c0.7-0.9,0.6-2,0.5-3.1c-0.1-1-0.2-1.9-0.2-2.9
					c-0.2-1.3,0.9-2.3,0.8-3.5c-0.6-0.6-1.7-0.7-2.5-1c-1.5-0.3-3-0.5-4.5-0.7c-1.2-0.1-2.5-0.2-3.7-0.3c-1.2-0.1-2.4-0.2-3.7-0.2
					c-1.4,0-2.8-0.1-4.1,0.1c-1,0.2-2.2,0.1-3,0.6c-0.4,0.9-0.6,1.9-0.6,2.9c-0.1,0.8-0.2,1.7-0.2,2.6c0,1.6-0.2,3.2,0.3,4.7
					c0.3,1.2,0.4,2.5,0.6,3.7C422.5,403.7,422.6,404.7,423.3,405.4L423.3,405.4z"/>
				<path d="M428.1,409c-0.9,0-1.8-0.5-2.8-1.4c-0.8-0.8-1.3-1.3-2.3-1.8l-0.1-0.1c-0.8-0.8-0.9-1.9-1-3c-0.1-0.5-0.2-1-0.2-1.5
					c-0.1-0.7-0.2-1.4-0.4-2.1c-0.3-1.1-0.3-2.3-0.3-3.5c0-0.4,0-0.9,0-1.3c0-1,0.1-1.9,0.2-2.7c0-0.9,0.3-1.9,0.6-3l0.1-0.2
					l0.2-0.1c0.6-0.3,1.3-0.4,2-0.5c0.4,0,0.8-0.1,1.1-0.2c1-0.2,1.9-0.1,2.8-0.1c0.5,0,0.9,0,1.4,0c1.2,0,2.3,0.1,3.7,0.2
					c0.7,0.1,1.4,0.1,2.1,0.2c0.5,0.1,1.1,0.1,1.6,0.1c1.5,0.1,3.1,0.3,4.6,0.7c0.2,0.1,0.4,0.1,0.6,0.2c0.7,0.2,1.6,0.4,2.1,0.9
					l0.1,0.1l0,0.2c0.1,0.7-0.2,1.3-0.4,1.9c-0.2,0.6-0.4,1.1-0.3,1.6l0,0l0,0c0,1,0.1,1.9,0.2,2.9c0.1,0.9,0.3,2.3-0.6,3.4
					c-0.6,0.9-1.6,1.6-2.5,2.2l-0.1,0.1c-0.7,0.8-1.2,1.9-1.7,2.8c-0.1,0.2-0.1,0.4-0.2,0.6c-0.3,0.8-0.6,1.8-1.7,2.1
					c-0.8,0.2-1.8,0.4-2.8,0.3c-0.7,0.1-1.5-0.1-2.1-0.2c-0.3-0.1-0.5-0.1-0.8-0.2C430,408.6,429,409,428.1,409z M423.6,405.1
					c1,0.6,1.5,1.1,2.4,1.9c1.5,1.4,2.4,1.6,4.9-0.1l0.1-0.1l0.2,0c0.4,0,0.7,0.1,1.1,0.2c0.6,0.2,1.2,0.3,1.7,0.2l0,0l0.1,0
					c0.9,0,1.8-0.1,2.6-0.3c0.5-0.1,0.8-0.7,1-1.5c0.1-0.2,0.2-0.5,0.3-0.7c0.5-1,1.1-2.1,1.8-3.1l0.1-0.1l0.2-0.1
					c0.9-0.6,1.8-1.2,2.3-2c0.6-0.7,0.5-1.7,0.4-2.7c-0.1-1-0.2-2-0.2-3c-0.1-0.8,0.1-1.5,0.4-2.1c0.2-0.4,0.3-0.8,0.4-1.2
					c-0.4-0.3-1-0.4-1.6-0.6c-0.2-0.1-0.4-0.1-0.6-0.2c-1.4-0.3-2.9-0.5-4.4-0.6c-0.6,0-1.1-0.1-1.7-0.1c-0.7-0.1-1.4-0.1-2-0.2
					c-1.3-0.1-2.5-0.2-3.6-0.2c-0.5,0-1,0-1.4,0c-0.9,0-1.8,0-2.6,0.1c-0.4,0.1-0.8,0.1-1.2,0.2c-0.5,0.1-1.1,0.1-1.5,0.3
					c-0.3,0.9-0.5,1.7-0.5,2.5c-0.1,0.8-0.2,1.6-0.2,2.5c0,0.4,0,0.9,0,1.4c0,1.1,0,2.2,0.3,3.2c0.2,0.8,0.3,1.5,0.4,2.2
					c0.1,0.5,0.1,1,0.2,1.5l0,0.1C423,403.7,423.1,404.5,423.6,405.1z"/>
			</g>
			<g>
				<g>
					<path d="M441.7,389.2c-1.6-1.7-2.9-3.8-3.9-6.2l0.3-0.1c1,2.4,2.3,4.5,3.9,6.1L441.7,389.2z M433.3,388.6l-5.5-10.4l0.3-0.2
						l5.5,10.4L433.3,388.6z"/>
				</g>
			</g>
		</g>
		<g>
			<g>
				<path fill="#472B1F" d="M441.4,372.9l1.8,1.3l0.1,0C442.8,373.7,442.2,373.1,441.4,372.9C441.5,372.9,441.4,372.9,441.4,372.9
					L441.4,372.9z M437.6,373.4l-0.2,0.1l-2.6,10L437.6,373.4z M449.8,373.8c-0.6,0.1-1.2,0.3-1.8,0.6l1.1-0.4l1.4-0.2
					C450.3,373.8,450,373.8,449.8,373.8L449.8,373.8z M437.9,382.9l-0.5,0.1c0.2,0,0.4,0,0.6,0.1c0.3,0.1,0.5,0.2,0.7,0.3
					L437.9,382.9z M438.9,383.5c0.7,0.4,1.2,0.9,2,1.1L438.9,383.5z M444.8,384l-3.4,0.7C442.6,384.8,443.7,384.3,444.8,384z"/>
			</g>
		</g>
		<g>
			<path fill="#FFFFFF" d="M437.8,372.8l-2.9,10.7l3.1-0.6l3.2,1.8l4.9-1l2.5,0.4c0.8-3.4,0.5-7.5,2.6-10.4l-2,0.3l-3.2,1.1l-2.6-1
				l-2-1.4L437.8,372.8z"/>
		</g>
		<g>
			<path fill="#C8102E" d="M442.4,374.1c-0.5,1-1,2-1.1,3.2c0,0-1.4-0.5-2.2-0.6c-0.8-0.1-2.4,0-2.4,0l0,0.1l-0.7,2.5
				c0.1,0,2-0.2,2.8-0.1c0.6,0.1,1.8,0.7,1.8,0.7l-0.9,4.1l0.6,0.3l1.3,0.4l0,0l0.6-0.1c0.3-1.4,0.5-2.8,1.1-3.9c0,0,2,0.5,3.1,0.5
				c0.8-0.1,2.3-0.2,2.7-0.3c0.1-0.9,0.2-1.7,0.4-2.6c-0.4,0.1-2.1,0.5-3,0.4c-0.9-0.1-2.4-0.9-2.4-0.9c0.2-0.9,0.6-1.8,1.1-2.6
				L442.4,374.1z"/>
		</g>
		<g>
			<path d="M435.4,372.9c-1.3-3.4-2.9-9.3-3.6-14.1l0.5-0.1c0.7,4.8,2.3,10.6,3.6,14L435.4,372.9z"/>
		</g>
		<g>
			<g>
				<path fill="#472B1F" d="M441.8,385.2c-0.2,0-0.5,0-0.7-0.1c-0.8-0.1-1.3-0.5-1.9-0.9c-0.4-0.3-0.8-0.6-1.3-0.7
					c-0.7-0.2-2.5,0.2-3.4,0.4l-0.8,0.2l2.7-11l0.3-0.1c0.3-0.1,3.4-0.8,4.8-0.5c0.8,0.2,1.4,0.7,2,1.1c0.6,0.5,1.1,0.9,1.7,1
					c0.8,0.1,1.5-0.3,2.4-0.7c0.7-0.3,1.5-0.7,2.3-0.8c0.8-0.1,2.3,0.3,2.5,0.3l0.5,0.1l-2.1,7.7v3.5l-0.6-0.1c0,0-2.7-0.6-4-0.5
					c-0.7,0.1-1.3,0.3-1.9,0.5C443.4,384.9,442.6,385.2,441.8,385.2z M437.4,382.6c0.3,0,0.5,0,0.7,0.1c0.7,0.2,1.2,0.5,1.7,0.9
					c0.5,0.3,0.9,0.6,1.5,0.7c0.9,0.1,1.8-0.1,2.7-0.4c0.7-0.2,1.3-0.4,2.1-0.5c1.1-0.1,2.8,0.2,3.7,0.4l0-2.5l1.8-6.8
					c-0.5-0.1-1.3-0.2-1.7-0.2c-0.6,0.1-1.3,0.4-2,0.7c-0.9,0.4-1.9,0.9-2.9,0.7c-0.9-0.1-1.5-0.7-2.2-1.2c-0.5-0.4-1-0.8-1.6-1
					c-0.9-0.2-3,0.2-4.1,0.4l-2.2,8.9C435.6,382.7,436.6,382.6,437.4,382.6z"/>
			</g>
			<g>
				<g>
					<path fill="#BCA76B" d="M437.4,373.5l-1.3,0.1L432,388l1.9,0.1L437.4,373.5z"/>
					<path fill="#472B1F" d="M434,388.2L434,388.2l-2.1-0.1l4.1-14.6l1.5-0.1L434,388.2z M432.2,387.9l1.7,0.1l3.4-14.3l-1.1,0.1
						L432.2,387.9z"/>
				</g>
				<g>
					<path fill="#BCA76B" d="M436.1,373.6c-0.6-0.3-1-1.2-0.7-1.8c0.3-0.7,1.4-0.8,2.1-0.6c0.8,0.2,1.8,1.1,1.6,1.8
						C438.8,373.9,437,374.1,436.1,373.6L436.1,373.6z"/>
					<path fill="#472B1F" d="M437.4,374c-0.5,0-1-0.1-1.3-0.3l-0.4-0.2h0.1c-0.4-0.4-0.7-1.2-0.5-1.8c0.3-0.7,1.5-0.9,2.2-0.7
						c0.5,0.2,1.3,0.6,1.6,1.2c0.1,0.3,0.2,0.5,0.1,0.8c-0.1,0.3-0.4,0.6-0.8,0.8C438.1,373.9,437.7,374,437.4,374z M436.2,373.5
						c0.6,0.3,1.5,0.3,2.1,0.1c0.3-0.1,0.6-0.3,0.7-0.7c0.1-0.2,0-0.4-0.1-0.6c-0.3-0.5-0.9-0.9-1.4-1.1c-0.7-0.2-1.7,0-2,0.5
						C435.2,372.3,435.6,373.2,436.2,373.5L436.2,373.5z"/>
				</g>
			</g>
		</g>
		<g>
			<path fill="#472B1F" d="M451,373.9c-2,2.8-1.8,6.7-2.5,10.1c0.9,0.2,1.7,0.3,1.7,0.3v-2.9l1-3.3l1.1-3.9
				C452.2,374.1,451.6,374,451,373.9z"/>
		</g>
		<g>
			<g>
				<path d="M412.1,391l-0.3-0.1l0.8-2.6l0,0l0.1-0.4l0,0l0.8-2.6l0-0.1l0,0l0.7-2.5l0-0.1l0,0l0.7-2.2l0.3,0.1l-0.6,2.1l2.7,0
					l0,0.4l-2.8,0l-0.7,2.2l3.2,0.1l0,0.4l-3.3-0.1L413,388l3.5,0.7l-0.1,0.4l-3.6-0.7L412.1,391z M428.6,388.5l-3.2-8.3l0.3-0.1
					l0.7,1.8l1.2-0.5l-1.1-2.4l0.3-0.2l1.1,2.4l1.5-0.6l0.1,0.3l-1.5,0.6l0.6,1.3l1.5-0.6l0.1,0.3l-1.5,0.6l1.4,3.1l1.6-0.7l0.1,0.3
					l-1.6,0.7l0.8,1.6l-0.3,0.2l-0.8-1.6l-1.6,0.7l0.4,0.9L428.6,388.5z M427.2,383.9l1.2,3.2l1.6-0.7l-1.4-3.1L427.2,383.9z
					 M426.6,382.2l0.5,1.4l1.3-0.6l-0.6-1.3L426.6,382.2z M428.8,373.8l-4.5-4.8l0.3-0.2l4.5,4.8L428.8,373.8z M434.6,370.3
					c-1.3-1.3-2.5-2.8-3.5-4.1c-1.3-1.6-2.4-3.1-3.5-3.8l0.2-0.3c1.1,0.8,2.2,2.2,3.5,3.9c1,1.3,2.2,2.8,3.5,4.1L434.6,370.3z
					 M431.4,357.1c-1.5-3.9-2.7-10.3-2.9-15.2l0.4,0c0.2,4.9,1.4,11.2,2.9,15.1L431.4,357.1z M410.9,340.9
					C410.9,340.9,410.9,340.9,410.9,340.9l-0.1-0.4c0,0,0,0,0.1,0c1.8,0,7.8-4.4,8.7-6.8l0.3,0.1C419.1,336.2,413,340.9,410.9,340.9
					z M428.7,338.1c-2.8-0.7-5.4-2.7-5.9-4.3l0.3-0.1c0.4,1.5,3,3.4,5.6,4.1L428.7,338.1z"/>
			</g>
		</g>
		<g>
			<g>
				<path fill="#BCA76B" d="M423,331.9c-0.7-0.3-2.7-0.3-3.4,0.3c-0.4,0.3-0.1,1.4,0.4,1.4c1,0,2.4,0.1,2.8-0.2
					C423.2,333.1,423.5,332,423,331.9L423,331.9z"/>
				<path fill="#472B1F" d="M421.1,333.8c-0.3,0-0.5,0-0.8,0l-0.2,0c-0.3,0-0.6-0.3-0.7-0.7c-0.1-0.4-0.1-0.8,0.2-1
					c0.8-0.6,2.7-0.6,3.5-0.3l0,0c0.2,0.1,0.3,0.2,0.3,0.5c0.1,0.4-0.2,1.1-0.5,1.3C422.6,333.7,421.9,333.8,421.1,333.8z
					 M421.7,331.8c-0.7,0-1.5,0.1-2,0.5c-0.1,0.1-0.2,0.4-0.1,0.7c0.1,0.3,0.3,0.5,0.4,0.5l0.2,0c0.9,0,2.1,0,2.5-0.2
					c0.3-0.2,0.5-0.7,0.4-1c0-0.2-0.1-0.2-0.2-0.2l0,0C422.7,331.9,422.2,331.8,421.7,331.8z"/>
			</g>
			<g>
				<path fill="#BCA76B" d="M411.7,340.6c1.3,5.5,7.1,4.6,6.9-0.4"/>
				<path fill="#472B1F" d="M415.4,344.5c-1.5,0-3.3-1.1-3.9-3.9l0.4-0.1c0.7,2.8,2.5,3.8,3.9,3.6c1.4-0.2,2.7-1.5,2.6-3.9l0.4,0
					c0.1,2.7-1.3,4.1-2.9,4.3C415.7,344.5,415.6,344.5,415.4,344.5z"/>
			</g>
			<g>
				<path fill="#BCA76B" d="M417,340.3c1.7,6.3,9.3,5.2,8.9-0.5"/>
				<path fill="#472B1F" d="M421.9,344.8c-2,0-4.2-1.3-5.1-4.4l0.4-0.1c0.9,3.2,3.4,4.4,5.3,4.1c1.7-0.3,3.4-1.8,3.2-4.5l0.5,0
					c0.2,3-1.7,4.6-3.6,5C422.4,344.8,422.2,344.8,421.9,344.8z"/>
			</g>
			<g>
				<path fill="#BCA76B" d="M423.4,340.2c1.7,4.6,4.1,3.7,7-0.5"/>
				<path fill="#472B1F" d="M426.2,343.5c-0.1,0-0.2,0-0.2,0c-1.1-0.1-2-1.2-2.7-3.2l0.4-0.1c0.7,1.8,1.5,2.8,2.4,2.9
					c1.1,0.1,2.5-1,4.2-3.5l0.3,0.2C428.9,342.3,427.4,343.5,426.2,343.5z"/>
			</g>
			<g>
				<path fill="#BCA76B" d="M432,338l-21.2,1.2l0.1,1.4l21.4-1.1L432,338z"/>
				<path fill="#472B1F" d="M410.7,340.9l-0.1-1.8l21.6-1.2l0.3,1.9L410.7,340.9z M411,339.4l0,1.1l21-1.1l-0.2-1.2L411,339.4z"/>
			</g>
			<g>
				<path fill="#BCA76B" d="M412.5,359.3c1.3,6,7.3,5.1,7.2-0.4"/>
				<path fill="#472B1F" d="M416.4,363.7c-1.6,0-3.4-1.3-4.1-4.3l0.4-0.1c0.6,3,2.5,4.2,4,4c1.4-0.2,2.9-1.6,2.8-4.3l0.4,0
					c0.1,2.9-1.5,4.5-3.1,4.7C416.6,363.7,416.5,363.7,416.4,363.7z"/>
			</g>
			<g>
				<path fill="#BCA76B" d="M418,359.1c1.7,6.9,9.6,5.9,9.3-0.4"/>
				<path fill="#472B1F" d="M423.1,364.1c-2.1,0-4.5-1.5-5.3-5l0.5-0.1c0.9,3.5,3.3,4.8,5.3,4.5c1.8-0.3,3.6-1.9,3.5-4.9l0.5,0
					c0.1,3.3-1.9,5.1-3.9,5.4C423.5,364.1,423.3,364.1,423.1,364.1z"/>
			</g>
			<g>
				<path fill="#BCA76B" d="M424.7,359.1c1.7,5.1,4.2,4.1,7.2-0.4"/>
				<path fill="#472B1F" d="M427.5,362.7c-0.1,0-0.2,0-0.3,0c-1.1-0.2-2.1-1.3-2.8-3.5l0.4-0.1c0.7,2,1.5,3.1,2.5,3.3
					c1.2,0.2,2.6-1.1,4.4-3.7l0.3,0.2C430.3,361.5,428.8,362.7,427.5,362.7z"/>
			</g>
			<g>
				<path fill="#BCA76B" d="M433.7,356.9l-22.1,0.9l0,1.6l22.3-0.8L433.7,356.9z"/>
				<path fill="#472B1F" d="M411.4,359.6l0-2l22.5-1l0.3,2.1l-0.2,0L411.4,359.6z M411.8,358l0,1.2l21.8-0.8l-0.2-1.3L411.8,358z"/>
			</g>
			<g>
				<path fill="#BCA76B" d="M411.9,376.3c1.4,6.1,7.6,5.1,7.3-0.5"/>
				<path fill="#472B1F" d="M415.9,380.7c-1.6,0-3.5-1.3-4.2-4.3l0.4-0.1c0.7,3.1,2.6,4.2,4.2,4c1.4-0.2,2.9-1.7,2.8-4.4l0.4,0
					c0.2,3-1.5,4.6-3.1,4.9C416.2,380.6,416.1,380.7,415.9,380.7z"/>
			</g>
			<g>
				<path fill="#BCA76B" d="M417.6,376c1.5,9.2,9.9,5.9,9.5-0.6"/>
				<path fill="#472B1F" d="M422.3,381.9c-2,0-4.2-1.5-4.9-5.9l0.5-0.1c0.7,4.3,2.9,5.6,4.8,5.4c2.2-0.2,4.4-2.6,4.2-5.9l0.5,0
					c0.2,3.6-2.3,6.2-4.7,6.5C422.6,381.9,422.4,381.9,422.3,381.9z"/>
			</g>
			<g>
				<path fill="#BCA76B" d="M424.4,375.9c1.8,5.2,4.4,4.2,7.4-0.5"/>
				<path fill="#472B1F" d="M427.4,379.5c-0.1,0-0.2,0-0.2,0c-1.2-0.1-2.1-1.3-2.9-3.6l0.4-0.1c0.7,2.1,1.6,3.2,2.6,3.3
					c1.2,0.1,2.7-1.2,4.5-3.9l0.4,0.2C430.2,378.2,428.7,379.5,427.4,379.5z"/>
			</g>
			<g>
				<path fill="#BCA76B" d="M433.6,373.4l-22.6,1.4l0.1,1.6l22.8-1.2L433.6,373.4z"/>
				<path fill="#472B1F" d="M410.8,376.6l-0.1-2l0.2,0l22.8-1.4l0.3,2.2l-0.2,0L410.8,376.6z M411.2,375l0,1.2l22.4-1.2l-0.2-1.3
					L411.2,375z"/>
			</g>
			<g>
				<g>
					<path fill="#BCA76B" d="M426,349l-8.4,0.2l0,2.1l8.5,0L426,349z M426,366.7l-8.4,0.2l0,2.1l8.5,0L426,366.7z"/>
					<path fill="#472B1F" d="M417.6,369.1l0-2.3l0.1,0l8.5-0.2l0.1,2.5h-0.1L417.6,369.1z M417.7,367.1l0,1.9l8.3,0l-0.1-2.1
						L417.7,367.1z M417.5,351.4l0-2.3l0.1,0l8.5-0.2l0.1,2.5h-0.1L417.5,351.4z M417.7,349.3l0,1.9l8.3,0l-0.1-2.1L417.7,349.3z"/>
				</g>
			</g>
		</g>
		<g>
			<g>
				<path d="M371,396.4l-0.5-0.1c1-3.9,2.1-9.6,2.9-15.2l0.5,0.1C373.1,386.8,372,392.5,371,396.4z M411,391.5l-6.2-14.9l0.4-0.2
					l6.2,14.9L411,391.5z"/>
			</g>
			<g>
				<path d="M443.2,390.2c-3.5-0.6-7.1-1.2-10.6-1.3c-2.8-0.1-5.6,0-8.4,0.3c-4.1,0.4-8.3,0.6-12.2,1.8c-0.5,0.2-1.1,0.3-1.5,0.7
					c-1.1,1.1-1.2,2.9-2.1,4.1c-0.9,1.2-4.4,3.2-5.6,4c-9.1,0.2-19.1,0.1-30.4-1.6l-1.6-1.8l-0.7-0.7l1.8,0.7l4,0.1l9.8-0.4
					c0,0,8.3,0,12.4-0.2c2.3-0.1,4.7-0.2,7-0.6c0.5-0.1,1.1,0,1.5-0.3c0.7-0.5,0.9-1.4,1.4-2.1c0.5-0.6,0.7-1.5,1.4-1.9
					c1.8-1.3,4-1.2,5.9-1.6c2.3-0.4,4.4-0.5,6.8-0.9c2.7-0.4,5.4-0.6,8.1-0.7c1.7-0.1,3.5-0.2,5.2-0.1c2.6,0.2,5.5,0,7.8,1.3
					c0.4,0.2,1.2,0.7,0.9,1.1C444,390.6,443.5,390.2,443.2,390.2L443.2,390.2z"/>
				<path d="M396.3,400c-6.9,0-15.1-0.3-24.1-1.7l-0.1,0l0,0l-1.6-1.8l-1.1-1.1l2.4,0.9l4,0.1l9.8-0.4c0.1,0,8.3,0,12.4-0.2
					c2.6-0.1,4.8-0.3,7-0.6c0.1,0,0.3,0,0.4,0c0.4,0,0.7,0,1-0.2c0.4-0.3,0.7-0.7,0.9-1.2c0.1-0.3,0.3-0.5,0.5-0.8
					c0.1-0.2,0.3-0.4,0.4-0.6c0.3-0.5,0.6-1,1.1-1.3c1.3-1,2.9-1.2,4.4-1.4c0.5-0.1,1-0.1,1.5-0.2c1.4-0.3,2.7-0.4,4-0.5
					c0.9-0.1,1.8-0.2,2.8-0.3c2.7-0.4,5.5-0.6,8.1-0.7l0.6,0c1.5-0.1,3.1-0.2,4.6-0.1c0.6,0,1.1,0.1,1.7,0.1
					c2.1,0.1,4.4,0.2,6.2,1.2c0.5,0.3,0.9,0.6,1,0.9c0,0.1,0,0.3-0.1,0.4c-0.2,0.3-0.5,0.1-0.8,0c-0.1-0.1-0.2-0.1-0.3-0.1l-0.3,0
					c-3.4-0.5-6.9-1.1-10.4-1.3c-3.1-0.1-6.1,0.1-8.4,0.3c-0.6,0.1-1.2,0.1-1.9,0.2c-3.4,0.3-7,0.6-10.3,1.6
					c-0.5,0.1-1.1,0.3-1.4,0.7c-0.6,0.6-0.9,1.3-1.2,2.2c-0.3,0.7-0.5,1.4-0.9,1.9c-0.7,1-2.9,2.3-4.6,3.4c-0.4,0.3-0.8,0.5-1.1,0.7
					l0,0l0,0C400.7,400,398.6,400,396.3,400z M372.3,398.1c11.9,1.8,22.4,1.8,30.3,1.6c0.3-0.2,0.6-0.4,1.1-0.7
					c1.5-0.9,3.8-2.4,4.5-3.3c0.4-0.5,0.7-1.2,0.9-1.9c0.3-0.8,0.6-1.7,1.3-2.3c0.4-0.4,1.1-0.6,1.5-0.8c3.3-1,6.9-1.3,10.4-1.6
					c0.6-0.1,1.2-0.1,1.9-0.2c2.3-0.2,5.4-0.4,8.5-0.3c3.5,0.2,7,0.7,10.4,1.3l0.3,0c0.1,0,0.3,0.1,0.4,0.2c0.2,0.1,0.4,0.2,0.4,0.1
					c0,0,0-0.1,0-0.2c-0.1-0.3-0.7-0.6-0.9-0.8c-1.8-1-4-1.1-6.1-1.2c-0.6,0-1.1,0-1.7-0.1c-1.5-0.1-3.1,0-4.6,0.1l-0.6,0
					c-2.6,0.1-5.4,0.3-8.1,0.7c-1,0.1-1.9,0.2-2.8,0.3c-1.3,0.1-2.6,0.3-4,0.5c-0.5,0.1-1,0.2-1.6,0.2c-1.5,0.2-3,0.4-4.3,1.3
					c-0.4,0.3-0.7,0.7-1,1.2c-0.1,0.2-0.3,0.4-0.4,0.6c-0.2,0.2-0.3,0.5-0.4,0.8c-0.3,0.5-0.5,1-1,1.3c-0.3,0.2-0.7,0.2-1.1,0.3
					c-0.1,0-0.3,0-0.4,0c-2.2,0.3-4.4,0.4-7,0.6c-4.1,0.2-12.3,0.2-12.4,0.2l-9.8,0.4l-4.1-0.1l-1.2-0.4l0.2,0.2L372.3,398.1z"/>
			</g>
			<g>
				<g>
					<path d="M407,394.4l-4.9-12.9l0.3-0.1l4.9,12.9L407,394.4z M408.7,392l-4.4-11.4l-1.7,0.6l-0.1-0.3l1.7-0.6l-1.1-3l0.3-0.1
						l1.2,3l1.7-0.6l0.1,0.3l-1.7,0.6l4.4,11.4L408.7,392z M390.2,372.3l-0.1-0.3c3.3-1,6.2-2.5,8.9-4.4l0.2,0.3
						C396.5,369.8,393.6,371.3,390.2,372.3z M408.1,332.3c-2.5-0.4-5-1.3-6.3-2.3l0.2-0.3c1.3,1,3.7,1.8,6.1,2.2L408.1,332.3z"/>
				</g>
			</g>
		</g>
		<g>
			<path fill="#BCA76B" d="M399.9,328l-1.2,68.8l4.1-0.2L402,328L399.9,328z"/>
			<path fill="#472B1F" d="M398.6,396.9l0-0.1l1.2-68.9l2.4,0l0,0.1l0.8,68.7L398.6,396.9z M400,328.1l-1.2,68.5l3.8-0.2l-0.8-68.3
				L400,328.1z"/>
		</g>
		<g>
			<path d="M412.6,346c-3.6-1.6-6.3-4.1-8-7.2l0.4-0.2c1.6,3.1,4.2,5.4,7.8,7L412.6,346z"/>
		</g>
		<g>
			<g>
				<path fill="#BCA76B" d="M391.5,334.3c1.3,6,7.3,5.1,7.2-0.4"/>
				<path fill="#472B1F" d="M395.3,338.7c-1.6,0-3.4-1.3-4.1-4.3l0.4-0.1c0.6,3,2.5,4.2,4,4c1.4-0.2,2.9-1.6,2.8-4.3l0.4,0
					c0.1,2.9-1.5,4.5-3.1,4.7C395.6,338.7,395.5,338.7,395.3,338.7z"/>
			</g>
			<g>
				<path fill="#BCA76B" d="M397,334.1c1.7,6.9,9.6,5.9,9.3-0.4"/>
				<path fill="#472B1F" d="M402.1,339.2c-2.1,0-4.5-1.5-5.3-5l0.5-0.1c0.9,3.5,3.3,4.8,5.3,4.5c1.8-0.3,3.6-1.9,3.5-4.9l0.5,0
					c0.1,3.3-1.9,5.1-3.9,5.4C402.5,339.1,402.3,339.2,402.1,339.2z"/>
			</g>
			<g>
				<path fill="#BCA76B" d="M403.7,334.1c1.7,5.1,4.7,5.5,7.2-0.4"/>
				<path fill="#472B1F" d="M407,338.3C407,338.3,406.9,338.3,407,338.3c-1.5-0.1-2.7-1.5-3.5-4.1l0.4-0.1c0.8,2.4,1.9,3.7,3.1,3.8
					c0,0,0,0,0.1,0c1.3,0,2.6-1.5,3.7-4.2l0.4,0.2C409.9,336.7,408.4,338.3,407,338.3z"/>
			</g>
			<g>
				<path fill="#BCA76B" d="M412.6,331.9l-22.1,0.9l0,1.6l22.3-0.8L412.6,331.9z"/>
				<path fill="#472B1F" d="M390.4,334.6l0-2l22.5-1l0.3,2.1l-0.2,0L390.4,334.6z M390.8,333l0,1.2l21.8-0.8l-0.2-1.3L390.8,333z"/>
			</g>
			<g>
				<path fill="#BCA76B" d="M391.5,348.2c1.3,6,7.3,5.1,7.2-0.4"/>
				<path fill="#472B1F" d="M395.3,352.5c-1.6,0-3.4-1.3-4.1-4.3l0.4-0.1c0.6,3,2.5,4.2,4,4c1.4-0.2,2.9-1.6,2.8-4.3l0.4,0
					c0.1,2.9-1.5,4.5-3.1,4.7C395.6,352.5,395.5,352.5,395.3,352.5z"/>
			</g>
			<g>
				<path fill="#BCA76B" d="M397,348c1.7,6.9,9.6,5.9,9.3-0.4"/>
				<path fill="#472B1F" d="M402.1,353c-2.1,0-4.5-1.5-5.3-5l0.5-0.1c0.9,3.5,3.3,4.8,5.3,4.5c1.8-0.3,3.6-1.9,3.5-4.9l0.5,0
					c0.1,3.3-1.9,5.1-3.9,5.4C402.5,353,402.3,353,402.1,353z"/>
			</g>
			<g>
				<path fill="#BCA76B" d="M403.7,348c1.7,5.1,6.8,4.2,7.2-0.4"/>
				<path fill="#472B1F" d="M407.4,351.7c-1.4,0-3.1-0.9-4-3.6l0.4-0.1c0.9,2.6,2.6,3.4,3.9,3.3c1.3-0.1,2.7-1.3,3-3.6l0.4,0
					c-0.2,2.2-1.6,3.8-3.3,4C407.7,351.6,407.5,351.7,407.4,351.7z"/>
			</g>
			<g>
				<path fill="#BCA76B" d="M412.6,345.8l-22.1,0.9l0,1.6l22.3-0.8L412.6,345.8z"/>
				<path fill="#472B1F" d="M390.4,348.5l0-2l22.5-1l0.3,2.1l-0.2,0L390.4,348.5z M390.8,346.9l0,1.2l21.8-0.8l-0.2-1.3L390.8,346.9z"
					/>
			</g>
		</g>
		<g>
			<path d="M391.7,359.9l-0.1-0.5c2-0.6,3.5-1.7,5-2.7c0.5-0.3,0.9-0.7,1.4-1l0.3,0.4c-0.5,0.3-0.9,0.6-1.4,1
				C395.3,358.1,393.7,359.2,391.7,359.9z"/>
		</g>
		<g>
			<g>
				<path fill="#BCA76B" d="M390.8,361.2c1.3,6,7.3,5.1,7.2-0.4"/>
				<path fill="#472B1F" d="M394.7,365.6c-1.6,0-3.4-1.3-4.1-4.3l0.4-0.1c0.6,3,2.5,4.2,4,4c1.4-0.2,2.9-1.6,2.8-4.3l0.4,0
					c0.1,2.9-1.5,4.5-3.1,4.7C394.9,365.5,394.8,365.6,394.7,365.6z"/>
			</g>
			<g>
				<path fill="#BCA76B" d="M396.4,361c1.7,6.9,9.6,5.9,9.3-0.4"/>
				<path fill="#472B1F" d="M401.4,366c-2.1,0-4.5-1.5-5.3-5l0.5-0.1c0.9,3.5,3.3,4.8,5.3,4.5c1.8-0.3,3.6-1.9,3.5-4.9l0.5,0
					c0.1,3.3-1.9,5.1-3.9,5.4C401.8,366,401.6,366,401.4,366z"/>
			</g>
			<g>
				<path fill="#BCA76B" d="M403,361c1.7,5.1,6.2,3.5,7.2-0.4"/>
				<path fill="#472B1F" d="M406.4,364.4c-1.6,0-2.9-1.2-3.6-3.3l0.4-0.1c0.6,1.9,1.8,3.1,3.2,3.1c0,0,0,0,0.1,0
					c1.6,0,3.1-1.5,3.6-3.4l0.4,0.1C409.8,362.8,408.2,364.4,406.4,364.4C406.4,364.4,406.4,364.4,406.4,364.4z"/>
			</g>
			<g>
				<path fill="#BCA76B" d="M412,358.8l-22.1,0.9l0,1.6l22.3-0.8L412,358.8z"/>
				<path fill="#472B1F" d="M389.7,361.5l0-2l22.5-1l0.3,2.1l-0.2,0L389.7,361.5z M390.1,359.9l0,1.2l21.8-0.8l-0.2-1.3L390.1,359.9z"
					/>
			</g>
		</g>
		<g>
			<g>
				<path d="M388.6,396.4l-0.3-0.1c0.5-1.9,1.2-3.7,1.8-5.6c1.5-4.4,3-9,3.4-13.8l0.4,0c-0.4,4.8-1.9,9.4-3.4,13.9
					C389.8,392.6,389.2,394.5,388.6,396.4z M391.9,396.1l-0.3-0.1c0.3-1.2,0.7-2.4,1-3.6c1.4-4.9,2.8-10.1,3.3-15.4l0.4,0
					c-0.5,5.3-1.9,10.5-3.3,15.4C392.6,393.7,392.2,394.9,391.9,396.1z M394.9,396l-0.3-0.1c1.8-6.6,2.6-13.3,3.3-19.5l0.4,0
					C397.6,382.7,396.7,389.4,394.9,396z"/>
			</g>
		</g>
		<g>
			<g>
				<path fill="#BCA76B" d="M391.1,373.7c1.3,6,7.3,5.1,7.2-0.4"/>
				<path fill="#472B1F" d="M395,378c-1.6,0-3.4-1.3-4.1-4.3l0.4-0.1c0.6,3,2.5,4.2,4,4c1.4-0.2,2.9-1.6,2.8-4.3l0.4,0
					c0.1,2.9-1.5,4.5-3.1,4.7C395.2,378,395.1,378,395,378z"/>
			</g>
			<g>
				<path fill="#BCA76B" d="M396.6,373.5c1.7,6.9,9.6,5.9,9.3-0.4"/>
				<path fill="#472B1F" d="M401.7,378.5c-2.1,0-4.5-1.5-5.3-5l0.5-0.1c0.9,3.5,3.3,4.8,5.3,4.5c1.8-0.3,3.6-1.9,3.5-4.9l0.5,0
					c0.1,3.3-1.9,5.1-3.9,5.4C402.1,378.5,401.9,378.5,401.7,378.5z"/>
			</g>
			<g>
				<path fill="#BCA76B" d="M403.3,373.5c1.7,5.1,6.1,4.1,7.2-0.4"/>
				<path fill="#472B1F" d="M406.8,377.1c-1.6,0-3-1.3-3.7-3.5l0.4-0.1c0.7,2.1,1.9,3.3,3.4,3.3c1.5-0.1,2.9-1.5,3.4-3.6l0.4,0.1
					c-0.6,2.3-2.1,3.9-3.8,3.9C406.8,377.1,406.8,377.1,406.8,377.1z"/>
			</g>
			<g>
				<path fill="#BCA76B" d="M412.3,371.2l-22.1,0.9l0,1.6l22.3-0.8L412.3,371.2z"/>
				<path fill="#472B1F" d="M390,374l0-2l22.5-1l0.3,2.1l-0.2,0L390,374z M390.4,372.4l0,1.2l21.8-0.8l-0.2-1.3L390.4,372.4z"/>
			</g>
			<g>
				<path fill="#BCA76B" d="M405.3,341.2l-7.9,0.2l0,2.1l8,0L405.3,341.2z"/>
				<path fill="#472B1F" d="M397.2,343.7l0-2.3l8.2-0.3l0.1,2.5h-0.1L397.2,343.7z M397.4,341.6l0,1.9l7.8,0l-0.1-2.1L397.4,341.6z"/>
			</g>
			<g>
				<path fill="#BCA76B" d="M404.9,354.6l-7,0.2l0,2l7.1,0L404.9,354.6z"/>
				<path fill="#472B1F" d="M397.8,356.9l0-2.2l7.3-0.2l0.1,2.4l-0.1,0L397.8,356.9z M398,355l0,1.7l6.9,0l-0.1-1.9L398,355z"/>
			</g>
			<g>
				<path fill="#BCA76B" d="M405.4,367.7l-7.7,0.2l0,2.1l7.7,0L405.4,367.7z"/>
				<path fill="#472B1F" d="M397.6,370.1l0-2.3l0.1,0l7.8-0.3l0.1,2.5l-0.1,0L397.6,370.1z M397.8,368l0,1.9l7.5,0l-0.1-2.1L397.8,368
					z"/>
			</g>
		</g>
		<g>
			<g>
				<path d="M393.9,396.2c-0.3-0.7-0.6-1.5-0.9-2.2l-3.6,0.1l0-0.4l3.4-0.1c-0.3-0.7-0.7-1.5-1-2.2c-0.1-0.3-0.3-0.6-0.4-0.9l-0.9,0
					l0-0.4l0.8,0c-2-4.3-3.8-8.7-3.4-13.4l0.4,0c-0.4,4.7,1.4,9.1,3.4,13.4l4.6-0.2l0,0.4l-4.5,0.2c0.1,0.3,0.2,0.5,0.4,0.8
					c0.4,0.8,0.7,1.6,1.1,2.3l2.3-0.1l0,0.4l-2.1,0.1c0.3,0.7,0.6,1.4,0.9,2.1L393.9,396.2z M406.6,392.7l-0.1-0.3l3.9-1.2l0.1,0.3
					L406.6,392.7z M405.7,390.6l-0.1-0.3l4.4-1.9l0.1,0.3L405.7,390.6z M396.6,387.6l-4.9-1.4l0.1-0.3l4.9,1.4L396.6,387.6z
					 M404.3,387.3l-0.1-0.3l4.6-1.4l0.1,0.3L404.3,387.3z M403.3,384.2l-0.1-0.3l4.5-1.2l0.1,0.3L403.3,384.2z M397.2,383.5
					l-4.8-0.1l0-0.4l4.8,0.1L397.2,383.5z M397.5,380.4l-4.1-0.9l0.1-0.4l4.1,0.9L397.5,380.4z"/>
			</g>
		</g>
		<g>
			<path d="M379.3,408.5c-0.5,0-1-0.2-1.5-0.2c-0.5-0.2-1-0.3-1.5-0.6c-0.5-0.2-0.9-0.6-1.4-0.9c-0.4-0.3-0.8-0.7-1.2-1
				c-0.5-0.4-1-0.9-1.4-1.3c-0.5-0.5-0.9-0.9-1.3-1.4c-0.4-0.5-0.9-0.8-1.3-1.4c-0.4-0.4-0.4-1.1-0.7-1.5c-0.5-0.1-1.4-0.2-1.4-0.9
				c-0.2-0.4-0.3-1-0.8-0.9c-0.2,0-0.3,0.3-0.1,0.1c-0.3-0.2-0.2,0.5-0.2,0.2c-0.2,0.3-0.3,0.8-0.3,0.8c-0.2,0.5-0.2,1,0.4,1.1
				c0.6,0.1,0.7,0.7,1.2,1c0.4,0.4,0.9,0.9,1.4,1.3c0.4,0.5,0.8,0.8,1.1,1.4c0.2,0.4,0.8,0.7,1.1,1.1c0.3,0.4,0.6,0.8,0.9,1.2
				c0.4,0.4,0.9,0.8,1.3,1.1c0.4,0.2,0.8,0.5,1.3,0.7c0.5,0.2,0.9,0.5,1.4,0.6c0.5,0.3,1.2,0.2,1.8,0.3c0.6,0,1.2,0,1.7-0.4
				C380,408.5,379.5,408.6,379.3,408.5L379.3,408.5z M411.5,392.8c-0.7,1.7-1.9,4.1-3.3,5.6c4.7,0.9,8.5-0.4,12.8-1.1
				c-0.5-1.8-0.5-3.8-0.3-5.9C417.3,391.7,414.9,392.5,411.5,392.8L411.5,392.8z"/>
		</g>
		<g>
			<path fill="#333333" d="M411.9,393.3c-0.6,1.5-1.1,3.1-2.2,4.4c3.9,0.8,7.1-0.4,10.6-1c-0.7-1.4-0.5-3-0.2-4.5
				C417.2,392.5,414.7,393,411.9,393.3z"/>
		</g>
		<g>
			<path d="M371,400.2l13.7,1c11,0.3,23.7-0.2,34.6-1.4c0.4-0.1,1.2-0.2,1.3,0.2c0.2,0.5-0.5,1.2-1.1,1.2c-12.6,1.6-25.3,1-37.9,0.9
				l-7.5-0.8L371,400.2z"/>
		</g>
		<g>
			<path d="M365.1,376.6l-0.2-0.4c3.9-1.5,7.4-4.2,10.8-6.8l0.2-0.2l0.3,0.4l-0.2,0.2C372.6,372.4,369.1,375.1,365.1,376.6z
				 M366.8,363.3l-0.2-0.4c2.6-1,5-2.9,7.4-4.8c0.8-0.6,1.6-1.3,2.5-1.8l0.3,0.4c-0.8,0.6-1.6,1.2-2.4,1.8
				C371.9,360.3,369.4,362.2,366.8,363.3z"/>
		</g>
		<g>
			<path fill="#BCA76B" d="M375.4,332.7l-0.1,64.3l3.5-0.2l-2-64.4L375.4,332.7z"/>
			<path fill="#472B1F" d="M375.2,397.2l0-0.1l0.1-64.4l1.6-0.4l0,0.2l2.1,64.5L375.2,397.2z M375.6,332.8l-0.1,64l3.3-0.2l-2-64.1
				L375.6,332.8z"/>
		</g>
		<g>
			<path d="M384.2,339.5c-0.5-0.4-0.9-0.8-1.4-1.1c-1.9-1.6-3.9-3.2-6.2-5.8l0.3-0.3c2.3,2.6,4.3,4.2,6.2,5.8
				c0.5,0.4,0.9,0.8,1.4,1.1L384.2,339.5z"/>
		</g>
		<g>
			<path fill="#BCA76B" d="M377.7,330.5c-0.7-0.4-2.6-0.4-3.4,0.5c-0.4,0.5-0.1,2.1,0.4,2.1c1,0,2.3,0.1,2.7-0.3
				C377.9,332.3,378.2,330.8,377.7,330.5L377.7,330.5z"/>
			<path fill="#472B1F" d="M375.8,333.3c-0.3,0-0.5,0-0.8,0l-0.2,0c-0.2,0-0.4-0.1-0.6-0.5c-0.3-0.6-0.3-1.5,0-1.9
				c0.8-1,2.8-0.9,3.6-0.5l0,0c0.2,0.1,0.3,0.3,0.3,0.5c0.1,0.6-0.1,1.6-0.5,1.9C377.3,333.2,376.6,333.3,375.8,333.3z M376.4,330.4
				c-0.7,0-1.5,0.2-1.9,0.7c-0.2,0.2-0.2,1,0,1.5c0.1,0.2,0.2,0.3,0.3,0.3l0.2,0c0.9,0,2.1,0.1,2.4-0.3c0.3-0.3,0.5-1.2,0.4-1.7
				c0-0.2-0.1-0.3-0.2-0.3l0,0C377.4,330.5,376.9,330.4,376.4,330.4z"/>
		</g>
		<g>
			<path d="M375.7,405.3c0.1-0.5,0.5-0.7,1-0.8c0.6,0,1.3-0.1,1.6,0.1c0.4,0.1,0.7,0.3,1.1,0.5c0.2,0.3,0.6,0.5,0.9,0.7
				c1.2,0.4,0.5-0.9,1.2-0.9c0.6,0,1.1-0.2,1.6,0c0.4,0.1,0.6,0.4,0.8,0.7c0.2,0.2,0.5,0.4,0.7,0.7c0.1,0.3,1.3,0.9,1.4,0.1
				c0.3-0.5,0.1-1.5,1-1.4c1-0.1,1.7,0.2,2.6,0.3c0.5,0.2,0.8,0.3,1.2,0.7c0.3,0.2,0.3,0.6,0.6,0.6c0.9,0.7,0.7-0.6,1-0.9
				c0.2-0.3,0.9-0.3,1.2-0.5c0.6-0.2,1.1-0.3,1.9-0.3c0.3,0.2,0.9,0.5,1.2,0.7c0.3,0.3,0.6,0.6,0.8,1c0,0.4,0.4,0.8,0.8,0.4
				c0.2-0.5,0.6-0.5,0.9-0.7c0.4-0.1,0.6-0.3,0.9-0.6c0.2-0.1,0.4-0.5,0.7-0.7c0.4-0.3,1.2-0.2,1.8-0.3c0.6,0.2,1.2,0.3,1.6,0.6
				c0.2,0.2,0.4,0.5,0.7,0.7c0.2,0.4,0.7,0.1,1-0.1c0.3-0.2,0.7-0.4,1-0.6c0.3-0.3,0.7-0.5,1.3-0.5c0.7-0.1,1.1,0.3,1.6,0.4
				c0.5,0.2,1.1,0.3,1.5,0.6c0.4,0.3,0.9,0.5,1.3,0.1c0.5,0,0.1-1,0.3-1.2c0.6-0.5,1.9-0.4,2.6-0.1c0.6,0,1.3-0.1,1.7,0.1
				c0.4,0.1,0.5,0.5,0.6,0.9c0.2,0.4,1.2,0.4,1.6,0.1c0.3,0-0.1-0.5-0.2-0.7c-0.2-0.1-0.5-0.5-0.6-0.7c0.5-0.3,0.8,0.2,1.2,0.3
				c0.3,0.2,0.6,0.3,0.9,0.6c0.4,0.2,0.8,0.4,1.4,0.3c0.6,0.2,0.3,1.1-0.4,0.9c-0.5,0.2-1.3,0-2,0.1c-1-0.1-2-0.1-3-0.1
				c-0.5,0.2-1.3,0.1-1.9,0.3c-0.6,0-1.1,0.1-1.8,0.1c-0.6,0.1-1.4,0.1-2.1,0.1c-0.6,0.1-1.2,0.1-1.9,0.2c-0.6,0-1.1,0.1-1.7,0.1
				c-0.8,0.2-1.9,0-2.9,0.1c-0.6,0.1-1.1,0.1-1.7,0.1c-0.6,0-1.1,0.1-1.8,0.1c-0.7,0-1.2,0.1-1.9,0.1c-1,0.2-2.2,0-3.2,0.1
				c-0.5-0.1-1.2-0.1-1.8-0.1c-0.5,0-1-0.1-1.6-0.1c-0.4-0.2-1.2,0-1.7-0.1c-0.9,0.1-1.5-0.1-2.4-0.1h-4.7c-0.4-0.2-1.1,0-1.6-0.1
				c-0.9,0-1.9,0-2.7,0c-0.7-0.1-1.5,0-2.1-0.3C376.8,406.4,375.6,406.1,375.7,405.3L375.7,405.3z"/>
			<path d="M398.2,407.7c-0.2,0-0.5,0-0.7,0c-0.4,0-0.8,0-1.2,0l0,0l0,0c-0.3-0.1-0.6-0.1-0.9-0.1c-0.3,0-0.5,0-0.8-0.1
				c-0.2,0-0.4,0-0.6,0c-0.3,0-0.6-0.1-0.9,0l-0.1,0l-0.1,0c-0.2-0.1-0.4-0.1-0.7-0.1c-0.3,0-0.6,0-0.9-0.1c-0.5,0-0.8,0-1.2,0
				c-0.4,0-0.7-0.1-1.1,0l-4.8,0l-0.1,0c-0.2-0.1-0.5-0.1-0.8,0c-0.2,0-0.5,0-0.7,0c-0.3,0-0.7,0-1,0c-0.6,0-1.2,0-1.7,0
				c-0.3,0-0.5-0.1-0.8-0.1c-0.4,0-0.9,0-1.3-0.2c-0.7-0.1-2.4-0.5-2.3-1.6l0,0c0.2-0.8,0.9-1,1.3-1.1l0,0l0,0c0.2,0,0.3,0,0.5,0
				c0.5,0,0.9,0,1.3,0.2c0.3,0.1,0.5,0.2,0.7,0.3c0.1,0.1,0.2,0.1,0.4,0.2l0.1,0.1c0.2,0.2,0.5,0.4,0.7,0.5l0.1,0.1
				c0.2,0.1,0.3,0,0.3,0c0,0,0-0.2,0.1-0.3c0.1-0.3,0.1-0.7,0.7-0.8c0.2,0,0.4,0,0.7,0c0.4,0,0.7-0.1,1.1,0c0.5,0.1,0.7,0.4,0.9,0.6
				l0.2,0.2c0.2,0.2,0.4,0.4,0.6,0.6l0,0.1c0,0,0.3,0.2,0.5,0.3c0.1,0,0.2,0,0.2,0c0,0,0,0,0-0.1l0-0.1c0.1-0.1,0.1-0.3,0.1-0.4
				c0.1-0.5,0.3-1.2,1.2-1.1c0.6,0,1.2,0.1,1.8,0.2c0.3,0,0.5,0.1,0.8,0.1l0.1,0c0.1,0,0.2,0.1,0.3,0.1c0.3,0.1,0.7,0.2,1,0.6
				c0.2,0.1,0.3,0.3,0.4,0.4c0,0,0.1,0.1,0.1,0.1l0.1,0l0,0c0.2,0.1,0.2,0.1,0.2,0.1c0,0,0-0.2,0.1-0.4c0-0.2,0.1-0.5,0.2-0.6
				c0.2-0.3,0.5-0.4,0.8-0.4c0.2,0,0.3-0.1,0.4-0.1l0.1-0.1l0.1,0c0.5-0.2,1.1-0.3,1.9-0.3l0.1,0c0.2,0.1,0.4,0.2,0.7,0.4
				c0.2,0.1,0.4,0.2,0.5,0.3l0.1,0c0.3,0.2,0.7,0.6,0.9,1.1l0,0.1c0,0.1,0.1,0.2,0.1,0.3c0,0,0,0,0.1,0c0.2-0.4,0.5-0.5,0.7-0.6
				c0.1,0,0.2-0.1,0.3-0.2l0.1-0.1c0.3-0.1,0.5-0.2,0.7-0.5l0.1-0.1l0.1,0c0,0,0.1-0.2,0.2-0.3c0.1-0.1,0.2-0.3,0.3-0.4
				c0.4-0.3,0.9-0.3,1.5-0.3c0.2,0,0.4,0,0.5,0l0.1,0l0.1,0c0.2,0,0.3,0.1,0.5,0.1c0.5,0.1,0.9,0.2,1.3,0.5c0.1,0.1,0.1,0.2,0.2,0.2
				c0.1,0.2,0.3,0.3,0.4,0.4l0.1,0l0.1,0.1c0.1,0,0.3-0.1,0.4-0.1c0.1,0,0.1-0.1,0.2-0.1c0.2-0.2,0.6-0.3,1-0.6
				c0.4-0.3,0.9-0.5,1.5-0.6c0.5-0.1,0.9,0.1,1.2,0.2c0.2,0.1,0.3,0.1,0.5,0.2l0.1,0c0.2,0.1,0.4,0.1,0.6,0.2c0.4,0.1,0.7,0.2,1,0.5
				c0.2,0.2,0.6,0.3,0.8,0.1l0.1-0.1l0.1,0c0-0.1,0-0.2,0-0.3c0-0.3,0-0.5,0.1-0.7c0.7-0.6,2.2-0.5,3-0.2c0.1,0,0.3,0,0.4,0
				c0.5,0,1,0,1.4,0.2c0.5,0.1,0.6,0.5,0.7,0.9c0,0.1,0,0.1,0.1,0.2c0.1,0.1,0.7,0.1,1,0c0,0-0.1-0.1-0.2-0.2
				c-0.3-0.3-0.6-0.8-0.7-0.8l-0.2-0.3l0.3-0.1c0.5-0.2,0.9,0,1.1,0.1c0.1,0.1,0.2,0.1,0.3,0.1l0.1,0l0.1,0.1
				c0.1,0.1,0.2,0.1,0.3,0.2c0.2,0.1,0.4,0.2,0.5,0.4l0.1,0.1c0.3,0.1,0.6,0.3,1.1,0.2l0.1,0l0.1,0c0.4,0.1,0.7,0.5,0.5,1
				c-0.1,0.4-0.5,0.7-1,0.6c-0.4,0.1-0.8,0.1-1.2,0.1c-0.3,0-0.5,0-0.7,0c-0.7-0.1-1.5-0.1-2.2-0.1c-0.3,0-0.5,0-0.8,0
				c-0.3,0.1-0.7,0.1-1,0.2c-0.3,0-0.6,0.1-0.8,0.1l-0.1,0c-0.3,0-0.5,0-0.7,0c-0.3,0-0.6,0.1-1,0c-0.5,0.1-1.2,0.1-1.8,0.1l-0.3,0
				c-0.4,0.1-0.8,0.1-1.2,0.2c-0.2,0-0.4,0-0.6,0.1c-0.3,0-0.5,0-0.7,0c-0.3,0-0.7,0.1-1,0c-0.6,0.1-1.2,0.1-1.8,0.1
				c-0.4,0-0.7,0-1.1,0c-0.3,0.1-0.7,0.1-1,0.1c-0.2,0-0.4,0-0.6,0c-0.3,0-0.6,0-0.9,0.1c-0.3,0-0.6,0.1-0.9,0.1c-0.3,0-0.5,0-0.8,0
				c-0.3,0-0.7,0.1-1,0C399.1,407.7,398.6,407.7,398.2,407.7z M399.4,406.4c-0.1,0.1-0.2,0.1-0.3,0.2c-0.2,0.1-0.3,0.2-0.4,0.4
				l0,0.1c0.3,0,0.6,0,0.8-0.1l0,0l0,0c0.4,0,0.7,0,1,0c0.3,0,0.6-0.1,0.9,0c0.3,0,0.6,0,0.8-0.1c0.3,0,0.6-0.1,0.9-0.1
				c0.2,0,0.4,0,0.7,0c0.3,0,0.6,0,1-0.1c0.4,0,0.8,0,1.1,0c0.6,0,1.3,0,1.7-0.1l0,0l0,0c0.4,0,0.7,0,1,0c0.2,0,0.4,0,0.7,0
				c0.2,0,0.4,0,0.6-0.1c0.4,0,0.8-0.1,1.2-0.2l0.4,0c0.6,0,1.2,0,1.7-0.1l0,0l0,0c0.3,0,0.6,0,1,0c0.2,0,0.5,0,0.7,0c0,0,0,0,0,0
				c0.3-0.1,0.6-0.1,0.9-0.1c0.3,0,0.7-0.1,0.9-0.1l0.1,0l0.1,0c0.3,0,0.5,0,0.8,0c0,0,0,0,0,0c-0.1-0.1-0.2-0.2-0.2-0.2
				c0-0.1-0.1-0.2-0.1-0.2c-0.1-0.3-0.2-0.4-0.3-0.5l-0.1,0c-0.2-0.1-0.7-0.1-1.1-0.1c-0.2,0-0.3,0-0.5,0l-0.1,0
				c-0.6-0.2-1.8-0.3-2.2,0c0,0.1,0,0.2,0,0.3c0,0.3,0,0.6-0.2,0.9c-0.1,0.1-0.2,0.1-0.3,0.2c-0.3,0.2-0.8,0.3-1.6-0.2
				c-0.2-0.2-0.5-0.3-0.8-0.3c-0.2-0.1-0.4-0.1-0.6-0.2c-0.2,0-0.4-0.1-0.6-0.2c-0.3-0.1-0.5-0.2-0.9-0.2c-0.5,0-0.9,0.2-1.1,0.4
				l-0.1,0.1c-0.4,0.2-0.8,0.4-1,0.5l-0.1,0c0,0-0.1,0-0.2,0.1c-0.3,0.1-0.6,0.3-0.9,0.2c-0.1,0-0.2-0.1-0.3-0.2
				c-0.3-0.1-0.5-0.3-0.6-0.5c0-0.1-0.1-0.1-0.1-0.2c-0.2-0.2-0.5-0.3-1-0.4c-0.1,0-0.3-0.1-0.4-0.1c-0.2,0-0.3,0-0.5,0
				c-0.4,0-0.9,0-1.1,0.2c0,0-0.1,0.1-0.2,0.2c-0.1,0.2-0.3,0.4-0.5,0.5C400.1,406.1,399.8,406.3,399.4,406.4z M396.7,407
				c0.2,0,0.5,0,0.7,0c-0.1-0.1-0.2-0.3-0.2-0.5c-0.1-0.3-0.4-0.6-0.7-0.8c-0.2-0.1-0.3-0.2-0.5-0.3c-0.2-0.1-0.5-0.2-0.6-0.3
				c-0.6,0-1.1,0.1-1.6,0.2l-0.1,0c-0.2,0.1-0.4,0.2-0.6,0.2c-0.2,0-0.4,0.1-0.4,0.2c-0.1,0.1-0.1,0.3-0.1,0.4
				c0,0.2-0.1,0.4-0.2,0.6c0.2,0,0.4,0,0.6,0.1c0.4,0,0.7,0,1,0c0.2,0,0.4,0,0.5,0c0.3,0,0.5,0,0.8,0.1c0.3,0,0.7,0,1,0.1
				C396.4,407,396.6,407,396.7,407z M389.1,406.6c0.3,0,0.6,0,0.9,0c0.4,0,0.7,0.1,1.1,0c-0.1-0.1-0.2-0.2-0.2-0.3
				c-0.1-0.1-0.1-0.2-0.2-0.2l-0.1-0.1c-0.2-0.3-0.5-0.3-0.8-0.5c-0.1,0-0.2-0.1-0.3-0.1c-0.3,0-0.6-0.1-0.8-0.1
				c-0.6-0.1-1.1-0.2-1.7-0.2c-0.4,0-0.4,0-0.6,0.6c0,0.2-0.1,0.3-0.2,0.5c0,0.1,0,0.1,0,0.2h2.5C388.9,406.6,389,406.6,389.1,406.6
				z M384.2,406.6h0.3c-0.1-0.1-0.1-0.2-0.2-0.3c-0.1-0.1-0.2-0.3-0.4-0.4l-0.3-0.3c-0.2-0.2-0.3-0.4-0.6-0.4l-0.1,0
				c-0.2-0.1-0.5-0.1-0.8,0c-0.2,0-0.5,0.1-0.7,0c0,0,0,0.2,0,0.3c0,0.2-0.1,0.5-0.4,0.7c-0.3,0.2-0.6,0.1-0.9,0l-0.2-0.1
				c-0.3-0.2-0.6-0.3-0.9-0.6c-0.1-0.1-0.2-0.1-0.4-0.2c-0.2-0.1-0.3-0.2-0.6-0.3l-0.1,0c-0.2-0.1-0.6-0.1-1-0.1c-0.2,0-0.3,0-0.5,0
				c-0.5,0.1-0.7,0.2-0.7,0.5c0,0.4,0.6,0.6,1.8,0.9l0.1,0c0.3,0.1,0.7,0.2,1.1,0.2c0.3,0,0.6,0,0.9,0.1c0.4,0,1,0,1.6,0
				c0.4,0,0.7,0,1.1,0c0.2,0,0.4,0,0.6,0C383.5,406.5,383.9,406.5,384.2,406.6z M420.3,405.9c0.1,0,0.3,0,0.4,0c0.4,0,0.8,0,1.1-0.1
				l0.1,0l0.1,0c0.2,0.1,0.3-0.1,0.3-0.1c0-0.1,0-0.1,0-0.1c-0.6,0.1-1-0.1-1.3-0.2l-0.3-0.2c-0.1-0.1-0.2-0.2-0.4-0.3
				c-0.1-0.1-0.2-0.1-0.4-0.2c-0.1,0-0.2-0.1-0.3-0.1l0,0c0.3,0.4,0.5,0.7,0.4,1c0,0.1-0.1,0.2-0.3,0.2c0,0,0,0-0.1,0
				c0.1,0,0.3,0,0.4,0C420.1,405.9,420.2,405.9,420.3,405.9z"/>
		</g>
		<g>
			<g>
				<path fill="#BCA76B" d="M367.9,340.7c1.1,4.2,6.4,3.5,6.3-0.2"/>
				<path fill="#472B1F" d="M371.3,343.7c-1.4,0-3-0.9-3.5-3l0.3-0.1c0.6,2.2,2.3,2.9,3.7,2.7c1.2-0.2,2.3-1.2,2.3-2.9l0.3,0
					c0.1,2-1.2,3-2.5,3.2C371.7,343.7,371.5,343.7,371.3,343.7z"/>
			</g>
			<g>
				<path fill="#BCA76B" d="M372.8,340.5c1.5,4.8,8.4,4.1,8.1-0.3"/>
				<path fill="#472B1F" d="M377.2,344c-1.9,0-3.9-1.1-4.6-3.4l0.4-0.1c0.8,2.5,3.1,3.4,5,3.1c1.3-0.2,2.9-1.2,2.8-3.3l0.4,0
					c0.1,1.9-1.1,3.4-3.1,3.7C377.8,344,377.5,344,377.2,344z"/>
			</g>
			<g>
				<path fill="#BCA76B" d="M378.6,340.5c1.5,3.5,4.2,3.8,6.3-0.3"/>
				<path fill="#472B1F" d="M381.5,343.4C381.5,343.4,381.5,343.4,381.5,343.4c-1.3-0.1-2.3-1.1-3.1-2.8l0.3-0.1
					c0.7,1.6,1.6,2.6,2.7,2.6c0,0,0.1,0,0.1,0c1.1,0,2.3-1,3.3-2.9l0.3,0.2C384,342.3,382.8,343.4,381.5,343.4z"/>
			</g>
			<g>
				<path fill="#BCA76B" d="M386.5,339l-19.3,0.7l0,1.1l19.5-0.6L386.5,339z"/>
				<path fill="#472B1F" d="M367,340.9l0-1.4l0.2,0l19.5-0.7l0.2,1.5l-0.2,0L367,340.9z M367.3,339.8l0,0.8l19.1-0.6l-0.1-0.9
					L367.3,339.8z"/>
			</g>
		</g>
		<g>
			<path d="M367.1,351.8c-0.1,0-0.2,0-0.2,0l0.1-0.5c1.2,0.2,4.3-1.6,6.1-3.2l0.3,0.4C371.8,349.9,368.7,351.8,367.1,351.8z"/>
		</g>
		<g>
			<path d="M355.3,389.3l-0.4-0.2c5.3-13.8,10.6-30.6,14.7-46.2l0.5,0.1C365.9,358.6,360.5,375.4,355.3,389.3z"/>
		</g>
		<g>
			<g>
				<path fill="#BCA76B" d="M367.7,352.7c1.2,4.5,6.6,3.8,6.4-0.3"/>
				<path fill="#472B1F" d="M371.2,355.9c-1.4,0-3.1-1-3.6-3.2l0.3-0.1c0.6,2.3,2.4,3.1,3.7,2.9c1.2-0.2,2.5-1.2,2.4-3.1l0.3,0
					c0.1,2.1-1.3,3.3-2.7,3.5C371.5,355.9,371.4,355.9,371.2,355.9z"/>
			</g>
			<g>
				<path fill="#BCA76B" d="M372.3,352.6c1.5,6,8.6,5.1,8.4-0.3"/>
				<path fill="#472B1F" d="M376.9,356.9c-1.9,0-4-1.3-4.8-4.3l0.4-0.1c0.8,3.1,3,4.2,4.9,3.9c1.6-0.2,3.2-1.6,3.1-4.2l0.4,0
					c0.1,2.9-1.7,4.4-3.5,4.7C377.3,356.9,377.1,356.9,376.9,356.9z"/>
			</g>
			<g>
				<path fill="#BCA76B" d="M378.7,352.5c1.7,3.8,4.7,4.1,7.2-0.3"/>
				<path fill="#472B1F" d="M382,355.6c0,0-0.1,0-0.1,0c-1.3-0.1-2.5-1.1-3.4-3l0.3-0.1c0.8,1.7,1.9,2.7,3,2.8c1.3,0.1,2.7-1,3.9-3.1
					l0.3,0.2C384.9,354.4,383.4,355.6,382,355.6z"/>
			</g>
			<g>
				<path fill="#BCA76B" d="M386.8,350.4l-19.8,0.9l0,1.4l20-0.7L386.8,350.4z"/>
				<path fill="#472B1F" d="M366.8,352.9l0-1.8l20.2-0.9l0.2,1.9l-0.2,0L366.8,352.9z M367.1,351.4l0,1.1l19.6-0.7l-0.1-1.2
					L367.1,351.4z"/>
			</g>
			<g>
				<path fill="#BCA76B" d="M366.7,364.1c1.3,5.5,7.1,4.7,7-0.3"/>
				<path fill="#472B1F" d="M370.4,368.1c-1.6,0-3.3-1.2-3.9-3.9l0.4-0.1c0.6,2.8,2.4,3.8,3.9,3.6c1.4-0.2,2.7-1.5,2.7-3.9l0.4,0
					c0.1,2.7-1.4,4.1-3,4.3C370.7,368.1,370.6,368.1,370.4,368.1z"/>
			</g>
			<g>
				<path fill="#BCA76B" d="M372.1,364.1c1.8,8.1,9.9,6.9,9.7-0.5"/>
				<path fill="#472B1F" d="M377.4,369.9c-2.2,0-4.6-1.7-5.5-5.8l0.5-0.1c0.9,4,3.4,5.6,5.4,5.3c1.9-0.2,3.8-2.1,3.7-5.7l0.5,0
					c0.1,3.9-2.1,6-4.2,6.3C377.7,369.9,377.5,369.9,377.4,369.9z"/>
			</g>
			<g>
				<path fill="#BCA76B" d="M378.6,363.9c1.6,4.6,4.6,5,7.1-0.4"/>
				<path fill="#472B1F" d="M381.8,367.7C381.8,367.7,381.7,367.7,381.8,367.7c-1.4-0.1-2.6-1.4-3.4-3.7l0.4-0.1
					c0.8,2.2,1.8,3.4,3,3.4c1.3,0,2.6-1.3,3.7-3.8l0.4,0.2C384.3,367,382.8,367.7,381.8,367.7z"/>
			</g>
			<g>
				<path fill="#BCA76B" d="M387.3,361.9l-22.6,0.9l0,1.4l22.8-0.7L387.3,361.9z"/>
				<path fill="#472B1F" d="M364.6,364.4l0-1.8l0.2,0l22.8-0.9l0.3,1.9L364.6,364.4z M364.9,363l0,1l22.3-0.7l-0.2-1.2L364.9,363z"/>
			</g>
			<g>
				<path fill="#BCA76B" d="M366.3,377.5c1.4,5.9,7.7,5.1,7.6-0.3"/>
				<path fill="#472B1F" d="M370.4,381.8c-1.7,0-3.6-1.3-4.3-4.2l0.4-0.1c0.7,3,2.6,4.1,4.3,3.9c1.5-0.2,3-1.6,2.9-4.2l0.4,0
					c0.1,2.9-1.6,4.4-3.2,4.6C370.7,381.8,370.5,381.8,370.4,381.8z"/>
			</g>
		</g>
		<g>
			<path d="M387.4,396.3c-1.6-4.8-3.3-9.9-4.6-15.6l0.5-0.1c1.3,5.7,3,10.8,4.6,15.6L387.4,396.3z M384.9,396.2
				c-1.5-4.7-3.1-10.2-3.8-15.8l0.5-0.1c0.7,5.6,2.3,11.1,3.8,15.7L384.9,396.2z"/>
		</g>
		<g>
			<g>
				<path fill="#BCA76B" d="M372.1,377.3c1.6,7.9,9.9,7.2,9.8-0.4"/>
				<path fill="#472B1F" d="M377.5,383.2c-2.2,0-4.7-1.8-5.6-5.8l0.5-0.1c0.8,4,3.3,5.6,5.5,5.4c1.9-0.2,3.9-2.1,3.9-5.7l0.5,0
					c0,4-2.1,6-4.3,6.2C377.8,383.2,377.6,383.2,377.5,383.2z"/>
			</g>
			<g>
				<path fill="#BCA76B" d="M379.1,377.3c1.8,5,5,5.5,7.6-0.4"/>
				<path fill="#472B1F" d="M382.7,381.4C382.6,381.4,382.6,381.4,382.7,381.4c-1.5-0.1-2.8-1.5-3.7-4l0.4-0.1c0.8,2.4,2,3.7,3.2,3.7
					c1.4,0.1,2.8-1.4,4-4.1l0.4,0.2C385.4,380.6,383.7,381.4,382.7,381.4z"/>
			</g>
			<g>
				<path fill="#BCA76B" d="M388.6,374.8l-25.1,1l0,1.7l25.4-0.9L388.6,374.8z"/>
				<path fill="#472B1F" d="M363.3,377.8l0-2.2l25.6-1l0.3,2.3l-0.2,0L363.3,377.8z M363.7,376.1l0,1.3l24.9-0.9l-0.2-1.4L363.7,376.1
					z"/>
			</g>
			<g>
				<path fill="#BCA76B" d="M380.4,346.5l-7.2,0.2l0,1.6l7.3,0L380.4,346.5z M380.4,358.2l-7.2,0.2l0,1.6l7.3,0L380.4,358.2z"/>
				<path fill="#472B1F" d="M373.1,360.1l0-1.8l0.1,0l7.3-0.2l0.1,2h-0.1L373.1,360.1z M373.3,358.5l0,1.4l7.1,0l-0.1-1.6L373.3,358.5
					z M373.1,348.4l0-1.8l0.1,0l7.3-0.2l0.1,2h-0.1L373.1,348.4z M373.3,346.8l0,1.4l7.1,0l-0.1-1.6L373.3,346.8z"/>
			</g>
			<g>
				<path fill="#BCA76B" d="M380.9,371l-7.7,0.2l0,1.6l7.7,0L380.9,371z"/>
				<path fill="#472B1F" d="M373.1,372.9l0-1.8l0.1,0l7.8-0.2l0.1,2H381L373.1,372.9z M373.3,371.2l0,1.4l7.5,0l-0.1-1.6L373.3,371.2z
					"/>
			</g>
		</g>
		<g>
			<g>
				<g>
					<path d="M382.2,392.9l-0.1-0.4l4.3-0.6l0.1,0.4L382.2,392.9z M371.5,392.4l-4.3-0.9l0.1-0.4l4.3,0.9L371.5,392.4z M385.3,388.9
						l-4.2-0.2l0-0.4l4.2,0.2L385.3,388.9z M372.3,388.9l-3.9-0.9l0.1-0.4l3.9,0.9L372.3,388.9z M380.3,386.4l-0.1-0.4l4.1-0.9
						l0.1,0.4L380.3,386.4z M373,386.2l-3.6-0.9l0.1-0.3l3.6,0.9L373,386.2z M373.3,383.5l-3.3-0.6l0.1-0.4l3.3,0.6L373.3,383.5z
						 M379.6,383.3l-0.1-0.4l4.1-0.9l0.1,0.4L379.6,383.3z"/>
				</g>
			</g>
			<g>
				<g>
					<path d="M431.6,406.7c-2.7,0-5.6-0.3-8.4-0.9l0.2-0.7c5.1,1.2,10.7,1.2,14.8,0.2l0.2,0.7C436.4,406.5,434.1,406.7,431.6,406.7z
						 M422.9,404.6l-0.2-0.7c4.4-1,11-1.4,15.9-0.2l-0.2,0.7C434.3,403.4,428.1,403.5,422.9,404.6z M442,400.5
						c-6-2.3-14.2-1.5-19.9-0.6l-0.1-0.7c5.7-0.8,14.1-1.7,20.3,0.7L442,400.5z M443.1,398.5c-5-1.9-12.2-1.6-18.6-1.2
						c-1,0.1-1.9,0.1-2.9,0.1l0-0.7c0.9,0,1.9-0.1,2.9-0.1c6.5-0.3,13.8-0.7,18.9,1.3L443.1,398.5z"/>
				</g>
			</g>
		</g>
		<g>
			<path d="M353.1,388.6l15.6,9.4l0.3-0.4l-4.9-3.4C360.6,392.1,357.1,389.9,353.1,388.6z"/>
		</g>
		<g>
			<g>
				<g>
					<path d="M428.7,403.5l-0.4,0l0.1-4.9l0.4,0L428.7,403.5z M427.1,403.5h-0.4v-4.6h0.4V403.5z M436.8,403.4l-0.4-0.1l0.9-4.2
						l0.4,0.1L436.8,403.4z M431.2,403.4l-0.4,0l0.2-4.6l0.4,0L431.2,403.4z M432.9,403.3l-0.4,0l0.1-4.6l0.4,0L432.9,403.3z
						 M435,403.1l-0.4,0l0.3-4.5l0.4,0L435,403.1z M441.6,397.6l-0.4,0l0.1-5.7l0.4,0L441.6,397.6z M440.4,397.1H440V392h0.4V397.1z
						 M437.5,396.9l-0.1-5.4l0.4,0l0.1,5.4L437.5,396.9z M435.8,396.8h-0.4v-5.3h0.4V396.8z M432.6,396.6h-0.4V391h0.4V396.6z
						 M429.7,396.5h-0.4v-5.3h0.4V396.5z M427.7,396.3l-0.1-5.2l0.4,0l0.1,5.2L427.7,396.3z"/>
				</g>
			</g>
			<g>
				<path d="M443.1,392.7c-1-0.1-2-0.2-3.1-0.3c-6-0.6-12.2-1.3-18.2-0.6l-0.1-0.7c6.1-0.7,12.4-0.1,18.4,0.6c1,0.1,2,0.2,3.1,0.3
					L443.1,392.7z"/>
			</g>
		</g>
		<g>
			<path d="M461.3,328.2l-0.7,0l-143.6,0l0-0.7c0-7.9,0.2-15.7,0.3-23.3c0.2-10.1,0.4-19.6,0.2-28.5l0-0.5l0.4-0.2
				c26.7-11.9,61.3-12.8,71.3-12.8c10,0,44.5,0.9,71.2,12.8l0.4,0.2l0,0.5c-0.3,8.9-0.1,18.4,0.2,28.5c0.2,7.6,0.3,15.4,0.3,23.3
				L461.3,328.2z M318.4,326.8l141.5,0c0-7.7-0.2-15.2-0.3-22.6c-0.2-9.9-0.4-19.3-0.2-28.1c-7.3-3.2-31.9-12.5-70.2-12.5
				c-9.8,0-43.8,0.9-70.2,12.5c0.2,8.8,0,18.2-0.2,28.1C318.5,311.6,318.4,319.2,318.4,326.8z"/>
		</g>
		<g>
			<g>
				<path fill="#69737C" d="M384.8,297.7c0,0,2.6,3.8,3.3,5.9c0.3,1,0.5,2.1,0.4,3.2c-0.1,1.9-0.9,3.8-1.5,5.6
					c-0.4,1.3-1.3,2.2-0.8,3.5c0.2,0.6,0.5,1.1,1.1,1c0.4-0.1,0.6-0.5,0.9-0.8c0.2-0.2,0.4-0.4,0.7-0.5c0.4-0.2,0.9,0.1,1.2-0.2
					c0.2-0.2,0.4-0.7,0.2-1c-0.2-0.2-0.6,0-0.9,0c-0.4,0-0.9,0.3-1.3,0.1c-0.4-0.2-0.6-1.2-0.6-1.2s0.8-2.1,1.2-3.2
					c0.3-0.9,0.9-1.7,1.1-2.6c0.1-0.3,0-0.6,0-0.9c0-0.5-0.1-1,0.2-1.4c0.2-0.2,0.8,0.1,0.9-0.2c0.4-1.1-1.5-1.8-2-2.9
					c-0.2-0.4-0.1-0.9-0.2-1.3c-0.3-0.9-1.4-2.5-1.4-2.5L384.8,297.7z"/>
				<path d="M387.2,317.2c-0.7,0-1-0.7-1.2-1.2c-0.4-1,0-1.8,0.4-2.6c0.2-0.3,0.3-0.7,0.4-1c0.1-0.3,0.2-0.7,0.3-1
					c0.5-1.5,1-3,1.1-4.6c0.1-1.1-0.1-2.1-0.4-3.1c-0.7-2-3.2-5.8-3.2-5.8l0.3-0.4l2.6,0.9l0,0.1c0,0.1,1.1,1.6,1.4,2.5
					c0.1,0.2,0.1,0.5,0.1,0.7c0,0.2,0,0.4,0.1,0.6c0.2,0.4,0.6,0.7,1,1.1c0.6,0.5,1.3,1.2,1,2c-0.1,0.3-0.5,0.3-0.7,0.3
					c-0.1,0-0.2,0-0.2,0c-0.1,0.2-0.1,0.5-0.1,0.8c0,0.2,0,0.3,0,0.4c0,0.1,0,0.2,0,0.3c0,0.2,0,0.4,0,0.6c-0.1,0.6-0.4,1.2-0.7,1.7
					c-0.1,0.3-0.3,0.6-0.4,0.9c-0.4,0.9-1,2.7-1.2,3.1c0.1,0.3,0.3,0.8,0.4,0.9c0.1,0.1,0.4,0,0.6,0c0.2,0,0.3-0.1,0.5-0.1
					c0.1,0,0.2,0,0.3,0c0.3-0.1,0.6-0.1,0.8,0.1c0.3,0.4,0.1,1.1-0.2,1.3c-0.2,0.2-0.6,0.2-0.8,0.2c-0.2,0-0.3,0-0.4,0
					c-0.2,0.1-0.3,0.2-0.5,0.3l-0.2,0.1c-0.1,0.1-0.2,0.2-0.3,0.3c-0.2,0.2-0.4,0.5-0.7,0.6C387.3,317.1,387.2,317.2,387.2,317.2z
					 M385.5,298.2c0.8,1.2,2.3,3.7,2.9,5.3c0.3,1,0.5,2.1,0.4,3.3c-0.1,1.6-0.6,3.2-1.2,4.7c-0.1,0.3-0.2,0.7-0.3,1
					c-0.1,0.4-0.3,0.7-0.5,1.1c-0.4,0.8-0.7,1.4-0.4,2.2c0.3,0.7,0.4,1,0.8,0.9c0.1,0,0.3-0.2,0.4-0.4c0.1-0.1,0.2-0.3,0.3-0.4
					l0.1-0.1c0.2-0.2,0.4-0.3,0.6-0.4c0.2-0.1,0.4-0.1,0.6-0.1c0.2,0,0.4,0,0.5-0.1c0.2-0.2,0.3-0.5,0.2-0.6c0,0-0.2,0-0.3,0
					c-0.1,0-0.2,0.1-0.3,0.1c-0.1,0-0.3,0-0.4,0.1c-0.3,0.1-0.7,0.2-1,0c-0.5-0.3-0.7-1.2-0.7-1.4l0-0.1l0-0.1c0,0,0.8-2.1,1.2-3.2
					c0.1-0.3,0.3-0.6,0.4-0.9c0.3-0.5,0.5-1,0.6-1.6c0-0.1,0-0.3,0-0.4c0-0.1,0-0.3,0-0.4c0-0.1,0-0.3,0-0.4c0-0.4,0-0.8,0.3-1.2
					c0.2-0.2,0.5-0.2,0.7-0.2c0.1,0,0.2,0,0.2,0c0.1-0.4-0.3-0.8-0.9-1.3c-0.4-0.4-0.9-0.8-1.1-1.3c-0.1-0.2-0.1-0.5-0.1-0.7
					c0-0.2,0-0.4-0.1-0.5c-0.3-0.7-1.1-2-1.3-2.3L385.5,298.2z"/>
			</g>
			<g>
				<path fill="#66452B" d="M392.9,300.6c0,0,2.3,2.8,2.5,4.6c0.1,0.4-0.3,0.7-0.3,1.1c0,0.6,0.4,1.2,0.3,1.8
					c-0.1,1.9-1.1,3.7-1.6,5.6c-0.4,1.6-1.1,4.8-1.1,4.8l1.5-0.1l0.3-2.4c0,0,0.8-2.8,1.1-4.2c0.3-1,0.4-2,0.7-2.9
					c0.2-0.6,0.7-1.1,0.9-1.8c0.2-0.8,0.4-1.8,0.1-2.6c-0.1-0.3-0.5-0.3-0.7-0.5c-0.5-0.5-0.9-1.1-1.2-1.8c-0.3-0.6-0.7-2.1-0.7-2.1
					C394.3,300.3,392.9,300.6,392.9,300.6L392.9,300.6z"/>
				<path d="M392.5,318.9l0.1-0.3c0,0,0.7-3.3,1.1-4.8c0.2-0.7,0.4-1.4,0.7-2.1c0.4-1.2,0.8-2.3,0.9-3.5c0-0.3-0.1-0.5-0.2-0.8
					c-0.1-0.3-0.2-0.6-0.2-1c0-0.2,0.1-0.4,0.2-0.6c0.1-0.2,0.1-0.3,0.1-0.5c-0.2-1.6-2.4-4.4-2.5-4.4l-0.3-0.3l0.4-0.1
					c0.4-0.1,1.5-0.4,1.8-0.5l0.3-0.1l0.1,0.3c0,0,0.4,1.4,0.7,2c0.4,0.8,0.7,1.3,1.1,1.7c0.1,0.1,0.2,0.1,0.3,0.2
					c0.2,0.1,0.4,0.2,0.5,0.4c0.4,0.8,0.2,1.8,0,2.7c-0.1,0.4-0.3,0.8-0.5,1.1c-0.1,0.3-0.3,0.5-0.4,0.7c-0.2,0.6-0.3,1.2-0.5,1.8
					c-0.1,0.4-0.2,0.7-0.2,1.1c-0.4,1.4-1.1,4.2-1.1,4.2l-0.3,2.6L392.5,318.9z M393.3,300.8c0.6,0.8,2.1,2.9,2.3,4.4
					c0,0.3-0.1,0.5-0.1,0.7c-0.1,0.2-0.1,0.3-0.1,0.4c0,0.3,0.1,0.5,0.2,0.8c0.1,0.3,0.2,0.6,0.2,1c-0.1,1.3-0.5,2.5-0.9,3.6
					c-0.2,0.7-0.5,1.4-0.7,2.1c-0.3,1.3-0.8,3.6-1,4.5l0.9-0.1l0.2-2.2c0,0,0.8-2.8,1.1-4.2c0.1-0.3,0.2-0.7,0.2-1
					c0.1-0.6,0.3-1.3,0.5-1.9c0.1-0.3,0.3-0.6,0.4-0.8c0.2-0.3,0.4-0.6,0.4-0.9c0.2-0.8,0.4-1.7,0.1-2.4c0-0.1-0.2-0.1-0.3-0.2
					c-0.1-0.1-0.3-0.1-0.4-0.3c-0.6-0.6-1-1.3-1.2-1.9c-0.2-0.5-0.5-1.4-0.7-1.8C394.1,300.6,393.7,300.7,393.3,300.8z"/>
			</g>
			<g>
				<path fill="#FFFFFF" d="M382.1,295.5l1.6,1.3l2.8,1.7l1.3,0.1l1.5,0.5l1.8-0.1l1.4,1.4l0.4,0.3l1.5-0.2l0.6-0.6l2.9-4.4l-0.7-7.2
					l-13.7,0.9L382.1,295.5z"/>
			</g>
			<g>
				<path fill="#FFFFFF" d="M396.8,283.3c1.8,1.5,3.6,3.1,5.1,5c1.1,1.3,1.8,3.1,3.4,3.9c2.3,2.5,12.1,5.3,12.2,6.1
					c-2.3-0.9-3.3,2.2-5.5,1.7c-2,0.6-3.7-0.7-5.5-1.5c-2.7-0.1-5.4,0-7.8,1.4c-1.3,0.7-2.8-0.4-3.9,0l-0.1,0.2l-0.2,0.1
					 M382.1,295.5c-1.6-0.8-2.7-2.3-4.2-3.1c-1.1-1.6-2.6-3.2-2.5-5.3c-0.2-2.2-0.7-5.2,0.3-7.2c-0.7-1.6-1.8-2.1-2.6-3.6
					c-0.6-2.2-2.8-3.5-1.5-5.1c1.5-1.3,2.5-2.9,4.5-3.6c1.6-0.4,3.2-0.2,4.7,0.3c2,0.2,3.1,1.9,4.1,3.4c1.3,2,2.1,4.2,2.5,6.5
					c0.9,1.9,3.3,2.3,5.1,3.1c1.5,0.7,3.1,1.3,4.3,2.5"/>
			</g>
			<g>
				<path d="M407.6,296.1c-0.8-0.1-2.6,0.7-2.1-0.5c-1.9-0.1-3.9,0.3-5.7-0.4c-1.9-0.9-4-1.5-6-2.1c-2-0.1-4.3,0.4-5.8-1.3
					c-1.6-0.9-3.9-0.3-5.3-1.6c-1.5-1.2-2.3-3-2.3-4.9c-0.3-1.9-1-4.4,1.1-5.5c1.4-0.4,2.7-0.1,3.5-1.4c1.8-0.3,3.4,0.4,4.9,1.2
					c1.8,0.9,3.7,1.4,5.5,2.4c1.7,1.1,3.1,2.5,4.6,3.8c1.2,1.4,2.6,2.7,3.4,4.4c0.9,1.8,2.9,2.8,4.5,3.9c1,0.3,3.4,1.4,1.1,1.7
					C408.5,295.8,408.1,296,407.6,296.1L407.6,296.1z"/>
			</g>
			<g>
				<path fill="#69737C" d="M388.2,289.9c-1-0.1-1.9-0.3-2.7-0.9c-0.6-0.4-2.2-1.3-1.2-2c0.8-0.1,1.8,0.3,2.5-0.3
					c1.1-0.2,2.3-0.3,3.3-0.8c1-0.5,2.1-0.2,3.1-0.5c0.7-0.4,0.6-1.9,1.8-1.6c1.1-0.3,0.7,1.7-0.2,1.1c-0.6,0.8,1,1.1,1.5,1.6
					c0.9,1-1,1.2-1.2,1.9c-1.2,0.4-2.1-1.2-3.3-0.7c-0.2,0.4,0,1.2-0.8,1c-1-0.6-1.9,0.1-2.9,0.2
					C388.5,289.1,387.8,289.9,388.2,289.9L388.2,289.9z M409.2,297.1c-0.6-0.3-1.3,0-1.9,0c-0.4,0-0.8,0-1.2-0.2
					c-0.6,0-1.8-0.7-2,0.2c0,0.4,1.1,0.6,0.2,0.7c-0.9,0.1-1.6-0.3-2.4-0.5c-0.3-0.3-1-0.7-0.8,0c0.3,0.6-0.4,0.9-0.9,0.9
					c-0.8-0.1-1.6-0.3-2.2-0.8c-0.4,0.5,0.6,1.2,1.1,1.2c0.6,0.5-0.9,0.3-1.2,0.2c-0.5-0.1-1-0.1-1.4,0.2c-0.7,0.2-0.7,0.8,0.1,0.7
					c0.7,0.2,1.6,0.5,2.3,0.1c0.8-0.5,1.7-0.8,2.6-1c0.7-0.2,1.4-0.3,2.2-0.3c1-0.1,2-0.1,2.9-0.1c0.8,0.4,1.5,0.1,2.2-0.3
					c0.4-0.1,1.7-0.6,0.8-1C409.4,297.2,409.3,297,409.2,297.1L409.2,297.1z"/>
			</g>
			<g>
				<path d="M406.6,298.5c0.4,0,0.8,0,1.1-0.2c0.4-0.2,0.8-0.3,1.2-0.4c0.5,0,0.7-0.7,0.2-0.8c-0.3-0.2-0.6-0.3-0.9-0.4
					c-0.3-0.3-0.7-0.3-1-0.6c0.2-0.3,0.4-0.6,0.7-0.9c0.4-0.1,0.8-0.1,1.2-0.2c0.3-0.1,0.6,0,0.9-0.1c0.4,0.2,0.8,0.3,1.2,0.6
					c0.4,0.2,0.8,0.4,1.2,0.5c0.4,0.1,0.7,0.2,1,0.4c0.4,0.2,0.8,0.3,1.3,0.4c0.4,0.1,0.6,0.6,1.1,0.5c0.5,0.1,0.9,0.2,1.3,0.5
					c0.3,0.1,0.7,0.4,0.8,0.6c-0.4,0.1-0.7-0.3-1.1-0.2c-0.3,0.1-0.5,0.4-0.9,0.3c-0.2,0.5-0.8,0.4-1.1,0.8
					c-0.4,0.3-0.8,0.6-1.3,0.8c-0.4,0.1-0.8,0.1-1.1,0c-0.4-0.1-0.9,0-1.3-0.1c-0.5,0.1-0.9,0-1.3-0.1c-0.4-0.1-0.7-0.4-1-0.6
					c-0.4-0.2-1.1-0.4-1.5-0.5c-0.2-0.1-0.2-0.2-0.4-0.2L406.6,298.5z"/>
			</g>
			<g>
				<path d="M377.2,267.2c-0.4,0-0.8,0-1.2,0.2c-0.7,0.1-1.3,0.5-1.7,1.1c-0.6,0.6-1.2,1.2-1.9,1.7c-0.3,0.2-0.6,0.6-0.8,0.9
					c0.4,0.3,1,0.3,1.3-0.1c0.4-0.5,1-1,1.7-1.2c0.6-0.1,1.2,0.1,1.7,0.2c0.5,0.2,0.9,0.4,1.4,0.5c0.3,0.1,0.7,0.1,1.1,0.2
					c0.5,0.2,1.1,0.3,1.6,0.4c0.6,0.1,1.2,0.1,1.9,0c0.1,0,0.3,0,0.4,0c-0.1,0.2-0.2,0.4-0.1,0.5c0,0.4,0.2,0.7,0.3,1
					c0.2,0.3,0.4,0.7,0.6,1c0.2,0.4,0.3,0.7,0.5,1.1c0.2,0.3,0.3,0.6,0.4,0.9c0.1,0.4,0.2,0.7,0.5,1c0.3,0.3,0.5,0.6,0.8,1
					c0.2,0.3,0.4,0.6,0.5,1c0.3,0.2,0.6,0.6,0.9,0.5c0.4,0,0.8-0.1,1.1-0.1l-0.1,0c-0.4-0.2-0.5-0.5-0.7-0.9
					c-0.1-0.4-0.1-0.8-0.2-1.1c0-0.4-0.2-0.7-0.3-1.1c-0.1-0.3-0.2-0.6-0.3-0.9c-0.1-0.3-0.3-0.6-0.4-1c-0.1-0.3-0.2-0.7-0.4-1
					c-0.2-0.3-0.3-0.7-0.5-1c-0.2-0.3-0.3-0.7-0.6-0.9c-0.1-0.2-0.3-0.3-0.4-0.3c0.1-0.2,0-0.4-0.2-0.6c-0.3-0.3-0.6-0.6-0.8-1
					c-0.4-0.5-1.1-0.7-1.7-1c-0.7-0.3-1.4-0.5-2.2-0.6c-0.6-0.2-1.2-0.2-1.8-0.2C377.4,267.2,377.3,267.2,377.2,267.2L377.2,267.2z"
					/>
			</g>
			<g>
				<path fill="#69737C" d="M384.1,276.9c0-0.5-0.7-0.3-1,0c-0.4,0.4-0.6,0.8-1,1.1c-0.6,0.5-1.5,0.5-2.1,1c-0.4,0.4-0.6,0.8-1.1,1.1
					c-0.5,0.3-1,0.6-1.3,1.1c-0.1,0.4-0.4,0.9,0,1.2c0.5,0.2,0,0.7,0,1c0.2,0.4,0.8,0.5,1.2,0.2c0.5-0.3,1-0.6,1.3-1.1
					c0.5-0.6,1-1.1,1.7-1.4c0.4-0.1,0.8-0.4,1.1-0.7c0.3-0.3,0-0.8,0.5-0.9c0.4-0.2,0.7-0.6,1-0.9c0.3-0.4-0.2-0.8-0.2-1.2
					C384.3,277.2,384.3,277,384.1,276.9L384.1,276.9z"/>
			</g>
			<g>
				<path fill="#66452B" d="M391.6,318.9H389c-0.4-0.2-0.7-0.9-1.3-0.6c-0.5,0.2-1,0.4-1.4,0.7c-0.5,0.2-0.8,0.6-1.1,1
					c-0.1,0.3-0.9,0.6-0.2,0.6c0.6,0,1-0.6,1.6-0.6c0.5-0.2,1-0.1,1.4-0.1c0.4,0.1,0.8,0.1,1.2,0.1c0.5,0,0.9,0.1,1.4,0
					c0.7,0.1-0.2,0.5-0.5,0.6c-0.5,0.2-1.1,0.3-1.7,0.4c-0.6,0-1.1,0-1.6,0.2c-0.5,0.2-1,0.5-1.5,0.8c-0.3,0.1-0.9,0.5-0.3,0.5
					c0.5,0.1,1-0.1,1.4-0.2c0.8-0.3,1.6-0.5,2.5-0.6c0.5-0.1,1.1-0.4,1.6-0.5c0.3,0,1.2-0.2,1,0.4c-0.3,0.4-0.8,0.7-1.3,0.9
					c-0.4,0.2-0.8,0.6-1.3,0.6c-0.4-0.1-1.2,0.2-0.6,0.6c0.3,0.5,0.9,0.2,1.3,0c0.5-0.2,0.9-0.4,1.4-0.6c0.5-0.2,1.1-0.4,1.6-0.6
					c0.4-0.3,1-0.4,1.4-0.7c0.5-0.3,1-0.5,1.3-1c0.1-0.4,0.5-0.7,0.9-0.9c0.5-0.1,1,0,1.5-0.2c0.6,0,0.4-1-0.1-1
					c-0.4-0.3-0.8-0.6-1.3-0.9c-0.5-0.2-1.1-0.3-1.7-0.3c-0.5,0-0.9,0.3-1.1,0.7c-0.3,0.4-0.4,1-1,0.8
					C392.2,319.1,391.9,319,391.6,318.9L391.6,318.9z M378.7,322.3c0,0,0.5-1.9,1.2-2.5c1.3-1.3,5.1-2.3,5.1-2.3
					c-1.6,0.6-3.6,0.2-5.1,0.6c-1.3,0.4-3.5,2.1-3.5,2.1s0.8-1.8,1.5-2.5c1.9-2.1,4.9-2.3,7.2-2l2.6,0.4c0,0,0.4,0.3,0.2,0.7
					c-0.4,0.8-1.6,1.3-2.4,1.7C383,319.6,380.1,320.5,378.7,322.3L378.7,322.3z"/>
				<path d="M388.6,324.3c-0.2,0-0.5-0.1-0.6-0.4c-0.4-0.3-0.3-0.6-0.2-0.7c0.2-0.3,0.7-0.5,1.1-0.4c0.3,0,0.6-0.2,0.8-0.4
					c0.1-0.1,0.2-0.1,0.3-0.2c0.6-0.3,1-0.5,1.3-0.9c0,0,0,0,0,0c-0.1,0-0.4,0-0.5,0c-0.1,0-0.2,0-0.2,0c-0.2,0-0.5,0.1-0.8,0.2
					c-0.2,0.1-0.5,0.2-0.8,0.2c-0.9,0.1-1.7,0.3-2.4,0.6c-0.5,0.1-1,0.3-1.5,0.2c-0.1,0-0.4,0-0.5-0.3c-0.1-0.3,0.3-0.5,0.6-0.7
					c0.5-0.4,1.1-0.6,1.6-0.8c0.5-0.2,1.1-0.2,1.6-0.3l0.2,0c0.1,0,0.2-0.1,0.4-0.1c0.4-0.1,0.8-0.2,1.2-0.3c0.1,0,0.1,0,0.2-0.1
					c-0.1,0-0.1,0-0.2,0c-0.3,0-0.5,0-0.7,0c-0.5,0-0.9,0-1.3-0.1c-0.2,0-0.3,0-0.5,0c-0.3,0-0.6,0-0.9,0.1c-0.3,0-0.5,0.2-0.7,0.3
					c-0.3,0.2-0.6,0.4-1,0.4c-0.1,0-0.4,0-0.5-0.2c-0.1-0.2,0.1-0.4,0.3-0.5c0.1-0.1,0.2-0.1,0.2-0.2l0-0.1c0.3-0.4,0.7-0.8,1.2-1.1
					c0.5-0.3,1-0.5,1.5-0.7c0.5-0.3,0.9,0.1,1.2,0.4c0.1,0.1,0.2,0.2,0.3,0.3l2.7,0c0.2,0.1,0.4,0.2,0.6,0.1l0.1,0l0.1,0
					c0.2,0,0.3,0,0.5-0.4c0.1-0.1,0.1-0.3,0.3-0.4c0.3-0.5,0.8-0.8,1.3-0.8c0.7-0.1,1.4,0.1,1.8,0.3c0.3,0.2,0.6,0.4,0.8,0.5
					c0.2,0.1,0.3,0.2,0.5,0.3c0.4,0.1,0.6,0.5,0.6,0.9c0,0.4-0.3,0.6-0.6,0.7c-0.2,0.1-0.5,0.1-0.7,0.1c-0.3,0-0.5,0-0.7,0.1
					c-0.4,0.1-0.6,0.4-0.7,0.7c-0.2,0.6-0.7,0.8-1.1,1.1c-0.1,0-0.2,0.1-0.2,0.1c-0.2,0.2-0.5,0.3-0.8,0.4c-0.2,0.1-0.4,0.2-0.6,0.3
					c-0.6,0.3-1.1,0.5-1.7,0.7c-0.5,0.2-0.9,0.4-1.4,0.6l-0.1,0C389.3,324.1,389,324.3,388.6,324.3z M388.3,323.5
					C388.3,323.5,388.3,323.5,388.3,323.5l0.1,0.1c0.1,0.2,0.3,0.2,0.9-0.1l0.1,0c0.4-0.2,0.9-0.4,1.4-0.6c0.6-0.2,1.1-0.4,1.6-0.6
					c0.2-0.1,0.4-0.2,0.7-0.3c0.3-0.1,0.5-0.2,0.7-0.3c0.1-0.1,0.2-0.1,0.3-0.2c0.4-0.2,0.7-0.4,0.9-0.8c0.1-0.5,0.5-0.8,1.1-1
					c0.3-0.1,0.6-0.1,0.8-0.1c0.2,0,0.5,0,0.7-0.1c0.1,0,0.1,0,0.1-0.1c0-0.2-0.1-0.4-0.2-0.4l-0.1,0l-0.1,0
					c-0.2-0.1-0.4-0.3-0.5-0.4c-0.2-0.2-0.5-0.3-0.7-0.5c-0.6-0.2-1.1-0.3-1.5-0.2c-0.5,0-0.8,0.4-0.9,0.6c-0.1,0.1-0.2,0.2-0.2,0.3
					c-0.2,0.3-0.4,0.7-1,0.6c-0.3,0.1-0.6,0-0.8-0.1l-2.7,0c-0.2-0.1-0.4-0.2-0.5-0.4c-0.3-0.3-0.4-0.3-0.6-0.3
					c-0.5,0.2-1,0.4-1.4,0.7c-0.4,0.2-0.8,0.5-1,0.9c0,0.1-0.1,0.1-0.1,0.2c0.1-0.1,0.3-0.1,0.4-0.2c0.2-0.2,0.5-0.3,0.8-0.4
					c0.3-0.1,0.7-0.1,1-0.1c0.2,0,0.3,0,0.5,0l0,0l0,0c0.4,0.1,0.8,0.1,1.2,0.1c0.3,0,0.5,0,0.8,0c0.2,0,0.4,0,0.6,0
					c0.3,0,0.5,0.1,0.5,0.3c0,0.2-0.1,0.4-0.9,0.7c-0.4,0.2-0.9,0.3-1.3,0.4c-0.1,0-0.3,0.1-0.4,0.1l-0.2,0c-0.5,0-1,0-1.4,0.2
					c-0.5,0.2-1,0.5-1.5,0.8l-0.1,0c0.3,0,0.6-0.1,1-0.2c0.7-0.3,1.6-0.5,2.5-0.6c0.2-0.1,0.5-0.1,0.7-0.2c0.3-0.1,0.6-0.2,0.9-0.3
					c0.1,0,0.2,0,0.2,0c0.4,0,0.8-0.1,1,0.2c0.1,0.1,0.1,0.3,0,0.6c-0.4,0.4-0.8,0.8-1.5,1.1c-0.1,0-0.2,0.1-0.3,0.2
					c-0.3,0.2-0.7,0.5-1.2,0.5l-0.1,0C388.6,323.4,388.4,323.4,388.3,323.5z M388.2,323.4L388.2,323.4L388.2,323.4z M378.9,322.4
					l-0.5-0.2c0-0.1,0.5-1.9,1.2-2.6c0.6-0.6,1.5-1.1,2.5-1.4c0,0,0,0,0,0c-0.8,0-1.6,0-2.2,0.2c-1.2,0.4-3.4,2-3.5,2l-0.4-0.3
					c0-0.1,0.9-1.8,1.5-2.6c2.3-2.5,5.9-2.3,7.4-2l2.7,0.4c0.2,0.1,0.6,0.5,0.3,1c-0.4,0.8-1.4,1.3-2.2,1.6l-0.3,0.2
					c-0.6,0.3-1.2,0.6-1.9,0.9C381.7,320.3,379.9,321.2,378.9,322.4z M384.2,318c-1.2,0.4-3.3,1.1-4.2,2c-0.3,0.3-0.5,0.8-0.7,1.4
					c1.1-0.9,2.6-1.6,4.1-2.3c0.6-0.3,1.3-0.6,1.8-0.9l0.3-0.2c0.7-0.3,1.7-0.8,2-1.4c0.1-0.1,0-0.2-0.1-0.3l-2.5-0.4
					c-1.4-0.2-4.8-0.4-6.9,1.9c-0.3,0.4-0.7,1-1,1.5c0.8-0.5,1.9-1.3,2.8-1.5c0.8-0.2,1.6-0.2,2.4-0.2c0.6,0,1.3,0,1.9-0.1
					c0.5-0.1,0.8-0.2,0.8-0.2l0.2,0.5C384.8,317.9,384.5,317.9,384.2,318z"/>
			</g>
			<g>
				<path fill="#69737C" d="M386.5,315.7c-2.1,1.4-6.8,3.9-6.7,4c0,0,4.1-0.9,5.9-1.8c0.6-0.3,1.6-0.5,1.8-1.2c0.1-0.3-0.1-0.8-0.4-1
					C387,315.5,386.7,315.6,386.5,315.7L386.5,315.7z"/>
				<path d="M379.8,320l-0.2-0.2l0-0.2c0-0.2,0-0.3,2.7-1.8c1.4-0.8,3.1-1.8,4.1-2.4l0,0c0.3-0.2,0.7-0.3,1-0.1
					c0.4,0.3,0.6,0.9,0.5,1.3c-0.2,0.7-0.9,0.9-1.5,1.2c-0.1,0.1-0.3,0.1-0.4,0.2c-1.9,0.9-5.8,1.8-6,1.9L379.8,320z M386.9,315.9
					c-0.1,0-0.2,0-0.3,0.1l0,0c-1,0.7-2.7,1.6-4.1,2.5c-0.4,0.2-0.9,0.5-1.3,0.7c1.3-0.4,3.3-0.9,4.4-1.5c0.1-0.1,0.3-0.1,0.4-0.2
					c0.5-0.2,1.1-0.4,1.2-0.9c0.1-0.2-0.1-0.6-0.3-0.7C387,315.9,386.9,315.9,386.9,315.9z"/>
			</g>
			<g>
				<path fill="#69737C" d="M396.4,304.9c-0.5,0-0.6,0.9-0.6,1.4c0,0.3,0,1,0.3,1c0.4,0,0.6-0.7,0.6-1.2
					C396.7,305.7,396.8,304.9,396.4,304.9z"/>
			</g>
			<g>
				<path fill="#69737C" d="M394.2,318.4c0-0.4-0.5-0.2-0.7-0.1c-0.5,0.1-0.9,0.4-1.4,0.7c-0.3,0.2-0.7,0.4-1.1,0.6
					c-0.7,0.3-1.3,0.8-2,1.1c-0.3,0.1-0.6,0.3-0.9,0.3c-0.3,0.1-0.2,0.2,0.1,0.2c0.5,0.1,1,0,1.4-0.1c0.5-0.2,1.1-0.3,1.6-0.5
					c0.3-0.2,0.8-0.3,1.1-0.5c0.3-0.2,0.9-0.3,1.2-0.4c0.5-0.2,0.3-0.6,0.8-0.6c0.3,0,0.4-0.5,0-0.6
					C394.3,318.6,394.3,318.5,394.2,318.4L394.2,318.4z"/>
				<path d="M388.7,321.6c-0.2,0-0.4,0-0.5-0.1c0,0,0,0,0,0c-0.2,0-0.4-0.1-0.4-0.3c0-0.1,0.1-0.3,0.4-0.4c0.3-0.1,0.5-0.2,0.9-0.3
					c0.3-0.2,0.7-0.4,1-0.6c0.3-0.2,0.7-0.4,1-0.6c0.1-0.1,0.3-0.2,0.4-0.2c0.2-0.1,0.4-0.2,0.6-0.4l0.2-0.1
					c0.4-0.2,0.8-0.5,1.3-0.6l0,0c0.2-0.1,0.6-0.2,0.8,0c0.1,0.1,0.2,0.2,0.2,0.3c0.2,0.1,0.4,0.3,0.4,0.6c0,0.3-0.2,0.5-0.5,0.5
					c-0.2,0-0.2,0-0.2,0.1c-0.1,0.1-0.2,0.3-0.4,0.4c-0.2,0.1-0.4,0.1-0.6,0.2c-0.2,0.1-0.5,0.1-0.6,0.2c-0.2,0.1-0.3,0.2-0.5,0.2
					c-0.2,0.1-0.5,0.2-0.6,0.3l-0.1,0c-0.3,0.1-0.7,0.3-1.1,0.4c-0.2,0-0.3,0.1-0.5,0.1C389.4,321.5,389,321.6,388.7,321.6z
					 M394,318.5c-0.1,0-0.2,0.1-0.3,0.1l-0.1,0c-0.4,0.1-0.8,0.3-1.1,0.5l-0.2,0.1c-0.2,0.1-0.4,0.3-0.6,0.4
					c-0.1,0.1-0.3,0.2-0.4,0.2c-0.4,0.2-0.7,0.4-1,0.6c-0.3,0.2-0.7,0.4-1,0.6c0,0-0.1,0-0.1,0.1c0.2,0,0.3-0.1,0.5-0.1
					c0.2-0.1,0.3-0.1,0.5-0.2c0.3-0.1,0.7-0.2,1-0.3c0.2-0.2,0.5-0.2,0.7-0.3c0.2-0.1,0.3-0.1,0.4-0.2c0.2-0.1,0.5-0.2,0.8-0.3
					c0.2,0,0.4-0.1,0.5-0.1c0.1-0.1,0.2-0.1,0.2-0.2c0.1-0.2,0.3-0.4,0.7-0.4l0,0l0-0.1C394.1,318.8,394,318.6,394,318.5L394,318.5z
					 M394.5,318.4C394.5,318.4,394.5,318.4,394.5,318.4C394.5,318.4,394.5,318.4,394.5,318.4L394.5,318.4z"/>
			</g>
			<g>
				<path fill="#69737C" d="M389.5,322.8c0.4-0.1,0.8-0.1,1.1-0.2c0.4-0.1,0.9-0.3,1.3-0.4c0.2-0.1,0.4-0.2,0.6-0.3
					c0.4-0.3,0.6-0.6,0.9-1c0.2-0.3,0.3-0.6,0.5-0.9c0.1-0.3-0.2-0.4-0.4-0.2c-0.2,0.2-0.5,0.4-0.7,0.5c-0.2,0.2-0.5,0.3-0.7,0.6
					c-0.3,0.3-0.4,0.7-0.7,1c-0.1,0.1-0.3,0.3-0.5,0.3c-0.4,0.2-0.8,0.3-1.2,0.5C389.7,322.7,389.6,322.8,389.5,322.8L389.5,322.8z"
					/>
				<path d="M389.6,323.1l-0.3-0.4c0.1-0.1,0.2-0.1,0.2-0.2c0.2-0.1,0.4-0.2,0.6-0.3c0.2-0.1,0.4-0.2,0.6-0.3
					c0.2-0.1,0.3-0.2,0.4-0.3c0.1-0.1,0.2-0.3,0.4-0.5c0.1-0.2,0.2-0.3,0.3-0.5c0.2-0.2,0.3-0.3,0.5-0.4c0.1-0.1,0.2-0.1,0.3-0.2
					c0.2-0.1,0.3-0.2,0.4-0.3c0.1-0.1,0.2-0.2,0.3-0.2c0.1-0.1,0.4-0.2,0.6-0.1c0.2,0.1,0.3,0.3,0.2,0.6l-0.1,0.3
					c-0.1,0.2-0.2,0.5-0.4,0.7c-0.3,0.4-0.5,0.8-0.9,1.1l-0.7,0.3c-0.4,0.1-0.9,0.3-1.4,0.4c-0.2,0.1-0.4,0.1-0.7,0.1
					C389.9,323,389.8,323,389.6,323.1z M393.6,320c-0.1,0.1-0.1,0.1-0.2,0.1c-0.1,0.1-0.3,0.2-0.4,0.3c-0.1,0.1-0.2,0.2-0.3,0.2
					c-0.1,0.1-0.3,0.2-0.4,0.3c-0.1,0.1-0.2,0.2-0.3,0.4c-0.1,0.2-0.2,0.4-0.4,0.6c0,0,0,0,0,0c0.1,0,0.2-0.1,0.4-0.1l0.6-0.3
					c0.3-0.2,0.5-0.6,0.7-0.9C393.3,320.5,393.5,320.3,393.6,320L393.6,320z"/>
			</g>
			<g>
				<path d="M393,300.9c-0.4,0-0.6-0.2-0.8-0.4c-0.1-0.1-0.1-0.2-0.2-0.2c-0.2-0.2-0.3-0.4-0.5-0.5l-0.1-0.1
					c-0.1-0.1-0.3-0.3-0.4-0.4c-0.1,0-0.2,0-0.3,0c-0.2,0-0.4,0.1-0.6,0l-0.9,0l0,0c-0.1,0-0.2,0-0.3-0.1c-0.2,0-0.4-0.1-0.6-0.2
					c-0.2,0-0.3-0.1-0.4-0.2c-0.1,0-0.1-0.1-0.2-0.1c-0.1,0-0.1,0-0.1,0c-0.1,0-0.2,0-0.3,0l-0.1,0l-0.1-0.1
					c-0.1-0.2-0.4-0.5-0.5-0.7l-0.1,0c-0.1-0.1-0.3-0.2-0.5-0.3c-0.2-0.1-0.3-0.3-0.4-0.4c0,0,0-0.1,0-0.1c-0.1-0.1-0.1-0.2-0.2-0.3
					c0-0.1-0.1-0.2-0.1-0.2c-0.1-0.1-0.1-0.2-0.2-0.3c0-0.1-0.1-0.2-0.1-0.3c-0.1-0.1-0.1-0.3,0-0.3l0.5,0.1c0,0,0,0,0,0
					c0,0,0,0,0,0l0,0c0,0,0,0,0,0c0.1,0.1,0.1,0.2,0.1,0.3c0,0.1,0.1,0.2,0.1,0.2c0.1,0.1,0.1,0.2,0.2,0.3c0,0.1,0.1,0.2,0.1,0.2
					c0,0,0.1,0.1,0.1,0.1c0,0.1,0.1,0.2,0.2,0.3l0.1,0l0.1,0.1c0.1,0.1,0.2,0.2,0.3,0.2l0.2,0.1c0.2,0.2,0.4,0.4,0.6,0.7
					c0,0,0,0,0,0c0.1,0,0.3-0.1,0.5,0.1c0.1,0,0.1,0.1,0.2,0.1c0.1,0.1,0.2,0.1,0.3,0.1l0.1,0c0.1,0.1,0.3,0.1,0.4,0.1
					c0.1,0,0.2,0,0.4,0.1h0.9c0.2,0,0.3,0,0.4,0c-0.1-0.1-0.1-0.2-0.2-0.3c-0.1-0.1-0.2-0.3-0.3-0.5c-0.1-0.1-0.2-0.3-0.3-0.4
					c-0.1-0.1-0.1-0.2-0.2-0.3l0-0.1l0.5-0.2l0,0.1c0,0.1,0.1,0.2,0.1,0.3c0.1,0.1,0.2,0.3,0.3,0.4c0.1,0.2,0.2,0.3,0.3,0.5
					c0.2,0.4,0.5,0.7,0.9,1.1l0.1,0.1c0.2,0.2,0.4,0.4,0.6,0.6c0.1,0.1,0.2,0.2,0.2,0.3c0.1,0.1,0.2,0.3,0.6,0.1c0.2,0,0.3,0,0.5,0
					c0.2,0,0.3,0,0.3,0c0.1-0.1,0-0.3,0-0.5c0-0.2,0-0.4,0-0.6c0-0.1,0-0.2,0-0.4c0-0.1,0-0.2,0-0.3c0-0.2,0.2-0.4,0.3-0.6
					c0.1-0.1,0.2-0.2,0.2-0.3c0-0.1-0.1-0.3-0.1-0.4c0-0.2-0.1-0.4-0.1-0.5c0-0.3-0.1-0.5-0.2-0.7l0.4-0.3c0.2,0.3,0.3,0.6,0.3,0.9
					c0,0.1,0.1,0.3,0.1,0.5c0,0.2,0.1,0.3,0.1,0.5c0,0.3-0.2,0.5-0.3,0.7c-0.1,0.1-0.2,0.2-0.2,0.3c0,0.1,0,0.1,0,0.2
					c0,0.2,0,0.3,0,0.5c0,0.1,0,0.3,0,0.4c0,0.2,0,0.5-0.1,0.7c-0.2,0.4-0.6,0.4-0.9,0.3c-0.1,0-0.2,0-0.3,0
					C393.3,300.9,393.1,300.9,393,300.9z"/>
			</g>
			<g>
				<path d="M387.1,299c-0.2,0-0.4-0.1-0.5-0.2c-0.1,0-0.1-0.1-0.2-0.1l-0.2-0.1c-0.1-0.1-0.2-0.1-0.4-0.2l-0.1,0
					c-0.1-0.1-0.2-0.1-0.4-0.2l-0.1,0c-0.1-0.1-0.2-0.1-0.2-0.1c-0.1-0.1-0.3-0.1-0.4-0.2c-0.2-0.1-0.3-0.1-0.4-0.2
					c-0.1-0.1-0.2-0.1-0.3-0.2l-0.1-0.1c-0.2-0.2-0.4-0.3-0.6-0.5l-0.1-0.1c-0.1-0.1-0.2-0.1-0.3-0.2c-0.2-0.1-0.4-0.3-0.6-0.5
					c-0.3-0.2-0.5-0.5-0.5-0.9c0-0.3-0.1-0.5-0.2-0.7l0-0.1l0-0.1c0-0.1-0.1-0.2-0.1-0.4l0.5,0.1c0,0.1,0.1,0.2,0.1,0.3
					c0.1,0.3,0.2,0.6,0.2,0.9c0,0.2,0.2,0.4,0.4,0.6c0.2,0.2,0.4,0.3,0.5,0.4c0.1,0.1,0.2,0.1,0.3,0.2l0.1,0.1
					c0.2,0.1,0.4,0.3,0.6,0.5c0.1,0.1,0.3,0.1,0.4,0.2c0.1,0.1,0.2,0.1,0.3,0.2l0.1,0l0.1,0.1c0.1,0.1,0.2,0.1,0.3,0.2
					c0.1,0,0.2,0.1,0.2,0.1l0.1,0c0.1,0.1,0.3,0.1,0.4,0.2c0.2,0.1,0.3,0.1,0.4,0.2l0.1,0.1c0,0,0.1,0.1,0.2,0.1
					c0.1,0,0.2,0.1,0.3,0.1c0,0-0.1,0-0.1,0.1l0.5,0.1c0,0.2-0.2,0.3-0.2,0.4C387.3,299,387.2,299,387.1,299z"/>
			</g>
			<g>
				<path fill="#BCA76B" d="M407.6,298.8c0.3,0,0.6,0,0.8-0.1c0.3,0,0.6-0.1,0.8-0.2c0.3-0.1,0.5-0.4,0.9-0.4c0.3,0,0.6,0.1,0.9-0.1
					c0.2-0.2,0.4-0.3,0.7-0.3c0.3,0,0.6,0.1,0.8,0.1c0.3,0.1,0.5,0.1,0.8,0.2c0.2,0.1,0.5,0.3,0.7,0.4c0.3,0.1-0.2,0.3-0.3,0.4
					c-0.3,0.1-0.6,0-0.8,0.2c-0.2,0.1-0.4,0.3-0.6,0.5c-0.1,0.3-0.5,0.2-0.7,0.3c-0.2,0-0.5,0-0.7,0c-0.2,0-0.4,0.1-0.6,0
					c-0.3-0.1-0.5-0.1-0.8-0.2c-0.2-0.1-0.4-0.4-0.7-0.4c-0.4-0.1-0.7-0.3-1.1-0.5C407.7,298.9,407.7,298.8,407.6,298.8L407.6,298.8
					z"/>
			</g>
			<g>
				<path d="M373.3,274.1c-0.6-0.1-1.3,0.2-1.9,0.1c-0.6,0.1-1.2,0-1.8,0.1c-0.6-0.1-1.3-0.1-1.9,0c-0.9,0.2-1.8,0.5-2.8,0.7
					c-1.3,0.1-2.6,0-3.9,0c-0.9,0.1,0.1-1.1,0.6-1c1.2-0.3,2.3-0.7,3.5-0.9c0.9-0.1,1.8-0.4,2.7-0.6c0.7-0.2,1.5-0.4,2.2-0.6
					c0.8-0.1,1.5-0.3,2.3-0.1c0.8-0.2,1.6-0.4,2.3-0.7c0.7-0.3,1.5-0.1,2.1-0.5c0.4-0.6,1.2-0.6,1.8-0.5c0.7,0.1,1.4,0.4,1.9,1
					c0.5,0.7-1,0.6-0.6,1.4c-0.3,0.3-0.8,0.3-1.2,0.3c-0.4,0-0.7,0.1-1.1-0.1c-0.6-0.2-1-0.7-1.6-1c-0.6-0.1-0.6,0.9-1.3,0.8
					c-0.9,0.3-1.8,0.3-2.8,0.3c0.6,0.2,1.2,0.4,1.7,0.8C373.8,274,373.5,274.1,373.3,274.1L373.3,274.1z"/>
				<path d="M363.3,275.3c-0.3,0-0.6,0-0.8,0c-0.5,0-1,0-1.5,0c-0.2,0-0.4,0-0.5-0.2c-0.1-0.1-0.1-0.3,0.1-0.5
					c0.2-0.3,0.6-0.7,1-0.7c0,0,0,0,0,0c0.3-0.1,0.6-0.2,0.9-0.3c0.9-0.3,1.7-0.5,2.6-0.6c0.5-0.1,1-0.2,1.5-0.3
					c0.4-0.1,0.8-0.2,1.2-0.3c0.3-0.1,0.7-0.2,1-0.3c0.4-0.1,0.8-0.2,1.1-0.3l0.1,0c0.7-0.1,1.4-0.2,2.2-0.1l0.1,0
					c0.7-0.2,1.5-0.4,2.1-0.7c0.3-0.2,0.7-0.2,1.1-0.2c0.4,0,0.7-0.1,1-0.3c0.5-0.6,1.2-0.6,1.9-0.6c1,0.2,1.6,0.5,2,1.1
					c0.1,0.2,0.2,0.3,0.1,0.5c0,0.2-0.3,0.4-0.4,0.5c-0.3,0.2-0.4,0.3-0.2,0.5l0.1,0.1l-0.1,0.1c-0.4,0.4-1.1,0.4-1.3,0.4
					c-0.1,0-0.2,0-0.3,0c-0.3,0-0.6,0-0.9-0.1c-0.4-0.1-0.7-0.4-1-0.6c-0.2-0.1-0.4-0.3-0.5-0.4c-0.1,0-0.2,0.1-0.4,0.3
					c-0.2,0.2-0.4,0.6-0.8,0.5c-0.6,0.2-1.2,0.3-1.9,0.3c0.3,0.1,0.6,0.3,0.9,0.5l0,0c0.1,0.2,0.1,0.3,0.1,0.4
					c-0.1,0.2-0.4,0.3-0.5,0.3l0,0l0,0c-0.3-0.1-0.7,0-1,0.1c-0.3,0-0.5,0.1-0.8,0.1c-0.4,0.1-0.8,0.1-1.2,0.1c-0.2,0-0.4,0-0.6,0
					c-0.7-0.1-1.4,0-1.9,0c-0.4,0.1-0.9,0.2-1.3,0.3c-0.5,0.1-1,0.3-1.4,0.3C364.4,275.3,363.8,275.3,363.3,275.3z M361.6,274.9
					c0.3,0,0.6,0,0.8,0c0.8,0,1.6,0,2.4,0c0.5-0.1,0.9-0.2,1.4-0.3c0.4-0.1,0.9-0.3,1.4-0.3c0.5-0.1,1.3-0.2,2,0c0.2,0,0.4,0,0.6,0
					c0.4,0,0.8,0,1.1-0.1c0,0,0,0,0,0c0.3,0,0.5,0,0.8-0.1c0.4-0.1,0.7-0.1,1.1-0.1c0.2-0.1,0.2-0.1,0.2-0.1l0,0c0,0,0,0,0,0
					c-0.4-0.3-0.9-0.5-1.5-0.7l-0.1-0.1l0.1-0.3c0.2,0,0.4,0,0.5,0c0.7,0,1.5,0,2.2-0.3l0,0l0,0c0.2,0,0.4-0.1,0.6-0.4
					c0.2-0.2,0.4-0.5,0.7-0.5l0.1,0c0.2,0.1,0.4,0.3,0.6,0.4c0.3,0.2,0.6,0.4,0.9,0.6c0.2,0.1,0.4,0.1,0.7,0.1c0.1,0,0.2,0,0.3,0
					c0.4,0,0.8-0.1,1-0.2c-0.2-0.4,0.2-0.7,0.4-0.8c0.1-0.1,0.3-0.2,0.3-0.2c0-0.1,0-0.1-0.1-0.2c-0.3-0.5-0.9-0.8-1.7-0.9
					c-0.6-0.1-1.3-0.1-1.6,0.4l0,0c-0.4,0.2-0.8,0.3-1.2,0.3c-0.3,0-0.7,0.1-0.9,0.2c-0.7,0.3-1.5,0.5-2.2,0.7l-0.2,0l0,0
					c-0.7-0.1-1.4,0-2.1,0.1l-0.1,0c-0.4,0.1-0.7,0.2-1.1,0.3c-0.4,0.1-0.7,0.2-1.1,0.3c-0.4,0.1-0.8,0.2-1.2,0.3
					c-0.5,0.1-1,0.2-1.5,0.3c-0.9,0.1-1.8,0.3-2.6,0.6c-0.3,0.1-0.6,0.2-0.9,0.3l0,0l0,0c-0.1,0-0.4,0.2-0.6,0.4
					c-0.1,0.2-0.2,0.3-0.2,0.3v0c0,0,0.1,0,0.2,0C361.2,274.9,361.4,274.9,361.6,274.9z"/>
			</g>
			<g>
				<path fill="#FFFFFF" d="M377,271.6l0.6-0.3l0.3-0.5c0,0,0.5,0.8,0.3,1C377.9,272.1,377,271.6,377,271.6L377,271.6z M378.5,270.2
					c0.1-0.1-0.5-0.5,0-0.6c0.5-0.6,1.2-0.1,1.8,0.1c1.1,0.3,2.2,0.8,2.9,1.7c1,1.2,1.3,2.8,2.1,4.1c0.3,0.6,0.6,1.3,0.8,2
					c0.2,0.5,1,1.1,0.6,1.7c-0.5,0.3-1-0.1-1.5-0.2c-0.6-0.1-0.3,0.7,0.1,0.7c0.5,0.2,0.6,0.9-0.1,0.9c-0.6-0.1-1.2-0.1-1.9-0.2
					c-0.5-0.3,0.1-0.8,0.4-0.9c0.4-0.2,0.9-0.5,0.8-1c0-0.9-0.6-1.6-0.8-2.5c-0.2-0.7-0.3-1.3-0.6-1.9c-0.3-1.4-1.5-2.4-2.8-2.8
					C379.7,270.8,379.1,270.5,378.5,270.2L378.5,270.2L378.5,270.2z"/>
			</g>
			<g>
				<path fill="#BCA76B" d="M383.2,270.9c0.2,0.1,0.4,0.2,0.6,0.3c0.2,0.2,0.5,0.7,0.6,0.9c0.1,0.2,0.1,0.3,0.1,0.5
					c0,0.2,0.2,0.4,0.3,0.5c0.1,0.2,0.2,0.5,0.3,0.7c0.1,0.2,0.2,0.4,0.3,0.6c0,0.2,0.1,0.4,0.2,0.6c0.1,0.2,0.2,0.5-0.1,0.5
					c-0.2,0-0.4-0.1-0.5-0.3c-0.2-0.2-0.3-0.4-0.5-0.7c-0.1-0.2-0.2-0.3-0.2-0.5c-0.1-0.2-0.1-0.4-0.2-0.6c-0.1-0.2-0.1-0.4-0.2-0.6
					c-0.1-0.2-0.2-0.4-0.3-0.7c-0.1-0.2-0.5-0.9-0.4-1.1C383.2,270.9,383.2,270.9,383.2,270.9z M379,269.3c-0.1,0-0.3-0.2-0.4-0.3
					c-0.1-0.1-0.3-0.1-0.4-0.2c-0.3,0.1,0-0.2-0.2-0.1c-0.1-0.1-0.1-0.2-0.1-0.3c-0.1-0.1-0.2-0.2-0.3-0.3c0-0.1-0.1-0.1,0-0.1
					c0.1,0,0.3,0,0.4,0c0.1,0,0.3,0.1,0.4,0.1c0.2,0,0.4,0,0.6,0c0.1,0,0.1,0.1,0.2,0.1c0.1,0,0.1,0.1,0.2,0c0.2,0,0.2,0.2,0.3,0.3
					c0.1,0.1,0.2,0.2,0.2,0.3c0,0,0.1,0.2,0,0.1c0,0,0,0.1-0.1,0.1c-0.1,0.1-0.2,0.1-0.4,0.2c-0.1,0-0.2,0.1-0.4,0.1
					C379.1,269.3,379.1,269.3,379,269.3L379,269.3z"/>
			</g>
			<g>
				<path fill="#FFFFFF" d="M378.7,269c-0.2,0.1-0.4,0.2-0.7,0.1c-0.1,0-0.3,0.1-0.4,0.2c-0.1,0.1-0.3,0.1-0.4,0.1
					c-0.1,0-0.2-0.1-0.3-0.2c-0.1,0-0.1-0.2-0.2-0.2c-0.1-0.1-0.2-0.1-0.4-0.2c-0.1,0-0.1-0.2-0.1-0.3c0-0.1,0-0.2,0.1-0.3
					c0-0.2,0.1-0.2,0.3-0.2c0.2,0,0.5,0,0.7,0c0.1-0.1,0.3-0.1,0.4-0.1c0.1,0,0.2,0.2,0.3,0.3C378.2,268.6,378.4,268.8,378.7,269
					L378.7,269z M379.8,268.4c0.2-0.1,0.3-0.2,0.5-0.2c0.2,0,0.4,0.1,0.5,0.1c0.2,0.1,0.4,0.1,0.6,0.2c0.2,0.1,0.4,0.2,0.6,0.3
					c0.2,0.1,0.3,0.2,0.5,0.3c0.2,0.1,0.3,0.2,0.5,0.3c0.2,0.1,0.3,0.3,0.4,0.4c0.1,0.1,0,0.4-0.2,0.2c-0.2-0.1-0.3-0.2-0.5-0.2
					c-0.2,0-0.3-0.1-0.5-0.1c-0.2,0-0.3-0.2-0.5-0.2c-0.2-0.1-0.5-0.2-0.7-0.3c-0.1-0.1-0.2-0.1-0.3-0.2c-0.2-0.1-0.4-0.2-0.7-0.3
					C379.9,268.6,379.7,268.6,379.8,268.4z"/>
			</g>
			<g>
				<path d="M382.4,272.2c-0.7-0.1-1.4,0.3-2.1,0c-0.5-0.1-1,0.3-1.4,0.5c-0.6-0.1-0.7,0.8-1.3,0.8c-0.5-0.1-1-0.4-1.4-0.2
					c0.9,0.4,1.9,0.8,2.7,1.4c0.4,0.4,1,0.8,1.5,1c0.4,0.2,0.9,0.6,0.7,1.1c-0.2,0.6-1,0.7-1.1,1.3c-0.1,0.6-0.7,0.8-0.9,1.3
					c-0.2,0.4-0.7,0.6-0.8,1.1c0.1,0.6,0.8,0.1,0.8-0.3c0.1-0.4,0.4-1,0.9-0.7c0.4,0.6,0.9-0.4,1.3-0.2c0.2,0.3,0.7,0.5,0.9,0.1
					c0.3-0.1,0.8-0.3,0.5-0.8c0-0.5,0.6-0.4,0.8-0.7c0.4-0.2,0.7-0.6,0.3-1c-0.4-0.5,0-1.2-0.4-1.7c-0.3-0.5,0-1.2-0.3-1.7
					C383.2,273,383,272.4,382.4,272.2L382.4,272.2z"/>
			</g>
			<g>
				<path fill="#69737C" d="M401.7,291.8c-0.8,0-1.5,0.6-2.3,0.7c-1,0.1,0.3,0.6,0.6,0.8c0.8,0.5,1.7,0.7,2.6,1
					c0.8,0.4,1.7,0.6,2.6,0.5c0.8-0.2,0.2-1,0-1.5c-0.5-0.7-1.3-1.1-2-1.7C402.8,291.2,402.1,291.3,401.7,291.8L401.7,291.8z"/>
			</g>
			<g>
				<path fill="#FFFFFF" d="M401.2,293.5c-0.3,0-0.6,0.1-0.9,0.1c-0.4,0-0.7,0.1-1.1-0.1c-0.4-0.1-0.7-0.2-1.1-0.4
					c-0.3-0.2-0.6-0.2-0.7-0.5c-0.2-0.3,0.2-0.3,0.4-0.4c0.4-0.1,0.8-0.1,1.1-0.1c0.4,0.2,0.8,0.3,1.2,0.5c0.3,0.1,0.7,0.3,0.9,0.6
					C401.1,293.3,401.2,293.5,401.2,293.5L401.2,293.5z"/>
			</g>
			<g>
				<path fill="#FFFFFF" d="M405.2,293.3c0.1,0.4-0.6,0-0.8,0.1c-0.4,0.1-0.8-0.1-1.2-0.2c-0.6-0.3-1.2-0.6-1.9-0.7
					c-0.3-0.1-0.9-0.4-0.5-0.7c0.4-0.3,0.8-0.5,1.2-0.5c0.5,0,0.9,0.3,1.3,0.4c0.4,0.2,0.9,0.4,1.3,0.7
					C404.9,292.5,405.2,292.9,405.2,293.3L405.2,293.3z"/>
			</g>
			<g>
				<path fill="#69737C" d="M394.1,289.3c-0.6,0.4-1.3,0.5-2,0.5c-0.6,0.2-1.7-0.3-1.9,0.5c-0.3,0.7,0.5,0.9,0.9,1.2
					c1.3,0.7,2.7,0.7,4.1,0.7c0.4,0,1.6-0.1,1-0.6c-0.7-0.5-1.2-1.3-1.8-1.9C394.3,289.6,394.1,289.5,394.1,289.3L394.1,289.3z
					 M401.1,289.8c-0.3,0-0.5-0.2-0.8-0.2c-0.4-0.1-0.7-0.4-1-0.5c-0.5-0.3-0.9-0.6-1.4-0.8c-0.2-0.1-0.2-0.3,0.1-0.3
					c0.3,0,0.4-0.4,0.6-0.1c0.3,0.2,0.6,0.4,0.9,0.7c0.3,0.2,0.6,0.6,1,0.6C400.6,289.2,401.1,289.4,401.1,289.8L401.1,289.8z
					 M400.2,291.1c0,0-1.3,0.3-1.9,0.1c-0.4-0.1-0.9-0.2-1.3-0.4c-0.5-0.2-1-0.5-1.4-0.9c-0.3-0.4,0.1-1,0.6-0.9
					c0.3-0.1,0.2-0.8,0.7-0.5c0.6,0.3,1.3,0.6,1.9,1.1c0.3,0.3,0.7,0.6,1,0.9C399.9,290.7,400.2,291.1,400.2,291.1L400.2,291.1z
					 M390.7,282.1c0.8,0.2,1.8,0.6,2.4,1.4c0.7,0.9-0.7,1.4-1.4,0.9c-1.1-0.5-2.2-1.1-3.3-1.4c-1.1,0.1,0.5,0.8,0.8,1.1
					c0.5,0.3,0.9,0.8,0.9,1.4c-0.7,0.6-1.7,0-2.5-0.1c-0.9-0.1-1.4-0.9-1.9-1.5c-0.4-0.4-0.9-0.7-1.4-0.4c0,0.7,0.5,0.9,0.9,1.5
					c0.3,0.4,1.5,1.3,0.3,1.3c-0.8-0.2-1.6-0.8-2-1.5c-0.5-0.5-0.9-1.6,0.1-1.7c0.9-0.5,1.9-0.8,3-0.8c1.1-0.1,2.3,0.1,3.4-0.2
					C390.1,282.1,390.8,281.7,390.7,282.1L390.7,282.1z"/>
			</g>
			<g>
				<path fill="#FFFFFF" d="M382.1,282.8c-0.1,0.2-0.2,0.5-0.2,0.7c0,0.3,0,0.6,0,0.9c0.1,0.2,0.1,0.5,0.2,0.7c0.1,0.3,0.4,0.4,0.6,0.6
					c0.2,0.2,0.3,0.3,0.6,0.4c0.2,0.1,0.3,0.2,0.5,0.2c0.2,0.1,0.4,0.1,0.7,0.2c0.3,0,0.4,0,0.5-0.2c0.3-0.2,0-0.3-0.1-0.3
					c-0.2,0-0.4-0.2-0.5-0.3c-0.2-0.2-0.3-0.4-0.4-0.6c-0.1-0.2-0.2-0.4-0.3-0.6c-0.1-0.2-0.2-0.3-0.4-0.5c-0.2-0.2-0.4-0.4-0.5-0.6
					c-0.1-0.2-0.3-0.4-0.5-0.5C382.1,282.9,382.1,282.8,382.1,282.8L382.1,282.8z M389.5,285.7c-0.5,0-1.2-0.2-1.8-0.4
					c-0.6-0.2-1.2-0.6-1.6-1.2c-0.5-0.4-0.9-0.9-1.5-1.2c-0.6-0.2-0.8,0.6-0.4,1c0.3,0.5,0.8,0.9,1.1,1.4c0.4,0.4,0.9,0.8,1.5,1
					c0.7,0.4,1.5,0.5,2.2,0.6c0.4-0.1,1-0.3,1.1-0.8C390.2,285.8,389.8,285.7,389.5,285.7L389.5,285.7z M387.9,289.5
					c-0.4,0.1-0.9,0.1-1.2-0.2c-0.4-0.2-0.6-0.5-0.8-0.8c-0.3-0.3-0.6-0.7-1.1-0.8c-0.4-0.1-0.8,0.2-0.7,0.6
					c0.1,0.4,0.3,0.7,0.6,0.9c0.4,0.4,1,0.6,1.5,0.8c0.3,0.1,0.6,0.2,0.9,0.2c0.3,0,0.8,0.1,0.9-0.3
					C387.9,289.7,387.9,289.6,387.9,289.5L387.9,289.5z M392,288.3c0.4,0.2,0.6,0.6,0.4,1c-0.3,0.4-0.7,0.6-1.2,0.5
					c-0.4,0-0.8,0-1.2-0.1c-0.4-0.1-0.8-0.3-1.2-0.5c-0.4-0.1-0.5-0.7-0.8-0.9c-0.2-0.3,0.4-0.5,0.7-0.4c0.4,0.1,0.7,0.5,1.1,0.7
					c0.3,0.2,0.6,0.3,1,0.4c0.3,0.1,0.7,0.1,0.9-0.2C391.8,288.6,391.9,288.4,392,288.3z"/>
			</g>
			<g>
				<path fill="#FFFFFF" d="M395.7,287.4c0.3,0.3,0.1,0.9-0.3,1c-0.4,0.1-0.7,0.2-1.1,0c-0.5-0.1-1-0.4-1.4-0.7
					c-0.3-0.2-0.7-0.3-0.9-0.6c-0.1-0.4,0.3-0.8,0.7-0.6c0.6,0.2,1.2,0.3,1.7,0.6C394.8,287.2,395.2,287.4,395.7,287.4L395.7,287.4z
					"/>
			</g>
			<g>
				<path d="M394.8,300.4l-0.3-0.4l0.1-0.1l0.1-0.3l0.1,0c0.5-0.2,1.1-0.1,1.7,0.1c0.7,0.2,1.5,0.3,2.1,0c2.5-1.4,5.4-1.5,7.9-1.4
					l0.1,0c0.4,0.2,0.8,0.4,1.2,0.6c1.3,0.7,2.6,1.3,4.1,0.9l0.1,0l0.1,0c0.9,0.2,1.6-0.3,2.4-0.9c0.6-0.4,1.2-0.9,2-1
					c-0.7-0.3-1.8-0.8-2.8-1.2c-3.1-1.2-7-2.8-8.4-4.3c-1.1-0.6-1.8-1.6-2.5-2.6c-0.3-0.5-0.6-0.9-1-1.3c-1.5-1.9-3.3-3.5-5-4.9
					l0.2-0.2l-0.2,0.2c-1.1-1-2.3-1.6-3.6-2.2l-0.6-0.3c-0.4-0.2-0.9-0.4-1.4-0.5c-1.6-0.6-3.2-1.2-3.9-2.7l0-0.1
					c-0.4-2.3-1.2-4.5-2.4-6.4l-0.2-0.2c-1-1.4-2-2.8-3.7-3c-1.6-0.6-3.2-0.7-4.7-0.3c-1.3,0.5-2.2,1.4-3.2,2.4
					c-0.4,0.4-0.8,0.8-1.2,1.2c-0.7,0.8-0.3,1.5,0.5,2.7c0.4,0.6,0.9,1.3,1.1,2.2c0.4,0.7,0.8,1.2,1.2,1.7c0.5,0.5,1,1.1,1.4,2
					l0.1,0.1l-0.1,0.1c-0.8,1.6-0.6,3.9-0.4,5.9c0,0.4,0.1,0.8,0.1,1.2c-0.1,1.7,1,3.1,2,4.5c0.2,0.2,0.3,0.4,0.5,0.7
					c0.7,0.4,1.3,0.9,1.8,1.4c0.7,0.6,1.5,1.3,2.3,1.7l-0.2,0.5c-0.9-0.4-1.7-1.1-2.4-1.7c-0.6-0.5-1.2-1-1.8-1.4l-0.1-0.1
					c-0.2-0.2-0.3-0.5-0.5-0.7c-1-1.4-2.1-2.9-2.1-4.8c0-0.3-0.1-0.7-0.1-1.1c-0.2-1.9-0.5-4.3,0.4-6.1c-0.4-0.7-0.8-1.2-1.2-1.7
					c-0.4-0.5-0.9-1-1.3-1.8c-0.2-0.8-0.6-1.5-1.1-2.1c-0.7-1.1-1.4-2.1-0.4-3.3c0.4-0.4,0.8-0.8,1.2-1.2c1-1,1.9-2,3.4-2.5
					c1.6-0.4,3.3-0.3,4.9,0.3c1.9,0.2,3.1,1.8,4.1,3.2l0.2,0.3c1.3,2,2.1,4.2,2.5,6.6c0.7,1.3,2.1,1.9,3.6,2.4
					c0.5,0.2,1,0.4,1.4,0.6l0.6,0.3c1.3,0.6,2.6,1.2,3.8,2.3l0,0c1.8,1.5,3.7,3.1,5.1,5c0.4,0.4,0.7,0.9,1,1.4c0.7,1,1.3,2,2.3,2.5
					l0.1,0.1c1.3,1.4,5.3,3,8.3,4.2c3.2,1.3,4,1.6,4,2.1l0,0.4l-0.4-0.2c-1.1-0.4-1.8,0.1-2.6,0.7c-0.8,0.6-1.6,1.2-2.7,1
					c-1.6,0.5-3-0.3-4.4-0.9c-0.4-0.2-0.8-0.4-1.2-0.6c-2.4-0.1-5.3,0-7.6,1.4c-0.8,0.4-1.7,0.3-2.5,0.1c-0.5-0.1-1-0.2-1.3-0.1
					l-0.1,0.2L394.8,300.4z"/>
			</g>
		</g>
	</g>
</g>
</svg>
