<?xml version="1.0" encoding="utf-8"?>
<!-- Generator: Adobe Illustrator 28.1.0, SVG Export Plug-In . SVG Version: 6.00 Build 0)  -->
<svg version="1.1" id="Layer_1" xmlns="http://www.w3.org/2000/svg" xmlns:xlink="http://www.w3.org/1999/xlink" x="0px" y="0px"
	 viewBox="0 0 512 512" style="enable-background:new 0 0 512 512;" xml:space="preserve">
<g>
	<defs>
		<path id="SVGID_1_" d="M512,400V112C512,50.1,461.9,0,400,0H112C50.2,0,0,50.1,0,112v288c0,61.8,50.2,112,112,112h288
			C461.9,512,512,461.9,512,400z"/>
	</defs>
	<clipPath id="SVGID_00000017490799681073874040000008829878482903447997_">
		<use xlink:href="#SVGID_1_"  style="overflow:visible;"/>
	</clipPath>
	<g style="clip-path:url(#SVGID_00000017490799681073874040000008829878482903447997_);">
		<path fill="#003787" d="M-147.6-13.1h807.3v538.2h-807.3V-13.1z"/>
		<path fill="#FFFFFF" d="M-147.6-13.1h807.3L300.8,345.7v179.4h-89.7V345.7L-147.6-13.1z"/>
		<circle fill="#F9D90F" cx="256" cy="196.2" r="59.8"/>
		<path fill="#FFFFFF" d="M181.3,188.7h149.5L256,323.3L181.3,188.7z"/>
		<path fill="#CF142B" d="M256,312.1L136.4,199.9h239.2L256,312.1z"/>
	</g>
</g>
</svg>
