<svg width="24" height="24" viewBox="0 0 24 24" fill="none" xmlns="http://www.w3.org/2000/svg">
<g clip-path="url(#clip0_8615_27519)">
<path d="M23.9998 0.0111084H0V23.9888H23.9998V0.0111084Z" fill="#FF4B55"/>
<path d="M11.9886 0.0111084H0V11.9997H11.9886V0.0111084Z" fill="#41479B"/>
<path d="M6.02902 7.9753L5.73938 8.84383L4.82383 8.85096C4.70528 8.8519 4.65611 9.00316 4.7515 9.07357L5.488 9.61745L5.21181 10.4904C5.17609 10.6034 5.30472 10.6969 5.40114 10.628L6.14597 10.0956L6.89081 10.628C6.98723 10.6969 7.11595 10.6034 7.08014 10.4904L6.80395 9.61745L7.54044 9.07357C7.63579 9.00311 7.58666 8.85185 7.46812 8.85096L6.55256 8.84383L6.26292 7.9753C6.22557 7.86289 6.06647 7.86289 6.02902 7.9753Z" fill="#F5F5F5"/>
<path d="M6.05162 1.20325L5.81729 1.90585L5.07672 1.91162C4.98086 1.91237 4.94111 2.03475 5.01822 2.09166L5.614 2.53163L5.39059 3.23774C5.36167 3.32915 5.46578 3.4048 5.54378 3.34902L6.1463 2.91839L6.74883 3.34902C6.82683 3.4048 6.93089 3.32915 6.90202 3.23774L6.67861 2.53163L7.27439 2.09166C7.3515 2.03471 7.31175 1.91237 7.21589 1.91162L6.47532 1.90585L6.24099 1.20325C6.21062 1.11226 6.08199 1.11226 6.05162 1.20325Z" fill="#F5F5F5"/>
<path d="M9.79869 3.29342L9.56436 3.99602L8.82379 4.00179C8.72793 4.00254 8.68818 4.12493 8.76529 4.18184L9.36107 4.6218L9.13766 5.32792C9.10874 5.41932 9.21285 5.49498 9.29085 5.4392L9.89338 5.00856L10.4959 5.4392C10.5739 5.49498 10.678 5.41932 10.6491 5.32792L10.4257 4.6218L11.0215 4.18184C11.0986 4.12488 11.0588 4.00254 10.963 4.00179L10.2224 3.99602L9.98806 3.29342C9.95769 3.20249 9.82906 3.20249 9.79869 3.29342Z" fill="#F5F5F5"/>
<path d="M2.38463 4.12158L2.1503 4.82418L1.40973 4.82995C1.31387 4.8307 1.27412 4.95309 1.35123 5.01L1.94701 5.44996L1.7236 6.15608C1.69468 6.24748 1.79879 6.32314 1.87679 6.26736L2.47931 5.83667L3.08184 6.26736C3.15984 6.32314 3.2639 6.24748 3.23502 6.15608L3.01162 5.44996L3.60739 5.01C3.6845 4.95304 3.64475 4.8307 3.5489 4.82995L2.80832 4.82418L2.574 4.12158C2.54367 4.0306 2.41495 4.0306 2.38463 4.12158Z" fill="#F5F5F5"/>
<path d="M8.18306 6.41512L8.05153 6.80952L7.63575 6.81275C7.58194 6.81317 7.55962 6.88189 7.60294 6.91386L7.93739 7.16084L7.81195 7.55721C7.79568 7.60854 7.85414 7.65096 7.89792 7.6197L8.23616 7.37797L8.57441 7.6197C8.61819 7.65096 8.67664 7.60854 8.66038 7.55721L8.53494 7.16084L8.86939 6.91386C8.9127 6.88189 8.89039 6.81317 8.83658 6.81275L8.4208 6.80952L8.28927 6.41512C8.27235 6.36407 8.20012 6.36407 8.18306 6.41512Z" fill="#F5F5F5"/>
</g>
<defs>
<clipPath id="clip0_8615_27519">
<path d="M0 2C0 0.895432 0.895431 0 2 0H21.9998C23.1043 0 23.9998 0.895431 23.9998 2V21.9998C23.9998 23.1043 23.1043 23.9998 21.9998 23.9998H2C0.895432 23.9998 0 23.1043 0 21.9998V2Z" fill="white"/>
</clipPath>
</defs>
</svg>
