<svg width="24" height="24" viewBox="0 0 24 24" fill="none" xmlns="http://www.w3.org/2000/svg">
<g clip-path="url(#clip0_8615_27552)">
<path d="M24.0017 0H0.00195312V11.9999H24.0017V0Z" fill="#F5F5F5"/>
<path d="M24.0017 12H0.00195312V23.9999H24.0017V12Z" fill="#82AFFF"/>
<path d="M12.0613 17.1498C11.9543 17.1452 9.4291 17.016 8.16176 15.2797C7.42315 14.2679 7.27578 12.9221 7.72367 11.2798L7.90465 11.3291C7.47265 12.9133 7.6099 14.2049 8.31274 15.1683C9.52599 16.8316 12.0441 16.9613 12.0695 16.9623L12.0613 17.1498Z" fill="#B46446"/>
<path d="M7.71939 10.5514C7.59484 10.8757 7.62329 11.2153 7.76743 11.4728C8.04685 11.378 8.29524 11.1447 8.41974 10.8203C8.54429 10.496 8.51583 10.1565 8.37169 9.89893C8.09227 9.99375 7.84393 10.227 7.71939 10.5514Z" fill="#41AA5A"/>
<path d="M9.30132 15.035C9.16313 15.263 9.12685 15.5687 9.22923 15.8655C9.32485 16.1428 9.52214 16.3474 9.75085 16.4506C9.52866 16.3342 9.2461 16.305 8.96888 16.4006C8.67212 16.5029 8.45373 16.7199 8.35938 16.9693C8.58737 17.1075 8.89309 17.1437 9.18985 17.0414C9.48661 16.939 9.705 16.722 9.79936 16.4727L9.79903 16.4725C9.93609 16.2448 9.972 15.9403 9.87 15.6445C9.76767 15.3478 9.55069 15.1294 9.30132 15.035Z" fill="#41AA5A"/>
<path d="M8.76032 14.2074C8.54709 14.3674 8.39943 14.6376 8.38373 14.9511C8.36906 15.2441 8.47584 15.5075 8.64956 15.6885C8.48681 15.4976 8.23551 15.3652 7.94264 15.3505C7.6291 15.3348 7.3456 15.4547 7.16504 15.6509C7.32507 15.8641 7.59521 16.0118 7.90875 16.0275C8.22229 16.0432 8.50579 15.9233 8.68635 15.7271C8.68626 15.727 8.68621 15.727 8.68621 15.727C8.89823 15.5666 9.04508 15.2975 9.06069 14.985C9.07644 14.6715 8.95654 14.3879 8.76032 14.2074Z" fill="#41AA5A"/>
<path d="M8.52696 13.2743C8.2691 13.342 8.03041 13.5365 7.89757 13.8209C7.7734 14.0867 7.77289 14.3709 7.86546 14.6041C7.78676 14.3659 7.60404 14.1484 7.33836 14.0243C7.05392 13.8915 6.74615 13.8955 6.50488 14.0091C6.57262 14.2669 6.76705 14.5056 7.05149 14.6384C7.33592 14.7713 7.6437 14.7673 7.88496 14.6537C7.88496 14.6537 7.88487 14.6535 7.88482 14.6534C8.14169 14.585 8.3793 14.3912 8.51168 14.1078C8.64452 13.8234 8.64053 13.5156 8.52696 13.2743Z" fill="#41AA5A"/>
<path d="M8.65943 12.3484C8.39412 12.322 8.10265 12.4212 7.87901 12.6415C7.67005 12.8474 7.57053 13.1136 7.57606 13.3644C7.5853 13.1137 7.48977 12.8462 7.28399 12.6373C7.06368 12.4137 6.77376 12.3102 6.50807 12.3326C6.48168 12.5979 6.58082 12.8894 6.80113 13.113C7.02144 13.3366 7.31136 13.4401 7.57705 13.4177C7.57705 13.4177 7.57705 13.4175 7.57705 13.4173C7.84165 13.4428 8.13185 13.3439 8.35474 13.1243C8.57833 12.904 8.68183 12.6141 8.65943 12.3484Z" fill="#41AA5A"/>
<path d="M8.84673 11.4671C8.58943 11.3971 8.28559 11.4467 8.02858 11.6269C7.7884 11.7953 7.64623 12.0414 7.61018 12.2897C7.66076 12.044 7.61084 11.7644 7.44246 11.5243C7.26223 11.2673 6.9934 11.1172 6.72767 11.0953C6.65778 11.3526 6.70728 11.6565 6.88751 11.9135C7.06775 12.1705 7.33657 12.3205 7.6023 12.3424C7.60235 12.3423 7.60235 12.3422 7.60235 12.3422C7.85908 12.4109 8.16171 12.3614 8.41783 12.1818C8.67479 12.0016 8.82489 11.7327 8.84673 11.4671Z" fill="#41AA5A"/>
<path d="M9.08055 16.2055C9.20758 16.403 8.99753 16.613 8.8001 16.486C8.78702 16.4775 8.77563 16.4661 8.76719 16.4531C8.64016 16.2556 8.8502 16.0455 9.04764 16.1726C9.06072 16.181 9.07216 16.1924 9.08055 16.2055Z" fill="#FFE15A"/>
<path d="M9.97996 16.3149C10.107 16.5124 9.89695 16.7224 9.69951 16.5953C9.68643 16.5869 9.67504 16.5755 9.6666 16.5624C9.53957 16.365 9.74962 16.1549 9.94705 16.282C9.96018 16.2904 9.97157 16.3018 9.97996 16.3149Z" fill="#FFE15A"/>
<path d="M8.56492 14.7285C8.69195 14.9259 8.48191 15.136 8.28447 15.0089C8.27139 15.0005 8.26 14.9891 8.25157 14.976C8.12454 14.7785 8.33458 14.5685 8.53202 14.6956C8.54509 14.704 8.55648 14.7154 8.56492 14.7285Z" fill="#FFE15A"/>
<path d="M7.32273 13.2593C7.44976 13.4568 7.23972 13.6669 7.04228 13.5398C7.02921 13.5314 7.01782 13.52 7.00938 13.5069C6.88235 13.3094 7.09239 13.0994 7.28983 13.2264C7.30291 13.2349 7.31434 13.2463 7.32273 13.2593Z" fill="#FFE15A"/>
<path d="M8.18992 12.2642C8.31695 12.4617 8.10691 12.6718 7.90947 12.5447C7.89639 12.5362 7.885 12.5249 7.87657 12.5118C7.74954 12.3143 7.95958 12.1042 8.15702 12.2313C8.17009 12.2398 8.18148 12.2512 8.18992 12.2642Z" fill="#FFE15A"/>
<path d="M7.8618 11.2447C7.98883 11.4422 7.77878 11.6522 7.58135 11.5251C7.56827 11.5167 7.55688 11.5053 7.54844 11.4922C7.42141 11.2948 7.63146 11.0847 7.82889 11.2118C7.84202 11.2202 7.85341 11.2316 7.8618 11.2447Z" fill="#FFE15A"/>
<path d="M12.0688 17.1498L12.0605 16.9623C12.086 16.9613 14.6041 16.8317 15.8174 15.1683C16.5202 14.2049 16.6574 12.9133 16.2254 11.3291L16.4064 11.2798C16.8543 12.9221 16.7069 14.2679 15.9683 15.2797C14.7009 17.016 12.1757 17.1452 12.0688 17.1498Z" fill="#B46446"/>
<path d="M16.4119 10.5514C16.5365 10.8757 16.508 11.2153 16.3639 11.4728C16.0845 11.378 15.8361 11.1447 15.7116 10.8203C15.587 10.496 15.6155 10.1565 15.7596 9.89893C16.039 9.99375 16.2874 10.227 16.4119 10.5514Z" fill="#41AA5A"/>
<path d="M14.8304 15.035C14.9686 15.263 15.0049 15.5687 14.9025 15.8655C14.8069 16.1428 14.6096 16.3474 14.3809 16.4506C14.6031 16.3342 14.8856 16.305 15.1628 16.4006C15.4596 16.5029 15.678 16.7199 15.7724 16.9693C15.5444 17.1075 15.2386 17.1437 14.9419 17.0414C14.6451 16.939 14.4267 16.722 14.3324 16.4727C14.3325 16.4726 14.3326 16.4726 14.3326 16.4726C14.1956 16.2448 14.1597 15.9403 14.2617 15.6445C14.3641 15.3478 14.5811 15.1294 14.8304 15.035Z" fill="#41AA5A"/>
<path d="M15.3711 14.2074C15.5843 14.3674 15.732 14.6376 15.7477 14.9511C15.7623 15.2441 15.6556 15.5075 15.4818 15.6885C15.6446 15.4976 15.8959 15.3652 16.1888 15.3505C16.5023 15.3348 16.7858 15.4547 16.9664 15.6509C16.8063 15.8641 16.5362 16.0118 16.2227 16.0275C15.9091 16.0432 15.6256 15.9233 15.4451 15.7271C15.4451 15.727 15.4452 15.727 15.4452 15.727C15.2332 15.5666 15.0863 15.2975 15.0707 14.985C15.055 14.6715 15.1749 14.3879 15.3711 14.2074Z" fill="#41AA5A"/>
<path d="M15.6053 13.2743C15.8632 13.342 16.1018 13.5365 16.2347 13.8209C16.3589 14.0867 16.3594 14.3709 16.2668 14.6041C16.3455 14.3659 16.5282 14.1484 16.7939 14.0243C17.0783 13.8915 17.3861 13.8955 17.6274 14.0091C17.5596 14.2669 17.3652 14.5056 17.0808 14.6384C16.7963 14.7713 16.4886 14.7673 16.2473 14.6537C16.2473 14.6537 16.2474 14.6535 16.2474 14.6534C15.9906 14.585 15.753 14.3912 15.6206 14.1078C15.4877 13.8234 15.4918 13.5156 15.6053 13.2743Z" fill="#41AA5A"/>
<path d="M15.4727 12.3484C15.738 12.322 16.0295 12.4212 16.2531 12.6415C16.4621 12.8474 16.5616 13.1136 16.5561 13.3644C16.5469 13.1137 16.6424 12.8462 16.8482 12.6373C17.0685 12.4137 17.3584 12.3102 17.6241 12.3326C17.6505 12.5979 17.5513 12.8894 17.331 13.113C17.1107 13.3366 16.8208 13.4401 16.5551 13.4177C16.5551 13.4177 16.5551 13.4175 16.5551 13.4173C16.2905 13.4428 16.0003 13.3439 15.7774 13.1243C15.5538 12.904 15.4503 12.6141 15.4727 12.3484Z" fill="#41AA5A"/>
<path d="M15.2852 11.4671C15.5425 11.3971 15.8463 11.4467 16.1033 11.6269C16.3435 11.7953 16.4857 12.0414 16.5217 12.2897C16.4711 12.044 16.5211 11.7644 16.6894 11.5243C16.8697 11.2673 17.1385 11.1172 17.4042 11.0953C17.4741 11.3526 17.4246 11.6565 17.2444 11.9135C17.0641 12.1705 16.7953 12.3205 16.5296 12.3424C16.5295 12.3423 16.5295 12.3422 16.5295 12.3422C16.2728 12.4109 15.9702 12.3614 15.7141 12.1818C15.4571 12.0016 15.307 11.7327 15.2852 11.4671Z" fill="#41AA5A"/>
<path d="M15.0523 16.2055C14.9253 16.403 15.1354 16.613 15.3328 16.486C15.3459 16.4775 15.3573 16.4661 15.3657 16.4531C15.4927 16.2556 15.2827 16.0455 15.0853 16.1726C15.0722 16.181 15.0608 16.1924 15.0523 16.2055Z" fill="#FFE15A"/>
<path d="M14.1539 16.3149C14.0269 16.5124 14.2369 16.7224 14.4344 16.5953C14.4474 16.5869 14.4588 16.5755 14.4673 16.5624C14.5943 16.365 14.3843 16.1549 14.1868 16.282C14.1737 16.2904 14.1623 16.3018 14.1539 16.3149Z" fill="#FFE15A"/>
<path d="M15.568 14.7285C15.4409 14.9259 15.651 15.136 15.8484 15.0089C15.8615 15.0005 15.8729 14.9891 15.8813 14.976C16.0084 14.7785 15.7983 14.5685 15.6009 14.6956C15.5878 14.704 15.5764 14.7154 15.568 14.7285Z" fill="#FFE15A"/>
<path d="M16.8111 13.2593C16.6841 13.4568 16.8942 13.6669 17.0916 13.5398C17.1047 13.5314 17.1161 13.52 17.1245 13.5069C17.2515 13.3094 17.0415 13.0994 16.844 13.2264C16.831 13.2349 16.8196 13.2463 16.8111 13.2593Z" fill="#FFE15A"/>
<path d="M15.9439 12.2642C15.8169 12.4617 16.027 12.6718 16.2244 12.5447C16.2375 12.5362 16.2489 12.5249 16.2573 12.5118C16.3843 12.3143 16.1743 12.1042 15.9769 12.2313C15.9638 12.2398 15.9523 12.2512 15.9439 12.2642Z" fill="#FFE15A"/>
<path d="M16.2721 11.2447C16.145 11.4422 16.3551 11.6522 16.5525 11.5251C16.5656 11.5167 16.577 11.5053 16.5854 11.4922C16.7125 11.2948 16.5024 11.0847 16.305 11.2118C16.2919 11.2202 16.2805 11.2316 16.2721 11.2447Z" fill="#FFE15A"/>
<path d="M13.1645 10.5864H10.9233C10.2257 10.5864 9.66016 11.1519 9.66016 11.8496V13.8238C9.66016 14.5215 10.2257 15.0869 10.9233 15.0869H13.1645C13.862 15.0869 14.4276 14.5215 14.4276 13.8238V11.8496C14.4276 11.152 13.862 10.5864 13.1645 10.5864Z" fill="#8CD7FF"/>
<path d="M12.4116 12.3048V12.5549H12.1616V12.3048H11.969V12.5549H11.7189V12.3048H11.5625V12.805L11.6876 12.9633V14.8055H12.4377V12.9633L12.5628 12.805V12.3048H12.4116Z" fill="#F5F5F5"/>
<path d="M12.1 11.5129C12.2237 11.453 12.2562 11.7057 12.2562 11.7057C12.5167 11.5754 12.4488 11.364 12.3865 11.2629C12.3031 11.1274 11.9697 11.0753 11.8291 11.3567C11.6884 11.638 12.0687 12.1955 12.0687 12.1955C12.0896 12.0235 11.9385 11.5911 12.1 11.5129Z" fill="#F5F5F5"/>
<path d="M13.6977 12.7711V13.0212H13.4476V12.7711H13.2551V13.0212H13.0051V12.7711H12.8486V13.2713L12.9736 13.4296V15.2718H13.7239V13.4296L13.8489 13.2713V12.7711H13.6977Z" fill="#F5F5F5"/>
<path d="M13.3851 11.9792C13.5089 11.9193 13.5414 12.172 13.5414 12.172C13.8019 12.0417 13.7339 11.8303 13.6716 11.7292C13.5883 11.5937 13.2548 11.5416 13.1142 11.823C12.9736 12.1043 13.3538 12.6618 13.3538 12.6618C13.3747 12.4898 13.2236 12.0574 13.3851 11.9792Z" fill="#F5F5F5"/>
<path d="M11.1264 12.7711V13.0212H10.8764V12.7711H10.6838V13.0212H10.4338V12.7711H10.2773V13.2713L10.4024 13.4296V15.2718H11.1526V13.4296L11.2776 13.2713V12.7711H11.1264Z" fill="#F5F5F5"/>
<path d="M10.8138 11.9792C10.9376 11.9193 10.9701 12.172 10.9701 12.172C11.2306 12.0417 11.1626 11.8303 11.1004 11.7292C11.017 11.5937 10.6836 11.5416 10.5429 11.823C10.4023 12.1043 10.7826 12.6618 10.7826 12.6618C10.8034 12.4898 10.6523 12.0574 10.8138 11.9792Z" fill="#F5F5F5"/>
<path d="M14.1163 14.9387C13.9493 14.8561 13.7638 14.8054 13.5649 14.8054C13.3518 14.8054 13.1542 14.8637 12.9785 14.9578C12.7502 14.7117 12.4267 14.5553 12.0645 14.5553C11.7023 14.5553 11.3788 14.7117 11.1504 14.9578C10.9748 14.8637 10.7772 14.8054 10.564 14.8054C10.3651 14.8054 10.1797 14.8561 10.0127 14.9387C10.3697 15.5935 11.0534 16.6516 12.0645 17.056C13.0756 16.6516 13.7593 15.5935 14.1163 14.9387Z" fill="#6EC86E"/>
<path d="M12.0566 6.5586L12.0679 6.55298C12.0679 6.55298 12.0641 6.55396 12.0566 6.5586Z" fill="#FFE15A"/>
<path d="M12.0674 6.55298L12.0786 6.5586C12.0711 6.55396 12.0674 6.55298 12.0674 6.55298Z" fill="#FFE15A"/>
<path d="M14.4669 7.62353C14.3966 7.21718 13.873 7.14682 13.2713 7.10777C12.6696 7.06868 12.4117 6.72485 12.4117 6.72485H11.724C11.724 6.72485 11.4661 7.06868 10.8643 7.10777C10.2626 7.14687 9.73901 7.21718 9.6687 7.62353C9.59838 8.02989 10.1141 8.67071 10.1141 8.67071L10.5674 8.3034C10.5674 8.3034 10.0125 7.77198 10.286 7.57661C10.5561 7.38368 11.3436 7.51731 11.6944 7.05415C11.6795 7.1509 11.6848 7.27047 11.7448 7.41771C11.8594 7.69905 11.8177 8.05333 11.8177 8.05333H12.0678H12.3179C12.3179 8.05333 12.2762 7.69905 12.3908 7.41771C12.4508 7.27043 12.456 7.1509 12.4412 7.05415C12.7919 7.51736 13.5794 7.38372 13.8495 7.57661C14.123 7.77198 13.5682 8.3034 13.5682 8.3034L14.0214 8.67071C14.0214 8.67071 14.5372 8.02989 14.4669 7.62353Z" fill="#FFE15A"/>
<path d="M12.3233 5.31818H12.1931V5.1775C12.1931 5.10846 12.1372 5.05249 12.0681 5.05249C11.9991 5.05249 11.9431 5.10846 11.9431 5.1775V5.31818H11.8076C11.7386 5.31818 11.6826 5.37414 11.6826 5.44319C11.6826 5.51224 11.7386 5.5682 11.8076 5.5682H11.9431V5.92768C11.9431 5.99673 11.9991 6.0527 12.0681 6.0527C12.1372 6.0527 12.1931 5.99673 12.1931 5.92768V5.5682H12.3233C12.3924 5.5682 12.4484 5.51224 12.4484 5.44319C12.4484 5.37414 12.3924 5.31818 12.3233 5.31818Z" fill="#FFE15A"/>
<path d="M12.2641 5.89301C12.429 6.1467 12.1583 6.41745 11.9046 6.25254C11.8888 6.24227 11.8752 6.22859 11.8649 6.21284C11.7 5.95915 11.9707 5.68841 12.2244 5.85331C12.2402 5.86353 12.2539 5.87722 12.2641 5.89301Z" fill="#FFF0E1"/>
<path d="M10.2716 11.0856C10.3723 11.1358 10.49 11.1793 10.6102 11.1793C11.0246 11.1793 11.2276 10.9451 11.2276 10.5307C11.2276 10.1164 10.9777 9.80396 10.5634 9.80396C10.5634 9.80396 10.5166 9.80475 10.4418 9.81624C10.4257 9.81886 10.4097 9.82125 10.3939 9.82486C9.9957 9.9008 9.01134 10.2679 8.81282 12.0546C8.53528 14.5524 10.5633 16.806 12.0638 17.3061V17.0561C12.0638 17.056 8.52108 14.3469 10.2716 11.0856Z" fill="#FFC75A"/>
<path d="M10.5635 10.0541L12.0639 10.5542L10.5635 11.0544V10.0541Z" fill="#FFC75A"/>
<path d="M13.5639 11.0544L12.0635 10.5542L13.5639 10.0541V11.0544Z" fill="#FFE15A"/>
<path d="M9.06144 12.0822C9.2406 10.4698 10.0858 10.1382 10.4499 10.0686C10.4579 10.0667 10.466 10.0656 10.4797 10.0634C10.5255 10.0563 10.5571 10.0544 10.5669 10.054C10.8411 10.0559 11.0218 10.2624 11.0218 10.5125C11.0218 10.7882 10.8603 10.8928 10.6988 10.898C10.6988 10.898 10.8291 10.6271 10.5634 10.5542C10.384 10.505 10.157 10.648 10.1778 10.9085C10.1924 11.0915 10.3662 11.2679 10.5634 11.2679C10.9777 11.2679 11.3136 10.9686 11.3136 10.5542C11.3136 10.1398 10.9777 9.80396 10.5634 9.80396C10.5634 9.80396 10.5166 9.80475 10.4418 9.81624C10.4257 9.81886 10.4097 9.82125 10.3939 9.82486C9.9957 9.9008 9.01134 10.2679 8.81282 12.0546C8.53528 14.5524 10.5633 16.806 12.0638 17.3061V17.0561C12.0638 17.0561 11.5323 16.7904 11.1691 16.5323C10.0467 15.7347 8.85881 13.9059 9.06144 12.0822Z" fill="#FFE15A"/>
<path d="M13.8586 11.0856C13.7578 11.1358 13.6402 11.1793 13.5199 11.1793C13.1056 11.1793 12.9026 10.9451 12.9026 10.5307C12.9026 10.1164 13.1525 9.80396 13.5668 9.80396C13.5668 9.80396 13.6135 9.80475 13.6884 9.81624C13.7045 9.81886 13.7205 9.82125 13.7362 9.82486C14.1345 9.9008 15.1188 10.2679 15.3173 12.0546C15.5949 14.5524 13.5669 16.806 12.0664 17.3061V17.0561C12.0664 17.056 15.6091 14.3469 13.8586 11.0856Z" fill="#FFC75A"/>
<path d="M13.5668 10.0541L12.0664 10.5542L13.5668 11.0544V10.0541Z" fill="#FFC75A"/>
<path d="M15.0687 12.0822C14.8896 10.4698 14.0444 10.1382 13.6802 10.0686C13.6723 10.0667 13.6642 10.0656 13.6504 10.0634C13.6047 10.0563 13.573 10.0544 13.5633 10.054C13.2891 10.0559 13.1083 10.2624 13.1083 10.5125C13.1083 10.7882 13.2698 10.8928 13.4313 10.898C13.4313 10.898 13.3011 10.6271 13.5668 10.5542C13.7462 10.505 13.9732 10.648 13.9524 10.9085C13.9377 11.0915 13.764 11.2679 13.5668 11.2679C13.1525 11.2679 12.8166 10.9686 12.8166 10.5542C12.8166 10.1398 13.1524 9.80396 13.5668 9.80396C13.5668 9.80396 13.6135 9.80475 13.6884 9.81624C13.7045 9.81886 13.7205 9.82125 13.7362 9.82486C14.1345 9.9008 15.1188 10.2679 15.3173 12.0546C15.5949 14.5524 13.5669 16.806 12.0664 17.3061V17.0561C12.0664 17.0561 12.5978 16.7904 12.9611 16.5323C14.0835 15.7347 15.2714 13.9059 15.0687 12.0822Z" fill="#FFE15A"/>
<path d="M12.2661 10.3944C12.431 10.648 12.1602 10.9188 11.9066 10.7539C11.8908 10.7436 11.8771 10.7299 11.8669 10.7142C11.702 10.4605 11.9727 10.1897 12.2264 10.3547C12.2421 10.3649 12.2558 10.3786 12.2661 10.3944Z" fill="#FFE15A"/>
<path d="M13.8507 8.54582C13.9171 8.37388 13.8273 8.14335 13.8273 8.14335C13.5968 8.13553 13.4365 8.30357 13.4365 8.30357C13.4561 8.09648 13.3662 7.90893 13.3662 7.90893C13.0693 7.94409 12.9716 8.11992 12.9716 8.11992C12.956 7.79559 12.7606 7.66275 12.7606 7.66275C12.5027 7.74089 12.4246 8.02223 12.4246 8.02223C12.3855 7.70184 12.0651 7.55334 12.0651 7.55334C12.0651 7.55334 11.7447 7.70184 11.7056 8.02223C11.7056 8.02223 11.6275 7.74089 11.3696 7.66275C11.3696 7.66275 11.1742 7.79559 11.1586 8.11992C11.1586 8.11992 11.0609 7.94409 10.7639 7.90893C10.7639 7.90893 10.6741 8.09648 10.6936 8.30357C10.6936 8.30357 10.5334 8.13557 10.3029 8.14335C10.3029 8.14335 10.213 8.37388 10.2794 8.54582C10.2794 8.54582 10.0177 8.46374 9.80273 8.5888C9.80273 8.5888 10.1967 8.74119 10.3279 8.92874H13.8022C13.9335 8.74119 14.3274 8.5888 14.3274 8.5888C14.1125 8.46379 13.8507 8.54582 13.8507 8.54582Z" fill="#FFC75A"/>
<path d="M13.8015 8.92877C13.8015 9.04132 13.5386 9.38913 13.5386 9.38913C13.5386 9.38913 12.6862 9.50781 12.0643 9.50781C11.4385 9.50781 10.5841 9.38594 10.5841 9.38594C10.5841 9.38594 10.3271 9.03996 10.3271 8.92877C10.3271 8.60899 11.1049 8.34973 12.0643 8.34973C13.0237 8.34973 13.8015 8.60899 13.8015 8.92877Z" fill="#FFE15A"/>
<path d="M12.0669 9.80389C12.8955 9.80389 13.5673 9.57997 13.5673 9.30374C13.5673 9.02751 12.8955 8.80359 12.0669 8.80359C11.2382 8.80359 10.5664 9.02751 10.5664 9.30374C10.5664 9.57997 11.2382 9.80389 12.0669 9.80389Z" fill="#FFC75A"/>
<path d="M12.4339 6.52962C12.4339 6.36552 12.3114 6.15711 12.0666 6.30299C11.8217 6.15711 11.6993 6.36552 11.6993 6.52962C11.6993 6.69373 11.5117 6.71717 11.4883 6.70151C11.4883 6.70151 11.6446 6.90471 11.8243 6.77183C11.8243 6.77183 11.9207 6.9125 12.0666 6.9125C12.2124 6.9125 12.3088 6.77183 12.3088 6.77183C12.4885 6.90467 12.6449 6.70151 12.6449 6.70151C12.6214 6.71717 12.4339 6.69373 12.4339 6.52962Z" fill="#FFC75A"/>
<path d="M11.5664 18.6504C11.5523 18.6504 11.538 18.6472 11.5246 18.6404C11.4782 18.6174 11.4594 18.561 11.4826 18.5146L11.9827 17.5143C12.006 17.4684 12.0622 17.4491 12.1085 17.4725C12.1549 17.4955 12.1737 17.5519 12.1505 17.5983L11.6504 18.5986C11.6339 18.6314 11.6008 18.6504 11.5664 18.6504Z" fill="#B46446"/>
<path d="M12.5667 18.6504C12.5323 18.6504 12.4992 18.6313 12.4827 18.5986L11.9826 17.5983C11.9594 17.5519 11.9782 17.4955 12.0246 17.4726C12.0708 17.4489 12.1272 17.4681 12.1504 17.5143L12.6505 18.5146C12.6737 18.561 12.6549 18.6174 12.6085 18.6404C12.5951 18.6472 12.5808 18.6504 12.5667 18.6504Z" fill="#B46446"/>
<path d="M14.3157 17.7751C12.8336 18.1064 11.2966 18.1064 9.81445 17.7751C9.81445 17.525 9.81445 17.057 9.81445 16.8069C11.2966 17.1382 12.8336 17.1382 14.3157 16.8069C14.3157 17.057 14.3157 17.525 14.3157 17.7751Z" fill="#F5F5F5"/>
<path d="M11.0544 17.4105C10.0974 17.5952 9.11655 17.6459 8.14062 17.5547C8.15703 17.6836 8.92887 18.0668 8.92887 18.0668C8.92887 18.0668 8.24787 18.396 8.26306 18.5151C9.19736 18.6024 10.1363 18.5608 11.0545 18.3951L11.0544 17.4105Z" fill="#F5F5F5"/>
<path d="M13.0791 17.4105C14.0362 17.5952 15.017 17.6459 15.993 17.5547C15.9766 17.6836 15.2047 18.0668 15.2047 18.0668C15.2047 18.0668 15.8857 18.396 15.8705 18.5151C14.9362 18.6024 13.9973 18.5608 13.0791 18.3951L13.0791 17.4105Z" fill="#F5F5F5"/>
</g>
<defs>
<clipPath id="clip0_8615_27552">
<path d="M0 2C0 0.895432 0.895431 0 2 0H21.9998C23.1043 0 23.9998 0.895431 23.9998 2V21.9998C23.9998 23.1043 23.1043 23.9998 21.9998 23.9998H2C0.895432 23.9998 0 23.1043 0 21.9998V2Z" fill="white"/>
</clipPath>
</defs>
</svg>
