<svg width="24" height="24" viewBox="0 0 24 24" fill="none" xmlns="http://www.w3.org/2000/svg">
<g clip-path="url(#clip0_8615_27615)">
<path d="M23.9988 0H-0.000976562V23.9998H23.9988V0Z" fill="#F5F5F5"/>
<path d="M23.9988 10.7368H13.2621V0H10.7358V10.7368H-0.000976562V13.2631H10.7358V23.9998H13.2621V13.2631H23.9988V10.7368Z" fill="#FF4B55"/>
<path d="M7.73949 5.25515C7.80896 5.11616 7.42477 4.66598 7.44516 4.56403C7.46555 4.46203 7.51107 4.30575 7.34785 3.71419C7.18464 3.12263 6.69442 2.97971 6.10286 2.9185C5.51131 2.85733 4.72925 3.28154 4.55263 3.74461C4.44604 4.02408 4.51813 4.33626 4.62997 4.6334C4.57977 4.63884 4.48363 4.6416 4.41271 4.5892C4.35632 4.54711 4.32538 4.47572 4.31994 4.37723C4.30016 4.0021 4.50482 3.38762 4.50702 3.38157L4.5223 3.33568L3.87984 3.10909L3.91762 3.41059L3.42188 3.30479L3.45216 3.38799C3.4958 3.5078 3.87984 4.5615 3.9315 4.65454C4.01629 4.80656 4.13132 4.90377 4.27349 4.94329C4.32449 4.95763 4.37483 4.96307 4.42265 4.96307C4.42879 4.96307 4.43394 4.96148 4.43999 4.96134C4.41088 5.01491 4.35201 5.08251 4.2021 5.15207C4.02623 5.23311 3.8482 5.32049 3.82875 5.64875L3.8235 5.65152C3.82509 5.65456 3.82692 5.6562 3.82851 5.6592C3.82429 5.74592 3.82823 5.84506 3.849 5.96961C3.9006 6.27748 4.00546 6.57963 4.00996 6.59238L4.02018 6.6214L4.05079 6.62491C4.05304 6.62491 4.25479 6.64915 4.31662 6.86107C4.35233 6.98378 4.46483 7.07683 4.57541 7.07683C4.57827 7.07683 4.58113 7.0765 4.58404 7.0765C4.63185 7.07425 4.74753 7.04941 4.78513 6.862L4.79056 6.83491L4.48668 6.5553L4.58849 6.21945L4.54002 6.20637C4.53721 6.20567 4.33593 6.14511 4.12762 5.9179C4.10835 5.82434 4.1106 5.75675 4.13554 5.71841C4.1639 5.67538 4.22413 5.66328 4.29393 5.64927C4.35894 5.63619 4.42621 5.62283 4.48068 5.58041C4.65585 5.44349 4.75391 5.20808 4.80355 5.04683C4.83045 5.10777 4.85624 5.16697 4.87906 5.22346C5.05245 5.6518 4.57311 6.14136 4.57311 6.14136C4.87906 6.26374 4.90967 6.33513 5.33801 6.86547C5.76635 7.39581 6.15391 7.17142 6.15391 7.17142C6.15391 7.17142 6.09879 6.83186 6.38031 6.68852C6.66189 6.54518 6.66827 6.36087 6.66827 6.36087C7.37091 6.52596 7.41315 6.23801 7.38245 6.13817C7.35174 6.03837 7.39013 5.88092 7.39013 5.88092C7.39013 5.88092 7.46087 5.88537 7.51299 5.85022C7.59554 5.79458 7.5399 5.66211 7.5399 5.66211C7.62052 5.62372 7.65127 5.53925 7.58982 5.47396C7.52837 5.40871 7.53221 5.33577 7.53221 5.33577C7.53221 5.33577 7.69346 5.34725 7.73949 5.25515ZM4.29993 4.84898C4.18391 4.81677 4.08862 4.73521 4.0169 4.60678C3.98278 4.54561 3.74409 3.90272 3.57422 3.4374L3.93051 3.51333L3.99749 4.04808L4.09438 4.03599L3.99656 3.25449L4.3994 3.39634C4.35093 3.54962 4.20435 4.04588 4.22249 4.38244C4.2292 4.51153 4.27349 4.60743 4.35412 4.66767C4.4271 4.72218 4.51476 4.73493 4.58169 4.73493C4.62116 4.73493 4.64802 4.73109 4.66616 4.7279C4.67614 4.75246 4.68646 4.7766 4.69672 4.80088C4.6401 4.82859 4.47411 4.89838 4.29993 4.84898ZM4.68271 6.86899C4.66902 6.91713 4.64 6.9761 4.57944 6.97863C4.57818 6.97863 4.57658 6.97863 4.57499 6.97863C4.50838 6.97863 4.43347 6.91329 4.41022 6.8336C4.40905 6.82947 4.40662 6.82736 4.4053 6.82338L4.45504 6.65932L4.68271 6.86899ZM4.46661 6.28446L4.34212 6.69424C4.26135 6.58465 4.1482 6.54588 4.0934 6.53304C4.06663 6.45241 3.98695 6.20126 3.94551 5.95362C3.93684 5.90136 3.93257 5.85683 3.92864 5.81281C4.13488 6.11473 4.36738 6.24504 4.46661 6.28446ZM4.4204 5.5033C4.3844 5.53133 4.33115 5.54188 4.27476 5.55331C4.19474 5.56925 4.10456 5.58744 4.05356 5.66488C4.0349 5.69319 4.02571 5.72872 4.02098 5.76833C3.98845 5.72234 3.95512 5.68349 3.9247 5.62752C3.94631 5.37828 4.08196 5.31515 4.24321 5.24066C4.47576 5.13304 4.52971 5.01834 4.55272 4.94985C4.6356 4.93368 4.69771 4.90804 4.7345 4.89056C4.73633 4.89482 4.73816 4.89871 4.74003 4.90298C4.71439 5.01594 4.62622 5.34257 4.4204 5.5033ZM4.96733 5.06315L4.76764 4.63312L7.11746 3.54268C7.27107 3.83452 7.28645 4.18003 7.28645 4.18003L4.96733 5.06315Z" fill="#464655"/>
<path d="M20.5667 5.25515C20.6362 5.11616 20.252 4.66598 20.2724 4.56403C20.2927 4.46208 20.3383 4.30575 20.175 3.71419C20.0118 3.12263 19.5216 2.97971 18.9301 2.9185C18.3385 2.85733 17.5564 3.28154 17.3798 3.74461C17.2732 4.02408 17.3453 4.33626 17.4572 4.6334C17.407 4.63884 17.3108 4.6416 17.2399 4.5892C17.1835 4.54711 17.1526 4.47572 17.1471 4.37723C17.1274 4.0021 17.332 3.38762 17.3342 3.38157L17.3495 3.33568L16.707 3.10909L16.7448 3.41059L16.249 3.30479L16.2793 3.38799C16.3229 3.50785 16.707 4.5615 16.7586 4.65459C16.8434 4.8066 16.9585 4.90382 17.1006 4.94334C17.1516 4.95768 17.202 4.96312 17.2498 4.96312C17.2559 4.96312 17.2611 4.96152 17.2671 4.96138C17.238 5.01496 17.1792 5.08255 17.0292 5.15212C16.8534 5.23316 16.6753 5.32054 16.6559 5.6488L16.6506 5.65156C16.6522 5.65461 16.6541 5.65625 16.6557 5.65925C16.6514 5.74597 16.6554 5.84511 16.6761 5.96965C16.7278 6.27753 16.8326 6.57968 16.8371 6.59243L16.8473 6.62144L16.8779 6.62496C16.8802 6.62496 17.0819 6.64919 17.1438 6.86111C17.1795 6.98383 17.292 7.07688 17.4026 7.07688C17.4054 7.07688 17.4083 7.07655 17.4112 7.07655C17.459 7.0743 17.5747 7.04946 17.6123 6.86205L17.6177 6.83496L17.3138 6.55535L17.4156 6.2195L17.3672 6.20642C17.3644 6.20571 17.1631 6.14515 16.9548 5.91795C16.9355 5.82439 16.9378 5.7568 16.9627 5.71845C16.9911 5.67542 17.0513 5.66333 17.1211 5.64931C17.1861 5.63624 17.2534 5.62288 17.3079 5.58045C17.483 5.44353 17.5811 5.20813 17.6307 5.04688C17.6576 5.10782 17.6834 5.16702 17.7063 5.22351C17.8796 5.65184 17.4003 6.1414 17.4003 6.1414C17.7063 6.26379 17.7369 6.33518 18.1652 6.86552C18.5935 7.39586 18.9811 7.17147 18.9811 7.17147C18.9811 7.17147 18.926 6.83191 19.2075 6.68857C19.4891 6.54523 19.4955 6.36092 19.4955 6.36092C20.1981 6.52601 20.2403 6.23806 20.2096 6.13821C20.1789 6.03842 20.2173 5.88097 20.2173 5.88097C20.2173 5.88097 20.2881 5.88542 20.3402 5.85026C20.4227 5.79462 20.3671 5.66216 20.3671 5.66216C20.4477 5.62377 20.4785 5.5393 20.417 5.474C20.3556 5.40875 20.3594 5.33582 20.3594 5.33582C20.3594 5.33582 20.5207 5.34725 20.5667 5.25515ZM17.1271 4.84898C17.0111 4.81677 16.9158 4.73521 16.8441 4.60673C16.81 4.54556 16.5713 3.90267 16.4014 3.43735L16.7577 3.51329L16.8247 4.04803L16.9216 4.03594L16.8238 3.25445L17.2266 3.39629C17.1781 3.54957 17.0315 4.04583 17.0497 4.38239C17.0564 4.51148 17.1007 4.60739 17.1813 4.66762C17.2543 4.72214 17.3419 4.73488 17.4089 4.73488C17.4484 4.73488 17.4752 4.73104 17.4934 4.72785C17.5033 4.75242 17.5137 4.77656 17.5239 4.80084C17.4673 4.82859 17.3014 4.89838 17.1271 4.84898ZM17.5099 6.86899C17.4962 6.91713 17.4672 6.9761 17.4066 6.97863C17.4054 6.97863 17.4038 6.97863 17.4022 6.97863C17.3356 6.97863 17.2607 6.91329 17.2374 6.8336C17.2362 6.82947 17.2338 6.82736 17.2325 6.82338L17.2822 6.65932L17.5099 6.86899ZM17.2938 6.28446L17.1693 6.69424C17.0885 6.58465 16.9754 6.54588 16.9206 6.53304C16.8938 6.45241 16.8141 6.20126 16.7727 5.95362C16.764 5.90136 16.7598 5.85683 16.7558 5.81281C16.9621 6.11473 17.1946 6.24504 17.2938 6.28446ZM17.2476 5.5033C17.2116 5.53133 17.1583 5.54188 17.102 5.55331C17.0219 5.56925 16.9318 5.58744 16.8808 5.66488C16.8621 5.69319 16.8529 5.72872 16.8482 5.76833C16.8156 5.72234 16.7823 5.68349 16.7519 5.62752C16.7735 5.37828 16.9092 5.31515 17.0704 5.24066C17.3029 5.13304 17.3569 5.01834 17.3799 4.94985C17.4628 4.93368 17.5249 4.90804 17.5617 4.89056C17.5635 4.89482 17.5654 4.89871 17.5672 4.90298C17.5416 5.01594 17.4534 5.34257 17.2476 5.5033ZM17.7946 5.06315L17.5949 4.63312L19.9447 3.54268C20.0983 3.83452 20.1136 4.18003 20.1136 4.18003L17.7946 5.06315Z" fill="#464655"/>
<path d="M7.73954 19.0832C7.809 18.9442 7.42482 18.494 7.44521 18.392C7.4656 18.29 7.51112 18.1338 7.3479 17.5422C7.18473 16.9506 6.69447 16.8077 6.10291 16.7465C5.51135 16.6853 4.7293 17.1096 4.55268 17.5726C4.44608 17.8521 4.51818 18.1643 4.63002 18.4614C4.57982 18.4668 4.48368 18.4696 4.41276 18.4172C4.35637 18.3752 4.32543 18.3037 4.31999 18.2052C4.30021 17.8301 4.50486 17.2156 4.50707 17.2096L4.52235 17.1637L3.87984 16.9371L3.91762 17.2386L3.42188 17.1328L3.45216 17.216C3.49584 17.3359 3.87989 18.3895 3.9315 18.4826C4.01629 18.6346 4.13132 18.7318 4.27349 18.7713C4.32449 18.7857 4.37483 18.7911 4.42265 18.7911C4.42879 18.7911 4.43394 18.7895 4.43999 18.7894C4.41088 18.843 4.35201 18.9106 4.2021 18.9801C4.02623 19.0612 3.8482 19.1485 3.82875 19.4768L3.8235 19.4796C3.82509 19.4826 3.82692 19.4843 3.82851 19.4873C3.82429 19.574 3.82823 19.6731 3.849 19.7977C3.9006 20.1055 4.00546 20.4077 4.00996 20.4204L4.02018 20.4495L4.05079 20.453C4.05304 20.453 4.25479 20.4772 4.31662 20.6891C4.35233 20.8118 4.46483 20.9049 4.57541 20.9049C4.57827 20.9049 4.58113 20.9046 4.58404 20.9046C4.63185 20.9023 4.74753 20.8775 4.78513 20.6901L4.79056 20.663L4.48668 20.3834L4.58849 20.0475L4.54002 20.0344C4.53721 20.0337 4.33593 19.9732 4.12762 19.746C4.10835 19.6524 4.1106 19.5848 4.13554 19.5465C4.1639 19.5034 4.22413 19.4913 4.29393 19.4773C4.35894 19.4642 4.42621 19.4509 4.48068 19.4085C4.65585 19.2715 4.75391 19.0361 4.80355 18.8749C4.83045 18.9358 4.85624 18.995 4.87906 19.0515C5.05245 19.4799 4.57311 19.9694 4.57311 19.9694C4.87906 20.0918 4.90967 20.1632 5.33801 20.6935C5.76635 21.2239 6.15391 20.9995 6.15391 20.9995C6.15391 20.9995 6.09879 20.6599 6.38032 20.5166C6.66189 20.3732 6.66826 20.1889 6.66826 20.1889C7.37091 20.354 7.41315 20.0661 7.38245 19.9662C7.35174 19.8664 7.39013 19.709 7.39013 19.709C7.39013 19.709 7.46087 19.7134 7.51299 19.6783C7.59554 19.6226 7.5399 19.4902 7.5399 19.4902C7.62052 19.4518 7.65127 19.3673 7.58982 19.302C7.52837 19.2368 7.53221 19.1638 7.53221 19.1638C7.53221 19.1638 7.69351 19.1753 7.73954 19.0832ZM4.29998 18.677C4.18396 18.6448 4.08867 18.5632 4.01695 18.4347C3.98282 18.3736 3.74414 17.7307 3.57426 17.2654L3.93056 17.3413L3.99754 17.876L4.09443 17.8639L3.9966 17.0825L4.39944 17.2243C4.35098 17.3776 4.2044 17.8738 4.22254 18.2104C4.22924 18.3395 4.27354 18.4354 4.35416 18.4956C4.42715 18.5501 4.5148 18.5629 4.58174 18.5629C4.62121 18.5629 4.64807 18.5591 4.66621 18.5559C4.67619 18.5804 4.6865 18.6046 4.69677 18.6288C4.64014 18.6566 4.47416 18.7264 4.29998 18.677ZM4.68275 20.697C4.66907 20.7451 4.64005 20.8041 4.57949 20.8066C4.57822 20.8066 4.57663 20.8066 4.57504 20.8066C4.50843 20.8066 4.43352 20.7413 4.41027 20.6616C4.4091 20.6575 4.40666 20.6554 4.40535 20.6514L4.45508 20.4873L4.68275 20.697ZM4.46666 20.1125L4.34216 20.5223C4.2614 20.4127 4.14824 20.3739 4.09345 20.361C4.06668 20.2804 3.98699 20.0293 3.94556 19.7816C3.93689 19.7294 3.93262 19.6848 3.92868 19.6408C4.13493 19.9427 4.36743 20.0731 4.46666 20.1125ZM4.42044 19.3313C4.38444 19.3593 4.33119 19.3699 4.2748 19.3814C4.19479 19.3973 4.1046 19.4155 4.0536 19.4929C4.03495 19.5212 4.02576 19.5568 4.02103 19.5964C3.98849 19.5504 3.95517 19.5115 3.92474 19.4556C3.94635 19.2063 4.08201 19.1432 4.24326 19.0687C4.4758 18.9611 4.52975 18.8464 4.55277 18.7779C4.63564 18.7617 4.69775 18.7361 4.73455 18.7186C4.73638 18.7229 4.73821 18.7268 4.74008 18.731C4.71444 18.844 4.62627 19.1706 4.42044 19.3313ZM4.96738 18.8912L4.76769 18.4611L7.11751 17.3707C7.27112 17.6625 7.28649 18.008 7.28649 18.008L4.96738 18.8912Z" fill="#464655"/>
<path d="M20.5667 19.0831C20.6362 18.9442 20.252 18.494 20.2724 18.392C20.2927 18.2901 20.3383 18.1338 20.175 17.5422C20.0119 16.9506 19.5216 16.8077 18.9301 16.7465C18.3385 16.6853 17.5564 17.1095 17.3798 17.5726C17.2732 17.8521 17.3453 18.1643 17.4572 18.4614C17.407 18.4668 17.3108 18.4696 17.2399 18.4172C17.1835 18.3752 17.1526 18.3037 17.1471 18.2052C17.1274 17.8301 17.332 17.2156 17.3342 17.2096L17.3495 17.1637L16.707 16.9371L16.7448 17.2386L16.249 17.1328L16.2793 17.216C16.3229 17.3359 16.707 18.3895 16.7586 18.4826C16.8434 18.6346 16.9585 18.7318 17.1006 18.7713C17.1516 18.7857 17.202 18.7911 17.2498 18.7911C17.2559 18.7911 17.2611 18.7895 17.2671 18.7894C17.238 18.843 17.1792 18.9106 17.0292 18.9801C16.8534 19.0612 16.6753 19.1485 16.6559 19.4768L16.6506 19.4796C16.6522 19.4826 16.6541 19.4843 16.6557 19.4873C16.6514 19.574 16.6554 19.6731 16.6761 19.7977C16.7278 20.1055 16.8326 20.4077 16.8371 20.4204L16.8473 20.4494L16.8779 20.453C16.8802 20.453 17.0819 20.4772 17.1438 20.6891C17.1795 20.8118 17.292 20.9049 17.4026 20.9049C17.4054 20.9049 17.4083 20.9046 17.4112 20.9046C17.459 20.9023 17.5747 20.8775 17.6123 20.6901L17.6177 20.663L17.3138 20.3834L17.4156 20.0475L17.3672 20.0344C17.3644 20.0337 17.1631 19.9732 16.9548 19.746C16.9355 19.6524 16.9378 19.5848 16.9627 19.5465C16.9911 19.5034 17.0513 19.4913 17.1211 19.4773C17.1861 19.4642 17.2534 19.4509 17.3079 19.4085C17.483 19.2715 17.5811 19.0361 17.6307 18.8749C17.6576 18.9358 17.6834 18.995 17.7063 19.0515C17.8796 19.4798 17.4003 19.9694 17.4003 19.9694C17.7063 20.0918 17.7369 20.1632 18.1652 20.6935C18.5935 21.2239 18.9811 20.9995 18.9811 20.9995C18.9811 20.9995 18.926 20.6599 19.2075 20.5166C19.4891 20.3732 19.4955 20.1889 19.4955 20.1889C20.1981 20.354 20.2403 20.0661 20.2096 19.9662C20.1789 19.8664 20.2173 19.709 20.2173 19.709C20.2173 19.709 20.2881 19.7134 20.3402 19.6783C20.4227 19.6226 20.3671 19.4902 20.3671 19.4902C20.4477 19.4518 20.4785 19.3673 20.417 19.302C20.3556 19.2368 20.3594 19.1638 20.3594 19.1638C20.3594 19.1638 20.5207 19.1753 20.5667 19.0831ZM17.1271 18.677C17.0111 18.6448 16.9158 18.5632 16.8441 18.4347C16.81 18.3736 16.5713 17.7307 16.4014 17.2654L16.7577 17.3413L16.8247 17.876L16.9216 17.8639L16.8238 17.0824L17.2266 17.2243C17.1781 17.3776 17.0315 17.8738 17.0497 18.2104C17.0564 18.3395 17.1007 18.4354 17.1813 18.4956C17.2543 18.5501 17.3419 18.5629 17.4089 18.5629C17.4484 18.5629 17.4752 18.559 17.4934 18.5559C17.5033 18.5804 17.5137 18.6046 17.5239 18.6288C17.4673 18.6566 17.3014 18.7264 17.1271 18.677ZM17.5099 20.697C17.4962 20.7451 17.4672 20.8041 17.4066 20.8066C17.4054 20.8066 17.4038 20.8066 17.4022 20.8066C17.3356 20.8066 17.2607 20.7413 17.2374 20.6616C17.2362 20.6575 17.2338 20.6554 17.2325 20.6514L17.2822 20.4873L17.5099 20.697ZM17.2938 20.1125L17.1693 20.5222C17.0885 20.4127 16.9754 20.3739 16.9206 20.361C16.8938 20.2804 16.8141 20.0293 16.7727 19.7816C16.764 19.7294 16.7598 19.6848 16.7558 19.6408C16.9621 19.9427 17.1946 20.073 17.2938 20.1125ZM17.2476 19.3313C17.2116 19.3593 17.1583 19.3699 17.102 19.3814C17.0219 19.3973 16.9318 19.4155 16.8808 19.4929C16.8621 19.5212 16.8529 19.5568 16.8482 19.5964C16.8156 19.5504 16.7823 19.5115 16.7519 19.4556C16.7735 19.2063 16.9092 19.1432 17.0704 19.0687C17.3029 18.9611 17.3569 18.8464 17.3799 18.7779C17.4628 18.7617 17.5249 18.7361 17.5617 18.7186C17.5635 18.7229 17.5654 18.7268 17.5672 18.731C17.5416 18.8439 17.4534 19.1706 17.2476 19.3313ZM17.7946 18.8911L17.5949 18.4611L19.9447 17.3707C20.0983 17.6625 20.1136 18.008 20.1136 18.008L17.7946 18.8911Z" fill="#464655"/>
</g>
<defs>
<clipPath id="clip0_8615_27615">
<path d="M0 2C0 0.895432 0.895431 0 2 0H21.9998C23.1043 0 23.9998 0.895431 23.9998 2V21.9998C23.9998 23.1043 23.1043 23.9998 21.9998 23.9998H2C0.895432 23.9998 0 23.1043 0 21.9998V2Z" fill="white"/>
</clipPath>
</defs>
</svg>
