<svg width="24" height="24" viewBox="0 0 24 24" fill="none" xmlns="http://www.w3.org/2000/svg">
<g clip-path="url(#clip0_8615_27486)">
<path d="M23.9988 0H-0.000976562V23.9998H23.9988V0Z" fill="#73AF00"/>
<path d="M3.60297 8.98741C3.65168 9.29945 3.8403 9.39742 4.00431 9.38467C4.19772 9.36967 4.36736 9.19281 4.36736 9.00607V7.93508C4.36736 7.88145 4.411 7.83772 4.46472 7.83772C4.51843 7.83772 4.56207 7.88145 4.56207 7.93508V9.01066C4.56207 9.13999 4.62596 9.26055 4.73312 9.33297C4.79856 9.37726 4.87468 9.40009 4.95141 9.40009C5.0003 9.40009 5.04933 9.39076 5.09612 9.37216L5.19343 9.33325C5.20238 10.2323 5.14772 11.0224 5.14669 11.0369C5.1391 11.1441 5.21982 11.2373 5.32707 11.2449C5.3318 11.2453 5.33649 11.2455 5.34113 11.2455C5.44238 11.2455 5.52788 11.1671 5.53519 11.0646C5.53974 11.0013 5.59974 10.136 5.58174 9.17791L5.64056 9.15438C5.69217 9.13385 5.75011 9.13633 5.79975 9.16103C6.01425 9.26791 6.27229 9.22628 6.44184 9.05683L6.4769 9.02186C6.63426 8.86422 6.68835 8.63524 6.6179 8.42398L6.45205 7.9265C6.54173 7.9535 6.64021 7.91375 6.68348 7.82741C6.73157 7.73117 6.69262 7.61422 6.59638 7.56613L6.2069 7.37141C6.13645 7.33602 6.05193 7.34689 5.99222 7.39841C5.93269 7.45011 5.91014 7.53247 5.93508 7.60719L6.24839 8.54716C6.27187 8.61752 6.25382 8.69398 6.20142 8.74647L6.16645 8.78144C6.11568 8.83221 6.03839 8.84458 5.9737 8.81261C5.84747 8.74957 5.70384 8.73776 5.56903 8.77211C5.54166 8.14709 5.47435 7.52469 5.33096 7.09448C5.29702 6.99257 5.18691 6.93721 5.08458 6.97143C4.98254 7.00527 4.92741 7.11557 4.96144 7.21771C5.10174 7.6385 5.16291 8.27975 5.18452 8.91733L4.95146 9.01057V7.93498C4.95146 7.66649 4.73307 7.44814 4.46462 7.44814C4.19617 7.44814 3.97778 7.66644 3.97778 7.93498V8.87763L3.77918 7.89636C3.75799 7.7908 3.65538 7.72198 3.54972 7.74402C3.44426 7.76548 3.3761 7.86819 3.39748 7.97356L3.60297 8.98741Z" fill="#F5F5F5"/>
<path d="M3.97792 7.35087C4.08545 7.35087 4.17264 7.26378 4.17264 7.15616V6.96144C4.17264 6.85382 4.08545 6.76672 3.97792 6.76672C3.87039 6.76672 3.7832 6.85382 3.7832 6.96144V7.15616C3.7832 7.26373 3.87039 7.35087 3.97792 7.35087Z" fill="#F5F5F5"/>
<path d="M5.92519 7.15616H6.1199C6.22743 7.15616 6.31462 7.06906 6.31462 6.96144C6.31462 6.85382 6.22743 6.76672 6.1199 6.76672H5.92519C5.81766 6.76672 5.73047 6.85382 5.73047 6.96144C5.73042 7.06906 5.81761 7.15616 5.92519 7.15616Z" fill="#F5F5F5"/>
<path d="M4.65706 9.71543L3.68343 10.2996C3.59118 10.355 3.56132 10.4746 3.61668 10.5668C3.65319 10.6277 3.71764 10.6613 3.78383 10.6613C3.81796 10.6613 3.8525 10.6524 3.88386 10.6336L4.85749 10.0494C4.94974 9.99401 4.9796 9.87443 4.92424 9.78218C4.86888 9.68993 4.7494 9.66007 4.65706 9.71543Z" fill="#F5F5F5"/>
<path d="M7.28278 10.0599L7.28733 10.0568C7.30369 10.1226 7.33172 10.1863 7.37719 10.2397C7.45631 10.3329 7.57495 10.3797 7.70901 10.3687C7.89918 10.3548 8.02851 10.2679 8.11405 10.1557C8.12708 10.1646 8.14077 10.1728 8.15512 10.18C8.26035 10.2331 8.38208 10.2291 8.498 10.169C8.79228 10.0175 8.8557 9.66679 8.84675 9.48346C8.8415 9.37659 8.75061 9.30107 8.64402 9.29901C8.53705 9.30356 8.45385 9.39426 8.45764 9.50113C8.45774 9.50362 8.4621 9.73466 8.32082 9.82044C8.2978 9.78829 8.27043 9.71605 8.26016 9.65634C8.24371 9.55612 8.15169 9.48632 8.0526 9.49434C7.95163 9.50231 7.87363 9.58715 7.87326 9.68849C7.87317 9.71681 7.86688 9.96669 7.67395 9.9876C7.6515 9.95699 7.65112 9.82804 7.6732 9.73279C7.69185 9.65465 7.66045 9.57304 7.59436 9.52743C7.52807 9.48159 7.4407 9.48159 7.37423 9.52668L7.26553 9.6006C7.21392 8.47135 7.09505 7.15539 7.09355 7.13861C7.08384 7.03174 6.98972 6.95205 6.882 6.96232C6.77485 6.97202 6.69591 7.06671 6.70561 7.17395C6.7073 7.19195 6.84483 8.71444 6.88725 9.87716C6.87732 9.88663 6.86705 9.89699 6.8573 9.90604C6.78029 9.71188 6.62766 9.58959 6.43107 9.57098C6.15362 9.54646 5.85297 9.73527 5.74525 10.0049C5.65234 10.2369 5.71084 10.465 5.89417 10.5857C6.02593 10.6726 6.22487 10.7 6.47494 10.6123C6.41391 10.8268 6.30273 11.0444 6.15821 11.2127C6.02879 11.3635 5.8127 11.5375 5.53609 11.5297C5.37513 11.5234 5.25143 11.4708 5.15796 11.3685C4.93254 11.1222 4.9519 10.6765 4.95208 10.6717C4.95771 10.5645 4.87554 10.473 4.76838 10.4671C4.66048 10.4557 4.56907 10.5434 4.56321 10.6508C4.5619 10.6755 4.53364 11.2613 4.86898 11.6296C5.03402 11.8112 5.25339 11.9084 5.52086 11.9189C5.53389 11.9194 5.54692 11.9196 5.56005 11.9196C5.88578 11.9196 6.20185 11.7599 6.45362 11.4664C6.69043 11.1907 6.85125 10.8161 6.89953 10.4683C6.89888 11.1345 6.49749 11.8858 5.96518 12.2168C5.73915 12.3572 5.3868 12.4838 4.98982 12.2881C4.50054 12.0466 4.55881 11.4873 4.56139 11.4645C4.57479 11.3578 4.499 11.2605 4.39231 11.2472C4.28609 11.2342 4.18817 11.3094 4.17495 11.4162C4.17059 11.451 4.07703 12.272 4.81751 12.6373C5.00768 12.7312 5.20657 12.7778 5.407 12.7778C5.66448 12.7778 5.92436 12.7008 6.17068 12.5475C6.81868 12.1448 7.28906 11.2696 7.28906 10.4668C7.28916 10.3412 7.28681 10.2041 7.28278 10.0599ZM6.10862 10.2606C6.07384 10.2376 6.10103 10.164 6.10689 10.1494C6.14785 10.0467 6.27615 9.95793 6.37862 9.95793C6.38387 9.95793 6.38916 9.95812 6.39432 9.95868C6.41921 9.96097 6.4853 9.96726 6.51376 10.1143C6.5168 10.1299 6.51938 10.1458 6.52135 10.1622C6.30432 10.2896 6.15882 10.2935 6.10862 10.2606Z" fill="#F5F5F5"/>
<path d="M4.07693 12.0516C3.98468 11.9974 3.86547 12.0284 3.81068 12.1206C3.80173 12.1356 3.78987 12.152 3.77777 12.1668C3.77566 12.1619 3.7736 12.1566 3.77149 12.1508C3.6903 11.9342 3.7481 11.6005 3.7773 11.4902C3.80477 11.3864 3.74299 11.2799 3.63916 11.2521C3.53552 11.2255 3.42893 11.286 3.40109 11.3898C3.38693 11.4425 3.26722 11.9152 3.40681 12.2876C3.4962 12.5257 3.6334 12.5857 3.73287 12.594C3.74173 12.5947 3.75044 12.5951 3.75912 12.5951C3.96879 12.5951 4.10824 12.3838 4.14705 12.3169C4.20086 12.224 4.16936 12.1059 4.07693 12.0516Z" fill="#F5F5F5"/>
<path d="M7.66947 8.51932C7.71161 8.51932 7.75399 8.50582 7.78966 8.47769L8.7714 7.70693C8.78495 7.69629 8.79362 7.68237 8.80351 7.66925C8.94488 7.58398 9.04055 7.43042 9.04055 7.25356C9.04055 6.98507 8.82216 6.76672 8.55371 6.76672C8.28526 6.76672 8.06687 6.98502 8.06687 7.25356C8.06687 7.4038 8.13667 7.53659 8.24392 7.62598L7.54905 8.17151C7.46454 8.23788 7.44977 8.36032 7.51615 8.44479C7.55463 8.49382 7.61177 8.51932 7.66947 8.51932ZM8.55376 7.1562C8.60748 7.1562 8.65112 7.19994 8.65112 7.25356C8.65112 7.30719 8.60748 7.35092 8.55376 7.35092C8.50004 7.35092 8.4564 7.30719 8.4564 7.25356C8.4564 7.19994 8.50004 7.1562 8.55376 7.1562Z" fill="#F5F5F5"/>
<path d="M8.32407 8.33459C8.22146 8.30038 8.11163 8.35569 8.0777 8.45764C8.05688 8.52003 7.96276 8.84121 8.15359 9.03195C8.22765 9.1061 8.32501 9.14318 8.44454 9.14299C8.52441 9.14299 8.61418 9.12663 8.7135 9.09335C8.81555 9.05951 8.87067 8.94921 8.83664 8.84707C8.80261 8.74517 8.6925 8.68962 8.59027 8.72403C8.48147 8.76017 8.43549 8.75426 8.43127 8.75806C8.41979 8.72914 8.42738 8.64223 8.44735 8.58008C8.48096 8.47836 8.42579 8.36844 8.32407 8.33459Z" fill="#F5F5F5"/>
<path d="M10.5523 7.52965C10.5706 7.53499 10.5889 7.53743 10.607 7.53743C10.6913 7.53743 10.769 7.48231 10.7938 7.39728L10.9075 7.0078C10.9376 6.90453 10.8782 6.79635 10.7751 6.7663C10.6715 6.73644 10.5637 6.79541 10.5336 6.89867L10.42 7.28811C10.3898 7.39142 10.4492 7.4996 10.5523 7.52965Z" fill="#F5F5F5"/>
<path d="M9.41797 7.50682C9.44886 7.52487 9.4827 7.53345 9.51607 7.53345C9.58301 7.53345 9.64812 7.49904 9.68436 7.43703C9.73864 7.34422 9.70737 7.22483 9.61456 7.17059C9.57537 7.14777 9.58072 7.08331 9.58212 7.07056C9.58793 7.01942 9.61845 6.95703 9.67151 6.94049C9.77421 6.90852 9.83154 6.79939 9.79957 6.69669C9.76742 6.5938 9.65848 6.53694 9.55568 6.56854C9.36153 6.629 9.22006 6.80872 9.19512 7.02627C9.17206 7.22881 9.25747 7.41289 9.41797 7.50682Z" fill="#F5F5F5"/>
<path d="M7.87245 10.6613C7.76492 10.6613 7.67773 10.7483 7.67773 10.856C7.67773 10.951 7.7458 11.0302 7.83594 11.0473C7.8462 11.0623 7.87245 11.1138 7.87245 11.2454C7.87245 11.353 7.95964 11.4401 8.06717 11.4401C8.1747 11.4401 8.26188 11.353 8.26188 11.2454C8.26188 10.6679 7.88834 10.6613 7.87245 10.6613Z" fill="#F5F5F5"/>
<path d="M11.1767 9.85507C11.2011 9.85905 11.2255 9.86098 11.2499 9.86098C11.4029 9.86098 11.5575 9.78377 11.7106 9.63068C11.7866 9.5546 11.7866 9.43137 11.7106 9.35534C11.6345 9.27926 11.5112 9.27926 11.4352 9.35534C11.3187 9.47192 11.2561 9.4744 11.24 9.47079C11.2029 9.46545 11.1692 9.41698 11.1617 9.40367C11.1128 9.30898 10.997 9.27111 10.9016 9.31887C10.8054 9.36697 10.7665 9.48392 10.8146 9.58015C10.8266 9.60424 10.939 9.81645 11.1767 9.85507Z" fill="#F5F5F5"/>
<path d="M14.4869 8.4865C14.4857 8.48345 14.4845 8.48059 14.4836 8.47792C14.4491 8.37676 14.3388 8.32178 14.2378 8.35623C14.1356 8.39008 14.0805 8.50037 14.1145 8.60251C14.1298 8.64817 14.2165 8.8771 14.4314 8.90603C14.4457 8.90795 14.46 8.90888 14.4742 8.90888C14.6091 8.90888 14.7356 8.8216 14.8508 8.64892C14.9104 8.55953 14.8863 8.43859 14.7968 8.37887C14.7072 8.31934 14.5863 8.3433 14.5268 8.43287C14.5114 8.45589 14.4981 8.47337 14.4869 8.4865Z" fill="#F5F5F5"/>
<path d="M14.1045 12.0243C14.1045 11.1939 14.0679 10.4149 14.0173 9.73235C14.2938 10.2119 14.5425 10.6965 14.701 11.1192C14.7304 11.1973 14.8045 11.2455 14.8834 11.2455C14.9061 11.2455 14.9292 11.2415 14.9517 11.2331C15.0524 11.1953 15.1034 11.083 15.0657 10.9823C14.8192 10.3252 14.3762 9.5426 13.9396 8.84796C13.8331 7.799 13.714 7.1332 13.7118 7.12134C13.6926 7.0154 13.5915 6.94392 13.4854 6.96464C13.3796 6.98386 13.3094 7.0852 13.3286 7.19095C13.3302 7.19943 13.3915 7.54237 13.4649 8.11963C13.3153 7.89763 13.1763 7.69733 13.0597 7.53248L13.0692 7.53552C13.1718 7.56974 13.2815 7.51443 13.3156 7.41248C13.3496 7.31034 13.2945 7.20004 13.1924 7.1662L12.6082 6.97148C12.5272 6.94411 12.4383 6.97298 12.3887 7.04222C12.3754 7.06068 12.3663 7.08093 12.3602 7.10189C12.2436 7.01568 12.0941 6.94565 11.9538 7.00439C11.8689 7.03959 11.7677 7.12818 11.7677 7.35088C11.7677 7.52184 11.8329 7.70666 11.902 7.90255C12.0167 8.22734 12.0885 8.46622 11.967 8.58012C11.8999 8.64307 11.8329 8.66684 11.7674 8.65029C11.6473 8.61987 11.5285 8.45994 11.4493 8.22242C11.4459 8.21211 11.4387 8.20466 11.4338 8.19533C11.4747 7.89369 11.4569 7.53027 11.3744 7.11792C11.3534 7.01236 11.2511 6.94373 11.1452 6.9652C11.0398 6.98629 10.9714 7.08881 10.9925 7.19437C11.1196 7.83027 11.0815 8.34903 10.8905 8.582C10.8166 8.67214 10.7241 8.71395 10.5992 8.71395C10.5598 8.71395 10.5329 8.70139 10.506 8.67059C10.3524 8.49354 10.353 7.92228 10.4026 7.57298C10.4105 7.51724 10.3937 7.46057 10.3567 7.41801C10.3198 7.3754 10.2661 7.35088 10.2097 7.35088C9.87469 7.35088 9.74766 7.73197 9.63553 8.06821C9.58636 8.21595 9.49472 8.49073 9.43083 8.51928C9.31294 8.51928 9.23677 8.17316 9.23611 7.93489C9.23583 7.82746 9.14874 7.74055 9.0414 7.74055C9.0414 7.74055 9.04121 7.74055 9.04112 7.74055C8.93368 7.74055 8.84668 7.82765 8.84668 7.93508C8.84668 8.38423 8.99968 8.90871 9.43088 8.90871C9.75197 8.90871 9.88205 8.55879 9.99093 8.23363C10.0099 8.49223 10.0682 8.76021 10.2118 8.92563C10.3127 9.04202 10.4466 9.10343 10.5993 9.10343C10.8396 9.10343 11.0444 9.00856 11.1916 8.82903C11.2183 8.79654 11.2413 8.75923 11.264 8.72154C11.3771 8.88232 11.5157 8.98826 11.672 9.02773C11.7178 9.0393 11.764 9.04521 11.8096 9.04521C11.9599 9.04521 12.1068 8.9832 12.2336 8.86399C12.26 8.8392 12.2786 8.8121 12.2987 8.78543C12.3463 8.79903 12.3946 8.80713 12.4425 8.80713C12.6003 8.80713 12.7521 8.74362 12.8463 8.68315C12.9365 8.62536 12.9625 8.50592 12.9053 8.4154C12.848 8.32508 12.728 8.29808 12.6372 8.35475C12.6355 8.35555 12.5055 8.43026 12.4167 8.41278C12.417 8.19931 12.3397 7.97258 12.2692 7.77285C12.2291 7.65913 12.1879 7.54255 12.1685 7.4473C12.1846 7.4608 12.2003 7.47487 12.2143 7.48855C12.2902 7.56463 12.4135 7.56463 12.4895 7.48855C12.5021 7.47599 12.5094 7.46066 12.5178 7.44595C12.7196 7.72401 13.1348 8.30834 13.5618 8.98193C13.6434 9.80983 13.7149 10.8661 13.7149 12.0244C13.7149 12.132 13.8021 12.2191 13.9096 12.2191C14.0172 12.2191 14.1045 12.132 14.1045 12.0243Z" fill="#F5F5F5"/>
<path d="M14.2993 7.74034C14.2993 7.84796 14.3865 7.93505 14.494 7.93505C14.6015 7.93505 14.6887 7.84796 14.6887 7.74034C14.6887 7.51117 14.5094 7.14095 14.4735 7.06905C14.4254 6.973 14.3085 6.93424 14.2122 6.98196C14.116 7.03005 14.077 7.147 14.1251 7.24323C14.1954 7.38376 14.2993 7.63881 14.2993 7.74034Z" fill="#F5F5F5"/>
<path d="M13.4128 12.0458C13.3173 11.9971 13.2 12.0357 13.1514 12.1315C13.1305 12.1724 13.0981 12.2179 13.0707 12.2472C13.0621 12.1698 13.0827 12.0152 13.122 11.887C13.1481 11.8014 13.1126 11.709 13.036 11.663C12.9596 11.6168 12.8612 11.6288 12.7981 11.6921L12.4086 12.0816C12.3325 12.1576 12.3325 12.2809 12.4086 12.3569C12.4847 12.4329 12.6079 12.433 12.684 12.3569L12.6939 12.347C12.7107 12.4252 12.7429 12.4965 12.7981 12.5516C12.8711 12.6247 12.9593 12.6632 13.0511 12.6632C13.0688 12.6632 13.0868 12.6617 13.1046 12.6589C13.3252 12.6231 13.4625 12.3799 13.4994 12.3063C13.5473 12.2102 13.5086 12.094 13.4128 12.0458Z" fill="#F5F5F5"/>
<path d="M13.3376 10.4787H11.9652C11.9773 10.4302 11.9899 10.384 12.0026 10.3401C12.5499 10.2264 12.8752 10.0497 12.9709 9.81393C13.0039 9.73218 13.0384 9.5669 12.8976 9.37692C12.7707 9.20578 12.5914 9.12895 12.4054 9.16697C12.1287 9.22308 11.8821 9.52125 11.7052 9.99857C11.1555 10.0927 10.8036 10.29 10.5809 10.4848C10.5019 9.68681 10.1921 9.21277 10.1771 9.19017C10.1174 9.1006 9.99643 9.07646 9.90704 9.13617C9.81755 9.19589 9.79341 9.31664 9.85304 9.40622C9.85655 9.41156 10.2098 9.95179 10.2098 10.856C10.2098 11.7449 9.50106 12.4139 9.04145 12.4139C8.82278 12.4139 8.72711 12.154 8.68502 11.9343C9.13506 11.6188 9.53214 11.2539 9.61984 10.9032C9.73848 10.4288 9.58913 10.0791 9.49032 9.84764C9.48568 9.83699 9.48081 9.82556 9.47589 9.81379C9.48006 9.81759 9.48404 9.82157 9.48807 9.82537C9.56396 9.90145 9.68729 9.90145 9.76332 9.82537C9.8394 9.74929 9.8394 9.62606 9.76332 9.55003C9.64951 9.43612 9.42845 9.25716 9.22754 9.34125C9.14265 9.37645 9.04145 9.46505 9.04145 9.68775C9.04145 9.78834 9.0835 9.88663 9.13215 10.0008C9.21981 10.2059 9.32889 10.4614 9.24198 10.809C9.19056 11.0147 8.93791 11.2642 8.60458 11.512C8.56886 11.4693 8.51721 11.4405 8.45726 11.4405H8.45697C8.34954 11.4407 8.26254 11.5276 8.26254 11.6351C8.26254 11.6701 8.26404 11.7076 8.26634 11.746C7.84962 12.0159 7.37802 12.2657 7.01352 12.4315C6.91569 12.4759 6.87243 12.5914 6.91691 12.6893C6.94954 12.761 7.02027 12.8034 7.09424 12.8034C7.12124 12.8034 7.14861 12.7979 7.17467 12.7859C7.28417 12.7361 7.80387 12.494 8.33768 12.1631C8.43597 12.497 8.64433 12.8034 9.04141 12.8034C9.50856 12.8034 10.0385 12.4214 10.3443 11.8511C10.3812 11.9163 10.4237 11.9787 10.4743 12.0371C10.9644 12.6022 11.9218 12.6087 11.9623 12.6087C12.0672 12.6087 12.1531 12.5258 12.1569 12.421C12.1606 12.3162 12.0808 12.2272 11.9763 12.2198C11.9748 12.2196 11.8196 12.2025 11.7332 12.1017C11.6811 12.0409 11.6603 11.9572 11.6695 11.8459C11.6895 11.6059 12.4635 11.4267 13.1458 11.416C13.2271 11.4147 13.2991 11.3631 13.3263 11.2864L13.5211 10.7388C13.5423 10.6792 13.5332 10.6129 13.4966 10.5613C13.4602 10.5095 13.4008 10.4787 13.3376 10.4787ZM12.4828 9.54881C12.4865 9.54806 12.4915 9.54689 12.4976 9.54689C12.5163 9.54689 12.5456 9.55603 12.5848 9.6089C12.5922 9.61879 12.6159 9.65264 12.6099 9.6675C12.5876 9.72262 12.4531 9.81374 12.173 9.89624C12.2962 9.65587 12.4167 9.56212 12.4828 9.54881ZM11.3068 12.1086C11.1089 12.0444 10.9074 11.9424 10.7678 11.781C10.6144 11.6036 10.5578 11.3792 10.5949 11.0952C10.6005 11.0803 10.6133 11.0509 10.6355 11.0127C10.9097 10.9876 11.6423 11.0957 11.6931 11.3055C11.4671 11.4208 11.3007 11.583 11.2814 11.8136C11.2718 11.9291 11.2836 12.027 11.3068 12.1086Z" fill="#F5F5F5"/>
<path d="M15.4571 7.67876L15.2624 7.09457C15.231 7.00063 15.1335 6.94452 15.037 6.9658C14.9399 6.98652 14.874 7.07685 14.8839 7.17556C15.0182 8.51927 15.2724 11.1397 15.2724 11.4402C15.2724 11.7101 14.7924 12.2414 14.0169 12.6291C13.9206 12.6772 13.8817 12.7942 13.9298 12.8904C13.9639 12.9587 14.0327 12.998 14.1042 12.998C14.1334 12.998 14.1631 12.9914 14.1911 12.9775C14.8994 12.6232 15.6618 11.9911 15.6618 11.4402C15.6618 11.1525 15.4628 9.08237 15.3488 7.91951C15.4412 7.88014 15.4894 7.77575 15.4571 7.67876Z" fill="#F5F5F5"/>
<path d="M17.0815 9.43586C17.119 9.47331 17.1688 9.49291 17.2193 9.49291C17.2522 9.49291 17.2854 9.48452 17.3155 9.46741C17.3917 9.42405 17.4295 9.33503 17.408 9.25005C17.3731 9.11313 17.3615 8.94199 17.3799 8.87201C17.4775 8.87505 17.568 8.80563 17.5824 8.70504C17.5976 8.59854 17.5236 8.49987 17.4173 8.48463C17.2885 8.46715 17.1755 8.50498 17.0964 8.59282C17.0453 8.64987 17.0149 8.72309 16.9983 8.80183L16.7728 8.57632C16.6968 8.50024 16.5735 8.50024 16.4975 8.57632C16.4214 8.6524 16.4214 8.77563 16.4975 8.85166L17.0815 9.43586Z" fill="#F5F5F5"/>
<path d="M17.5205 9.63893L16.7903 10.1623C16.7029 10.2249 16.6828 10.3465 16.7454 10.434C16.7835 10.4871 16.8433 10.5152 16.9039 10.5152C16.9432 10.5152 16.9829 10.5034 17.0172 10.4787L17.7474 9.95533C17.8348 9.89275 17.8549 9.77107 17.7922 9.6836C17.7295 9.59613 17.6076 9.57579 17.5205 9.63893Z" fill="#F5F5F5"/>
<path d="M17.456 10.3712C17.3948 10.4502 17.4035 10.5612 17.473 10.6295C17.4814 10.6435 17.5194 10.7181 17.5125 10.9098C17.5087 11.0174 17.5928 11.1076 17.7002 11.1113C17.7026 11.1115 17.7049 11.1115 17.7072 11.1115C17.8116 11.1115 17.898 11.0288 17.9018 10.9238C17.9159 10.5264 17.7858 10.3811 17.7293 10.3372C17.6446 10.2708 17.522 10.2864 17.456 10.3712Z" fill="#F5F5F5"/>
<path d="M19.1551 11.8053C19.2626 11.8053 19.3498 11.7182 19.3498 11.6106C19.3498 11.3233 19.3351 11.0025 19.3109 10.6688C19.504 10.9852 19.6644 11.2769 19.7672 11.5168C19.7988 11.5908 19.8707 11.6349 19.9463 11.6349C19.9719 11.6349 19.9979 11.63 20.0229 11.6191C20.1218 11.5767 20.1676 11.4622 20.1252 11.3636C19.9469 10.9475 19.6137 10.3964 19.2343 9.82744C19.1579 9.11269 19.0581 8.41239 18.9806 7.90999C19.0218 7.91416 19.0646 7.90408 19.1022 7.87975C19.1637 7.84033 19.1926 7.77194 19.1884 7.70383C19.1934 7.72296 19.1987 7.74218 19.2099 7.75975C19.2112 7.76168 19.3364 7.96835 19.2808 8.23651C19.259 8.34165 19.3268 8.44473 19.4321 8.46662C19.4454 8.46929 19.4587 8.47061 19.4717 8.47061C19.5622 8.47061 19.6432 8.40728 19.6623 8.31526C19.7502 7.88988 19.5472 7.56429 19.5385 7.5506C19.4807 7.46009 19.3603 7.43346 19.2696 7.49088C19.2079 7.53026 19.1787 7.59874 19.1827 7.66694C19.1776 7.64768 19.1721 7.62832 19.1607 7.61065L18.8321 7.09948C18.7819 7.02153 18.6837 6.98993 18.5975 7.0234C18.5111 7.05724 18.4605 7.1472 18.4766 7.23846C18.4793 7.25379 18.6281 8.10831 18.76 9.13824C18.6107 8.9274 18.4614 8.72129 18.3166 8.52461C18.2931 8.23 18.2695 7.95761 18.2491 7.73238C18.2598 7.72914 18.2704 7.72497 18.2807 7.71982C18.3769 7.67172 18.4159 7.55477 18.3678 7.45854L18.1731 7.06906C18.131 6.98501 18.0351 6.94315 17.9448 6.96903C17.8546 6.99528 17.7958 7.08199 17.8051 7.17556C17.8284 7.40796 17.8525 7.66521 17.8763 7.93544C17.7531 7.77307 17.6391 7.62447 17.5416 7.49866C17.5607 7.4823 17.5769 7.46196 17.5889 7.43801C17.637 7.34177 17.598 7.22482 17.5018 7.17673L17.1123 6.98201C17.0307 6.94132 16.9315 6.96261 16.8738 7.03371C16.8163 7.10482 16.8161 7.2064 16.8732 7.27788C16.8837 7.29096 17.3632 7.89199 17.9367 8.66776C18.0362 9.95437 18.1024 11.2927 18.0088 11.5733C17.9917 11.6247 17.9619 11.6851 17.9338 11.6872C17.8161 11.7036 17.5353 11.4404 17.3942 11.1584C17.3129 10.996 17.1959 10.9791 17.1334 10.9819C16.9241 10.9948 16.8424 11.2251 16.694 11.6431C16.5876 11.9427 16.4555 12.315 16.307 12.4673C16.2266 12.3691 16.1227 12.0394 16.0649 11.7006C16.092 11.7755 16.1621 11.8297 16.2464 11.8297C16.3539 11.8297 16.4411 11.7426 16.4411 11.635C16.4411 11.3446 16.238 9.13299 16.1245 7.92086C16.2192 7.88285 16.269 7.77691 16.2363 7.6788L16.0416 7.0946C16.0103 7.00067 15.9142 6.94531 15.8166 6.96565C15.7197 6.98618 15.6536 7.07614 15.663 7.17467C15.7953 8.56384 16.0435 11.247 16.0512 11.6173C16.0507 11.614 16.05 11.6107 16.0496 11.6074C16.0344 11.5009 15.9351 11.4279 15.8293 11.4422C15.7228 11.4576 15.6489 11.5561 15.6641 11.6626C15.721 12.0606 15.8662 12.745 16.201 12.8564C16.2274 12.8654 16.263 12.8733 16.3047 12.8733C16.3814 12.8733 16.479 12.8462 16.5787 12.7463C16.7909 12.5343 16.9343 12.13 17.061 11.7734C17.0896 11.6928 17.1235 11.5973 17.1554 11.5156C17.334 11.7765 17.6457 12.1013 17.9615 12.0758C18.0725 12.0679 18.2745 12.0081 18.3784 11.6967C18.4819 11.386 18.441 10.3027 18.3712 9.2655C18.5352 9.49547 18.6994 9.73088 18.8561 9.96347C18.9169 10.5466 18.9603 11.1308 18.9603 11.6107C18.9603 11.7182 19.0475 11.8053 19.1551 11.8053Z" fill="#F5F5F5"/>
<path d="M20.6329 10.7812C20.4949 9.75354 20.3027 8.56312 20.181 7.83248C20.236 7.84598 20.2959 7.83497 20.3442 7.79789C20.4298 7.73264 20.4461 7.61039 20.3809 7.52499L20.0279 7.06252C19.9735 6.99141 19.8774 6.96629 19.7952 7.00224C19.7129 7.03819 19.6659 7.12566 19.6813 7.21407C19.6848 7.23404 20.032 9.23305 20.2468 10.8329C20.3289 11.4443 20.2091 11.9906 19.9262 12.2941C19.7444 12.489 19.5035 12.5773 19.2119 12.5603C19.1048 12.5546 19.012 12.6352 19.0053 12.7425C18.9985 12.8498 19.08 12.9422 19.1873 12.9491C19.2202 12.9512 19.2527 12.9521 19.2848 12.9521C19.652 12.9521 19.9707 12.8175 20.211 12.5596C20.578 12.1659 20.7317 11.5177 20.6329 10.7812Z" fill="#F5F5F5"/>
<path d="M18.4902 12.0648C18.4186 12.1425 18.4241 12.265 18.4998 12.3384C18.5103 12.3487 18.523 12.3688 18.5231 12.3787C18.5232 12.3843 18.5153 12.4006 18.4936 12.4223C18.4175 12.4984 18.4175 12.6216 18.4936 12.6976C18.5316 12.7356 18.5814 12.7547 18.6313 12.7547C18.6811 12.7547 18.7309 12.7356 18.7689 12.6976C18.8924 12.5742 18.9151 12.4489 18.9123 12.3654C18.9063 12.1857 18.784 12.0697 18.7595 12.0482C18.68 11.979 18.5616 11.9873 18.4902 12.0648Z" fill="#F5F5F5"/>
<path d="M17.8037 16.3352H17.6089H16.4406V16.1405C16.4406 16.0329 16.3534 15.9458 16.2458 15.9458C16.1383 15.9458 16.0511 16.0329 16.0511 16.1405V16.3352H5.73047C6.1199 16.7247 6.89882 16.9194 7.48301 16.9194C7.90198 16.9194 13.1282 16.9194 16.0511 16.9194V17.3089C16.0511 17.4165 16.1383 17.5036 16.2458 17.5036H17.8036C18.1257 17.5036 18.3878 17.2416 18.3878 16.9194C18.3878 16.5973 18.1258 16.3352 17.8037 16.3352ZM17.8037 17.1141H16.4406V16.9194C17.379 16.9194 17.9984 16.9194 17.9984 16.9194L17.9635 16.8146C17.9837 16.8453 17.9984 16.88 17.9984 16.9194C17.9984 17.0269 17.911 17.1141 17.8037 17.1141Z" fill="#F5F5F5"/>
</g>
<defs>
<clipPath id="clip0_8615_27486">
<path d="M0 2C0 0.895432 0.895431 0 2 0H21.9998C23.1043 0 23.9998 0.895431 23.9998 2V21.9998C23.9998 23.1043 23.1043 23.9998 21.9998 23.9998H2C0.895432 23.9998 0 23.1043 0 21.9998V2Z" fill="white"/>
</clipPath>
</defs>
</svg>
