<svg width="24" height="24" viewBox="0 0 24 24" fill="none" xmlns="http://www.w3.org/2000/svg">
<g clip-path="url(#clip0_8615_27686)">
<path d="M23.9978 0H-0.00195312V23.9998H23.9978V0Z" fill="#4173CD"/>
<path d="M23.9978 0H21.7324L11.9979 9.73448L2.26345 0H-0.00195312V2.2654L9.73253 11.9999L-0.00195312 21.7344V23.9998H2.26345L11.9979 14.2653L21.7324 23.9998H23.9978V21.7344L14.2633 11.9999L23.9978 2.2654V0Z" fill="#F5F5F5"/>
</g>
<defs>
<clipPath id="clip0_8615_27686">
<path d="M0 2C0 0.895432 0.895431 0 2 0H21.9998C23.1043 0 23.9998 0.895431 23.9998 2V21.9998C23.9998 23.1043 23.1043 23.9998 21.9998 23.9998H2C0.895432 23.9998 0 23.1043 0 21.9998V2Z" fill="white"/>
</clipPath>
</defs>
</svg>
