<svg width="24" height="24" viewBox="0 0 24 24" fill="none" xmlns="http://www.w3.org/2000/svg">
<g clip-path="url(#clip0_8615_27631)">
<path d="M7.99813 0H-0.00195312V23.9998H7.99813V0Z" fill="#73AF00"/>
<path d="M15.9981 0H7.99805V23.9998H15.9981V0Z" fill="#FFE15A"/>
<path d="M23.9981 0H15.998V23.9998H23.9981V0Z" fill="#FF4B55"/>
<path d="M12.0936 9.64582L12.6417 11.2893L14.3741 11.3028C14.471 11.3035 14.5112 11.4271 14.4332 11.4847L13.0395 12.5139L13.5621 14.1657C13.5913 14.258 13.4862 14.3344 13.4074 14.2781L11.9979 13.2707L10.5885 14.2781C10.5097 14.3344 10.4045 14.258 10.4337 14.1656L10.9563 12.5138L9.56262 11.4847C9.48466 11.4271 9.52484 11.3035 9.62173 11.3027L11.3542 11.2893L11.9023 9.64577C11.9329 9.55394 12.063 9.55394 12.0936 9.64582Z" fill="#73AF00"/>
</g>
<defs>
<clipPath id="clip0_8615_27631">
<path d="M0 2C0 0.895432 0.895431 0 2 0H21.9998C23.1043 0 23.9998 0.895431 23.9998 2V21.9998C23.9998 23.1043 23.1043 23.9998 21.9998 23.9998H2C0.895432 23.9998 0 23.1043 0 21.9998V2Z" fill="white"/>
</clipPath>
</defs>
</svg>
