<svg width="24" height="24" viewBox="0 0 24 24" fill="none" xmlns="http://www.w3.org/2000/svg">
<g clip-path="url(#clip0_8615_27484)">
<path d="M23.9978 16.0026H-0.00195312V23.9998H23.9978V16.0026Z" fill="#F5F5F5"/>
<path d="M23.9978 0H-0.00195312V7.99727H23.9978V0Z" fill="#FF4B55"/>
<path d="M23.9978 7.99731H-0.00195312V16.0025H23.9978V7.99731Z" fill="#41479B"/>
<path d="M10.4245 7.99558H5.87418L5.68457 6.85803H10.6141L10.4245 7.99558Z" fill="#FFE15A"/>
<path d="M5.82617 7.7113L5.87361 7.99569H10.424L10.4714 7.7113H5.82617Z" fill="#FFD350"/>
<path d="M8.24722 4.20361H8.05762V4.962H8.24722V4.20361Z" fill="#FFE15A"/>
<path d="M8.43694 4.39307H7.86816V4.58267H8.43694V4.39307Z" fill="#FFE15A"/>
<path d="M10.4428 7.23711C10.4214 7.23711 10.3996 7.23341 10.3782 7.22581C10.2798 7.1901 10.2288 7.08139 10.2646 6.98291L10.6662 5.87456C10.6861 5.81958 10.6814 5.75902 10.6533 5.70848C10.6384 5.68163 10.6035 5.63442 10.537 5.62017C10.0474 5.51611 9.09827 5.34113 8.24436 5.34113H8.06122C7.20726 5.34113 6.25819 5.51611 5.76835 5.62036C5.70207 5.63442 5.66715 5.68163 5.65224 5.70848C5.62421 5.75902 5.61948 5.81958 5.63945 5.87456L6.04098 6.98291C6.07669 7.08139 6.02579 7.1901 5.9274 7.22581C5.8291 7.26102 5.72012 7.21044 5.68459 7.11214L5.28297 6.00379C5.22564 5.84569 5.23937 5.67108 5.32065 5.5246C5.39917 5.38294 5.53351 5.28258 5.68932 5.24944C6.19379 5.14205 7.17262 4.96191 8.06127 4.96191H8.24441C9.13305 4.96191 10.1119 5.14205 10.6162 5.24925C10.7722 5.28258 10.9065 5.38294 10.985 5.5246C11.0663 5.67103 11.0799 5.84564 11.0228 6.00379L10.621 7.11214C10.5932 7.18916 10.5204 7.23711 10.4428 7.23711Z" fill="#FFE15A"/>
<path d="M8.15347 7.07119C8.04876 7.07119 7.96387 6.98639 7.96387 6.88158V5.3411C7.96387 5.23629 8.04876 5.15149 8.15347 5.15149C8.25819 5.15149 8.34308 5.23629 8.34308 5.3411V6.88158C8.34308 6.98639 8.25819 7.07119 8.15347 7.07119Z" fill="#FFE15A"/>
<path d="M9.46332 7.23711C9.45052 7.23711 9.43759 7.2358 9.4246 7.23322C9.32204 7.21194 9.25618 7.11158 9.27751 7.00902L9.50748 5.90067C9.53738 5.75625 9.49055 5.62978 9.46398 5.60756C9.20106 5.5111 8.67362 5.34113 8.20436 5.34113H8.09946C7.6302 5.34113 7.10276 5.5111 6.83014 5.61258C6.81331 5.62978 6.76644 5.75625 6.79635 5.90067L7.02631 7.00902C7.04759 7.11158 6.98178 7.21194 6.87922 7.23322C6.77656 7.25305 6.67621 7.1886 6.65507 7.08603L6.4251 5.97769C6.36777 5.70145 6.45576 5.3476 6.69772 5.25722C7.06016 5.12241 7.59729 4.96191 8.09946 4.96191H8.20436C8.70648 4.96191 9.24367 5.12246 9.60591 5.25704C9.84811 5.3476 9.93605 5.70141 9.87872 5.97769L9.64876 7.08603C9.63024 7.17566 9.55126 7.23711 9.46332 7.23711Z" fill="#FFE15A"/>
<path d="M5.73196 7.14242H10.5667L10.6141 6.85803H5.68457L5.73196 7.14242Z" fill="#FFD350"/>
<path d="M4.54703 7.99561C4.44231 7.99561 4.35742 8.0805 4.35742 8.18521V14.8066C4.35742 16.9089 6.05512 18.6132 8.14943 18.6132C10.2437 18.6132 11.9414 16.9089 11.9414 14.8066V8.18521C11.9414 8.0805 11.8566 7.99561 11.7518 7.99561H4.54703Z" fill="#FF4B55"/>
<path d="M8.52859 14.2524L8.90781 13.3044L8.14942 13.4941L7.39104 13.3044L7.77026 14.2524L6.82227 17.4756C6.82227 17.4756 7.39104 17.8548 8.14947 17.8548C8.9079 17.8548 9.47668 17.4756 9.47668 17.4756L8.52859 14.2524Z" fill="#F5F5F5"/>
<path d="M6.77587 15.0167L6.44137 15.1002L7.17721 13.7757L6.84576 13.5917L5.952 15.2005H5.11548V15.5797H5.52291L4.99707 16.0004L5.23388 16.2966L5.68059 15.9393L5.50439 16.4677L5.86416 16.5877L6.21046 15.5488L6.86788 15.3843L6.77587 15.0167Z" fill="#FFE15A"/>
<path d="M6.82192 9.89166L5.95638 9.45891C5.79743 9.37941 5.71497 9.20021 5.7581 9.02776L5.80704 8.83197C5.84102 8.69608 5.73822 8.56445 5.59816 8.56445C5.53277 8.56445 5.4709 8.59417 5.43007 8.64526C4.98097 9.20663 4.73633 9.90413 4.73633 10.623V14.6317C4.73633 14.6317 5.52809 14.4733 6.2433 13.4331C6.37464 13.2421 6.59078 13.129 6.82117 13.1172L6.44275 14.2524L7.20113 14.4421L7.86474 13.6524L6.82192 9.89166Z" fill="#F5F5F5"/>
<path d="M9.52243 15.0167L9.85693 15.1002L9.12109 13.7757L9.45254 13.5917L10.3463 15.2005H11.1828V15.5797H10.7754L11.3012 16.0004L11.0644 16.2966L10.6177 15.9393L10.7939 16.4677L10.4341 16.5877L10.0878 15.5488L9.43042 15.3843L9.52243 15.0167Z" fill="#FFE15A"/>
<path d="M9.47641 9.89166L10.342 9.45891C10.5009 9.37941 10.5834 9.20021 10.5402 9.02776L10.4913 8.83197C10.4573 8.69608 10.5601 8.56445 10.7002 8.56445C10.7656 8.56445 10.8274 8.59417 10.8683 8.64526C11.3174 9.20663 11.562 9.90413 11.562 10.623V14.6317C11.562 14.6317 10.7702 14.4733 10.055 13.4331C9.92369 13.2421 9.70755 13.129 9.47716 13.1172L9.85558 14.2524L9.0972 14.4421L8.43359 13.6524L9.47641 9.89166Z" fill="#F5F5F5"/>
<path d="M7.01249 8.56445H6.06445L6.34889 8.94367L7.01249 9.13323L6.63328 9.32284H7.20205L7.01249 8.56445Z" fill="#FFE15A"/>
<path d="M9.28824 8.56445H10.2362L9.9518 8.94367L9.28824 9.13323L9.66741 9.32284H9.09863L9.28824 8.56445Z" fill="#FFE15A"/>
<path d="M9.42061 8.41588L8.52873 8.56452L8.14952 9.32291L7.7703 8.56452L6.87842 8.41588C6.77614 8.39882 6.69777 8.50499 6.74412 8.59771L7.20153 9.51251L6.82231 9.89173H8.14952H9.47672L9.09751 9.51251L9.55491 8.59771C9.60127 8.50499 9.52289 8.39882 9.42061 8.41588Z" fill="#F5F5F5"/>
<path d="M8.14962 7.22515C8.30669 7.22515 8.43401 7.09782 8.43401 6.94076C8.43401 6.7837 8.30669 6.65637 8.14962 6.65637C7.99256 6.65637 7.86523 6.7837 7.86523 6.94076C7.86523 7.09782 7.99256 7.22515 8.14962 7.22515Z" fill="#FFBE50"/>
<path d="M8.14566 7.77843C8.2698 7.77843 8.37043 7.70769 8.37043 7.62042C8.37043 7.53315 8.2698 7.4624 8.14566 7.4624C8.02153 7.4624 7.9209 7.53315 7.9209 7.62042C7.9209 7.70769 8.02153 7.77843 8.14566 7.77843Z" fill="#41479B"/>
<path d="M7.02359 7.77843C7.14772 7.77843 7.24835 7.70769 7.24835 7.62042C7.24835 7.53315 7.14772 7.4624 7.02359 7.4624C6.89946 7.4624 6.79883 7.53315 6.79883 7.62042C6.79883 7.70769 6.89946 7.77843 7.02359 7.77843Z" fill="#FF4B55"/>
<path d="M5.89859 7.77843C6.02272 7.77843 6.12335 7.70769 6.12335 7.62042C6.12335 7.53315 6.02272 7.4624 5.89859 7.4624C5.77446 7.4624 5.67383 7.53315 5.67383 7.62042C5.67383 7.70769 5.77446 7.77843 5.89859 7.77843Z" fill="#41479B"/>
<path d="M10.3859 7.77843C10.51 7.77843 10.6107 7.70769 10.6107 7.62042C10.6107 7.53315 10.51 7.4624 10.3859 7.4624C10.2618 7.4624 10.1611 7.53315 10.1611 7.62042C10.1611 7.70769 10.2618 7.77843 10.3859 7.77843Z" fill="#41479B"/>
<path d="M9.26676 7.77843C9.39089 7.77843 9.49152 7.70769 9.49152 7.62042C9.49152 7.53315 9.39089 7.4624 9.26676 7.4624C9.14262 7.4624 9.04199 7.53315 9.04199 7.62042C9.04199 7.70769 9.14262 7.77843 9.26676 7.77843Z" fill="#FF4B55"/>
<path d="M9.46798 7.22503C9.62504 7.22503 9.75237 7.0977 9.75237 6.94064C9.75237 6.78357 9.62504 6.65625 9.46798 6.65625C9.31092 6.65625 9.18359 6.78357 9.18359 6.94064C9.18359 7.0977 9.31092 7.22503 9.46798 7.22503Z" fill="#FFBE50"/>
<path d="M10.508 7.22503C10.6651 7.22503 10.7924 7.0977 10.7924 6.94064C10.7924 6.78357 10.6651 6.65625 10.508 6.65625C10.351 6.65625 10.2236 6.78357 10.2236 6.94064C10.2236 7.0977 10.351 7.22503 10.508 7.22503Z" fill="#FFBE50"/>
<path d="M6.83419 7.22503C6.99126 7.22503 7.11858 7.0977 7.11858 6.94064C7.11858 6.78357 6.99126 6.65625 6.83419 6.65625C6.67713 6.65625 6.5498 6.78357 6.5498 6.94064C6.5498 7.0977 6.67713 7.22503 6.83419 7.22503Z" fill="#FFBE50"/>
<path d="M5.79415 7.22503C5.95122 7.22503 6.07854 7.0977 6.07854 6.94064C6.07854 6.78357 5.95122 6.65625 5.79415 6.65625C5.63709 6.65625 5.50977 6.78357 5.50977 6.94064C5.50977 7.0977 5.63709 7.22503 5.79415 7.22503Z" fill="#FFBE50"/>
<path d="M8.47634 5.34128C8.50892 5.28532 8.52894 5.2211 8.52894 5.15168C8.52894 4.94224 8.35916 4.77246 8.14972 4.77246C7.94029 4.77246 7.77051 4.94224 7.77051 5.15168C7.77051 5.2211 7.79052 5.28532 7.8231 5.34128H8.47634Z" fill="#41479B"/>
<path d="M8.14953 13.7785C7.36541 13.7785 6.72754 13.1406 6.72754 12.3565V9.79688H9.57151V12.3565C9.57151 13.1406 8.93364 13.7785 8.14953 13.7785Z" fill="#FF4B55"/>
<path d="M9.47683 9.89163V12.3564C9.47683 13.0894 8.88265 13.6836 8.14963 13.6836C7.4166 13.6836 6.82242 13.0894 6.82242 12.3564V9.89163H9.47683ZM9.66644 9.70203H9.47683H6.82242H6.63281V9.89163V12.3564C6.63281 13.1928 7.31324 13.8733 8.14963 13.8733C8.98601 13.8733 9.66644 13.1928 9.66644 12.3564V9.89163V9.70203Z" fill="#A54B50"/>
<path d="M7.86719 13.6523C7.95887 13.6724 8.05389 13.6836 8.15158 13.6836C8.24931 13.6836 8.34428 13.6724 8.43596 13.6523V9.8916H7.86719V13.6523Z" fill="#F5F5F5"/>
<path d="M9.47863 11.4557H6.82422V12.0245H9.47863V11.4557Z" fill="#F5F5F5"/>
</g>
<defs>
<clipPath id="clip0_8615_27484">
<path d="M0 2C0 0.895432 0.895431 0 2 0H21.9998C23.1043 0 23.9998 0.895431 23.9998 2V21.9998C23.9998 23.1043 23.1043 23.9998 21.9998 23.9998H2C0.895432 23.9998 0 23.1043 0 21.9998V2Z" fill="white"/>
</clipPath>
</defs>
</svg>
