<svg width="24" height="24" viewBox="0 0 24 24" fill="none" xmlns="http://www.w3.org/2000/svg">
<g clip-path="url(#clip0_8615_27482)">
<path d="M23.9968 0H-0.00292969V23.9998H23.9968V0Z" fill="#FF4B55"/>
<path d="M-0.00292969 0V23.9998H23.9968L-0.00292969 0Z" fill="#FFE15A"/>
<path d="M13.1965 10.308C13.2672 10.2511 13.3257 10.1808 13.3035 10.1216C13.2851 10.0725 13.1938 10.027 13.0972 9.97876C12.9179 9.88919 12.6785 9.76623 12.599 9.47191C12.5895 9.47092 12.5807 9.47182 12.571 9.47003C12.4922 9.45546 12.4431 9.48255 12.3863 9.66738C12.3759 9.70113 12.3537 9.75527 12.3242 9.81719C12.3831 9.85628 12.5305 9.94703 12.6739 9.97961C12.9581 10.0442 13.1329 10.1541 13.1965 10.308Z" fill="#FFBE55"/>
<path d="M12.0938 10.1829C12.1786 10.2603 12.2565 10.3481 12.3331 10.4462C12.3375 10.4519 12.3423 10.4575 12.3467 10.4631C12.5371 10.3172 12.7791 10.3163 12.9475 10.3439C12.8986 10.2932 12.8035 10.2435 12.6232 10.2025C12.4559 10.1645 12.294 10.0699 12.2139 10.0184C12.1769 10.0778 12.1365 10.1341 12.0938 10.1829Z" fill="#FFBE55"/>
<path d="M13.0586 11.0206C13.1477 11.0722 13.327 11.1883 13.4822 11.3557C13.5051 11.2269 13.4982 11.056 13.3772 10.9055C13.2738 10.9627 13.1632 10.9989 13.0586 11.0206Z" fill="#FFBE55"/>
<path d="M11.5746 9.51598L11.5447 9.55231C11.3958 9.73437 11.2269 9.93284 11.0654 10.0946C11.1636 10.0483 11.2794 10.0144 11.3994 9.99626C11.4423 9.92749 11.5731 9.74515 11.7338 9.5254C11.6951 9.50089 11.6182 9.46311 11.5746 9.51598Z" fill="#FFBE55"/>
<path d="M10.9912 10.4387C10.992 10.4398 11.0021 10.4524 11.0305 10.4631C11.0799 10.4821 11.1716 10.4887 11.2671 10.4446C11.5455 10.3152 11.8264 10.386 12.1027 10.6533C12.1034 10.6541 12.1031 10.6553 12.1039 10.6561C12.1047 10.6569 12.1059 10.6567 12.1067 10.6575C12.1083 10.6591 12.2013 10.7524 12.3689 10.8378C12.2883 10.7532 12.2159 10.6669 12.1534 10.5869C12.0532 10.4589 11.9666 10.3485 11.8635 10.2827C11.6018 10.1166 11.1461 10.2622 11.0172 10.3982C10.9963 10.4205 10.9912 10.4351 10.9912 10.4387Z" fill="#FFBE55"/>
<path d="M13.1553 10.6038C13.1553 10.6038 13.1547 10.6039 13.1544 10.604C13.14 10.6107 13.1244 10.614 13.1083 10.6143C13.1076 10.6143 13.1069 10.6148 13.1061 10.6148C13.1045 10.6148 13.103 10.6133 13.1014 10.6132C13.0896 10.6127 13.0778 10.6119 13.0663 10.6076C13.0624 10.6062 12.7089 10.4817 12.4932 10.6379C12.5536 10.7059 12.6219 10.7685 12.6982 10.8257C12.8043 10.8282 13.1714 10.8218 13.3806 10.6264C13.4862 10.5278 13.4952 10.4201 13.4774 10.3353C13.3994 10.4578 13.2613 10.5534 13.1553 10.6038Z" fill="#FFBE55"/>
<path d="M9.93233 10.4877C9.91452 10.4619 9.89497 10.4395 9.87964 10.4089C9.85447 10.3586 9.8412 10.3052 9.82784 10.2521C9.74661 10.382 9.66111 10.5842 9.71319 10.808C9.77441 10.6632 9.8668 10.5532 9.93233 10.4877Z" fill="#FFBE55"/>
<path d="M11.9058 10.0521C12.0087 9.94464 12.1353 9.70605 12.1679 9.60025C12.1992 9.49816 12.2944 9.18771 12.6119 9.24513C12.6826 9.25821 12.735 9.2133 12.767 9.1737C12.6897 9.08557 12.5888 9.02843 12.5011 9.02637C12.4357 9.02013 12.3605 9.06181 12.3023 9.14009C12.0167 9.52497 11.7993 9.8222 11.6816 9.98809C11.7608 9.99719 11.8354 10.0203 11.9058 10.0521Z" fill="#FFBE55"/>
<path d="M11.1688 9.35934C10.9917 9.59568 10.8057 9.72904 10.6699 9.8264C10.491 9.95469 10.4468 9.99815 10.4576 10.0976C10.4598 10.1178 10.4684 10.1327 10.4864 10.147C10.5102 10.1658 10.5444 10.1793 10.5833 10.1893C10.5857 10.1881 10.5872 10.1861 10.5897 10.1851C10.8033 10.0982 11.2286 9.57843 11.3686 9.40757L11.3988 9.37068C11.547 9.19139 11.7556 9.26315 11.8697 9.34101C11.9091 9.28753 11.9488 9.23372 11.9885 9.18004C11.7824 8.93114 11.4414 8.99606 11.1688 9.35934Z" fill="#FFBE55"/>
<path d="M12.9689 9.28296C12.9352 9.33157 12.8868 9.38224 12.8252 9.42011C12.8821 9.60874 13.0406 9.69522 13.1992 9.7743C13.2933 9.82122 13.3819 9.868 13.4458 9.93423C13.4993 9.74261 13.4923 9.59022 13.4183 9.48433C13.3095 9.32904 13.0785 9.29121 12.9689 9.28296Z" fill="#FFBE55"/>
<path d="M12.1345 16.134L12.1593 16.1623C12.4737 16.5201 12.7706 16.8657 12.9684 17.1567C12.9624 16.9996 12.9517 16.8367 12.9328 16.7236C12.9322 16.7201 12.9318 16.7162 12.9316 16.7126C12.8307 16.5823 12.7221 16.4608 12.6075 16.3581C12.2725 16.0587 12.0836 15.7583 11.9779 15.5267C11.9599 15.7259 11.9825 15.9614 12.1345 16.134Z" fill="#FFBE55"/>
<path d="M11.9742 14.979C11.9474 14.9319 11.9231 14.8813 11.9033 14.8248C11.9031 14.8243 11.9033 14.8238 11.9031 14.8234C11.9015 14.8228 11.8998 14.8221 11.8982 14.8215C11.8297 14.9402 11.7042 15.0219 11.5702 15.0222C11.5702 15.0222 11.5698 15.0222 11.5696 15.0222C11.5593 15.0222 11.5501 15.0182 11.5399 15.0172C11.5225 15.0943 11.5168 15.1815 11.5656 15.2281C11.6205 15.2811 11.7322 15.2804 11.7905 15.2655C11.8189 15.1447 11.8502 15.0591 11.8542 15.0492C11.8735 15.0012 11.9222 14.9731 11.9742 14.979Z" fill="#FFBE55"/>
<path d="M11.7496 15.501C11.7375 15.5018 11.7264 15.5038 11.7138 15.5038C11.6797 15.5038 11.6442 15.4992 11.6086 15.4922C11.5876 15.5711 11.5803 15.66 11.6327 15.7136C11.6655 15.7471 11.7134 15.76 11.7527 15.7625C11.744 15.6723 11.742 15.5835 11.7496 15.501Z" fill="#FFBE55"/>
<path d="M7.50071 10.412L7.5002 10.4123C7.2707 10.489 6.99817 10.4703 6.75977 10.4236C6.8988 10.6379 6.9519 10.8962 6.95814 11.1365C7.25757 10.7459 7.58898 10.567 7.8263 10.4822C7.70424 10.4713 7.59418 10.4488 7.50071 10.412Z" fill="#FFBE55"/>
<path d="M12.9108 16.0934C12.8591 16.0894 12.7422 16.0747 12.6035 16.0325C12.6524 16.0841 12.7012 16.1358 12.7594 16.1878C13.1416 16.5295 13.4524 17.0498 13.6554 17.4511C13.7277 17.1921 13.8978 16.9701 14.0808 16.8016C13.57 16.7678 13.1705 16.4122 12.9108 16.0934Z" fill="#FFBE55"/>
<path d="M10.3265 11.9115C10.2429 11.8931 10.1487 11.8584 10.0572 11.8021C9.99597 11.9968 9.95322 12.1772 9.92969 12.3417C10.0563 12.33 10.1521 12.3311 10.2172 12.3364C10.2484 12.1618 10.2916 12.0122 10.3265 11.9115Z" fill="#FFBE55"/>
<path d="M6.71968 11.3547C6.74705 11.0846 6.73243 10.6534 6.43276 10.3943C6.43177 10.3941 6.43093 10.3946 6.42995 10.3944C6.42071 10.3932 5.56403 10.2696 4.99221 10.8537C4.77715 11.0734 4.63723 11.2454 4.52501 11.3835C4.37276 11.5711 4.26336 11.7056 4.08594 11.8098C4.62265 12.001 5.92337 12.3232 6.71968 11.3547Z" fill="#FFBE55"/>
<path d="M14.6792 7.89283C14.9185 8.02141 15.3226 8.17258 15.6761 7.99511C15.6766 7.99427 15.6765 7.99329 15.677 7.9924C15.6815 7.98494 16.1231 7.2402 15.8023 6.48829C15.6816 6.20549 15.5761 6.01054 15.4913 5.85398C15.3764 5.64173 15.2938 5.48906 15.2652 5.28516C14.8837 5.70843 14.0884 6.78678 14.6792 7.89283Z" fill="#FFBE55"/>
<path d="M14.3522 16.8741C14.1368 17.0393 13.8327 17.3451 13.8493 17.7406C13.85 17.7416 13.8512 17.7421 13.8519 17.7432C13.8568 17.7503 14.3544 18.4588 15.1716 18.4751C15.4799 18.4814 15.7004 18.4653 15.8781 18.4522C16.1191 18.4343 16.2919 18.4222 16.4891 18.4793C16.2599 17.9579 15.6029 16.7912 14.3522 16.8741Z" fill="#FFBE55"/>
<path d="M12.573 15.5815C12.5708 15.5771 12.5727 15.5721 12.5712 15.5675L12.415 15.7008C12.5173 15.7644 12.6253 15.8033 12.7176 15.8276C12.6255 15.6866 12.5748 15.5854 12.573 15.5815Z" fill="#FFBE55"/>
<path d="M11.9282 14.0573C11.8849 14.0544 11.8419 14.0497 11.7995 14.0422C11.7667 14.0952 11.6948 14.246 11.8009 14.436C11.8403 14.5069 11.9069 14.5956 11.9995 14.6173C12.0547 14.6299 12.1181 14.6113 12.1853 14.5753C12.0484 14.3539 11.9659 14.1585 11.9282 14.0573Z" fill="#FFBE55"/>
<path d="M14.2651 10.0367C14.3839 9.94773 14.6004 9.78081 14.8572 9.56125C14.9343 9.07249 15.2193 8.61739 15.4746 8.29344C15.215 8.32944 14.9489 8.26573 14.7246 8.16992C15.0247 8.97335 14.3749 9.86359 14.2529 10.0205C14.2569 10.0261 14.2613 10.0309 14.2651 10.0367Z" fill="#FFBE55"/>
<path d="M12.2459 15.5443L12.4528 15.3677C12.3183 15.3213 12.1894 15.2455 12.084 15.1304C12.0997 15.2031 12.1432 15.3529 12.2459 15.5443Z" fill="#FFBE55"/>
<path d="M9.69272 12.3749C9.71883 12.1543 9.77686 11.9084 9.8671 11.6401C9.80925 11.5742 9.75849 11.494 9.71808 11.3983C9.61126 11.6454 9.4569 12.0498 9.39746 12.4415C9.50602 12.4128 9.60436 12.3909 9.69272 12.3749Z" fill="#FFBE55"/>
<path d="M13.6952 9.58997C13.7212 9.73842 13.7042 9.90914 13.6328 10.1068C13.6757 10.1831 13.712 10.2894 13.7121 10.4048C13.8026 10.3855 13.8093 10.3307 13.8373 10.0318L13.8492 9.90824C13.8605 9.79485 13.8401 9.70823 13.7885 9.65137C13.7618 9.62179 13.7286 9.60379 13.6952 9.58997Z" fill="#FFBE55"/>
<path d="M13.6709 11.5434C13.7452 11.528 13.8393 11.4957 13.9145 11.4263C14.0284 11.3212 14.1544 11.0986 14.1337 10.9986C14.1312 10.9861 14.1281 10.978 14.1064 10.9703C14.0238 10.9408 13.9989 10.9516 13.9991 10.9518C13.994 10.9557 13.9846 10.9765 13.9791 10.9887C13.9648 11.0203 13.9455 11.0632 13.9024 11.0914C13.8365 11.1344 13.7742 11.1458 13.7169 11.146C13.7333 11.3056 13.7018 11.4506 13.6709 11.5434Z" fill="#FFBE55"/>
<path d="M9.48211 10.5415C9.49781 10.4366 9.52847 10.3389 9.56981 10.2511C9.36183 10.1733 8.89201 10.0216 8.50811 10.0744C7.96591 10.1473 7.55365 10.0866 7.29199 10.0164C7.41729 10.1455 7.63254 10.2798 7.96933 10.2658C8.80496 10.2491 9.28402 10.438 9.48211 10.5415Z" fill="#FFBE55"/>
<path d="M8.43348 10.5088C8.23572 10.6637 8.08989 10.8498 7.99023 11.0088C8.2974 10.8495 8.69181 10.6906 8.95266 10.5908C8.81218 10.5552 8.63935 10.5258 8.43348 10.5088Z" fill="#FFBE55"/>
<path d="M14.0598 10.7264C14.0952 10.7305 14.1336 10.7382 14.178 10.7536C14.1762 10.7448 14.1747 10.7369 14.1724 10.7263C14.1585 10.6618 14.1405 10.5729 14.145 10.4435C14.145 10.4426 14.1445 10.4419 14.1445 10.4411C14.1445 10.4403 14.1449 10.4395 14.1448 10.4387C14.1449 10.4361 14.1445 10.4346 14.1446 10.4318C14.1502 10.3118 14.1096 10.2146 14.0566 10.1426C14.041 10.2971 14.0207 10.4138 13.9658 10.4958C13.9986 10.5474 14.0369 10.6274 14.0598 10.7264Z" fill="#FFBE55"/>
<path d="M14.3545 10.2549C14.3583 10.2716 14.3618 10.2885 14.3643 10.3059C15.0339 10.215 15.5095 9.54155 15.7837 9.00208C15.2009 9.61904 14.5461 10.1142 14.3545 10.2549Z" fill="#FFBE55"/>
<path d="M11.5686 14.7935H11.5687C11.6259 14.7933 11.6843 14.7503 11.7091 14.6934C11.6697 14.6516 11.6325 14.6047 11.6006 14.5474C11.5792 14.5091 11.5652 14.4724 11.5525 14.436C11.5073 14.4635 11.4574 14.5025 11.435 14.5528C11.4181 14.59 11.4189 14.629 11.437 14.6754C11.4582 14.7292 11.498 14.7935 11.5686 14.7935Z" fill="#FFBE55"/>
<path d="M9.15964 12.5111C9.2052 12.0997 9.3552 11.6738 9.4737 11.3892C9.39959 11.4456 9.30701 11.5035 9.19268 11.5582C9.17989 11.5866 8.94908 12.1038 8.86133 12.6159C8.96694 12.5758 9.0664 12.541 9.15964 12.5111Z" fill="#FFBE55"/>
<path d="M13.2091 16.0899C13.3424 16.1039 13.4659 16.0976 13.5734 16.0825C13.37 16.0131 13.1671 15.9211 13.001 15.8384C13.0597 15.9188 13.1293 16.0054 13.2091 16.0899Z" fill="#FFBE55"/>
<path d="M11.5747 13.9797C11.0248 13.7708 10.591 13.1791 10.4356 12.4265C10.3898 12.7186 10.3869 13.0804 10.5425 13.4049C10.711 13.7568 11.0449 14.0042 11.5238 14.1497C11.5341 14.0817 11.5535 14.0244 11.5747 13.9797Z" fill="#FFBE55"/>
<path d="M14.5005 10.5216C14.4883 10.5242 14.4751 10.524 14.4629 10.5263C14.6157 10.6934 15.2296 11.4366 15.3958 12.7337C15.5101 12.7774 15.6166 12.8223 15.7068 12.8677C15.6472 12.3399 15.4083 11.0051 14.5005 10.5216Z" fill="#FFBE55"/>
<path d="M8.61694 12.7141C8.66461 12.3194 8.80341 11.9136 8.89781 11.6731C8.80219 11.7029 8.69588 11.7293 8.57888 11.7516C8.37282 12.0969 8.24794 12.6147 8.19043 12.907C8.34216 12.8333 8.48293 12.7706 8.61694 12.7141Z" fill="#FFBE55"/>
<path d="M12.316 14.7678C12.2588 14.8012 12.2053 14.8229 12.1562 14.8349C12.2837 15.0873 12.5206 15.1734 12.7217 15.1957C12.5591 15.067 12.4266 14.9174 12.316 14.7678Z" fill="#FFBE55"/>
<path d="M10.6718 10.492C10.7001 10.479 10.7352 10.4689 10.7673 10.4574C10.7667 10.4515 10.7652 10.446 10.7652 10.4399C10.6313 10.4372 10.4563 10.4155 10.3439 10.326C10.2782 10.2735 10.239 10.2033 10.2302 10.1227C10.2035 9.87947 10.3653 9.76337 10.5364 9.64074C10.6062 9.59059 10.6854 9.53256 10.7677 9.45896C10.5172 9.44185 10.2925 9.52571 10.153 9.70712C10.0151 9.88632 9.98856 10.1161 10.084 10.3066C10.2139 10.5673 10.4945 10.5412 10.6718 10.492Z" fill="#FFBE55"/>
<path d="M10.3629 10.7462C10.2962 10.7385 10.2316 10.7178 10.1693 10.6898C10.1595 10.8205 10.1676 10.9978 10.2526 11.1019C10.2547 11.0435 10.2619 10.9841 10.279 10.9256C10.2953 10.8697 10.3216 10.8078 10.3629 10.7462Z" fill="#FFBE55"/>
<path d="M11.2194 10.8247C11.4914 10.8461 11.7002 10.7769 11.8246 10.7184C11.6158 10.5694 11.464 10.605 11.3636 10.6518C11.2023 10.7269 11.0217 10.7222 10.8997 10.6518C10.8546 10.6722 10.8058 10.6926 10.7488 10.7089C10.6213 10.7729 10.5384 10.8641 10.5016 10.9807C10.49 11.0174 10.4882 11.0536 10.4854 11.0897C10.4877 11.0877 10.4878 11.084 10.4903 11.0822C10.7521 10.8947 10.9972 10.8105 11.2194 10.8247Z" fill="#FFBE55"/>
<path d="M12.461 13.9745C12.3676 14.0113 12.2712 14.0384 12.1719 14.0518C12.2377 14.2089 12.3677 14.4761 12.5737 14.7269C12.6809 14.5462 12.5546 14.1573 12.461 13.9745Z" fill="#FFBE55"/>
<path d="M10.2905 11.3901C10.0478 11.3186 9.95397 11.0959 9.93667 10.8658C9.88445 10.9751 9.85647 11.1117 9.90883 11.2635C10.0142 11.568 10.2442 11.6568 10.3794 11.6851C10.3809 11.6496 10.3824 11.6143 10.3851 11.5791C10.3843 11.5783 10.3833 11.5781 10.3825 11.5773C10.3511 11.5423 10.3165 11.4748 10.2905 11.3901Z" fill="#FFBE55"/>
<path d="M9.47798 10.7972C9.46969 10.7936 9.46045 10.7944 9.45295 10.7888C9.45169 10.7879 9.39919 10.753 9.30155 10.7086C8.95791 10.8941 8.76493 11.2724 8.67676 11.4978C9.29939 11.347 9.49683 11.0636 9.53541 10.9975C9.50709 10.9301 9.48787 10.8631 9.47798 10.7972Z" fill="#FFBE55"/>
<path d="M13.5013 13.3097C13.6168 13.0595 13.6417 12.773 13.5805 12.4556C13.4424 13.0916 13.1046 13.6098 12.667 13.8735C12.687 13.9136 12.7091 13.9632 12.7321 14.0222C12.9039 13.947 13.3052 13.734 13.5013 13.3097Z" fill="#FFBE55"/>
<path d="M13.7766 10.9004C13.7904 10.8632 13.8111 10.8245 13.8413 10.7923C13.8279 10.7211 13.7996 10.6614 13.7758 10.6229C13.7418 10.6319 13.7036 10.6386 13.66 10.6429C13.657 10.6432 13.6541 10.6433 13.6511 10.6434C13.6282 10.686 13.5978 10.7279 13.5586 10.7686C13.5934 10.8126 13.6235 10.8567 13.6455 10.9021C13.6515 10.9054 13.6589 10.9034 13.6644 10.9078C13.6736 10.9144 13.7163 10.9398 13.7766 10.9004Z" fill="#FFBE55"/>
<path d="M14.1016 11.561C14.2197 11.8711 14.2933 12.1534 14.3225 12.4025C14.4155 12.4267 14.5147 12.4534 14.6177 12.4824C14.5586 12.0433 14.374 11.5817 14.2649 11.3372C14.2164 11.4242 14.1577 11.5025 14.1016 11.561Z" fill="#FFBE55"/>
<path d="M14.0828 12.3417C14.0524 12.1492 13.9944 11.9352 13.9094 11.7025C13.8126 11.7498 13.7175 11.77 13.6474 11.779C13.6475 11.7911 13.6487 11.8029 13.6487 11.8151C13.6487 11.8441 13.6463 11.8724 13.6455 11.9012C13.6482 11.9058 13.6523 11.9093 13.6544 11.9145C13.7041 12.0356 13.7419 12.1532 13.772 12.2683C13.808 12.2764 13.9218 12.3022 14.0828 12.3417Z" fill="#FFBE55"/>
<path d="M14.8564 12.5518C14.954 12.5813 15.0518 12.6122 15.147 12.6442C15.0026 11.719 14.6239 11.1041 14.4124 10.8269C14.4105 10.8715 14.401 10.9196 14.3742 10.9755C14.371 10.9821 14.3645 10.9852 14.3604 10.9909C14.3614 11.0034 14.3634 11.0157 14.3632 11.0287C14.3716 11.0369 14.3799 11.0456 14.3855 11.0567C14.402 11.0888 14.7909 11.8526 14.8564 12.5518Z" fill="#FFBE55"/>
<path d="M12.0123 13.8344C12.7897 13.8344 13.422 12.9286 13.422 11.8151C13.422 11.7541 13.4201 11.6939 13.4164 11.6341C13.2653 11.407 13.0011 11.2486 12.9228 11.2052C12.4568 11.1968 12.1458 10.9893 12.0132 10.8795C11.8813 10.956 11.5952 11.081 11.2037 11.0528C11.045 11.0426 10.8631 11.1048 10.6604 11.243C10.622 11.4284 10.6025 11.6204 10.6025 11.8151C10.6025 12.9286 11.2349 13.8344 12.0123 13.8344Z" fill="#FFD7AA"/>
<path d="M6.49575 15.2612C6.51661 15.2555 6.72628 15.1986 7.03335 15.1734C8.4552 14.8529 10.1247 13.833 10.4256 13.6443C10.3961 13.5973 10.3622 13.5532 10.3381 13.5026C10.1884 13.1896 10.1645 12.8556 10.1896 12.5642C9.97539 12.5505 9.3221 12.5811 8.09319 13.2124C8.07669 13.2207 8.05883 13.2249 8.04097 13.2249C8.01762 13.2249 7.99437 13.2178 7.97473 13.2037C7.93991 13.179 7.92177 13.1368 7.92786 13.0945C7.93142 13.0691 7.98959 12.6716 8.12239 12.2489C7.41627 12.3969 5.92566 13.9014 5.10498 14.7304C4.94987 14.8873 4.81028 15.0284 4.69211 15.1448C4.67575 15.1609 4.65845 15.1761 4.64106 15.1915C4.53733 15.2832 4.43018 15.3779 4.50607 15.9238C4.576 16.4278 5.2315 16.4793 5.71923 16.4825H5.75494C5.90841 16.4825 6.27792 16.6102 6.91809 16.8361C7.5396 17.0555 8.24403 17.3041 8.70021 17.3895C8.91841 17.43 9.12321 17.4666 9.31206 17.5002C9.88867 17.6032 10.3052 17.6773 10.5233 17.7675C10.7879 17.8771 11.0798 18.4179 11.3326 18.9162L11.3811 19.0112C11.5301 19.2987 11.5581 19.6586 11.4539 19.9501C11.4033 20.092 11.4395 20.1665 11.4575 20.1921C11.4752 20.2171 11.4959 20.226 11.5082 20.226C11.567 20.226 11.6094 20.226 11.6564 20.0772C11.7158 19.8894 11.7307 19.8712 11.9804 19.5691L12.0487 19.4866C12.3062 19.1744 12.0483 18.5338 11.9243 18.2257L11.9069 18.1825C11.8188 17.9623 11.8968 17.731 11.9723 17.5074C12.0236 17.3553 12.0766 17.1981 12.0766 17.0478C12.0766 17.0151 12.0679 16.9931 12.0471 16.9734C11.9272 16.8597 11.5204 16.8814 11.2232 16.8966C11.1136 16.9026 11.0098 16.9079 10.9208 16.9079C10.4605 16.9079 9.72222 16.448 8.64837 15.7461C8.11601 15.3987 7.4848 15.3687 7.05646 15.4029C6.87904 15.4416 6.7049 15.4699 6.5369 15.4851C6.47901 15.4901 6.42483 15.4502 6.41414 15.3919C6.40331 15.3338 6.43875 15.2769 6.49575 15.2612Z" fill="#FFD7AA"/>
<path d="M19.6298 7.75428C19.4366 7.79507 19.4134 7.79061 19.0248 7.71974L18.9224 7.70127C18.523 7.62772 18.0919 8.16833 17.8841 8.42698L17.8547 8.46331C17.7058 8.64785 17.4662 8.69281 17.2345 8.73659C17.0766 8.76635 16.9134 8.79701 16.7823 8.87084C16.7538 8.88663 16.7388 8.90538 16.7318 8.93304C16.6913 9.09288 16.9092 9.43727 17.0683 9.6888C17.127 9.78137 17.1825 9.8695 17.2261 9.94689C17.4513 10.3479 17.4115 11.217 17.3252 12.4973C17.2803 13.1655 17.5966 13.7567 17.843 14.1092C17.9424 14.2214 18.0384 14.3398 18.1291 14.464C18.1644 14.5122 18.1565 14.5795 18.1111 14.6182C18.0657 14.6575 17.998 14.6542 17.9559 14.6119C17.9417 14.5976 17.8109 14.4643 17.6552 14.2428C17.0303 13.5468 16.2629 13.0866 15.9438 12.912C15.9521 13.0029 15.9553 13.0647 15.9558 13.0778C15.9576 13.1225 15.933 13.1638 15.8933 13.184C15.8769 13.1921 15.8592 13.1962 15.8416 13.1962C15.8163 13.1962 15.7912 13.1879 15.7705 13.1715C15.4675 12.9302 14.3541 12.637 13.8255 12.5145C13.8721 12.8407 13.8337 13.1397 13.7093 13.4079C13.5815 13.683 13.3851 13.8767 13.2002 14.0128C14.1697 15.2106 16.4654 15.7224 17.8476 16.0291C18.2035 16.108 18.511 16.1761 18.7371 16.2416C18.7592 16.2482 18.781 16.2556 18.8028 16.2634C18.9337 16.3089 19.0683 16.3562 19.5077 16.0226C19.913 15.7148 19.6409 15.1153 19.4008 14.6911L19.3834 14.6602C19.3084 14.5265 19.2389 14.1416 19.1227 13.4731C19.0097 12.8236 18.8817 12.0874 18.7327 11.6478C18.6611 11.4367 18.5925 11.2394 18.5291 11.0575C18.3371 10.5056 18.1982 10.1067 18.1703 9.87306C18.1363 9.58877 18.4646 9.06996 18.7751 8.6059L18.8348 8.516C19.013 8.24511 19.313 8.04477 19.618 7.99302C19.7664 7.9677 19.8137 7.89955 19.8271 7.87156C19.8402 7.84386 19.838 7.82155 19.832 7.81086C19.8034 7.75968 19.7826 7.72185 19.6298 7.75428Z" fill="#FFD7AA"/>
<path d="M4.74228 7.67697C4.8755 7.82252 4.88365 7.84455 5.0209 8.21247L5.05812 8.31189C5.2001 8.69143 5.88443 8.78785 6.2132 8.83398L6.25877 8.84054C6.49347 8.87419 6.65467 9.05696 6.81062 9.23405C6.91688 9.35461 7.02671 9.47902 7.15698 9.55406C7.18557 9.57042 7.20919 9.57398 7.23629 9.56569C7.39463 9.51895 7.57922 9.15582 7.71389 8.8906C7.76377 8.79268 7.81092 8.69977 7.85545 8.62271C8.08481 8.22475 8.85219 7.81455 9.99673 7.23438C10.6275 6.91437 10.9788 6.29225 11.146 5.90174C11.1845 5.77372 11.2277 5.65199 11.2764 5.53827C11.3 5.4832 11.3615 5.45732 11.4182 5.47485C11.4748 5.49421 11.5071 5.55374 11.4922 5.61177C11.4877 5.62935 11.4478 5.77935 11.3578 5.9916C11.0515 7.03348 11.0653 8.50923 11.0858 9.1035C11.3166 8.8508 11.536 8.79352 11.6872 8.79352C11.854 8.79352 12.0068 8.86665 12.1289 8.99485C12.2568 8.82896 12.4026 8.7968 12.5089 8.7977C12.7017 8.80243 12.8617 8.92623 12.9634 9.0548C13.0749 9.06047 13.3267 9.09019 13.5102 9.24722C13.7629 8.0065 13.1819 6.24359 12.7896 5.05631C12.6668 4.6845 12.5607 4.36336 12.494 4.10733C12.4882 4.08502 12.4835 4.06238 12.4788 4.03946C12.4511 3.90404 12.4226 3.76384 11.9119 3.55693C11.4398 3.36433 11.064 3.90582 10.8219 4.32849L10.804 4.35975C10.7274 4.49283 10.4318 4.74942 9.91592 5.19145C9.41586 5.62007 8.84891 6.10616 8.54742 6.45861C8.40318 6.62708 8.26926 6.78603 8.14584 6.93279C7.76883 7.3811 7.49635 7.70496 7.30927 7.84872C7.08184 8.02375 6.46717 8.0065 5.90829 7.97641L5.80319 7.97106C5.62704 7.96328 5.45234 7.91069 5.29549 7.82903L5.28246 7.8258L5.27478 7.81647C5.15225 7.74953 5.03993 7.66685 4.95364 7.56532C4.89701 7.49866 4.84672 7.47072 4.8073 7.45788L4.68172 7.48577C4.65641 7.53133 4.64497 7.57085 4.74228 7.67697Z" fill="#FFD7AA"/>
<path d="M20.0331 7.69902C19.9422 7.53679 19.8036 7.48499 19.5848 7.53055C19.4352 7.5621 19.4352 7.56182 19.0674 7.49512L18.9647 7.47637C18.4313 7.37934 17.9427 7.99072 17.7076 8.28392L17.6785 8.31992C17.5825 8.43898 17.4024 8.47264 17.1939 8.51192C17.018 8.54525 16.836 8.57951 16.6721 8.67148C16.5897 8.71793 16.5342 8.78876 16.5118 8.87688C16.4474 9.1323 16.6657 9.4773 16.8769 9.81095C16.9332 9.89997 16.9866 9.98448 17.0284 10.0589C17.2371 10.4307 17.1669 11.4735 17.099 12.4819C17.0724 12.8775 17.157 13.2442 17.2824 13.558C16.6341 13.0001 16.0126 12.6853 15.9118 12.6359C15.8224 12.0304 15.557 10.962 14.7846 10.428C15.7891 9.9828 16.2664 8.46847 16.2892 8.39398C16.3055 8.34069 16.2812 8.28355 16.2313 8.25856C16.1819 8.23325 16.121 8.24783 16.0879 8.29278C15.8255 8.64898 15.4881 8.99477 15.1695 9.2876C15.3645 8.73668 15.7976 8.2557 15.9854 8.06628C16.0184 8.03802 16.0507 8.00647 16.0821 7.97221C16.1232 7.92725 16.1219 7.85788 16.0789 7.81443C16.0635 7.79896 16.0429 7.79516 16.0231 7.79033C16.1399 7.46779 16.2483 6.94256 16.0162 6.39839C15.8914 6.10608 15.7831 5.90574 15.696 5.74501C15.5399 5.45659 15.4686 5.32501 15.4901 5.02047C15.4933 4.97402 15.4682 4.93028 15.4265 4.91003C15.3848 4.88917 15.335 4.89606 15.3001 4.927C15.2842 4.94106 13.8107 6.27596 14.3703 7.75386C14.3534 7.75977 14.3353 7.76329 14.3223 7.77716C14.2825 7.82 14.2815 7.8861 14.32 7.93016C14.9479 8.64654 14.2521 9.64811 14.0928 9.85816C14.0892 9.85581 14.0858 9.85267 14.0822 9.85047C14.0822 9.70746 14.0436 9.58811 13.9618 9.49769C13.89 9.41833 13.8007 9.37643 13.7218 9.35402C14.0199 8.05246 13.4389 6.28721 13.0086 4.98447C12.887 4.61627 12.7819 4.29865 12.717 4.04951C12.7122 4.03104 12.7085 4.01262 12.7046 3.99382C12.6604 3.77712 12.5769 3.57889 11.9996 3.34489C11.2891 3.05736 10.7893 3.92862 10.6253 4.21498L10.6078 4.24535C10.547 4.35101 10.1514 4.69005 9.76888 5.0178C9.26254 5.45181 8.68852 5.94385 8.37535 6.30966C8.23083 6.47874 8.09659 6.63858 7.97274 6.78562C7.61865 7.20651 7.33914 7.53871 7.17171 7.66762C6.99236 7.80575 6.21471 7.76375 5.9224 7.748L5.81525 7.74233C5.55299 7.73071 5.2903 7.6063 5.12957 7.41698C5.01215 7.27856 4.86421 7.20801 4.72354 7.21964C4.62365 7.22887 4.53675 7.28123 4.49123 7.36012C4.39837 7.52118 4.42439 7.66672 4.57561 7.83135C4.67873 7.94417 4.67873 7.94417 4.80852 8.29212L4.84588 8.39216C5.03549 8.89878 5.81061 9.00771 6.18317 9.0604L6.22812 9.06663C6.37948 9.08838 6.50065 9.22587 6.64099 9.38515C6.74027 9.49764 6.84761 9.60789 6.97389 9.69766C6.96611 9.70155 6.95711 9.70183 6.95027 9.7075C6.91441 9.73727 6.89997 9.7855 6.9138 9.82984C6.91507 9.83369 6.99405 10.0473 7.20578 10.2317C6.8718 10.248 6.4901 10.1202 6.33706 10.0615C6.31278 10.0507 6.28765 10.0406 6.26173 10.0311C6.2037 10.0097 6.13967 10.0391 6.11661 10.096C6.10873 10.1155 6.10854 10.1357 6.11154 10.1552C5.7688 10.1713 5.24497 10.2731 4.8329 10.6934C4.61039 10.9208 4.46676 11.0973 4.35159 11.2393C4.14473 11.4938 4.05019 11.6099 3.76074 11.7066C3.71668 11.7212 3.68588 11.7611 3.68288 11.8075C3.67974 11.854 3.70505 11.8974 3.74686 11.9177C3.75863 11.9234 4.4385 12.2463 5.22819 12.2463C5.72712 12.2463 6.26974 12.1166 6.71562 11.6973C6.72743 11.7101 6.73718 11.7252 6.75452 11.7316C6.7676 11.7364 6.78101 11.7388 6.79427 11.7388C6.83669 11.7388 6.877 11.715 6.89683 11.6751C7.22678 11.0072 7.6817 10.767 7.94649 10.681C7.71048 10.9815 7.60661 11.2653 7.60084 11.2822C7.58387 11.3307 7.60159 11.3849 7.64415 11.414C7.68672 11.4432 7.74371 11.4402 7.78286 11.4066C7.95521 11.2598 8.37493 11.0708 8.73075 10.9255C8.5155 11.2203 8.42218 11.533 8.40249 11.6051C8.32758 11.7254 8.26294 11.8641 8.20744 12.0078C7.5122 12.0329 6.215 13.2851 4.94366 14.5695C4.78931 14.7255 4.65032 14.8657 4.53271 14.9815C4.51917 14.9949 4.50501 15.0074 4.49057 15.0202C4.32506 15.1667 4.19484 15.3378 4.28058 15.9552C4.38623 16.7148 5.39118 16.713 5.72098 16.7109H5.75595C5.87769 16.7109 6.36842 16.8842 6.84288 17.0515C7.47231 17.2739 8.18565 17.5254 8.65922 17.6138C8.87799 17.6548 9.08353 17.6915 9.273 17.7251C9.81416 17.8215 10.2416 17.8981 10.4367 17.9787C10.6455 18.065 10.9972 18.7583 11.1297 19.0194L11.1791 19.1164C11.2999 19.3492 11.3231 19.6394 11.2396 19.873C11.1786 20.0439 11.1902 20.2079 11.2714 20.3234C11.3293 20.4053 11.4182 20.4544 11.5091 20.4544C11.6951 20.4544 11.808 20.3591 11.8753 20.146C11.9213 20.0004 11.9213 20.0004 12.1575 19.7147L12.226 19.6316C12.5701 19.2146 12.2779 18.4888 12.1374 18.14L12.1202 18.0972C12.0634 17.9552 12.1219 17.7813 12.1898 17.5804C12.2471 17.4107 12.3062 17.2354 12.3062 17.0476C12.3062 16.9529 12.2714 16.8699 12.2054 16.8071C12.0143 16.6258 11.6062 16.6478 11.2121 16.668C11.1069 16.6737 11.0072 16.6791 10.9217 16.6791C10.4952 16.6791 9.62034 16.1075 8.77434 15.5548C8.45686 15.3473 8.11276 15.2416 7.7904 15.194C9.07158 14.7554 10.3219 13.9815 10.5623 13.8288C10.7499 14.0424 11.0003 14.2121 11.3222 14.3283C11.2864 14.3641 11.2537 14.4069 11.2308 14.4575C11.1885 14.551 11.1876 14.6549 11.2281 14.7585C11.2532 14.8226 11.2902 14.8731 11.3323 14.9153C11.2591 15.1717 11.3309 15.3132 11.4063 15.388C11.324 15.6432 11.3952 15.7933 11.4731 15.8732C11.5548 15.9569 11.6682 15.9926 11.7682 15.9926C11.7814 15.9926 11.7921 15.9885 11.8047 15.9873C11.8388 16.0917 11.8863 16.194 11.9662 16.2849L11.991 16.3129C12.3362 16.7055 12.9136 17.3624 12.9818 17.6691C12.9946 17.7262 13.0483 17.7631 13.1053 17.7581C13.1631 17.7521 13.2071 17.7036 13.2077 17.6456C13.2079 17.6286 13.2103 17.3646 13.1982 17.0955C13.4518 17.5069 13.6268 17.915 13.6855 18.0584C13.6926 18.0778 13.7005 18.0974 13.709 18.1171C13.7276 18.1602 13.7697 18.1861 13.8139 18.1861C13.8282 18.1861 13.8428 18.1835 13.857 18.1778C13.8761 18.17 13.8905 18.1566 13.9024 18.1414C14.1491 18.3799 14.5822 18.6917 15.1707 18.7035C15.4885 18.7085 15.7159 18.6931 15.8983 18.6799C16.2253 18.6559 16.3744 18.6451 16.6431 18.7895C16.66 18.7987 16.6787 18.8032 16.6973 18.8032C16.7233 18.8032 16.7491 18.7943 16.7701 18.777C16.8059 18.7475 16.8202 18.699 16.8064 18.6549C16.7999 18.6347 16.1876 16.7452 14.611 16.6463C14.6126 16.6283 14.6167 16.6103 14.6093 16.5927C14.5865 16.5385 14.5268 16.5099 14.4707 16.5278C14.0806 16.6471 13.7415 16.5225 13.4719 16.3227C13.8206 16.301 14.0626 16.181 14.0753 16.1748C14.1205 16.1519 14.1454 16.1018 14.1362 16.0522C14.1271 16.0021 14.0862 15.9644 14.0357 15.959C13.5248 15.9051 12.7455 15.4383 12.7378 15.4336C12.7347 15.4318 12.7309 15.4329 12.7277 15.4314C12.7293 15.4296 12.7306 15.4277 12.732 15.4259C12.7757 15.43 12.8187 15.4321 12.8601 15.4321C12.957 15.4321 13.0456 15.422 13.1171 15.4068C13.1649 15.3967 13.2009 15.3574 13.2069 15.3092C13.213 15.2606 13.1877 15.2139 13.1439 15.1922C12.9881 15.1155 12.8532 15.012 12.7356 14.8977C12.8764 14.7268 12.8632 14.4689 12.8047 14.241C12.8559 14.2198 12.9255 14.1866 13.0093 14.1391C14.02 15.4111 16.2901 15.9169 17.7996 16.2521C18.1517 16.3301 18.4558 16.3977 18.6752 16.4611C18.6933 16.4664 18.711 16.4727 18.7292 16.479C18.8011 16.5039 18.8735 16.5239 18.9577 16.5239C19.1181 16.5239 19.3219 16.4516 19.6476 16.2045C20.2587 15.7402 19.7641 14.8656 19.6014 14.5783L19.5845 14.548C19.5249 14.442 19.4358 13.9294 19.3496 13.4338C19.2351 12.776 19.1055 12.0306 18.9508 11.5743C18.879 11.3624 18.8101 11.1644 18.7467 10.9822C18.5663 10.464 18.4239 10.055 18.399 9.84541C18.3721 9.62158 18.8042 8.9756 18.9668 8.73275L19.0275 8.64134C19.1719 8.42164 19.4133 8.25974 19.6579 8.21834C19.8368 8.18769 19.9743 8.09717 20.035 7.96949C20.0783 7.87939 20.0776 7.77819 20.0331 7.69902ZM19.8289 7.87166C19.8155 7.89964 19.7682 7.9678 19.6198 7.99311C19.3148 8.04491 19.0148 8.24525 18.8366 8.51609L18.777 8.606C18.4665 9.07005 18.1381 9.58891 18.1721 9.87316C18.2001 10.1068 18.3389 10.5057 18.5309 11.0576C18.5943 11.2395 18.6629 11.4368 18.7345 11.6479C18.8835 12.0875 19.0115 12.8237 19.1245 13.4732C19.2407 14.1417 19.3102 14.5266 19.3852 14.6603L19.4026 14.6912C19.6427 15.1154 19.9148 15.7149 19.5095 16.0227C19.0702 16.3564 18.9354 16.309 18.8047 16.2635C18.7828 16.2557 18.7611 16.2483 18.7389 16.2417C18.5128 16.1762 18.2053 16.1081 17.8494 16.0292C16.4672 15.7225 14.1715 15.2107 13.202 14.0129C13.3869 13.8768 13.5833 13.6831 13.7111 13.408C13.8355 13.1398 13.8739 12.8408 13.8274 12.5146C14.3559 12.6371 15.4693 12.9303 15.7723 13.1716C15.793 13.188 15.8181 13.1963 15.8434 13.1963C15.861 13.1963 15.8787 13.1922 15.8951 13.1841C15.9349 13.1639 15.9594 13.1225 15.9576 13.0779C15.9572 13.0648 15.9539 13.003 15.9456 12.9121C16.2647 13.0867 17.0321 13.5469 17.657 14.2429C17.8127 14.4644 17.9435 14.5978 17.9577 14.612C17.9998 14.6543 18.0675 14.6576 18.1129 14.6183C18.1583 14.5795 18.1662 14.5123 18.1309 14.4641C18.0403 14.34 17.9443 14.2215 17.8448 14.1093C17.5984 13.7568 17.2821 13.1657 17.3271 12.4974C17.4134 11.2171 17.4531 10.3479 17.2279 9.94698C17.1843 9.86959 17.1288 9.78147 17.0702 9.68889C16.9111 9.43736 16.6931 9.09298 16.7336 8.93313C16.7406 8.90543 16.7557 8.88668 16.7841 8.87093C16.9152 8.7971 17.0785 8.76645 17.2364 8.73668C17.468 8.6929 17.7076 8.648 17.8566 8.4634L17.8859 8.42708C18.0937 8.16842 18.5249 7.62782 18.9242 7.70136L19.0266 7.71983C19.4152 7.79066 19.4384 7.79516 19.6316 7.75438C19.7845 7.72194 19.8051 7.75972 19.8339 7.81096C19.8397 7.82164 19.842 7.844 19.8289 7.87166ZM15.882 18.4522C15.7043 18.4653 15.4837 18.4814 15.1755 18.4752C14.3582 18.4588 13.8607 17.7503 13.8558 17.7432C13.8551 17.7421 13.8539 17.7417 13.8532 17.7406C13.8366 17.3451 14.1407 17.0393 14.356 16.8741C15.6068 16.7912 16.2638 17.9579 16.4929 18.4793C16.2957 18.4222 16.123 18.4344 15.882 18.4522ZM13.6596 17.4512C13.4566 17.0499 13.1458 16.5296 12.7637 16.1879C12.7055 16.1358 12.6565 16.0841 12.6077 16.0325C12.7464 16.0747 12.8633 16.0895 12.9151 16.0935C13.1747 16.4122 13.5742 16.7679 14.085 16.8017C13.902 16.9702 13.7319 17.1922 13.6596 17.4512ZM11.6129 15.4922C11.6484 15.4993 11.684 15.5038 11.7181 15.5038C11.7307 15.5038 11.7418 15.5019 11.7539 15.5011C11.7462 15.5835 11.7483 15.6724 11.7569 15.7626C11.7176 15.7601 11.6697 15.7471 11.6369 15.7137C11.5846 15.6601 11.5919 15.5712 11.6129 15.4922ZM11.7937 15.2656C11.7354 15.2805 11.6237 15.2812 11.5688 15.2282C11.52 15.1817 11.5256 15.0945 11.5431 15.0174C11.5533 15.0182 11.5624 15.0223 11.5728 15.0223C11.5729 15.0223 11.5731 15.0223 11.5731 15.0223C11.7074 15.022 11.8329 14.9403 11.9013 14.8217C11.9029 14.8223 11.9046 14.8229 11.9063 14.8235C11.9065 14.824 11.9063 14.8245 11.9065 14.8249C11.9263 14.8814 11.9506 14.932 11.9774 14.9791C11.9253 14.9732 11.8767 15.0013 11.8573 15.0494C11.8534 15.0592 11.8221 15.1448 11.7937 15.2656ZM6.53805 15.4851C6.7061 15.4699 6.88024 15.4416 7.05761 15.4029C7.48595 15.3687 8.11716 15.3987 8.64952 15.7461C9.72337 16.448 10.4617 16.9079 10.9219 16.9079C11.0109 16.9079 11.1148 16.9026 11.2243 16.8966C11.5216 16.8814 11.9283 16.8597 12.0483 16.9734C12.069 16.993 12.0778 17.0151 12.0778 17.0478C12.0778 17.1981 12.0248 17.3553 11.9734 17.5074C11.898 17.731 11.82 17.9622 11.9081 18.1825L11.9255 18.2257C12.0495 18.5338 12.3074 19.1743 12.0499 19.4866L11.9816 19.5691C11.7318 19.8712 11.717 19.8894 11.6576 20.0772C11.6106 20.226 11.5682 20.226 11.5094 20.226C11.497 20.226 11.4763 20.2171 11.4586 20.1921C11.4406 20.1665 11.4044 20.092 11.4551 19.9501C11.5593 19.6586 11.5313 19.2988 11.3823 19.0112L11.3337 18.9162C11.0809 18.418 10.789 17.8771 10.5244 17.7675C10.3063 17.6773 9.88977 17.6032 9.31321 17.5002C9.12436 17.4666 8.91956 17.4299 8.70136 17.3895C8.24518 17.304 7.54075 17.0555 6.91924 16.8361C6.27912 16.6102 5.90956 16.4825 5.75609 16.4825H5.72038C5.23265 16.4792 4.5772 16.4278 4.50722 15.9238C4.43133 15.3779 4.53848 15.2832 4.64221 15.1915C4.6596 15.1761 4.6769 15.1609 4.69326 15.1448C4.81143 15.0284 4.95102 14.8873 5.10613 14.7304C5.92681 13.9014 7.41747 12.397 8.12354 12.2489C7.99079 12.6716 7.93257 13.0691 7.92901 13.0945C7.92292 13.1368 7.94106 13.179 7.97588 13.2037C7.99552 13.2177 8.01873 13.2249 8.04212 13.2249C8.05998 13.2249 8.07784 13.2207 8.09434 13.2124C9.3232 12.5811 9.97654 12.5505 10.1907 12.5642C10.1656 12.8556 10.1896 13.1896 10.3392 13.5026C10.3634 13.5532 10.3972 13.5973 10.4268 13.6443C10.1258 13.833 8.45635 14.8529 7.0345 15.1734C6.72747 15.1987 6.51776 15.2555 6.4969 15.2612C6.4399 15.2769 6.40446 15.3338 6.4152 15.3918C6.42602 15.4503 6.48016 15.4901 6.53805 15.4851ZM6.96166 11.1365C6.95543 10.8962 6.90227 10.6379 6.76329 10.4236C7.00174 10.4703 7.27422 10.489 7.50372 10.4123L7.50423 10.412C7.5977 10.4488 7.70776 10.4713 7.82982 10.4822C7.5925 10.567 7.26105 10.746 6.96166 11.1365ZM4.52911 11.3835C4.64132 11.2454 4.78124 11.0734 4.9963 10.8537C5.56813 10.2697 6.42481 10.3932 6.43404 10.3944C6.43502 10.3945 6.43587 10.3942 6.43685 10.3943C6.73652 10.6534 6.75115 11.0846 6.72377 11.3547C5.92751 12.3232 4.62675 12.001 4.09008 11.8098C4.26745 11.7056 4.37686 11.5711 4.52911 11.3835ZM15.8061 6.48839C16.1268 7.24031 15.6852 7.98505 15.6808 7.9925C15.6803 7.99335 15.6803 7.99433 15.6798 7.99522C15.3263 8.17269 14.9222 8.02147 14.6829 7.89294C14.0921 6.78689 14.8875 5.70854 15.269 5.28526C15.2976 5.48917 15.3802 5.64189 15.4951 5.85409C15.5799 6.01065 15.6854 6.20565 15.8061 6.48839ZM14.7281 8.16992C14.9524 8.26578 15.2185 8.32948 15.4781 8.29344C15.2228 8.61739 14.9377 9.07254 14.8607 9.56125C14.6039 9.78081 14.3873 9.94773 14.2686 10.0367C14.2648 10.0309 14.2604 10.0261 14.2565 10.0205C14.3784 9.86359 15.0282 8.97335 14.7281 8.16992ZM12.2492 15.5444C12.1465 15.353 12.103 15.2032 12.0872 15.1305C12.1927 15.2456 12.3215 15.3214 12.4561 15.3678L12.2492 15.5444ZM12.5742 15.5675C12.5758 15.5721 12.5739 15.5771 12.5761 15.5815C12.5779 15.5854 12.6286 15.6866 12.7206 15.8276C12.6283 15.8034 12.5204 15.7644 12.4181 15.7008L12.5742 15.5675ZM12.6112 16.3582C12.7258 16.4609 12.8345 16.5823 12.9354 16.7127C12.9355 16.7162 12.936 16.7201 12.9365 16.7237C12.9554 16.8368 12.9661 16.9996 12.9721 17.1568C12.7743 16.8657 12.4774 16.5201 12.163 16.1623L12.1382 16.134C11.9862 15.9614 11.9636 15.726 11.9816 15.5268C12.0873 15.7584 12.2762 16.0587 12.6112 16.3582ZM12.0031 14.6174C11.9105 14.5956 11.844 14.5069 11.8045 14.4361C11.6984 14.246 11.7702 14.0953 11.8031 14.0423C11.8455 14.0499 11.8885 14.0545 11.9318 14.0574C11.9695 14.1587 12.052 14.3539 12.1889 14.5754C12.1217 14.6114 12.0584 14.63 12.0031 14.6174ZM12.5049 9.02632C12.5926 9.02838 12.6935 9.08557 12.7708 9.17365C12.7388 9.21326 12.6864 9.25816 12.6157 9.24508C12.2982 9.18762 12.2029 9.49811 12.1717 9.60021C12.1391 9.70605 12.0125 9.94459 11.9096 10.052C11.8392 10.0203 11.7646 9.99714 11.6854 9.988C11.8031 9.82216 12.0205 9.52493 12.3061 9.13999C12.3643 9.06176 12.4395 9.02009 12.5049 9.02632ZM11.8672 10.2828C11.9703 10.3486 12.057 10.459 12.1571 10.587C12.2196 10.6669 12.292 10.7533 12.3726 10.8379C12.205 10.7524 12.112 10.6591 12.1104 10.6576C12.1097 10.6568 12.1084 10.657 12.1076 10.6562C12.1068 10.6554 12.1072 10.6541 12.1064 10.6534C11.8301 10.3861 11.5491 10.3152 11.2708 10.4447C11.1753 10.4888 11.0836 10.4822 11.0342 10.4632C11.0058 10.4524 10.9957 10.44 10.9949 10.4387C10.9949 10.4352 11 10.4206 11.021 10.3982C11.1498 10.2622 11.6056 10.1167 11.8672 10.2828ZM11.0695 10.0946C11.2309 9.93288 11.3998 9.73436 11.5487 9.5523L11.5786 9.51597C11.6223 9.4631 11.6991 9.50088 11.7378 9.52535C11.5772 9.7451 11.4464 9.92744 11.4034 9.9962C11.2834 10.0143 11.1677 10.0482 11.0695 10.0946ZM12.6272 10.2024C12.8075 10.2435 12.9026 10.2932 12.9515 10.3438C12.783 10.3163 12.5411 10.3171 12.3507 10.4631C12.3463 10.4574 12.3415 10.4518 12.337 10.4462C12.2605 10.348 12.1825 10.2602 12.0977 10.1828C12.1404 10.1341 12.1808 10.0778 12.2179 10.0183C12.2979 10.0699 12.4599 10.1645 12.6272 10.2024ZM12.3281 9.81733C12.3576 9.75541 12.3798 9.70127 12.3902 9.66752C12.4471 9.48265 12.4962 9.4556 12.5749 9.47018C12.5846 9.47196 12.5934 9.47107 12.6029 9.47205C12.6824 9.76638 12.9219 9.88933 13.1011 9.97891C13.1978 10.0271 13.289 10.0727 13.3074 10.1218C13.3296 10.181 13.2711 10.2512 13.2004 10.3081C13.1369 10.1542 12.962 10.0444 12.6777 9.9798C12.5344 9.94717 12.3871 9.85642 12.3281 9.81733ZM10.6624 11.2431C10.8651 11.1049 11.047 11.0427 11.2056 11.0528C11.5972 11.0811 11.8833 10.9561 12.0152 10.8796C12.1478 10.9894 12.4588 11.1969 12.9248 11.2052C13.0031 11.2487 13.2673 11.407 13.4183 11.6342C13.422 11.694 13.424 11.7541 13.424 11.8152C13.424 12.9287 12.7916 13.8345 12.0143 13.8345C11.2369 13.8345 10.6045 12.9287 10.6045 11.8152C10.6045 11.6205 10.624 11.4285 10.6624 11.2431ZM13.486 11.3558C13.3308 11.1883 13.1516 11.0722 13.0624 11.0207C13.1671 10.9989 13.2777 10.9627 13.3811 10.9056C13.5021 11.056 13.5089 11.227 13.486 11.3558ZM13.3841 10.6266C13.175 10.822 12.8079 10.8283 12.7018 10.8258C12.6255 10.7687 12.5571 10.706 12.4967 10.6381C12.7125 10.4819 13.066 10.6064 13.0698 10.6078C13.0814 10.6121 13.0932 10.6128 13.1049 10.6134C13.1066 10.6134 13.108 10.6149 13.1097 10.6149C13.1104 10.6149 13.1111 10.6145 13.1118 10.6145C13.1279 10.6142 13.1436 10.6109 13.1579 10.6042C13.1582 10.604 13.1585 10.6041 13.1585 10.6041C13.2647 10.5535 13.4029 10.4579 13.481 10.3355C13.4986 10.4202 13.4898 10.528 13.3841 10.6266ZM13.4498 9.93433C13.386 9.86809 13.2974 9.82127 13.2033 9.77439C13.0447 9.69531 12.8861 9.60883 12.8293 9.42021C12.891 9.38233 12.9393 9.33166 12.973 9.28305C13.0826 9.29126 13.3136 9.32913 13.4223 9.48447C13.4964 9.59027 13.5034 9.74271 13.4498 9.93433ZM11.8731 9.34104C11.7589 9.26323 11.5503 9.19146 11.4021 9.37071L11.3719 9.4076C11.232 9.57846 10.8066 10.0982 10.593 10.1851C10.5905 10.1861 10.589 10.1882 10.5867 10.1893C10.5477 10.1793 10.5135 10.1658 10.4898 10.147C10.4718 10.1327 10.4631 10.1178 10.4609 10.0976C10.4502 9.99817 10.4944 9.95472 10.6733 9.82642C10.809 9.72906 10.9951 9.59575 11.1722 9.35936C11.4448 8.99609 11.7858 8.93117 11.9919 9.18002C11.9522 9.23374 11.9124 9.28755 11.8731 9.34104ZM10.8635 9.23444C10.5063 9.18555 10.1779 9.3048 9.97555 9.56744C9.8916 9.67661 9.84327 9.80055 9.8204 9.92716C9.80662 9.93283 9.79105 9.93306 9.77999 9.94431C9.7513 9.97356 9.72102 10.0104 9.69088 10.0512C9.49035 9.97253 8.94764 9.78428 8.48096 9.84761C7.94148 9.92064 7.543 9.84934 7.31073 9.7818C7.55926 9.70183 7.74259 9.34254 7.91968 8.99421C7.96745 8.90014 8.01268 8.81117 8.05529 8.73701C8.26796 8.3682 9.20025 7.89552 10.1019 7.4383C10.4812 7.24603 10.7666 6.96056 10.9769 6.67242C10.8129 7.70582 10.8449 8.83418 10.8635 9.23444ZM9.83127 10.2521C9.84468 10.3053 9.85794 10.3587 9.88307 10.409C9.8984 10.4395 9.91794 10.4619 9.93576 10.4878C9.87018 10.5532 9.77784 10.6632 9.71662 10.808C9.66454 10.5843 9.75004 10.382 9.83127 10.2521ZM9.72205 11.3984C9.76241 11.4941 9.81318 11.5743 9.87107 11.6401C9.78084 11.9084 9.7228 12.1543 9.6967 12.375C9.60834 12.391 9.50999 12.4128 9.40143 12.4416C9.46092 12.0498 9.61527 11.6454 9.72205 11.3984ZM9.93369 12.3418C9.95718 12.1772 9.99997 11.9969 10.0612 11.8022C10.1527 11.8585 10.2469 11.8932 10.3305 11.9116C10.2956 12.0123 10.2524 12.1619 10.2212 12.3366C10.1561 12.3312 10.0603 12.3301 9.93369 12.3418ZM9.47737 11.3892C9.35887 11.6738 9.20887 12.0997 9.16331 12.5112C9.07012 12.541 8.97061 12.5759 8.865 12.6159C8.95275 12.1039 9.18356 11.5867 9.19636 11.5583C9.31068 11.5035 9.40326 11.4457 9.47737 11.3892ZM8.68022 11.4978C8.76835 11.2724 8.96138 10.8941 9.30501 10.7086C9.40265 10.753 9.45515 10.788 9.45642 10.7888C9.46392 10.7945 9.4732 10.7936 9.48145 10.7972C9.49134 10.8631 9.51056 10.9302 9.53887 10.9975C9.50029 11.0637 9.30286 11.347 8.68022 11.4978ZM10.3829 11.6851C10.2478 11.6569 10.0177 11.5681 9.91241 11.2636C9.86001 11.1118 9.88799 10.9752 9.94026 10.8659C9.95751 11.096 10.0513 11.3186 10.2941 11.3902C10.3201 11.4749 10.3547 11.5425 10.3862 11.5773C10.3869 11.5781 10.388 11.5784 10.3887 11.5792C10.386 11.6144 10.3844 11.6497 10.3829 11.6851ZM10.1728 10.6899C10.2352 10.7178 10.2998 10.7386 10.3665 10.7462C10.3251 10.8079 10.2989 10.8698 10.2826 10.9257C10.2655 10.9842 10.2583 11.0437 10.2561 11.102C10.1712 10.9979 10.1631 10.8206 10.1728 10.6899ZM10.0876 10.3066C9.99219 10.1161 10.0187 9.88628 10.1566 9.70713C10.2961 9.52572 10.5208 9.44186 10.7712 9.45897C10.689 9.53257 10.6098 9.5906 10.54 9.64075C10.3689 9.76338 10.2071 9.87948 10.2337 10.1227C10.2425 10.2033 10.2818 10.2736 10.3475 10.326C10.4599 10.4155 10.6349 10.4373 10.7688 10.4399C10.7689 10.446 10.7704 10.4515 10.7709 10.4574C10.7387 10.4689 10.7036 10.4791 10.6753 10.492C10.4981 10.5412 10.2175 10.5673 10.0876 10.3066ZM10.505 10.9808C10.5417 10.8641 10.6246 10.7731 10.7522 10.709C10.8092 10.6927 10.858 10.6723 10.9031 10.6519C11.025 10.7222 11.2056 10.7269 11.367 10.6519C11.4674 10.6051 11.6192 10.5696 11.8279 10.7184C11.7035 10.777 11.4948 10.8462 11.2227 10.8248C11.0006 10.8105 10.7554 10.8947 10.4936 11.0823C10.4911 11.0841 10.491 11.0878 10.4886 11.0898C10.4915 11.0537 10.4933 11.0175 10.505 10.9808ZM12.176 14.0519C12.2754 14.0384 12.3717 14.0113 12.4652 13.9745C12.5586 14.1574 12.685 14.5462 12.5778 14.7269C12.3718 14.4762 12.2418 14.209 12.176 14.0519ZM13.584 12.4557C13.645 12.773 13.6202 13.0595 13.5047 13.3098C13.3087 13.7341 12.9074 13.9471 12.7355 14.0223C12.7125 13.9633 12.6904 13.9136 12.6704 13.8736C13.108 13.6099 13.4458 13.0917 13.584 12.4557ZM13.6494 11.9013C13.6502 11.8725 13.6526 11.8442 13.6526 11.8152C13.6526 11.803 13.6515 11.7912 13.6513 11.7791C13.7214 11.7701 13.8165 11.7499 13.9133 11.7026C13.9984 11.9354 14.0563 12.1493 14.0867 12.3419C13.9258 12.3023 13.812 12.2766 13.7759 12.2685C13.7459 12.1533 13.708 12.0358 13.6583 11.9146C13.6561 11.9094 13.6522 11.9059 13.6494 11.9013ZM13.6494 10.9021C13.6274 10.8568 13.5973 10.8126 13.5624 10.7686C13.6017 10.728 13.6321 10.686 13.6549 10.6434C13.6579 10.6434 13.6608 10.6432 13.6639 10.643C13.7074 10.6387 13.7456 10.632 13.7796 10.623C13.8034 10.6614 13.8317 10.7212 13.8452 10.7924C13.815 10.8246 13.7943 10.8632 13.7804 10.9005C13.7201 10.9397 13.6774 10.9144 13.6682 10.9079C13.6628 10.9034 13.6554 10.9055 13.6494 10.9021ZM14.6215 12.4825C14.5185 12.4535 14.4194 12.4268 14.3264 12.4026C14.2972 12.1535 14.2236 11.8712 14.1054 11.5611C14.1615 11.5027 14.2203 11.4243 14.2687 11.3373C14.3779 11.5817 14.5625 12.0434 14.6215 12.4825ZM14.364 10.9909C14.3682 10.9852 14.3747 10.9821 14.3779 10.9755C14.4047 10.9196 14.4141 10.8715 14.4161 10.8269C14.6276 11.1041 15.0063 11.719 15.1507 12.6442C15.0555 12.6122 14.9577 12.5813 14.8601 12.5518C14.7946 11.8526 14.4057 11.0888 14.3892 11.0567C14.3835 11.0456 14.3752 11.037 14.3668 11.0287C14.3671 11.0157 14.3651 11.0034 14.364 10.9909ZM15.3994 12.7337C15.2331 11.4367 14.6192 10.6935 14.4665 10.5264C14.4787 10.5241 14.4919 10.5242 14.5041 10.5216C15.4119 11.0051 15.6507 12.34 15.7104 12.8677C15.6201 12.8223 15.5136 12.7774 15.3994 12.7337ZM14.3682 10.306C14.3656 10.2886 14.3622 10.2717 14.3584 10.255C14.55 10.1143 15.2048 9.61914 15.7876 9.00223C15.5134 9.54166 15.0379 10.2151 14.3682 10.306ZM14.1481 10.4319C14.148 10.4346 14.1485 10.4361 14.1483 10.4388C14.1483 10.4396 14.1479 10.4403 14.1479 10.4411C14.148 10.442 14.1485 10.4427 14.1485 10.4435C14.144 10.5729 14.162 10.6619 14.1759 10.7263C14.1782 10.737 14.1797 10.7448 14.1815 10.7536C14.137 10.7383 14.0987 10.7306 14.0633 10.7264C14.0404 10.6275 14.0021 10.5475 13.9694 10.4959C14.0243 10.4139 14.0445 10.2971 14.0601 10.1426C14.1131 10.2146 14.1536 10.3119 14.1481 10.4319ZM13.9826 10.9888C13.9881 10.9766 13.9975 10.9558 14.0025 10.9519C14.0024 10.9516 14.0272 10.9409 14.1098 10.9704C14.1315 10.9781 14.1346 10.9862 14.1372 10.9987C14.1578 11.0987 14.0318 11.3213 13.9179 11.4264C13.8427 11.4958 13.7486 11.5281 13.6743 11.5435C13.7053 11.4507 13.7368 11.3057 13.7203 11.1461C13.7776 11.1459 13.8399 11.1345 13.9057 11.0915C13.9489 11.0633 13.9683 11.0204 13.9826 10.9888ZM13.8413 10.0318C13.8134 10.3308 13.8067 10.3856 13.7161 10.4049C13.716 10.2894 13.6798 10.1832 13.6368 10.1068C13.7083 9.90925 13.7252 9.73849 13.6992 9.59003C13.7326 9.60391 13.7658 9.62186 13.7925 9.65139C13.8442 9.70825 13.8646 9.79488 13.8532 9.90827L13.8413 10.0318ZM8.51161 10.0744C8.89552 10.0216 9.36534 10.1733 9.57332 10.2511C9.53198 10.3389 9.50132 10.4366 9.48562 10.5415C9.28753 10.438 8.80847 10.2491 7.97284 10.2658C7.63604 10.2797 7.4208 10.1455 7.2955 10.0163C7.55715 10.0866 7.96942 10.1473 8.51161 10.0744ZM8.43661 10.5088C8.64249 10.5258 8.81531 10.5552 8.9558 10.5908C8.69489 10.6906 8.30054 10.8496 7.99337 11.0088C8.09302 10.8498 8.23885 10.6637 8.43661 10.5088ZM8.90138 11.6731C8.80697 11.9136 8.66817 12.3194 8.6205 12.7141C8.48654 12.7706 8.34572 12.8333 8.19399 12.907C8.25151 12.6147 8.37638 12.0969 8.58244 11.7516C8.69944 11.7293 8.80575 11.7029 8.90138 11.6731ZM10.546 13.405C10.3904 13.0805 10.3933 12.7187 10.4391 12.4266C10.5945 13.1792 11.0284 13.771 11.5782 13.9798C11.5571 14.0245 11.5376 14.0818 11.5273 14.1497C11.0484 14.0042 10.7145 13.7569 10.546 13.405ZM11.4392 14.5528C11.4616 14.5025 11.5115 14.4635 11.5567 14.4361C11.5694 14.4724 11.5834 14.5091 11.6048 14.5474C11.6368 14.6047 11.674 14.6516 11.7133 14.6934C11.6885 14.7503 11.6301 14.7933 11.5729 14.7936H11.5728C11.5023 14.7936 11.4624 14.7293 11.4412 14.6754C11.4231 14.629 11.4223 14.59 11.4392 14.5528ZM13.2122 16.0899C13.1324 16.0054 13.0628 15.9188 13.0041 15.8384C13.1702 15.9211 13.3731 16.0132 13.5765 16.0825C13.4691 16.0977 13.3456 16.104 13.2122 16.0899ZM12.1603 14.835C12.2094 14.823 12.2627 14.8013 12.32 14.7679C12.4307 14.9175 12.5632 15.067 12.7257 15.1958C12.5246 15.1734 12.2878 15.0873 12.1603 14.835ZM4.74435 7.44749C4.75706 7.44637 4.78063 7.44866 4.80923 7.45795C4.84865 7.47079 4.89895 7.49873 4.95557 7.56538C5.04187 7.66687 5.15418 7.7496 5.27671 7.81654C5.28383 7.82043 5.29021 7.8253 5.29743 7.8291C5.45422 7.9108 5.62897 7.96335 5.80512 7.97113L5.91022 7.97647C6.4691 8.00652 7.08377 8.02382 7.3112 7.84879C7.49828 7.70502 7.77081 7.38116 8.14777 6.93286C8.27115 6.78609 8.40511 6.62714 8.54935 6.45867C8.85089 6.10622 9.41779 5.62014 9.91785 5.19151C10.4337 4.74949 10.7293 4.4929 10.8059 4.35982L10.8238 4.32855C11.0659 3.90589 11.4417 3.36439 11.9139 3.557C12.4245 3.76386 12.4531 3.90406 12.4808 4.03953C12.4854 4.06245 12.4901 4.08509 12.4959 4.1074C12.5626 4.36338 12.6687 4.68457 12.7915 5.05637C13.1839 6.24371 13.7649 8.00657 13.5121 9.24729C13.3286 9.09021 13.0769 9.06054 12.9653 9.05487C12.8636 8.92629 12.7037 8.8025 12.5108 8.79776C12.4045 8.79687 12.2587 8.82903 12.1308 8.99492C12.0087 8.86671 11.856 8.79359 11.6891 8.79359C11.5379 8.79359 11.3186 8.85087 11.0877 9.10357C11.0672 8.50929 11.0535 7.03354 11.3597 5.99166C11.4498 5.77941 11.4896 5.62942 11.4941 5.61184C11.509 5.55381 11.4767 5.49428 11.4201 5.47492C11.3634 5.45734 11.302 5.48326 11.2783 5.53834C11.2296 5.65206 11.1865 5.77379 11.1479 5.9018C10.9806 6.29236 10.6294 6.91448 9.99866 7.23445C8.85413 7.81461 8.08674 8.22477 7.85739 8.62278C7.8129 8.69989 7.7657 8.79275 7.71582 8.89067C7.58111 9.15588 7.39656 9.51902 7.23822 9.56575C7.21113 9.5741 7.18745 9.57053 7.15891 9.55413C7.02869 9.47913 6.91882 9.35468 6.81255 9.23412C6.65655 9.05702 6.4954 8.87421 6.2607 8.8406L6.21514 8.83404C5.88636 8.78792 5.20204 8.69145 5.06005 8.31195L5.02284 8.21253C4.88563 7.84461 4.87743 7.82258 4.74421 7.67704C4.64685 7.57091 4.65834 7.5314 4.6836 7.48588C4.68567 7.48213 4.68703 7.47848 4.68928 7.47463C4.69551 7.46385 4.7137 7.45049 4.74435 7.44749Z" fill="#464655"/>
</g>
<defs>
<clipPath id="clip0_8615_27482">
<path d="M0 2C0 0.895432 0.895431 0 2 0H21.9998C23.1043 0 23.9998 0.895431 23.9998 2V21.9998C23.9998 23.1043 23.1043 23.9998 21.9998 23.9998H2C0.895432 23.9998 0 23.1043 0 21.9998V2Z" fill="white"/>
</clipPath>
</defs>
</svg>
