<svg width="24" height="24" viewBox="0 0 24 24" fill="none" xmlns="http://www.w3.org/2000/svg">
<g clip-path="url(#clip0_8615_27479)">
<path d="M23.9968 0.0234375H-0.00292969V12.0233H23.9968V0.0234375Z" fill="#FF4B55"/>
<path d="M23.9939 12.0234H-0.00585938V23.9764H23.9939V12.0234Z" fill="#F5F5F5"/>
<path d="M4.05182 5.70389C4.05182 3.67033 5.54397 1.98477 7.49231 1.67296C7.59811 1.65604 7.60289 1.5105 7.4985 1.48645C7.01616 1.3755 6.50382 1.34395 5.9718 1.41642C3.87032 1.70263 2.24597 3.52118 2.21626 5.64183C2.18236 8.06323 4.1345 10.035 6.54451 10.035C6.87254 10.035 7.19114 9.99662 7.49761 9.92616C7.60186 9.90221 7.59666 9.75629 7.491 9.73942C5.54332 9.42775 4.05182 7.74528 4.05182 5.70389Z" fill="#F5F5F5"/>
<path d="M7.52472 6.79194L7.34167 7.34084L6.76305 7.34534C6.68815 7.34591 6.65707 7.44153 6.71735 7.48602L7.18282 7.82975L7.00826 8.38141C6.98566 8.45285 7.06699 8.51196 7.12793 8.46832L7.59864 8.13185L8.06935 8.46832C8.13029 8.51186 8.21162 8.4528 8.18902 8.38141L8.01446 7.82975L8.47993 7.48602C8.54016 7.44153 8.50913 7.34591 8.43423 7.34534L7.85561 7.34084L7.67256 6.79194C7.64889 6.72088 7.54839 6.72088 7.52472 6.79194Z" fill="#F5F5F5"/>
<path d="M10.3851 6.79194L10.202 7.34084L9.62341 7.34534C9.5485 7.34591 9.51742 7.44153 9.5777 7.48602L10.0432 7.82975L9.86861 8.38141C9.84601 8.45285 9.92734 8.51196 9.98828 8.46832L10.459 8.13185L10.9297 8.46832C10.9906 8.51186 11.072 8.4528 11.0494 8.38141L10.8748 7.82975L11.3403 7.48602C11.4005 7.44153 11.3695 7.34591 11.2946 7.34534L10.716 7.34084L10.5329 6.79194C10.5093 6.72088 10.4088 6.72088 10.3851 6.79194Z" fill="#F5F5F5"/>
<path d="M8.96808 2.37837L8.78503 2.92727L8.20641 2.93177C8.13151 2.93233 8.10043 3.02796 8.16071 3.07244L8.62618 3.41617L8.45161 3.96784C8.42902 4.03928 8.51035 4.09838 8.57129 4.05474L9.042 3.71828L9.51271 4.05474C9.57365 4.09829 9.65498 4.03923 9.63238 3.96784L9.45782 3.41617L9.92329 3.07244C9.98352 3.02796 9.95249 2.93233 9.87759 2.93177L9.29897 2.92727L9.11592 2.37837C9.0923 2.30731 8.99175 2.30731 8.96808 2.37837Z" fill="#F5F5F5"/>
<path d="M6.6878 4.06929L6.50476 4.61819L5.92614 4.62269C5.85123 4.62325 5.82016 4.71887 5.88044 4.76336L6.3459 5.10709L6.17134 5.65876C6.14875 5.73019 6.23008 5.7893 6.29101 5.74566L6.76173 5.4092L7.23244 5.74566C7.29338 5.78921 7.3747 5.73015 7.35211 5.65876L7.17755 5.10709L7.64301 4.76336C7.70325 4.71887 7.67222 4.62325 7.59731 4.62269L7.01869 4.61819L6.83565 4.06929C6.81202 3.99823 6.71152 3.99823 6.6878 4.06929Z" fill="#F5F5F5"/>
<path d="M11.2288 4.06929L11.0458 4.61819L10.4672 4.62269C10.3923 4.62325 10.3612 4.71887 10.4215 4.76336L10.8869 5.10709L10.7124 5.65876C10.6898 5.73019 10.7711 5.7893 10.832 5.74566L11.3027 5.4092L11.7735 5.74566C11.8344 5.78921 11.9157 5.73015 11.8931 5.65876L11.7186 5.10709L12.184 4.76336C12.2443 4.71887 12.2132 4.62325 12.1383 4.62269L11.5597 4.61819L11.3767 4.06929C11.353 3.99823 11.2525 3.99823 11.2288 4.06929Z" fill="#F5F5F5"/>
</g>
<defs>
<clipPath id="clip0_8615_27479">
<path d="M0 2C0 0.895432 0.895431 0 2 0H21.9998C23.1043 0 23.9998 0.895431 23.9998 2V21.9998C23.9998 23.1043 23.1043 23.9998 21.9998 23.9998H2C0.895432 23.9998 0 23.1043 0 21.9998V2Z" fill="white"/>
</clipPath>
</defs>
</svg>
