<svg width="24" height="24" viewBox="0 0 24 24" fill="none" xmlns="http://www.w3.org/2000/svg">
<g clip-path="url(#clip0_8615_27477)">
<path d="M23.9959 0H-0.00390625V11.9999H23.9959V0Z" fill="#FF4B55"/>
<path d="M23.9959 12H-0.00390625V23.9999H23.9959V12Z" fill="#41479B"/>
<path d="M-0.00390625 23.9998L11.996 11.9999L-0.00390625 0V23.9998Z" fill="#F5F5F5"/>
<path d="M5.42252 9.84695C5.89956 10.9829 4.81892 12.0635 3.68301 11.5865C3.40031 11.4677 3.17381 11.2413 3.05512 10.9586C2.57808 9.82267 3.65873 8.74202 4.79464 9.21906C5.07734 9.33775 5.30384 9.56425 5.42252 9.84695Z" fill="#FFE15A"/>
<path d="M5.82722 11.6065C5.83242 11.7642 5.84953 11.9268 5.86608 12.0841C5.931 12.7011 5.98711 13.234 5.39452 13.4408C5.25446 13.4896 5.06358 13.517 4.87909 13.5434C4.6142 13.5814 4.37701 13.6153 4.23906 13.7115C4.10111 13.6153 3.86392 13.5814 3.59904 13.5434C3.41449 13.517 3.22366 13.4896 3.0836 13.4408C2.49102 13.234 2.54712 12.7011 2.61205 12.0841C2.62859 11.9269 2.6457 11.7642 2.6509 11.6065C2.66933 11.0479 2.55158 10.5004 2.46875 10.191C2.60661 10.2476 2.79772 10.2987 3.03204 10.2946C3.13301 10.2926 3.2464 10.2782 3.3664 10.263C3.64033 10.2281 3.95078 10.1887 4.19922 10.287L4.23901 10.3048L4.27881 10.287C4.52725 10.1887 4.8377 10.2281 5.11163 10.263C5.23163 10.2782 5.34502 10.2926 5.44599 10.2946C5.68031 10.2987 5.87147 10.2476 6.00928 10.191C5.92654 10.5004 5.8088 11.0479 5.82722 11.6065Z" fill="#8CD7FF"/>
<path d="M6.04354 11.5992C6.01743 10.8074 6.28766 10.0129 6.29033 10.005L6.12004 9.88538C6.11784 9.88716 5.86171 10.0859 5.45016 10.0779C5.36077 10.0762 5.25295 10.0625 5.13886 10.048C4.85232 10.0117 4.52907 9.97064 4.23892 10.0708C3.94876 9.97064 3.62556 10.0117 3.33897 10.048C3.22488 10.0625 3.11707 10.0762 3.02768 10.0779C2.61612 10.0859 2.36 9.88716 2.3578 9.88538L2.1875 10.005C2.19022 10.0129 2.4604 10.8074 2.43429 11.5992C2.42937 11.7492 2.41269 11.9078 2.39651 12.0612C2.33136 12.6803 2.25758 13.382 3.01216 13.6452C3.17205 13.7009 3.37408 13.7255 3.56824 13.7577C4.15098 13.8542 4.23896 14.0031 4.23896 14.0031C4.23896 14.0031 4.32695 13.8542 4.90969 13.7577C5.1038 13.7255 5.30588 13.7009 5.46576 13.6452C6.22035 13.382 6.14652 12.6803 6.08141 12.0612C6.0652 11.9078 6.04846 11.7492 6.04354 11.5992ZM5.82712 11.6065C5.83232 11.7642 5.84943 11.9268 5.86598 12.084C5.9309 12.701 5.98701 13.234 5.39442 13.4407C5.25436 13.4896 5.06349 13.5169 4.87899 13.5434C4.6141 13.5813 4.37692 13.6153 4.23896 13.7114C4.10101 13.6153 3.86383 13.5813 3.59894 13.5434C3.41439 13.5169 3.22357 13.4896 3.08351 13.4407C2.49092 13.234 2.54703 12.701 2.61195 12.084C2.6285 11.9268 2.6456 11.7642 2.65081 11.6065C2.66923 11.0478 2.55148 10.5004 2.46865 10.191C2.60651 10.2476 2.79762 10.2986 3.03194 10.2945C3.13291 10.2925 3.2463 10.2781 3.3663 10.263C3.64024 10.2281 3.95069 10.1887 4.19912 10.2869L4.23892 10.3047L4.27871 10.2869C4.52715 10.1887 4.8376 10.228 5.11153 10.263C5.23153 10.2782 5.34492 10.2926 5.44589 10.2945C5.68022 10.2987 5.87137 10.2476 6.00918 10.191C5.92645 10.5004 5.8087 11.0478 5.82712 11.6065Z" fill="#FF4B55"/>
<path d="M5.35575 12.9377V12.4603H5.43755V12.3196H5.23749V11.8294H5.43755L4.5227 11.1813V10.9375H4.64991L4.23915 10.6465L3.82834 10.9375H3.95561V11.1813L3.04071 11.8294H3.24077V12.3196H3.04071V12.4603H3.12251V12.9377H3.00293V13.1437H5.47533V12.9377H5.35575Z" fill="#F5F5F5"/>
<path d="M3.05456 10.9841C3.02536 11.0532 3.03033 11.1264 3.06136 11.1802C3.12159 11.1649 3.17756 11.1174 3.20671 11.0483C3.23592 10.9792 3.23095 10.906 3.19992 10.8522C3.13968 10.8675 3.08376 10.915 3.05456 10.9841Z" fill="#41AA5A"/>
<path d="M3.19574 11.0058C3.21481 11.0783 3.26347 11.1332 3.32094 11.1569C3.35928 11.108 3.37456 11.0362 3.35544 10.9637C3.33636 10.8912 3.2877 10.8362 3.23023 10.8125C3.19189 10.8615 3.17661 10.9332 3.19574 11.0058Z" fill="#41AA5A"/>
<path d="M3.41646 10.8852C3.48677 10.9114 3.55966 10.9032 3.61216 10.8699C3.59421 10.8104 3.54433 10.7566 3.47402 10.7304C3.40371 10.7043 3.33082 10.7124 3.27832 10.7458C3.29627 10.8053 3.34615 10.8591 3.41646 10.8852Z" fill="#41AA5A"/>
<path d="M3.4824 10.7615C3.55107 10.7313 3.59771 10.6747 3.61219 10.6142C3.55786 10.584 3.4846 10.5801 3.41593 10.6103C3.34726 10.6404 3.30062 10.6971 3.28613 10.7575C3.34046 10.7878 3.41373 10.7917 3.4824 10.7615Z" fill="#41AA5A"/>
<path d="M3.02115 10.8241C3.08233 10.7807 3.11668 10.7159 3.1187 10.6538C3.0594 10.6351 2.98684 10.646 2.92567 10.6894C2.8645 10.7328 2.83014 10.7976 2.82812 10.8597C2.88742 10.8784 2.95998 10.8675 3.02115 10.8241Z" fill="#41AA5A"/>
<path d="M2.97001 10.7334C3.06414 10.7873 3.16497 10.8019 3.23996 10.7802C3.22065 10.7046 3.15704 10.625 3.06292 10.5711C2.9688 10.5172 2.86797 10.5026 2.79297 10.5243C2.81228 10.5999 2.87589 10.6795 2.97001 10.7334Z" fill="#41AA5A"/>
<path d="M3.36511 10.8441C3.36511 10.8074 3.336 10.7781 3.29972 10.7767C3.29836 10.7405 3.26897 10.7113 3.23236 10.7113C3.19575 10.7113 3.16636 10.7404 3.165 10.7767C3.12872 10.7781 3.09961 10.8074 3.09961 10.8441C3.09961 10.8807 3.12872 10.91 3.165 10.9114C3.16636 10.9476 3.19575 10.9768 3.23236 10.9768C3.26897 10.9768 3.29836 10.9477 3.29972 10.9114C3.336 10.91 3.36511 10.8806 3.36511 10.8441Z" fill="#FFE15A"/>
<path d="M3.26733 10.8246C3.28495 10.861 3.24919 10.8968 3.21272 10.8792C3.20602 10.8759 3.20025 10.8702 3.19702 10.8635C3.17939 10.827 3.21516 10.7912 3.25163 10.8089C3.25833 10.8121 3.2641 10.8179 3.26733 10.8246Z" fill="#F5F5F5"/>
<path d="M3.15282 10.777C3.15282 10.7469 3.12887 10.7227 3.09905 10.7216C3.09793 10.6918 3.07379 10.6678 3.04369 10.6678C3.0136 10.6678 2.98946 10.6918 2.98834 10.7216C2.95852 10.7227 2.93457 10.7469 2.93457 10.777C2.93457 10.8071 2.95852 10.8312 2.98834 10.8323C2.98946 10.8621 3.0136 10.8861 3.04369 10.8861C3.07379 10.8861 3.09793 10.8621 3.09905 10.8323C3.12887 10.8313 3.15282 10.8071 3.15282 10.777Z" fill="#FFE15A"/>
<path d="M3.07239 10.7609C3.08688 10.7909 3.05749 10.8203 3.02749 10.8058C3.02196 10.8031 3.01722 10.7984 3.01455 10.7929C3.00007 10.7629 3.02946 10.7334 3.05946 10.748C3.06499 10.7506 3.06972 10.7554 3.07239 10.7609Z" fill="#F5F5F5"/>
<path d="M3.35653 10.683C3.35653 10.6613 3.33928 10.6439 3.31776 10.6431C3.31697 10.6217 3.29953 10.6044 3.27787 10.6044C3.25622 10.6044 3.23878 10.6216 3.23798 10.6431C3.21652 10.6439 3.19922 10.6614 3.19922 10.683C3.19922 10.7047 3.21647 10.7221 3.23798 10.7229C3.23878 10.7444 3.25622 10.7617 3.27787 10.7617C3.29953 10.7617 3.31697 10.7444 3.31776 10.7229C3.33928 10.7221 3.35653 10.7047 3.35653 10.683Z" fill="#FFE15A"/>
<path d="M3.29888 10.6727C3.30788 10.6935 3.28795 10.7134 3.26714 10.7044C3.26236 10.7023 3.25824 10.6982 3.25613 10.6934C3.24713 10.6726 3.26705 10.6526 3.28786 10.6616C3.29264 10.6638 3.29681 10.6679 3.29888 10.6727Z" fill="#F5F5F5"/>
<path d="M3.20712 10.6153C3.20712 10.5936 3.18987 10.5762 3.16835 10.5754C3.16755 10.5539 3.15012 10.5366 3.12846 10.5366C3.10676 10.5366 3.08937 10.5539 3.08857 10.5754C3.0671 10.5762 3.0498 10.5936 3.0498 10.6153C3.0498 10.637 3.06705 10.6544 3.08857 10.6552C3.08937 10.6766 3.1068 10.6939 3.12846 10.6939C3.15016 10.6939 3.16755 10.6767 3.16835 10.6552C3.18987 10.6544 3.20712 10.637 3.20712 10.6153Z" fill="#FFE15A"/>
<path d="M3.15239 10.605C3.16139 10.6258 3.14147 10.6458 3.12066 10.6368C3.11588 10.6347 3.11175 10.6306 3.10964 10.6258C3.10064 10.6049 3.12056 10.585 3.14138 10.594C3.1462 10.5961 3.15033 10.6003 3.15239 10.605Z" fill="#F5F5F5"/>
<path d="M4.94043 11.2106H5.69141C5.64331 11.1004 5.54896 11.0152 5.43196 10.9805C5.44049 10.9259 5.44569 10.8652 5.44569 10.8001C5.44569 10.5732 5.38757 10.3894 5.31589 10.3894C5.24422 10.3894 5.1861 10.5732 5.1861 10.8001C5.1861 10.8652 5.1913 10.9258 5.19983 10.9805C5.08288 11.0152 4.98848 11.1004 4.94043 11.2106Z" fill="#F5F5F5"/>
<path d="M4.23959 14.8964C2.65734 14.8964 1.37012 13.6092 1.37012 12.027H1.91152C1.91152 13.3107 2.95588 14.355 4.23954 14.355C5.5232 14.355 6.56757 13.3107 6.56757 12.027H7.10897C7.10901 13.6092 5.82179 14.8964 4.23959 14.8964Z" fill="#FFE15A"/>
<path d="M5.30242 9.463H4.83447C4.88144 9.463 4.91955 9.42489 4.91955 9.37792C4.91955 9.33096 4.88144 9.29285 4.83447 9.29285H4.23898C4.19201 9.29285 4.1539 9.33096 4.1539 9.37792C4.1539 9.42489 4.19201 9.463 4.23898 9.463H3.17549C3.10499 9.463 3.04785 9.52014 3.04785 9.59064C3.04785 9.66109 3.10499 9.71828 3.17549 9.71828H3.55832C3.51135 9.71828 3.47329 9.75639 3.47329 9.80336C3.47329 9.85033 3.51139 9.88844 3.55836 9.88844H4.32406C4.37103 9.88844 4.40914 9.85033 4.40914 9.80336C4.40914 9.75639 4.37107 9.71828 4.3241 9.71828H5.30247C5.37297 9.71828 5.43011 9.66114 5.43011 9.59064C5.43006 9.52014 5.37292 9.463 5.30242 9.463Z" fill="#C87878"/>
</g>
<defs>
<clipPath id="clip0_8615_27477">
<path d="M0 2C0 0.895432 0.895431 0 2 0H21.9998C23.1043 0 23.9998 0.895431 23.9998 2V21.9998C23.9998 23.1043 23.1043 23.9998 21.9998 23.9998H2C0.895432 23.9998 0 23.1043 0 21.9998V2Z" fill="white"/>
</clipPath>
</defs>
</svg>
