<svg width="24" height="24" viewBox="0 0 24 24" fill="none" xmlns="http://www.w3.org/2000/svg">
<g clip-path="url(#clip0_8615_27478)">
<path d="M23.9968 0H-0.00292969V23.9998H23.9968V0Z" fill="#41479B"/>
<path d="M23.9968 0H-0.00292969V23.9998H23.9968V0ZM23.1693 11.3683H18.6531L12.4108 6.18744V0.772211H23.1693V11.3683ZM11.997 16.6873L5.84692 11.7177L11.997 7.03024L18.147 11.7177L11.997 16.6873ZM11.5832 0.772211V6.18744L5.34077 11.3683H0.82464V0.772211H11.5832ZM0.82464 12.1159H5.34077L11.5832 17.3436V23.2498H0.82464V12.1159ZM12.4108 23.2498V17.3436L18.6531 12.1159H23.1693V23.2498H12.4108Z" fill="#FF4B55"/>
<path d="M11.9968 6.65625L5.84668 11.7187L8.08152 13.5413L9.87011 14.9999L11.9968 16.7343L14.1234 14.9999L16.9394 12.7034L18.1468 11.7187L11.9968 6.65625Z" fill="#F5F5F5"/>
<path d="M16.9389 12.7035L15.6502 10.7725H15.1978L14.8638 11.2729L14.6255 10.9159H14.149L12.3212 13.6548H10.0267L9.50567 12.4987H8.84436L8.58383 13.0457H8.29105L8.08105 13.5413L9.86965 14.9999H14.1229" fill="#73AF00"/>
<path d="M12.1339 9.09476L12.2983 9.58788L12.8182 9.59191C12.8855 9.59242 12.9134 9.6783 12.8593 9.71828L12.4411 10.0271L12.5979 10.5227C12.6182 10.5869 12.5451 10.6399 12.4903 10.6008L12.0674 10.2985L11.6445 10.6008C11.5898 10.6399 11.5167 10.5869 11.537 10.5227L11.6938 10.0271L11.2756 9.71828C11.2215 9.6783 11.2494 9.59242 11.3167 9.59191L11.8365 9.58788L12.001 9.09476C12.0223 9.03091 12.1126 9.03091 12.1339 9.09476Z" fill="#FFE15A"/>
</g>
<defs>
<clipPath id="clip0_8615_27478">
<path d="M0 2C0 0.895432 0.895431 0 2 0H21.9998C23.1043 0 23.9998 0.895431 23.9998 2V21.9998C23.9998 23.1043 23.1043 23.9998 21.9998 23.9998H2C0.895432 23.9998 0 23.1043 0 21.9998V2Z" fill="white"/>
</clipPath>
</defs>
</svg>
