<svg width="24" height="24" viewBox="0 0 24 24" fill="none" xmlns="http://www.w3.org/2000/svg">
<g clip-path="url(#clip0_8615_27476)">
<path d="M23.9959 0.0131836H-0.00390625V8.00436H23.9959V0.0131836Z" fill="#F5F5F5"/>
<path d="M23.9959 15.9955H-0.00390625V23.9867H23.9959V15.9955Z" fill="#FF4B55"/>
<path d="M23.9959 8.00439H-0.00390625V15.9956H23.9959V8.00439Z" fill="#41479B"/>
<path d="M7.67819 17.598C7.50662 17.4994 3.47363 15.1537 3.47363 11.5481V6.62H12.1704V11.5481C12.1704 15.1537 8.13742 17.4994 7.96585 17.598L7.82204 17.68L7.67819 17.598Z" fill="#FF4B55"/>
<path d="M10.0994 10.6785L8.73277 10.8585H8.2772V10.043H8.55048L9.64383 10.223L9.49575 9.58738L9.64383 8.9519L8.55048 9.13185H8.2772V8.85637L8.4572 7.48975L7.82167 7.67481L7.1861 7.48975L7.3661 8.85637V9.13185H7.09273L5.99947 8.9519L6.1475 9.58738L5.99947 10.223L7.09273 10.043H7.3661V10.8585H6.91057L5.54395 10.6785L5.72901 11.3141L5.54395 11.9496L6.91057 11.7696H7.3661V13.8674H8.2772V11.7696H8.73277L10.0994 11.9496L9.91434 11.3141L10.0994 10.6785Z" fill="#F5F5F5"/>
<path d="M7.82211 12.9977C7.22329 12.9977 6.70964 13.361 6.48867 13.879C6.44977 13.8758 6.41241 13.8673 6.37266 13.8673C5.60087 13.8673 4.97594 14.4723 4.93164 15.2328C6.10566 16.6781 7.57611 17.5393 7.6783 17.598L7.82211 17.6801L7.96592 17.598C8.06811 17.5393 9.53856 16.6781 10.7126 15.2328C10.6683 14.4722 10.0434 13.8673 9.27157 13.8673C9.23182 13.8673 9.1945 13.8758 9.15555 13.879C8.93459 13.361 8.42093 12.9977 7.82211 12.9977Z" fill="#41479B"/>
<path d="M11.8804 6.90987C11.8804 6.90987 11.8804 10.3886 11.8804 11.5482C11.8804 15.0269 7.82188 17.346 7.82188 17.346C7.82188 17.346 3.76339 15.0269 3.76339 11.5482C3.76339 10.3886 3.76339 6.90987 3.76339 6.90987H11.8804ZM12.4602 6.33008H11.8804H3.76339H3.18359V6.90987V11.5482C3.18359 15.3199 7.3566 17.7479 7.53421 17.8494L7.82188 18.0137L8.10955 17.8494C8.28715 17.7478 12.4602 15.3199 12.4602 11.5482V6.90987V6.33008Z" fill="#F5F5F5"/>
</g>
<defs>
<clipPath id="clip0_8615_27476">
<path d="M0 2C0 0.895432 0.895431 0 2 0H21.9998C23.1043 0 23.9998 0.895431 23.9998 2V21.9998C23.9998 23.1043 23.1043 23.9998 21.9998 23.9998H2C0.895432 23.9998 0 23.1043 0 21.9998V2Z" fill="white"/>
</clipPath>
</defs>
</svg>
