<svg width="24" height="24" viewBox="0 0 24 24" fill="none" xmlns="http://www.w3.org/2000/svg">
<g clip-path="url(#clip0_8615_27475)">
<path d="M24.0037 0H0.00390625V8.00008H24.0037V0Z" fill="#F5F5F5"/>
<path d="M24.0037 15.9998H0.00390625V23.9998H24.0037V15.9998Z" fill="#FF4B55"/>
<path d="M24.0076 8.00012H0.0078125V16.0002H24.0076V8.00012Z" fill="#41479B"/>
<path d="M9.9363 4.94345C9.9363 4.94345 9.80913 8.99491 9.24063 10.1326C8.53691 11.531 7.82943 11.9389 6.77677 12.3158C5.72424 11.939 5.01672 11.5313 4.3129 10.1326C3.7445 8.99477 3.61709 4.94378 3.61719 4.94345C5.6259 4.03643 7.92758 4.03643 9.9363 4.94345Z" fill="#41479B"/>
<path d="M7.68343 10.5619C7.60646 10.5125 7.55092 10.4772 7.42459 10.4772C7.29859 10.4772 7.24304 10.5125 7.16645 10.5619C7.0787 10.6177 6.96949 10.6877 6.76652 10.6877C6.56341 10.6877 6.45419 10.6177 6.36644 10.5615C6.2898 10.5125 6.23445 10.4772 6.10845 10.4772C5.98245 10.4772 5.92709 10.5125 5.85045 10.5615C5.76753 10.6147 5.66267 10.678 5.48047 10.6851C5.86404 11.1529 6.26623 11.3748 6.76821 11.5675C7.26986 11.3748 7.67195 11.1531 8.05562 10.6853C7.87196 10.6786 7.76663 10.6148 7.68343 10.5619Z" fill="#F5F5F5"/>
<path d="M5.19311 9.81347C5.26974 9.8625 5.32492 9.8978 5.45059 9.8978C5.57659 9.8978 5.63194 9.8625 5.70858 9.81347C5.79633 9.75727 5.90555 9.68728 6.10852 9.68728C6.31149 9.68728 6.42066 9.75722 6.50845 9.81309C6.58509 9.86245 6.64064 9.8978 6.76659 9.8978C6.89259 9.8978 6.94795 9.8625 7.02459 9.81347C7.11234 9.75727 7.22155 9.68728 7.42466 9.68728C7.62796 9.68728 7.73731 9.75722 7.82511 9.81309C7.90208 9.86245 7.95744 9.8978 8.08376 9.8978C8.21009 9.8978 8.26564 9.8625 8.34261 9.81309C8.41596 9.76636 8.50798 9.71231 8.65385 9.69497C8.6921 9.59546 8.72913 9.48211 8.76377 9.34435L7.8215 7.77391L7.47046 8.47605L6.76832 7.07178L6.06614 8.47605L5.7151 7.77391L4.77344 9.34341C4.80789 9.48108 4.84487 9.59499 4.88312 9.69506C5.02834 9.71245 5.11993 9.7665 5.19311 9.81347Z" fill="#F5F5F5"/>
<path d="M8.48407 10.0353C8.39632 10.0911 8.28696 10.1611 8.08362 10.1611C7.88051 10.1611 7.77111 10.0911 7.68336 10.0353C7.60639 9.98591 7.55084 9.95056 7.42452 9.95056C7.29852 9.95056 7.24297 9.98586 7.16638 10.0353C7.07863 10.0911 6.96941 10.1611 6.76644 10.1611C6.56334 10.1611 6.45412 10.0911 6.36637 10.0349C6.28973 9.98586 6.23437 9.95056 6.10837 9.95056C5.98237 9.95056 5.92701 9.98586 5.85038 10.0349C5.76263 10.0911 5.65341 10.1611 5.45044 10.1611C5.24766 10.1611 5.13863 10.0911 5.05102 10.0349C5.0506 10.0347 5.05027 10.0344 5.0498 10.0341C5.11862 10.159 5.18743 10.2738 5.25596 10.3778C5.30724 10.4059 5.36077 10.4244 5.45039 10.4244C5.57639 10.4244 5.63175 10.3891 5.70839 10.34C5.79614 10.2838 5.90536 10.2139 6.10833 10.2139C6.31129 10.2139 6.42046 10.2838 6.50826 10.3397C6.5849 10.3891 6.64045 10.4244 6.7664 10.4244C6.8924 10.4244 6.94775 10.3891 7.02439 10.3401C7.11214 10.2839 7.22136 10.2139 7.42447 10.2139C7.62776 10.2139 7.73712 10.2839 7.82492 10.3398C7.90189 10.3891 7.95725 10.4245 8.08357 10.4245C8.17456 10.4245 8.22865 10.4057 8.28063 10.377C8.34912 10.2731 8.41783 10.1585 8.4866 10.0337C8.4858 10.0342 8.48501 10.0347 8.48407 10.0353Z" fill="#F5F5F5"/>
<path d="M6.78295 5.8628L6.84455 6.06408L7.04967 6.01679C7.06359 6.01355 7.0733 6.03033 7.06355 6.04079L6.92001 6.19477L7.06355 6.34875C7.0733 6.35921 7.06364 6.37599 7.04967 6.37275L6.84455 6.32546L6.78295 6.52674C6.77878 6.54042 6.75942 6.54042 6.75525 6.52674L6.69366 6.32546L6.48854 6.37275C6.47461 6.37599 6.46491 6.35921 6.47466 6.34875L6.61819 6.19477L6.47466 6.04079C6.46491 6.03033 6.47457 6.01355 6.48854 6.01679L6.69366 6.06408L6.75525 5.8628C6.75942 5.84912 6.77878 5.84912 6.78295 5.8628Z" fill="#FFE15A"/>
<path d="M5.77319 4.89548L5.83478 5.09676L6.0399 5.04947C6.05383 5.04623 6.06353 5.06301 6.05378 5.07347L5.91025 5.22745L6.05378 5.38143C6.06353 5.39189 6.05387 5.40867 6.0399 5.40543L5.83478 5.35814L5.77319 5.55941C5.76902 5.5731 5.74966 5.5731 5.74549 5.55941L5.68389 5.35814L5.47877 5.40543C5.46485 5.40867 5.45514 5.39189 5.46489 5.38143L5.60842 5.22745L5.46489 5.07347C5.45514 5.06301 5.4648 5.04623 5.47877 5.04947L5.68389 5.09676L5.74549 4.89548C5.74966 4.88184 5.76902 4.88184 5.77319 4.89548Z" fill="#FFE15A"/>
<path d="M7.79956 4.89548L7.86115 5.09676L8.06627 5.04947C8.08019 5.04623 8.0899 5.06301 8.08015 5.07347L7.93662 5.22745L8.08015 5.38143C8.0899 5.39189 8.08024 5.40867 8.06627 5.40543L7.86115 5.35814L7.79956 5.55941C7.79538 5.5731 7.77602 5.5731 7.77185 5.55941L7.71026 5.35814L7.50514 5.40543C7.49121 5.40867 7.48151 5.39189 7.49126 5.38143L7.63479 5.22745L7.49126 5.07347C7.48151 5.06301 7.49117 5.04623 7.50514 5.04947L7.71026 5.09676L7.77185 4.89548C7.77602 4.88184 7.79538 4.88184 7.79956 4.89548Z" fill="#FFE15A"/>
<path d="M9.56878 4.79089C9.57089 4.90283 9.57276 5.01584 9.57276 5.13777C9.52209 6.40436 9.33365 9.16279 8.92294 9.9935C8.31746 11.2095 7.75839 11.6114 6.77266 11.9819C5.78694 11.6115 5.22796 11.2097 4.62286 9.99448C4.21064 9.16054 4.02085 6.35528 3.97243 5.13786C3.97243 5.01575 3.97439 4.90405 3.97613 4.79113C3.85458 4.83871 3.73383 4.88905 3.61426 4.943C3.6227 5.189 3.68396 6.80261 3.8679 8.22145C3.97168 9.01349 4.11441 9.74352 4.30884 10.1327C5.01267 11.5314 5.72019 11.9391 6.77271 12.3159C7.82537 11.9389 8.53285 11.531 9.23658 10.1327C9.43101 9.74356 9.57379 9.01354 9.67753 8.22145C9.86142 6.80266 9.92259 5.189 9.93107 4.943C9.81131 4.88891 9.69046 4.83852 9.56878 4.79089Z" fill="#FF1722"/>
</g>
<defs>
<clipPath id="clip0_8615_27475">
<path d="M0 2C0 0.895432 0.895431 0 2 0H21.9998C23.1043 0 23.9998 0.895431 23.9998 2V21.9998C23.9998 23.1043 23.1043 23.9998 21.9998 23.9998H2C0.895432 23.9998 0 23.1043 0 21.9998V2Z" fill="white"/>
</clipPath>
</defs>
</svg>
