<svg width="24" height="24" viewBox="0 0 24 24" fill="none" xmlns="http://www.w3.org/2000/svg">
<g clip-path="url(#clip0_8615_27642)">
<path d="M24.0037 0H0.00390625V23.9998H24.0037V0Z" fill="#41479B"/>
<path d="M0.00390625 23.9999H24.0037V0.631714L0.00390625 23.9999Z" fill="#73AF00"/>
<path d="M24.0037 0H22.8709L0.00390625 22.867V23.9998H1.13668L24.0037 1.13277V0Z" fill="#FFE15A"/>
<path d="M2.95427 1.95679L2.66679 2.81881L1.75813 2.82584C1.67099 2.8265 1.63485 2.93773 1.70497 2.98948L2.43598 3.52929L2.1619 4.39567C2.13561 4.47873 2.2302 4.5475 2.30112 4.49683L3.04038 3.96841L3.77959 4.49683C3.85047 4.5475 3.94506 4.47878 3.91881 4.39567L3.64473 3.52929L4.37574 2.98948C4.44582 2.93773 4.40973 2.8265 4.32259 2.82584L3.41392 2.81881L3.12644 1.95679C3.09879 1.8741 2.98183 1.8741 2.95427 1.95679Z" fill="#F5F5F5"/>
<path d="M9.87615 1.95679L9.58866 2.81881L8.68 2.82584C8.59286 2.8265 8.55672 2.93773 8.62685 2.98948L9.35785 3.52929L9.08378 4.39567C9.05748 4.47873 9.15208 4.5475 9.223 4.49683L9.96225 3.96841L10.7015 4.49683C10.7724 4.5475 10.867 4.47878 10.8407 4.39567L10.5666 3.52929L11.2976 2.98948C11.3677 2.93773 11.3316 2.8265 11.2445 2.82584L10.3358 2.81881L10.0483 1.95679C10.0207 1.8741 9.90376 1.8741 9.87615 1.95679Z" fill="#F5F5F5"/>
<path d="M6.41521 5.04114L6.12773 5.90316L5.21906 5.9102C5.13192 5.91085 5.09578 6.02208 5.16591 6.07383L5.89692 6.61364L5.62284 7.48002C5.59654 7.56309 5.69114 7.63185 5.76206 7.58118L6.50132 7.05276L7.24058 7.58118C7.31145 7.63185 7.40604 7.56313 7.37979 7.48002L7.10567 6.61364L7.83668 6.07383C7.90676 6.02208 7.87066 5.91085 7.78352 5.9102L6.87486 5.90316L6.58738 5.04114C6.55968 4.95845 6.44277 4.95845 6.41521 5.04114Z" fill="#F5F5F5"/>
<path d="M2.95427 8.12533L2.66679 8.98736L1.75813 8.99439C1.67099 8.99505 1.63485 9.10628 1.70497 9.15803L2.43598 9.69784L2.1619 10.5642C2.13561 10.6473 2.2302 10.716 2.30112 10.6654L3.04038 10.137L3.77959 10.6654C3.85047 10.716 3.94506 10.6473 3.91881 10.5642L3.64473 9.69784L4.37574 9.15803C4.44582 9.10628 4.40973 8.99505 4.32259 8.99439L3.41392 8.98736L3.12644 8.12533C3.09879 8.04269 2.98183 8.04269 2.95427 8.12533Z" fill="#F5F5F5"/>
<path d="M9.87615 8.12533L9.58866 8.98736L8.68 8.99439C8.59286 8.99505 8.55672 9.10628 8.62685 9.15803L9.35785 9.69784L9.08378 10.5642C9.05748 10.6473 9.15208 10.716 9.223 10.6654L9.96225 10.137L10.7015 10.6654C10.7724 10.716 10.867 10.6473 10.8407 10.5642L10.5666 9.69784L11.2976 9.15803C11.3677 9.10628 11.3316 8.99505 11.2445 8.99439L10.3358 8.98736L10.0483 8.12533C10.0207 8.04269 9.90376 8.04269 9.87615 8.12533Z" fill="#F5F5F5"/>
</g>
<defs>
<clipPath id="clip0_8615_27642">
<path d="M0 2C0 0.895432 0.895431 0 2 0H21.9998C23.1043 0 23.9998 0.895431 23.9998 2V21.9998C23.9998 23.1043 23.1043 23.9998 21.9998 23.9998H2C0.895432 23.9998 0 23.1043 0 21.9998V2Z" fill="white"/>
</clipPath>
</defs>
</svg>
