<svg width="24" height="24" viewBox="0 0 24 24" fill="none" xmlns="http://www.w3.org/2000/svg">
<g clip-path="url(#clip0_8615_27669)">
<path d="M24.0027 0H0.00292969V23.9998H24.0027V0Z" fill="#82AFFF"/>
<path d="M11.8215 7.52419L10.7618 10.7014L7.41262 10.7274C7.22901 10.7288 7.15289 10.9631 7.30059 11.0722L9.99489 13.0618L8.9846 16.2551C8.9292 16.4302 9.12856 16.575 9.27795 16.4682L12.0027 14.5207L14.7275 16.4683C14.8769 16.5751 15.0762 16.4302 15.0209 16.2552L14.0106 13.0619L16.7049 11.0723C16.8526 10.9632 16.7765 10.7289 16.5929 10.7275L13.2437 10.7015L12.184 7.52424C12.1259 7.35 11.8795 7.35 11.8215 7.52419Z" fill="#F5F5F5"/>
</g>
<defs>
<clipPath id="clip0_8615_27669">
<path d="M0 2C0 0.895432 0.895431 0 2 0H21.9998C23.1043 0 23.9998 0.895431 23.9998 2V21.9998C23.9998 23.1043 23.1043 23.9998 21.9998 23.9998H2C0.895432 23.9998 0 23.1043 0 21.9998V2Z" fill="white"/>
</clipPath>
</defs>
</svg>
