<svg width="24" height="24" viewBox="0 0 24 24" fill="none" xmlns="http://www.w3.org/2000/svg">
<g clip-path="url(#clip0_8615_27474)">
<path d="M24.0027 0H0.00292969V8.0043H24.0027V0Z" fill="#73AF00"/>
<path d="M24.0027 15.9955H0.00292969V23.9998H24.0027V15.9955Z" fill="#FF4B55"/>
<path d="M24.0027 8.00439H0.00292969V15.9956H24.0027V8.00439Z" fill="#F5F5F5"/>
<path d="M12.1745 10.0557L12.5999 11.3312L13.9444 11.3416C14.1185 11.343 14.1907 11.5651 14.0506 11.6685L12.9691 12.4672L13.3746 13.7492C13.4271 13.9151 13.2382 14.0524 13.0966 13.9512L12.0027 13.1694L10.9088 13.9512C10.7672 14.0524 10.5782 13.9152 10.6308 13.7492L11.0363 12.4673L9.95474 11.6686C9.81473 11.5652 9.88687 11.343 10.061 11.3417L11.4055 11.3313L11.8308 10.0558C11.8859 9.89059 12.1195 9.89059 12.1745 10.0557Z" fill="#464655"/>
<path d="M6.39851 3.60564C6.43099 3.81381 6.55685 3.87915 6.66626 3.87067C6.79526 3.86063 6.90846 3.74265 6.90846 3.61806V2.90355C6.90846 2.86778 6.93757 2.83858 6.97343 2.83858C7.00929 2.83858 7.03839 2.86774 7.03839 2.90355V3.62111C7.03839 3.70735 7.081 3.78779 7.15249 3.83612C7.19613 3.8657 7.24694 3.88088 7.29813 3.88088C7.33075 3.88088 7.36347 3.87465 7.39469 3.86223L7.45961 3.83626C7.46561 4.43602 7.42909 4.96312 7.42844 4.97278C7.42337 5.04431 7.47723 5.10651 7.54876 5.11158C7.55195 5.11181 7.55505 5.11195 7.55814 5.11195C7.62569 5.11195 7.68273 5.05969 7.68761 4.9913C7.69061 4.94906 7.73068 4.3718 7.71864 3.73262L7.75787 3.71692C7.79232 3.70323 7.83095 3.70487 7.86404 3.72137C8.00715 3.79267 8.17932 3.76487 8.29238 3.65185L8.31577 3.62851C8.42077 3.52332 8.45686 3.37061 8.40985 3.22966L8.29923 2.89778C8.35904 2.91578 8.42476 2.8893 8.45363 2.83169C8.48574 2.76752 8.45972 2.68947 8.39551 2.65736L8.13568 2.52748C8.08867 2.5039 8.03228 2.51112 7.99243 2.54548C7.95273 2.57998 7.93768 2.63491 7.95432 2.68479L8.16334 3.31187C8.17899 3.3588 8.16695 3.40979 8.13198 3.44481L8.10863 3.46815C8.07474 3.50204 8.02318 3.51029 7.98006 3.48897C7.89582 3.44692 7.80001 3.439 7.71006 3.46197C7.69183 3.04502 7.64692 2.62976 7.55125 2.34274C7.52861 2.27473 7.45516 2.23784 7.38691 2.26067C7.31884 2.28326 7.28205 2.35685 7.30478 2.42496C7.39839 2.70569 7.43917 3.13347 7.45361 3.55881L7.29813 3.62101V2.90355C7.29813 2.7244 7.15244 2.57876 6.97333 2.57876C6.79427 2.57876 6.64854 2.7244 6.64854 2.90355V3.53242L6.51602 2.87782C6.50187 2.80741 6.43343 2.76147 6.36298 2.77619C6.29262 2.79054 6.24715 2.85902 6.2614 2.92933L6.39851 3.60564Z" fill="#F5F5F5"/>
<path d="M6.64942 2.51394C6.72119 2.51394 6.77931 2.45581 6.77931 2.38405V2.25416C6.77931 2.18235 6.72114 2.12427 6.64942 2.12427C6.57766 2.12427 6.51953 2.18239 6.51953 2.25416V2.38405C6.51953 2.45581 6.57766 2.51394 6.64942 2.51394Z" fill="#F5F5F5"/>
<path d="M7.94825 2.38392H8.07814C8.1499 2.38392 8.20803 2.3258 8.20803 2.25403C8.20803 2.18222 8.14986 2.12415 8.07814 2.12415H7.94825C7.87648 2.12415 7.81836 2.18227 7.81836 2.25403C7.81836 2.32585 7.87653 2.38392 7.94825 2.38392Z" fill="#F5F5F5"/>
<path d="M7.10228 4.09131L6.45274 4.48102C6.39119 4.51796 6.37127 4.59774 6.4082 4.65929C6.43258 4.69988 6.47556 4.72233 6.51972 4.72233C6.5425 4.72233 6.56552 4.71638 6.58647 4.70382L7.23601 4.3141C7.29756 4.27717 7.31748 4.19739 7.28054 4.13584C7.2436 4.07429 7.16387 4.05437 7.10228 4.09131Z" fill="#F5F5F5"/>
<path d="M8.85354 4.3211L8.85659 4.31904C8.86751 4.36292 8.88621 4.40543 8.91654 4.4411C8.96932 4.50326 9.04849 4.53448 9.13793 4.52712C9.26477 4.51784 9.35107 4.4599 9.40816 4.38504C9.41683 4.39099 9.42597 4.39648 9.43558 4.40126C9.5058 4.43665 9.58699 4.43398 9.66433 4.3939C9.86064 4.29279 9.90297 4.05884 9.89702 3.93655C9.89355 3.86525 9.83289 3.81486 9.76178 3.8135C9.69044 3.81655 9.63494 3.87706 9.63747 3.94836C9.63752 3.95 9.64047 4.10417 9.54621 4.16136C9.53088 4.13993 9.5126 4.0917 9.50575 4.05186C9.49479 3.98501 9.43338 3.93842 9.36729 3.94376C9.29993 3.94911 9.2479 4.00569 9.24766 4.07328C9.24762 4.09217 9.2434 4.2589 9.11473 4.27282C9.09977 4.25239 9.09949 4.16637 9.11421 4.10281C9.12663 4.05069 9.10573 3.99626 9.06162 3.9658C9.01742 3.93523 8.9591 3.93523 8.91476 3.96528L8.84225 4.01459C8.80779 3.26122 8.72848 2.38331 8.7275 2.37211C8.72103 2.30081 8.65822 2.24766 8.58636 2.2545C8.51487 2.26097 8.46223 2.32416 8.4687 2.39569C8.46983 2.40769 8.56156 3.42341 8.58987 4.19909C8.58326 4.20542 8.57637 4.21231 8.56986 4.21836C8.51848 4.08884 8.41667 4.00723 8.28547 3.99481C8.10036 3.97845 7.89979 4.1044 7.82793 4.28431C7.76596 4.43909 7.80496 4.5912 7.92726 4.67177C8.01519 4.72976 8.14789 4.74804 8.31472 4.68954C8.27399 4.83265 8.19983 4.97777 8.10341 5.09003C8.01707 5.19063 7.87288 5.30674 7.68838 5.30153C7.58099 5.29736 7.49845 5.2622 7.4361 5.19396C7.28568 5.02966 7.29867 4.73229 7.29876 4.7291C7.30251 4.65757 7.24771 4.59654 7.17623 4.5926C7.10423 4.58501 7.0433 4.64346 7.03936 4.71513C7.03847 4.73163 7.01962 5.12238 7.24336 5.36809C7.35346 5.48926 7.49981 5.55409 7.67826 5.56108C7.68693 5.56145 7.69565 5.56159 7.70441 5.56159C7.92172 5.56159 8.13257 5.45505 8.30056 5.25925C8.45858 5.07527 8.56583 4.82538 8.59803 4.5934C8.59761 5.03782 8.32981 5.53905 7.97469 5.75987C7.8239 5.85348 7.58882 5.93799 7.32403 5.80745C6.99759 5.64634 7.0365 5.27322 7.03819 5.25799C7.04714 5.18683 6.99656 5.12186 6.92541 5.113C6.85453 5.10438 6.78923 5.15449 6.78038 5.22578C6.77747 5.24899 6.71503 5.79667 7.20904 6.04037C7.33589 6.10304 7.46859 6.13412 7.60232 6.13412C7.77412 6.13412 7.94746 6.08274 8.1118 5.98046C8.54408 5.71178 8.8579 5.12796 8.8579 4.59232C8.85776 4.50884 8.85621 4.41729 8.85354 4.3211ZM8.07018 4.45503C8.04697 4.4397 8.06511 4.39057 8.06905 4.38082C8.09638 4.31234 8.18197 4.25309 8.25036 4.25309C8.25383 4.25309 8.25739 4.25323 8.26081 4.25361C8.27745 4.25511 8.32152 4.25932 8.3405 4.35739C8.34252 4.36779 8.34425 4.37843 8.34556 4.38935C8.20072 4.47434 8.10369 4.47701 8.07018 4.45503Z" fill="#F5F5F5"/>
<path d="M6.71436 5.64983C6.65281 5.61369 6.57327 5.63436 6.53675 5.69586C6.5308 5.70589 6.52288 5.71681 6.51481 5.7267C6.51341 5.72342 6.512 5.71986 6.51064 5.71606C6.45645 5.57155 6.49503 5.34889 6.51453 5.27535C6.53286 5.20607 6.49161 5.13505 6.42238 5.11649C6.35324 5.09872 6.28213 5.13908 6.26352 5.20832C6.25405 5.24347 6.17422 5.55884 6.26732 5.80723C6.32694 5.96604 6.41849 6.00617 6.48481 6.0116C6.49072 6.01212 6.49653 6.01235 6.5023 6.01235C6.64217 6.01235 6.73522 5.8714 6.76109 5.82673C6.797 5.7649 6.77604 5.68611 6.71436 5.64983Z" fill="#F5F5F5"/>
<path d="M9.11243 3.29334C9.14051 3.29334 9.16882 3.28434 9.19258 3.26554L9.84751 2.75137C9.85656 2.7443 9.86233 2.73497 9.86894 2.72625C9.96325 2.66934 10.0271 2.56692 10.0271 2.44894C10.0271 2.26978 9.8814 2.12415 9.7023 2.12415C9.52324 2.12415 9.3775 2.26978 9.3775 2.44894C9.3775 2.54916 9.4241 2.63775 9.49563 2.69737L9.03208 3.06131C8.97569 3.1056 8.96585 3.18731 9.01015 3.2436C9.03583 3.27637 9.07394 3.29334 9.11243 3.29334ZM9.70234 2.38397C9.7382 2.38397 9.76731 2.41313 9.76731 2.44894C9.76731 2.48475 9.7382 2.51391 9.70234 2.51391C9.66648 2.51391 9.63738 2.48475 9.63738 2.44894C9.63738 2.41313 9.66653 2.38397 9.70234 2.38397Z" fill="#F5F5F5"/>
<path d="M9.54852 3.17009C9.48008 3.14726 9.40681 3.18415 9.38417 3.25217C9.3703 3.29379 9.30749 3.50806 9.4348 3.63532C9.4842 3.68482 9.54917 3.70952 9.62891 3.70943C9.6822 3.70943 9.74206 3.69851 9.80834 3.67633C9.8764 3.65374 9.9132 3.5802 9.89047 3.51204C9.86778 3.44402 9.79433 3.40699 9.72612 3.42996C9.65356 3.45406 9.62286 3.45012 9.62005 3.45265C9.61236 3.43338 9.61747 3.3754 9.63078 3.33392C9.65319 3.26599 9.61639 3.19268 9.54852 3.17009Z" fill="#F5F5F5"/>
<path d="M11.035 2.63319C11.0471 2.63676 11.0594 2.6384 11.0714 2.6384C11.1277 2.6384 11.1795 2.6016 11.1961 2.54488L11.2719 2.28506C11.292 2.21615 11.2524 2.14396 11.1835 2.12395C11.1145 2.10403 11.0425 2.14336 11.0224 2.21226L10.9466 2.47209C10.9265 2.54094 10.9661 2.61313 11.035 2.63319Z" fill="#F5F5F5"/>
<path d="M10.278 2.61785C10.2986 2.6299 10.3212 2.63562 10.3435 2.63562C10.3882 2.63562 10.4316 2.61265 10.4558 2.57131C10.492 2.50938 10.4711 2.42974 10.4092 2.39356C10.3831 2.37832 10.3866 2.33534 10.3876 2.32681C10.3915 2.29268 10.4118 2.25106 10.4472 2.24004C10.5157 2.21872 10.554 2.14592 10.5327 2.07739C10.5113 2.00876 10.4386 1.97084 10.37 1.99189C10.2405 2.03225 10.1461 2.15211 10.1295 2.29723C10.114 2.43237 10.1709 2.55518 10.278 2.61785Z" fill="#F5F5F5"/>
<path d="M9.24708 4.72229C9.17531 4.72229 9.11719 4.78041 9.11719 4.85218C9.11719 4.9156 9.16261 4.96838 9.22275 4.97982C9.22959 4.98985 9.24712 5.02421 9.24712 5.11201C9.24712 5.18382 9.3053 5.24189 9.37701 5.24189C9.44878 5.24189 9.5069 5.18377 9.5069 5.11201C9.5069 4.72674 9.25767 4.72229 9.24708 4.72229Z" fill="#F5F5F5"/>
<path d="M11.4517 4.18438C11.468 4.18705 11.4842 4.18831 11.5005 4.18831C11.6025 4.18831 11.7057 4.1368 11.8078 4.03466C11.8586 3.98389 11.8586 3.90172 11.8078 3.85096C11.757 3.80019 11.6749 3.80019 11.6241 3.85096C11.5464 3.92872 11.5046 3.93036 11.4939 3.92797C11.4691 3.92441 11.4466 3.89207 11.4416 3.88321C11.409 3.82002 11.3317 3.7948 11.2681 3.82663C11.204 3.85874 11.178 3.93674 11.21 4.00096C11.2181 4.01708 11.2931 4.15864 11.4517 4.18438Z" fill="#F5F5F5"/>
<path d="M13.6594 3.2715C13.6585 3.26948 13.6578 3.26756 13.6572 3.26578C13.6342 3.19828 13.5606 3.16162 13.4932 3.18459C13.4251 3.20719 13.3883 3.28078 13.411 3.34889C13.4212 3.37936 13.479 3.53207 13.6224 3.55138C13.6319 3.55265 13.6414 3.55331 13.6509 3.55331C13.7409 3.55331 13.8253 3.49509 13.9021 3.37987C13.9419 3.32025 13.9258 3.23958 13.8661 3.19973C13.8063 3.16003 13.7257 3.17601 13.686 3.23578C13.6757 3.25106 13.6668 3.26273 13.6594 3.2715Z" fill="#F5F5F5"/>
<path d="M13.4048 5.6317C13.4048 5.07769 13.3804 4.558 13.3466 4.10266C13.5311 4.42257 13.697 4.74582 13.8028 5.02782C13.8224 5.07994 13.8719 5.11205 13.9244 5.11205C13.9395 5.11205 13.955 5.10938 13.97 5.1038C14.0372 5.07854 14.0713 5.00372 14.0461 4.93646C13.8817 4.49809 13.5861 3.97605 13.2948 3.5126C13.2238 2.81281 13.1443 2.36863 13.1429 2.3607C13.1301 2.29002 13.0626 2.24235 12.9919 2.25617C12.9213 2.26897 12.8745 2.33661 12.8873 2.40716C12.8883 2.41278 12.9293 2.64162 12.9782 3.0267C12.8784 2.87857 12.7857 2.74498 12.7079 2.63501L12.7142 2.63703C12.7826 2.65986 12.8559 2.62297 12.8785 2.55495C12.9012 2.48684 12.8645 2.41325 12.7964 2.39066L12.4067 2.26077C12.3527 2.24249 12.2934 2.2618 12.2602 2.30797C12.2514 2.3203 12.2453 2.3338 12.2412 2.34777C12.1635 2.29025 12.0637 2.24352 11.9701 2.2827C11.9134 2.30619 11.8459 2.3653 11.8459 2.51384C11.8459 2.62789 11.8894 2.75122 11.9356 2.88186C12.0121 3.09856 12.06 3.25788 11.979 3.33387C11.9342 3.37587 11.8895 3.39171 11.8458 3.38069C11.7657 3.3604 11.6864 3.25371 11.6336 3.09523C11.6313 3.08838 11.6265 3.08337 11.6232 3.07718C11.6506 2.87595 11.6387 2.63351 11.5836 2.35841C11.5696 2.288 11.5014 2.24221 11.4308 2.25655C11.3604 2.27061 11.3148 2.339 11.3289 2.40941C11.4137 2.83362 11.3883 3.17974 11.2609 3.33513C11.2116 3.39527 11.1499 3.42316 11.0666 3.42316C11.0402 3.42316 11.0223 3.41477 11.0044 3.39424C10.9019 3.27612 10.9024 2.89503 10.9354 2.66197C10.9407 2.6248 10.9295 2.58697 10.9048 2.55856C10.8802 2.53016 10.8444 2.5138 10.8068 2.5138C10.5832 2.5138 10.4985 2.76804 10.4237 2.99234C10.3909 3.09092 10.3298 3.27424 10.2871 3.29327C10.2085 3.29327 10.1577 3.06237 10.1572 2.90342C10.1571 2.83175 10.0989 2.77376 10.0274 2.77376H10.0272C9.95549 2.77376 9.89746 2.83189 9.89746 2.90356C9.89746 3.20323 9.99951 3.5531 10.2872 3.5531C10.5014 3.5531 10.5882 3.31966 10.6608 3.10273C10.6734 3.27527 10.7124 3.45401 10.8082 3.5644C10.8755 3.64202 10.9648 3.68303 11.0667 3.68303C11.227 3.68303 11.3636 3.61971 11.4619 3.49999C11.4796 3.47829 11.495 3.45344 11.5101 3.42832C11.5855 3.53557 11.678 3.60625 11.7823 3.6326C11.8128 3.64033 11.8436 3.64427 11.8741 3.64427C11.9743 3.64427 12.0723 3.60293 12.157 3.52338C12.1746 3.50683 12.187 3.48874 12.2004 3.47097C12.2321 3.48007 12.2643 3.48546 12.2963 3.48546C12.4015 3.48546 12.5028 3.44308 12.5657 3.40273C12.6258 3.36415 12.6432 3.28451 12.605 3.22409C12.5668 3.16381 12.4867 3.14581 12.4262 3.18363C12.4251 3.18415 12.3383 3.23398 12.2791 3.22235C12.2793 3.07995 12.2277 2.92868 12.1807 2.79547C12.1539 2.71962 12.1264 2.64181 12.1135 2.5783C12.1242 2.5873 12.1347 2.59667 12.144 2.60581C12.1946 2.65658 12.2769 2.65658 12.3277 2.60581C12.3361 2.59742 12.3409 2.5872 12.3466 2.57741C12.4812 2.76293 12.7582 3.15274 13.0431 3.60208C13.0974 4.15441 13.1452 4.85902 13.1452 5.63175C13.1452 5.70356 13.2034 5.76164 13.2751 5.76164C13.3468 5.76164 13.4048 5.70352 13.4048 5.6317Z" fill="#F5F5F5"/>
<path d="M13.5343 2.77372C13.5343 2.84553 13.5925 2.90361 13.6642 2.90361C13.7359 2.90361 13.7941 2.84549 13.7941 2.77372C13.7941 2.62086 13.6745 2.37383 13.6505 2.32588C13.6184 2.2618 13.5404 2.23593 13.4761 2.26776C13.412 2.29987 13.386 2.37787 13.418 2.44208C13.465 2.53583 13.5343 2.70594 13.5343 2.77372Z" fill="#F5F5F5"/>
<path d="M12.9434 5.64594C12.8797 5.61345 12.8014 5.63923 12.769 5.70317C12.755 5.73045 12.7334 5.76078 12.7151 5.78033C12.7094 5.72867 12.7231 5.62555 12.7493 5.54005C12.7667 5.48295 12.7431 5.42131 12.692 5.39061C12.641 5.35977 12.5754 5.36778 12.5333 5.41002L12.2734 5.66984C12.2227 5.72061 12.2227 5.80278 12.2734 5.85354C12.3242 5.90431 12.4064 5.90431 12.4571 5.85354L12.4637 5.84693C12.475 5.89906 12.4965 5.94664 12.5333 5.98343C12.582 6.03214 12.6408 6.05792 12.702 6.05792C12.7139 6.05792 12.7258 6.05688 12.7378 6.05501C12.885 6.03115 12.9765 5.86892 13.0012 5.81979C13.0331 5.75567 13.0072 5.67814 12.9434 5.64594Z" fill="#F5F5F5"/>
<path d="M12.8928 4.60055H11.9772C11.9853 4.56821 11.9937 4.53737 12.0022 4.50807C12.3673 4.43223 12.5843 4.31434 12.6481 4.15703C12.6702 4.10246 12.6932 3.99221 12.5993 3.86551C12.5146 3.75133 12.3951 3.70009 12.2709 3.72545C12.0863 3.76286 11.9218 3.96179 11.8038 4.28021C11.437 4.34302 11.2023 4.47465 11.0537 4.60454C11.001 4.07218 10.7943 3.75592 10.7843 3.74087C10.7445 3.68111 10.6638 3.66503 10.6042 3.70483C10.5445 3.74467 10.5284 3.8252 10.5681 3.88497C10.5705 3.88853 10.8061 4.24895 10.8061 4.85218C10.8061 5.44514 10.3333 5.89143 10.0266 5.89143C9.88075 5.89143 9.81691 5.71804 9.78883 5.57147C10.0891 5.36105 10.3539 5.11758 10.4124 4.88363C10.4916 4.56708 10.392 4.33379 10.3261 4.17939C10.323 4.17226 10.3197 4.16467 10.3164 4.15679C10.3192 4.15932 10.3218 4.16199 10.3245 4.16453C10.3751 4.21529 10.4574 4.21529 10.5082 4.16453C10.5589 4.11376 10.5589 4.03159 10.5082 3.98082C10.4322 3.90484 10.2848 3.78545 10.1507 3.84151C10.0941 3.865 10.0266 3.92411 10.0266 4.07265C10.0266 4.13978 10.0547 4.20535 10.0871 4.28148C10.1456 4.41835 10.2184 4.58874 10.1604 4.82063C10.1261 4.95788 9.95758 5.12433 9.7352 5.28961C9.71139 5.26111 9.67694 5.24194 9.63691 5.24194H9.63672C9.56505 5.24208 9.50702 5.30006 9.50702 5.37173C9.50702 5.39508 9.50805 5.42011 9.50955 5.44575C9.23154 5.62579 8.91691 5.79243 8.67378 5.90306C8.60853 5.93273 8.57965 6.00974 8.60932 6.07509C8.63107 6.1229 8.67828 6.15121 8.72764 6.15121C8.74564 6.15121 8.76392 6.14755 8.78131 6.13954C8.85434 6.10635 9.20107 5.94482 9.55717 5.72409C9.62275 5.94679 9.76173 6.15121 10.0267 6.15121C10.3383 6.15121 10.6919 5.8964 10.8959 5.51587C10.9205 5.55937 10.9489 5.60104 10.9826 5.63995C11.3096 6.01701 11.9483 6.02132 11.9753 6.02132C12.0453 6.02132 12.1026 5.96601 12.1052 5.89612C12.1077 5.82623 12.0544 5.76684 11.9847 5.76192C11.9836 5.76178 11.8801 5.75039 11.8225 5.68312C11.7877 5.64253 11.7739 5.5867 11.78 5.5125C11.7933 5.35237 12.3097 5.23275 12.7648 5.22567C12.8191 5.22478 12.8671 5.19042 12.8853 5.13928L13.0152 4.7739C13.0294 4.73419 13.0233 4.6899 12.9989 4.65554C12.9746 4.62108 12.935 4.60055 12.8928 4.60055ZM12.3225 3.98017C12.325 3.97965 12.3283 3.9789 12.3324 3.9789C12.3449 3.9789 12.3644 3.985 12.3906 4.02025C12.3956 4.02686 12.4114 4.0494 12.4073 4.05934C12.3924 4.09614 12.3028 4.15689 12.1159 4.21196C12.1981 4.05161 12.2785 3.98903 12.3225 3.98017ZM11.538 5.6879C11.406 5.64501 11.2715 5.57704 11.1784 5.46933C11.0761 5.35097 11.0383 5.20125 11.0631 5.01183C11.0669 5.00189 11.0753 4.98225 11.0902 4.95675C11.2732 4.94002 11.7618 5.01211 11.7957 5.15208C11.645 5.22905 11.5339 5.33723 11.5211 5.49103C11.5147 5.56814 11.5225 5.63348 11.538 5.6879Z" fill="#F5F5F5"/>
<path d="M14.3071 2.73262L14.1772 2.34291C14.1563 2.28024 14.0912 2.24283 14.0268 2.25703C13.962 2.27086 13.9181 2.33114 13.9247 2.39695C14.0143 3.29338 14.1838 5.04157 14.1838 5.242C14.1838 5.422 13.8636 5.77647 13.3463 6.03517C13.2821 6.06728 13.2561 6.14528 13.2881 6.20949C13.3109 6.25506 13.3568 6.28131 13.4045 6.28131C13.4239 6.28131 13.4438 6.27685 13.4625 6.26762C13.9351 6.03128 14.4436 5.60959 14.4436 5.24205C14.4436 5.0501 14.3109 3.66903 14.2348 2.89326C14.2965 2.86696 14.3287 2.79731 14.3071 2.73262Z" fill="#F5F5F5"/>
<path d="M15.3908 3.90478C15.4158 3.92976 15.449 3.94284 15.4827 3.94284C15.5046 3.94284 15.5268 3.93726 15.5469 3.92582C15.5977 3.8969 15.6229 3.83751 15.6085 3.78084C15.5852 3.68948 15.5775 3.57534 15.5898 3.52866C15.6549 3.53067 15.7153 3.48436 15.7248 3.41728C15.735 3.34622 15.6857 3.28041 15.6146 3.27024C15.5288 3.25856 15.4534 3.28383 15.4006 3.34242C15.3665 3.38049 15.3462 3.42933 15.3351 3.48183L15.1847 3.33136C15.1339 3.2806 15.0517 3.2806 15.001 3.33136C14.9502 3.38213 14.9502 3.4643 15.001 3.51506L15.3908 3.90478Z" fill="#F5F5F5"/>
<path d="M15.683 4.04027L15.1959 4.38939C15.1376 4.43111 15.1241 4.51235 15.1659 4.5707C15.1913 4.60609 15.2312 4.62489 15.2717 4.62489C15.2979 4.62489 15.3243 4.61702 15.3472 4.60052L15.8344 4.25139C15.8927 4.20968 15.9062 4.12844 15.8644 4.07008C15.8224 4.01173 15.7411 3.99813 15.683 4.04027Z" fill="#F5F5F5"/>
<path d="M15.6406 4.52886C15.5998 4.5815 15.6056 4.65561 15.652 4.70112C15.6575 4.7105 15.6829 4.76023 15.6783 4.8881C15.6758 4.95991 15.7318 5.02005 15.8035 5.02259C15.8051 5.02273 15.8067 5.02273 15.8082 5.02273C15.8779 5.02273 15.9355 4.96756 15.938 4.89752C15.9475 4.63236 15.8606 4.53547 15.8229 4.50617C15.7664 4.46183 15.6846 4.47223 15.6406 4.52886Z" fill="#F5F5F5"/>
<path d="M16.7744 5.48555C16.8462 5.48555 16.9043 5.42743 16.9043 5.35566C16.9043 5.16399 16.8945 4.95001 16.8783 4.7274C17.0071 4.93848 17.1142 5.13306 17.1828 5.29313C17.2038 5.34249 17.2518 5.37193 17.3022 5.37193C17.3193 5.37193 17.3367 5.36865 17.3534 5.36138C17.4193 5.33307 17.4498 5.25671 17.4216 5.1909C17.3026 4.91336 17.0804 4.54567 16.8272 4.16608C16.7763 3.68923 16.7097 3.22208 16.658 2.88692C16.6855 2.88973 16.714 2.88298 16.7391 2.86677C16.7801 2.84047 16.7994 2.79486 16.7966 2.74939C16.8 2.76214 16.8035 2.77499 16.811 2.7867C16.8119 2.78797 16.8954 2.92587 16.8583 3.10475C16.8438 3.17492 16.889 3.24368 16.9592 3.25826C16.9681 3.26004 16.977 3.26093 16.9857 3.26093C17.046 3.26093 17.1 3.2187 17.1128 3.15729C17.1715 2.87352 17.036 2.6563 17.0302 2.64716C16.9916 2.58678 16.9113 2.56902 16.8508 2.60732C16.8096 2.63357 16.7901 2.67927 16.7928 2.72478C16.7895 2.71194 16.7858 2.69905 16.7782 2.68724L16.559 2.34622C16.5255 2.29419 16.46 2.27315 16.4024 2.29546C16.3448 2.31805 16.311 2.37805 16.3217 2.43894C16.3235 2.44916 16.4228 3.01925 16.5108 3.70634C16.4112 3.56567 16.3117 3.42818 16.2151 3.29693C16.1994 3.10039 16.1836 2.91866 16.1701 2.76842C16.1772 2.76627 16.1843 2.76345 16.1912 2.76003C16.2554 2.72792 16.2814 2.64992 16.2493 2.58571L16.1194 2.32588C16.0914 2.26982 16.0274 2.24188 15.9671 2.25913C15.9069 2.27662 15.8677 2.33451 15.8739 2.3969C15.8895 2.55191 15.9056 2.72356 15.9214 2.90384C15.8393 2.79552 15.7632 2.69638 15.6982 2.61242C15.7109 2.6015 15.7217 2.58796 15.7298 2.57197C15.7619 2.5078 15.7359 2.42975 15.6716 2.39765L15.4118 2.26776C15.3573 2.24062 15.2912 2.25482 15.2527 2.30226C15.2144 2.34969 15.2142 2.41743 15.2523 2.46515C15.2593 2.47386 15.5792 2.87483 15.9618 3.39237C16.0282 4.25069 16.0723 5.14356 16.0099 5.33077C15.9985 5.36504 15.9786 5.40535 15.9599 5.40676C15.8814 5.41768 15.694 5.24209 15.5998 5.05393C15.5456 4.94561 15.4675 4.93431 15.4258 4.93618C15.2862 4.94481 15.2317 5.09846 15.1327 5.37727C15.0618 5.5771 14.9736 5.82549 14.8745 5.92711C14.8209 5.86158 14.7515 5.64164 14.713 5.41562C14.7311 5.46558 14.7779 5.50172 14.8341 5.50172C14.9058 5.50172 14.964 5.4436 14.964 5.37184C14.964 5.1781 14.8285 3.70268 14.7528 2.89405C14.816 2.86869 14.8492 2.798 14.8274 2.73256L14.6975 2.34285C14.6766 2.28018 14.6125 2.24324 14.5474 2.25683C14.4827 2.27052 14.4386 2.33052 14.4449 2.39624C14.5332 3.323 14.6988 5.11304 14.7039 5.36007C14.7036 5.35787 14.7032 5.35566 14.7028 5.35341C14.6928 5.28235 14.6265 5.23365 14.5559 5.24316C14.4848 5.25343 14.4356 5.31915 14.4457 5.39021C14.4836 5.65575 14.5805 6.11231 14.8038 6.18666C14.8214 6.19261 14.8451 6.19795 14.873 6.19795C14.9242 6.19795 14.9892 6.17981 15.0558 6.1132C15.1973 5.97174 15.293 5.70202 15.3775 5.46418C15.3966 5.41037 15.4192 5.34671 15.4405 5.29215C15.5597 5.46619 15.7677 5.68289 15.9783 5.66588C16.0524 5.66054 16.1872 5.62069 16.2564 5.4129C16.3255 5.20566 16.2982 4.48291 16.2517 3.79099C16.3611 3.94441 16.4707 4.10144 16.5752 4.25664C16.6157 4.64565 16.6447 5.03542 16.6447 5.35557C16.6445 5.42743 16.7026 5.48555 16.7744 5.48555Z" fill="#F5F5F5"/>
<path d="M17.7599 4.80221C17.6678 4.11662 17.5397 3.32247 17.4584 2.83503C17.4951 2.84403 17.5351 2.83667 17.5673 2.81192C17.6244 2.76842 17.6353 2.68681 17.5918 2.62986L17.3563 2.32133C17.32 2.27389 17.2559 2.25716 17.201 2.28111C17.1461 2.30511 17.1148 2.36347 17.125 2.42244C17.1274 2.43575 17.359 3.76938 17.5023 4.83666C17.5571 5.24452 17.4771 5.60901 17.2884 5.81151C17.1672 5.94154 17.0064 6.00042 16.8119 5.98912C16.7405 5.98532 16.6786 6.03909 16.6741 6.11067C16.6696 6.1822 16.724 6.24388 16.7955 6.24843C16.8175 6.24984 16.8391 6.25045 16.8606 6.25045C17.1055 6.25045 17.3181 6.16063 17.4785 5.9886C17.7233 5.72601 17.8258 5.29355 17.7599 4.80221Z" fill="#F5F5F5"/>
<path d="M16.3307 5.65856C16.2829 5.71045 16.2865 5.79215 16.3371 5.84113C16.3441 5.84798 16.3525 5.86143 16.3526 5.86804C16.3527 5.87169 16.3474 5.88262 16.333 5.8971C16.2822 5.94786 16.2822 6.03004 16.333 6.0808C16.3584 6.10616 16.3916 6.11886 16.4248 6.11886C16.4581 6.11886 16.4913 6.10616 16.5167 6.0808C16.5991 5.99844 16.6142 5.91487 16.6124 5.85918C16.6084 5.73927 16.5267 5.66188 16.5104 5.64759C16.4574 5.60132 16.3784 5.6069 16.3307 5.65856Z" fill="#F5F5F5"/>
</g>
<defs>
<clipPath id="clip0_8615_27474">
<path d="M0 2C0 0.895432 0.895431 0 2 0H21.9998C23.1043 0 23.9998 0.895431 23.9998 2V21.9998C23.9998 23.1043 23.1043 23.9998 21.9998 23.9998H2C0.895432 23.9998 0 23.1043 0 21.9998V2Z" fill="white"/>
</clipPath>
</defs>
</svg>
