<svg width="24" height="24" viewBox="0 0 24 24" fill="none" xmlns="http://www.w3.org/2000/svg">
<g clip-path="url(#clip0_8615_27505)">
<path d="M24.0017 0H0.00195312V8.00008H24.0017V0Z" fill="#464655"/>
<path d="M24.0017 15.9998H0.00195312V23.9998H24.0017V15.9998Z" fill="#73AF00"/>
<path d="M24.0017 8.00012H0.00195312V16.0002H24.0017V8.00012Z" fill="#FF4B55"/>
<path d="M4.47588 10.9296L4.72183 11.4631L5.29224 11.3228C5.32787 11.314 5.35735 11.351 5.3409 11.3838L5.07714 11.9087L5.54251 12.2672C5.57157 12.2895 5.56102 12.3357 5.52516 12.3433L4.95034 12.4643L4.96023 13.0517C4.96084 13.0883 4.91818 13.1089 4.88992 13.0855L4.43688 12.7116L3.98383 13.0855C3.95557 13.1089 3.91291 13.0883 3.91352 13.0517L3.92341 12.4643L3.34859 12.3433C3.31268 12.3357 3.30218 12.2895 3.33125 12.2672L3.79662 11.9087L3.53285 11.3838C3.5164 11.351 3.54588 11.314 3.58151 11.3228L4.15193 11.4631L4.39788 10.9296C4.4132 10.8963 4.4605 10.8963 4.47588 10.9296Z" fill="#F5F5F5"/>
<path d="M24.0037 7.57886H0.00390625V8.65252H24.0037V7.57886Z" fill="#F5F5F5"/>
<path d="M24.0037 15.3474H0.00390625V16.4211H24.0037V15.3474Z" fill="#F5F5F5"/>
<path d="M0.00195312 23.9998L11.4546 12.3272C11.6183 12.1599 11.6183 11.8399 11.4546 11.6726L0.00195312 0V23.9998Z" fill="#41479B"/>
<path d="M3.8044 10.0709L4.73396 11.0223L5.93508 10.4508C6.09056 10.3768 6.25078 10.5434 6.17081 10.6959L5.55319 11.8739L6.4679 12.8397C6.58631 12.9647 6.47746 13.1685 6.30768 13.1396L4.99641 12.9163L4.36061 14.0846C4.2783 14.2359 4.05082 14.1954 4.02583 14.025L3.83304 12.7089L2.52538 12.4652C2.35607 12.4337 2.32438 12.2048 2.47869 12.1284L3.6708 11.5383L3.49845 10.2194C3.47613 10.0486 3.68402 9.94773 3.8044 10.0709Z" fill="#FFE15A"/>
</g>
<defs>
<clipPath id="clip0_8615_27505">
<path d="M0 2C0 0.895432 0.895431 0 2 0H21.9998C23.1043 0 23.9998 0.895431 23.9998 2V21.9998C23.9998 23.1043 23.1043 23.9998 21.9998 23.9998H2C0.895432 23.9998 0 23.1043 0 21.9998V2Z" fill="white"/>
</clipPath>
</defs>
</svg>
