<svg width="24" height="24" viewBox="0 0 24 24" fill="none" xmlns="http://www.w3.org/2000/svg">
<g clip-path="url(#clip0_8615_27584)">
<path d="M23.9084 0H0.0947266V23.9998H23.9084V0Z" fill="#C8414B"/>
<path d="M23.9084 5.05261H0.0947266V18.9472H23.9084V5.05261Z" fill="#FFD250"/>
<path d="M10.4712 12.0191L10.8551 10.4533C10.8905 10.3091 10.7694 10.1724 10.6064 10.1724H10.3359C10.173 10.1724 10.0518 10.3091 10.0872 10.4533L10.4712 12.0191Z" fill="#C8414B"/>
<path d="M10.9243 11.1979H10.0186V14.6863H10.9243V11.1979Z" fill="#F5F5F5"/>
<path d="M11.1506 10.7877H9.79199V11.1982H11.1506V10.7877Z" fill="#FAB446"/>
<path d="M11.1498 12.0192H8.88574V12.4296H11.1498V12.0192Z" fill="#C8414B"/>
<path d="M11.1496 13.6606L9.79102 13.2502V12.8398L11.1496 13.2502V13.6606Z" fill="#C8414B"/>
<path d="M3.67724 12.0191L4.06119 10.4533C4.09653 10.3091 3.97545 10.1724 3.81247 10.1724H3.542C3.37902 10.1724 3.2579 10.3091 3.29329 10.4533L3.67724 12.0191Z" fill="#C8414B"/>
<path d="M5.2634 10.788C5.01333 10.788 4.81055 10.9717 4.81055 11.1984V13.8659C4.81055 14.3646 5.32406 15.3023 7.07482 15.3023C8.82559 15.3023 9.3391 14.3645 9.3391 13.8659V11.1984C9.3391 10.9718 9.13636 10.788 8.88624 10.788H5.2634Z" fill="#F5F5F5"/>
<path d="M7.07287 12.8401H4.80859V11.2192C4.80859 10.9811 5.00162 10.7881 5.2397 10.7881H7.07282V12.8401H7.07287Z" fill="#C8414B"/>
<path d="M7.07324 12.84H9.33752V13.8142C9.33752 14.4094 8.85499 14.8919 8.25978 14.8919H8.15103C7.55582 14.8919 7.07329 14.4094 7.07329 13.8142L7.07324 12.84Z" fill="#C8414B"/>
<path d="M4.81055 12.8398H7.07482V13.8141C7.07482 14.4093 6.5923 14.8918 5.99708 14.8918H5.88833C5.29312 14.8918 4.81059 14.4093 4.81059 13.8141L4.81055 12.8398Z" fill="#FAB446"/>
<path d="M6.61985 14.682V12.8398H6.16699V14.8711C6.33537 14.8401 6.48761 14.7725 6.61985 14.682Z" fill="#C8414B"/>
<path d="M5.71457 14.8711V12.8398H5.26172V14.682C5.39395 14.7725 5.54615 14.8401 5.71457 14.8711Z" fill="#C8414B"/>
<path d="M6.62228 12.0192H5.26367V12.4296H6.62228V12.0192Z" fill="#FFB441"/>
<path d="M6.62033 11.1978H5.26172V11.6082H6.62033V11.1978Z" fill="#FAB446"/>
<path d="M6.39399 11.442H5.48828V12.1855H6.39399V11.442Z" fill="#FAB446"/>
<path d="M4.1313 11.1979H3.22559V14.6863H4.1313V11.1979Z" fill="#F5F5F5"/>
<path d="M4.35666 14.4813H2.99805V14.8918H4.35666V14.4813Z" fill="#FAB446"/>
<path d="M4.35666 10.7876H2.99805V11.198H4.35666V10.7876Z" fill="#FAB446"/>
<path d="M4.58383 14.8921H2.77246V15.3025H4.58383V14.8921Z" fill="#5064AA"/>
<path d="M11.3772 14.4814H10.0186V14.8919H11.3772V14.4814Z" fill="#FAB446"/>
<path d="M11.3768 14.8921H9.56543V15.3025H11.3768V14.8921Z" fill="#5064AA"/>
<path d="M8.43397 10.3776H5.7168V10.788H8.43397V10.3776Z" fill="#FAB446"/>
<path d="M7.30149 9.14673H6.84863V10.3781H7.30149V9.14673Z" fill="#FFB441"/>
<path d="M6.62067 9.76188C6.24609 9.76188 5.94141 9.48574 5.94141 9.14632C5.94141 8.8069 6.24609 8.53076 6.62067 8.53076C6.99524 8.53076 7.29992 8.8069 7.29992 9.14632C7.29988 9.48574 6.99519 9.76188 6.62067 9.76188ZM6.62067 8.9411C6.49574 8.9411 6.39426 9.03312 6.39426 9.14632C6.39426 9.25952 6.49574 9.35154 6.62067 9.35154C6.74559 9.35154 6.84707 9.25952 6.84707 9.14632C6.84707 9.03307 6.74559 8.9411 6.62067 8.9411Z" fill="#F5F5F5"/>
<path d="M7.52594 9.76188C7.15136 9.76188 6.84668 9.48574 6.84668 9.14632C6.84668 8.8069 7.15136 8.53076 7.52594 8.53076C7.90051 8.53076 8.2052 8.8069 8.2052 9.14632C8.20515 9.48574 7.90051 9.76188 7.52594 9.76188ZM7.52594 8.9411C7.40102 8.9411 7.29953 9.03312 7.29953 9.14632C7.29953 9.25952 7.40102 9.35154 7.52594 9.35154C7.65086 9.35154 7.75234 9.25952 7.75234 9.14632C7.75234 9.03307 7.65086 8.9411 7.52594 8.9411Z" fill="#F5F5F5"/>
<path d="M8.43219 10.1724C8.05761 10.1724 7.75293 9.89626 7.75293 9.55684C7.75293 9.21742 8.05761 8.94128 8.43219 8.94128C8.80676 8.94128 9.11145 9.21742 9.11145 9.55684C9.11145 9.89626 8.80672 10.1724 8.43219 10.1724ZM8.43219 9.35158C8.30727 9.35158 8.20579 9.44359 8.20579 9.55679C8.20579 9.67 8.30727 9.76201 8.43219 9.76201C8.55711 9.76201 8.65859 9.67 8.65859 9.55679C8.65859 9.44355 8.55711 9.35158 8.43219 9.35158Z" fill="#F5F5F5"/>
<path d="M5.71442 10.1724C5.33984 10.1724 5.03516 9.89626 5.03516 9.55684C5.03516 9.21742 5.33984 8.94128 5.71442 8.94128C6.08899 8.94128 6.39367 9.21742 6.39367 9.55684C6.39363 9.89626 6.08894 10.1724 5.71442 10.1724ZM5.71442 9.35158C5.58949 9.35158 5.48801 9.44359 5.48801 9.55679C5.48801 9.67 5.58949 9.76201 5.71442 9.76201C5.83934 9.76201 5.94082 9.67 5.94082 9.55679C5.94082 9.44355 5.83934 9.35158 5.71442 9.35158Z" fill="#F5F5F5"/>
<path d="M8.43408 13.6606V13.8658C8.43408 13.979 8.3325 14.0711 8.20767 14.0711C8.08285 14.0711 7.98127 13.979 7.98127 13.8658V13.6606H8.43408ZM8.88689 13.2502H7.52832V13.8658C7.52832 14.2052 7.83305 14.4814 8.20758 14.4814C8.58215 14.4814 8.88684 14.2052 8.88684 13.8658L8.88689 13.2502Z" fill="#FAB446"/>
<path d="M8.22851 12.4294H8.18501C7.94694 12.4294 7.75391 12.2364 7.75391 11.9983V11.6293C7.75391 11.3913 7.94694 11.1982 8.18501 11.1982H8.22851C8.46659 11.1982 8.65962 11.3913 8.65962 11.6293V11.9983C8.65962 12.2365 8.46659 12.4294 8.22851 12.4294Z" fill="#FFA0D2"/>
<path d="M7.07477 13.4554C7.44991 13.4554 7.75403 13.1799 7.75403 12.84C7.75403 12.5 7.44991 12.2245 7.07477 12.2245C6.69962 12.2245 6.39551 12.5 6.39551 12.84C6.39551 13.1799 6.69962 13.4554 7.07477 13.4554Z" fill="#5064AA"/>
<path d="M7.30149 8.32544H6.84863V9.55683H7.30149V8.32544Z" fill="#FAB446"/>
<path d="M5.71653 10.3776L5.26367 9.96714L5.52893 9.72672C5.93899 9.3551 6.49516 9.14636 7.07504 9.14636C7.65493 9.14636 8.21114 9.35514 8.62115 9.72672L8.88642 9.96714L8.43356 10.3776H5.71653Z" fill="#C8414B"/>
<path d="M7.07308 10.1722C7.19812 10.1722 7.29949 10.0803 7.29949 9.96694C7.29949 9.8536 7.19812 9.76172 7.07308 9.76172C6.94804 9.76172 6.84668 9.8536 6.84668 9.96694C6.84668 10.0803 6.94804 10.1722 7.07308 10.1722Z" fill="#FFD250"/>
<path d="M6.16781 10.1722C6.29285 10.1722 6.39421 10.0803 6.39421 9.96694C6.39421 9.8536 6.29285 9.76172 6.16781 9.76172C6.04277 9.76172 5.94141 9.8536 5.94141 9.96694C5.94141 10.0803 6.04277 10.1722 6.16781 10.1722Z" fill="#FFD250"/>
<path d="M7.97836 10.1722C8.1034 10.1722 8.20476 10.0803 8.20476 9.96694C8.20476 9.8536 8.1034 9.76172 7.97836 9.76172C7.85332 9.76172 7.75195 9.8536 7.75195 9.96694C7.75195 10.0803 7.85332 10.1722 7.97836 10.1722Z" fill="#FFD250"/>
<path d="M5.26209 12.0193H2.99805V12.4297H5.26209V12.0193Z" fill="#C8414B"/>
<path d="M2.99805 13.6607L4.35661 13.2504V12.84L2.99805 13.2504V13.6607Z" fill="#C8414B"/>
</g>
<defs>
<clipPath id="clip0_8615_27584">
<path d="M0 2C0 0.895432 0.895431 0 2 0H21.9998C23.1043 0 23.9998 0.895431 23.9998 2V21.9998C23.9998 23.1043 23.1043 23.9998 21.9998 23.9998H2C0.895432 23.9998 0 23.1043 0 21.9998V2Z" fill="white"/>
</clipPath>
</defs>
</svg>
