<svg width="24" height="24" viewBox="0 0 24 24" fill="none" xmlns="http://www.w3.org/2000/svg">
<g clip-path="url(#clip0_8615_27473)">
<path d="M24.0017 0H0.00195312V23.9998H24.0017V0Z" fill="#FFD250"/>
<path d="M8.69141 2.52636V21.4736C8.69141 21.8224 8.87665 22.1052 9.10521 22.1052H22.3465C22.575 22.1052 22.7603 21.8224 22.7603 21.4736V2.52636C22.7603 2.17757 22.575 1.89478 22.3465 1.89478H9.10521C8.8767 1.89478 8.69141 2.17752 8.69141 2.52636Z" fill="#963C3C"/>
<path d="M4.34659 1.89478H1.75438C1.47205 1.89478 1.24316 2.12366 1.24316 2.40599V21.5939C1.24316 21.8762 1.47205 22.1051 1.75438 22.1051H4.34659V1.89478Z" fill="#5AA587"/>
<path d="M6.93889 1.89478H4.34668V22.1051H6.93889C7.22121 22.1051 7.4501 21.8762 7.4501 21.5939V2.40599C7.4501 2.12366 7.22121 1.89478 6.93889 1.89478Z" fill="#FF7350"/>
<path d="M18.4289 15.0881C18.4157 14.9995 18.4936 14.8852 18.6141 14.7208C18.6577 14.6614 18.7206 14.5754 18.7376 14.5342C18.7263 14.5334 18.7109 14.5343 18.6995 14.5349C18.6328 14.5381 18.532 14.5427 18.4439 14.4449C18.4094 14.4065 18.3928 14.3586 18.396 14.3062C18.4026 14.1998 18.4895 14.0951 18.5434 14.0398C18.4044 13.9422 18.2716 13.8408 18.1491 13.7183C17.9151 13.4842 17.6482 13.3715 17.3535 13.3777C17.3262 13.6708 17.4772 13.8636 17.6385 14.0665C17.686 14.1262 17.7334 14.1859 17.7764 14.2482C17.9885 14.5553 17.9441 15.1481 17.9172 15.2109C17.8868 15.2821 17.719 15.4399 17.489 15.4092C17.3832 15.3953 17.2614 15.4308 17.1847 15.4979C17.1517 15.5268 17.1123 15.5748 17.1123 15.6391C17.1123 15.6424 17.1125 15.6587 17.1176 15.6617C17.1485 15.6803 17.264 15.6439 17.3466 15.5992C17.3694 15.5868 17.3978 15.5904 17.417 15.6083C17.5796 15.7605 17.7429 15.629 17.7609 15.6135C17.7832 15.5944 17.8161 15.5938 17.8388 15.6121C18.0052 15.7462 18.1787 15.5996 18.1861 15.5933C18.2064 15.5756 18.2365 15.5735 18.2591 15.5883C18.3313 15.6357 18.3974 15.6492 18.4563 15.629C18.5078 15.6111 18.535 15.5724 18.5382 15.5631C18.5397 15.5385 18.5067 15.4116 18.4848 15.3276C18.4617 15.2396 18.438 15.1485 18.4289 15.0881Z" fill="#FFD250"/>
<path d="M20.2313 9.47436C20.1812 9.47057 20.1449 9.4814 20.1201 9.50601C20.0745 9.551 20.0783 9.63214 20.0783 9.63294C20.0792 9.65099 20.0721 9.66861 20.0589 9.68085C20.0457 9.69313 20.0279 9.69936 20.0098 9.69674C19.9197 9.68497 19.7864 9.58982 19.5391 9.40855C19.1461 9.12051 18.5522 8.68528 17.9855 8.61361C17.327 8.52994 16.7408 8.74008 16.5919 9.1124C16.426 9.52696 16.7784 9.90467 16.782 9.90847C16.7999 9.92745 16.8038 9.95577 16.7916 9.97878C16.6986 10.1538 16.769 10.283 16.8324 10.3538C16.8523 10.2953 16.882 10.2554 16.923 10.2309C17.0218 10.1718 17.1509 10.2207 17.3294 10.2883C17.4349 10.3281 17.5544 10.3734 17.6938 10.4075C18.0513 10.4952 18.4872 10.417 18.8719 10.3482C19.0078 10.3238 19.1389 10.3004 19.2609 10.2848C19.5676 10.2458 19.8752 10.3817 19.9598 10.5949C20.0007 10.6981 20.0226 10.9053 19.7092 11.1332C19.1456 11.5431 16.5756 11.3539 16.4242 11.3424C16.4208 11.3427 16.4175 11.343 16.4104 11.3435C16.4666 11.4066 16.5325 11.4682 16.5613 11.4758C16.5905 11.4836 16.6096 11.5118 16.6059 11.5419C16.6022 11.572 16.5769 11.5947 16.5466 11.5952L16.2833 11.5992L16.3075 11.8526C16.3093 11.8713 16.3023 11.8898 16.2886 11.9026C16.2749 11.9155 16.256 11.9209 16.2376 11.9184C16.2274 11.9168 16.0001 11.8803 15.843 11.7931L15.5456 11.9807C15.5358 11.9868 15.5245 11.99 15.5131 11.99C15.5066 11.99 15.4999 11.9889 15.4936 11.9867C15.4762 11.9808 15.4624 11.9674 15.4561 11.9502L15.3426 11.6417L15.2081 11.9109C15.1983 11.9305 15.1786 11.9433 15.1567 11.9444C15.1348 11.9467 15.114 11.9346 15.1022 11.916L14.9869 11.7322C14.9342 11.798 14.8496 11.894 14.7631 11.9538C14.7473 11.9649 14.7273 11.9676 14.7089 11.9614C14.6906 11.9552 14.6764 11.9406 14.6706 11.9223L14.6102 11.7316C14.5567 11.7992 14.4794 11.8888 14.3975 11.9559C14.38 11.9704 14.3558 11.9739 14.3348 11.9647C14.3139 11.9556 14.2998 11.9356 14.2984 11.9129L14.279 11.6063C14.2098 11.6415 14.1155 11.6875 14.0633 11.7038C14.0396 11.7112 14.0134 11.7033 13.9978 11.6837C13.9822 11.6642 13.9801 11.6372 13.9926 11.6155C14.0863 11.4528 14.1723 11.2497 14.1788 11.1487C14.1167 11.2231 14.0297 11.2943 13.9325 11.3733C13.7258 11.5416 13.4685 11.751 13.2792 12.1173C13.147 12.3734 13.052 12.8201 13.2195 13.2365C13.3624 13.5918 13.6701 13.8569 14.131 14.0271C14.1156 13.9599 14.1038 13.8938 14.1025 13.8318C14.0965 13.5163 14.162 13.2284 14.1648 13.2163C14.1723 13.1835 14.2049 13.1629 14.2376 13.1708C14.2703 13.1783 14.2907 13.2109 14.2832 13.2435C14.2825 13.2464 14.2183 13.5295 14.224 13.8294C14.2269 13.9761 14.29 14.1574 14.351 14.3325C14.4321 14.5654 14.516 14.8061 14.4796 15.0087C14.4299 15.2842 14.087 15.354 13.7687 15.3009C13.6782 15.2857 13.5959 15.308 13.5367 15.3632C13.4767 15.4191 13.4459 15.505 13.4544 15.5928C13.4584 15.6341 13.4739 15.6424 13.4789 15.6452C13.5172 15.6659 13.6073 15.6378 13.656 15.6123C13.6805 15.5994 13.7108 15.6047 13.7295 15.6257C13.8572 15.7686 14.0291 15.626 14.0363 15.6197C14.0609 15.5989 14.0977 15.6008 14.1198 15.6244C14.1679 15.6757 14.2188 15.7012 14.2756 15.7025C14.3792 15.7088 14.4776 15.6165 14.4787 15.6157C14.4966 15.5982 14.5235 15.5937 14.5462 15.604C14.7465 15.6956 14.8516 15.6424 14.856 15.6399C15.0298 15.4917 14.9294 15.14 14.9283 15.1365C14.9236 15.1205 14.9257 15.1031 14.9342 15.0887C14.9427 15.0742 14.9567 15.064 14.973 15.0602C15.2165 15.0043 15.3526 14.8481 15.4184 14.7445C15.2981 14.7433 15.2025 14.7011 15.1462 14.6131C15.0555 14.4711 15.0991 14.2572 15.2573 14.0682C15.5279 13.7448 15.6933 13.0904 15.6685 12.8239C15.6654 12.7905 15.69 12.7609 15.7234 12.7578C15.7559 12.7545 15.7863 12.7793 15.7895 12.8127C15.8111 13.0461 15.7059 13.5303 15.5138 13.8954C15.7572 13.8281 15.9793 13.7296 16.2111 13.6238C16.4414 13.5187 16.6797 13.4101 16.966 13.3204C17.4499 13.1688 17.8767 13.2739 18.235 13.6324C18.4086 13.8059 18.5981 13.9331 18.8176 14.0804C18.914 14.1451 19.0143 14.2124 19.1184 14.2874C19.4004 14.4905 19.3955 14.66 19.3902 14.8396C19.3886 14.8943 19.3869 14.9509 19.393 15.0121C19.4221 15.3036 19.1904 15.3497 19.0789 15.3719C19.0637 15.3749 19.0494 15.3777 19.0368 15.3808C19.0211 15.3848 19.0023 15.3887 18.9815 15.3928C18.8683 15.4158 18.6973 15.4505 18.6553 15.5953C18.6477 15.6212 18.6506 15.6303 18.6506 15.6303C18.6685 15.6385 18.7611 15.6174 18.8349 15.5839C18.8506 15.5767 18.8684 15.5766 18.8841 15.5833C18.8998 15.59 18.912 15.6032 18.9176 15.6194C18.9391 15.6824 18.9726 15.6932 18.9836 15.6967C19.0601 15.7206 19.1852 15.6502 19.2229 15.6234C19.2464 15.6069 19.2781 15.6086 19.2992 15.628C19.362 15.6852 19.4199 15.7105 19.472 15.7035C19.5418 15.6937 19.5841 15.6281 19.5846 15.6274C19.5946 15.6112 19.6117 15.6006 19.6307 15.5989C19.6501 15.5978 19.6685 15.6046 19.6814 15.6187C19.6815 15.6189 19.7347 15.675 19.8434 15.7094C19.9148 15.7317 19.9327 15.706 19.9386 15.6974C19.9688 15.6535 19.9579 15.5412 19.8991 15.4678C19.8221 15.3715 19.7864 15.2251 19.808 15.0947C19.8279 14.9748 19.8926 14.8769 19.995 14.8117C20.1825 14.6924 20.2253 14.5638 20.2133 14.5393C20.2098 14.5377 20.1895 14.5349 20.1732 14.5328C20.0896 14.5218 19.9495 14.5033 19.8055 14.2373C19.6783 14.0026 19.8014 13.631 19.9438 13.2006C20.0161 12.9825 20.0908 12.757 20.1368 12.5358C20.2643 11.9239 19.8637 11.4381 19.8596 11.4333C19.8389 11.4086 19.8411 11.372 19.8646 11.35C20.1458 11.0861 20.2667 10.8415 20.2238 10.623C20.1791 10.3952 19.9585 10.2359 19.7831 10.1688C19.5646 10.085 19.166 10.1326 18.7803 10.1785C18.458 10.2168 18.1534 10.2531 17.9568 10.212C17.8555 10.1907 17.7813 10.1427 17.7363 10.0693C17.6992 10.0088 17.6901 9.94259 17.6905 9.89084C17.5928 9.92755 17.5269 10.018 17.5261 10.0191C17.5149 10.0347 17.497 10.0442 17.4778 10.0445C17.4539 10.0436 17.4403 10.0362 17.4287 10.0211C17.379 9.95684 17.359 9.88597 17.3694 9.81041C17.3828 9.71267 17.4459 9.62858 17.4976 9.57435C17.2715 9.49494 17.0983 9.68441 17.0903 9.69346C17.0705 9.71535 17.038 9.72003 17.013 9.70494C16.904 9.63786 16.8364 9.50629 16.8406 9.36969C16.8448 9.2407 16.9113 9.1326 17.0231 9.07321C17.0997 9.03257 17.1732 9.02507 17.2413 9.05076C17.3061 9.07518 17.3517 9.12566 17.3802 9.16841C17.463 9.07406 17.4699 8.91121 17.4699 8.90934C17.4704 8.89303 17.4773 8.8776 17.4892 8.86654C17.5011 8.85548 17.5176 8.8485 17.5332 8.85023C17.6771 8.85618 17.7887 8.90812 17.865 9.00459C17.9693 9.13659 17.9792 9.31991 17.973 9.4334C18.2027 9.31612 18.1736 9.04542 18.1721 9.03276C18.1697 9.0119 18.1781 8.99123 18.1945 8.9781C18.2108 8.96507 18.2327 8.96104 18.2527 8.96831C18.4965 9.05437 18.5852 9.27173 18.6061 9.43354C18.6752 9.36768 18.6762 9.28312 18.6762 9.28199C18.6762 9.25424 18.695 9.23005 18.7219 9.22316C18.749 9.21637 18.7769 9.22855 18.7902 9.25288C18.8843 9.42482 19.0277 9.53179 19.1327 9.59169L19.0604 9.41652C19.0506 9.3928 19.0567 9.36543 19.0758 9.34827C19.0949 9.33102 19.1229 9.32769 19.1453 9.33988C19.2656 9.40466 19.3609 9.47797 19.4617 9.5556C19.5834 9.64925 19.7092 9.74605 19.8864 9.8293C20.0594 9.91067 20.1762 9.89516 20.2433 9.86797C20.3129 9.83989 20.3527 9.7903 20.3655 9.75636C20.39 9.69224 20.3971 9.60008 20.3579 9.53905C20.3329 9.50005 20.2903 9.47826 20.2313 9.47436Z" fill="#FFD250"/>
<path d="M13.0607 10.3476C13.0608 10.3477 13.0609 10.3478 13.0609 10.3478C13.0612 10.3479 13.0613 10.3478 13.0615 10.3479C13.066 10.3494 13.5202 10.4927 13.9325 10.5172C13.9551 10.5186 13.9752 10.5325 13.9844 10.5532C13.9935 10.574 13.9904 10.5982 13.9762 10.6159L13.9618 10.6339C14.0436 10.6216 14.1464 10.6102 14.2474 10.6098C14.206 10.5606 14.1546 10.498 14.1018 10.4324C13.9915 10.4304 13.588 10.4129 13.2597 10.2546C13.1799 10.216 13.042 10.1491 12.9765 10.183C12.9652 10.1888 12.9465 10.2162 12.9496 10.2498C12.9536 10.2924 12.993 10.3273 13.0607 10.3476Z" fill="#FFD250"/>
<path d="M14.429 9.46973C14.4227 9.46973 14.4169 9.47043 14.4118 9.47193C14.3853 9.47985 14.3719 9.5098 14.3683 9.53315C14.3639 9.56305 14.3715 9.60323 14.4062 9.62638C14.4515 9.65652 14.5 9.63585 14.5276 9.60866C14.5363 9.60018 14.578 9.5556 14.5472 9.5069L14.5471 9.50676C14.4997 9.48501 14.458 9.46973 14.429 9.46973Z" fill="#FFD250"/>
<path d="M13.8331 10.9339C13.8625 11.004 13.9081 11.0584 13.9459 11.0948C13.9602 11.0639 13.982 11.0317 14.0152 11.0075C14.0476 10.9838 14.1038 10.9608 14.1861 10.978C14.1874 10.9781 14.1886 10.9783 14.1898 10.9785C14.1922 10.979 14.194 10.9788 14.1964 10.9794C14.1985 10.9799 14.1999 10.9815 14.202 10.9822C14.205 10.9832 14.208 10.9833 14.2109 10.9848C14.213 10.986 14.2143 10.9879 14.2162 10.9892C14.2471 11.0024 14.273 11.0236 14.2867 11.0557C14.3327 11.163 14.2517 11.3714 14.1802 11.5198C14.2307 11.4948 14.2791 11.4695 14.3052 11.4555C14.3234 11.4457 14.3453 11.4458 14.3634 11.456C14.3815 11.466 14.3932 11.4846 14.3945 11.5051L14.4116 11.7761C14.5066 11.6759 14.5814 11.5672 14.5824 11.5658C14.5955 11.5466 14.6182 11.5369 14.6414 11.54C14.6644 11.5434 14.6834 11.5596 14.6904 11.5818L14.7597 11.8006C14.8567 11.7114 14.9412 11.5919 14.9422 11.5904C14.954 11.5739 14.9732 11.565 14.9935 11.5647C15.0138 11.5652 15.0325 11.5759 15.0434 11.5931L15.1479 11.7597L15.2969 11.4616C15.3078 11.4398 15.3283 11.4261 15.3547 11.4281C15.3789 11.4294 15.3999 11.445 15.4083 11.4678L15.5444 11.8377L15.8098 11.6702C15.83 11.6574 15.8555 11.6577 15.8756 11.6708C15.9621 11.7276 16.0952 11.7641 16.179 11.7829L16.1563 11.5452C16.1548 11.5282 16.1603 11.5115 16.1716 11.4989C16.1829 11.4862 16.199 11.4789 16.2159 11.4786L16.3678 11.4764C16.3313 11.4393 16.3011 11.4036 16.2863 11.3855C16.2764 11.3734 16.2725 11.3587 16.2732 11.3442C16.1613 11.3395 16.0053 11.3195 15.8494 11.2522L15.7566 11.3953C15.7477 11.4089 15.7338 11.4184 15.7178 11.4217C15.7138 11.4226 15.7097 11.423 15.7056 11.423C15.6937 11.423 15.6819 11.4194 15.6718 11.4127L15.321 11.1773L15.2565 11.3528C15.2491 11.373 15.2317 11.3877 15.2105 11.3916C15.1894 11.3957 15.1679 11.3879 15.1537 11.3718C15.0935 11.3027 14.9988 11.1967 14.9425 11.1386C14.8919 11.1875 14.8029 11.2664 14.7077 11.3192C14.6922 11.3278 14.6738 11.3292 14.6572 11.3231C14.6406 11.317 14.6275 11.3039 14.6213 11.2873L14.5251 11.0292C14.5134 10.9978 14.5294 10.9627 14.5609 10.951C14.5922 10.9393 14.6273 10.9554 14.639 10.9868L14.7091 11.1751C14.8109 11.1044 14.8958 11.0134 14.8969 11.0122C14.9185 10.9889 14.9546 10.9861 14.9794 11.0061C15.0147 11.0344 15.1107 11.1401 15.1777 11.2152L15.2336 11.0629C15.24 11.0454 15.2542 11.0318 15.2719 11.0261C15.2895 11.02 15.309 11.0229 15.3245 11.0334L15.6883 11.2774L15.7762 11.1419C15.7932 11.1157 15.827 11.1067 15.8543 11.1206C16.0158 11.2013 16.1901 11.2208 16.3014 11.2238C16.2335 11.0969 16.2275 10.936 16.2271 10.8982C16.1362 10.8581 16.0244 10.7975 15.912 10.7051L15.8683 10.8131C15.8613 10.8304 15.8467 10.8435 15.8287 10.8487C15.8107 10.8536 15.7914 10.8504 15.7763 10.8395L15.6008 10.7122L15.5838 10.8437C15.5811 10.8641 15.5684 10.8817 15.5498 10.8906C15.5314 10.8994 15.5096 10.8985 15.492 10.8877C15.4859 10.884 15.3415 10.7958 15.2555 10.699C15.2332 10.674 15.2354 10.6356 15.2605 10.6133C15.2853 10.591 15.3238 10.5931 15.3463 10.6184C15.3826 10.6592 15.4336 10.6999 15.4761 10.7307L15.4937 10.5952C15.4964 10.5739 15.5102 10.5557 15.5299 10.5473C15.5497 10.5388 15.5724 10.5413 15.5896 10.5539L15.785 10.6956L15.8317 10.5802C15.8392 10.5616 15.8554 10.548 15.8751 10.5437C15.8945 10.5395 15.9151 10.545 15.9296 10.5588C16.0811 10.7013 16.2449 10.7782 16.3468 10.816C16.3121 10.6538 16.2988 10.4505 16.2981 10.4399C16.298 10.4384 16.2987 10.437 16.2987 10.4355C16.2041 10.3834 16.0702 10.2934 15.9546 10.1521C15.954 10.227 15.9479 10.3031 15.9296 10.3513C15.9233 10.3679 15.9101 10.3808 15.8934 10.3868C15.8766 10.3926 15.8581 10.3911 15.8428 10.3825C15.8355 10.3783 15.7033 10.3024 15.605 10.1916C15.5879 10.2526 15.5676 10.317 15.5504 10.3457C15.5339 10.3729 15.4996 10.383 15.4712 10.3688C15.4654 10.3659 15.3723 10.3188 15.2894 10.2468C15.2813 10.3277 15.2688 10.419 15.251 10.4635C15.2446 10.4797 15.2316 10.4922 15.2152 10.4982C15.1988 10.5038 15.1808 10.5025 15.1655 10.4943C15.16 10.4913 15.0546 10.4335 14.9561 10.3602L14.9295 10.4615C14.9249 10.4788 14.9129 10.4933 14.8967 10.5009C14.8804 10.5084 14.862 10.5087 14.8455 10.5013C14.8382 10.498 14.6645 10.4181 14.5656 10.2972C14.5443 10.2713 14.5481 10.233 14.5741 10.2118C14.6 10.1905 14.6384 10.1943 14.6595 10.2203C14.7068 10.2781 14.7792 10.3264 14.8314 10.3567L14.8626 10.2383C14.868 10.2177 14.8837 10.2015 14.904 10.1955C14.9242 10.1892 14.9463 10.1945 14.962 10.2087C15.0201 10.2612 15.0986 10.3129 15.1544 10.3471C15.1663 10.2721 15.1755 10.1637 15.1795 10.0934C15.1811 10.0663 15.2004 10.0434 15.2269 10.0376C15.2536 10.0316 15.2807 10.0441 15.2936 10.0679C15.3269 10.1294 15.4072 10.1893 15.4677 10.2271C15.4843 10.1752 15.5048 10.0986 15.5202 10.0324C15.5261 10.007 15.5474 9.98832 15.5734 9.98579C15.5993 9.98255 15.624 9.99741 15.6347 10.0212C15.6726 10.1053 15.7645 10.1821 15.8302 10.2292C15.8373 10.1406 15.8308 10.0148 15.8226 9.93605C15.8196 9.90681 15.8379 9.87957 15.8662 9.87146C15.8951 9.86363 15.9246 9.87666 15.9375 9.90291C16.0597 10.1507 16.2758 10.288 16.3881 10.3457C16.4495 9.67539 16.2529 9.41893 16.2508 9.41631C16.2399 9.40248 16.2353 9.38434 16.2385 9.36695C16.2418 9.34965 16.2523 9.33437 16.2676 9.32551C16.3767 9.26237 16.4429 9.14702 16.4835 9.03508C16.2366 9.27451 15.8453 9.36648 15.6547 9.39826L15.7478 9.51165C15.7619 9.52895 15.7655 9.55271 15.757 9.57343C15.7483 9.59415 15.7291 9.6084 15.7068 9.6106C15.4733 9.63395 15.3029 9.60301 15.1881 9.56434L15.2278 9.63765C15.2383 9.65687 15.2376 9.68026 15.2259 9.69878C15.2144 9.71734 15.1932 9.72985 15.1718 9.72723C14.9816 9.71907 14.8151 9.6407 14.6783 9.57142C14.6718 9.61609 14.6498 9.65959 14.613 9.6954C14.5681 9.73923 14.511 9.76192 14.4543 9.76192C14.4143 9.76192 14.3744 9.75052 14.3394 9.72718C14.2708 9.68138 14.2361 9.60001 14.2488 9.51484C14.2606 9.43661 14.31 9.37548 14.3776 9.35523C14.4682 9.32833 14.5716 9.38069 14.7023 9.44729C14.8061 9.50022 14.9298 9.56317 15.0647 9.59139L14.9895 9.4525C14.9755 9.42662 14.982 9.39451 15.005 9.37609C15.028 9.358 15.0607 9.35847 15.0829 9.37773C15.0842 9.3789 15.2354 9.50307 15.5785 9.49665L15.4919 9.39114C15.4777 9.37384 15.4742 9.34994 15.4829 9.32922C15.4916 9.3085 15.5109 9.29425 15.5333 9.29214C15.5398 9.29153 16.0383 9.241 16.345 8.99388C16.2451 9.02313 16.1678 9.01853 16.1618 9.01839C16.145 9.01703 16.1295 9.00883 16.119 8.99561C15.9785 8.81908 15.8347 8.76452 15.7622 8.7476C15.7215 8.87589 15.623 8.97972 15.6181 8.98469C15.6051 8.99819 15.5865 9.00485 15.568 9.00302C15.5493 9.00105 15.5326 8.9906 15.5226 8.97461C15.4143 8.8 15.2581 8.75407 15.1673 8.74268C15.1785 8.87172 15.0883 8.9778 15.0282 9.02191C15.0049 9.03883 14.973 9.03733 14.9518 9.01825C14.6911 8.78528 14.4899 8.85424 14.4084 8.90074C14.4341 8.96463 14.422 9.01684 14.4046 9.05209C14.2801 9.30428 13.5102 9.355 13.357 9.36259C13.3381 9.36395 13.319 9.35523 13.3068 9.34014C13.2946 9.32505 13.2904 9.30503 13.2954 9.28628C13.3066 9.24428 13.2991 9.19895 13.2743 9.1585C13.249 9.11716 13.2085 9.08702 13.1659 9.07792C13.1259 9.06944 13.0495 9.07492 13.0038 9.12498C12.9517 9.18241 12.9481 9.28853 12.9936 9.43206C13.0751 9.68964 13.3262 9.94341 13.4825 10.0825C13.4811 10.0505 13.4821 10.0269 13.4824 10.021C13.4837 9.99507 13.5014 9.97285 13.5264 9.96573C13.5514 9.95837 13.578 9.96802 13.5929 9.98935C13.6447 10.0638 13.7064 10.1141 13.7529 10.1448L13.7833 9.95054C13.7876 9.92363 13.8092 9.90287 13.8362 9.89959C13.8631 9.89729 13.8892 9.91159 13.8995 9.93685C13.9546 10.0705 14.3029 10.489 14.4325 10.6389C14.4491 10.6581 14.4521 10.6855 14.4399 10.7078C14.4277 10.7299 14.4031 10.7418 14.378 10.7387C14.156 10.7071 13.8299 10.781 13.8266 10.7817C13.8015 10.7875 13.7753 10.7767 13.7615 10.7548C13.7478 10.7329 13.7494 10.7047 13.7657 10.6845L13.8106 10.6285C13.5024 10.5965 13.2023 10.5154 13.081 10.48L12.979 10.757L13.2536 10.7295C13.2744 10.7269 13.2956 10.7365 13.3083 10.7537C13.3211 10.7707 13.324 10.7932 13.3159 10.813L13.2641 10.9396L13.4904 10.8797C13.5203 10.8714 13.5511 10.8875 13.5624 10.9161C13.5924 10.992 13.6292 11.0419 13.6585 11.0729L13.7222 10.932C13.7323 10.91 13.7542 10.8946 13.7785 10.8963C13.8021 10.897 13.8238 10.9117 13.8331 10.9339Z" fill="#FFD250"/>
<path d="M13.0468 14.0398C13.2863 14.1998 13.4799 14.0173 13.5834 13.8768C13.3627 13.7158 13.202 13.5177 13.1072 13.2818C13.0762 13.2047 13.056 13.1268 13.0402 13.0491C13.0177 13.0313 12.6844 12.7674 12.4053 12.4589C12.3911 12.496 12.3724 12.5256 12.3572 12.5456C12.3768 12.6253 12.3578 12.6905 12.3331 12.7322C12.3501 12.7891 12.3365 12.8455 12.3168 12.8867C12.359 12.9504 12.3667 13.0128 12.3397 13.0728C12.3335 13.0865 12.3251 13.0992 12.3164 13.1116C12.3511 13.1535 12.4057 13.2494 12.4057 13.4426C12.4057 13.5724 12.4538 13.6503 12.4897 13.6904C12.5107 13.6723 12.5336 13.662 12.5589 13.6594C12.6355 13.6508 12.6985 13.7164 12.7845 13.8068C12.8517 13.8776 12.9355 13.9658 13.0468 14.0398Z" fill="#FFD250"/>
<path d="M11.8548 12.3933C11.8503 12.3933 11.8458 12.3932 11.8413 12.3932C11.754 12.3925 11.6741 12.3837 11.6006 12.3696C11.5935 12.3899 11.6086 12.4488 11.6244 12.4609C11.6399 12.4728 11.6502 12.4925 11.6497 12.512C11.6491 12.5315 11.6407 12.5506 11.6246 12.5616C11.6142 12.5689 11.5834 12.5964 11.583 12.6233C11.5826 12.6495 11.6135 12.6766 11.632 12.6905C11.6455 12.7007 11.6543 12.716 11.656 12.7328C11.6577 12.7496 11.6524 12.7664 11.6413 12.7791C11.6334 12.7884 11.6111 12.8222 11.615 12.8505C11.6158 12.8565 11.6184 12.8749 11.65 12.8964C11.6637 12.9057 11.673 12.9203 11.6758 12.9367C11.6784 12.953 11.6744 12.9698 11.6644 12.9831C11.6645 12.9831 11.6474 13.008 11.6539 13.0328C11.6612 13.0602 11.6954 13.0813 11.7227 13.0941C11.7738 13.1182 11.8474 13.1336 11.924 13.1367C11.9264 13.1363 11.9288 13.1366 11.9311 13.1365C11.9957 13.1384 12.0621 13.1321 12.1188 13.1112C12.1744 13.0907 12.2114 13.061 12.2285 13.0229C12.2339 13.011 12.2451 12.9863 12.1973 12.9305C12.1786 12.9086 12.1778 12.8769 12.1951 12.854C12.1952 12.8539 12.2357 12.7982 12.2107 12.7538C12.1973 12.7299 12.2014 12.7002 12.2207 12.681C12.2243 12.6771 12.262 12.6327 12.2321 12.553C12.2235 12.5301 12.2295 12.5042 12.2474 12.4874C12.2496 12.4852 12.3045 12.4281 12.3033 12.3411C12.2958 12.332 12.2884 12.3229 12.2811 12.3138C12.1636 12.3636 12.0195 12.3933 11.8548 12.3933Z" fill="#FFD250"/>
<path d="M12.4105 8.15967C12.1648 8.29176 11.6411 8.7059 11.626 9.8397L11.6395 11.7503C11.6411 11.753 11.6434 11.7557 11.6448 11.7583C11.6765 11.8181 11.6615 11.8956 11.6436 11.9493C11.7954 12.0035 11.9847 11.9813 12.0657 11.9611C12.0495 11.9138 12.0367 11.8373 12.0916 11.7506C12.0831 9.4722 12.3004 8.50288 12.4105 8.15967Z" fill="#FFD250"/>
<path d="M12.4357 11.9884C12.4357 11.8912 12.3624 11.8156 12.29 11.7911C12.2749 11.786 12.2239 11.7718 12.2004 11.8025C12.1566 11.8599 12.1721 11.9005 12.1871 11.9398C12.1955 11.9616 12.2041 11.9841 12.1976 12.0099C12.1894 12.0428 12.1594 12.0563 12.1495 12.0609C12.0671 12.0983 11.7538 12.1473 11.5372 12.0356C11.5079 12.0204 11.496 11.9845 11.5105 11.9548C11.5334 11.9079 11.55 11.8392 11.5373 11.8153C11.5362 11.8134 11.5334 11.8079 11.5163 11.8056C11.5002 11.8034 11.4841 11.8023 11.4682 11.8023C11.3942 11.8023 11.3257 11.8255 11.2886 11.8652C11.2588 11.8972 11.2494 11.9378 11.2601 11.9894C11.2961 12.1633 11.5138 12.2688 11.8424 12.2718C12.0748 12.271 12.2747 12.2161 12.3745 12.1172C12.4151 12.077 12.4357 12.0336 12.4357 11.9884Z" fill="#FFD250"/>
<path d="M11.9131 13.4294C11.9272 13.4109 11.9504 13.402 11.9732 13.4067C12.0154 13.4156 12.1204 13.4378 12.1806 13.3912C12.2017 13.375 12.2064 13.331 12.1903 13.3023C12.1847 13.2924 12.1679 13.2626 12.1046 13.2868C12.0448 13.3099 11.9588 13.3349 11.9048 13.2863C11.894 13.2766 11.8872 13.2653 11.882 13.2536C11.8658 13.2522 11.8496 13.2513 11.8336 13.2489C11.8285 13.2623 11.8214 13.2753 11.8091 13.2863C11.7554 13.3348 11.6693 13.3099 11.6093 13.2868C11.5463 13.2628 11.5291 13.2924 11.5237 13.3023C11.5076 13.331 11.5122 13.375 11.5332 13.3911C11.5935 13.4376 11.6985 13.4156 11.733 13.4084C11.7554 13.4039 11.7828 13.4116 11.7971 13.43C11.8114 13.4485 11.8174 13.4727 11.8069 13.4935C11.7932 13.5209 11.7338 13.6371 11.6756 13.7097C11.7516 13.8208 11.8173 14.0187 11.6633 14.1947C11.6507 14.209 11.6312 14.2161 11.6131 14.2153C11.5941 14.2139 11.5768 14.2036 11.5665 14.1876C11.5577 14.1743 11.5269 14.1374 11.4928 14.1308C11.4826 14.1288 11.4662 14.128 11.4428 14.1441C11.4269 14.1551 11.4179 14.1915 11.4314 14.2312C11.4553 14.3024 11.5298 14.3419 11.6349 14.337C11.6588 14.3346 11.6847 14.3511 11.6943 14.3752C11.7039 14.3993 11.6971 14.4269 11.6774 14.4438L11.5784 14.5287L11.74 14.5681C11.7615 14.5733 11.7784 14.5897 11.7842 14.611C11.7845 14.6121 11.8087 14.6982 11.857 14.7709C11.9052 14.6982 11.9294 14.6121 11.9296 14.611C11.9355 14.5897 11.9524 14.5733 11.9738 14.5681L12.1355 14.5287L12.0364 14.4438C12.0167 14.427 12.0099 14.3993 12.0195 14.3752C12.029 14.3511 12.0532 14.3349 12.0788 14.337C12.1827 14.3416 12.2584 14.3024 12.2825 14.2311C12.2959 14.1914 12.287 14.155 12.2711 14.144C12.2472 14.1278 12.2308 14.1286 12.2206 14.1308C12.1854 14.1379 12.1538 14.1774 12.1472 14.1875C12.137 14.2035 12.1196 14.2139 12.1006 14.2153C12.081 14.2163 12.0629 14.2091 12.0504 14.1947C11.8965 14.0186 11.9623 13.8207 12.0382 13.7097C11.98 13.6371 11.9205 13.5208 11.9069 13.4934C11.8966 13.4727 11.899 13.4478 11.9131 13.4294Z" fill="#FFD250"/>
<path d="M20.4575 9.47353C20.4251 9.423 20.3604 9.36117 20.2365 9.35311C20.1504 9.34692 20.0813 9.37012 20.0311 9.42033C19.9907 9.46059 19.9712 9.51047 19.962 9.55265C19.8791 9.50906 19.7465 9.41198 19.6081 9.3105C19.205 9.01505 18.5958 8.56862 17.9979 8.49301C17.513 8.43141 16.9614 8.52812 16.6581 8.80955C16.6627 8.77233 16.664 8.74744 16.6642 8.74318C16.6642 8.74238 16.6636 8.74177 16.6636 8.74097C16.6637 8.72963 16.6605 8.71904 16.6547 8.70957C16.6535 8.7075 16.6522 8.70601 16.6507 8.70413C16.6439 8.69536 16.6356 8.68782 16.6244 8.68374C16.6242 8.68365 16.6241 8.68341 16.6239 8.68332H16.6237C16.6123 8.67929 16.6007 8.67994 16.5897 8.68257C16.5876 8.68308 16.5858 8.68341 16.5837 8.68411C16.5731 8.68782 16.5638 8.69405 16.5566 8.703C16.5562 8.70357 16.5553 8.70366 16.5548 8.70422C16.4288 8.87339 16.256 8.89561 16.1923 8.89772C15.9648 8.62763 15.7245 8.61929 15.7141 8.61905C15.6794 8.62135 15.6572 8.64066 15.6527 8.67085C15.6432 8.73497 15.6059 8.79849 15.5743 8.84255C15.3739 8.59337 15.0917 8.61835 15.0792 8.61938C15.0596 8.62126 15.0423 8.63251 15.0325 8.64952C15.0228 8.66644 15.0218 8.68707 15.0299 8.70497C15.0661 8.78452 15.0222 8.8538 14.9873 8.89233C14.5928 8.57616 14.2892 8.83374 14.286 8.8366C14.2629 8.85694 14.2585 8.89139 14.276 8.9168C14.3055 8.95941 14.3002 8.98299 14.2924 8.99888C14.2286 9.12825 13.7655 9.21262 13.4186 9.23737C13.4168 9.18858 13.4019 9.14002 13.3747 9.09549C13.3317 9.02527 13.2637 8.97577 13.1882 8.95955C13.1042 8.94127 12.986 8.96058 12.9108 9.04369C12.8266 9.13622 12.8145 9.27937 12.8746 9.46917C12.9685 9.76574 13.2504 10.0447 13.4148 10.1883C13.3748 10.1736 13.3351 10.1574 13.2966 10.1388C13.1998 10.0917 13.0378 10.0128 12.918 10.0751C12.8576 10.1063 12.8189 10.1845 12.826 10.261C12.8295 10.2993 12.8509 10.3853 12.963 10.4403L12.8282 10.8065C12.821 10.8261 12.8244 10.8481 12.8372 10.8646C12.8499 10.8812 12.8703 10.8902 12.8912 10.8879L13.162 10.8608L13.1023 11.0069C13.0935 11.0283 13.0977 11.0527 13.1128 11.07C13.128 11.0872 13.1512 11.0949 13.1741 11.0885L13.468 11.0107C13.5439 11.1667 13.6452 11.2212 13.65 11.2237C13.6649 11.2316 13.6822 11.2328 13.6979 11.2273C13.7137 11.2219 13.7266 11.2102 13.7335 11.195L13.7803 11.0913C13.8289 11.1593 13.8814 11.2044 13.9138 11.2292C13.894 11.2455 13.8746 11.2616 13.8531 11.279C13.649 11.4451 13.3695 11.6726 13.1687 12.0616C13.0678 12.2569 12.9892 12.5548 13.0126 12.8717C12.8663 12.7487 12.5904 12.5047 12.3874 12.2551C12.4118 12.2384 12.4379 12.2226 12.4575 12.2032C12.521 12.1403 12.5545 12.0659 12.5545 11.9882C12.5545 11.8267 12.4362 11.713 12.3264 11.6759C12.2855 11.6621 12.2462 11.66 12.2103 11.6661C12.2068 9.0188 12.5083 8.20843 12.5695 8.07189C12.5792 8.05028 12.5755 8.02501 12.5599 8.00711C12.5444 7.98929 12.5197 7.98212 12.497 7.98878C12.4572 8.0005 11.5225 8.29248 11.5018 9.83915L11.5148 11.6845C11.388 11.6711 11.2675 11.7072 11.1973 11.7821C11.1575 11.8247 11.115 11.8995 11.1386 12.0139C11.17 12.1658 11.2926 12.2779 11.4806 12.3394C11.4754 12.3594 11.4736 12.3819 11.4762 12.4071C11.4791 12.4368 11.4884 12.4735 11.5055 12.5053C11.4826 12.5327 11.46 12.5717 11.4589 12.6199C11.4578 12.6663 11.4763 12.7099 11.5139 12.7499C11.499 12.7798 11.4861 12.8204 11.4918 12.8653C11.4953 12.892 11.5065 12.9276 11.5382 12.9619C11.5292 12.9884 11.5237 13.023 11.5333 13.0611C11.543 13.1005 11.5675 13.1343 11.6038 13.1632C11.5108 13.146 11.4455 13.1879 11.4149 13.2425C11.369 13.3245 11.3875 13.4342 11.4563 13.4871C11.5124 13.5302 11.5791 13.544 11.6398 13.5408C11.6089 13.5932 11.5762 13.6416 11.5557 13.6576C11.5423 13.668 11.5338 13.6834 11.5324 13.7003C11.5309 13.7171 11.5365 13.7338 11.5479 13.7464C11.5543 13.7533 11.6867 13.9027 11.6079 14.0577C11.5835 14.0377 11.552 14.019 11.5144 14.0114C11.4656 14.0015 11.4163 14.0127 11.3714 14.0436C11.3072 14.0875 11.2834 14.1804 11.3135 14.2696C11.3365 14.3378 11.3939 14.4078 11.4919 14.4401L11.4066 14.5132C11.3893 14.5279 11.3818 14.5513 11.3871 14.5734C11.3924 14.5956 11.4096 14.6129 11.4317 14.6183L11.6754 14.6777C11.694 14.7312 11.7367 14.8346 11.8081 14.9059C11.8195 14.9173 11.8411 14.9237 11.8573 14.9237C11.8734 14.9237 11.8888 14.9173 11.9002 14.9059C11.9715 14.8346 12.0142 14.7312 12.0329 14.6777L12.2766 14.6183C12.2987 14.6129 12.3159 14.5956 12.3212 14.5734C12.3265 14.5512 12.3189 14.528 12.3017 14.5132L12.2164 14.4401C12.3143 14.4077 12.3718 14.3378 12.3948 14.2696C12.4249 14.1805 12.4011 14.0875 12.3369 14.0436C12.2919 14.0126 12.2422 14.0016 12.1938 14.0114C12.1563 14.019 12.1248 14.0376 12.1004 14.0576C12.0228 13.9034 12.1542 13.7532 12.1605 13.7462C12.1717 13.7336 12.1773 13.7169 12.1758 13.7002C12.1743 13.6834 12.1659 13.6679 12.1526 13.6576C12.1321 13.6416 12.0996 13.5933 12.0686 13.541C12.1293 13.5416 12.1957 13.5305 12.2519 13.4871C12.2642 13.4776 12.2729 13.4646 12.2819 13.452C12.2863 13.7185 12.4552 13.824 12.4625 13.8285C12.4913 13.8456 12.5282 13.8365 12.5455 13.808C12.5598 13.7846 12.5684 13.7801 12.5682 13.7799C12.5896 13.7811 12.6495 13.8442 12.6933 13.8902C12.7648 13.9654 12.8539 14.0591 12.9763 14.1407C13.0661 14.2005 13.1508 14.2241 13.2288 14.2241C13.4475 14.2241 13.6113 14.0396 13.6812 13.9448C13.8174 14.0302 13.9718 14.1044 14.1477 14.1645C14.1537 14.1665 14.1599 14.1673 14.1659 14.1675C14.1869 14.2356 14.2099 14.3043 14.2336 14.3723C14.3096 14.5903 14.3881 14.8158 14.3573 14.987C14.3173 15.2089 13.9664 15.2111 13.7859 15.1807C13.6576 15.1599 13.5385 15.1927 13.4511 15.2741C13.3637 15.3557 13.3187 15.4791 13.3309 15.6042C13.3394 15.6916 13.3832 15.7327 13.4185 15.7518C13.4995 15.7954 13.6092 15.7627 13.6687 15.7384C13.8054 15.8575 13.9691 15.8075 14.068 15.7446C14.1288 15.7955 14.1967 15.8221 14.2702 15.8238C14.2726 15.8239 14.275 15.8239 14.2774 15.8239C14.3885 15.8239 14.4819 15.7654 14.5286 15.7297C14.7639 15.8249 14.8984 15.7539 14.9219 15.7393C15.1128 15.5782 15.0815 15.2886 15.0565 15.1627C15.449 15.0439 15.5756 14.7028 15.581 14.6876C15.5886 14.6663 15.5838 14.6426 15.5685 14.6259C15.5531 14.6094 15.5296 14.6027 15.508 14.6084C15.387 14.6409 15.2914 14.6188 15.2459 14.5476C15.1843 14.4511 15.2243 14.2935 15.3477 14.146C15.3736 14.115 15.3981 14.0807 15.4221 14.0451C15.7253 13.9773 15.9845 13.8593 16.2587 13.7342C16.4858 13.6307 16.7206 13.5236 16.9997 13.4361C17.078 13.4116 17.1539 13.3971 17.2289 13.3875C17.2062 13.7165 17.375 13.9333 17.5408 14.1419C17.5866 14.1994 17.6323 14.2569 17.6738 14.3169C17.8516 14.5744 17.8174 15.114 17.803 15.1627C17.7904 15.1904 17.6713 15.3118 17.5024 15.2886C17.3621 15.2699 17.205 15.3161 17.1021 15.4062C17.0286 15.4705 16.9882 15.5532 16.9882 15.6389C16.9882 15.712 17.0234 15.7482 17.0528 15.7658C17.1408 15.8181 17.2864 15.7622 17.3644 15.7249C17.4373 15.7812 17.5121 15.802 17.5813 15.802C17.6674 15.802 17.7447 15.77 17.7989 15.7343C17.9618 15.8372 18.1324 15.7769 18.2274 15.7121C18.3465 15.7767 18.4423 15.764 18.504 15.7396C18.524 15.7317 18.5424 15.7218 18.559 15.7106C18.5614 15.7131 18.5637 15.7166 18.5662 15.7187C18.6308 15.7743 18.7504 15.7447 18.8269 15.717C18.8617 15.7746 18.9079 15.8006 18.9442 15.8122C19.0567 15.848 19.1858 15.7864 19.2508 15.7479C19.3297 15.8089 19.408 15.8345 19.4863 15.8235C19.5553 15.8139 19.6074 15.7768 19.6409 15.7443C19.6766 15.77 19.731 15.8017 19.8043 15.8249C19.8367 15.8352 19.8651 15.8394 19.8902 15.8394C19.9748 15.8394 20.019 15.7911 20.0363 15.7659C20.1065 15.6634 20.0699 15.4897 19.9915 15.3917C19.9453 15.3339 19.9068 15.2257 19.9254 15.1145C19.9352 15.0552 19.9662 14.9723 20.0577 14.9141C20.2226 14.8091 20.3309 14.667 20.3334 14.5522C20.3346 14.5048 20.3165 14.4656 20.2826 14.4419C20.2527 14.4209 20.2192 14.4164 20.1867 14.4122C20.1144 14.4026 20.0244 14.3908 19.9098 14.1792C19.8077 13.9907 19.9286 13.6254 20.0567 13.2386C20.13 13.0172 20.2058 12.7884 20.2533 12.5605C20.3708 11.9963 20.0875 11.5418 19.985 11.4002C20.2702 11.1196 20.3898 10.8503 20.3405 10.5994C20.2863 10.3228 20.0285 10.1334 19.8242 10.0551C19.5773 9.96055 19.1636 10.0098 18.7635 10.0577C18.4515 10.095 18.1565 10.1304 17.9794 10.0929C17.9124 10.0789 17.8648 10.0498 17.8379 10.0064C17.7911 9.93084 17.8161 9.83151 17.8164 9.83048C17.8213 9.81192 17.817 9.7919 17.805 9.77695C17.7929 9.76199 17.773 9.75243 17.7553 9.75426C17.6389 9.75895 17.5461 9.82378 17.4888 9.87731C17.4855 9.86099 17.4849 9.84426 17.4873 9.82692C17.5031 9.7102 17.6375 9.60815 17.6389 9.60712C17.6549 9.59503 17.6641 9.57572 17.663 9.55556C17.6621 9.53545 17.6513 9.51712 17.634 9.50662C17.3867 9.35597 17.1557 9.46758 17.0374 9.57234C16.9874 9.5234 16.9573 9.44859 16.9597 9.37322C16.9612 9.32372 16.9787 9.23278 17.0776 9.18019C17.1224 9.15638 17.1608 9.15117 17.1957 9.16397C17.2541 9.18572 17.2928 9.25744 17.3029 9.28331C17.3093 9.29986 17.3227 9.31289 17.3395 9.31875C17.3563 9.32484 17.3749 9.32301 17.3901 9.31401C17.5255 9.23503 17.5689 9.06909 17.5826 8.97703C17.6623 8.99002 17.723 9.02377 17.7671 9.07945C17.8909 9.23555 17.8403 9.51056 17.8398 9.51333C17.8358 9.5339 17.8428 9.555 17.858 9.56925C17.8733 9.5835 17.8949 9.58879 17.9151 9.5835C18.19 9.50986 18.278 9.28664 18.2916 9.12164C18.5018 9.25252 18.4875 9.52322 18.4867 9.53597C18.4853 9.55682 18.4948 9.57703 18.5118 9.58917C18.5288 9.60145 18.5508 9.60403 18.5701 9.59629C18.6707 9.55546 18.7264 9.48914 18.7572 9.42783C18.9485 9.67875 19.2146 9.76584 19.2273 9.76992C19.2498 9.77681 19.2744 9.77057 19.2904 9.75314C19.3064 9.73574 19.3109 9.71067 19.3019 9.68882L19.2425 9.54487C19.2908 9.57895 19.3374 9.61476 19.3852 9.65165C19.5121 9.74924 19.6431 9.85017 19.8323 9.93904C20.0449 10.0389 20.1964 10.0165 20.2864 9.98048C20.3762 9.9442 20.4473 9.87646 20.4767 9.79935C20.5108 9.70968 20.5238 9.57675 20.4575 9.47353ZM20.363 9.75646C20.3501 9.7904 20.3103 9.83999 20.2408 9.86807C20.1737 9.89526 20.0569 9.91077 19.8839 9.8294C19.7066 9.7461 19.5808 9.64931 19.4592 9.5557C19.3584 9.47803 19.2631 9.40472 19.1428 9.33998C19.1203 9.3278 19.0924 9.33112 19.0733 9.34837C19.0542 9.36553 19.0481 9.3929 19.0578 9.41662L19.1301 9.59179C19.0252 9.53193 18.8817 9.42492 18.7877 9.25298C18.7744 9.22861 18.7465 9.21647 18.7194 9.22327C18.6925 9.23016 18.6737 9.25434 18.6737 9.28209C18.6737 9.28322 18.6726 9.36773 18.6036 9.43364C18.5827 9.27183 18.494 9.05442 18.2502 8.96841C18.2301 8.96114 18.2083 8.96517 18.1919 8.97821C18.1756 8.99133 18.1671 9.01196 18.1696 9.03286C18.1711 9.04552 18.2002 9.31622 17.9705 9.4335C17.9766 9.32001 17.9668 9.13669 17.8625 9.00469C17.7862 8.90822 17.6745 8.85624 17.5307 8.85033C17.5151 8.8486 17.4986 8.85553 17.4867 8.86664C17.4748 8.87771 17.4679 8.89313 17.4674 8.90944C17.4674 8.91132 17.4605 9.07416 17.3777 9.16852C17.3491 9.12572 17.3036 9.07528 17.2388 9.05086C17.1706 9.02517 17.0971 9.03267 17.0205 9.07331C16.9087 9.1327 16.8422 9.2408 16.8381 9.3698C16.8338 9.50639 16.9014 9.63796 17.0105 9.70504C17.0355 9.72014 17.068 9.7155 17.0878 9.69356C17.0957 9.68456 17.269 9.49504 17.4951 9.57445C17.4434 9.62868 17.3803 9.71278 17.3669 9.81051C17.3564 9.88612 17.3765 9.95699 17.4261 10.0212C17.4378 10.0363 17.4514 10.0437 17.4753 10.0446C17.4944 10.0443 17.5124 10.0349 17.5236 10.0192C17.5243 10.0181 17.5903 9.92765 17.688 9.89095C17.6876 9.94265 17.6967 10.0089 17.7338 10.0694C17.7788 10.1429 17.853 10.1908 17.9543 10.2121C18.1509 10.2532 18.4555 10.2169 18.7778 10.1786C19.1635 10.1327 19.5621 10.0851 19.7806 10.1689C19.9559 10.236 20.1766 10.3953 20.2213 10.6231C20.2642 10.8417 20.1433 11.0862 19.8621 11.3501C19.8385 11.3721 19.8364 11.4087 19.8571 11.4334C19.8611 11.4382 20.2618 11.924 20.1343 12.5359C20.0882 12.7571 20.0136 12.9826 19.9413 13.2007C19.7988 13.631 19.6758 14.0026 19.803 14.2374C19.947 14.5034 20.087 14.5219 20.1707 14.5329C20.187 14.5351 20.2073 14.5378 20.2108 14.5394C20.2228 14.5639 20.1799 14.6925 19.9924 14.8118C19.8901 14.877 19.8254 14.9748 19.8055 15.0948C19.7838 15.2251 19.8196 15.3716 19.8966 15.4679C19.9554 15.5413 19.9662 15.6536 19.9361 15.6975C19.9301 15.7061 19.9122 15.7318 19.8409 15.7095C19.7321 15.6751 19.679 15.619 19.6788 15.6188C19.666 15.6047 19.6475 15.5979 19.6282 15.599C19.6091 15.6007 19.5921 15.6113 19.582 15.6275C19.5816 15.6282 19.5393 15.6938 19.4695 15.7036C19.4174 15.7106 19.3594 15.6854 19.2967 15.6281C19.2755 15.6088 19.2439 15.607 19.2204 15.6235C19.1827 15.6503 19.0576 15.7207 18.9811 15.6968C18.9701 15.6933 18.9366 15.6825 18.9151 15.6195C18.9094 15.6033 18.8973 15.5901 18.8816 15.5834C18.8658 15.5767 18.848 15.5768 18.8324 15.584C18.7586 15.6175 18.666 15.6386 18.6481 15.6305C18.6481 15.6305 18.6452 15.6213 18.6528 15.5954C18.6948 15.4506 18.8658 15.4159 18.979 15.3929C18.9998 15.3888 19.0186 15.3849 19.0343 15.3809C19.0468 15.3778 19.0611 15.375 19.0764 15.372C19.1878 15.3499 19.4196 15.3037 19.3905 15.0122C19.3843 14.9509 19.3861 14.8944 19.3877 14.8397C19.393 14.6601 19.3979 14.4906 19.1158 14.2875C19.0118 14.2125 18.9115 14.1452 18.8151 14.0805C18.5956 13.9332 18.4061 13.806 18.2325 13.6325C17.8742 13.274 17.4473 13.169 16.9634 13.3205C16.6772 13.4101 16.4389 13.5188 16.2085 13.6239C15.9768 13.7297 15.7547 13.8282 15.5113 13.8955C15.7034 13.5304 15.8086 13.0462 15.7869 12.8128C15.7838 12.7794 15.7533 12.7546 15.7209 12.7579C15.6875 12.7611 15.6629 12.7906 15.666 12.824C15.6908 13.0905 15.5253 13.7449 15.2547 14.0683C15.0966 14.2573 15.053 14.4712 15.1437 14.6132C15.2 14.7013 15.2956 14.7434 15.4159 14.7446C15.3501 14.8482 15.214 15.0044 14.9705 15.0603C14.9542 15.0641 14.9401 15.0743 14.9317 15.0888C14.9232 15.1032 14.9211 15.1206 14.9258 15.1366C14.9268 15.1401 15.0273 15.4918 14.8534 15.64C14.8491 15.6425 14.744 15.6957 14.5437 15.6041C14.521 15.5938 14.4941 15.5983 14.4761 15.6158C14.4751 15.6166 14.3767 15.7089 14.273 15.7026C14.2163 15.7013 14.1654 15.6758 14.1173 15.6245C14.0952 15.6009 14.0584 15.599 14.0337 15.6198C14.0265 15.626 13.8546 15.7687 13.727 15.6258C13.7082 15.6048 13.678 15.5995 13.6534 15.6124C13.6047 15.6379 13.5147 15.666 13.4764 15.6453C13.4713 15.6425 13.4559 15.6342 13.4519 15.5929C13.4434 15.5051 13.4742 15.4193 13.5342 15.3633C13.5934 15.3081 13.6757 15.2858 13.7661 15.301C14.0845 15.3541 14.4273 15.2843 14.477 15.0089C14.5135 14.8063 14.4296 14.5655 14.3485 14.3326C14.2875 14.1574 14.2243 13.9763 14.2215 13.8295C14.2158 13.5296 14.28 13.2465 14.2806 13.2436C14.2881 13.211 14.2678 13.1784 14.2351 13.1709C14.2023 13.163 14.1698 13.1836 14.1623 13.2164C14.1595 13.2285 14.094 13.5164 14.1 13.8319C14.1012 13.8939 14.1131 13.96 14.1285 14.0272C13.6676 13.857 13.3599 13.5919 13.217 13.2366C13.0495 12.8202 13.1444 12.3735 13.2767 12.1174C13.466 11.7511 13.7232 11.5417 13.93 11.3734C14.0271 11.2944 14.1141 11.2233 14.1762 11.1488C14.1697 11.2498 14.0838 11.4529 13.9901 11.6156C13.9776 11.6373 13.9796 11.6643 13.9953 11.6839C14.0109 11.7034 14.0371 11.7113 14.0608 11.7039C14.113 11.6876 14.2073 11.6416 14.2765 11.6064L14.2959 11.913C14.2973 11.9357 14.3114 11.9557 14.3323 11.9648C14.3532 11.974 14.3775 11.9705 14.395 11.956C14.4768 11.8889 14.5542 11.7993 14.6077 11.7317L14.6681 11.9224C14.6739 11.9407 14.6881 11.9553 14.7064 11.9615C14.7247 11.9677 14.7447 11.965 14.7606 11.9539C14.8471 11.8941 14.9316 11.7981 14.9844 11.7323L15.0997 11.9161C15.1114 11.9347 15.1323 11.9468 15.1541 11.9445C15.176 11.9434 15.1957 11.9306 15.2056 11.911L15.3401 11.6419L15.4536 11.9503C15.4599 11.9676 15.4737 11.9809 15.4911 11.9868C15.4974 11.9891 15.5041 11.9901 15.5106 11.9901C15.5219 11.9901 15.5333 11.9869 15.5431 11.9808L15.8404 11.7932C15.9976 11.8805 16.2248 11.9169 16.2351 11.9185C16.2534 11.9209 16.2724 11.9156 16.2861 11.9027C16.2998 11.8899 16.3067 11.8714 16.305 11.8527L16.2808 11.5993L16.5441 11.5953C16.5743 11.5948 16.5997 11.5721 16.6034 11.542C16.6071 11.5119 16.588 11.4837 16.5587 11.4759C16.53 11.4682 16.4641 11.4067 16.4079 11.3436C16.415 11.3431 16.4183 11.3428 16.4217 11.3425C16.5731 11.354 19.1431 11.5432 19.7067 11.1333C20.0201 10.9054 19.9982 10.6981 19.9572 10.595C19.8727 10.3818 19.5651 10.2459 19.2584 10.2849C19.1364 10.3005 19.0053 10.3239 18.8694 10.3483C18.4847 10.4171 18.0487 10.4953 17.6913 10.4076C17.5519 10.3735 17.4323 10.3282 17.3269 10.2884C17.1484 10.2208 17.0193 10.1719 16.9205 10.231C16.8795 10.2555 16.8498 10.2954 16.8299 10.3539C16.7665 10.2831 16.6961 10.1539 16.789 9.97888C16.8013 9.95587 16.7974 9.92756 16.7795 9.90857C16.7759 9.90477 16.4235 9.52706 16.5893 9.1125C16.7383 8.74018 17.3244 8.53004 17.983 8.61371C18.5496 8.68538 19.1436 9.12061 19.5365 9.40865C19.7839 9.58992 19.9172 9.68503 20.0073 9.69684C20.0253 9.69946 20.0431 9.69318 20.0564 9.68095C20.0696 9.66871 20.0768 9.65104 20.0758 9.63304C20.0757 9.63225 20.072 9.55111 20.1175 9.50611C20.1424 9.4815 20.1787 9.47067 20.2288 9.47447C20.2877 9.47836 20.3304 9.50015 20.3556 9.53939C20.3946 9.60023 20.3875 9.69234 20.363 9.75646ZM18.4536 15.629C18.3947 15.6492 18.3287 15.6357 18.2565 15.5883C18.2338 15.5735 18.2038 15.5756 18.1834 15.5932C18.176 15.5996 18.0026 15.7462 17.8362 15.6121C17.8135 15.5938 17.7806 15.5945 17.7583 15.6135C17.7402 15.629 17.577 15.7605 17.4144 15.6083C17.3952 15.5904 17.3668 15.5868 17.344 15.5992C17.2613 15.6439 17.1459 15.6803 17.1149 15.6617C17.1099 15.6587 17.1096 15.6424 17.1096 15.6391C17.1096 15.5748 17.149 15.5268 17.182 15.4979C17.2588 15.4308 17.3805 15.3952 17.4863 15.4092C17.7164 15.4399 17.8841 15.2821 17.9146 15.2109C17.9415 15.1481 17.9858 14.5553 17.7737 14.2482C17.7307 14.1859 17.6833 14.1262 17.6358 14.0665C17.4746 13.8636 17.3235 13.6708 17.3508 13.3777C17.6455 13.3715 17.9125 13.4842 18.1465 13.7183C18.2689 13.8408 18.4017 13.9422 18.5407 14.0398C18.4868 14.0952 18.3999 14.1998 18.3934 14.3062C18.3901 14.3586 18.4067 14.4065 18.4412 14.4449C18.5293 14.5427 18.6302 14.5381 18.6968 14.5349C18.7083 14.5342 18.7237 14.5334 18.7349 14.5342C18.7179 14.5754 18.655 14.6614 18.6114 14.7208C18.4909 14.8851 18.413 14.9995 18.4263 15.0881C18.4354 15.1485 18.4591 15.2396 18.4821 15.3277C18.504 15.4117 18.5371 15.5386 18.5355 15.5632C18.5324 15.5724 18.5052 15.6111 18.4536 15.629ZM18.7094 14.7924C18.8261 14.6332 18.8854 14.5469 18.8511 14.4782C18.8159 14.4077 18.7438 14.4108 18.6912 14.4134C18.6347 14.4161 18.581 14.4185 18.5315 14.3635C18.5187 14.3492 18.5134 14.3338 18.5146 14.3137C18.5188 14.2444 18.5971 14.1543 18.6422 14.1101C18.677 14.1338 18.7117 14.1574 18.7473 14.1813C18.8426 14.2453 18.9418 14.3118 19.0447 14.3859C19.2744 14.5514 19.2711 14.6646 19.2661 14.836C19.2645 14.8918 19.2626 14.9551 19.2695 15.0242C19.2864 15.1929 19.1902 15.2253 19.0526 15.2526C19.0352 15.2561 19.019 15.2593 19.0047 15.2629C18.9904 15.2665 18.9735 15.2698 18.9546 15.2737C18.8669 15.2916 18.7266 15.3215 18.6291 15.4125C18.6211 15.3796 18.6112 15.3415 18.5996 15.2969C18.5775 15.2119 18.5545 15.1239 18.5464 15.0699C18.5396 15.0242 18.6501 14.8735 18.7094 14.7924ZM12.5558 13.6592C12.5306 13.6619 12.5076 13.6721 12.4866 13.6902C12.4507 13.6502 12.4026 13.5723 12.4026 13.4424C12.4026 13.2493 12.348 13.1534 12.3133 13.1115C12.322 13.099 12.3303 13.0864 12.3366 13.0726C12.3636 13.0127 12.3559 12.9503 12.3137 12.8866C12.3334 12.8454 12.347 12.789 12.33 12.7321C12.3546 12.6903 12.3737 12.6252 12.3541 12.5455C12.3693 12.5255 12.388 12.496 12.4022 12.4587C12.6814 12.7673 13.0146 13.0312 13.0371 13.0489C13.0529 13.1267 13.073 13.2046 13.1041 13.2817C13.1989 13.5176 13.3596 13.7156 13.5803 13.8766C13.4768 14.0172 13.2832 14.1997 13.0437 14.0397C12.9325 13.9656 12.8487 13.8774 12.7813 13.8066C12.6954 13.7162 12.6324 13.6507 12.5558 13.6592ZM12.0477 14.1945C12.0602 14.2088 12.0782 14.2161 12.0979 14.215C12.1169 14.2136 12.1342 14.2033 12.1445 14.1873C12.151 14.1772 12.1827 14.1377 12.2179 14.1306C12.228 14.1284 12.2444 14.1276 12.2683 14.1438C12.2842 14.1548 12.2931 14.1912 12.2797 14.2309C12.2556 14.3021 12.1799 14.3414 12.0761 14.3368C12.0504 14.3346 12.0262 14.3508 12.0167 14.375C12.0071 14.3991 12.0139 14.4267 12.0336 14.4435L12.1327 14.5285L11.9711 14.5679C11.9497 14.5731 11.9327 14.5895 11.9269 14.6108C11.9266 14.6118 11.9024 14.6979 11.8542 14.7706C11.8059 14.698 11.7817 14.6118 11.7815 14.6108C11.7756 14.5895 11.7587 14.5731 11.7373 14.5679L11.5756 14.5285L11.6746 14.4435C11.6943 14.4266 11.7011 14.3991 11.6916 14.375C11.6819 14.3508 11.656 14.3344 11.6322 14.3368C11.5271 14.3417 11.4526 14.3021 11.4286 14.231C11.4151 14.1912 11.4241 14.1548 11.44 14.1438C11.4635 14.1278 11.4798 14.1285 11.49 14.1306C11.5241 14.1372 11.555 14.1741 11.5637 14.1873C11.574 14.2034 11.5913 14.2137 11.6103 14.2151C11.6284 14.2159 11.648 14.2087 11.6605 14.1945C11.8146 14.0184 11.7488 13.8205 11.6729 13.7095C11.731 13.6369 11.7905 13.5206 11.8042 13.4933C11.8146 13.4724 11.8086 13.4483 11.7944 13.4297C11.7801 13.4114 11.7526 13.4036 11.7302 13.4081C11.6957 13.4154 11.5907 13.4374 11.5304 13.3909C11.5095 13.3748 11.5048 13.3308 11.5209 13.3021C11.5264 13.2922 11.5436 13.2626 11.6066 13.2865C11.6665 13.3096 11.7525 13.3345 11.8064 13.2861C11.8186 13.2751 11.8257 13.262 11.8309 13.2487C11.8468 13.2511 11.863 13.2519 11.8792 13.2534C11.8844 13.265 11.8912 13.2764 11.902 13.2861C11.956 13.3346 12.042 13.3096 12.1019 13.2865C12.1651 13.2624 12.182 13.2922 12.1875 13.3021C12.2036 13.3307 12.1989 13.3748 12.1778 13.3909C12.1176 13.4376 12.0127 13.4153 11.9704 13.4065C11.9475 13.4018 11.9244 13.4107 11.9103 13.4292C11.8963 13.4476 11.8939 13.4724 11.9042 13.4932C11.9179 13.5205 11.9774 13.6368 12.0355 13.7094C11.9595 13.8205 11.8937 14.0184 12.0477 14.1945ZM12.2447 12.4872C12.2268 12.504 12.2208 12.5298 12.2294 12.5528C12.2593 12.6325 12.2216 12.6769 12.218 12.6808C12.1987 12.7 12.1947 12.7298 12.208 12.7536C12.233 12.798 12.1925 12.8537 12.1925 12.8538C12.1751 12.8767 12.1759 12.9085 12.1946 12.9303C12.2424 12.986 12.2312 13.0108 12.2258 13.0227C12.2087 13.0608 12.1717 13.0906 12.1162 13.111C12.0594 13.1319 11.9931 13.1382 11.9284 13.1364C11.926 13.1365 11.9236 13.1361 11.9213 13.1365C11.8447 13.1334 11.7711 13.118 11.72 13.0939C11.6927 13.0811 11.6585 13.06 11.6512 13.0326C11.6447 13.0078 11.6617 12.9829 11.6617 12.9829C11.6717 12.9696 11.6758 12.9528 11.6731 12.9365C11.6703 12.9201 11.661 12.9055 11.6473 12.8962C11.6157 12.8747 11.6131 12.8564 11.6123 12.8503C11.6085 12.8219 11.6308 12.7882 11.6386 12.7789C11.6497 12.7662 11.655 12.7494 11.6533 12.7326C11.6516 12.7158 11.6429 12.7005 11.6294 12.6903C11.6108 12.6764 11.58 12.6493 11.5803 12.6231C11.5807 12.5962 11.6115 12.5687 11.6219 12.5614C11.638 12.5505 11.6464 12.5313 11.647 12.5118C11.6475 12.4923 11.6372 12.4726 11.6217 12.4607C11.6059 12.4486 11.5909 12.3897 11.5979 12.3694C11.6715 12.3835 11.7513 12.3923 11.8387 12.3931C11.8432 12.3931 11.8477 12.3932 11.8522 12.3932C12.0168 12.3932 12.1609 12.3634 12.2784 12.3136C12.2856 12.3227 12.2931 12.3318 12.3006 12.3408C12.3018 12.4278 12.2468 12.485 12.2447 12.4872ZM11.8398 12.2717C11.5112 12.2687 11.2935 12.1631 11.2575 11.9893C11.2469 11.9377 11.2562 11.897 11.286 11.8651C11.3231 11.8254 11.3917 11.8022 11.4656 11.8022C11.4815 11.8022 11.4976 11.8033 11.5137 11.8055C11.5308 11.8078 11.5336 11.8132 11.5347 11.8152C11.5474 11.8391 11.5308 11.9079 11.508 11.9546C11.4934 11.9844 11.5053 12.0203 11.5346 12.0355C11.7511 12.1472 12.0645 12.0982 12.1469 12.0608C12.1568 12.0563 12.1867 12.0427 12.195 12.0098C12.2015 11.984 12.1928 11.9615 12.1845 11.9397C12.1695 11.9004 12.154 11.8598 12.1979 11.8024C12.2212 11.7716 12.2723 11.7859 12.2874 11.791C12.3598 11.8155 12.4331 11.8911 12.4331 11.9883C12.4331 12.0335 12.4125 12.0768 12.3719 12.1171C12.2721 12.216 12.0722 12.2709 11.8398 12.2717ZM12.063 11.9611C11.982 11.9812 11.7927 12.0034 11.641 11.9492C11.6588 11.8955 11.6738 11.818 11.6421 11.7582C11.6407 11.7557 11.6385 11.7529 11.6368 11.7502L11.6233 9.83962C11.6384 8.70582 12.1622 8.29163 12.4078 8.15959C12.2977 8.5028 12.0805 9.47212 12.089 11.7506C12.034 11.8372 12.0468 11.9137 12.063 11.9611ZM13.7189 10.9323L13.6552 11.0732C13.6258 11.0423 13.5891 10.9924 13.5591 10.9165C13.5478 10.8878 13.517 10.8718 13.487 10.8801L13.2608 10.94L13.3126 10.8133C13.3206 10.7936 13.3178 10.7711 13.305 10.754C13.2923 10.7369 13.271 10.7273 13.2503 10.7299L12.9757 10.7573L13.0776 10.4804C13.199 10.5158 13.4991 10.5969 13.8072 10.6289L13.7623 10.6848C13.7461 10.7051 13.7445 10.7332 13.7582 10.7551C13.772 10.777 13.7981 10.7878 13.8233 10.782C13.8265 10.7813 14.1527 10.7075 14.3747 10.7391C14.3998 10.7422 14.4244 10.7302 14.4366 10.7081C14.4488 10.6859 14.4458 10.6584 14.4292 10.6393C14.2996 10.4893 13.9512 10.0709 13.8962 9.93721C13.8859 9.91199 13.8598 9.89765 13.8329 9.89995C13.8059 9.90318 13.7843 9.92399 13.78 9.9509L13.7495 10.1452C13.7031 10.1144 13.6414 10.0641 13.5896 9.98971C13.5747 9.96834 13.5481 9.95873 13.523 9.96609C13.4981 9.97321 13.4804 9.99543 13.4791 10.0214C13.4787 10.0273 13.4778 10.0508 13.4792 10.0829C13.3229 9.94377 13.0718 9.69 12.9903 9.43242C12.9448 9.28889 12.9484 9.18277 13.0005 9.12534C13.0461 9.07528 13.1225 9.06984 13.1626 9.07828C13.2051 9.08738 13.2457 9.11752 13.271 9.15886C13.2957 9.19936 13.3032 9.24469 13.292 9.28664C13.2871 9.30539 13.2912 9.32541 13.3035 9.3405C13.3157 9.35559 13.3347 9.36431 13.3537 9.36295C13.5068 9.35536 14.2768 9.30469 14.4013 9.05245C14.4187 9.01721 14.4308 8.96499 14.4051 8.9011C14.4865 8.8546 14.6878 8.78564 14.9485 9.01861C14.9697 9.03769 15.0016 9.03919 15.0249 9.02227C15.0849 8.97816 15.1752 8.87208 15.164 8.74304C15.2548 8.75443 15.411 8.80036 15.5193 8.97497C15.5293 8.99096 15.546 9.00141 15.5647 9.00338C15.5832 9.00521 15.6017 8.99855 15.6148 8.98505C15.6196 8.98008 15.7182 8.87625 15.7589 8.74796C15.8314 8.76488 15.9751 8.81944 16.1157 8.99597C16.1262 9.00919 16.1417 9.01739 16.1585 9.01875C16.1645 9.01885 16.2418 9.02344 16.3417 8.99424C16.035 9.24131 15.5365 9.29184 15.53 9.2925C15.5076 9.29466 15.4882 9.30886 15.4795 9.32958C15.4709 9.3503 15.4744 9.3742 15.4886 9.3915L15.5752 9.49701C15.232 9.50343 15.0809 9.37926 15.0796 9.37809C15.0573 9.35878 15.0247 9.35831 15.0017 9.37645C14.9787 9.39487 14.9722 9.42698 14.9862 9.45286L15.0614 9.59175C14.9265 9.56353 14.8027 9.50058 14.699 9.44765C14.5683 9.38105 14.4649 9.32873 14.3743 9.35559C14.3066 9.37584 14.2573 9.43697 14.2455 9.5152C14.2328 9.60037 14.2675 9.68175 14.3361 9.72754C14.3711 9.75089 14.4109 9.76228 14.451 9.76228C14.5076 9.76228 14.5648 9.73959 14.6097 9.69576C14.6464 9.65995 14.6685 9.61645 14.675 9.57178C14.8118 9.64106 14.9783 9.71943 15.1685 9.72759C15.1899 9.73021 15.2111 9.7177 15.2226 9.69914C15.2342 9.68062 15.2349 9.65723 15.2245 9.63801L15.1848 9.5647C15.2995 9.60337 15.47 9.63431 15.7035 9.61096C15.7258 9.60876 15.745 9.59451 15.7537 9.57379C15.7622 9.55307 15.7586 9.52936 15.7445 9.51201L15.6514 9.39862C15.842 9.36684 16.2333 9.27487 16.4802 9.03544C16.4396 9.14738 16.3734 9.26269 16.2643 9.32587C16.249 9.33473 16.2385 9.35001 16.2352 9.36731C16.232 9.3847 16.2366 9.40284 16.2475 9.41667C16.2496 9.4193 16.4461 9.67575 16.3848 10.3461C16.2725 10.2883 16.0564 10.1511 15.9342 9.90327C15.9212 9.87702 15.8918 9.86395 15.8629 9.87182C15.8347 9.87998 15.8163 9.90717 15.8193 9.93641C15.8274 10.0152 15.834 10.141 15.8269 10.2296C15.7613 10.1825 15.6693 10.1056 15.6314 10.0216C15.6207 9.99777 15.596 9.98291 15.5701 9.98615C15.5441 9.98868 15.5228 10.0074 15.5169 10.0328C15.5015 10.0989 15.481 10.1755 15.4644 10.2275C15.4039 10.1896 15.3236 10.1298 15.2903 10.0682C15.2774 10.0444 15.2503 10.0319 15.2236 10.0379C15.1971 10.0438 15.1778 10.0666 15.1762 10.0938C15.1723 10.1641 15.163 10.2725 15.1511 10.3475C15.0953 10.3132 15.0168 10.2616 14.9587 10.2091C14.943 10.1948 14.9209 10.1895 14.9007 10.1959C14.8803 10.2019 14.8647 10.2181 14.8592 10.2387L14.8281 10.3571C14.7759 10.3268 14.7035 10.2785 14.6562 10.2207C14.635 10.1947 14.5967 10.1909 14.5708 10.2122C14.5448 10.2334 14.541 10.2717 14.5623 10.2976C14.6613 10.4185 14.8349 10.4984 14.8422 10.5017C14.8586 10.509 14.8771 10.5088 14.8934 10.5013C14.9096 10.4936 14.9216 10.4792 14.9261 10.4618L14.9528 10.3605C15.0512 10.4338 15.1567 10.4916 15.1622 10.4946C15.1775 10.5028 15.1955 10.5041 15.2119 10.4985C15.2282 10.4926 15.2413 10.48 15.2477 10.4639C15.2655 10.4194 15.278 10.3281 15.286 10.2471C15.369 10.3192 15.4621 10.3663 15.4679 10.3692C15.4963 10.3833 15.5307 10.3733 15.5471 10.3461C15.5642 10.3174 15.5846 10.253 15.6016 10.1919C15.7 10.3027 15.8322 10.3786 15.8395 10.3828C15.8548 10.3915 15.8733 10.393 15.8901 10.3872C15.9068 10.3812 15.92 10.3682 15.9263 10.3516C15.9446 10.3035 15.9507 10.2273 15.9513 10.1524C16.0669 10.2937 16.2008 10.3837 16.2954 10.4359C16.2954 10.4374 16.2947 10.4387 16.2948 10.4402C16.2955 10.4509 16.3088 10.6542 16.3435 10.8163C16.2416 10.7786 16.0778 10.7017 15.9263 10.5591C15.9118 10.5454 15.8912 10.5398 15.8717 10.544C15.8521 10.5483 15.8359 10.562 15.8284 10.5805L15.7816 10.6959L15.5863 10.5542C15.5691 10.5417 15.5464 10.5391 15.5266 10.5477C15.5069 10.5561 15.4931 10.5743 15.4904 10.5956L15.4727 10.731C15.4303 10.7003 15.3794 10.6596 15.3429 10.6187C15.3205 10.5935 15.282 10.5913 15.2572 10.6137C15.2321 10.636 15.2298 10.6743 15.2522 10.6994C15.3382 10.7962 15.4826 10.8845 15.4887 10.8881C15.5063 10.8989 15.5281 10.8998 15.5465 10.8909C15.565 10.8821 15.5778 10.8644 15.5805 10.844L15.5975 10.7125L15.773 10.8398C15.7881 10.8507 15.8074 10.854 15.8254 10.849C15.8434 10.8439 15.858 10.8307 15.865 10.8135L15.9087 10.7054C16.0211 10.7979 16.1329 10.8584 16.2238 10.8986C16.2242 10.9364 16.2302 11.0973 16.2981 11.2242C16.1868 11.2212 16.0125 11.2017 15.851 11.1209C15.8237 11.107 15.7898 11.1161 15.7729 11.1422L15.685 11.2778L15.3212 11.0337C15.3057 11.0232 15.2862 11.0204 15.2686 11.0265C15.2509 11.0322 15.2367 11.0458 15.2303 11.0633L15.1744 11.2156C15.1074 11.1404 15.0114 11.0347 14.9761 11.0064C14.9513 10.9865 14.9153 10.9893 14.8936 11.0126C14.8925 11.0137 14.8076 11.1047 14.7058 11.1754L14.6357 10.9872C14.624 10.9558 14.5889 10.9397 14.5576 10.9514C14.5261 10.9631 14.5101 10.9981 14.5218 11.0295L14.618 11.2877C14.6242 11.3043 14.6373 11.3173 14.6539 11.3234C14.6704 11.3295 14.6889 11.3282 14.7044 11.3195C14.7996 11.2667 14.8885 11.1879 14.9392 11.139C14.9955 11.1971 15.0902 11.3031 15.1504 11.3722C15.1646 11.3883 15.1861 11.3961 15.2072 11.392C15.2283 11.3881 15.2458 11.3734 15.2532 11.3532L15.3177 11.1777L15.6685 11.4131C15.6786 11.4198 15.6904 11.4233 15.7023 11.4233C15.7064 11.4233 15.7105 11.4229 15.7145 11.4221C15.7305 11.4188 15.7444 11.4093 15.7533 11.3956L15.8461 11.2526C16.002 11.3199 16.158 11.3398 16.2698 11.3446C16.2692 11.359 16.2731 11.3738 16.283 11.3858C16.2978 11.4039 16.328 11.4397 16.3645 11.4767L16.2126 11.479C16.1957 11.4792 16.1796 11.4866 16.1683 11.4993C16.157 11.5118 16.1515 11.5286 16.153 11.5455L16.1757 11.7833C16.0919 11.7644 15.9589 11.7279 15.8723 11.6712C15.8521 11.6581 15.8266 11.6577 15.8065 11.6705L15.541 11.838L15.405 11.4681C15.3966 11.4454 15.3756 11.4298 15.3514 11.4284C15.3249 11.4266 15.3045 11.4402 15.2936 11.4619L15.1446 11.76L15.0401 11.5935C15.0293 11.5762 15.0105 11.5655 14.9902 11.565C14.9699 11.5654 14.9507 11.5742 14.9389 11.5908C14.9379 11.5923 14.8534 11.7117 14.7564 11.8009L14.6871 11.5821C14.6801 11.56 14.6611 11.5438 14.6381 11.5404C14.6149 11.5373 14.5922 11.5469 14.5791 11.5661C14.5781 11.5676 14.5033 11.6763 14.4083 11.7764L14.3912 11.5055C14.3899 11.4849 14.3782 11.4664 14.3601 11.4563C14.342 11.4462 14.3201 11.4461 14.3019 11.4559C14.2758 11.4699 14.2274 11.4952 14.1769 11.5202C14.2484 11.3718 14.3294 11.1634 14.2833 11.056C14.2696 11.024 14.2438 11.0027 14.2128 10.9896C14.2109 10.9882 14.2097 10.9863 14.2076 10.9852C14.2047 10.9837 14.2016 10.9835 14.1987 10.9825C14.1966 10.9819 14.1953 10.9803 14.1931 10.9797C14.1907 10.9791 14.1888 10.9794 14.1865 10.9789C14.1852 10.9787 14.1841 10.9784 14.1828 10.9783C14.1004 10.9612 14.0443 10.9842 14.0119 11.0078C13.9787 11.032 13.9569 11.0642 13.9426 11.0952C13.9048 11.0587 13.8592 11.0044 13.8298 10.9343C13.8205 10.912 13.7988 10.8973 13.7747 10.897C13.7509 10.895 13.729 10.9103 13.7189 10.9323ZM13.257 10.2546C13.5854 10.4128 13.9888 10.4303 14.0991 10.4323C14.1519 10.4979 14.2034 10.5605 14.2447 10.6097C14.1438 10.6101 14.0409 10.6215 13.9592 10.6338L13.9736 10.6158C13.9878 10.5981 13.9909 10.5739 13.9817 10.5531C13.9725 10.5324 13.9525 10.5185 13.9298 10.5171C13.5175 10.4926 13.0634 10.3493 13.0589 10.3478C13.0587 10.3477 13.0585 10.3478 13.0584 10.3477C13.0584 10.3477 13.0582 10.3476 13.058 10.3476C12.9904 10.3272 12.951 10.2923 12.947 10.2497C12.9439 10.2161 12.9626 10.1887 12.9739 10.1829C13.0394 10.149 13.1773 10.2159 13.257 10.2546ZM13.8309 10.2888C13.844 10.2794 13.8536 10.2659 13.8562 10.2497L13.874 10.1359C13.9105 10.1888 13.9546 10.2475 14.0001 10.3065C13.9531 10.3033 13.8952 10.2977 13.8309 10.2888ZM13.7239 10.2716C13.6943 10.2661 13.6639 10.2598 13.633 10.2527C13.6357 10.2396 13.6341 10.2258 13.6279 10.2132C13.6261 10.2097 13.6245 10.2061 13.6229 10.2023C13.6614 10.2338 13.6969 10.2563 13.7239 10.2716ZM14.5249 9.60857C14.4973 9.63576 14.4489 9.65643 14.4035 9.62629C14.3688 9.60314 14.3612 9.56296 14.3657 9.53306C14.3692 9.50972 14.3827 9.47976 14.4092 9.47184C14.4142 9.47034 14.42 9.46964 14.4263 9.46964C14.4554 9.46964 14.497 9.48492 14.5445 9.50667L14.5446 9.50681C14.5753 9.55551 14.5337 9.60014 14.5249 9.60857ZM16.8343 10.5178C16.8517 10.5288 16.8736 10.5302 16.8925 10.5215C16.9113 10.5127 16.9243 10.4949 16.9269 10.4743C16.9371 10.3979 16.9557 10.351 16.9825 10.3349C17.0309 10.3059 17.1481 10.3504 17.2837 10.4017C17.387 10.4408 17.5156 10.4895 17.6621 10.5254C18.0445 10.619 18.494 10.5386 18.8905 10.4676C19.0245 10.4436 19.1535 10.4205 19.2735 10.4052C19.5244 10.3732 19.7801 10.4783 19.8441 10.6395C19.8924 10.7612 19.8182 10.9016 19.635 11.0348C19.1273 11.404 16.6959 11.24 16.448 11.2223C16.3821 11.1595 16.3563 11.031 16.3486 10.9463C16.3887 10.9591 16.4156 10.9655 16.419 10.9662C16.4231 10.9671 16.4273 10.9675 16.4315 10.9675C16.4489 10.9675 16.4658 10.96 16.4775 10.9465C16.4918 10.9297 16.4961 10.9066 16.4885 10.8859C16.4506 10.7825 16.4298 10.5915 16.4212 10.4938C16.4372 10.4982 16.4542 10.4966 16.4685 10.4878C16.4842 10.478 16.4947 10.4616 16.4969 10.4431C16.5687 9.83292 16.4434 9.51487 16.3778 9.39567C16.3937 9.38348 16.4087 9.37036 16.4229 9.35667C16.4273 9.64509 16.5945 9.87693 16.663 9.9598C16.5408 10.2364 16.7181 10.4441 16.8343 10.5178Z" fill="#464655"/>
<path d="M10.7416 7.39041C10.7181 6.90113 10.6019 6.1098 10.2306 6.0917C10.0214 6.08205 9.91824 6.21086 9.91397 6.21644C9.90169 6.23233 9.88163 6.24128 9.86208 6.24025L9.72019 6.23172L9.7456 6.32575C9.75169 6.34844 9.744 6.37281 9.72605 6.388C9.71743 6.39526 9.5168 6.5695 9.63891 6.7914C9.73191 6.96048 10.0325 7.04049 10.252 7.0989C10.35 7.12501 10.4347 7.14755 10.4896 7.17441C10.5876 7.22227 10.6734 7.30308 10.7416 7.39041Z" fill="#FFD250"/>
<path d="M10.2367 5.97032C10.0232 5.95987 9.89033 6.06632 9.84036 6.11709L9.64354 6.10532C9.62488 6.10382 9.60519 6.11254 9.59286 6.12763C9.58054 6.14273 9.57618 6.16288 9.58124 6.18182L9.61902 6.32202C9.52255 6.42046 9.40907 6.62497 9.53272 6.84983C9.65071 7.06447 9.98033 7.15217 10.221 7.2162C10.3129 7.24062 10.3922 7.26176 10.4366 7.28342C10.5788 7.35303 10.6931 7.51128 10.7526 7.6362C10.7628 7.65771 10.7844 7.67084 10.8074 7.67084C10.8117 7.67084 10.8161 7.67037 10.8205 7.66943C10.8481 7.66334 10.8678 7.63896 10.8681 7.61074C10.8687 7.54503 10.8765 6.00145 10.2367 5.97032ZM10.2522 7.09873C10.0327 7.04037 9.73213 6.96036 9.63913 6.79124C9.51702 6.56933 9.71765 6.3951 9.72627 6.38783C9.74422 6.37265 9.75191 6.34827 9.74582 6.32558L9.72041 6.23155L9.8623 6.24008C9.88185 6.24112 9.90191 6.23216 9.91419 6.21627C9.91846 6.21074 10.0216 6.08193 10.2308 6.09154C10.6021 6.10963 10.7183 6.90097 10.7419 7.39025C10.6736 7.30292 10.5878 7.22211 10.4898 7.1742C10.4349 7.14739 10.3502 7.12484 10.2522 7.09873Z" fill="#464655"/>
<path d="M20.8945 7.39041C20.9181 6.90113 21.0343 6.1098 21.4056 6.0917C21.6148 6.08205 21.7179 6.21086 21.7222 6.21644C21.7345 6.23233 21.7545 6.24128 21.7741 6.24025L21.916 6.23172L21.8906 6.32575C21.8845 6.34844 21.8922 6.37281 21.9101 6.388C21.9187 6.39526 22.1194 6.5695 21.9973 6.7914C21.9043 6.96048 21.6036 7.04049 21.3842 7.0989C21.2862 7.12501 21.2015 7.14755 21.1465 7.17441C21.0486 7.22227 20.9628 7.30308 20.8945 7.39041Z" fill="#FFD250"/>
<path d="M20.7677 7.61074C20.768 7.63896 20.7877 7.66334 20.8153 7.66943C20.8197 7.67037 20.824 7.67084 20.8284 7.67084C20.8514 7.67084 20.873 7.65771 20.8832 7.6362C20.9427 7.51123 21.057 7.35298 21.1992 7.28342C21.2436 7.26176 21.3229 7.24062 21.4148 7.2162C21.6555 7.15212 21.9851 7.06442 22.1031 6.84983C22.2268 6.62502 22.1133 6.42051 22.0168 6.32202L22.0545 6.18182C22.0596 6.16293 22.0552 6.14277 22.0429 6.12763C22.0306 6.11254 22.0109 6.10382 21.9922 6.10532L21.7954 6.11709C21.7455 6.06632 21.6126 5.95987 21.3991 5.97032C20.7593 6.00145 20.767 7.54503 20.7677 7.61074ZM21.1459 7.17425C21.0479 7.22215 20.9621 7.30301 20.8938 7.39029C20.9174 6.90102 21.0336 6.10968 21.4049 6.09159C21.6141 6.08193 21.7172 6.21074 21.7215 6.21632C21.7338 6.23221 21.7538 6.24116 21.7734 6.24013L21.9153 6.2316L21.8899 6.32563C21.8838 6.34832 21.8915 6.37269 21.9094 6.38788C21.918 6.39515 22.1187 6.56938 21.9966 6.79128C21.9036 6.96036 21.603 7.04037 21.3835 7.09878C21.2855 7.12484 21.2009 7.14739 21.1459 7.17425Z" fill="#464655"/>
<path d="M20.8945 16.4355C20.9181 16.9248 21.0343 17.7162 21.4056 17.7343C21.6148 17.7439 21.7179 17.6151 21.7222 17.6095C21.7345 17.5936 21.7545 17.5847 21.7741 17.5857L21.916 17.5942L21.8906 17.5002C21.8845 17.4775 21.8922 17.4531 21.9101 17.438C21.9187 17.4307 22.1194 17.2565 21.9973 17.0346C21.9043 16.8655 21.6036 16.7855 21.3842 16.7271C21.2862 16.701 21.2015 16.6784 21.1465 16.6515C21.0486 16.6037 20.9628 16.5228 20.8945 16.4355Z" fill="#FFD250"/>
<path d="M21.3991 17.8557C21.6126 17.8661 21.7455 17.7597 21.7954 17.7089L21.9922 17.7207C22.0109 17.7222 22.0306 17.7134 22.0429 17.6984C22.0552 17.6833 22.0596 17.6631 22.0545 17.6442L22.0168 17.504C22.1132 17.4055 22.2267 17.201 22.1031 16.9762C21.9851 16.7615 21.6555 16.6738 21.4148 16.6098C21.3229 16.5854 21.2436 16.5642 21.1992 16.5426C21.057 16.473 20.9427 16.3147 20.8832 16.1898C20.873 16.1683 20.8514 16.1552 20.8284 16.1552C20.824 16.1552 20.8197 16.1556 20.8153 16.1566C20.7877 16.1627 20.768 16.187 20.7677 16.2152C20.767 16.281 20.7593 17.8245 21.3991 17.8557ZM21.3835 16.7272C21.603 16.7856 21.9036 16.8656 21.9966 17.0347C22.1187 17.2566 21.9181 17.4308 21.9095 17.4381C21.8915 17.4533 21.8838 17.4777 21.8899 17.5004L21.9153 17.5944L21.7734 17.5859C21.7539 17.5848 21.7338 17.5938 21.7215 17.6097C21.7173 17.6152 21.6142 17.744 21.4049 17.7344C21.0336 17.7163 20.9175 16.925 20.8939 16.4357C20.9621 16.523 21.0479 16.6038 21.1459 16.6517C21.2009 16.6786 21.2855 16.7011 21.3835 16.7272Z" fill="#464655"/>
<path d="M10.7416 16.4355C10.7181 16.9248 10.6019 17.7162 10.2306 17.7343C10.0214 17.7439 9.91824 17.6151 9.91397 17.6095C9.90169 17.5936 9.88163 17.5847 9.86208 17.5857L9.72019 17.5942L9.7456 17.5002C9.75169 17.4775 9.744 17.4531 9.72605 17.438C9.71743 17.4307 9.5168 17.2565 9.63891 17.0346C9.73191 16.8655 10.0325 16.7855 10.252 16.7271C10.35 16.701 10.4347 16.6784 10.4896 16.6515C10.5876 16.6037 10.6734 16.5228 10.7416 16.4355Z" fill="#FFD250"/>
<path d="M10.8682 16.2152C10.8678 16.187 10.8481 16.1627 10.8205 16.1566C10.8161 16.1556 10.8118 16.1552 10.8074 16.1552C10.7844 16.1552 10.7628 16.1683 10.7526 16.1898C10.6931 16.3148 10.5789 16.473 10.4366 16.5426C10.3922 16.5642 10.3129 16.5854 10.221 16.6098C9.98036 16.6739 9.65074 16.7616 9.53275 16.9762C9.40905 17.201 9.52254 17.4055 9.61905 17.504L9.58127 17.6442C9.57621 17.6631 9.58057 17.6832 9.5929 17.6984C9.60522 17.7134 9.62491 17.7222 9.64357 17.7207L9.84039 17.7089C9.89036 17.7597 10.0233 17.8661 10.2368 17.8557C10.8765 17.8245 10.8688 16.281 10.8682 16.2152ZM10.4899 16.6517C10.5879 16.6038 10.6737 16.5229 10.7419 16.4356C10.7184 16.9249 10.6022 17.7163 10.2309 17.7344C10.0217 17.744 9.91853 17.6152 9.91427 17.6096C9.90199 17.5937 9.88192 17.5848 9.86238 17.5858L9.72049 17.5943L9.74589 17.5003C9.75199 17.4776 9.7443 17.4532 9.72635 17.4381C9.71772 17.4308 9.5171 17.2566 9.63921 17.0347C9.73221 16.8656 10.0328 16.7856 10.2523 16.7272C10.3502 16.7011 10.4349 16.6786 10.4899 16.6517Z" fill="#464655"/>
</g>
<defs>
<clipPath id="clip0_8615_27473">
<path d="M0 2C0 0.895432 0.895431 0 2 0H21.9998C23.1043 0 23.9998 0.895431 23.9998 2V21.9998C23.9998 23.1043 23.1043 23.9998 21.9998 23.9998H2C0.895432 23.9998 0 23.1043 0 21.9998V2Z" fill="white"/>
</clipPath>
</defs>
</svg>
