<?xml version="1.0" encoding="utf-8"?>
<!-- Generator: Adobe Illustrator 28.1.0, SVG Export Plug-In . SVG Version: 6.00 Build 0)  -->
<svg version="1.1" id="Layer_1" xmlns="http://www.w3.org/2000/svg" xmlns:xlink="http://www.w3.org/1999/xlink" x="0px" y="0px"
	 viewBox="0 0 512 512" style="enable-background:new 0 0 512 512;" xml:space="preserve">
<g>
	<defs>
		<path id="SVGID_1_" d="M512,400V112C512,50.1,461.9,0,400,0H112C50.2,0,0,50.1,0,112v288c0,61.8,50.2,112,112,112h288
			C461.9,512,512,461.9,512,400z"/>
	</defs>
	<clipPath id="SVGID_00000093862341628846334850000015325862486640328635_">
		<use xlink:href="#SVGID_1_"  style="overflow:visible;"/>
	</clipPath>
	<path style="clip-path:url(#SVGID_00000093862341628846334850000015325862486640328635_);fill:#FFFFFF;" d="M-77.1,532.5H586V-16
		H-77.1V532.5z"/>
	<g style="clip-path:url(#SVGID_00000093862341628846334850000015325862486640328635_);">
		<path fill="#CE0F25" d="M389,316.1c7.6,17.9,4.3,31.9,0,45.6c10.9-4,34.2-14.9,31.4-28.5C415.6,321.4,400.4,318.5,389,316.1"/>
		<path fill="none" stroke="#221B0F" stroke-width="0.48" stroke-miterlimit="1.92" d="M389,316.1c7.6,17.9,4.3,31.9,0,45.6c10.9-4,34.2-14.9,31.4-28.5C415.6,321.4,400.4,318.5,389,316.1z"/>
		<path fill="#FAF8F0" d="M350.2,393.4c6.9-2.2,11.6-4.8,23.1-6.4c4.7-0.7,17.4,0.1,24.8-2.2c7.1-2.2,11.2-4.3,11.4-7.9
			c0.4-6.4,2.4-13.7,4.9-20.3c3.6-9.5,7.9-17.1,8.6-19.6c0.6-2.4-0.5-4.8-2-7c-6.2-8.6-20.2-14.9-32.6-14.9l0.5,2.1
			c9.6,0.2,28.5,7.3,29.6,16.9c1.7,14.4-47.1,16.6-74.2,22c0,0-7,1.7-9.4,4.2c-1.7,1.7-2.5,6.2-0.8,7.9
			C346.5,380.1,350.2,393.4,350.2,393.4"/>
		<path fill="none" stroke="#221B0F" stroke-width="0.48" stroke-miterlimit="1.92" d="M350.2,393.4c6.9-2.2,11.6-4.8,23.1-6.4c4.7-0.7,17.4,0.1,24.8-2.2c7.1-2.2,11.2-4.3,11.4-7.9
			c0.4-6.4,2.4-13.7,4.9-20.3c3.6-9.5,7.9-17.1,8.6-19.6c0.6-2.4-0.5-4.8-2-7c-6.2-8.6-20.2-14.9-32.6-14.9l0.5,2.1
			c9.6,0.2,28.5,7.3,29.6,16.9c1.7,14.4-47.1,16.6-74.2,22c0,0-7,1.7-9.4,4.2c-1.7,1.7-2.5,6.2-0.8,7.9
			C346.5,380.1,350.2,393.4,350.2,393.4z"/>
		<path fill="#F6E4BE" d="M418.4,343.2c-18.2,11.8-42.9,12.7-64.4,14.6l-13.7,13.9l12.6,18.5c0,0,14-4.6,21.2-5.7
			c5.1-0.8,10.9-0.1,16-0.9c4.4-0.7,8.3-0.3,11.2-3.7c3.4-3.9,3.2-10.9,5-15.8c1.1-3.1,3-5.6,5.4-9.3
			C415.5,349,418.4,343.2,418.4,343.2"/>
		<path fill="#CE0F25" d="M343.6,401.4c3.4-16.3-7.1-22.7-12.7-32.5c0,0,6,2.5,9.2,2.9c6,0.8,9.5,0.7,18.2-0.7c7.1-1.1,13.1-4.7,18-2.5
			c0.7,0.3,1.2,1.1,1.3,1.9c0.3,2.3-1,4.7-2.4,6.6C367.9,387.5,343.6,401.4,343.6,401.4"/>
		<path fill="none" stroke="#221B0F" stroke-width="0.48" stroke-miterlimit="1.92" d="M343.6,401.4c3.4-16.3-7.1-22.7-12.7-32.5c0,0,6,2.5,9.2,2.9c6,0.8,9.5,0.7,18.2-0.7c7.1-1.1,13.1-4.7,18-2.5
			c0.7,0.3,1.2,1.1,1.3,1.9c0.3,2.3-1,4.7-2.4,6.6C367.9,387.5,343.6,401.4,343.6,401.4z"/>
		<path fill="#CE0F25" d="M119.8,316.1c-7.6,17.9-4.3,31.9,0,45.6c-10.9-4-34.2-14.9-31.4-28.5C93.2,321.4,108.4,318.5,119.8,316.1"/>
		<path fill="none" stroke="#221B0F" stroke-width="0.48" stroke-miterlimit="1.92" d="M119.8,316.1c-7.6,17.9-4.3,31.9,0,45.6c-10.9-4-34.2-14.9-31.4-28.5C93.2,321.4,108.4,318.5,119.8,316.1z"/>
		<path fill="#FAF8F0" d="M158.6,393.4c-6.9-2.2-11.6-4.8-23.1-6.4c-4.7-0.7-17.4,0.1-24.8-2.2c-7.1-2.2-11.2-4.3-11.4-7.9
			c-0.4-6.4-2.4-13.7-4.9-20.3c-3.6-9.5-7.9-17.1-8.6-19.6c-0.6-2.4,0.5-4.8,2-7c6.2-8.6,20.2-14.9,32.6-14.9l-0.5,2.1
			c-9.6,0.2-28.5,7.3-29.6,16.9c-1.7,14.4,47.1,16.6,74.2,22c0,0,7,1.7,9.4,4.2c1.7,1.7,2.5,6.2,0.8,7.9
			C162.3,380.1,158.6,393.4,158.6,393.4"/>
		<path fill="none" stroke="#221B0F" stroke-width="0.48" stroke-miterlimit="1.92" d="M158.6,393.4c-6.9-2.2-11.6-4.8-23.1-6.4c-4.7-0.7-17.4,0.1-24.8-2.2c-7.1-2.2-11.2-4.3-11.4-7.9
			c-0.4-6.4-2.4-13.7-4.9-20.3c-3.6-9.5-7.9-17.1-8.6-19.6c-0.6-2.4,0.5-4.8,2-7c6.2-8.6,20.2-14.9,32.6-14.9l-0.5,2.1
			c-9.6,0.2-28.5,7.3-29.6,16.9c-1.7,14.4,47.1,16.6,74.2,22c0,0,7,1.7,9.4,4.2c1.7,1.7,2.5,6.2,0.8,7.9
			C162.3,380.1,158.6,393.4,158.6,393.4z"/>
		<path fill="#F6E4BE" d="M90.4,343.2c18.2,11.8,42.9,12.7,64.4,14.6l13.7,13.9l-12.6,18.5c0,0-14-4.6-21.2-5.7
			c-5.1-0.8-10.9-0.1-16-0.9c-4.4-0.7-8.3-0.3-11.2-3.7c-3.4-3.9-3.2-10.9-5-15.8c-1.1-3.1-3-5.6-5.4-9.3
			C93.3,349,90.4,343.2,90.4,343.2"/>
		<path fill="#CE0F25" d="M165.2,401.4c-3.4-16.3,7.1-22.7,12.7-32.5c0,0-6,2.5-9.3,2.9c-6,0.8-9.5,0.7-18.2-0.7
			c-7.1-1.1-13.1-4.7-18-2.5c-0.7,0.3-1.2,1.1-1.3,1.9c-0.3,2.3,1,4.7,2.4,6.6C140.9,387.5,165.2,401.4,165.2,401.4"/>
		<path fill="none" stroke="#221B0F" stroke-width="0.48" stroke-miterlimit="1.92" d="M165.2,401.4c-3.4-16.3,7.1-22.7,12.7-32.5c0,0-6,2.5-9.3,2.9c-6,0.8-9.5,0.7-18.2-0.7
			c-7.1-1.1-13.1-4.7-18-2.5c-0.7,0.3-1.2,1.1-1.3,1.9c-0.3,2.3,1,4.7,2.4,6.6C140.9,387.5,165.2,401.4,165.2,401.4z"/>
		<path fill="#FAF8F0" d="M138.8,421.4c-3.2-2-6.8-4-8.8-7.1c-1.4-2.1-2-5-1.3-7.4c3.7-14.2,2.9-21.8,0.3-32.6
			c-0.8-3.5-1.7-8.7,2.7-8.5c11.2,0.6,23.7,4.2,32.7,3.8c3.7-0.1,9.2-0.9,9.6-4.9c0.6-4.8-11.7-9-11.7-9c7.3,0.8,13.3,3.8,15.3,8.1
			c0.8,1.7,0.4,4.2-0.6,5.8c-2.1,3.1-6.2,4-9.9,4.5c-7.5,1-20.1-1-27.3-2.4c-3.2-0.6-4.4-1.1-4.9-0.7c-1.4,1.1,0.5,3.4,5,7.6
			c9.1,8.5,19.7,15.5,30.7,21.4c29.9,16.2,52.7,21.4,83.7,21.4c31,0,53.9-5.2,83.7-21.4c11-6,21.6-12.9,30.7-21.4
			c4.5-4.2,6.4-6.5,5-7.6c-0.6-0.4-1.7,0.1-4.9,0.7c-7.2,1.4-19.8,3.4-27.3,2.4c-3.7-0.5-7.8-1.4-9.9-4.5c-1.1-1.6-1.5-4-0.6-5.8
			c2.1-4.2,8.1-7.3,15.3-8.1c0,0-12.2,4.2-11.7,9c0.5,4,6,4.7,9.6,4.9c9,0.3,21.5-3.2,32.7-3.8c4.4-0.2,3.5,5,2.7,8.5
			c-2.6,10.8-3.3,18.4,0.3,32.6c0.6,2.4,0,5.3-1.3,7.4c-2,3-5.6,5-8.8,7.1C333.3,445,292,457,254.4,457
			C216.8,457,175.5,444.9,138.8,421.4"/>
		<path fill="none" stroke="#221B0F" stroke-width="0.48" stroke-miterlimit="1.92" d="M138.8,421.4c-3.2-2-6.8-4-8.8-7.1c-1.4-2.1-2-5-1.3-7.4c3.7-14.2,2.9-21.8,0.3-32.6
			c-0.8-3.5-1.7-8.7,2.7-8.5c11.2,0.6,23.7,4.2,32.7,3.8c3.7-0.1,9.2-0.9,9.6-4.9c0.6-4.8-11.7-9-11.7-9c7.3,0.8,13.3,3.8,15.3,8.1
			c0.8,1.7,0.4,4.2-0.6,5.8c-2.1,3.1-6.2,4-9.9,4.5c-7.5,1-20.1-1-27.3-2.4c-3.2-0.6-4.4-1.1-4.9-0.7c-1.4,1.1,0.5,3.4,5,7.6
			c9.1,8.5,19.7,15.5,30.7,21.4c29.9,16.2,52.7,21.4,83.7,21.4c31,0,53.9-5.2,83.7-21.4c11-6,21.6-12.9,30.7-21.4
			c4.5-4.2,6.4-6.5,5-7.6c-0.6-0.4-1.7,0.1-4.9,0.7c-7.2,1.4-19.8,3.4-27.3,2.4c-3.7-0.5-7.8-1.4-9.9-4.5c-1.1-1.6-1.5-4-0.6-5.8
			c2.1-4.2,8.1-7.3,15.3-8.1c0,0-12.2,4.2-11.7,9c0.5,4,6,4.7,9.6,4.9c9,0.3,21.5-3.2,32.7-3.8c4.4-0.2,3.5,5,2.7,8.5
			c-2.6,10.8-3.3,18.4,0.3,32.6c0.6,2.4,0,5.3-1.3,7.4c-2,3-5.6,5-8.8,7.1C333.3,445,292,457,254.4,457
			C216.8,457,175.5,444.9,138.8,421.4z"/>
		<path fill="#F6E4BE" d="M373.7,415.9c0,0,2.5-2.5,2.9-4.6c1.1-5.2-1.5-10.6-1.6-16c-0.1-5.8,1-17.3,1-17.3
			c-14.3,13.6-53.6,48.1-121.6,48.1c-66.1,0-107.3-34.5-121.6-48.1c0,0,1.1,11.5,1,17.3c-0.1,5.3-2.8,10.7-1.6,16
			c0.5,2.1,2.9,4.6,2.9,4.6c37.4,24,77.4,38.8,119.3,38.8C296.3,454.7,336.3,440,373.7,415.9"/>
	</g>
	<path style="clip-path:url(#SVGID_00000093862341628846334850000015325862486640328635_);" d="M181.6,426.6
		c1.3-3.7,5.5-7.6,12.2-5.3c5.5,1.9,7.9,6.3,6.2,11.3c-1.7,5-6.7,7.7-12.3,5.7C181.2,436,180.3,430.4,181.6,426.6 M196.6,432.3
		c1.7-4.9-0.1-8.9-3.8-10.2c-2.6-0.9-6-0.5-7.8,4.9c-1.6,4.5-0.3,9,4,10.5C190.5,438,194.4,438.5,196.6,432.3"/>
	<path style="clip-path:url(#SVGID_00000093862341628846334850000015325862486640328635_);" d="M204.5,432.1c0.8-3.4,1-4,1.1-4.8
		c0.1-0.8,0-1.2-0.7-1.5c-0.2-0.1-0.6-0.2-0.9-0.3c-0.3-0.1-0.4-0.1-0.3-0.3c0-0.2,0.2-0.2,0.6-0.1c1.2,0.3,2.6,0.7,3.3,0.9
		c0.6,0.1,2,0.4,2.8,0.6c0.3,0.1,0.5,0.2,0.5,0.3c0,0.2-0.2,0.2-0.4,0.1c-0.3-0.1-0.4-0.1-0.7-0.1c-0.6,0-0.9,0.3-1.2,1.1
		c-0.2,0.7-0.4,1.3-1.2,4.7l-0.8,3.1c-0.8,3.2-0.4,4.8,0.5,5.9c0.8,1.1,1.9,1.4,2.6,1.6c1,0.2,2.3,0.2,3.5-0.5
		c1.6-0.9,2.1-2.9,2.7-5.2l0.7-2.8c0.8-3.4,1-4,1.1-4.8c0.1-0.8,0-1.2-0.7-1.5c-0.2-0.1-0.6-0.2-0.8-0.3c-0.3-0.1-0.4-0.1-0.3-0.3
		c0-0.2,0.2-0.2,0.5-0.1c1.2,0.3,2.6,0.7,2.6,0.7c0.3,0.1,1.7,0.3,2.6,0.6c0.3,0.1,0.5,0.2,0.4,0.3c0,0.2-0.2,0.2-0.5,0.1
		c-0.3-0.1-0.4-0.1-0.7-0.1c-0.6,0-0.9,0.3-1.2,1.1c-0.2,0.7-0.4,1.3-1.2,4.7l-0.6,2.4c-0.6,2.5-1.5,5.1-3.8,6.2
		c-2,1-3.7,0.8-5.2,0.5c-1.2-0.3-3.4-0.9-4.7-2.8c-0.9-1.3-1.4-3.2-0.6-6.4L204.5,432.1z"/>
	<path style="clip-path:url(#SVGID_00000093862341628846334850000015325862486640328635_);" d="M225,441.5c-0.1,0-0.2,0-0.2,0.2
		l-1.7,2.9c-0.3,0.5-0.5,1.1-0.5,1.3c-0.1,0.4,0.1,0.7,0.8,0.8l0.4,0c0.3,0,0.3,0.1,0.3,0.2c0,0.2-0.2,0.2-0.4,0.2
		c-0.7-0.1-1.7-0.3-2.5-0.4c-0.3,0-1.5-0.2-2.8-0.3c-0.3,0-0.4-0.1-0.4-0.3c0-0.1,0.1-0.2,0.3-0.1c0.2,0,0.5,0.1,0.7,0.1
		c1.1,0,1.6-0.7,2.3-1.8l7.9-13.3c0.4-0.6,0.6-0.9,0.8-0.8c0.2,0,0.3,0.3,0.5,0.8c0.4,1.3,2.8,11,3.8,14.7c0.6,2.2,1.2,2.6,1.7,2.8
		c0.3,0.1,0.7,0.2,1,0.2c0.2,0,0.3,0.1,0.3,0.2c0,0.2-0.2,0.2-1.1,0.1c-0.8-0.1-2.5-0.4-4.4-0.7c-0.4-0.1-0.7-0.1-0.7-0.3
		c0-0.1,0.1-0.2,0.4-0.2c0.2,0,0.4-0.2,0.3-0.5l-1.2-5c0-0.1-0.1-0.2-0.2-0.2L225,441.5z M229.9,441c0.1,0,0.2,0,0.1-0.1l-1.3-5.9
		c0-0.1,0-0.2-0.1-0.2c-0.1,0-0.1,0.1-0.2,0.2l-2.9,5.3c0,0.1,0,0.2,0.1,0.2L229.9,441z"/>
	<path style="clip-path:url(#SVGID_00000093862341628846334850000015325862486640328635_);" d="M242.1,446.2c0,1.8,0.3,2.4,0.7,2.6
		c0.4,0.2,0.8,0.2,1.2,0.2c0.3,0,0.4,0.1,0.4,0.2c0,0.2-0.2,0.2-0.5,0.2c-1.5-0.1-2.5-0.2-2.9-0.2c-0.2,0-1.3,0-2.5,0
		c-0.3,0-0.5,0-0.5-0.2c0-0.1,0.1-0.2,0.4-0.2c0.3,0,0.7,0,1.1-0.1c0.6-0.2,0.7-0.8,0.8-2.8l0.7-13.5c0-0.5,0.1-0.8,0.3-0.8
		c0.3,0,0.5,0.3,0.8,0.7c0.3,0.3,3.7,4.1,7,7.6c1.5,1.6,4.6,5.1,5,5.4l0.1,0l0.1-10.3c0-1.4-0.2-1.8-0.7-2.1
		c-0.3-0.1-0.9-0.2-1.2-0.2c-0.3,0-0.4-0.1-0.4-0.2c0-0.2,0.3-0.2,0.6-0.2c1.2,0,2.4,0.2,2.8,0.2c0.3,0,1.2,0,2.3,0
		c0.3,0,0.5,0,0.5,0.2c0,0.1-0.1,0.2-0.4,0.2c-0.2,0-0.4,0-0.7,0c-0.7,0.2-0.9,0.6-0.9,1.9l-0.8,14.5c0,0.5-0.1,0.7-0.3,0.7
		c-0.3,0-0.5-0.3-0.8-0.5c-1.4-1.4-4.3-4.6-6.7-7c-2.5-2.6-5-5.5-5.4-5.9l-0.1,0L242.1,446.2z"/>
	<path style="clip-path:url(#SVGID_00000093862341628846334850000015325862486640328635_);" d="M264.6,443.6c-0.1,0-0.2,0.1-0.2,0.2
		l-1,3.2c-0.2,0.6-0.3,1.2-0.2,1.4c0,0.4,0.3,0.7,1,0.6l0.4,0c0.3,0,0.4,0,0.4,0.2c0,0.2-0.1,0.2-0.4,0.3c-0.8,0.1-1.8,0.1-2.5,0.1
		c-0.3,0-1.5,0.2-2.8,0.3c-0.3,0-0.4,0-0.5-0.2c0-0.1,0.1-0.2,0.3-0.2c0.2,0,0.5-0.1,0.7-0.1c1.1-0.2,1.5-1,1.8-2.2l4.9-14.7
		c0.2-0.7,0.4-0.9,0.6-1c0.2,0,0.4,0.2,0.6,0.7c0.7,1.2,5.1,10.1,6.8,13.5c1,2,1.8,2.3,2.3,2.4c0.4,0,0.7,0,1,0c0.2,0,0.3,0,0.3,0.2
		c0,0.2-0.2,0.2-1.1,0.3c-0.8,0.1-2.6,0.2-4.4,0.3c-0.4,0-0.7,0-0.7-0.1c0-0.1,0.1-0.2,0.3-0.2c0.2-0.1,0.3-0.3,0.2-0.5l-2.2-4.6
		c-0.1-0.1-0.1-0.2-0.2-0.1L264.6,443.6z M269.3,442.1c0.1,0,0.1-0.1,0.1-0.1l-2.5-5.5c0-0.1-0.1-0.2-0.1-0.2
		c-0.1,0-0.1,0.1-0.1,0.2l-1.8,5.8c0,0.1,0,0.2,0.1,0.2L269.3,442.1z"/>
	<path style="clip-path:url(#SVGID_00000093862341628846334850000015325862486640328635_);" d="M283.3,440.8
		c0.5,2.9,0.7,4.5,1.3,4.8c0.4,0.3,1.1,0.3,2.9,0.1c1.2-0.2,2.1-0.4,2.6-1.1c0.2-0.3,0.4-1,0.4-1.5c0-0.2,0-0.4,0.2-0.4
		c0.2,0,0.2,0.1,0.2,0.4c0,0.3,0.1,2,0.1,2.7c-0.1,0.5-0.2,0.7-1.4,0.8c-1.7,0.3-2.9,0.4-3.9,0.6c-1.1,0.1-1.9,0.2-2.9,0.4
		c-0.3,0-0.8,0.1-1.3,0.2c-0.5,0.1-1.1,0.2-1.6,0.3c-0.3,0-0.5,0-0.5-0.2c0-0.1,0.1-0.2,0.3-0.2c0.3-0.1,0.6-0.1,0.8-0.2
		c0.5-0.2,0.5-0.7,0.5-1.4c0-1-0.3-2.8-0.6-4.9l-0.6-4c-0.5-3.5-0.6-4.1-0.8-4.8c-0.2-0.8-0.4-1.1-1.2-1.1c-0.2,0-0.5,0-0.8,0.1
		c-0.3,0-0.4,0-0.4-0.1c0-0.2,0.1-0.2,0.5-0.3c1.1-0.2,2.6-0.3,3.2-0.4c0.6-0.1,2.2-0.4,3.2-0.6c0.3-0.1,0.5,0,0.5,0.1
		c0,0.2-0.1,0.2-0.4,0.3c-0.3,0-0.6,0.1-0.9,0.2c-0.6,0.2-0.7,0.6-0.7,1.4c0.1,0.7,0.2,1.4,0.7,4.8L283.3,440.8z"/>
	<path style="clip-path:url(#SVGID_00000093862341628846334850000015325862486640328635_);" d="M296.3,439.2c-0.1,0-0.1,0.1-0.2,0.2
		l-0.5,3.4c-0.1,0.6-0.1,1.2,0,1.4c0.1,0.4,0.4,0.6,1.1,0.5l0.3-0.1c0.3-0.1,0.4,0,0.4,0.1c0,0.2-0.1,0.3-0.3,0.3
		c-0.7,0.2-1.7,0.3-2.4,0.5c-0.3,0.1-1.5,0.4-2.7,0.7c-0.3,0.1-0.4,0.1-0.5-0.1c0-0.1,0-0.2,0.2-0.2c0.2,0,0.5-0.1,0.7-0.2
		c1-0.4,1.3-1.3,1.5-2.5l2.4-15.3c0.1-0.7,0.2-1,0.4-1.1c0.2,0,0.4,0.1,0.7,0.6c0.8,1.1,6.7,9.2,9,12.2c1.4,1.8,2.1,2,2.6,2
		c0.4,0,0.7-0.1,1-0.1c0.2,0,0.3-0.1,0.3,0.1c0,0.2-0.2,0.3-1,0.5c-0.8,0.2-2.5,0.6-4.3,1c-0.4,0.1-0.7,0.1-0.7,0
		c0-0.1,0-0.2,0.3-0.3c0.1-0.1,0.3-0.3,0.1-0.6l-3-4.2c-0.1-0.1-0.2-0.1-0.3-0.1L296.3,439.2z M300.7,436.9c0.1,0,0.1-0.1,0.1-0.2
		l-3.4-5c0-0.1-0.1-0.2-0.2-0.2c-0.1,0-0.1,0.1-0.1,0.2l-0.8,6c0,0.1,0,0.2,0.1,0.1L300.7,436.9z"/>
	<path style="clip-path:url(#SVGID_00000093862341628846334850000015325862486640328635_);" d="M308.4,433.3
		c-1.3-3.7-0.4-9.4,6.3-11.7c5.6-1.9,10.1,0.1,11.8,5.1c1.7,5-0.5,10.2-6.2,12.1C313.9,441,309.7,437.2,308.4,433.3 M323.6,428.6
		c-1.7-4.9-5.6-6.9-9.2-5.7c-2.6,0.9-5,3.3-3.2,8.7c1.5,4.5,5.3,7.3,9.6,5.8C322.4,436.8,325.8,434.9,323.6,428.6"/>
	<path style="clip-path:url(#SVGID_00000093862341628846334850000015325862486640328635_);fill:#666666;" d="M348,132.4H160.9v13.2
		H348V132.4z"/>
	
		<path style="clip-path:url(#SVGID_00000093862341628846334850000015325862486640328635_);fill:none;stroke:#552200;stroke-width:0.48;stroke-miterlimit:1.92;" d="
		M348,132.4H160.9v13.2H348V132.4z"/>
	<g style="clip-path:url(#SVGID_00000093862341628846334850000015325862486640328635_);">
		<path fill="#EACE24" stroke="#806600" stroke-width="0.96" stroke-miterlimit="1.92" d="M160.9,145.6l-21.2-49.8l-3.6,1.1l-7.8-17.8l14.3-4.2l3.2,8.4l6.9-2l-3-8.2l14.5-3.4l2.6,8.5l7.2-1.4
			l-2.5-8.6l14.6-2.5l2,8.7l9.6-1.4l0.8,4.4l3.6-0.5l-0.7-4.4l7.4-1l0.8,4.4l3.6-0.4l-0.5-4.5l7.3-0.7l0.6,4.5l7.1-0.5l-1.3-13.2
			l14.8-0.8l0.5,8.7l7.1-0.1l-0.1-8.8l14.9,0l-0.2,8.9l7.2,0.1l0.5-8.9l14.8,0.6l-1.3,13.4l7.1,0.5l0.6-4.4l7.3,0.7l-0.6,4.4
			l3.7,0.4l0.7-4.3l7.4,0.8l-0.7,4.4l3.6,0.5l0.9-4.4l9.5,1.4l2-8.8l14.6,2.5l-2.3,8.8l6.9,1.3l2.7-8.6l14.5,3.3l-3,8.5l6.9,1.9
			l3.3-8.5l14.3,4.1l-7.8,17.8l-6.1-2l-21.6,50.9C289.1,128.5,218.4,128.4,160.9,145.6"/>
		<path fill="#5E520E" stroke="#552200" stroke-width="0.48" stroke-miterlimit="1.92" d="M250,104.4V88.6c0-6.3,11.4-6.3,11.4,0v15.8"/>
		<path fill="#5E520E" stroke="#552200" stroke-width="0.48" stroke-miterlimit="1.92" d="M167.1,115.2l-4.9-15.3c-2-6.1,9-8.6,11-2.5l4.9,15.3"/>
		<path fill="#5E520E" stroke="#552200" stroke-width="0.48" stroke-miterlimit="1.92" d="M332.5,112.1l4.9-15.3c2-6.1,12.9-3.6,11,2.5l-4.9,15.3"/>
		<path fill="none" stroke="#806600" stroke-width="0.48" stroke-miterlimit="1.92" d="M287.1,121.8l-0.6,5.5 M158.4,139.7c62.3-18.3,130.2-18.5,192.8-0.8 M156.2,134.7
			c63.7-18.7,133.2-19,197.1-0.8 M154.2,129.7c65.1-19.1,136.1-19.4,201.4-0.7 M152.1,125c66.3-19.5,138.6-19.8,205.2-0.9
			 M311.9,124.7l-1.1,5.4 M344.5,131.7l-1.8,5 M330.7,128.3l-1.6,5.1 M311.1,119.2l-1.1,5.3 M322.4,121.2l-1.4,5.1 M335.4,123.8
			l-1.6,5.1 M349.9,127.4l-1.9,5 M332.3,118l-1.4,4.6 M348.9,121.8l-1.8,4.8 M342.6,120.3L341,125 M317.6,115.4l-1.2,4.8
			 M309.1,113.8l-1,5 M279.2,121.3l-0.5,5.3 M298.2,123l-0.9,5.2 M275,115.6l-0.4,5.4 M284.7,116.2l-0.6,5.3 M301.3,118.1l-0.9,5.1
			 M297.7,112.4l-0.8,4.8 M287.9,111.6l-0.6,5 M272.7,110.3l-0.3,5 M181.1,128.5l1.5,4.9 M268.3,120.7l-0.3,5.5 M171.2,130.8l1.8,5
			 M229.2,121.5l0.6,5.4 M242.6,120.9l0.3,5.2 M213.3,123l0.9,5.3 M251.6,120.7l0.1,5.3 M194,125.9l1.3,5.2 M176,124l1.7,5.1
			 M188.7,121.4l1.4,5.1 M196.7,120l1.2,5.3 M208.2,118.2l1,5.2 M224.1,116.7l0.7,5.3 M236.6,115.7l0.4,5.4 M247.7,115.3l0.2,5.3
			 M263.4,115l-0.1,5.3 M163.9,127l1.9,5.1 M260.5,110.1l-0.1,5.1 M249.2,110.2l0.1,4.9 M238.9,110.6l0.3,4.9 M219.7,112.1l0.7,5
			 M204.8,113.8l0.9,4.8 M194.3,115.3l1.2,4.9 M182,117.6l1.4,4.7 M163.7,121.5l1.8,5 M316.5,109.2l5.7-26.4 M150,119.5
			c67.9-19.9,141.8-20.2,209.8-0.8 M281.3,85.2c13.2,0.8,26.4,2.3,39.4,4.4 M286.2,74.6l-0.5,4.1l0,0c-19.5-1.4-39.2-1.4-58.7,0l0,0
			l-0.5-4.2 M191.1,89.6c12.9-2.1,26.2-3.5,39.3-4.3 M189.4,82.9l6.1,26.3 M232.3,105.2l-2.6-26.7 M281.7,78.5l-1.4,26.7 M190,74.1
			l1.8,8.6l0,0c-19.1,2.9-37.5,8.7-55.7,14.3 M320.8,73.9c0,0-1.8,8.5-1.8,8.5c19.6,3,38.6,8.7,57.3,14.4"/>
	</g>
	
		<path style="clip-path:url(#SVGID_00000093862341628846334850000015325862486640328635_);fill:#1353B4;stroke:#554400;stroke-width:0.96;stroke-miterlimit:1.92;" d="
		M160.9,145.6c-0.5,31.9-0.5,63.8,0,95.7c0.4,30.7,2,54.7,15.5,73.5c16.3,22.6,43.4,38.9,78.4,54.9c34.9-16,62.1-32.3,78.4-54.9
		c13.5-18.8,15-42.7,15.5-73.5c0.5-31.9,0.5-63.8,0-95.7H160.9L160.9,145.6z"/>
	<path style="clip-path:url(#SVGID_00000093862341628846334850000015325862486640328635_);fill:#CE0F25;" d="M346,281.2
		c0.1-8,1.7-11.8,1.7-19.7c0.8-16,1.1-31.9,0.9-47.8H160.9c-0.3,15.9,0.1,31.7,0.9,47.8c0,8,1.7,11.8,1.8,19.7H346z"/>
	
		<path style="clip-path:url(#SVGID_00000093862341628846334850000015325862486640328635_);fill:none;stroke:#554400;stroke-width:0.96;stroke-miterlimit:1.92;" d="
		M160.6,213.2h188.3 M163.4,281.2H346"/>
	
		<path style="clip-path:url(#SVGID_00000093862341628846334850000015325862486640328635_);fill:#FFFFFF;stroke:#000000;stroke-width:0.3864;stroke-miterlimit:1.92;" d="
		M231.4,257.2l22.8-9.3l-9.3,22.8L255,264l10.1,6.8l-9.3-22.8l22.8,9.3l-6.8-10.1l6.8-10.1l-22.8,9.3l9.3-22.8l-10.1,6.8l-10.1-6.8
		l9.3,22.8l-22.8-9.3l6.8,10.1L231.4,257.2z"/>
	<g id="t1" style="clip-path:url(#SVGID_00000093862341628846334850000015325862486640328635_);">
		<path fill="#EACE24" d="M104.2,318.7c-0.2,27.6-0.5,28.6-0.5,28.6c12.1,11.9,13.5,16.2,17.1,20.1c4.6-6.7,11.9-4,11.9-4
			c1.5-6.4,9.2-11.9,9.2-11.9c-10.8-0.9-29.3-6.4-30.8-8.6c-4.9-7.3,1.8-29.5,1.8-29.5L104.2,318.7z"/>
		<path fill="none" stroke="#806600" stroke-width="0.48" stroke-miterlimit="1.92" d="M104.2,318.7c-0.2,27.6-0.5,28.6-0.5,28.6c12.1,11.9,13.5,16.2,17.1,20.1c4.6-6.7,11.9-4,11.9-4
			c1.5-6.4,9.2-11.9,9.2-11.9c-10.8-0.9-29.3-6.4-30.8-8.6c-4.9-7.3,1.8-29.5,1.8-29.5L104.2,318.7z"/>
		<path fill="#EACE24" d="M130.8,362l-11.9-9.2l14.2,8.5"/>
		<path fill="none" stroke="#806600" stroke-width="0.48" stroke-miterlimit="1.92" d="M130.8,362l-11.9-9.2l14.2,8.5"/>
		<path fill="#EACE24" stroke="#000000" stroke-width="0.48" stroke-miterlimit="1.92" d="M113.1,305.6c0,0,14.9-6.1,30.3,4.6c1.5,0.4,2.5,0.3,3.7,0.1c3-3.2,9.7-12.5,14.9-11.3
			c0.4-7.9-0.5-39.4-0.5-39.4c-2.2-0.1-3,4.3-3,4.3c1.3,9-3.9,63.6-25.2,27.5l-15,1.6L113.1,305.6z"/>
		<path fill="none" stroke="#806600" stroke-width="0.48" stroke-miterlimit="1.92" d="M113.1,305.6c0,0,14.9-6.1,30.3,4.6c1.5,0.4,2.5,0.3,3.7,0.1c3-3.2,9.7-12.5,14.9-11.3
			c0.4-7.9-0.5-39.4-0.5-39.4c-2.2-0.1-3,4.3-3,4.3c1.3,9-3.9,63.6-25.2,27.5l-15,1.6L113.1,305.6z"/>
		<path fill="#EACE24" d="M104.9,179.3c12.8,4.6,13,7.1,25.7,18.3c10.1,4,25.3,13.9,26.1,16.1l-0.8,3.2c2,1.2,3.8-3.3,3.8-3.3
			c-2-11.1-37.7-44.6-37.7-44.6l-15.7,3.3L104.9,179.3z"/>
		<path fill="none" stroke="#806600" stroke-width="0.48" stroke-miterlimit="1.92" d="M104.9,179.3c12.8,4.6,13,7.1,25.7,18.3c10.1,4,25.3,13.9,26.1,16.1l-0.8,3.2c2,1.2,3.8-3.3,3.8-3.3
			c-2-11.1-37.7-44.6-37.7-44.6l-15.7,3.3L104.9,179.3z"/>
		<path fill="none" stroke="#000000" stroke-width="0.48" stroke-miterlimit="1.92" d="M116.9,174.3l40.2,36.9l0.9,2.7"/>
		<path fill="none" stroke="#000000" stroke-width="0.48" stroke-miterlimit="1.92" d="M125.7,188c4,7.1,11.5,9.7,11.5,9.7"/>
		<path fill="#FFFFFF" stroke="#000000" stroke-width="0.48" stroke-miterlimit="1.92" d="M109.5,164.8c-0.2-13.3,15.6-22.1,15.6-23.3c-1.6-9.5-24,13.1-25.2,16.1c-1.4,4.3,1.7,9.5,1.7,9.5"/>
		<path fill="#FFFFFF" stroke="#000000" stroke-width="0.48" stroke-miterlimit="1.92" d="M113.8,147.3c-4.7,3.8-8.5,16.3-8.5,16.3"/>
		<path fill="#FFFFFF" stroke="#000000" stroke-width="0.48" stroke-miterlimit="1.92" d="M102.2,164.6c-1.9-12.8,7.8-23.9,7.1-24.2c-5.9-3-13.7,12.8-15.9,18l2.9,17.6"/>
		<path fill="#FFFFFF" stroke="#000000" stroke-width="0.48" stroke-miterlimit="1.92" d="M99.1,154.1c-2.4,6.2,0.2,14.7,0.2,14.7"/>
		<path fill="#FFFFFF" stroke="#000000" stroke-width="0.48" stroke-miterlimit="1.92" d="M97.2,171.4c-3.1-3.1-0.2-25.4-1-25.4c-6.6,0-10,21.4-8.6,25.9c4.5,14.6,8.1,17.1,8.1,17.1"/>
		<path fill="#FFFFFF" stroke="#000000" stroke-width="0.48" stroke-miterlimit="1.92" d="M91.4,163.8c-0.5,6.6,4.7,14.7,4.7,14.7"/>
		<path fill="#FFFFFF" stroke="#000000" stroke-width="0.48" stroke-miterlimit="1.92" d="M95.7,187.8c-8.3-7.8-9.7-28.7-10.9-30.8c-8.9,1.7-4.3,23.9-4.3,23.9c0.2,1.7,11.8,15.6,11.8,15.6"/>
		<path fill="#FFFFFF" stroke="#000000" stroke-width="0.48" stroke-miterlimit="1.92" d="M83.7,170.9c-2.9,5.9,10.4,23.3,10.4,23.3"/>
		<path fill="#FFFFFF" stroke="#000000" stroke-width="0.48" stroke-miterlimit="1.92" d="M106,237.2c0,0-2.2-30.1,1.6-34.6l-11.2-16.6l-14.5,28.9L95,239L106,237.2z"/>
		<path fill="none" stroke="#000000" stroke-width="0.48" stroke-miterlimit="1.92" d="M106,237.2c0,0-2.2-30.1,1.6-34.6l-11.2-16.6l-14.5,28.9L95,239L106,237.2z"/>
		<path fill="#FFFFFF" stroke="#000000" stroke-width="0.48" stroke-miterlimit="1.92" d="M95.5,302.8c4.9,6.3,7.3,20.5,7.3,20.5l1.5-4.6c0.7,0.4,1.1,4,2.1,4c0.4,0,0.4-3.7,1.3-3.9
			c0.4-0.1,0.1,5.1,1.1,5.1c0.8,0,0.8-3.7,1.1-3.5c0.6,0.4,0.7,4.9,1.2,2.6c-0.7-24.3,46.9-44.2,46-71.4
			c1.2-28.2-29.1-38.9-47.7-62.6c0,0-5.2-15.6,4.4-8.7c7.8-1.2,7.1-8.9,7.1-8.9h4.3c1.9-16.6-14.8-12.7-14.8-12.7
			c-15.5,0-16.9,16-16.9,16c-4,20.8,23,45.6,23,45.6c4,8.6,0,23.6,0,23.6l-37.6,35.4"/>
		<path fill="#FFFFFF" stroke="#000000" stroke-width="0.48" stroke-miterlimit="1.92" d="M79.4,279c-2.1,2.5-12.7,15.1-15.3,19.5c-3.7,4,3.5,2.9,3.5,2.9s-10.6,11.2-15.7,14.4
			c1.6,4.7,11.7-2.1,11.7-2.1s-9.9,6.1-9.3,7.3c3,2.3,11.8-4.1,11.8-4.1s-2.1,2.9-0.3,4c2.9,0,9.7-5.4,9.7-5.4s-1.4,3.1,0.2,3.6
			c2.8-1.8,20.4-16.4,20.4-16.4"/>
		<path fill="none" stroke="#000000" stroke-width="0.48" stroke-miterlimit="1.92" d="M86.2,271.5c0,0-5.3,7-1.7,5.9"/>
		<path fill="#FFFFFF" stroke="#000000" stroke-width="0.48" stroke-miterlimit="1.92" d="M85.4,253.4c-4.3,8.3-9.7,22-3.8,28.1c2,0.6,7.2-19.5,11.2-21.4c0.6-2.1,3.3-11.2,3.3-11.2"/>
		<path fill="#FFFFFF" stroke="#000000" stroke-width="0.48" stroke-miterlimit="1.92" d="M92,252.5c2.2,0-4.5,4.5-6.9,10.7"/>
		<path fill="#FFFFFF" stroke="#000000" stroke-width="0.48" stroke-miterlimit="1.92" d="M93.8,254c-3.3,15.5-0.2,18.8,1.1,18.9c2-1,5.4-15.2,9.3-16"/>
		<path fill="#FFFFFF" stroke="#000000" stroke-width="0.48" stroke-miterlimit="1.92" d="M77.1,182.2c-13.7-12.8-15.5-27.5-17-27.6c-6.5-0.5,2.2,26,2.2,26l16.4,13.1"/>
		<path fill="#FFFFFF" stroke="#000000" stroke-width="0.48" stroke-miterlimit="1.92" d="M74.9,185.4c0,0-6.6-5-10-11.8"/>
		<path fill="#FFFFFF" stroke="#000000" stroke-width="0.48" stroke-miterlimit="1.92" d="M77.1,191.4c-20.3-11.2-22.7-29.6-24.4-29c-6.2,2.5,1.7,19.3,1.7,19.3c1.1,4.6,17.2,19.2,17.2,19.2"/>
		<path fill="#FFFFFF" stroke="#000000" stroke-width="0.48" stroke-miterlimit="1.92" d="M73.2,196.8c0,0-8.6-6.4-15.6-16.9"/>
		<path fill="#FFFFFF" stroke="#000000" stroke-width="0.48" stroke-miterlimit="1.92" d="M70.9,199.6c-24.3-13.4-24.8-28.9-27.5-27.9c-5.8,15.7,15.4,30.4,30.3,41.6"/>
		<path fill="#FFFFFF" stroke="#000000" stroke-width="0.48" stroke-miterlimit="1.92" d="M72.2,206.3c0,0-11.1-4-18-14.5"/>
		<path fill="#FFFFFF" stroke="#000000" stroke-width="0.48" stroke-miterlimit="1.92" d="M73.2,213c-21.1-6.7-31.4-26.4-34-25.4c-6.1,2.3,6.7,18.8,6.7,18.8c10.4,9.7,27.5,16.7,27.5,16.7"/>
		<path fill="#FFFFFF" stroke="#000000" stroke-width="0.48" stroke-miterlimit="1.92" d="M73.7,216c0,0-14.7-2.8-22.6-10.9"/>
		<path fill="#FFFFFF" stroke="#000000" stroke-width="0.48" stroke-miterlimit="1.92" d="M73.3,221.9c-33.9-10.9-35.2-21.5-38.4-20.7c-6,4.6,13.3,19.8,13.3,19.8c2.4,3.7,27.1,10.4,27.1,10.4"/>
		<path fill="#FFFFFF" stroke="#000000" stroke-width="0.48" stroke-miterlimit="1.92" d="M76,223.6c0,0-17.1,0.3-24.4-5.5"/>
		<path fill="#FFFFFF" stroke="#000000" stroke-width="0.48" stroke-miterlimit="1.92" d="M74.9,231.3c-32.4-6.8-37.2-16.4-39.7-15.8c-4,5.5,15.5,17.5,15.5,17.5c12.1,7,28.5,7.9,28.5,7.9"/>
		<path fill="#FFFFFF" stroke="#000000" stroke-width="0.48" stroke-miterlimit="1.92" d="M78.6,235.2c0,0-11.4,0.3-18.7-3.6"/>
		<path fill="#FFFFFF" stroke="#000000" stroke-width="0.48" stroke-miterlimit="1.92" d="M73.9,252.6c-9,8.3-14.2,23.8-9.5,24.8c2.6,0.1,9.5-18.1,19.7-20.7l6.5-5.6"/>
		<path fill="#FFFFFF" stroke="#000000" stroke-width="0.48" stroke-miterlimit="1.92" d="M86.9,250.2c2.2,0-11.8,4.3-14.2,10.5"/>
		<path fill="#FFFFFF" stroke="#000000" stroke-width="0.48" stroke-miterlimit="1.92" d="M69.2,245c-13.2,9.9-17.4,21.6-15.5,22.2c2.9,1,14.7-11.2,18.9-12c2.1-0.4,14.4-7,14.4-7"/>
		<path fill="#FFFFFF" stroke="#000000" stroke-width="0.48" stroke-miterlimit="1.92" d="M77.2,246.2c2.2,0-9.2,4-11.6,10.2"/>
		<path fill="#FFFFFF" stroke="#000000" stroke-width="0.48" stroke-miterlimit="1.92" d="M78.6,240.7c-14.4,1.7-39.7-13.7-40.2-12.3c-6.3,7.4,20.9,19.7,26.9,19.1l21.3,1.3"/>
		<path fill="#FFFFFF" stroke="#000000" stroke-width="0.48" stroke-miterlimit="1.92" d="M84.3,244.9c0,0-17.5,0.2-25.4-3.5"/>
		<path fill="#FFFFFF" stroke="#000000" stroke-width="0.48" stroke-miterlimit="1.92" d="M123.9,242.4c0,0,0-8.1-4-8.5c0,0-9-0.7-19,1c-22.9-13.7-5-31.3-8.1-37.3c-1-9.3-16.4-23.3-16.4-23.3
			c-1.6,1.4,0.3,10.1-0.9,9.5c-3.1-1.6-1.2,5.3-2.1,7.1c-2.9-1-2.8,3.4-2.1,6.7c-2.4,0.3-1.6,4.5-1,7.4c-4.7-2.6,1.4,7.4-0.2,7.1
			c-7.3-1,1,6.9,1,6.9c-4.1,1.6-2.2,4.6,0.7,5.9c-3.6,2.6,0.1,6.7,1.4,6.9c-3.3,1.7,0.4,4.2,2.2,6.1c-2.9,2.8,2.4,3.9,5,5
			c-2.1,3.3,0.4,4,2.6,5c-1.4,2.6,2,2.4,4.1,2.1c-2.6,2.8,1.7,4,3.5,3.6c0,0,0.9,3.6,4,2.2c-0.9,2.8,5.4,2.4,5.4,2.4
			c0,2.8,9.2,1.7,9.2,1.7"/>
		<g>
			<path fill="none" stroke="#000000" stroke-width="0.48" stroke-miterlimit="1.92" d="M79.2,195.5c0,0,1.9,5,4.1,5"/>
			<path fill="none" stroke="#000000" stroke-width="0.48" stroke-miterlimit="1.92" d="M75.8,183.7c0,0,2.4,8.5,4.7,8.5"/>
			<path fill="none" stroke="#000000" stroke-width="0.48" stroke-miterlimit="1.92" d="M73.7,190.2c0,0,0.7,5.5,2.9,5.5"/>
			<path fill="none" stroke="#000000" stroke-width="0.48" stroke-miterlimit="1.92" d="M71.3,197.3c0,0,1.9,5,4.1,5"/>
			<path fill="none" stroke="#000000" stroke-width="0.48" stroke-miterlimit="1.92" d="M70.1,204.6c0,0,2.1,4.5,4.3,4.5"/>
			<path fill="none" stroke="#000000" stroke-width="0.48" stroke-miterlimit="1.92" d="M70.3,211.8c0,0,3.5,5.5,5.7,5.5"/>
			<path fill="none" stroke="#000000" stroke-width="0.48" stroke-miterlimit="1.92" d="M71,219.3c0,0,3.6,3.1,5.9,3.1"/>
			<path fill="none" stroke="#000000" stroke-width="0.48" stroke-miterlimit="1.92" d="M71.8,225.1c0,0,3.6,3.1,5.9,3.1"/>
			<path fill="none" stroke="#000000" stroke-width="0.48" stroke-miterlimit="1.92" d="M72.7,231.5c0,0,5.4,2.6,7.6,2.6"/>
			<path fill="none" stroke="#000000" stroke-width="0.48" stroke-miterlimit="1.92" d="M75.1,237.6c0,0,6.1,0.5,8.3,0.5"/>
			<path fill="none" stroke="#000000" stroke-width="0.48" stroke-miterlimit="1.92" d="M80,242.6c0,0,5.1-0.2,7.3-0.2"/>
			<path fill="none" stroke="#000000" stroke-width="0.48" stroke-miterlimit="1.92" d="M83,247.4c0,0,4.3-1.2,7.1-0.2"/>
			<path fill="none" stroke="#000000" stroke-width="0.48" stroke-miterlimit="1.92" d="M87,250.3c0,0,4.3-1.2,7.1-0.2"/>
			<path fill="none" stroke="#000000" stroke-width="0.48" stroke-miterlimit="1.92" d="M90.2,253.6c0,0,4.2-0.6,7.2-1.8"/>
			<path fill="none" stroke="#000000" stroke-width="0.48" stroke-miterlimit="1.92" d="M94.5,255.8c0,0,1.8,0.5,4.8-0.7"/>
			<path fill="none" stroke="#000000" stroke-width="0.48" stroke-miterlimit="1.92" d="M99.6,258c0,0,1.5-0.1,4.5-1.3"/>
			<path fill="none" stroke="#000000" stroke-width="0.48" stroke-miterlimit="1.92" d="M121.1,171.5c-3.5-6.7-7.2-6-7.2-6c-1.8,0-2.4,1.2-4.5,1.2c-2.6,0-2-2.7-2-2.7"/>
		</g>
		<path d="M115.4,165.6c-0.7,3.2-3.1,3.8-3.1,3.8s0.5,3,2.5,3.2c3.6,0.6,4.8-2.6,3.1-5.4C117.2,166.4,115.4,165.6,115.4,165.6"/>
		<path fill="#FFFFFF" d="M117.6,169.3c0.1,0.4-0.5,0.9-1.3,1.2c-0.8,0.3-1.6,0.2-1.7-0.2c0,0,0,0,0,0c-0.1-0.4,0.5-0.9,1.3-1.2
			C116.7,168.8,117.5,168.9,117.6,169.3L117.6,169.3"/>
		<path fill="none" stroke="#000000" stroke-width="0.48" stroke-miterlimit="1.92" d="M68.6,301c-1.1,1.8,4.1,2.3,5.4,0.2c0,2.9,4,3.1,5.4,1.6c0.6,1.9,3.4,1.4,5.2-0.3c0.3,0.8,2.8,2.6,3.8,2.2
			c1.8-0.7,9-10.8,10.5-11.7 M61.3,315.2c0,0,8.2-8,13.6-12.3 M64.1,318.1c0,0,10.8-10,16.2-14.3 M74.5,316.1c0,0,7.2-7.4,12.6-11.7
			 M67.4,301.2c0,0,8-9.6,13.4-13.9 M73.7,301.5c0,0,6.8-7.7,14.5-13.2 M79.8,302.6c0,0,3.2-6.1,12.9-13.6 M84.7,302.6
			c0,0,3.7-6.4,10.4-11.2 M84.3,303.4c-5.5,5.6-9.9,9.4-9.9,9.4 M76.4,303.9c-5.5,5.6-11.1,10.1-11.1,10.1 M71,302.3
			c-5.5,5.6-7,6.1-7,6.1 M76.4,283.1c-1.1,1.8,1.4,6.2,6.8,3.6c-1.7,4.5,0.8,3.3,4.3,1.6c-1,3.9,3.4,1.4,5.2-0.3
			c0.3,0.8,0.4,2.8,2.1,3c1.9,0.2,4-5.4,5.5-6.3 M83,286.8l9.8-9 M77.8,287.2l4.8-7.3 M87.5,288.3l5.9-6.5 M92.6,288.1l3.1-3.4
			 M83.1,289.1c-1.2,1.3-4,3.4-4,3.4 M88.4,290.5c-2.7,2.1-5,4.3-5,4.3 M96.9,292.5c-5.5,5.6-4.3,4.2-4.3,4.2 M94,290.2
			c-2.7,2.1-4.3,3.7-4.3,3.7 M99.5,276.5c-7.8,9.8,3.4,2,3.4,2 M89.4,281.2c0,0-4.6,0.8,0.7-5.5 M98.3,271l-1.5,2.3 M96.5,206.6
			c-1.4,4,2.4,8,2.4,8 M93.6,208.9c-1.4,4,5,10.5,5,10.5 M92.4,215.6c-1.4,4,5.7,7.3,5.7,7.3 M95.5,225.7c0.3,2.9,5.5,2.2,5.5,2.2
			 M88.1,193.4c0,0,0.4,3.3,2.1,7.9c-2.6,2.6-3.1,6.5-3.1,6.5 M79.2,195.5c0,0,1.9,5,4.1,5 M78.1,201.7c0,0,1.9,5,4.1,5 M76.1,207
			c0,0,2.4,3.3,4.6,3.3 M76.9,213.6c0,0,2.4,3.3,4.6,3.3 M78.6,220.5c0,0,2.6,0.6,4.9,0.6 M80.2,225.4c0,0,0.6,0.1,2.8,0.1
			 M82.9,191c0,0-0.3,2.8,1.9,2.8 M85.5,235.8c0,0,2.8-0.3,2.3-2.5 M81.4,231.9c0,0,4.9-1.4,4.4-3.6 M91.6,241.4
			c0,0,0.9-5.7,0.4-7.9 M98.4,245.9c0,0-0.9-7.5-2.6-8.5 M105.8,247.8c-1.8-6.4-4.3-9.3-6-9.9 M113,247.4c-1.8-6.4-6.7-8.8-8.4-9.4
			 M121.6,247.6c-1.8-6.4-6.7-8.8-8.4-9.4 M115.6,256.1c-6.6,2.4-9.7,8.4-9.7,8.4 M106.7,175.5c-1.7,0-2.2,1-2.2,1 M101,185.7
			c-0.7,2.1,1.6,4.9,1.2,4.3 M101.1,169c-1.7,0-1.8,3.3-1.8,3.3 M110.4,197.6l2.4,3.2 M111.7,206.9l2.6,2.9 M122.4,216.8l3.1,3.3"/>
		<path d="M138.1,228.4c0,0,1.5,4,2.5,4.4c0,0,1.2,0.4,2-0.1c0.7-0.5,0-1.5,0-1.5C141.6,229.8,138.1,228.4,138.1,228.4 M131.9,230.4
			c0,0-0.2,4.3,0.6,5c0,0,0.9,0.8,1.8,0.7c0.8-0.2,0.6-1.3,0.6-1.3C134.6,233.1,131.9,230.4,131.9,230.4 M136.2,245.5
			c0,0-0.2,4.3,0.6,5c0,0,0.9,0.8,1.8,0.7c0.8-0.2,0.6-1.4,0.6-1.4C138.9,248.1,136.2,245.5,136.2,245.5 M146.6,249.7l-0.1,0.2h-0.2
			c-0.1,0-0.3-0.1-0.4-0.2c-0.4-0.5-0.3-2.8-0.1-4.2c-0.4-0.6-1.5-2-1.3-2.8c0-0.2,0.1-0.4,0.3-0.5l0.2-0.1l0.2,0.2
			c0.3,0.2,2.5,2.3,2.7,3.4C148.1,246.4,147,249,146.6,249.7z M123.5,262.2c-0.8,0-1.5,2.3-1,3.3c0,0,0.6,1.1,1.5,1.3
			c0.8,0.1,1-1.1,1-1.1C125.4,264.1,125.1,262.2,123.5,262.2 M118.9,296.6c-0.3,0.6-1.7,1.4-1.9,1.5l-0.2,0.1l-0.2-0.1
			c-0.5-0.4-0.2-1.4,0.8-2.9c0-0.7,0.1-2.5,0.7-3.1c0.2-0.1,0.3-0.2,0.5-0.2l0.3,0l0,0.3C118.9,292.6,119.4,295.6,118.9,296.6z
			 M107.9,299.8c-0.2,0.3-0.5,0.4-0.9,0.4c-0.3,0-0.6-0.1-0.8-0.2l-0.1,0c-0.6-0.5-0.3-1.9-0.2-2.5c0-0.6,0.1-2.6,0.7-3.1
			c0.2-0.1,0.3-0.2,0.5-0.2l0.2,0l0.1,0.2C107.6,295.2,108.4,298.8,107.9,299.8z M117,283.1c-0.2,0.3-0.5,0.5-0.9,0.5
			c-0.4,0-0.8-0.1-0.9-0.2l-0.1,0c-0.6-0.5-0.3-1.9-0.1-2.6c0.1-0.4,0.7-2,1.8-1.9l0.3,0l0,0.3C117.1,279.5,117.5,282.1,117,283.1z
			 M131.1,270.8c0,0-1.7,3.9-1.2,4.9c0,0,0.6,1.1,1.5,1.3c0.8,0.1,1-1.1,1-1.1C132.7,274.2,131.1,270.8,131.1,270.8 M126.1,280.9
			c-2.6,0.8-3.1,3.9-2.9,5c0,0,0.2,1.2,1,1.7c0.8,0.4,1.3-0.7,1.3-0.7C126.3,285.3,127.9,282.3,126.1,280.9 M112.3,265.8
			c-1.7,1.2-1.7,2.2-1.7,3.3c0,0,0,1.2,0.7,1.8c0.7,0.5,3-0.5,3-0.5C115.2,269.1,112.4,269.1,112.3,265.8 M130.8,249.1
			c-1.7,1.2-1.7,1-1.7,3.3c0,0,0.6,1.8,1.3,2.4c0.7,0.5,1.4-1.1,1.4-1.1C132.8,252.4,132.3,249.6,130.8,249.1 M143.5,258.4
			c-0.8,0-1.5,2.3-1,3.3c0,0,0.6,1.1,1.5,1.3c0.8,0.1,1-1.1,1-1.1C145.3,260.2,145.1,258.4,143.5,258.4 M138.1,265
			c-1.1,3.6-2.4,4.7-1.9,5.7c0,0,1.3,0.3,2.2,0.5c0.8,0.1,1-1.1,1-1.1C139.7,268.4,138.4,268.9,138.1,265 M107.9,306.9
			c-0.8,0-1.5,2.3-1,3.3c0,0,0.6,1.1,1.5,1.3c0.8,0.1,1-1.1,1-1.1C109.7,308.7,109.4,306.9,107.9,306.9"/>
	</g>
	
		<g transform="matrix(-1,0,0,1,937.5,0) translate(-1,0)" style="clip-path:url(#SVGID_00000093862341628846334850000015325862486640328635_);">
		<g id="t1_00000117651531915738947660000002694728961243588228_">
			<path fill="#EACE24" d="M405.3,318.7c0.2,27.6,0.5,28.6,0.5,28.6c-12.1,11.9-13.5,16.2-17.1,20.1c-4.6-6.7-11.9-4-11.9-4
				c-1.5-6.4-9.2-11.9-9.2-11.9c10.8-0.9,29.3-6.4,30.8-8.6c4.9-7.3-1.8-29.5-1.8-29.5L405.3,318.7z"/>
			<path fill="none" stroke="#806600" stroke-width="0.48" stroke-miterlimit="1.92" d="M405.3,318.7c0.2,27.6,0.5,28.6,0.5,28.6c-12.1,11.9-13.5,16.2-17.1,20.1c-4.6-6.7-11.9-4-11.9-4
				c-1.5-6.4-9.2-11.9-9.2-11.9c10.8-0.9,29.3-6.4,30.8-8.6c4.9-7.3-1.8-29.5-1.8-29.5L405.3,318.7z"/>
			<path fill="#EACE24" d="M378.8,362l11.9-9.2l-14.2,8.5"/>
			<path fill="none" stroke="#806600" stroke-width="0.48" stroke-miterlimit="1.92" d="M378.8,362l11.9-9.2l-14.2,8.5"/>
			<path fill="#EACE24" stroke="#000000" stroke-width="0.48" stroke-miterlimit="1.92" d="M396.5,305.6c0,0-14.9-6.1-30.3,4.6c-1.5,0.4-2.5,0.3-3.7,0.1c-3-3.2-9.7-12.5-14.9-11.3
				c-0.4-7.9,0.5-39.4,0.5-39.4c2.2-0.1,3,4.3,3,4.3c-1.3,9,3.9,63.6,25.2,27.5l15,1.6L396.5,305.6z"/>
			<path fill="none" stroke="#806600" stroke-width="0.48" stroke-miterlimit="1.92" d="M396.5,305.6c0,0-14.9-6.1-30.3,4.6c-1.5,0.4-2.5,0.3-3.7,0.1c-3-3.2-9.7-12.5-14.9-11.3
				c-0.4-7.9,0.5-39.4,0.5-39.4c2.2-0.1,3,4.3,3,4.3c-1.3,9,3.9,63.6,25.2,27.5l15,1.6L396.5,305.6z"/>
			<path fill="#EACE24" d="M404.7,179.3c-12.8,4.6-13,7.1-25.7,18.3c-10.1,4-25.3,13.9-26.1,16.1l0.8,3.2c-2,1.2-3.8-3.3-3.8-3.3
				c2-11.1,37.7-44.6,37.7-44.6l15.7,3.3L404.7,179.3z"/>
			<path fill="none" stroke="#806600" stroke-width="0.48" stroke-miterlimit="1.92" d="M404.7,179.3c-12.8,4.6-13,7.1-25.7,18.3c-10.1,4-25.3,13.9-26.1,16.1l0.8,3.2c-2,1.2-3.8-3.3-3.8-3.3
				c2-11.1,37.7-44.6,37.7-44.6l15.7,3.3L404.7,179.3z"/>
			<path fill="none" stroke="#000000" stroke-width="0.48" stroke-miterlimit="1.92" d="M392.6,174.3l-40.2,36.9l-0.9,2.7"/>
			<path fill="none" stroke="#000000" stroke-width="0.48" stroke-miterlimit="1.92" d="M383.8,188c-4,7.1-11.5,9.7-11.5,9.7"/>
			<path fill="#FFFFFF" stroke="#000000" stroke-width="0.48" stroke-miterlimit="1.92" d="M400,164.8c0.2-13.3-15.6-22.1-15.6-23.3c1.6-9.5,24,13.1,25.2,16.1c1.4,4.3-1.7,9.5-1.7,9.5"/>
			<path fill="#FFFFFF" stroke="#000000" stroke-width="0.48" stroke-miterlimit="1.92" d="M395.7,147.3c4.7,3.8,8.5,16.3,8.5,16.3"/>
			<path fill="#FFFFFF" stroke="#000000" stroke-width="0.48" stroke-miterlimit="1.92" d="M407.3,164.6c1.9-12.8-7.8-23.9-7.1-24.2c5.9-3,13.7,12.8,15.9,18l-2.9,17.6"/>
			<path fill="#FFFFFF" stroke="#000000" stroke-width="0.48" stroke-miterlimit="1.92" d="M410.4,154.1c2.4,6.2-0.2,14.7-0.2,14.7"/>
			<path fill="#FFFFFF" stroke="#000000" stroke-width="0.48" stroke-miterlimit="1.92" d="M412.3,171.4c3.1-3.1,0.2-25.4,1-25.4c6.6,0,10,21.4,8.6,25.9c-4.5,14.6-8.1,17.1-8.1,17.1"/>
			<path fill="#FFFFFF" stroke="#000000" stroke-width="0.48" stroke-miterlimit="1.92" d="M418.2,163.8c0.5,6.6-4.7,14.7-4.7,14.7"/>
			<path fill="#FFFFFF" stroke="#000000" stroke-width="0.48" stroke-miterlimit="1.92" d="M413.9,187.8c8.3-7.8,9.7-28.7,10.9-30.8c8.9,1.7,4.3,23.9,4.3,23.9c-0.2,1.7-11.8,15.6-11.8,15.6"/>
			<path fill="#FFFFFF" stroke="#000000" stroke-width="0.48" stroke-miterlimit="1.92" d="M425.8,170.9c2.9,5.9-10.4,23.3-10.4,23.3"/>
			<path fill="#FFFFFF" stroke="#000000" stroke-width="0.48" stroke-miterlimit="1.92" d="M403.5,237.2c0,0,2.2-30.1-1.6-34.6l11.2-16.6l14.5,28.9l-13.1,24L403.5,237.2z"/>
			<path fill="none" stroke="#000000" stroke-width="0.48" stroke-miterlimit="1.92" d="M403.5,237.2c0,0,2.2-30.1-1.6-34.6l11.2-16.6l14.5,28.9l-13.1,24L403.5,237.2z"/>
			<path fill="#FFFFFF" stroke="#000000" stroke-width="0.48" stroke-miterlimit="1.92" d="M414.1,302.8c-4.9,6.3-7.3,20.5-7.3,20.5l-1.5-4.6c-0.7,0.4-1.1,4-2.1,4c-0.4,0-0.4-3.7-1.3-3.9
				c-0.4-0.1-0.1,5.1-1.1,5.1c-0.8,0-0.8-3.7-1.1-3.5c-0.6,0.4-0.7,4.9-1.2,2.6c0.7-24.3-46.9-44.2-46-71.4
				c-1.2-28.2,29.1-38.9,47.7-62.6c0,0,5.2-15.6-4.4-8.7c-7.8-1.2-7.1-8.9-7.1-8.9h-4.3c-1.9-16.6,14.8-12.7,14.8-12.7
				c15.5,0,16.9,16,16.9,16c4,20.8-23,45.6-23,45.6c-4,8.6,0,23.6,0,23.6l37.6,35.4"/>
			<path fill="#FFFFFF" stroke="#000000" stroke-width="0.48" stroke-miterlimit="1.92" d="M430.2,279c2.1,2.5,12.7,15.1,15.3,19.5c3.7,4-3.5,2.9-3.5,2.9s10.6,11.2,15.7,14.4
				c-1.6,4.7-11.7-2.1-11.7-2.1s9.9,6.1,9.3,7.3c-3,2.3-11.8-4.1-11.8-4.1s2.1,2.9,0.3,4c-2.9,0-9.7-5.4-9.7-5.4s1.4,3.1-0.2,3.6
				c-2.8-1.8-20.4-16.4-20.4-16.4"/>
			<path fill="none" stroke="#000000" stroke-width="0.48" stroke-miterlimit="1.92" d="M423.4,271.5c0,0,5.3,7,1.7,5.9"/>
			<path fill="#FFFFFF" stroke="#000000" stroke-width="0.48" stroke-miterlimit="1.92" d="M424.1,253.4c4.3,8.3,9.7,22,3.8,28.1c-2,0.6-7.2-19.5-11.2-21.4c-0.6-2.1-3.3-11.2-3.3-11.2"/>
			<path fill="#FFFFFF" stroke="#000000" stroke-width="0.48" stroke-miterlimit="1.92" d="M417.5,252.5c-2.2,0,4.5,4.5,6.9,10.7"/>
			<path fill="#FFFFFF" stroke="#000000" stroke-width="0.48" stroke-miterlimit="1.92" d="M415.7,254c3.3,15.5,0.2,18.8-1.1,18.9c-2-1-5.4-15.2-9.3-16"/>
			<path fill="#FFFFFF" stroke="#000000" stroke-width="0.48" stroke-miterlimit="1.92" d="M432.5,182.2c13.7-12.8,15.5-27.5,17-27.6c6.5-0.5-2.2,26-2.2,26l-16.4,13.1"/>
			<path fill="#FFFFFF" stroke="#000000" stroke-width="0.48" stroke-miterlimit="1.92" d="M434.6,185.4c0,0,6.6-5,10-11.8"/>
			<path fill="#FFFFFF" stroke="#000000" stroke-width="0.48" stroke-miterlimit="1.92" d="M432.5,191.4c20.3-11.2,22.7-29.6,24.4-29c6.2,2.5-1.7,19.3-1.7,19.3C454.1,186.4,438,201,438,201"/>
			<path fill="#FFFFFF" stroke="#000000" stroke-width="0.48" stroke-miterlimit="1.92" d="M436.4,196.8c0,0,8.6-6.4,15.6-16.9"/>
			<path fill="#FFFFFF" stroke="#000000" stroke-width="0.48" stroke-miterlimit="1.92" d="M438.7,199.6c24.3-13.4,24.8-28.9,27.5-27.9c5.8,15.7-15.4,30.4-30.3,41.6"/>
			<path fill="#FFFFFF" stroke="#000000" stroke-width="0.48" stroke-miterlimit="1.92" d="M437.4,206.3c0,0,11.1-4,18-14.5"/>
			<path fill="#FFFFFF" stroke="#000000" stroke-width="0.48" stroke-miterlimit="1.92" d="M436.4,213c21.1-6.7,31.4-26.4,34-25.4c6.1,2.3-6.7,18.8-6.7,18.8c-10.4,9.7-27.5,16.7-27.5,16.7"/>
			<path fill="#FFFFFF" stroke="#000000" stroke-width="0.48" stroke-miterlimit="1.92" d="M435.8,216c0,0,14.7-2.8,22.6-10.9"/>
			<path fill="#FFFFFF" stroke="#000000" stroke-width="0.48" stroke-miterlimit="1.92" d="M436.2,221.9c33.9-10.9,35.2-21.5,38.4-20.7c6,4.6-13.3,19.8-13.3,19.8c-2.4,3.7-27.1,10.4-27.1,10.4"/>
			<path fill="#FFFFFF" stroke="#000000" stroke-width="0.48" stroke-miterlimit="1.92" d="M433.6,223.6c0,0,17.1,0.3,24.4-5.5"/>
			<path fill="#FFFFFF" stroke="#000000" stroke-width="0.48" stroke-miterlimit="1.92" d="M434.7,231.3c32.4-6.8,37.2-16.4,39.7-15.8c4,5.5-15.5,17.5-15.5,17.5c-12.1,7-28.5,7.9-28.5,7.9"/>
			<path fill="#FFFFFF" stroke="#000000" stroke-width="0.48" stroke-miterlimit="1.92" d="M431,235.2c0,0,11.4,0.3,18.7-3.6"/>
			<path fill="#FFFFFF" stroke="#000000" stroke-width="0.48" stroke-miterlimit="1.92" d="M435.6,252.6c9,8.3,14.2,23.8,9.5,24.8c-2.6,0.1-9.5-18.1-19.7-20.7l-6.5-5.6"/>
			<path fill="#FFFFFF" stroke="#000000" stroke-width="0.48" stroke-miterlimit="1.92" d="M422.7,250.2c-2.2,0,11.8,4.3,14.2,10.5"/>
			<path fill="#FFFFFF" stroke="#000000" stroke-width="0.48" stroke-miterlimit="1.92" d="M440.4,245c13.2,9.9,17.4,21.6,15.5,22.2c-2.9,1-14.7-11.2-18.9-12c-2.1-0.4-14.4-7-14.4-7"/>
			<path fill="#FFFFFF" stroke="#000000" stroke-width="0.48" stroke-miterlimit="1.92" d="M432.4,246.2c-2.2,0,9.2,4,11.6,10.2"/>
			<path fill="#FFFFFF" stroke="#000000" stroke-width="0.48" stroke-miterlimit="1.92" d="M431,240.7c14.4,1.7,39.7-13.7,40.2-12.3c6.3,7.4-20.9,19.7-26.9,19.1l-21.3,1.3"/>
			<path fill="#FFFFFF" stroke="#000000" stroke-width="0.48" stroke-miterlimit="1.92" d="M425.3,244.9c0,0,17.5,0.2,25.4-3.5"/>
			<path fill="#FFFFFF" stroke="#000000" stroke-width="0.48" stroke-miterlimit="1.92" d="M385.7,242.4c0,0,0-8.1,4-8.5c0,0,9-0.7,19,1c22.9-13.7,5-31.3,8.1-37.3c1-9.3,16.4-23.3,16.4-23.3
				c1.6,1.4-0.3,10.1,0.9,9.5c3.1-1.6,1.2,5.3,2.1,7.1c2.9-1,2.8,3.4,2.1,6.7c2.4,0.3,1.6,4.5,1,7.4c4.7-2.6-1.4,7.4,0.2,7.1
				c7.3-1-1,6.9-1,6.9c4.1,1.6,2.2,4.6-0.7,5.9c3.6,2.6-0.1,6.7-1.4,6.9c3.3,1.7-0.4,4.2-2.2,6.1c2.9,2.8-2.4,3.9-5,5
				c2.1,3.3-0.4,4-2.6,5c1.4,2.6-2,2.4-4.1,2.1c2.6,2.8-1.7,4-3.5,3.6c0,0-0.9,3.6-4,2.2c0.9,2.8-5.4,2.4-5.4,2.4
				c0,2.8-9.2,1.7-9.2,1.7"/>
			<g>
				<path fill="none" stroke="#000000" stroke-width="0.48" stroke-miterlimit="1.92" d="M430.3,195.5c0,0-1.9,5-4.1,5"/>
				<path fill="none" stroke="#000000" stroke-width="0.48" stroke-miterlimit="1.92" d="M433.8,183.7c0,0-2.4,8.5-4.7,8.5"/>
				<path fill="none" stroke="#000000" stroke-width="0.48" stroke-miterlimit="1.92" d="M435.8,190.2c0,0-0.7,5.5-2.9,5.5"/>
				<path fill="none" stroke="#000000" stroke-width="0.48" stroke-miterlimit="1.92" d="M438.3,197.3c0,0-1.9,5-4.1,5"/>
				<path fill="none" stroke="#000000" stroke-width="0.48" stroke-miterlimit="1.92" d="M439.5,204.6c0,0-2.1,4.5-4.3,4.5"/>
				<path fill="none" stroke="#000000" stroke-width="0.48" stroke-miterlimit="1.92" d="M439.3,211.8c0,0-3.5,5.5-5.7,5.5"/>
				<path fill="none" stroke="#000000" stroke-width="0.48" stroke-miterlimit="1.92" d="M438.6,219.3c0,0-3.6,3.1-5.9,3.1"/>
				<path fill="none" stroke="#000000" stroke-width="0.48" stroke-miterlimit="1.92" d="M437.7,225.1c0,0-3.6,3.1-5.9,3.1"/>
				<path fill="none" stroke="#000000" stroke-width="0.48" stroke-miterlimit="1.92" d="M436.9,231.5c0,0-5.4,2.6-7.6,2.6"/>
				<path fill="none" stroke="#000000" stroke-width="0.48" stroke-miterlimit="1.92" d="M434.5,237.6c0,0-6.1,0.5-8.3,0.5"/>
				<path fill="none" stroke="#000000" stroke-width="0.48" stroke-miterlimit="1.92" d="M429.5,242.6c0,0-5.1-0.2-7.3-0.2"/>
				<path fill="none" stroke="#000000" stroke-width="0.48" stroke-miterlimit="1.92" d="M426.6,247.4c0,0-4.3-1.2-7.1-0.2"/>
				<path fill="none" stroke="#000000" stroke-width="0.48" stroke-miterlimit="1.92" d="M422.6,250.3c0,0-4.3-1.2-7.1-0.2"/>
				<path fill="none" stroke="#000000" stroke-width="0.48" stroke-miterlimit="1.92" d="M419.4,253.6c0,0-4.2-0.6-7.2-1.8"/>
				<path fill="none" stroke="#000000" stroke-width="0.48" stroke-miterlimit="1.92" d="M415.1,255.8c0,0-1.8,0.5-4.8-0.7"/>
				<path fill="none" stroke="#000000" stroke-width="0.48" stroke-miterlimit="1.92" d="M410,258c0,0-1.5-0.1-4.5-1.3"/>
				<path fill="none" stroke="#000000" stroke-width="0.48" stroke-miterlimit="1.92" d="M388.5,171.5c3.5-6.7,7.2-6,7.2-6c1.8,0,2.4,1.2,4.5,1.2c2.6,0,2-2.7,2-2.7"/>
			</g>
			<path d="M394.2,165.6c0.7,3.2,3.1,3.8,3.1,3.8s-0.5,3-2.5,3.2c-3.6,0.6-4.8-2.6-3.1-5.4C392.4,166.4,394.2,165.6,394.2,165.6"/>
			<path fill="#FFFFFF" d="M392,169.3c-0.1,0.4,0.5,0.9,1.3,1.2c0.8,0.3,1.6,0.2,1.7-0.2c0,0,0,0,0,0c0.1-0.4-0.5-0.9-1.3-1.2
				C392.9,168.8,392.1,168.9,392,169.3L392,169.3"/>
			<path fill="none" stroke="#000000" stroke-width="0.48" stroke-miterlimit="1.92" d="M440.9,301c1.1,1.8-4.1,2.3-5.4,0.2c0,2.9-4,3.1-5.4,1.6c-0.6,1.9-3.4,1.4-5.2-0.3
				c-0.3,0.8-2.8,2.6-3.8,2.2c-1.8-0.7-9-10.8-10.5-11.7 M448.2,315.2c0,0-8.2-8-13.6-12.3 M445.4,318.1c0,0-10.8-10-16.2-14.3
				 M435,316.1c0,0-7.2-7.4-12.6-11.7 M442.2,301.2c0,0-8-9.6-13.4-13.9 M435.9,301.5c0,0-6.8-7.7-14.5-13.2 M429.7,302.6
				c0,0-3.2-6.1-12.9-13.6 M424.8,302.6c0,0-3.7-6.4-10.4-11.2 M425.2,303.4c5.5,5.6,9.9,9.4,9.9,9.4 M433.2,303.9
				c5.5,5.6,11.1,10.1,11.1,10.1 M438.6,302.3c5.5,5.6,7,6.1,7,6.1 M433.2,283.1c1.1,1.8-1.4,6.2-6.8,3.6c1.7,4.5-0.8,3.3-4.3,1.6
				c1,3.9-3.4,1.4-5.2-0.3c-0.3,0.8-0.4,2.8-2.1,3c-1.9,0.2-4-5.4-5.5-6.3 M426.5,286.8l-9.8-9 M431.7,287.2l-4.8-7.3 M422.1,288.3
				l-5.9-6.5 M417,288.1l-3.1-3.4 M426.5,289.1c1.2,1.3,4,3.4,4,3.4 M421.2,290.5c2.7,2.1,5,4.3,5,4.3 M412.6,292.5
				c5.5,5.6,4.3,4.2,4.3,4.2 M415.6,290.2c2.7,2.1,4.3,3.7,4.3,3.7 M410.1,276.5c7.8,9.8-3.4,2-3.4,2 M420.2,281.2
				c0,0,4.6,0.8-0.7-5.5 M411.3,271l1.5,2.3 M413,206.6c1.4,4-2.4,8-2.4,8 M416,208.9c1.4,4-5,10.5-5,10.5 M417.2,215.6
				c1.4,4-5.7,7.3-5.7,7.3 M414.1,225.7c-0.3,2.9-5.5,2.2-5.5,2.2 M421.5,193.4c0,0-0.4,3.3-2.1,7.9c2.6,2.6,3.1,6.5,3.1,6.5
				 M430.3,195.5c0,0-1.9,5-4.1,5 M431.4,201.7c0,0-1.9,5-4.1,5 M433.5,207c0,0-2.4,3.3-4.6,3.3 M432.6,213.6c0,0-2.4,3.3-4.6,3.3
				 M430.9,220.5c0,0-2.6,0.6-4.9,0.6 M429.3,225.4c0,0-0.6,0.1-2.8,0.1 M426.6,191c0,0,0.3,2.8-1.9,2.8 M424,235.8
				c0,0-2.8-0.3-2.3-2.5 M428.2,231.9c0,0-4.9-1.4-4.4-3.6 M417.9,241.4c0,0-0.9-5.7-0.4-7.9 M411.2,245.9c0,0,0.9-7.5,2.6-8.5
				 M403.7,247.8c1.8-6.4,4.3-9.3,6-9.9 M396.5,247.4c1.8-6.4,6.7-8.8,8.4-9.4 M388,247.6c1.8-6.4,6.7-8.8,8.4-9.4 M393.9,256.1
				c6.6,2.4,9.7,8.4,9.7,8.4 M402.8,175.5c1.7,0,2.2,1,2.2,1 M408.5,185.7c0.7,2.1-1.6,4.9-1.2,4.3 M408.4,169
				c1.7,0,1.8,3.3,1.8,3.3 M399.1,197.6l-2.4,3.2 M397.9,206.9l-2.6,2.9 M387.1,216.8l-3.1,3.3"/>
			<path d="M371.4,228.4c0,0-1.5,4-2.5,4.4c0,0-1.2,0.4-2-0.1c-0.7-0.5,0-1.5,0-1.5C367.9,229.8,371.4,228.4,371.4,228.4
				 M377.6,230.4c0,0,0.2,4.3-0.6,5c0,0-0.9,0.8-1.8,0.7c-0.8-0.2-0.6-1.3-0.6-1.3C374.9,233.1,377.6,230.4,377.6,230.4
				 M373.4,245.5c0,0,0.2,4.3-0.6,5c0,0-0.9,0.8-1.8,0.7c-0.8-0.2-0.6-1.4-0.6-1.4C370.7,248.1,373.4,245.5,373.4,245.5
				 M362.9,249.7l0.1,0.2h0.2c0.1,0,0.3-0.1,0.4-0.2c0.4-0.5,0.3-2.8,0.1-4.2c0.4-0.6,1.5-2,1.3-2.8c0-0.2-0.1-0.4-0.3-0.5l-0.2-0.1
				l-0.2,0.2c-0.3,0.2-2.5,2.3-2.7,3.4C361.5,246.4,362.6,249,362.9,249.7z M386,262.2c0.8,0,1.5,2.3,1,3.3c0,0-0.6,1.1-1.5,1.3
				c-0.8,0.1-1-1.1-1-1.1C384.2,264.1,384.5,262.2,386,262.2 M390.7,296.6c0.3,0.6,1.7,1.4,1.9,1.5l0.2,0.1l0.2-0.1
				c0.5-0.4,0.2-1.4-0.8-2.9c0-0.7-0.1-2.5-0.7-3.1c-0.2-0.1-0.3-0.2-0.5-0.2l-0.3,0l0,0.3C390.7,292.6,390.1,295.6,390.7,296.6z
				 M401.7,299.8c0.2,0.3,0.5,0.4,0.9,0.4c0.3,0,0.6-0.1,0.8-0.2l0.1,0c0.6-0.5,0.3-1.9,0.2-2.5c0-0.6-0.1-2.6-0.7-3.1
				c-0.2-0.1-0.3-0.2-0.5-0.2l-0.2,0l-0.1,0.2C402,295.2,401.1,298.8,401.7,299.8z M392.6,283.1c0.2,0.3,0.5,0.5,0.9,0.5
				c0.4,0,0.8-0.1,0.9-0.2l0.1,0c0.6-0.5,0.3-1.9,0.1-2.6c-0.1-0.4-0.7-2-1.8-1.9l-0.3,0l0,0.3C392.4,279.5,392,282.1,392.6,283.1z
				 M378.4,270.8c0,0,1.7,3.9,1.2,4.9c0,0-0.6,1.1-1.5,1.3c-0.8,0.1-1-1.1-1-1.1C376.8,274.2,378.4,270.8,378.4,270.8 M383.4,280.9
				c2.6,0.8,3.1,3.9,2.9,5c0,0-0.2,1.2-1,1.7c-0.8,0.4-1.3-0.7-1.3-0.7C383.2,285.3,381.6,282.3,383.4,280.9 M397.3,265.8
				c1.7,1.2,1.7,2.2,1.7,3.3c0,0,0,1.2-0.7,1.8c-0.7,0.5-3-0.5-3-0.5C394.3,269.1,397.2,269.1,397.3,265.8 M378.8,249.1
				c1.7,1.2,1.7,1,1.7,3.3c0,0-0.6,1.8-1.3,2.4c-0.7,0.5-1.4-1.1-1.4-1.1C376.8,252.4,377.3,249.6,378.8,249.1 M366.1,258.4
				c0.8,0,1.5,2.3,1,3.3c0,0-0.6,1.1-1.5,1.3c-0.8,0.1-1-1.1-1-1.1C364.2,260.2,364.5,258.4,366.1,258.4 M371.4,265
				c1.1,3.6,2.4,4.7,1.9,5.7c0,0-1.3,0.3-2.2,0.5c-0.8,0.1-1-1.1-1-1.1C369.8,268.4,371.2,268.9,371.4,265 M401.7,306.9
				c0.8,0,1.5,2.3,1,3.3c0,0-0.6,1.1-1.5,1.3c-0.8,0.1-1-1.1-1-1.1C399.8,308.7,400.1,306.9,401.7,306.9"/>
		</g>
	</g>
	<g id="t2" style="clip-path:url(#SVGID_00000093862341628846334850000015325862486640328635_);">
		<path fill="#EACE24" stroke="#806600" stroke-width="0.48" stroke-miterlimit="1.92" d="M250.1,189.2c0.2-2.1,0.1-6.1-1-7.9c-0.4-0.6-1.3-1.3-1.9-1.3c-0.7,0-1.6,0.2-1.9,0.9
			c-0.3,0.6-0.5,1.8-0.4,2.4c0.1,0.9,1.1,2.7,1.1,2.7s-3.6-0.8-4.9-1.7c-1.2-1-2.5-2.8-2.9-4.3c-0.1-0.5-0.7-2.2,0-4.3
			c0.4-1.2,1.5-2.8,2.4-3.5c2.3-2.1,6.8-1.5,7.7-0.9c1.2,0.7,2.7,2.1,3.2,3.4c0.4,1,1.2,4.1,1.4,5.2c0.4,2.2,0.5,3.1,0.7,5.3
			c0.1,1.5,0.5,2.9,0.1,4.4c-0.2,0.8-0.4,2.7-0.8,3.9c-0.5,1.2-1.2,1.8-1.8,2.4c-1.3,1.1-5.3,1.7-5.3,1.7s2.2-2.9,2.8-4.2
			C249.2,192,249.9,190.8,250.1,189.2"/>
		<path fill="#EACE24" stroke="#806600" stroke-width="0.48" stroke-miterlimit="1.92" d="M259.9,189.2c-0.2-2.1-0.1-6.1,1-7.9c0.4-0.6,1.3-1.3,1.9-1.3c0.7,0,1.6,0.2,1.9,0.9
			c0.3,0.6,0.5,1.8,0.4,2.4c-0.1,0.9-1.1,2.7-1.1,2.7s3.6-0.8,4.9-1.7c1.2-1,2.5-2.8,2.9-4.3c0.1-0.5,0.7-2.2,0-4.3
			c-0.4-1.2-1.5-2.8-2.4-3.5c-2.3-2.1-6.8-1.5-7.7-0.9c-1.2,0.7-2.7,2.1-3.2,3.4c-0.4,1-1.2,4.1-1.4,5.2c-0.4,2.2-0.5,3.1-0.7,5.3
			c-0.1,1.5-0.5,2.9-0.1,4.4c0.2,0.8,0.4,2.7,0.8,3.9c0.5,1.2,1.2,1.8,1.8,2.4c1.3,1.1,5.3,1.7,5.3,1.7s-2.2-2.9-2.8-4.2
			C260.8,192,260.1,190.8,259.9,189.2"/>
		<path fill="#EACE24" stroke="#806600" stroke-width="0.48" stroke-miterlimit="1.92" d="M255,204.8c0,0,3.2-2.7,3.8-5.9c0.5-2.8-1.7-6.1-1.8-7.4c-0.7-5.3,0.7-12.3,0.9-12.9c0.5-2.3,1.1-3.3,1.5-4
			c0.2-0.5,0.9-1.6,1.6-2.6c0.4-0.6,1.3-1.7,1.7-2.8c0.5-1.2,0.5-2.4,0.5-3.1c0-1.1-0.2-2-0.5-2.9c-0.3-0.9-1.2-2.3-2.4-3.1
			c-1.4-0.9-2.5-1.6-2.9-1.8c-1.4-0.9-2.3-3.9-2.3-3.9s-0.9,3-2.3,3.9c-0.4,0.3-1.5,1-2.9,1.8c-1.3,0.8-2.2,2.2-2.4,3.1
			c-0.3,0.9-0.5,1.8-0.5,2.9c0,0.6,0,1.9,0.5,3.1c0.4,1.1,1.3,2.2,1.7,2.8c0.7,1,1.4,2.1,1.6,2.6c0.3,0.7,1,1.7,1.5,4
			c0.1,0.6,1.5,7.6,0.9,12.9c-0.2,1.3-2.4,4.6-1.9,7.4C251.7,202.1,255,204.8,255,204.8"/>
		<path fill="#EACE24" stroke="#806600" stroke-width="0.48" stroke-miterlimit="1.92" d="M262.3,187.9l-1.6-2.2h-11.4l-1.6,2.2l1.6,2.2h11.4L262.3,187.9z"/>
	</g>
	<g style="clip-path:url(#SVGID_00000093862341628846334850000015325862486640328635_);">
		<g id="t2_00000113311928414036326030000012460016044229244299_">
			<path fill="#EACE24" stroke="#806600" stroke-width="0.48" stroke-miterlimit="1.92" d="M188.6,189.2c0.2-2.1,0.1-6.1-1-7.9c-0.4-0.6-1.3-1.3-1.9-1.3c-0.7,0-1.6,0.2-1.9,0.9
				c-0.3,0.6-0.5,1.8-0.4,2.4c0.1,0.9,1.1,2.7,1.1,2.7s-3.6-0.8-4.9-1.7c-1.2-1-2.5-2.8-2.9-4.3c-0.1-0.5-0.7-2.2,0-4.3
				c0.4-1.2,1.5-2.8,2.4-3.5c2.3-2.1,6.8-1.5,7.7-0.9c1.2,0.7,2.7,2.1,3.2,3.4c0.4,1,1.2,4.1,1.4,5.2c0.4,2.2,0.5,3.1,0.7,5.3
				c0.1,1.5,0.5,2.9,0.1,4.4c-0.2,0.8-0.4,2.7-0.8,3.9c-0.5,1.2-1.2,1.8-1.8,2.4c-1.3,1.1-5.3,1.7-5.3,1.7s2.2-2.9,2.8-4.2
				C187.7,192,188.4,190.8,188.6,189.2"/>
			<path fill="#EACE24" stroke="#806600" stroke-width="0.48" stroke-miterlimit="1.92" d="M198.4,189.2c-0.2-2.1-0.1-6.1,1-7.9c0.4-0.6,1.3-1.3,1.9-1.3c0.7,0,1.6,0.2,1.9,0.9
				c0.3,0.6,0.5,1.8,0.4,2.4c-0.1,0.9-1.1,2.7-1.1,2.7s3.6-0.8,4.9-1.7c1.2-1,2.5-2.8,2.9-4.3c0.1-0.5,0.7-2.2,0-4.3
				c-0.4-1.2-1.5-2.8-2.4-3.5c-2.3-2.1-6.8-1.5-7.7-0.9c-1.2,0.7-2.7,2.1-3.2,3.4c-0.4,1-1.2,4.1-1.4,5.2c-0.4,2.2-0.5,3.1-0.7,5.3
				c-0.1,1.5-0.5,2.9-0.1,4.4c0.2,0.8,0.4,2.7,0.8,3.9c0.5,1.2,1.2,1.8,1.8,2.4c1.3,1.1,5.3,1.7,5.3,1.7s-2.2-2.9-2.8-4.2
				C199.3,192,198.6,190.8,198.4,189.2"/>
			<path fill="#EACE24" stroke="#806600" stroke-width="0.48" stroke-miterlimit="1.92" d="M193.5,204.8c0,0,3.2-2.7,3.8-5.9c0.5-2.8-1.7-6.1-1.8-7.4c-0.7-5.3,0.7-12.3,0.9-12.9
				c0.5-2.3,1.1-3.3,1.5-4c0.2-0.5,0.9-1.6,1.6-2.6c0.4-0.6,1.3-1.7,1.7-2.8c0.5-1.2,0.5-2.4,0.5-3.1c0-1.1-0.2-2-0.5-2.9
				c-0.3-0.9-1.2-2.3-2.4-3.1c-1.4-0.9-2.5-1.6-2.9-1.8c-1.4-0.9-2.3-3.9-2.3-3.9s-0.9,3-2.3,3.9c-0.4,0.3-1.5,1-2.9,1.8
				c-1.3,0.8-2.2,2.2-2.4,3.1c-0.3,0.9-0.5,1.8-0.5,2.9c0,0.6,0,1.9,0.5,3.1c0.4,1.1,1.3,2.2,1.7,2.8c0.7,1,1.4,2.1,1.6,2.6
				c0.3,0.7,1,1.7,1.5,4c0.1,0.6,1.5,7.6,0.9,12.9c-0.2,1.3-2.4,4.6-1.9,7.4C190.2,202.1,193.5,204.8,193.5,204.8"/>
			<path fill="#EACE24" stroke="#806600" stroke-width="0.48" stroke-miterlimit="1.92" d="M200.8,187.9l-1.6-2.2h-11.4l-1.6,2.2l1.6,2.2h11.4L200.8,187.9z"/>
		</g>
	</g>
	<g style="clip-path:url(#SVGID_00000093862341628846334850000015325862486640328635_);">
		<g id="t2_00000109031835895001217840000008894000460733840568_">
			<path fill="#EACE24" stroke="#806600" stroke-width="0.48" stroke-miterlimit="1.92" d="M311.5,189.2c0.2-2.1,0.1-6.1-1-7.9c-0.4-0.6-1.3-1.3-1.9-1.3c-0.7,0-1.6,0.2-1.9,0.9
				c-0.3,0.6-0.5,1.8-0.4,2.4c0.1,0.9,1.1,2.7,1.1,2.7s-3.6-0.8-4.9-1.7c-1.2-1-2.5-2.8-2.9-4.3c-0.1-0.5-0.7-2.2,0-4.3
				c0.4-1.2,1.5-2.8,2.4-3.5c2.3-2.1,6.8-1.5,7.7-0.9c1.2,0.7,2.7,2.1,3.2,3.4c0.4,1,1.2,4.1,1.4,5.2c0.4,2.2,0.5,3.1,0.7,5.3
				c0.1,1.5,0.5,2.9,0.1,4.4c-0.2,0.8-0.4,2.7-0.8,3.9c-0.5,1.2-1.2,1.8-1.8,2.4c-1.3,1.1-5.3,1.7-5.3,1.7s2.2-2.9,2.8-4.2
				C310.7,192,311.4,190.8,311.5,189.2"/>
			<path fill="#EACE24" stroke="#806600" stroke-width="0.48" stroke-miterlimit="1.92" d="M321.4,189.2c-0.2-2.1-0.1-6.1,1-7.9c0.4-0.6,1.3-1.3,1.9-1.3c0.7,0,1.6,0.2,1.9,0.9
				c0.3,0.6,0.5,1.8,0.4,2.4c-0.1,0.9-1.1,2.7-1.1,2.7s3.6-0.8,4.9-1.7c1.2-1,2.5-2.8,2.9-4.3c0.1-0.5,0.7-2.2,0-4.3
				c-0.4-1.2-1.5-2.8-2.4-3.5c-2.3-2.1-6.8-1.5-7.7-0.9c-1.2,0.7-2.7,2.1-3.2,3.4c-0.4,1-1.2,4.1-1.4,5.2c-0.4,2.2-0.5,3.1-0.7,5.3
				c-0.1,1.5-0.5,2.9-0.1,4.4c0.2,0.8,0.4,2.7,0.8,3.9c0.5,1.2,1.2,1.8,1.8,2.4c1.3,1.1,5.3,1.7,5.3,1.7s-2.2-2.9-2.8-4.2
				C322.3,192,321.6,190.8,321.4,189.2"/>
			<path fill="#EACE24" stroke="#806600" stroke-width="0.48" stroke-miterlimit="1.92" d="M316.5,204.8c0,0,3.2-2.7,3.8-5.9c0.5-2.8-1.7-6.1-1.8-7.4c-0.7-5.3,0.7-12.3,0.9-12.9
				c0.5-2.3,1.1-3.3,1.5-4c0.2-0.5,0.9-1.6,1.6-2.6c0.4-0.6,1.3-1.7,1.7-2.8c0.5-1.2,0.5-2.4,0.5-3.1c0-1.1-0.2-2-0.5-2.9
				c-0.3-0.9-1.2-2.3-2.4-3.1c-1.4-0.9-2.5-1.6-2.9-1.8c-1.4-0.9-2.3-3.9-2.3-3.9s-0.9,3-2.3,3.9c-0.4,0.3-1.5,1-2.9,1.8
				c-1.3,0.8-2.2,2.2-2.4,3.1c-0.3,0.9-0.5,1.8-0.5,2.9c0,0.6,0,1.9,0.5,3.1c0.4,1.1,1.3,2.2,1.7,2.8c0.7,1,1.4,2.1,1.6,2.6
				c0.3,0.7,1,1.7,1.5,4c0.1,0.6,1.5,7.6,0.9,12.9c-0.2,1.3-2.4,4.6-1.9,7.4C313.2,202.1,316.5,204.8,316.5,204.8"/>
			<path fill="#EACE24" stroke="#806600" stroke-width="0.48" stroke-miterlimit="1.92" d="M323.8,187.9l-1.6-2.2h-11.4l-1.6,2.2l1.6,2.2h11.4L323.8,187.9z"/>
		</g>
	</g>
	<g id="t3" style="clip-path:url(#SVGID_00000093862341628846334850000015325862486640328635_);">
		<path fill="#EACE24" stroke="#806600" stroke-width="0.48" stroke-miterlimit="4.8" d="M237.7,348h34.4v8.1h-34.4V348z M237.7,346.2c-0.1-7.6-1.1-15.4-4.4-22c0.4-0.1,0.8-0.2,1.3-0.2
			c2.4,0,4.4,2,4.4,4.4c0,0.6-0.1,1.2-0.3,1.7c0.6-0.3,1.2-0.4,1.9-0.4c2.4,0,4.4,2,4.4,4.4c0,2.4-2,4.4-4.4,4.4
			c-0.3,0-0.6,0-0.9-0.1c0.3,3,1.9,5.2,3.7,5.2c1.4,0,2.6-1.3,3.3-3.3c0.6,2,1.9,3.3,3.3,3.3c2,0,3.6-2.6,3.7-5.9
			c-0.7,0.5-1.6,0.8-2.5,0.8c-2.4,0-4.4-2-4.4-4.4c0-2.4,2-4.4,4.4-4.4c-0.4-0.6-0.6-1.4-0.6-2.2c0-2.4,2-4.4,4.4-4.4
			c2.4,0,4.4,2,4.4,4.4c0,0.8-0.2,1.5-0.6,2.2c2.4,0,4.4,2,4.4,4.4c0,2.4-2,4.4-4.4,4.4c-0.9,0-1.8-0.3-2.5-0.8
			c0.2,3.3,1.8,5.9,3.7,5.9c1.4,0,2.6-1.3,3.3-3.3c0.6,2,1.9,3.3,3.3,3.3c1.8,0,3.4-2.3,3.7-5.2c-0.3,0.1-0.6,0.1-0.9,0.1
			c-2.4,0-4.4-2-4.4-4.4c0-2.4,2-4.4,4.4-4.4c0.7,0,1.3,0.1,1.9,0.4c-0.2-0.5-0.3-1.1-0.3-1.7c0-2.4,2-4.4,4.4-4.4
			c0.4,0,0.9,0.1,1.3,0.2c-3.2,6.6-4.3,14.5-4.4,22H237.7L237.7,346.2z"/>
		<path fill="#806600" d="M256,334.1l4.7-0.7l-4.9-0.8l-0.8-4.9l-0.8,4.9l-4.9,0.8l4.7,0.7H256z"/>
		<path fill="#806600" d="M237.6,349.3c0.2,0,0.4,0.1,0.5,0.2c0.1,0.1,0.1,0.2,0.2,0.2l0.8,1.8c0.1,0.2,0.1,0.4,0,0.6h0l-0.8,1.8
			c-0.1,0.3-0.4,0.4-0.6,0.4L237.6,349.3L237.6,349.3z"/>
		<path fill="#806600" d="M238,335.4l4.5-1.5l-5,0.1l-1.6-4.7l1.2,5.9L238,335.4z"/>
		<path fill="#806600" d="M236.7,333L236.7,333L236.7,333c0.1,0,0.1,0,0.2,0c0.1,0,0.2,0,0.2,0.1l0,0l0,0c0.1,0.1,0.2,0.1,0.2,0.2l0,0
			c0.1,0.1,0.1,0.1,0.2,0.2l0,0c0.3,0.4,0.6,1,0.6,1.6h0v0h0c0,0.2,0,0.4-0.1,0.7l0,0l0,0.1c0,0,0,0,0,0l0,0l0,0
			c-0.1,0.2-0.1,0.3-0.2,0.4c0,0.1-0.1,0.1-0.2,0.2h0l0,0l0,0l0,0c0,0-0.1,0-0.1,0.1l-0.1,0C237.2,335.5,236.9,334.3,236.7,333
			L236.7,333L236.7,333L236.7,333C236.7,333,236.7,333,236.7,333C236.7,333,236.7,333,236.7,333z"/>
		<path fill="#FF8080" d="M251.7,351.9l3.1-1.8l3.1,1.8l-3.1,1.8L251.7,351.9z"/>
		<path fill="none" stroke="#9E7800" stroke-width="0.48" stroke-linejoin="round" stroke-miterlimit="1.92" d="M251.7,351.9l3.1-1.8l3.1,1.8l-3.1,1.8L251.7,351.9z"/>
		<path fill="#FF8080" d="M251.7,351.9l3.1-1.8l3.1,1.8l-3.1,1.8L251.7,351.9z"/>
		<path fill="#BA0028" d="M257.8,351.9l-3,1.8l-0.1,0v-1.8H257.8z"/>
		<path fill="#CF1E45" d="M254.8,351.9v1.8l-3.1-1.8H254.8z"/>
		<path fill="#FF083C" d="M254.8,350.1v1.7v0.1h3.1l-0.1,0l-2.8-1.7L254.8,350.1z"/>
		<path fill="#FF99CC" d="M235.9,351.9l1.8-1.8l0.8,1.8l-0.8,1.8L235.9,351.9z"/>
		<path fill="#FF0000" d="M235.9,351.9h2.7l-0.8,1.8L235.9,351.9z"/>
		<path fill="#CCCCCC" d="M236.7,333.5c0.1,0,0.1,0,0.2,0c0.5,0.4,0.9,1,0.9,1.7c0,0.4-0.1,0.7-0.3,1c-0.2,0.1-0.5,0.2-0.8,0.2
			c-0.8,0-1.4-0.6-1.4-1.4C235.2,334.2,235.9,333.5,236.7,333.5"/>
		<path fill="none" stroke="#9E7800" stroke-width="0.48" stroke-miterlimit="1.92" d="M236.7,333.5c0.1,0,0.1,0,0.2,0c0.5,0.4,0.9,1,0.9,1.7c0,0.4-0.1,0.7-0.3,1c-0.2,0.1-0.5,0.2-0.8,0.2
			c-0.8,0-1.4-0.6-1.4-1.4C235.2,334.2,235.9,333.5,236.7,333.5z"/>
		<path fill="#FFFFFF" d="M236,334.1c0.4,0,0.7,0.3,0.7,0.7c0,0.4-0.3,0.7-0.7,0.7s-0.7-0.3-0.7-0.7
			C235.3,334.4,235.6,334.1,236,334.1"/>
		<path fill="#806600" d="M271.9,335.4l-4.5-1.5l5,0.1l1.6-4.7l-1.2,5.9L271.9,335.4z"/>
		<path fill="#806600" d="M273.2,333L273.2,333L273.2,333c-0.1,0-0.1,0-0.2,0c-0.1,0-0.2,0-0.2,0.1l0,0l0,0c-0.1,0.1-0.2,0.1-0.2,0.2
			l0,0c-0.1,0.1-0.1,0.1-0.2,0.2l0,0c-0.3,0.4-0.6,1-0.6,1.6h0v0h0c0,0.2,0,0.4,0.1,0.7l0,0l0,0.1c0,0,0,0,0,0l0,0l0,0
			c0.1,0.2,0.1,0.3,0.2,0.4c0,0.1,0.1,0.1,0.2,0.2l0,0l0,0l0,0c0,0,0.1,0,0.1,0.1l0.1,0C272.7,335.5,273,334.3,273.2,333L273.2,333
			L273.2,333L273.2,333C273.2,333,273.2,333,273.2,333L273.2,333z"/>
		<path fill="#CCCCCC" d="M273.2,333.5c-0.1,0-0.1,0-0.2,0c-0.5,0.4-0.9,1-0.9,1.7c0,0.4,0.1,0.7,0.3,1c0.2,0.1,0.5,0.2,0.8,0.2
			c0.8,0,1.4-0.6,1.4-1.4C274.7,334.2,274,333.5,273.2,333.5"/>
		<path fill="none" stroke="#9E7800" stroke-width="0.48" stroke-miterlimit="1.92" d="M273.2,333.5c-0.1,0-0.1,0-0.2,0c-0.5,0.4-0.9,1-0.9,1.7c0,0.4,0.1,0.7,0.3,1c0.2,0.1,0.5,0.2,0.8,0.2
			c0.8,0,1.4-0.6,1.4-1.4C274.7,334.2,274,333.5,273.2,333.5z"/>
		<path fill="#FFFFFF" d="M273.5,333.8c-0.4,0-0.7,0.3-0.7,0.7c0,0.4,0.3,0.7,0.7,0.7c0.4,0,0.7-0.3,0.7-0.7
			C274.2,334.1,273.9,333.8,273.5,333.8"/>
		<path fill="#806600" d="M272.3,349.3c-0.2,0-0.4,0.1-0.5,0.2c-0.1,0.1-0.1,0.2-0.2,0.2l-0.8,1.8c-0.1,0.2-0.1,0.4,0,0.6h0l0.8,1.8
			c0.1,0.3,0.4,0.4,0.6,0.4C272.3,354.4,272.3,349.3,272.3,349.3z"/>
		<path fill="#FF083C" d="M274,351.9l-1.8-1.8l-0.8,1.8l0.8,1.8L274,351.9z"/>
		<path fill="#BA0028" d="M274,351.9h-2.7l0.8,1.8L274,351.9z"/>
		<circle fill="#CCCCCC" stroke="#9E7800" stroke-width="0.24" stroke-miterlimit="1.92" cx="254.9" cy="333.4" r="1.6"/>
		<circle fill="#FFFFFF" cx="254.7" cy="332.9" r="0.7"/>
		<circle fill="#CCCCCC" stroke="#9E7800" stroke-width="0.24" stroke-miterlimit="1.92" cx="246.9" cy="350.3" r="1.2"/>
		<circle fill="#FFFFFF" cx="246.7" cy="350" r="0.5"/>
		<circle fill="#CCCCCC" stroke="#9E7800" stroke-width="0.24" stroke-miterlimit="1.92" cx="246.9" cy="353.7" r="1.2"/>
		<circle fill="#FFFFFF" cx="246.7" cy="353.4" r="0.5"/>
		<circle fill="#CCCCCC" stroke="#9E7800" stroke-width="0.24" stroke-miterlimit="1.92" cx="263.2" cy="350.3" r="1.2"/>
		<circle fill="#FFFFFF" cx="263" cy="350" r="0.5"/>
		<circle fill="#CCCCCC" stroke="#9E7800" stroke-width="0.24" stroke-miterlimit="1.92" cx="263.2" cy="353.7" r="1.2"/>
		<circle fill="#FFFFFF" cx="263" cy="353.4" r="0.5"/>
	</g>
	<g style="clip-path:url(#SVGID_00000093862341628846334850000015325862486640328635_);">
		<g id="t3_00000041291737810724664120000008224757737620623235_">
			<path fill="#EACE24" stroke="#806600" stroke-width="0.48" stroke-miterlimit="4.8" d="M203,309h34.4v8.1H203V309z M203,307.3c-0.1-7.6-1.1-15.4-4.4-22c0.4-0.1,0.8-0.2,1.3-0.2
				c2.4,0,4.4,2,4.4,4.4c0,0.6-0.1,1.2-0.3,1.7c0.6-0.3,1.2-0.4,1.9-0.4c2.4,0,4.4,2,4.4,4.4c0,2.4-2,4.4-4.4,4.4
				c-0.3,0-0.6,0-0.9-0.1c0.3,3,1.9,5.2,3.7,5.2c1.4,0,2.6-1.3,3.3-3.3c0.6,2,1.9,3.3,3.3,3.3c2,0,3.6-2.6,3.7-5.9
				c-0.7,0.5-1.6,0.8-2.5,0.8c-2.4,0-4.4-2-4.4-4.4c0-2.4,2-4.4,4.4-4.4c-0.4-0.6-0.6-1.4-0.6-2.2c0-2.4,2-4.4,4.4-4.4
				c2.4,0,4.4,2,4.4,4.4c0,0.8-0.2,1.5-0.6,2.2c2.4,0,4.4,2,4.4,4.4c0,2.4-2,4.4-4.4,4.4c-0.9,0-1.8-0.3-2.5-0.8
				c0.2,3.3,1.8,5.9,3.7,5.9c1.4,0,2.6-1.3,3.3-3.3c0.6,2,1.9,3.3,3.3,3.3c1.8,0,3.4-2.3,3.7-5.2c-0.3,0.1-0.6,0.1-0.9,0.1
				c-2.4,0-4.4-2-4.4-4.4c0-2.4,2-4.4,4.4-4.4c0.7,0,1.3,0.1,1.9,0.4c-0.2-0.5-0.3-1.1-0.3-1.7c0-2.4,2-4.4,4.4-4.4
				c0.4,0,0.9,0.1,1.3,0.2c-3.2,6.6-4.3,14.5-4.4,22H203L203,307.3z"/>
			<path fill="#806600" d="M221.2,295.1l4.7-0.7l-4.9-0.8l-0.8-4.9l-0.8,4.9l-4.9,0.8l4.7,0.7H221.2z"/>
			<path fill="#806600" d="M202.8,310.3c0.2,0,0.4,0.1,0.5,0.2c0.1,0.1,0.1,0.2,0.2,0.2l0.8,1.8c0.1,0.2,0.1,0.4,0,0.6h0l-0.8,1.8
				c-0.1,0.3-0.4,0.4-0.6,0.4L202.8,310.3L202.8,310.3z"/>
			<path fill="#806600" d="M203.2,296.4l4.5-1.5l-5,0.1l-1.6-4.7l1.2,5.9L203.2,296.4z"/>
			<path fill="#806600" d="M201.9,294.1L201.9,294.1L201.9,294.1c0.1,0,0.1,0,0.2,0c0.1,0,0.2,0,0.2,0.1l0,0l0,0
				c0.1,0.1,0.2,0.1,0.2,0.2l0,0c0.1,0.1,0.1,0.1,0.2,0.2l0,0c0.3,0.4,0.6,1,0.6,1.6h0v0h0c0,0.2,0,0.4-0.1,0.7l0,0l0,0.1
				c0,0,0,0,0,0l0,0l0,0c-0.1,0.2-0.1,0.3-0.2,0.4c0,0.1-0.1,0.1-0.2,0.2h0l0,0l0,0l0,0c0,0-0.1,0-0.1,0.1l-0.1,0
				C202.4,296.5,202.2,295.3,201.9,294.1L201.9,294.1L201.9,294.1L201.9,294.1C201.9,294.1,201.9,294.1,201.9,294.1
				C201.9,294.1,201.9,294.1,201.9,294.1z"/>
			<path fill="#FF8080" d="M216.9,312.9l3.1-1.8l3.1,1.8l-3.1,1.8L216.9,312.9z"/>
			<path fill="none" stroke="#9E7800" stroke-width="0.48" stroke-linejoin="round" stroke-miterlimit="1.92" d="M216.9,312.9l3.1-1.8l3.1,1.8l-3.1,1.8L216.9,312.9z"/>
			<path fill="#FF8080" d="M216.9,312.9l3.1-1.8l3.1,1.8l-3.1,1.8L216.9,312.9z"/>
			<path fill="#BA0028" d="M223.1,312.9l-3,1.8l-0.1,0v-1.8H223.1z"/>
			<path fill="#CF1E45" d="M220,312.9v1.8l-3.1-1.8H220z"/>
			<path fill="#FF083C" d="M220,311.1v1.7v0.1h3.1l-0.1,0l-2.8-1.7L220,311.1z"/>
			<path fill="#FF99CC" d="M201.1,312.9l1.8-1.8l0.8,1.8l-0.8,1.8L201.1,312.9z"/>
			<path fill="#FF0000" d="M201.1,312.9h2.7l-0.8,1.8L201.1,312.9z"/>
			<path fill="#CCCCCC" d="M201.9,294.6c0.1,0,0.1,0,0.2,0c0.5,0.4,0.9,1,0.9,1.7c0,0.4-0.1,0.7-0.3,1c-0.2,0.1-0.5,0.2-0.8,0.2
				c-0.8,0-1.4-0.6-1.4-1.4C200.4,295.2,201.1,294.6,201.9,294.6"/>
			<path fill="none" stroke="#9E7800" stroke-width="0.48" stroke-miterlimit="1.92" d="M201.9,294.6c0.1,0,0.1,0,0.2,0c0.5,0.4,0.9,1,0.9,1.7c0,0.4-0.1,0.7-0.3,1c-0.2,0.1-0.5,0.2-0.8,0.2
				c-0.8,0-1.4-0.6-1.4-1.4C200.4,295.2,201.1,294.6,201.9,294.6z"/>
			<path fill="#FFFFFF" d="M201.2,295.1c0.4,0,0.7,0.3,0.7,0.7c0,0.4-0.3,0.7-0.7,0.7s-0.7-0.3-0.7-0.7
				C200.5,295.4,200.8,295.1,201.2,295.1"/>
			<path fill="#806600" d="M237.2,296.4l-4.5-1.5l5,0.1l1.6-4.7l-1.2,5.9L237.2,296.4z"/>
			<path fill="#806600" d="M238.4,294.1L238.4,294.1L238.4,294.1c-0.1,0-0.1,0-0.2,0c-0.1,0-0.2,0-0.2,0.1l0,0l0,0
				c-0.1,0.1-0.2,0.1-0.2,0.2l0,0c-0.1,0.1-0.1,0.1-0.2,0.2l0,0c-0.3,0.4-0.6,1-0.6,1.6h0v0h0c0,0.2,0,0.4,0.1,0.7l0,0l0,0.1
				c0,0,0,0,0,0l0,0l0,0c0.1,0.2,0.1,0.3,0.2,0.4c0,0.1,0.1,0.1,0.2,0.2l0,0l0,0l0,0c0,0,0.1,0,0.1,0.1l0.1,0
				C237.9,296.5,238.2,295.3,238.4,294.1L238.4,294.1L238.4,294.1L238.4,294.1C238.5,294.1,238.4,294.1,238.4,294.1L238.4,294.1z"/>
			<path fill="#CCCCCC" d="M238.5,294.6c-0.1,0-0.1,0-0.2,0c-0.5,0.4-0.9,1-0.9,1.7c0,0.4,0.1,0.7,0.3,1c0.2,0.1,0.5,0.2,0.8,0.2
				c0.8,0,1.4-0.6,1.4-1.4C239.9,295.2,239.3,294.6,238.5,294.6"/>
			<path fill="none" stroke="#9E7800" stroke-width="0.48" stroke-miterlimit="1.92" d="M238.5,294.6c-0.1,0-0.1,0-0.2,0c-0.5,0.4-0.9,1-0.9,1.7c0,0.4,0.1,0.7,0.3,1c0.2,0.1,0.5,0.2,0.8,0.2
				c0.8,0,1.4-0.6,1.4-1.4C239.9,295.2,239.3,294.6,238.5,294.6z"/>
			<path fill="#FFFFFF" d="M238.7,294.9c-0.4,0-0.7,0.3-0.7,0.7c0,0.4,0.3,0.7,0.7,0.7c0.4,0,0.7-0.3,0.7-0.7
				C239.4,295.2,239.1,294.9,238.7,294.9"/>
			<path fill="#806600" d="M237.6,310.3c-0.2,0-0.4,0.1-0.5,0.2c-0.1,0.1-0.1,0.2-0.2,0.2l-0.8,1.8c-0.1,0.2-0.1,0.4,0,0.6h0l0.8,1.8
				c0.1,0.3,0.4,0.4,0.6,0.4C237.6,315.4,237.6,310.3,237.6,310.3z"/>
			<path fill="#FF083C" d="M239.2,312.9l-1.8-1.8l-0.8,1.8l0.8,1.8L239.2,312.9z"/>
			<path fill="#BA0028" d="M239.2,312.9h-2.7l0.8,1.8L239.2,312.9z"/>
			<circle fill="#CCCCCC" stroke="#9E7800" stroke-width="0.24" stroke-miterlimit="1.92" cx="220.2" cy="294.4" r="1.6"/>
			<circle fill="#FFFFFF" cx="219.9" cy="293.9" r="0.7"/>
			<circle fill="#CCCCCC" stroke="#9E7800" stroke-width="0.24" stroke-miterlimit="1.92" cx="212.1" cy="311.3" r="1.2"/>
			<circle fill="#FFFFFF" cx="211.9" cy="311" r="0.5"/>
			<circle fill="#CCCCCC" stroke="#9E7800" stroke-width="0.24" stroke-miterlimit="1.92" cx="212.1" cy="314.8" r="1.2"/>
			<circle fill="#FFFFFF" cx="211.9" cy="314.4" r="0.5"/>
			<circle fill="#CCCCCC" stroke="#9E7800" stroke-width="0.24" stroke-miterlimit="1.92" cx="228.4" cy="311.3" r="1.2"/>
			<circle fill="#FFFFFF" cx="228.2" cy="311" r="0.5"/>
			<circle fill="#CCCCCC" stroke="#9E7800" stroke-width="0.24" stroke-miterlimit="1.92" cx="228.4" cy="314.8" r="1.2"/>
			<circle fill="#FFFFFF" cx="228.2" cy="314.4" r="0.5"/>
		</g>
	</g>
	<g style="clip-path:url(#SVGID_00000093862341628846334850000015325862486640328635_);">
		<g id="t3_00000064320705574304354540000011289301422592942981_">
			<path fill="#EACE24" stroke="#806600" stroke-width="0.48" stroke-miterlimit="4.8" d="M272.5,309h34.4v8.1h-34.4V309z M272.5,307.3c-0.1-7.6-1.1-15.4-4.4-22c0.4-0.1,0.8-0.2,1.3-0.2
				c2.4,0,4.4,2,4.4,4.4c0,0.6-0.1,1.2-0.3,1.7c0.6-0.3,1.2-0.4,1.9-0.4c2.4,0,4.4,2,4.4,4.4c0,2.4-2,4.4-4.4,4.4
				c-0.3,0-0.6,0-0.9-0.1c0.3,3,1.9,5.2,3.7,5.2c1.4,0,2.6-1.3,3.3-3.3c0.6,2,1.9,3.3,3.3,3.3c2,0,3.6-2.6,3.7-5.9
				c-0.7,0.5-1.6,0.8-2.5,0.8c-2.4,0-4.4-2-4.4-4.4c0-2.4,2-4.4,4.4-4.4c-0.4-0.6-0.6-1.4-0.6-2.2c0-2.4,2-4.4,4.4-4.4
				s4.4,2,4.4,4.4c0,0.8-0.2,1.5-0.6,2.2c2.4,0,4.4,2,4.4,4.4c0,2.4-2,4.4-4.4,4.4c-0.9,0-1.8-0.3-2.5-0.8c0.2,3.3,1.8,5.9,3.7,5.9
				c1.4,0,2.6-1.3,3.3-3.3c0.6,2,1.9,3.3,3.3,3.3c1.8,0,3.4-2.3,3.7-5.2c-0.3,0.1-0.6,0.1-0.9,0.1c-2.4,0-4.4-2-4.4-4.4
				c0-2.4,2-4.4,4.4-4.4c0.7,0,1.3,0.1,1.9,0.4c-0.2-0.5-0.3-1.1-0.3-1.7c0-2.4,2-4.4,4.4-4.4c0.4,0,0.9,0.1,1.3,0.2
				c-3.2,6.6-4.3,14.5-4.4,22H272.5L272.5,307.3z"/>
			<path fill="#806600" d="M290.7,295.1l4.7-0.7l-4.9-0.8l-0.8-4.9l-0.8,4.9l-4.9,0.8l4.7,0.7H290.7z"/>
			<path fill="#806600" d="M272.3,310.3c0.2,0,0.4,0.1,0.5,0.2c0.1,0.1,0.1,0.2,0.2,0.2l0.8,1.8c0.1,0.2,0.1,0.4,0,0.6h0L273,315
				c-0.1,0.3-0.4,0.4-0.6,0.4L272.3,310.3L272.3,310.3z"/>
			<path fill="#806600" d="M272.7,296.4l4.5-1.5l-5,0.1l-1.6-4.7l1.2,5.9L272.7,296.4z"/>
			<path fill="#806600" d="M271.5,294.1L271.5,294.1L271.5,294.1c0.1,0,0.1,0,0.2,0c0.1,0,0.2,0,0.2,0.1l0,0l0,0
				c0.1,0.1,0.2,0.1,0.2,0.2l0,0c0.1,0.1,0.1,0.1,0.2,0.2l0,0c0.3,0.4,0.6,1,0.6,1.6h0v0h0c0,0.2,0,0.4-0.1,0.7l0,0l0,0.1
				c0,0,0,0,0,0l0,0l0,0c-0.1,0.2-0.1,0.3-0.2,0.4c0,0.1-0.1,0.1-0.2,0.2h0l0,0l0,0l0,0c0,0-0.1,0-0.1,0.1l-0.1,0
				C272,296.5,271.7,295.3,271.5,294.1L271.5,294.1L271.5,294.1L271.5,294.1C271.4,294.1,271.5,294.1,271.5,294.1
				C271.5,294.1,271.5,294.1,271.5,294.1z"/>
			<path fill="#FF8080" d="M286.4,312.9l3.1-1.8l3.1,1.8l-3.1,1.8L286.4,312.9z"/>
			<path fill="none" stroke="#9E7800" stroke-width="0.48" stroke-linejoin="round" stroke-miterlimit="1.92" d="M286.4,312.9l3.1-1.8l3.1,1.8l-3.1,1.8L286.4,312.9z"/>
			<path fill="#FF8080" d="M286.4,312.9l3.1-1.8l3.1,1.8l-3.1,1.8L286.4,312.9z"/>
			<path fill="#BA0028" d="M292.6,312.9l-3,1.8l-0.1,0v-1.8H292.6z"/>
			<path fill="#CF1E45" d="M289.5,312.9v1.8l-3.1-1.8H289.5z"/>
			<path fill="#FF083C" d="M289.5,311.1v1.7v0.1h3.1l-0.1,0l-2.8-1.7L289.5,311.1z"/>
			<path fill="#FF99CC" d="M270.7,312.9l1.8-1.8l0.8,1.8l-0.8,1.8L270.7,312.9z"/>
			<path fill="#FF0000" d="M270.7,312.9h2.7l-0.8,1.8L270.7,312.9z"/>
			<path fill="#CCCCCC" d="M271.4,294.6c0.1,0,0.1,0,0.2,0c0.5,0.4,0.9,1,0.9,1.7c0,0.4-0.1,0.7-0.3,1c-0.2,0.1-0.5,0.2-0.8,0.2
				c-0.8,0-1.4-0.6-1.4-1.4C270,295.2,270.6,294.6,271.4,294.6"/>
			<path fill="none" stroke="#9E7800" stroke-width="0.48" stroke-miterlimit="1.92" d="M271.4,294.6c0.1,0,0.1,0,0.2,0c0.5,0.4,0.9,1,0.9,1.7c0,0.4-0.1,0.7-0.3,1c-0.2,0.1-0.5,0.2-0.8,0.2
				c-0.8,0-1.4-0.6-1.4-1.4C270,295.2,270.6,294.6,271.4,294.6z"/>
			<path fill="#FFFFFF" d="M270.7,295.1c0.4,0,0.7,0.3,0.7,0.7c0,0.4-0.3,0.7-0.7,0.7c-0.4,0-0.7-0.3-0.7-0.7
				C270,295.4,270.3,295.1,270.7,295.1"/>
			<path fill="#806600" d="M306.7,296.4l-4.5-1.5l5,0.1l1.6-4.7l-1.2,5.9L306.7,296.4z"/>
			<path fill="#806600" d="M308,294.1L308,294.1L308,294.1c-0.1,0-0.1,0-0.2,0c-0.1,0-0.2,0-0.2,0.1l0,0l0,0c-0.1,0.1-0.2,0.1-0.2,0.2
				l0,0c-0.1,0.1-0.1,0.1-0.2,0.2l0,0c-0.3,0.4-0.6,1-0.6,1.6h0v0h0c0,0.2,0,0.4,0.1,0.7l0,0l0,0.1c0,0,0,0,0,0l0,0l0,0
				c0.1,0.2,0.1,0.3,0.2,0.4c0,0.1,0.1,0.1,0.2,0.2l0,0l0,0l0,0c0,0,0.1,0,0.1,0.1l0.1,0C307.5,296.5,307.7,295.3,308,294.1
				L308,294.1L308,294.1L308,294.1C308,294.1,308,294.1,308,294.1L308,294.1z"/>
			<path fill="#CCCCCC" d="M308,294.6c-0.1,0-0.1,0-0.2,0c-0.5,0.4-0.9,1-0.9,1.7c0,0.4,0.1,0.7,0.3,1c0.2,0.1,0.5,0.2,0.8,0.2
				c0.8,0,1.4-0.6,1.4-1.4C309.5,295.2,308.8,294.6,308,294.6"/>
			<path fill="none" stroke="#9E7800" stroke-width="0.48" stroke-miterlimit="1.92" d="M308,294.6c-0.1,0-0.1,0-0.2,0c-0.5,0.4-0.9,1-0.9,1.7c0,0.4,0.1,0.7,0.3,1c0.2,0.1,0.5,0.2,0.8,0.2
				c0.8,0,1.4-0.6,1.4-1.4C309.5,295.2,308.8,294.6,308,294.6z"/>
			<path fill="#FFFFFF" d="M308.3,294.9c-0.4,0-0.7,0.3-0.7,0.7c0,0.4,0.3,0.7,0.7,0.7c0.4,0,0.7-0.3,0.7-0.7
				C309,295.2,308.6,294.9,308.3,294.9"/>
			<path fill="#806600" d="M307.1,310.3c-0.2,0-0.4,0.1-0.5,0.2c-0.1,0.1-0.1,0.2-0.2,0.2l-0.8,1.8c-0.1,0.2-0.1,0.4,0,0.6h0l0.8,1.8
				c0.1,0.3,0.4,0.4,0.6,0.4C307.1,315.4,307.1,310.3,307.1,310.3z"/>
			<path fill="#FF083C" d="M308.8,312.9l-1.8-1.8l-0.8,1.8l0.8,1.8L308.8,312.9z"/>
			<path fill="#BA0028" d="M308.8,312.9h-2.7l0.8,1.8L308.8,312.9z"/>
			<circle fill="#CCCCCC" stroke="#9E7800" stroke-width="0.24" stroke-miterlimit="1.92" cx="289.7" cy="294.4" r="1.6"/>
			<circle fill="#FFFFFF" cx="289.4" cy="293.9" r="0.7"/>
			<circle fill="#CCCCCC" stroke="#9E7800" stroke-width="0.24" stroke-miterlimit="1.92" cx="281.6" cy="311.3" r="1.2"/>
			<circle fill="#FFFFFF" cx="281.4" cy="311" r="0.5"/>
			<circle fill="#CCCCCC" stroke="#9E7800" stroke-width="0.24" stroke-miterlimit="1.92" cx="281.6" cy="314.8" r="1.2"/>
			<circle fill="#FFFFFF" cx="281.4" cy="314.4" r="0.5"/>
			<circle fill="#CCCCCC" stroke="#9E7800" stroke-width="0.24" stroke-miterlimit="1.92" cx="298" cy="311.3" r="1.2"/>
			<circle fill="#FFFFFF" cx="297.8" cy="311" r="0.5"/>
			<circle fill="#CCCCCC" stroke="#9E7800" stroke-width="0.24" stroke-miterlimit="1.92" cx="298" cy="314.8" r="1.2"/>
			<circle fill="#FFFFFF" cx="297.8" cy="314.4" r="0.5"/>
		</g>
	</g>
</g>
</svg>
