<svg width="24" height="24" viewBox="0 0 24 24" fill="none" xmlns="http://www.w3.org/2000/svg">
<g clip-path="url(#clip0_8615_27566)">
<path d="M24.0017 0H0.00195312V23.9998H24.0017V0Z" fill="#F5F5F5"/>
<path d="M8.62703 16.7325C7.16895 16.3997 5.86902 15.6469 4.86328 14.6067V16.8316C5.96071 17.632 7.24113 18.1929 8.62703 18.4494V16.7325Z" fill="#FFECD7"/>
<path d="M15.3682 16.7325C16.8262 16.3997 18.1262 15.6469 19.1319 14.6067V16.8316C18.0345 17.632 16.7541 18.1929 15.3682 18.4494V16.7325Z" fill="#FFECD7"/>
<path d="M7.98521 11.9102C7.91499 11.9242 7.81669 12.1067 7.78861 12.4157C7.76054 12.7247 7.5639 14.0308 7.14259 13.8903C6.72128 13.7499 6.44041 13.1319 6.44041 13.1319L5.85059 13.9886C5.85059 13.9886 6.24382 13.8341 6.65106 14.0167C7.05836 14.1993 7.15665 14.2976 7.26901 14.1852C7.38137 14.0729 7.64818 13.7358 7.85883 13.7639L8.09756 12.0646L7.98521 11.9102Z" fill="#FFE15A"/>
<path d="M5.65334 14.7049C5.65334 14.7049 5.55504 15.5194 5.6112 15.6177C5.66736 15.716 7.2122 16.0812 7.2122 16.0812C7.2122 16.0812 6.76281 16.4463 6.74875 16.6429C6.74875 16.6429 6.20102 16.7412 6.00443 16.9097L5.27417 15.7019L5.24609 14.7048L5.65334 14.7049Z" fill="#FFE15A"/>
<path d="M5.16424 7.2968L5.17479 6.87549C5.17479 6.87549 4.67974 6.82281 4.61656 7.93931L4.4375 7.44427C4.4375 7.44427 4.06883 7.93931 4.29003 8.73979L4.19525 8.81352C4.19525 8.81352 3.71075 8.17101 3.41582 7.33894C3.41582 7.33894 2.92078 7.72866 3.5001 8.83462L2.78386 7.92881C2.78386 7.92881 2.42573 8.6872 3.5001 9.593L2.48897 8.87676C2.48897 8.87676 2.42578 9.69833 3.40532 10.225L2.42578 9.69833C2.42578 9.69833 2.45737 10.4883 3.59493 10.878L2.52056 10.6779C2.52056 10.6779 2.79262 11.3237 3.58705 11.498C3.42022 11.6843 3.26615 11.9345 3.22626 12.2578L4.02673 11.8154C4.02673 11.8154 3.64757 12.2051 3.75289 12.7423L4.98522 11.51L4.8168 11.4347C5.74914 11.2599 5.554 11.194 5.554 11.194C5.554 11.194 4.86584 9.42449 5.32928 8.20265C5.79273 6.98082 6.20003 6.81231 6.20003 6.75611C6.19993 6.69995 5.70137 6.63325 5.16424 7.2968Z" fill="#FFECD7"/>
<path d="M6.11574 8.00598C6.11574 8.00598 7.71674 9.69122 7.74481 9.84571C7.77289 10.0002 7.5763 9.97209 7.5763 9.97209C7.5763 9.97209 7.18307 9.4665 6.6494 9.26991C6.11574 9.07331 5.76465 8.45537 5.55399 8.31493C5.34329 8.17449 6.11574 8.00598 6.11574 8.00598Z" fill="#FFE15A"/>
<path d="M5.58132 8.41319C5.79197 8.48341 6.26948 8.38511 6.25542 7.94974C6.24136 7.51437 5.80604 7.34586 5.48302 7.44415C5.16001 7.54245 4.55613 7.99188 4.93529 8.86258C5.31446 9.73327 5.87621 10.0563 5.98856 10.8006C5.98856 10.8006 5.48298 10.8779 5.21617 10.8147C4.98686 10.7603 4.59822 10.5759 4.6825 10.0703C4.76678 9.56476 4.96337 9.26987 4.79486 8.989C4.62634 8.70812 4.09268 8.2166 4.09268 8.2166C4.09268 8.2166 2.94111 11.1658 5.01957 11.9382C5.01957 11.9382 4.03652 12.8791 3.54499 13.792L3.83993 13.8763C3.83993 13.8763 3.32033 14.438 3.02539 14.6487C3.02539 14.6487 3.99443 14.9857 4.9494 13.8903C4.9494 13.8903 5.18814 14.2835 5.24434 14.7048H5.65163C5.65163 14.7048 5.79207 14.0307 6.43809 13.469C7.08412 12.9072 7.73975 12.1062 7.67394 11.3765C7.59669 10.5198 6.95156 10.1344 6.28008 9.60343C5.37418 8.88718 5.58132 8.41319 5.58132 8.41319Z" fill="#FFF5E1"/>
<path d="M16.0206 11.9102C16.0908 11.9242 16.1891 12.1067 16.2172 12.4157C16.2452 12.7247 16.4419 14.0308 16.8632 13.8903C17.2845 13.7499 17.5654 13.1319 17.5654 13.1319L18.1552 13.9886C18.1552 13.9886 17.762 13.8341 17.3547 14.0167C16.9475 14.1993 16.8491 14.2976 16.7368 14.1852C16.6244 14.0729 16.3576 13.7358 16.1469 13.7639L15.9082 12.0646L16.0206 11.9102Z" fill="#FFE15A"/>
<path d="M18.3518 14.7049C18.3518 14.7049 18.4501 15.5194 18.394 15.6177C18.3378 15.716 16.793 16.0812 16.793 16.0812C16.793 16.0812 17.2424 16.4463 17.2564 16.6429C17.2564 16.6429 17.8041 16.7412 18.0007 16.9097L18.731 15.7019L18.7591 14.7048L18.3518 14.7049Z" fill="#FFE15A"/>
<path d="M18.8395 7.2968L18.829 6.87549C18.829 6.87549 19.324 6.82281 19.3872 7.93931L19.5662 7.44427C19.5662 7.44427 19.9349 7.93931 19.7137 8.73979L19.8085 8.81352C19.8085 8.81352 20.293 8.17101 20.5879 7.33894C20.5879 7.33894 21.083 7.72866 20.5036 8.83462L21.2199 7.92881C21.2199 7.92881 21.578 8.6872 20.5036 9.593L21.5148 8.87676C21.5148 8.87676 21.578 9.69833 20.5984 10.225L21.578 9.69833C21.578 9.69833 21.5464 10.4883 20.4088 10.878L21.4832 10.6779C21.4832 10.6779 21.2111 11.3237 20.4167 11.498C20.5835 11.6843 20.7376 11.9345 20.7775 12.2578L19.977 11.8154C19.977 11.8154 20.3562 12.2051 20.2508 12.7423L19.0185 11.51L19.1869 11.4347C18.2546 11.2599 18.4497 11.194 18.4497 11.194C18.4497 11.194 19.1379 9.42449 18.6745 8.20265C18.211 6.98082 17.8037 6.81231 17.8037 6.75611C17.8038 6.69995 18.3024 6.63325 18.8395 7.2968Z" fill="#FFECD7"/>
<path d="M17.8877 8.00598C17.8877 8.00598 16.2867 9.69122 16.2586 9.84571C16.2305 10.0002 16.4271 9.97209 16.4271 9.97209C16.4271 9.97209 16.8203 9.4665 17.354 9.26991C17.8877 9.07331 18.2388 8.45537 18.4494 8.31493C18.6601 8.17449 17.8877 8.00598 17.8877 8.00598Z" fill="#FFE15A"/>
<path d="M18.4214 8.41319C18.2108 8.48341 17.7332 8.38511 17.7473 7.94974C17.7614 7.51437 18.1967 7.34586 18.5197 7.44415C18.8427 7.54245 19.4466 7.99188 19.0674 8.86258C18.6883 9.73327 18.1265 10.0563 18.0142 10.8006C18.0142 10.8006 18.5198 10.8779 18.7866 10.8147C19.0159 10.7603 19.4045 10.5759 19.3202 10.0703C19.236 9.56476 19.0394 9.26987 19.2079 8.989C19.3764 8.70812 19.9101 8.2166 19.9101 8.2166C19.9101 8.2166 21.0616 11.1658 18.9832 11.9382C18.9832 11.9382 19.9662 12.8791 20.4577 13.792L20.1628 13.8763C20.1628 13.8763 20.6824 14.438 20.9773 14.6487C20.9773 14.6487 20.0083 14.9857 19.0533 13.8903C19.0533 13.8903 18.8146 14.2835 18.7584 14.7048H18.3511C18.3511 14.7048 18.2107 14.0307 17.5646 13.469C16.9186 12.9072 16.263 12.1062 16.3288 11.3765C16.406 10.5198 17.0512 10.1344 17.7227 9.60343C18.6286 8.88718 18.4214 8.41319 18.4214 8.41319Z" fill="#FFF5E1"/>
<path d="M16.0442 5.56213H7.95508V7.19121H16.0442V5.56213Z" fill="#464655"/>
<path d="M11.9997 6.85437H7.95508C7.95508 6.85437 7.95508 11.236 7.95508 12.2472C7.95508 13.2583 8.62918 15.9547 11.9997 16.9659C15.3702 15.9548 16.0443 13.2584 16.0443 12.2472C16.0443 11.2361 16.0443 6.85437 16.0443 6.85437H11.9997Z" fill="#41479B"/>
<path d="M7.95508 12.2472C7.95508 12.4977 7.99694 12.8521 8.11047 13.2583H15.8889C16.0025 12.8521 16.0443 12.4977 16.0443 12.2472V10.2249H7.95508V12.2472Z" fill="#FF4B55"/>
<path d="M12.0002 11.7415L11.5283 12.9211L12.0002 12.6852L12.472 12.9211L12.0002 11.7415Z" fill="#F5F5F5"/>
<path d="M12.0002 11.7415L12.472 10.5618L12.0002 10.7977L11.5283 10.5618L12.0002 11.7415Z" fill="#F5F5F5"/>
<path d="M12 11.7415L10.8203 11.2697L11.0562 11.7415L10.8203 12.2134L12 11.7415Z" fill="#F5F5F5"/>
<path d="M12 11.7415L13.1796 12.2134L12.9437 11.7415L13.1796 11.2697L12 11.7415Z" fill="#F5F5F5"/>
<path d="M12.5296 8.04595C12.4509 8.05856 12.3817 8.06863 12.3192 8.10149C12.3902 7.92407 12.4402 7.75767 12.3962 7.64109C12.2885 7.35605 12.0815 7.40705 12.0017 7.19921V7.19128C12.0011 7.19283 12.0003 7.19368 11.9997 7.19527C11.9991 7.19372 11.9983 7.19288 11.9977 7.19128V7.19921C11.918 7.40705 11.711 7.35605 11.6032 7.64109C11.5592 7.75767 11.6092 7.92403 11.6802 8.10149C11.6177 8.06868 11.5485 8.05856 11.4698 8.04595C11.3092 8.02026 11.0649 8.18732 11.1164 8.50865C11.1678 8.82997 11.5405 8.85566 11.5405 8.85566C11.4891 8.80424 11.4441 8.72071 11.4698 8.63075C11.4955 8.5408 11.6819 8.46369 11.7783 8.76571C11.8747 9.06772 11.5469 9.49831 11.5469 9.49831C11.6591 9.4924 11.7411 9.45743 11.8002 9.422C11.7224 9.67564 11.9769 9.87195 11.9977 9.88732V9.89032L11.9997 9.88882C11.9999 9.88896 12.0017 9.89032 12.0017 9.89032V9.88732C12.0225 9.87195 12.277 9.67564 12.1992 9.42209C12.2584 9.45753 12.3403 9.49245 12.4525 9.49836C12.4525 9.49836 12.1247 9.06781 12.2211 8.76575C12.3175 8.46374 12.5039 8.54085 12.5296 8.6308C12.5553 8.72075 12.5104 8.80433 12.4589 8.85571C12.4589 8.85571 12.8317 8.83002 12.8831 8.50869C12.9344 8.18732 12.6902 8.02021 12.5296 8.04595Z" fill="#FFE15A"/>
<path d="M15.01 8.04595C14.9313 8.05856 14.8622 8.06863 14.7997 8.10149C14.8706 7.92407 14.9207 7.75767 14.8766 7.64109C14.769 7.35605 14.5619 7.40705 14.4821 7.19921V7.19128C14.4816 7.19283 14.4807 7.19368 14.4802 7.19527C14.4796 7.19372 14.4787 7.19288 14.4782 7.19128V7.19921C14.3985 7.40705 14.1914 7.35605 14.0837 7.64109C14.0396 7.75767 14.0897 7.92403 14.1607 8.10149C14.0982 8.06868 14.029 8.05856 13.9503 8.04595C13.7896 8.02026 13.5454 8.18732 13.5968 8.50865C13.6482 8.82997 14.0209 8.85566 14.0209 8.85566C13.9695 8.80424 13.9246 8.72071 13.9503 8.63075C13.9759 8.5408 14.1623 8.46369 14.2587 8.76571C14.3552 9.06772 14.0274 9.49831 14.0274 9.49831C14.1396 9.4924 14.2215 9.45743 14.2807 9.422C14.2029 9.67564 14.4574 9.87195 14.4783 9.88732V9.89032L14.4802 9.88882C14.4805 9.88896 14.4822 9.89032 14.4822 9.89032V9.88732C14.503 9.87195 14.7575 9.67564 14.6797 9.42209C14.7389 9.45753 14.8208 9.49245 14.933 9.49836C14.933 9.49836 14.6052 9.06781 14.7017 8.76575C14.7981 8.46369 14.9844 8.54085 15.0101 8.6308C15.0358 8.72075 14.9909 8.80433 14.9395 8.85571C14.9395 8.85571 15.3122 8.83002 15.3636 8.50869C15.4149 8.18732 15.1707 8.02021 15.01 8.04595Z" fill="#FFE15A"/>
<path d="M10.0491 8.04595C9.97041 8.05856 9.90122 8.06863 9.83873 8.10149C9.9097 7.92407 9.95976 7.75767 9.9157 7.64109C9.80803 7.35605 9.60099 7.40705 9.52121 7.19921V7.19128C9.52064 7.19283 9.5198 7.19368 9.51924 7.19527C9.51868 7.19372 9.51778 7.19288 9.51727 7.19128V7.19921C9.43754 7.40705 9.23049 7.35605 9.12277 7.64109C9.07871 7.75767 9.12877 7.92403 9.19974 8.10149C9.13726 8.06868 9.06802 8.05856 8.98932 8.04595C8.82868 8.02026 8.58447 8.18732 8.63589 8.50865C8.68731 8.82997 9.06001 8.85566 9.06001 8.85566C9.00859 8.80424 8.96363 8.72071 8.98932 8.63075C9.01501 8.5408 9.20138 8.46369 9.2978 8.76571C9.39422 9.06772 9.06648 9.49831 9.06648 9.49831C9.17865 9.4924 9.26058 9.45743 9.31974 9.422C9.24193 9.67564 9.49646 9.87195 9.51727 9.88732V9.89032L9.51924 9.88882C9.51947 9.88896 9.52121 9.89032 9.52121 9.89032V9.88732C9.54202 9.87195 9.7965 9.67564 9.71874 9.42209C9.77789 9.45753 9.85983 9.49245 9.972 9.49836C9.972 9.49836 9.64425 9.06781 9.74067 8.76575C9.83709 8.46369 10.0234 8.54085 10.0492 8.6308C10.0748 8.72075 10.0299 8.80433 9.97847 8.85571C9.97847 8.85571 10.3512 8.83002 10.4026 8.50869C10.454 8.18737 10.2097 8.02021 10.0491 8.04595Z" fill="#FFE15A"/>
<path d="M12.7911 14.9906C12.7911 14.9906 12.6109 14.9623 12.5965 15.1438C12.5965 15.1438 12.5965 15.1647 12.5956 15.1934C12.5734 15.1829 12.5491 15.176 12.5228 15.176C12.4276 15.176 12.3504 15.2532 12.3504 15.3485C12.3504 15.4437 12.4276 15.5209 12.5228 15.5209C12.5304 15.5209 12.5368 15.5176 12.5442 15.5166C12.5185 15.5988 12.4777 15.6737 12.4204 15.7278H12.1902C12.1296 15.6607 12.1113 15.5295 12.1073 15.4345C12.111 15.4347 12.1138 15.4373 12.1177 15.4373C12.1958 15.4373 12.2592 15.3739 12.2592 15.2958C12.2592 15.2186 12.1972 15.1563 12.1204 15.1548C12.1326 15.1339 12.1416 15.1109 12.1416 15.0849C12.1416 15.0067 12.0782 14.9434 12 14.9434C11.9219 14.9434 11.8585 15.0067 11.8585 15.0849C11.8585 15.1108 11.8674 15.1339 11.8797 15.1548C11.8028 15.1564 11.7409 15.2186 11.7409 15.2958C11.7409 15.3739 11.8043 15.4373 11.8824 15.4373C11.8862 15.4373 11.889 15.4347 11.8927 15.4345C11.8889 15.5295 11.8704 15.6607 11.8099 15.7278H11.5797C11.5224 15.6737 11.4816 15.5988 11.4559 15.5166C11.4632 15.5176 11.4697 15.5209 11.4772 15.5209C11.5725 15.5209 11.6497 15.4437 11.6497 15.3485C11.6497 15.2532 11.5725 15.176 11.4772 15.176C11.451 15.176 11.4267 15.1829 11.4045 15.1934C11.4036 15.1646 11.4036 15.1438 11.4036 15.1438C11.3892 14.9623 11.209 14.9906 11.209 14.9906C11.321 15.3326 11.2915 15.7278 11.2915 15.7278V16.0754H12.7066V15.7285L12.7086 15.7278C12.7086 15.7278 12.6791 15.3326 12.7911 14.9906Z" fill="#FFE15A"/>
<path d="M11.1368 13.6424C11.1368 13.6424 10.9566 13.6141 10.9422 13.7957C10.9422 13.7957 10.9422 13.8165 10.9413 13.8453C10.9191 13.8347 10.8948 13.8279 10.8685 13.8279C10.7733 13.8279 10.6961 13.9051 10.6961 14.0004C10.6961 14.0956 10.7733 14.1728 10.8685 14.1728C10.8761 14.1728 10.8825 14.1694 10.8899 14.1685C10.8642 14.2507 10.8234 14.3255 10.7661 14.3796H10.5359C10.4754 14.3125 10.457 14.1814 10.453 14.0863C10.4567 14.0866 10.4596 14.0891 10.4634 14.0891C10.5415 14.0891 10.6049 14.0258 10.6049 13.9476C10.6049 13.8705 10.5429 13.8082 10.4661 13.8067C10.4784 13.7857 10.4873 13.7627 10.4873 13.7367C10.4873 13.6586 10.4239 13.5952 10.3457 13.5952C10.2676 13.5952 10.2042 13.6586 10.2042 13.7367C10.2042 13.7627 10.2131 13.7857 10.2254 13.8067C10.1485 13.8082 10.0866 13.8705 10.0866 13.9476C10.0866 14.0258 10.15 14.0891 10.2281 14.0891C10.2319 14.0891 10.2347 14.0866 10.2384 14.0863C10.2346 14.1814 10.2161 14.3126 10.1556 14.3796H9.92537C9.86809 14.3256 9.82726 14.2507 9.80162 14.1685C9.80893 14.1694 9.8154 14.1728 9.82295 14.1728C9.9182 14.1728 9.9954 14.0956 9.9954 14.0004C9.9954 13.9051 9.9182 13.8279 9.82295 13.8279C9.7967 13.8279 9.77242 13.8348 9.75015 13.8453C9.74926 13.8165 9.74926 13.7957 9.74926 13.7957C9.73492 13.6141 9.55469 13.6424 9.55469 13.6424C9.66672 13.9844 9.63723 14.3796 9.63723 14.3796V14.7273H11.0523V14.3804L11.0543 14.3796C11.0543 14.3796 11.0248 13.9844 11.1368 13.6424Z" fill="#FFE15A"/>
<path d="M14.4444 13.6424C14.4444 13.6424 14.2642 13.6141 14.2498 13.7957C14.2498 13.7957 14.2498 13.8165 14.2489 13.8453C14.2267 13.8347 14.2024 13.8279 14.1762 13.8279C14.0809 13.8279 14.0037 13.9051 14.0037 14.0004C14.0037 14.0956 14.0809 14.1728 14.1762 14.1728C14.1837 14.1728 14.1902 14.1694 14.1975 14.1685C14.1718 14.2507 14.131 14.3255 14.0737 14.3796H13.8435C13.783 14.3125 13.7646 14.1814 13.7607 14.0863C13.7644 14.0866 13.7672 14.0891 13.771 14.0891C13.8492 14.0891 13.9125 14.0258 13.9125 13.9476C13.9125 13.8705 13.8506 13.8082 13.7737 13.8067C13.786 13.7857 13.7949 13.7627 13.7949 13.7367C13.7949 13.6586 13.7315 13.5952 13.6534 13.5952C13.5752 13.5952 13.5118 13.6586 13.5118 13.7367C13.5118 13.7627 13.5208 13.7857 13.533 13.8067C13.4562 13.8082 13.3942 13.8705 13.3942 13.9476C13.3942 14.0258 13.4576 14.0891 13.5358 14.0891C13.5395 14.0891 13.5424 14.0866 13.5461 14.0863C13.5422 14.1814 13.5238 14.3126 13.4632 14.3796H13.233C13.1757 14.3256 13.1349 14.2507 13.1092 14.1685C13.1166 14.1694 13.123 14.1728 13.1306 14.1728C13.2258 14.1728 13.303 14.0956 13.303 14.0004C13.303 13.9051 13.2258 13.8279 13.1306 13.8279C13.1043 13.8279 13.08 13.8348 13.0578 13.8453C13.0569 13.8165 13.0569 13.7957 13.0569 13.7957C13.0425 13.6141 12.8623 13.6424 12.8623 13.6424C12.9743 13.9844 12.9449 14.3796 12.9449 14.3796V14.7273H14.3599V14.3804L14.3619 14.3796C14.3619 14.3796 14.3323 13.9844 14.4444 13.6424Z" fill="#FFE15A"/>
<path d="M17.2344 4.78754C17.0404 4.71053 16.8451 4.63797 16.6487 4.56981C16.5938 4.72909 16.5389 4.88832 16.4839 5.04756C16.3892 5.01474 16.2942 4.98282 16.199 4.95212C16.2505 4.79167 16.3019 4.63126 16.3533 4.47081C16.1558 4.40706 15.9573 4.34781 15.7579 4.29306C15.7135 4.45558 15.6691 4.61809 15.6247 4.78065C15.5285 4.75422 15.4321 4.7289 15.3355 4.70458C15.3764 4.54108 15.4172 4.37763 15.4581 4.21417C15.2578 4.16383 15.0567 4.11789 14.8549 4.07636C14.7874 4.4065 14.7199 4.73673 14.6525 5.06692C14.7774 5.09265 14.9022 5.12012 15.0266 5.14951C15.0009 5.25887 14.9752 5.36823 14.9496 5.47763C14.2222 5.30588 13.4836 5.19859 12.7421 5.1557C12.7486 5.04353 12.755 4.9314 12.7614 4.81918C12.8882 4.8265 13.015 4.83573 13.1416 4.8467C13.1706 4.51098 13.1997 4.17513 13.2287 3.83932C13.0243 3.82155 12.8196 3.80819 12.6148 3.79934C12.6076 3.96771 12.6003 4.13603 12.593 4.30441C12.4943 4.30014 12.3954 4.29691 12.2966 4.2948C12.3002 4.12633 12.3039 3.95777 12.3075 3.78935C12.1026 3.7849 11.8975 3.7849 11.6926 3.78935C11.6962 3.95777 11.6998 4.12633 11.7035 4.2948C11.6046 4.29696 11.5058 4.30014 11.407 4.30441C11.3998 4.13603 11.3925 3.96771 11.3853 3.79934C11.1804 3.80819 10.9757 3.82151 10.7713 3.83932C10.8004 4.17508 10.8294 4.51089 10.8584 4.8467C10.985 4.83573 11.1117 4.8265 11.2386 4.81918C11.245 4.9314 11.2515 5.04353 11.2579 5.1557C10.5164 5.19859 9.77778 5.30593 9.05043 5.47763C9.02474 5.36827 8.9991 5.25891 8.97346 5.14951C9.09787 5.12007 9.22255 5.0926 9.34757 5.06692C9.28012 4.73673 9.21262 4.4065 9.14516 4.07636C8.94337 4.11785 8.74228 4.16374 8.54194 4.21417C8.58281 4.37763 8.62364 4.54112 8.66451 4.70458C8.5679 4.7289 8.47153 4.75422 8.37534 4.78065C8.33095 4.61809 8.28656 4.45558 8.24213 4.29306C8.04268 4.34791 7.84416 4.40716 7.64673 4.47081C7.69815 4.63126 7.74962 4.79167 7.80104 4.95212C7.70579 4.98287 7.61082 5.0147 7.51609 5.04756C7.46115 4.88828 7.40621 4.72904 7.35128 4.56981C7.15487 4.63797 6.95964 4.71058 6.76562 4.78754C6.88933 5.1009 7.01303 5.41435 7.13673 5.72766C7.25692 5.67999 7.37757 5.63405 7.49874 5.59004C7.65141 6.01256 7.80408 6.43495 7.95671 6.85752C8.28324 6.73879 8.61365 6.63492 8.94703 6.546C9.05817 6.51637 9.16959 6.48825 9.28133 6.4619C9.95173 6.30365 10.6326 6.20465 11.316 6.16519C11.7716 6.1388 12.2284 6.13889 12.6841 6.16519C13.3675 6.2047 14.0483 6.30365 14.7187 6.4619C14.8305 6.48834 14.9419 6.51628 15.053 6.546C15.3864 6.63501 15.7168 6.73888 16.0434 6.85752C16.196 6.43495 16.3487 6.01256 16.5013 5.59004C16.6225 5.63405 16.7432 5.67999 16.8633 5.72766C16.987 5.4143 17.1107 5.1009 17.2344 4.78754Z" fill="#FFE15A"/>
<path d="M11.9998 20.842C14.0104 20.842 15.872 20.1963 17.3926 19.1045V16.8985C16.0168 18.2916 14.1077 19.1567 11.9998 19.1567C9.86261 19.1567 7.93053 18.2667 6.55078 16.8396V19.0645C8.08142 20.1809 9.96437 20.842 11.9998 20.842Z" fill="#FFE1CD"/>
</g>
<defs>
<clipPath id="clip0_8615_27566">
<path d="M0 2C0 0.895432 0.895431 0 2 0H21.9998C23.1043 0 23.9998 0.895431 23.9998 2V21.9998C23.9998 23.1043 23.1043 23.9998 21.9998 23.9998H2C0.895432 23.9998 0 23.1043 0 21.9998V2Z" fill="white"/>
</clipPath>
</defs>
</svg>
