<svg width="24" height="24" viewBox="0 0 24 24" fill="none" xmlns="http://www.w3.org/2000/svg">
<g clip-path="url(#clip0_8615_27679)">
<path d="M18.621 0H5.37988V23.9998H18.621V0Z" fill="#FFE15A"/>
<path d="M24.0004 0H18.6211V23.9998H24.0004V0Z" fill="#73AF00"/>
<path d="M5.3803 0H0.000976562V23.9998H5.3803V0Z" fill="#4173CD"/>
<path d="M8.63672 11.5942L10.14 14.6008L11.6433 11.5942L10.14 8.58765L8.63672 11.5942Z" fill="#73AF00"/>
<path d="M12.3623 11.5942L13.8656 14.6008L15.3689 11.5942L13.8656 8.58765L12.3623 11.5942Z" fill="#73AF00"/>
<path d="M10.5 15.2089L12.0033 18.2154L13.5066 15.2089L12.0033 12.2023L10.5 15.2089Z" fill="#73AF00"/>
</g>
<defs>
<clipPath id="clip0_8615_27679">
<path d="M0 2C0 0.895432 0.895431 0 2 0H21.9998C23.1043 0 23.9998 0.895431 23.9998 2V21.9998C23.9998 23.1043 23.1043 23.9998 21.9998 23.9998H2C0.895432 23.9998 0 23.1043 0 21.9998V2Z" fill="white"/>
</clipPath>
</defs>
</svg>
