<?xml version="1.0" encoding="utf-8"?>
<!-- Generator: Adobe Illustrator 28.1.0, SVG Export Plug-In . SVG Version: 6.00 Build 0)  -->
<svg version="1.1" id="Layer_1" xmlns="http://www.w3.org/2000/svg" xmlns:xlink="http://www.w3.org/1999/xlink" x="0px" y="0px"
	 viewBox="0 0 512 512" style="enable-background:new 0 0 512 512;" xml:space="preserve">
<g>
	<defs>
		<path id="SVGID_1_" d="M512,400V112C512,50.1,461.9,0,400,0H112C50.2,0,0,50.1,0,112v288c0,61.8,50.2,112,112,112h288
			C461.9,512,512,461.9,512,400z"/>
	</defs>
	<clipPath id="SVGID_00000175312233591889824500000011611241128544443271_">
		<use xlink:href="#SVGID_1_"  style="overflow:visible;"/>
	</clipPath>
	<g style="clip-path:url(#SVGID_00000175312233591889824500000011611241128544443271_);">
		<path fill="#FCD022" d="M-53.9-53.7h619.9v619.4H-53.9V-53.7z"/>
		<path fill="#002674" d="M-53.9-53.7h155v619.4h-155V-53.7z"/>
		<path fill="#007C2E" d="M411-40.6h155v593.2H411V-40.6z M209.5,183.6l38.7,67.1l-38.7,67.1l-38.7-67.1L209.5,183.6z M302.5,183.6
			l38.7,67.1l-38.7,67.1l-38.7-67.1L302.5,183.6z M256,264.1l38.7,67.1L256,398.3l-38.7-67.1L256,264.1z"/>
	</g>
</g>
</svg>
