<svg width="24" height="24" viewBox="0 0 24 24" fill="none" xmlns="http://www.w3.org/2000/svg">
<g clip-path="url(#clip0_8615_27692)">
<path d="M24.0007 0H0.000976562V8.00008H24.0007V0Z" fill="#FF4B55"/>
<path d="M24.0007 15.9998H0.000976562V23.9998H24.0007V15.9998Z" fill="#464655"/>
<path d="M24.0007 8.00012H0.000976562V16.0002H24.0007V8.00012Z" fill="#F5F5F5"/>
<path d="M0.000976562 23.9998L11.4536 12.3272C11.6173 12.1599 11.6173 11.8399 11.4536 11.6726L0.000976562 0V23.9998Z" fill="#73AF00"/>
</g>
<defs>
<clipPath id="clip0_8615_27692">
<path d="M0 2C0 0.895432 0.895431 0 2 0H21.9998C23.1043 0 23.9998 0.895431 23.9998 2V21.9998C23.9998 23.1043 23.1043 23.9998 21.9998 23.9998H2C0.895432 23.9998 0 23.1043 0 21.9998V2Z" fill="white"/>
</clipPath>
</defs>
</svg>
