<svg width="24" height="24" viewBox="0 0 24 24" fill="none" xmlns="http://www.w3.org/2000/svg">
<g clip-path="url(#clip0_8615_27531)">
<path d="M24.0007 0H0.000976562V23.9998H24.0007V0Z" fill="#73AF00"/>
<path d="M24.0017 4.42114H0.00195312V6.94745H24.0017V4.42114Z" fill="#F5F5F5"/>
<path d="M24.0017 17.0525H0.00195312V19.5788H24.0017V17.0525Z" fill="#F5F5F5"/>
<path d="M24.0007 6.94739H0.000976562V17.0526H24.0007V6.94739Z" fill="#C8414B"/>
<path d="M11.8428 8.10886L10.9231 10.8663L8.01643 10.8888C7.85706 10.8901 7.79101 11.0935 7.91921 11.1881L10.2575 12.9148L9.38072 15.6862C9.33267 15.8381 9.50564 15.9638 9.63529 15.8711L12.0001 14.1808L14.3649 15.8711C14.4946 15.9638 14.6676 15.8381 14.6195 15.6862L13.7427 12.9148L16.081 11.1881C16.2092 11.0934 16.1431 10.8901 15.9838 10.8888L13.0771 10.8663L12.1575 8.10886C12.107 7.95769 11.8931 7.95769 11.8428 8.10886Z" fill="#FFE15A"/>
</g>
<defs>
<clipPath id="clip0_8615_27531">
<path d="M0 2C0 0.895432 0.895431 0 2 0H21.9998C23.1043 0 23.9998 0.895431 23.9998 2V21.9998C23.9998 23.1043 23.1043 23.9998 21.9998 23.9998H2C0.895432 23.9998 0 23.1043 0 21.9998V2Z" fill="white"/>
</clipPath>
</defs>
</svg>
