<?xml version="1.0" encoding="utf-8"?>
<!-- Generator: Adobe Illustrator 28.1.0, SVG Export Plug-In . SVG Version: 6.00 Build 0)  -->
<svg version="1.1" id="Layer_1" xmlns="http://www.w3.org/2000/svg" xmlns:xlink="http://www.w3.org/1999/xlink" x="0px" y="0px"
	 viewBox="0 0 512 512" style="enable-background:new 0 0 512 512;" xml:space="preserve">
<g>
	<defs>
		<path id="SVGID_1_" d="M512,400V112C512,50.1,461.9,0,400,0H112C50.2,0,0,50.1,0,112v288c0,61.8,50.2,112,112,112h288
			C461.9,512,512,461.9,512,400z"/>
	</defs>
	<clipPath id="SVGID_00000007430535274047420080000003292556943218938501_">
		<use xlink:href="#SVGID_1_"  style="overflow:visible;"/>
	</clipPath>
	<path style="clip-path:url(#SVGID_00000007430535274047420080000003292556943218938501_);fill:#EF2B2D;" d="M-16.2-16.2h544.3
		v544.3H-16.2V-16.2z"/>
	<path style="clip-path:url(#SVGID_00000007430535274047420080000003292556943218938501_);fill:#FFFFFF;" d="M119.9-16.2H256v544.3
		H119.9V-16.2z"/>
	<path style="clip-path:url(#SVGID_00000007430535274047420080000003292556943218938501_);fill:#FFFFFF;" d="M-16.2,188h544.3V324
		H-16.2V188z"/>
	<path style="clip-path:url(#SVGID_00000007430535274047420080000003292556943218938501_);fill:#002868;" d="M153.9-16.2h68v544.3
		h-68V-16.2z"/>
	<path style="clip-path:url(#SVGID_00000007430535274047420080000003292556943218938501_);fill:#002868;" d="M-16.2,222h544.3v68
		H-16.2V222z"/>
</g>
</svg>
