<svg width="24" height="24" viewBox="0 0 24 24" fill="none" xmlns="http://www.w3.org/2000/svg">
<g clip-path="url(#clip0_8615_27581)">
<path d="M23.9998 19.5786H0V23.9998H23.9998V19.5786Z" fill="#4173CD"/>
<path d="M23.9998 0H0V4.42121H23.9998V0Z" fill="#4173CD"/>
<path d="M23.9998 4.42126H0V19.5791H23.9998V4.42126Z" fill="#FF4B55"/>
<path d="M23.9998 3.78955H0V5.05268H23.9998V3.78955Z" fill="#FFE15A"/>
<path d="M23.9998 18.9474H0V20.2105H23.9998V18.9474Z" fill="#FFE15A"/>
<path d="M21.2053 12.4123H2.76992C2.65859 12.4123 2.56836 12.3221 2.56836 12.2108V12.0906C2.56836 11.9793 2.65859 11.889 2.76992 11.889H21.2053C21.3166 11.889 21.4068 11.9793 21.4068 12.0906V12.2108C21.4068 12.3221 21.3165 12.4123 21.2053 12.4123Z" fill="#FFE15A"/>
<path d="M17.6123 11.3656L18.5281 10.9731L19.4438 11.3656L18.5281 11.7581L17.6123 11.3656Z" fill="#F5F5F5"/>
<path d="M17.8379 11.1984H4.39958C4.30723 11.1984 4.23242 11.2732 4.23242 11.3655C4.23242 11.4578 4.30728 11.5327 4.39958 11.5327H17.8379C17.9303 11.5327 18.0051 11.4578 18.0051 11.3655C18.0051 11.2732 17.9302 11.1984 17.8379 11.1984Z" fill="#FFE15A"/>
<path d="M18.5645 10.4499L19.4802 10.0574L20.396 10.4499L19.4802 10.8423L18.5645 10.4499Z" fill="#F5F5F5"/>
<path d="M18.7901 10.2826H5.35172C5.25938 10.2826 5.18457 10.3575 5.18457 10.4497C5.18457 10.542 5.25943 10.6169 5.35172 10.6169H18.7901C18.8824 10.6169 18.9572 10.542 18.9572 10.4497C18.9573 10.3575 18.8824 10.2826 18.7901 10.2826Z" fill="#FFE15A"/>
<path d="M11.9871 8.74915C9.66321 8.74915 7.6357 10.0651 6.5498 12.0197C7.6357 13.9743 9.66321 15.2903 11.9871 15.2903C14.311 15.2903 16.3385 13.9743 17.4244 12.0197C16.3385 10.0651 14.311 8.74915 11.9871 8.74915Z" fill="#F5F5F5"/>
<path d="M6.5498 12.0197C7.6357 13.9743 9.66321 15.2903 11.9871 15.2903C12.3752 15.2903 12.7539 15.2504 13.1225 15.1802C12.8411 14.5626 11.8515 14.5637 11.7908 14.3309C11.7255 14.0801 12.5976 14.1347 12.7502 13.9275C12.9029 13.7204 11.9217 13.6331 11.8781 13.4261C11.8345 13.2189 12.2706 13.0772 12.3469 12.7501C12.4232 12.4231 12.5976 12.325 12.7284 12.1287C12.8593 11.9325 12.5104 11.8671 12.4232 11.213C12.336 10.5588 11.8236 10.4716 11.5728 9.93746C11.3221 9.40328 11.7255 9.0108 11.9871 8.74915C9.66326 8.7491 7.6357 10.0651 6.5498 12.0197Z" fill="#464655"/>
<path d="M8.84759 10.8423H8.58594V11.8889H8.84759V10.8423Z" fill="#F5F5F5"/>
<path d="M9.37005 10.8423H9.1084V11.8889H9.37005V10.8423Z" fill="#F5F5F5"/>
<path d="M9.89349 10.8423H9.63184V11.8889H9.89349V10.8423Z" fill="#F5F5F5"/>
<path d="M10.4169 10.8423H10.1553V11.8889H10.4169V10.8423Z" fill="#F5F5F5"/>
<path d="M10.9404 10.8423H10.6787V11.8889H10.9404V10.8423Z" fill="#F5F5F5"/>
<path d="M11.4638 10.8423H11.2021V11.8889H11.4638V10.8423Z" fill="#F5F5F5"/>
<path d="M8.84759 12.4121H8.58594V13.4587H8.84759V12.4121Z" fill="#F5F5F5"/>
<path d="M9.37005 12.4121H9.1084V13.4587H9.37005V12.4121Z" fill="#F5F5F5"/>
<path d="M9.89349 12.4121H9.63184V13.4587H9.89349V12.4121Z" fill="#F5F5F5"/>
<path d="M10.4169 12.4121H10.1553V13.4587H10.4169V12.4121Z" fill="#F5F5F5"/>
<path d="M10.9404 12.4121H10.6787V13.4587H10.9404V12.4121Z" fill="#F5F5F5"/>
<path d="M11.4638 12.4121H11.2021V13.4587H11.4638V12.4121Z" fill="#F5F5F5"/>
<path d="M12.7734 10.8423H12.5117V11.8889H12.7734V10.8423Z" fill="#464655"/>
<path d="M13.2968 10.8423H13.0352V11.8889H13.2968V10.8423Z" fill="#464655"/>
<path d="M13.8202 10.8423H13.5586V11.8889H13.8202V10.8423Z" fill="#464655"/>
<path d="M14.3427 10.8423H14.0811V11.8889H14.3427V10.8423Z" fill="#464655"/>
<path d="M14.8671 10.8423H14.6055V11.8889H14.8671V10.8423Z" fill="#464655"/>
<path d="M15.3896 10.8423H15.1279V11.8889H15.3896V10.8423Z" fill="#464655"/>
<path d="M12.7734 12.4121H12.5117V13.4587H12.7734V12.4121Z" fill="#464655"/>
<path d="M13.2968 12.4121H13.0352V13.4587H13.2968V12.4121Z" fill="#464655"/>
<path d="M13.8202 12.4121H13.5586V13.4587H13.8202V12.4121Z" fill="#464655"/>
<path d="M14.3427 12.4121H14.0811V13.4587H14.3427V12.4121Z" fill="#464655"/>
<path d="M14.8671 12.4121H14.6055V13.4587H14.8671V12.4121Z" fill="#464655"/>
<path d="M15.3896 12.4121H15.1279V13.4587H15.3896V12.4121Z" fill="#464655"/>
<path d="M20.0605 11.848C19.8509 12.3348 19.2546 12.392 19.585 13.6329L19.7542 13.4611C19.7542 13.4611 19.9315 13.9287 20.3586 14.2437C20.3586 14.2437 20.8824 13.8047 20.9227 13.1079L21.1403 13.2034C21.1403 13.2034 21.0355 11.9339 20.0605 11.848Z" fill="#245DBD"/>
<path d="M20.8375 12.8455C20.8208 12.8455 20.8041 12.8378 20.7916 12.8225C20.5863 12.575 20.3249 12.4956 20.3224 12.4947C20.2879 12.4846 20.2668 12.4431 20.2753 12.4022C20.2839 12.3617 20.3189 12.3363 20.3533 12.3465C20.3654 12.35 20.6518 12.4362 20.8835 12.7157C20.9084 12.7456 20.908 12.7942 20.8827 12.8237C20.8701 12.8384 20.8539 12.8455 20.8375 12.8455Z" fill="#FF4B55"/>
<path d="M20.6896 13.4229C20.6704 13.4229 20.6512 13.4128 20.6385 13.3931C20.4863 13.1587 20.3136 13.031 20.3119 13.0298C20.2815 13.0078 20.2722 12.9606 20.2908 12.9246C20.3096 12.8887 20.3492 12.8777 20.3796 12.8998C20.3875 12.9055 20.5743 13.0438 20.7407 13.3001C20.7624 13.3335 20.7571 13.3815 20.7289 13.4071C20.7172 13.4179 20.7034 13.4229 20.6896 13.4229Z" fill="#FF4B55"/>
<path d="M20.3517 14.0658C20.348 14.0658 20.3444 14.0655 20.3406 14.0646C20.3056 14.0574 20.2819 14.018 20.288 13.9766C20.3134 13.8018 20.2921 13.5152 20.2573 13.3672C20.2477 13.3267 20.2677 13.2846 20.302 13.273C20.3366 13.262 20.3719 13.2855 20.3814 13.3261C20.4209 13.4931 20.4439 13.8048 20.4152 14.0022C20.4097 14.0395 20.3824 14.0658 20.3517 14.0658Z" fill="#FF4B55"/>
<path d="M19.8985 13.3606C19.8801 13.3606 19.8619 13.3513 19.8492 13.3334C19.8262 13.3012 19.8297 13.2529 19.8568 13.2257C19.8585 13.2242 20.0231 13.0572 20.066 12.826C20.0737 12.7849 20.1078 12.7589 20.1428 12.7679C20.1776 12.7768 20.1996 12.8177 20.192 12.8589C20.1393 13.1416 19.9481 13.3346 19.9399 13.3427C19.9277 13.3546 19.9131 13.3606 19.8985 13.3606Z" fill="#FF4B55"/>
<path d="M19.7189 12.8721C19.6972 12.8721 19.6761 12.8593 19.6639 12.8358C19.6452 12.7999 19.6547 12.7528 19.685 12.7308C19.6874 12.729 19.9212 12.5568 19.9937 12.369C20.0084 12.3302 20.047 12.3132 20.0792 12.3311C20.1116 12.3487 20.1258 12.3941 20.1111 12.4322C20.0221 12.6628 19.7635 12.8528 19.7525 12.8608C19.742 12.8685 19.7304 12.8721 19.7189 12.8721Z" fill="#FF4B55"/>
<path d="M3.72437 12.0118C3.5492 12.4189 3.05054 12.4668 3.32682 13.5043L3.46834 13.3606C3.46834 13.3606 3.61655 13.7517 3.97369 14.015C3.97369 14.015 4.41169 13.6479 4.44534 13.0653L4.62726 13.1451C4.62726 13.1451 4.5397 12.0837 3.72437 12.0118Z" fill="#245DBD"/>
<path d="M4.37014 12.8459C4.35612 12.8459 4.34225 12.8394 4.3317 12.8266C4.16009 12.6196 3.94152 12.5533 3.93941 12.5526C3.91058 12.5441 3.89286 12.5094 3.90003 12.4753C3.9072 12.4413 3.93645 12.4201 3.96519 12.4286C3.97531 12.4316 4.21479 12.5037 4.40853 12.7374C4.42939 12.7623 4.42906 12.803 4.40792 12.8277C4.39742 12.8399 4.38382 12.8459 4.37014 12.8459Z" fill="#FF4B55"/>
<path d="M4.24672 13.3287C4.2306 13.3287 4.21461 13.3202 4.20397 13.3037C4.07671 13.1077 3.93233 13.001 3.93088 12.9999C3.90552 12.9815 3.89769 12.9421 3.9133 12.9119C3.92901 12.882 3.96215 12.8728 3.98751 12.8912C3.99416 12.8959 4.15025 13.0117 4.28947 13.2259C4.30757 13.2538 4.30316 13.294 4.27958 13.3154C4.26978 13.3244 4.25821 13.3287 4.24672 13.3287Z" fill="#FF4B55"/>
<path d="M3.9638 13.8661C3.96075 13.8661 3.95771 13.8659 3.95452 13.8651C3.92527 13.8591 3.90544 13.8262 3.9105 13.7915C3.93179 13.6454 3.91397 13.4057 3.88482 13.282C3.8768 13.2481 3.89354 13.2129 3.92218 13.2032C3.95115 13.194 3.98063 13.2137 3.9886 13.2476C4.02155 13.3873 4.04082 13.6479 4.01682 13.813C4.01232 13.8442 3.98949 13.8661 3.9638 13.8661Z" fill="#FF4B55"/>
<path d="M3.5852 13.2766C3.56982 13.2766 3.55454 13.2689 3.54395 13.2539C3.52477 13.227 3.52763 13.1866 3.55037 13.1639C3.55173 13.1626 3.68935 13.023 3.72526 12.8297C3.73168 12.7953 3.76023 12.7736 3.78947 12.781C3.81854 12.7885 3.83696 12.8227 3.83054 12.8571C3.78652 13.0935 3.62659 13.2549 3.61974 13.2616C3.60962 13.2716 3.59738 13.2766 3.5852 13.2766Z" fill="#FF4B55"/>
<path d="M3.43487 12.8681C3.41678 12.8681 3.39906 12.8573 3.38884 12.8376C3.37328 12.8077 3.38115 12.7683 3.40651 12.7498C3.40853 12.7483 3.60404 12.6044 3.66465 12.4473C3.67698 12.4149 3.70918 12.4007 3.73614 12.4156C3.76318 12.4303 3.77509 12.4683 3.76276 12.5002C3.68832 12.693 3.47209 12.8518 3.4629 12.8586C3.45414 12.8651 3.44444 12.8681 3.43487 12.8681Z" fill="#FF4B55"/>
</g>
<defs>
<clipPath id="clip0_8615_27581">
<path d="M0 2C0 0.895432 0.895431 0 2 0H21.9998C23.1043 0 23.9998 0.895431 23.9998 2V21.9998C23.9998 23.1043 23.1043 23.9998 21.9998 23.9998H2C0.895432 23.9998 0 23.1043 0 21.9998V2Z" fill="white"/>
</clipPath>
</defs>
</svg>
