<svg width="24" height="24" viewBox="0 0 24 24" fill="none" xmlns="http://www.w3.org/2000/svg">
<g clip-path="url(#clip0_8615_27541)">
<path d="M23.9998 0H0V23.9998H23.9998V0Z" fill="#FF4B55"/>
<path d="M17.0792 10.153H13.847V6.92075C13.847 6.66575 13.6403 6.45898 13.3852 6.45898H10.6147C10.3597 6.45898 10.153 6.6657 10.153 6.92075V10.153H6.92075C6.66575 10.153 6.45898 10.3597 6.45898 10.6147V13.3852C6.45898 13.6402 6.6657 13.847 6.92075 13.847H10.153V17.0792C10.153 17.3342 10.3597 17.541 10.6147 17.541H13.3852C13.6402 17.541 13.847 17.3343 13.847 17.0792V13.847H17.0792C17.3342 13.847 17.541 13.6403 17.541 13.3852V10.6147C17.541 10.3597 17.3343 10.153 17.0792 10.153Z" fill="#F5F5F5"/>
</g>
<defs>
<clipPath id="clip0_8615_27541">
<path d="M0 2C0 0.895432 0.895431 0 2 0H21.9998C23.1043 0 23.9998 0.895431 23.9998 2V21.9998C23.9998 23.1043 23.1043 23.9998 21.9998 23.9998H2C0.895432 23.9998 0 23.1043 0 21.9998V2Z" fill="white"/>
</clipPath>
</defs>
</svg>
