<svg width="24" height="24" viewBox="0 0 24 24" fill="none" xmlns="http://www.w3.org/2000/svg">
<g clip-path="url(#clip0_8615_27628)">
<path d="M23.9998 0H0V7.97289H23.9998V0Z" fill="#FF4B55"/>
<path d="M23.9998 16.027H0V23.9999H23.9998V16.027Z" fill="#464655"/>
<path d="M23.9998 7.9729H0V16.0269H23.9998V7.9729Z" fill="#F5F5F5"/>
<path d="M7.03216 10.4677L7.37715 11.5022L8.46755 11.5106C8.60874 11.5117 8.66728 11.6919 8.55371 11.7757L7.67649 12.4235L8.00541 13.4631C8.04798 13.5978 7.89474 13.7091 7.7799 13.627L6.89275 12.9929L6.00561 13.627C5.89076 13.7091 5.73748 13.5978 5.78009 13.4631L6.10901 12.4235L5.2318 11.7757C5.11822 11.6919 5.17677 11.5117 5.31796 11.5106L6.40835 11.5022L6.75335 10.4677C6.79807 10.3338 6.98749 10.3338 7.03216 10.4677Z" fill="#73AF00"/>
<path d="M17.246 10.4676L17.591 11.5021L18.6814 11.5105C18.8226 11.5116 18.8811 11.6918 18.7676 11.7756L17.8904 12.4234L18.2193 13.463C18.2618 13.5976 18.1086 13.709 17.9938 13.6269L17.1066 12.9928L16.2195 13.6269C16.1046 13.709 15.9513 13.5976 15.994 13.463L16.3229 12.4234L15.4457 11.7756C15.3321 11.6918 15.3906 11.5116 15.5318 11.5105L16.6222 11.5021L16.9672 10.4676C17.0119 10.3337 17.2014 10.3337 17.246 10.4676Z" fill="#73AF00"/>
</g>
<defs>
<clipPath id="clip0_8615_27628">
<path d="M0 2C0 0.895432 0.895431 0 2 0H21.9998C23.1043 0 23.9998 0.895431 23.9998 2V21.9998C23.9998 23.1043 23.1043 23.9998 21.9998 23.9998H2C0.895432 23.9998 0 23.1043 0 21.9998V2Z" fill="white"/>
</clipPath>
</defs>
</svg>
