<svg width="24" height="24" viewBox="0 0 24 24" fill="none" xmlns="http://www.w3.org/2000/svg">
<g clip-path="url(#clip0_8615_27471)">
<path d="M23.9988 0H-0.000976562V23.9998H23.9988V0Z" fill="#FF4B55"/>
<path d="M0.174803 0H11.8231C11.9202 0 11.9989 0.0787024 11.9989 0.17578V11.5722C11.9989 11.8084 11.8074 11.9999 11.5712 11.9999H0.174803C0.0777258 11.9999 -0.000976562 11.9212 -0.000976562 11.8241V0.17578C-0.000976562 0.0787024 0.0777258 0 0.174803 0Z" fill="#41479B"/>
<path d="M4.14155 5.99983C4.14155 5.48599 4.34977 5.02081 4.68637 4.68397L3.12667 4.23782C3.03616 4.2119 2.97123 4.32435 3.03892 4.38979L4.20605 5.51829L2.63102 5.91204C2.53966 5.93487 2.53966 6.06471 2.63102 6.08754L4.20605 6.48128L3.03892 7.60979C2.97123 7.67522 3.03616 7.78768 3.12667 7.76175L4.68637 7.3156C4.34977 6.97886 4.14155 6.51367 4.14155 5.99983Z" fill="#F5F5F5"/>
<path d="M4.68727 4.6832C5.02411 4.34659 5.48929 4.13838 6.00313 4.13838C6.51697 4.13838 6.98215 4.34659 7.31899 4.6832L7.76514 3.1235C7.79106 3.03298 7.67861 2.96806 7.61318 3.03575L6.48467 4.20288L6.09093 2.62785C6.0681 2.53649 5.93825 2.53649 5.91543 2.62785L5.52168 4.20288L4.39308 3.0357C4.32765 2.96801 4.21519 3.03293 4.24112 3.12345L4.68727 4.6832Z" fill="#F5F5F5"/>
<path d="M7.31899 7.31665C6.98215 7.65326 6.51697 7.86147 6.00313 7.86147C5.48934 7.86147 5.02411 7.65326 4.68727 7.31665L4.24112 8.87635C4.21519 8.96687 4.32765 9.03179 4.39308 8.9641L5.52159 7.79697L5.91533 9.37201C5.93816 9.46336 6.068 9.46336 6.09083 9.37201L6.48458 7.79697L7.61308 8.9641C7.67852 9.03179 7.79097 8.96687 7.76505 8.87635L7.31899 7.31665Z" fill="#F5F5F5"/>
<path d="M9.37469 5.91216L7.79966 5.51841L8.96679 4.38991C9.03448 4.32447 8.96955 4.21202 8.87904 4.23794L7.31934 4.68409C7.65594 5.02093 7.86416 5.48612 7.86416 5.99996C7.86416 6.51375 7.65594 6.97898 7.31934 7.31582L8.87904 7.76197C8.96955 7.78784 9.03448 7.67544 8.96679 7.61L7.79966 6.4815L9.37469 6.08775C9.46605 6.06483 9.46605 5.93499 9.37469 5.91216Z" fill="#F5F5F5"/>
<path d="M6.00273 7.48214C6.82134 7.48214 7.48495 6.81853 7.48495 5.99992C7.48495 5.18131 6.82134 4.5177 6.00273 4.5177C5.18412 4.5177 4.52051 5.18131 4.52051 5.99992C4.52051 6.81853 5.18412 7.48214 6.00273 7.48214Z" fill="#F5F5F5"/>
</g>
<defs>
<clipPath id="clip0_8615_27471">
<path d="M0 2C0 0.895432 0.895431 0 2 0H21.9998C23.1043 0 23.9998 0.895431 23.9998 2V21.9998C23.9998 23.1043 23.1043 23.9998 21.9998 23.9998H2C0.895432 23.9998 0 23.1043 0 21.9998V2Z" fill="white"/>
</clipPath>
</defs>
</svg>
