<svg width="24" height="24" viewBox="0 0 24 24" fill="none" xmlns="http://www.w3.org/2000/svg">
<g clip-path="url(#clip0_8615_27481)">
<path d="M23.9988 15.9998H-0.000976562V23.9998H23.9988V15.9998Z" fill="#73AF00"/>
<path d="M23.9988 0H-0.000976562V8.00008H23.9988V0Z" fill="#FF4B55"/>
<path d="M23.9988 8.00012H-0.000976562V16.0002H23.9988V8.00012Z" fill="#F5F5F5"/>
<path d="M9.92516 14.2561C10.1878 14.1238 10.3414 13.9058 10.4235 13.7483C10.894 14.0556 11.297 13.9512 11.5071 13.853C11.7121 13.757 11.8808 13.6003 11.9935 13.4407C12.1061 13.6003 12.2749 13.757 12.4798 13.853C12.6898 13.9513 13.0929 14.0555 13.5634 13.7483C13.6455 13.9057 13.7992 14.1237 14.0617 14.2561C14.2132 14.3324 14.38 14.3706 14.5611 14.3706C14.7471 14.3706 14.948 14.3303 15.1626 14.2499L15.0584 13.9719C14.7171 14.0999 14.4275 14.1068 14.1981 13.9923C13.877 13.8323 13.7698 13.4793 13.7689 13.4764L13.7063 13.2572L13.5312 13.403C13.2223 13.6603 12.9024 13.7234 12.6057 13.5841C12.3045 13.443 12.1419 13.1575 12.1419 13.0718V11.7907C12.2061 11.6493 12.3478 11.5504 12.5129 11.5504C12.5697 11.5504 12.6257 11.5627 12.6796 11.5869L12.8633 11.6698L12.8356 11.4701C12.7773 11.0505 12.4153 10.734 11.9935 10.734C11.5716 10.734 11.2096 11.0505 11.1514 11.4701L11.1236 11.6698L11.3074 11.5869C11.3611 11.5627 11.4172 11.5504 11.474 11.5504C11.6391 11.5504 11.7808 11.6493 11.845 11.7907V13.0718C11.845 13.1575 11.6825 13.4431 11.3812 13.5841C11.0847 13.7234 10.7646 13.6605 10.4557 13.403L10.282 13.2591L10.2182 13.4758C10.2171 13.4793 10.11 13.8322 9.7889 13.9923C9.55931 14.1068 9.26981 14.1 8.92851 13.9718L8.82422 14.2499C9.03881 14.3303 9.23981 14.3706 9.42576 14.3706C9.60684 14.3706 9.77376 14.3323 9.92516 14.2561ZM11.4739 11.3277C11.4561 11.3277 11.4385 11.3284 11.4208 11.33C11.5202 11.1085 11.7425 10.9566 11.9934 10.9566C12.2443 10.9566 12.4666 11.1085 12.566 11.33C12.3351 11.3097 12.1168 11.4225 11.9934 11.6011C11.8795 11.436 11.6891 11.3277 11.4739 11.3277Z" fill="#FFCD5A"/>
<path d="M9.42383 15.1999L9.5179 15.4814C10.149 15.2708 11.0516 15.1499 11.9942 15.1499C12.9368 15.1499 13.8394 15.2708 14.4706 15.4814L14.5647 15.1999C13.9044 14.9794 12.9675 14.853 11.9942 14.853C11.021 14.853 10.0841 14.9794 9.42383 15.1999Z" fill="#FFCD5A"/>
<path d="M11.9938 14.5562C12.1485 14.5567 12.2849 14.4647 12.3772 14.3408C12.3158 14.3029 12.2338 14.2808 12.1411 14.2693C12.1412 14.2658 12.1422 14.2628 12.1422 14.2594C12.1422 14.1321 12.0821 14.0222 11.9938 13.9625C11.9054 14.0222 11.8453 14.1321 11.8453 14.2594C11.8453 14.2628 11.8464 14.2658 11.8465 14.2693C11.7537 14.2808 11.6718 14.3029 11.6104 14.3408C11.7026 14.4648 11.839 14.5567 11.9938 14.5562Z" fill="#FFCD5A"/>
<path d="M10.6317 14.6965C10.7834 14.666 10.8986 14.5487 10.9643 14.4088C10.8966 14.3839 10.8118 14.3786 10.7186 14.3859C10.718 14.3825 10.7184 14.3793 10.7177 14.3759C10.6923 14.2512 10.6115 14.1556 10.5129 14.1147C10.4383 14.1909 10.4014 14.3106 10.4269 14.4353C10.4276 14.4387 10.4292 14.4415 10.43 14.4448C10.3414 14.4746 10.2655 14.5127 10.2129 14.5622C10.3282 14.6651 10.4801 14.7279 10.6317 14.6965Z" fill="#FFCD5A"/>
<path d="M13.4758 14.1147C13.3772 14.1556 13.2964 14.2512 13.271 14.3759C13.2703 14.3793 13.2707 14.3825 13.2701 14.3859C13.1769 14.3786 13.0921 14.3839 13.0244 14.4088C13.0901 14.5487 13.2054 14.666 13.357 14.6965C13.5086 14.7279 13.6605 14.6651 13.7758 14.5622C13.7232 14.5127 13.6473 14.4746 13.5587 14.4448C13.5595 14.4415 13.5612 14.4387 13.5618 14.4353C13.5873 14.3106 13.5504 14.1909 13.4758 14.1147Z" fill="#FFCD5A"/>
<path d="M11.9544 8.64801L11.8545 8.94781L11.5384 8.95025C11.4975 8.95058 11.4805 9.0028 11.5135 9.02708L11.7677 9.21481L11.6724 9.51612C11.66 9.55512 11.7044 9.58742 11.7377 9.56361L11.9948 9.37981L12.2519 9.56361C12.2852 9.58742 12.3296 9.55512 12.3173 9.51612L12.2219 9.21481L12.4762 9.02708C12.5091 9.00275 12.4921 8.95058 12.4512 8.95025L12.1351 8.94781L12.0352 8.64801C12.0223 8.60919 11.9674 8.60919 11.9544 8.64801Z" fill="#FFCD5A"/>
<path d="M10.1459 9.14276L10.0459 9.44257L9.72984 9.445C9.68892 9.44533 9.67195 9.49755 9.70486 9.52183L9.95911 9.70956L9.86376 10.0109C9.85144 10.0499 9.89583 10.0822 9.92911 10.0584L10.1862 9.87456L10.4433 10.0584C10.4766 10.0822 10.521 10.0499 10.5087 10.0109L10.4133 9.70956L10.6676 9.52183C10.7005 9.4975 10.6835 9.44533 10.6426 9.445L10.3266 9.44257L10.2266 9.14276C10.2137 9.10394 10.1588 9.10394 10.1459 9.14276Z" fill="#FFCD5A"/>
<path d="M8.81578 10.4787L8.71579 10.7785L8.39977 10.7809C8.35884 10.7813 8.34187 10.8335 8.37478 10.8578L8.62903 11.0455L8.53369 11.3468C8.52136 11.3858 8.56575 11.4181 8.59903 11.3943L8.85614 11.2105L9.11324 11.3943C9.14652 11.4181 9.19096 11.3858 9.17859 11.3468L9.08324 11.0455L9.33749 10.8578C9.3704 10.8334 9.35343 10.7813 9.31251 10.7809L8.99648 10.7785L8.89649 10.4787C8.8836 10.4399 8.82871 10.4399 8.81578 10.4787Z" fill="#FFCD5A"/>
<path d="M8.32749 12.2846L8.22751 12.5844L7.91148 12.5868C7.87056 12.5872 7.85359 12.6394 7.8865 12.6637L8.14075 12.8514L8.0454 13.1527C8.03308 13.1917 8.07747 13.224 8.11075 13.2002L8.36785 13.0164L8.62496 13.2002C8.65824 13.224 8.70268 13.1917 8.6903 13.1527L8.59496 12.8514L8.84921 12.6637C8.88211 12.6393 8.86515 12.5872 8.82422 12.5868L8.5082 12.5844L8.40821 12.2846C8.39537 12.2458 8.34048 12.2458 8.32749 12.2846Z" fill="#FFCD5A"/>
<path d="M13.8457 9.14276L13.9457 9.44257L14.2617 9.445C14.3026 9.44533 14.3196 9.49755 14.2867 9.52183L14.0325 9.70956L14.1278 10.0109C14.1401 10.0499 14.0957 10.0822 14.0625 10.0584L13.8054 9.87456L13.5482 10.0584C13.515 10.0822 13.4705 10.0499 13.4829 10.0109L13.5782 9.70956L13.324 9.52183C13.2911 9.4975 13.3081 9.44533 13.349 9.445L13.665 9.44257L13.765 9.14276C13.7778 9.10394 13.8328 9.10394 13.8457 9.14276Z" fill="#FFCD5A"/>
<path d="M15.1758 10.4787L15.2758 10.7785L15.5918 10.7809C15.6327 10.7813 15.6497 10.8335 15.6168 10.8578L15.3625 11.0455L15.4579 11.3468C15.4702 11.3858 15.4258 11.4181 15.3925 11.3943L15.1354 11.2105L14.8783 11.3943C14.845 11.4181 14.8006 11.3858 14.813 11.3468L14.9083 11.0455L14.6541 10.8578C14.6212 10.8334 14.6381 10.7813 14.6791 10.7809L14.9951 10.7785L15.0951 10.4787C15.108 10.4399 15.1629 10.4399 15.1758 10.4787Z" fill="#FFCD5A"/>
<path d="M15.665 12.2846L15.765 12.5844L16.0811 12.5868C16.122 12.5872 16.139 12.6394 16.106 12.6637L15.8518 12.8514L15.9471 13.1527C15.9595 13.1917 15.9151 13.224 15.8818 13.2002L15.6247 13.0164L15.3676 13.2002C15.3343 13.224 15.2899 13.1917 15.3022 13.1527L15.3976 12.8514L15.1433 12.6637C15.1104 12.6393 15.1274 12.5872 15.1683 12.5868L15.4843 12.5844L15.5843 12.2846C15.5972 12.2458 15.6521 12.2458 15.665 12.2846Z" fill="#FFCD5A"/>
</g>
<defs>
<clipPath id="clip0_8615_27481">
<path d="M0 2C0 0.895432 0.895431 0 2 0H21.9998C23.1043 0 23.9998 0.895431 23.9998 2V21.9998C23.9998 23.1043 23.1043 23.9998 21.9998 23.9998H2C0.895432 23.9998 0 23.1043 0 21.9998V2Z" fill="white"/>
</clipPath>
</defs>
</svg>
