<svg width="24" height="24" viewBox="0 0 24 24" fill="none" xmlns="http://www.w3.org/2000/svg">
<g clip-path="url(#clip0_8615_27549)">
<path d="M23.9978 0.00012207H-0.00195312V23.9999H23.9978V0.00012207Z" fill="#FFE15A"/>
<path d="M23.9978 1.3125H1.23926V22.781H23.9978V1.3125Z" fill="#41479B"/>
<path d="M1.23633 1.3125L12.6155 12.0112L6.92601 1.31259L1.23633 1.3125Z" fill="#FF4B55"/>
<path d="M12.6162 12.0112V1.3125L18.3059 1.31259L12.6162 12.0112Z" fill="#FF4B55"/>
<path d="M23.9954 1.38367L12.6162 12.0824L23.9954 6.73304V1.38367Z" fill="#FF4B55"/>
<path d="M12.6162 12.0824H23.9954V17.4318L12.6162 12.0824Z" fill="#FF4B55"/>
<path d="M12.6154 12.0824L1.23633 6.73315V12.0825L12.6154 12.0824Z" fill="#FF4B55"/>
<path d="M1.23633 17.4318L12.6154 12.0824L1.23633 22.7812V17.4318Z" fill="#FF4B55"/>
<path d="M15.0199 13.0595C15.0561 12.957 15.0878 12.8525 15.1107 12.7445L17.8795 12.9901L15.1558 12.4395C15.1624 12.3645 15.1673 12.2889 15.1673 12.2122C15.1673 12.1383 15.1624 12.0656 15.1562 11.9933L17.8577 11.4244L15.1134 11.6902C15.0893 11.5748 15.0552 11.4635 15.0161 11.3543L17.4684 10.0723L14.8957 11.0723C14.8302 10.9417 14.7538 10.8179 14.6677 10.7013L16.7012 8.82634L14.4711 10.4655C14.2347 10.2149 13.9493 10.0112 13.6284 9.87263L14.4383 7.23711L13.3404 9.76918C13.1115 9.70172 12.8699 9.66399 12.6192 9.66399C12.3664 9.66399 12.1228 9.70205 11.8923 9.77058L10.7937 7.23706L11.6044 9.87521C11.2847 10.0142 11.0003 10.2178 10.7647 10.4682L8.53096 8.8263L10.5681 10.7046C10.4825 10.8208 10.4067 10.9441 10.3415 11.0743L7.76363 10.0722L10.2212 11.3571C10.1825 11.4655 10.1486 11.5761 10.1247 11.6908L7.37434 11.4243L10.0819 11.9945C10.0759 12.0664 10.071 12.1386 10.071 12.2121C10.071 12.2884 10.0758 12.3635 10.0824 12.4381L7.35254 12.9899L10.1274 12.7438C10.1502 12.8511 10.1815 12.9549 10.2173 13.0567L7.77014 14.3072L10.3356 13.3375C10.7515 14.1796 11.6164 14.7602 12.6191 14.7602C13.6211 14.7602 14.4854 14.1805 14.9017 13.3395L17.4619 14.3072L15.0199 13.0595Z" fill="#FFE15A"/>
<path d="M23.9976 22.7811L12.8786 12.3103C12.7178 12.1589 12.5191 12.1589 12.3584 12.3103L1.23926 22.7811H23.9976Z" fill="#F5F5F5"/>
<path d="M12.7648 17.7962C12.8124 17.7962 12.8509 17.7577 12.8509 17.7101C12.8509 17.6626 12.8124 17.624 12.7648 17.624C12.7173 17.624 12.6787 17.6626 12.6787 17.7101C12.6787 17.7577 12.7173 17.7962 12.7648 17.7962Z" fill="#FF4B55"/>
<path d="M12.6329 14.8254C12.8912 15.1448 12.4732 15.3045 12.5249 15.6098C12.5249 15.6098 12.4403 15.483 12.4732 15.3045C12.5061 15.126 12.3934 15.0697 12.3934 15.0697C12.3934 15.0697 12.445 15.2716 12.3182 15.3843C12.1914 15.4971 12.229 15.7553 12.229 15.7553C12.229 15.7553 12.0693 15.6473 12.1022 15.4829C12.1022 15.4829 11.8862 15.6708 12.0787 15.9855C12.0787 15.9855 11.9519 15.9761 11.905 15.8962C11.905 15.8962 11.7925 16.2273 12.2456 16.4798C12.6987 16.7322 12.7644 16.1311 12.7644 16.1311L13.0885 16.535C13.0885 16.535 13.4767 16.524 13.6615 16.1076L13.4392 16.1483C13.4533 16.0309 13.7507 15.9996 13.6333 15.6473C13.6333 15.6473 13.6239 15.7225 13.5393 15.7741C13.5393 15.7741 13.5425 15.5315 13.3671 15.3718C13.3671 15.3718 13.3608 15.5017 13.3045 15.5487C13.3045 15.5487 13.3233 15.3812 13.22 15.2497C13.1213 15.124 13.1119 15.0086 13.1119 15.0086C13.1119 15.0086 12.9945 15.2247 13.0368 15.3327C13.0368 15.3327 12.9389 15.3089 12.9287 15.1777C12.9068 14.8928 12.6329 14.8254 12.6329 14.8254Z" fill="#FF4B55"/>
<path d="M12.7672 17.7024C13.172 17.7024 13.5001 17.5618 13.5001 17.3882C13.5001 17.2147 13.172 17.0741 12.7672 17.0741C12.3623 17.0741 12.0342 17.2147 12.0342 17.3882C12.0342 17.5618 12.3623 17.7024 12.7672 17.7024Z" fill="#FFE15A"/>
<path d="M12.7676 17.6039C13.1177 17.6039 13.4015 17.4767 13.4015 17.3198C13.4015 17.1629 13.1177 17.0358 12.7676 17.0358C12.4176 17.0358 12.1338 17.1629 12.1338 17.3198C12.1338 17.4767 12.4176 17.6039 12.7676 17.6039Z" fill="#FF4B55"/>
<path d="M12.898 17.3569H12.6322C12.6275 17.4398 12.665 17.56 12.7649 17.6036V17.6039C12.765 17.6039 12.765 17.6038 12.765 17.6038C12.765 17.6038 12.7652 17.6039 12.7653 17.6039V17.6036C12.8651 17.56 12.9026 17.4398 12.898 17.3569Z" fill="#FF82AA"/>
<path d="M13.1092 17.3058L12.8682 17.3624C12.8828 17.444 12.9443 17.5531 13.0449 17.5743L13.0449 17.5746L13.0451 17.5744C13.0452 17.5744 13.0452 17.5745 13.0452 17.5745V17.5742C13.1259 17.5105 13.1324 17.3855 13.1092 17.3058Z" fill="#FF82AA"/>
<path d="M13.2343 17.2192L13.0664 17.3292C13.1089 17.4005 13.1985 17.4855 13.2854 17.4806L13.2855 17.4808L13.2856 17.4807L13.2858 17.4807L13.2856 17.4805C13.3248 17.4026 13.2826 17.2866 13.2343 17.2192Z" fill="#FF82AA"/>
<path d="M13.2301 17.0493L13.1641 17.216C13.2536 17.33 13.4004 17.3182 13.4004 17.3182C13.4062 17.2254 13.2905 17.1061 13.2301 17.0493Z" fill="#FF82AA"/>
<path d="M12.4189 17.3058L12.66 17.3624C12.6453 17.444 12.5838 17.5531 12.4833 17.5743L12.4832 17.5746L12.4831 17.5744L12.4829 17.5745L12.4829 17.5742C12.4023 17.5105 12.3957 17.3855 12.4189 17.3058Z" fill="#FF82AA"/>
<path d="M12.2944 17.2192L12.4622 17.3292C12.4198 17.4005 12.3302 17.4855 12.2432 17.4806L12.2431 17.4808L12.243 17.4807L12.2429 17.4807L12.243 17.4805C12.2038 17.4026 12.246 17.2866 12.2944 17.2192Z" fill="#FF82AA"/>
<path d="M12.2994 17.0493L12.3654 17.216C12.2759 17.33 12.1291 17.3182 12.1291 17.3182C12.1233 17.2254 12.2389 17.1061 12.2994 17.0493Z" fill="#FF82AA"/>
<path d="M12.7674 17.3783C13.0515 17.3783 13.2818 17.2751 13.2818 17.1478C13.2818 17.0204 13.0515 16.9172 12.7674 16.9172C12.4833 16.9172 12.2529 17.0204 12.2529 17.1478C12.2529 17.2751 12.4833 17.3783 12.7674 17.3783Z" fill="#FFE15A"/>
<path d="M12.7675 17.2975C12.9789 17.2975 13.1502 17.2305 13.1502 17.1477C13.1502 17.065 12.9789 16.9979 12.7675 16.9979C12.5561 16.9979 12.3848 17.065 12.3848 17.1477C12.3848 17.2305 12.5561 17.2975 12.7675 17.2975Z" fill="#FF4B55"/>
<path d="M12.8057 19.7381C12.5555 19.7593 12.3357 19.5733 12.3144 19.3235C12.3034 19.1986 12.3965 19.0884 12.5216 19.0777C12.6466 19.0671 12.7565 19.1599 12.7671 19.285C12.7777 19.4101 12.8879 19.5026 13.0127 19.4923C13.1379 19.4817 13.2308 19.3713 13.2199 19.2464C13.2412 19.4966 13.0558 19.7166 12.8057 19.7381Z" fill="#41479B"/>
<path d="M12.3151 19.3235C12.3042 19.1986 12.3973 19.0884 12.5224 19.0777C12.6474 19.0671 12.7573 19.1599 12.7679 19.285C12.7785 19.4101 12.8887 19.5026 13.0135 19.4923C13.1387 19.4817 13.2315 19.3713 13.2207 19.2465C13.1998 18.996 12.9797 18.8107 12.7295 18.832C12.4794 18.8534 12.2939 19.0733 12.3151 19.3235Z" fill="#FF9B55"/>
<path d="M12.7673 18.541C12.3565 18.541 12.0234 18.8741 12.0234 19.2849C12.0234 19.6958 12.3565 20.0288 12.7673 20.0288C13.1782 20.0288 13.5112 19.6957 13.5112 19.2849C13.5113 18.8741 13.1782 18.541 12.7673 18.541ZM12.7673 19.8739C12.4421 19.8739 12.1784 19.6102 12.1784 19.285C12.1784 18.9597 12.4421 18.696 12.7673 18.696C13.0926 18.696 13.3563 18.9597 13.3563 19.285C13.3563 19.6102 13.0926 19.8739 12.7673 19.8739Z" fill="#FFE15A"/>
<path d="M12.7676 18.6959C12.4424 18.6959 12.1787 18.9596 12.1787 19.2849C12.1787 19.6101 12.4424 19.8738 12.7676 19.8738C13.0929 19.8738 13.3566 19.6101 13.3566 19.2849C13.3566 18.9596 13.0929 18.6959 12.7676 18.6959ZM12.7676 19.736C12.5185 19.736 12.3165 19.534 12.3165 19.2849C12.3165 19.0357 12.5185 18.8337 12.7676 18.8337C13.0168 18.8337 13.2188 19.0357 13.2188 19.2849C13.2188 19.534 13.0168 19.736 12.7676 19.736Z" fill="#FF4B55"/>
<path d="M12.5383 19.3415C12.5696 19.3415 12.5951 19.3161 12.5951 19.2847C12.5951 19.2533 12.5696 19.2279 12.5383 19.2279C12.5069 19.2279 12.4814 19.2533 12.4814 19.2847C12.4814 19.3161 12.5069 19.3415 12.5383 19.3415Z" fill="#FF9B55"/>
<path d="M12.9933 19.3415C13.0247 19.3415 13.0501 19.3161 13.0501 19.2847C13.0501 19.2533 13.0247 19.2279 12.9933 19.2279C12.962 19.2279 12.9365 19.2533 12.9365 19.2847C12.9365 19.3161 12.962 19.3415 12.9933 19.3415Z" fill="#41479B"/>
<path d="M12.7641 18.4269C12.8021 18.4269 12.8329 18.3961 12.8329 18.3581C12.8329 18.3201 12.8021 18.2893 12.7641 18.2893C12.7261 18.2893 12.6953 18.3201 12.6953 18.3581C12.6953 18.3961 12.7261 18.4269 12.7641 18.4269Z" fill="#FF4B55"/>
<path d="M12.8335 18.5469C12.8715 18.5469 12.9023 18.5161 12.9023 18.4781C12.9023 18.4401 12.8715 18.4093 12.8335 18.4093C12.7955 18.4093 12.7646 18.4401 12.7646 18.4781C12.7646 18.5161 12.7955 18.5469 12.8335 18.5469Z" fill="#FF4B55"/>
<path d="M12.6958 18.5469C12.7338 18.5469 12.7646 18.5161 12.7646 18.4781C12.7646 18.4401 12.7338 18.4093 12.6958 18.4093C12.6578 18.4093 12.627 18.4401 12.627 18.4781C12.627 18.5161 12.6578 18.5469 12.6958 18.5469Z" fill="#FF4B55"/>
<path d="M12.7641 20.2822C12.8021 20.2822 12.8329 20.2513 12.8329 20.2133C12.8329 20.1753 12.8021 20.1445 12.7641 20.1445C12.7261 20.1445 12.6953 20.1753 12.6953 20.2133C12.6953 20.2513 12.7261 20.2822 12.7641 20.2822Z" fill="#FF4B55"/>
<path d="M12.6958 20.1622C12.7338 20.1622 12.7646 20.1314 12.7646 20.0933C12.7646 20.0553 12.7338 20.0245 12.6958 20.0245C12.6578 20.0245 12.627 20.0553 12.627 20.0933C12.627 20.1314 12.6578 20.1622 12.6958 20.1622Z" fill="#FF4B55"/>
<path d="M12.8335 20.1622C12.8715 20.1622 12.9023 20.1314 12.9023 20.0933C12.9023 20.0553 12.8715 20.0245 12.8335 20.0245C12.7955 20.0245 12.7646 20.0553 12.7646 20.0933C12.7646 20.1314 12.7955 20.1622 12.8335 20.1622Z" fill="#FF4B55"/>
<path d="M12.6413 16.4096C12.594 16.1458 12.4677 15.9477 12.3592 15.9671C12.2507 15.9866 12.2011 16.2162 12.2484 16.48C12.2825 16.6704 12.3581 16.8234 12.4381 16.8884C12.405 16.945 12.3849 17.0315 12.3845 17.1385C12.4439 17.1436 12.5052 17.1433 12.568 17.1321C12.6309 17.1208 12.6884 17.0998 12.7424 17.0744C12.7048 16.9741 12.6559 16.9001 12.6052 16.8584C12.6577 16.7697 12.6754 16.6 12.6413 16.4096Z" fill="#FF9B55"/>
<path d="M12.8921 16.4096C12.9394 16.1458 13.0657 15.9477 13.1742 15.9671C13.2827 15.9866 13.3323 16.2162 13.285 16.48C13.2509 16.6704 13.1753 16.8234 13.0953 16.8884C13.1284 16.945 13.1485 17.0315 13.1489 17.1385C13.0895 17.1436 13.0282 17.1433 12.9654 17.1321C12.9025 17.1208 12.845 17.0998 12.791 17.0744C12.8286 16.9741 12.8775 16.9001 12.9282 16.8584C12.8757 16.7697 12.858 16.6 12.8921 16.4096Z" fill="#41479B"/>
<path d="M12.9695 16.4034C12.9695 16.1128 12.8801 15.8772 12.7699 15.8772C12.6597 15.8772 12.5703 16.1128 12.5703 16.4034C12.5703 16.6131 12.6177 16.7909 12.685 16.8755C12.6425 16.9297 12.6074 17.018 12.5881 17.1323C12.6457 17.149 12.7061 17.1604 12.77 17.1604C12.8338 17.1604 12.8942 17.149 12.9518 17.1323C12.9325 17.0181 12.8974 16.9297 12.8549 16.8755C12.9222 16.7909 12.9695 16.6131 12.9695 16.4034Z" fill="#F5F5F5"/>
<path d="M12.7641 16.9529C12.6341 16.9529 12.5148 16.9408 12.4372 16.9194C12.4105 16.9124 12.395 16.8851 12.4021 16.8582C12.4095 16.8316 12.4376 16.8141 12.4634 16.8235C12.6006 16.8601 12.9276 16.8601 13.0649 16.8235C13.0916 16.8137 13.1189 16.8317 13.1261 16.8582C13.1333 16.8851 13.1177 16.9124 13.091 16.9194C13.0135 16.9408 12.8942 16.9529 12.7641 16.9529Z" fill="#FFE15A"/>
<path d="M12.3359 17.742C12.3899 17.735 12.458 17.7185 12.4627 17.6364C12.4627 17.6364 12.3406 17.6246 12.3406 17.634C12.3406 17.6434 12.3359 17.742 12.3359 17.742Z" fill="#FFE15A"/>
<path d="M11.1113 17.4369C11.1724 17.4541 11.2319 17.4666 11.2506 17.5418C11.2506 17.5418 11.3133 17.4165 11.2256 17.3414C11.2097 17.3277 11.1113 17.4369 11.1113 17.4369Z" fill="#FF4B55"/>
<path d="M11.3711 17.227C11.4322 17.2442 11.4917 17.2568 11.5104 17.3319C11.5104 17.3319 11.573 17.2067 11.4854 17.1316C11.4694 17.1179 11.3711 17.227 11.3711 17.227Z" fill="#FF4B55"/>
<path d="M11.1327 17.6623C11.0952 17.6529 11.0294 17.5683 11.114 17.4368C11.1985 17.3054 10.8275 17.5026 10.8134 17.6106C10.7993 17.7186 10.7852 17.9112 10.8697 17.8595C10.9543 17.8079 11.1327 17.6623 11.1327 17.6623Z" fill="#FFE15A"/>
<path d="M11.5358 17.6764C11.5483 17.6075 11.5358 17.5606 11.6234 17.498C11.7111 17.4354 11.7236 17.4009 11.7236 17.3602C11.7236 17.3602 11.6758 17.4111 11.5913 17.4322C11.5396 17.4452 11.495 17.4823 11.495 17.4823C11.495 17.4823 11.4731 17.4041 11.5514 17.3602C11.5514 17.3602 11.4136 17.3602 11.3917 17.4855C11.3697 17.6107 11.4418 17.6295 11.3384 17.642C11.2351 17.6546 10.994 17.6044 10.9095 17.7955C10.8249 17.9865 11.0817 17.8487 11.1505 17.8236C11.2194 17.7986 11.4386 17.8518 11.473 17.8048C11.5076 17.7579 11.5358 17.6764 11.5358 17.6764Z" fill="#FF4B55"/>
<path d="M10.6326 18.0193L11.0036 17.4088C11.0036 17.4088 11.3722 17.2663 11.3754 17.2475C11.3785 17.2288 11.4975 17.0753 11.4975 17.0534C11.4975 17.0315 11.485 16.9251 11.438 16.9063C11.391 16.8875 11.2415 16.9506 11.1765 16.9672C11.1116 16.9838 11.009 16.8624 11.009 16.8624C11.009 16.8624 10.411 16.9752 10.3672 17.0472C10.3234 17.1192 10.1167 17.6358 10.1073 17.689C10.0979 17.7423 10.1073 18.1086 10.1198 18.1023C10.1324 18.096 10.6326 18.0193 10.6326 18.0193Z" fill="#FFF5E6"/>
<path d="M11.5194 16.9625C11.463 16.881 11.3597 16.8811 11.3159 16.9468C11.272 17.0125 11.1781 17.0125 11.1562 17.094C11.1389 17.1582 11.2439 17.2755 11.3065 17.2537C11.3691 17.2317 11.4849 17.1597 11.4849 17.1597C11.4849 17.1597 11.5757 17.0439 11.5194 16.9625ZM11.3479 17.1283C11.3222 17.1611 11.2577 17.1203 11.2573 17.0838C11.2568 17.0473 11.3107 17.0453 11.3375 17.0642C11.355 17.0765 11.3689 17.1015 11.3479 17.1283ZM11.4445 17.0471C11.4069 17.0652 11.367 17.0001 11.3827 16.9672C11.3985 16.9343 11.4477 16.9562 11.4634 16.985C11.4736 17.0038 11.475 17.0324 11.4445 17.0471Z" fill="#FF4B55"/>
<path d="M11.6381 19.3312C11.7005 19.3374 11.7831 19.3289 11.8003 19.1877C11.82 19.0259 11.8689 18.9694 11.95 19.0068C12.0311 19.0442 12.011 19.1089 12.011 19.1089C12.011 19.1089 12.1002 19.3437 12.0533 19.4377C12.0063 19.5316 11.8983 19.6444 11.8184 19.6631C11.7386 19.6819 11.5742 19.5739 11.5742 19.5739L11.6381 19.3312Z" fill="#FFF5E6"/>
<path d="M11.1878 18.7848C11.241 18.7598 11.8985 18.3026 11.9768 18.1304C12.0551 17.9582 12.0113 17.833 12.1146 17.8267C12.2179 17.8204 12.3933 17.8142 12.3776 17.6858C12.3619 17.5574 12.1897 17.6389 12.1428 17.6138C12.0958 17.5888 11.9486 17.5199 11.9204 17.6201C11.8922 17.7203 11.9204 17.8111 11.8797 17.8612C11.8391 17.9113 11.6574 17.9989 11.6261 17.9927C11.5948 17.9864 11.5279 17.9782 11.4768 18.0105C11.4257 18.0427 11.3975 18.0866 11.3975 18.0866C11.3975 18.0866 11.205 18.0944 11.1776 18.1202C11.1502 18.146 11.0469 18.2838 11.0469 18.2838L11.1878 18.7848Z" fill="#FFE6D7"/>
<path d="M11.2565 18.6814C11.2565 18.6814 11.3818 18.6345 11.471 18.4607C11.5603 18.2869 11.6495 18.3574 11.781 18.2634C11.9125 18.1695 11.828 18.0286 11.7904 17.9723C11.7528 17.9159 11.7787 17.7703 11.9078 17.775C11.9928 17.7781 12.2647 18.0427 12.1426 18.3057C12.1426 18.3057 12.1238 18.2588 12.0769 18.2024C12.0769 18.2024 12.1473 18.3762 11.9829 18.5687C11.9829 18.5687 11.9876 18.4701 11.936 18.4044C11.936 18.4044 11.9313 18.6486 11.7434 18.8036C11.7434 18.8036 11.7669 18.6439 11.7387 18.5782C11.7387 18.5782 11.7106 18.7895 11.4334 18.9821C11.4334 18.9821 11.4757 18.9069 11.4663 18.7848L11.2314 18.9069L11.2565 18.6814Z" fill="#5AA587"/>
<path d="M9.47013 19.4845C9.47013 19.4845 9.38561 19.7429 9.61572 19.818C9.84587 19.8931 9.97267 19.7945 10.0572 19.818C10.1417 19.8415 10.123 19.9918 10.0055 20.1186C9.88811 20.2454 9.77069 20.2595 9.63921 20.1655C9.50772 20.0716 9.4983 19.9871 9.36213 20.0199C9.22591 20.0528 9.03809 19.9213 9.03809 19.9213C9.03809 19.9213 9.16019 19.3906 9.1743 19.3953C9.18832 19.4 9.47013 19.4845 9.47013 19.4845Z" fill="#F5DCD2"/>
<path d="M8.27683 18.8384C8.27683 18.8384 8.43902 18.6824 9.06901 18.489C9.69901 18.2957 10.0358 18.2146 10.0358 18.2146L10.5286 18.0586C10.5286 18.0586 10.7606 18.0577 10.9128 18.0145C11.0651 17.9713 11.0651 17.9713 11.0651 17.9713C11.0651 17.9713 11.4705 18.5452 11.1649 19.1253L11.2709 19.2251C11.2709 19.2251 11.3824 19.2591 11.467 19.2889C11.5516 19.3186 11.4892 19.4808 11.4892 19.4808L11.1648 19.6305L10.2167 19.5869C10.2167 19.5869 10.198 19.5432 9.88608 19.643C9.57418 19.7428 9.43698 19.5183 8.83815 19.4996C8.23933 19.4808 8.27683 18.8384 8.27683 18.8384Z" fill="#FFF5E6"/>
<path d="M10.9723 16.5993C10.9723 16.5993 11.0678 16.6948 11.0161 16.7966C11.0161 16.7966 10.9097 16.687 10.822 16.6619C10.6871 16.6234 10.6592 16.6972 10.361 16.7113C10.1733 16.7201 10.0975 16.8999 9.91401 16.856C9.71756 16.8091 9.55551 16.8991 9.55551 16.8991C9.55551 16.8991 9.66824 16.8851 9.75984 16.9719C9.85138 17.0588 10.0134 17.04 10.0134 17.04C10.0134 17.04 9.86549 17.1433 9.74104 17.094C9.61659 17.0447 9.43809 17.1363 9.43809 17.1363C9.47095 17.1339 9.54374 17.1456 9.62596 17.2325C9.70813 17.3195 9.89132 17.2983 9.89132 17.2983C9.85846 17.3382 9.76687 17.3828 9.68034 17.3663C9.48421 17.3287 9.27487 17.4162 9.27487 17.4162C9.27487 17.4162 9.39961 17.3726 9.56803 17.4973C9.73645 17.622 9.9298 17.5472 9.9298 17.5472C9.9298 17.6283 9.76101 17.9407 9.46153 17.93C9.08864 17.9168 8.99414 18.1335 8.99414 18.1335C8.99414 18.1335 9.14386 18.0836 9.33722 18.1148C9.71179 18.1752 9.96721 17.9589 9.96721 17.9589C9.96721 17.9589 9.90482 18.252 9.64907 18.2396C9.39332 18.2271 9.06895 18.4891 9.06895 18.4891C9.06895 18.4891 9.35714 18.4371 9.72918 18.4326C9.85157 18.4311 9.95108 18.3828 10.0362 18.3254C10.2599 18.1743 10.4666 18.1743 10.4666 18.1743C10.2223 18.2306 10.0956 18.4983 10.0956 18.4983C10.0956 18.4983 10.2834 18.3339 10.5558 18.3339C10.8282 18.3339 10.9128 18.0146 10.9128 18.0146C10.6591 18.0192 10.6216 17.8126 10.6216 17.8126C10.6216 17.8126 10.5464 17.8361 10.476 17.9206C10.4314 17.9741 10.3561 17.9922 10.3045 17.9995C10.2857 17.8347 10.4101 17.6844 10.4101 17.6844C10.4101 17.6844 10.2417 17.4286 10.46 17.1542C10.6783 16.8797 11.1773 16.967 11.1773 16.967C11.2291 16.7371 11.0349 16.593 10.9723 16.5993Z" fill="#5AA587"/>
<path d="M10.4658 17.5073C10.5472 17.4948 10.9261 17.3695 10.9198 17.2005C10.9136 17.0314 10.6881 17.0909 10.7007 17.1817C10.7132 17.2725 10.7946 17.2537 10.7946 17.2537C10.7946 17.2537 10.7867 17.2945 10.6192 17.3288C10.4815 17.357 10.4658 17.5073 10.4658 17.5073Z" fill="#5AA587"/>
<path d="M11.4674 19.2889C11.4674 19.2889 11.7022 19.2513 11.6928 19.4204C11.6834 19.5894 11.5487 19.7679 11.2701 19.8462C11.2701 19.8462 11.3734 19.7569 11.3499 19.7053C11.3264 19.6536 11.209 19.6395 11.148 19.7287C11.0869 19.818 10.9836 19.8555 10.8943 19.8415C10.8943 19.8415 11.054 19.7241 10.9413 19.6818C10.8398 19.6437 10.8787 19.8086 10.636 19.8367C10.636 19.8367 10.8144 19.6958 10.7111 19.6583C10.6078 19.6207 10.5514 19.865 10.3683 19.8462C10.3683 19.8462 10.5217 19.6927 10.4388 19.6677C10.3081 19.6283 10.2744 19.8556 10.0395 19.757C10.0395 19.757 10.1569 19.7053 10.063 19.5785C9.96907 19.4517 10.1006 19.292 10.1663 19.2263C10.2321 19.1605 10.279 19.1183 10.2603 19.0525C10.2603 19.0525 10.4278 19.1574 10.3432 19.3421C10.2639 19.5156 10.5852 19.4198 10.8348 19.3985C11.0915 19.3765 11.2439 19.5238 11.4078 19.4736C11.5613 19.4266 11.4674 19.2889 11.4674 19.2889Z" fill="#5AA587"/>
<path d="M6.92383 19.3686C6.92383 19.3686 7.23194 19.5107 7.40659 19.3672C7.58124 19.2237 7.62868 19.3935 7.83455 19.2688C8.04038 19.1441 8.02791 19.2127 8.1901 19.2127C8.35228 19.2127 8.47078 18.9507 8.37099 18.7698C8.37099 18.7698 8.7097 18.6384 8.64023 18.3669C8.58858 18.1649 8.33358 18.2271 8.33358 18.2271C8.33358 18.2271 8.06447 18.0579 7.87824 18.277C7.72599 18.4561 7.80962 18.5764 7.55387 18.6076C7.29812 18.6389 7.26072 18.9008 6.98627 18.8696C6.98627 18.8696 7.17339 19.1129 7.46031 18.957C7.46031 18.957 7.45351 19.1918 6.92383 19.3686Z" fill="#5AA587"/>
<path d="M9.64998 19.8274C9.64998 19.8274 9.91299 20.0622 9.39634 20.2031C9.39634 20.2031 9.4292 20.1609 9.46679 20.0857C9.46679 20.0857 9.30709 20.2031 9.10047 20.1937C9.10047 20.1937 9.16154 20.1467 9.17561 20.0904C9.17561 20.0904 8.98773 20.1421 8.85156 20.0528C8.85156 20.0528 9.01595 20.0434 9.11926 19.8884C9.11926 19.8884 9.16623 19.9824 9.26486 19.9354C9.36348 19.8884 9.42001 19.956 9.50907 19.9589C9.58187 19.9612 9.64529 19.9237 9.64998 19.8274Z" fill="#5AA587"/>
<path d="M9.51998 18.3777C9.51998 18.3777 9.33211 18.4653 9.41981 18.6313C9.47826 18.7419 9.66135 18.7685 9.73293 18.6657C9.79401 18.5781 9.74554 18.493 9.68128 18.481C9.61396 18.4685 9.57328 18.4967 9.54196 18.553C9.54196 18.553 9.42604 18.5092 9.51998 18.3777Z" fill="#5AA587"/>
<path d="M10.3633 18.6697C10.3633 18.6697 10.7712 18.6852 10.7507 18.9679C10.7417 19.0923 10.5735 19.1791 10.4673 19.1139C10.3768 19.0583 10.3915 18.9655 10.4387 18.9244C10.4907 18.8792 10.5422 18.8955 10.5933 18.9345C10.5933 18.9345 10.6192 18.78 10.3633 18.6697Z" fill="#5AA587"/>
<path d="M11.1777 18.1202C11.1777 18.1202 11.398 17.9724 11.4836 18.1483C11.5213 18.2257 11.451 18.3358 11.365 18.3337C11.2917 18.3318 11.2683 18.2714 11.2823 18.2305C11.2977 18.1854 11.3341 18.1773 11.3781 18.1829C11.3781 18.1829 11.3914 18.0686 11.1777 18.1202Z" fill="#5AA587"/>
<path d="M11.4775 18.0105C11.4775 18.0105 11.6806 17.8742 11.7597 18.0364C11.7945 18.1078 11.7296 18.2094 11.6503 18.2074C11.5827 18.2057 11.5611 18.15 11.574 18.1122C11.5882 18.0706 11.6218 18.0632 11.6623 18.0683C11.6623 18.0683 11.6746 17.9628 11.4775 18.0105Z" fill="#5AA587"/>
<path d="M10.7168 18.9114C10.7168 18.9114 11.0678 18.9247 11.0502 19.168C11.0425 19.275 10.8977 19.3498 10.8063 19.2936C10.7284 19.2457 10.7242 19.1579 10.758 19.1159C10.8167 19.0431 10.8871 19.076 10.8871 19.076C10.8871 19.076 10.9371 19.0063 10.7168 18.9114Z" fill="#5AA587"/>
<path d="M10.9736 19.1042C10.9736 19.1042 11.3611 19.0666 11.3323 19.3281C11.3248 19.3964 11.2348 19.4444 11.1763 19.4085C11.1265 19.3778 11.1238 19.3216 11.1454 19.2948C11.183 19.2483 11.2281 19.2693 11.2281 19.2693C11.2281 19.2693 11.2038 19.1535 10.9736 19.1042Z" fill="#5AA587"/>
<path d="M8.4882 20.3479C8.4882 20.3479 8.54121 20.4555 8.57553 20.5599C8.60487 20.6493 8.75642 20.7096 8.83751 20.6535C8.9186 20.5973 9.05552 20.4296 8.99941 20.3922C8.94326 20.3548 8.70031 20.3853 8.66285 20.2543C8.62545 20.1233 8.63792 20.0359 8.63792 20.0359C8.63792 20.0359 8.96299 20.1326 9.11801 19.8884C9.27297 19.6442 9.25085 19.4057 9.3116 19.2874C9.35908 19.1948 9.44257 19.1501 9.44257 19.1501C9.34708 18.772 8.18258 18.5014 8.31772 19.4828L8.13477 19.8986L8.4882 20.3479Z" fill="#FFE6D7"/>
<path d="M8.07825 20.3317C8.15807 20.3833 8.45085 20.532 8.63244 20.4193C8.78094 20.3272 8.78273 20.2221 8.68879 20.1986C8.59485 20.1751 8.5432 20.2409 8.49154 20.1986C8.43988 20.1563 8.1487 19.9168 8.2567 19.8416C8.3647 19.7665 8.4232 19.7057 8.42109 19.5739C8.41954 19.4768 8.33498 19.3829 8.23481 19.3735C8.10989 19.3618 8.01248 19.4142 7.881 19.4142L8.03442 19.4925C7.9358 19.5395 7.92797 19.6725 7.81055 19.696C7.81055 19.696 7.89037 19.7868 7.99059 19.7587C7.99059 19.7587 7.95614 19.8526 7.8622 19.8651C7.8622 19.8651 7.94986 19.9653 8.03128 19.9935C8.03128 19.9935 7.97803 20.0311 7.89506 20.0154C7.89506 20.0154 8.025 20.2064 8.21911 20.255L8.07825 20.3317Z" fill="#5AA587"/>
<path d="M8.64423 19.974C8.64423 19.974 8.6964 19.9649 8.7009 19.9014C8.70348 19.8648 8.66691 19.8173 8.60471 19.8209C8.53182 19.825 8.48237 19.9218 8.51734 19.986C8.60673 20.1501 8.93954 20.0843 8.98022 20.0248C8.98022 20.0248 8.71402 20.0373 8.64423 19.974Z" fill="#5AA587"/>
<path d="M8.79494 20.7542C8.80942 20.7338 8.82114 20.6787 8.79297 20.6446C8.79297 20.6446 8.80825 20.5659 8.86811 20.5941C8.86811 20.5941 8.89356 20.6571 8.87322 20.7009C8.85287 20.7448 8.79494 20.7542 8.79494 20.7542Z" fill="#FFE15A"/>
<path d="M8.91772 20.7101C8.91669 20.6533 8.90399 20.6223 8.85819 20.6176C8.85819 20.6176 8.84647 20.5354 8.91453 20.5354C8.91453 20.5354 8.96502 20.58 8.96549 20.6284C8.96596 20.6766 8.91772 20.7101 8.91772 20.7101Z" fill="#FFE15A"/>
<path d="M8.99349 20.6552C8.98234 20.5995 8.97179 20.5608 8.92079 20.557C8.92079 20.557 8.89365 20.4897 8.96879 20.4803C8.96879 20.4803 9.0167 20.5188 9.02584 20.5662C9.03498 20.6137 8.99349 20.6552 8.99349 20.6552Z" fill="#FFE15A"/>
<path d="M9.06896 20.5688C9.04585 20.5169 9.02284 20.4962 8.97226 20.5037C8.97226 20.5037 8.9288 20.4426 8.98871 20.4098C8.98871 20.4098 9.0616 20.4306 9.08096 20.4749C9.10032 20.5192 9.06896 20.5688 9.06896 20.5688Z" fill="#FFE15A"/>
<path d="M9.95985 20.2512C9.97049 20.2286 9.97223 20.1722 9.93848 20.1437C9.93848 20.1437 9.93955 20.0636 10.0034 20.0806C10.0034 20.0806 10.0397 20.1381 10.0274 20.1849C10.0152 20.2317 9.95985 20.2512 9.95985 20.2512Z" fill="#FFE15A"/>
<path d="M10.0722 20.1861C10.0611 20.1305 10.0431 20.1021 9.99721 20.1057C9.99721 20.1057 9.97106 20.0269 10.0381 20.0148C10.0381 20.0148 10.0957 20.0497 10.1047 20.0972C10.1138 20.1447 10.0722 20.1861 10.0722 20.1861Z" fill="#FFE15A"/>
<path d="M10.1374 20.1186C10.1165 20.0658 10.0993 20.0296 10.0484 20.0349C10.0484 20.0349 10.0098 19.9735 10.0821 19.9509C10.0821 19.9509 10.136 19.9802 10.1534 20.0253C10.1708 20.0704 10.1374 20.1186 10.1374 20.1186Z" fill="#FFE15A"/>
<path d="M10.1961 20.0201C10.1641 19.9733 10.1378 19.9569 10.0894 19.9733C10.0894 19.9733 10.0358 19.9209 10.0889 19.8779C10.0889 19.8779 10.1643 19.8855 10.1912 19.9256C10.2181 19.9658 10.1961 20.0201 10.1961 20.0201Z" fill="#FFE15A"/>
<path d="M11.5223 17.1284C11.5325 17.1793 11.5067 17.2349 11.3845 17.2881C11.2624 17.3414 11.2656 17.3195 11.1842 17.4228C11.1027 17.5261 11.0934 17.5292 10.9931 17.548C10.893 17.5668 10.846 17.8768 10.965 17.8298C11.0839 17.7829 11.0996 17.6858 11.2311 17.7171C11.3627 17.7484 11.4315 17.7922 11.5348 17.6764C11.5348 17.6764 11.635 17.811 11.4472 17.8674C11.2593 17.9238 11.1568 17.9281 11.064 17.9713C10.9713 18.0146 10.6421 18.1202 10.6205 17.8126C10.6143 17.7234 10.68 17.6889 10.7176 17.6232C10.7552 17.5574 10.7928 17.5136 10.8835 17.4416C10.9743 17.3696 10.918 17.3101 11.0651 17.2881C11.2123 17.2662 11.3344 17.2693 11.3783 17.1629C11.4221 17.0564 11.5098 17.0658 11.5223 17.1284Z" fill="#FFE6D7"/>
<path d="M9.06112 18.6212C9.06112 18.6212 9.0329 18.509 9.16372 18.4614C9.13297 18.4708 9.1048 18.4791 9.07246 18.489C9.04494 18.4975 9.0231 18.5054 8.99732 18.5137C8.98729 18.5273 8.97379 18.5344 8.96699 18.5534C8.9272 18.6649 9.02568 18.8095 9.14305 18.7938C9.24318 18.7803 9.27158 18.6921 9.23882 18.6397C9.20465 18.5848 9.12922 18.5719 9.06112 18.6212Z" fill="#5AA587"/>
<path d="M9.10205 19.8123C8.96012 19.844 8.89618 19.7892 8.89618 19.7892C8.89618 19.7892 8.94835 19.7801 8.95285 19.7166C8.95543 19.68 8.91887 19.6325 8.85666 19.6361C8.78377 19.6402 8.73432 19.737 8.76929 19.8012C8.84621 19.9423 9.06469 19.909 9.16097 19.8089C9.16604 19.7986 9.17128 19.7884 9.17583 19.7782C9.15474 19.7914 9.12779 19.8065 9.10205 19.8123Z" fill="#5AA587"/>
<path d="M9.24545 19.5749C9.24906 19.5588 9.25422 19.5426 9.25722 19.5272C9.09034 19.5947 9.04169 19.5097 9.04169 19.5097C9.04169 19.5097 9.09386 19.5007 9.09836 19.4371C9.10094 19.4005 9.06437 19.353 9.00217 19.3566C8.92928 19.3608 8.87983 19.4576 8.9148 19.5218C8.99631 19.6714 9.14167 19.6298 9.24545 19.5749Z" fill="#5AA587"/>
<path d="M9.62011 19.6543C9.52312 19.7412 9.44897 19.7364 9.44897 19.7364C9.44897 19.7364 9.48773 19.7004 9.4568 19.6447C9.43894 19.6126 9.38241 19.5928 9.33225 19.6297C9.27347 19.673 9.28486 19.7811 9.34917 19.8158C9.50752 19.9011 9.61026 19.7692 9.6652 19.6629C9.65029 19.6609 9.63515 19.6574 9.62011 19.6543Z" fill="#5AA587"/>
<path d="M12.119 19.5702C12.112 19.5356 12.0757 19.4698 12.0311 19.4653C12.0311 19.4653 11.9785 19.3729 12.0384 19.3394C12.0384 19.3394 12.1041 19.3749 12.126 19.4384C12.1479 19.5021 12.119 19.5702 12.119 19.5702Z" fill="#FFE15A"/>
<path d="M12.1603 19.4026C12.1149 19.3482 12.0823 19.3309 12.05 19.373C12.05 19.373 11.9776 19.3048 12.0203 19.2354C12.0203 19.2354 12.0872 19.2274 12.1257 19.2741C12.1642 19.3208 12.1603 19.4026 12.1603 19.4026Z" fill="#FFE15A"/>
<path d="M12.1648 19.2719C12.1139 19.229 12.0767 19.202 12.0417 19.2502C12.0417 19.2502 11.9715 19.2122 12.0112 19.1264C12.0112 19.1264 12.0716 19.115 12.1148 19.1521C12.158 19.1892 12.1648 19.2719 12.1648 19.2719Z" fill="#FFE15A"/>
<path d="M12.144 19.1108C12.0885 19.0838 12.0577 19.0869 12.0319 19.1458C12.0319 19.1458 11.9565 19.1305 11.968 19.0374C11.968 19.0374 12.0302 18.9834 12.0773 19.0069C12.1244 19.0304 12.144 19.1108 12.144 19.1108Z" fill="#FFE15A"/>
<path d="M11.005 17.2552C11.0516 17.3393 10.9661 17.4248 10.8819 17.3782C10.8711 17.3722 10.862 17.3631 10.856 17.3523C10.8094 17.2681 10.8949 17.1827 10.979 17.2292C10.9898 17.2353 10.999 17.2444 11.005 17.2552Z" fill="#F5F5F5"/>
<path d="M10.9583 17.2882C10.9724 17.3173 10.9438 17.3459 10.9147 17.3318C10.9094 17.3292 10.9048 17.3247 10.9021 17.3193C10.8881 17.2902 10.9166 17.2616 10.9457 17.2757C10.9511 17.2782 10.9557 17.2828 10.9583 17.2882Z" fill="#41479B"/>
<path d="M11.1733 16.9453C11.2097 17.013 11.1415 17.0812 11.0738 17.0448C11.0643 17.0397 11.0562 17.0316 11.0512 17.0221C11.0147 16.9545 11.083 16.8862 11.1507 16.9226C11.1601 16.9277 11.1682 16.9358 11.1733 16.9453Z" fill="#F5F5F5"/>
<path d="M11.1351 16.9724C11.145 16.9951 11.1232 17.0169 11.1004 17.0071C11.0952 17.0048 11.0907 17.0003 11.0884 16.995C11.0785 16.9723 11.1003 16.9505 11.1231 16.9603C11.1283 16.9626 11.1328 16.9671 11.1351 16.9724Z" fill="#41479B"/>
<path d="M8.58219 18.7049C8.50109 18.7673 8.22055 18.6298 8.0233 18.6955C7.76835 18.7805 7.77051 18.9444 7.77051 18.9444C7.77051 18.9444 7.92937 18.7472 8.19397 18.8443C8.34036 18.898 8.42549 18.9007 8.42549 18.9007L8.58219 18.7049Z" fill="#FFF5E6"/>
<path d="M13.1903 17.7421C13.1363 17.7351 13.0682 17.7186 13.0635 17.6365C13.0635 17.6365 13.1856 17.6248 13.1856 17.6341C13.1856 17.6435 13.1903 17.7421 13.1903 17.7421Z" fill="#FFE15A"/>
<path d="M14.4198 17.4369C14.3587 17.4541 14.2992 17.4666 14.2805 17.5418C14.2805 17.5418 14.2178 17.4165 14.3055 17.3414C14.3214 17.3277 14.4198 17.4369 14.4198 17.4369Z" fill="#FF4B55"/>
<path d="M14.159 17.227C14.098 17.2442 14.0385 17.2568 14.0197 17.3319C14.0197 17.3319 13.9571 17.2067 14.0448 17.1316C14.0607 17.1179 14.159 17.227 14.159 17.227Z" fill="#FF4B55"/>
<path d="M14.3975 17.6623C14.4351 17.6529 14.5008 17.5683 14.4163 17.4368C14.3317 17.3054 14.7028 17.5026 14.7168 17.6106C14.7309 17.7186 14.745 17.9112 14.6605 17.8595C14.576 17.8079 14.3975 17.6623 14.3975 17.6623Z" fill="#FFE15A"/>
<path d="M13.9954 17.6764C13.9829 17.6075 13.9954 17.5606 13.9078 17.498C13.8201 17.4354 13.8076 17.4009 13.8076 17.3602C13.8076 17.3602 13.8554 17.4111 13.9399 17.4322C13.9916 17.4452 14.0362 17.4823 14.0362 17.4823C14.0362 17.4823 14.0581 17.4041 13.9798 17.3602C13.9798 17.3602 14.1176 17.3602 14.1395 17.4855C14.1615 17.6107 14.0894 17.6295 14.1928 17.642C14.2961 17.6546 14.5372 17.6044 14.6217 17.7955C14.7062 17.9865 14.4495 17.8487 14.3807 17.8236C14.3118 17.7986 14.0926 17.8518 14.0582 17.8048C14.0236 17.7579 13.9954 17.6764 13.9954 17.6764Z" fill="#FF4B55"/>
<path d="M14.8981 18.0193L14.5271 17.4088C14.5271 17.4088 14.1585 17.2663 14.1553 17.2475C14.1522 17.2288 14.0332 17.0753 14.0332 17.0534C14.0332 17.0315 14.0457 16.9251 14.0927 16.9063C14.1397 16.8875 14.2892 16.9506 14.3542 16.9672C14.4191 16.9837 14.5216 16.8624 14.5216 16.8624C14.5216 16.8624 15.1197 16.9752 15.1635 17.0472C15.2073 17.1192 15.414 17.6358 15.4234 17.689C15.4327 17.7423 15.4234 18.1086 15.4108 18.1023C15.3983 18.096 14.8981 18.0193 14.8981 18.0193Z" fill="#FFF5E6"/>
<path d="M14.0451 17.1598C14.0451 17.1598 14.1609 17.2318 14.2235 17.2538C14.2862 17.2757 14.3912 17.1583 14.3738 17.0941C14.3519 17.0127 14.258 17.0127 14.2142 16.9469C14.1703 16.8812 14.067 16.8812 14.0106 16.9626C13.9543 17.044 14.0451 17.1598 14.0451 17.1598ZM14.1925 17.0643C14.2193 17.0453 14.2732 17.0474 14.2727 17.0838C14.2723 17.1203 14.2078 17.1611 14.1821 17.1283C14.1611 17.1015 14.175 17.0766 14.1925 17.0643ZM14.0667 16.9851C14.0824 16.9563 14.1315 16.9343 14.1473 16.9672C14.163 17.0001 14.1231 17.0652 14.0855 17.0472C14.0549 17.0324 14.0564 17.0039 14.0667 16.9851Z" fill="#FF4B55"/>
<path d="M13.8917 19.3312C13.8293 19.3374 13.7467 19.3289 13.7295 19.1877C13.7098 19.0259 13.6609 18.9694 13.5798 19.0068C13.4987 19.0442 13.5188 19.1089 13.5188 19.1089C13.5188 19.1089 13.4296 19.3437 13.4765 19.4377C13.5235 19.5316 13.6315 19.6444 13.7114 19.6631C13.7913 19.6819 13.9556 19.5739 13.9556 19.5739L13.8917 19.3312Z" fill="#FFF5E6"/>
<path d="M14.3422 18.7848C14.2889 18.7598 13.6314 18.3026 13.5531 18.1304C13.4748 17.9582 13.5187 17.833 13.4154 17.8267C13.3121 17.8204 13.1367 17.8142 13.1523 17.6858C13.168 17.5574 13.3402 17.6389 13.3872 17.6138C13.4342 17.5888 13.5813 17.5199 13.6095 17.6201C13.6377 17.7203 13.6095 17.8111 13.6502 17.8612C13.6909 17.9113 13.8725 17.9989 13.9038 17.9927C13.9352 17.9864 14.002 17.9782 14.0531 18.0105C14.1042 18.0427 14.1324 18.0866 14.1324 18.0866C14.1324 18.0866 14.325 18.0944 14.3523 18.1202C14.3797 18.146 14.4831 18.2838 14.4831 18.2838L14.3422 18.7848Z" fill="#FFE6D7"/>
<path d="M14.2736 18.6814C14.2736 18.6814 14.1483 18.6345 14.0591 18.4607C13.9698 18.2869 13.8806 18.3574 13.7491 18.2634C13.6176 18.1695 13.7021 18.0286 13.7397 17.9723C13.7773 17.9159 13.7515 17.7703 13.6223 17.775C13.5373 17.7781 13.2654 18.0427 13.3875 18.3057C13.3875 18.3057 13.4063 18.2588 13.4532 18.2024C13.4532 18.2024 13.3828 18.3762 13.5472 18.5687C13.5472 18.5687 13.5425 18.4701 13.5941 18.4044C13.5941 18.4044 13.5988 18.6486 13.7867 18.8036C13.7867 18.8036 13.7632 18.6439 13.7914 18.5782C13.7914 18.5782 13.8196 18.7895 14.0967 18.9821C14.0967 18.9821 14.0544 18.9069 14.0638 18.7848L14.2987 18.9069L14.2736 18.6814Z" fill="#5AA587"/>
<path d="M16.0602 19.4845C16.0602 19.4845 16.1447 19.7429 15.9146 19.818C15.6845 19.8931 15.5576 19.7945 15.4731 19.818C15.3886 19.8415 15.4073 19.9918 15.5248 20.1186C15.6422 20.2454 15.7596 20.2595 15.8911 20.1655C16.0226 20.0716 16.032 19.9871 16.1682 20.0199C16.3044 20.0528 16.4922 19.9213 16.4922 19.9213C16.4922 19.9213 16.3701 19.3906 16.356 19.3953C16.342 19.4 16.0602 19.4845 16.0602 19.4845Z" fill="#F5DCD2"/>
<path d="M17.254 18.8384C17.254 18.8384 17.0919 18.6824 16.4619 18.489C15.8319 18.2957 15.495 18.2146 15.495 18.2146L15.0022 18.0586C15.0022 18.0586 14.7703 18.0577 14.6181 18.0145C14.4658 17.9713 14.4658 17.9713 14.4658 17.9713C14.4658 17.9713 14.0603 18.5452 14.366 19.1253L14.26 19.2251C14.26 19.2251 14.1485 19.2591 14.0639 19.2889C13.9793 19.3186 14.0417 19.4808 14.0417 19.4808L14.3661 19.6305L15.3142 19.5869C15.3142 19.5869 15.3329 19.5432 15.6448 19.643C15.9567 19.7429 16.0939 19.5183 16.6927 19.4996C17.2915 19.4808 17.254 18.8384 17.254 18.8384Z" fill="#FFF5E6"/>
<path d="M14.5545 16.5993C14.5545 16.5993 14.459 16.6948 14.5107 16.7966C14.5107 16.7966 14.6171 16.687 14.7048 16.6619C14.8397 16.6234 14.8676 16.6972 15.1658 16.7113C15.3535 16.7201 15.4293 16.8999 15.6128 16.856C15.8092 16.8091 15.9713 16.8991 15.9713 16.8991C15.9713 16.8991 15.8586 16.8851 15.767 16.9719C15.6754 17.0588 15.5134 17.04 15.5134 17.04C15.5134 17.04 15.6613 17.1433 15.7858 17.094C15.9102 17.0447 16.0887 17.1363 16.0887 17.1363C16.0559 17.1339 15.9831 17.1456 15.9008 17.2325C15.8187 17.3195 15.6355 17.2983 15.6355 17.2983C15.6683 17.3382 15.7599 17.3828 15.8465 17.3663C16.0426 17.3287 16.2519 17.4162 16.2519 17.4162C16.2519 17.4162 16.1272 17.3726 15.9588 17.4973C15.7904 17.622 15.597 17.5472 15.597 17.5472C15.597 17.6283 15.7658 17.9407 16.0653 17.93C16.4382 17.9168 16.5327 18.1335 16.5327 18.1335C16.5327 18.1335 16.3829 18.0836 16.1896 18.1148C15.815 18.1752 15.5596 17.9589 15.5596 17.9589C15.5596 17.9589 15.622 18.252 15.8777 18.2396C16.1335 18.2271 16.4578 18.4891 16.4578 18.4891C16.4578 18.4891 16.1697 18.4371 15.7976 18.4326C15.6752 18.4311 15.5757 18.3828 15.4906 18.3254C15.2669 18.1743 15.0602 18.1743 15.0602 18.1743C15.3045 18.2306 15.4312 18.4983 15.4312 18.4983C15.4312 18.4983 15.2434 18.3339 14.971 18.3339C14.6986 18.3339 14.614 18.0146 14.614 18.0146C14.8677 18.0192 14.9052 17.8126 14.9052 17.8126C14.9052 17.8126 14.9804 17.8361 15.0508 17.9206C15.0954 17.9741 15.1707 17.9922 15.2223 17.9995C15.2411 17.8347 15.1167 17.6844 15.1167 17.6844C15.1167 17.6844 15.2851 17.4286 15.0668 17.1542C14.8485 16.8797 14.3495 16.967 14.3495 16.967C14.2978 16.7371 14.4919 16.593 14.5545 16.5993Z" fill="#5AA587"/>
<path d="M15.0625 17.5073C14.981 17.4948 14.6022 17.3695 14.6085 17.2005C14.6148 17.0314 14.8402 17.0909 14.8277 17.1817C14.8151 17.2725 14.7337 17.2537 14.7337 17.2537C14.7337 17.2537 14.7416 17.2945 14.9091 17.3288C15.0468 17.357 15.0625 17.5073 15.0625 17.5073Z" fill="#5AA587"/>
<path d="M14.0597 19.2889C14.0597 19.2889 13.8248 19.2513 13.8343 19.4204C13.8436 19.5894 13.9783 19.7679 14.257 19.8462C14.257 19.8462 14.1537 19.7569 14.1771 19.7053C14.2006 19.6536 14.3181 19.6395 14.3791 19.7287C14.4402 19.818 14.5435 19.8555 14.6327 19.8415C14.6327 19.8415 14.473 19.7241 14.5858 19.6818C14.6873 19.6437 14.6484 19.8086 14.891 19.8367C14.891 19.8367 14.7126 19.6958 14.8159 19.6583C14.9192 19.6207 14.9756 19.865 15.1587 19.8462C15.1587 19.8462 15.0053 19.6927 15.0883 19.6677C15.219 19.6283 15.2527 19.8556 15.4875 19.757C15.4875 19.757 15.3701 19.7053 15.464 19.5785C15.558 19.4517 15.4264 19.292 15.3607 19.2263C15.295 19.1605 15.248 19.1183 15.2668 19.0525C15.2668 19.0525 15.0993 19.1574 15.1838 19.3421C15.2632 19.5156 14.9419 19.4198 14.6923 19.3985C14.4355 19.3765 14.2832 19.5238 14.1193 19.4736C13.9657 19.4266 14.0597 19.2889 14.0597 19.2889Z" fill="#5AA587"/>
<path d="M18.6037 19.3686C18.6037 19.3686 18.2956 19.5107 18.121 19.3672C17.9463 19.2237 17.8989 19.3935 17.693 19.2688C17.4872 19.1441 17.4996 19.2127 17.3375 19.2127C17.1753 19.2127 17.0568 18.9507 17.1566 18.7698C17.1566 18.7698 16.8179 18.6384 16.8873 18.3669C16.939 18.1649 17.194 18.2271 17.194 18.2271C17.194 18.2271 17.4631 18.0579 17.6493 18.277C17.8016 18.4561 17.7179 18.5764 17.9737 18.6076C18.2294 18.6389 18.2668 18.9008 18.5413 18.8696C18.5413 18.8696 18.3542 19.1129 18.0672 18.957C18.0672 18.957 18.074 19.1918 18.6037 19.3686Z" fill="#5AA587"/>
<path d="M15.8775 19.8274C15.8775 19.8274 15.6145 20.0622 16.1311 20.2031C16.1311 20.2031 16.0983 20.1609 16.0607 20.0857C16.0607 20.0857 16.2204 20.2031 16.427 20.1937C16.427 20.1937 16.3659 20.1467 16.3519 20.0904C16.3519 20.0904 16.5397 20.1421 16.6759 20.0528C16.6759 20.0528 16.5115 20.0434 16.4082 19.8884C16.4082 19.8884 16.3612 19.9824 16.2626 19.9354C16.164 19.8884 16.1075 19.956 16.0184 19.9589C15.9455 19.9612 15.8822 19.9237 15.8775 19.8274Z" fill="#5AA587"/>
<path d="M16.0076 18.3777C16.0076 18.3777 16.1955 18.4653 16.1078 18.6313C16.0493 18.7419 15.8662 18.7685 15.7947 18.6657C15.7336 18.5781 15.782 18.493 15.8463 18.481C15.9136 18.4685 15.9543 18.4967 15.9856 18.553C15.9856 18.553 16.1015 18.5092 16.0076 18.3777Z" fill="#5AA587"/>
<path d="M15.1646 18.6697C15.1646 18.6697 14.7566 18.6852 14.7771 18.9679C14.7861 19.0923 14.9543 19.1791 15.0605 19.1139C15.1511 19.0583 15.1364 18.9655 15.0892 18.9244C15.0371 18.8792 14.9856 18.8955 14.9346 18.9345C14.9346 18.9345 14.9086 18.78 15.1646 18.6697Z" fill="#5AA587"/>
<path d="M14.3485 18.1202C14.3485 18.1202 14.1283 17.9724 14.0426 18.1483C14.005 18.2257 14.0753 18.3358 14.1612 18.3337C14.2346 18.3318 14.2579 18.2714 14.244 18.2305C14.2286 18.1854 14.1922 18.1773 14.1482 18.1829C14.1482 18.1829 14.1348 18.0686 14.3485 18.1202Z" fill="#5AA587"/>
<path d="M14.0496 18.0105C14.0496 18.0105 13.8465 17.8742 13.7674 18.0364C13.7326 18.1078 13.7975 18.2094 13.8768 18.2074C13.9445 18.2057 13.966 18.15 13.9531 18.1122C13.939 18.0706 13.9054 18.0632 13.8648 18.0683C13.8648 18.0683 13.8525 17.9628 14.0496 18.0105Z" fill="#5AA587"/>
<path d="M14.8106 18.9114C14.8106 18.9114 14.4596 18.9247 14.4772 19.168C14.4849 19.275 14.6297 19.3498 14.7211 19.2936C14.799 19.2457 14.8032 19.1579 14.7694 19.1159C14.7107 19.0431 14.6403 19.076 14.6403 19.076C14.6403 19.076 14.5904 19.0063 14.8106 18.9114Z" fill="#5AA587"/>
<path d="M14.5536 19.1042C14.5536 19.1042 14.1661 19.0666 14.1949 19.3281C14.2024 19.3964 14.2924 19.4444 14.3509 19.4085C14.4008 19.3778 14.4034 19.3216 14.3818 19.2948C14.3442 19.2483 14.2991 19.2693 14.2991 19.2693C14.2991 19.2693 14.3234 19.1535 14.5536 19.1042Z" fill="#5AA587"/>
<path d="M17.0413 20.3479C17.0413 20.3479 16.9883 20.4555 16.954 20.5599C16.9246 20.6493 16.7731 20.7096 16.692 20.6535C16.6109 20.5973 16.474 20.4296 16.5301 20.3922C16.5862 20.3547 16.8292 20.3853 16.8666 20.2543C16.904 20.1233 16.8916 20.0359 16.8916 20.0359C16.8916 20.0359 16.5665 20.1326 16.4115 19.8884C16.2565 19.6442 16.2786 19.4057 16.2179 19.2874C16.1704 19.1948 16.0869 19.1501 16.0869 19.1501C16.1824 18.772 17.3469 18.5014 17.2118 19.4828L17.3947 19.8986L17.0413 20.3479Z" fill="#FFE6D7"/>
<path d="M17.4529 20.3317C17.3731 20.3833 17.0803 20.532 16.8987 20.4193C16.7502 20.3272 16.7484 20.2221 16.8424 20.1986C16.9363 20.1751 16.988 20.2409 17.0396 20.1986C17.0913 20.1563 17.3825 19.9168 17.2745 19.8416C17.1665 19.7665 17.108 19.7057 17.1101 19.5739C17.1116 19.4768 17.1962 19.3829 17.2964 19.3735C17.4213 19.3618 17.5187 19.4142 17.6502 19.4142L17.4967 19.4925C17.5954 19.5395 17.6032 19.6725 17.7206 19.696C17.7206 19.696 17.6408 19.7868 17.5406 19.7587C17.5406 19.7587 17.575 19.8526 17.669 19.8651C17.669 19.8651 17.5813 19.9653 17.4999 19.9935C17.4999 19.9935 17.5531 20.0311 17.6361 20.0154C17.6361 20.0154 17.5062 20.2064 17.3121 20.255L17.4529 20.3317Z" fill="#5AA587"/>
<path d="M16.8868 19.974C16.8868 19.974 16.8346 19.9649 16.8301 19.9014C16.8275 19.8648 16.8641 19.8173 16.9263 19.8209C16.9992 19.825 17.0486 19.9218 17.0137 19.986C16.9243 20.1501 16.5915 20.0843 16.5508 20.0248C16.5508 20.0248 16.8169 20.0373 16.8868 19.974Z" fill="#5AA587"/>
<path d="M16.7366 20.7542C16.7221 20.7338 16.7104 20.6787 16.7385 20.6446C16.7385 20.6446 16.7232 20.5659 16.6634 20.5941C16.6634 20.5941 16.6379 20.6571 16.6583 20.7009C16.6786 20.7448 16.7366 20.7542 16.7366 20.7542Z" fill="#FFE15A"/>
<path d="M16.6152 20.7101C16.6162 20.6533 16.6289 20.6223 16.6747 20.6176C16.6747 20.6176 16.6864 20.5354 16.6183 20.5354C16.6183 20.5354 16.5679 20.58 16.5674 20.6284C16.5669 20.6767 16.6152 20.7101 16.6152 20.7101Z" fill="#FFE15A"/>
<path d="M16.5395 20.6552C16.5507 20.5995 16.5612 20.5608 16.6122 20.557C16.6122 20.557 16.6394 20.4897 16.5642 20.4803C16.5642 20.4803 16.5163 20.5188 16.5072 20.5662C16.498 20.6137 16.5395 20.6552 16.5395 20.6552Z" fill="#FFE15A"/>
<path d="M16.4636 20.5688C16.4867 20.5169 16.5097 20.4962 16.5603 20.5037C16.5603 20.5037 16.6038 20.4426 16.5439 20.4098C16.5439 20.4098 16.471 20.4306 16.4516 20.4749C16.4323 20.5192 16.4636 20.5688 16.4636 20.5688Z" fill="#FFE15A"/>
<path d="M15.572 20.2512C15.5614 20.2286 15.5597 20.1722 15.5934 20.1437C15.5934 20.1437 15.5923 20.0636 15.5284 20.0806C15.5284 20.0806 15.4922 20.1381 15.5045 20.1849C15.5167 20.2317 15.572 20.2512 15.572 20.2512Z" fill="#FFE15A"/>
<path d="M15.4596 20.1861C15.4707 20.1305 15.4887 20.1021 15.5346 20.1057C15.5346 20.1057 15.5608 20.0269 15.4937 20.0148C15.4937 20.0148 15.4361 20.0497 15.4271 20.0972C15.418 20.1447 15.4596 20.1861 15.4596 20.1861Z" fill="#FFE15A"/>
<path d="M15.3951 20.1186C15.4159 20.0658 15.4332 20.0296 15.4841 20.0349C15.4841 20.0349 15.5227 19.9735 15.4504 19.9509C15.4504 19.9509 15.3964 19.9802 15.3791 20.0253C15.3616 20.0704 15.3951 20.1186 15.3951 20.1186Z" fill="#FFE15A"/>
<path d="M15.3366 20.0201C15.3686 19.9733 15.3949 19.9569 15.4433 19.9733C15.4433 19.9733 15.4969 19.9209 15.4438 19.8779C15.4438 19.8779 15.3684 19.8855 15.3415 19.9256C15.3146 19.9658 15.3366 20.0201 15.3366 20.0201Z" fill="#FFE15A"/>
<path d="M14.008 17.1284C13.9978 17.1793 14.0236 17.2349 14.1457 17.2881C14.2678 17.3414 14.2647 17.3195 14.3461 17.4228C14.4275 17.5261 14.4369 17.5292 14.5371 17.548C14.6374 17.5668 14.6843 17.8768 14.5653 17.8298C14.4463 17.7829 14.4307 17.6858 14.2992 17.7171C14.1676 17.7484 14.0988 17.7922 13.9955 17.6764C13.9955 17.6764 13.8952 17.811 14.0831 17.8674C14.271 17.9238 14.3734 17.9281 14.4663 17.9713C14.559 18.0146 14.8881 18.1202 14.9097 17.8126C14.916 17.7234 14.8503 17.6889 14.8127 17.6232C14.7751 17.5574 14.7375 17.5136 14.6467 17.4416C14.5559 17.3696 14.6123 17.3101 14.4651 17.2881C14.318 17.2662 14.1958 17.2693 14.152 17.1629C14.1082 17.0564 14.0205 17.0658 14.008 17.1284Z" fill="#FFE6D7"/>
<path d="M16.4758 18.6212C16.4758 18.6212 16.504 18.509 16.3732 18.4614C16.404 18.4708 16.4321 18.4791 16.4645 18.489C16.492 18.4975 16.5138 18.5054 16.5396 18.5137C16.5497 18.5273 16.5632 18.5344 16.5699 18.5534C16.6097 18.6649 16.5113 18.8095 16.3939 18.7938C16.2938 18.7803 16.2654 18.6921 16.2981 18.6397C16.3323 18.5848 16.4077 18.5719 16.4758 18.6212Z" fill="#5AA587"/>
<path d="M16.4351 19.8123C16.577 19.844 16.641 19.7892 16.641 19.7892C16.641 19.7892 16.5888 19.7801 16.5843 19.7166C16.5817 19.68 16.6183 19.6325 16.6805 19.6361C16.7534 19.6402 16.8028 19.737 16.7679 19.8012C16.691 19.9423 16.4725 19.909 16.3762 19.8089C16.3711 19.7986 16.3659 19.7884 16.3613 19.7782C16.3824 19.7914 16.4094 19.8065 16.4351 19.8123Z" fill="#5AA587"/>
<path d="M16.2911 19.5749C16.2875 19.5588 16.2823 19.5426 16.2793 19.5272C16.4462 19.5947 16.4948 19.5097 16.4948 19.5097C16.4948 19.5097 16.4427 19.5007 16.4382 19.4371C16.4356 19.4005 16.4721 19.353 16.5343 19.3566C16.6072 19.3608 16.6567 19.4576 16.6217 19.5218C16.5402 19.6714 16.3948 19.6298 16.2911 19.5749Z" fill="#5AA587"/>
<path d="M15.9162 19.6543C16.0132 19.7412 16.0873 19.7364 16.0873 19.7364C16.0873 19.7364 16.0486 19.7004 16.0795 19.6447C16.0973 19.6126 16.1539 19.5928 16.204 19.6297C16.2628 19.673 16.2514 19.7811 16.1871 19.8158C16.0288 19.9011 15.926 19.7692 15.8711 19.6629C15.886 19.6609 15.9011 19.6574 15.9162 19.6543Z" fill="#5AA587"/>
<path d="M13.4146 19.5702C13.4216 19.5356 13.4579 19.4698 13.5025 19.4653C13.5025 19.4653 13.5551 19.3729 13.4952 19.3394C13.4952 19.3394 13.4295 19.3749 13.4076 19.4384C13.3857 19.5021 13.4146 19.5702 13.4146 19.5702Z" fill="#FFE15A"/>
<path d="M13.3732 19.4026C13.4186 19.3482 13.4512 19.3309 13.4835 19.373C13.4835 19.373 13.5559 19.3048 13.5132 19.2354C13.5132 19.2354 13.4463 19.2274 13.4078 19.2741C13.3693 19.3208 13.3732 19.4026 13.3732 19.4026Z" fill="#FFE15A"/>
<path d="M13.3691 19.2719C13.4201 19.229 13.4573 19.202 13.4923 19.2502C13.4923 19.2502 13.5625 19.2122 13.5228 19.1264C13.5228 19.1264 13.4624 19.115 13.4192 19.1521C13.3759 19.1892 13.3691 19.2719 13.3691 19.2719Z" fill="#FFE15A"/>
<path d="M13.3896 19.1108C13.4451 19.0838 13.4759 19.0869 13.5017 19.1458C13.5017 19.1458 13.5771 19.1305 13.5656 19.0374C13.5656 19.0374 13.5035 18.9834 13.4564 19.0069C13.4092 19.0304 13.3896 19.1108 13.3896 19.1108Z" fill="#FFE15A"/>
<path d="M14.5249 17.2552C14.4783 17.3393 14.5638 17.4248 14.6479 17.3782C14.6588 17.3722 14.6679 17.3631 14.6739 17.3523C14.7205 17.2681 14.635 17.1827 14.5509 17.2292C14.54 17.2353 14.5309 17.2444 14.5249 17.2552Z" fill="#F5F5F5"/>
<path d="M14.5711 17.2882C14.557 17.3173 14.5856 17.3459 14.6147 17.3318C14.62 17.3292 14.6246 17.3247 14.6272 17.3193C14.6413 17.2902 14.6128 17.2616 14.5836 17.2757C14.5783 17.2782 14.5737 17.2828 14.5711 17.2882Z" fill="#41479B"/>
<path d="M14.3568 16.9453C14.3204 17.013 14.3887 17.0812 14.4563 17.0448C14.4658 17.0397 14.4739 17.0316 14.479 17.0221C14.5154 16.9545 14.4472 16.8862 14.3795 16.9226C14.37 16.9277 14.3619 16.9358 14.3568 16.9453Z" fill="#F5F5F5"/>
<path d="M14.395 16.9724C14.3852 16.9951 14.407 17.0169 14.4297 17.0071C14.435 17.0048 14.4395 17.0003 14.4418 16.995C14.4516 16.9723 14.4298 16.9505 14.4071 16.9603C14.4018 16.9626 14.3973 16.9671 14.395 16.9724Z" fill="#41479B"/>
<path d="M16.9482 18.7049C17.0293 18.7673 17.3099 18.6298 17.5071 18.6955C17.7621 18.7805 17.7599 18.9444 17.7599 18.9444C17.7599 18.9444 17.6011 18.7472 17.3365 18.8443C17.1901 18.898 17.1049 18.9007 17.1049 18.9007L16.9482 18.7049Z" fill="#FFF5E6"/>
</g>
<defs>
<clipPath id="clip0_8615_27549">
<path d="M0 2C0 0.895432 0.895431 0 2 0H21.9999C23.1045 0 23.9999 0.895431 23.9999 2V21.9999C23.9999 23.1045 23.1045 23.9999 21.9999 23.9999H2C0.895432 23.9999 0 23.1045 0 21.9999V2Z" fill="white"/>
</clipPath>
</defs>
</svg>
