<svg width="24" height="24" viewBox="0 0 24 24" fill="none" xmlns="http://www.w3.org/2000/svg">
<g clip-path="url(#clip0_8615_27597)">
<path d="M24.0003 0H0.000488281V23.9998H24.0003V0Z" fill="#FF4B55"/>
<path d="M16.219 12.3921C16.4599 12.2197 16.4599 11.78 16.219 11.6076L0.000488281 0V23.9998C0.000488281 23.9998 16.2304 12.3912 16.219 12.3921Z" fill="#FFE15A"/>
<path d="M0.000488281 23.9998L11.0442 12.4344C11.2596 12.2091 11.2596 11.7907 11.0442 11.5654L0.000488281 0V23.9998Z" fill="#464655"/>
<path d="M3.19397 8.60307L3.25416 10.8762L1.12291 11.669C0.918542 11.7451 0.928573 12.0375 1.13763 12.0994L3.3181 12.7445L3.41353 15.0164C3.42267 15.2343 3.70387 15.3151 3.82734 15.1354L5.11475 13.261L7.30496 13.8723C7.51501 13.931 7.67879 13.6885 7.54599 13.5155L6.16118 11.7119L7.41938 9.81778C7.54004 9.63614 7.36004 9.40547 7.15454 9.47832L5.01125 10.238L3.59864 8.45608C3.46322 8.28522 3.18821 8.38511 3.19397 8.60307Z" fill="#F5F5F5"/>
</g>
<defs>
<clipPath id="clip0_8615_27597">
<path d="M0 2C0 0.895432 0.895431 0 2 0H21.9998C23.1043 0 23.9998 0.895431 23.9998 2V21.9998C23.9998 23.1043 23.1043 23.9998 21.9998 23.9998H2C0.895432 23.9998 0 23.1043 0 21.9998V2Z" fill="white"/>
</clipPath>
</defs>
</svg>
