<svg width="24" height="24" viewBox="0 0 24 24" fill="none" xmlns="http://www.w3.org/2000/svg">
<g clip-path="url(#clip0_8615_27469)">
<path d="M23.9959 0H-0.00390625V4.79995H23.9959V0Z" fill="#73AF00"/>
<path d="M23.9959 9.59998H-0.00390625V14.3999H23.9959V9.59998Z" fill="#73AF00"/>
<path d="M23.9978 4.80005H-0.00195312V9.6H23.9978V4.80005Z" fill="#FFE15A"/>
<path d="M23.9978 19.1998H-0.00195312V23.9998H23.9978V19.1998Z" fill="#73AF00"/>
<path d="M23.9978 14.3999H-0.00195312V19.1999H23.9978V14.3999Z" fill="#FFE15A"/>
<path d="M14.1492 14.3999H-0.00195312V0H14.5242V14.0249C14.5242 14.232 14.3563 14.3999 14.1492 14.3999Z" fill="#FF4B55"/>
<path d="M7.10483 3.38854L6.19208 6.12531L3.30719 6.14766C3.14904 6.14888 3.08346 6.35072 3.21068 6.44466L5.53143 8.15844L4.66121 10.909C4.61349 11.0598 4.78519 11.1846 4.91386 11.0926L7.26092 9.41501L9.60797 11.0926C9.73664 11.1846 9.90834 11.0598 9.86063 10.909L8.9904 8.15844L11.3112 6.44466C11.4384 6.35072 11.3728 6.14888 11.2146 6.14766L8.32975 6.12531L7.41701 3.38854C7.36709 3.23849 7.15489 3.23849 7.10483 3.38854Z" fill="#F5F5F5"/>
</g>
<defs>
<clipPath id="clip0_8615_27469">
<path d="M0 2C0 0.895432 0.895431 0 2 0H21.9998C23.1043 0 23.9998 0.895431 23.9998 2V21.9998C23.9998 23.1043 23.1043 23.9998 21.9998 23.9998H2C0.895432 23.9998 0 23.1043 0 21.9998V2Z" fill="white"/>
</clipPath>
</defs>
</svg>
