<svg width="24" height="24" viewBox="0 0 24 24" fill="none" xmlns="http://www.w3.org/2000/svg">
<g clip-path="url(#clip0_8615_27468)">
<path d="M23.9978 0H-0.00195312V23.9998H23.9978V0Z" fill="#41479B"/>
<path d="M22.3443 19.6406H5.79271C5.5642 19.6406 5.37891 19.4554 5.37891 19.2268C5.37891 18.9983 5.56415 18.813 5.79271 18.813H22.3443L22.7581 19.2268L22.3443 19.6406Z" fill="#FFE15A"/>
<path d="M22.5514 18.3993H5.79297C5.79297 18.3993 12.4136 10.951 18.6204 9.2959C18.6204 9.2959 16.5515 14.6752 21.5169 17.9855H22.5514C22.6657 17.9855 22.7583 18.0781 22.7583 18.1924C22.7583 18.3066 22.6657 18.3993 22.5514 18.3993Z" fill="#FFE15A"/>
<path d="M6.18018 9.57907L6.34073 10.0605L6.84819 10.0644C6.91391 10.0649 6.94114 10.1488 6.88827 10.1878L6.48004 10.4892L6.63313 10.9731C6.65296 11.0357 6.58161 11.0875 6.52818 11.0493L6.11531 10.7542L5.70244 11.0493C5.649 11.0875 5.57766 11.0357 5.59748 10.9731L5.75058 10.4892L5.34235 10.1878C5.28947 10.1487 5.31675 10.0649 5.38242 10.0644L5.88989 10.0605L6.05043 9.57907C6.07124 9.51677 6.15942 9.51677 6.18018 9.57907Z" fill="#F5F5F5"/>
<path d="M6.16831 2.9603L6.29858 3.35086L6.71028 3.35404C6.76357 3.35446 6.7857 3.42248 6.74281 3.45417L6.41159 3.69876L6.53576 4.09129C6.55184 4.1421 6.494 4.18414 6.45059 4.15316L6.11563 3.91372L5.78066 4.15316C5.7373 4.18414 5.67941 4.1421 5.69549 4.09129L5.81966 3.69876L5.48845 3.45417C5.44556 3.42248 5.46768 3.35446 5.52098 3.35404L5.93268 3.35086L6.06294 2.9603C6.07996 2.90972 6.15144 2.90972 6.16831 2.9603Z" fill="#F5F5F5"/>
<path d="M3.0482 5.37704L3.17846 5.7676L3.59016 5.77079C3.64346 5.77121 3.66558 5.83923 3.62269 5.87091L3.29148 6.11551L3.41565 6.50803C3.43172 6.55885 3.37388 6.60089 3.33048 6.56991L2.99551 6.33047L2.66054 6.56991C2.61719 6.60089 2.5593 6.55885 2.57537 6.50803L2.69954 6.11551L2.36833 5.87091C2.32544 5.83923 2.34756 5.77121 2.40086 5.77079L2.81256 5.7676L2.94282 5.37704C2.95984 5.32647 3.03137 5.32647 3.0482 5.37704Z" fill="#F5F5F5"/>
<path d="M8.39888 5.21228L8.4991 5.51284L8.81592 5.51528C8.85694 5.51561 8.87396 5.56797 8.84096 5.5923L8.5861 5.7805L8.68168 6.08256C8.69405 6.12165 8.64952 6.15404 8.61615 6.13018L8.35838 5.94597L8.10062 6.13018C8.06724 6.15404 8.02271 6.1217 8.03509 6.08256L8.13067 5.7805L7.87581 5.5923C7.84281 5.56792 7.85982 5.51556 7.90084 5.51528L8.21766 5.51284L8.31788 5.21228C8.33087 5.17338 8.3859 5.17338 8.39888 5.21228Z" fill="#F5F5F5"/>
</g>
<defs>
<clipPath id="clip0_8615_27468">
<path d="M0 2C0 0.895432 0.895431 0 2 0H21.9998C23.1043 0 23.9998 0.895431 23.9998 2V21.9998C23.9998 23.1043 23.1043 23.9998 21.9998 23.9998H2C0.895432 23.9998 0 23.1043 0 21.9998V2Z" fill="white"/>
</clipPath>
</defs>
</svg>
