<svg width="24" height="24" viewBox="0 0 24 24" fill="none" xmlns="http://www.w3.org/2000/svg">
<g clip-path="url(#clip0_8615_27466)">
<path d="M23.9968 0H-0.00292969V23.9998H23.9968V0Z" fill="#FF4B55"/>
<path d="M-0.00585938 0L16.9595 23.9998H18.2009L1.23552 0H-0.00585938Z" fill="#F5F5F5"/>
<path d="M7.02849 0H5.78711L22.7525 23.9998H23.9938L7.02849 0Z" fill="#F5F5F5"/>
<path d="M1.23828 0L18.2036 23.9998H22.7553L5.78994 0H1.23828Z" fill="#464655"/>
</g>
<defs>
<clipPath id="clip0_8615_27466">
<path d="M0 2C0 0.895432 0.895431 0 2 0H21.9998C23.1043 0 23.9998 0.895431 23.9998 2V21.9998C23.9998 23.1043 23.1043 23.9998 21.9998 23.9998H2C0.895432 23.9998 0 23.1043 0 21.9998V2Z" fill="white"/>
</clipPath>
</defs>
</svg>
