<svg width="24" height="24" viewBox="0 0 24 24" fill="none" xmlns="http://www.w3.org/2000/svg">
<g clip-path="url(#clip0_8615_27465)">
<path d="M23.9968 0H-0.00292969V23.9998H23.9968V0Z" fill="#FF4B55"/>
<path d="M12.0688 5.6842C15.5543 5.6842 18.3795 8.51697 18.3795 11.9999C18.3795 15.493 15.5543 18.3157 12.0688 18.3157C8.57575 18.3157 5.74805 15.493 5.74805 11.9999C5.74805 8.51697 8.57575 5.6842 12.0688 5.6842Z" fill="#F5F5F5"/>
<path d="M13.2143 15.5389C11.2591 15.5389 9.67328 13.9531 9.67328 12.0002C9.67328 10.0521 11.2591 8.46625 13.2143 8.46625C13.8793 8.46625 14.5007 8.65258 15.0319 8.97433C15.1115 9.02251 15.1951 8.91831 15.1289 8.85301C14.332 8.06791 13.2409 7.58154 12.0355 7.58154C9.58862 7.58154 7.60742 9.56274 7.60742 12.0002C7.60742 14.4424 9.58862 16.4235 12.0355 16.4235C13.2402 16.4235 14.3309 15.9376 15.1276 15.1527C15.1939 15.0874 15.1102 14.9832 15.0306 15.0314C14.4998 15.3529 13.8788 15.5389 13.2143 15.5389Z" fill="#FF4B55"/>
<path d="M12.891 9.5234L13.8672 10.8488L15.4373 10.3543C15.6405 10.2903 15.8083 10.5218 15.6842 10.6951L14.7253 12.033L15.6808 13.3734C15.8045 13.5469 15.6361 13.7781 15.433 13.7135L13.8642 13.215L12.8847 14.5379C12.7579 14.7092 12.486 14.6205 12.4846 14.4074L12.4739 12.7614L10.9131 12.2386C10.711 12.1709 10.7114 11.8849 10.9136 11.8178L12.4758 11.299L12.4906 9.65292C12.4926 9.43982 12.7647 9.35184 12.891 9.5234Z" fill="#FF4B55"/>
</g>
<defs>
<clipPath id="clip0_8615_27465">
<path d="M0 2C0 0.895432 0.895431 0 2 0H21.9998C23.1043 0 23.9998 0.895431 23.9998 2V21.9998C23.9998 23.1043 23.1043 23.9998 21.9998 23.9998H2C0.895432 23.9998 0 23.1043 0 21.9998V2Z" fill="white"/>
</clipPath>
</defs>
</svg>
