<svg width="24" height="24" viewBox="0 0 24 24" fill="none" xmlns="http://www.w3.org/2000/svg">
<g clip-path="url(#clip0_8615_27602)">
<path d="M24.0037 0H0.00390625V23.9998H24.0037V0Z" fill="#41479B"/>
<path d="M14.6956 13.1207C14.6194 13.1207 14.5576 13.1825 14.5576 13.2587V15.6035C14.5576 20.2931 17.8679 21.1207 17.8679 21.1207C17.8679 21.1207 21.1783 20.2931 21.1783 15.6035V13.2587C21.1783 13.1825 21.1165 13.1207 21.0403 13.1207H14.6956Z" fill="#FFE15A"/>
<path d="M20.8335 13.4656V15.6035C20.8335 19.5922 18.368 20.5983 17.8681 20.7612C17.3654 20.5973 14.9025 19.5901 14.9025 15.6035V13.4656H20.8335ZM21.0404 13.1207H14.6956C14.6194 13.1207 14.5576 13.1825 14.5576 13.2587V15.6035C14.5576 20.2931 17.8679 21.1207 17.8679 21.1207C17.8679 21.1207 21.1783 20.2931 21.1783 15.6035V13.2587C21.1783 13.1825 21.1165 13.1207 21.0404 13.1207Z" fill="#F5F5F5"/>
<path d="M18.2378 17.4895H17.5322C17.5322 17.4895 16.9631 18.0586 16.8327 19.3086C16.8285 19.3485 16.8446 19.3889 16.8761 19.4136C16.9958 19.5073 17.3321 19.724 17.885 19.724C18.4379 19.724 18.7742 19.5074 18.8938 19.4136C18.9253 19.3889 18.9414 19.3485 18.9373 19.3086C18.8068 18.0586 18.2378 17.4895 18.2378 17.4895Z" fill="#73AF00"/>
<path d="M18.2388 17.3717H17.5332V16.6404C17.5332 16.5252 17.6275 16.4309 17.7427 16.4309H18.0293C18.1445 16.4309 18.2388 16.5252 18.2388 16.6404V17.3717Z" fill="#FF4B55"/>
<path d="M18.287 17.6069H17.4859C17.4473 17.6069 17.416 17.5757 17.416 17.5371V17.4415C17.416 17.403 17.4473 17.3717 17.4859 17.3717H18.287C18.3256 17.3717 18.3569 17.403 18.3569 17.4415V17.5371C18.3569 17.5757 18.3256 17.6069 18.287 17.6069Z" fill="#FF4B55"/>
<path d="M20.5902 15.0068C20.5694 15.0068 20.2626 15.0082 19.9434 15.0631V14.8792C20.2127 14.7562 20.4767 14.6927 20.4812 14.6916C20.5128 14.6842 20.5324 14.6526 20.525 14.6209C20.5176 14.5893 20.486 14.5696 20.4544 14.5771C20.4366 14.5812 20.1996 14.6382 19.9413 14.7506C19.9371 14.6801 19.9127 14.6155 19.8729 14.562C20.0837 14.3989 20.2632 14.2953 20.2665 14.2934C20.2948 14.2773 20.3046 14.2414 20.2885 14.2132C20.2724 14.1849 20.2365 14.1751 20.2083 14.1912C20.1941 14.1993 20.0058 14.3079 19.7872 14.4787C19.731 14.4408 19.6634 14.4187 19.5907 14.4187C19.515 14.4187 19.4453 14.4431 19.3878 14.4838C19.4481 14.1811 19.572 14.0501 19.5737 14.0484C19.5964 14.0254 19.5964 13.9883 19.5735 13.9655C19.5505 13.9425 19.5133 13.9425 19.4903 13.9655C19.4833 13.9725 19.369 14.0904 19.2967 14.3556C19.2243 14.0904 19.1101 13.9725 19.103 13.9655C19.0802 13.9426 19.0433 13.9426 19.0202 13.9654C18.9972 13.9881 18.997 14.0253 19.0196 14.0484C19.0213 14.0501 19.1452 14.1811 19.2055 14.4838C19.148 14.4431 19.0783 14.4187 19.0027 14.4187C18.9299 14.4187 18.8623 14.4409 18.8061 14.4787C18.5875 14.3079 18.3992 14.1993 18.385 14.1912C18.3567 14.1751 18.3208 14.1849 18.3048 14.2132C18.2887 14.2414 18.2986 14.2773 18.3268 14.2934C18.3301 14.2953 18.5096 14.3988 18.7204 14.5619C18.6807 14.6154 18.6562 14.68 18.652 14.7506C18.3937 14.6381 18.1567 14.5812 18.139 14.577C18.1073 14.5694 18.0757 14.5893 18.0683 14.6209C18.0609 14.6525 18.0806 14.6841 18.1121 14.6916C18.1166 14.6926 18.3806 14.7561 18.6499 14.8791V15.063C18.3308 15.0081 18.024 15.0067 18.0031 15.0067C17.9707 15.0067 17.9443 15.033 17.9443 15.0655C17.9443 15.098 17.9706 15.1243 18.0031 15.1243C18.0082 15.1243 18.3296 15.1256 18.6499 15.1824V15.3727C18.4735 15.3674 18.2766 15.3921 18.0944 15.4834C18.0654 15.4979 18.0536 15.5332 18.0681 15.5623C18.0785 15.5829 18.0992 15.5947 18.1208 15.5947C18.1296 15.5947 18.1386 15.5927 18.147 15.5885C18.3093 15.5075 18.4882 15.4863 18.6499 15.4918V16.2194C18.6499 16.3083 18.6411 16.3975 18.6237 16.4847L18.5335 16.9357C18.5271 16.9675 18.5478 16.9985 18.5796 17.0049C18.5835 17.0057 18.5873 17.006 18.5912 17.006C18.6186 17.006 18.6432 16.9867 18.6488 16.9587L18.739 16.5078C18.7579 16.4129 18.7675 16.3159 18.7675 16.2194V15.5006C18.8557 15.5104 18.935 15.5263 18.9987 15.5422L19.0435 16.1247C19.0491 16.1973 19.0855 16.26 19.1385 16.3025L18.9478 16.5886C18.8456 16.7418 18.9555 16.9472 19.1397 16.9472H19.4538C19.6381 16.9472 19.7479 16.7418 19.6457 16.5886L19.4551 16.3025C19.5081 16.26 19.5444 16.1973 19.55 16.1247L19.5948 15.5422C19.6585 15.5263 19.7378 15.5104 19.826 15.5006V16.2194C19.826 16.3159 19.8356 16.4129 19.8546 16.5077L19.9448 16.9587C19.9504 16.9867 19.9749 17.0059 20.0024 17.0059C20.0062 17.0059 20.0101 17.0056 20.014 17.0048C20.0458 16.9984 20.0665 16.9675 20.0601 16.9356L19.9699 16.4846C19.9525 16.3975 19.9436 16.3083 19.9436 16.2194V15.4918C20.1053 15.4863 20.2843 15.5075 20.4465 15.5885C20.455 15.5927 20.4639 15.5947 20.4728 15.5947C20.4944 15.5947 20.5151 15.5828 20.5254 15.5623C20.54 15.5332 20.5282 15.4979 20.4991 15.4834C20.3169 15.3922 20.1201 15.3675 19.9436 15.3728V15.1825C20.2639 15.1256 20.5854 15.1243 20.5905 15.1243C20.6229 15.1243 20.6492 15.098 20.6492 15.0656C20.649 15.0331 20.6227 15.0068 20.5902 15.0068ZM19.8258 15.0857C19.7555 15.1009 19.6864 15.119 19.6211 15.1407C19.62 15.1175 19.6165 15.0951 19.6108 15.0733C19.676 15.0229 19.7492 14.9773 19.8258 14.9367V15.0857ZM19.8258 14.7716V14.8041C19.7326 14.8503 19.6409 14.904 19.5588 14.9649C19.5418 14.9416 19.5221 14.9206 19.4995 14.9026C19.5875 14.8051 19.6853 14.7149 19.7815 14.6352C19.8091 14.6737 19.8258 14.7206 19.8258 14.7716ZM19.5906 14.5364C19.6256 14.5364 19.6586 14.5446 19.6886 14.5584C19.587 14.6437 19.4839 14.7409 19.3918 14.8462C19.3798 14.8425 19.3679 14.8389 19.3554 14.8366V14.8304C19.3554 14.8036 19.3563 14.7782 19.3573 14.7529C19.3669 14.632 19.4672 14.5364 19.5906 14.5364ZM19.0026 14.5364C19.1259 14.5364 19.2262 14.6321 19.2359 14.7529C19.2369 14.7782 19.2378 14.8035 19.2378 14.8304V14.8366C19.2252 14.8389 19.2134 14.8425 19.2014 14.8462C19.1093 14.7409 19.0061 14.6437 18.9046 14.5584C18.9345 14.5446 18.9675 14.5364 19.0026 14.5364ZM18.7674 14.7716C18.7674 14.7206 18.784 14.6737 18.8117 14.6352C18.9079 14.7148 19.0057 14.8051 19.0937 14.9026C19.0711 14.9206 19.0514 14.9416 19.0343 14.9649C18.9522 14.9041 18.8605 14.8504 18.7673 14.8041L18.7674 14.7716ZM18.7674 14.9368C18.844 14.9773 18.9172 15.023 18.9824 15.0733C18.9766 15.0951 18.9731 15.1175 18.972 15.1407C18.9068 15.119 18.8376 15.1009 18.7674 15.0857V14.9368ZM18.7674 15.381V15.2064C18.841 15.2231 18.9122 15.2433 18.9774 15.2675L18.989 15.4181C18.925 15.4032 18.8499 15.3896 18.7674 15.381ZM19.8258 15.3811C19.7433 15.3897 19.6681 15.4033 19.6042 15.4182L19.6157 15.2675C19.6809 15.2433 19.7521 15.2231 19.8258 15.2064V15.3811Z" fill="#D35A10"/>
<path d="M16.8744 16.5944H16.6102L15.6008 15.6972C15.4905 15.5992 15.4438 15.448 15.4796 15.3049L15.7611 14.179C15.786 14.0794 15.9101 14.045 15.9826 14.1176L16.4394 14.5744C16.4642 14.5992 16.4978 14.6131 16.5328 14.6131H16.8744V16.5944H16.8744Z" fill="#FFA033"/>
<path d="M16.6849 14.3422L16.5228 15.0718C16.4934 15.204 16.4984 15.3416 16.5373 15.4714L16.8742 16.5943H17.1384L17.4753 15.4714C17.5142 15.3416 17.5192 15.204 17.4898 15.0718L17.3277 14.3422C17.2943 14.1918 17.1608 14.0847 17.0066 14.0847H17.0059C16.8518 14.0847 16.7183 14.1917 16.6849 14.3422Z" fill="#FF9480"/>
<path d="M17.0608 14.3489H16.9534C16.9101 14.3489 16.875 14.384 16.875 14.4273V16.5944H17.1392V14.4273C17.1392 14.384 17.1041 14.3489 17.0608 14.3489Z" fill="#FFA0E4"/>
<path d="M4.42883 0H0.0078125V0.936413L4.42883 3.83293V0Z" fill="#41479B"/>
<path d="M0.0078125 3.20154V4.42107H1.8692L0.0078125 3.20154Z" fill="#41479B"/>
<path d="M0.0078125 7.57898V8.79851L1.8692 7.57898H0.0078125Z" fill="#41479B"/>
<path d="M12.0079 0.936413V0H7.58691V3.83293L12.0079 0.936413Z" fill="#41479B"/>
<path d="M12.0079 8.79851V7.57898H10.1465L12.0079 8.79851Z" fill="#41479B"/>
<path d="M7.58691 8.16699V11.9999H12.0079V11.0635L7.58691 8.16699Z" fill="#41479B"/>
<path d="M12.0079 4.42107V3.20154L10.1465 4.42107H12.0079Z" fill="#41479B"/>
<path d="M0.0078125 11.0635V11.9999H4.42883V8.16699L0.0078125 11.0635Z" fill="#41479B"/>
<path d="M12.0076 11.0636V10.1278L8.08105 7.57898H9.2411L12.0076 9.37479V8.79851L10.1462 7.57898H12.0076V6.94739H6.95508V12H7.58662V8.16706L12.0076 11.0636Z" fill="#F5F5F5"/>
<path d="M0.0078125 6.94739V7.57898H1.8692L0.0078125 8.79851V9.68449L3.25139 7.57898H4.41144L0.0078125 10.4375V11.0636L4.42883 8.16706V12H5.06037V6.94739H0.0078125Z" fill="#F5F5F5"/>
<path d="M5.06037 0H4.42883V3.83293L0.0078125 0.936413V1.96118L3.79724 4.42102H2.63719L0.0078125 2.71422V3.20148L1.8692 4.42102H0.0078125V5.05261H5.06037V0Z" fill="#F5F5F5"/>
<path d="M12.0076 5.05261V4.42102H10.1462L12.0076 3.20148V2.30421L8.74667 4.42102H7.58662L12.0076 1.55122V0.936413L7.58662 3.83293V0H6.95508V5.05261H12.0076Z" fill="#F5F5F5"/>
<path d="M12.0077 6.94728V5.05261H6.95514V0H5.06037V5.05261H0.0078125V6.94728H5.06037V11.9999H6.95514V6.94728H12.0077Z" fill="#FF4B55"/>
<path d="M3.25139 7.57898L0.0078125 9.68449V10.4375L4.41144 7.57898H3.25139Z" fill="#FF4B55"/>
<path d="M8.08105 7.57898L12.0076 10.1278V9.37479L9.24111 7.57898H8.08105Z" fill="#FF4B55"/>
<path d="M3.79724 4.42114L0.0078125 1.9613V2.71434L2.63719 4.42114H3.79724Z" fill="#FF4B55"/>
<path d="M8.74697 4.42107L12.0079 2.30426V1.55127L7.58691 4.42107H8.74697Z" fill="#FF4B55"/>
</g>
<defs>
<clipPath id="clip0_8615_27602">
<path d="M0 2C0 0.895432 0.895431 0 2 0H21.9998C23.1043 0 23.9998 0.895431 23.9998 2V21.9998C23.9998 23.1043 23.1043 23.9998 21.9998 23.9998H2C0.895432 23.9998 0 23.1043 0 21.9998V2Z" fill="white"/>
</clipPath>
</defs>
</svg>
