<svg width="24" height="24" viewBox="0 0 24 24" fill="none" xmlns="http://www.w3.org/2000/svg">
<g clip-path="url(#clip0_8615_27649)">
<path d="M23.9959 0H-0.00390625V23.9998H23.9959V0Z" fill="#73AF00"/>
<path d="M8.41158 0H2.0957V23.9998H8.41158V0Z" fill="#FF4B55"/>
<path d="M7.78015 2.73694L6.51697 3.78956H3.99071L2.72754 2.73694V1.68433L3.99071 0.631714H6.51697L7.78015 1.68433V2.73694Z" fill="#F5F5F5"/>
<path d="M7.78112 11.5788L6.51795 12.6314H3.99169L2.72852 11.5788V10.5261L3.99169 9.47351H6.51795L7.78112 10.5261V11.5788Z" fill="#73AF00"/>
<path d="M7.78112 7.15777L6.51795 8.21038H3.99169L2.72852 7.15777V6.10515L3.99169 5.05249H6.51795L7.78112 6.10515V7.15777Z" fill="#73AF00"/>
<path d="M7.78112 15.9998L6.51795 17.0524H3.99169L2.72852 15.9998V14.9471L3.99169 13.8945H6.51795L7.78112 14.9471V15.9998Z" fill="#73AF00"/>
<path d="M2.09766 3.15796L3.36083 4.42113L2.09766 5.68426V3.15796Z" fill="#FFB400"/>
<path d="M8.41352 5.68426L7.15039 4.42113L8.41352 3.15796V5.68426Z" fill="#FFB400"/>
<path d="M2.09766 7.57898L3.36083 8.84215L2.09766 10.1053V7.57898Z" fill="#FFB400"/>
<path d="M8.41352 10.1053L7.15039 8.84215L8.41352 7.57898V10.1053Z" fill="#FFB400"/>
<path d="M2.09766 12L3.36083 13.2631L2.09766 14.5263V12Z" fill="#FFB400"/>
<path d="M8.41352 14.5263L7.15039 13.2631L8.41352 12V14.5263Z" fill="#FFB400"/>
<path d="M2.09766 16.4209L3.36083 17.684L2.09766 18.9472V16.4209Z" fill="#FFB400"/>
<path d="M8.41352 18.9472L7.15039 17.684L8.41352 16.4209V18.9472Z" fill="#FFB400"/>
<path d="M2.09766 0H3.36083L2.09766 1.26313V0Z" fill="#FFB400"/>
<path d="M8.41352 1.26313L7.15039 0H8.41352V1.26313Z" fill="#FFB400"/>
<path d="M5.57104 5.05261H4.93945V8.21055H5.57104V5.05261Z" fill="#FFB400"/>
<path d="M6.51649 6.31592H3.99023V6.94751H6.51649V6.31592Z" fill="#FF4B55"/>
<path d="M7.14917 5.57904L6.51758 5.05273V8.21063L7.14917 7.68427V5.57904Z" fill="#FFB400"/>
<path d="M3.35938 7.68422L3.99096 8.21053V5.05273L3.35938 5.57899V7.68422Z" fill="#FFB400"/>
<path d="M5.25482 0.631836H3.99169L2.72852 1.6844V2.21076H5.25482V0.631836Z" fill="#FFB400"/>
<path d="M5.25488 3.78962H6.51796L7.78119 2.73705V2.21069H5.25488V3.78962Z" fill="#FFB400"/>
<path d="M5.25434 3.1579L3.99121 2.21427L5.25434 1.26318L6.51747 2.21427L5.25434 3.1579Z" fill="#FF4B55"/>
<path d="M5.25684 3.15791L6.51996 2.21427L6.51504 2.21057H5.25684V3.15791Z" fill="#73AF00"/>
<path d="M5.25625 2.21056V1.26318L3.99805 2.21056H5.25625Z" fill="#73AF00"/>
<path d="M6.51654 10.1052H3.99023V11.9999H6.51654V10.1052Z" fill="#FF4B55"/>
<path d="M7.14819 10.7367H6.5166V11.3683H7.14819V10.7367Z" fill="#FFB400"/>
<path d="M5.56909 10.7367H4.9375V11.3683H5.56909V10.7367Z" fill="#F5F5F5"/>
<path d="M5.56909 14.526H4.9375V15.1576H5.56909V14.526Z" fill="#FF4B55"/>
<path d="M6.5144 15.1577H5.88281V15.7893H6.5144V15.1577Z" fill="#FFB400"/>
<path d="M4.61987 15.1577H3.98828V15.7893H4.61987V15.1577Z" fill="#FFB400"/>
<path d="M5.56909 15.7893H4.9375V16.4209H5.56909V15.7893Z" fill="#FF4B55"/>
<path d="M3.98999 10.7367H3.3584V11.3683H3.98999V10.7367Z" fill="#FFB400"/>
<path d="M7.78015 20.4209L6.51697 21.4735H3.99071L2.72754 20.4209V19.3683L3.99071 18.3157H6.51697L7.78015 19.3683V20.4209Z" fill="#F5F5F5"/>
<path d="M5.25482 18.3157H3.99169L2.72852 19.3682V19.8946H5.25482V18.3157Z" fill="#FFB400"/>
<path d="M5.25488 21.4736H6.51796L7.78119 20.421V19.8947H5.25488V21.4736Z" fill="#FFB400"/>
<path d="M6.51747 20.2104L5.25434 20.842L3.99121 20.2104V19.5788L5.25434 18.9473L6.51747 19.5788V20.2104Z" fill="#FF4B55"/>
<path d="M17.0728 3.43903C17.0055 3.40598 16.9447 3.49349 16.9992 3.54492C17.7139 4.21939 18.1656 5.16654 18.1656 6.22305C18.1656 8.29837 16.4975 9.9634 14.4463 9.9634C14.0676 9.9634 13.703 9.90434 13.359 9.79685C13.2877 9.77459 13.2417 9.87021 13.303 9.91282C13.9027 10.3297 14.6256 10.5789 15.4146 10.5789C17.4929 10.5789 19.1912 8.91369 19.1912 6.80827C19.1912 5.32854 18.3227 4.05341 17.0728 3.43903Z" fill="#F5F5F5"/>
<path d="M11.9327 5.87577L11.7782 6.31283L12.1416 6.60054C12.1887 6.63781 12.1613 6.71351 12.1013 6.71197L11.6379 6.70006L11.4766 7.13468C11.4557 7.19093 11.3752 7.18826 11.3581 7.1307L11.2263 6.68628L10.7631 6.6672C10.7031 6.66472 10.6808 6.58733 10.7303 6.55334L11.1122 6.29061L10.9873 5.84422C10.9711 5.78643 11.0378 5.74129 11.0854 5.7778L11.4533 6.05985L11.8392 5.80307C11.8892 5.76974 11.9527 5.81919 11.9327 5.87577Z" fill="#F5F5F5"/>
<path d="M13.8097 6.82377L13.6551 7.26083L14.0186 7.54854C14.0656 7.58581 14.0382 7.66151 13.9782 7.65996L13.5148 7.64806L13.3535 8.08268C13.3327 8.13893 13.2521 8.13626 13.2351 8.07869L13.1032 7.63428L12.6401 7.6152C12.5801 7.61271 12.5578 7.53532 12.6072 7.50134L12.9892 7.23861L12.8642 6.79222C12.848 6.73443 12.9147 6.68929 12.9624 6.7258L13.3303 7.00784L13.7162 6.75107C13.7661 6.71769 13.8297 6.76719 13.8097 6.82377Z" fill="#F5F5F5"/>
<path d="M13.7911 4.87101L13.6366 5.30807L14 5.59578C14.0471 5.63305 14.0197 5.70875 13.9597 5.7072L13.4963 5.6953L13.335 6.12992C13.3141 6.18617 13.2336 6.1835 13.2165 6.12594L13.0847 5.68152L12.6215 5.66244C12.5615 5.65995 12.5392 5.58257 12.5887 5.54858L12.9706 5.28585L12.8456 4.83946C12.8295 4.78167 12.8962 4.73653 12.9438 4.77304L13.3117 5.05509L13.6976 4.79831C13.7476 4.76493 13.8111 4.81443 13.7911 4.87101Z" fill="#F5F5F5"/>
<path d="M13.8546 2.98612L13.7 3.42318L14.0635 3.7109C14.1106 3.74816 14.0831 3.82386 14.0231 3.82232L13.5597 3.81041L13.3984 4.24503C13.3776 4.30128 13.2971 4.29861 13.28 4.24105L13.1481 3.79663L12.685 3.77755C12.625 3.77507 12.6027 3.69768 12.6522 3.66369L13.0341 3.40096L12.9091 2.95458C12.893 2.89678 12.9597 2.85164 13.0073 2.88815L13.3752 3.1702L13.7611 2.91342C13.8111 2.88004 13.8746 2.92954 13.8546 2.98612Z" fill="#F5F5F5"/>
<path d="M15.6935 3.93412L15.5389 4.37118L15.9024 4.65889C15.9494 4.69616 15.922 4.77186 15.862 4.77031L15.3986 4.75841L15.2373 5.19303C15.2165 5.24928 15.1359 5.24661 15.1189 5.18905L14.987 4.74463L14.5238 4.72555C14.4639 4.72307 14.4416 4.64568 14.491 4.61169L14.873 4.34896L14.748 3.90257C14.7318 3.84478 14.7985 3.79964 14.8461 3.83615L15.2141 4.1182L15.6 3.86142C15.6499 3.82804 15.7135 3.87754 15.6935 3.93412Z" fill="#F5F5F5"/>
</g>
<defs>
<clipPath id="clip0_8615_27649">
<path d="M0 2C0 0.895432 0.895431 0 2 0H21.9998C23.1043 0 23.9998 0.895431 23.9998 2V21.9998C23.9998 23.1043 23.1043 23.9998 21.9998 23.9998H2C0.895432 23.9998 0 23.1043 0 21.9998V2Z" fill="white"/>
</clipPath>
</defs>
</svg>
