<svg width="24" height="24" viewBox="0 0 24 24" fill="none" xmlns="http://www.w3.org/2000/svg">
<g clip-path="url(#clip0_8615_27463)">
<path d="M24.0037 0H0.00390625V23.9998H24.0037V0Z" fill="#82AFFF"/>
<path d="M4.42883 0H0.0078125V0.936413L4.42883 3.83293V0Z" fill="#41479B"/>
<path d="M0.0078125 3.20154V4.42107H1.8692L0.0078125 3.20154Z" fill="#41479B"/>
<path d="M0.0078125 7.57898V8.79851L1.8692 7.57898H0.0078125Z" fill="#41479B"/>
<path d="M12.0079 0.936413V0H7.58691V3.83293L12.0079 0.936413Z" fill="#41479B"/>
<path d="M12.0079 8.79851V7.57898H10.1465L12.0079 8.79851Z" fill="#41479B"/>
<path d="M7.58691 8.16699V11.9999H12.0079V11.0635L7.58691 8.16699Z" fill="#41479B"/>
<path d="M12.0079 4.42107V3.20154L10.1465 4.42107H12.0079Z" fill="#41479B"/>
<path d="M0.0078125 11.0635V11.9999H4.42883V8.16699L0.0078125 11.0635Z" fill="#41479B"/>
<path d="M12.0076 11.0636V10.1278L8.08105 7.57898H9.2411L12.0076 9.37479V8.79851L10.1462 7.57898H12.0076V6.94739H6.95508V12H7.58662V8.16706L12.0076 11.0636Z" fill="#F5F5F5"/>
<path d="M0.0078125 6.94739V7.57898H1.8692L0.0078125 8.79851V9.68449L3.25139 7.57898H4.41144L0.0078125 10.4375V11.0636L4.42883 8.16706V12H5.06037V6.94739H0.0078125Z" fill="#F5F5F5"/>
<path d="M5.06037 0H4.42883V3.83293L0.0078125 0.936413V1.96118L3.79724 4.42102H2.63719L0.0078125 2.71422V3.20148L1.8692 4.42102H0.0078125V5.05261H5.06037V0Z" fill="#F5F5F5"/>
<path d="M12.0076 5.05261V4.42102H10.1462L12.0076 3.20148V2.30421L8.74667 4.42102H7.58662L12.0076 1.55122V0.936413L7.58662 3.83293V0H6.95508V5.05261H12.0076Z" fill="#F5F5F5"/>
<path d="M12.0077 6.94728V5.05261H6.95514V0H5.06037V5.05261H0.0078125V6.94728H5.06037V11.9999H6.95514V6.94728H12.0077Z" fill="#FF4B55"/>
<path d="M3.25139 7.57898L0.0078125 9.68449V10.4375L4.41144 7.57898H3.25139Z" fill="#FF4B55"/>
<path d="M8.08105 7.57898L12.0076 10.1278V9.37479L9.24111 7.57898H8.08105Z" fill="#FF4B55"/>
<path d="M3.79724 4.42114L0.0078125 1.9613V2.71434L2.63719 4.42114H3.79724Z" fill="#FF4B55"/>
<path d="M8.74697 4.42107L12.0079 2.30426V1.55127L7.58691 4.42107H8.74697Z" fill="#FF4B55"/>
<path d="M9.56728 19.4979L9.34575 20.1621L8.64563 20.1676C8.5785 20.1681 8.55066 20.2538 8.60466 20.2937L9.1679 20.7096L8.95674 21.3771C8.93649 21.4412 9.00938 21.4941 9.06398 21.455L9.6336 21.0479L10.2032 21.455C10.2578 21.4941 10.3307 21.4411 10.3105 21.3771L10.0993 20.7096L10.6625 20.2937C10.7165 20.2538 10.6887 20.1681 10.6216 20.1676L9.92146 20.1621L9.69993 19.4979C9.6786 19.4343 9.58851 19.4343 9.56728 19.4979Z" fill="#FFE15A"/>
<path d="M20.3505 14.3256L20.129 14.9898L19.4288 14.9953C19.3617 14.9958 19.3339 15.0815 19.3879 15.1214L19.9511 15.5373L19.7399 16.2048C19.7197 16.2688 19.7926 16.3218 19.8472 16.2827L20.4168 15.8756L20.9864 16.2827C21.041 16.3218 21.1139 16.2688 21.0937 16.2048L20.8825 15.5373L21.4458 15.1214C21.4997 15.0815 21.4719 14.9958 21.4048 14.9953L20.7047 14.9898L20.4831 14.3256C20.4618 14.2619 20.3717 14.2619 20.3505 14.3256Z" fill="#FFE15A"/>
<path d="M20.3505 8.73943L20.129 9.40364L19.4288 9.40908C19.3617 9.40959 19.3339 9.49528 19.3879 9.53517L19.9511 9.95109L19.7399 10.6186C19.7197 10.6827 19.7926 10.7356 19.8472 10.6965L20.4168 10.2894L20.9864 10.6965C21.041 10.7356 21.1139 10.6826 21.0937 10.6186L20.8825 9.95109L21.4458 9.53517C21.4997 9.49528 21.4719 9.40959 21.4048 9.40908L20.7047 9.40364L20.4831 8.73943C20.4618 8.67572 20.3717 8.67572 20.3505 8.73943Z" fill="#FFE15A"/>
<path d="M12.3384 16.0036L12.5571 16.6687L11.9986 17.091C11.945 17.1315 11.9738 17.2168 12.041 17.2166L12.7411 17.2142L12.9701 17.8758C12.992 17.9393 13.0821 17.9382 13.1027 17.8743L13.3167 17.2076L14.0167 17.1943C14.0838 17.1931 14.1107 17.1071 14.0563 17.0678L13.4884 16.6582L13.6921 15.9883C13.7116 15.9241 13.6381 15.872 13.5839 15.9116L13.019 16.3251L12.4448 15.9245C12.3898 15.886 12.3175 15.9398 12.3384 16.0036Z" fill="#FFE15A"/>
<path d="M12.2876 18.8742L12.5063 19.5393L11.9478 19.9616C11.8942 20.0021 11.9231 20.0874 11.9902 20.0872L12.6903 20.0848L12.9193 20.7464C12.9413 20.8099 13.0314 20.8088 13.0519 20.7449L13.2659 20.0783L13.9659 20.0649C14.0331 20.0637 14.0599 19.9777 14.0055 19.9384L13.4376 19.5288L13.6413 18.859C13.6608 18.7947 13.5873 18.7426 13.5331 18.7822L12.9682 19.1957L12.394 18.7951C12.3389 18.7567 12.2666 18.8105 12.2876 18.8742Z" fill="#FFE15A"/>
<path d="M15.313 18.1501L15.5317 18.8152L14.9732 19.2375C14.9196 19.278 14.9484 19.3633 15.0156 19.3631L15.7157 19.3606L15.9447 20.0223C15.9667 20.0858 16.0567 20.0847 16.0773 20.0208L16.2913 19.3541L16.9913 19.3408C17.0585 19.3396 17.0853 19.2535 17.0309 19.2143L16.463 18.8047L16.6667 18.1348C16.6862 18.0706 16.6127 18.0184 16.5585 18.0581L15.9936 18.4716L15.4194 18.0709C15.3644 18.0326 15.2921 18.0863 15.313 18.1501Z" fill="#FFE15A"/>
<path d="M15.2613 11.8916L15.4799 12.5567L14.9214 12.9789C14.8679 13.0194 14.8967 13.1048 14.9638 13.1045L15.664 13.1021L15.893 13.7637C15.9149 13.8272 16.005 13.8262 16.0255 13.7622L16.2395 13.0956L16.9396 13.0823C17.0067 13.081 17.0336 12.995 16.9791 12.9557L16.4113 12.5462L16.6149 11.8763C16.6345 11.8121 16.561 11.7599 16.5068 11.7996L15.9418 12.2131L15.3676 11.8124C15.3126 11.774 15.2403 11.8278 15.2613 11.8916Z" fill="#FFE15A"/>
<path d="M17.8218 11.0382L18.0405 11.7033L17.482 12.1255C17.4284 12.166 17.4572 12.2514 17.5244 12.2511L18.2245 12.2487L18.4535 12.9103C18.4754 12.9738 18.5655 12.9728 18.5861 12.9088L18.8001 12.2422L19.5001 12.2289C19.5672 12.2276 19.5941 12.1416 19.5397 12.1023L18.9718 11.6928L19.1755 11.0229C19.195 10.9587 19.1215 10.9065 19.0673 10.9462L18.5023 11.3597L17.9282 10.959C17.8731 10.9206 17.8008 10.9744 17.8218 11.0382Z" fill="#FFE15A"/>
</g>
<defs>
<clipPath id="clip0_8615_27463">
<path d="M0 2C0 0.895432 0.895431 0 2 0H21.9998C23.1043 0 23.9998 0.895431 23.9998 2V21.9998C23.9998 23.1043 23.1043 23.9998 21.9998 23.9998H2C0.895432 23.9998 0 23.1043 0 21.9998V2Z" fill="white"/>
</clipPath>
</defs>
</svg>
