<svg width="24" height="24" viewBox="0 0 24 24" fill="none" xmlns="http://www.w3.org/2000/svg">
<g clip-path="url(#clip0_8615_27621)">
<path d="M24.0027 0H0.00292969V3.9998H24.0027V0Z" fill="#464655"/>
<path d="M24.0027 3.99988H0.00292969V7.99968H24.0027V3.99988Z" fill="#FFE15A"/>
<path d="M24.0027 8.00012H0.00292969V11.9999H24.0027V8.00012Z" fill="#FF4B55"/>
<path d="M24.0027 12H0.00292969V15.9998H24.0027V12Z" fill="#464655"/>
<path d="M24.0027 15.9998H0.00292969V19.9996H24.0027V15.9998Z" fill="#FFE15A"/>
<path d="M24.0027 20H0.00292969V23.9998H24.0027V20Z" fill="#FF4B55"/>
<path d="M12.0032 15.7892C14.096 15.7892 15.7925 14.0927 15.7925 11.9999C15.7925 9.90712 14.096 8.21057 12.0032 8.21057C9.91041 8.21057 8.21387 9.90712 8.21387 11.9999C8.21387 14.0927 9.91041 15.7892 12.0032 15.7892Z" fill="#F5F5F5"/>
<path d="M12.2317 9.69278L12.605 9.54348C12.6591 9.52183 12.6853 9.45981 12.6613 9.40675C12.5776 9.22113 12.3533 8.83708 11.927 8.82555C11.6571 8.81824 11.4553 8.87908 11.3414 8.92605C11.2832 8.95005 11.2598 9.01929 11.2916 9.07361L11.5169 9.45845L12.2317 9.69278Z" fill="#FF4B55"/>
<path d="M11.9268 8.82553C11.8957 8.82469 11.8677 8.82652 11.8385 8.82736L11.7979 9.42328L12.0146 9.54342L12.4836 9.11916C12.3601 8.96967 12.179 8.83233 11.9268 8.82553Z" fill="#FFE15A"/>
<path d="M13.5325 13.197L11.8448 11.228C11.8448 10.8205 11.9921 10.4877 12.0734 10.3347C12.3058 10.231 12.4555 9.97551 12.3932 9.69352C12.3479 9.48844 12.1824 9.32105 11.9776 9.27422C11.6092 9.18999 11.2823 9.46758 11.2823 9.82158C11.2823 9.83489 11.2853 9.84741 11.2862 9.86048C10.9222 9.95648 10.8545 10.0736 10.8545 10.0736C10.8545 10.0736 11.0931 10.0101 11.3002 9.95587C11.3044 9.97275 11.3099 9.98906 11.3155 10.0053L10.9072 10.1439L11.3531 10.0897C11.4026 10.1802 11.4761 10.2555 11.5647 10.3076C11.2314 10.576 10.7197 11.0805 10.7197 11.65C10.7197 12.1707 11.1055 12.5177 11.5912 12.7484C11.761 12.829 11.9171 12.9355 12.0455 13.0728L12.0502 13.078L12.0925 13.7244C11.7441 13.7244 11.3288 13.7244 11.1417 13.7244C10.7901 13.7244 10.6934 13.953 10.6934 14.3309L10.8604 14.0936L11.001 14.3573L11.0186 14.0584L11.168 14.2518C11.168 14.2518 11.1665 13.9992 11.357 13.9661C11.4581 13.9486 11.8083 13.9266 12.1057 13.9266L12.1687 14.8899C11.7653 14.888 11.3086 15.078 11.3086 15.078C11.4493 15.0517 11.7921 15.1044 11.7921 15.1044L11.735 15.2714C12.1305 15.0561 12.8557 15.0517 12.8557 15.0517C12.8557 15.0517 12.6975 14.9438 12.3283 14.9016L12.3368 13.9266H12.9172L13.0051 13.698C13.0051 13.698 12.7056 13.3008 12.7056 13.0903C13.1699 13.1785 13.5325 13.197 13.5325 13.197ZM12.3386 13.7244L12.3415 13.3899C12.5157 13.5766 12.6535 13.7244 12.6535 13.7244C12.6535 13.7244 12.5234 13.7244 12.3386 13.7244Z" fill="#464655"/>
<path d="M13.5329 13.4783C13.3923 12.9157 12.7759 12.7428 12.1265 12.3532C11.4233 11.9312 11.8453 11.228 11.8453 11.228C11.8453 11.228 14.2009 11.9195 14.3768 12.9157C14.5137 13.6915 13.9548 14.1815 13.6735 14.3221L13.7746 14.0408H13.2516C13.2516 14.0408 13.8054 13.6101 13.8142 13.1969L13.5329 13.4783Z" fill="#696E7D"/>
<path d="M14.3759 12.9158C14.2583 12.2498 13.1672 11.7204 12.4563 11.4424C12.2289 11.417 12.0289 11.7994 12.653 12.2125C13.4926 12.7683 13.532 13.4783 13.532 13.4783L13.8133 13.197C13.8045 13.6101 13.2508 14.0408 13.2508 14.0408H13.7738L13.6727 14.3221C13.9539 14.1815 14.5128 13.6915 14.3759 12.9158Z" fill="#FFFCFF"/>
<path d="M14.3761 12.9158C14.2982 12.4745 13.7924 12.0936 13.2533 11.8056C12.9937 11.728 12.7676 11.738 12.7676 11.738C12.9258 11.8347 12.9961 12.0808 12.9961 12.0808C12.8819 12.0104 12.627 12.0456 12.627 12.0456C12.6978 12.1064 12.765 12.2304 12.81 12.3253C13.4975 12.8598 13.5323 13.4783 13.5323 13.4783L13.8136 13.197C13.8048 13.6101 13.2511 14.0409 13.2511 14.0409H13.7741L13.673 14.3222C13.9542 14.1816 14.513 13.6916 14.3761 12.9158Z" fill="#FF4B55"/>
<path d="M11.6162 9.86291C11.668 9.86291 11.71 9.82094 11.71 9.76916C11.71 9.71739 11.668 9.67542 11.6162 9.67542C11.5644 9.67542 11.5225 9.71739 11.5225 9.76916C11.5225 9.82094 11.5644 9.86291 11.6162 9.86291Z" fill="#F5F5F5"/>
<path d="M11.3701 10.1265C11.3701 10.1265 11.165 10.3667 11.2998 10.4371C11.4345 10.5074 11.5646 10.3077 11.5646 10.3077L11.3701 10.1265Z" fill="#FF4B55"/>
</g>
<defs>
<clipPath id="clip0_8615_27621">
<path d="M0 2C0 0.895432 0.895431 0 2 0H21.9998C23.1043 0 23.9998 0.895431 23.9998 2V21.9998C23.9998 23.1043 23.1043 23.9998 21.9998 23.9998H2C0.895432 23.9998 0 23.1043 0 21.9998V2Z" fill="white"/>
</clipPath>
</defs>
</svg>
