<svg width="24" height="24" viewBox="0 0 24 24" fill="none" xmlns="http://www.w3.org/2000/svg">
<g clip-path="url(#clip0_8615_27461)">
<path d="M8.84595 0H0.00390625V1.87283L8.84595 7.66586V0Z" fill="#41479B"/>
<path d="M0.00390625 6.40308V8.84215H3.72664L0.00390625 6.40308Z" fill="#41479B"/>
<path d="M0.00390625 15.1578V17.5969L3.72664 15.1578H0.00390625Z" fill="#41479B"/>
<path d="M24.0041 1.87283V0H15.1621V7.66586L24.0041 1.87283Z" fill="#41479B"/>
<path d="M24.004 17.5969V15.1578H20.2812L24.004 17.5969Z" fill="#41479B"/>
<path d="M15.1621 16.334V23.9998H24.0041V22.127L15.1621 16.334Z" fill="#41479B"/>
<path d="M24.004 8.84215V6.40308L20.2812 8.84215H24.004Z" fill="#41479B"/>
<path d="M0.00390625 22.127V23.9998H8.84595V16.334L0.00390625 22.127Z" fill="#41479B"/>
<path d="M24.0036 22.127V20.2554L16.1505 15.1578H18.4706L24.0036 18.7494V17.5969L20.2809 15.1578H24.0036V13.8947H13.8984V23.9998H15.1616V16.334L24.0036 22.127Z" fill="#F5F5F5"/>
<path d="M0.00390625 13.8947V15.1578H3.72664L0.00390625 17.5969V19.3688L6.49111 15.1578H8.81121L0.00390625 20.8748V22.127L8.84595 16.334V23.9998H10.1091V13.8947H0.00390625Z" fill="#F5F5F5"/>
<path d="M10.1091 0H8.84595V7.66586L0.00390625 1.87283V3.92241L7.58277 8.84204H5.26267L0.00390625 5.4284V6.40297L3.72664 8.84204H0.00390625V10.1052H10.1091V0Z" fill="#F5F5F5"/>
<path d="M24.0036 10.1052V8.84204H20.2809L24.0036 6.40297V4.60842L17.4817 8.84204H15.1616L24.0036 3.10239V1.87283L15.1616 7.66586V0H13.8984V10.1052H24.0036Z" fill="#F5F5F5"/>
<path d="M24.0037 13.8946V10.1052H13.8985V0H10.1091V10.1052H0.00390625V13.8946H10.1091V23.9998H13.8985V13.8946H24.0037Z" fill="#FF4B55"/>
<path d="M6.49111 15.1578L0.00390625 19.3688V20.8748L8.81121 15.1578H6.49111Z" fill="#FF4B55"/>
<path d="M16.1514 15.1578L24.0045 20.2554V18.7494L18.4715 15.1578H16.1514Z" fill="#FF4B55"/>
<path d="M7.58277 8.84211L0.00390625 3.92249V5.42847L5.26267 8.84211H7.58277Z" fill="#FF4B55"/>
<path d="M17.4822 8.84206L24.0041 4.60845V3.10242L15.1621 8.84206H17.4822Z" fill="#FF4B55"/>
</g>
<defs>
<clipPath id="clip0_8615_27461">
<path d="M0 2C0 0.895432 0.895431 0 2 0H21.9998C23.1043 0 23.9998 0.895431 23.9998 2V21.9998C23.9998 23.1043 23.1043 23.9998 21.9998 23.9998H2C0.895432 23.9998 0 23.1043 0 21.9998V2Z" fill="white"/>
</clipPath>
</defs>
</svg>
