<svg width="24" height="24" viewBox="0 0 24 24" fill="none" xmlns="http://www.w3.org/2000/svg">
<g clip-path="url(#clip0_1492_727)">
<g clip-path="url(#clip1_1492_727)">
<path d="M23.9638 0.0111084H-0.013916V23.9888H23.9638V0.0111084Z" fill="#F5F5F5"/>
<path d="M23.9876 0.0112305H-0.012207V1.85527H23.9876V0.0112305Z" fill="#FF4B55"/>
<path d="M23.9876 7.38904H-0.012207V9.23308H23.9876V7.38904Z" fill="#FF4B55"/>
<path d="M23.9876 3.7002H-0.012207V5.54424H23.9876V3.7002Z" fill="#FF4B55"/>
<path d="M23.9876 11.0776H-0.012207V12.9217H23.9876V11.0776Z" fill="#FF4B55"/>
<path d="M23.9876 18.4552H-0.012207V20.2992H23.9876V18.4552Z" fill="#FF4B55"/>
<path d="M23.9876 22.1442H-0.012207V23.9882H23.9876V22.1442Z" fill="#FF4B55"/>
<path d="M23.9876 14.7666H-0.012207V16.6106H23.9876V14.7666Z" fill="#FF4B55"/>
<path d="M12.8972 0.0111084H-0.013916V12.9222H12.8972V0.0111084Z" fill="#41479B"/>
<path d="M1.63518 0.975746L1.73465 1.27406L2.04908 1.27649C2.08977 1.27682 2.10669 1.32876 2.07393 1.35295L1.82099 1.53974L1.91582 1.83955C1.9281 1.87836 1.88394 1.91047 1.85076 1.8868L1.59491 1.70394L1.33907 1.8868C1.30598 1.91052 1.26178 1.87836 1.27401 1.83955L1.36884 1.53974L1.1159 1.35295C1.08319 1.32876 1.10001 1.27682 1.14075 1.27649L1.45518 1.27406L1.55465 0.975746C1.56768 0.937121 1.62234 0.937121 1.63518 0.975746Z" fill="#F5F5F5"/>
<path d="M1.63518 3.46418L1.73465 3.76249L2.04908 3.76493C2.08977 3.76526 2.10669 3.8172 2.07393 3.84138L1.82099 4.02818L1.91582 4.32799C1.9281 4.3668 1.88394 4.39891 1.85076 4.37524L1.59491 4.19238L1.33907 4.37524C1.30598 4.39896 1.26178 4.3668 1.27401 4.32799L1.36884 4.02818L1.1159 3.84138C1.08319 3.8172 1.10001 3.76526 1.14075 3.76493L1.45518 3.76249L1.55465 3.46418C1.56768 3.42551 1.62234 3.42551 1.63518 3.46418Z" fill="#F5F5F5"/>
<path d="M1.63518 6.22404L1.73465 6.52235L2.04908 6.52478C2.08977 6.52511 2.10669 6.57705 2.07393 6.60128L1.82099 6.78808L1.91582 7.08789C1.9281 7.1267 1.88394 7.15881 1.85076 7.13514L1.59491 6.95228L1.33907 7.13514C1.30598 7.15886 1.26178 7.1267 1.27401 7.08789L1.36884 6.78808L1.1159 6.60128C1.08319 6.5771 1.10001 6.52511 1.14075 6.52478L1.45518 6.52235L1.55465 6.22404C1.56768 6.18541 1.62234 6.18541 1.63518 6.22404Z" fill="#F5F5F5"/>
<path d="M1.63518 8.7598L1.73465 9.05811L2.04908 9.06055C2.08977 9.06088 2.10669 9.11282 2.07393 9.137L1.82099 9.3238L1.91582 9.62361C1.9281 9.66242 1.88394 9.69453 1.85076 9.67086L1.59491 9.488L1.33907 9.67086C1.30598 9.69458 1.26178 9.66242 1.27401 9.62361L1.36884 9.3238L1.1159 9.137C1.08319 9.11282 1.10001 9.06088 1.14075 9.06055L1.45518 9.05811L1.55465 8.7598C1.56768 8.72118 1.62234 8.72118 1.63518 8.7598Z" fill="#F5F5F5"/>
<path d="M1.63518 11.0673L1.73465 11.3656L2.04908 11.368C2.08977 11.3684 2.10669 11.4203 2.07393 11.4445L1.82099 11.6313L1.91582 11.9311C1.9281 11.9699 1.88394 12.002 1.85076 11.9784L1.59491 11.7955L1.33907 11.9784C1.30598 12.0021 1.26178 11.9699 1.27401 11.9311L1.36884 11.6313L1.1159 11.4445C1.08319 11.4203 1.10001 11.3683 1.14075 11.368L1.45518 11.3656L1.55465 11.0673C1.56768 11.0287 1.62234 11.0287 1.63518 11.0673Z" fill="#F5F5F5"/>
<path d="M2.84661 2.15409L2.94607 2.4524L3.26051 2.45484C3.3012 2.45517 3.31812 2.5071 3.28535 2.53129L3.03242 2.71809L3.12724 3.01789C3.13952 3.05671 3.09537 3.08882 3.06218 3.06514L2.80634 2.88229L2.5505 3.06514C2.51741 3.08886 2.4732 3.05671 2.48544 3.01789L2.58026 2.71809L2.32733 2.53129C2.29461 2.5071 2.31144 2.45517 2.35217 2.45484L2.66661 2.4524L2.76608 2.15409C2.77911 2.11547 2.83376 2.11547 2.84661 2.15409Z" fill="#F5F5F5"/>
<path d="M2.84661 4.91398L2.94607 5.21229L3.26051 5.21473C3.3012 5.21505 3.31812 5.26699 3.28535 5.29118L3.03242 5.47797L3.12724 5.77778C3.13952 5.81659 3.09537 5.8487 3.06218 5.82503L2.80634 5.64217L2.5505 5.82503C2.51741 5.84875 2.4732 5.81659 2.48544 5.77778L2.58026 5.47797L2.32733 5.29118C2.29461 5.26699 2.31144 5.21505 2.35217 5.21473L2.66661 5.21229L2.76608 4.91398C2.77911 4.87535 2.83376 4.87535 2.84661 4.91398Z" fill="#F5F5F5"/>
<path d="M2.84661 7.53614L2.94607 7.83444L3.26051 7.83688C3.3012 7.83721 3.31812 7.88915 3.28535 7.91333L3.03242 8.10013L3.12724 8.39994C3.13952 8.43875 3.09537 8.47086 3.06218 8.44719L2.80634 8.26433L2.5505 8.44719C2.51741 8.47091 2.4732 8.43875 2.48544 8.39994L2.58026 8.10013L2.32733 7.91333C2.29461 7.88915 2.31144 7.83721 2.35217 7.83688L2.66661 7.83444L2.76608 7.53614C2.77911 7.49756 2.83376 7.49756 2.84661 7.53614Z" fill="#F5F5F5"/>
<path d="M2.84661 9.89094L2.94607 10.1893L3.26051 10.1917C3.3012 10.192 3.31812 10.244 3.28535 10.2681L3.03242 10.4549L3.12724 10.7547C3.13952 10.7936 3.09537 10.8257 3.06218 10.802L2.80634 10.6191L2.5505 10.802C2.51741 10.8257 2.4732 10.7936 2.48544 10.7547L2.58026 10.4549L2.32733 10.2681C2.29461 10.244 2.31144 10.192 2.35217 10.1917L2.66661 10.1893L2.76608 9.89094C2.77911 9.85227 2.83376 9.85227 2.84661 9.89094Z" fill="#F5F5F5"/>
<path d="M4.0573 0.975746L4.15677 1.27406L4.4712 1.27649C4.51189 1.27682 4.52881 1.32876 4.49605 1.35295L4.24311 1.53974L4.33794 1.83955C4.35022 1.87836 4.30606 1.91047 4.27288 1.8868L4.01703 1.70394L3.76119 1.8868C3.7281 1.91052 3.6839 1.87836 3.69613 1.83955L3.79096 1.53974L3.53802 1.35295C3.5053 1.32876 3.52213 1.27682 3.56287 1.27649L3.8773 1.27406L3.97677 0.975746C3.9898 0.937121 4.04441 0.937121 4.0573 0.975746Z" fill="#F5F5F5"/>
<path d="M4.0573 3.46418L4.15677 3.76249L4.4712 3.76493C4.51189 3.76526 4.52881 3.8172 4.49605 3.84138L4.24311 4.02818L4.33794 4.32799C4.35022 4.3668 4.30606 4.39891 4.27288 4.37524L4.01703 4.19238L3.76119 4.37524C3.7281 4.39896 3.6839 4.3668 3.69613 4.32799L3.79096 4.02818L3.53802 3.84138C3.5053 3.8172 3.52213 3.76526 3.56287 3.76493L3.8773 3.76249L3.97677 3.46418C3.9898 3.42551 4.04441 3.42551 4.0573 3.46418Z" fill="#F5F5F5"/>
<path d="M4.0573 6.22404L4.15677 6.52235L4.4712 6.52478C4.51189 6.52511 4.52881 6.57705 4.49605 6.60128L4.24311 6.78808L4.33794 7.08789C4.35022 7.1267 4.30606 7.15881 4.27288 7.13514L4.01703 6.95228L3.76119 7.13514C3.7281 7.15886 3.6839 7.1267 3.69613 7.08789L3.79096 6.78808L3.53802 6.60128C3.5053 6.5771 3.52213 6.52511 3.56287 6.52478L3.8773 6.52235L3.97677 6.22404C3.9898 6.18541 4.04441 6.18541 4.0573 6.22404Z" fill="#F5F5F5"/>
<path d="M4.05794 8.75981L4.15741 9.05812L4.47184 9.06056C4.51253 9.06088 4.52945 9.11282 4.49668 9.13701L4.24375 9.3238L4.33858 9.62361C4.35086 9.66243 4.3067 9.69453 4.27351 9.67086L4.01777 9.48796L3.76193 9.67082C3.72883 9.69453 3.68463 9.66238 3.69686 9.62357L3.79169 9.32376L3.53876 9.13696C3.50604 9.11277 3.52286 9.06084 3.5636 9.06051L3.87803 9.05807L3.9775 8.75976C3.99044 8.72118 4.04505 8.72118 4.05794 8.75981Z" fill="#F5F5F5"/>
<path d="M4.0573 11.0673L4.15677 11.3656L4.4712 11.368C4.51189 11.3684 4.52881 11.4203 4.49605 11.4445L4.24311 11.6313L4.33794 11.9311C4.35022 11.9699 4.30606 12.002 4.27288 11.9784L4.01703 11.7955L3.76119 11.9784C3.7281 12.0021 3.6839 11.9699 3.69613 11.9311L3.79096 11.6313L3.53802 11.4445C3.5053 11.4203 3.52213 11.3683 3.56287 11.368L3.8773 11.3656L3.97677 11.0673C3.9898 11.0287 4.04441 11.0287 4.0573 11.0673Z" fill="#F5F5F5"/>
<path d="M5.26873 2.15409L5.36819 2.4524L5.68263 2.45484C5.72331 2.45517 5.74024 2.5071 5.70747 2.53129L5.45454 2.71809L5.54936 3.01789C5.56164 3.05671 5.51749 3.08882 5.4843 3.06514L5.22846 2.88229L4.97262 3.06514C4.93953 3.08886 4.89532 3.05671 4.90756 3.01789L5.00238 2.71809L4.74945 2.53129C4.71673 2.5071 4.73356 2.45517 4.77429 2.45484L5.08887 2.4524L5.18834 2.15409C5.20123 2.11547 5.25583 2.11547 5.26873 2.15409Z" fill="#F5F5F5"/>
<path d="M5.26873 4.91398L5.36819 5.21229L5.68263 5.21473C5.72331 5.21505 5.74024 5.26699 5.70747 5.29118L5.45454 5.47797L5.54936 5.77778C5.56164 5.81659 5.51749 5.8487 5.4843 5.82503L5.22846 5.64217L4.97262 5.82503C4.93953 5.84875 4.89532 5.81659 4.90756 5.77778L5.00238 5.47797L4.74945 5.29118C4.71673 5.26699 4.73356 5.21505 4.77429 5.21473L5.08873 5.21229L5.18819 4.91398C5.20123 4.87535 5.25583 4.87535 5.26873 4.91398Z" fill="#F5F5F5"/>
<path d="M5.26873 7.53614L5.36819 7.83444L5.68263 7.83688C5.72331 7.83721 5.74024 7.88915 5.70747 7.91333L5.45454 8.10013L5.54936 8.39994C5.56164 8.43875 5.51749 8.47086 5.4843 8.44719L5.22846 8.26433L4.97262 8.44719C4.93953 8.47091 4.89532 8.43875 4.90756 8.39994L5.00238 8.10013L4.74945 7.91333C4.71673 7.88915 4.73356 7.83721 4.77429 7.83688L5.08873 7.83444L5.18819 7.53614C5.20123 7.49756 5.25583 7.49756 5.26873 7.53614Z" fill="#F5F5F5"/>
<path d="M5.26873 9.89094L5.36819 10.1893L5.68263 10.1917C5.72331 10.192 5.74024 10.244 5.70747 10.2681L5.45454 10.4549L5.54936 10.7547C5.56164 10.7936 5.51749 10.8257 5.4843 10.802L5.22846 10.6191L4.97262 10.802C4.93953 10.8257 4.89532 10.7936 4.90756 10.7547L5.00238 10.4549L4.74945 10.2681C4.71673 10.244 4.73356 10.192 4.77429 10.1917L5.08873 10.1893L5.18819 9.89094C5.20123 9.85227 5.25583 9.85227 5.26873 9.89094Z" fill="#F5F5F5"/>
<path d="M6.48015 0.975746L6.57962 1.27406L6.89405 1.27649C6.93474 1.27682 6.95166 1.32876 6.9189 1.35295L6.66596 1.53974L6.76079 1.83955C6.77307 1.87836 6.72891 1.91047 6.69573 1.8868L6.43989 1.70394L6.18404 1.8868C6.15095 1.91052 6.10675 1.87836 6.11898 1.83955L6.21381 1.53974L5.96087 1.35295C5.92816 1.32876 5.94498 1.27682 5.98572 1.27649L6.30015 1.27406L6.39962 0.975746C6.41265 0.937121 6.46726 0.937121 6.48015 0.975746Z" fill="#F5F5F5"/>
<path d="M6.48015 3.46418L6.57962 3.76249L6.89405 3.76493C6.93474 3.76526 6.95166 3.8172 6.9189 3.84138L6.66596 4.02818L6.76079 4.32799C6.77307 4.3668 6.72891 4.39891 6.69573 4.37524L6.43989 4.19238L6.18404 4.37524C6.15095 4.39896 6.10675 4.3668 6.11898 4.32799L6.21381 4.02818L5.96087 3.84138C5.92816 3.8172 5.94498 3.76526 5.98572 3.76493L6.30015 3.76249L6.39962 3.46418C6.41265 3.42551 6.46726 3.42551 6.48015 3.46418Z" fill="#F5F5F5"/>
<path d="M6.48015 6.22404L6.57962 6.52235L6.89405 6.52478C6.93474 6.52511 6.95166 6.57705 6.9189 6.60128L6.66596 6.78808L6.76079 7.08789C6.77307 7.1267 6.72891 7.15881 6.69573 7.13514L6.43989 6.95228L6.18404 7.13514C6.15095 7.15886 6.10675 7.1267 6.11898 7.08789L6.21381 6.78808L5.96087 6.60128C5.92816 6.5771 5.94498 6.52511 5.98572 6.52478L6.30015 6.52235L6.39962 6.22404C6.41265 6.18541 6.46726 6.18541 6.48015 6.22404Z" fill="#F5F5F5"/>
<path d="M6.48015 8.7598L6.57962 9.05811L6.89405 9.06055C6.93474 9.06088 6.95166 9.11282 6.9189 9.137L6.66596 9.3238L6.76079 9.62361C6.77307 9.66242 6.72891 9.69453 6.69573 9.67086L6.43989 9.488L6.18404 9.67086C6.15095 9.69458 6.10675 9.66242 6.11898 9.62361L6.21381 9.3238L5.96087 9.137C5.92816 9.11282 5.94498 9.06088 5.98572 9.06055L6.30015 9.05811L6.39962 8.7598C6.41265 8.72118 6.46726 8.72118 6.48015 8.7598Z" fill="#F5F5F5"/>
<path d="M6.48015 11.0673L6.57962 11.3656L6.89405 11.368C6.93474 11.3684 6.95166 11.4203 6.9189 11.4445L6.66596 11.6313L6.76079 11.9311C6.77307 11.9699 6.72891 12.002 6.69573 11.9784L6.43989 11.7955L6.18404 11.9784C6.15095 12.0021 6.10675 11.9699 6.11898 11.9311L6.21381 11.6313L5.96087 11.4445C5.92816 11.4203 5.94498 11.3683 5.98572 11.368L6.30015 11.3656L6.39962 11.0673C6.41265 11.0287 6.46726 11.0287 6.48015 11.0673Z" fill="#F5F5F5"/>
<path d="M7.69158 2.15409L7.79105 2.4524L8.10548 2.45484C8.14617 2.45517 8.16309 2.5071 8.13032 2.53129L7.87739 2.71809L7.97222 3.01789C7.9845 3.05671 7.94034 3.08882 7.90716 3.06514L7.65131 2.88229L7.39547 3.06514C7.36238 3.08886 7.31818 3.05671 7.33041 3.01789L7.42524 2.71809L7.1723 2.53129C7.13958 2.5071 7.15641 2.45517 7.1971 2.45484L7.51153 2.4524L7.611 2.15409C7.62408 2.11547 7.67869 2.11547 7.69158 2.15409Z" fill="#F5F5F5"/>
<path d="M7.69158 4.91398L7.79105 5.21229L8.10548 5.21473C8.14617 5.21505 8.16309 5.26699 8.13032 5.29118L7.87739 5.47797L7.97222 5.77778C7.9845 5.81659 7.94034 5.8487 7.90716 5.82503L7.65131 5.64217L7.39547 5.82503C7.36238 5.84875 7.31818 5.81659 7.33041 5.77778L7.42524 5.47797L7.1723 5.29118C7.13958 5.26699 7.15641 5.21505 7.1971 5.21473L7.51153 5.21229L7.611 4.91398C7.62408 4.87535 7.67869 4.87535 7.69158 4.91398Z" fill="#F5F5F5"/>
<path d="M7.69158 7.53614L7.79105 7.83444L8.10548 7.83688C8.14617 7.83721 8.16309 7.88915 8.13032 7.91333L7.87739 8.10013L7.97222 8.39994C7.9845 8.43875 7.94034 8.47086 7.90716 8.44719L7.65131 8.26433L7.39547 8.44719C7.36238 8.47091 7.31818 8.43875 7.33041 8.39994L7.42524 8.10013L7.1723 7.91333C7.13958 7.88915 7.15641 7.83721 7.1971 7.83688L7.51153 7.83444L7.611 7.53614C7.62408 7.49756 7.67869 7.49756 7.69158 7.53614Z" fill="#F5F5F5"/>
<path d="M7.69158 9.89094L7.79105 10.1893L8.10548 10.1917C8.14617 10.192 8.16309 10.244 8.13032 10.2681L7.87739 10.4549L7.97222 10.7547C7.9845 10.7936 7.94034 10.8257 7.90716 10.802L7.65131 10.6191L7.39547 10.802C7.36238 10.8257 7.31818 10.7936 7.33041 10.7547L7.42524 10.4549L7.1723 10.2681C7.13958 10.244 7.15641 10.192 7.1971 10.1917L7.51153 10.1893L7.611 9.89094C7.62408 9.85227 7.67869 9.85227 7.69158 9.89094Z" fill="#F5F5F5"/>
<path d="M8.90227 0.975746L9.00174 1.27406L9.31617 1.27649C9.35686 1.27682 9.37378 1.32876 9.34102 1.35295L9.08808 1.53974L9.18291 1.83955C9.19519 1.87836 9.15103 1.91047 9.11785 1.8868L8.86201 1.70394L8.60616 1.8868C8.57307 1.91052 8.52887 1.87836 8.5411 1.83955L8.63593 1.53974L8.38299 1.35295C8.35028 1.32876 8.3671 1.27682 8.40784 1.27649L8.72227 1.27406L8.82174 0.975746C8.83477 0.937121 8.88938 0.937121 8.90227 0.975746Z" fill="#F5F5F5"/>
<path d="M8.90227 3.46418L9.00174 3.76249L9.31617 3.76493C9.35686 3.76526 9.37378 3.8172 9.34102 3.84138L9.08808 4.02818L9.18291 4.32799C9.19519 4.3668 9.15103 4.39891 9.11785 4.37524L8.86201 4.19238L8.60616 4.37524C8.57307 4.39896 8.52887 4.3668 8.5411 4.32799L8.63593 4.02818L8.38299 3.84138C8.35028 3.8172 8.3671 3.76526 8.40784 3.76493L8.72227 3.76249L8.82174 3.46418C8.83477 3.42551 8.88938 3.42551 8.90227 3.46418Z" fill="#F5F5F5"/>
<path d="M8.90227 6.22404L9.00174 6.52235L9.31617 6.52478C9.35686 6.52511 9.37378 6.57705 9.34102 6.60128L9.08808 6.78808L9.18291 7.08789C9.19519 7.1267 9.15103 7.15881 9.11785 7.13514L8.86201 6.95228L8.60616 7.13514C8.57307 7.15886 8.52887 7.1267 8.5411 7.08789L8.63593 6.78808L8.38299 6.60128C8.35028 6.5771 8.3671 6.52511 8.40784 6.52478L8.72227 6.52235L8.82174 6.22404C8.83477 6.18541 8.88938 6.18541 8.90227 6.22404Z" fill="#F5F5F5"/>
<path d="M8.90227 8.7598L9.00174 9.05811L9.31617 9.06055C9.35686 9.06088 9.37378 9.11282 9.34102 9.137L9.08808 9.3238L9.18291 9.62361C9.19519 9.66242 9.15103 9.69453 9.11785 9.67086L8.86201 9.488L8.60616 9.67086C8.57307 9.69458 8.52887 9.66242 8.5411 9.62361L8.63593 9.3238L8.38299 9.137C8.35028 9.11282 8.3671 9.06088 8.40784 9.06055L8.72227 9.05811L8.82174 8.7598C8.83477 8.72118 8.88938 8.72118 8.90227 8.7598Z" fill="#F5F5F5"/>
<path d="M8.90227 11.0673L9.00174 11.3656L9.31617 11.368C9.35686 11.3684 9.37378 11.4203 9.34102 11.4445L9.08808 11.6313L9.18291 11.9311C9.19519 11.9699 9.15103 12.002 9.11785 11.9784L8.86201 11.7955L8.60616 11.9784C8.57307 12.0021 8.52887 11.9699 8.5411 11.9311L8.63593 11.6313L8.38299 11.4445C8.35028 11.4203 8.3671 11.3683 8.40784 11.368L8.72227 11.3656L8.82174 11.0673C8.83477 11.0287 8.88938 11.0287 8.90227 11.0673Z" fill="#F5F5F5"/>
<path d="M10.1137 2.15409L10.2132 2.4524L10.5276 2.45484C10.5683 2.45517 10.5852 2.5071 10.5524 2.53129L10.2995 2.71809L10.3943 3.01789C10.4066 3.05671 10.3625 3.08882 10.3293 3.06514L10.0734 2.88229L9.81759 3.06514C9.7845 3.08886 9.74029 3.05671 9.75253 3.01789L9.84735 2.71809L9.59442 2.53129C9.5617 2.5071 9.57853 2.45517 9.61926 2.45484L9.9337 2.4524L10.0332 2.15409C10.0461 2.11547 10.1008 2.11547 10.1137 2.15409Z" fill="#F5F5F5"/>
<path d="M10.1137 4.91398L10.2132 5.21229L10.5276 5.21473C10.5683 5.21505 10.5852 5.26699 10.5524 5.29118L10.2995 5.47797L10.3943 5.77778C10.4066 5.81659 10.3625 5.8487 10.3293 5.82503L10.0734 5.64217L9.81759 5.82503C9.7845 5.84875 9.74029 5.81659 9.75253 5.77778L9.84735 5.47797L9.59442 5.29118C9.5617 5.26699 9.57853 5.21505 9.61926 5.21473L9.9337 5.21229L10.0332 4.91398C10.0461 4.87535 10.1008 4.87535 10.1137 4.91398Z" fill="#F5F5F5"/>
<path d="M10.1137 7.53614L10.2132 7.83444L10.5276 7.83688C10.5683 7.83721 10.5852 7.88915 10.5524 7.91333L10.2995 8.10013L10.3943 8.39994C10.4066 8.43875 10.3625 8.47086 10.3293 8.44719L10.0734 8.26433L9.81759 8.44719C9.7845 8.47091 9.74029 8.43875 9.75253 8.39994L9.84735 8.10013L9.59442 7.91333C9.5617 7.88915 9.57853 7.83721 9.61926 7.83688L9.9337 7.83444L10.0332 7.53614C10.0461 7.49756 10.1008 7.49756 10.1137 7.53614Z" fill="#F5F5F5"/>
<path d="M10.1137 9.89094L10.2132 10.1893L10.5276 10.1917C10.5683 10.192 10.5852 10.244 10.5524 10.2681L10.2995 10.4549L10.3943 10.7547C10.4066 10.7936 10.3625 10.8257 10.3293 10.802L10.0734 10.6191L9.81759 10.802C9.7845 10.8257 9.74029 10.7936 9.75253 10.7547L9.84735 10.4549L9.59442 10.2681C9.5617 10.244 9.57853 10.192 9.61926 10.1917L9.9337 10.1893L10.0332 9.89094C10.0461 9.85227 10.1008 9.85227 10.1137 9.89094Z" fill="#F5F5F5"/>
<path d="M11.3251 0.975746L11.4246 1.27406L11.739 1.27649C11.7797 1.27682 11.7966 1.32876 11.7639 1.35295L11.5109 1.53974L11.6058 1.83955C11.618 1.87836 11.5739 1.91047 11.5407 1.8868L11.2849 1.70394L11.029 1.8868C10.9959 1.91052 10.9517 1.87836 10.964 1.83955L11.0588 1.53974L10.8058 1.35295C10.7731 1.32876 10.79 1.27682 10.8307 1.27649L11.1451 1.27406L11.2446 0.975746C11.2576 0.937121 11.3122 0.937121 11.3251 0.975746Z" fill="#F5F5F5"/>
<path d="M11.3251 3.46418L11.4246 3.76249L11.739 3.76493C11.7797 3.76526 11.7966 3.8172 11.7639 3.84138L11.5109 4.02818L11.6058 4.32799C11.618 4.3668 11.5739 4.39891 11.5407 4.37524L11.2849 4.19238L11.029 4.37524C10.9959 4.39896 10.9517 4.3668 10.964 4.32799L11.0588 4.02818L10.8058 3.84138C10.7731 3.8172 10.79 3.76526 10.8307 3.76493L11.1451 3.76249L11.2446 3.46418C11.2576 3.42551 11.3122 3.42551 11.3251 3.46418Z" fill="#F5F5F5"/>
<path d="M11.3251 6.22404L11.4246 6.52235L11.739 6.52478C11.7797 6.52511 11.7966 6.57705 11.7639 6.60128L11.5109 6.78808L11.6058 7.08789C11.618 7.1267 11.5739 7.15881 11.5407 7.13514L11.2849 6.95228L11.029 7.13514C10.9959 7.15886 10.9517 7.1267 10.964 7.08789L11.0588 6.78808L10.8058 6.60128C10.7731 6.5771 10.79 6.52511 10.8307 6.52478L11.1451 6.52235L11.2446 6.22404C11.2576 6.18541 11.3122 6.18541 11.3251 6.22404Z" fill="#F5F5F5"/>
<path d="M11.3251 8.7598L11.4246 9.05811L11.739 9.06055C11.7797 9.06088 11.7966 9.11282 11.7639 9.137L11.5109 9.3238L11.6058 9.62361C11.618 9.66242 11.5739 9.69453 11.5407 9.67086L11.2849 9.488L11.029 9.67086C10.9959 9.69458 10.9517 9.66242 10.964 9.62361L11.0588 9.3238L10.8058 9.137C10.7731 9.11282 10.79 9.06088 10.8307 9.06055L11.1451 9.05811L11.2446 8.7598C11.2576 8.72118 11.3122 8.72118 11.3251 8.7598Z" fill="#F5F5F5"/>
<path d="M11.3251 11.0673L11.4246 11.3656L11.739 11.368C11.7797 11.3684 11.7966 11.4203 11.7639 11.4445L11.5109 11.6313L11.6058 11.9311C11.618 11.9699 11.5739 12.002 11.5407 11.9784L11.2849 11.7955L11.029 11.9784C10.9959 12.0021 10.9517 11.9699 10.964 11.9311L11.0588 11.6313L10.8058 11.4445C10.7731 11.4203 10.79 11.3683 10.8307 11.368L11.1451 11.3656L11.2446 11.0673C11.2576 11.0287 11.3122 11.0287 11.3251 11.0673Z" fill="#F5F5F5"/>
</g>
</g>
<defs>
<clipPath id="clip0_1492_727">
<path d="M0 2C0 0.89543 0.895431 0 2 0H22C23.1046 0 24 0.895431 24 2V22C24 23.1046 23.1046 24 22 24H2C0.89543 24 0 23.1046 0 22V2Z" fill="white"/>
</clipPath>
<clipPath id="clip1_1492_727">
<rect width="23.9998" height="23.9998" fill="white" transform="translate(-0.015625)"/>
</clipPath>
</defs>
</svg>
