<svg width="24" height="24" viewBox="0 0 24 24" fill="none" xmlns="http://www.w3.org/2000/svg">
<g clip-path="url(#clip0_8615_27460)">
<path d="M24.0017 0H0.00195312V23.9998H24.0017V0Z" fill="#82AFFF"/>
<path d="M11.9688 15.9332C14.7011 15.9332 16.9238 13.7103 16.9238 10.9781C16.9238 8.246 14.7011 6.02307 11.9688 6.02307C9.23651 6.02307 7.01367 8.24596 7.01367 10.9781C7.01367 13.7103 9.23651 15.9332 11.9688 15.9332ZM12.534 6.54132L12.9599 6.38443C13.561 6.51404 14.1198 6.75764 14.6117 7.0934C14.5694 7.08919 14.4576 7.0777 14.4383 7.07128C14.4145 7.06336 14.3776 7.22301 14.3776 7.22301L14.5731 7.30073L14.6264 7.10437C14.8293 7.24406 15.0189 7.40109 15.1972 7.57007L14.9099 7.85737H14.8592L14.8179 7.69518L14.6607 7.41267L14.1055 7.21251L13.7215 7.39837L13.9394 7.87012C13.4024 7.52845 12.7724 7.32318 12.0958 7.29998V6.64242L12.4871 6.76599L12.3244 6.4793L12.0958 6.57708V6.28351C12.2656 6.28805 12.4328 6.30198 12.5977 6.32419L12.4055 6.38827L12.534 6.54132ZM15.1054 10.1681L15.1989 10.1285L15.2224 9.89838C15.3227 10.1997 15.3805 10.5194 15.3927 10.8511H14.531L14.5628 10.7134L14.8063 10.6922L15.0078 10.349L15.0022 10.2846L14.7957 10.5493L14.6696 10.5802L14.5892 10.4857L14.6838 10.3251L14.4781 10.1733L14.2932 10.3354C14.2435 10.1558 14.1756 9.98369 14.088 9.82338L14.1882 9.78691L14.2686 9.73896L14.2679 9.64441L14.3195 9.58033L14.2897 9.56205C14.2676 9.57255 14.1527 9.60593 14.1527 9.60593L14.1128 9.73535L14.0556 9.77013C13.9713 9.62501 13.8722 9.49001 13.7606 9.36602L14.2358 8.89086L14.2399 8.89756L14.3557 8.828L14.3378 8.78886L14.479 8.64762C14.7974 8.99037 15.046 9.39719 15.2039 9.84752L15.0857 9.67179L15.0247 9.69452L15.1054 10.1681ZM14.4789 13.3085L14.2219 13.0515L14.1248 12.7943L14.0749 12.9046L13.9754 12.8051L14.0773 12.4926L14.0113 12.2659L14.0066 12.2665C14.0764 12.1565 14.1394 12.0416 14.1909 11.9205L14.1921 11.9204C14.208 11.9204 14.2662 11.8463 14.2662 11.8463L14.4092 11.8622L14.7787 11.7162L14.6368 11.5816L14.5533 11.507L14.4886 11.3752L14.3728 11.1736C14.3747 11.151 14.3751 11.128 14.3763 11.1052H15.3927C15.3614 11.9549 15.0209 12.7251 14.4789 13.3085ZM9.54682 13.1459L9.67408 12.9236L9.40015 11.9664L9.1842 11.4334L9.38009 11.3487L9.43301 11.1899L9.56529 11.186C9.61151 11.724 9.83524 12.2107 10.177 12.5901L9.61587 13.1513L9.54682 13.1459ZM9.85254 10.7994L9.84977 10.8511H9.81527C9.81639 10.8315 9.81658 10.8117 9.81827 10.7923L9.85254 10.7994ZM13.1145 12.8057L13.071 12.7821L12.5167 12.9964L12.2295 12.8858L12.0959 12.9227V12.74L12.2342 12.6982L12.3181 12.7184L12.4946 12.7875L12.3882 12.5929L12.6162 12.7841L12.7256 12.8091L12.6923 12.6632L12.7664 12.4221L13.0249 12.2645L13.0473 12.4096L12.7321 12.581L12.7926 12.7016L13.1204 12.6354L13.1256 12.799C13.1219 12.8013 13.1181 12.8034 13.1145 12.8057ZM11.8082 11.8512L11.7984 11.8301L11.7389 11.8335C11.6623 11.8128 11.5904 11.7825 11.5234 11.7433L11.7446 11.7165L11.8417 11.4557V11.8546C11.8307 11.853 11.8191 11.8532 11.8082 11.8512ZM10.8793 11.3071L10.6633 11.2739L10.7735 11.1052H10.8381C10.8459 11.1748 10.8595 11.2419 10.8793 11.3071ZM12.0958 10.428L12.1554 10.4461L12.2303 10.5369L12.0958 10.6714V10.428ZM12.4965 12.043L12.3934 12.1637L12.2215 12.2492L12.1638 12.1482L12.1291 12.3491L12.0958 12.3621V12.1088C12.1199 12.1061 12.1446 12.1057 12.1681 12.1015L12.2504 12.2046L12.3187 12.1196L12.3134 12.0628C12.3513 12.0507 12.3899 12.0406 12.4261 12.0247L12.4965 12.043ZM12.4192 10.7073L12.4165 10.8448L12.4115 10.8511H12.2755L12.4192 10.7073ZM12.5008 11.1806L12.6653 11.1754L12.755 11.2501L12.7251 11.304L12.5996 11.2322L12.5308 11.286L12.5654 11.389L12.5639 11.3935L12.2755 11.1051H12.4676L12.5008 11.1806ZM12.392 11.5809L12.2348 11.564L12.1238 11.8517C12.1147 11.8533 12.105 11.8532 12.0958 11.8546V11.2848L12.392 11.5809ZM11.5762 10.8511L11.5651 10.8047L11.4548 10.8511H11.406L11.4221 10.7841L11.4934 10.715L11.4368 10.7022L11.3781 10.7857L11.317 10.8137L11.3242 10.8511H11.2601L11.2988 10.7009L11.4117 10.6007L11.662 10.8511H11.5762ZM11.1048 11.1052L11.1309 11.1359L11.1485 11.1052H11.2394L11.1211 11.233C11.1086 11.1914 11.0986 11.1491 11.0923 11.1052H11.1048ZM11.2455 11.492L11.4097 11.2083L11.3668 11.1699L11.4391 11.1325L11.4482 11.1052H11.5638L11.5373 11.1194L11.5263 11.1575L11.6158 11.1514L11.5492 11.218L11.4814 11.2322L11.4674 11.2998L11.2589 11.5082C11.2547 11.5026 11.2496 11.4977 11.2455 11.492ZM11.8417 10.1281L11.7942 10.1208L11.831 10.2732L11.8417 10.2816V10.6714L11.6281 10.4579L11.778 10.3769L11.6426 10.1526C11.7057 10.1276 11.7726 10.1116 11.8417 10.1016L11.8417 10.1281ZM9.83622 11.1052L9.83364 11.1535L9.82296 11.218C9.81883 11.1809 9.81747 11.1429 9.81527 11.1052H9.83622ZM9.96053 11.4069L10.1185 11.5658L10.2482 11.4755L10.5536 11.7318L10.8822 11.7896L10.9741 11.5311C11.005 11.5865 11.0399 11.6386 11.0793 11.6879L10.797 11.9702L10.8423 11.8545L10.6743 11.8272L10.7281 12.0245L10.7361 12.0311L10.3566 12.4106C10.1093 12.1326 9.93091 11.792 9.85314 11.4142L9.96053 11.4069ZM11.259 11.8675C11.423 11.9987 11.6222 12.084 11.8417 12.1087V12.4026L11.8388 12.4095L11.8417 12.4086V12.6284L11.7677 12.6432L11.7248 12.919L11.8417 12.9054V12.9929L11.6566 13.044L11.5949 13.1034C11.1927 13.0328 10.8293 12.8509 10.5362 12.5902L11.259 11.8675ZM13.4023 12.9159L13.5887 12.9554L13.772 12.961L13.8729 13.0618L13.5649 13.0506L13.3664 12.9427C13.3785 12.934 13.3903 12.9248 13.4023 12.9159ZM13.5809 12.4105L13.5253 12.3549L13.6385 12.3463C13.6203 12.3685 13.6 12.389 13.5809 12.4105ZM13.8723 9.95927C13.7859 9.96049 13.702 9.96171 13.6946 9.96171C13.6787 9.96171 13.5541 10.0682 13.5541 10.0682L13.4589 10.1913L13.4302 10.041L13.4976 9.88746L13.4457 9.83988L13.2128 9.98809L13.1634 9.96311L13.3453 9.78114L13.3853 9.79436L13.5013 9.76708L13.4424 9.68411L13.5808 9.5456C13.693 9.67174 13.7919 9.80955 13.8723 9.95927ZM13.1908 9.5764L13.1797 9.54082L13.1043 9.55272L13.0574 9.64347L12.8502 9.66391C12.8654 9.69424 12.9298 9.82024 12.9357 9.83158L12.6786 10.0887C12.6239 10.045 12.5656 10.0068 12.5034 9.97356L12.5352 9.95641L12.4974 9.82877L12.4717 9.78171L12.357 9.9071C12.2739 9.87686 12.1865 9.85769 12.0958 9.84747V8.82467C12.5955 8.85397 13.0492 9.05295 13.4012 9.36602L13.1908 9.5764ZM11.8417 9.84747C11.7597 9.85671 11.6807 9.87381 11.6048 9.8995L11.6428 9.81119L11.4446 9.96695L11.445 9.96756C11.3787 10.0021 11.3168 10.0424 11.259 10.0886L10.5363 9.36598C10.8882 9.0529 11.342 8.85387 11.8417 8.82462V9.84747ZM11.0386 10.2276L10.6969 10.2873L10.7088 10.1575L10.4257 10.0599L9.97286 10.1545C10.066 9.92964 10.1972 9.72499 10.3566 9.54569L11.0386 10.2276ZM9.94192 10.2389L10.0841 10.2687L9.91371 10.3158C9.92214 10.2897 9.93255 10.2646 9.94192 10.2389ZM9.56116 10.8511H9.53918L9.56229 10.8297C9.56182 10.8368 9.56154 10.8439 9.56116 10.8511ZM9.8321 13.2943L10.3567 12.7698C10.643 13.0276 10.9903 13.2173 11.3751 13.3152L11.1944 13.4892L11.5832 14.0031L11.8417 14.0173V14.402C11.1631 14.3771 10.5343 14.1563 10.0113 13.7914L10.0953 13.7368L9.8321 13.2943ZM12.0958 14.0314L12.4235 14.0494L12.4318 14.1246L12.6312 14.343C12.4573 14.3772 12.278 14.3954 12.0958 14.4021V14.0314ZM14.1773 13.3662L14.2992 13.4882C14.2409 13.5424 14.1822 13.5961 14.1202 13.6463L14.1773 13.3662ZM14.2992 8.46805L14.2249 8.54248L14.1366 8.34974L13.9761 8.26438C13.9761 8.26438 13.8267 8.13257 13.749 8.05138C13.9465 8.17194 14.1306 8.31135 14.2992 8.46805ZM13.7144 8.03033L13.8267 8.42314L14.089 8.65142L14.0992 8.66811L13.5808 9.1864C13.1825 8.82762 12.6655 8.60037 12.0958 8.57052V7.55409C12.6856 7.57588 13.2367 7.74632 13.7144 8.03033ZM11.8417 8.57056C11.272 8.60042 10.755 8.82767 10.3567 9.18645L9.63827 8.46805C10.2217 7.92599 10.992 7.58545 11.8417 7.55413V8.57056ZM10.177 9.36607C9.90475 9.66836 9.70732 10.0384 9.61502 10.4488L9.39166 10.851H8.54474C8.57609 10.0013 8.91659 9.23102 9.4586 8.64767L10.177 9.36607ZM9.26923 11.1052L9.02792 11.6239L8.68658 11.4969L8.6225 11.7241C8.57788 11.5238 8.55261 11.3168 8.54478 11.1052H9.26923ZM9.01479 13.678L9.05421 13.7129L8.56063 14.2065C8.21985 13.8469 7.93668 13.434 7.72223 12.9812L7.85348 13.0579L8.72895 13.8369L9.01479 13.678ZM9.24467 13.8817L9.36415 13.9877L9.75175 13.914C10.3377 14.3576 11.0583 14.6292 11.8417 14.6561V15.6726C10.6418 15.6403 9.55437 15.1577 8.74025 14.3861L9.24467 13.8817ZM12.0958 14.6562C12.3111 14.6488 12.5226 14.6263 12.7271 14.5833L12.7508 14.7399L13.3564 15.1865L14.0382 14.8082L14.2339 14.3955L14.2211 14.1402L14.3499 13.8381L14.3184 13.8135C14.3741 13.7673 14.4259 13.7171 14.4788 13.6677L14.5959 13.7849L14.6315 14.0062L14.7645 13.9535L15.1972 14.3862C14.3831 15.1578 13.2957 15.6404 12.0958 15.6727L12.0958 14.6562ZM14.8253 13.6549L14.801 13.3656L14.7685 13.3671C15.2929 12.7535 15.6173 11.9667 15.6469 11.1052H16.6633C16.631 12.305 16.1484 13.3924 15.3769 14.2065L14.8253 13.6549ZM15.6469 10.8511C15.6249 10.2099 15.4389 9.61104 15.1287 9.09303L15.5608 9.49708L15.9074 9.19934L15.3754 8.39731L15.0243 8.12732L15.0252 8.10144L15.3769 7.7497C16.1485 8.56381 16.631 9.65116 16.6633 10.851L15.6469 10.8511ZM11.8417 7.30003C10.922 7.33162 10.0883 7.70052 9.4587 8.28847L8.74025 7.57007C9.55437 6.79847 10.6418 6.3159 11.8417 6.2836V7.30003ZM9.27902 8.46814C8.69112 9.09771 8.32227 9.93138 8.29063 10.8511H7.2742C7.3065 9.65121 7.78902 8.56386 8.56058 7.74974L9.27902 8.46814ZM8.29068 11.1052C8.30366 11.4829 8.37313 11.8458 8.492 12.1867L8.45361 12.3227L7.46053 12.3009C7.34854 11.92 7.28536 11.5192 7.27425 11.1052H8.29068Z" fill="#F5F5F5"/>
<path d="M8.54558 16.8649L9.46301 16.7164C9.54504 16.7031 9.57902 16.604 9.52225 16.5434C9.30162 16.3076 8.86306 15.8194 8.60914 15.4038C8.25974 14.832 7.64451 14.3607 7.64451 14.3607C7.64451 14.3607 7.76212 15.9332 8.94795 16.4732C8.94795 16.4732 7.77271 16.1767 7.02098 15.9755C6.26926 15.7744 6.06348 15.553 6.06348 15.553C6.06348 15.553 6.65039 17.0555 8.54558 16.8649Z" fill="#F5F5F5"/>
<path d="M7.63535 15.1073C7.60357 14.7155 7.31726 13.714 6.7775 12.886C6.7775 12.886 6.77816 14.8982 7.49262 15.5798C7.49262 15.5798 6.48125 14.6097 5.87774 14.165C5.31272 13.7487 5.0625 13.2756 5.0625 13.2756C5.0625 13.2756 5.21433 14.5471 6.03655 15.1814C6.59239 15.6102 7.8259 15.9119 7.8259 15.9119C7.8259 15.9119 7.66713 15.4991 7.63535 15.1073Z" fill="#F5F5F5"/>
<path d="M5.69735 13.6039L6.31521 14.1382C6.37966 14.194 6.48006 14.15 6.48138 14.0647C6.48475 13.8498 6.49792 13.5236 6.54438 13.318C6.61848 12.9898 6.71017 11.924 6.33611 11.1493C6.33611 11.1493 5.88396 12.5376 6.23735 13.6939C6.23735 13.6939 5.68221 12.8112 5.11503 12.1428C4.8186 11.7933 4.70118 11.3814 4.70118 11.3814C4.70118 11.3814 4.69152 12.7674 5.69735 13.6039Z" fill="#F5F5F5"/>
<path d="M5.52781 12.2362C5.57623 12.3015 5.67673 12.2877 5.70439 12.2113C5.78562 11.9872 5.94326 11.5842 6.15255 11.2005C6.53369 10.5017 6.35791 9.67925 6.35791 9.67925C6.35791 9.67925 5.74601 10.7281 5.56864 11.8937C5.55711 11.8417 5.54445 11.7862 5.52931 11.7227C5.36136 11.0167 4.70812 9.25574 4.70812 9.25574C4.70812 9.25574 4.47834 10.2229 4.76554 10.9887C4.91305 11.3817 5.32531 11.963 5.52781 12.2362Z" fill="#F5F5F5"/>
<path d="M5.40216 10.69C5.42058 10.7603 5.51897 10.7621 5.53993 10.6925C5.59838 10.4984 5.72002 10.2308 5.973 9.97221C6.44943 9.48518 6.8107 8.80911 6.99538 8.20485C6.99538 8.20485 5.97881 9.02047 5.65829 9.57045C5.65829 9.57045 5.68997 8.81413 5.58127 8.26757C5.4886 7.80173 5.68547 7.35291 5.68547 7.35291C5.68547 7.35291 5.04128 7.97113 5.13657 9.10404C5.19652 9.81677 5.31934 10.3744 5.40216 10.69Z" fill="#F5F5F5"/>
<path d="M6.04598 8.74828C6.23883 8.57152 6.57656 8.2704 6.90215 8.08773C7.33447 7.8452 7.67637 7.06277 7.7518 6.88868C7.7518 6.88868 6.54712 7.87449 6.21923 8.19099C6.21923 8.19099 6.41775 7.30956 6.54482 6.92838C6.67185 6.54724 6.65601 6.42016 6.76715 6.26135C6.76715 6.26135 6.18745 6.76957 6.02864 7.17456C5.89809 7.50737 5.92313 8.26397 5.90536 8.68163C5.90213 8.75719 5.9902 8.79938 6.04598 8.74828Z" fill="#F5F5F5"/>
<path d="M7.26368 6.97594C7.60249 6.70064 8.14244 5.896 8.14244 5.896C8.00866 5.97245 7.46482 6.1607 7.00957 6.62654C6.55428 7.09238 6.45898 7.72767 6.45898 7.72767C6.45898 7.72767 6.92487 7.25119 7.26368 6.97594Z" fill="#F5F5F5"/>
<path d="M14.9578 17.0979C13.9626 16.902 13.1102 16.759 12.1112 17.019C12.062 17.0318 12.0161 17.0465 11.9687 17.0604C11.9213 17.0465 11.8754 17.0317 11.8262 17.019C10.8272 16.7591 9.97484 16.902 8.9796 17.0979C8.08256 17.2743 7.22363 17.1216 7.22363 17.1216C7.22363 17.1216 7.84674 17.7543 9.26549 17.7543C9.88442 17.7543 10.6623 17.2333 11.1531 17.2056C11.274 17.1987 11.3934 17.2061 11.5116 17.2193C10.4577 17.6492 9.97118 18.3011 9.96162 18.3138C9.91929 18.3696 9.93022 18.4493 9.98604 18.4914C10.009 18.5091 10.0359 18.5175 10.0627 18.5175C10.1011 18.5175 10.139 18.5001 10.164 18.4674C10.2027 18.4164 10.9813 17.611 11.9687 17.3135C12.9561 17.611 13.7347 18.4164 13.7734 18.4674C13.7984 18.5002 13.8363 18.5175 13.8747 18.5175C13.9015 18.5175 13.9284 18.5091 13.9513 18.4914C14.0072 18.4492 14.0181 18.3696 13.9758 18.3138C13.9662 18.3012 13.4797 17.6492 12.4258 17.2193C12.544 17.2061 12.6634 17.1988 12.7843 17.2056C13.2751 17.2333 14.053 17.7543 14.6719 17.7543C16.0907 17.7543 16.7138 17.1216 16.7138 17.1216C16.7138 17.1216 15.8548 17.2743 14.9578 17.0979Z" fill="#F5F5F5"/>
<path d="M14.9891 16.4732C16.175 15.9332 16.2926 14.3607 16.2926 14.3607C16.2926 14.3607 15.6773 14.832 15.3279 15.4038C15.074 15.8193 14.6355 16.3076 14.4148 16.5434C14.3581 16.604 14.392 16.7031 14.4741 16.7164L15.3915 16.8649C17.2867 17.0555 17.8737 15.553 17.8737 15.553C17.8737 15.553 17.6679 15.7744 16.9161 15.9755C16.1644 16.1767 14.9891 16.4732 14.9891 16.4732Z" fill="#F5F5F5"/>
<path d="M18.0605 14.1651C17.457 14.6098 16.4456 15.5799 16.4456 15.5799C17.1601 14.8983 17.1607 12.8861 17.1607 12.8861C16.621 13.7141 16.3347 14.7157 16.3029 15.1074C16.2711 15.4992 16.1123 15.9121 16.1123 15.9121C16.1123 15.9121 17.3458 15.6104 17.9016 15.1816C18.7239 14.5472 18.8757 13.2758 18.8757 13.2758C18.8757 13.2758 18.6255 13.7487 18.0605 14.1651Z" fill="#F5F5F5"/>
<path d="M17.7001 13.6939C18.0535 12.5376 17.6014 11.1493 17.6014 11.1493C17.2273 11.924 17.319 12.9898 17.3931 13.318C17.4396 13.5236 17.4527 13.8498 17.4561 14.0647C17.4574 14.15 17.5578 14.1939 17.6223 14.1382L18.2401 13.6039C19.246 12.7674 19.2363 11.3815 19.2363 11.3815C19.2363 11.3815 19.1189 11.7934 18.8225 12.1428C18.2553 12.8112 17.7001 13.6939 17.7001 13.6939Z" fill="#F5F5F5"/>
<path d="M18.3688 11.8937C18.1914 10.7281 17.5795 9.67922 17.5795 9.67922C17.5795 9.67922 17.4038 10.5016 17.7849 11.2004C17.9942 11.5842 18.1518 11.9872 18.2331 12.2113C18.2608 12.2877 18.3613 12.3015 18.4096 12.2362C18.6121 11.963 19.0244 11.3818 19.1719 10.9886C19.4591 10.2227 19.2293 9.25562 19.2293 9.25562C19.2293 9.25562 18.576 11.0166 18.4081 11.7226C18.393 11.7861 18.3804 11.8416 18.3688 11.8937Z" fill="#F5F5F5"/>
<path d="M18.3565 8.26757C18.2478 8.81413 18.2795 9.57045 18.2795 9.57045C17.959 9.02047 16.9424 8.20485 16.9424 8.20485C17.127 8.80911 17.4883 9.48518 17.9648 9.97221C18.2177 10.2308 18.3394 10.4984 18.3978 10.6925C18.4188 10.762 18.5171 10.7603 18.5356 10.69C18.6185 10.3744 18.7412 9.81677 18.8012 9.10404C18.8965 7.97113 18.2523 7.35291 18.2523 7.35291C18.2523 7.35291 18.4492 7.80173 18.3565 8.26757Z" fill="#F5F5F5"/>
<path d="M17.7181 8.19087C17.3902 7.87437 16.1855 6.88855 16.1855 6.88855C16.261 7.06264 16.6029 7.84507 17.0352 8.0876C17.3608 8.27023 17.6985 8.5714 17.8914 8.74816C17.9471 8.7993 18.0352 8.75711 18.032 8.6815C18.0142 8.26385 18.0392 7.50725 17.9087 7.17444C17.7499 6.76944 17.1702 6.26123 17.1702 6.26123C17.2814 6.42004 17.2655 6.54712 17.3925 6.92826C17.5195 7.30944 17.7181 8.19087 17.7181 8.19087Z" fill="#F5F5F5"/>
<path d="M16.6727 6.97594C17.0115 7.25119 17.4774 7.72767 17.4774 7.72767C17.4774 7.72767 17.3821 7.09242 16.9268 6.62654C16.4716 6.16065 15.9277 5.9724 15.7939 5.896C15.7939 5.896 16.3339 6.70064 16.6727 6.97594Z" fill="#F5F5F5"/>
<path d="M14.5968 9.59485L14.3809 9.73702L14.6112 9.77307L14.863 10.0515L15.004 9.96066L14.8348 9.61486L14.5968 9.59485Z" fill="#F5F5F5"/>
<path d="M14.9375 10.7809L15.0174 10.8114L15.2199 10.2675L15.1643 10.192L15.077 10.2357L14.938 10.728L14.9375 10.7809Z" fill="#F5F5F5"/>
<path d="M12.9057 9.85839L12.8421 9.79089L12.6992 9.97356L12.7347 10.0288L12.9057 9.85839Z" fill="#F5F5F5"/>
<path d="M14.3684 9.43371L14.407 9.30945L14.2792 9.33542L14.243 9.34559L14.2051 9.39631L14.3433 9.55662L14.3993 9.50904L14.3684 9.43371Z" fill="#F5F5F5"/>
<path d="M11.8014 12.3439L11.8034 12.2666L11.7061 12.4075L11.7339 12.4551L11.8014 12.3439Z" fill="#F5F5F5"/>
</g>
<defs>
<clipPath id="clip0_8615_27460">
<path d="M0 2C0 0.895432 0.895431 0 2 0H21.9998C23.1043 0 23.9998 0.895431 23.9998 2V21.9998C23.9998 23.1043 23.1043 23.9998 21.9998 23.9998H2C0.895432 23.9998 0 23.1043 0 21.9998V2Z" fill="white"/>
</clipPath>
</defs>
</svg>
