<svg width="24" height="24" viewBox="0 0 24 24" fill="none" xmlns="http://www.w3.org/2000/svg">
<g clip-path="url(#clip0_8615_27458)">
<path d="M24.0017 0H0.00195312V23.9998H24.0017V0Z" fill="#F5F5F5"/>
<path d="M24.0013 2.66675H9.10645V5.33339H24.0013V2.66675Z" fill="#4173CD"/>
<path d="M24.0017 5.3335H0.00195312V8.00014H24.0017V5.3335Z" fill="#F5F5F5"/>
<path d="M24.0013 8.00012H9.10645V10.6668H24.0013V8.00012Z" fill="#4173CD"/>
<path d="M24.0017 10.6669H0.00195312V13.3335H24.0017V10.6669Z" fill="#F5F5F5"/>
<path d="M24.0017 13.333H0.00195312V15.9997H24.0017V13.333Z" fill="#4173CD"/>
<path d="M24.0017 15.9998H0.00195312V18.6664H24.0017V15.9998Z" fill="#F5F5F5"/>
<path d="M24.0017 18.6664H0.00195312V21.333H24.0017V18.6664Z" fill="#4173CD"/>
<path d="M4.57812 1.67188L5.63472 6.5607L7.28794 5.87591L4.57812 1.67188Z" fill="#FFE15A"/>
<path d="M4.57812 1.67188L6.46131 6.21828L5.63472 6.5607L4.57812 1.67188Z" fill="#FFCD5A"/>
<path d="M8.68736 11.5913L7.6308 6.70251L5.97754 7.3873L8.68736 11.5913Z" fill="#FFE15A"/>
<path d="M8.6869 11.5913L6.80371 7.04489L7.63034 6.70251L8.6869 11.5913Z" fill="#FFCD5A"/>
<path d="M11.5929 4.57715L6.7041 5.63375L7.38889 7.28697L11.5929 4.57715Z" fill="#FFE15A"/>
<path d="M11.5929 4.57715L7.04647 6.46033L6.7041 5.63375L11.5929 4.57715Z" fill="#FFCD5A"/>
<path d="M1.67383 8.68601L6.56266 7.62946L5.87787 5.9762L1.67383 8.68601Z" fill="#FFE15A"/>
<path d="M1.67383 8.68592L6.22024 6.80273L6.56266 7.62937L1.67383 8.68592Z" fill="#FFCD5A"/>
<path d="M8.68736 1.67188L5.97754 5.87591L7.6308 6.5607L8.68736 1.67188Z" fill="#FFE15A"/>
<path d="M8.68736 1.67188L6.80417 6.21828L5.97754 5.87591L8.68736 1.67188Z" fill="#FFCD5A"/>
<path d="M4.57812 11.5913L7.28794 7.3873L5.63472 6.70251L4.57812 11.5913Z" fill="#FFE15A"/>
<path d="M4.57812 11.5913L6.46131 7.04492L7.28794 7.38734L4.57812 11.5913Z" fill="#FFCD5A"/>
<path d="M11.5929 8.68601L7.38889 5.9762L6.7041 7.62946L11.5929 8.68601Z" fill="#FFE15A"/>
<path d="M11.5933 8.68601L7.04688 6.80283L7.38929 5.9762L11.5933 8.68601Z" fill="#FFCD5A"/>
<path d="M1.67383 4.57715L5.87787 7.28697L6.56266 5.63375L1.67383 4.57715Z" fill="#FFE15A"/>
<path d="M1.67383 4.57715L6.22024 6.46033L5.87787 7.28697L1.67383 4.57715Z" fill="#FFCD5A"/>
<path d="M13.2674 0H0.00195312V13.3124H13.2674V0Z" fill="#F5F5F5"/>
<path d="M6.63302 1.26318L5.73828 6.18421H7.52772L6.63302 1.26318Z" fill="#FFE15A"/>
<path d="M6.63302 1.26318V6.18421H5.73828L6.63302 1.26318Z" fill="#FFCD5A"/>
<path d="M6.63302 12L7.52772 7.07898H5.73828L6.63302 12Z" fill="#FFE15A"/>
<path d="M6.63281 12V7.07898H7.52751L6.63281 12Z" fill="#FFCD5A"/>
<path d="M12.0011 6.63156L7.08008 5.73682V7.52625L12.0011 6.63156Z" fill="#FFE15A"/>
<path d="M12.0011 6.63156H7.08008V5.73682L12.0011 6.63156Z" fill="#FFCD5A"/>
<path d="M1.26465 6.63156L6.18568 7.52625V5.73682L1.26465 6.63156Z" fill="#FFE15A"/>
<path d="M1.26465 6.63159H6.18568V7.52629L1.26465 6.63159Z" fill="#FFCD5A"/>
<path d="M10.4288 2.83557L6.31641 5.68259L7.58174 6.94792L10.4288 2.83557Z" fill="#FFE15A"/>
<path d="M10.4288 2.83557L6.94907 6.31526L6.31641 5.68259L10.4288 2.83557Z" fill="#FFCD5A"/>
<path d="M2.83691 10.4275L6.94926 7.58052L5.68393 6.31519L2.83691 10.4275Z" fill="#FFE15A"/>
<path d="M2.83691 10.4276L6.3166 6.94788L6.94926 7.58054L2.83691 10.4276Z" fill="#FFCD5A"/>
<path d="M10.4288 10.4275L7.58174 6.31519L6.31641 7.58052L10.4288 10.4275Z" fill="#FFE15A"/>
<path d="M10.4289 10.4275L6.94922 6.94785L7.58188 6.31519L10.4289 10.4275Z" fill="#FFCD5A"/>
<path d="M2.83691 2.83557L5.68393 6.94792L6.94926 5.68259L2.83691 2.83557Z" fill="#FFE15A"/>
<path d="M2.83691 2.83557L6.3166 6.31526L5.68393 6.94792L2.83691 2.83557Z" fill="#FFCD5A"/>
<path d="M6.63295 8.42057C7.6211 8.42057 8.42215 7.61951 8.42215 6.63136C8.42215 5.64322 7.6211 4.84216 6.63295 4.84216C5.6448 4.84216 4.84375 5.64322 4.84375 6.63136C4.84375 7.61951 5.6448 8.42057 6.63295 8.42057Z" fill="#FFE15A"/>
</g>
<defs>
<clipPath id="clip0_8615_27458">
<path d="M0 2C0 0.895432 0.895431 0 2 0H21.9998C23.1043 0 23.9998 0.895431 23.9998 2V21.9998C23.9998 23.1043 23.1043 23.9998 21.9998 23.9998H2C0.895432 23.9998 0 23.1043 0 21.9998V2Z" fill="white"/>
</clipPath>
</defs>
</svg>
