<svg width="24" height="24" viewBox="0 0 24 24" fill="none" xmlns="http://www.w3.org/2000/svg">
<g clip-path="url(#clip0_8615_27457)">
<path d="M24.0007 0H0.000976562V8.00008H24.0007V0Z" fill="#82AFFF"/>
<path d="M24.0007 15.9998H0.000976562V23.9998H24.0007V15.9998Z" fill="#73AF00"/>
<path d="M24.0007 8.00012H0.000976562V16.0002H24.0007V8.00012Z" fill="#F5F5F5"/>
<path d="M24.0017 7.28955H0.00195312V8.28704H24.0017V7.28955Z" fill="#FF4B55"/>
<path d="M24.0017 15.7129H0.00195312V16.7104H24.0017V15.7129Z" fill="#FF4B55"/>
<path d="M5.68209 5.99535C4.3891 5.99535 3.34108 4.94977 3.34108 3.66142C3.34108 2.36834 4.3891 1.31812 5.68209 1.31812C5.68701 1.31812 5.69198 1.31817 5.69685 1.31821C5.77293 1.31924 5.79965 1.21809 5.73257 1.18214C5.33442 0.968763 4.88002 0.847967 4.39693 0.851389C2.84983 0.862452 1.59317 2.14447 1.60953 3.69152C1.62575 5.22267 2.87749 6.46204 4.41708 6.46204C4.89356 6.46204 5.34154 6.34152 5.73468 6.13106C5.80157 6.09524 5.77452 5.99404 5.69868 5.99521C5.6932 5.99531 5.68766 5.99535 5.68209 5.99535Z" fill="#F5F5F5"/>
<path d="M7.51447 5.3499L7.40989 5.6634L7.07942 5.66598C7.03663 5.66631 7.01891 5.72092 7.05331 5.74632L7.31919 5.94263L7.21948 6.25772C7.20659 6.2985 7.25305 6.33225 7.28783 6.30736L7.5567 6.11518L7.82557 6.30736C7.8604 6.33225 7.9068 6.2985 7.89391 6.25772L7.79421 5.94263L8.06008 5.74632C8.09449 5.72092 8.07677 5.66631 8.03398 5.66598L7.70351 5.6634L7.59893 5.3499C7.58543 5.30931 7.52801 5.30931 7.51447 5.3499Z" fill="#F5F5F5"/>
<path d="M9.33966 5.3499L9.23508 5.6634L8.90462 5.66598C8.86182 5.66631 8.8441 5.72092 8.87851 5.74632L9.14438 5.94263L9.04468 6.25772C9.03179 6.2985 9.07824 6.33225 9.11302 6.30736L9.38189 6.11518L9.65077 6.30736C9.68559 6.33225 9.732 6.2985 9.71911 6.25772L9.61941 5.94263L9.88528 5.74632C9.91969 5.72092 9.90197 5.66631 9.85917 5.66598L9.52871 5.6634L9.42413 5.3499C9.41063 5.30931 9.35321 5.30931 9.33966 5.3499Z" fill="#F5F5F5"/>
<path d="M13.0428 5.3499L12.9382 5.6634L12.6077 5.66598C12.5649 5.66631 12.5472 5.72092 12.5816 5.74632L12.8475 5.94263L12.7478 6.25772C12.7349 6.2985 12.7814 6.33225 12.8161 6.30736L13.085 6.11518L13.3539 6.30736C13.3887 6.33225 13.4351 6.2985 13.4222 6.25772L13.3225 5.94263L13.5884 5.74632C13.6228 5.72092 13.6051 5.66631 13.5623 5.66598L13.2318 5.6634L13.1273 5.3499C13.1138 5.30931 13.0563 5.30931 13.0428 5.3499Z" fill="#F5F5F5"/>
<path d="M14.8592 5.3499L14.7546 5.6634L14.4241 5.66598C14.3814 5.66631 14.3636 5.72092 14.398 5.74632L14.6639 5.94263L14.5642 6.25772C14.5513 6.2985 14.5978 6.33225 14.6326 6.30736L14.9014 6.11518L15.1703 6.30736C15.2051 6.33225 15.2515 6.2985 15.2386 6.25772L15.1389 5.94263L15.4048 5.74632C15.4392 5.72092 15.4215 5.66631 15.3787 5.66598L15.0482 5.6634L14.9437 5.3499C14.9302 5.30931 14.8727 5.30931 14.8592 5.3499Z" fill="#F5F5F5"/>
<path d="M9.33966 3.17681L9.23508 3.4903L8.90462 3.49288C8.86182 3.49321 8.8441 3.54782 8.87851 3.57323L9.14438 3.76954L9.04468 4.08463C9.03179 4.12541 9.07824 4.15916 9.11302 4.13427L9.38189 3.94208L9.65077 4.13427C9.68559 4.15916 9.732 4.12541 9.71911 4.08463L9.61941 3.76954L9.88528 3.57323C9.91969 3.54782 9.90197 3.49321 9.85917 3.49288L9.52871 3.4903L9.42413 3.17681C9.41063 3.13621 9.35321 3.13621 9.33966 3.17681Z" fill="#F5F5F5"/>
<path d="M11.2029 3.17681L11.0984 3.4903L10.7679 3.49288C10.7251 3.49321 10.7074 3.54782 10.7418 3.57323L11.0077 3.76954L10.908 4.08463C10.8951 4.12541 10.9415 4.15916 10.9763 4.13427L11.2452 3.94208L11.514 4.13427C11.5489 4.15916 11.5953 4.12541 11.5824 4.08463L11.4827 3.76954L11.7486 3.57323C11.783 3.54782 11.7652 3.49321 11.7225 3.49288L11.392 3.4903L11.2874 3.17681C11.2739 3.13621 11.2165 3.13621 11.2029 3.17681Z" fill="#F5F5F5"/>
<path d="M13.0428 3.17681L12.9382 3.4903L12.6077 3.49288C12.5649 3.49321 12.5472 3.54782 12.5816 3.57323L12.8475 3.76954L12.7478 4.08463C12.7349 4.12541 12.7814 4.15916 12.8161 4.13427L13.085 3.94208L13.3539 4.13427C13.3887 4.15916 13.4351 4.12541 13.4222 4.08463L13.3225 3.76954L13.5884 3.57323C13.6228 3.54782 13.6051 3.49321 13.5623 3.49288L13.2318 3.4903L13.1273 3.17681C13.1138 3.13621 13.0563 3.13621 13.0428 3.17681Z" fill="#F5F5F5"/>
<path d="M14.8592 3.17681L14.7546 3.4903L14.4241 3.49288C14.3814 3.49321 14.3636 3.54782 14.398 3.57323L14.6639 3.76954L14.5642 4.08463C14.5513 4.12541 14.5978 4.15916 14.6326 4.13427L14.9014 3.94208L15.1703 4.13427C15.2051 4.15916 15.2515 4.12541 15.2386 4.08463L15.1389 3.76954L15.4048 3.57323C15.4392 3.54782 15.4215 3.49321 15.3787 3.49288L15.0482 3.4903L14.9437 3.17681C14.9302 3.13621 14.8727 3.13621 14.8592 3.17681Z" fill="#F5F5F5"/>
<path d="M11.2029 5.3499L11.0984 5.6634L10.7679 5.66598C10.7251 5.66631 10.7074 5.72092 10.7418 5.74632L11.0077 5.94263L10.908 6.25772C10.8951 6.2985 10.9415 6.33225 10.9763 6.30736L11.2452 6.11518L11.514 6.30736C11.5489 6.33225 11.5953 6.2985 11.5824 6.25772L11.4827 5.94263L11.7486 5.74632C11.783 5.72092 11.7652 5.66631 11.7225 5.66598L11.392 5.6634L11.2874 5.3499C11.2739 5.30931 11.2165 5.30931 11.2029 5.3499Z" fill="#F5F5F5"/>
<path d="M11.2029 1.0038L11.0984 1.3173L10.7679 1.31987C10.7251 1.3202 10.7074 1.37481 10.7418 1.40022L11.0077 1.59653L10.908 1.91162C10.8951 1.9524 10.9415 1.98615 10.9763 1.96126L11.2452 1.76907L11.514 1.96126C11.5489 1.98615 11.5953 1.9524 11.5824 1.91162L11.4827 1.59653L11.7486 1.40022C11.783 1.37481 11.7652 1.3202 11.7225 1.31987L11.392 1.3173L11.2874 1.0038C11.2739 0.963252 11.2165 0.963252 11.2029 1.0038Z" fill="#F5F5F5"/>
<path d="M13.0428 5.3499L12.9382 5.6634L12.6077 5.66598C12.5649 5.66631 12.5472 5.72092 12.5816 5.74632L12.8475 5.94263L12.7478 6.25772C12.7349 6.2985 12.7814 6.33225 12.8161 6.30736L13.085 6.11518L13.3539 6.30736C13.3887 6.33225 13.4351 6.2985 13.4222 6.25772L13.3225 5.94263L13.5884 5.74632C13.6228 5.72092 13.6051 5.66631 13.5623 5.66598L13.2318 5.6634L13.1273 5.3499C13.1138 5.30931 13.0563 5.30931 13.0428 5.3499Z" fill="#F5F5F5"/>
<path d="M14.8592 5.3499L14.7546 5.6634L14.4241 5.66598C14.3814 5.66631 14.3636 5.72092 14.398 5.74632L14.6639 5.94263L14.5642 6.25772C14.5513 6.2985 14.5978 6.33225 14.6326 6.30736L14.9014 6.11518L15.1703 6.30736C15.2051 6.33225 15.2515 6.2985 15.2386 6.25772L15.1389 5.94263L15.4048 5.74632C15.4392 5.72092 15.4215 5.66631 15.3787 5.66598L15.0482 5.6634L14.9437 5.3499C14.9302 5.30931 14.8727 5.30931 14.8592 5.3499Z" fill="#F5F5F5"/>
<path d="M13.0428 1.0038L12.9382 1.3173L12.6077 1.31987C12.5649 1.3202 12.5472 1.37481 12.5816 1.40022L12.8475 1.59653L12.7478 1.91162C12.7349 1.9524 12.7814 1.98615 12.8161 1.96126L13.085 1.76907L13.3539 1.96126C13.3887 1.98615 13.4351 1.9524 13.4222 1.91162L13.3225 1.59653L13.5884 1.40022C13.6228 1.37481 13.6051 1.3202 13.5623 1.31987L13.2318 1.3173L13.1273 1.0038C13.1138 0.963252 13.0563 0.963252 13.0428 1.0038Z" fill="#F5F5F5"/>
<path d="M14.8592 1.0038L14.7546 1.3173L14.4241 1.31987C14.3814 1.3202 14.3636 1.37481 14.398 1.40022L14.6639 1.59653L14.5642 1.91162C14.5513 1.9524 14.5978 1.98615 14.6326 1.96126L14.9014 1.76907L15.1703 1.96126C15.2051 1.98615 15.2515 1.9524 15.2386 1.91162L15.1389 1.59653L15.4048 1.40022C15.4392 1.37481 15.4215 1.3202 15.3787 1.31987L15.0482 1.3173L14.9437 1.0038C14.9302 0.963252 14.8727 0.963252 14.8592 1.0038Z" fill="#F5F5F5"/>
</g>
<defs>
<clipPath id="clip0_8615_27457">
<path d="M0 2C0 0.895432 0.895431 0 2 0H21.9998C23.1043 0 23.9998 0.895431 23.9998 2V21.9998C23.9998 23.1043 23.1043 23.9998 21.9998 23.9998H2C0.895432 23.9998 0 23.1043 0 21.9998V2Z" fill="white"/>
</clipPath>
</defs>
</svg>
