<svg width="24" height="24" viewBox="0 0 24 24" fill="none" xmlns="http://www.w3.org/2000/svg">
<g clip-path="url(#clip0_8615_27454)">
<path d="M23.9998 0H0V23.9998H23.9998V0Z" fill="#FF4B55"/>
<path d="M12.2139 6.87322L13.4404 10.5505L17.3167 10.5805C17.5334 10.5822 17.6233 10.8588 17.4489 10.9876L14.3306 13.2903L15.4998 16.9861C15.5652 17.1928 15.3299 17.3637 15.1536 17.2377L12 14.9836L8.84633 17.2377C8.66999 17.3638 8.43468 17.1928 8.50007 16.9862L9.66931 13.2903L6.55098 10.9876C6.37661 10.8589 6.46651 10.5823 6.68326 10.5806L10.5596 10.5505L11.786 6.87326C11.8546 6.66758 12.1454 6.66758 12.2139 6.87322Z" fill="#FFE15A"/>
</g>
<defs>
<clipPath id="clip0_8615_27454">
<path d="M0 2C0 0.895432 0.895431 0 2 0H21.9998C23.1043 0 23.9998 0.895431 23.9998 2V21.9998C23.9998 23.1043 23.1043 23.9998 21.9998 23.9998H2C0.895432 23.9998 0 23.1043 0 21.9998V2Z" fill="white"/>
</clipPath>
</defs>
</svg>
