<svg width="24" height="24" viewBox="0 0 24 24" fill="none" xmlns="http://www.w3.org/2000/svg">
<g clip-path="url(#clip0_8615_27452)">
<path d="M23.9998 0H0V11.9999H23.9998V0Z" fill="#F5F5F5"/>
<path d="M23.9998 12H0V23.9999H23.9998V12Z" fill="#73AF00"/>
<path d="M18.2547 8.73917C18.2547 8.73917 18.5408 9.52371 18.5653 9.56458L18.5979 9.49919L18.7941 8.47765L19.3007 7.52966L19.1536 7.54602L18.0013 8.10177C18.0013 8.10177 17.3148 8.85363 17.3067 8.87815C17.2985 8.90266 18.2547 8.73917 18.2547 8.73917Z" fill="#FF4B55"/>
<path d="M18.6606 16.2414C18.6224 16.236 18.0558 16.2631 18.0558 16.2631L17.8705 15.6421L17.7643 14.468L17.9645 14.4149L18.2138 14.5334L18.3037 14.0635C18.3037 14.0635 18.0871 13.8265 18.0462 13.8101C18.0054 13.7938 17.515 13.6835 17.515 13.6835L16.8572 12.8131L17.6417 12.3758L18.2546 11.5341L18.4017 10.774L18.2792 10.1448L18.0004 9.67802C17.9963 9.66471 17.9931 9.6544 17.9931 9.6544C17.9912 9.65196 17.9843 9.64718 17.9799 9.64362L17.9277 9.55634L17.9269 9.60724C17.806 9.53173 17.5586 9.40039 17.4946 9.36837C17.4129 9.3275 16.9797 9.25395 16.8898 9.31934C16.7999 9.38473 16.3832 9.58085 16.3096 9.71979C16.236 9.85873 16.187 10.3572 16.187 10.3572C16.187 10.3572 16.3096 10.6351 16.4649 10.7005C16.6202 10.7659 16.9225 10.8394 16.9715 10.8231C17.0139 10.809 17.4936 10.6672 17.6245 10.6076L17.6825 10.725L17.658 11.0601L17.3883 11.248L16.8898 11.4442C16.8898 11.4442 16.1298 11.2317 16.0971 11.2398C16.0644 11.248 15.1246 10.962 15.1246 10.962L14.242 10.7576L14.5362 10.6105L15.3371 10.5534C15.3371 10.5534 15.4924 9.64624 15.5169 9.62988C15.5414 9.61352 16.0644 9.19676 16.0644 9.19676L16.4975 9.09055L16.236 7.98182L16.6283 6.77232L15.6041 7.0665L13.9805 7.46967L12.9453 7.40428L12.03 7.69847L11.4416 8.23241L11.1038 8.69005L10.9839 9.42012L10.9077 10.3899L10.6244 10.9238L10.3033 11.1754C10.2673 11.0804 10.0986 10.7168 10.0986 10.7168L10.5072 10.6187L10.4009 10.3491L10.1149 10.1366L10.2048 9.80969L10.5317 9.98951L10.6216 10.0549L10.6788 9.71984L10.3192 9.21317L10.3764 8.95981L10.8096 9.18865L10.7605 8.60024L10.3764 8.36324L10.4009 8.03634L10.8205 8.16163L10.7769 7.85109L10.3192 7.51875L10.766 6.7996L10.2212 6.82688L10.1776 6.5926L10.0359 6.53809C10.0359 6.53809 9.27863 6.85955 9.22416 6.84863C9.16969 6.83775 8.56492 6.75601 8.49409 6.77236C8.42326 6.78872 8.17267 6.85407 8.17267 6.85407L8.10184 7.13194L7.63872 7.05567L6.95225 6.99849L6.7452 7.25184L7.0721 7.38262C7.0721 7.38262 6.99584 7.96012 7.01764 8.00371C7.03943 8.04731 7.23556 8.33062 7.23556 8.33062L6.78879 8.94078L7.24643 9.00617L7.87844 8.90811L7.85664 9.06069L8.6957 8.9735L8.51045 9.07156L8.27073 9.79071L7.57333 11.2073L7.32818 12.4658L6.93589 12.0572L6.67437 10.9784L6.28208 9.91601C6.28208 9.91601 6.20038 9.5891 6.1513 9.58095C6.10222 9.57279 5.88979 9.53192 5.88979 9.53192L5.62012 9.75255L5.27686 9.70352L5.08073 9.97319L5.30137 10.3165C5.30137 10.3165 4.93359 10.4635 4.93359 10.5044C4.93359 10.5453 4.95811 10.7823 4.98262 10.7905C5.00714 10.7986 5.56288 10.7823 5.56288 10.7823L5.89794 11.3789L5.63643 12.0653L5.76721 12.3269L5.99605 12.3595L6.20853 12.1144L6.94404 14.3127C6.94404 14.3127 6.88686 14.5988 6.84598 14.6233C6.80511 14.6478 6.60898 14.8684 6.65801 14.8684C6.70705 14.8684 7.00943 14.9093 7.0421 14.893C7.07478 14.8766 7.49974 14.5497 7.49974 14.5497C7.49974 14.5497 8.16986 14.0348 8.21073 14.0757C8.25161 14.1166 8.88905 14.5088 8.88905 14.5088L8.59487 15.5222L7.90024 16.5356L7.46712 16.2741L7.15657 15.8327L6.92773 15.9063L6.84603 16.0452L6.8787 16.3394C6.8787 16.3394 6.6417 16.5274 6.6417 16.5683C6.6417 16.6091 6.66622 16.9033 6.66622 16.9033C6.66622 16.9033 6.82151 16.9769 6.82967 17.0177C6.83783 17.0586 6.91957 17.3528 6.91957 17.3528L7.08303 17.41L7.39357 17.222H7.90844L8.22714 17.271L8.90546 17.0586L9.89433 17.1076L9.80442 16.9196C9.80442 16.9196 9.40397 16.7153 9.26504 16.6745C9.1261 16.6336 8.98716 16.6009 8.98716 16.6009L8.92998 16.3149L9.90248 15.1626L10.2621 15.089L10.3846 15.3914C10.3846 15.3914 10.7878 15.2934 10.7878 15.2606C10.7878 15.2279 10.7878 14.8793 10.7878 14.8466C10.7878 14.8139 10.7006 14.5414 10.7006 14.5414C10.7006 14.5414 10.6994 14.5314 10.6977 14.5165L11.0057 14.4651L12.0736 13.953L12.4495 14.4052L12.9181 14.6286L12.3351 15.6746L11.8339 16.0125L11.4743 15.849L10.973 15.4785L10.7769 15.5984L10.8205 15.9688L10.5263 15.9471L10.3956 16.2086L10.6135 16.5246L10.5372 16.7752C10.5372 16.7752 10.5917 17.004 10.6462 17.004C10.7007 17.004 11.0276 16.8842 11.0276 16.8842L11.9865 16.8079L12.6839 16.5791L13.4139 16.6336C13.4139 16.6336 13.5556 16.1432 13.5229 16.1432C13.4903 16.1432 13.4793 16.1323 13.3922 16.1323C13.305 16.1323 12.9999 16.1432 12.9999 16.1432L12.9889 16.0343L13.2287 15.5984L14.1548 14.8248L14.4272 14.8793L14.5253 15.0209L14.7977 14.8139L14.7868 14.4652L14.5471 14.2146L14.3074 13.9313L14.3836 13.5063L14.7977 13.7024C14.7977 13.7024 15.4515 14.1601 15.506 14.1819C15.5605 14.2037 16.8244 14.5306 16.8244 14.5306L17.086 15.1517L16.9552 16.1324L16.552 16.0125L16.1706 15.5222C16.1706 15.5222 16.0617 15.4676 16.0072 15.4786C15.9527 15.4895 15.8219 15.7074 15.8219 15.7074L15.9527 16.0125L15.7784 16.067L15.6149 16.176L15.5823 16.4048L15.7348 16.5465C15.7348 16.5465 15.7348 16.808 15.7348 16.8406C15.7348 16.8733 15.822 16.9932 15.8547 17.0041C15.8873 17.015 16.138 17.0477 16.1979 17.0422C16.2578 17.0368 16.7046 16.8515 16.7046 16.8515C16.7046 16.8515 17.5436 16.8679 17.5654 16.8624C17.5872 16.857 18.3118 16.699 18.3118 16.699L18.7204 16.7644C18.7204 16.7644 18.9929 16.5573 18.9819 16.5301C18.971 16.5029 18.6987 16.2468 18.6606 16.2414ZM17.0942 10.3409C16.8736 10.3654 16.7592 10.4308 16.7428 10.3083C16.7264 10.1857 16.7264 9.94047 16.7509 9.93232C16.7755 9.92416 17.0288 9.77702 17.037 9.80154C17.0451 9.82605 17.2985 9.94863 17.2985 9.94863L17.4528 10.2604C17.3714 10.3037 17.2458 10.3241 17.0942 10.3409Z" fill="#FF4B55"/>
<path d="M5.95662 8.33876C5.95662 8.33876 6.04653 7.87292 6.07104 7.87292C6.09556 7.87292 6.43062 7.75034 6.43062 7.75034L5.43359 7.10474C5.43359 7.10474 5.6052 7.89748 5.62156 7.96282C5.63792 8.02816 5.95662 8.33876 5.95662 8.33876Z" fill="#FF4B55"/>
<path d="M8.49604 7.37995C8.49951 7.38075 8.51939 7.3852 8.54981 7.3912L8.54231 7.42388C8.53003 7.47647 8.56298 7.52934 8.61586 7.54134C8.62326 7.54313 8.63067 7.54388 8.63793 7.54388C8.68251 7.54388 8.72296 7.51322 8.73332 7.46775L8.74382 7.42209C8.81446 7.43086 8.89223 7.43761 8.96737 7.43761C9.03084 7.43761 9.0921 7.43302 9.14488 7.42074C9.19762 7.40845 9.23057 7.35586 9.21829 7.30327C9.20601 7.25039 9.15379 7.21669 9.10068 7.22972C8.94552 7.26624 8.64304 7.21238 8.53987 7.18885C8.48817 7.17657 8.43464 7.20952 8.4224 7.26239C8.41036 7.31531 8.44331 7.36795 8.49604 7.37995Z" fill="#464655"/>
<path d="M18.2052 8.96312L18.4524 9.71771C18.4657 9.75807 18.5033 9.78512 18.5456 9.78512C18.547 9.78512 18.5484 9.78512 18.55 9.78512C18.5939 9.78305 18.6312 9.75216 18.6411 9.70927C18.8219 8.93444 19.1839 7.70881 19.4396 7.50861C19.4752 7.48076 19.4871 7.43248 19.4686 7.39114C19.4502 7.35026 19.4064 7.32678 19.3614 7.33494C19.3091 7.34464 18.0685 7.58623 17.2054 8.88081C17.1834 8.914 17.1834 8.95717 17.2057 8.99012C17.228 9.02308 17.2679 9.0384 17.3069 9.03123L18.0256 8.88264C17.925 9.12531 17.8608 9.33873 17.8386 9.41715C17.5113 9.21793 17.1422 9.1825 16.8863 9.24887C16.5941 9.32546 16.3486 9.51165 16.2124 9.7599C16.1081 9.95016 16.0805 10.1591 16.1367 10.333C16.202 10.535 16.3762 10.7863 16.6695 10.8851C16.8638 10.9511 17.1778 10.9657 17.5918 10.7095C17.5918 10.7115 17.5921 10.7133 17.5921 10.7153C17.5892 10.8787 17.5053 11.0121 17.3424 11.1119C17.0186 11.3103 16.4507 11.3236 16.077 11.1408C15.5841 10.9001 14.843 10.7632 14.4291 10.701C14.6858 10.6192 14.9961 10.5961 15.369 10.6816C15.3741 10.6829 15.379 10.6809 15.3841 10.6813C15.3866 10.6815 15.3885 10.6841 15.391 10.6841C15.3937 10.6841 15.3957 10.6812 15.3985 10.681C15.4211 10.6792 15.4429 10.6723 15.4594 10.6563C15.4596 10.656 15.4597 10.6557 15.4599 10.6554C15.46 10.6553 15.4602 10.6554 15.4602 10.6554C15.4607 10.6549 15.4605 10.6543 15.4609 10.6539C15.4767 10.6374 15.4837 10.6163 15.4857 10.5941C15.4861 10.5888 15.4867 10.5847 15.4864 10.5795C15.4861 10.575 15.4879 10.5708 15.487 10.5664C15.4858 10.5608 15.3772 10.0041 15.6764 9.62045C15.8562 9.38982 16.1502 9.26392 16.5505 9.24578C16.5567 9.2455 16.562 9.24189 16.568 9.24043C16.5767 9.23837 16.5853 9.23715 16.5932 9.23279C16.6003 9.22886 16.6053 9.22257 16.6112 9.21695C16.6162 9.21231 16.6224 9.2095 16.6264 9.20368C16.6273 9.20247 16.6274 9.20101 16.6282 9.19975C16.6289 9.19867 16.6301 9.1982 16.6308 9.19707C16.6326 9.19403 16.6322 9.19042 16.6336 9.18728C16.638 9.17748 16.6411 9.16764 16.6421 9.15733C16.6427 9.15236 16.6427 9.14781 16.6424 9.14284C16.6418 9.13178 16.6393 9.12137 16.6351 9.11111C16.6341 9.10853 16.6345 9.10562 16.6333 9.10314C16.6254 9.08758 15.8559 7.54887 17.1096 6.52143C17.1503 6.48796 17.1573 6.4282 17.1256 6.38634C17.0936 6.34471 17.0345 6.33501 16.9911 6.36538C15.7532 7.23448 14.0424 7.32819 13.3643 7.32819C12.155 7.32819 11.3908 7.78353 11.0282 8.72003C10.9905 8.81734 10.9639 8.93275 10.9415 9.05631C10.9536 8.88306 10.9219 8.7311 10.8437 8.60407C10.7321 8.42294 10.5614 8.3471 10.4847 8.32076C10.4847 8.27632 10.4844 8.2323 10.483 8.18908C10.6155 8.16869 10.7727 8.27149 10.8245 8.31518C10.8427 8.33051 10.8653 8.33866 10.8881 8.33866C10.9032 8.33866 10.9184 8.3351 10.9324 8.32793C10.9676 8.31007 10.9888 8.27304 10.986 8.23371C10.9539 7.77767 10.6445 7.55604 10.4323 7.48104C10.6194 7.33231 10.8189 7.08903 10.941 6.69219C10.9528 6.6539 10.9401 6.61227 10.909 6.58724C10.8778 6.56198 10.8344 6.55813 10.7996 6.57754C10.7964 6.57937 10.5967 6.68746 10.2966 6.77661L10.324 6.42023C10.3267 6.38423 10.3094 6.34949 10.2788 6.33009C10.2483 6.3104 10.2092 6.30965 10.178 6.32756C10.1729 6.33032 9.67077 6.61223 9.15871 6.76096C8.77218 6.66374 8.26913 6.58818 8.07844 6.78674C8.03246 6.8345 7.98971 6.91213 8.0003 7.03241C7.67124 6.96369 6.91581 6.85133 6.45724 7.14786C6.4211 7.17111 6.4045 7.21527 6.41613 7.25666C6.42789 7.29805 6.46516 7.32716 6.50819 7.32819C6.65378 7.33175 6.87878 7.36522 6.97262 7.42728C6.93123 7.53889 6.8628 7.77537 6.92256 8.00341C6.72353 8.06107 6.51471 8.07002 6.26079 7.93259L6.48218 7.87826C6.52188 7.86856 6.55136 7.83509 6.55624 7.79449C6.56097 7.7539 6.54002 7.71457 6.50374 7.69592C6.49811 7.69287 5.93984 7.40248 5.47554 6.91443C5.44925 6.8871 5.40926 6.87716 5.37261 6.88939C5.33633 6.90191 5.31069 6.93435 5.30698 6.97241C5.30305 7.01174 5.21975 7.93957 5.92437 8.48964C5.94199 8.50319 5.96332 8.51032 5.98479 8.51032C5.9982 8.51032 6.0116 8.5075 6.02435 8.50188C6.0573 8.4873 6.07976 8.45589 6.08257 8.4199L6.1099 8.06946C6.46141 8.27993 6.75245 8.25977 7.00211 8.18393C7.03337 8.23169 7.07322 8.27716 7.12342 8.31879C7.13148 8.32549 7.14254 8.33276 7.15375 8.34007C6.9933 8.71572 6.67464 8.81252 6.66105 8.81627C6.62135 8.82775 6.59285 8.86277 6.59003 8.90387C6.58708 8.94498 6.6101 8.98356 6.64774 9.00039C6.6715 9.01084 7.18468 9.23279 7.75993 9.02795L7.75088 9.09358C7.74704 9.12114 7.75524 9.14926 7.77348 9.17045C7.79162 9.19192 7.81805 9.20443 7.84599 9.20495C7.84843 9.20495 7.85494 9.20518 7.86516 9.20518C7.93121 9.20518 8.1503 9.20017 8.39869 9.14312C8.36114 9.49398 8.14739 9.91224 7.91996 10.3534C7.61209 10.9512 7.26896 11.6252 7.27445 12.3059C7.15698 12.1539 7.01073 11.9168 6.93836 11.602C6.91333 11.4927 6.89673 11.3946 6.88164 11.305C6.84498 11.0882 6.81334 10.9007 6.68514 10.7245C6.54021 10.5253 6.33527 10.0807 6.34422 9.8378C6.35266 9.61332 6.20557 9.48128 6.05613 9.44987C6.0454 9.44762 6.03518 9.45043 6.02449 9.44917C5.9891 9.37787 5.89324 9.24132 5.67307 9.22562C5.62006 9.21845 5.57206 9.26242 5.56822 9.31656C5.56437 9.37046 5.60501 9.41743 5.65901 9.42128C5.73579 9.42671 5.78346 9.45601 5.81276 9.48531C5.74085 9.52229 5.68254 9.58402 5.642 9.66301C5.51075 9.58735 5.37805 9.56837 5.27656 9.59162C5.25031 9.59757 5.23039 9.61177 5.2077 9.62251C5.14128 9.58782 4.96442 9.52187 4.75119 9.65748C4.70549 9.68635 4.69194 9.7471 4.72105 9.79285C4.73971 9.82224 4.77149 9.83832 4.80393 9.83832C4.82179 9.83832 4.84007 9.83344 4.85643 9.82299C4.93255 9.77466 4.99757 9.76834 5.04524 9.77438C5.01027 9.83912 4.99044 9.91051 4.99382 9.97697C5.00056 10.109 5.07692 10.2114 5.19495 10.2548C5.05424 10.2817 4.93499 10.347 4.87124 10.4354C4.86097 10.4497 4.85882 10.4661 4.85146 10.4812C4.76183 10.4904 4.62397 10.5508 4.53684 10.735C4.51359 10.7838 4.53454 10.8422 4.58343 10.8655C4.59707 10.8719 4.61127 10.8749 4.62533 10.8749C4.66213 10.8749 4.69733 10.8543 4.71407 10.8187C4.75293 10.7367 4.79858 10.7042 4.83271 10.6894C4.92585 10.9966 5.2287 10.9266 5.41137 10.8839L5.48454 10.8673C5.58697 10.8468 5.76753 11.1459 5.81604 11.34C5.84974 11.4748 5.79204 11.6398 5.61022 11.9284C5.49978 12.1041 5.53156 12.2313 5.57778 12.3072C5.57867 12.3087 5.58022 12.3095 5.58115 12.311C5.55186 12.3198 5.51567 12.3261 5.46683 12.3197C5.41409 12.3089 5.36366 12.3498 5.35639 12.4034C5.34912 12.4571 5.38667 12.5066 5.4403 12.5138C5.46533 12.5173 5.48895 12.5189 5.51131 12.5189C5.62536 12.5189 5.70134 12.4799 5.747 12.4481C5.81074 12.4753 5.87642 12.4857 5.92488 12.4819C6.06012 12.4706 6.15166 12.3521 6.21358 12.205C6.394 13.1997 6.80866 14.1235 6.88066 14.2793C6.86608 14.6317 6.48569 14.7144 6.46924 14.718C6.42696 14.7267 6.39532 14.7619 6.39133 14.8051C6.3874 14.848 6.41177 14.8883 6.45161 14.9047C6.61713 14.9724 6.76192 14.9994 6.88769 14.9994C7.27562 14.9994 7.4807 14.7436 7.54529 14.645C7.83179 14.5452 8.16764 14.3116 8.29875 14.216C8.51737 14.3798 8.69911 14.4706 8.75986 14.499C8.6542 15.5389 8.0446 16.2413 7.86619 16.4255C7.7454 16.3563 7.47863 16.1855 7.39056 15.9819C7.30721 15.7895 7.15267 15.7353 7.02662 15.7466C6.9843 15.6919 6.88933 15.59 6.75606 15.5753C6.69058 15.5684 6.59121 15.5805 6.49019 15.6816C6.45189 15.7199 6.45189 15.782 6.49019 15.8203C6.52839 15.8586 6.59041 15.8588 6.62885 15.8205C6.68425 15.7651 6.72194 15.7684 6.73417 15.7702C6.77191 15.7742 6.80842 15.8016 6.8373 15.8297C6.76581 15.8906 6.72156 15.9759 6.72869 16.069C6.73375 16.1344 6.75827 16.1959 6.79281 16.2531C6.72138 16.2903 6.63531 16.3513 6.57864 16.4477C6.57658 16.4512 6.57433 16.4567 6.57217 16.4605C6.45508 16.4679 6.24438 16.5506 6.21152 16.8234C6.20515 16.8773 6.24344 16.926 6.29721 16.9324C6.30129 16.9329 6.30513 16.9332 6.30907 16.9332C6.35796 16.9332 6.40038 16.8966 6.40638 16.8468C6.4181 16.7491 6.46544 16.7021 6.50978 16.6786C6.50866 16.7189 6.51199 16.7608 6.52643 16.8044C6.56027 16.9074 6.64028 16.9909 6.75972 17.0557C6.74706 17.096 6.73891 17.1388 6.73778 17.1852C6.67474 17.2169 6.58174 17.2763 6.53411 17.3773C6.49849 17.4526 6.49633 17.5369 6.5276 17.6212C6.54227 17.6607 6.57967 17.685 6.61952 17.685C6.63086 17.685 6.64249 17.683 6.65374 17.6789C6.70455 17.66 6.73038 17.6036 6.71144 17.5527C6.69433 17.507 6.70314 17.4787 6.7113 17.4613C6.72578 17.4304 6.75456 17.4045 6.784 17.3843C6.82038 17.4495 6.87531 17.4993 6.94881 17.5236C6.98237 17.5346 7.01725 17.5399 7.05226 17.5399C7.16898 17.5399 7.2872 17.4809 7.36309 17.3783C7.45389 17.2552 7.63149 17.3257 7.64298 17.3305C8.01432 17.4654 8.51601 17.3637 8.81967 17.1931C8.98809 17.0984 9.58147 17.1494 9.91616 17.2044C9.94231 17.2079 9.97016 17.2016 9.99177 17.1855C10.0132 17.1689 10.0269 17.1444 10.0295 17.1173C10.0634 16.7787 9.62525 16.6888 9.27323 16.6165C9.17732 16.5968 9.08601 16.5782 8.99995 16.5414C8.96559 16.3427 9.48187 15.6194 9.97372 15.2578C10.0943 15.1692 10.1913 15.1337 10.24 15.1598C10.3094 15.1978 10.3315 15.375 10.3245 15.4828C10.3243 15.4857 10.3259 15.4881 10.326 15.4909C10.3261 15.5017 10.3281 15.5119 10.3318 15.5223C10.3334 15.5266 10.3346 15.5308 10.3368 15.5348C10.3382 15.5375 10.3383 15.5403 10.34 15.5428C10.3456 15.5514 10.3532 15.5578 10.3607 15.564C10.3622 15.5652 10.3627 15.5672 10.3643 15.5684C10.3647 15.5686 10.3652 15.5686 10.3652 15.5686C10.3779 15.5776 10.3919 15.583 10.4066 15.5854C10.4104 15.586 10.4139 15.5855 10.4178 15.5856C10.4287 15.5862 10.4393 15.585 10.4501 15.5818C10.4526 15.5811 10.4554 15.5818 10.4578 15.5809C10.4658 15.5778 10.4744 15.5734 10.4826 15.5701C10.5349 15.5433 10.6235 15.5732 10.6856 15.605C10.674 15.6407 10.667 15.6781 10.6703 15.7185C10.6744 15.7691 10.6901 15.8194 10.7146 15.8677C10.6174 15.8567 10.5265 15.8677 10.4607 15.9183C10.4373 15.9363 10.4187 15.959 10.4 15.9814C10.262 15.9951 10.0894 16.082 10.0483 16.2876C10.0377 16.3407 10.0721 16.3923 10.1252 16.4031C10.1317 16.4043 10.1382 16.4048 10.1446 16.4048C10.1903 16.4048 10.2313 16.3727 10.2406 16.3259C10.2505 16.2768 10.2756 16.2471 10.3032 16.2247C10.3024 16.2605 10.3062 16.296 10.3168 16.3295C10.3361 16.3901 10.3879 16.4806 10.5197 16.5312C10.5078 16.5513 10.4976 16.5728 10.4885 16.5948C10.3904 16.6264 10.2425 16.7281 10.2425 16.9442C10.2425 16.9983 10.2865 17.0422 10.3406 17.0422C10.3947 17.0422 10.4387 16.9983 10.4387 16.9442C10.4387 16.906 10.4481 16.8784 10.4606 16.8554C10.4638 16.8696 10.466 16.8842 10.4711 16.8974C10.4949 16.9595 10.5662 17.0759 10.7662 17.0759C10.8321 17.0759 10.9118 17.0634 11.0083 17.032C11.2424 16.9562 11.4083 16.9482 11.5687 16.9403C11.7605 16.9311 11.9417 16.9222 12.1962 16.8042C12.5629 16.6339 13.0171 16.6916 13.2551 16.7414C13.3841 16.768 13.5103 16.7046 13.5622 16.5864C13.5801 16.5461 13.5918 16.5108 13.6041 16.4749C13.7151 16.4882 13.738 16.5961 13.741 16.6198C13.7465 16.6699 13.7889 16.7071 13.8383 16.7071C13.8417 16.7071 13.8451 16.7069 13.8486 16.7066C13.9025 16.701 13.9416 16.6527 13.936 16.5988C13.9254 16.4964 13.8495 16.3125 13.6463 16.2806C13.6489 16.2111 13.6353 16.1538 13.6012 16.1116C13.564 16.0656 13.4898 16.0174 13.3445 16.0472C13.194 16.0784 13.1248 16.0845 13.0937 16.0817C13.0984 16.0626 13.1095 16.0286 13.1355 15.9706C13.2231 15.7735 13.8047 15.2535 14.1856 14.9422C14.2774 14.9215 14.3938 14.9202 14.4208 14.9509C14.4303 14.9613 14.4303 14.9974 14.4088 15.0543C14.3935 15.0947 14.4064 15.1402 14.4403 15.1665C14.4742 15.1928 14.5214 15.194 14.5567 15.1695C14.5719 15.1588 14.9277 14.9062 14.9205 14.5985C14.9168 14.4429 14.8261 14.3079 14.6509 14.197C14.5024 14.1032 14.4171 13.9947 14.3972 13.8747C14.3764 13.7492 14.4299 13.6377 14.4657 13.5784C14.6061 13.6458 14.7471 13.7328 14.8875 13.8489C15.7157 14.5336 16.4204 14.6427 16.8011 14.6409C16.881 14.8173 17.1155 15.4193 16.9153 16.0376C16.8088 16.0187 16.5997 15.9508 16.4561 15.7115C16.3166 15.4791 16.1492 15.4208 16.0331 15.4132C15.8527 15.3991 15.6612 15.5018 15.5108 15.6898C15.4787 15.7301 15.4831 15.7883 15.5209 15.8231C15.5588 15.858 15.6174 15.8578 15.6546 15.8226C15.6796 15.7988 15.7262 15.77 15.7463 15.7855L15.7666 15.8422C15.7774 15.8736 15.7886 15.9053 15.8018 15.936C15.7238 15.9475 15.6487 15.9794 15.5901 16.0458C15.5515 16.0896 15.5271 16.1401 15.5096 16.1922C15.3299 16.2243 15.2321 16.3605 15.2279 16.3669C15.1981 16.4115 15.2102 16.4716 15.2546 16.5017C15.2713 16.5132 15.2905 16.5188 15.3094 16.5188C15.3407 16.5188 15.3715 16.504 15.3906 16.4765C15.3925 16.4739 15.4287 16.4248 15.4936 16.3973C15.5017 16.4342 15.5149 16.47 15.5351 16.5025C15.5689 16.5571 15.6169 16.5936 15.6715 16.613C15.6641 16.6414 15.6578 16.6723 15.6537 16.7056C15.6516 16.7063 15.6495 16.706 15.6474 16.7068C15.4126 16.8057 15.4605 17.0976 15.5186 17.238C15.5343 17.2758 15.5706 17.2985 15.6091 17.2985C15.6216 17.2985 15.6342 17.296 15.6463 17.2911C15.6964 17.2705 15.7203 17.2132 15.6998 17.1632C15.6991 17.1613 15.644 17.0172 15.6794 16.935C15.6804 16.9372 15.6806 16.9396 15.6816 16.9417C15.7222 17.0334 15.8005 17.0988 15.9078 17.131C15.9607 17.1468 16.0113 17.1534 16.0597 17.1534C16.2202 17.1534 16.3564 17.0791 16.4711 17.0163C16.5603 16.9675 16.6448 16.9228 16.7113 16.9274C16.7597 16.932 16.8151 16.9407 16.8759 16.9501C17.1052 16.9859 17.4196 17.0344 17.7315 16.934C17.7896 16.9154 17.8423 16.8973 17.8904 16.8807C18.1439 16.7938 18.2386 16.7614 18.3935 16.8495C18.5811 16.9567 18.8229 16.8847 18.9476 16.7532C18.9866 16.712 19.0091 16.6661 19.0212 16.6195C19.0852 16.6449 19.137 16.6725 19.1454 16.6878C19.1271 16.7389 19.1537 16.7948 19.2048 16.8132C19.2156 16.817 19.2268 16.8188 19.2377 16.8188C19.2779 16.8188 19.3157 16.7938 19.3301 16.7537C19.3484 16.7024 19.344 16.6495 19.3174 16.601C19.2526 16.483 19.0628 16.4196 18.9678 16.3944C18.8109 16.1811 18.5716 16.1147 18.1763 16.1773C18.1606 16.1796 18.1484 16.1768 18.1349 16.1655C17.9906 16.0488 17.9588 15.4425 17.9399 15.0807C17.9247 14.7911 17.9143 14.623 17.8699 14.5423C17.8926 14.5237 18.0167 14.5214 18.0941 14.5778C18.1314 14.6054 18.1351 14.6302 18.1262 14.6582C18.1246 14.6623 18.1232 14.6662 18.1218 14.67C18.1027 14.7201 18.1275 14.7765 18.1774 14.7961C18.2273 14.8153 18.2839 14.7918 18.3042 14.742C18.3071 14.7351 18.3097 14.7279 18.312 14.7211C18.3469 14.6217 18.4902 14.1717 18.3214 13.8867C18.2456 13.7587 18.1221 13.6824 17.9542 13.6596C17.5264 13.602 17.2004 13.3286 16.9812 12.8524C17.3133 12.7356 18.291 12.2925 18.4739 11.0692C18.5953 10.2561 18.3039 9.80073 18.0379 9.56195C18.0252 9.55051 18.0114 9.54184 17.9985 9.53106C18.0062 9.52112 18.016 9.51287 18.0194 9.49988C18.0203 9.49567 18.0876 9.24831 18.2052 8.96312ZM17.5128 8.78833C18.0717 8.06098 18.7572 7.73717 19.1278 7.60639C18.8847 8.04438 18.6531 8.86366 18.5323 9.33151L18.3283 8.70836C18.3275 8.70592 18.325 8.70489 18.324 8.7026C18.3838 8.58457 18.4511 8.47029 18.5253 8.37382C18.5582 8.33093 18.5502 8.26938 18.5073 8.23643C18.4642 8.20324 18.4028 8.2114 18.3697 8.25429C18.2772 8.37466 18.1956 8.51739 18.1252 8.66158L17.5128 8.78833ZM5.90238 8.20502C5.60028 7.88501 5.52162 7.46975 5.50358 7.21742C5.76204 7.457 6.02276 7.63625 6.19863 7.74556L6.0424 7.78395C6.01254 7.76 5.9832 7.73787 5.95207 7.70984C5.91209 7.67384 5.85017 7.6774 5.81365 7.71725C5.77737 7.7576 5.7807 7.81967 5.82106 7.8559C5.85607 7.88735 5.88931 7.91159 5.92324 7.93854L5.90238 8.20502ZM13.2997 11.44C13.1165 10.9509 12.5633 9.78001 11.2081 8.80033C11.2092 8.79747 11.2098 8.79372 11.211 8.79091C11.2283 8.746 11.2511 8.70733 11.2705 8.66486C13.3222 9.18915 14.5711 10.0422 15.07 10.4393C14.0508 10.3642 13.5116 11.0662 13.2997 11.44ZM15.5209 9.50087C15.3043 9.77926 15.2665 10.1184 15.2707 10.3474C14.8208 9.97074 13.5562 9.05406 11.3568 8.48524C11.3852 8.43588 11.4193 8.39299 11.4511 8.34747C11.4582 8.34911 11.465 8.35169 11.4725 8.35211C14.1786 8.23587 15.6883 8.81692 16.2413 9.09076C15.9311 9.15362 15.6866 9.28782 15.5209 9.50087ZM13.3643 7.52417C13.9624 7.52417 15.3433 7.4524 16.5343 6.86221C16.0231 7.63222 16.2068 8.49654 16.3513 8.92356C15.8028 8.64264 14.3175 8.05915 11.6082 8.15257C11.9991 7.73398 12.5769 7.52417 13.3643 7.52417ZM11.0642 9.61374C11.0886 9.39207 11.113 9.18123 11.1514 9.00362C12.4538 9.96905 12.9783 11.136 13.1335 11.5592C12.8137 11.4875 12.5239 11.5107 12.2742 11.6395C12.0699 11.745 11.9273 11.9 11.8295 12.042C11.786 11.5486 11.623 10.668 11.0279 9.97463C11.026 9.97238 11.0233 9.97144 11.0213 9.96943C11.0371 9.85008 11.0513 9.7306 11.0642 9.61374ZM10.9403 12.6077C10.4845 12.5014 10.2931 12.0422 10.2843 12.0205C10.2723 11.9909 10.2466 11.9687 10.2155 11.9615C10.2081 11.96 10.2007 11.959 10.1933 11.959C10.1694 11.959 10.146 11.9679 10.1278 11.9842C9.80038 12.2787 9.39983 12.3563 9.19987 12.3768C9.35793 11.8803 9.80244 11.6224 10.4005 11.2753L10.428 11.2592C10.5771 11.1726 10.6847 11.0413 10.7687 10.8868C10.7686 11.1336 10.7819 11.4086 10.8272 11.6399C10.8364 11.6867 10.8774 11.7191 10.9233 11.7191C10.9295 11.7191 10.936 11.7186 10.9423 11.7173C10.9954 11.7069 11.03 11.6553 11.0197 11.6022C10.9216 11.1017 10.9837 10.3489 10.9928 10.2474C11.5631 11.0174 11.6387 11.989 11.6472 12.3058C11.3126 12.248 11.1262 11.9879 11.1242 11.9852C11.1059 11.9586 11.0759 11.9428 11.0439 11.9428H11.0435C11.0116 11.9428 10.9817 11.9582 10.9633 11.9842C10.8182 12.1896 10.8748 12.4427 10.9403 12.6077ZM10.593 9.92457C10.517 9.8311 10.4148 9.72826 10.3136 9.68302C10.3364 9.59166 10.3579 9.4944 10.3774 9.39226C10.4823 9.47846 10.6411 9.65602 10.593 9.92457ZM10.1512 10.275C10.1806 10.2793 10.3593 10.3139 10.4335 10.5433C10.3503 10.529 10.2524 10.5366 10.1537 10.5897C10.138 10.4978 10.1348 10.3929 10.1512 10.275ZM10.5014 10.7781C10.5297 10.7999 10.5674 10.8026 10.5997 10.7886C10.5428 10.8942 10.4713 10.9815 10.3833 11.0472C10.3352 10.9987 10.2645 10.9119 10.2112 10.7861C10.3565 10.6802 10.4869 10.7676 10.5014 10.7781ZM10.8394 9.33231C10.8736 9.3235 10.9001 9.29636 10.9091 9.26209C10.8948 9.36882 10.8817 9.47851 10.8692 9.59232C10.8281 9.96521 10.7833 10.369 10.6562 10.6755C10.6202 10.2634 10.3512 10.1118 10.1937 10.0843C10.202 10.0559 10.2096 10.0278 10.2203 9.99811C10.2342 9.95935 10.248 9.91772 10.2614 9.87376C10.3511 9.93029 10.4749 10.0833 10.5443 10.1899C10.5626 10.218 10.5934 10.2345 10.6265 10.2345C10.6288 10.2345 10.6311 10.2345 10.6334 10.2343C10.669 10.2318 10.7004 10.21 10.7154 10.1779C10.9501 9.67304 10.6341 9.31309 10.4142 9.1772C10.4197 9.14125 10.4253 9.10539 10.4303 9.06887C10.5578 9.12878 10.6938 9.25211 10.7428 9.30446C10.7616 9.32462 10.7876 9.33564 10.8145 9.33564C10.8228 9.33564 10.8311 9.3346 10.8394 9.33231ZM10.6766 8.70686C10.7325 8.7978 10.756 8.90964 10.7471 9.04089C10.6675 8.9748 10.5623 8.90336 10.4546 8.8653C10.4662 8.75383 10.4749 8.64194 10.4799 8.5315C10.5395 8.56122 10.6197 8.61457 10.6766 8.70686ZM10.7475 8.04054C10.6669 8.00534 10.5701 7.98152 10.4707 7.9924C10.4607 7.88328 10.4448 7.78179 10.4226 7.68992C10.5256 7.73839 10.6737 7.83968 10.7475 8.04054ZM10.1146 6.58283L10.0957 6.82841C9.94358 6.8623 9.77619 6.88771 9.59886 6.89188C9.57229 6.88269 9.53526 6.87027 9.49213 6.85639C9.74464 6.76297 9.97138 6.65568 10.1146 6.58283ZM7.24881 8.16799C7.22865 8.15112 7.21089 8.13326 7.19542 8.1146C7.21468 8.10696 7.23386 8.09927 7.25261 8.09187C7.38873 8.03721 7.51717 7.9856 7.64077 7.97871C7.91851 7.9616 7.9996 8.07143 8.01774 8.10513C8.03625 8.13963 8.0333 8.17001 8.02233 8.18505C7.97611 8.24787 7.90205 8.28569 7.80207 8.29793C7.57365 8.32404 7.30178 8.21219 7.24881 8.16799ZM7.93782 8.79011C7.90819 8.76864 7.8691 8.76536 7.8368 8.78219C7.50034 8.95023 7.16551 8.92905 6.95289 8.88663C7.08058 8.79958 7.2302 8.65371 7.33032 8.42336C7.44498 8.46494 7.58743 8.49846 7.72838 8.49846C7.76105 8.49846 7.79363 8.49639 7.82569 8.4926C7.97916 8.47394 8.10178 8.4078 8.1803 8.30158C8.23941 8.22115 8.24325 8.11005 8.19024 8.01199C8.14913 7.93587 8.01235 7.76042 7.63004 7.78315C7.47413 7.79159 7.32446 7.85159 7.17967 7.90981C7.15642 7.91899 7.13317 7.92846 7.11006 7.93737C7.05747 7.7052 7.17493 7.44931 7.17657 7.44598C7.19115 7.41481 7.18843 7.3783 7.1694 7.3497C7.11489 7.26772 7.00633 7.21663 6.89219 7.1847C7.42084 7.07413 8.09953 7.2567 8.10783 7.259C8.14411 7.26847 8.18213 7.25797 8.20692 7.22989C8.23167 7.20233 8.23871 7.163 8.22506 7.12827C8.1856 7.02894 8.18382 6.95971 8.21972 6.92244C8.3722 6.76358 9.08995 6.92066 9.55054 7.08256C9.5615 7.08641 9.57379 7.08538 9.58461 7.08819C10.0385 7.08102 10.4351 6.95132 10.6699 6.85424C10.4048 7.4299 9.95394 7.51086 9.9327 7.51442C9.87946 7.52286 9.84308 7.57264 9.85124 7.62603C9.85939 7.67965 9.9096 7.7172 9.96308 7.70825C9.97344 7.70661 10.0693 7.68992 10.1998 7.62715C10.394 8.16438 10.2419 9.35879 10.0356 9.93165C9.80478 10.5729 10.0608 10.9802 10.2176 11.1549C9.59816 11.5153 9.1139 11.8215 8.97839 12.4505C8.9782 12.4511 8.97773 12.4515 8.97754 12.452C8.97431 12.4623 8.94112 12.5725 8.90287 12.7691C8.66283 12.6096 8.2155 11.9548 8.4563 11.1874C8.52192 10.9779 8.59908 10.7731 8.67365 10.575C8.89532 9.98658 9.10406 9.43037 8.94862 8.90945C9.00928 8.86595 9.06609 8.8172 9.11521 8.75992C9.28621 8.56071 9.34598 8.30608 9.29282 8.00295C9.28363 7.94932 9.23291 7.91304 9.17929 7.92326C9.12604 7.93245 9.09028 7.98326 9.09974 8.03665C9.14277 8.2826 9.09923 8.47718 8.96657 8.63196C8.71017 8.93125 8.18878 8.99308 7.96088 9.00559L7.97775 8.88302C7.98277 8.84706 7.9673 8.8113 7.93782 8.79011ZM8.81812 13.2617C8.64923 13.4682 8.30644 13.7428 8.17332 13.8466C8.05041 13.7294 7.92732 13.5903 7.81885 13.4273C8.32064 13.3421 8.62181 13.0307 8.73468 12.8863C8.77233 12.9183 8.80809 12.944 8.83968 12.9609C8.84882 12.9658 8.85867 12.9663 8.86837 12.968C8.85515 13.052 8.84268 13.1472 8.83082 13.2513C8.8267 13.2549 8.82178 13.2573 8.81812 13.2617ZM7.62465 11.4743C7.70363 11.4965 7.90843 11.5488 8.09743 11.5488C8.13202 11.5488 8.16305 11.5424 8.19549 11.5385C8.18855 11.6592 8.19446 11.7754 8.21133 11.886C8.05496 11.9878 7.69055 11.9963 7.49377 11.9879C7.52017 11.8162 7.56531 11.6446 7.62465 11.4743ZM7.87008 10.889C7.94236 10.9063 8.08407 10.9351 8.22717 10.9351C8.2643 10.9351 8.30124 10.9328 8.33719 10.9282C8.31413 10.9948 8.2905 11.0607 8.26917 11.1287C8.24667 11.2005 8.23111 11.2709 8.2186 11.3406C8.21785 11.3407 8.21714 11.3405 8.21644 11.3406C8.07089 11.3766 7.8211 11.3247 7.69355 11.2899C7.74774 11.1546 7.8068 11.0205 7.87008 10.889ZM8.09424 10.4432C8.1196 10.394 8.14458 10.3453 8.16947 10.2967C8.25478 10.3172 8.42311 10.3558 8.54095 10.3704C8.52412 10.4154 8.50758 10.4601 8.49023 10.506C8.46417 10.5752 8.43797 10.6463 8.41186 10.7172C8.39967 10.7161 8.38716 10.7171 8.37483 10.7211C8.25858 10.7569 8.07704 10.7324 7.95943 10.708C8.00443 10.6185 8.04966 10.5298 8.09424 10.4432ZM8.40539 9.8033C8.47598 9.83002 8.589 9.86555 8.70309 9.86555C8.70665 9.86555 8.70993 9.86401 8.7135 9.86396C8.68397 9.96652 8.64848 10.0722 8.61009 10.1801C8.55548 10.1794 8.39531 10.1476 8.26008 10.1163C8.31258 10.0102 8.36124 9.90587 8.40539 9.8033ZM8.54086 9.42854C8.59631 9.43243 8.64764 9.43501 8.69109 9.43501C8.73384 9.43501 8.76792 9.4322 8.79895 9.4284C8.79211 9.50462 8.78123 9.58187 8.7644 9.66085C8.68997 9.68288 8.56833 9.65434 8.47823 9.62101C8.50223 9.55585 8.52319 9.49168 8.54086 9.42854ZM7.61973 12.1868C7.80755 12.1868 8.07029 12.1654 8.25178 12.081C8.27719 12.1738 8.30934 12.2613 8.34595 12.3427C8.00902 12.5768 7.63262 12.6306 7.49945 12.6417C7.48482 12.5606 7.47418 12.4767 7.46921 12.3893C7.46528 12.3208 7.4679 12.2521 7.47193 12.1833C7.50995 12.185 7.5601 12.1868 7.61973 12.1868ZM8.43708 12.5176C8.4877 12.6036 8.54161 12.6806 8.5958 12.745C8.51241 12.8555 8.21841 13.1935 7.71188 13.2483C7.64434 13.1225 7.58738 12.9846 7.54492 12.8349C7.71582 12.8182 8.0888 12.7521 8.43708 12.5176ZM8.77157 9.0145C8.78911 9.08547 8.79918 9.15765 8.80284 9.23092C8.77795 9.23889 8.6849 9.23968 8.58445 9.23439C8.59251 9.18409 8.59715 9.13464 8.59922 9.08584C8.65734 9.06583 8.71518 9.04187 8.77157 9.0145ZM7.45093 14.4694C7.42553 14.4776 7.40434 14.4955 7.39243 14.5192C7.38437 14.5353 7.21825 14.8581 6.78002 14.795C6.93503 14.6929 7.07701 14.521 7.07701 14.2582C7.07701 14.2436 7.07383 14.2293 7.06754 14.2163C7.06117 14.2028 6.42321 12.8421 6.33574 11.6249C6.33204 11.5738 6.28966 11.5342 6.23843 11.534H6.23791C6.18696 11.534 6.14444 11.5731 6.14023 11.6239C6.11482 11.9301 6.01343 12.2774 5.90834 12.2861C5.86967 12.2901 5.7791 12.261 5.74517 12.2051C5.7199 12.1635 5.73035 12.1055 5.77606 12.033C5.95446 11.7495 6.06185 11.5153 6.00616 11.2924C5.95957 11.1057 5.7416 10.6148 5.44395 10.6751L5.36633 10.6927C5.11335 10.7527 5.04824 10.74 5.01683 10.6255C5.00905 10.5969 5.01327 10.5737 5.03038 10.5499C5.07327 10.4902 5.18309 10.4455 5.30375 10.4386C5.53015 10.4263 5.62043 10.5229 5.62287 10.5257C5.65273 10.562 5.70368 10.5717 5.74484 10.55C5.78595 10.528 5.80601 10.48 5.7926 10.4353C5.78876 10.4228 5.69609 10.1281 5.30187 10.0801C5.21338 10.0693 5.19205 10.0124 5.18961 9.9669C5.18577 9.89157 5.23339 9.80218 5.31987 9.78249C5.47489 9.74799 5.7641 9.87952 5.88949 10.3808C5.90267 10.4337 5.95704 10.4641 6.00837 10.4524C6.06096 10.4391 6.09288 10.386 6.07976 10.3334C6.01559 10.0768 5.91157 9.90085 5.79537 9.7823C5.79739 9.77865 5.80048 9.77598 5.80203 9.77204C5.84899 9.65251 5.94579 9.62776 6.01577 9.64177C6.08257 9.65584 6.15255 9.71279 6.14819 9.83049C6.13605 10.1553 6.39283 10.6561 6.52643 10.8398C6.62758 10.9787 6.65299 11.1291 6.6881 11.3376C6.7038 11.4305 6.72105 11.5322 6.74711 11.6458C6.87714 12.2117 7.2189 12.5546 7.29934 12.6291C7.40546 13.3098 7.7889 13.7852 8.14046 14.0876C7.98896 14.1951 7.68793 14.3956 7.45093 14.4694ZM8.32228 13.9792C8.43553 13.8901 8.63498 13.7271 8.80214 13.5641C8.78807 13.7552 8.77776 13.965 8.77687 14.2033C8.77678 14.2312 8.77443 14.2577 8.77359 14.2851C8.6767 14.233 8.5087 14.1332 8.32228 13.9792ZM14.3799 13.3256L14.5507 12.8198C14.7177 12.8791 14.8751 12.9469 15.023 13.0212L14.6968 13.4765C14.5932 13.4158 14.4875 13.3656 14.3799 13.3256ZM14.1923 13.2676C14.1007 13.244 14.0081 13.2267 13.9141 13.2176L13.9776 12.6643C14.0004 12.6686 14.0238 12.671 14.0464 12.6759C14.156 12.6995 14.2611 12.7282 14.364 12.7592L14.1923 13.2676ZM13.7177 13.2093C13.6209 13.2102 13.5231 13.219 13.4244 13.2347L13.3705 12.615C13.5091 12.6132 13.6474 12.619 13.7836 12.6343L13.7177 13.2093ZM13.1744 12.6231L13.231 13.2741C13.1298 13.2998 13.0276 13.3344 12.9248 13.3753L12.7517 12.6692C12.8905 12.6479 13.0317 12.632 13.1744 12.6231ZM12.8726 14.5071C12.7939 14.4794 12.7202 14.4418 12.6504 14.4001L13.0011 13.7347C13.0093 13.7441 13.0182 13.7521 13.025 13.7635C13.0599 13.8222 13.0651 13.8996 13.0406 13.9936C13.008 14.1186 12.9495 14.3026 12.8726 14.5071ZM12.438 13.855C12.5594 13.774 12.6928 13.6964 12.8353 13.6289L12.4871 14.2897C12.3532 14.186 12.2493 14.0777 12.1906 14.0102C12.2724 13.9615 12.3549 13.9103 12.438 13.855ZM12.5579 12.7022L12.7426 13.4555C12.6479 13.5011 12.5528 13.5531 12.4571 13.6114L12.1731 12.7875C12.2958 12.7561 12.4252 12.7275 12.5579 12.7022ZM11.9834 12.8388L12.2827 13.7071C12.2841 13.711 12.2879 13.7127 12.2896 13.7163C12.1701 13.7946 12.0518 13.8646 11.9356 13.929L11.6456 12.9446C11.7489 12.9096 11.8615 12.8737 11.9834 12.8388ZM11.4602 13.0098L11.7583 14.0217C11.7585 14.0224 11.7593 14.0228 11.7595 14.0235C11.6293 14.0901 11.5045 14.149 11.3897 14.1988L11.0654 13.1866C11.0695 13.1796 11.0741 13.1704 11.0781 13.1639C11.1318 13.1397 11.2676 13.0806 11.4602 13.0098ZM10.9405 13.4393L11.2079 14.2741C11.0037 14.3551 10.8443 14.4067 10.765 14.4303C10.714 14.1059 10.8206 13.7218 10.9405 13.4393ZM10.8827 15.2333C10.9491 15.0737 10.9294 14.8771 10.8227 14.6329C10.8208 14.6285 10.8189 14.6242 10.8171 14.6196C10.9817 14.5715 11.463 14.4144 12.0168 14.1087C12.1158 14.2285 12.4085 14.5486 12.801 14.6891C12.5782 15.2341 12.2454 15.8451 11.9102 15.8993C11.6293 15.9438 11.4772 15.7762 11.3304 15.613C11.2023 15.471 11.0569 15.3101 10.8506 15.4189C10.8345 15.4274 10.8224 15.4383 10.8083 15.448C10.7923 15.4387 10.7703 15.4272 10.7442 15.4152C10.8006 15.366 10.8514 15.309 10.8827 15.2333ZM14.2031 13.9043C14.2318 14.0828 14.3472 14.237 14.546 14.3629C14.662 14.4362 14.7219 14.5169 14.7241 14.6027C14.7264 14.6944 14.6665 14.79 14.5987 14.8673C14.5894 14.8481 14.578 14.8323 14.5664 14.8195C14.4412 14.6806 14.1691 14.7432 14.1157 14.7572C14.1022 14.7606 14.0896 14.7672 14.0787 14.7759C13.9782 14.8576 13.0923 15.5842 12.9559 15.8909C12.9048 16.0058 12.8608 16.1251 12.9298 16.2106C13.0017 16.3 13.1392 16.29 13.3844 16.2392C13.4054 16.2349 13.4206 16.2336 13.4309 16.2336C13.4426 16.2336 13.4483 16.2336 13.4483 16.2349C13.4566 16.2489 13.4621 16.3278 13.3827 16.5071C13.3683 16.5396 13.3318 16.5567 13.2951 16.5493C13.0335 16.4951 12.5316 16.4328 12.1135 16.6264C11.8938 16.7283 11.7386 16.7357 11.5591 16.7443C11.3939 16.7523 11.2067 16.7615 10.9477 16.8455C10.8881 16.8647 10.6903 16.9211 10.6542 16.8271C10.6239 16.7481 10.6828 16.6099 10.7453 16.5694C11.1312 16.5844 11.2885 16.5845 11.2885 16.5845C11.3427 16.5845 11.3866 16.5406 11.3866 16.4864C11.3866 16.4323 11.3427 16.3884 11.2885 16.3884C11.2869 16.3884 11.1242 16.3884 10.7204 16.372C10.6507 16.3692 10.5298 16.3523 10.5037 16.2701C10.4843 16.2091 10.5185 16.121 10.5801 16.074C10.6335 16.0326 10.8134 16.0781 10.9892 16.1539C11.045 16.1892 11.1031 16.2175 11.1594 16.2361C11.2072 16.2532 11.2599 16.229 11.2802 16.1825C11.3006 16.136 11.2823 16.0819 11.2378 16.0574C11.203 16.0379 11.146 16.008 11.0773 15.9774C10.9632 15.9 10.8728 15.7892 10.8657 15.7027C10.8632 15.6715 10.8694 15.6307 10.942 15.5926C11.0049 15.5596 11.05 15.5954 11.1847 15.7446C11.3411 15.9179 11.5548 16.1534 11.9417 16.0929C12.6951 15.9708 13.2254 14.0623 13.2304 14.0432C13.2686 13.8968 13.2563 13.7691 13.1937 13.6637C13.1576 13.6027 13.1111 13.563 13.0667 13.5328C13.4366 13.3997 13.8537 13.3541 14.2819 13.5025C14.2328 13.5924 14.1764 13.7382 14.2031 13.9043ZM14.8621 13.5826L15.1974 13.1146C15.3196 13.1831 15.4342 13.2551 15.542 13.3296L15.1119 13.774C15.0785 13.748 15.0461 13.7257 15.0121 13.6976C14.9627 13.6567 14.9127 13.6184 14.8621 13.5826ZM15.7027 14.1564L16.1335 13.8132C16.2164 13.8933 16.2921 13.9717 16.3589 14.0455L16.0106 14.2931C15.9129 14.2566 15.8101 14.2112 15.7027 14.1564ZM15.5155 14.0549C15.4353 14.0071 15.3529 13.9537 15.2686 13.8942L15.7029 13.4455C15.805 13.5227 15.9006 13.6008 15.988 13.6784L15.5155 14.0549ZM16.244 14.3679L16.4876 14.1947C16.5675 14.291 16.6321 14.3764 16.6787 14.4421C16.5575 14.435 16.4098 14.4123 16.244 14.3679ZM18.2796 11.0401C18.1063 12.2003 17.1766 12.5848 16.8998 12.6747C16.6671 12.1512 16.2813 11.7108 16.0246 11.5777C15.9768 11.5532 15.9174 11.5718 15.8924 11.6196C15.8675 11.6679 15.8862 11.7268 15.9344 11.7519C16.13 11.8533 16.5261 12.2657 16.7548 12.8293C17.0017 13.4374 17.3964 13.7822 17.9277 13.8542C18.0345 13.8685 18.108 13.9119 18.1524 13.9865C18.2175 14.0963 18.2142 14.2613 18.1904 14.4063C18.0652 14.3269 17.8615 14.3014 17.7506 14.3864C17.6813 14.4393 17.6616 14.5233 17.6975 14.6112C17.7218 14.6707 17.733 14.8842 17.7438 15.0908C17.7751 15.6887 17.8148 16.1588 18.0112 16.3179C18.0679 16.3639 18.1362 16.3828 18.2068 16.3708C18.5945 16.3095 18.736 16.3918 18.8283 16.5345C18.8339 16.5432 18.851 16.5695 18.805 16.6183C18.7353 16.6918 18.5891 16.735 18.4906 16.6793C18.2586 16.5465 18.0958 16.6024 17.8265 16.6951C17.7794 16.7112 17.7278 16.7288 17.671 16.7475C17.4036 16.8338 17.1278 16.7909 16.9059 16.7562C16.8407 16.7462 16.7815 16.737 16.7297 16.7322C16.6033 16.7202 16.4882 16.783 16.3767 16.844C16.2417 16.9178 16.1143 16.9886 15.9641 16.9428C15.8944 16.9219 15.8718 16.8869 15.8606 16.8621C15.8277 16.7884 15.852 16.6814 15.8756 16.6134C15.9596 16.5986 16.0353 16.6014 16.1185 16.61C16.2385 16.622 16.3751 16.6363 16.5473 16.573C16.5981 16.5544 16.624 16.4979 16.6054 16.4471C16.5866 16.3963 16.5306 16.371 16.4793 16.3891C16.35 16.4364 16.2517 16.4269 16.1387 16.4149C16.0356 16.4045 15.9194 16.3927 15.7797 16.4297C15.7584 16.4353 15.7262 16.4387 15.7016 16.3988C15.6691 16.3468 15.6705 16.2505 15.7369 16.1754C15.788 16.1174 15.887 16.1192 15.9784 16.1386C16.0296 16.1672 16.0947 16.1907 16.1789 16.2068C16.2269 16.217 16.2745 16.1881 16.2902 16.1419C16.3059 16.0954 16.285 16.0446 16.2412 16.0227C16.2338 16.0191 16.1567 15.9813 16.0539 15.9553C15.9997 15.9159 15.9805 15.8605 15.9514 15.7775L15.9296 15.7165C15.9166 15.6817 15.8998 15.6554 15.8816 15.6355C15.9287 15.6151 15.9748 15.6059 16.0196 15.6087C16.1205 15.6156 16.2107 15.684 16.2875 15.8125C16.542 16.2365 16.9641 16.2413 16.9819 16.2413C17.0227 16.2413 17.0592 16.2161 17.0736 16.178C17.3908 15.3398 16.9667 14.5295 16.9485 14.4953C16.9482 14.4947 16.9476 14.4944 16.9473 14.4939C16.9471 14.4934 16.9472 14.4929 16.9469 14.4924C16.9092 14.4273 16.0042 12.8973 14.0877 12.4843C12.7072 12.1858 11.039 12.9647 10.9687 12.9982C10.9521 13.0058 10.9382 13.0181 10.9282 13.0334C10.7298 13.3401 10.3989 14.1541 10.6428 14.7116C10.7259 14.9016 10.7457 15.0518 10.7015 15.1583C10.6719 15.2295 10.6142 15.2867 10.516 15.3396C10.5028 15.217 10.4606 15.0574 10.3344 14.9879C10.211 14.9205 10.0507 14.958 9.85738 15.1C9.39983 15.4364 8.74706 16.2309 8.80659 16.5749C8.82117 16.6594 8.87414 16.7195 8.9556 16.744C9.0344 16.7675 9.13143 16.7877 9.23357 16.8086C9.4356 16.8502 9.67386 16.899 9.77956 16.9865C9.49429 16.95 8.94164 16.8995 8.72315 17.022C8.46548 17.1671 8.02252 17.2595 7.71413 17.1479C7.60201 17.1012 7.351 17.0642 7.20503 17.2618C7.15065 17.3357 7.0652 17.3558 7.01003 17.3372C6.9459 17.3162 6.9325 17.2496 6.9325 17.1975C6.9325 16.97 7.1515 16.9523 7.21853 16.9523C7.27267 16.9523 7.31659 16.9084 7.31659 16.8543C7.31659 16.8001 7.27267 16.7562 7.21853 16.7562C7.06834 16.7562 6.94478 16.8051 6.85994 16.8884C6.78156 16.8475 6.73089 16.7991 6.71252 16.7432C6.68735 16.6668 6.72349 16.5876 6.74739 16.5473C6.79281 16.4701 6.8732 16.4291 6.92242 16.4093C7.03375 16.5139 7.16326 16.5887 7.22828 16.6173C7.27731 16.6385 7.33543 16.6162 7.35751 16.5667C7.37921 16.5171 7.35648 16.4592 7.30693 16.4375C7.17568 16.38 6.93545 16.2028 6.92411 16.0541C6.91989 15.9997 6.97009 15.9584 7.02194 15.9453C7.05934 15.9359 7.15361 15.9284 7.21028 16.0595C7.35367 16.3912 7.82002 16.6246 7.8398 16.6343C7.85358 16.6412 7.8684 16.6445 7.88321 16.6445C7.90707 16.6445 7.9306 16.6359 7.94911 16.6193C7.9906 16.5815 8.96732 15.6794 8.97295 14.2038C8.97632 13.3118 9.10035 12.7554 9.14638 12.5784C9.31973 12.5701 9.76283 12.5167 10.1607 12.2116C10.2759 12.4156 10.5682 12.8118 11.1062 12.8253C11.107 12.8253 11.1078 12.8253 11.1086 12.8253C11.1439 12.8253 11.1765 12.8061 11.194 12.7755C11.2118 12.7438 11.2108 12.705 11.1914 12.6746C11.1895 12.6716 11.0388 12.4304 11.0732 12.2225C11.1968 12.3418 11.4219 12.5032 11.7427 12.5147H11.7427C11.7439 12.5147 11.7451 12.5147 11.7462 12.5147C11.7632 12.5147 11.7784 12.5092 11.7925 12.5014C11.7988 12.4979 11.8045 12.4952 11.8097 12.4902C11.8223 12.4793 11.8315 12.4654 11.8373 12.4493C11.8378 12.4478 11.8393 12.447 11.8398 12.4455C11.8411 12.4412 11.9768 12.0139 12.3641 11.8139C12.6114 11.686 12.9097 11.6781 13.2518 11.7907C13.2602 11.7935 13.2687 11.7933 13.2772 11.7937C13.2791 11.7939 13.2805 11.7955 13.2825 11.7955C13.284 11.7955 13.2855 11.795 13.287 11.7949C13.2895 11.7948 13.2919 11.7943 13.2945 11.7939C13.2988 11.7934 13.3032 11.7934 13.3075 11.7922C13.3105 11.7914 13.3126 11.7893 13.3155 11.7883C13.322 11.7859 13.3279 11.783 13.3337 11.7793C13.3389 11.7761 13.3436 11.7728 13.3479 11.7688C13.3526 11.7645 13.3564 11.7599 13.3602 11.7548C13.364 11.7496 13.3673 11.7446 13.3701 11.7388C13.3713 11.7361 13.3735 11.7343 13.3746 11.7314C13.3876 11.6958 13.5905 11.1661 14.0963 10.8536C14.0981 10.8539 14.0996 10.855 14.1014 10.8552C14.1135 10.8565 15.322 10.9903 15.9909 11.317C16.1948 11.4166 16.4437 11.4658 16.69 11.4658C16.9681 11.4658 17.2428 11.403 17.4449 11.2791C17.6656 11.1441 17.7842 10.9499 17.7882 10.7186C17.7962 10.2441 17.5042 9.87886 17.2253 9.77644C17.0504 9.71232 16.8819 9.7509 16.7754 9.88088C16.6429 10.0423 16.6507 10.2515 16.7941 10.3784C16.9429 10.5101 17.2177 10.5311 17.4926 10.2879C17.5248 10.3504 17.5505 10.4193 17.5678 10.493C17.2576 10.7073 16.9684 10.7788 16.7321 10.6991C16.5078 10.6235 16.374 10.4292 16.3234 10.2726C16.2837 10.1498 16.306 9.99704 16.3844 9.85402C16.4948 9.65279 16.6958 9.50134 16.9358 9.43876C17.1861 9.37314 17.5966 9.42957 17.9067 9.70796C18.1368 9.91458 18.3883 10.3133 18.2796 11.0401ZM17.3817 10.1237C17.189 10.305 17.0116 10.3091 16.9241 10.2315C16.8598 10.1745 16.8609 10.0857 16.9271 10.0055C16.9663 9.95771 17.0148 9.94163 17.0619 9.94163C17.0959 9.94163 17.1293 9.95007 17.1579 9.96052C17.2354 9.98916 17.3135 10.0459 17.3817 10.1237Z" fill="#464655"/>
</g>
<defs>
<clipPath id="clip0_8615_27452">
<path d="M0 2C0 0.895432 0.895431 0 2 0H21.9998C23.1043 0 23.9998 0.895431 23.9998 2V21.9998C23.9998 23.1043 23.1043 23.9998 21.9998 23.9998H2C0.895432 23.9998 0 23.1043 0 21.9998V2Z" fill="white"/>
</clipPath>
</defs>
</svg>
