<?xml version="1.0" encoding="utf-8"?>
<!-- Generator: Adobe Illustrator 28.1.0, SVG Export Plug-In . SVG Version: 6.00 Build 0)  -->
<svg version="1.1" id="Layer_1" xmlns="http://www.w3.org/2000/svg" xmlns:xlink="http://www.w3.org/1999/xlink" x="0px" y="0px"
	 viewBox="0 0 512 512" style="enable-background:new 0 0 512 512;" xml:space="preserve">
<g>
	<defs>
		<path id="SVGID_1_" d="M512,400V112C512,50.1,461.9,0,400,0H112C50.2,0,0,50.1,0,112v288c0,61.8,50.2,112,112,112h288
			C461.9,512,512,461.9,512,400z"/>
	</defs>
	<clipPath id="SVGID_00000028298910473289623300000003826659988986666116_">
		<use xlink:href="#SVGID_1_"  style="overflow:visible;"/>
	</clipPath>
	
		<rect x="-165.4" y="-8.5" style="clip-path:url(#SVGID_00000028298910473289623300000003826659988986666116_);" width="1059.3" height="264.8"/>
	
		<rect x="-165.4" y="256.3" style="clip-path:url(#SVGID_00000028298910473289623300000003826659988986666116_);fill:#007A3D;" width="1059.3" height="264.8"/>
	
		<rect x="-165.4" y="168" style="clip-path:url(#SVGID_00000028298910473289623300000003826659988986666116_);fill:#FFFFFF;" width="1059.3" height="176.5"/>
	<path style="clip-path:url(#SVGID_00000028298910473289623300000003826659988986666116_);fill:#C4111B;" d="M-165.4-8.5
		l353.1,264.8l-353.1,264.8V-8.5z"/>
	
		<circle style="clip-path:url(#SVGID_00000028298910473289623300000003826659988986666116_);fill:#C4111B;" cx="364.2" cy="256.3" r="70.6"/>
	
		<circle style="clip-path:url(#SVGID_00000028298910473289623300000003826659988986666116_);fill:#FFFFFF;" cx="390.7" cy="256.3" r="70.6"/>
	<path style="clip-path:url(#SVGID_00000028298910473289623300000003826659988986666116_);fill:#C4111B;" d="M345.2,299l30.1-21.5
		l29.9,21.9l-11.2-35.3l30-21.7l-37-0.3l-11.3-35.2L364,242l-37-0.1l29.8,22L345.2,299L345.2,299z"/>
</g>
</svg>
