<svg width="24" height="24" viewBox="0 0 24 24" fill="none" xmlns="http://www.w3.org/2000/svg">
<g clip-path="url(#clip0_8615_27451)">
<path d="M23.9998 0.00012207H0V23.9999H23.9998V0.00012207Z" fill="#73AF00"/>
<path d="M18.2071 8.21069H15.3105V23.9999H18.2071V8.21069Z" fill="#FF4B55"/>
<path d="M21.1016 8.21069H18.2051V23.9999H21.1016V8.21069Z" fill="#464655"/>
<path d="M24 8.21082H21.1035V24H24V8.21082Z" fill="#FF9B55"/>
<path d="M23.5369 3.61272C23.5465 3.59341 23.5419 3.57002 23.5257 3.55577C23.5094 3.54142 23.4857 3.53992 23.4678 3.55178C23.3787 3.61094 23.2888 3.6647 23.1997 3.71345C23.4865 3.47636 23.5267 3.27049 23.5293 3.25549C23.5325 3.23665 23.5242 3.21766 23.5081 3.20735C23.492 3.19694 23.4713 3.19718 23.4555 3.20796C23.1457 3.41814 22.8355 3.56814 22.5681 3.6737C22.9273 3.44679 23.0695 3.21537 23.0783 3.20069C23.0895 3.1819 23.0865 3.1579 23.071 3.14243C23.0555 3.12691 23.0315 3.1241 23.0128 3.13535C22.7261 3.30818 22.3865 3.44444 22.0619 3.54939C22.105 3.48293 22.1357 3.40821 22.1082 3.36625C22.0826 3.32735 22.0358 3.32735 21.9691 3.36644C21.834 3.44561 20.8103 3.70656 20.4137 3.80378C20.0094 3.7307 19.6744 3.83439 19.5701 3.87264C19.5423 3.83955 19.5296 3.80748 19.5242 3.78245C19.5155 3.74167 19.5218 3.70019 19.5411 3.6715C19.5725 3.62472 19.6375 3.62022 19.6949 3.61628C19.7198 3.6146 19.7421 3.61305 19.7616 3.60813C19.774 3.61178 19.7894 3.619 19.7891 3.62458C19.7879 3.64633 19.8017 3.66602 19.8224 3.67253C19.8432 3.679 19.8657 3.6707 19.8772 3.65224C19.8801 3.6476 19.9475 3.53716 19.8953 3.44318C19.8573 3.37479 19.7701 3.33888 19.636 3.3363C19.5809 3.29791 19.373 3.17294 19.1168 3.26951C18.8573 3.36738 18.7422 3.63391 18.7041 3.74655C18.5022 3.71852 17.575 3.577 17.0709 3.28113C17.0464 3.26997 16.9628 3.23721 16.9161 3.28165C16.8874 3.30888 16.884 3.35111 16.906 3.40722C16.9177 3.43699 16.9356 3.4661 16.9594 3.4946C16.6896 3.3708 16.3259 3.19774 16.0509 3.04395C16.0079 3.02402 15.9298 2.99693 15.8895 3.03916C15.8642 3.0657 15.8646 3.10432 15.8907 3.15391C15.8962 3.16437 15.9016 3.17608 15.9075 3.18888C15.9343 3.24658 15.9707 3.32519 16.0599 3.41599C15.9933 3.37961 15.9332 3.34216 15.8851 3.30471C15.6437 3.11698 15.6111 3.0986 15.5679 3.12771C15.5306 3.15279 15.5426 3.19516 15.5554 3.24002L15.5588 3.25188C15.5692 3.28919 15.5864 3.34929 15.6332 3.42175C15.5958 3.3963 15.5637 3.39115 15.5384 3.40877C15.5232 3.41918 15.5005 3.44519 15.5181 3.50238C15.56 3.6392 15.8501 3.99944 16.4018 4.10556C16.3463 4.11367 16.288 4.11967 16.2316 4.12079C16.2103 4.12122 16.1918 4.13589 16.1864 4.15661C16.1811 4.17732 16.1903 4.19912 16.2088 4.20981C16.2189 4.21557 16.4139 4.3247 16.7715 4.31551C16.718 4.32896 16.6573 4.33937 16.5902 4.3434C16.5693 4.34462 16.5517 4.35929 16.5467 4.37959C16.5417 4.39989 16.5505 4.42103 16.5684 4.43181C16.579 4.43823 16.7865 4.56029 17.1077 4.54229L17.0797 4.55954C17.0636 4.56943 17.0549 4.5879 17.0575 4.60665C17.0601 4.62535 17.0735 4.64082 17.0917 4.64602C17.1017 4.64888 17.2828 4.69927 17.5083 4.67546L17.4687 4.70368C17.4527 4.71502 17.4453 4.7349 17.45 4.75388C17.4546 4.77287 17.4704 4.78712 17.4897 4.78979C17.4938 4.7904 17.523 4.79415 17.5697 4.79415C17.6005 4.79415 17.639 4.79241 17.6828 4.78712C17.6819 4.79851 17.6832 4.80985 17.6869 4.8211C17.7095 4.88902 17.8095 4.90547 17.8428 4.90594C17.8449 4.90599 17.8469 4.90599 17.8489 4.90599C17.8891 4.90599 17.9317 4.90032 17.9751 4.89169C18.0447 4.95666 18.1716 4.95071 18.2948 4.92207C18.2875 4.93313 18.2819 4.94419 18.2785 4.95521C18.2713 4.97771 18.2768 5.00072 18.2929 5.01675C18.3086 5.03232 18.3463 5.06986 18.6906 4.97302C18.6892 4.97414 18.6878 4.97522 18.6864 4.97635C18.6406 5.01179 18.6435 5.04839 18.6493 5.06705C18.6704 5.13478 18.8223 5.1781 19.0979 5.19661C19.104 5.34984 19.0614 5.51634 19.0609 5.51817C19.0562 5.5365 19.0627 5.55595 19.0776 5.56767C19.0925 5.5793 19.113 5.58112 19.1297 5.57217C19.1457 5.56359 19.1615 5.55248 19.1765 5.54053L19.1752 5.5912C19.1747 5.60958 19.1848 5.62659 19.2012 5.63494C19.208 5.6384 19.2154 5.64014 19.2229 5.64014C19.2247 5.64014 19.2265 5.63944 19.2283 5.63925C19.2232 5.68242 19.2057 5.73398 19.1503 5.74612C19.1252 5.75161 19.0985 5.75437 19.0728 5.757C18.9555 5.769 18.8225 5.78264 18.8015 6.05151C18.7999 6.07171 18.8112 6.09065 18.8298 6.09885C18.8482 6.10692 18.8698 6.10265 18.8838 6.08793L18.9349 6.03365C18.9649 6.04106 19.0129 6.0486 19.0641 6.04031C19.0512 6.10251 19.055 6.17906 19.1172 6.24402C19.1307 6.25804 19.1514 6.26249 19.1695 6.25527C19.1875 6.24801 19.1994 6.23048 19.1994 6.21102V6.17657C19.2289 6.16968 19.2683 6.15534 19.3054 6.12571C19.3272 6.17268 19.3688 6.2278 19.4479 6.27435C19.4554 6.27876 19.4637 6.28091 19.472 6.28091C19.4829 6.28091 19.4938 6.27721 19.5025 6.2699C19.518 6.25705 19.5237 6.23582 19.5169 6.21693L19.492 6.14845C19.5093 6.13129 19.5319 6.10682 19.5516 6.08067C19.5614 6.09482 19.5777 6.10298 19.5952 6.10129C19.6134 6.09956 19.6289 6.08765 19.6353 6.07054L19.6529 6.02385C19.6632 6.02099 19.6731 6.01757 19.6825 6.01368C19.6942 6.11699 19.7737 6.20296 19.7785 6.20802C19.7876 6.21773 19.8002 6.22307 19.8132 6.22307C19.8171 6.22307 19.821 6.2226 19.8248 6.22166C19.8416 6.21745 19.8548 6.20446 19.8593 6.18777L19.8858 6.08863C19.9563 6.05296 19.9631 5.98837 19.9674 5.94815C19.9683 5.94028 19.9694 5.92931 19.9697 5.92378C19.9971 5.93732 20.0555 6.00281 20.0995 6.07078C20.1082 6.08428 20.1232 6.09252 20.1392 6.09257C20.1556 6.0914 20.1704 6.0846 20.1793 6.0712C20.1793 6.0712 20.2165 6.01481 20.2347 5.9819C20.3116 5.84236 20.1951 5.75878 20.1391 5.71865C20.1254 5.70881 20.1066 5.69531 20.1035 5.69156C20.093 5.66601 20.0967 5.6422 20.1036 5.62369C20.1503 5.65589 20.2034 5.68298 20.2621 5.69676C20.2658 5.69765 20.2694 5.69803 20.273 5.69803C20.2884 5.69803 20.3031 5.69062 20.3121 5.67764C20.3233 5.6617 20.3236 5.64047 20.3129 5.62415C20.3118 5.62251 20.2241 5.48761 20.1676 5.32172C20.2589 5.37525 20.3825 5.43994 20.4465 5.43994C20.4905 5.43994 20.5073 5.41256 20.5125 5.4008C20.5156 5.39391 20.521 5.38144 20.5167 5.35805C20.6015 5.40389 20.6972 5.43937 20.7699 5.42062C20.7914 5.41509 20.8418 5.40211 20.8494 5.35692C20.8533 5.33405 20.8456 5.31558 20.8287 5.29735C20.9074 5.31647 20.9924 5.32599 21.0757 5.31497C21.1451 5.30583 21.1656 5.27213 21.1705 5.24546C21.1737 5.22839 21.1793 5.19563 21.1173 5.13357C21.237 5.127 21.3439 5.10085 21.3526 5.02866C21.3534 5.02219 21.3522 5.01629 21.3517 5.01019C21.7363 4.96829 22.0289 4.72773 22.0418 4.7169C22.0456 4.71376 22.0481 4.70982 22.0507 4.70593C22.2835 4.67687 22.548 4.62423 22.7621 4.52804C23.1661 4.3464 23.3708 4.10115 23.3341 4.01214C23.3235 3.98626 23.2929 3.96751 23.2553 3.98158C23.2447 3.98551 23.2233 3.99419 23.1952 4.00562C23.4343 3.81086 23.528 3.63072 23.5369 3.61272Z" fill="#FF9B55"/>
<path d="M23.5349 3.61255C23.5445 3.59324 23.5399 3.56985 23.5238 3.5556C23.5075 3.54126 23.4837 3.5398 23.4658 3.55161C23.3767 3.61082 23.2868 3.66458 23.1977 3.71329C23.4845 3.47619 23.5248 3.27032 23.5273 3.25532C23.5306 3.23648 23.5222 3.21749 23.5062 3.20718C23.49 3.19677 23.4694 3.19701 23.4536 3.20779C23.1437 3.41793 22.8335 3.56797 22.5662 3.67354C22.9253 3.44662 23.0676 3.2152 23.0763 3.20052C23.0876 3.18173 23.0846 3.15768 23.069 3.14226C23.0535 3.12674 23.0295 3.12393 23.0108 3.13518C22.7241 3.30801 22.3845 3.44427 22.06 3.54922C22.1031 3.48271 22.1338 3.40799 22.1062 3.36609C22.0806 3.32718 22.0339 3.32718 21.9671 3.36627C21.8321 3.44544 20.8084 3.70635 20.4117 3.80361C20.0074 3.73054 19.6724 3.83417 19.568 3.87242C19.5402 3.83933 19.5275 3.80727 19.5222 3.78224C19.5135 3.74146 19.5198 3.69997 19.5391 3.67129C19.5705 3.6245 19.6355 3.62005 19.6929 3.61611C19.7178 3.61443 19.7401 3.61288 19.7596 3.60801C19.772 3.61166 19.7874 3.61888 19.7871 3.62446C19.7859 3.64621 19.7996 3.6659 19.8204 3.67246C19.8412 3.67893 19.8637 3.67063 19.8752 3.65216C19.8781 3.64752 19.9455 3.53708 19.8933 3.4431C19.8553 3.37471 19.7681 3.3388 19.634 3.33623C19.5789 3.29784 19.371 3.17287 19.1149 3.26943C18.8554 3.3673 18.7402 3.63383 18.7021 3.74643C18.5002 3.71839 17.573 3.57688 17.069 3.28101C17.0445 3.26985 16.9609 3.23709 16.9141 3.28152C16.8855 3.30876 16.8821 3.35099 16.9041 3.4071C16.9157 3.43687 16.9336 3.46598 16.9574 3.49448C16.6876 3.37068 16.3239 3.19762 16.0489 3.04382C16.0059 3.0239 15.9278 2.99681 15.8876 3.03904C15.8623 3.06557 15.8627 3.1042 15.8888 3.15379C15.8942 3.16424 15.8996 3.17596 15.9056 3.18881C15.9324 3.24651 15.9688 3.32512 16.058 3.41591C15.9914 3.37954 15.9313 3.34209 15.8832 3.30463C15.6418 3.1169 15.6092 3.09848 15.5659 3.12763C15.5287 3.15271 15.5407 3.19509 15.5535 3.23995L15.5568 3.25181C15.5673 3.28912 15.5844 3.34921 15.6313 3.42168C15.5939 3.39623 15.5618 3.39102 15.5364 3.40869C15.5213 3.41905 15.4986 3.44512 15.5161 3.5023C15.5581 3.63913 15.8481 3.99936 16.3998 4.10548C16.3443 4.11359 16.286 4.11959 16.2297 4.12072C16.2083 4.12114 16.1897 4.13581 16.1844 4.15653C16.1791 4.17725 16.1883 4.19905 16.2068 4.20969C16.2169 4.21545 16.4119 4.32458 16.7695 4.31539C16.716 4.32884 16.6553 4.33929 16.5882 4.34328C16.5674 4.3445 16.5497 4.35917 16.5448 4.37947C16.5398 4.39976 16.5486 4.4209 16.5664 4.43168C16.5771 4.43811 16.7845 4.56017 17.1058 4.54217L17.0778 4.55942C17.0617 4.56931 17.0529 4.58778 17.0555 4.60653C17.0581 4.62528 17.0715 4.6407 17.0897 4.6459C17.0997 4.64876 17.2808 4.69915 17.5064 4.67534L17.4667 4.70356C17.4508 4.7149 17.4434 4.73478 17.448 4.75376C17.4527 4.77274 17.4684 4.78699 17.4878 4.78962C17.4919 4.79023 17.5211 4.79402 17.5678 4.79402C17.5986 4.79402 17.6371 4.79229 17.6809 4.78699C17.6799 4.79838 17.6812 4.80973 17.6849 4.82098C17.7075 4.8889 17.8076 4.90535 17.8408 4.90577C17.8429 4.90582 17.8449 4.90582 17.8469 4.90582C17.8872 4.90582 17.9297 4.90015 17.9732 4.89152C18.0427 4.95649 18.1697 4.95054 18.2928 4.9219C18.2855 4.93296 18.28 4.94402 18.2765 4.95504C18.2694 4.97754 18.2748 5.00055 18.2909 5.01659C18.3066 5.03215 18.3444 5.06965 18.6887 4.9728C18.6873 4.97393 18.6858 4.97501 18.6844 4.97613C18.6386 5.01157 18.6415 5.04818 18.6473 5.06688C18.6684 5.13457 18.8203 5.17793 19.0959 5.19644C19.102 5.34968 19.0594 5.51617 19.059 5.518C19.0542 5.53638 19.0608 5.55578 19.0757 5.5675C19.0905 5.57913 19.111 5.58095 19.1277 5.572C19.1436 5.56338 19.1595 5.55231 19.1745 5.54036L19.1732 5.59103C19.1727 5.60941 19.1828 5.62642 19.1992 5.63481C19.206 5.63828 19.2134 5.64002 19.2208 5.64002C19.2227 5.64002 19.2244 5.63931 19.2263 5.63908C19.2212 5.68225 19.2037 5.73381 19.1483 5.74595C19.1231 5.75144 19.0965 5.7542 19.0708 5.75683C18.9535 5.76887 18.8205 5.78247 18.7995 6.05134C18.7979 6.0715 18.8092 6.09048 18.8277 6.09868C18.8462 6.10675 18.8678 6.10248 18.8817 6.08776L18.9328 6.03343C18.9629 6.04084 19.0108 6.04839 19.062 6.04009C19.0491 6.10229 19.0529 6.17884 19.1152 6.24381C19.1287 6.25787 19.1494 6.26228 19.1674 6.25506C19.1855 6.24779 19.1973 6.23031 19.1973 6.21081V6.1764C19.2269 6.16951 19.2663 6.15517 19.3034 6.12554C19.3251 6.17251 19.3667 6.22764 19.4458 6.27418C19.4533 6.27859 19.4617 6.28079 19.47 6.28079C19.4808 6.28079 19.4917 6.27704 19.5005 6.26978C19.516 6.25693 19.5217 6.23575 19.5148 6.21681L19.4899 6.14828C19.5073 6.13112 19.5299 6.10665 19.5496 6.0805C19.5594 6.09465 19.5757 6.10281 19.5932 6.10112C19.6113 6.09939 19.627 6.08743 19.6333 6.07037L19.6509 6.02368C19.6612 6.02083 19.6711 6.0174 19.6805 6.01356C19.6922 6.11687 19.7717 6.20284 19.7764 6.2079C19.7856 6.21765 19.7982 6.22295 19.8112 6.22295C19.8151 6.22295 19.819 6.22248 19.8228 6.22154C19.8396 6.21732 19.8527 6.20434 19.8572 6.18765L19.8838 6.08851C19.9542 6.05284 19.9611 5.98825 19.9654 5.94803C19.9662 5.94015 19.9674 5.92919 19.9676 5.92365C19.9951 5.9372 20.0535 6.00269 20.0974 6.07061C20.1062 6.08411 20.1212 6.09236 20.1372 6.0924C20.1536 6.09123 20.1684 6.08443 20.1773 6.07098C20.1773 6.07098 20.2145 6.01459 20.2326 5.98168C20.3095 5.84214 20.193 5.75861 20.137 5.71844C20.1233 5.70859 20.1045 5.69509 20.1015 5.69134C20.091 5.6658 20.0947 5.64199 20.1016 5.62347C20.1482 5.65567 20.2013 5.68277 20.26 5.69659C20.2637 5.69744 20.2674 5.69786 20.271 5.69786C20.2863 5.69786 20.301 5.69045 20.31 5.67752C20.3212 5.66153 20.3215 5.64034 20.3108 5.62403C20.3098 5.62239 20.2221 5.48749 20.1655 5.3216C20.2569 5.37508 20.3804 5.43986 20.4445 5.43986C20.4885 5.43986 20.5052 5.41249 20.5104 5.40072C20.5135 5.39383 20.519 5.38136 20.5147 5.35797C20.5995 5.40382 20.6952 5.4393 20.7679 5.42055C20.7894 5.41502 20.8398 5.40199 20.8474 5.35685C20.8513 5.33397 20.8435 5.3155 20.8267 5.29727C20.9055 5.31639 20.9904 5.32591 21.0737 5.31489C21.1432 5.30571 21.1636 5.27205 21.1686 5.24538C21.1717 5.22832 21.1773 5.19555 21.1154 5.13349C21.235 5.12693 21.3419 5.10077 21.3506 5.02858C21.3514 5.02212 21.3502 5.01621 21.3496 5.01012C21.7342 4.96816 22.0269 4.72765 22.0398 4.71682C22.0436 4.71368 22.0461 4.70974 22.0486 4.70585C22.2815 4.67679 22.546 4.6242 22.76 4.52796C23.1641 4.34628 23.3688 4.10108 23.3321 4.01202C23.3215 3.98614 23.2909 3.96735 23.2533 3.98145C23.2427 3.98544 23.2213 3.99406 23.1933 4.0055C23.4324 3.81069 23.526 3.63055 23.5349 3.61255ZM22.8326 3.3418C22.657 3.51365 22.3261 3.76077 21.7804 3.90411C21.7756 3.90538 21.7716 3.90781 21.7676 3.9103C21.6528 3.90135 21.5078 3.88039 21.3806 3.83291C21.7839 3.74146 22.3505 3.58391 22.8326 3.3418ZM20.4044 3.89928C20.4111 3.9005 20.4179 3.90031 20.4245 3.89872C20.4812 3.88485 21.7948 3.56268 22.0057 3.45393C21.9812 3.50226 21.9341 3.56994 21.8956 3.59816C21.8945 3.59896 21.894 3.60013 21.893 3.60102C21.3274 3.76893 20.8474 3.83971 20.8394 3.84083C20.8133 3.84458 20.7953 3.86877 20.799 3.89483C20.8028 3.92089 20.8268 3.93899 20.853 3.93524C20.8574 3.93458 21.0031 3.91311 21.2269 3.86642C21.3428 3.93285 21.4852 3.9695 21.6149 3.98933C21.4212 4.00569 21.2419 3.99636 21.2389 3.99613C21.2163 3.99528 21.1943 4.01099 21.1896 4.03414C21.1848 4.0573 21.1977 4.08045 21.2199 4.08852L21.4003 4.15461C21.1466 4.20861 20.9021 4.15794 20.8993 4.15728C20.8797 4.15297 20.8598 4.16145 20.8491 4.17823C20.8384 4.19497 20.8392 4.21662 20.8511 4.23251C20.8855 4.2785 20.9827 4.32673 21.0675 4.36231C20.7189 4.42831 20.4789 4.21461 20.4676 4.20434C20.4482 4.18662 20.4182 4.18794 20.4004 4.2072C20.3826 4.22647 20.3837 4.25647 20.4028 4.27433C20.6782 4.53209 21.1916 4.64187 21.422 4.6797C21.3878 4.69985 21.3467 4.71884 21.3036 4.72657C21.1268 4.75798 20.7185 4.56382 20.4313 4.40665L20.2013 4.27391C20.1787 4.26087 20.1498 4.26837 20.1365 4.29078C20.1231 4.31323 20.1302 4.3422 20.1524 4.35584C20.1634 4.36259 20.2537 4.41786 20.3818 4.48826L20.9417 4.81137C20.77 4.8326 20.5887 4.79412 20.5865 4.79365C20.5851 4.79337 20.5838 4.79379 20.5824 4.7936C20.4513 4.70145 20.2398 4.54629 19.9224 4.283C19.8713 4.10061 19.7755 4.02045 19.6556 3.94433C19.791 3.90275 20.0768 3.83783 20.4044 3.89928ZM20.7504 4.91046C20.7502 4.91056 20.7499 4.91079 20.7496 4.91088C20.7496 4.91088 20.7492 4.91055 20.749 4.91037C20.7495 4.91041 20.75 4.91046 20.7504 4.91046ZM17.6442 4.69418L17.7532 4.61656C17.7726 4.60278 17.7789 4.57676 17.7679 4.55567C17.7569 4.53453 17.732 4.52492 17.7096 4.53279C17.5293 4.59715 17.3469 4.59059 17.2327 4.57592L17.359 4.4982C17.3791 4.48582 17.3872 4.46056 17.3779 4.43886C17.3686 4.41715 17.3449 4.40548 17.3219 4.41148C17.092 4.47186 16.9005 4.44678 16.7752 4.41218C16.9744 4.36564 17.0902 4.27751 17.0962 4.27278C17.1137 4.25928 17.1196 4.23561 17.1105 4.2155C17.1015 4.19544 17.0799 4.18437 17.0582 4.18822C16.7955 4.23767 16.5927 4.22141 16.4566 4.19323C16.5973 4.16961 16.7091 4.136 16.716 4.13389C16.7168 4.13366 16.7174 4.133 16.7182 4.13272C16.7214 4.13155 16.7242 4.12977 16.727 4.12794C16.7295 4.12639 16.7319 4.12512 16.734 4.12325C16.7363 4.12119 16.738 4.11866 16.7398 4.11617C16.7416 4.11373 16.7435 4.11153 16.7448 4.10881C16.746 4.10623 16.7466 4.10338 16.7474 4.10056C16.7482 4.09733 16.7492 4.09428 16.7494 4.09086C16.7495 4.09006 16.7499 4.08945 16.7499 4.08861C16.7499 4.08613 16.7489 4.08392 16.7485 4.08153C16.7482 4.07914 16.7486 4.07675 16.7479 4.07436C16.7476 4.07361 16.7471 4.07309 16.7468 4.07239C16.7456 4.0692 16.7438 4.06649 16.7421 4.06363C16.7406 4.06114 16.7393 4.05856 16.7373 4.05641C16.7353 4.05416 16.7328 4.05256 16.7304 4.05074C16.7279 4.04886 16.7257 4.04689 16.7228 4.04553C16.7203 4.04431 16.7175 4.0438 16.7147 4.04305C16.7115 4.04211 16.7084 4.04117 16.7049 4.04099C16.7041 4.04094 16.7035 4.04052 16.7027 4.04052C16.0901 4.03475 15.752 3.71254 15.6438 3.54805C15.8347 3.68104 16.0854 3.79391 16.268 3.85874L16.2682 3.85878C16.511 3.95258 16.8137 4.01235 16.8266 4.01483C16.8524 4.01985 16.8775 4.00306 16.8825 3.97719C16.8876 3.95136 16.8707 3.92628 16.8449 3.92122C16.8419 3.92061 16.5365 3.86038 16.3012 3.7693C15.7936 3.5729 15.6909 3.36018 15.6566 3.25274C15.7114 3.29174 15.7852 3.34907 15.8246 3.37977C16.1217 3.61082 16.813 3.82935 16.8423 3.83853C16.8673 3.84646 16.8937 3.83267 16.9019 3.80788C16.91 3.78303 16.8967 3.75632 16.872 3.74788C16.1572 3.50441 16.0499 3.27295 15.9922 3.14859C15.9872 3.13776 15.9825 3.12768 15.9779 3.11831C15.9875 3.12126 15.9975 3.12496 16.0057 3.12862C16.4019 3.35038 16.9842 3.61288 17.2043 3.71033C17.1647 3.72936 17.1232 3.74535 17.0957 3.74685C17.0773 3.74788 17.0611 3.75936 17.0542 3.77643C17.0472 3.79344 17.0506 3.81294 17.063 3.82658C17.0659 3.82977 17.1127 3.87988 17.2034 3.89942L17.1389 3.94142C17.1239 3.95131 17.1156 3.96885 17.1176 3.98685C17.1197 4.0048 17.1317 4.02003 17.1487 4.02622C17.1531 4.02781 17.2267 4.05369 17.3239 4.06395L17.2703 4.10305C17.2567 4.11298 17.2494 4.12939 17.251 4.14612C17.2526 4.16286 17.2629 4.17758 17.2782 4.1847C17.2844 4.18761 17.3577 4.22089 17.4753 4.21536L17.4713 4.21817C17.4558 4.22905 17.4482 4.24812 17.4519 4.26669C17.4557 4.28525 17.4701 4.29987 17.4886 4.30386C17.4959 4.3054 17.5859 4.32392 17.7151 4.30925L17.6858 4.32879C17.6702 4.33915 17.6621 4.35781 17.6652 4.37633C17.6683 4.39484 17.682 4.40979 17.7001 4.41462C17.714 4.41818 17.9227 4.47017 18.1966 4.38326C18.1392 4.42104 18.0856 4.44847 18.0414 4.4584C18.0213 4.46295 18.0063 4.48001 18.0044 4.50064C18.0025 4.52126 18.0142 4.54071 18.0332 4.54882C18.0345 4.54934 18.0392 4.55117 18.0454 4.55342C17.8991 4.65045 17.7495 4.68415 17.6442 4.69418ZM17.4134 3.82902C17.4042 3.80769 17.3811 3.79602 17.3584 3.80164C17.3031 3.8151 17.2585 3.81374 17.224 3.80647C17.2805 3.7813 17.3288 3.7513 17.3373 3.74586C17.3407 3.74371 17.3437 3.74104 17.3465 3.73813C17.4313 3.77225 17.5276 3.80507 17.6357 3.83638L17.4526 3.96997C17.3913 3.97649 17.3305 3.97063 17.2821 3.96195L17.3957 3.88789C17.4152 3.87519 17.4227 3.85035 17.4134 3.82902ZM17.8419 4.81029C17.8238 4.81006 17.7904 4.80082 17.7779 4.79192C17.7811 4.7869 17.789 4.7771 17.8067 4.76309C17.9193 4.73421 18.0485 4.67951 18.1724 4.57845C18.3024 4.58787 18.5069 4.55698 18.7152 4.34759C18.7229 4.36156 18.7309 4.37562 18.7403 4.39001C18.7177 4.40717 18.1794 4.81334 17.8419 4.81029ZM18.2139 4.4847C18.3681 4.39189 18.5406 4.23045 18.6483 4.12264C18.6499 4.16211 18.6576 4.20734 18.6747 4.25708C18.6709 4.25928 18.6671 4.2613 18.664 4.26458C18.4932 4.44476 18.3268 4.48447 18.2139 4.4847ZM19.1098 5.10199C18.9528 5.09126 18.8066 5.06688 18.7532 5.04326C18.8831 4.94187 18.9203 4.8971 18.9243 4.89218C18.9374 4.87577 18.9382 4.85262 18.9262 4.83532C18.9142 4.81793 18.8922 4.81048 18.8723 4.81704C18.7011 4.87235 18.5012 4.92635 18.4025 4.94023C18.4478 4.89949 18.5284 4.84812 18.6013 4.81165C18.6246 4.79993 18.6343 4.77167 18.6229 4.74818C18.6115 4.72465 18.5833 4.71476 18.5597 4.72582C18.4299 4.78685 18.2441 4.8484 18.1278 4.84746C18.4443 4.73351 18.7669 4.48976 18.7977 4.46618C18.822 4.49525 18.8489 4.52468 18.8812 4.55468C19.1661 4.81957 19.1349 5.02732 19.1098 5.10199ZM19.1883 5.39275C19.1857 5.39589 19.1822 5.40007 19.1779 5.40485C19.1883 5.33425 19.1957 5.24571 19.1889 5.16143C19.2151 5.10377 19.2683 4.93282 19.1307 4.70609C19.2214 4.71926 19.4295 4.7629 19.5196 4.89387C19.5315 4.91126 19.5434 4.93048 19.5551 4.95049L19.555 4.95063C19.5505 4.96118 19.4604 5.17957 19.4891 5.45261C19.468 5.42777 19.4479 5.3973 19.4344 5.36158C19.428 5.34485 19.4128 5.33304 19.395 5.33111C19.3774 5.32924 19.3598 5.33735 19.35 5.3523C19.3299 5.38282 19.3008 5.42458 19.2719 5.46278L19.2729 5.42425C19.2734 5.40391 19.261 5.38553 19.2419 5.37836C19.2228 5.37133 19.2013 5.377 19.1883 5.39275ZM19.4958 5.98647C19.4863 6.01492 19.4354 6.06976 19.4024 6.09957C19.4012 6.10061 19.4001 6.10173 19.399 6.1029C19.3741 6.0617 19.375 6.02912 19.3751 6.02734C19.3767 6.00503 19.3626 5.98459 19.3413 5.97812C19.3198 5.97165 19.2968 5.98103 19.2859 6.00048C19.2423 6.07834 19.1657 6.08636 19.1517 6.08725C19.1541 6.02978 19.1873 5.97761 19.1894 5.97437C19.2026 5.95431 19.1988 5.92759 19.1806 5.91198C19.1624 5.89637 19.1354 5.89675 19.1176 5.91283C19.0475 5.9762 18.9364 5.93519 18.9354 5.93486C18.9308 5.93308 18.926 5.93204 18.9213 5.93172C18.9521 5.86473 19.006 5.8592 19.0804 5.85161C19.1088 5.84865 19.1382 5.84566 19.1686 5.839C19.3153 5.80689 19.3326 5.64466 19.3213 5.56333C19.321 5.56108 19.3197 5.55925 19.3191 5.55714C19.3421 5.52888 19.365 5.49794 19.3841 5.47122C19.3934 5.48547 19.4033 5.49827 19.4133 5.51041C19.4136 5.54524 19.4156 5.65244 19.4277 5.70892C19.4373 5.75378 19.47 5.78397 19.5015 5.80337C19.4964 5.8135 19.492 5.82419 19.4891 5.83576C19.4779 5.88194 19.4874 5.93275 19.5016 5.97625C19.4995 5.97958 19.4971 5.98258 19.4958 5.98647ZM19.5209 5.689C19.5164 5.66772 19.5135 5.6343 19.5116 5.60064C19.525 5.60983 19.5343 5.61531 19.5356 5.61606C19.5522 5.62525 19.5728 5.6238 19.5879 5.61222C19.6029 5.60064 19.6097 5.58124 19.6051 5.56281C19.5547 5.36135 19.5884 5.17291 19.6164 5.06965C19.6985 5.25011 19.7575 5.47286 19.7371 5.61972C19.7339 5.64217 19.7471 5.66373 19.7685 5.67123C19.7729 5.67278 19.7775 5.67325 19.782 5.67349C19.7815 5.6785 19.781 5.68375 19.7804 5.68839C19.7322 5.68689 19.6527 5.6943 19.5756 5.73438C19.5536 5.72519 19.525 5.70836 19.5209 5.689ZM20.149 5.93551C20.1452 5.94236 20.1405 5.95033 20.1355 5.95858C20.0785 5.8832 20.0004 5.80567 19.9335 5.83094C19.8796 5.85147 19.874 5.9034 19.8703 5.93776C19.8659 5.97925 19.8628 5.99654 19.8282 6.0084C19.8131 6.01351 19.8017 6.02579 19.7975 6.04112L19.7922 6.06095C19.774 6.02092 19.7643 5.97259 19.7915 5.93139C19.8054 5.9103 19.8003 5.88208 19.78 5.86698C19.7598 5.85194 19.7312 5.85536 19.7149 5.87476C19.7145 5.87523 19.6713 5.92609 19.6085 5.93504C19.602 5.93598 19.5958 5.93823 19.5904 5.94156C19.5813 5.91245 19.576 5.88189 19.5818 5.85826C19.5852 5.84416 19.5922 5.83459 19.6043 5.82728C19.6998 5.76948 19.8112 5.78589 19.8122 5.78608C19.8374 5.79025 19.8605 5.77436 19.8662 5.74994C19.8688 5.73906 19.8893 5.64606 19.8744 5.56816L19.936 5.46457C19.9582 5.49292 19.9882 5.5277 20.0249 5.56192C20.0047 5.59905 19.9849 5.65909 20.0131 5.72748C20.0244 5.755 20.0507 5.77389 20.0813 5.79573C20.1591 5.85156 20.1797 5.87959 20.149 5.93551ZM19.9734 5.35239C19.9647 5.3381 19.9473 5.33027 19.9324 5.32947C19.9157 5.32952 19.9002 5.33833 19.8916 5.35272L19.8296 5.45683C19.8034 5.24599 19.7041 4.99404 19.5981 4.83987C19.4603 4.63943 19.1197 4.60146 19.0554 4.6017C19.0241 4.56373 18.9892 4.52497 18.9461 4.48489C18.6633 4.22201 18.7563 4.01183 18.7608 4.00213C18.7612 4.00128 18.7611 4.00039 18.7615 3.99955C18.7628 3.9965 18.7632 3.99341 18.7639 3.99017C18.7644 3.98722 18.7652 3.98441 18.7652 3.98145C18.7652 3.97845 18.7645 3.9756 18.7639 3.97264C18.7633 3.9696 18.7629 3.9666 18.7618 3.96374C18.7607 3.96111 18.7591 3.95886 18.7575 3.95638C18.7557 3.95352 18.754 3.9508 18.7516 3.94831C18.751 3.94766 18.7507 3.94677 18.75 3.94616C18.7483 3.94461 18.7462 3.944 18.7444 3.94274C18.7424 3.94142 18.741 3.9396 18.7389 3.93856C18.7381 3.93814 18.7371 3.93824 18.7362 3.93786C18.7332 3.93655 18.7301 3.93599 18.7268 3.93538C18.7239 3.93481 18.7211 3.93406 18.7181 3.93406C18.7151 3.93402 18.7122 3.93472 18.7093 3.93528C18.7062 3.93585 18.7032 3.93627 18.7003 3.93744C18.6977 3.93847 18.6954 3.94016 18.6929 3.9417C18.6901 3.94349 18.6873 3.94522 18.6849 3.94761C18.6842 3.94827 18.6833 3.94855 18.6827 3.9492L18.6826 3.9493L18.6826 3.94935C18.359 4.30283 18.0203 4.34487 17.8448 4.33751L18.0484 4.20177C18.0884 4.17941 18.1288 4.15283 18.1689 4.12128C18.1891 4.10544 18.1931 4.07656 18.1781 4.0558C18.1631 4.03499 18.1343 4.02992 18.113 4.04408L18.0013 4.11856C17.8634 4.19501 17.7303 4.21564 17.6372 4.2185L17.7433 4.1442C17.8248 4.10478 17.9137 4.04567 18.0073 3.95853C18.0257 3.94147 18.0277 3.91311 18.0119 3.89361C17.9962 3.87416 17.9681 3.87022 17.9475 3.88457L17.6947 4.06175C17.5746 4.11833 17.4762 4.12527 17.4102 4.11922L17.7716 3.85536C17.7865 3.84453 17.7937 3.82611 17.7904 3.80807C17.787 3.78997 17.7735 3.77549 17.7557 3.77075C17.1665 3.61396 17.0248 3.45379 16.9929 3.37227C16.9901 3.3651 16.9882 3.35938 16.9871 3.35493C16.999 3.35671 17.0149 3.36121 17.0252 3.36557C17.6025 3.70485 18.6842 3.84078 18.7299 3.84641C18.7535 3.84875 18.7753 3.83455 18.7817 3.81182C18.798 3.75308 18.8923 3.45533 19.1485 3.35868C19.3901 3.2677 19.5805 3.41484 19.5884 3.42102C19.5969 3.42782 19.6074 3.43148 19.6182 3.43148C19.7209 3.43148 19.789 3.45196 19.8099 3.48918C19.8165 3.50113 19.8185 3.51482 19.8178 3.52846C19.8011 3.51997 19.7827 3.5143 19.7646 3.51163C19.7564 3.51032 19.7481 3.51135 19.7403 3.51435C19.731 3.51801 19.7073 3.5196 19.6863 3.52105C19.6191 3.52569 19.5174 3.53268 19.4599 3.61822C19.426 3.66866 19.4147 3.73579 19.4289 3.80225C19.4378 3.84374 19.46 3.89797 19.5107 3.95089C19.5157 3.96078 19.5236 3.96795 19.533 3.97236C19.5504 3.98778 19.5697 4.00297 19.5929 4.01745C19.7055 4.08781 19.7881 4.15273 19.8319 4.31197C19.8322 4.31755 19.8337 4.32294 19.836 4.32809C19.8539 4.4 19.8647 4.4899 19.8671 4.6069C19.8677 4.63287 19.8889 4.65359 19.9148 4.65359C19.9148 4.65359 19.9155 4.65359 19.9158 4.65359C19.9421 4.65307 19.963 4.63123 19.9625 4.60489C19.9611 4.53936 19.9568 4.48179 19.9503 4.42958C20.3056 4.71973 20.5153 4.86387 20.6205 4.93605C20.6353 4.94623 20.6494 4.95588 20.6617 4.96455C20.5546 4.9743 20.3851 4.87662 20.2526 4.77556C20.209 4.73623 20.1678 4.7037 20.1455 4.68668C20.1253 4.67112 20.0964 4.67435 20.08 4.69399C20.0636 4.71354 20.0656 4.74256 20.0844 4.75981C20.0964 4.77082 20.1349 4.80523 20.189 4.84704C20.2514 4.9038 20.2997 4.95738 20.3148 4.98823C20.2405 4.97262 20.0369 4.85149 19.8714 4.73328C19.8509 4.71865 19.8228 4.7224 19.8069 4.74171C19.7909 4.76107 19.7926 4.78938 19.8108 4.80668C19.9251 4.9152 19.9955 5.01438 20.0402 5.22686C20.0657 5.34808 20.1152 5.46311 20.1574 5.5465C20.0461 5.47028 19.9743 5.35394 19.9734 5.35239ZM21.061 5.22011C20.8087 5.25325 20.523 5.06083 20.5202 5.05891C20.4998 5.04504 20.4721 5.04893 20.4565 5.06791C20.4408 5.08685 20.4421 5.11465 20.4595 5.13204C20.5422 5.21472 20.6265 5.27083 20.688 5.31175C20.6969 5.31771 20.7065 5.32408 20.7158 5.33041C20.624 5.32586 20.4646 5.22241 20.3766 5.15041C20.3574 5.13462 20.329 5.13635 20.3118 5.15454C20.2946 5.17268 20.2944 5.20104 20.3112 5.21946C20.3468 5.25841 20.3806 5.302 20.4009 5.33383C20.3313 5.30838 20.2137 5.24144 20.1287 5.18711C20.1091 5.10012 20.0849 5.02929 20.0552 4.96929C20.3322 5.13429 20.3789 5.07865 20.3964 5.0576C20.4065 5.04537 20.4179 5.02437 20.4145 4.99343C20.4144 4.99324 20.4144 4.9931 20.4144 4.9931C20.5276 5.05033 20.6487 5.08408 20.7417 5.04058C20.7515 5.03604 20.7655 5.02877 20.7767 5.01724C20.9484 5.11315 21.0382 5.18491 21.0655 5.21936C21.0642 5.21965 21.0626 5.21983 21.061 5.22011ZM20.9962 5.0389C20.9436 5.00313 20.8761 4.96198 20.7874 4.91393C20.7856 4.91295 20.7836 4.9129 20.7817 4.9122C20.7973 4.9128 20.8133 4.91323 20.8297 4.91323C20.8756 4.91323 20.9238 4.91009 20.9717 4.9031C20.9753 4.90549 20.9789 4.90807 20.9832 4.90943C21.1309 4.95588 21.2199 4.99118 21.2483 5.01476C21.2104 5.03121 21.1013 5.04194 20.9962 5.0389ZM21.2773 4.92012C21.2773 4.92012 21.2768 4.9203 21.2764 4.9203C21.2381 4.89799 21.1836 4.87606 21.1142 4.85215C21.1167 4.84713 21.1186 4.84179 21.1192 4.83598C21.1203 4.82416 21.117 4.81263 21.1104 4.80345C21.1914 4.82285 21.2639 4.83045 21.3203 4.82042C21.3915 4.80771 21.456 4.7727 21.5026 4.7412H21.5027C21.5505 4.7412 21.6865 4.73951 21.8607 4.72517C21.7349 4.80284 21.5204 4.90948 21.2773 4.92012ZM23.2006 4.1052C23.1357 4.18686 22.9884 4.3204 22.7207 4.44073C22.3552 4.60507 21.8155 4.63784 21.5905 4.64417C21.5902 4.6406 21.5897 4.63699 21.5885 4.63353C21.5826 4.616 21.567 4.60348 21.5486 4.60142C21.5444 4.60095 21.3028 4.57292 21.0343 4.49192C21.1953 4.50715 21.3472 4.51465 21.4894 4.51465C21.8909 4.51465 22.2189 4.45868 22.4856 4.37487C22.487 4.37464 22.4884 4.37501 22.4897 4.37464C22.6367 4.33615 22.9869 4.19267 23.1751 4.11561C23.1841 4.112 23.1926 4.10853 23.2006 4.1052ZM22.9463 4.05969C22.636 4.25173 22.095 4.4569 21.2391 4.41106C21.2557 4.403 21.2666 4.38631 21.2663 4.36756C21.2658 4.34745 21.2529 4.32978 21.2339 4.32331C21.1956 4.31037 21.1501 4.29322 21.1058 4.27475C21.2369 4.27859 21.4074 4.2664 21.5694 4.20392C21.588 4.19675 21.6001 4.17889 21.6 4.15902C21.5998 4.13914 21.5873 4.12147 21.5687 4.11463L21.5064 4.0918C21.6645 4.08519 21.8583 4.06447 21.9935 4.00756C22.0148 3.99861 22.0266 3.97569 22.0215 3.95314C22.0212 3.95197 22.0205 3.95103 22.0201 3.94991C22.3057 3.87833 22.8316 3.71324 23.3745 3.37316C23.2577 3.56746 22.918 3.92881 21.9566 4.15597C21.9317 4.16187 21.9159 4.18634 21.9207 4.21147C21.9256 4.23664 21.9495 4.25314 21.9747 4.24958C21.9819 4.24845 22.6354 4.14584 23.3102 3.7596C23.2303 3.84842 23.1122 3.95703 22.9463 4.05969Z" fill="#464655"/>
</g>
<defs>
<clipPath id="clip0_8615_27451">
<path d="M0 2C0 0.895432 0.895431 0 2 0H21.9999C23.1045 0 23.9999 0.895431 23.9999 2V21.9999C23.9999 23.1045 23.1045 23.9999 21.9999 23.9999H2C0.895432 23.9999 0 23.1045 0 21.9999V2Z" fill="white"/>
</clipPath>
</defs>
</svg>
