<svg width="161" height="30" viewBox="0 0 161 30" fill="none" xmlns="http://www.w3.org/2000/svg">
<g clip-path="url(#clip0_24977_5356)">
<path fill-rule="evenodd" clip-rule="evenodd" d="M0 20.555L18.109 0L36.2203 20.555L25.1708 29.7394H11.0614L0 20.555ZM18.1113 26.0963H18.3073C21.9386 25.9948 25.0811 23.23 25.074 19.6932C25.074 18.5127 24.5121 16.8695 23.9431 15.9156C23.6298 15.3206 21.7379 11.9971 18.2672 5.94504C18.2152 5.79865 17.998 5.79865 17.9484 5.94504C17.9484 5.94504 12.8675 14.787 12.2726 15.9227C11.7036 16.8765 11.1416 18.5198 11.1416 19.7003C11.1416 23.23 14.2841 25.9971 17.9201 26.0987H18.109L18.1113 26.0963Z" fill="#00C7F9"/>
<path d="M74.1399 26.851H68.9244L61.4778 12.529L54.0312 26.851H48.8086L61.4802 2.8418L74.1423 26.851H74.1399Z" fill="#00C7F9"/>
<path d="M99.3353 23.3916C100.098 22.6597 100.754 21.8263 101.307 20.8913C102.398 19.045 102.943 16.9862 102.943 14.7149C102.943 12.4436 102.393 10.3801 101.29 8.52196C100.188 6.66384 98.6861 5.20001 96.7831 4.13047C94.8801 3.06093 92.7481 2.52734 90.3895 2.52734C88.0308 2.52734 85.9271 3.06093 84.0124 4.13047C82.0976 5.19765 80.5912 6.66148 79.4886 8.52196C78.3861 10.3801 77.8359 12.446 77.8359 14.7149C77.8359 16.9838 78.3861 19.045 79.4886 20.8913C80.5912 22.74 82.0976 24.192 84.0124 25.2474C85.8941 26.2862 87.993 26.8151 90.3068 26.8316L104.742 26.8482V23.3893H99.3377L99.3353 23.3916ZM97.057 18.4807C96.3841 19.6117 95.4609 20.4994 94.2899 21.1463C93.1377 21.7814 91.8556 22.1049 90.439 22.1143H90.3375C88.9233 22.1025 87.6389 21.7814 86.4867 21.144C85.3156 20.497 84.3925 19.6093 83.7196 18.4784C83.0467 17.3474 82.7091 16.089 82.7091 14.7007C82.7091 13.3125 83.0467 12.0493 83.7196 10.9113C84.3925 9.77566 85.3156 8.87848 86.4867 8.22447C87.6578 7.57047 88.9587 7.24465 90.3871 7.24465C91.8179 7.24465 93.1164 7.57047 94.2875 8.22447C95.4586 8.87848 96.3817 9.7733 97.0546 10.9113C97.7275 12.0493 98.0651 13.3101 98.0651 14.7007C98.0651 16.0914 97.7275 17.3498 97.0546 18.4784L97.057 18.4807Z" fill="#00C7F9"/>
<path d="M131.604 2.88672V16.9182C131.604 18.9345 131.167 20.7242 130.296 22.2872C129.424 23.8502 128.194 25.0614 126.61 25.9231C125.023 26.7849 123.224 27.2146 121.208 27.2146C119.192 27.2146 117.362 26.7849 115.79 25.9231C114.215 25.0637 112.992 23.8455 112.121 22.2707C111.249 20.6959 110.812 18.9133 110.812 16.9206V2.88672H115.773V16.9182C115.773 18.0515 116 19.0526 116.453 19.9262C116.906 20.7974 117.541 21.4726 118.356 21.9472C119.17 22.4218 120.122 22.6602 121.21 22.6602C122.299 22.6602 123.22 22.4218 124.048 21.9472C124.875 21.4703 125.515 20.7974 125.968 19.9262C126.421 19.055 126.648 18.0515 126.648 16.9182V2.88672H131.608H131.604Z" fill="#00C7F9"/>
<path d="M161.003 26.851H155.788L148.341 12.529L140.894 26.851H135.672L148.343 2.8418L161.006 26.851H161.003Z" fill="#00C7F9"/>
</g>
<defs>
<clipPath id="clip0_24977_5356">
<rect width="161" height="29.7394" fill="white"/>
</clipPath>
</defs>
</svg>
