<svg width="18" height="18" viewBox="0 0 18 18" fill="none" xmlns="http://www.w3.org/2000/svg">
<path d="M13.5 14.25C13.275 14.25 13.125 14.175 12.975 14.025L9 10.05L5.025 14.025C4.725 14.325 4.275 14.325 3.975 14.025C3.675 13.725 3.675 13.275 3.975 12.975L7.95 9L3.975 5.025C3.675 4.725 3.675 4.275 3.975 3.975C4.275 3.675 4.725 3.675 5.025 3.975L9 7.95L12.975 3.975C13.275 3.675 13.725 3.675 14.025 3.975C14.325 4.275 14.325 4.725 14.025 5.025L10.05 9L14.025 12.975C14.325 13.275 14.325 13.725 14.025 14.025C13.875 14.175 13.725 14.25 13.5 14.25Z" fill="white"/>
</svg>
