<svg width="734" height="603" viewBox="0 0 734 603" fill="none" xmlns="http://www.w3.org/2000/svg">
<path fill-rule="evenodd" clip-rule="evenodd" d="M0 416.166L366.643 0L733.333 416.166L509.619 602.116H223.953L0 416.166ZM366.691 528.358H370.658C444.178 526.302 507.803 470.326 507.659 398.718C507.659 374.817 496.282 341.547 484.762 322.235C478.42 310.188 440.115 242.899 369.845 120.366C368.794 117.402 364.396 117.402 363.392 120.366C363.392 120.366 260.522 299.385 248.476 322.378C236.955 341.69 225.578 374.96 225.578 398.861C225.578 470.326 289.203 526.35 362.819 528.405H366.643L366.691 528.358Z" fill="#022173"/>
</svg>
