<svg width="321" height="60" viewBox="0 0 321 60" fill="none" xmlns="http://www.w3.org/2000/svg">
<g clip-path="url(#clip0_24642_29026)">
<path fill-rule="evenodd" clip-rule="evenodd" d="M0 40.9823L36.1055 0L72.2157 40.9823L50.1852 59.294H22.054L0 40.9823ZM36.1102 52.0305H36.5009C43.7408 51.8281 50.0064 46.3158 49.9922 39.2641C49.9922 36.9105 48.8719 33.6341 47.7374 31.7324C47.1129 30.5461 43.3407 23.9197 36.4209 11.8531C36.3173 11.5613 35.8843 11.5613 35.7854 11.8531C35.7854 11.8531 25.6551 29.4822 24.4689 31.7465C23.3344 33.6483 22.2141 36.9246 22.2141 39.2783C22.2141 46.3158 28.4796 51.8328 35.7289 52.0352H36.1055L36.1102 52.0305Z" fill="#00C7F9"/>
<path d="M147.816 53.5333H137.418L122.57 24.9784L107.723 53.5333H97.3107L122.575 5.66406L147.821 53.5333H147.816Z" fill="#00C7F9"/>
<path d="M198.048 46.6361C199.569 45.1768 200.877 43.5151 201.979 41.651C204.154 37.9699 205.241 33.865 205.241 29.3365C205.241 24.8081 204.144 20.6938 201.946 16.9891C199.748 13.2844 196.754 10.3658 192.96 8.23341C189.166 6.10097 184.915 5.03711 180.212 5.03711C175.509 5.03711 171.315 6.10097 167.498 8.23341C163.68 10.3611 160.677 13.2797 158.478 16.9891C156.28 20.6938 155.183 24.8128 155.183 29.3365C155.183 33.8603 156.28 37.9699 158.478 41.651C160.677 45.3369 163.68 48.2319 167.498 50.3361C171.249 52.4073 175.434 53.4618 180.047 53.4947L208.828 53.5277V46.6314H198.053L198.048 46.6361ZM193.506 36.8448C192.164 39.0996 190.324 40.8696 187.989 42.1594C185.691 43.4257 183.135 44.0706 180.311 44.0894H180.109C177.289 44.0659 174.728 43.4257 172.431 42.1547C170.096 40.8649 168.255 39.0949 166.914 36.8401C165.572 34.5853 164.899 32.0762 164.899 29.3083C164.899 26.5404 165.572 24.0219 166.914 21.753C168.255 19.4887 170.096 17.6999 172.431 16.396C174.766 15.092 177.359 14.4424 180.207 14.4424C183.06 14.4424 185.649 15.092 187.984 16.396C190.319 17.6999 192.159 19.484 193.501 21.753C194.843 24.0219 195.516 26.5357 195.516 29.3083C195.516 32.0809 194.843 34.59 193.501 36.8401L193.506 36.8448Z" fill="#00C7F9"/>
<path d="M262.384 5.75195V33.7278C262.384 37.7479 261.513 41.3161 259.776 44.4324C258.039 47.5487 255.587 49.9635 252.428 51.6817C249.265 53.3999 245.677 54.2567 241.657 54.2567C237.637 54.2567 233.989 53.3999 230.854 51.6817C227.714 49.9682 225.276 47.5392 223.539 44.3994C221.802 41.2596 220.931 37.7056 220.931 33.7325V5.75195H230.821V33.7278C230.821 35.9874 231.273 37.9833 232.177 39.725C233.081 41.462 234.347 42.8083 235.971 43.7545C237.595 44.7007 239.492 45.1761 241.662 45.1761C243.832 45.1761 245.668 44.7007 247.32 43.7545C248.968 42.8036 250.244 41.462 251.147 39.725C252.051 37.988 252.503 35.9874 252.503 33.7278V5.75195H262.393H262.384Z" fill="#00C7F9"/>
<path d="M321 53.5333H310.602L295.755 24.9784L280.908 53.5333H270.495L295.759 5.66406L321.005 53.5333H321Z" fill="#00C7F9"/>
</g>
<defs>
<clipPath id="clip0_24642_29026">
<rect width="321" height="59.294" fill="white"/>
</clipPath>
</defs>
</svg>
