<svg width="29" height="24" viewBox="0 0 29 24" fill="none" xmlns="http://www.w3.org/2000/svg">
<g clip-path="url(#clip0_29883_42095)">
<path fill-rule="evenodd" clip-rule="evenodd" d="M-5.72205e-06 16.5482L14.4872 0.104248L28.9763 16.5482L20.1366 23.8957H8.84908L-5.72205e-06 16.5482ZM14.4891 20.9813H14.6458C17.5508 20.9001 20.0648 18.6883 20.0592 15.8588C20.0592 14.9144 19.6096 13.5998 19.1544 12.8367C18.9039 12.3608 17.3903 9.70193 14.6137 4.86028C14.5722 4.74317 14.3984 4.74317 14.3587 4.86028C14.3587 4.86028 10.294 11.9339 9.81804 12.8424C9.36284 13.6055 8.9133 14.9201 8.9133 15.8645C8.9133 18.6883 11.4273 20.902 14.3361 20.9832H14.4872L14.4891 20.9813Z" fill="white"/>
</g>
<defs>
<clipPath id="clip0_29883_42095">
<rect width="28.9763" height="24" fill="white"/>
</clipPath>
</defs>
</svg>
