<svg width="45" height="34" viewBox="0 0 45 34" fill="none" xmlns="http://www.w3.org/2000/svg">
<g filter="url(#filter0_i_29883_47670)">
<g clip-path="url(#clip0_29883_47670)">
<rect y="0.5" width="45" height="33" rx="5.71429" fill="url(#paint0_linear_29883_47670)"/>
<path opacity="0.8" fill-rule="evenodd" clip-rule="evenodd" d="M21.75 6.19517V6.08322L21.6665 6.00867L14.1665 -0.686523L13.8335 -0.313524L21.25 6.30712V10.9452L0 10.9452V11.4452L16.25 11.4452V22.4452H0V22.9452H21.25V27.0796L13.338 33.8095L13.662 34.1904L21.662 27.3856L21.75 27.3107V27.1952V22.6952V22.4452H21.5H16.75V11.4452H21.5H21.75V11.1952L21.75 6.19517ZM31.1952 0.0389929C31.2815 0.146808 31.264 0.304131 31.1562 0.390384L23.75 6.31532V9.49998C23.75 9.63805 23.6381 9.74998 23.5 9.74998C23.3619 9.74998 23.25 9.63805 23.25 9.49998V6.19517V6.07501L23.3438 5.99995L30.8438 -5.05447e-05C30.9516 -0.0863029 31.109 -0.0688226 31.1952 0.0389929ZM45 10.4452H28.5H28.25V10.6952V22.4452H23.5H23.25V22.6952V27.1952V27.3107L23.338 27.3856L31.338 34.1904L31.662 33.8095L23.75 27.0796V22.9452H45V22.4452H28.75V10.9452H45V10.4452Z" fill="url(#paint1_linear_29883_47670)"/>
</g>
</g>
<defs>
<filter id="filter0_i_29883_47670" x="0" y="0.5" width="45.5" height="33.5" filterUnits="userSpaceOnUse" color-interpolation-filters="sRGB">
<feFlood flood-opacity="0" result="BackgroundImageFix"/>
<feBlend mode="normal" in="SourceGraphic" in2="BackgroundImageFix" result="shape"/>
<feColorMatrix in="SourceAlpha" type="matrix" values="0 0 0 0 0 0 0 0 0 0 0 0 0 0 0 0 0 0 127 0" result="hardAlpha"/>
<feOffset dx="0.5" dy="0.5"/>
<feGaussianBlur stdDeviation="0.25"/>
<feComposite in2="hardAlpha" operator="arithmetic" k2="-1" k3="1"/>
<feColorMatrix type="matrix" values="0 0 0 0 0 0 0 0 0 0 0 0 0 0 0 0 0 0 0.29 0"/>
<feBlend mode="normal" in2="shape" result="effect1_innerShadow_29883_47670"/>
</filter>
<linearGradient id="paint0_linear_29883_47670" x1="0" y1="0.5" x2="41.0952" y2="32.5037" gradientUnits="userSpaceOnUse">
<stop stop-color="#ABABAB"/>
<stop offset="0.3125" stop-color="white"/>
<stop offset="0.630208" stop-color="#BDBDBD"/>
<stop offset="1" stop-color="#5E5E5E"/>
</linearGradient>
<linearGradient id="paint1_linear_29883_47670" x1="0.180721" y1="-0.686519" x2="45" y2="34.1729" gradientUnits="userSpaceOnUse">
<stop stop-color="#C2C2C2"/>
<stop offset="0.285" stop-color="#5E5E5E"/>
<stop offset="0.51" stop-color="#888888"/>
<stop offset="0.78" stop-color="#4B4B4B"/>
<stop offset="1" stop-color="#424242"/>
</linearGradient>
<clipPath id="clip0_29883_47670">
<rect y="0.5" width="45" height="33" rx="5.71429" fill="white"/>
</clipPath>
</defs>
</svg>
