<svg width="24" height="24" viewBox="0 0 24 24" fill="none" xmlns="http://www.w3.org/2000/svg">
<path d="M14.33 7.16966C13.588 7.05766 12.807 6.99966 12 6.99966C7.03 6.99966 3 9.23866 3 11.9997C3 13.4397 4.096 14.7377 5.85 15.6497L8.212 13.2877C7.97108 12.5803 7.93314 11.8196 8.10246 11.0917C8.27178 10.3639 8.64159 9.69805 9.16999 9.16965C9.69839 8.64125 10.3642 8.27143 11.0921 8.10211C11.8199 7.93279 12.5806 7.97074 13.288 8.21166L14.331 7.16866L14.33 7.16966ZM11.23 15.9257C11.8737 16.0519 12.5386 16.0179 13.1661 15.8266C13.7935 15.6353 14.3643 15.2927 14.8282 14.8288C15.292 14.365 15.6347 13.7942 15.826 13.1667C16.0172 12.5393 16.0512 11.8744 15.925 11.2307L18.573 8.58365C20.078 9.47765 21 10.6797 21 11.9997C21 14.7607 16.97 16.9997 12 16.9997C11.402 16.9997 10.817 16.9677 10.251 16.9057L11.231 15.9257H11.23ZM17.793 5.20666C17.8852 5.11114 17.9956 5.03496 18.1176 4.98255C18.2396 4.93015 18.3708 4.90256 18.5036 4.9014C18.6364 4.90025 18.7681 4.92555 18.891 4.97583C19.0138 5.02611 19.1255 5.10037 19.2194 5.19426C19.3133 5.28815 19.3875 5.3998 19.4378 5.5227C19.4881 5.6456 19.5134 5.77728 19.5123 5.91006C19.5111 6.04284 19.4835 6.17406 19.4311 6.29606C19.3787 6.41806 19.3025 6.52841 19.207 6.62066L6.48 19.3497C6.38775 19.4452 6.27741 19.5213 6.1554 19.5738C6.0334 19.6262 5.90218 19.6538 5.7694 19.6549C5.63662 19.6561 5.50494 19.6308 5.38205 19.5805C5.25915 19.5302 5.1475 19.4559 5.05361 19.3621C4.95971 19.2682 4.88546 19.1565 4.83518 19.0336C4.7849 18.9107 4.7596 18.779 4.76075 18.6463C4.7619 18.5135 4.78949 18.3823 4.8419 18.2603C4.89431 18.1382 4.97049 18.0279 5.066 17.9357L17.793 5.20666Z" fill="white"/>
</svg>
