<svg width="24" height="24" viewBox="0 0 24 24" fill="none" xmlns="http://www.w3.org/2000/svg">
<path d="M14.7701 5.87C14.9998 6.00037 15.2716 6.03464 15.5264 5.96532C15.7812 5.896 15.9982 5.72873 16.1301 5.5C16.2393 5.30736 16.4093 5.15639 16.6135 5.07078C16.8177 4.98517 17.0446 4.96975 17.2585 5.02694C17.4724 5.08414 17.6613 5.21071 17.7955 5.38681C17.9297 5.56291 18.0017 5.77858 18.0001 6C18.0001 6.26522 17.8948 6.51957 17.7072 6.70711C17.5197 6.89464 17.2654 7 17.0001 7C16.7349 7 16.4806 7.10536 16.293 7.29289C16.1055 7.48043 16.0001 7.73478 16.0001 8C16.0001 8.26522 16.1055 8.51957 16.293 8.70711C16.4806 8.89464 16.7349 9 17.0001 9C17.5267 8.99966 18.0438 8.86075 18.4997 8.59723C18.9555 8.33371 19.334 7.95486 19.597 7.49875C19.8601 7.04264 19.9984 6.52533 19.9982 5.9988C19.998 5.47227 19.8592 4.95507 19.5958 4.49917C19.3324 4.04326 18.9536 3.66472 18.4976 3.40156C18.0415 3.13841 17.5243 2.99992 16.9977 3C16.4712 3.00008 15.954 3.13874 15.498 3.40204C15.042 3.66534 14.6634 4.04401 14.4001 4.5C14.334 4.61413 14.2911 4.74022 14.274 4.871C14.2568 5.00178 14.2656 5.13466 14.3 5.262C14.3344 5.38934 14.3937 5.50862 14.4743 5.61297C14.555 5.71732 14.6556 5.80467 14.7701 5.87ZM19.0701 13C18.8076 12.9659 18.5423 13.0373 18.3324 13.1985C18.1225 13.3597 17.985 13.5976 17.9501 13.86C17.7403 15.5552 16.9179 17.1151 15.6378 18.246C14.3577 19.3769 12.7082 20.0007 11.0001 20H5.41014L6.06014 19.35C6.24639 19.1626 6.35093 18.9092 6.35093 18.645C6.35093 18.3808 6.24639 18.1274 6.06014 17.94C5.08509 16.9611 4.42153 15.7156 4.15303 14.3603C3.88454 13.005 4.02313 11.6005 4.55134 10.3238C5.07955 9.04714 5.97376 7.95532 7.12133 7.18589C8.2689 6.41646 9.6185 6.00384 11.0001 6C11.2654 6 11.5197 5.89464 11.7072 5.70711C11.8948 5.51957 12.0001 5.26522 12.0001 5C12.0001 4.73478 11.8948 4.48043 11.7072 4.29289C11.5197 4.10536 11.2654 4 11.0001 4C9.30937 4.00705 7.65478 4.49024 6.22594 5.39419C4.79709 6.29815 3.65177 7.58632 2.9212 9.11112C2.19064 10.6359 1.90436 12.3357 2.09519 14.0157C2.28601 15.6956 2.9462 17.2879 4.00014 18.61L2.29014 20.29C2.15138 20.4306 2.05739 20.6092 2.02001 20.8032C1.98264 20.9972 2.00356 21.1979 2.08014 21.38C2.15516 21.5626 2.28256 21.7189 2.44628 21.8293C2.61 21.9396 2.80271 21.999 3.00014 22H11.0001C13.1916 22.0003 15.3079 21.201 16.952 19.7521C18.596 18.3031 19.655 16.3041 19.9301 14.13C19.9484 13.9993 19.9406 13.8662 19.9072 13.7385C19.8738 13.6107 19.8155 13.4909 19.7355 13.3858C19.6556 13.2808 19.5556 13.1926 19.4414 13.1264C19.3272 13.0602 19.201 13.0172 19.0701 13ZM17.3801 10.07C17.1981 9.98945 16.9961 9.96508 16.8001 10L16.6201 10.06L16.4401 10.15L16.2901 10.28C16.2002 10.3721 16.1289 10.4808 16.0801 10.6C16.021 10.7247 15.9935 10.8621 16.0001 11C15.9972 11.1334 16.021 11.266 16.0701 11.39C16.1219 11.51 16.1966 11.6187 16.2901 11.71C16.3836 11.8027 16.4944 11.876 16.6162 11.9258C16.7381 11.9755 16.8685 12.0008 17.0001 12C17.2654 12 17.5197 11.8946 17.7072 11.7071C17.8948 11.5196 18.0001 11.2652 18.0001 11C18.0035 10.8688 17.9761 10.7387 17.9201 10.62C17.8127 10.3797 17.6204 10.1875 17.3801 10.08V10.07Z" fill="white"/>
</svg>
