<svg width="20" height="20" viewBox="0 0 20 20" fill="none" xmlns="http://www.w3.org/2000/svg">
<path d="M9.10529 1.96236L8.39818 1.25526L9.10529 1.96236C8.4891 2.57855 8.14293 3.41429 8.14293 4.28571C8.14293 5.15714 8.4891 5.99288 9.10529 6.60907C9.72148 7.22526 10.5572 7.57143 11.4286 7.57143C12.3001 7.57143 13.1358 7.22526 13.752 6.60907L14.4591 7.31617L13.752 6.60907C14.3682 5.99287 14.7144 5.15714 14.7144 4.28571C14.7144 3.41429 14.3682 2.57855 13.752 1.96236C13.1358 1.34617 12.3001 1 11.4286 1C10.5572 1 9.72148 1.34617 9.10529 1.96236Z" stroke="#313131" stroke-width="2"/>
<path d="M11.2605 11.0012C11.4485 11.2956 11.616 11.6036 11.7614 11.9231C12.2011 12.8892 12.4285 13.9383 12.4286 14.9997C12.4286 14.9995 12.4286 14.9993 12.4286 14.9991L11.2605 11.0012ZM11.2605 11.0012C11.3165 11.0005 11.3729 11.0001 11.4298 11C14.7895 11.0002 16.6586 12.0014 17.6858 13.0285C18.7423 14.0851 19 15.2568 19 15.7143C19 15.8964 18.9573 15.9666 18.9447 15.9855C18.928 16.0106 18.8984 16.0399 18.8385 16.0699C18.7746 16.1018 18.6987 16.1227 18.6302 16.1341C18.5984 16.1395 18.574 16.1417 18.5616 16.1426C18.5601 16.1427 18.5589 16.1428 18.5578 16.1429H12.341C12.3995 15.7654 12.4289 15.3833 12.4286 15L11.2605 11.0012Z" stroke="#313131" stroke-width="2"/>
<path d="M2.17157 17.8284C2.92172 18.5786 3.93913 19 5 19C6.06087 19 7.07828 18.5786 7.82843 17.8284C8.57857 17.0783 9 16.0609 9 15C9 13.9391 8.57857 12.9217 7.82843 12.1716C7.07828 11.4214 6.06087 11 5 11C3.93914 11 2.92172 11.4214 2.17157 12.1716C1.42143 12.9217 1 13.9391 1 15C1 16.0609 1.42143 17.0783 2.17157 17.8284Z" stroke="#313131" stroke-width="2"/>
<path d="M4.78599 14.2859V14.7859H4.28599H2.85742C2.80059 14.7859 2.74608 14.8085 2.7059 14.8487C2.66571 14.8889 2.64314 14.9434 2.64314 15.0002C2.64314 15.057 2.66571 15.1115 2.7059 15.1517C2.74608 15.1919 2.80059 15.2145 2.85742 15.2145H4.28599H4.78599V15.7145V17.1431C4.78599 17.1999 4.80857 17.2544 4.84876 17.2946C4.88894 17.3348 4.94345 17.3574 5.00028 17.3574C5.05711 17.3574 5.11162 17.3348 5.1518 17.2946C5.19199 17.2544 5.21457 17.1999 5.21457 17.1431V15.7145V15.2145H5.71457H7.14314C7.19997 15.2145 7.25448 15.1919 7.29466 15.1517C7.33484 15.1115 7.35742 15.057 7.35742 15.0002C7.35742 14.9434 7.33485 14.8889 7.29466 14.8487C7.25448 14.8085 7.19997 14.7859 7.14314 14.7859H5.71457H5.21457V14.2859V12.8574C5.21457 12.8005 5.19199 12.746 5.1518 12.7058C5.11162 12.6656 5.05711 12.6431 5.00028 12.6431C4.94344 12.6431 4.88894 12.6656 4.84876 12.7058C4.80857 12.746 4.78599 12.8005 4.78599 12.8574V14.2859Z" stroke="#313131"/>
</svg>
