<svg width="12" height="12" viewBox="0 0 12 12" fill="none" xmlns="http://www.w3.org/2000/svg">
<path fill-rule="evenodd" clip-rule="evenodd" d="M3.78739 11.2313C3.81813 11.2543 3.87216 11.2915 3.94515 11.3173C4.02845 11.364 4.10902 11.3813 4.15607 11.3892C4.23109 11.4017 4.30082 11.4016 4.32917 11.4016L4.33294 11.4016L4.3367 11.4016C4.36505 11.4016 4.43479 11.4017 4.50981 11.3892C4.55687 11.3813 4.63744 11.364 4.72073 11.3173C4.79373 11.2915 4.84776 11.2543 4.8785 11.2313C4.92989 11.1927 4.97578 11.1467 4.99996 11.1225L5.00467 11.1177L7.78245 8.33996C8.16088 7.96153 8.16088 7.37493 7.78245 6.9965C7.40402 6.61807 6.81742 6.61807 6.43899 6.9965L5.2885 8.14699V3.77934C5.2885 3.05581 5.83163 2.51267 6.55517 2.51267H10.4441C10.7016 2.51267 10.9473 2.42507 11.1297 2.24274C11.312 2.0604 11.3996 1.81468 11.3996 1.55712C11.3996 1.29955 11.312 1.05383 11.1297 0.871498C10.9473 0.689164 10.7016 0.601562 10.4441 0.601562H6.55517C4.7787 0.601562 3.37739 2.00287 3.37739 3.77934V8.14699L2.2269 6.9965C1.84846 6.61807 1.26187 6.61807 0.883433 6.9965C0.505001 7.37493 0.505001 7.96153 0.883433 8.33996L3.66121 11.1177L3.66593 11.1225C3.69011 11.1467 3.736 11.1927 3.78739 11.2313ZM4.72183 10.8349C4.66628 10.8905 4.61072 10.946 4.55517 10.946C4.49961 11.0016 4.3885 11.0016 4.33294 11.0016C4.27739 11.0016 4.16628 11.0016 4.11072 10.946C4.05517 10.946 3.99961 10.8905 3.94405 10.8349L1.16628 8.05712C1.0211 7.91194 0.970765 7.71934 1.01528 7.54128C0.971449 7.7189 1.02191 7.9108 1.16667 8.05556L3.94444 10.8333C4 10.8889 4.05556 10.9444 4.11111 10.9444C4.16667 11 4.27778 11 4.33333 11C4.38889 11 4.5 11 4.55556 10.9444C4.61111 10.9444 4.66667 10.8889 4.72222 10.8333L7.5 8.05556C7.57704 7.97851 7.62738 7.88811 7.651 7.79362C7.62754 7.88868 7.57708 7.97965 7.49961 8.05712L4.72183 10.8349ZM4.94094 3.34898C5.12303 2.62409 5.76042 2.11267 6.55517 2.11267H10.4441C10.7204 2.11267 10.9204 1.95989 10.9807 1.71767C10.92 1.95899 10.7202 2.11111 10.4444 2.11111H6.55556C5.76024 2.11111 5.12251 2.62326 4.94094 3.34898ZM3.86266 3.08139C3.80718 3.30329 3.77778 3.53652 3.77778 3.77778V9.11111L3.77739 3.77934C3.77739 3.53752 3.80692 3.30376 3.86266 3.08139Z" fill="#7E7E7E"/>
</svg>
