<svg width="78" height="24" viewBox="0 0 78 24" fill="none" xmlns="http://www.w3.org/2000/svg">
<g clip-path="url(#clip0_27809_37345)">
<path d="M56.6815 0.984694C54.8694 0.320421 52.954 -0.0129153 51.0254 0.000382725C44.7885 0.000382725 40.3837 3.16116 40.3525 7.69842C40.3135 11.0318 43.4827 12.9102 45.88 14.0239C48.3396 15.169 49.1621 15.8906 49.1543 16.9141C49.1387 18.471 47.1897 19.1769 45.3771 19.1769C42.8863 19.1769 41.5258 18.8278 39.4326 17.9533L38.6569 17.5886L37.772 22.8121C39.2884 23.4474 42.0209 23.9925 44.8431 24.0396C51.4737 24.0396 55.8083 20.8984 55.859 16.071C55.9135 13.4082 54.1984 11.3965 50.5888 9.73371C48.3942 8.65528 47.0338 7.93371 47.0338 6.8396C47.0338 5.87097 48.1993 4.83568 50.6356 4.83568C52.257 4.79621 53.8684 5.10226 55.3639 5.73372L55.9486 5.99646L56.8335 0.949401L56.6815 0.984694ZM72.8662 0.423911L67.9936 0.423911C66.4773 0.423911 65.3351 0.843519 64.6725 2.35724L55.3016 23.7141H61.9321L63.2575 20.2121L71.3498 20.22C71.5408 21.0396 72.1255 23.7141 72.1255 23.7141L77.9726 23.7141L72.8662 0.423911ZM31.3831 0.227832L37.7019 0.227832L33.7492 23.5298L27.4383 23.5298L31.3831 0.21999V0.227832ZM15.3426 13.071L15.9975 16.3063L22.172 0.423911L28.865 0.423911L18.921 23.6827H12.2437L6.78642 3.98862C6.69803 3.66388 6.49045 3.38498 6.20561 3.20823C4.23865 2.18602 2.15454 1.41029 -9.15527e-05 0.898419L0.0856654 0.408222L10.2557 0.408222C11.6356 0.463124 12.7465 0.89842 13.1168 2.38077L15.3387 13.0827L15.3426 13.071ZM65.0701 15.4474L67.5882 8.92979C67.557 9.00038 68.1067 7.58469 68.4263 6.71019L68.859 8.72195L70.3207 15.4435H65.0662L65.0701 15.4474Z" fill="white"/>
</g>
<defs>
<clipPath id="clip0_27809_37345">
<rect width="78" height="24" fill="white"/>
</clipPath>
</defs>
</svg>
