<svg width="40" height="40" viewBox="0 0 40 40" fill="none" xmlns="http://www.w3.org/2000/svg">
<mask id="path-1-outside-1_25067_5380" maskUnits="userSpaceOnUse" x="10" y="8" width="19" height="22" fill="black">
<rect fill="white" x="10" y="8" width="19" height="22"/>
<path fill-rule="evenodd" clip-rule="evenodd" d="M11.4288 25.3371C11.3294 25.6525 11.3604 25.9989 11.5254 26.2985C11.7507 26.7071 12.1895 26.9623 12.6668 26.9623H17.4569C17.6571 27.9182 18.5284 28.6386 19.5714 28.6386C20.5004 28.6386 21.2931 28.0671 21.5969 27.2669C21.293 28.067 20.5004 28.6383 19.5715 28.6383C18.5285 28.6383 17.6572 27.9179 17.457 26.9621H12.6669C12.1896 26.9621 11.7507 26.7068 11.5255 26.2982C11.3605 25.9987 11.3295 25.6524 11.4288 25.3371ZM21.686 26.9623H26.4761C26.9534 26.9623 27.3922 26.7071 27.6175 26.2985C27.6457 26.2474 27.6699 26.1949 27.6903 26.1414C27.6699 26.1948 27.6457 26.2472 27.6176 26.2982C27.3923 26.7068 26.9534 26.9621 26.4762 26.9621H21.6861C21.686 26.9621 21.686 26.9622 21.686 26.9623ZM21.2978 12.7138C21.3837 12.6029 21.4584 12.4835 21.5204 12.3572C21.5567 12.2832 21.5887 12.2069 21.616 12.1285C21.542 12.3408 21.4338 12.538 21.2977 12.7138C21.2977 12.7138 21.2977 12.7138 21.2978 12.7138ZM17.5099 10.8369C17.4474 11.0328 17.4137 11.241 17.4137 11.4568C17.4137 11.779 17.4887 12.0843 17.6228 12.3572C17.6849 12.4835 17.7597 12.6029 17.8455 12.7138C17.8456 12.7138 17.8457 12.7138 17.8458 12.7138C17.5744 12.3634 17.4138 11.928 17.4138 11.4565C17.4138 11.2409 17.4474 11.0327 17.5099 10.8369ZM13.3062 15.9705C13.1711 16.3984 13.0983 16.8528 13.0983 17.3237V21.9217C13.0983 22.2147 13.0532 22.5043 12.9657 22.7813C13.0532 22.5042 13.0984 22.2145 13.0984 21.9215V17.3235C13.0984 16.8527 13.1711 16.3983 13.3062 15.9705ZM11.1972 26.4689C10.9073 25.9426 10.9388 25.3038 11.2801 24.8071L12.2811 23.3486C12.5713 22.9261 12.7261 22.4295 12.7261 21.9217V17.3237C12.7261 14.7806 14.6931 12.6835 17.23 12.3881C17.1085 12.1007 17.0415 11.7861 17.0415 11.4568C17.0415 10.1005 18.1748 9 19.5714 9C20.9681 9 22.1013 10.1005 22.1013 11.4568C22.1013 11.786 22.0346 12.1006 21.9132 12.3881C24.4501 12.6834 26.4167 14.7806 26.4167 17.3237V21.9217C26.4167 22.4295 26.5715 22.9259 26.8617 23.3484L27.8628 24.8071C28.2041 25.3037 28.2355 25.9427 27.9456 26.4691C27.6556 26.9952 27.0906 27.3237 26.4761 27.3237H21.9708C21.6345 28.2975 20.6873 29 19.5714 29C18.4556 29 17.5084 28.2975 17.1721 27.3237H12.6668C12.0523 27.3237 11.4872 26.9951 11.1972 26.4689ZM26.3783 24.8071L26.8351 25.4725C26.9042 25.573 26.9244 25.696 26.894 25.81C26.9244 25.696 26.9044 25.5728 26.8352 25.4723C26.8352 25.4723 26.6357 25.1817 26.3785 24.8071C26.2086 24.5596 26.0134 24.2753 25.834 24.0139C25.4085 23.3941 25.1815 22.6662 25.1815 21.9215V17.3235C25.1815 15.2403 23.4429 13.5519 21.2977 13.5519H17.8454C16.1003 13.5519 14.6242 14.6692 14.1343 16.2075C14.6243 14.6694 16.1003 13.5521 17.8453 13.5521H21.2976C23.4428 13.5521 25.1815 15.2405 25.1815 17.3237V21.9217C25.1815 22.6664 25.4084 23.3943 25.8339 24.0141L26.3783 24.8071ZM13.7883 23.0353C13.6785 23.3803 13.5176 23.7101 13.309 24.0139C13.1296 24.2753 12.9345 24.5596 12.7645 24.8071C12.5073 25.1818 12.3078 25.4723 12.3078 25.4723C12.284 25.507 12.2659 25.5444 12.2538 25.5832C12.2659 25.5445 12.2839 25.5071 12.3078 25.4725L12.7645 24.8071L13.3089 24.0141C13.5176 23.7103 13.6785 23.3804 13.7883 23.0353ZM14.3336 21.9217C14.3336 22.7378 14.0849 23.5355 13.6186 24.2146L13.2119 24.8071L12.6173 25.6732C12.6052 25.6909 12.604 25.7136 12.6143 25.7323C12.6246 25.7509 12.6447 25.7627 12.6668 25.7627H26.4761C26.4982 25.7627 26.5183 25.7509 26.5286 25.7323C26.5388 25.7136 26.5372 25.6901 26.5251 25.6724L25.931 24.8071L25.5242 24.2146C25.058 23.5354 24.8093 22.7378 24.8093 21.9217V17.3237C24.8093 15.4402 23.2372 13.9136 21.2976 13.9136H17.8453C15.9057 13.9136 14.3336 15.441 14.3336 17.3246V21.9217ZM18.3508 26.9623H20.7923C20.7923 26.9622 20.7923 26.9621 20.7923 26.9621H18.3507C18.3507 26.9621 18.3507 26.9622 18.3508 26.9623ZM19.5714 12.3525C19.0624 12.3525 18.649 11.9511 18.649 11.4568C18.649 10.9624 19.0624 10.561 19.5714 10.561C20.0805 10.561 20.4939 10.9624 20.4939 11.4568C20.4939 11.9511 20.0805 12.3525 19.5714 12.3525ZM18.3339 11.0866C18.4967 10.573 18.9894 10.1993 19.5715 10.1993C20.2861 10.1993 20.8661 10.7626 20.8661 11.4565C20.8661 11.5854 20.8462 11.7097 20.809 11.8267C20.8461 11.7097 20.8661 11.5855 20.8661 11.4568C20.8661 10.7628 20.2861 10.1996 19.5714 10.1996C18.9895 10.1996 18.4968 10.5731 18.3339 11.0866Z"/>
</mask>
<path fill-rule="evenodd" clip-rule="evenodd" d="M11.4288 25.3371C11.3294 25.6525 11.3604 25.9989 11.5254 26.2985C11.7507 26.7071 12.1895 26.9623 12.6668 26.9623H17.4569C17.6571 27.9182 18.5284 28.6386 19.5714 28.6386C20.5004 28.6386 21.2931 28.0671 21.5969 27.2669C21.293 28.067 20.5004 28.6383 19.5715 28.6383C18.5285 28.6383 17.6572 27.9179 17.457 26.9621H12.6669C12.1896 26.9621 11.7507 26.7068 11.5255 26.2982C11.3605 25.9987 11.3295 25.6524 11.4288 25.3371ZM21.686 26.9623H26.4761C26.9534 26.9623 27.3922 26.7071 27.6175 26.2985C27.6457 26.2474 27.6699 26.1949 27.6903 26.1414C27.6699 26.1948 27.6457 26.2472 27.6176 26.2982C27.3923 26.7068 26.9534 26.9621 26.4762 26.9621H21.6861C21.686 26.9621 21.686 26.9622 21.686 26.9623ZM21.2978 12.7138C21.3837 12.6029 21.4584 12.4835 21.5204 12.3572C21.5567 12.2832 21.5887 12.2069 21.616 12.1285C21.542 12.3408 21.4338 12.538 21.2977 12.7138C21.2977 12.7138 21.2977 12.7138 21.2978 12.7138ZM17.5099 10.8369C17.4474 11.0328 17.4137 11.241 17.4137 11.4568C17.4137 11.779 17.4887 12.0843 17.6228 12.3572C17.6849 12.4835 17.7597 12.6029 17.8455 12.7138C17.8456 12.7138 17.8457 12.7138 17.8458 12.7138C17.5744 12.3634 17.4138 11.928 17.4138 11.4565C17.4138 11.2409 17.4474 11.0327 17.5099 10.8369ZM13.3062 15.9705C13.1711 16.3984 13.0983 16.8528 13.0983 17.3237V21.9217C13.0983 22.2147 13.0532 22.5043 12.9657 22.7813C13.0532 22.5042 13.0984 22.2145 13.0984 21.9215V17.3235C13.0984 16.8527 13.1711 16.3983 13.3062 15.9705ZM11.1972 26.4689C10.9073 25.9426 10.9388 25.3038 11.2801 24.8071L12.2811 23.3486C12.5713 22.9261 12.7261 22.4295 12.7261 21.9217V17.3237C12.7261 14.7806 14.6931 12.6835 17.23 12.3881C17.1085 12.1007 17.0415 11.7861 17.0415 11.4568C17.0415 10.1005 18.1748 9 19.5714 9C20.9681 9 22.1013 10.1005 22.1013 11.4568C22.1013 11.786 22.0346 12.1006 21.9132 12.3881C24.4501 12.6834 26.4167 14.7806 26.4167 17.3237V21.9217C26.4167 22.4295 26.5715 22.9259 26.8617 23.3484L27.8628 24.8071C28.2041 25.3037 28.2355 25.9427 27.9456 26.4691C27.6556 26.9952 27.0906 27.3237 26.4761 27.3237H21.9708C21.6345 28.2975 20.6873 29 19.5714 29C18.4556 29 17.5084 28.2975 17.1721 27.3237H12.6668C12.0523 27.3237 11.4872 26.9951 11.1972 26.4689ZM26.3783 24.8071L26.8351 25.4725C26.9042 25.573 26.9244 25.696 26.894 25.81C26.9244 25.696 26.9044 25.5728 26.8352 25.4723C26.8352 25.4723 26.6357 25.1817 26.3785 24.8071C26.2086 24.5596 26.0134 24.2753 25.834 24.0139C25.4085 23.3941 25.1815 22.6662 25.1815 21.9215V17.3235C25.1815 15.2403 23.4429 13.5519 21.2977 13.5519H17.8454C16.1003 13.5519 14.6242 14.6692 14.1343 16.2075C14.6243 14.6694 16.1003 13.5521 17.8453 13.5521H21.2976C23.4428 13.5521 25.1815 15.2405 25.1815 17.3237V21.9217C25.1815 22.6664 25.4084 23.3943 25.8339 24.0141L26.3783 24.8071ZM13.7883 23.0353C13.6785 23.3803 13.5176 23.7101 13.309 24.0139C13.1296 24.2753 12.9345 24.5596 12.7645 24.8071C12.5073 25.1818 12.3078 25.4723 12.3078 25.4723C12.284 25.507 12.2659 25.5444 12.2538 25.5832C12.2659 25.5445 12.2839 25.5071 12.3078 25.4725L12.7645 24.8071L13.3089 24.0141C13.5176 23.7103 13.6785 23.3804 13.7883 23.0353ZM14.3336 21.9217C14.3336 22.7378 14.0849 23.5355 13.6186 24.2146L13.2119 24.8071L12.6173 25.6732C12.6052 25.6909 12.604 25.7136 12.6143 25.7323C12.6246 25.7509 12.6447 25.7627 12.6668 25.7627H26.4761C26.4982 25.7627 26.5183 25.7509 26.5286 25.7323C26.5388 25.7136 26.5372 25.6901 26.5251 25.6724L25.931 24.8071L25.5242 24.2146C25.058 23.5354 24.8093 22.7378 24.8093 21.9217V17.3237C24.8093 15.4402 23.2372 13.9136 21.2976 13.9136H17.8453C15.9057 13.9136 14.3336 15.441 14.3336 17.3246V21.9217ZM18.3508 26.9623H20.7923C20.7923 26.9622 20.7923 26.9621 20.7923 26.9621H18.3507C18.3507 26.9621 18.3507 26.9622 18.3508 26.9623ZM19.5714 12.3525C19.0624 12.3525 18.649 11.9511 18.649 11.4568C18.649 10.9624 19.0624 10.561 19.5714 10.561C20.0805 10.561 20.4939 10.9624 20.4939 11.4568C20.4939 11.9511 20.0805 12.3525 19.5714 12.3525ZM18.3339 11.0866C18.4967 10.573 18.9894 10.1993 19.5715 10.1993C20.2861 10.1993 20.8661 10.7626 20.8661 11.4565C20.8661 11.5854 20.8462 11.7097 20.809 11.8267C20.8461 11.7097 20.8661 11.5855 20.8661 11.4568C20.8661 10.7628 20.2861 10.1996 19.5714 10.1996C18.9895 10.1996 18.4968 10.5731 18.3339 11.0866Z" fill="#282828"/>
<path d="M26.3785 24.7571H26.3783V24.8571H26.3785V24.7571ZM25.931 24.7571L13.2119 24.7571L13.2119 24.8571L25.931 24.8571L25.931 24.7571ZM11.5254 26.2985L11.4378 26.3467L11.4378 26.3468L11.5254 26.2985ZM11.4288 25.3371L11.5242 25.3671L11.3335 25.307L11.4288 25.3371ZM17.4569 26.9623L17.5548 26.9418L17.5381 26.8623H17.4569V26.9623ZM21.5969 27.2669L21.6903 27.3023L21.5034 27.2314L21.5969 27.2669ZM17.457 26.9621L17.5549 26.9415L17.5382 26.8621H17.457V26.9621ZM11.5255 26.2982L11.4379 26.3465L11.4379 26.3465L11.5255 26.2982ZM21.686 26.9623L21.5881 26.942L21.5632 27.0623H21.686V26.9623ZM27.6175 26.2985L27.7051 26.3468L27.7051 26.3467L27.6175 26.2985ZM27.6903 26.1414L27.7837 26.177L27.5968 26.1058L27.6903 26.1414ZM27.6176 26.2982L27.7051 26.3465L27.7052 26.3465L27.6176 26.2982ZM21.6861 26.9621V26.8621H21.6047L21.5881 26.9418L21.6861 26.9621ZM21.5204 12.3572L21.4306 12.3131L21.4306 12.3131L21.5204 12.3572ZM21.2978 12.7138V12.8138H21.3468L21.3768 12.775L21.2978 12.7138ZM21.616 12.1285L21.7104 12.1613L21.5215 12.0956L21.616 12.1285ZM21.2977 12.7138L21.2186 12.6525L21.0937 12.8138H21.2977V12.7138ZM17.5099 10.8369L17.6051 10.8672L17.4146 10.8065L17.5099 10.8369ZM17.6228 12.3572L17.5331 12.4013V12.4013L17.6228 12.3572ZM17.8455 12.7138L17.7665 12.775L17.7965 12.8138H17.8455V12.7138ZM17.8458 12.7138V12.8138H18.0498L17.9248 12.6525L17.8458 12.7138ZM13.3062 15.9705L13.4016 16.0006L13.2109 15.9404L13.3062 15.9705ZM12.9657 22.7813L12.8704 22.7512L13.0611 22.8114L12.9657 22.7813ZM11.2801 24.8071L11.3625 24.8638L11.3625 24.8637L11.2801 24.8071ZM11.1972 26.4689L11.1096 26.5172L11.1096 26.5172L11.1972 26.4689ZM12.2811 23.3486L12.1986 23.292L12.1986 23.292L12.2811 23.3486ZM17.23 12.3881L17.2415 12.4875L17.374 12.472L17.3221 12.3492L17.23 12.3881ZM21.9132 12.3881L21.8211 12.3492L21.7692 12.472L21.9016 12.4874L21.9132 12.3881ZM26.8617 23.3484L26.9441 23.2918L26.9441 23.2918L26.8617 23.3484ZM27.8628 24.8071L27.7803 24.8637L27.7804 24.8637L27.8628 24.8071ZM27.9456 26.4691L28.0332 26.5174L28.0332 26.5173L27.9456 26.4691ZM21.9708 27.3237V27.2237H21.8995L21.8762 27.2911L21.9708 27.3237ZM17.1721 27.3237L17.2666 27.2911L17.2434 27.2237H17.1721V27.3237ZM26.8351 25.4725L26.7527 25.5291L26.7527 25.5292L26.8351 25.4725ZM26.3783 24.8071L26.4608 24.7505L26.3783 24.8071ZM26.894 25.81L26.7974 25.7843L26.9907 25.8358L26.894 25.81ZM26.8352 25.4723L26.7528 25.5289L26.7528 25.5289L26.8352 25.4723ZM26.3785 24.8071L26.2961 24.8637H26.2961L26.3785 24.8071ZM25.834 24.0139L25.9165 23.9573L25.9165 23.9573L25.834 24.0139ZM14.1343 16.2075L14.039 16.1772L14.2296 16.2379L14.1343 16.2075ZM25.8339 24.0141L25.7515 24.0707L25.8339 24.0141ZM13.309 24.0139L13.2266 23.9573L13.2266 23.9573L13.309 24.0139ZM13.7883 23.0353L13.8836 23.0656L13.693 23.005L13.7883 23.0353ZM12.3078 25.4723L12.3902 25.5289L12.3903 25.5289L12.3078 25.4723ZM12.2538 25.5832L12.1584 25.5533L12.3492 25.613L12.2538 25.5832ZM12.3078 25.4725L12.3902 25.5292L12.3902 25.5291L12.3078 25.4725ZM13.3089 24.0141L13.3914 24.0707L13.3914 24.0707L13.3089 24.0141ZM13.6186 24.2146L13.7011 24.2712L13.6186 24.2146ZM13.2119 24.8071L13.1294 24.7505H13.1294L13.2119 24.8071ZM12.6173 25.6732L12.6997 25.7299L12.6997 25.7298L12.6173 25.6732ZM12.6143 25.7323L12.5268 25.7806L12.5268 25.7806L12.6143 25.7323ZM26.5286 25.7323L26.6161 25.7806L26.6161 25.7806L26.5286 25.7323ZM26.5251 25.6724L26.4426 25.729L26.4426 25.7291L26.5251 25.6724ZM25.931 24.8071L25.8485 24.8637L25.931 24.8071ZM25.5242 24.2146L25.4418 24.2712L25.4418 24.2712L25.5242 24.2146ZM20.7923 26.9623V27.0623H20.8622L20.8862 26.9966L20.7923 26.9623ZM18.3508 26.9623L18.2569 26.9966L18.2809 27.0623H18.3508V26.9623ZM20.7923 26.9621L20.8863 26.9964L20.9354 26.8621H20.7923V26.9621ZM18.3507 26.9621V26.8621H18.2076L18.2568 26.9964L18.3507 26.9621ZM18.3339 11.0866L18.2386 11.0564L18.4292 11.1169L18.3339 11.0866ZM20.809 11.8267L20.7137 11.7965L20.9044 11.8569L20.809 11.8267ZM11.613 26.2502C11.4613 25.9748 11.4329 25.6568 11.5242 25.3672L11.3335 25.307C11.2259 25.6483 11.2595 26.0229 11.4378 26.3467L11.613 26.2502ZM12.6668 26.8623C12.2249 26.8623 11.8201 26.626 11.613 26.2502L11.4378 26.3468C11.6812 26.7882 12.1541 27.0623 12.6668 27.0623V26.8623ZM17.4569 26.8623H12.6668V27.0623H17.4569V26.8623ZM19.5714 28.5386C18.5747 28.5386 17.7451 27.8504 17.5548 26.9418L17.359 26.9828C17.5692 27.986 18.4821 28.7386 19.5714 28.7386V28.5386ZM21.5034 27.2314C21.2144 27.9928 20.4589 28.5386 19.5714 28.5386V28.7386C20.5419 28.7386 21.3718 28.1415 21.6903 27.3023L21.5034 27.2314ZM19.5715 28.7383C20.5419 28.7383 21.3718 28.1414 21.6903 27.3023L21.5034 27.2314C21.2143 27.9926 20.4589 28.5383 19.5715 28.5383V28.7383ZM17.3591 26.9826C17.5692 27.9857 18.4822 28.7383 19.5715 28.7383V28.5383C18.5748 28.5383 17.7452 27.8502 17.5549 26.9415L17.3591 26.9826ZM12.6669 27.0621H17.457V26.8621H12.6669V27.0621ZM11.4379 26.3465C11.6812 26.7879 12.1542 27.0621 12.6669 27.0621V26.8621C12.225 26.8621 11.8202 26.6257 11.613 26.25L11.4379 26.3465ZM11.3335 25.3071C11.226 25.6482 11.2596 26.0228 11.4379 26.3465L11.6131 26.25C11.4614 25.9746 11.433 25.6567 11.5242 25.3671L11.3335 25.3071ZM26.4761 26.8623H21.686V27.0623H26.4761V26.8623ZM27.5299 26.2502C27.3228 26.626 26.918 26.8623 26.4761 26.8623V27.0623C26.9887 27.0623 27.4617 26.7882 27.7051 26.3468L27.5299 26.2502ZM27.5968 26.1058C27.5781 26.1549 27.5558 26.2032 27.5299 26.2502L27.7051 26.3467C27.7355 26.2915 27.7617 26.2348 27.7837 26.177L27.5968 26.1058ZM27.7052 26.3465C27.7355 26.2914 27.7617 26.2348 27.7837 26.177L27.5968 26.1058C27.5781 26.1548 27.5559 26.203 27.53 26.25L27.7052 26.3465ZM26.4762 27.0621C26.9888 27.0621 27.4618 26.7879 27.7051 26.3465L27.53 26.25C27.3228 26.6257 26.9181 26.8621 26.4762 26.8621V27.0621ZM21.6861 27.0621H26.4762V26.8621H21.6861V27.0621ZM21.7839 26.9826L21.784 26.9824L21.5881 26.9418L21.5881 26.942L21.7839 26.9826ZM21.4306 12.3131C21.3716 12.4333 21.3005 12.5469 21.2187 12.6525L21.3768 12.775C21.4668 12.6589 21.5451 12.5337 21.6102 12.4012L21.4306 12.3131ZM21.5215 12.0956C21.4956 12.1701 21.4652 12.2427 21.4306 12.3131L21.6102 12.4012C21.6482 12.3237 21.6818 12.2436 21.7104 12.1613L21.5215 12.0956ZM21.3767 12.775C21.5194 12.5909 21.6328 12.3842 21.7104 12.1614L21.5215 12.0956C21.4512 12.2975 21.3483 12.4851 21.2186 12.6525L21.3767 12.775ZM21.2978 12.6138C21.2978 12.6138 21.2978 12.6138 21.2978 12.6138C21.2978 12.6138 21.2978 12.6138 21.2978 12.6138H21.2978C21.2978 12.6138 21.2978 12.6138 21.2978 12.6138H21.2978C21.2978 12.6138 21.2978 12.6138 21.2978 12.6138C21.2978 12.6138 21.2978 12.6138 21.2978 12.6138H21.2978C21.2978 12.6138 21.2978 12.6138 21.2978 12.6138H21.2978C21.2978 12.6138 21.2978 12.6138 21.2978 12.6138C21.2978 12.6138 21.2978 12.6138 21.2978 12.6138H21.2978C21.2978 12.6138 21.2978 12.6138 21.2978 12.6138H21.2978C21.2978 12.6138 21.2978 12.6138 21.2978 12.6138C21.2978 12.6138 21.2978 12.6138 21.2978 12.6138C21.2978 12.6138 21.2978 12.6138 21.2978 12.6138C21.2978 12.6138 21.2978 12.6138 21.2978 12.6138H21.2978C21.2978 12.6138 21.2978 12.6138 21.2978 12.6138H21.2978C21.2978 12.6138 21.2978 12.6138 21.2978 12.6138C21.2978 12.6138 21.2978 12.6138 21.2978 12.6138C21.2978 12.6138 21.2978 12.6138 21.2978 12.6138C21.2978 12.6138 21.2978 12.6138 21.2978 12.6138H21.2978C21.2978 12.6138 21.2978 12.6138 21.2978 12.6138H21.2978C21.2978 12.6138 21.2978 12.6138 21.2978 12.6138C21.2978 12.6138 21.2978 12.6138 21.2978 12.6138C21.2978 12.6138 21.2978 12.6138 21.2978 12.6138C21.2978 12.6138 21.2978 12.6138 21.2978 12.6138H21.2977C21.2977 12.6138 21.2977 12.6138 21.2977 12.6138H21.2977C21.2977 12.6138 21.2977 12.6138 21.2977 12.6138H21.2977C21.2977 12.6138 21.2977 12.6138 21.2977 12.6138C21.2977 12.6138 21.2977 12.6138 21.2977 12.6138C21.2977 12.6138 21.2977 12.6138 21.2977 12.6138C21.2977 12.6138 21.2977 12.6138 21.2977 12.6138H21.2977C21.2977 12.6138 21.2977 12.6138 21.2977 12.6138H21.2977C21.2977 12.6138 21.2977 12.6138 21.2977 12.6138H21.2977C21.2977 12.6138 21.2977 12.6138 21.2977 12.6138C21.2977 12.6138 21.2977 12.6138 21.2977 12.6138C21.2977 12.6138 21.2977 12.6138 21.2977 12.6138C21.2977 12.6138 21.2977 12.6138 21.2977 12.6138H21.2977C21.2977 12.6138 21.2977 12.6138 21.2977 12.6138H21.2977C21.2977 12.6138 21.2977 12.6138 21.2977 12.6138H21.2977C21.2977 12.6138 21.2977 12.6138 21.2977 12.6138C21.2977 12.6138 21.2977 12.6138 21.2977 12.6138C21.2977 12.6138 21.2977 12.6138 21.2977 12.6138C21.2977 12.6138 21.2977 12.6138 21.2977 12.6138C21.2977 12.6138 21.2977 12.6138 21.2977 12.6138C21.2977 12.6138 21.2977 12.6138 21.2977 12.6138H21.2977C21.2977 12.6138 21.2977 12.6138 21.2977 12.6138H21.2977C21.2977 12.6138 21.2977 12.6138 21.2977 12.6138H21.2977C21.2977 12.6138 21.2977 12.6138 21.2977 12.6138C21.2977 12.6138 21.2977 12.6138 21.2977 12.6138C21.2977 12.6138 21.2977 12.6138 21.2977 12.6138C21.2977 12.6138 21.2977 12.6138 21.2977 12.6138H21.2977C21.2977 12.6138 21.2977 12.6138 21.2977 12.6138H21.2977C21.2977 12.6138 21.2977 12.6138 21.2977 12.6138H21.2977C21.2977 12.6138 21.2977 12.6138 21.2977 12.6138C21.2977 12.6138 21.2977 12.6138 21.2977 12.6138C21.2977 12.6138 21.2977 12.6138 21.2977 12.6138C21.2977 12.6138 21.2977 12.6138 21.2977 12.6138H21.2977C21.2977 12.6138 21.2977 12.6138 21.2977 12.6138H21.2977C21.2977 12.6138 21.2977 12.6138 21.2977 12.6138C21.2977 12.6138 21.2977 12.6138 21.2977 12.6138C21.2977 12.6138 21.2977 12.6138 21.2977 12.6138C21.2977 12.6138 21.2977 12.6138 21.2977 12.6138H21.2977C21.2977 12.6138 21.2977 12.6138 21.2977 12.6138H21.2977C21.2977 12.6138 21.2977 12.6138 21.2977 12.6138C21.2977 12.6138 21.2977 12.6138 21.2977 12.6138C21.2977 12.6138 21.2977 12.6138 21.2977 12.6138C21.2977 12.6138 21.2977 12.6138 21.2977 12.6138H21.2977C21.2977 12.6138 21.2977 12.6138 21.2977 12.6138H21.2977C21.2977 12.6138 21.2977 12.6138 21.2977 12.6138C21.2977 12.6138 21.2977 12.6138 21.2977 12.6138H21.2977C21.2977 12.6138 21.2977 12.6138 21.2977 12.6138H21.2977C21.2977 12.6138 21.2977 12.6138 21.2977 12.6138C21.2977 12.6138 21.2977 12.6138 21.2977 12.6138C21.2977 12.6138 21.2977 12.6138 21.2977 12.6138C21.2977 12.6138 21.2977 12.6138 21.2977 12.6138H21.2977C21.2977 12.6138 21.2977 12.6138 21.2977 12.6138C21.2977 12.6138 21.2977 12.6138 21.2977 12.6138H21.2977C21.2977 12.6138 21.2977 12.6138 21.2977 12.6138H21.2977V12.8138H21.2977C21.2977 12.8138 21.2977 12.8138 21.2977 12.8138H21.2977C21.2977 12.8138 21.2977 12.8138 21.2977 12.8138C21.2977 12.8138 21.2977 12.8138 21.2977 12.8138H21.2977C21.2977 12.8138 21.2977 12.8138 21.2977 12.8138C21.2977 12.8138 21.2977 12.8138 21.2977 12.8138C21.2977 12.8138 21.2977 12.8138 21.2977 12.8138C21.2977 12.8138 21.2977 12.8138 21.2977 12.8138H21.2977C21.2977 12.8138 21.2977 12.8138 21.2977 12.8138H21.2977C21.2977 12.8138 21.2977 12.8138 21.2977 12.8138C21.2977 12.8138 21.2977 12.8138 21.2977 12.8138H21.2977C21.2977 12.8138 21.2977 12.8138 21.2977 12.8138H21.2977C21.2977 12.8138 21.2977 12.8138 21.2977 12.8138C21.2977 12.8138 21.2977 12.8138 21.2977 12.8138C21.2977 12.8138 21.2977 12.8138 21.2977 12.8138C21.2977 12.8138 21.2977 12.8138 21.2977 12.8138H21.2977C21.2977 12.8138 21.2977 12.8138 21.2977 12.8138H21.2977C21.2977 12.8138 21.2977 12.8138 21.2977 12.8138C21.2977 12.8138 21.2977 12.8138 21.2977 12.8138C21.2977 12.8138 21.2977 12.8138 21.2977 12.8138C21.2977 12.8138 21.2977 12.8138 21.2977 12.8138H21.2977C21.2977 12.8138 21.2977 12.8138 21.2977 12.8138H21.2977C21.2977 12.8138 21.2977 12.8138 21.2977 12.8138C21.2977 12.8138 21.2977 12.8138 21.2977 12.8138C21.2977 12.8138 21.2977 12.8138 21.2977 12.8138C21.2977 12.8138 21.2977 12.8138 21.2977 12.8138H21.2977C21.2977 12.8138 21.2977 12.8138 21.2977 12.8138H21.2977C21.2977 12.8138 21.2977 12.8138 21.2977 12.8138H21.2977C21.2977 12.8138 21.2977 12.8138 21.2977 12.8138C21.2977 12.8138 21.2977 12.8138 21.2977 12.8138C21.2977 12.8138 21.2977 12.8138 21.2977 12.8138C21.2977 12.8138 21.2977 12.8138 21.2977 12.8138H21.2977C21.2977 12.8138 21.2977 12.8138 21.2977 12.8138H21.2977C21.2977 12.8138 21.2977 12.8138 21.2977 12.8138H21.2977C21.2977 12.8138 21.2977 12.8138 21.2977 12.8138C21.2977 12.8138 21.2977 12.8138 21.2977 12.8138C21.2977 12.8138 21.2977 12.8138 21.2977 12.8138C21.2977 12.8138 21.2977 12.8138 21.2977 12.8138C21.2977 12.8138 21.2977 12.8138 21.2977 12.8138C21.2977 12.8138 21.2977 12.8138 21.2977 12.8138H21.2977C21.2977 12.8138 21.2977 12.8138 21.2977 12.8138H21.2977C21.2977 12.8138 21.2977 12.8138 21.2977 12.8138H21.2977C21.2977 12.8138 21.2977 12.8138 21.2977 12.8138C21.2977 12.8138 21.2977 12.8138 21.2977 12.8138C21.2977 12.8138 21.2977 12.8138 21.2977 12.8138C21.2977 12.8138 21.2977 12.8138 21.2977 12.8138H21.2977C21.2977 12.8138 21.2977 12.8138 21.2977 12.8138H21.2977C21.2977 12.8138 21.2977 12.8138 21.2977 12.8138H21.2977C21.2977 12.8138 21.2977 12.8138 21.2977 12.8138C21.2977 12.8138 21.2977 12.8138 21.2977 12.8138C21.2977 12.8138 21.2977 12.8138 21.2977 12.8138C21.2977 12.8138 21.2977 12.8138 21.2977 12.8138H21.2977C21.2977 12.8138 21.2977 12.8138 21.2977 12.8138H21.2977C21.2977 12.8138 21.2977 12.8138 21.2977 12.8138H21.2978C21.2978 12.8138 21.2978 12.8138 21.2978 12.8138C21.2978 12.8138 21.2978 12.8138 21.2978 12.8138C21.2978 12.8138 21.2978 12.8138 21.2978 12.8138C21.2978 12.8138 21.2978 12.8138 21.2978 12.8138H21.2978C21.2978 12.8138 21.2978 12.8138 21.2978 12.8138H21.2978C21.2978 12.8138 21.2978 12.8138 21.2978 12.8138C21.2978 12.8138 21.2978 12.8138 21.2978 12.8138C21.2978 12.8138 21.2978 12.8138 21.2978 12.8138C21.2978 12.8138 21.2978 12.8138 21.2978 12.8138H21.2978C21.2978 12.8138 21.2978 12.8138 21.2978 12.8138H21.2978C21.2978 12.8138 21.2978 12.8138 21.2978 12.8138C21.2978 12.8138 21.2978 12.8138 21.2978 12.8138C21.2978 12.8138 21.2978 12.8138 21.2978 12.8138C21.2978 12.8138 21.2978 12.8138 21.2978 12.8138H21.2978C21.2978 12.8138 21.2978 12.8138 21.2978 12.8138H21.2978C21.2978 12.8138 21.2978 12.8138 21.2978 12.8138C21.2978 12.8138 21.2978 12.8138 21.2978 12.8138H21.2978C21.2978 12.8138 21.2978 12.8138 21.2978 12.8138H21.2978C21.2978 12.8138 21.2978 12.8138 21.2978 12.8138C21.2978 12.8138 21.2978 12.8138 21.2978 12.8138H21.2978C21.2978 12.8138 21.2978 12.8138 21.2978 12.8138H21.2978C21.2978 12.8138 21.2978 12.8138 21.2978 12.8138C21.2978 12.8138 21.2978 12.8138 21.2978 12.8138V12.6138ZM17.5137 11.4568C17.5137 11.2515 17.5457 11.0535 17.6051 10.8673L17.4146 10.8065C17.349 11.0121 17.3137 11.2305 17.3137 11.4568H17.5137ZM17.7126 12.3131C17.585 12.0536 17.5137 11.7633 17.5137 11.4568H17.3137C17.3137 11.7947 17.3924 12.1151 17.5331 12.4013L17.7126 12.3131ZM17.9246 12.6525C17.8428 12.5469 17.7716 12.4333 17.7126 12.3131L17.5331 12.4013C17.5982 12.5338 17.6765 12.6589 17.7665 12.775L17.9246 12.6525ZM17.8458 12.6138L17.8455 12.6138V12.8138L17.8458 12.8138V12.6138ZM17.3138 11.4565C17.3138 11.9512 17.4823 12.4079 17.7667 12.775L17.9248 12.6525C17.6664 12.3189 17.5138 11.9048 17.5138 11.4565H17.3138ZM17.4146 10.8065C17.3491 11.012 17.3138 11.2304 17.3138 11.4565H17.5138C17.5138 11.2513 17.5458 11.0534 17.6051 10.8672L17.4146 10.8065ZM13.1983 17.3237C13.1983 16.8632 13.2695 16.4189 13.4016 16.0006L13.2109 15.9404C13.0727 16.3779 12.9983 16.8425 12.9983 17.3237H13.1983ZM13.1983 21.9217V17.3237H12.9983V21.9217H13.1983ZM13.0611 22.8114C13.1516 22.5247 13.1983 22.225 13.1983 21.9217H12.9983C12.9983 22.2044 12.9548 22.4838 12.8704 22.7512L13.0611 22.8114ZM12.9984 21.9215C12.9984 22.2042 12.9548 22.4838 12.8704 22.7512L13.0611 22.8114C13.1517 22.5246 13.1984 22.2248 13.1984 21.9215H12.9984ZM12.9984 17.3235V21.9215H13.1984V17.3235H12.9984ZM13.2109 15.9404C13.0727 16.3778 12.9984 16.8423 12.9984 17.3235H13.1984C13.1984 16.863 13.2695 16.4188 13.4016 16.0006L13.2109 15.9404ZM11.1977 24.7505C10.835 25.2783 10.8014 25.9577 11.1096 26.5172L11.2848 26.4207C11.0132 25.9275 11.0426 25.3293 11.3625 24.8638L11.1977 24.7505ZM11.3625 24.8637L12.3635 23.4052L12.1986 23.292L11.1976 24.7506L11.3625 24.8637ZM12.3635 23.4052C12.665 22.9662 12.8261 22.45 12.8261 21.9217H12.6261C12.6261 22.4091 12.4775 22.886 12.1986 23.292L12.3635 23.4052ZM12.8261 21.9217V17.3237H12.6261V21.9217H12.8261ZM12.8261 17.3237C12.8261 14.8343 14.7521 12.7773 17.2415 12.4875L17.2184 12.2888C14.634 12.5897 12.6261 14.727 12.6261 17.3237H12.8261ZM17.3221 12.3492C17.2057 12.0738 17.1415 11.7724 17.1415 11.4568H16.9415C16.9415 11.7997 17.0113 12.1276 17.1379 12.4271L17.3221 12.3492ZM17.1415 11.4568C17.1415 10.1585 18.2273 9.1 19.5714 9.1V8.9C18.1224 8.9 16.9415 10.0426 16.9415 11.4568H17.1415ZM19.5714 9.1C20.9156 9.1 22.0013 10.1585 22.0013 11.4568H22.2013C22.2013 10.0426 21.0205 8.9 19.5714 8.9V9.1ZM22.0013 11.4568C22.0013 11.7723 21.9374 12.0738 21.8211 12.3492L22.0053 12.427C22.1318 12.1274 22.2013 11.7996 22.2013 11.4568H22.0013ZM21.9016 12.4874C24.3911 12.7772 26.3167 14.8342 26.3167 17.3237H26.5167C26.5167 14.727 24.5092 12.5896 21.9248 12.2888L21.9016 12.4874ZM26.3167 17.3237V21.9217H26.5167V17.3237H26.3167ZM26.3167 21.9217C26.3167 22.4499 26.4777 22.966 26.7792 23.405L26.9441 23.2918C26.6653 22.8858 26.5167 22.4091 26.5167 21.9217H26.3167ZM26.7792 23.405L27.7803 24.8637L27.9452 24.7505L26.9441 23.2918L26.7792 23.405ZM28.0332 26.5173C28.3414 25.9578 28.3079 25.2782 27.9452 24.7505L27.7804 24.8637C28.1003 25.3293 28.1297 25.9276 27.858 26.4208L28.0332 26.5173ZM26.4761 27.4237C27.126 27.4237 27.7251 27.0763 28.0332 26.5174L27.8581 26.4208C27.5861 26.9141 27.0552 27.2237 26.4761 27.2237V27.4237ZM21.9708 27.4237H26.4761V27.2237H21.9708V27.4237ZM19.5714 29.1C20.7297 29.1 21.715 28.3706 22.0653 27.3564L21.8762 27.2911C21.554 28.2243 20.6448 28.9 19.5714 28.9V29.1ZM17.0776 27.3564C17.4278 28.3706 18.4132 29.1 19.5714 29.1V28.9C18.4981 28.9 17.5889 28.2243 17.2666 27.2911L17.0776 27.3564ZM12.6668 27.4237H17.1721V27.2237H12.6668V27.4237ZM11.1096 26.5172C11.4177 27.0761 12.0169 27.4237 12.6668 27.4237V27.2237C12.0877 27.2237 11.5567 26.914 11.2848 26.4207L11.1096 26.5172ZM26.9176 25.4159L26.4608 24.7505L26.2959 24.8637L26.7527 25.5291L26.9176 25.4159ZM26.9907 25.8357C27.0285 25.6937 27.0033 25.5406 26.9175 25.4158L26.7527 25.5292C26.8052 25.6055 26.8203 25.6984 26.7974 25.7843L26.9907 25.8357ZM26.7528 25.5289C26.8053 25.6053 26.8203 25.6983 26.7974 25.7842L26.9907 25.8358C27.0285 25.6937 27.0034 25.5404 26.9176 25.4156L26.7528 25.5289ZM26.2961 24.8637C26.4247 25.051 26.5388 25.2173 26.6209 25.3368C26.6619 25.3965 26.6948 25.4445 26.7176 25.4776C26.7289 25.4942 26.7377 25.507 26.7437 25.5157C26.7467 25.52 26.7489 25.5233 26.7505 25.5255C26.7512 25.5266 26.7518 25.5275 26.7522 25.528C26.7524 25.5283 26.7525 25.5285 26.7526 25.5287C26.7527 25.5287 26.7527 25.5288 26.7527 25.5288C26.7527 25.5288 26.7527 25.5289 26.7528 25.5289C26.7528 25.5289 26.7528 25.5289 26.7528 25.5289C26.7528 25.5289 26.7528 25.5289 26.8352 25.4723C26.9176 25.4157 26.9176 25.4157 26.9176 25.4157C26.9176 25.4157 26.9176 25.4156 26.9176 25.4156C26.9176 25.4156 26.9176 25.4156 26.9176 25.4156C26.9176 25.4156 26.9175 25.4155 26.9175 25.4154C26.9174 25.4153 26.9172 25.4151 26.9171 25.4148C26.9167 25.4143 26.9161 25.4134 26.9153 25.4123C26.9138 25.4101 26.9115 25.4068 26.9086 25.4024C26.9026 25.3938 26.8938 25.381 26.8824 25.3644C26.8597 25.3313 26.8267 25.2833 26.7857 25.2236C26.7037 25.1041 26.5895 24.9378 26.4609 24.7505L26.2961 24.8637ZM25.7516 24.0705C25.931 24.3319 26.1261 24.6162 26.2961 24.8637L26.4609 24.7505C26.291 24.503 26.0959 24.2187 25.9165 23.9573L25.7516 24.0705ZM25.0815 21.9215C25.0815 22.6866 25.3148 23.4342 25.7516 24.0705L25.9165 23.9573C25.5023 23.354 25.2815 22.6458 25.2815 21.9215H25.0815ZM25.0815 17.3235V21.9215H25.2815V17.3235H25.0815ZM21.2977 13.6519C23.3904 13.6519 25.0815 15.2983 25.0815 17.3235H25.2815C25.2815 15.1823 23.4953 13.4519 21.2977 13.4519V13.6519ZM17.8454 13.6519H21.2977V13.4519H17.8454V13.6519ZM14.2296 16.2379C14.7061 14.7415 16.1434 13.6519 17.8454 13.6519V13.4519C16.0571 13.4519 14.5422 14.597 14.039 16.1772L14.2296 16.2379ZM17.8453 13.4521C16.0571 13.4521 14.5423 14.5972 14.039 16.1772L14.2296 16.2379C14.7062 14.7416 16.1434 13.6521 17.8453 13.6521V13.4521ZM21.2976 13.4521H17.8453V13.6521H21.2976V13.4521ZM25.2815 17.3237C25.2815 15.1826 23.4952 13.4521 21.2976 13.4521V13.6521C23.3903 13.6521 25.0815 15.2985 25.0815 17.3237H25.2815ZM25.2815 21.9217V17.3237H25.0815V21.9217H25.2815ZM25.9164 23.9575C25.5022 23.3542 25.2815 22.646 25.2815 21.9217H25.0815C25.0815 22.6868 25.3147 23.4345 25.7515 24.0707L25.9164 23.9575ZM26.4608 24.7505L25.9164 23.9575L25.7515 24.0707L26.2959 24.8637L26.4608 24.7505ZM13.3915 24.0705C13.6056 23.7586 13.7708 23.42 13.8836 23.0656L13.693 23.005C13.5861 23.3406 13.4296 23.6616 13.2266 23.9573L13.3915 24.0705ZM12.847 24.8637C13.0169 24.6162 13.212 24.3319 13.3915 24.0705L13.2266 23.9573C13.0471 24.2188 12.852 24.503 12.6821 24.7505L12.847 24.8637ZM12.3078 25.4723C12.3903 25.5289 12.3903 25.5289 12.3903 25.5289C12.3903 25.5289 12.3903 25.5289 12.3903 25.5289C12.3903 25.5289 12.3903 25.5288 12.3903 25.5288C12.3903 25.5288 12.3904 25.5287 12.3904 25.5287C12.3905 25.5285 12.3907 25.5283 12.3909 25.528C12.3912 25.5275 12.3918 25.5266 12.3926 25.5255C12.3941 25.5233 12.3964 25.52 12.3993 25.5157C12.4053 25.507 12.4141 25.4942 12.4255 25.4776C12.4482 25.4445 12.4812 25.3965 12.5222 25.3368C12.6042 25.2173 12.7184 25.0511 12.847 24.8637L12.6821 24.7505C12.5535 24.9379 12.4393 25.1041 12.3573 25.2236C12.3163 25.2833 12.2833 25.3313 12.2606 25.3644C12.2492 25.381 12.2404 25.3938 12.2345 25.4024C12.2315 25.4068 12.2292 25.4101 12.2277 25.4123C12.2269 25.4134 12.2264 25.4143 12.226 25.4148C12.2258 25.4151 12.2256 25.4153 12.2255 25.4154C12.2255 25.4155 12.2255 25.4156 12.2254 25.4156C12.2254 25.4156 12.2254 25.4156 12.2254 25.4156C12.2254 25.4156 12.2254 25.4157 12.2254 25.4157C12.2254 25.4157 12.2254 25.4157 12.3078 25.4723ZM12.3493 25.613C12.3584 25.5837 12.3721 25.5554 12.3902 25.5289L12.2254 25.4156C12.1959 25.4586 12.1735 25.505 12.1584 25.5533L12.3493 25.613ZM12.2254 25.4158C12.1959 25.4588 12.1735 25.5051 12.1584 25.5533L12.3492 25.613C12.3584 25.5838 12.372 25.5555 12.3902 25.5292L12.2254 25.4158ZM12.6821 24.7505L12.2253 25.4159L12.3902 25.5291L12.847 24.8637L12.6821 24.7505ZM13.2265 23.9575L12.6821 24.7505L12.847 24.8637L13.3914 24.0707L13.2265 23.9575ZM13.693 23.005C13.5861 23.3407 13.4296 23.6617 13.2265 23.9575L13.3914 24.0707C13.6055 23.7588 13.7708 23.4201 13.8836 23.0656L13.693 23.005ZM13.7011 24.2712C14.1786 23.5756 14.4336 22.7582 14.4336 21.9217H14.2336C14.2336 22.7174 13.9911 23.4954 13.5362 24.158L13.7011 24.2712ZM13.2943 24.8637L13.7011 24.2712L13.5362 24.158L13.1294 24.7505L13.2943 24.8637ZM12.6997 25.7298L13.2943 24.8637L13.1294 24.7505L12.5349 25.6166L12.6997 25.7298ZM12.7019 25.684C12.71 25.6986 12.7089 25.7164 12.6997 25.7299L12.5349 25.6166C12.5014 25.6653 12.4981 25.7287 12.5268 25.7806L12.7019 25.684ZM12.6668 25.6627C12.6801 25.6627 12.6941 25.6698 12.7019 25.684L12.5268 25.7806C12.5551 25.832 12.6093 25.8627 12.6668 25.8627V25.6627ZM26.4761 25.6627H12.6668V25.8627H26.4761V25.6627ZM26.441 25.684C26.4488 25.6698 26.4628 25.6627 26.4761 25.6627V25.8627C26.5335 25.8627 26.5878 25.832 26.6161 25.7806L26.441 25.684ZM26.4426 25.7291C26.4345 25.7172 26.4321 25.7002 26.441 25.684L26.6161 25.7806C26.6456 25.7271 26.6399 25.663 26.6075 25.6158L26.4426 25.7291ZM25.8485 24.8637L26.4426 25.729L26.6075 25.6159L26.0134 24.7505L25.8485 24.8637ZM25.4418 24.2712L25.8485 24.8637L26.0134 24.7505L25.6067 24.158L25.4418 24.2712ZM24.7093 21.9217C24.7093 22.7582 24.9642 23.5756 25.4418 24.2712L25.6067 24.158C25.1518 23.4953 24.9093 22.7174 24.9093 21.9217H24.7093ZM24.7093 17.3237V21.9217H24.9093V17.3237H24.7093ZM21.2976 14.0136C23.1848 14.0136 24.7093 15.4981 24.7093 17.3237H24.9093C24.9093 15.3822 23.2897 13.8136 21.2976 13.8136V14.0136ZM17.8453 14.0136H21.2976V13.8136H17.8453V14.0136ZM14.4336 17.3246C14.4336 15.499 15.9581 14.0136 17.8453 14.0136V13.8136C15.8532 13.8136 14.2336 15.3831 14.2336 17.3246H14.4336ZM14.4336 21.9217V17.3246H14.2336V21.9217H14.4336ZM20.7923 26.8623H18.3508V27.0623H20.7923V26.8623ZM20.6984 26.9277L20.6984 26.9279L20.8862 26.9966L20.8863 26.9964L20.6984 26.9277ZM18.3507 27.0621H20.7923V26.8621H18.3507V27.0621ZM18.4447 26.9279L18.4446 26.9277L18.2568 26.9964L18.2569 26.9966L18.4447 26.9279ZM18.549 11.4568C18.549 12.0091 19.0099 12.4525 19.5714 12.4525V12.2525C19.1148 12.2525 18.749 11.8932 18.749 11.4568H18.549ZM19.5714 10.461C19.0099 10.461 18.549 10.9045 18.549 11.4568H18.749C18.749 11.0204 19.1148 10.661 19.5714 10.661V10.461ZM20.5939 11.4568C20.5939 10.9045 20.133 10.461 19.5714 10.461V10.661C20.0281 10.661 20.3939 11.0204 20.3939 11.4568H20.5939ZM19.5714 12.4525C20.133 12.4525 20.5939 12.0091 20.5939 11.4568H20.3939C20.3939 11.8932 20.0281 12.2525 19.5714 12.2525V12.4525ZM18.4292 11.1168C18.5787 10.6451 19.0327 10.2993 19.5715 10.2993V10.0993C18.9462 10.0993 18.4146 10.5009 18.2386 11.0564L18.4292 11.1168ZM19.5715 10.2993C20.2337 10.2993 20.7661 10.8205 20.7661 11.4565H20.9661C20.9661 10.7046 20.3386 10.0993 19.5715 10.0993V10.2993ZM20.7661 11.4565C20.7661 11.575 20.7478 11.6891 20.7137 11.7965L20.9044 11.8569C20.9445 11.7303 20.9661 11.5958 20.9661 11.4565H20.7661ZM20.9044 11.8569C20.9445 11.7303 20.9661 11.5959 20.9661 11.4568H20.7661C20.7661 11.5751 20.7477 11.6891 20.7137 11.7965L20.9044 11.8569ZM20.9661 11.4568C20.9661 10.7048 20.3385 10.0996 19.5714 10.0996V10.2996C20.2336 10.2996 20.7661 10.8208 20.7661 11.4568H20.9661ZM19.5714 10.0996C18.9462 10.0996 18.4147 10.501 18.2386 11.0564L18.4292 11.1169C18.5788 10.6453 19.0327 10.2996 19.5714 10.2996V10.0996Z" fill="#282828" mask="url(#path-1-outside-1_25067_5380)"/>
<circle cx="20" cy="20" r="19.5" stroke="#282828"/>
</svg>
