<svg width="40" height="40" viewBox="0 0 40 40" fill="none" xmlns="http://www.w3.org/2000/svg">
<path d="M33.7082 11.7376C33.5617 11.5444 33.3311 11.4322 33.0881 11.4322H16.6732C16.427 11.4322 16.1933 11.5506 16.0469 11.7469C15.9004 11.9463 15.8568 12.2018 15.9285 12.4387L18.3589 20.4218C18.4586 20.7489 18.7609 20.9733 19.1036 20.9733H26.797C27.1553 20.9733 27.4669 20.7302 27.5541 20.3844L28.7351 15.6543C28.8379 15.2368 28.5855 14.813 28.168 14.7102C27.7505 14.6043 27.3267 14.8598 27.2239 15.2773L26.1894 19.4184H23.8555V15.458C23.8555 15.028 23.5065 14.679 23.0765 14.679C22.6465 14.679 22.2975 15.028 22.2975 15.458V19.4184H19.6801L17.7233 12.9933H32.0661L28.9376 24.3946H16.8415L10.7934 6.36564C10.703 6.10078 10.4818 5.90447 10.2044 5.84839L6.14123 5.04447C5.72057 4.96034 5.30926 5.23454 5.22513 5.65831C5.141 6.07897 5.41521 6.49028 5.83898 6.57441L9.45973 7.28796L15.5421 25.4167C15.648 25.7345 15.9472 25.9495 16.2806 25.9495H29.5328C29.8849 25.9495 30.1903 25.7158 30.2837 25.3761L33.839 12.4168C33.9045 12.1831 33.8546 11.9308 33.7082 11.7376Z" fill="black"/>
<path d="M18.9952 27.6953C17.6709 27.6953 16.5928 28.7734 16.5928 30.0977C16.5928 31.422 17.6709 32.5001 18.9952 32.5001C20.3195 32.5001 21.3976 31.422 21.3976 30.0977C21.3976 28.7734 20.3195 27.6953 18.9952 27.6953ZM18.9952 30.939C18.5309 30.939 18.1508 30.562 18.1508 30.0946C18.1508 29.6272 18.5278 29.2502 18.9952 29.2502C19.4626 29.2502 19.8396 29.6272 19.8396 30.0946C19.8396 30.562 19.4626 30.939 18.9952 30.939Z" fill="black"/>
<path d="M27.1055 27.6953C25.7812 27.6953 24.7031 28.7734 24.7031 30.0977C24.7031 31.422 25.7812 32.5001 27.1055 32.5001C28.4298 32.5001 29.5079 31.422 29.5079 30.0977C29.5079 28.7734 28.4298 27.6953 27.1055 27.6953ZM27.1055 30.939C26.6413 30.939 26.2611 30.562 26.2611 30.0946C26.2611 29.6272 26.6381 29.2502 27.1055 29.2502C27.5729 29.2502 27.95 29.6272 27.95 30.0946C27.95 30.562 27.5729 30.939 27.1055 30.939Z" fill="black"/>
</svg>
