<svg width="39" height="39" viewBox="0 0 39 39" fill="none" xmlns="http://www.w3.org/2000/svg">
<path d="M19.5233 24.6584C20.1278 24.6584 20.7264 24.5393 21.2848 24.308C21.8433 24.0767 22.3508 23.7376 22.7782 23.3102C23.2056 22.8827 23.5447 22.3753 23.776 21.8168C24.0074 21.2583 24.1264 20.6598 24.1264 20.0553C24.1264 19.4508 24.0074 18.8522 23.776 18.2937C23.5447 17.7353 23.2056 17.2278 22.7782 16.8004C22.3508 16.3729 21.8433 16.0339 21.2848 15.8025C20.7264 15.5712 20.1278 15.4521 19.5233 15.4521C18.3025 15.4521 17.1316 15.9371 16.2684 16.8004C15.4051 17.6636 14.9202 18.8344 14.9202 20.0553C14.9202 21.2761 15.4051 22.4469 16.2684 23.3102C17.1316 24.1734 18.3025 24.6584 19.5233 24.6584Z" stroke="black" stroke-width="1.5" stroke-linecap="round" stroke-linejoin="round"/>
<path d="M31.6384 24.2344C31.0963 25.7934 30.2592 27.2336 29.1727 28.4762L26.2663 27.8167C25.164 28.8053 23.8544 29.5347 22.4336 29.9513L21.6481 32.7961C20.9119 32.9281 20.1657 32.9963 19.4177 33C18.4819 33.0011 17.5491 32.8955 16.6372 32.6853L15.8039 29.7488C14.562 29.291 13.4203 28.5973 12.4419 27.7059L9.56834 28.4448C8.42875 27.113 7.57336 25.5624 7.05469 23.8882L9.17563 21.5319C8.98206 20.3268 9.01407 19.0963 9.27004 17.903L7.17784 15.7205C7.78603 14.0085 8.74998 12.4449 10.0062 11.1324L12.9755 11.8713C13.7932 11.2158 14.704 10.6858 15.678 10.2991L16.4635 7.39272C17.4336 7.14149 18.4307 7.00961 19.4328 7C20.2333 7 21.0337 7.07389 21.8205 7.21894L22.5745 10.1103C23.7102 10.4783 24.7748 11.0407 25.7162 11.7755L28.702 11.0052C29.9066 12.2192 30.8569 13.6613 31.4975 15.247L29.4723 17.446C29.8564 18.9528 29.8882 20.5279 29.5654 22.0491L31.6384 24.2344Z" stroke="black" stroke-width="1.5" stroke-linecap="round" stroke-linejoin="round"/>
</svg>
