<svg width="40" height="40" viewBox="0 0 40 40" fill="none" xmlns="http://www.w3.org/2000/svg">
<path d="M31.7016 13.3653H29.9847V8.11181C29.9847 7.68493 29.6388 7.33594 29.2088 7.33594H10.5784C10.5441 7.33594 10.513 7.33594 10.4662 7.33905C10.432 7.33905 10.3946 7.33594 10.3603 7.33594C8.525 7.33594 6.99194 8.64776 6.64607 10.3834C6.59933 10.4831 6.57129 10.5921 6.57129 10.7074V27.8234C6.57129 29.9485 8.31623 31.6779 10.4631 31.6779H31.7109C32.1378 31.6779 32.4868 31.332 32.4868 30.902V14.1724C32.4868 14.1132 32.4774 14.054 32.465 13.9979C32.3995 13.6364 32.0848 13.3622 31.7047 13.3622L31.7016 13.3653ZM10.3665 8.88769H10.4413C10.4631 8.8908 10.4849 8.8908 10.5068 8.8908H28.4329V13.3653H10.5566L10.5068 13.3622C10.4818 13.3622 10.46 13.3622 10.4351 13.3622L10.3572 13.3684C9.12327 13.3684 8.11681 12.3651 8.11681 11.1281C8.11681 9.89103 9.12015 8.8908 10.3634 8.8908L10.3665 8.88769ZM10.46 30.1323C9.17 30.1323 8.11992 29.0978 8.11992 27.8265V14.1755C8.74935 14.6366 9.52211 14.914 10.3603 14.914C10.3915 14.914 10.4257 14.914 10.4694 14.9109C10.5068 14.9109 10.541 14.914 10.5784 14.914H30.935V30.1292H10.46V30.1323Z" fill="black"/>
</svg>
