<svg width="39" height="39" viewBox="0 0 39 39" fill="none" xmlns="http://www.w3.org/2000/svg">
<path d="M32.4718 17.0997H27.9962C27.8093 16.4332 27.5446 15.7947 27.202 15.1874L30.3664 12.023C30.5127 11.8766 30.5937 11.6804 30.5937 11.4717C30.5937 11.2631 30.5127 11.0669 30.3664 10.9205L28.0741 8.62818C27.7689 8.32296 27.2768 8.32296 26.9715 8.62818L23.8072 11.7925C23.1999 11.4531 22.5614 11.1852 21.8949 10.9983V6.52277C21.8949 6.09297 21.546 5.74414 21.1162 5.74414H17.874C17.4442 5.74414 17.0954 6.09297 17.0954 6.52277V10.9983C16.4289 11.1852 15.7904 11.4499 15.1862 11.7925L12.0218 8.62818C11.7166 8.32296 11.2245 8.32296 10.9193 8.62818L8.62702 10.9205C8.48064 11.0669 8.39966 11.2631 8.39966 11.4717C8.39966 11.6804 8.48064 11.8766 8.62702 12.023L11.7914 15.1874C11.4519 15.7947 11.184 16.4332 10.9972 17.0997H6.52472C6.09492 17.0997 5.74609 17.4485 5.74609 17.8783V21.1205C5.74609 21.5503 6.09492 21.8991 6.52472 21.8991H10.9972C11.184 22.5657 11.4488 23.2041 11.7914 23.8115L8.62702 26.9758C8.48064 27.1222 8.39966 27.3184 8.39966 27.5271C8.39966 27.7358 8.48064 27.932 8.62702 28.0784L10.9193 30.3706C11.2245 30.6759 11.7166 30.6759 12.0218 30.3706L15.1862 27.2063C15.7935 27.5458 16.432 27.8136 17.0954 28.0005V32.4761C17.0954 32.9059 17.4442 33.2547 17.874 33.2547H21.1162C21.546 33.2547 21.8949 32.9059 21.8949 32.4761V28.0005C22.5614 27.8136 23.1999 27.5489 23.8072 27.2063L26.9715 30.3706C27.1179 30.517 27.3141 30.598 27.5228 30.598C27.7315 30.598 27.9277 30.517 28.0741 30.3706L30.3664 28.0784C30.5127 27.932 30.5937 27.7358 30.5937 27.5271C30.5937 27.3184 30.5127 27.1222 30.3664 26.9758L27.202 23.8115C27.5415 23.2041 27.8093 22.5657 27.9962 21.8991H32.4718C32.9016 21.8991 33.2504 21.5503 33.2504 21.1205V17.8783C33.2504 17.4485 32.9016 17.0997 32.4718 17.0997ZM31.6931 20.345H27.3858C27.0151 20.345 26.6975 20.6066 26.6227 20.9679C26.439 21.8711 26.0839 22.7245 25.57 23.5031C25.3676 23.8115 25.408 24.2195 25.6697 24.4811L28.7157 27.5271L27.5228 28.7199L24.4768 25.6739C24.2152 25.4123 23.8072 25.3718 23.4988 25.5743C22.7202 26.0882 21.8668 26.4432 20.9636 26.627C20.6023 26.7017 20.3407 27.0194 20.3407 27.39V31.6974H18.6558V27.39C18.6558 27.0194 18.3942 26.7017 18.0329 26.627C17.1297 26.4432 16.2763 26.0882 15.4977 25.5743C15.1893 25.3687 14.7782 25.4123 14.5166 25.6739L11.4706 28.7199L10.2777 27.5271L13.3237 24.4811C13.5853 24.2195 13.6258 23.8115 13.4234 23.5031C12.9095 22.7245 12.5575 21.8742 12.3707 20.9679C12.2959 20.6066 11.9782 20.345 11.6076 20.345H7.30024V18.66H11.6076C11.9782 18.66 12.2959 18.3984 12.3707 18.0371C12.5544 17.1339 12.9095 16.2806 13.4234 15.5019C13.6258 15.1936 13.5853 14.7856 13.3237 14.524L10.2777 11.478L11.4706 10.2851L14.5166 13.3311C14.7782 13.5927 15.1862 13.6332 15.4977 13.4308C16.2763 12.9169 17.1265 12.5649 18.0329 12.3781C18.3942 12.3033 18.6558 11.9856 18.6558 11.615V7.30763H20.3407V11.615C20.3407 11.9856 20.6023 12.3033 20.9636 12.3781C21.8668 12.5618 22.7202 12.9169 23.4988 13.4308C23.8072 13.6332 24.2183 13.5927 24.4768 13.3311L27.5228 10.2851L28.7157 11.478L25.6697 14.524C25.408 14.7856 25.3676 15.1936 25.57 15.5019C26.0839 16.2806 26.439 17.1339 26.6227 18.0371C26.6975 18.3984 27.0151 18.66 27.3858 18.66H31.6931V20.345Z" fill="black"/>
<path d="M19.5004 14.6387C16.8188 14.6387 14.6387 16.8188 14.6387 19.5004C14.6387 22.182 16.8188 24.3622 19.5004 24.3622C22.182 24.3622 24.3622 22.182 24.3622 19.5004C24.3622 16.8188 22.182 14.6387 19.5004 14.6387ZM19.5004 22.8049C17.6784 22.8049 16.1959 21.3224 16.1959 19.5004C16.1959 17.6784 17.6784 16.1959 19.5004 16.1959C21.3224 16.1959 22.8049 17.6784 22.8049 19.5004C22.8049 21.3224 21.3224 22.8049 19.5004 22.8049Z" fill="black"/>
</svg>
