<svg fill="none" height="16" viewBox="0 0 16 16" width="16" xmlns="http://www.w3.org/2000/svg"><path d="m10.4156.968999-8.57926 8.585801c-.20263.20277-.3377.4507-.42788.7212l-1.3735746 4.7098c-.0900022.2704-.0000002.5634.2026226.7888.1577.1578.360318.2254.562941.2254.067541 0 .157699 0 .225241-.0225l4.70619-1.3746c.27016-.0901.51786-.2254.72064-.4282l8.60178-8.60834c.608-.60848.9457-1.44223.9457-2.32109 0-.87887-.3377-1.69012-.9457-2.321099-1.2836-1.239621-3.3552-1.239621-4.6387.044957zm-4.57112 11.582901-2.38683-2.3886 6.53011-6.53514 2.38704 2.38849zm-3.17487-.969 1.75638 1.7577-2.47703.7212zm11.25879-7.12107-.4278.42804-2.3869-2.38866.4279-.4282c.3377-.33796.7656-.49577 1.1934-.49577.4279 0 .8557.15782 1.1935.49577.6529.67608.6529 1.73522 0 2.38882z" fill="#191919"/></svg>