<svg fill="none" height="88" viewBox="0 0 97 88" width="97" xmlns="http://www.w3.org/2000/svg"><path d="m51.7256 0c-19.2784 0-35.7517 12.0989-41.93708 29.0896l-4.59768-8.2069c-.26323-.485-.66625-.8796-1.15667-1.1325-.49042-.2528-1.04558-.3523-1.59331-.2855-.45527.0515-.89044.2159-1.266.4784-.375564.2624-.679605.6146-.884509 1.0244-.2049032.4098-.3041761.8643-.28880203 1.3222.01537413.458.14490803.9048.37683703 1.2999l7.562424 13.4921c.34555.6229.91935 1.0875 1.60058 1.2959.68121.2084 1.41671.1443 2.05171-.1788l13.4491-6.8749c.3369-.1544.6391-.3754.8885-.6495.2494-.2742.4407-.5959.5626-.9459.122-.35.1719-.721.1468-1.0908-.0251-.3697-.1247-.7307-.2927-1.061-.1681-.3303-.4012-.6232-.6853-.8612s-.6134-.4161-.9681-.5236c-.3546-.1075-.7274-.1423-1.0958-.1021-.3684.0401-.725.1543-1.0482.3357l-7.3046 3.7384c5.6285-14.4109 19.8185-24.66395 36.4802-24.66395 21.6206 0 39.0582 17.22465 39.0582 38.49965 0 21.1018-17.1695 38.2219-38.5426 38.4997-.3615.005-.7185.0811-1.0506.2242-.332.1431-.6326.3502-.8845.6096-.252.2594-.4502.5659-.5836.902-.1333.3361-.199.6953-.1934 1.0568s.0824.7184.2261 1.0502.3514.6321.6112.8835c.2598.2515.5667.4492.903.5819.3363.1328.6956.198 1.0571.1917 24.2833-.3155 43.9572-19.9086 43.9572-43.9996 0-24.288-20.0047-43.9996-44.5581-43.9996zm.2577 19.2068c-.6835.0752-1.314.4036-1.7674.9206-.4533.517-.6965 1.185-.6817 1.8725v21.9997c-.0003.4125.0923.8198.2708 1.1917s.4384.6988.7604.9567l13.7499 10.9999c.2821.2257.6059.3936.953.4942.347.1006.7104.1317 1.0695.0918s.7069-.1501 1.0234-.3243c.3164-.1743.5955-.4093.8212-.6914s.3936-.606.4942-.953c.1006-.3471.1318-.7104.0919-1.0695s-.1502-.7069-.3244-1.0234c-.1743-.3165-.4092-.5955-.6914-.8213l-12.7186-10.1835v-20.6676c.0084-.3915-.0668-.7803-.2207-1.1404-.1539-.36-.383-.683-.6718-.9475-.2888-.2644-.6308-.4641-1.003-.5857s-.7661-.1623-1.1553-.1195z" fill="#fff"/></svg>