<svg fill="none" height="23" viewBox="0 0 26 23" width="26" xmlns="http://www.w3.org/2000/svg"><g clip-rule="evenodd" fill="#fff" fill-rule="evenodd"><path d="m22.3716 6.95302c0-1.83677-1.4886-3.32558-3.3256-3.32558h-15.72042c-1.83677 0-3.32558 1.4886-3.32558 3.32558v12.09258c0 1.8368 1.4886 3.3256 3.32558 3.3256h15.72042c1.8368 0 3.3256-1.4886 3.3256-3.3256zm-1.8139 0v12.09258c0 .8345-.6772 1.5117-1.5117 1.5117h-15.72042c-.8345 0-1.51167-.6772-1.51167-1.5117v-12.09258c0-.8345.67717-1.51166 1.51167-1.51166h15.72042c.8345 0 1.5117.67716 1.5117 1.51166z"/><path d="m4.48643 5.44072.04717.00122.03867-.00486c.1741-.02531.86829-.17289.86829-.91789v-1.19361c0-.40145.15953-.78491.44255-1.06891.28424-.28302.66747-.44255 1.06891-.44255h15.72038c.8346 0 1.5117.67716 1.5117 1.51166v12.09262c0 .4014-.1595.7849-.4425 1.0689-.2843.283-.6675.4425-1.069.4425h-1.2092c-.5006 0-.9069.4063-.9069.907 0 .5006.4063.907.9069.907h1.2092c.8817 0 1.7281-.3507 2.3521-.9736.6227-.6239.9735-1.4706.9735-2.352v-12.09262c0-1.83677-1.4886-3.32558-3.3256-3.32558h-15.72037c-.88167 0-1.72809.350635-2.35203.973554-.62274.623936-.97355 1.470566-.97355 2.352026v1.19361.01579c0 .06417.00729.12693.01943.18746.02409.12208.07005.22492.12815.30833.15487.23585.41481.39416.7122.40995z"/><path d="m2.37916 21.4906 5.06683-5.2531c.10892-.1125.28424-.1245.40631-.0265l1.27461 1.0195c.87319.6991 2.14049.5962 2.89129-.2334l4.0317-4.4575c.0594-.0653.1452-.1016.2335-.0992.0882.0025.1704.0436.2261.1126 1.4706 1.8164 4.2506 5.2505 4.2506 5.2505.3156.3893.8863.4486 1.2758.1342.3893-.3156.4486-.8863.1342-1.2758 0 0-2.7802-3.433-4.2506-5.2505-.3893-.48-.9687-.7666-1.5865-.7836-.6179-.017-1.2129.237-1.6277.6954l-4.0329 4.4574c-.1065.1185-.2879.133-.4124.0326l-1.27458-1.0183c-.85373-.6832-2.086-.6035-2.84536.1826l-5.06683 5.2531c-.346992.3604-.337477.9347.02288 1.2831.36035.347.93592.3375 1.28311-.0228z"/><path d="m6.95174 6.65186c-1.16811 0-2.11617.94805-2.11617 2.11616s.94806 2.11618 2.11617 2.11618 2.11616-.94807 2.11616-2.11618-.94805-2.11616-2.11616-2.11616zm0 1.81391c.16681 0 .30225.13544.30225.30225s-.13544.30225-.30225.30225c-.16682 0-.30225-.13544-.30225-.30225s.13543-.30225.30225-.30225z"/></g></svg>