<svg fill="none" height="28" viewBox="0 0 103 28" width="103" xmlns="http://www.w3.org/2000/svg" xmlns:xlink="http://www.w3.org/1999/xlink"><filter id="a" color-interpolation-filters="sRGB" filterUnits="userSpaceOnUse" height="27.4814" width="29.5637" x="27.7104" y=".032227"><feFlood flood-opacity="0" result="BackgroundImageFix"/><feColorMatrix in="SourceAlpha" result="hardAlpha" type="matrix" values="0 0 0 0 0 0 0 0 0 0 0 0 0 0 0 0 0 0 127 0"/><feOffset dy="2"/><feGaussianBlur stdDeviation="2"/><feColorMatrix type="matrix" values="0 0 0 0 0.0509804 0 0 0 0 0.0745098 0 0 0 0 0.137255 0 0 0 0.153054 0"/><feBlend in2="BackgroundImageFix" mode="normal" result="effect1_dropShadow_3813_4847"/><feBlend in="SourceGraphic" in2="effect1_dropShadow_3813_4847" mode="normal" result="shape"/></filter><filter id="b" color-interpolation-filters="sRGB" filterUnits="userSpaceOnUse" height="27.4863" width="23.991" x="54.9724" y=".513672"><feFlood flood-opacity="0" result="BackgroundImageFix"/><feColorMatrix in="SourceAlpha" result="hardAlpha" type="matrix" values="0 0 0 0 0 0 0 0 0 0 0 0 0 0 0 0 0 0 127 0"/><feOffset dy="2"/><feGaussianBlur stdDeviation="2"/><feColorMatrix type="matrix" values="0 0 0 0 0.0509804 0 0 0 0 0.0745098 0 0 0 0 0.137255 0 0 0 0.153054 0"/><feBlend in2="BackgroundImageFix" mode="normal" result="effect1_dropShadow_3813_4847"/><feBlend in="SourceGraphic" in2="effect1_dropShadow_3813_4847" mode="normal" result="shape"/></filter><filter id="c" color-interpolation-filters="sRGB" filterUnits="userSpaceOnUse" height="27.4404" width="27.8318" x="74.7825" y="0"><feFlood flood-opacity="0" result="BackgroundImageFix"/><feColorMatrix in="SourceAlpha" result="hardAlpha" type="matrix" values="0 0 0 0 0 0 0 0 0 0 0 0 0 0 0 0 0 0 127 0"/><feOffset dy="2"/><feGaussianBlur stdDeviation="2"/><feColorMatrix type="matrix" values="0 0 0 0 0.0509804 0 0 0 0 0.0745098 0 0 0 0 0.137255 0 0 0 0.153054 0"/><feBlend in2="BackgroundImageFix" mode="normal" result="effect1_dropShadow_3813_4847"/><feBlend in="SourceGraphic" in2="effect1_dropShadow_3813_4847" mode="normal" result="shape"/></filter><filter id="d" color-interpolation-filters="sRGB" filterUnits="userSpaceOnUse" height="27.5225" width="31.9727" x="0" y="0"><feFlood flood-opacity="0" result="BackgroundImageFix"/><feColorMatrix in="SourceAlpha" result="hardAlpha" type="matrix" values="0 0 0 0 0 0 0 0 0 0 0 0 0 0 0 0 0 0 127 0"/><feOffset dy="2"/><feGaussianBlur stdDeviation="2"/><feColorMatrix type="matrix" values="0 0 0 0 0.0509804 0 0 0 0 0.0745098 0 0 0 0 0.137255 0 0 0 0.153054 0"/><feBlend in2="BackgroundImageFix" mode="normal" result="effect1_dropShadow_3813_4847"/><feBlend in="SourceGraphic" in2="effect1_dropShadow_3813_4847" mode="normal" result="shape"/></filter><g filter="url(#a)"><path clip-rule="evenodd" d="m41.8286 21.514h11.4455v-2.7363h-4.6955v-.0546c.4318-.3045.8455-.6772 1.25-1.1136.4-.4364.7591-.9455 1.0728-1.5273.3136-.5818.5681-1.2318.7636-1.9454.1954-.7182.2954-1.5046.2954-2.3637 0-1.45-.25-2.76815-.75-3.95906-.5-1.1909-1.2-2.21363-2.1045-3.07272-.9-.85909-1.9682-1.52728-3.2045-2-1.2364-.47273-2.5773-.70909-4.0273-.70909-1.4455 0-2.7909.23636-4.0364.70909-1.2409.47727-2.3182 1.14091-3.2318 2-.9091.85909-1.6227 1.88182-2.1318 3.07272-.5091 1.19091-.7637 2.50906-.7637 3.95906 0 1.5364.241 2.9091.7228 4.1182.4863 1.2091 1.1682 2.2273 2.0545 3.0591.8864.8318 1.95 1.4682 3.1955 1.9046 1.2409.4409 2.6227.659 4.1454.659zm-2.5091-15.94086c.7955-.34091 1.65-.5091 2.5637-.5091.9682 0 1.8454.17273 2.6318.5091.7864.3409 1.4636.80454 2.0273 1.39545.5636.58636.9954 1.29545 1.3 2.11818.3045.82273.4545 1.71363.4545 2.68183 0 1.0182-.1591 1.9454-.4818 2.7773-.3227.8318-.7682 1.5409-1.3409 2.1318s-1.2591 1.05-2.0546 1.3818c-.7954.3318-1.6591.4955-2.5909.4955-.95 0-1.8182-.1637-2.6045-.4955-.7909-.3318-1.4637-.7909-2.0273-1.3818s-1-1.3-1.3136-2.1318c-.3137-.8319-.4682-1.7591-.4682-2.7773 0-.9636.1636-1.8591.4954-2.68183.3319-.82273.7819-1.52727 1.3546-2.11818s1.2591-1.05455 2.0545-1.39545z" fill="#fff" fill-rule="evenodd"/></g><path d="m48.5922 18.7774v-.0545c.4272-.3046.8454-.6773 1.25-1.1136.4045-.4364.7591-.95 1.0727-1.5273.1091-.2046.2136-.4227.3136-.6455h-3.8272c-.2591.4637-.5682.8818-.9273 1.25-.5727.5909-1.2591 1.05-2.0546 1.3818-.7954.3319-1.6591.4955-2.5909.4955-.95 0-1.8136-.1636-2.6045-.4955-.7864-.3318-1.4637-.7909-2.0273-1.3818-.3545-.3682-.6545-.7863-.9091-1.25h-4.0227c.0545.1546.1091.3091.1682.4591.4818 1.2091 1.1682 2.2273 2.0545 3.0591.8864.8318 1.95 1.4682 3.1955 1.9046 1.2454.4363 2.6272.659 4.1454.659h11.4591v-2.7363h-4.6954z" fill="#fff"/><g filter="url(#b)"><path d="m74.9633 14.5364c0 1.1455-.1954 2.1773-.5909 3.1-.3954.9227-.9318 1.7045-1.6091 2.35-.6818.6455-1.4863 1.1409-2.4136 1.4909-.9318.35-2.2909.5227-3.3818.5227s-2.4546-.1727-3.3819-.5227c-.9318-.35-1.7409-.8454-2.4272-1.4909-.6909-.6455-1.2273-1.4273-1.6091-2.35-.3864-.9227-.5773-1.9545-.5773-3.1v-12.02273h3.3818v11.88633c0 .5546.0728 1.1046.2137 1.65.1409.5455.3818 1.0319.7091 1.4637.3318.4272.7681.7772 1.3136 1.0454.5454.2682 1.5727.4046 2.3773.4046.8045 0 1.8318-.1364 2.3772-.4046.5455-.2682.9819-.6182 1.3137-1.0454.3318-.4273.5682-.9182.7091-1.4637.1409-.5454.2136-1.0954.2136-1.65v-11.88633h3.3818z" fill="#fff"/></g><path d="m71.4995 15.4365c-.0318.2046-.0772.4137-.1318.6182-.1454.5455-.3818 1.0318-.7091 1.4636-.3318.4273-.7682.7773-1.3136 1.0455-.5455.2682-1.5727.4045-2.3773.4045-.8045 0-1.8318-.1363-2.3772-.4045-.5455-.2682-.9819-.6182-1.3137-1.0455-.3318-.4272-.5682-.9181-.7091-1.4636-.0545-.2045-.1-.4136-.1318-.6182h-3.4227c.0773.7955.2545 1.5273.5363 2.2.3864.9228.9228 1.7046 1.6091 2.35.6864.6455 1.5 1.1409 2.4273 1.4909.9318.35 2.2909.5228 3.3818.5228s2.4546-.1728 3.3818-.5228c.9319-.35 1.7364-.8454 2.4137-1.4909.6818-.6454 1.2182-1.4272 1.6091-2.35.2863-.6727.4681-1.4091.5454-2.2z" fill="#fff"/><g filter="url(#c)"><path d="m98.6143 21.4409h-3.8864l-1.7773-3.4682-4.25-8.33179-4.2499 8.33179-1.7773 3.4682h-3.8909l1.7772-3.4682 8.1409-15.9727 8.1364 15.9727z" fill="#fff"/></g><path d="m81.8552 15.4365-1.2955 2.5364-1.7772 3.4682h3.8909l1.7773-3.4682 1.2909-2.5364z" fill="#fff"/><path d="m95.5462 15.4365h-3.8909l1.2954 2.5364 1.7773 3.4682h3.8864l-1.7773-3.4682z" fill="#fff"/><g filter="url(#d)"><path clip-rule="evenodd" d="m4 15.4364 11.9864-13.4364 11.9863 13.4364-7.9727 6.0863h-8.0364zm11.9864 3.6091h.1363c2.5273-.0728 4.7137-2.0637 4.7091-4.6091 0-.85-.3909-2.0319-.7864-2.7182-.4131-.8116-.9917-1.73413-1.5809-2.67352-.8561-1.36515-1.7345-2.76581-2.16-3.91286v-.00455c-.0022-.00454-.0034-.00909-.0045-.01363-.0011-.00455-.0023-.00909-.0045-.01364l-.2-.55909c-.0364-.10455-.1864-.10455-.2228 0l-.2045.57273c-.4222 1.14831-1.3011 2.5512-2.1584 3.91967-.5917.94454-1.1731 1.87269-1.5871 2.68939-.3954.6864-.7863 1.8682-.7863 2.7182 0 2.5409 2.1863 4.5318 4.7181 4.6046z" fill="#fff" fill-rule="evenodd"/></g><path d="m16.1227 19.0456c-.0454 0-.0909 0-.1363 0-.0455 0-.0909 0-.1319 0-2.1863-.0636-4.1181-1.5591-4.6-3.6091h-7.2545l7.9636 6.0864h8.0364l7.9727-6.0864h-7.25c-.4818 2.05-2.4136 3.5455-4.6 3.6091z" fill="#fff"/></svg>