<svg width="103" height="28" viewBox="0 0 103 28" fill="none" xmlns="http://www.w3.org/2000/svg">
<g filter="url(#filter0_d_4174_65893)">
<path fill-rule="evenodd" clip-rule="evenodd" d="M41.8291 21.514H53.2746V18.7777H48.5791V18.7231C49.0109 18.4186 49.4246 18.0459 49.8291 17.6095C50.2291 17.1731 50.5882 16.664 50.9018 16.0822C51.2155 15.5004 51.47 14.8504 51.6655 14.1368C51.8609 13.4186 51.9609 12.6322 51.9609 11.7731C51.9609 10.3231 51.7109 9.00495 51.2109 7.81404C50.7109 6.62314 50.0109 5.60041 49.1064 4.74132C48.2064 3.88223 47.1382 3.21404 45.9018 2.74132C44.6655 2.26859 43.3246 2.03223 41.8746 2.03223C40.4291 2.03223 39.0837 2.26859 37.8382 2.74132C36.5973 3.21859 35.52 3.88223 34.6064 4.74132C33.6973 5.60041 32.9837 6.62314 32.4746 7.81404C31.9655 9.00495 31.7109 10.3231 31.7109 11.7731C31.7109 13.3095 31.9518 14.6822 32.4337 15.8913C32.92 17.1004 33.6018 18.1186 34.4882 18.9504C35.3746 19.7822 36.4382 20.4186 37.6837 20.855C38.9246 21.2959 40.3064 21.514 41.8291 21.514ZM39.32 5.57314C40.1155 5.23223 40.97 5.06404 41.8837 5.06404C42.8518 5.06404 43.7291 5.23677 44.5155 5.57314C45.3018 5.91404 45.9791 6.37768 46.5428 6.96859C47.1064 7.55495 47.5382 8.26404 47.8428 9.08677C48.1473 9.9095 48.2973 10.8004 48.2973 11.7686C48.2973 12.7868 48.1382 13.714 47.8155 14.5459C47.4928 15.3777 47.0473 16.0868 46.4746 16.6777C45.9018 17.2686 45.2155 17.7277 44.42 18.0595C43.6246 18.3913 42.7609 18.555 41.8291 18.555C40.8791 18.555 40.0109 18.3913 39.2246 18.0595C38.4337 17.7277 37.7609 17.2686 37.1973 16.6777C36.6337 16.0868 36.1973 15.3777 35.8837 14.5459C35.57 13.714 35.4155 12.7868 35.4155 11.7686C35.4155 10.805 35.5791 9.9095 35.9109 9.08677C36.2428 8.26404 36.6928 7.5595 37.2655 6.96859C37.8382 6.37768 38.5246 5.91404 39.32 5.57314Z" fill="#00A1CC"/>
</g>
<path d="M48.5929 18.7774V18.7229C49.0202 18.4183 49.4383 18.0456 49.8429 17.6093C50.2474 17.1729 50.602 16.6593 50.9156 16.082C51.0247 15.8774 51.1293 15.6593 51.2293 15.4365H47.402C47.1429 15.9002 46.8338 16.3183 46.4747 16.6865C45.902 17.2774 45.2156 17.7365 44.4202 18.0683C43.6247 18.4002 42.7611 18.5638 41.8293 18.5638C40.8793 18.5638 40.0156 18.4002 39.2247 18.0683C38.4384 17.7365 37.7611 17.2774 37.1974 16.6865C36.8429 16.3183 36.5429 15.9002 36.2884 15.4365H32.2656C32.3202 15.5911 32.3747 15.7456 32.4338 15.8956C32.9156 17.1047 33.602 18.1229 34.4884 18.9547C35.3747 19.7865 36.4384 20.4229 37.6838 20.8593C38.9293 21.2956 40.3111 21.5183 41.8293 21.5183H53.2883V18.782H48.5929V18.7774Z" fill="#00A1CC"/>
<g filter="url(#filter1_d_4174_65893)">
<path d="M74.9636 14.5364C74.9636 15.6819 74.7681 16.7137 74.3726 17.6364C73.9772 18.5591 73.4408 19.3409 72.7636 19.9864C72.0817 20.6319 71.2772 21.1273 70.3499 21.4773C69.4181 21.8273 68.059 22 66.9681 22C65.8772 22 64.5136 21.8273 63.5863 21.4773C62.6545 21.1273 61.8454 20.6319 61.159 19.9864C60.4681 19.3409 59.9317 18.5591 59.5499 17.6364C59.1636 16.7137 58.9727 15.6819 58.9727 14.5364V2.51367H62.3545V14.4C62.3545 14.9546 62.4272 15.5046 62.5681 16.05C62.709 16.5955 62.9499 17.0819 63.2772 17.5137C63.609 17.9409 64.0454 18.2909 64.5908 18.5591C65.1363 18.8273 66.1636 18.9637 66.9681 18.9637C67.7727 18.9637 68.7999 18.8273 69.3454 18.5591C69.8908 18.2909 70.3272 17.9409 70.659 17.5137C70.9908 17.0864 71.2272 16.5955 71.3681 16.05C71.509 15.5046 71.5817 14.9546 71.5817 14.4V2.51367H74.9636V14.5364Z" fill="#00A1CC"/>
</g>
<path d="M71.4981 15.4365C71.4663 15.6411 71.4208 15.8502 71.3663 16.0547C71.2208 16.6002 70.9844 17.0865 70.6572 17.5183C70.3253 17.9456 69.889 18.2956 69.3435 18.5638C68.7981 18.832 67.7708 18.9683 66.9663 18.9683C66.1617 18.9683 65.1344 18.832 64.589 18.5638C64.0435 18.2956 63.6072 17.9456 63.2754 17.5183C62.9435 17.0911 62.7072 16.6002 62.5663 16.0547C62.5117 15.8502 62.4663 15.6411 62.4344 15.4365H59.0117C59.089 16.232 59.2663 16.9638 59.5481 17.6365C59.9344 18.5593 60.4708 19.3411 61.1572 19.9865C61.8435 20.632 62.6572 21.1274 63.5844 21.4774C64.5163 21.8274 65.8754 22.0002 66.9663 22.0002C68.0572 22.0002 69.4208 21.8274 70.3481 21.4774C71.2799 21.1274 72.0844 20.632 72.7617 19.9865C73.4435 19.3411 73.9799 18.5593 74.3708 17.6365C74.6572 16.9638 74.839 16.2274 74.9163 15.4365H71.4981Z" fill="#00A1CC"/>
<g filter="url(#filter2_d_4174_65893)">
<path d="M98.6131 21.4409H94.7267L92.9494 17.9727L88.6994 9.64091L84.4494 17.9727L82.6722 21.4409H78.7812L80.5585 17.9727L88.6994 2L96.8358 17.9727L98.6131 21.4409Z" fill="#00A1CC"/>
</g>
<path d="M81.854 15.4365L80.5585 17.9729L78.7812 21.4411H82.6722L84.4494 17.9729L85.7403 15.4365H81.854Z" fill="#00A1CC"/>
<path d="M95.5472 15.4365H91.6562L92.9517 17.9729L94.729 21.4411H98.6153L96.8381 17.9729L95.5472 15.4365Z" fill="#00A1CC"/>
<g filter="url(#filter3_d_4174_65893)">
<path fill-rule="evenodd" clip-rule="evenodd" d="M4 15.4364L15.9864 2L27.9727 15.4364L20 21.5227H11.9636L4 15.4364ZM15.9864 19.0455H16.1227C18.65 18.9727 20.8364 16.9818 20.8318 14.4364C20.8318 13.5864 20.4409 12.4045 20.0454 11.7182C19.6323 10.9066 19.0537 9.98407 18.4645 9.04468C17.6084 7.67953 16.73 6.27887 16.3045 5.13182V5.12727C16.3023 5.12273 16.3011 5.11818 16.3 5.11364C16.2989 5.10909 16.2977 5.10455 16.2955 5.1L16.0955 4.54091C16.0591 4.43636 15.9091 4.43636 15.8727 4.54091L15.6682 5.11364C15.246 6.26195 14.3671 7.66484 13.5098 9.03331C12.9181 9.97785 12.3367 10.906 11.9227 11.7227C11.5273 12.4091 11.1364 13.5909 11.1364 14.4409C11.1364 16.9818 13.3227 18.9727 15.8545 19.0455H15.9864Z" fill="#00A1CC"/>
</g>
<path d="M16.1227 19.0456C16.0773 19.0456 16.0318 19.0456 15.9864 19.0456C15.9409 19.0456 15.8955 19.0456 15.8545 19.0456C13.6682 18.982 11.7364 17.4865 11.2545 15.4365H4L11.9636 21.5229H20L27.9727 15.4365H20.7227C20.2409 17.4865 18.3091 18.982 16.1227 19.0456Z" fill="#00A1CC"/>
<defs>
<filter id="filter0_d_4174_65893" x="27.7109" y="0.0322266" width="29.5625" height="27.4814" filterUnits="userSpaceOnUse" color-interpolation-filters="sRGB">
<feFlood flood-opacity="0" result="BackgroundImageFix"/>
<feColorMatrix in="SourceAlpha" type="matrix" values="0 0 0 0 0 0 0 0 0 0 0 0 0 0 0 0 0 0 127 0" result="hardAlpha"/>
<feOffset dy="2"/>
<feGaussianBlur stdDeviation="2"/>
<feColorMatrix type="matrix" values="0 0 0 0 0.0509804 0 0 0 0 0.0745098 0 0 0 0 0.137255 0 0 0 0.153054 0"/>
<feBlend mode="normal" in2="BackgroundImageFix" result="effect1_dropShadow_4174_65893"/>
<feBlend mode="normal" in="SourceGraphic" in2="effect1_dropShadow_4174_65893" result="shape"/>
</filter>
<filter id="filter1_d_4174_65893" x="54.9727" y="0.513672" width="23.9922" height="27.4863" filterUnits="userSpaceOnUse" color-interpolation-filters="sRGB">
<feFlood flood-opacity="0" result="BackgroundImageFix"/>
<feColorMatrix in="SourceAlpha" type="matrix" values="0 0 0 0 0 0 0 0 0 0 0 0 0 0 0 0 0 0 127 0" result="hardAlpha"/>
<feOffset dy="2"/>
<feGaussianBlur stdDeviation="2"/>
<feColorMatrix type="matrix" values="0 0 0 0 0.0509804 0 0 0 0 0.0745098 0 0 0 0 0.137255 0 0 0 0.153054 0"/>
<feBlend mode="normal" in2="BackgroundImageFix" result="effect1_dropShadow_4174_65893"/>
<feBlend mode="normal" in="SourceGraphic" in2="effect1_dropShadow_4174_65893" result="shape"/>
</filter>
<filter id="filter2_d_4174_65893" x="74.7812" y="0" width="27.832" height="27.4404" filterUnits="userSpaceOnUse" color-interpolation-filters="sRGB">
<feFlood flood-opacity="0" result="BackgroundImageFix"/>
<feColorMatrix in="SourceAlpha" type="matrix" values="0 0 0 0 0 0 0 0 0 0 0 0 0 0 0 0 0 0 127 0" result="hardAlpha"/>
<feOffset dy="2"/>
<feGaussianBlur stdDeviation="2"/>
<feColorMatrix type="matrix" values="0 0 0 0 0.0509804 0 0 0 0 0.0745098 0 0 0 0 0.137255 0 0 0 0.153054 0"/>
<feBlend mode="normal" in2="BackgroundImageFix" result="effect1_dropShadow_4174_65893"/>
<feBlend mode="normal" in="SourceGraphic" in2="effect1_dropShadow_4174_65893" result="shape"/>
</filter>
<filter id="filter3_d_4174_65893" x="0" y="0" width="31.9727" height="27.5225" filterUnits="userSpaceOnUse" color-interpolation-filters="sRGB">
<feFlood flood-opacity="0" result="BackgroundImageFix"/>
<feColorMatrix in="SourceAlpha" type="matrix" values="0 0 0 0 0 0 0 0 0 0 0 0 0 0 0 0 0 0 127 0" result="hardAlpha"/>
<feOffset dy="2"/>
<feGaussianBlur stdDeviation="2"/>
<feColorMatrix type="matrix" values="0 0 0 0 0.0509804 0 0 0 0 0.0745098 0 0 0 0 0.137255 0 0 0 0.153054 0"/>
<feBlend mode="normal" in2="BackgroundImageFix" result="effect1_dropShadow_4174_65893"/>
<feBlend mode="normal" in="SourceGraphic" in2="effect1_dropShadow_4174_65893" result="shape"/>
</filter>
</defs>
</svg>
