<svg fill="none" height="20" viewBox="0 0 95 20" width="95" xmlns="http://www.w3.org/2000/svg"><path clip-rule="evenodd" d="m0 13.4364 11.9864-13.4364 11.9863 13.4364-7.9727 6.0863h-8.03637zm11.8481 3.6089c-2.18369-.0664-4.11221-1.5609-4.59356-3.6089h-.00321c-.07514-.3196-.11497-.6525-.11497-.9955 0-.85.39091-2.0318.78636-2.71817.41393-.81673.99538-1.74488 1.5871-2.68942.85728-1.36847 1.73618-2.77136 2.15838-3.91967l.2045-.57273c.0364-.10455.1864-.10455.2228 0l.2.55909c.0022.00454.0034.00908.0045.01363v.00001.00001c.0011.00454.0023.00908.0045.01362v.00455c.4255 1.14705 1.3039 2.54771 2.16 3.91286.5892.93939 1.1678 1.86196 1.5809 2.6735.3955.68632.7864 1.86822.7864 2.71822.0038 2.1095-1.4971 3.8381-3.4498 4.4097-.4036.118-.8265.1868-1.2593.1994h-.1363-.1319c-.0021-.0001-.0042-.0002-.0064-.0002zm77.1027-1.0726 1.7772 3.4682h3.8864l-1.7773-3.4682-1.2909-2.5363h-.0011l-6.8443-13.4364-8.1407 15.9723-.0002.0004-1.7773 3.4682h3.8909l1.7773-3.4682 4.25-8.33179 2.9562 5.79549h-.0017l1.2951 2.5356zm-41.2858-3.8363c-.126.4602-.2767.8939-.4518 1.3h.0154c-.1.2227-.2045.4409-.3136.6454-.3136.5773-.6682 1.0909-1.0727 1.5273-.4046.4364-.8228.8091-1.25 1.1136v.0546h4.6818v.0045h.0136v2.7364h-11.4591c-1.5181 0-2.9-.2227-4.1454-.6591-1.2455-.4364-2.3091-1.0727-3.1955-1.9046-.8863-.8318-1.5727-1.85-2.0545-3.059-.0591-.15-.1136-.3045-.1682-.459v-.0001h.001c-.3704-1.0955-.5555-2.3167-.5555-3.66367 0-1.45.2545-2.76818.7636-3.95909s1.2227-2.21364 2.1318-3.07273c.9137-.85909 1.9909-1.52273 3.2318-2.000001 1.2455-.472727 2.5909-.7090908 4.0364-.7090908 1.45 0 2.7909.2363638 4.0273.7090908 1.2363.472731 2.3045 1.140911 3.2045 2.000001.9046.85909 1.6046 1.88182 2.1046 3.07273s.75 2.50909.75 3.95909c0 .85907-.1 1.64547-.2955 2.36367zm-12.3454-8.56367c.7954-.34091 1.65-.50909 2.5636-.50909.9682 0 1.8454.17272 2.6318.50909.7864.34091 1.4636.80454 2.0273 1.39545.5636.58637.9954 1.29546 1.3 2.11818.3045.82273.4545 1.71364.4545 2.68182 0 1.01822-.1591 1.94542-.4818 2.77732-.3227.8318-.7682 1.5409-1.3409 2.1318s-1.2591 1.05-2.0545 1.3818c-.7955.3318-1.6591.4954-2.591.4954-.95 0-1.8181-.1636-2.6045-.4954-.7909-.3318-1.4636-.7909-2.0273-1.3818-.5636-.5909-1-1.3-1.3136-2.1318-.3136-.8319-.4682-1.7591-.4682-2.77732 0-.96363.1636-1.85909.4955-2.68182.3318-.82272.7818-1.52727 1.3545-2.11818s1.2591-1.05454 2.0546-1.39545zm35.0527 12.06367c.3955-.9228.5909-1.9546.5909-3.1v-12.022764h-3.3818v11.886364c0 .5545-.0727 1.1045-.2136 1.65-.016.0616-.0331.1226-.0515.1828-.1186.3816-.2839.7331-.4959 1.0562-.0511.0767-.105.1516-.1617.2246-.3318.4273-.7682.7773-1.3137 1.0455-.5454.2682-1.5727.4045-2.3772.4045-.8046 0-1.8319-.1363-2.3773-.4045-.5455-.2682-.9818-.6182-1.3136-1.0455-.3273-.4318-.5682-.9181-.7091-1.4636s-.2137-1.0955-.2137-1.65v-11.886364h-3.3818v12.022764c0 .3082.0138.6081.0416.9h-.0007c.0138.1415.0307.2809.0508.4184.069.4751.177.9276.3245 1.3578.0493.1437.103.285.1611.4238l.0003.0007c.3818.9224.9181 1.704 1.6088 2.3493.6863.6454 1.4954 1.1409 2.4272 1.4909.8114.3062 1.9569.4767 2.9614.5146.1255.0047.2489.0074.3691.008l.0514.0001c.1363 0 .2769-.0027.4203-.0081 1.0037-.0379 2.1461-.2084 2.9615-.5146l.001-.0004c.9269-.35 1.731-.8453 2.4126-1.4905l.0012-.0011c.6812-.6453 1.2172-1.4267 1.6079-2.3489z" fill="#00a1cc" fill-rule="evenodd"/></svg>