<svg fill="none" height="14" viewBox="0 0 16 14" width="16" xmlns="http://www.w3.org/2000/svg"><path d="m9.74806 13.6979c.66994-.6699 1.33994-1.3399 2.01254-2.0125l3.9381-3.93809c.0923-.09232.1635-.19783.211-.31125.0633-.14243.0923-.29542.0897-.44841-.0027-.2664-.1029-.53545-.3034-.73327-.6699-.66997-1.3399-1.33995-2.0125-2.01256l-3.93544-3.93806c-.39037-.3903773-1.10783-.419392-1.49293 0-.38774.42203-.41675 1.07618 0 1.49293l4.14647 4.14644h-9.37436c-.55128 0-1.10519-.00791-1.65647 0h-.02374c-.551271 0-1.081446.48534-1.055069 1.05508.026377.57237.464233 1.05507 1.055079 1.05507h11.05986c-.0713.07122-.1425.14243-.2137.21365l-3.20479 3.20477c-.2453.2453-.48797.488-.73328.7333-.39037.3904-.41939 1.1078 0 1.4929.42203.3878 1.07618.4168 1.49293 0z" fill="#191919"/></svg>