<svg fill="none" height="18" viewBox="0 0 15 18" width="15" xmlns="http://www.w3.org/2000/svg"><path clip-rule="evenodd" d="m14.2931 3.35016c.4358.22534.7065.66986.7065 1.16046l.0004 8.05968c0 .2682-.0809.5244-.2333.7436l-.0029.0047-.0033.004-.0025.0036-.0022.0033-.0007.0007c-.118.1655-.278.3045-.4609.3995l-6.19928 3.2096c-.18397.0955-.3919.1459-.60055.1459h-.01705c-.02395-.0004-.04863-.0015-.07258-.0029-.00326-.0004-.00653-.0007-.00979-.0007l-.00386-.0004c-.02091-.0018-.05042-.0043-.08251-.0091l-.00559-.0008-.00457-.0006c-.04318-.0069-.08455-.0153-.12301-.0251-.09544-.0235-.19196-.0598-.28304-.1074l-6.187312-3.2063c-.182161-.0947-.341098-.2322-.459757-.3984-.002177-.0029-.003992-.0058-.005806-.0087l-.002177-.0029-.001815-.0033c-.1534941-.2188-.235503-.4772-.235503-.7468v-8.05573c0-.48988.269976-.93403.704695-1.15974l6.188765-3.209957c.37521-.1948613.82444-.1952242 1.2011-.000725zm-6.59842-2.430872c-.12592-.064953-.27542-.064953-.40025 0l-6.08244 3.155162 6.10131 3.14827c.12555.06459.27506.06459.40025-.00036l2.80245-1.45439.0033-.00181 3.2694-1.69643zm.22824 8.434932v6.69278l5.97068-3.0906c.061-.0315.1139-.0776.1535-.1328.0541-.0751.082-.1622.082-.2536v-7.69506l-6.01422 3.12033c-.18833.09761-.39589.1466-.60164.1466s-.41149-.04826-.5991-.14515l-6.042887-3.11851v7.69319c0 .0918.027941.1793.081646.2537.039916.0562.092531.1016.153131.1332l5.946 3.0815v-6.68558c0-.24058.19487-.43544.43545-.43544s.43544.19486.43544.43544zm-.42304-7.3592c.24049 0 .43544-.19496.43544-.43545s-.19495-.43544-.43544-.43544-.43545.19495-.43545.43544.19496.43545.43545.43545zm0 1.52353c.24049 0 .43544-.19496.43544-.43545s-.19495-.43545-.43544-.43545-.43545.19496-.43545.43545.19496.43545.43545.43545zm0 1.52457c.24049 0 .43544-.19496.43544-.43545s-.19495-.43545-.43544-.43545-.43545.19496-.43545.43545.19496.43545.43545.43545zm.43544 1.08808c0 .24049-.19495.43544-.43544.43544s-.43545-.19495-.43545-.43544.19496-.43545.43545-.43545.43544.19496.43544.43545zm-4.9502 5.6087c-.11032-.2138-.02649-.4765.18724-.5868.21373-.1099.47645-.0261.58676.1876s.02649.4765-.18724.5864c-.06387.033-.13208.0486-.19958.0486-.15749 0-.30989-.086-.38718-.2358zm-1.22784.1434c-.21373.1103-.29755.373-.18724.5868.07729.1498.22934.2358.38718.2358.06714 0 .13536-.0156.19922-.0486.21373-.1103.29755-.373.18761-.5864-.11032-.2141-.37304-.2979-.58677-.1876zm2.64284-.8735c-.11032-.2137-.02613-.4761.1876-.5864s.47645-.0265.5864.1872c.11031.2138.02649.4765-.18724.5868-.06387.033-.13209.0486-.19922.0486-.15785 0-.31025-.0864-.38754-.2362zm2.20458-1.09599c-.01089-.02649-.02431-.05153-.03992-.07512-.01596-.02395-.03411-.04645-.05443-.0664-.01996-.01996-.04209-.03811-.06604-.05407-.02359-.01561-.04899-.02903-.07512-.03992-.02612-.01088-.0537-.01923-.08164-.02504-.05588-.01125-.11394-.01125-.16982 0-.02795.00581-.05552.01416-.08165.02504-.02613.01089-.05153.02431-.07511.03992-.02395.01596-.04609.03411-.06641.05407-.01996.01995-.0381.04245-.05407.0664-.0156.02359-.02903.04863-.03991.07512-.01089.02612-.01924.0537-.02468.08128-.0058.02831-.00871.05701-.00871.08531s.00291.0569.00871.0849c.00544.0279.01379.0551.02468.0816.01088.0261.02431.0515.03991.0751.01597.024.03411.0461.05407.0661.02032.0203.04246.0384.06641.054.02358.016.04898.0294.07511.0403s.0537.0193.08165.0247c.02794.0058.0566.0087.08491.0087.0283 0 .05697-.0029.08491-.0087.02794-.0054.05552-.0138.08164-.0247.02613-.0109.05153-.0243.07512-.0403.02395-.0156.04608-.0337.06604-.054.02032-.02.03847-.0421.05443-.0661.01561-.0236.02903-.049.03992-.0751.01088-.0265.01923-.0537.02504-.0816.00544-.028.00834-.0566.00834-.0849s-.0029-.057-.00834-.08531c-.00581-.02758-.01416-.05516-.02504-.08128zm2.55456-.08763c.01561.02358.02903.04862.03992.07511.01088.02613.01923.05371.02504.08128.00544.02833.00834.05693.00834.08523 0 .1147-.04644.2268-.12736.3078-.02032.0203-.04246.0384-.06641.0544-.02359.0156-.04899.029-.07511.0399-.02613.0109-.05371.0192-.08165.0247-.02794.0058-.05661.0087-.08491.0087-.02831 0-.05697-.0029-.08528-.0087-.02757-.0055-.05515-.0138-.08128-.0247s-.05153-.0243-.07511-.0399c-.02395-.016-.04609-.0341-.06641-.0544-.01996-.02-.0381-.0421-.05407-.0661-.0156-.0236-.02903-.049-.03991-.0751-.01089-.0265-.01923-.0537-.02504-.0816-.00544-.028-.00835-.0566-.00835-.085 0-.0283.00291-.0569.00835-.08523.00581-.02757.01415-.05515.02504-.08128.01088-.02649.02431-.05153.03991-.07511.01597-.02395.03411-.04609.05407-.06641.02032-.01996.04246-.0381.06641-.05407.02358-.0156.04898-.02903.07511-.03991.02613-.01089.05371-.01923.08128-.02504.05625-.01125.11431-.01125.17019 0 .02794.00581.05552.01415.08165.02504.02612.01088.05152.02431.07511.03991.02395.01597.04609.03411.06641.05407.01995.02032.0381.04246.05406.06641zm2.66874 1.32022c-.2133-.1107-.4764-.0273-.5867.1865-.1107.2133-.0273.4761.1865.5867.0638.0331.1324.0487.1999.0487.1575 0 .3096-.0857.3868-.2352.1107-.2137.0273-.4764-.1865-.5867zm.8283.9196c.1106-.2138.3734-.2972.5867-.1866.2138.1104.2972.3734.1865.5868-.0772.1495-.2293.2355-.3868.2355-.0675 0-.136-.016-.1999-.049-.2134-.1107-.2972-.3734-.1865-.5867zm-2.2439-1.653c-.2137-.1103-.47641-.0268-.58672.1866-.11068.2137-.02722.4764.18612.5871.0643.033.1325.0486.2.0486.1575 0 .3099-.0856.3872-.2351.1106-.2138.0268-.4765-.1866-.5872z" fill="#fff" fill-rule="evenodd"/></svg>