<svg fill="none" height="20" viewBox="0 0 30 20" width="30" xmlns="http://www.w3.org/2000/svg"><path d="m28.4465 10.041v-6.31736c0-.57515-.2345-1.09717-.6127-1.47852-.3782-.37823-.9034-.61267-1.4785-.61267h-16.81708c-.33446 0-.6408.06564-.90962.1938s-.51264.32509-.72207.58454l-6.13916 7.63021 6.13916 7.6302c.20943.2594.45325.4563.72207.5845s.57516.1938.90962.1938h16.81708c.5751 0 1.1003-.2344 1.4785-.6127.3782-.3813.6127-.9033.6127-1.4785zm-6.3986-4.16053c.3032-.3032.7939-.3032 1.0971 0 .3032.30321.3032.79397 0 1.09717l-3.0633 3.06336 3.0633 3.0633c.3032.3032.3032.794 0 1.0972s-.7939.3032-1.0971 0l-3.0634-3.0634-3.0633 3.0634c-.3032.3032-.794.3032-1.0972 0s-.3032-.794 0-1.0972l3.0634-3.0633-3.0634-3.06336c-.3032-.3032-.3032-.79396 0-1.09717.3032-.3032.794-.3032 1.0972 0l3.0633 3.06333zm7.9521-2.15683v12.63466c0 1.0034-.4095 1.9161-1.069 2.5726-.6596.6627-1.5723 1.069-2.5757 1.069h-16.81708c-.55953 0-1.09092-.1188-1.57542-.3501-.48138-.2313-.9065-.5689-1.25972-1.0096l-6.523638-8.1022c-.2313128-.2782-.2438162-.69083-.009378-.98153l6.533016-8.1147c.35322-.44074.77834-.778331 1.25972-1.009644.4845-.231312 1.01589-.3500948 1.57542-.3500948h16.81708c1.0034 0 1.9161.4063598 2.5757 1.0690388.6595.65643 1.069 1.56917 1.069 2.57257z" fill="#313131"/></svg>