<svg fill="none" height="61" viewBox="0 0 55 61" width="55" xmlns="http://www.w3.org/2000/svg"><path d="m55 49c0 6.617-5.383 12-12 12s-12-5.383-12-12c0-2.13.565-4.223 1.636-6.052.558-.953 1.781-1.276 2.736-.716.953.558 1.274 1.783.717 2.736-.713 1.217-1.089 2.612-1.089 4.032 0 4.411 3.589 8 8 8s8-3.589 8-8c0-4.014-2.974-7.337-6.833-7.905v1.894l-6.908-3.989 6.908-3.989v2.048c6.071.589 10.833 5.718 10.833 11.941zm-32-39c14.04 0 23-2.961 23-5s-8.96-5-23-5-23 2.961-23 5 8.96 5 23 5zm0 14c14.04 0 23-2.961 23-5v-11.076c-4.029 2.685-13.555 4.076-23 4.076s-18.971-1.391-23-4.076v11.076c0 2.039 8.96 5 23 5zm20 8c1.025 0 2.025.106 3 .28v-10.356c-4.029 2.685-13.555 4.076-23 4.076s-18.971-1.391-23-4.076v11.076c0 2.039 8.96 5 23 5 2.636 0 5.072-.112 7.321-.296 3.113-3.492 7.632-5.704 12.679-5.704zm-20 8c-9.445 0-18.971-1.391-23-4.076v11.076c0 2.039 8.96 5 23 5 1.131 0 2.211-.028 3.27-.066-.166-.955-.27-1.932-.27-2.934 0-3.387 1.002-6.536 2.71-9.187-1.879.115-3.791.187-5.71.187z" fill="#00a1cc"/></svg>