<svg fill="none" height="18" viewBox="0 0 20 18" width="20" xmlns="http://www.w3.org/2000/svg"><g fill="#fff"><path d="m18.7041 17.0004h-16.62615c-.59436 0-1.07756-.4832-1.07756-1.0776v-7.85365c0-.59209.4832-1.07528 1.07529-1.07528h1.17057v.68056h-1.17057c-.21778 0-.39473.17694-.39473.39472v7.85145c0 .22.17922.397.397.397h16.62615c.22 0 .3993-.1792.3993-.3993v-7.84915c0-.21778-.177-.39472-.3948-.39472h-8.81552v-.68056h8.81552c.5921 0 1.0753.48319 1.0753 1.07528v7.84915c0 .5966-.4832 1.0821-1.0798 1.0821z"/><path clip-rule="evenodd" d="m3.34625 6.89387v.88056h-1.27057c-.16255 0-.29473.13217-.29473.29472v7.85145c0 .1644.13407.297.297.297h16.62615c.1648 0 .2993-.1345.2993-.2993v-7.84915c0-.16255-.1322-.29472-.2948-.29472h-8.91552v-.88056h8.91552c.6473 0 1.1753.52797 1.1753 1.17528v7.84915c0 .6516-.5277 1.1821-1.1798 1.1821h-16.62615c-.64959 0-1.177559-.528-1.177559-1.1776v-7.85365c0-.64731.527969-1.17528 1.175289-1.17528zm-1.2683 10.10653h16.62615c.5966 0 1.0798-.4855 1.0798-1.0821v-7.84915c0-.59209-.4832-1.07528-1.0753-1.07528h-8.81552v.68056h8.81552c.2178 0 .3948.17694.3948.39472v7.84915c0 .2201-.1793.3993-.3993.3993h-16.62615c-.21778 0-.397-.177-.397-.397v-7.85145c0-.21778.17695-.39472.39473-.39472h1.17057v-.68056h-1.17057c-.59209 0-1.07529.48319-1.07529 1.07528v7.85365c0 .5944.4832 1.0776 1.07756 1.0776z" fill-rule="evenodd"/><path d="m5.66906 11.7419h-.68056v2.9468h.68056z"/><path clip-rule="evenodd" d="m4.8885 11.6419h.88056v3.1468h-.88056zm.78056.1v2.9468h-.68056v-2.9468z" fill-rule="evenodd"/><path d="m6.77588 13.6558-2.55196-1.4734-.34028.5893 2.55196 1.4735z"/><path clip-rule="evenodd" d="m4.18732 12.0458 2.72516 1.5734-.44028.7626-2.72516-1.5735zm2.58856 1.61-.34028.5894-2.55196-1.4735.34028-.5893z" fill-rule="evenodd"/><path d="m6.7748 12.7715-.34028-.5894-2.55196 1.4735.34028.5893z"/><path clip-rule="evenodd" d="m6.47112 12.0455.44028.7626-2.72516 1.5734-.44028-.7625zm.30368.726-2.55196 1.4734-.34028-.5893 2.55196-1.4735z" fill-rule="evenodd"/><path d="m10.7324 11.7419h-.6805v2.9468h.6805z"/><path clip-rule="evenodd" d="m9.95189 11.6419h.88051v3.1468h-.88051zm.78051.1v2.9468h-.6805v-2.9468z" fill-rule="evenodd"/><path d="m11.8389 13.6564-2.55195-1.4734-.34028.5893 2.55193 1.4735z"/><path clip-rule="evenodd" d="m9.25035 12.0464 2.72515 1.5734-.4403.7626-2.72513-1.5735zm2.58855 1.61-.3403.5894-2.55193-1.4735.34028-.5893z" fill-rule="evenodd"/><path d="m11.8377 12.7725-.3403-.5894-2.55199 1.4734.34028.5894z"/><path clip-rule="evenodd" d="m11.534 12.0465.4403.7626-2.72521 1.5734-.44028-.7626zm.3037.726-2.55201 1.4734-.34028-.5894 2.55199-1.4734z" fill-rule="evenodd"/><path d="m15.7958 11.7419h-.6805v2.9468h.6805z"/><path clip-rule="evenodd" d="m15.0153 11.6419h.8805v3.1468h-.8805zm.7805.1v2.9468h-.6805v-2.9468z" fill-rule="evenodd"/><path d="m16.9001 13.6558-2.552-1.4734-.3402.5893 2.5519 1.4735z"/><path clip-rule="evenodd" d="m14.3115 12.0458 2.7252 1.5734-.4403.7626-2.7251-1.5735zm2.5886 1.61-.3403.5894-2.5519-1.4735.3402-.5893z" fill-rule="evenodd"/><path d="m16.9004 12.7733-.3402-.5894-2.552 1.4734.3403.5894z"/><path clip-rule="evenodd" d="m16.5968 12.0473.4402.7626-2.7251 1.5734-.4403-.7626zm.3036.726-2.5519 1.4734-.3403-.5894 2.552-1.4734z" fill-rule="evenodd"/><path d="m9.2193 10.2856h-5.30159c-.55806 0-1.01177-.45371-1.01177-1.01177v-4.19454c0-.55806.45371-1.01177 1.01177-1.01177h5.29478c.5626 0 1.02081.45825 1.02081 1.02085v4.18092c0 .56033-.45594 1.01631-1.014 1.01631zm-5.30159-5.53525c-.18148 0-.3312.14746-.3312.33121v4.19453c0 .18149.14745.33121.3312.33121h5.30159c.18375 0 .33347-.14972.33347-.33347v-4.1832c0-.18828-.15199-.34028-.34028-.34028z"/><path clip-rule="evenodd" d="m9.2193 10.3856h-5.30159c-.61329 0-1.11177-.49848-1.11177-1.11177v-4.19454c0-.61329.49848-1.11177 1.11177-1.11177h5.29478c.61783 0 1.12081.50302 1.12081 1.12085v4.18092c0 .61541-.50057 1.11631-1.114 1.11631zm-5.30159-5.53525c-.1267 0-.2312.10313-.2312.23121v4.19453c0 .12671.10313.23121.2312.23121h5.30159c.12852 0 .23347-.10495.23347-.23347v-4.1832c0-.13306-.10722-.24028-.24028-.24028zm0 5.43525h5.30159c.55806 0 1.014-.45598 1.014-1.01631v-4.18092c0-.5626-.45821-1.02085-1.02081-1.02085h-5.29478c-.55806 0-1.01177.45371-1.01177 1.01177v4.19454c0 .55806.45371 1.01177 1.01177 1.01177zm-.3312-5.20404c0-.18375.14972-.33121.3312-.33121h5.29478c.18829 0 .34028.152.34028.34028v4.1832c0 .18375-.14972.33347-.33347.33347h-5.30159c-.18375 0-.3312-.14972-.3312-.33121z" fill-rule="evenodd"/><path d="m4.3578 4.75483v-1.53807c0-1.22275.99362-2.21637 2.2141-2.21637.58755 0 1.14334.23139 1.56302.65107.41741.41741.6488.97321.6488 1.5653v1.53807zm3.74309-.68057v-.8575c0-.41061-.15879-.79626-.44917-1.08437-.29037-.29037-.67602-.45144-1.08209-.45144-.84617 0-1.53354.68964-1.53354 1.53581v.8575z"/><g clip-rule="evenodd" fill-rule="evenodd"><path d="m4.2578 4.85483v-1.63807c0-1.27791 1.03832-2.316369 2.3141-2.316369.61435 0 1.1955.242129 1.63373.680359.4361.4361.67809 1.0173.67809 1.63601v1.63807zm3.32321-2.65173c-.27189-.27189-.63222-.42215-1.01138-.42215-.79075 0-1.43354.64468-1.43354 1.43581v.7575h2.8648v-.7575c0-.38431-.14868-.74458-.41988-1.01366zm.51988 1.87116h-3.0648v-.8575c0-.84617.68737-1.53581 1.53354-1.53581.40607 0 .79172.16107 1.08209.45144.29038.28811.44917.67376.44917 1.08437zm.68283.68057v-1.53807c0-.59209-.23139-1.14789-.6488-1.5653-.41968-.41968-.97547-.65107-1.56302-.65107-1.22048 0-2.2141.99362-2.2141 2.21637v1.53807z"/><path d="m6.21816 8.17037c-.00003-.00001.00004.00001 0 0zm.78047-.03471c.34248-.16208.58084-.51094.58084-.91531 0-.55884-.45311-1.01195-1.01195-1.01195-.55885 0-1.01195.45311-1.01195 1.01195 0 .39741.22914.74136.5625.9069v.60684h.88056zm-.5625-.91531c0-.07181.05958-.13139.13139-.13139s.13139.05958.13139.13139-.05958.13139-.13139.13139-.13139-.05958-.13139-.13139z"/></g></g></svg>