<svg fill="none" height="17" viewBox="0 0 17 17" width="17" xmlns="http://www.w3.org/2000/svg"><path clip-rule="evenodd" d="m15.3266 12.3831c.2425-.1281.3352-.4286.207-.6711-.0037-.0069-.0074-.0136-.0114-.0203v-6.5842c0-.07501-.0228-.14467-.0613-.20415-.0666-.21284-.2148-.39511-.418-.50253l-6.43392-3.400947c-.25094-.132643-.55122-.132643-.80216 0l-6.43392 3.400947c-.23622.12486-.39813.35084-.443927.60847-.008743.0315-.013383.06442-.013383.09821v6.229c-.001479.0718-.004117.1501-.006833.2306l-.000097.0029c-.005817.1724-.012027.3565-.006779.4976.002605.0701.008188.136.020151.1866.005795.0244.014907.0536.031376.0788.013412.0205.038325.0473.076142.0575l6.90946 3.6523c.1452.0768.31896.0768.46417 0zm.1516-.3383c-.0273.1034-.0962.1956-.1982.2495l-6.92345 3.6597c-.11597.0613-.25474.0613-.37071 0l-6.92342-3.6597c-.078082.0011-.065393-.3751-.05362-.7242.00273-.0808.0054-.1601.00689-.2329v-6.23009c0-.02324.00301-.0459.00873-.06771-.00578.02193-.00883.04472-.00883.0681v6.2301c-.00149.0728-.00417.1521-.00689.2329-.011775.3491-.024464.7253.05361.7242l6.92343 3.6597c.11597.0613.25474.0613.3707 0l6.92346-3.6597c.1022-.054.171-.1463.1983-.2499zm-7.7384 2.7692-5.86596-3.1007v-5.53017l5.86596 3.10072zm.1.1656v-5.756l-6.06586-3.20638v-.00045l6.06596 3.20644v5.75639zm.85824-.2161v-5.49129l5.86596-3.10073v5.49132zm-.0999-5.5516v-.00034l6.06596-3.20644v5.71748l-.0001.0001v-5.71719zm6.04336-4.05249.0004-.00022-6.4339-3.40095-6.43392 3.40095.00032.00017 6.4335-3.40072zm-6.4336 3.288-6.21994-3.28783 6.21994-3.28783 6.2199 3.28783z" fill="#fff" fill-rule="evenodd"/></svg>