<svg viewBox="0 0 150.47 140.64" xmlns="http://www.w3.org/2000/svg"><path d="m75.24 12.56c-35.03 0-63.43 28.4-63.43 63.43s28.4 63.43 63.43 63.43 63.43-28.4 63.43-63.43-28.4-63.43-63.43-63.43z"/><path d="m75.24 116.73c-2.78 0-5.55-.28-8.23-.83-2.6-.53-5.17-1.33-7.62-2.36-2.41-1.02-4.73-2.28-6.91-3.75-2.16-1.46-4.19-3.14-6.04-4.99s-3.53-3.88-4.99-6.04c-1.47-2.18-2.73-4.5-3.75-6.91-1.04-2.45-1.83-5.01-2.36-7.62-.55-2.68-.83-5.45-.83-8.23s.28-5.55.83-8.23c.53-2.6 1.33-5.17 2.36-7.62 1.02-2.41 2.28-4.73 3.75-6.91 1.46-2.16 3.14-4.19 4.99-6.04s3.88-3.53 6.04-4.99c2.18-1.47 4.5-2.73 6.91-3.75 2.45-1.04 5.01-1.83 7.62-2.36 2.68-.55 5.45-.83 8.23-.83s5.55.28 8.23.83c2.6.53 5.17 1.33 7.62 2.36 2.41 1.02 4.73 2.28 6.91 3.75 2.16 1.46 4.19 3.14 6.04 4.99s3.53 3.88 4.99 6.04c1.47 2.18 2.73 4.5 3.75 6.91 1.04 2.45 1.83 5.01 2.36 7.62.55 2.68.83 5.45.83 8.23s-.28 5.55-.83 8.23c-.53 2.6-1.33 5.17-2.36 7.62-1.02 2.41-2.28 4.73-3.75 6.91-1.46 2.16-3.14 4.19-4.99 6.04s-3.88 3.53-6.04 4.99c-2.18 1.47-4.5 2.73-6.91 3.75-2.45 1.04-5.01 1.83-7.62 2.36-2.68.55-5.45.83-8.23.83z" fill="#ffcb05"/><path d="m75.24 36.3c2.71 0 5.41.27 8.02.81 2.54.52 5.03 1.29 7.42 2.3 2.35.99 4.61 2.22 6.73 3.66 2.11 1.42 4.09 3.06 5.89 4.86s3.44 3.78 4.86 5.89c1.43 2.12 2.66 4.39 3.66 6.73 1.01 2.39 1.78 4.88 2.3 7.42.54 2.62.81 5.32.81 8.02s-.27 5.41-.81 8.02c-.52 2.54-1.29 5.03-2.3 7.42-.99 2.35-2.22 4.61-3.66 6.73-1.42 2.11-3.06 4.09-4.86 5.89s-3.78 3.44-5.89 4.86c-2.12 1.43-4.39 2.66-6.73 3.66-2.39 1.01-4.88 1.78-7.42 2.3-2.62.54-5.32.81-8.02.81s-5.41-.27-8.02-.81c-2.54-.52-5.03-1.29-7.42-2.3-2.35-.99-4.61-2.22-6.73-3.66-2.11-1.42-4.09-3.06-5.89-4.86s-3.44-3.78-4.86-5.89c-1.43-2.12-2.66-4.39-3.66-6.73-1.01-2.39-1.78-4.88-2.3-7.42-.54-2.62-.81-5.32-.81-8.02s.27-5.41.81-8.02c.52-2.54 1.29-5.03 2.3-7.42.99-2.35 2.22-4.61 3.66-6.73 1.42-2.11 3.06-4.09 4.86-5.89s3.78-3.44 5.89-4.86c2.12-1.43 4.39-2.66 6.73-3.66 2.39-1.01 4.88-1.78 7.42-2.3 2.62-.54 5.32-.81 8.02-.81m0-2.08c-2.85 0-5.69.29-8.44.85-2.67.55-5.3 1.36-7.81 2.43-2.47 1.05-4.86 2.34-7.09 3.85-2.22 1.5-4.3 3.22-6.2 5.11-1.9 1.9-3.62 3.98-5.11 6.2-1.51 2.23-2.8 4.62-3.85 7.09-1.06 2.51-1.88 5.14-2.43 7.81-.56 2.75-.85 5.59-.85 8.44s.29 5.69.85 8.44c.55 2.67 1.36 5.3 2.43 7.81 1.05 2.47 2.34 4.86 3.85 7.09 1.5 2.22 3.22 4.3 5.11 6.2 1.9 1.9 3.98 3.62 6.2 5.11 2.23 1.51 4.62 2.8 7.09 3.85 2.51 1.06 5.14 1.88 7.81 2.43 2.75.56 5.59.85 8.44.85s5.69-.29 8.44-.85c2.67-.55 5.3-1.36 7.81-2.43 2.47-1.05 4.86-2.34 7.09-3.85 2.22-1.5 4.3-3.22 6.2-5.11 1.9-1.9 3.62-3.98 5.11-6.2 1.51-2.23 2.8-4.62 3.85-7.09 1.06-2.51 1.88-5.14 2.43-7.81.56-2.75.85-5.59.85-8.44s-.29-5.69-.85-8.44c-.55-2.67-1.36-5.3-2.43-7.81-1.05-2.47-2.34-4.86-3.85-7.09-1.5-2.22-3.22-4.3-5.11-6.2-1.9-1.9-3.98-3.62-6.2-5.11-2.23-1.51-4.62-2.8-7.09-3.85-2.51-1.06-5.14-1.88-7.81-2.43-2.75-.56-5.59-.85-8.44-.85z" fill="#ffcb05"/><path d="m75.24 13.44c34.55 0 62.56 28.01 62.56 62.56s-28.01 62.56-62.56 62.56-62.56-28.01-62.56-62.56 28.01-62.56 62.56-62.56m0-2.08c-4.38 0-8.77.44-13.03 1.31-4.15.85-8.23 2.12-12.14 3.77-3.83 1.62-7.53 3.63-10.98 5.96-3.42 2.31-6.64 4.97-9.57 7.89-2.92 2.92-5.58 6.14-7.89 9.57-2.33 3.46-4.34 7.15-5.96 10.98-1.65 3.9-2.92 7.99-3.77 12.14-.87 4.26-1.31 8.64-1.31 13.03s.44 8.77 1.31 13.03c.85 4.15 2.12 8.23 3.77 12.14 1.62 3.83 3.63 7.53 5.96 10.98 2.31 3.42 4.97 6.64 7.89 9.57 2.92 2.92 6.14 5.58 9.57 7.89 3.46 2.33 7.15 4.34 10.98 5.96 3.9 1.65 7.99 2.92 12.14 3.77 4.26.87 8.64 1.31 13.03 1.31s8.77-.44 13.03-1.31c4.15-.85 8.23-2.12 12.14-3.77 3.83-1.62 7.53-3.63 10.98-5.96 3.42-2.31 6.64-4.97 9.57-7.89 2.92-2.92 5.58-6.14 7.89-9.57 2.33-3.46 4.34-7.15 5.96-10.98 1.65-3.9 2.92-7.99 3.77-12.14.87-4.26 1.31-8.64 1.31-13.03s-.44-8.77-1.31-13.03c-.85-4.15-2.12-8.23-3.77-12.14-1.62-3.83-3.63-7.53-5.96-10.98-2.31-3.42-4.97-6.64-7.89-9.57-2.92-2.92-6.14-5.58-9.57-7.89-3.46-2.33-7.15-4.34-10.98-5.96-3.9-1.65-7.99-2.92-12.14-3.77-4.26-.87-8.64-1.31-13.03-1.31z" fill="#ffcb05"/><path d="m74.86 105.7c0 2.55-1.47 4.4-4.35 4.5l-.24-1.58c1.42-.07 2.37-.69 2.65-1.61-.33.23-.73.34-1.24.34-1.23 0-2.18-.81-2.18-2.23 0-1.5 1.03-2.49 2.57-2.49 1.96 0 2.78 1.37 2.78 3.07zm-1.88-.64c0-.48-.34-.8-.82-.8s-.82.32-.82.8.36.79.82.79.82-.3.82-.79z"/><path d="m86.24 108.4v1.63h-5.04v-.89l2.41-3.13c.38-.49.5-.78.5-1.06 0-.33-.25-.56-.61-.56-.42 0-.79.26-1.16.74l-1.24-.92c.61-1.04 1.47-1.59 2.64-1.59 1.46 0 2.35.99 2.35 2.1 0 .74-.27 1.29-1.01 2.2l-.85 1.1c-.1.12-.22.26-.34.39.23-.02.42-.02.61-.02h1.73z"/><path d="m79.3 108.43v-5.66h-1.42l-2.38 1.48.73 1.37.91-.47c.08-.04.15-.08.22-.11-.01.2-.02.41-.02.61v2.78h-1.1v1.6h4.17v-1.6z"/><path d="m67.99 108.43v-5.66h-1.42l-2.38 1.48.73 1.37.91-.47c.08-.04.15-.08.22-.11-.01.2-.02.41-.02.61v2.78h-1.1v1.6h4.17v-1.6z"/><path d="m1.04 54.16h148.39v43.68h-148.39z"/><g fill="#ffcb05"><path d="m148.39 55.2v41.6h-146.31v-41.6zm2.08-2.08h-150.47v45.76h150.47z"/><path d="m12.67 64.02c5.07.56 10.14 1.05 15.21 1.47v5.05c-3.16-.26-6.32-.55-9.47-.87v3.15c1.27.13 2.55.25 3.82.37 3.95.37 7.55 3.32 7.55 7.5 0 1.62-.62 3.26-1.78 4.41-1.53 1.53-3.69 1.92-5.77 1.75-3.19-.3-6.38-.62-9.56-.97 0-7.29 0-14.58 0-21.87zm8.53 18.21c1.37.13 2.8-.46 2.79-2.02 0-1.55-1.38-2.43-2.79-2.57-.93-.09-1.86-.18-2.79-.27v4.6l2.79.27z"/><path d="m31.37 76.71c0-2.97 1.02-5.93 3.26-7.96 2.3-2.08 5.47-2.85 8.51-2.67 3.16.19 6.27 1.35 8.51 3.63 2.17 2.21 3.27 5.26 3.27 8.33 0 2.98-1.07 5.98-3.27 8.06-2.28 2.14-5.43 2.99-8.51 2.82-3.18-.17-6.3-1.45-8.51-3.78-2.15-2.27-3.25-5.32-3.26-8.42zm17.59 1.08c0-3.42-2.31-6.31-5.82-6.51-1.57-.09-3.21.35-4.33 1.52-1.1 1.15-1.52 2.77-1.53 4.33-.02 3.43 2.32 6.39 5.85 6.57 1.59.08 3.19-.37 4.3-1.56 1.08-1.16 1.53-2.8 1.52-4.35z"/><path d="m113.45 82.11c0 3.87-3.34 6.19-6.95 6.37-3.3.18-6.61.33-9.91.46 0-7.29 0-14.58 0-21.87 3.09-.12 6.18-.26 9.27-.42 1.73-.1 3.61.19 5.01 1.29 1.25.99 1.85 2.52 1.85 4.09 0 2.01-1 3.91-2.7 5 2.2.78 3.44 2.79 3.44 5.09zm-11.13-6.63c.75-.04 1.5-.07 2.25-.11 1.32-.06 2.35-.95 2.35-2.31 0-1.37-1.12-2-2.38-1.93-.74.04-1.48.07-2.22.11v4.25zm5.31 6.28c0-1.39-1.07-2.2-2.41-2.12-.97.05-1.93.1-2.9.15v4.5c.95-.05 1.91-.09 2.86-.14 1.36-.07 2.44-.97 2.45-2.39z"/><path d="m137.79 78.72c0 4.17-3.35 7.57-7.44 7.94-3.23.31-6.46.6-9.7.86 0-5.52 0-11.04 0-16.56-1.7.14-3.41.26-5.11.39 0-1.77 0-3.54 0-5.31 3.63-.26 7.26-.55 10.89-.88v7.53c1.31-.12 2.61-.24 3.92-.37 3.99-.41 7.44 2.28 7.44 6.4zm-5.74.6c0-1.46-1.26-2.26-2.63-2.12-1 .09-1.99.19-2.99.28v4.76c1-.09 1.99-.18 2.99-.28 1.4-.14 2.64-1.15 2.63-2.64z"/><path d="m73.35 72.77c-1.88 0-3.76-.02-5.64-.05v16.56c-1.93-.03-3.87-.06-5.8-.11 0-5.52 0-11.04 0-16.56-1.88-.04-3.76-.1-5.64-.16 0-1.77 0-3.54 0-5.31 5.69.19 11.38.29 17.07.31v5.31z"/><path d="m92.36 84.13v4.95c-4.94.15-9.88.23-14.82.25 0-7.29 0-14.58 0-21.87 4.84-.02 9.69-.1 14.53-.24v4.95c-2.92.09-5.84.15-8.76.19v3.51c2.53-.04 5.07-.09 7.6-.16v4.82c-2.53.07-5.07.12-7.6.16v3.63c3.02-.04 6.03-.11 9.05-.2z"/></g><path d="m75.24 62.05 21.3-7.76v-52.94h-42.61v52.94z" fill-rule="evenodd"/><path d="m75.24 61.32 20.78-7.58v-51.66h-41.57v51.66z" fill-rule="evenodd"/><path d="m55.48 47.69v-19.62l24.93-24.95h14.58v5.02zm10.46 9.14 9.3 3.38 10.88-3.96 8.88-8.89v-19.61zm-10.46-48.37 5.34-5.34h-5.34z"/><path d="m95 53.01-8.88 3.23 8.88-8.89v5.65zm-39.52-5.33v5.33l10.46 3.81 29.06-29.08v-19.6l-39.52 39.55zm24.93-44.56h-19.6l-5.34 5.34v19.61z" fill="#ffcb05"/><path d="m95 3.12v49.89l-19.76 7.2-19.76-7.2v-49.89zm1.04-1.04h-41.6v51.66l20.8 7.57 20.8-7.57z"/><path d="m96.04 2.08v51.66l-20.8 7.57-20.8-7.57v-51.66zm2.08-2.08h-45.77v55.2l1.37.5 20.8 7.57.71.26.71-.26 20.8-7.57 1.37-.5v-55.2z" fill="#ffcb05"/></svg>