<svg viewBox="0 0 141 175" xmlns="http://www.w3.org/2000/svg"><g fill="none" opacity=".603585"><path d="m65.8463404 173.492321c-27.8290076-1.214548-53.6249663-20.726538-61.519533-47.261787-6.12555-20.515312-2.8251459-40.2385271 7.0496633-58.9848225 7.2080826-13.6504715 17.5845532-24.7926359 28.4098787-35.5387517 9.4523574-9.3731477 19.3535698-18.3238437 28.0402335-28.436282 1.3993714-1.6105972 2.5611136-3.4324203 4.8317917-.7392905 10.9837449 13.0960036 24.132555 24.1061517 35.8555904 36.5156713 10.904535 11.5646161 20.515312 23.9477324 26.139201 39.0239784 12.620745 33.928154 1.980242 70.628648-32.634396 88.450831-11.1685679 5.703098-21.4394255 7.868163-36.1724296 6.970453z" stroke="#44beaf"/><path d="m99.8008981 94.3090253c1.0561294-7.3136955-3.9868882-15.0498428-13.7824876-18.4030534l2.5611136-10.3500673-7.7625505-1.9274361-2.4819039 10.0332286c-2.033049-.5016614-4.1453076-.9769196-6.2047598-1.4521778l2.5083071-10.1124383-7.7625505-1.927436-2.5611136 10.3500674-14.04652-3.4588236-2.0594521 8.2906152s5.7559048 1.3201617 5.6238886 1.3993714c3.1419847.792097 3.6964526 2.8515491 3.6172429 4.5149528l-8.6602604 34.8786708c-.3960485.950516-1.3465649 2.376291-3.5380332 1.848226.0792097.105613-5.6502919-1.399371-5.6502919-1.399371l-3.8284688 8.871486 14.0201167 3.538034-2.7987427 11.300583 7.7361473 1.927436 2.7723395-11.168567c2.1122586.580871 4.1717108 1.108936 6.1783565 1.584194l-2.7723394 11.115761 7.7625505 1.953839 2.7987427-11.27418c13.2280197 2.481903 23.2876515-.950517 25.7431522-10.878132 2.0066457-8.105793.2112259-14.04652-5.5710822-18.403054 3.8284688-1.240952 7.3400988-5.1222271 8.158599-10.8517287zm-15.8947463 24.2645717c-2.3762909 9.63718-18.587876 4.435743-23.8421194 3.141984l4.2245173-17.082892c5.2542434 1.320162 22.099506 3.907679 19.6176021 13.940908zm2.376291-24.9774589c-2.1914683 8.7658729-15.6835204 4.3301302-20.0664571 3.2475976l3.8284688-15.4722945c4.4093399 1.0825325 18.4822631 3.0891782 16.2379883 12.2246969z" stroke="#46beae"/></g></svg>