<svg viewBox="0 0 142 142" xmlns="http://www.w3.org/2000/svg"><g fill="none" opacity=".595331" stroke="#fab42e"><path d="m138.904758 87.9338583c-9.350371 37.4999317-47.3359794 60.3218877-84.8446618 50.9704207-37.4933683-9.349281-60.3179867-47.3326451-50.9632404-84.8303896 9.3459954-37.5043069 47.3316036-60.3284502 84.8293474-50.9791701 37.5064948 9.3492801 60.3289258 47.3370196 50.9785548 84.839139z"/><path d="m99.8327348 59.3776374c1.3316782-9.2466994-5.4458726-14.2175061-14.7132635-17.5335489l3.0062053-12.5258248-7.3399074-1.9001555-2.9267645 12.1957407c-1.9295741-.4994694-3.9114118-.970708-5.8807062-1.4376033l2.94767-12.2760901-7.3357263-1.9001555-3.0082959 12.5214816c-1.5971772-.3778595-3.1650868-.7513757-4.6870043-1.1444365l.0083622-.0390889-10.1224243-2.6254719-1.95257 8.1435234s5.4458726 1.2964489 5.3308925 1.3767984c2.9727566.7709202 3.5100269 2.8144017 3.4201335 4.4344199l-3.4243146 14.2696247c.2048736.0542901.4703729.132468.7630494.2540779-.2445939-.0629766-.5059122-.132468-.7755926-.1997878l-4.7998939 19.9896355c-.363755.9381339-1.2856859 2.3453348-3.3636887 1.8111197.0731691.1107519-5.3350736-1.3833132-5.3350736-1.3833132l-3.6438219 8.7276855 9.5517052 2.4734595c1.7769641.4625521 3.518389.9468203 5.2326369 1.4028576l-3.0375635 12.6691506 7.3315452 1.900156 3.0082958-12.5345115c2.0027432.5646176 3.946951 1.0858031 5.849348 1.5765861l-2.9978431 12.4758784 7.3399074 1.900155 3.0375635-12.6452632c12.5160995 2.4604302 21.927738 1.4680058 25.8893229-10.291242 3.1922639-9.4682032-.1588815-14.929793-6.7441017-18.4912272 4.7957127-1.1487797 8.4081764-4.4257335 9.3719182-11.1946302zm-16.7703609 24.4283987c-2.2682425 9.4682032-17.6149415 4.3497273-22.5904412 3.066308l4.0305729-16.7843447c4.9754997 1.2899341 20.9305476 3.8437431 18.5598683 13.7180367zm2.2703331-24.5652099c-2.0696407 8.6125904-14.8428774 4.2368038-18.9863397 3.1640303l3.6542746-15.2229598c4.1434623 1.0727735 17.4874181 3.0749944 15.3320651 12.0589295z"/></g></svg>