<svg fill="none" height="26" viewBox="0 0 22 26" width="22" xmlns="http://www.w3.org/2000/svg"><path d="m10.5354 1.04393-.0003-.00028-.0072.00831-9.49672 10.99624c-.12262.1253-.263078.3906-.123923.6689.128923.2578.385663.3829.634163.3829h4.35v11.35c0 .1841.06202.3491.18144.4686.11941.1194.28447.1814.46856.1814h8.99998c.1841 0 .3492-.062.4686-.1814.1194-.1195.1814-.2845.1814-.4686v-11.35h4.35c.2426 0 .493-.1192.6248-.3647.046-.0571.0615-.1254.0655-.1809.0046-.0643-.0048-.1308-.0198-.1908-.0282-.1128-.0861-.2387-.1601-.3152l-9.4969-10.99644.0003-.00027-.0077-.00776c-.1345-.134492-.3263-.19393-.5061-.19393s-.3715.059438-.506.19393zm4.356 11.40607v11.35h-7.69998v-11.35c0-.1841-.06202-.3491-.18143-.4686-.11942-.1194-.28448-.1814-.46857-.1814h-3.57168l8.07166-9.32086 8.0717 9.32086h-3.5717c-.1841 0-.3491.062-.4685.1814-.1195.1195-.1815.2845-.1815.4686z" fill="#313131" stroke="#313131" stroke-width=".3"/></svg>