<svg width="97" height="97" viewBox="0 0 97 97" fill="none" xmlns="http://www.w3.org/2000/svg">
<circle cx="48.5" cy="48.5" r="48.5" fill="#00C7F9"/>
<path d="M42.2103 63C41.4336 62.9998 40.6889 62.6986 40.1398 62.1627L28.8941 51.1888C28.6144 50.9251 28.3912 50.6098 28.2378 50.2611C28.0843 49.9125 28.0035 49.5375 28.0001 49.158C27.9967 48.7786 28.0708 48.4023 28.2181 48.051C28.3653 47.6998 28.5828 47.3808 28.8578 47.1124C29.1327 46.8441 29.4597 46.6319 29.8196 46.4882C30.1795 46.3445 30.5652 46.2722 30.954 46.2755C31.3429 46.2788 31.7272 46.3576 32.0845 46.5074C32.4418 46.6572 32.7649 46.8749 33.0351 47.1479L42.2103 56.1013L64.0369 34.8022C64.5892 34.2816 65.329 33.9936 66.0969 34.0001C66.8647 34.0066 67.5993 34.3072 68.1422 34.837C68.6852 35.3669 68.9932 36.0837 68.9999 36.833C69.0066 37.5823 68.7114 38.3041 68.1779 38.8431L44.2808 62.1627C43.7317 62.6986 42.9869 62.9998 42.2103 63Z" fill="white"/>
</svg>
