<svg width="7" height="12" viewBox="0 0 7 12" fill="none" xmlns="http://www.w3.org/2000/svg">
<path d="M0.292043 9.46236L4.17204 5.58236L0.292043 1.70236C0.040171 1.45049 -0.0581963 1.08338 0.0339954 0.739313C0.126187 0.395249 0.394931 0.126505 0.738995 0.0343132C1.08306 -0.0578785 1.45017 0.0404882 1.70204 0.29236L6.29204 4.88236C6.47927 5.06921 6.58449 5.32285 6.58449 5.58736C6.58449 5.85187 6.47927 6.10552 6.29204 6.29236L1.70204 10.8824C1.5152 11.0696 1.26155 11.1748 0.997043 11.1748C0.732534 11.1748 0.478888 11.0696 0.292043 10.8824C-0.0879567 10.4924 -0.0979567 9.85236 0.292043 9.46236Z" fill="#191919"/>
</svg>
