<svg fill="none" height="14" viewBox="0 0 13 14" width="13" xmlns="http://www.w3.org/2000/svg" xmlns:xlink="http://www.w3.org/1999/xlink"><mask id="a" fill="#000" height="14" maskUnits="userSpaceOnUse" width="14" x="-.5" y="0"><path d="m-.5 0h14v14h-14z" fill="#fff"/><path clip-rule="evenodd" d="m5.09992 1h6.99988c.1061 0 .2079.04214.2829.11714s.1171.17678.1171.28285v6.99989c0 .14294-.0763.27499-.2.34642-.1237.07142-.2762.07142-.4 0-.1237-.07143-.2-.20348-.2-.34642v-6.59989h-6.59988c-.14294 0-.27499-.07625-.34642-.2s-.07143-.27624 0-.39999.20347-.2.34642-.2zm-4.199926 1.60017h9.599806c.1061 0 .2079.04214.2829.11714s.1171.17678.1171.28285v9.59984c0 .1061-.0421.2079-.1171.2829s-.1768.1171-.2829.1171h-9.599806c-.10607 0-.207855-.0421-.282853-.1171s-.117141-.1768-.117141-.2829v-9.59984c0-.10607.042143-.20785.117141-.28285s.176783-.11714.282853-.11714zm.399996 9.59983h8.79981v-8.79984h-8.79981z" fill="#000" fill-rule="evenodd"/></mask><g fill="#191919"><path clip-rule="evenodd" d="m5.09992 1h6.99988c.1061 0 .2079.04214.2829.11714s.1171.17678.1171.28285v6.99989c0 .14294-.0763.27499-.2.34642-.1237.07142-.2762.07142-.4 0-.1237-.07143-.2-.20348-.2-.34642v-6.59989h-6.59988c-.14294 0-.27499-.07625-.34642-.2s-.07143-.27624 0-.39999.20347-.2.34642-.2zm-4.199926 1.60017h9.599806c.1061 0 .2079.04214.2829.11714s.1171.17678.1171.28285v9.59984c0 .1061-.0421.2079-.1171.2829s-.1768.1171-.2829.1171h-9.599806c-.10607 0-.207855-.0421-.282853-.1171s-.117141-.1768-.117141-.2829v-9.59984c0-.10607.042143-.20785.117141-.28285s.176783-.11714.282853-.11714zm.399996 9.59983h8.79981v-8.79984h-8.79981z" fill-rule="evenodd"/><path d="m12.3827 1.11714.1414-.14142v-.000001zm-.4829 7.62916-.1.17321zm-.2-6.94631h.2v-.2h-.2zm-6.9463-.2.17322-.09998zm0-.39999.17322.09998zm6.0292 1.51731-.1414.14142zm0 10.16559.1414.1414zm-10.165559 0-.141422.1414h.000001zm0-10.16559.141421.14142zm9.482659 9.48269v.2h.2v-.2zm-8.79981 0h-.2v.2h.2zm8.79981-8.79984h.2v-.2h-.2zm-8.79981 0v-.2h-.2v.2zm10.79981-2.60016h-6.99988v.4h6.99988zm.4243.175719c-.1125-.112522-.2652-.175719-.4243-.175719v.4c.0531 0 .104.02109.1414.05856zm.1757.424271c0-.15909-.0632-.31175-.1757-.42427l-.2829.28284c.0375.03748.0586.08838.0586.14143zm0 6.99989v-6.99989h-.4v6.99989zm-.3.51963c.1856-.10716.3-.30524.3-.51963h-.4c0 .07149-.0381.13751-.1.1732zm-.6 0c.1856.10714.4144.10714.6 0l-.2-.34643c-.0619.03572-.1381.03572-.2 0zm-.3-.51963c0 .21439.1144.41247.3.51963l.2-.34643c-.0619-.03569-.1-.1017-.1-.1732zm0-6.59989v6.59989h.4v-6.59989zm-6.39988.2h6.59988v-.4h-6.59988zm-.51963-.30002c.10715.18565.30524.30002.51963.30002v-.4c-.0715 0-.13751-.03814-.1732-.09998zm-.00001-.59995c-.10713.18561-.10714.41433.00001.59995l.34643-.19996c-.03572-.06188-.03572-.13815 0-.20003zm.51964-.30002c-.21439 0-.41248.114363-.51964.30002l.34644.19996c.03569-.06185.1017-.09998.1732-.09998zm5.39988 1.60017h-9.599806v.4h9.599806zm.4243.17572c-.1125-.11252-.2652-.17572-.4243-.17572v.4c.0531 0 .104.02109.1415.05856zm.1757.42427c0-.15909-.0632-.31175-.1757-.42427l-.2828.28284c.0374.03747.0585.08838.0585.14143zm0 9.59984v-9.59984h-.4v9.59984zm-.1757.4243c.1125-.1125.1757-.2652.1757-.4243h-.4c0 .0531-.0211.104-.0585.1414zm-.4243.1757c.1591 0 .3118-.0632.4243-.1757l-.2828-.2829c-.0375.0375-.0884.0586-.1415.0586zm-9.599806 0h9.599806v-.4h-9.599806zm-.424274-.1757c.112522.1125.265185.1757.424274.1757v-.4c-.05305 0-.103959-.0211-.141432-.0586zm-.17572-.4243c0 .1591.063197.3118.175719.4243l.282844-.2829c-.037474-.0374-.058563-.0883-.058563-.1414zm0-9.59984v9.59984h.4v-9.59984zm.17572-.42427c-.112523.11252-.17572.26518-.17572.42427h.4c0-.05305.021089-.10396.058562-.14143zm.424274-.17572c-.159089 0-.311752.0632-.424274.17572l.282842.28284c.037473-.03747.088381-.05856.141432-.05856zm9.199806 9.59983h-8.79981v.4h8.79981zm-.19995-8.59984v8.79984h.39995v-8.79984zm-8.59986.2h8.79981v-.4h-8.79981zm.2 8.59984v-8.79984h-.4v8.79984z" mask="url(#a)"/></g></svg>