<svg fill="none" height="14" viewBox="0 0 14 14" width="14" xmlns="http://www.w3.org/2000/svg"><path d="m1.81591.354406 5.184 5.184004 5.16269-5.16267c.1828-.194588.437-.3062854.704-.3093338.5891 0 1.0666.4775628 1.0666 1.0666638.0051.26431-.0991.519-.288.704l-5.21595 5.16267 5.21595 5.21596c.1758.172.2789.4049.288.6507 0 .5891-.4775 1.0667-1.0666 1.0667-.2749.0114-.5419-.0931-.736-.288l-5.13069-5.18403-5.17333 5.17333c-.18204.188-.43164.2956-.69333.2987-.589107 0-1.06667-.4776-1.06667-1.0667-.0050263-.2643.099163-.519.288-.704l5.216-5.16266-5.216-5.216c-.175803-.17199-.278891-.40489-.288-.65067 0-.589101.477563-1.0666637 1.06667-1.0666637.256.0031999.50133.1066667.68266.2879997z" fill="#191919"/></svg>