<svg fill="none" height="20" viewBox="0 0 21 20" width="21" xmlns="http://www.w3.org/2000/svg"><path clip-rule="evenodd" d="m11.6801 15.2633c.3349-.0851.5394-.4186.4535-.7495-.089-.3301-.4338-.5238-.7673-.4421-.3601.0906-.7279.1358-1.0984.1358-2.42873 0-4.4016-1.9199-4.4016-4.27139 0-2.21143 1.70594-4.03974 3.97636-4.25127.34374-.03048.60194-.32909.56714-.66995-.0322-.3412-.344-.58284-.686-.55265-2.91431.26941-5.1167 2.62224-5.1167 5.47387 0 3.03569 2.54197 5.49999 5.6608 5.49999.4741 0 .9513-.0576 1.4122-.1728zm-1.3815-10.06884c-.0512.20762-.2339.37039-.46497.39079-1.95034.18161-3.49633 1.53207-3.93917 3.304.44271-1.77212 1.98879-3.12277 3.93926-3.30439.23088-.02039.41358-.18297.46488-.3904zm1.7393 9.59424c-.045.1784-.1865.3279-.3824.3777-.4529.1131-.9216.1697-1.3876.1697-3.06638 0-5.5608-2.4223-5.5608-5.39999 0-.43715.05275-.86243.1527-1.26988-.09988.40734-.1526.83248-.1526 1.26948 0 2.97769 2.49441 5.39999 5.5608 5.39999.466 0 .9347-.0566 1.3875-.1697.1959-.0498.3373-.199.3824-.3773zm3.5545-7.07174c0-.94923.4284-1.84958 1.174-2.46878l-.0317-.10611c.0681-.06711.1151-.15021.1375-.23946.0198-.07861.0206-.16201-.0001-.24347-.0477-.18771-.1986-.33428-.3945-.378l.0216-.09721c-.386-.08649-.7905-.13097-1.2001-.13097-2.9732 0-5.396 2.3486-5.396 5.24286 0 2.89428 2.4228 5.24288 5.396 5.24288 1.96 0 3.7677-1.0341 4.7207-2.6988.1177-.204.104-.4573-.0318-.6505-.135-.189-.3672-.293-.6034-.2595-2.052.2722-3.7922-1.28487-3.7922-3.21294zm1.1422-2.57512.0001.00023c-.0102.0101-.021.01984-.0322.02918-.5594.46454-.9459 1.08327-1.1146 1.76374.1686-.68063.5552-1.2995 1.1147-1.76413.0112-.0093.0218-.01898.032-.02902zm3.2473 6.53196c-.0111.04-.0273.0789-.0487.1159-.9348 1.6329-2.7089 2.6486-4.634 2.6486-2.9207 0-5.296-2.3066-5.296-5.14287 0-.38626.044-.76269.1275-1.12481-.0835.36224-.1276.73881-.1276 1.1252 0 2.83628 2.3753 5.14288 5.296 5.14288 1.9251 0 3.6993-1.0157 4.634-2.6486.0214-.0371.0377-.0762.0488-.1163zm-16.40793-7.79501c-.04175.16855.00496.35377.14013.48503l1.27898 1.23943c.10328.10028.23832.15171.37337.15171s.2701-.05143.37337-.15171c.07186-.06978.11872-.15481.14058-.24449-.0219.08953-.06873.17442-.14048.2441-.10327.10028-.23832.15171-.37337.15171s-.2701-.05143-.37337-.15171l-1.27898-1.23943c-.13506-.13116-.18181-.31619-.14023-.48464zm.07054.55684 1.27891 1.23936c.12246.11888.28276.17997.44303.17997.16031 0 .32057-.06104.44304-.17997.24699-.23985.24699-.63135 0-.8712l-1.27634-1.23943c-.24534-.23825-.64337-.23825-.88871 0-.24699.23985-.24692.63142.00007.87127zm10.68869 3.2839c0 2.23357 1.6902 4.08617 3.8888 4.41907-.7637.7394-1.812 1.1715-2.9229 1.1715-2.2831 0-4.1368-1.8043-4.1368-4.01428 0-2.1385 1.7328-3.8944 3.9115-4.00849-.4792.71759-.7406 1.55782-.7406 2.4322zm.1 0c0 2.20599 1.6889 4.03537 3.8773 4.33067.041.0056.0822.0106.1236.015.0001-.0001.0002-.0002.0003-.0003-2.2481-.2418-4.0011-2.09833-4.0011-4.34576 0-.3294.038-.65386.1115-.96843-.0736.31469-.1116.63929-.1116.96882zm.8366-2.53799c-.0418.00027-.0835.00115-.125.0026-1.9253.06739-3.5278 1.38787-3.9647 3.14597.4462-1.79627 2.1092-3.13581 4.09-3.14897-.0001.00013-.0002.00026-.0003.0004zm-5.0019 10.82596c-.34372 0-.6296.2735-.6296.6143v1.8643c0 .3408.28588.6143.6296.6143.3437 0 .6296-.2735.6296-.6143v-1.8643c0-.3408-.2859-.6143-.6296-.6143zm0-12.14282c.3437 0 .6296-.27346.6296-.61429v-1.73571c0-.34084-.2859-.614289-.6296-.614289-.34372 0-.6296.273459-.6296.614289v1.73571c0 .34083.28588.61429.6296.61429zm-6.25255 6.13572c0-.34084-.28588-.61429-.6296-.61429h-1.85625c-.34372 0-.629598.27345-.629598.61429 0 .3408.285878.6143.629598.6143h1.85625c.34372 0 .6296-.2735.6296-.6143zm.97646 4.2616-1.34473 1.3058c-.24699.2398-.24699.6313 0 .8712.12248.1189.28273.18.44304.18.1603 0 .32056-.0611.44303-.18l1.34518-1.3063c.24684-.2397.24699-.6309.00046-.8707-.24537-.2414-.6415-.2412-.88698 0zm-1.41554 1.6216c-.04097.1681.00589.3525.14058.4833.10327.1002.23832.1517.37336.1517.13505 0 .2701-.0515.37337-.1517l1.34519-1.3063c.07175-.0697.11857-.1546.14047-.2441-.02186.0897-.06871.1747-.14057.2445l-1.34519 1.3062c-.10327.1003-.23832.1518-.37336.1518-.13505 0-.2701-.0515-.37337-.1518-.13479-.1308-.18162-.3154-.14048-.4836zm6.17479.6261c-.00835.0361-.01276.0737-.01276.1121v1.8643c0 .2829.23832.5143.5296.5143.2493 0 .4597-.1695.5153-.3956-.0557.2259-.2661.3952-.5152.3952-.29128 0-.5296-.2314-.5296-.5143v-1.8643c0-.0383.00437-.0757.01266-.1117zm.00166-15.1141c-.00936.03813-.01432.07787-.01432.11869v1.73571c0 .28286.23832.51429.5296.51429.2491 0 .4595-.16927.5152-.39522-.0556.22614-.266.39561-.5153.39561-.29128 0-.5296-.23143-.5296-.51429v-1.73571c0-.04096.00499-.08083.01442-.11908zm-5.8517 8.7235c-.05569.2259-.26606.3952-.51517.3952h-1.85625c-.29128 0-.5296-.2314-.5296-.5143 0-.04081.00496-.08055.01433-.11868-.00943.03825-.014428.07812-.014428.11908 0 .2828.238318.5143.529598.5143h1.85625c.24925 0 .45972-.1695.51527-.3956z" fill="#fff" fill-rule="evenodd"/></svg>