<svg width="18" height="18" viewBox="0 0 18 18" fill="none" xmlns="http://www.w3.org/2000/svg">
<path d="M5.64115 9.28656C5.72347 9.36816 5.78878 9.46506 5.83334 9.57173C5.8779 9.6784 5.90083 9.79274 5.90083 9.90821C5.90083 10.0237 5.8779 10.138 5.83334 10.2447C5.78878 10.3513 5.72347 10.4482 5.64115 10.5299L4.0235 12.136H12.5412C12.776 12.136 13.0012 12.2286 13.1673 12.3934C13.3333 12.5582 13.4266 12.7817 13.4266 13.0147C13.4266 13.2477 13.3333 13.4712 13.1673 13.636C13.0012 13.8008 12.776 13.8933 12.5412 13.8933H4.0235L5.64204 15.4995C5.7243 15.5811 5.78957 15.678 5.83411 15.7846C5.87865 15.8912 5.9016 16.0054 5.90164 16.1209C5.90168 16.2363 5.87882 16.3506 5.83435 16.4572C5.78988 16.5638 5.72468 16.6607 5.64248 16.7424C5.56027 16.824 5.46267 16.8888 5.35524 16.933C5.24781 16.9772 5.13266 17 5.01636 17C4.90006 17 4.7849 16.9773 4.67743 16.9332C4.56997 16.8891 4.47232 16.8244 4.39006 16.7428L1.25924 13.6359C1.09325 13.4711 1 13.2477 1 13.0147C1 12.7817 1.09325 12.5582 1.25924 12.3935L4.39006 9.28656C4.5561 9.12183 4.78127 9.0293 5.01605 9.0293C5.25083 9.0293 5.47511 9.12183 5.64115 9.28656ZM12.3579 1.25732C12.5104 1.10604 12.7132 1.01516 12.9284 1.00173C13.1436 0.988306 13.3563 1.05326 13.5266 1.1844L13.6099 1.25732L16.7407 4.36424C16.8931 4.51554 16.9847 4.71684 16.9983 4.93038C17.0118 5.14391 16.9463 5.35501 16.8142 5.52407L16.7407 5.60666L13.6099 8.7127C13.4505 8.87029 13.2367 8.96178 13.0119 8.96859C12.787 8.97541 12.568 8.89703 12.3993 8.74939C12.2305 8.60175 12.1248 8.3959 12.1034 8.17367C12.0821 7.95144 12.1468 7.72948 12.2844 7.55288L12.3579 7.47029L13.9755 5.86411H5.45787C5.23219 5.86386 5.01513 5.77811 4.85103 5.62437C4.68693 5.47063 4.58819 5.26051 4.57496 5.03695C4.56173 4.81338 4.63503 4.59324 4.77988 4.4215C4.92472 4.24977 5.13018 4.1394 5.35428 4.11295L5.45787 4.1068H13.9764L12.3579 2.49886C12.1919 2.33409 12.0987 2.11064 12.0987 1.87765C12.0987 1.64467 12.1919 1.4221 12.3579 1.25732Z" stroke="white" stroke-width="0.6"/>
</svg>
