<?xml version="1.0" encoding="UTF-8" standalone="no"?>
<svg
   width="22"
   height="22"
   viewBox="0 0 22 22"
   fill="none"
   version="1.1"
   id="svg3"
   sodipodi:docname="display_units.svg"
   inkscape:version="1.3.2 (091e20e, 2023-11-25)"
   xmlns:inkscape="http://www.inkscape.org/namespaces/inkscape"
   xmlns:sodipodi="http://sodipodi.sourceforge.net/DTD/sodipodi-0.dtd"
   xmlns="http://www.w3.org/2000/svg"
   xmlns:svg="http://www.w3.org/2000/svg">
  <defs
     id="defs3" />
  <sodipodi:namedview
     id="namedview3"
     pagecolor="#ffffff"
     bordercolor="#000000"
     borderopacity="0.25"
     inkscape:showpageshadow="2"
     inkscape:pageopacity="0.0"
     inkscape:pagecheckerboard="0"
     inkscape:deskcolor="#d1d1d1"
     inkscape:zoom="10.727273"
     inkscape:cx="10.95339"
     inkscape:cy="11"
     inkscape:window-width="1312"
     inkscape:window-height="449"
     inkscape:window-x="0"
     inkscape:window-y="38"
     inkscape:window-maximized="0"
     inkscape:current-layer="svg3" />
  <path
     d="M12.9448 17.1201V11.7861M14.5068 11.7861V10.4531M14.5068 18.4531V17.1201M12.9448 14.4531H16.0698M16.0698 14.4531C16.5878 14.4531 17.0068 14.9011 17.0068 15.4531V16.1201C17.0068 16.6721 16.5868 17.1201 16.0698 17.1201H12.0068M16.0698 14.4531C16.5878 14.4531 17.0068 14.0051 17.0068 13.4531V12.7861C17.0068 12.2341 16.5868 11.7861 16.0698 11.7861H12.0068"
     stroke="black"
     stroke-linecap="round"
     stroke-linejoin="round"
     id="path1"
     style="stroke:#ffffff;stroke-opacity:1" />
  <path
     d="M14.5028 7.95312C12.7793 7.95366 11.1265 8.63871 9.90794 9.85764C8.68938 11.0766 8.00484 12.7296 8.00484 14.4531C7.98625 15.3181 8.14057 16.1782 8.45875 16.9827C8.77693 17.7873 9.25256 18.5203 9.85775 19.1386C10.4629 19.7569 11.1855 20.2482 11.9831 20.5836C12.7806 20.919 13.6371 21.0917 14.5023 21.0917C15.3675 21.0917 16.224 20.919 17.0216 20.5836C17.8192 20.2482 18.5417 19.7569 19.1469 19.1386C19.7521 18.5203 20.2277 17.7873 20.5459 16.9827C20.8641 16.1782 21.0184 15.3181 20.9998 14.4531C20.9998 10.8631 18.0908 7.95312 14.5018 7.95312M7.00484 4.95312C10.3178 4.95312 13.0028 4.05813 13.0028 2.95312C13.0028 1.84812 10.3178 0.953125 7.00484 0.953125C3.69284 0.953125 1.00684 1.84812 1.00684 2.95312C1.00684 4.05813 3.69284 4.95312 7.00484 4.95312Z"
     stroke="black"
     stroke-linecap="round"
     stroke-linejoin="round"
     id="path2"
     style="stroke:#ffffff;stroke-opacity:1" />
  <path
     d="M1 2.95312V10.9961C1 11.7001 2.18 12.5861 5.132 12.9531M1.107 7.50113C2.312 8.56313 4.461 9.01313 6.757 9.01313M12.996 3.07412V5.08913"
     stroke="black"
     stroke-linecap="round"
     stroke-linejoin="round"
     id="path3"
     style="stroke:#ffffff;stroke-opacity:1" />
</svg>
