<svg fill="none" height="112" viewBox="0 0 97 112" width="97" xmlns="http://www.w3.org/2000/svg"><path d="m94.7183 18.2526-15.9545-15.95369c-1.4571-1.456733-3.4816-2.29891-5.5487-2.29891h-46.3561c-6.2471 0-11.3295 5.06441-11.3295 11.2836v21.998c0 1.0677.8689 1.9327 1.9415 1.9327s1.9414-.8649 1.9414-1.9327v-21.998c0-4.08971 3.3383-7.41822 7.4466-7.41822h46.3561c1.0507 0 2.0682.42108 2.7989 1.15567l15.9545 15.95365c.7421.7449 1.1546 1.7298 1.1546 2.7757v76.9716c0 4.095-3.3433 7.418-7.4465 7.418h-58.8185c-4.1083 0-7.4465-3.323-7.4465-7.418v-21.9817c0-1.0677-.8689-1.9326-1.9415-1.9326s-1.9414.8649-1.9414 1.9326v21.9817c0 6.219 5.0813 11.278 11.3295 11.278h58.8184c6.2421 0 11.3234-5.058 11.3234-11.278v-76.9716c0-2.0754-.8086-4.0298-2.2823-5.4969zm-73.1167 44.5814c.3794.3776.8741.5638 1.3636.5638.5009 0 .9957-.1862 1.375-.5638.7535-.7553.7535-1.9761 0-2.7263l-4.125-4.1064 4.125-4.1064c.7535-.7552.7535-1.9709 0-2.7323-.7587-.7501-1.9851-.7501-2.7386 0l-4.1301 4.1064-4.125-4.1064c-.7535-.7501-1.9799-.7501-2.7386 0-.75347.7615-.75347 1.9761 0 2.7323l4.1187 4.1064-4.1187 4.1064c-.75347.7501-.75347 1.971 0 2.7263.3794.3776.8803.5638 1.3636.5638.5009 0 .9956-.1862 1.375-.5638l4.125-4.1064zm-17.72533-6.8327c0-7.4563 6.1048-13.5338 13.59523-13.5338 7.4956 0 13.6004 6.0772 13.6004 13.5338 0 7.4564-6.1048 13.5339-13.6004 13.5339-7.49016 0-13.59523-6.0772-13.59523-13.5339zm31.07343 0c0-9.5919-7.8427-17.3929-17.4779-17.3929-9.63014 0-17.4718 7.8021-17.4718 17.3929 0 9.5867 7.84273 17.3929 17.4718 17.3929 9.6355 0 17.4779-7.8073 17.4779-17.3929zm38.5179-49.13168c-1.0674 0-1.9362.85977-1.9362 1.92747v14.69451c0 1.0677.8688 1.9326 1.9362 1.9326h14.1285c1.0725 0 1.9414-.8649 1.9414-1.9326 0-1.0678-.8688-1.9327-1.9414-1.9327h-12.187v-12.76205c0-1.0677-.8689-1.92723-1.9415-1.92723z" fill="#959595"/></svg>