<svg fill="none" height="14" viewBox="0 0 10 14" width="10" xmlns="http://www.w3.org/2000/svg"><path clip-rule="evenodd" d="m.862766 8.56104h8.396804c.20426.00106.38086.0734.52447.21702.14256.14362.21596.32021.21596.5234s-.07234.37873-.21596.52341l-3.95851 3.95853c-.28936.2893-.76064.2883-1.04681 0-.14361-.1436-.21702-.3192-.21808-.5234.00106-.2043.07447-.3798.21808-.5234l2.69468-2.6947h-6.60957c-.202128 0-.37766-.07235-.522341-.21597-.144681-.14468-.217021-.32128-.217021-.52447 0-.20425.072341-.37978.215957-.5234.145746-.14362.321277-.21596.522341-.21702zm-.122342-2.19381c-.2 0-.380851-.07553-.523404-.21702-.1425533-.14256-.21702095-.32341-.21702095-.52341 0-.20106.07446765-.38191.21702095-.5234l3.95851-3.95958c.14149-.14042.32234-.215954.52341-.215954.20319 0 .37978.073404.5234.215954.14362.14468.21702.32022.21702.52447 0 .20426-.0734.38085-.21702.52341l-2.69468 2.69468h6.59894c.20425.00106.37978.0734.5234.21702.14149.14149.21702.32234.21702.5234 0 .2-.07553.38085-.21702.52341-.14468.14361-.32021.21702-.5234.21702z" fill="#018bb2" fill-rule="evenodd"/></svg>