<svg width="10" height="14" viewBox="0 0 10 14" fill="none" xmlns="http://www.w3.org/2000/svg">
<path fill-rule="evenodd" clip-rule="evenodd" d="M0.862766 8.56104H9.25957C9.46383 8.5621 9.64043 8.63444 9.78404 8.77806C9.9266 8.92168 10 9.09827 10 9.30146C10 9.50465 9.92766 9.68019 9.78404 9.82487L5.82553 13.7834C5.53617 14.0727 5.06489 14.0717 4.77872 13.7834C4.63511 13.6398 4.5617 13.4642 4.56064 13.26C4.5617 13.0557 4.63511 12.8802 4.77872 12.7366L7.4734 10.0419H0.86383C0.661702 10.0419 0.48617 9.96955 0.341489 9.82593C0.196808 9.68125 0.124468 9.50465 0.124468 9.30146C0.124468 9.09721 0.196809 8.92168 0.340425 8.77806C0.486171 8.63444 0.661702 8.5621 0.862766 8.56104ZM0.740424 6.36723C0.540424 6.36723 0.359573 6.2917 0.21702 6.15021C0.0744667 6.00765 -9.53674e-07 5.8268 -9.53674e-07 5.6268C-9.53674e-07 5.42574 0.0744667 5.24489 0.21702 5.1034L4.17553 1.14382C4.31702 1.0034 4.49787 0.927866 4.69894 0.927866C4.90213 0.927866 5.07872 1.00127 5.22234 1.14382C5.36596 1.2885 5.43936 1.46404 5.43936 1.66829C5.43936 1.87255 5.36596 2.04914 5.22234 2.1917L2.52766 4.88638H9.1266C9.33085 4.88744 9.50638 4.95978 9.65 5.1034C9.79149 5.24489 9.86702 5.42574 9.86702 5.6268C9.86702 5.8268 9.79149 6.00765 9.65 6.15021C9.50532 6.29382 9.32979 6.36723 9.1266 6.36723H0.740424Z" fill="#018BB2"/>
</svg>
