<svg fill="none" height="14" viewBox="0 0 22 14" width="22" xmlns="http://www.w3.org/2000/svg"><path clip-rule="evenodd" d="m14.5356.505935c-1.2511-.002554-2.4779.346389-3.5404 1.007075-4.35556-2.79294-10.354566.53783-10.280155 5.73644-.074611 5.19765 5.925575 8.53005 10.280155 5.73625 4.3784 2.7966 10.3595-.5397 10.29-5.73643-.0029-1.78865-.7151-3.50313-1.9804-4.76732-1.2654-1.26418-2.9805-1.974819-4.7692-1.976015zm-12.53498 6.743415c.00229-1.44797.57885-2.83591 1.60319-3.85932 1.02434-1.0234 2.41281-1.59868 3.86079-1.59963 7.2487.29977 7.2466 10.6192-.00004 10.9179-1.44797-.0009-2.83643-.5762-3.86077-1.5996-1.02433-1.0234-1.60089-2.41138-1.60317-3.85935zm12.53498 5.45895c-.8448.0021-1.6784-.1937-2.4341-.5716 1.1847-1.1164 1.9238-2.62483 2.0802-4.24512h2.2306l-.4501.56211c-.1035.13338-.1503.30212-.1304.46975.02.16763.1051.32069.2369.42609.1319.10541.2999.1547.4678.13723.1679-.01748.3222-.10032.4295-.23062l1.2856-1.60555c.0895-.1146.1381-.25583.1381-.40124 0-.1454-.0486-.28664-.1381-.40123l-1.2856-1.60558c-.1073-.13033-.2616-.21319-.4295-.23068-.168-.01748-.336.03182-.4679.13724-.1318.10543-.2169.25851-.2368.42616s.0269.33641.1304.46978l.4501.56209h-2.2306c-.1564-1.6203-.8955-3.12876-2.0802-4.24516 3.525-1.832538 7.9663.90862 7.8981 4.88746-.0023 1.44796-.5789 2.83587-1.6032 3.85927s-2.4128 1.5987-3.8608 1.5996zm-5.85664-7.38557c.16885-.00225.33002-.07091.44862-.19111s.18509-.28227.18509-.45113c-.00001-.16886-.06651-.33093-.18511-.45112-.11861-.12019-.27978-.18884-.44862-.19109h-.96421v-.32112c-.00255-.1688-.0714-.32983-.19168-.4483-.12027-.11847-.28233-.18488-.45115-.18487-.16883 0-.33088.06641-.45115.18489-.12027.11847-.18911.2795-.19166.44831v.3501c-.47355.08347-.89877.34097-1.19216.72194-.29338.38097-.43372.85787-.39345 1.33703.04028.47916.25825.92594.61112 1.25259.35286.32665.8151.50957 1.29594.51282h.64278c.08447-.0002.16814.01626.24624.04845.07809.03218.14907.07946.20887.13911.05979.05966.10724.13053.13961.20854.03237.07802.04903.16166.04903.24613 0 .08446-.01666.1681-.04903.24612s-.07982.14888-.13961.20854c-.0598.05965-.13078.10693-.20887.13911-.0781.03219-.16177.04865-.24624.04846h-1.92847c-.1688.00232-.3299.07101-.44844.1912-.11855.12019-.18501.28222-.18501.45104.00001.16881.06648.33083.18503.45103s.27965.1889.44845.1912h.9642v.3211c.00255.1688.0714.3298.19168.4483s.28233.1849.45115.1849c.16883 0 .33088-.0664.45115-.1849s.18912-.2795.19166-.4483v-.3501c.47353-.0835.89873-.341 1.1921-.72199.29337-.38097.43369-.85785.39342-1.337-.04027-.47914-.25824-.92591-.61108-1.25256s-.81507-.50958-1.29589-.51285h-.64277c-.16882-.00228-.32996-.07095-.44854-.19115-.11857-.12019-.18505-.28224-.18505-.45108s.06648-.33089.18505-.45108c.11858-.1202.27972-.18887.44854-.19116zm3.12954 1.47816c.1203.11852.1891.27961.1916.44846-.0025.16884-.0713.32994-.1916.44846-.1203.11853-.2824.18497-.4512.18498-.1689 0-.331-.06644-.4513-.18496s-.1891-.27961-.1916-.44845c.0025-.16885.0713-.32994.1916-.44847s.2824-.18497.4512-.18498c.1689 0 .331.06644.4513.18496z" fill="#fff" fill-rule="evenodd"/></svg>