<svg xmlns="http://www.w3.org/2000/svg" viewBox="0 0 16 16">
  <g fill="none">
    <g fill="#8E9AB5">
      <path d="M13.3333333 7.3333333c-.3681898 0-.6666666.2984769-.6666666.6666667v4c0 .3681898-.2984769.6666667-.6666667.6666667H4c-.3681898 0-.6666667-.2984769-.6666667-.6666667V4c0-.3681898.2984769-.6666667.6666667-.6666667h4c.3681898 0 .6666667-.2984768.6666667-.6666666C8.6666667 2.2984768 8.3681898 2 8 2H4c-1.1045695 0-2 .8954305-2 2v8c0 1.1045695.8954305 2 2 2h8c1.1045695 0 2-.8954305 2-2V8c0-.3681898-.2984768-.6666667-.6666667-.6666667Z"/>
      <path d="M10.6666667 3.3333333H11.72L7.5266667 7.52c-.1262085.1251777-.197199.295575-.197199.4733333 0 .1777584.0709905.3481556.197199.4733334.1251777.1262084.295575.1971989.4733333.1971989.1777584 0 .3481556-.0709905.4733333-.197199L12.6666667 4.28v1.0533333c0 .3681899.2984768.6666667.6666666.6666667C13.7015232 6 14 5.7015232 14 5.3333333V2.6666667C14 2.2984768 13.7015232 2 13.3333333 2h-2.6666666C10.2984768 2 10 2.2984768 10 2.6666667c0 .3681898.2984768.6666666.6666667.6666666Z"/>
    </g>
    <path d="M0 0h16v16H0z"/>
  </g>
</svg>
