<svg fill="none" height="18" viewBox="0 0 18 18" width="18" xmlns="http://www.w3.org/2000/svg"><g fill="#fff"><path d="m6.38477 6.82692c0-.24812-.20137-.44949-.44949-.44949s-.44949.20137-.44949.44949v1.31971c0 .24811.20137.44949.44949.44949s.44949-.20138.44949-.44949z"/><path clip-rule="evenodd" d="m5.93528 6.27743c.30335 0 .54949.24615.54949.54949v1.31971c0 .30334-.24614.54949-.54949.54949s-.54949-.24615-.54949-.54949v-1.31971c0-.30334.24614-.54949.54949-.54949zm0 .1c.24812 0 .44949.20137.44949.44949v1.31971c0 .24811-.20137.44949-.44949.44949s-.44949-.20138-.44949-.44949v-1.31971c0-.24812.20137-.44949.44949-.44949z" fill-rule="evenodd"/><path d="m12.8971 8.14663v-1.31971c0-.24812-.2014-.44949-.4495-.44949s-.4495.20137-.4495.44949v1.31971c0 .24811.2014.44949.4495.44949s.4495-.20138.4495-.44949z"/><path clip-rule="evenodd" d="m12.9971 6.82692v1.31971c0 .30334-.2461.54949-.5495.54949-.3033 0-.5495-.24615-.5495-.54949v-1.31971c0-.30334.2462-.54949.5495-.54949.3034 0 .5495.24615.5495.54949zm-.1 0v1.31971c0 .24811-.2014.44949-.4495.44949s-.4495-.20138-.4495-.44949v-1.31971c0-.24812.2014-.44949.4495-.44949s.4495.20137.4495.44949z" fill-rule="evenodd"/><path d="m8.49385 11.1129c.40814 0 .73357-.1078.9709-.3236.32363-.2949.33982-.6616.33982-.7336v-3.34596c0-.24812-.20138-.44949-.44949-.44949-.24812 0-.44949.20137-.44949.44949v3.33166c-.01978.1312-.24273.1959-.57175.1636-.24812-.0252-.46747.1582-.49085.4045-.02337.2481.15822.4675.40454.4909.0863.0089.16721.0125.24632.0125z"/><path clip-rule="evenodd" d="m9.53202 10.8633c-.26046.2368-.61237.3496-1.03817.3496-.08223 0-.16661-.0037-.25668-.0131-.30149-.0286-.52227-.2968-.49374-.5997.02854-.3007.29635-.5254.60035-.4946.15752.0154.28158.0067.36428-.0171.07553-.0217.09341-.0475.09753-.058v.011h.1l-.09889-.0149c-.00012.0008-.00042.0021-.00111.0039v-3.32066c0-.30335.24614-.54949.54949-.54949.30334 0 .54949.24614.54949.54949v3.34596c0 .0834-.01833.4849-.37255.8076z" fill-rule="evenodd"/><path d="m9.18416 13.8621c1.19744 0 2.31934-.5052 2.92884-1.3179.1493-.1978.1097-.4801-.0899-.6293-.1977-.1492-.48-.1097-.6292.0899-.4441.5915-1.291.9583-2.20974.9583-.91876 0-1.7656-.3668-2.20969-.9583-.14923-.1978-.43151-.2391-.62929-.0899-.19777.1492-.23913.4315-.0899.6293.60951.8127 1.73144 1.3179 2.92888 1.3179z"/><path clip-rule="evenodd" d="m6.97447 12.0048c.44409.5915 1.29093.9583 2.20969.9583.91874 0 1.76564-.3668 2.20974-.9583.1492-.1996.4315-.2391.6292-.0899.1996.1492.2392.4315.0899.6293-.6095.8127-1.7314 1.3179-2.92884 1.3179s-2.31937-.5052-2.92888-1.3179c-.14923-.1978-.10787-.4801.0899-.6293.19778-.1492.48006-.1079.62929.0899zm-.7991.5995c-.18284-.2425-.13164-.5872.10958-.7692.24246-.183.5873-.1318.76934.1095.42062.5602 1.23404.9185 2.12987.9185.89584 0 1.70914-.3581 2.12974-.9183.1824-.2438.5273-.2922.7693-.1099.2438.1824.2922.5275.1098.7694-.632.8424-1.7863 1.3578-3.00884 1.3578s-2.37688-.5154-3.00879-1.3578z" fill-rule="evenodd"/><path d="m.999902 3.8348v1.65052c0 .24812.201368.44949.449488.44949s.44949-.20137.44949-.44949v-1.65052c0-1.06799.86842-1.93641 1.93461-1.93641h1.63075c.24811 0 .44949-.20137.44949-.44949 0-.24811-.20138-.449486-.44949-.449486h-1.63075c-1.56243 0-2.833588 1.271156-2.833588 2.835386z"/><path clip-rule="evenodd" d="m.899902 5.48532v-1.65052c0-1.61942 1.315888-2.935386 2.933588-2.935386h1.63075c.30334 0 .54949.246146.54949.549486 0 .30335-.24615.54949-.54949.54949h-1.63075c-1.0109 0-1.83461.82359-1.83461 1.83641v1.65052c0 .30335-.24614.54949-.54949.54949-.30334 0-.549488-.24614-.549488-.54949zm.1 0v-1.65052c0-1.56423 1.271158-2.835386 2.833588-2.835386h1.63075c.24811 0 .44949.201376.44949.449486 0 .24812-.20138.44949-.44949.44949h-1.63075c-1.06619 0-1.93461.86842-1.93461 1.93641v1.65052c0 .24812-.20137.44949-.44949.44949s-.449488-.20137-.449488-.44949z" fill-rule="evenodd"/><path d="m17.0018 3.8348c0-1.56243-1.2712-2.835386-2.8354-2.835386h-1.6307c-.2482 0-.4495.201376-.4495.449486 0 .24812.2013.44949.4495.44949h1.6307c1.068 0 1.9364.86842 1.9364 1.93641v1.65052c0 .24812.2014.44949.4495.44949s.4495-.20137.4495-.44949z"/><path clip-rule="evenodd" d="m14.1664.899414c1.6195 0 2.9354 1.317766 2.9354 2.935386v1.65052c0 .30335-.2462.54949-.5495.54949s-.5495-.24614-.5495-.54949v-1.65052c0-1.01276-.8236-1.83641-1.8364-1.83641h-1.6307c-.3034 0-.5495-.24614-.5495-.54949 0-.30334.2461-.549486.5495-.549486zm0 .1c1.5642 0 2.8354 1.272956 2.8354 2.835386v1.65052c0 .24812-.2014.44949-.4495.44949s-.4495-.20137-.4495-.44949v-1.65052c0-1.06799-.8684-1.93641-1.9364-1.93641h-1.6307c-.2482 0-.4495-.20137-.4495-.44949 0-.24811.2013-.449486.4495-.449486z" fill-rule="evenodd"/><path d="m17.0018 12.5529c0-.2481-.2014-.4495-.4495-.4495s-.4495.2014-.4495.4495v1.6128c0 1.068-.8684 1.9346-1.9364 1.9346h-1.6307c-.2482 0-.4495.2013-.4495.4495 0 .2481.2013.4495.4495.4495h1.6307c1.5624 0 2.8354-1.2712 2.8354-2.8336z"/><path clip-rule="evenodd" d="m16.5523 12.0034c.3033 0 .5495.2462.5495.5495v1.6128c0 1.6177-1.3178 2.9336-2.9354 2.9336h-1.6307c-.3034 0-.5495-.2462-.5495-.5495 0-.3034.2461-.5495.5495-.5495h1.6307c1.0129 0 1.8364-.822 1.8364-1.8346v-1.6128c0-.3033.2462-.5495.5495-.5495zm0 .1c.2481 0 .4495.2014.4495.4495v1.6128c0 1.5624-1.273 2.8336-2.8354 2.8336h-1.6307c-.2482 0-.4495-.2014-.4495-.4495 0-.2482.2013-.4495.4495-.4495h1.6307c1.068 0 1.9364-.8666 1.9364-1.9346v-1.6128c0-.2481.2014-.4495.4495-.4495z" fill-rule="evenodd"/><path d="m.999902 14.1657c0 1.5624 1.271158 2.8336 2.833588 2.8336h1.63075c.24811 0 .44949-.2014.44949-.4495 0-.2482-.20138-.4495-.44949-.4495h-1.63075c-1.06799 0-1.93461-.8684-1.93461-1.9346v-1.6128c0-.2481-.20137-.4495-.44949-.4495s-.449488.2014-.449488.4495z"/><path clip-rule="evenodd" d="m3.83349 17.0993c-1.61766 0-2.933588-1.316-2.933588-2.9336v-1.6128c0-.3033.246148-.5495.549488-.5495.30335 0 .54949.2462.54949.5495v1.6128c0 1.011.82191 1.8346 1.83461 1.8346h1.63075c.30334 0 .54949.2461.54949.5495 0 .3033-.24615.5495-.54949.5495zm0-.1c-1.56243 0-2.833588-1.2712-2.833588-2.8336v-1.6128c0-.2481.201368-.4495.449488-.4495s.44949.2014.44949.4495v1.6128c0 1.0662.86662 1.9346 1.93461 1.9346h1.63075c.24811 0 .44949.2013.44949.4495 0 .2481-.20138.4495-.44949.4495z" fill-rule="evenodd"/></g></svg>