<svg fill="none" height="60" viewBox="0 0 60 60" width="60" xmlns="http://www.w3.org/2000/svg"><path d="m30 0c-5.9334 0-11.7336 1.75947-16.6671 5.05591-4.93347 3.29644-8.77864 7.98179-11.04927 13.46359-2.2706314 5.4818-2.864731 11.5138-1.707175 17.3332 1.157555 5.8194 4.014775 11.1649 8.210355 15.3605 4.19559 4.1956 9.54109 7.0528 15.36049 8.2103 5.8194 1.1576 11.8514.5635 17.3332-1.7071 5.4818-2.2707 10.1671-6.1158 13.4636-11.0493 3.2964-4.9335 5.0559-10.7337 5.0559-16.6671-.0089-7.9538-3.1725-15.5792-8.7966-21.20337-5.6242-5.62416-13.2496-8.78772615-21.2034-8.79663zm-.0001 47.7829c-.4977.0001-.9843-.1475-1.3982-.4241-.4139-.2765-.7364-.6696-.9269-1.1294-.1905-.4599-.2404-.9659-.1433-1.4541s.3368-.9366.6888-1.2886c.3519-.352.8004-.5917 1.2886-.6888s.9942-.0473 1.4541.1432c.4598.1905.8529.513 1.1294.9269.2766.4139.4242.9005.4242 1.3982 0 .3305-.0651.6578-.1916.9631-.1264.3054-.3118.5828-.5455.8165s-.5111.4191-.8165.5456c-.3053.1264-.6326.1915-.9631.1915zm3.6816-31.6816-1.0301 19.1883c-.0365.6787-.3317 1.3175-.825 1.785-.4932.4675-1.1469.7281-1.8266.7281-.6796 0-1.3334-.2606-1.8267-.7281s-.7885-1.1063-.8249-1.785l-1.0302-19.1883c-.0268-.5001.0485-1.0005.2214-1.4705s.4398-.8999.7843-1.2634.7595-.6531 1.2196-.8509.9556-.2999 1.4565-.2999c.5008 0 .9964.1021 1.4565.2999.4601.1979.8751.4874 1.2196.8509s.6113.7934.7842 1.2634.2482.9704.2214 1.4705z" fill="#00a1cc"/></svg>