<svg fill="#FFFFFF" height="80" width="80" version="1.1" id="Layer_1" xmlns="http://www.w3.org/2000/svg" xmlns:xlink="http://www.w3.org/1999/xlink" 
	 viewBox="0 0 512 512" xml:space="preserve">
	<g>
		<g>
			<path d="M468.915,464.211c-0.502-3.572-1.444-7.077-2.861-10.384l-18.773-37.547c-0.362-0.724-0.887-1.444-1.557-2.103
				L341.467,202.093V67.267c18.773,0,34.133-15.36,34.133-34.133C375.601,14.36,360.241-1,341.467-1H170.801
				c-18.773,0-34.133,15.36-34.133,34.133c0,18.773,15.36,34.133,34.133,34.133v134.827L46.214,455.533
				c-5.973,11.947-5.12,26.453,2.56,37.547c7.68,11.093,19.627,17.92,33.28,17.92h348.16c13.653,0,26.453-5.12,33.28-17.067
				C468.796,484.655,470.989,474.349,468.915,464.211z M153.734,33.133c0-9.387,7.68-17.067,17.067-17.067h170.667
				c9.387,0,17.067,7.68,17.067,17.067c0,9.387-7.68,17.067-17.067,17.067h-8.533h-153.6h-8.533
				C161.414,50.2,153.734,42.52,153.734,33.133z M187.014,207.213c0.853-0.853,0.853-1.707,0.853-3.413V67.267h136.533V203.8
				c0,1.707,0,2.56,0.853,3.413l95.801,196.196c-5.078-2.958-9.731-6.396-13.881-10.169
				c-36.693-36.693-95.573-65.707-139.093-26.453l-0.853,0.853c-34.987,32.427-84.48,6.827-116.907-25.6
				c-6.341-5.707-14.097-10.941-22.216-15.005L187.014,207.213z M429.361,493.933H82.054c-7.68,0-14.507-3.413-18.773-10.24
				s-5.12-14.507-1.707-21.333l59.09-120.19c6.756,4.206,13.478,7.611,16.857,13.523c36.693,36.693,95.573,65.707,139.093,26.453
				l0.853-0.853c34.987-32.427,84.48-6.827,116.907,25.6c11.093,9.387,23.893,16.213,38.4,21.333l17.067,34.133
				c3.413,6.827,2.56,14.507-1.707,21.333S437.041,493.933,429.361,493.933z"/>
			<path d="M196.401,255h51.2c5.12,0,8.533-3.413,8.533-8.533s-3.413-8.533-8.533-8.533h-51.2c-5.12,0-8.533,3.413-8.533,8.533
				S191.281,255,196.401,255z"/>
			<path d="M162.267,323.267h51.2c5.12,0,8.533-3.413,8.533-8.533s-3.413-8.533-8.533-8.533h-51.2c-5.12,0-8.533,3.413-8.533,8.533
				S157.147,323.267,162.267,323.267z"/>
			<path d="M179.334,289.133h25.6c5.12,0,8.533-3.413,8.533-8.533s-3.413-8.533-8.533-8.533h-25.6c-5.12,0-8.533,3.413-8.533,8.533
				S174.214,289.133,179.334,289.133z"/>
		</g>
	</g>
</svg>