<svg fill="none" height="18" viewBox="0 0 20 18" width="20" xmlns="http://www.w3.org/2000/svg" xmlns:xlink="http://www.w3.org/1999/xlink"><mask id="a" fill="#000" height="18" maskUnits="userSpaceOnUse" width="20" x="0" y="0"><path d="m0 0h20v18h-20z" fill="#fff"/><path clip-rule="evenodd" d="m5.2545 3.33962c3.14118-3.119493 8.2504-3.119493 11.3902 0 3.1404 3.12022 3.1404 8.19728 0 11.31748-1.5214 1.5108-3.5434 2.3434-5.6948 2.3434-2.15053 0-4.17335-.8326-5.6954-2.3434-.24601-.2451-.24601-.6426 0-.8877.24601-.2459.64678-.2459.89352 0 1.28334 1.2743 2.98861 1.9757 4.80188 1.9757 1.8141 0 3.5201-.7014 4.8012-1.9757 2.6477-2.6307 2.6477-6.91138 0-9.54202s-6.95538-2.63064-9.60308 0c-1.14099 1.13364-1.82207 2.61106-1.95785 4.19583l.80737-.74415c.25623-.23645.65554-.22049.89352.03264.23725.25385.22192.65131-.03358.88703l-1.9688 1.81617c-.12191.1124-.27594.1675-.42924.1675-.17009 0-.33872-.0667-.46282-.2002l-1.82791-1.95536c-.237254-.25386-.222654-.65132.03358-.88704.25476-.23572.6548-.22121.89205.03264l.82052.87833c.13213-1.93073.95411-3.73454 2.33964-5.11115zm6.0099 5.53059 2.4995.00073c.3482 0 .63.28141.6307.62665 0 .34669-.2825.62741-.6307.62741h-3.1295-.0008c-.3482 0-.6307-.28072-.6307-.62741v-4.88558c0-.34669.2825-.62666.6307-.62666.3475 0 .6308.27924.6308.62666z" fill="#000" fill-rule="evenodd"/></mask><g fill="#fff"><path clip-rule="evenodd" d="m5.2545 3.33962c3.14118-3.119493 8.2504-3.119493 11.3902 0 3.1404 3.12022 3.1404 8.19728 0 11.31748-1.5214 1.5108-3.5434 2.3434-5.6948 2.3434-2.15053 0-4.17335-.8326-5.6954-2.3434-.24601-.2451-.24601-.6426 0-.8877.24601-.2459.64678-.2459.89352 0 1.28334 1.2743 2.98861 1.9757 4.80188 1.9757 1.8141 0 3.5201-.7014 4.8012-1.9757 2.6477-2.6307 2.6477-6.91138 0-9.54202s-6.95538-2.63064-9.60308 0c-1.14099 1.13364-1.82207 2.61106-1.95785 4.19583l.80737-.74415c.25623-.23645.65554-.22049.89352.03264.23725.25385.22192.65131-.03358.88703l-1.9688 1.81617c-.12191.1124-.27594.1675-.42924.1675-.17009 0-.33872-.0667-.46282-.2002l-1.82791-1.95536c-.237254-.25386-.222654-.65132.03358-.88704.25476-.23572.6548-.22121.89205.03264l.82052.87833c.13213-1.93073.95411-3.73454 2.33964-5.11115zm6.0099 5.53059 2.4995.00073c.3482 0 .63.28141.6307.62665 0 .34669-.2825.62741-.6307.62741h-3.1295-.0008c-.3482 0-.6307-.28072-.6307-.62741v-4.88558c0-.34669.2825-.62666.6307-.62666.3475 0 .6308.27924.6308.62666z" fill-rule="evenodd"/><path d="m16.6447 3.33962-.0705.07094zm-11.3902 0-.07046-.07096-.00002.00002zm11.3902 11.31748.0704.071zm-11.3902 0-.07058.0709.00014.0001zm0-.8877.07059.0708.00011-.0001zm.89352 0-.07059.0708.00013.0001zm9.60308 0-.0704-.071-.0001.0001zm0-9.54202-.0704.07094zm-9.60308 0 .07048.07094zm-1.95785 4.19583-.09964-.00854-.02199.25663.1894-.17456zm.80737-.74415.06778.07353.00004-.00004zm.89352.03264.07306-.06829-.0002-.00021zm-.03358.88703.06781.0735zm-1.9688 1.81617.06779.0735h.00001zm-.89206-.0327.07323-.0681-.00018-.0002zm-1.82791-1.95536-.07306.06828v.00001zm.03358-.88704.0677.07359.00021-.00019zm.89205.03264.07308-.06827-.00002-.00001zm.82052.87833-.07307.06827.15712.16819.01572-.22963zm10.84904.42017v.1zm-2.4995-.00073h-.1v.09997l.0999.00003zm3.1302.62738h.1v-.00021zm2.3205-6.22891c-3.1787-3.158249-8.35089-3.158226-11.53106-.00002l.14093.14191c3.10219-3.08077 8.14853-3.080747 11.24923-.00001zm0 11.45942c3.1799-3.1594 3.1799-8.3001 0-11.45942l-.1409.14188c3.1011 3.08111 3.1011 8.09454 0 11.17564zm-5.7652 2.3724c2.1777 0 4.2251-.843 5.7652-2.3724l-.1409-.1419c-1.5025 1.4921-3.4993 2.3143-5.6243 2.3143zm-5.76584-2.3724c1.54082 1.5294 3.58899 2.3724 5.76584 2.3724v-.2c-2.1242 0-4.12168-.8222-5.62495-2.3144zm-.00014-1.0296c-.28523.2843-.28523.7452 0 1.0295l.14117-.1417c-.20679-.2061-.20679-.54 0-.7461zm1.03469 0c-.28571-.2847-.74968-.2848-1.0348.0001l.14139.1415c.2069-.2068.54446-.207.75223.0001zm4.73129 1.9466c-1.78696 0-3.46688-.691-4.73142-1.9467l-.14092.1419c1.30213 1.293 3.03277 2.0048 4.87234 2.0048zm4.7307-1.9466c-1.2623 1.2556-2.9429 1.9466-4.7307 1.9466v.2c1.8404 0 3.5718-.7118 4.8718-2.0048zm.0001-9.40018c2.6083 2.59154 2.6083 6.80858 0 9.40008l.1409.1419c2.6871-2.6698 2.6871-7.01411 0-9.68386zm-9.4622 0c2.60871-2.5919 6.8535-2.5919 9.4622 0l.1409-.14188c-2.6867-2.66939-7.05736-2.66939-9.74406 0zm-1.9287 4.13343c.13378-1.56141.80468-3.01665 1.9287-4.13343l-.14096-.14188c-1.15796 1.15049-1.84923 2.6501-1.98701 4.25823zm.63997-.82622-.80738.74415.13555.14706.80738-.74415zm1.03415.03767c-.27529-.29282-.73735-.31155-1.03419-.03763l.13563.14698c.21562-.19897.55218-.1858.75284.02764zm-.03863 1.02903c.29613-.27321.3141-.73429.03883-1.02882l-.14612.13657c.19923.21317.18654.54702-.02833.74525zm-1.96881 1.81617 1.96881-1.81617-.13561-.147-1.96881 1.81617zm-.49704.194c.17729 0 .35584-.0638.49703-.194l-.13558-.147c-.10263.0946-.23215.141-.36145.141zm-.53605-.2321c.14409.155.33979.2321.53605.2321v-.2c-.14392 0-.28548-.0563-.38959-.1683zm-1.82774-1.95517 1.82792 1.95537.1461-.1366-1.82791-1.95535zm.03893-1.02892c-.297133.27335-.314073.73451-.03893 1.02891l.14612-.13657c-.19936-.21331-.18711-.54707.02822-.74516zm1.03282.03795c-.2748-.29404-.73784-.31088-1.03303-.03776l.13583.1468c.21435-.19832.55139-.18615.75108.02752zm.82054.87835-.82052-.87834-.14615.13653.82052.87834zm2.19608-5.11383c-1.40272 1.39368-2.23514 3.22026-2.36893 5.17526l.19954.01366c.13047-1.90647.942-3.6875 2.31036-5.04704zm8.57988 5.50226-2.4995-.00073-.0001.2 2.4996.00073zm.7307.72644c-.0008-.40065-.3276-.72644-.7307-.72644v.2c.2933 0 .5301.23703.5307.52686zm-.7307.72762c.4029 0 .7307-.32496.7307-.72741h-.2c0 .29093-.2372.52741-.5307.52741zm-3.1295 0h3.1295v-.2h-3.1295zm-.0008 0h.0008v-.2h-.0008zm-.73067-.72741c0 .40245.32777.72741.73067.72741v-.2c-.2935 0-.5307-.23648-.5307-.52741zm0-4.88558v4.88558h.19997v-4.88558zm.73067-.72666c-.4027 0-.73067.32405-.73067.72666h.19997c0-.29078.2371-.52666.5307-.52666zm.7308.72666c0-.40348-.3289-.72666-.7308-.72666v.2c.2931 0 .5308.2353.5308.52666zm0 4.2582v-4.2582h-.2v4.2582z" mask="url(#a)"/></g></svg>