<svg width="23" height="26" viewBox="0 0 23 26" fill="none" xmlns="http://www.w3.org/2000/svg">
<path d="M1.64286 22.3532C1.64286 23.4577 2.53829 24.3532 3.64286 24.3532H5.70829C6.81286 24.3532 7.70829 23.4577 7.70829 22.3532V16.6633C7.70829 15.5587 8.60372 14.6633 9.70829 14.6633H13.2917C14.3963 14.6633 15.2917 15.5587 15.2917 16.6633V22.3532C15.2917 23.4577 16.1871 24.3532 17.2917 24.3532H19.3571C20.4617 24.3532 21.3571 23.4577 21.3571 22.3532V10.5253C21.3571 9.89945 21.0642 9.30968 20.5654 8.93157L12.7083 2.97461C11.9938 2.43293 11.0062 2.43293 10.2917 2.97461L2.43455 8.93157C1.93583 9.30968 1.64286 9.89945 1.64286 10.5253V22.3532ZM2 26C0.895431 26 0 25.1046 0 24V9.70261C0 9.07635 0.293348 8.48625 0.792614 8.10818L10.2926 0.914295C11.0067 0.37354 11.9933 0.373539 12.7074 0.914294L22.2074 8.10818C22.7067 8.48625 23 9.07635 23 9.70261V24C23 25.1046 22.1046 26 21 26H15.6489C14.5443 26 13.6489 25.1046 13.6489 24V18.3101C13.6489 17.2055 12.7534 16.3101 11.6489 16.3101H11.3511C10.2466 16.3101 9.35114 17.2055 9.35114 18.3101V24C9.35114 25.1046 8.45571 26 7.35114 26H2Z" fill="black"/>
</svg>
