<svg fill="none" height="10" viewBox="0 0 10 10" width="10" xmlns="http://www.w3.org/2000/svg"><path d="m3.41421 8h5.58579c.50626 0 .92465.37621.99087.86431l.00913.13569c0 .50626-.37621.92465-.86431.99087l-.13569.00913h-7.9998c-.00007 0 .00007 0 0 0-.255855-.00005-.512095-.09768-.707307-.29289-.095819-.09582-.168127-.20625-.2169258-.32411-.0323442-.07795-.0551129-.16087-.06683863-.24731-.00604248-.04468-.00912857-.09067-.00912857-.13569 0-.0001 0 .0001 0 0v-8c0-.552285.447715-.99999968 1-.99999968.50626 0 .92465.37620568.99087.86430568l.00913.135694v5.58579l6.29289-6.292897c.39053-.3905241 1.02369-.3905241 1.41422 0 .35499.355022.38729.910577.09682 1.302057l-.09682.11216z" fill="#13cdc2"/></svg>