<svg fill="none" height="20" viewBox="0 0 20 20" width="20" xmlns="http://www.w3.org/2000/svg" xmlns:xlink="http://www.w3.org/1999/xlink"><mask id="a" fill="#000" height="20" maskUnits="userSpaceOnUse" width="20" x="0" y="0"><path d="m0 0h20v20h-20z" fill="#fff"/><path clip-rule="evenodd" d="m15.4592 15.2774h.0001c2.935-2.9851 2.8935-7.80228-.0906-10.73733-2.9876-2.93506-7.80315-2.89271-10.73652.08978-.03134.0305-.06183.06099-.09233.09233-2.93421 2.98504-2.89355 7.80222.09149 10.73732 1.47642 1.451 3.39924 2.1744 5.32291 2.1744 1.96515 0 3.93125-.7564 5.41525-2.2659.0305-.0296.0601-.0601.0897-.0906zm-14.4592-5.2774c0-4.96292 4.03708-9 9-9 4.9621 0 9 4.03708 9 9 0 4.9621-4.0379 9-9 9-4.96292 0-9-4.0379-9-9zm8.99972-4.86255c-.63953 0-1.15878.5201-1.15878 1.15878s.51925 1.15877 1.15878 1.15877c.63948 0 1.15878-.52009 1.15878-1.15877s-.5193-1.15878-1.15878-1.15878zm-.00003 3.67713c-.52179 0-.94616.42437-.94616.94616v4.16926c0 .5218.42437.9461.94616.9461.52181 0 .94621-.4243.94621-.9461v-4.16926c0-.52179-.4244-.94616-.94621-.94616z" fill="#000" fill-rule="evenodd"/></mask><g fill="#191919"><path clip-rule="evenodd" d="m15.4592 15.2774h.0001c2.935-2.9851 2.8935-7.80228-.0906-10.73733-2.9876-2.93506-7.80315-2.89271-10.73652.08978-.03134.0305-.06183.06099-.09233.09233-2.93421 2.98504-2.89355 7.80222.09149 10.73732 1.47642 1.451 3.39924 2.1744 5.32291 2.1744 1.96515 0 3.93125-.7564 5.41525-2.2659.0305-.0296.0601-.0601.0897-.0906zm-14.4592-5.2774c0-4.96292 4.03708-9 9-9 4.9621 0 9 4.03708 9 9 0 4.9621-4.0379 9-9 9-4.96292 0-9-4.0379-9-9zm8.99972-4.86255c-.63953 0-1.15878.5201-1.15878 1.15878s.51925 1.15877 1.15878 1.15877c.63948 0 1.15878-.52009 1.15878-1.15877s-.5193-1.15878-1.15878-1.15878zm-.00003 3.67713c-.52179 0-.94616.42437-.94616.94616v4.16926c0 .5218.42437.9461.94616.9461.52181 0 .94621-.4243.94621-.9461v-4.16926c0-.52179-.4244-.94616-.94621-.94616z" fill-rule="evenodd"/><path d="m15.4593 15.2774-.0713-.0701-.0014.0014zm-.0001 0 .0717.0697.001-.001zm-.0905-10.73733.0701-.0713-.0001-.00004zm-10.73652.08978.06976.07169.00154-.00157zm-.09233.09233.07132.0701.00036-.00036zm.09149 10.73732-.07012.0713h.00002zm10.73816-.0915-.0697-.0717-.0016.0016zm.0171-.1593-.0001.0001.1454.1373.0001-.0001zm-.0881-10.59734c2.9449 2.89635 2.9858 7.65024.0895 10.59594l.1426.1402c2.9738-3.0244 2.9317-7.90496-.0918-10.87873zm-10.59502.08861c2.89464-2.94312 7.64692-2.98495 10.59512-.08857l.1401-.14267c-3.0269-2.97374-7.90572-2.93086-10.87781.091zm-.09195.09195c.02985-.03069.0597-.06054.09039-.09039l-.13947-.14335c-.032.03113-.06314.06227-.09427.09427zm.08992 10.59628c-2.94566-2.8963-2.98578-7.65026-.09028-10.59592l-.14263-.1402c-2.97292 3.02442-2.93173 7.90492.09268 10.87872zm5.2528 2.1457c-1.8986 0-3.7959-.7139-5.25282-2.1457l-.14019.1426c1.49593 1.4702 3.44427 2.2031 5.39301 2.2031zm5.34395-2.236c-1.4644 1.4895-3.4044 2.236-5.34395 2.236v.2c1.99075 0 3.98285-.7663 5.48655-2.2958zm.0893-.0902c-.0298.0307-.0584.0601-.0877.0886l.1394.1434c.0317-.0308.0623-.0622.0917-.0926zm-5.3875-14.3077c-5.01815 0-9.1 4.08185-9.1 9.1h.2c0-4.90769 3.99231-8.9 8.9-8.9zm9.1 9.1c0-5.01815-4.0827-9.1-9.1-9.1v.2c4.9068 0 8.9 3.99232 8.9 8.9zm-9.1 9.1c5.0173 0 9.1-4.0827 9.1-9.1h-.2c0 4.9068-3.9932 8.9-8.9 8.9zm-9.1-9.1c0 5.0173 4.08185 9.1 9.1 9.1v-.2c-4.90768 0-8.9-3.9932-8.9-8.9zm8.04094-3.70377c0-.5835.47453-1.05878 1.05878-1.05878v-.2c-.69481 0-1.25878.56491-1.25878 1.25878zm1.05878 1.05877c-.58425 0-1.05878-.47527-1.05878-1.05877h-.2c0 .69386.56397 1.25877 1.25878 1.25877zm1.05878-1.05877c0 .5835-.4745 1.05877-1.05878 1.05877v.2c.69478 0 1.25878-.56491 1.25878-1.25877zm-1.05878-1.05878c.58428 0 1.05878.47528 1.05878 1.05878h.2c0-.69387-.564-1.25878-1.25878-1.25878zm-.84619 4.52329c0-.46656.3796-.84616.84616-.84616v-.2c-.57701 0-1.04616.46914-1.04616 1.04616zm0 4.16926v-4.16926h-.2v4.16926zm.84616.8461c-.46656 0-.84616-.3796-.84616-.8461h-.2c0 .577.46915 1.0461 1.04616 1.0461zm.84621-.8461c0 .4665-.3796.8461-.84621.8461v.2c.57701 0 1.04621-.4691 1.04621-1.0461zm0-4.16926v4.16926h.2v-4.16926zm-.84621-.84616c.46661 0 .84621.3796.84621.84616h.2c0-.57702-.4692-1.04616-1.04621-1.04616z" mask="url(#a)"/></g></svg>