<svg fill="none" height="14" viewBox="0 0 14 14" width="14" xmlns="http://www.w3.org/2000/svg"><path clip-rule="evenodd" d="m7 9.43939c1.27273 0 2.33333-1.0606 2.33333-2.33333s-1.0606-2.33333-2.33333-2.33333-2.33333 1.0606-2.33333 2.33333 1.0606 2.33333 2.33333 2.33333zm5.8333-2.33333c0-1.90909 0-2.12121 0-2.86364-.106-1.90909-.9545-2.75757-2.8636-2.86363-.74243 0-.95455 0-2.86364 0s-2.12121 0-2.86364 0c-2.01515.10606-2.86363.95454-2.96969 2.86363v2.86364 2.86364c.10606 1.9091.95454 2.7576 2.86363 2.8636h2.86364 2.86364c1.90906-.106 2.75756-.9545 2.86366-2.8636.106-.74243.106-.95455.106-2.86364zm-5.8333-3.60606c2.01515 0 3.6061 1.59091 3.6061 3.60606s-1.59095 3.60604-3.6061 3.60604-3.60606-1.59089-3.60606-3.60604 1.59091-3.60606 3.60606-3.60606zm3.8182-1.06061c.4242 0 .8485.42425.8485.84849s-.4243.84848-.8485.84848c-.4243 0-.8485-.42424-.8485-.84848s.3182-.84849.8485-.84849zm3.1818 1.69697v2.86364 2.86364c-.1061 2.54546-1.5909 4.03026-4.13636 4.13636-.74243 0-.95455 0-2.86364 0s-2.12121 0-2.86364 0c-2.54545-.1061-4.030299-1.5909-4.13636-4.13636 0-.74243 0-.95455 0-2.86364s0-2.12121 0-2.86364c.106061-2.54545 1.59091-4.030299 4.13636-4.13636h2.86364 2.86364c2.65156.212121 4.03026 1.59091 4.13636 4.13636z" fill="#191919" fill-rule="evenodd"/></svg>