<svg fill="none" height="80" viewBox="0 0 92 80" width="92" xmlns="http://www.w3.org/2000/svg" xmlns:xlink="http://www.w3.org/1999/xlink"><linearGradient id="a"><stop offset="0" stop-color="#00a1cc"/><stop offset="1" stop-color="#0e83a3"/></linearGradient><linearGradient id="b" gradientUnits="userSpaceOnUse" x1="45.7341" x2="45.7341" xlink:href="#a" y1="63.9082" y2="74.2216"/><linearGradient id="c" gradientUnits="userSpaceOnUse" x1="45.7341" x2="45.7341" xlink:href="#a" y1="51.1836" y2="61.497"/><linearGradient id="d" gradientUnits="userSpaceOnUse" x1="52.0474" x2="52.0474" xlink:href="#a" y1="35.2773" y2="48.8679"/><linearGradient id="e" gradientUnits="userSpaceOnUse" x1="52.0474" x2="52.0474" xlink:href="#a" y1="22.5547" y2="36.0489"/><linearGradient id="f" gradientUnits="userSpaceOnUse" x1="47.0381" x2="47.0381" xlink:href="#a" y1="9.83008" y2="23.3243"/><linearGradient id="g" gradientUnits="userSpaceOnUse" x1="47.0381" x2="47.0381" xlink:href="#a" y1="0" y2="10.6026"/><linearGradient id="h" gradientUnits="userSpaceOnUse" x1="18.0244" x2="18.0244" xlink:href="#a" y1="66.5059" y2="80"/><linearGradient id="i" gradientUnits="userSpaceOnUse" x1="18.0244" x2="18.0244" xlink:href="#a" y1="53.8789" y2="67.3731"/><linearGradient id="j" gradientUnits="userSpaceOnUse" x1="18.0244" x2="18.0244" xlink:href="#a" y1="41.1562" y2="54.6504"/><linearGradient id="k" gradientUnits="userSpaceOnUse" x1="18.0244" x2="18.0244" xlink:href="#a" y1="28.4336" y2="41.9278"/><linearGradient id="l" gradientUnits="userSpaceOnUse" x1="18.0244" x2="18.0244" xlink:href="#a" y1="18.6016" y2="29.2041"/><linearGradient id="m" gradientUnits="userSpaceOnUse" x1="73.5439" x2="73.5439" xlink:href="#a" y1="66.5059" y2="80"/><linearGradient id="n" gradientUnits="userSpaceOnUse" x1="73.5439" x2="73.5439" xlink:href="#a" y1="53.8789" y2="67.3731"/><linearGradient id="o" gradientUnits="userSpaceOnUse" x1="73.5439" x2="73.5439" xlink:href="#a" y1="43.9512" y2="54.5537"/><path d="m39.0352 63.9082v9.6387c2.3132.3856 5.0121.6747 8.0001.6747 1.9277 0 3.7591-.0964 5.3977-.2891v-9.6388c-1.735.1928-3.5664.2892-5.3977.2892-2.6989-.0964-5.3977-.2891-8.0001-.6747z" fill="url(#b)"/><path d="m39.0352 51.1836v9.6387c2.3132.3855 5.0121.6747 8.0001.6747 1.9277 0 3.7591-.0964 5.3977-.2892v-9.6387c-1.735.1928-3.5664.2892-5.3977.2892-2.6989-.0964-5.3977-.2892-8.0001-.6747z" fill="url(#c)"/><path d="m65.0597 35.2773c-3.8555 2.5061-10.9882 3.8555-18.0244 3.8555-2.6989 0-5.4941-.1927-8.0001-.5783v9.6387c2.3132.3856 5.0121.6747 8.0001.6747 1.9277 0 3.8555-.0964 5.494-.2891.7711-3.47 5.976-5.7833 12.5304-6.8435z" fill="url(#d)"/><path d="m39.0352 25.7355v9.6387c2.3132.3855 5.0121.6747 8.0001.6747 10.9881 0 18.0244-3.0844 18.0244-5.3013v-8.1929c-3.8555 2.5061-10.9882 3.8555-18.0244 3.8555-2.6989-.0964-5.3977-.2892-8.0001-.6747z" fill="url(#e)"/><path d="m65.0624 18.023v-8.19292c-3.8555 2.50602-10.9881 3.85552-18.0243 3.85552-7.0363 0-14.1689-1.2531-18.0244-3.85552v6.84352c5.0121 1.1566 8.964 3.1807 9.8315 5.976 2.4096.3855 5.2049.6747 8.1929.6747 11.0845 0 18.0243-3.1808 18.0243-5.3013z" fill="url(#f)"/><path d="m47.1344 10.6026c10.9882 0 17.928-3.1808 17.928-5.30131 0-2.12052-7.0362-5.30129-18.0243-5.30129-10.9882 0-18.0244 3.18077-18.0244 5.30129 0 2.12051 7.0362 5.30131 18.1207 5.30131z" fill="url(#g)"/><path d="m0 66.6022v8.0966c0 2.1205 7.03626 5.3012 18.0244 5.3012 10.9881 0 18.0244-3.1807 18.0244-5.3012v-8.1929c-3.8555 2.506-10.9882 3.8554-18.0244 3.8554-7.0363 0-14.16892-1.3494-18.0244-3.7591z" fill="url(#h)"/><path d="m0 53.8789v8.1929c0 2.1205 7.03626 5.3013 18.0244 5.3013 10.9881 0 18.0244-3.1808 18.0244-5.3013v-8.1929c-3.8555 2.5061-10.9882 3.8555-18.0244 3.8555-7.0363 0-14.16892-1.3494-18.0244-3.8555z" fill="url(#i)"/><path d="m0 41.1562v8.1929c0 2.1206 7.03626 5.3013 18.0244 5.3013 10.9881 0 18.0244-3.1807 18.0244-5.3013v-8.1929c-3.8555 2.5061-10.9882 3.8555-18.0244 3.8555-7.0363 0-14.16892-1.3494-18.0244-3.8555z" fill="url(#j)"/><path d="m0 28.4336v8.1929c0 2.1205 7.03626 5.3013 18.0244 5.3013 10.9881 0 18.0244-3.1808 18.0244-5.3013v-8.1929c-3.8555 2.5061-10.9882 3.8555-18.0244 3.8555-7.0363 0-14.16892-1.3494-18.0244-3.8555z" fill="url(#k)"/><path d="m18.0244 18.6016c-10.98814 0-18.0244 3.0843-18.0244 5.3013 0 2.1205 7.03626 5.3012 18.0244 5.3012 10.9881 0 18.0244-3.1807 18.0244-5.3012 0-2.217-7.0363-5.3013-18.0244-5.3013z" fill="url(#l)"/><path d="m55.5195 66.6022v8.0966c0 2.1205 7.0363 5.3012 18.0244 5.3012s18.0244-3.1807 18.0244-5.3012v-8.1929c-3.8555 2.506-10.9881 3.8554-18.0244 3.8554-7.0362 0-14.0725-1.3494-18.0244-3.7591z" fill="url(#m)"/><path d="m55.5195 53.8789v8.1929c0 2.1205 7.0363 5.3013 18.0244 5.3013s18.0244-3.1808 18.0244-5.3013v-8.1929c-3.8555 2.5061-10.9881 3.8555-18.0244 3.8555-7.0362-.0964-14.0725-1.3494-18.0244-3.8555z" fill="url(#n)"/><path d="m55.5195 49.2525c0 2.1205 7.0363 5.3012 18.0244 5.3012s18.0244-3.1807 18.0244-5.3012c0-2.1206-7.0363-5.3013-18.0244-5.3013-10.9881.0964-18.0244 3.1807-18.0244 5.3013z" fill="url(#o)"/></svg>