<svg width="113" height="72" viewBox="0 0 113 72" fill="none" xmlns="http://www.w3.org/2000/svg">
<path d="M27.4986 19.0913V14.0289H5.1302V19.0913H13.4979V37.8776C13.4979 40.1376 11.6673 41.9682 9.40725 41.9682C7.14725 41.9682 5.31665 40.1376 5.31665 37.8776V35.3972H0V37.3747C0 42.7027 4.32225 47.0249 9.6502 47.0249C14.9782 47.0249 19.3004 42.7027 19.3004 37.3747V19.0913H27.4986Z" fill="white"/>
<path d="M43.1831 32.075H34.0244L39.5049 19.0913H43.1831V14.0289H35.3239L21.5662 46.6012H27.8885L31.8831 37.1374H43.1831V46.6012H48.9856V19.0913H43.1831V32.075Z" fill="white"/>
<path d="M74.9246 40.567L64.7829 14.0289H55.0762V46.6012H60.8787V20.0405L71.0261 46.6012H80.7272V14.0289H74.9246V40.567Z" fill="white"/>
<path d="M98.4853 32.5101V27.3064C93.406 27.3064 89.2928 23.1932 89.2928 18.1139V18.0404H83.9705C83.9705 26.0352 90.4567 32.5214 98.4514 32.5157H98.4853V32.5101Z" fill="white"/>
<path d="M104.344 10.0344L109.429 7.458V0H89.2925V5.0624H103.898L94.1232 9.7858V14.029H98.485C103.564 14.029 107.678 18.1422 107.678 23.2215V23.3628C107.678 28.4421 103.564 32.5553 98.485 32.5553V37.759H98.5359C106.525 37.7533 113 31.2728 113 23.2837C113 17.3681 109.44 12.2775 104.344 10.0344Z" fill="white"/>
<path d="M109.429 41.4711H89.2925V46.5335H109.429V41.4711Z" fill="#F68C21"/>
<path d="M17.204 60.432H18.8L22.1 69H20.492L19.688 66.732H16.268L15.464 69H13.916L17.204 60.432ZM16.676 65.592H19.292L18.008 61.908H17.972L16.676 65.592ZM30.5599 68.964L29.8279 69.78L28.5799 68.688C28.2599 68.872 27.9279 69.004 27.5839 69.084C27.2399 69.164 26.8999 69.204 26.5639 69.204C25.9239 69.204 25.3479 69.088 24.8359 68.856C24.3319 68.616 23.9039 68.292 23.5519 67.884C23.1999 67.476 22.9279 67 22.7359 66.456C22.5519 65.912 22.4599 65.332 22.4599 64.716C22.4599 64.108 22.5519 63.532 22.7359 62.988C22.9279 62.444 23.1999 61.968 23.5519 61.56C23.9039 61.152 24.3319 60.828 24.8359 60.588C25.3479 60.348 25.9239 60.228 26.5639 60.228C27.2039 60.228 27.7759 60.348 28.2799 60.588C28.7919 60.828 29.2239 61.152 29.5759 61.56C29.9279 61.968 30.1959 62.444 30.3799 62.988C30.5719 63.532 30.6679 64.108 30.6679 64.716C30.6679 65.012 30.6439 65.312 30.5959 65.616C30.5479 65.912 30.4759 66.204 30.3799 66.492C30.2839 66.78 30.1599 67.056 30.0079 67.32C29.8559 67.576 29.6719 67.804 29.4559 68.004L30.5599 68.964ZM26.6599 67.02L27.3799 66.192L28.4239 67.104C28.6959 66.776 28.8879 66.404 28.9999 65.988C29.1119 65.572 29.1679 65.148 29.1679 64.716C29.1679 64.308 29.1159 63.908 29.0119 63.516C28.9159 63.124 28.7639 62.776 28.5559 62.472C28.3479 62.16 28.0759 61.912 27.7399 61.728C27.4119 61.544 27.0199 61.452 26.5639 61.452C26.1079 61.452 25.7119 61.544 25.3759 61.728C25.0479 61.912 24.7799 62.16 24.5719 62.472C24.3639 62.776 24.2079 63.124 24.1039 63.516C24.0079 63.908 23.9599 64.308 23.9599 64.716C23.9599 65.124 24.0079 65.524 24.1039 65.916C24.2079 66.308 24.3639 66.66 24.5719 66.972C24.7799 67.276 25.0479 67.52 25.3759 67.704C25.7119 67.888 26.1079 67.98 26.5639 67.98C26.7239 67.98 26.8839 67.964 27.0439 67.932C27.2119 67.9 27.3719 67.848 27.5239 67.776L26.6599 67.02ZM31.9371 60.432H33.4371V65.424C33.4371 65.712 33.4491 66.004 33.4731 66.3C33.5051 66.596 33.5851 66.864 33.7131 67.104C33.8491 67.336 34.0491 67.528 34.3131 67.68C34.5851 67.832 34.9651 67.908 35.4531 67.908C35.9411 67.908 36.3171 67.832 36.5811 67.68C36.8531 67.528 37.0531 67.336 37.1811 67.104C37.3171 66.864 37.3971 66.596 37.4211 66.3C37.4531 66.004 37.4691 65.712 37.4691 65.424V60.432H38.9691V65.916C38.9691 66.468 38.8851 66.948 38.7171 67.356C38.5491 67.764 38.3091 68.108 37.9971 68.388C37.6931 68.66 37.3251 68.864 36.8931 69C36.4611 69.136 35.9811 69.204 35.4531 69.204C34.9251 69.204 34.4451 69.136 34.0131 69C33.5811 68.864 33.2091 68.66 32.8971 68.388C32.5931 68.108 32.3571 67.764 32.1891 67.356C32.0211 66.948 31.9371 66.468 31.9371 65.916V60.432ZM42.9853 60.432H44.5813L47.8813 69H46.2733L45.4693 66.732H42.0493L41.2453 69H39.6972L42.9853 60.432ZM42.4573 65.592H45.0733L43.7893 61.908H43.7533L42.4573 65.592ZM51.881 60.432H53.249V63.6H53.273C53.369 63.448 53.485 63.312 53.621 63.192C53.757 63.072 53.905 62.972 54.065 62.892C54.233 62.804 54.405 62.74 54.581 62.7C54.765 62.652 54.945 62.628 55.121 62.628C55.609 62.628 56.033 62.716 56.393 62.892C56.761 63.06 57.065 63.296 57.305 63.6C57.545 63.896 57.725 64.244 57.845 64.644C57.965 65.044 58.025 65.472 58.025 65.928C58.025 66.344 57.969 66.748 57.857 67.14C57.753 67.532 57.589 67.88 57.365 68.184C57.149 68.48 56.873 68.72 56.537 68.904C56.201 69.08 55.805 69.168 55.349 69.168C55.141 69.168 54.929 69.152 54.713 69.12C54.505 69.096 54.305 69.044 54.113 68.964C53.921 68.884 53.745 68.78 53.585 68.652C53.433 68.524 53.305 68.356 53.201 68.148H53.177V69H51.881V60.432ZM56.657 65.904C56.657 65.624 56.621 65.352 56.549 65.088C56.477 64.824 56.369 64.592 56.225 64.392C56.081 64.184 55.901 64.02 55.685 63.9C55.469 63.772 55.221 63.708 54.941 63.708C54.365 63.708 53.929 63.908 53.633 64.308C53.345 64.708 53.201 65.24 53.201 65.904C53.201 66.216 53.237 66.508 53.309 66.78C53.389 67.044 53.505 67.272 53.657 67.464C53.809 67.656 53.989 67.808 54.197 67.92C54.413 68.032 54.661 68.088 54.941 68.088C55.253 68.088 55.517 68.024 55.733 67.896C55.949 67.768 56.125 67.604 56.261 67.404C56.405 67.196 56.505 66.964 56.561 66.708C56.625 66.444 56.657 66.176 56.657 65.904ZM58.4969 62.796H59.9969L61.6169 67.428H61.6409L63.2129 62.796H64.6409L62.2289 69.336C62.1169 69.616 62.0049 69.884 61.8929 70.14C61.7889 70.396 61.6569 70.62 61.4969 70.812C61.3449 71.012 61.1529 71.168 60.9209 71.28C60.6889 71.4 60.3929 71.46 60.0329 71.46C59.7129 71.46 59.3969 71.436 59.0849 71.388V70.236C59.1969 70.252 59.3049 70.268 59.4089 70.284C59.5129 70.308 59.6209 70.32 59.7329 70.32C59.8929 70.32 60.0249 70.3 60.1289 70.26C60.2329 70.22 60.3169 70.16 60.3809 70.08C60.4529 70.008 60.5129 69.92 60.5609 69.816C60.6089 69.712 60.6529 69.592 60.6929 69.456L60.8489 68.976L58.4969 62.796ZM73.5554 66.24C73.5554 66.616 73.5234 66.98 73.4594 67.332C73.3954 67.684 73.2634 68 73.0634 68.28C72.8714 68.56 72.5874 68.784 72.2114 68.952C71.8434 69.12 71.3514 69.204 70.7354 69.204C70.2794 69.204 69.8914 69.136 69.5714 69C69.2514 68.856 68.9874 68.664 68.7794 68.424C68.5714 68.176 68.4194 67.884 68.3234 67.548C68.2274 67.212 68.1794 66.848 68.1794 66.456V66H69.6794V66.444C69.6794 66.932 69.7594 67.312 69.9194 67.584C70.0874 67.848 70.3994 67.98 70.8554 67.98C71.0954 67.98 71.2914 67.944 71.4434 67.872C71.6034 67.8 71.7274 67.696 71.8154 67.56C71.9114 67.416 71.9754 67.24 72.0074 67.032C72.0394 66.824 72.0554 66.588 72.0554 66.324V60.432H73.5554V66.24ZM77.6728 60.432H79.2688L82.5688 69H80.9608L80.1568 66.732H76.7368L75.9328 69H74.3847L77.6728 60.432ZM77.1448 65.592H79.7608L78.4768 61.908H78.4408L77.1448 65.592ZM83.3247 60.432H84.9087L88.8207 66.744H88.8447V60.432H90.2727V69H88.6887L84.7887 62.7H84.7527V69H83.3247V60.432ZM93.8688 64.08C94.0928 64.088 94.3168 64.072 94.5408 64.032C94.7648 63.992 94.9648 63.924 95.1408 63.828C95.3168 63.724 95.4568 63.584 95.5608 63.408C95.6728 63.232 95.7288 63.016 95.7288 62.76C95.7288 62.4 95.6048 62.112 95.3568 61.896C95.1168 61.68 94.8048 61.572 94.4208 61.572C94.1808 61.572 93.9728 61.62 93.7968 61.716C93.6208 61.812 93.4728 61.944 93.3528 62.112C93.2408 62.272 93.1568 62.456 93.1008 62.664C93.0448 62.864 93.0208 63.072 93.0288 63.288H91.6608C91.6768 62.88 91.7528 62.504 91.8888 62.16C92.0248 61.808 92.2088 61.504 92.4408 61.248C92.6808 60.992 92.9688 60.792 93.3048 60.648C93.6408 60.504 94.0208 60.432 94.4448 60.432C94.7728 60.432 95.0928 60.48 95.4048 60.576C95.7248 60.672 96.0088 60.812 96.2568 60.996C96.5128 61.18 96.7168 61.416 96.8688 61.704C97.0208 61.984 97.0968 62.308 97.0968 62.676C97.0968 63.1 97.0008 63.472 96.8088 63.792C96.6168 64.104 96.3168 64.332 95.9088 64.476V64.5C96.3888 64.596 96.7608 64.836 97.0248 65.22C97.2968 65.596 97.4328 66.056 97.4328 66.6C97.4328 67 97.3528 67.36 97.1928 67.68C97.0328 67.992 96.8168 68.26 96.5448 68.484C96.2728 68.7 95.9568 68.868 95.5968 68.988C95.2368 69.108 94.8568 69.168 94.4568 69.168C93.9688 69.168 93.5408 69.1 93.1728 68.964C92.8128 68.82 92.5088 68.62 92.2608 68.364C92.0208 68.108 91.8368 67.8 91.7088 67.44C91.5808 67.08 91.5128 66.68 91.5048 66.24H92.8728C92.8568 66.752 92.9808 67.18 93.2448 67.524C93.5168 67.86 93.9208 68.028 94.4568 68.028C94.9128 68.028 95.2928 67.9 95.5968 67.644C95.9088 67.38 96.0648 67.008 96.0648 66.528C96.0648 66.2 96.0008 65.94 95.8728 65.748C95.7448 65.556 95.5768 65.412 95.3688 65.316C95.1608 65.212 94.9248 65.148 94.6608 65.124C94.4048 65.1 94.1408 65.092 93.8688 65.1V64.08Z" fill="white"/>
</svg>
