<svg fill="none" height="77" viewBox="0 0 113 77" width="113" xmlns="http://www.w3.org/2000/svg"><g fill="#000"><path d="m27.4986 19.0913v-5.0624h-22.3684v5.0624h8.3677v18.7863c0 2.26-1.8306 4.0906-4.09065 4.0906-2.26 0-4.0906-1.8306-4.0906-4.0906v-2.4804h-5.31665v1.9775c0 5.328 4.32225 9.6502 9.6502 9.6502 5.328 0 9.6502-4.3222 9.6502-9.6502v-18.2834z"/><path d="m43.1831 32.075h-9.1587l5.4805-12.9837h3.6782v-5.0624h-7.8592l-13.7577 32.5723h6.3223l3.9946-9.4638h11.3v9.4638h5.8025v-27.5099h-5.8025z"/><path d="m74.9246 40.567-10.1417-26.5381h-9.7067v32.5723h5.8025v-26.5607l10.1474 26.5607h9.7011v-32.5723h-5.8026z"/><path d="m98.4852 32.5102v-5.2037c-5.0794 0-9.1926-4.1132-9.1926-9.1925v-.0735h-5.3223c0 7.9948 6.4862 14.481 14.481 14.4753h.0339z"/><path d="m104.344 10.0344 5.085-2.5764v-7.458h-20.1365v5.0624h14.6055l-9.7748 4.7234v4.2432h4.3618c5.079 0 9.193 4.1132 9.193 9.1925v.1413c0 5.0793-4.114 9.1925-9.193 9.1925v5.2037h.0509c7.9891-.0057 14.4641-6.4862 14.4641-14.4753 0-5.9156-3.56-11.0062-8.656-13.2493z"/></g><path d="m109.429 41.471h-20.1365v5.0624h20.1365z" fill="#f68c21"/><path d="m16.204 65.432h1.596l3.3 8.568h-1.608l-.804-2.268h-3.42l-.804 2.268h-1.548zm-.528 5.16h2.616l-1.284-3.684h-.036zm13.8839 3.372-.732.816-1.248-1.092c-.32.184-.652.316-.996.396s-.684.12-1.02.12c-.64 0-1.216-.116-1.728-.348-.504-.24-.932-.564-1.284-.972s-.624-.884-.816-1.428c-.184-.544-.276-1.124-.276-1.74 0-.608.092-1.184.276-1.728.192-.544.464-1.02.816-1.428s.78-.732 1.284-.972c.512-.24 1.088-.36 1.728-.36s1.212.12 1.716.36c.512.24.944.564 1.296.972s.62.884.804 1.428c.192.544.288 1.12.288 1.728 0 .296-.024.596-.072.9-.048.296-.12.588-.216.876s-.22.564-.372.828c-.152.256-.336.484-.552.684zm-3.9-1.944.72-.828 1.044.912c.272-.328.464-.7.576-1.116s.168-.84.168-1.272c0-.408-.052-.808-.156-1.2-.096-.392-.248-.74-.456-1.044-.208-.312-.48-.56-.816-.744-.328-.184-.72-.276-1.176-.276s-.852.092-1.188.276c-.328.184-.596.432-.804.744-.208.304-.364.652-.468 1.044-.096.392-.144.792-.144 1.2s.048.808.144 1.2c.104.392.26.744.468 1.056.208.304.476.548.804.732.336.184.732.276 1.188.276.16 0 .32-.016.48-.048.168-.032.328-.084.48-.156zm5.2772-6.588h1.5v4.992c0 .288.012.58.036.876.032.296.112.564.24.804.136.232.336.424.6.576.272.152.652.228 1.14.228s.864-.076 1.128-.228c.272-.152.472-.344.6-.576.136-.24.216-.508.24-.804.032-.296.048-.588.048-.876v-4.992h1.5v5.484c0 .552-.084 1.032-.252 1.44s-.408.752-.72 1.032c-.304.272-.672.476-1.104.612s-.912.204-1.44.204-1.008-.068-1.44-.204-.804-.34-1.116-.612c-.304-.28-.54-.624-.708-1.032s-.252-.888-.252-1.44zm11.0482 0h1.596l3.3 8.568h-1.608l-.804-2.268h-3.42l-.804 2.268h-1.5481zm-.528 5.16h2.616l-1.284-3.684h-.036zm9.4237-5.16h1.368v3.168h.024c.096-.152.212-.288.348-.408s.284-.22.444-.3c.168-.088.34-.152.516-.192.184-.048.364-.072.54-.072.488 0 .912.088 1.272.264.368.168.672.404.912.708.24.296.42.644.54 1.044s.18.828.18 1.284c0 .416-.056.82-.168 1.212-.104.392-.268.74-.492 1.044-.216.296-.492.536-.828.72-.336.176-.732.264-1.188.264-.208 0-.42-.016-.636-.048-.208-.024-.408-.076-.6-.156s-.368-.184-.528-.312c-.152-.128-.28-.296-.384-.504h-.024v.852h-1.296zm4.776 5.472c0-.28-.036-.552-.108-.816s-.18-.496-.324-.696c-.144-.208-.324-.372-.54-.492-.216-.128-.464-.192-.744-.192-.576 0-1.012.2-1.308.6-.288.4-.432.932-.432 1.596 0 .312.036.604.108.876.08.264.196.492.348.684s.332.344.54.456c.216.112.464.168.744.168.312 0 .576-.064.792-.192s.392-.292.528-.492c.144-.208.244-.44.3-.696.064-.264.096-.532.096-.804zm1.8399-3.108h1.5l1.62 4.632h.024l1.572-4.632h1.428l-2.412 6.54c-.112.28-.224.548-.336.804-.104.256-.236.48-.396.672-.152.2-.344.356-.576.468-.232.12-.528.18-.888.18-.32 0-.636-.024-.948-.072v-1.152c.112.016.22.032.324.048.104.024.212.036.324.036.16 0 .292-.02.396-.06s.188-.1.252-.18c.072-.072.132-.16.18-.264s.092-.224.132-.36l.156-.48zm15.0585 3.444c0 .376-.032.74-.096 1.092s-.196.668-.396.948c-.192.28-.476.504-.852.672-.368.168-.86.252-1.476.252-.456 0-.844-.068-1.164-.204-.32-.144-.584-.336-.792-.576-.208-.248-.36-.54-.456-.876s-.144-.7-.144-1.092v-.456h1.5v.444c0 .488.08.868.24 1.14.168.264.48.396.936.396.24 0 .436-.036.588-.108.16-.072.284-.176.372-.312.096-.144.16-.32.192-.528s.048-.444.048-.708v-5.892h1.5zm4.1174-5.808h1.596l3.3 8.568h-1.608l-.804-2.268h-3.42l-.804 2.268h-1.5481zm-.528 5.16h2.616l-1.284-3.684h-.036zm6.1799-5.16h1.584l3.912 6.312h.024v-6.312h1.428v8.568h-1.584l-3.9-6.3h-.036v6.3h-1.428zm10.5441 3.648c.224.008.448-.008.672-.048s.424-.108.6-.204c.176-.104.316-.244.42-.42.112-.176.168-.392.168-.648 0-.36-.124-.648-.372-.864-.24-.216-.552-.324-.936-.324-.24 0-.448.048-.624.144s-.324.228-.444.396c-.112.16-.196.344-.252.552-.056.2-.08.408-.072.624h-1.368c.016-.408.092-.784.228-1.128.136-.352.32-.656.552-.912.24-.256.528-.456.864-.6s.716-.216 1.14-.216c.328 0 .648.048.96.144.32.096.604.236.852.42.256.184.46.42.612.708.152.28.228.604.228.972 0 .424-.096.796-.288 1.116-.192.312-.492.54-.9.684v.024c.48.096.852.336 1.116.72.272.376.408.836.408 1.38 0 .4-.08.76-.24 1.08-.16.312-.376.58-.648.804-.272.216-.588.384-.948.504s-.74.18-1.14.18c-.488 0-.916-.068-1.284-.204-.36-.144-.664-.344-.912-.6-.24-.256-.424-.564-.552-.924s-.196-.76-.204-1.2h1.368c-.016.512.108.94.372 1.284.272.336.676.504 1.212.504.456 0 .836-.128 1.14-.384.312-.264.468-.636.468-1.116 0-.328-.064-.588-.192-.78s-.296-.336-.504-.432c-.208-.104-.444-.168-.708-.192-.256-.024-.52-.032-.792-.024z" fill="#000"/></svg>