<svg fill="none" height="12" viewBox="0 0 21 12" width="21" xmlns="http://www.w3.org/2000/svg" xmlns:xlink="http://www.w3.org/1999/xlink"><mask id="a" fill="#000" height="12" maskUnits="userSpaceOnUse" width="21" x="0" y="0"><path d="m0 0h21v12h-21z" fill="#fff"/><path clip-rule="evenodd" d="m6.62987 3.80847h3.92023.0097c.15 0 .2938.05959.3999.16565.1061.10607.1657.24992.1657.39992s-.0596.29386-.1657.39992c-.1061.10607-.2499.16566-.3999.16566h-1.80338c-.50353 1.1819-1.22493 2.25851-2.12655 3.17366l3.02177 2.47882c.09104.0737.15695.1739.18861.2867s.02751.2326-.01187.343c-.03938.1103-.11204.2057-.20797.2729-.09592.0673-.21035.1031-.3275.1025-.13007.0004-.25604-.0454-.35551-.1293l-3.13488-2.54989c-1.13241.9966-2.38799 1.84379-3.73601 2.52089-.07938.0429-.1683.0651-.25855.0646-.12728.0005-.251-.0419-.35117-.1205-.10018-.0785-.17093-.1885-.20083-.3122s-.0172-.2539.03605-.3695.14394-.2099.2574-.2676c3.81358-1.96814 5.38102-4.33385 5.95629-5.49408h-5.94013c-.15 0-.29385-.05959-.39992-.16566-.10606-.10606-.16565-.24992-.16565-.39992s.05959-.29385.16565-.39992c.10607-.10606.24992-.16565.39992-.16565h3.93315v-2.2429c0-.15.05959-.29385.16566-.39992.10606-.10606.24992-.16565.39992-.16565s.29385.05959.39992.16565c.10606.10607.16565.24992.16565.39992zm9.74123-2.48491 3.61 9.54364c.0258.0702.0374.1448.0343.2196-.0031.0747-.0209.1481-.0524.216-.0316.0678-.0762.1288-.1313.1794s-.1196.0898-.1899.1154c-.0638.0255-.1318.0387-.2004.0388-.1148-.0007-.2267-.0359-.3213-.101-.0945-.0651-.1672-.1572-.2087-.2642l-.85-2.28171h-4.4276l-.8629 2.28171c-.0266.0704-.0667.135-.1182.1899-.0514.0549-.1132.0992-.1818.1303-.0686.031-.1426.0483-.2178.0507-.0753.0025-.1503-.0099-.2207-.0364-.0705-.0266-.135-.0667-.1899-.1182-.055-.0514-.0992-.1132-.1303-.1818s-.0483-.1426-.0508-.2178c-.0024-.0753.01-.1503.0365-.2207l3.6552-9.55657c.0073-.01891.0159-.03728.0259-.05494l.0258-.04202c.0111-.01569.0229-.03079.0356-.04524l.0355-.04202.042-.03555.042-.03231.0453-.02586.0549-.02585h.0324.0581.0517.055.0582.0517.0581.0324l.0549.02585.0452.02586c.0155.01007.0296.02201.0421.03555l.042.03231.0258.03879.0356.04524c.0226.01293.0226.04525.0226.04525zm-.53 1.7969-1.7775 4.73788h3.555z" fill="#000" fill-rule="evenodd"/></mask><g fill="#fff"><path clip-rule="evenodd" d="m6.62987 3.80847h3.92023.0097c.15 0 .2938.05959.3999.16565.1061.10607.1657.24992.1657.39992s-.0596.29386-.1657.39992c-.1061.10607-.2499.16566-.3999.16566h-1.80338c-.50353 1.1819-1.22493 2.25851-2.12655 3.17366l3.02177 2.47882c.09104.0737.15695.1739.18861.2867s.02751.2326-.01187.343c-.03938.1103-.11204.2057-.20797.2729-.09592.0673-.21035.1031-.3275.1025-.13007.0004-.25604-.0454-.35551-.1293l-3.13488-2.54989c-1.13241.9966-2.38799 1.84379-3.73601 2.52089-.07938.0429-.1683.0651-.25855.0646-.12728.0005-.251-.0419-.35117-.1205-.10018-.0785-.17093-.1885-.20083-.3122s-.0172-.2539.03605-.3695.14394-.2099.2574-.2676c3.81358-1.96814 5.38102-4.33385 5.95629-5.49408h-5.94013c-.15 0-.29385-.05959-.39992-.16566-.10606-.10606-.16565-.24992-.16565-.39992s.05959-.29385.16565-.39992c.10607-.10606.24992-.16565.39992-.16565h3.93315v-2.2429c0-.15.05959-.29385.16566-.39992.10606-.10606.24992-.16565.39992-.16565s.29385.05959.39992.16565c.10606.10607.16565.24992.16565.39992zm9.74123-2.48491 3.61 9.54364c.0258.0702.0374.1448.0343.2196-.0031.0747-.0209.1481-.0524.216-.0316.0678-.0762.1288-.1313.1794s-.1196.0898-.1899.1154c-.0638.0255-.1318.0387-.2004.0388-.1148-.0007-.2267-.0359-.3213-.101-.0945-.0651-.1672-.1572-.2087-.2642l-.85-2.28171h-4.4276l-.8629 2.28171c-.0266.0704-.0667.135-.1182.1899-.0514.0549-.1132.0992-.1818.1303-.0686.031-.1426.0483-.2178.0507-.0753.0025-.1503-.0099-.2207-.0364-.0705-.0266-.135-.0667-.1899-.1182-.055-.0514-.0992-.1132-.1303-.1818s-.0483-.1426-.0508-.2178c-.0024-.0753.01-.1503.0365-.2207l3.6552-9.55657c.0073-.01891.0159-.03728.0259-.05494l.0258-.04202c.0111-.01569.0229-.03079.0356-.04524l.0355-.04202.042-.03555.042-.03231.0453-.02586.0549-.02585h.0324.0581.0517.055.0582.0517.0581.0324l.0549.02585.0452.02586c.0155.01007.0296.02201.0421.03555l.042.03231.0258.03879.0356.04524c.0226.01293.0226.04525.0226.04525zm-.53 1.7969-1.7775 4.73788h3.555z" fill-rule="evenodd"/><path d="m6.62987 3.80847h-.08v.08h.08zm4.32983.16565.0566-.05656v-.00001zm0 .79984.0566.05657zm-2.20328.16566v-.08h-.05287l-.02073.04864zm-2.12655 3.17366-.05699-.05614-.0615.06242.06775.05558zm3.02177 2.47882-.05074.0619.0004.0003zm.18861.2867-.07702.0216zm-.21984.6159.04593.0655zm-.3275.1025.0004-.08h-.00062zm-.35551-.1293.05156-.0611-.00107-.0009zm-3.13488-2.54989.05048-.06206-.05252-.04271-.05082.04472zm-3.73601 2.52089-.03592-.0716-.00215.0012zm-.25855.0646.00048-.08h-.0008zm-.552-.4327-.07776.0188zm.03605-.3695.07266.0335zm.2574-.2676.03626.0714.00043-.0003zm5.95629-5.49408.07167.03553.05729-.11553h-.12896zm-6.34005-.16566-.05657.05657zm0-.79984-.05657-.05657zm4.33307-.16565v.08h.08v-.08zm.16566-2.64282.05656.05657zm.79984 0-.05657.05657zm13.51688 9.70155.0751-.0276-.0003-.0007zm-3.61-9.54364.0749-.02831-.0033-.0085-.005-.00757zm3.6443 9.76324.08.0033zm-.0524.216-.0726-.0337zm-.1313.1794.0541.0589zm-.1899.1154-.0274-.0752-.0024.0009zm-.2004.0388-.0005.08h.0006zm-.3213-.101-.0453.0659zm-.2087-.2642-.075.0279.0004.001zm-.85-2.28171.075-.02793-.0194-.05207h-.0556zm-4.4276 0v-.08h-.0553l-.0196.0517zm-.8629 2.28171-.0749-.0283v.0001zm-.1182.1899-.0583-.0547zm-.3996.181-.0026-.0799zm-.4106-.1546-.0547.0584zm-.1303-.1818.0729-.033zm-.0508-.2178.08-.0026zm.0365-.2207-.0747-.0286-.0002.0004zm3.6552-9.55657-.0746-.02875-.0001.00017zm.0259-.05494-.0682-.04196-.0016.00275zm.0258-.04202-.0655-.04617-.0026.00425zm.0356-.04524.0602.05264.0008-.00097zm.0355-.04202-.0524-.06192-.0086.01025zm.042-.03555-.0488-.06347-.0028.0024zm.042-.03231-.04-.070117-.0087.006703zm.0453-.02586-.0342-.072615-.0055.003156zm.0549-.02585v-.080004h-.0178l-.0162.007614zm.3976 0 .034-.07239-.0162-.007614h-.0178zm.0549.02585.0398-.069679-.0057-.002707zm.0452.02586.0439-.067104-.0042-.002361zm.0421.03555-.0597.05502.0109.00839zm.042.03231.0665-.04437-.0073-.01099-.0105-.00805zm.0258.03879-.0667.04451.0038.00491zm.0356.04524-.0629.04943.0096.01228.0136.00775zm.0226.04525h-.08v.02422l.0134.02015zm-2.2623 6.60265-.0749-.0281-.0406.1081h.1155zm1.7775-4.73788.0749-.0281-.0749-.19965-.0749.19965zm1.7775 4.73788v.08h.1155l-.0406-.1081zm-7.0685-4.12987h-3.92023v.16h3.92023zm.0097 0h-.0097v.16h.0097zm.4565.18908c-.1211-.12106-.2853-.18908-.4565-.18908v.16c.1288 0 .2523.05116.3433.14222zm.1891.45649c0-.17121-.0681-.33542-.1891-.45648l-.1132.11313c.0911.09106.1423.21457.1423.34335zm-.1891.45649c.121-.12107.1891-.28527.1891-.45649h-.16c0 .12878-.0512.25229-.1423.34336zm-.4565.18909c.1712 0 .3354-.06802.4565-.18909l-.1132-.11314c-.091.09107-.2145.14223-.3433.14223zm-1.80338 0h1.80338v-.16h-1.80338zm-2.06956 3.14981c.90867-.9223 1.6357-2.00733 2.14316-3.19846l-.1472-.06271c-.49959 1.17267-1.21536 2.24087-2.10994 3.14888zm3.01552 2.36087-3.02177-2.47887-.10148.12371 3.02177 2.47886zm.21489.3269c-.03614-.1288-.11136-.2431-.21528-.3273l-.10069.1244c.07816.0633.13474.1493.16193.2461zm-.01354.3915c.04495-.126.04968-.2628.01354-.3915l-.15404.0432c.02718.0969.02362.1997-.01019.2945zm-.23739.3115c.10949-.0767.19244-.1856.23739-.3115l-.15069-.0538c-.03381.0947-.0962.1766-.17855.2343zm-.37383.117c.13372.0007.26434-.0402.37383-.117l-.09185-.131c-.08236.0578-.18061.0885-.28118.088zm-.40666-.1481c.11395.096.25827.1485.40727.1481l-.00043-.16c-.11112.0003-.21875-.0388-.30373-.1104zm-3.13381-2.54902 3.13488 2.54992.10097-.1241-3.13489-2.54995zm-3.64963 2.53022c1.35414-.6801 2.61542-1.53111 3.75296-2.53223l-.10571-.12011c-1.12726.99208-2.37715 1.83544-3.71906 2.50944zm-.29493.0732c.1037.0006.20589-.0249.2971-.0743l-.07614-.1407c-.06754.0365-.14321.0555-.22.055zm-.40005-.1375c.11434.0896.25557.1381.40085.1375l-.00064-.16c-.10927.0004-.2155-.036-.3015-.1034zm-.22923-.3564c.03413.1412.11489.2668.22923.3564l.09871-.1259c-.086-.0674-.14675-.1619-.17242-.2681zm.04115-.4218c-.06079.132-.07529.2806-.04115.4218l.15552-.0376c-.02567-.1062-.01477-.218.03095-.3172zm.29381-.3054c-.12951.0659-.23302.1735-.29381.3054l.14532.067c.04572-.0993.12358-.1802.221-.2297zm5.92086-5.45832c-.56839 1.14637-2.12422 3.4989-5.9213 5.45862l.07338.1421c3.83007-1.97667 5.40913-4.35555 5.99127-5.52965zm-5.86845.11554h5.94013v-.16h-5.94013zm-.45649-.18909c.12107.12107.28528.18909.45649.18909v-.16c-.12878 0-.25229-.05116-.34335-.14223zm-.18908-.45649c0 .17122.068016.33542.18908.45649l.11314-.11314c-.09106-.09106-.14222-.21457-.14222-.34335zm.18908-.45649c-.121064.12107-.18908.28528-.18908.45649h.16c0-.12878.05116-.25229.14222-.34335zm.45649-.18908c-.17121 0-.33542.06802-.45649.18908l.11314.11314c.09106-.09106.21457-.14222.34335-.14222zm3.93315 0h-3.93315v.16h3.93315zm-.08-2.1629v2.2429h.16v-2.2429zm.18909-.45649c-.12107.12107-.18909.28528-.18909.45649h.16c0-.12878.05116-.25229.14222-.34335zm.45649-.18908c-.17122 0-.33542.068015-.45649.18908l.11313.11314c.09107-.09106.21457-.14222.34336-.14222zm.45649.18908c-.12107-.121065-.28528-.18908-.45649-.18908v.16c.12878 0 .25229.05116.34335.14222zm.18908.45649c0-.17121-.06802-.33542-.18908-.45649l-.11314.11314c.09106.09106.14222.21457.14222.34335zm0 2.2429v-2.2429h-.16v2.2429zm13.34603 7.03043-3.6099-9.54365-.1497.05661 3.61 9.54364zm.0395.2512c.0035-.0852-.0098-.1704-.0392-.2505l-.1502.0551c.0222.0604.0322.1245.0295.1888zm-.0599.2464c.036-.0774.0563-.1611.0599-.2464l-.1599-.0066c-.0027.0642-.018.1273-.0451.1856zm-.1497.2046c.0629-.0577.1138-.1272.1497-.2046l-.1451-.0674c-.0271.0583-.0654.1107-.1128.1541zm-.2167.1317c.0802-.0292.1539-.074.2167-.1317l-.1082-.1179c-.0473.0435-.1028.0772-.1632.0992zm-.2276.0436c.0788-.0001.1569-.0152.23-.0446l-.0595-.1485c-.0543.0218-.1122.033-.1707.0331zm-.3667-.1151c.1077.0742.2353.1143.3661.1151l.001-.16c-.0988-.0006-.1951-.0309-.2764-.0869zm-.238-.3012c.0473.122.1302.2269.238.3012l.0907-.1318c-.0813-.056-.1438-.1352-.1795-.2273zm-.8504-2.28269.85 2.28169.1499-.0559-.8499-2.28164zm-4.3526.05208h4.4276v-.16h-4.4276zm-.7881 2.23001.8629-2.28171-.1497-.0566-.8629 2.28171zm-.1346.2163c.0587-.0626.1044-.1362.1346-.2164l-.1497-.0564c-.0228.0606-.0574.1161-.1016.1634zm-.2072.1484c.0782-.0354.1486-.0858.2072-.1484l-.1167-.1094c-.0443.0473-.0975.0854-.1565.1121zm-.2482.0579c.0857-.0028.1701-.0225.2482-.0579l-.066-.1457c-.059.0267-.1227.0416-.1874.0437zm-.2515-.0416c.0803.0303.1657.0444.2515.0416l-.0052-.1599c-.0648.0021-.1293-.0086-.1899-.0314zm-.2164-.1346c.0626.0587.1361.1044.2164.1346l.0564-.1497c-.0606-.0228-.1162-.0574-.1634-.1017zm-.1485-.2072c.0354.0782.0859.1486.1485.2072l.1094-.1168c-.0473-.0442-.0854-.0974-.1121-.1564zm-.0578-.2482c.0028.0857.0224.1701.0578.2482l.1458-.066c-.0268-.059-.0416-.1227-.0437-.1874zm.0415-.2515c-.0302.0803-.0443.1657-.0415.2515l.1599-.0052c-.0021-.0648.0085-.1293.0314-.1899zm3.6554-9.55695-3.6552 9.55655.1494.0572 3.6552-9.55659zm.0308-.06557c-.0118.02103-.0221.04289-.0307.0654l.1493.05749c.0059-.01531.0129-.03017.0209-.04448zm.0275-.04473-.0259.04201.1363.08386.0259-.04202zm.0434-.05596c-.0144.01655-.028.03384-.0407.0518l.1308.09217c.0095-.01342.0196-.02634.0304-.0387zm.0348-.04105-.0356.04201.1221.10335.0356-.04201zm.0514-.04495-.0421.03555.1034.12214.042-.03555zm.0449-.034654-.042.032314.0975.12682.042-.03232zm.0543-.031905-.0452.025855.0793.138914.0453-.02585zm.0606-.028781-.055.025854.0682.144776.0549-.02586zm.0664-.007614h-.0324v.160004h.0324zm.0581 0h-.0581v.160004h.0581zm.0517 0h-.0517v.160004h.0517zm.055 0h-.055v.160004h.055zm.0582 0h-.0582v.160004h.0582zm.0517 0h-.0517v.160004h.0517zm.0581 0h-.0581v.160004h.0581zm.0324 0h-.0324v.160004h.0324zm.089.033468-.055-.025854-.0681.14477.0549.02586zm.0508.028781-.0452-.025855-.0794.13892.0453.02586zm.0612.050785c-.017-.0184-.0362-.03462-.0571-.048306l-.0875.133966c.0099.00645.0189.01411.0269.02279zm.0319.02313-.042-.03231-.0975.12682.042.03231zm.0437.05782-.0259-.03878-.1331.08875.0259.03878zm.0319.0402-.0356-.04525-.1258.09885.0356.04525zm-.0403.09467c.08 0 .08-.00003.08-.00006 0-.00001 0-.00003 0-.00005 0-.00004 0-.00008 0-.00012 0-.00008 0-.00016 0-.00024 0-.00016 0-.00034 0-.00052 0-.00037 0-.00078 0-.00122-.0001-.00088-.0001-.00192-.0001-.00309-.0002-.00233-.0004-.00526-.0007-.00865-.0008-.00663-.0022-.01584-.0052-.02623-.0056-.01897-.0199-.05336-.0569-.07453l-.0794.13892c-.0072-.00409-.0117-.0093-.0141-.01304-.0023-.00346-.0031-.00597-.0032-.00655-.0002-.00069-.0003-.00102-.0003-.00118s0-.00046-.0001-.00097c0-.00026 0-.00059 0-.001 0-.0002 0-.00042 0-.00067 0-.00012 0-.00025 0-.00038 0-.00007 0-.00014 0-.00021 0-.00003 0-.00007 0-.0001 0-.00002 0-.00005 0-.00006 0-.00002 0-.00005.08-.00005zm.1118.02349-.0452-.06787-.1332.08875.0453.06787zm-2.2992 6.60726 1.7775-4.73788-.1498-.0562-1.7775 4.73788zm3.4801-.1081h-3.555v.16h3.555zm-1.8524-4.62978 1.7775 4.73788.1498-.0562-1.7775-4.73788z" mask="url(#a)"/></g></svg>