<svg width="21" height="12" viewBox="0 0 21 12" fill="none" xmlns="http://www.w3.org/2000/svg">
<mask id="path-1-outside-1_3420_57141" maskUnits="userSpaceOnUse" x="0" y="0" width="21" height="12" fill="black">
<rect fill="white" width="21" height="12"/>
<path fill-rule="evenodd" clip-rule="evenodd" d="M6.62987 3.80847H10.5501H10.5598C10.7098 3.80847 10.8536 3.86806 10.9597 3.97412C11.0658 4.08019 11.1254 4.22404 11.1254 4.37404C11.1254 4.52404 11.0658 4.6679 10.9597 4.77396C10.8536 4.88003 10.7098 4.93962 10.5598 4.93962H8.75642C8.25289 6.12152 7.53149 7.19813 6.62987 8.11328L9.65164 10.5921C9.74268 10.6658 9.80859 10.766 9.84025 10.8788C9.87191 10.9916 9.86776 11.1114 9.82838 11.2218C9.789 11.3321 9.71634 11.4275 9.62041 11.4947C9.52449 11.562 9.41006 11.5978 9.29291 11.5972C9.16284 11.5976 9.03687 11.5518 8.9374 11.4679L5.80252 8.91801C4.67011 9.91461 3.41453 10.7618 2.06651 11.4389C1.98713 11.4818 1.89821 11.504 1.80796 11.5035C1.68068 11.504 1.55696 11.4616 1.45679 11.383C1.35661 11.3045 1.28586 11.1945 1.25596 11.0708C1.22606 10.9471 1.23876 10.8169 1.29201 10.7013C1.34526 10.5857 1.43595 10.4914 1.54941 10.4337C5.36299 8.46556 6.93043 6.09985 7.5057 4.93962H1.56557C1.41557 4.93962 1.27172 4.88003 1.16565 4.77396C1.05959 4.6679 1 4.52404 1 4.37404C1 4.22404 1.05959 4.08019 1.16565 3.97412C1.27172 3.86806 1.41557 3.80847 1.56557 3.80847H5.49872V1.56557C5.49872 1.41557 5.55831 1.27172 5.66438 1.16565C5.77044 1.05959 5.9143 1 6.0643 1C6.2143 1 6.35815 1.05959 6.46422 1.16565C6.57028 1.27172 6.62987 1.41557 6.62987 1.56557V3.80847ZM16.3711 1.32356L19.9811 10.8672C20.0069 10.9374 20.0185 11.012 20.0154 11.0868C20.0123 11.1615 19.9945 11.2349 19.963 11.3028C19.9314 11.3706 19.8868 11.4316 19.8317 11.4822C19.7766 11.5328 19.7121 11.572 19.6418 11.5976C19.578 11.6231 19.51 11.6363 19.4414 11.6364C19.3266 11.6357 19.2147 11.6005 19.1201 11.5354C19.0256 11.4703 18.9529 11.3782 18.9114 11.2712L18.0614 8.98949H13.6338L12.7709 11.2712C12.7443 11.3416 12.7042 11.4062 12.6527 11.4611C12.6013 11.516 12.5395 11.5603 12.4709 11.5914C12.4023 11.6224 12.3283 11.6397 12.2531 11.6421C12.1778 11.6446 12.1028 11.6322 12.0324 11.6057C11.9619 11.5791 11.8974 11.539 11.8425 11.4875C11.7875 11.4361 11.7433 11.3743 11.7122 11.3057C11.6811 11.2371 11.6639 11.1631 11.6614 11.0879C11.659 11.0126 11.6714 10.9376 11.6979 10.8672L15.3531 1.31063C15.3604 1.29172 15.369 1.27335 15.379 1.25569L15.4048 1.21367C15.4159 1.19798 15.4277 1.18288 15.4404 1.16843L15.4759 1.12641L15.5179 1.09086L15.5599 1.05855L15.6052 1.03269L15.6601 1.00684H15.6925H15.7506H15.8023H15.8573H15.9155H15.9672H16.0253H16.0577L16.1126 1.03269L16.1578 1.05855C16.1733 1.06862 16.1874 1.08056 16.1999 1.0941L16.2419 1.12641L16.2677 1.1652L16.3033 1.21044C16.3259 1.22337 16.3259 1.25569 16.3259 1.25569L16.3711 1.32356ZM15.8411 3.12046L14.0636 7.85834H17.6186L15.8411 3.12046Z"/>
</mask>
<path fill-rule="evenodd" clip-rule="evenodd" d="M6.62987 3.80847H10.5501H10.5598C10.7098 3.80847 10.8536 3.86806 10.9597 3.97412C11.0658 4.08019 11.1254 4.22404 11.1254 4.37404C11.1254 4.52404 11.0658 4.6679 10.9597 4.77396C10.8536 4.88003 10.7098 4.93962 10.5598 4.93962H8.75642C8.25289 6.12152 7.53149 7.19813 6.62987 8.11328L9.65164 10.5921C9.74268 10.6658 9.80859 10.766 9.84025 10.8788C9.87191 10.9916 9.86776 11.1114 9.82838 11.2218C9.789 11.3321 9.71634 11.4275 9.62041 11.4947C9.52449 11.562 9.41006 11.5978 9.29291 11.5972C9.16284 11.5976 9.03687 11.5518 8.9374 11.4679L5.80252 8.91801C4.67011 9.91461 3.41453 10.7618 2.06651 11.4389C1.98713 11.4818 1.89821 11.504 1.80796 11.5035C1.68068 11.504 1.55696 11.4616 1.45679 11.383C1.35661 11.3045 1.28586 11.1945 1.25596 11.0708C1.22606 10.9471 1.23876 10.8169 1.29201 10.7013C1.34526 10.5857 1.43595 10.4914 1.54941 10.4337C5.36299 8.46556 6.93043 6.09985 7.5057 4.93962H1.56557C1.41557 4.93962 1.27172 4.88003 1.16565 4.77396C1.05959 4.6679 1 4.52404 1 4.37404C1 4.22404 1.05959 4.08019 1.16565 3.97412C1.27172 3.86806 1.41557 3.80847 1.56557 3.80847H5.49872V1.56557C5.49872 1.41557 5.55831 1.27172 5.66438 1.16565C5.77044 1.05959 5.9143 1 6.0643 1C6.2143 1 6.35815 1.05959 6.46422 1.16565C6.57028 1.27172 6.62987 1.41557 6.62987 1.56557V3.80847ZM16.3711 1.32356L19.9811 10.8672C20.0069 10.9374 20.0185 11.012 20.0154 11.0868C20.0123 11.1615 19.9945 11.2349 19.963 11.3028C19.9314 11.3706 19.8868 11.4316 19.8317 11.4822C19.7766 11.5328 19.7121 11.572 19.6418 11.5976C19.578 11.6231 19.51 11.6363 19.4414 11.6364C19.3266 11.6357 19.2147 11.6005 19.1201 11.5354C19.0256 11.4703 18.9529 11.3782 18.9114 11.2712L18.0614 8.98949H13.6338L12.7709 11.2712C12.7443 11.3416 12.7042 11.4062 12.6527 11.4611C12.6013 11.516 12.5395 11.5603 12.4709 11.5914C12.4023 11.6224 12.3283 11.6397 12.2531 11.6421C12.1778 11.6446 12.1028 11.6322 12.0324 11.6057C11.9619 11.5791 11.8974 11.539 11.8425 11.4875C11.7875 11.4361 11.7433 11.3743 11.7122 11.3057C11.6811 11.2371 11.6639 11.1631 11.6614 11.0879C11.659 11.0126 11.6714 10.9376 11.6979 10.8672L15.3531 1.31063C15.3604 1.29172 15.369 1.27335 15.379 1.25569L15.4048 1.21367C15.4159 1.19798 15.4277 1.18288 15.4404 1.16843L15.4759 1.12641L15.5179 1.09086L15.5599 1.05855L15.6052 1.03269L15.6601 1.00684H15.6925H15.7506H15.8023H15.8573H15.9155H15.9672H16.0253H16.0577L16.1126 1.03269L16.1578 1.05855C16.1733 1.06862 16.1874 1.08056 16.1999 1.0941L16.2419 1.12641L16.2677 1.1652L16.3033 1.21044C16.3259 1.22337 16.3259 1.25569 16.3259 1.25569L16.3711 1.32356ZM15.8411 3.12046L14.0636 7.85834H17.6186L15.8411 3.12046Z" fill="white"/>
<path d="M6.62987 3.80847H6.54987V3.88847H6.62987V3.80847ZM10.9597 3.97412L11.0163 3.91756L11.0163 3.91755L10.9597 3.97412ZM10.9597 4.77396L11.0163 4.83053L11.0163 4.83053L10.9597 4.77396ZM8.75642 4.93962V4.85962H8.70355L8.68282 4.90826L8.75642 4.93962ZM6.62987 8.11328L6.57288 8.05714L6.51138 8.11956L6.57913 8.17514L6.62987 8.11328ZM9.65164 10.5921L9.6009 10.654L9.6013 10.6543L9.65164 10.5921ZM9.84025 10.8788L9.76323 10.9004V10.9004L9.84025 10.8788ZM9.62041 11.4947L9.66634 11.5602H9.66634L9.62041 11.4947ZM9.29291 11.5972L9.29331 11.5172L9.29269 11.5172L9.29291 11.5972ZM8.9374 11.4679L8.98896 11.4068L8.98789 11.4059L8.9374 11.4679ZM5.80252 8.91801L5.853 8.85595L5.80048 8.81324L5.74966 8.85796L5.80252 8.91801ZM2.06651 11.4389L2.03059 11.3673L2.02844 11.3685L2.06651 11.4389ZM1.80796 11.5035L1.80844 11.4235L1.80764 11.4235L1.80796 11.5035ZM1.25596 11.0708L1.1782 11.0896H1.1782L1.25596 11.0708ZM1.29201 10.7013L1.36467 10.7348H1.36467L1.29201 10.7013ZM1.54941 10.4337L1.58567 10.5051L1.5861 10.5048L1.54941 10.4337ZM7.5057 4.93962L7.57737 4.97515L7.63466 4.85962H7.5057V4.93962ZM1.16565 4.77396L1.10908 4.83053H1.10908L1.16565 4.77396ZM1.16565 3.97412L1.10908 3.91755H1.10908L1.16565 3.97412ZM5.49872 3.80847V3.88847H5.57872V3.80847H5.49872ZM5.66438 1.16565L5.72094 1.22222L5.66438 1.16565ZM6.46422 1.16565L6.40765 1.22222L6.46422 1.16565ZM19.9811 10.8672L20.0562 10.8396L20.0559 10.8389L19.9811 10.8672ZM16.3711 1.32356L16.446 1.29525L16.4427 1.28675L16.4377 1.27918L16.3711 1.32356ZM20.0154 11.0868L20.0954 11.0901L20.0154 11.0868ZM19.963 11.3028L19.8904 11.2691V11.2691L19.963 11.3028ZM19.8317 11.4822L19.8858 11.5411L19.8317 11.4822ZM19.6418 11.5976L19.6144 11.5224L19.612 11.5233L19.6418 11.5976ZM19.4414 11.6364L19.4409 11.7164L19.4415 11.7164L19.4414 11.6364ZM19.1201 11.5354L19.0748 11.6013V11.6013L19.1201 11.5354ZM18.9114 11.2712L18.8364 11.2991L18.8368 11.3001L18.9114 11.2712ZM18.0614 8.98949L18.1364 8.96156L18.117 8.90949H18.0614V8.98949ZM13.6338 8.98949V8.90949H13.5785L13.5589 8.96119L13.6338 8.98949ZM12.7709 11.2712L12.696 11.2429L12.696 11.243L12.7709 11.2712ZM12.6527 11.4611L12.5944 11.4064L12.5944 11.4064L12.6527 11.4611ZM12.2531 11.6421L12.2505 11.5622L12.2505 11.5622L12.2531 11.6421ZM11.8425 11.4875L11.7878 11.5459V11.5459L11.8425 11.4875ZM11.7122 11.3057L11.7851 11.2727V11.2727L11.7122 11.3057ZM11.6614 11.0879L11.7414 11.0853L11.7414 11.0853L11.6614 11.0879ZM11.6979 10.8672L11.6232 10.8386L11.623 10.839L11.6979 10.8672ZM15.3531 1.31063L15.2785 1.28188L15.2784 1.28205L15.3531 1.31063ZM15.379 1.25569L15.3108 1.21373L15.3092 1.21648L15.379 1.25569ZM15.4048 1.21367L15.3393 1.1675L15.3367 1.17175L15.4048 1.21367ZM15.4404 1.16843L15.5006 1.22107L15.5014 1.2201L15.4404 1.16843ZM15.4759 1.12641L15.4235 1.06449L15.4149 1.07474L15.4759 1.12641ZM15.5179 1.09086L15.4691 1.02739L15.4663 1.02979L15.5179 1.09086ZM15.5599 1.05855L15.5199 0.988433L15.5112 0.995136L15.5599 1.05855ZM15.6052 1.03269L15.571 0.960075L15.5655 0.963231L15.6052 1.03269ZM15.6601 1.00684V0.926836H15.6423L15.6261 0.93445L15.6601 1.00684ZM16.0577 1.00684L16.0917 0.93445L16.0755 0.926836H16.0577V1.00684ZM16.1126 1.03269L16.1524 0.963011L16.1467 0.960304L16.1126 1.03269ZM16.1578 1.05855L16.2017 0.991446L16.1975 0.989085L16.1578 1.05855ZM16.1999 1.0941L16.1402 1.14912L16.1511 1.15751L16.1999 1.0941ZM16.2419 1.12641L16.3084 1.08204L16.3011 1.07105L16.2906 1.063L16.2419 1.12641ZM16.2677 1.1652L16.201 1.20971L16.2048 1.21462L16.2677 1.1652ZM16.3033 1.21044L16.2404 1.25987L16.25 1.27215L16.2636 1.2799L16.3033 1.21044ZM16.3259 1.25569H16.2459V1.27991L16.2593 1.30006L16.3259 1.25569ZM14.0636 7.85834L13.9887 7.83024L13.9481 7.93834H14.0636V7.85834ZM15.8411 3.12046L15.916 3.09236L15.8411 2.89271L15.7662 3.09236L15.8411 3.12046ZM17.6186 7.85834V7.93834H17.7341L17.6935 7.83024L17.6186 7.85834ZM10.5501 3.72847H6.62987V3.88847H10.5501V3.72847ZM10.5598 3.72847H10.5501V3.88847H10.5598V3.72847ZM11.0163 3.91755C10.8952 3.79649 10.731 3.72847 10.5598 3.72847V3.88847C10.6886 3.88847 10.8121 3.93963 10.9031 4.03069L11.0163 3.91755ZM11.2054 4.37404C11.2054 4.20283 11.1373 4.03862 11.0163 3.91756L10.9031 4.03069C10.9942 4.12175 11.0454 4.24526 11.0454 4.37404H11.2054ZM11.0163 4.83053C11.1373 4.70946 11.2054 4.54526 11.2054 4.37404H11.0454C11.0454 4.50282 10.9942 4.62633 10.9031 4.7174L11.0163 4.83053ZM10.5598 5.01962C10.731 5.01962 10.8952 4.9516 11.0163 4.83053L10.9031 4.71739C10.8121 4.80846 10.6886 4.85962 10.5598 4.85962V5.01962ZM8.75642 5.01962H10.5598V4.85962H8.75642V5.01962ZM6.68686 8.16943C7.59553 7.24713 8.32256 6.1621 8.83002 4.97097L8.68282 4.90826C8.18323 6.08093 7.46746 7.14913 6.57288 8.05714L6.68686 8.16943ZM9.70238 10.5303L6.68061 8.05143L6.57913 8.17514L9.6009 10.654L9.70238 10.5303ZM9.91727 10.8572C9.88113 10.7284 9.80591 10.6141 9.70199 10.5299L9.6013 10.6543C9.67946 10.7176 9.73604 10.8036 9.76323 10.9004L9.91727 10.8572ZM9.90373 11.2487C9.94868 11.1227 9.95341 10.9859 9.91727 10.8572L9.76323 10.9004C9.79041 10.9973 9.78685 11.1001 9.75304 11.1949L9.90373 11.2487ZM9.66634 11.5602C9.77583 11.4835 9.85878 11.3746 9.90373 11.2487L9.75304 11.1949C9.71923 11.2896 9.65684 11.3715 9.57449 11.4292L9.66634 11.5602ZM9.29251 11.6772C9.42623 11.6779 9.55685 11.637 9.66634 11.5602L9.57449 11.4292C9.49213 11.487 9.39388 11.5177 9.29331 11.5172L9.29251 11.6772ZM8.88585 11.5291C8.9998 11.6251 9.14412 11.6776 9.29312 11.6772L9.29269 11.5172C9.18157 11.5175 9.07394 11.4784 8.98896 11.4068L8.88585 11.5291ZM5.75204 8.98008L8.88692 11.53L8.98789 11.4059L5.853 8.85595L5.75204 8.98008ZM2.10241 11.5103C3.45655 10.8302 4.71783 9.97919 5.85537 8.97807L5.74966 8.85796C4.6224 9.85004 3.37251 10.6934 2.0306 11.3674L2.10241 11.5103ZM1.80748 11.5835C1.91118 11.5841 2.01337 11.5586 2.10458 11.5092L2.02844 11.3685C1.9609 11.405 1.88523 11.424 1.80844 11.4235L1.80748 11.5835ZM1.40743 11.446C1.52177 11.5356 1.663 11.5841 1.80828 11.5835L1.80764 11.4235C1.69837 11.4239 1.59214 11.3875 1.50614 11.3201L1.40743 11.446ZM1.1782 11.0896C1.21233 11.2308 1.29309 11.3564 1.40743 11.446L1.50614 11.3201C1.42014 11.2527 1.35939 11.1582 1.33372 11.052L1.1782 11.0896ZM1.21935 10.6678C1.15856 10.7998 1.14406 10.9484 1.1782 11.0896L1.33372 11.052C1.30805 10.9458 1.31895 10.834 1.36467 10.7348L1.21935 10.6678ZM1.51316 10.3624C1.38365 10.4283 1.28014 10.5359 1.21935 10.6678L1.36467 10.7348C1.41039 10.6355 1.48825 10.5546 1.58567 10.5051L1.51316 10.3624ZM7.43402 4.90408C6.86563 6.05045 5.3098 8.40298 1.51272 10.3627L1.5861 10.5048C5.41617 8.52813 6.99523 6.14925 7.57737 4.97515L7.43402 4.90408ZM1.56557 5.01962H7.5057V4.85962H1.56557V5.01962ZM1.10908 4.83053C1.23015 4.9516 1.39436 5.01962 1.56557 5.01962V4.85962C1.43679 4.85962 1.31328 4.80846 1.22222 4.71739L1.10908 4.83053ZM0.92 4.37404C0.92 4.54526 0.988016 4.70946 1.10908 4.83053L1.22222 4.71739C1.13116 4.62633 1.08 4.50282 1.08 4.37404H0.92ZM1.10908 3.91755C0.988016 4.03862 0.92 4.20283 0.92 4.37404H1.08C1.08 4.24526 1.13116 4.12175 1.22222 4.03069L1.10908 3.91755ZM1.56557 3.72847C1.39436 3.72847 1.23015 3.79649 1.10908 3.91755L1.22222 4.03069C1.31328 3.93963 1.43679 3.88847 1.56557 3.88847V3.72847ZM5.49872 3.72847H1.56557V3.88847H5.49872V3.72847ZM5.41872 1.56557V3.80847H5.57872V1.56557H5.41872ZM5.60781 1.10908C5.48674 1.23015 5.41872 1.39436 5.41872 1.56557H5.57872C5.57872 1.43679 5.62988 1.31328 5.72094 1.22222L5.60781 1.10908ZM6.0643 0.92C5.89308 0.92 5.72888 0.988015 5.60781 1.10908L5.72094 1.22222C5.81201 1.13116 5.93551 1.08 6.0643 1.08V0.92ZM6.52079 1.10908C6.39972 0.988015 6.23551 0.92 6.0643 0.92V1.08C6.19308 1.08 6.31659 1.13116 6.40765 1.22222L6.52079 1.10908ZM6.70987 1.56557C6.70987 1.39436 6.64185 1.23015 6.52079 1.10908L6.40765 1.22222C6.49871 1.31328 6.54987 1.43679 6.54987 1.56557H6.70987ZM6.70987 3.80847V1.56557H6.54987V3.80847H6.70987ZM20.0559 10.8389L16.446 1.29525L16.2963 1.35186L19.9063 10.8955L20.0559 10.8389ZM20.0954 11.0901C20.0989 11.0049 20.0856 10.9197 20.0562 10.8396L19.906 10.8947C19.9282 10.9551 19.9382 11.0192 19.9355 11.0835L20.0954 11.0901ZM20.0355 11.3365C20.0715 11.2591 20.0918 11.1754 20.0954 11.0901L19.9355 11.0835C19.9328 11.1477 19.9175 11.2108 19.8904 11.2691L20.0355 11.3365ZM19.8858 11.5411C19.9487 11.4834 19.9996 11.4139 20.0355 11.3365L19.8904 11.2691C19.8633 11.3274 19.825 11.3798 19.7776 11.4232L19.8858 11.5411ZM19.6691 11.6728C19.7493 11.6436 19.823 11.5988 19.8858 11.5411L19.7776 11.4232C19.7303 11.4667 19.6748 11.5004 19.6144 11.5224L19.6691 11.6728ZM19.4415 11.7164C19.5203 11.7163 19.5984 11.7012 19.6715 11.6718L19.612 11.5233C19.5577 11.5451 19.4998 11.5563 19.4413 11.5564L19.4415 11.7164ZM19.0748 11.6013C19.1825 11.6755 19.3101 11.7156 19.4409 11.7164L19.4419 11.5564C19.3431 11.5558 19.2468 11.5255 19.1655 11.4695L19.0748 11.6013ZM18.8368 11.3001C18.8841 11.4221 18.967 11.527 19.0748 11.6013L19.1655 11.4695C19.0842 11.4135 19.0217 11.3343 18.986 11.2422L18.8368 11.3001ZM17.9864 9.01741L18.8364 11.2991L18.9863 11.2432L18.1364 8.96156L17.9864 9.01741ZM13.6338 9.06949H18.0614V8.90949H13.6338V9.06949ZM12.8457 11.2995L13.7086 9.01779L13.5589 8.96119L12.696 11.2429L12.8457 11.2995ZM12.7111 11.5158C12.7698 11.4532 12.8155 11.3796 12.8457 11.2994L12.696 11.243C12.6732 11.3036 12.6386 11.3591 12.5944 11.4064L12.7111 11.5158ZM12.5039 11.6642C12.5821 11.6288 12.6525 11.5784 12.7111 11.5158L12.5944 11.4064C12.5501 11.4537 12.4969 11.4918 12.4379 11.5185L12.5039 11.6642ZM12.2557 11.7221C12.3414 11.7193 12.4258 11.6996 12.5039 11.6642L12.4379 11.5185C12.3789 11.5452 12.3152 11.5601 12.2505 11.5622L12.2557 11.7221ZM12.0042 11.6805C12.0845 11.7108 12.1699 11.7249 12.2557 11.7221L12.2505 11.5622C12.1857 11.5643 12.1212 11.5536 12.0606 11.5308L12.0042 11.6805ZM11.7878 11.5459C11.8504 11.6046 11.9239 11.6503 12.0042 11.6805L12.0606 11.5308C12 11.508 11.9444 11.4734 11.8972 11.4291L11.7878 11.5459ZM11.6393 11.3387C11.6747 11.4169 11.7252 11.4873 11.7878 11.5459L11.8972 11.4291C11.8499 11.3849 11.8118 11.3317 11.7851 11.2727L11.6393 11.3387ZM11.5815 11.0905C11.5843 11.1762 11.6039 11.2606 11.6393 11.3387L11.7851 11.2727C11.7583 11.2137 11.7435 11.15 11.7414 11.0853L11.5815 11.0905ZM11.623 10.839C11.5928 10.9193 11.5787 11.0047 11.5815 11.0905L11.7414 11.0853C11.7393 11.0205 11.7499 10.956 11.7728 10.8954L11.623 10.839ZM15.2784 1.28205L11.6232 10.8386L11.7726 10.8958L15.4278 1.33921L15.2784 1.28205ZM15.3092 1.21648C15.2974 1.23751 15.2871 1.25937 15.2785 1.28188L15.4278 1.33937C15.4337 1.32406 15.4407 1.3092 15.4487 1.29489L15.3092 1.21648ZM15.3367 1.17175L15.3108 1.21376L15.4471 1.29762L15.473 1.2556L15.3367 1.17175ZM15.3801 1.11579C15.3657 1.13234 15.3521 1.14963 15.3394 1.16759L15.4702 1.25976C15.4797 1.24634 15.4898 1.23342 15.5006 1.22106L15.3801 1.11579ZM15.4149 1.07474L15.3793 1.11675L15.5014 1.2201L15.537 1.17809L15.4149 1.07474ZM15.4663 1.02979L15.4242 1.06534L15.5276 1.18748L15.5696 1.15193L15.4663 1.02979ZM15.5112 0.995136L15.4692 1.02745L15.5667 1.15427L15.6087 1.12195L15.5112 0.995136ZM15.5655 0.963231L15.5203 0.989086L15.5996 1.128L15.6449 1.10215L15.5655 0.963231ZM15.6261 0.93445L15.5711 0.960304L15.6393 1.10508L15.6942 1.07922L15.6261 0.93445ZM15.6925 0.926836H15.6601V1.08684H15.6925V0.926836ZM15.7506 0.926836H15.6925V1.08684H15.7506V0.926836ZM15.8023 0.926836H15.7506V1.08684H15.8023V0.926836ZM15.8573 0.926836H15.8023V1.08684H15.8573V0.926836ZM15.9155 0.926836H15.8573V1.08684H15.9155V0.926836ZM15.9672 0.926836H15.9155V1.08684H15.9672V0.926836ZM16.0253 0.926836H15.9672V1.08684H16.0253V0.926836ZM16.0577 0.926836H16.0253V1.08684H16.0577V0.926836ZM16.1467 0.960304L16.0917 0.93445L16.0236 1.07922L16.0785 1.10508L16.1467 0.960304ZM16.1975 0.989085L16.1523 0.96323L16.0729 1.10215L16.1182 1.12801L16.1975 0.989085ZM16.2587 1.03987C16.2417 1.02147 16.2225 1.00525 16.2016 0.991564L16.1141 1.12553C16.124 1.13198 16.133 1.13964 16.141 1.14832L16.2587 1.03987ZM16.2906 1.063L16.2486 1.03069L16.1511 1.15751L16.1931 1.18982L16.2906 1.063ZM16.3343 1.12082L16.3084 1.08204L16.1753 1.17079L16.2012 1.20957L16.3343 1.12082ZM16.3662 1.16102L16.3306 1.11577L16.2048 1.21462L16.2404 1.25987L16.3662 1.16102ZM16.3259 1.25569C16.4059 1.25569 16.4059 1.25566 16.4059 1.25563C16.4059 1.25562 16.4059 1.2556 16.4059 1.25558C16.4059 1.25554 16.4059 1.2555 16.4059 1.25546C16.4059 1.25538 16.4059 1.2553 16.4059 1.25522C16.4059 1.25506 16.4059 1.25488 16.4059 1.2547C16.4059 1.25433 16.4059 1.25392 16.4059 1.25348C16.4058 1.2526 16.4058 1.25156 16.4058 1.25039C16.4056 1.24806 16.4054 1.24513 16.4051 1.24174C16.4043 1.23511 16.4029 1.2259 16.3999 1.21551C16.3943 1.19654 16.38 1.16215 16.343 1.14098L16.2636 1.2799C16.2564 1.27581 16.2519 1.2706 16.2495 1.26686C16.2472 1.2634 16.2464 1.26089 16.2463 1.26031C16.2461 1.25962 16.246 1.25929 16.246 1.25913C16.246 1.25897 16.246 1.25867 16.2459 1.25816C16.2459 1.2579 16.2459 1.25757 16.2459 1.25716C16.2459 1.25696 16.2459 1.25674 16.2459 1.25649C16.2459 1.25637 16.2459 1.25624 16.2459 1.25611C16.2459 1.25604 16.2459 1.25597 16.2459 1.2559C16.2459 1.25587 16.2459 1.25583 16.2459 1.2558C16.2459 1.25578 16.2459 1.25575 16.2459 1.25574C16.2459 1.25572 16.2459 1.25569 16.3259 1.25569ZM16.4377 1.27918L16.3925 1.21131L16.2593 1.30006L16.3046 1.36793L16.4377 1.27918ZM14.1385 7.88644L15.916 3.14856L15.7662 3.09236L13.9887 7.83024L14.1385 7.88644ZM17.6186 7.77834H14.0636V7.93834H17.6186V7.77834ZM15.7662 3.14856L17.5437 7.88644L17.6935 7.83024L15.916 3.09236L15.7662 3.14856Z" fill="white" mask="url(#path-1-outside-1_3420_57141)"/>
</svg>
