<?xml version="1.0" encoding="UTF-8" standalone="no"?>
<svg
   width="22"
   height="19"
   viewBox="0 0 22 19"
   fill="none"
   version="1.1"
   id="svg4"
   xmlns="http://www.w3.org/2000/svg"
   xmlns:svg="http://www.w3.org/2000/svg">
  <defs
     id="defs4" />
  <mask
     id="path-1-outside-1_24839_35078"
     maskUnits="userSpaceOnUse"
     x="3.07715"
     y="3.33252"
     width="15"
     height="9"
     fill="black">
    <rect
       fill="white"
       x="3.07715"
       y="3.33252"
       width="15"
       height="9"
       id="rect1" />
    <path
       fill-rule="evenodd"
       clip-rule="evenodd"
       d="M8.17645 6.36247H11.0309H11.038C11.1472 6.36247 11.2519 6.40554 11.3292 6.4822C11.4064 6.55887 11.4498 6.66285 11.4498 6.77127C11.4498 6.87968 11.4064 6.98366 11.3292 7.06033C11.2519 7.13699 11.1472 7.18006 11.038 7.18006H9.72487C9.35823 8.03433 8.83296 8.81251 8.17645 9.47397L10.3767 11.2657C10.443 11.3189 10.491 11.3914 10.514 11.4729C10.5371 11.5544 10.5341 11.641 10.5054 11.7208C10.4767 11.8005 10.4238 11.8695 10.354 11.9181C10.2841 11.9667 10.2008 11.9926 10.1155 11.9921C10.0208 11.9924 9.92907 11.9593 9.85665 11.8987L7.57403 10.0556C6.74949 10.776 5.83525 11.3883 4.85371 11.8777C4.79591 11.9087 4.73116 11.9248 4.66545 11.9244C4.57278 11.9248 4.48269 11.8941 4.40975 11.8373C4.33681 11.7806 4.28529 11.7011 4.26352 11.6116C4.24175 11.5222 4.251 11.4281 4.28977 11.3446C4.32855 11.261 4.39458 11.1929 4.4772 11.1512C7.25399 9.72859 8.3953 8.01867 8.81417 7.18006H4.48896C4.37974 7.18006 4.275 7.13699 4.19777 7.06033C4.12054 6.98366 4.07715 6.87968 4.07715 6.77127C4.07715 6.66285 4.12054 6.55887 4.19777 6.4822C4.275 6.40554 4.37974 6.36247 4.48896 6.36247H7.35283V4.74131C7.35283 4.63289 7.39621 4.52892 7.47344 4.45225C7.55067 4.37559 7.65542 4.33252 7.76464 4.33252C7.87386 4.33252 7.97861 4.37559 8.05584 4.45225C8.13306 4.52892 8.17645 4.63289 8.17645 4.74131V6.36247ZM15.2694 4.56638L17.898 11.4645C17.9167 11.5152 17.9252 11.5692 17.9229 11.6232C17.9207 11.6772 17.9077 11.7303 17.8847 11.7793C17.8618 11.8284 17.8293 11.8724 17.7892 11.909C17.7491 11.9456 17.7021 11.9739 17.6509 11.9924C17.6045 12.0109 17.555 12.0204 17.505 12.0204C17.4214 12.02 17.3399 11.9945 17.2711 11.9475C17.2022 11.9004 17.1493 11.8338 17.119 11.7565L16.5001 10.1073H13.2762L12.6479 11.7565C12.6286 11.8074 12.5994 11.8541 12.5619 11.8938C12.5244 11.9335 12.4794 11.9655 12.4295 11.9879C12.3796 12.0104 12.3257 12.0228 12.2709 12.0246C12.2161 12.0264 12.1615 12.0174 12.1102 11.9983C12.0589 11.9791 12.0119 11.9501 11.9719 11.9129C11.9319 11.8757 11.8997 11.831 11.8771 11.7814C11.8545 11.7319 11.8419 11.6784 11.8401 11.624C11.8383 11.5696 11.8473 11.5154 11.8667 11.4645L14.5281 4.55704C14.5335 4.54337 14.5397 4.5301 14.547 4.51733L14.5658 4.48696C14.5739 4.47562 14.5825 4.46471 14.5917 4.45426L14.6176 4.42389L14.6482 4.3982L14.6788 4.37484L14.7117 4.35615L14.7517 4.33746H14.7752H14.8176H14.8552H14.8953H14.9376H14.9753H15.0176H15.0411L15.0812 4.35615L15.1141 4.37484C15.1253 4.38211 15.1356 4.39075 15.1447 4.40053L15.1753 4.42389L15.1941 4.45192L15.22 4.48463C15.2365 4.49397 15.2365 4.51733 15.2365 4.51733L15.2694 4.56638ZM14.8835 5.86518L13.5892 9.2897H16.1778L14.8835 5.86518Z"
       id="path1" />
  </mask>
  <path
     fill-rule="evenodd"
     clip-rule="evenodd"
     d="M8.17645 6.36247H11.0309H11.038C11.1472 6.36247 11.2519 6.40554 11.3292 6.4822C11.4064 6.55887 11.4498 6.66285 11.4498 6.77127C11.4498 6.87968 11.4064 6.98366 11.3292 7.06033C11.2519 7.13699 11.1472 7.18006 11.038 7.18006H9.72487C9.35823 8.03433 8.83296 8.81251 8.17645 9.47397L10.3767 11.2657C10.443 11.3189 10.491 11.3914 10.514 11.4729C10.5371 11.5544 10.5341 11.641 10.5054 11.7208C10.4767 11.8005 10.4238 11.8695 10.354 11.9181C10.2841 11.9667 10.2008 11.9926 10.1155 11.9921C10.0208 11.9924 9.92907 11.9593 9.85665 11.8987L7.57403 10.0556C6.74949 10.776 5.83525 11.3883 4.85371 11.8777C4.79591 11.9087 4.73116 11.9248 4.66545 11.9244C4.57278 11.9248 4.48269 11.8941 4.40975 11.8373C4.33681 11.7806 4.28529 11.7011 4.26352 11.6116C4.24175 11.5222 4.251 11.4281 4.28977 11.3446C4.32855 11.261 4.39458 11.1929 4.4772 11.1512C7.25399 9.72859 8.3953 8.01867 8.81417 7.18006H4.48896C4.37974 7.18006 4.275 7.13699 4.19777 7.06033C4.12054 6.98366 4.07715 6.87968 4.07715 6.77127C4.07715 6.66285 4.12054 6.55887 4.19777 6.4822C4.275 6.40554 4.37974 6.36247 4.48896 6.36247H7.35283V4.74131C7.35283 4.63289 7.39621 4.52892 7.47344 4.45225C7.55067 4.37559 7.65542 4.33252 7.76464 4.33252C7.87386 4.33252 7.97861 4.37559 8.05584 4.45225C8.13306 4.52892 8.17645 4.63289 8.17645 4.74131V6.36247ZM15.2694 4.56638L17.898 11.4645C17.9167 11.5152 17.9252 11.5692 17.9229 11.6232C17.9207 11.6772 17.9077 11.7303 17.8847 11.7793C17.8618 11.8284 17.8293 11.8724 17.7892 11.909C17.7491 11.9456 17.7021 11.9739 17.6509 11.9924C17.6045 12.0109 17.555 12.0204 17.505 12.0204C17.4214 12.02 17.3399 11.9945 17.2711 11.9475C17.2022 11.9004 17.1493 11.8338 17.119 11.7565L16.5001 10.1073H13.2762L12.6479 11.7565C12.6286 11.8074 12.5994 11.8541 12.5619 11.8938C12.5244 11.9335 12.4794 11.9655 12.4295 11.9879C12.3796 12.0104 12.3257 12.0228 12.2709 12.0246C12.2161 12.0264 12.1615 12.0174 12.1102 11.9983C12.0589 11.9791 12.0119 11.9501 11.9719 11.9129C11.9319 11.8757 11.8997 11.831 11.8771 11.7814C11.8545 11.7319 11.8419 11.6784 11.8401 11.624C11.8383 11.5696 11.8473 11.5154 11.8667 11.4645L14.5281 4.55704C14.5335 4.54337 14.5397 4.5301 14.547 4.51733L14.5658 4.48696C14.5739 4.47562 14.5825 4.46471 14.5917 4.45426L14.6176 4.42389L14.6482 4.3982L14.6788 4.37484L14.7117 4.35615L14.7517 4.33746H14.7752H14.8176H14.8552H14.8953H14.9376H14.9753H15.0176H15.0411L15.0812 4.35615L15.1141 4.37484C15.1253 4.38211 15.1356 4.39075 15.1447 4.40053L15.1753 4.42389L15.1941 4.45192L15.22 4.48463C15.2365 4.49397 15.2365 4.51733 15.2365 4.51733L15.2694 4.56638ZM14.8835 5.86518L13.5892 9.2897H16.1778L14.8835 5.86518Z"
     fill="#191919"
     id="path2" />
  <path
     d="M8.17645 6.36247H8.09645V6.44247H8.17645V6.36247ZM11.3292 6.4822L11.2728 6.53898L11.3292 6.4822ZM11.3292 7.06033L11.2728 7.00355L11.2728 7.00355L11.3292 7.06033ZM9.72487 7.18006V7.10006H9.67215L9.65135 7.14851L9.72487 7.18006ZM8.17645 9.47397L8.11967 9.41762L8.05749 9.48027L8.12594 9.53601L8.17645 9.47397ZM10.3767 11.2657L10.3262 11.3277L10.3266 11.328L10.3767 11.2657ZM10.5054 11.7208L10.4301 11.6937L10.4301 11.6937L10.5054 11.7208ZM10.354 11.9181L10.3997 11.9837L10.3997 11.9837L10.354 11.9181ZM10.1155 11.9921L10.1159 11.9121L10.1153 11.9121L10.1155 11.9921ZM9.85665 11.8987L9.90798 11.8373L9.90691 11.8365L9.85665 11.8987ZM7.57403 10.0556L7.62429 9.99339L7.572 9.95117L7.52139 9.99538L7.57403 10.0556ZM4.85371 11.8777L4.818 11.8061L4.81585 11.8072L4.85371 11.8777ZM4.66545 11.9244L4.66593 11.8444L4.66514 11.8444L4.66545 11.9244ZM4.40975 11.8373L4.36062 11.9005L4.36062 11.9005L4.40975 11.8373ZM4.26352 11.6116L4.18579 11.6306H4.18579L4.26352 11.6116ZM4.28977 11.3446L4.36234 11.3782L4.28977 11.3446ZM4.4772 11.1512L4.51324 11.2226L4.51367 11.2224L4.4772 11.1512ZM8.81417 7.18006L8.88574 7.21581L8.94356 7.10006H8.81417V7.18006ZM4.19777 7.06033L4.25413 7.00355H4.25413L4.19777 7.06033ZM4.19777 6.4822L4.14141 6.42543H4.14141L4.19777 6.4822ZM7.35283 6.36247V6.44247H7.43283V6.36247H7.35283ZM7.47344 4.45225L7.41708 4.39548V4.39548L7.47344 4.45225ZM8.05584 4.45225L8.1122 4.39548L8.05584 4.45225ZM17.898 11.4645L17.973 11.4367L17.9727 11.436L17.898 11.4645ZM15.2694 4.56638L15.3442 4.5379L15.3409 4.52936L15.3358 4.52178L15.2694 4.56638ZM17.9229 11.6232L17.843 11.6199V11.6199L17.9229 11.6232ZM17.7892 11.909L17.8431 11.9681L17.8431 11.9681L17.7892 11.909ZM17.6509 11.9924L17.6237 11.9171L17.6213 11.9181L17.6509 11.9924ZM17.505 12.0204L17.5045 12.1004L17.505 12.1004L17.505 12.0204ZM17.2711 11.9475L17.3162 11.8814L17.2711 11.9475ZM17.119 11.7565L17.0441 11.7846L17.0445 11.7856L17.119 11.7565ZM16.5001 10.1073L16.575 10.0792L16.5556 10.0273H16.5001V10.1073ZM13.2762 10.1073V10.0273H13.2211L13.2015 10.0788L13.2762 10.1073ZM12.6479 11.7565L12.5732 11.728L12.5731 11.7281L12.6479 11.7565ZM12.5619 11.8938L12.6201 11.9487L12.6201 11.9487L12.5619 11.8938ZM12.2709 12.0246L12.2683 11.9446L12.2709 12.0246ZM12.1102 11.9983L12.1382 11.9233V11.9233L12.1102 11.9983ZM11.8401 11.624L11.7602 11.6266V11.6266L11.8401 11.624ZM11.8667 11.4645L11.792 11.4357L11.7919 11.4361L11.8667 11.4645ZM14.5281 4.55704L14.4536 4.52811L14.4535 4.52828L14.5281 4.55704ZM14.547 4.51733L14.4789 4.47515L14.4774 4.4779L14.547 4.51733ZM14.5658 4.48696L14.5004 4.44056L14.4978 4.44481L14.5658 4.48696ZM14.5917 4.45426L14.6517 4.50712L14.6526 4.50616L14.5917 4.45426ZM14.6176 4.42389L14.5654 4.36178L14.5567 4.37199L14.6176 4.42389ZM14.6482 4.3982L14.5996 4.33454L14.5967 4.33694L14.6482 4.3982ZM14.6788 4.37484L14.6389 4.3046L14.6302 4.31125L14.6788 4.37484ZM14.7117 4.35615L14.6777 4.28344L14.6722 4.28656L14.7117 4.35615ZM14.7517 4.33746V4.25746H14.7339L14.7178 4.26498L14.7517 4.33746ZM15.0411 4.33746L15.075 4.26498L15.0589 4.25746H15.0411V4.33746ZM15.0812 4.35615L15.1207 4.28635L15.115 4.28367L15.0812 4.35615ZM15.1141 4.37484L15.1577 4.30759L15.1536 4.30525L15.1141 4.37484ZM15.1447 4.40053L15.0852 4.45577L15.0961 4.46411L15.1447 4.40053ZM15.1753 4.42389L15.2417 4.37929L15.2343 4.36832L15.2238 4.36031L15.1753 4.42389ZM15.1941 4.45192L15.1275 4.49666L15.1314 4.50157L15.1941 4.45192ZM15.22 4.48463L15.1573 4.53428L15.167 4.54651L15.1805 4.55421L15.22 4.48463ZM15.2365 4.51733H15.1565V4.5417L15.1701 4.56193L15.2365 4.51733ZM13.5892 9.2897L13.5144 9.26142L13.4735 9.3697H13.5892V9.2897ZM14.8835 5.86518L14.9583 5.8369L14.8835 5.63889L14.8087 5.8369L14.8835 5.86518ZM16.1778 9.2897V9.3697H16.2935L16.2526 9.26142L16.1778 9.2897ZM11.0309 6.28247H8.17645V6.44247H11.0309V6.28247ZM11.038 6.28247H11.0309V6.44247H11.038V6.28247ZM11.3855 6.42543C11.2932 6.33383 11.1682 6.28247 11.038 6.28247V6.44247C11.1262 6.44247 11.2106 6.47725 11.2728 6.53898L11.3855 6.42543ZM11.5298 6.77127C11.5298 6.64144 11.4778 6.51705 11.3855 6.42543L11.2728 6.53898C11.335 6.60069 11.3698 6.68425 11.3698 6.77127H11.5298ZM11.3855 7.1171C11.4778 7.02548 11.5298 6.90109 11.5298 6.77127H11.3698C11.3698 6.85828 11.335 6.94184 11.2728 7.00355L11.3855 7.1171ZM11.038 7.26006C11.1682 7.26006 11.2932 7.2087 11.3855 7.1171L11.2728 7.00355C11.2106 7.06528 11.1262 7.10006 11.038 7.10006V7.26006ZM9.72487 7.26006H11.038V7.10006H9.72487V7.26006ZM8.23323 9.53033C8.89681 8.86174 9.42777 8.07515 9.79838 7.21161L9.65135 7.14851C9.2887 7.99351 8.7691 8.76327 8.11967 9.41762L8.23323 9.53033ZM10.4272 11.2036L8.22697 9.41194L8.12594 9.53601L10.3262 11.3277L10.4272 11.2036ZM10.591 11.4511C10.5634 11.3535 10.506 11.267 10.4268 11.2033L10.3266 11.328C10.38 11.3709 10.4185 11.4292 10.4371 11.4946L10.591 11.4511ZM10.5807 11.7478C10.615 11.6524 10.6186 11.5487 10.591 11.4511L10.4371 11.4946C10.4556 11.5601 10.4531 11.6297 10.4301 11.6937L10.5807 11.7478ZM10.3997 11.9837C10.4831 11.9257 10.5464 11.8433 10.5807 11.7478L10.4301 11.6937C10.4071 11.7578 10.3645 11.8132 10.3083 11.8524L10.3997 11.9837ZM10.1151 12.0721C10.2168 12.0726 10.3163 12.0418 10.3997 11.9837L10.3083 11.8524C10.252 11.8916 10.1848 11.9125 10.1159 11.9121L10.1151 12.0721ZM9.80532 11.9601C9.89224 12.0328 10.0022 12.0724 10.1157 12.0721L10.1153 11.9121C10.0394 11.9123 9.9659 11.8858 9.90798 11.8373L9.80532 11.9601ZM7.52377 10.1179L9.80639 11.9609L9.90691 11.8365L7.62429 9.99339L7.52377 10.1179ZM4.8894 11.9493C5.87704 11.4569 6.79697 10.8407 7.62666 10.1159L7.52139 9.99538C6.702 10.7112 5.79346 11.3198 4.81801 11.8061L4.8894 11.9493ZM4.66497 12.0044C4.74404 12.0049 4.82197 11.9855 4.89157 11.9482L4.81585 11.8072C4.76986 11.8319 4.71829 11.8447 4.66593 11.8444L4.66497 12.0044ZM4.36062 11.9005C4.44773 11.9683 4.55524 12.0048 4.66577 12.0044L4.66514 11.8444C4.59031 11.8447 4.51764 11.8199 4.45888 11.7742L4.36062 11.9005ZM4.18579 11.6306C4.21185 11.7376 4.2735 11.8327 4.36062 11.9005L4.45888 11.7742C4.40013 11.7285 4.35873 11.6645 4.34125 11.5927L4.18579 11.6306ZM4.2172 11.3109C4.17081 11.4109 4.15973 11.5235 4.18579 11.6306L4.34125 11.5927C4.32377 11.5209 4.33119 11.4454 4.36234 11.3782L4.2172 11.3109ZM4.44116 11.0798C4.34254 11.1295 4.2636 11.2109 4.2172 11.3109L4.36234 11.3782C4.3935 11.3111 4.44662 11.2562 4.51324 11.2226L4.44116 11.0798ZM8.7426 7.14431C8.33068 7.969 7.20106 9.66583 4.44072 11.08L4.51367 11.2224C7.30692 9.79136 8.45992 8.06834 8.88574 7.21581L8.7426 7.14431ZM4.48896 7.26006H8.81417V7.10006H4.48896V7.26006ZM4.14141 7.1171C4.23368 7.2087 4.35871 7.26006 4.48896 7.26006V7.10006C4.40077 7.10006 4.31631 7.06528 4.25413 7.00355L4.14141 7.1171ZM3.99715 6.77127C3.99715 6.90109 4.04911 7.02548 4.14141 7.1171L4.25413 7.00355C4.19196 6.94184 4.15715 6.85828 4.15715 6.77127H3.99715ZM4.14141 6.42543C4.04911 6.51705 3.99715 6.64144 3.99715 6.77127H4.15715C4.15715 6.68425 4.19196 6.60069 4.25413 6.53898L4.14141 6.42543ZM4.48896 6.28247C4.35871 6.28247 4.23368 6.33383 4.14141 6.42543L4.25413 6.53898C4.31631 6.47725 4.40077 6.44247 4.48896 6.44247V6.28247ZM7.35283 6.28247H4.48896V6.44247H7.35283V6.28247ZM7.27283 4.74131V6.36247H7.43283V4.74131H7.27283ZM7.41708 4.39548C7.32479 4.4871 7.27283 4.61149 7.27283 4.74131H7.43283C7.43283 4.6543 7.46764 4.57074 7.5298 4.50903L7.41708 4.39548ZM7.76464 4.25252C7.63439 4.25252 7.50936 4.30387 7.41708 4.39548L7.5298 4.50903C7.59199 4.4473 7.67645 4.41252 7.76464 4.41252V4.25252ZM8.1122 4.39548C8.01992 4.30387 7.89489 4.25252 7.76464 4.25252V4.41252C7.85283 4.41252 7.93729 4.4473 7.99948 4.50903L8.1122 4.39548ZM8.25645 4.74131C8.25645 4.61149 8.20449 4.4871 8.1122 4.39548L7.99948 4.50903C8.06164 4.57074 8.09645 4.6543 8.09645 4.74131H8.25645ZM8.25645 6.36247V4.74131H8.09645V6.36247H8.25645ZM17.9727 11.436L15.3442 4.5379L15.1947 4.59487L17.8232 11.493L17.9727 11.436ZM18.0029 11.6266C18.0056 11.5619 17.9954 11.4974 17.973 11.4367L17.8229 11.4922C17.838 11.5331 17.8448 11.5764 17.843 11.6199L18.0029 11.6266ZM17.9572 11.8132C17.9846 11.7546 18.0002 11.6912 18.0029 11.6266L17.843 11.6199C17.8412 11.6633 17.8308 11.706 17.8123 11.7454L17.9572 11.8132ZM17.8431 11.9681C17.891 11.9245 17.9298 11.8719 17.9572 11.8132L17.8123 11.7454C17.7938 11.7849 17.7677 11.8204 17.7353 11.8499L17.8431 11.9681ZM17.6781 12.0676C17.7391 12.0456 17.7952 12.0118 17.8431 11.9681L17.7353 11.8499C17.7029 11.8793 17.665 11.9022 17.6237 11.9172L17.6781 12.0676ZM17.505 12.1004C17.5651 12.1004 17.6247 12.089 17.6805 12.0667L17.6213 11.9181C17.5843 11.9328 17.5448 11.9404 17.5049 11.9404L17.505 12.1004ZM17.2259 12.0135C17.3079 12.0696 17.405 12.0999 17.5045 12.1004L17.5054 11.9404C17.4378 11.9401 17.3718 11.9195 17.3162 11.8814L17.2259 12.0135ZM17.0445 11.7856C17.0806 11.878 17.1438 11.9574 17.2259 12.0135L17.3162 11.8814C17.2606 11.8434 17.2179 11.7897 17.1936 11.7274L17.0445 11.7856ZM16.4252 10.1354L17.0441 11.7846L17.1939 11.7284L16.575 10.0792L16.4252 10.1354ZM13.2762 10.1873H16.5001V10.0273H13.2762V10.1873ZM12.7227 11.785L13.351 10.1358L13.2015 10.0788L12.5732 11.728L12.7227 11.785ZM12.6201 11.9487C12.6648 11.9013 12.6997 11.8457 12.7227 11.7849L12.5731 11.7281C12.5576 11.7692 12.534 11.8068 12.5037 11.8389L12.6201 11.9487ZM12.4623 12.0609C12.5218 12.0341 12.5754 11.996 12.6201 11.9487L12.5037 11.8389C12.4735 11.8709 12.4371 11.8968 12.3967 11.9149L12.4623 12.0609ZM12.2735 12.1046C12.3387 12.1025 12.4029 12.0876 12.4623 12.0609L12.3967 11.9149C12.3563 11.9331 12.3127 11.9432 12.2683 11.9446L12.2735 12.1046ZM12.0822 12.0732C12.1433 12.096 12.2083 12.1067 12.2735 12.1046L12.2683 11.9446C12.2239 11.9461 12.1797 11.9388 12.1382 11.9233L12.0822 12.0732ZM11.9174 11.9714C11.9651 12.0158 12.0211 12.0504 12.0822 12.0732L12.1382 11.9233C12.0967 11.9078 12.0587 11.8843 12.0264 11.8543L11.9174 11.9714ZM11.8043 11.8147C11.8313 11.8738 11.8698 11.9271 11.9174 11.9714L12.0264 11.8543C11.9941 11.8242 11.9681 11.7882 11.9499 11.7482L11.8043 11.8147ZM11.7602 11.6266C11.7623 11.6916 11.7773 11.7555 11.8043 11.8147L11.9499 11.7482C11.9316 11.7083 11.9215 11.6652 11.9201 11.6214L11.7602 11.6266ZM11.7919 11.4361C11.7688 11.4969 11.758 11.5617 11.7602 11.6266L11.9201 11.6214C11.9186 11.5776 11.9259 11.5339 11.9415 11.4929L11.7919 11.4361ZM14.4535 4.52828L11.792 11.4357L11.9413 11.4932L14.6028 4.5858L14.4535 4.52828ZM14.4774 4.4779C14.4682 4.49404 14.4603 4.51082 14.4536 4.52811L14.6027 4.58597C14.6066 4.57592 14.6113 4.56615 14.6166 4.55676L14.4774 4.4779ZM14.4978 4.44481L14.479 4.47518L14.615 4.55948L14.6338 4.52911L14.4978 4.44481ZM14.5316 4.40141C14.5206 4.41394 14.5102 4.42704 14.5006 4.44065L14.631 4.53327C14.6375 4.5242 14.6444 4.51547 14.6517 4.50711L14.5316 4.40141ZM14.5567 4.37199L14.5308 4.40236L14.6526 4.50616L14.6785 4.47579L14.5567 4.37199ZM14.5967 4.33694L14.5661 4.36263L14.669 4.48515L14.6996 4.45945L14.5967 4.33694ZM14.6302 4.31125L14.5996 4.33461L14.6967 4.46178L14.7273 4.43842L14.6302 4.31125ZM14.6722 4.28656L14.6393 4.30525L14.7182 4.44442L14.7512 4.42573L14.6722 4.28656ZM14.7178 4.26498L14.6778 4.28367L14.7456 4.42863L14.7856 4.40994L14.7178 4.26498ZM14.7752 4.25746H14.7517V4.41746H14.7752V4.25746ZM14.8176 4.25746H14.7752V4.41746H14.8176V4.25746ZM14.8552 4.25746H14.8176V4.41746H14.8552V4.25746ZM14.8953 4.25746H14.8552V4.41746H14.8953V4.25746ZM14.9376 4.25746H14.8953V4.41746H14.9376V4.25746ZM14.9753 4.25746H14.9376V4.41746H14.9753V4.25746ZM15.0176 4.25746H14.9753V4.41746H15.0176V4.25746ZM15.0411 4.25746H15.0176V4.41746H15.0411V4.25746ZM15.115 4.28367L15.075 4.26498L15.0073 4.40994L15.0473 4.42863L15.115 4.28367ZM15.1536 4.30525L15.1206 4.28656L15.0417 4.42573L15.0746 4.44442L15.1536 4.30525ZM15.2033 4.34609C15.1897 4.33146 15.1744 4.31857 15.1576 4.30771L15.0706 4.44196C15.0763 4.44566 15.0815 4.45003 15.0861 4.45497L15.2033 4.34609ZM15.2238 4.36031L15.1932 4.33695L15.0961 4.46411L15.1267 4.48747L15.2238 4.36031ZM15.2605 4.40732L15.2417 4.37929L15.1089 4.46849L15.1277 4.49652L15.2605 4.40732ZM15.2827 4.43497L15.2568 4.40227L15.1314 4.50157L15.1573 4.53428L15.2827 4.43497ZM15.2365 4.51733C15.3165 4.51733 15.3165 4.5173 15.3165 4.51727C15.3165 4.51726 15.3165 4.51724 15.3165 4.51722C15.3165 4.51718 15.3165 4.51714 15.3165 4.5171C15.3165 4.51703 15.3165 4.51695 15.3165 4.51687C15.3165 4.5167 15.3165 4.51654 15.3165 4.51636C15.3165 4.51601 15.3165 4.51562 15.3164 4.51521C15.3164 4.51439 15.3164 4.51344 15.3163 4.51239C15.3162 4.51031 15.3161 4.50773 15.3157 4.50477C15.3151 4.49902 15.3138 4.49101 15.3112 4.48193C15.3063 4.46551 15.2935 4.43432 15.2595 4.41504L15.1805 4.55421C15.163 4.54427 15.1584 4.52944 15.1577 4.52703C15.157 4.52496 15.1568 4.52338 15.1567 4.5223C15.1566 4.52167 15.1566 4.521 15.1565 4.52022C15.1565 4.51983 15.1565 4.5194 15.1565 4.51892C15.1565 4.51868 15.1565 4.51843 15.1565 4.51817C15.1565 4.51803 15.1565 4.5179 15.1565 4.51776C15.1565 4.51769 15.1565 4.51762 15.1565 4.51755C15.1565 4.51751 15.1565 4.51748 15.1565 4.51744C15.1565 4.51742 15.1565 4.51739 15.1565 4.51738C15.1565 4.51736 15.1565 4.51733 15.2365 4.51733ZM15.3358 4.52178L15.3029 4.47273L15.1701 4.56193L15.203 4.61099L15.3358 4.52178ZM13.664 9.31799L14.9583 5.89346L14.8087 5.8369L13.5144 9.26142L13.664 9.31799ZM16.1778 9.2097H13.5892V9.3697H16.1778V9.2097ZM14.8087 5.89346L16.1029 9.31799L16.2526 9.26142L14.9583 5.8369L14.8087 5.89346Z"
     fill="#191919"
     mask="url(#path-1-outside-1_24839_35078)"
     id="path3" />
  <path
     d="M4.07692 1.25586H17.9231C18.7391 1.25586 19.5218 1.58003 20.0988 2.15707C20.6758 2.7341 21 3.51673 21 4.33278V12.0251C21 12.8411 20.6758 13.6238 20.0988 14.2008C19.5218 14.7778 18.7391 15.102 17.9231 15.102H9.46154L4.84615 18.1789V15.102H4.07692C3.26087 15.102 2.47825 14.7778 1.90121 14.2008C1.32418 13.6238 1 12.8411 1 12.0251V4.33278C1 3.51673 1.32418 2.7341 1.90121 2.15707C2.47825 1.58003 3.26087 1.25586 4.07692 1.25586Z"
     stroke="black"
     stroke-linecap="round"
     stroke-linejoin="round"
     id="path4" />
</svg>
