<svg fill="none" height="32" viewBox="0 0 27 32" width="27" xmlns="http://www.w3.org/2000/svg" xmlns:xlink="http://www.w3.org/1999/xlink"><linearGradient id="a"><stop offset="0" stop-color="#ceae11"/><stop offset="1" stop-color="#ad7200"/></linearGradient><linearGradient id="b" gradientUnits="userSpaceOnUse" x1="-13.1667" x2="17.4548" xlink:href="#a" y1="15.5179" y2="41.4997"/><linearGradient id="c" gradientUnits="userSpaceOnUse" x1="5.64288" x2="17.3581" xlink:href="#a" y1="18.3387" y2="24.5869"/><path d="m17.8165 5.95591 1.0927-2.73222v.00026c.2894-.72423.201-1.54507-.2365-2.19111-.4374-.645787-1.1666-1.03284-1.9468-1.03284h-7.11801c-.7804 0-1.50994.387053-1.94733 1.03311-.43717.64606-.5256 1.46715-.2359 2.19138l1.0927 2.73141c-4.31874 2.27696-8.51736 7.6353-8.51736 13.3239 0 6.9219 5.41432 11.7559 13.1667 11.7559 7.7523 0 13.1666-4.8341 13.1666-11.7559 0-5.6888-4.1983-11.04727-8.5173-13.3239zm-4.6497 23.19889c-6.64499 0-11.2857-4.0608-11.2857-9.875 0-5.2086 4.26157-10.28145 8.2097-11.99446.4668-.20258.6877-.73975.4988-1.21234l-1.41908-3.54647c-.058-.14512-.04015-.30912.04723-.43849.08765-.12936.23355-.20677.38968-.20677h7.11807c.1561 0 .302.07741.3894.20651.0877.12911.1052.29338.0475.43822l-1.1826 2.95606h-3.2836c-.5193 0-.9405.4209-.9405.94047 0 .51931.4212.94048.9405.94048h3.7063c3.9028 1.77864 8.0498 6.77879 8.0498 11.91719 0 5.8142-4.6407 9.875-11.2857 9.875z" fill="url(#b)"/><path d="m13.3948 17.4266c-2.1091-.5275-2.1091-1.0332-2.1091-1.4391 0-.7647.8613-1.4107 1.881-1.4107.9103 0 1.7088.5106 1.8568 1.1877.0515.2453.1989.4602.4097.5964.2104.1365.4668.1829.7119.1294.2451-.0538.4587-.2031.593-.4149.1344-.212.1787-.4686.1228-.7132-.1697-.6437-.5185-1.226-1.0061-1.6792-.4873-.4534-1.0934-.7588-1.7476-.8814v-.576c0-.5193-.4212-.9404-.9405-.9404s-.9405.4211-.9405.9404v.5784c-1.6198.3668-2.82141 1.6531-2.82141 3.1836 0 2.38 2.38681 2.9765 3.53381 3.2633 2.109.5274 2.109 1.0331 2.109 1.439 0 .7647-.8612 1.4108-1.8809 1.4108-.9103 0-1.7089-.5107-1.8568-1.1877-.0517-.2454-.1992-.46-.4097-.5962-.2107-.1362-.4668-.1827-.7119-.1289-.2451.0536-.45844.2029-.59279.4146-.13436.2118-.17871.4684-.12307.713.16978.6434.51852 1.2257 1.00606 1.6789.4873.4534 1.0935.7589 1.7477.8814v.576c0 .5193.4212.9405.9405.9405s.9405-.4212.9405-.9405v-.5784c1.6198-.3668 2.8214-1.6531 2.8214-3.1835 0-2.3801-2.3869-2.9766-3.5338-3.2634z" fill="url(#c)"/></svg>