<svg fill="none" height="25" viewBox="0 0 25 25" width="25" xmlns="http://www.w3.org/2000/svg" xmlns:xlink="http://www.w3.org/1999/xlink"><linearGradient id="a"><stop offset="0" stop-color="#c0659b"/><stop offset=".47614" stop-color="#9747ff"/><stop offset="1" stop-color="#531edc"/></linearGradient><linearGradient id="b" gradientUnits="userSpaceOnUse" x1="-5.72856" x2="-.473759" xlink:href="#a" y1="9.37499" y2="19.0086"/><linearGradient id="c" gradientUnits="userSpaceOnUse" x1="-5.72905" x2="-3.57942" xlink:href="#a" y1="14.8227" y2="21.5041"/><linearGradient id="d" gradientUnits="userSpaceOnUse" x1="-5.72905" x2="-3.57942" xlink:href="#a" y1="18.9897" y2="25.6711"/><linearGradient id="e" gradientUnits="userSpaceOnUse" x1="-5.72905" x2="-3.57942" xlink:href="#a" y1="23.1567" y2="29.8381"/><linearGradient id="f" gradientUnits="userSpaceOnUse" x1="7.81294" x2="13.0677" xlink:href="#a" y1="3.12499" y2="12.7586"/><linearGradient id="g" gradientUnits="userSpaceOnUse" x1="7.81197" x2="9.9616" xlink:href="#a" y1="8.57273" y2="15.2541"/><linearGradient id="h" gradientUnits="userSpaceOnUse" x1="7.81197" x2="9.9616" xlink:href="#a" y1="12.7397" y2="19.4211"/><linearGradient id="i" gradientUnits="userSpaceOnUse" x1="7.81197" x2="9.9616" xlink:href="#a" y1="16.9067" y2="23.5881"/><linearGradient id="j" gradientUnits="userSpaceOnUse" x1="7.81197" x2="9.96159" xlink:href="#a" y1="21.0727" y2="27.7541"/><path d="m11.4586 9.37499c0 1.72731-2.56351 3.12501-5.72934 3.12501-3.16338 0-5.72877172-1.3977-5.72877172-3.12501 0-1.72622 2.56567172-3.12499 5.72877172-3.12499 3.16594 0 5.72934 1.39877 5.72934 3.12499z" fill="url(#b)"/><path d="m0 12.9795c1.40596.9962 3.416 1.6034 5.72877 1.6034 2.31215 0 4.32433-.607 5.72933-1.6034v2.4109c-1.59715.8078-3.55836 1.2756-5.72933 1.2756-2.17064 0-4.13207-.4678-5.72877-1.2756z" fill="url(#c)"/><path d="m0 17.1465c1.40596.996 3.416 1.603 5.72877 1.603 2.31215 0 4.32433-.607 5.72933-1.603v2.4109c-1.59715.8074-3.55836 1.2756-5.72933 1.2756-2.17064 0-4.13207-.4683-5.72877-1.2756z" fill="url(#d)"/><path d="m0 21.3135c1.40596.996 3.416 1.603 5.72877 1.603 2.31215 0 4.32433-.607 5.72933-1.603v2.4108c-1.59715.8079-3.55858 1.2757-5.72933 1.2757-2.17064 0-4.13207-.4678-5.72877-1.2757z" fill="url(#e)"/><path d="m25.0001 3.12499c0 1.72728-2.5635 3.12498-5.7288 3.12498-3.1638 0-5.7293-1.3977-5.7293-3.12498 0-1.72622 2.5657-3.12499 5.7293-3.12499 3.1656 0 5.7288 1.39877 5.7288 3.12499z" fill="url(#f)"/><path d="m13.541 6.72949c1.406.9962 3.4162 1.60345 5.7293 1.60345 2.312 0 4.3244-.60708 5.7288-1.60345v2.41087c-1.5969.80787-3.5583 1.27564-5.7288 1.27564-2.1708 0-4.132-.46782-5.7293-1.27564z" fill="url(#g)"/><path d="m13.541 10.8965c1.406.996 3.4162 1.603 5.7293 1.603 2.312 0 4.3244-.607 5.7288-1.603v2.4109c-1.5969.8074-3.5583 1.2756-5.7288 1.2756-2.1708 0-4.132-.4683-5.7293-1.2756z" fill="url(#h)"/><path d="m13.541 15.0635c1.406.996 3.4162 1.603 5.7293 1.603 2.312 0 4.3244-.607 5.7288-1.603v2.4108c-1.5969.8079-3.5583 1.2757-5.7288 1.2757-2.1708 0-4.132-.4678-5.7293-1.2757z" fill="url(#i)"/><path d="m13.541 19.2295c1.406.9962 3.4162 1.6034 5.7293 1.6034 2.312 0 4.3244-.607 5.7288-1.6034v2.4109c-1.5969.8078-3.5583 1.2756-5.7288 1.2756-2.1708 0-4.132-.4678-5.7293-1.2756z" fill="url(#j)"/></svg>