<svg fill="none" height="22" viewBox="0 0 25 22" width="25" xmlns="http://www.w3.org/2000/svg"><g fill="#000"><path d="m23.5091 5.3681c-.3494-.46585-.8928-.73759-1.4752-.73759h-11.2191c-.5823 0-1.1646.27174-1.51398.77641-.34939.46584-.42703 1.12579-.23293 1.66928l1.35871 3.9209c.2718.7376.9705 1.2422 1.7469 1.2422h5.1632c.8152 0 1.5528-.5435 1.7857-1.3587l.7764-2.4845c.0777-.31057-.0776-.62113-.3882-.73759-.3105-.07764-.6211.07764-.7376.3882l-.7764 2.52329c-.0776.3106-.3494.5047-.6599.5047h-1.8246v-2.83388c0-.31057-.2717-.58231-.5823-.58231s-.5823.27174-.5823.58231v2.83388h-2.174c-.2717 0-.5435-.1941-.6599-.4658l-1.3587-3.92091c-.0777-.1941-.0389-.42702.0776-.62112.1165-.19411.3494-.27175.5435-.27175h11.2191c.1941 0 .4271.11646.5435.27175.1165.15528.1553.3882.1165.5823l-1.8246 6.71593c-.0776.3106-.3494.5047-.6599.5047h-10.63686c-.27174 0-.54349-.1941-.65995-.4659l-3.72677-10.6756c-.1941-.58231-.65995-1.00933-1.28108-1.16462l-2.13513-.54348c-.31056-.077644-.62113.07764-.69877.3882-.116459.31057.07764.62113.38821.73759l2.17395.58231c.23292.03882.3882.23292.46584.42703l3.72678 10.67567c.27174.7376.97051 1.2422 1.74692 1.2422h10.71446c.8152 0 1.5528-.5435 1.7857-1.3587l1.8246-6.71594c.1165-.58231 0-1.16462-.3494-1.63046z"/><path clip-rule="evenodd" d="m10.4266 10.9971-1.35871-3.9209c-.1941-.54349-.11646-1.20344.23293-1.66928.34938-.50467.93168-.77641 1.51398-.77641h11.2191c.5824 0 1.1258.27174 1.4752.73759.3494.46584.4659 1.04815.3494 1.63046l-1.8246 6.71594c-.2329.8152-.9705 1.3587-1.7857 1.3587h-10.71446c-.77641 0-1.47518-.5046-1.74692-1.2422l-3.72678-10.67567c-.07764-.19411-.23292-.38821-.46584-.42703l-2.17395-.58231c-.31057-.11646-.504669-.42702-.38821-.73759.07764-.31056.38821-.465844.69877-.3882l2.13513.54348c.62113.15529 1.08698.58231 1.28108 1.16462l3.72677 10.6756c.11646.2718.38821.4659.65995.4659h10.63686c.3105 0 .5823-.1941.6599-.5047l1.8246-6.71593c.0388-.1941 0-.42702-.1165-.5823-.1164-.15529-.3494-.27175-.5435-.27175h-11.2191c-.1941 0-.427.07764-.5435.27175-.1165.1941-.1553.42702-.0776.62112l1.3587 3.92091c.1164.2717.3882.4658.6599.4658h2.174v-2.83388c0-.31057.2717-.58231.5823-.58231s.5823.27174.5823.58231v2.83388h1.8246c.3105 0 .5823-.1941.6599-.5047l.7764-2.52329c.1165-.31056.4271-.46584.7376-.3882.3106.11646.4659.42702.3882.73759l-.7764 2.4845c-.2329.8152-.9705 1.3587-1.7857 1.3587h-5.1632c-.7764 0-1.4751-.5046-1.7469-1.2422zm8.8874-.0591c-.2582.8998-1.0737 1.5013-1.9773 1.5013h-5.1632c-.8638 0-1.6351-.5604-1.9346-1.3731l-.0013-.0036-1.35806-3.91913c-.0001-.00031.00011.0003 0 0-.21402-.60025-.13167-1.33021.25899-1.8535.39016-.56123 1.03537-.85946 1.67627-.85946h11.2191c.6453 0 1.2481.30138 1.6352.81759.3862.51494.5122 1.15611.3855 1.78968l-.0026.01334-1.8257 6.71838c-.2575.9011-1.0737 1.5037-1.9781 1.5037h-10.71446c-.86386 0-1.63517-.5604-1.93459-1.3731l-.00119-.0032-3.72518-10.67119c-.06532-.16068-.17788-.27787-.31146-.30013l-.00953-.00159-2.19267-.58732-.0091-.00341c-.38135-.14301-.666071-.54725-.509167-.98439.113092-.426671.541537-.621933.938467-.522701l2.13513.543491c-.00014-.00004.00014.00003 0 0 .68437.17123 1.20512.64537 1.42185 1.29403l3.72387 10.66731c.09056.205.29392.3388.47357.3388h10.63686c.2254 0 .4121-.1379.4659-.3532l.001-.0039 1.8226-6.70889c.0277-.14725-.0061-.3164-.0815-.41694-.0358-.04775-.0965-.09745-.1721-.13522-.0755-.03777-.1517-.05653-.2114-.05653h-11.2191c-.1544 0-.305.06304-.372.17465-.0933.15547-.1121.32237-.0634.44395l.0035.00872 1.356 3.91366c.0906.2049.2938.3386.4734.3386h1.974v-2.63388c0-.42103.3613-.78231.7823-.78231s.7823.36128.7823.78231v2.63388h1.6246c.2254 0 .4121-.1379.4659-.3532l.0026-.0104.7802-2.53474c.1528-.40749.5663-.61373.9737-.51188l.0111.00276.0106.004c.4075.15281.6139.56596.512.97337l-.0028.01124z" fill-rule="evenodd"/><path d="m17.9189 16.0437c-1.3975 0-2.5233 1.1258-2.5233 2.5234 0 1.3975 1.1258 2.5233 2.5233 2.5233 1.3976 0 2.5234-1.1258 2.5234-2.5233 0-1.3976-1.1647-2.5234-2.5234-2.5234zm0 3.8821c-.7376 0-1.3587-.6211-1.3587-1.3587s.6211-1.3587 1.3587-1.3587 1.3587.6211 1.3587 1.3587-.6211 1.3587-1.3587 1.3587z"/><path clip-rule="evenodd" d="m15.1956 18.5671c0-1.508 1.2153-2.7234 2.7233-2.7234 1.4672 0 2.7234 1.2134 2.7234 2.7234 0 1.508-1.2154 2.7233-2.7234 2.7233s-2.7233-1.2153-2.7233-2.7233zm1.5646 0c0 .6271.5316 1.1587 1.1587 1.1587.6272 0 1.1588-.5316 1.1588-1.1587 0-.6272-.5316-1.1587-1.1588-1.1587-.6271 0-1.1587.5315-1.1587 1.1587zm-1.3646 0c0-1.3976 1.1258-2.5234 2.5233-2.5234 1.3587 0 2.5234 1.1258 2.5234 2.5234 0 1.3975-1.1258 2.5233-2.5234 2.5233-1.3975 0-2.5233-1.1258-2.5233-2.5233zm1.1646 0c0 .7376.6211 1.3587 1.3587 1.3587s1.3587-.6211 1.3587-1.3587-.6211-1.3587-1.3587-1.3587-1.3587.6211-1.3587 1.3587z" fill-rule="evenodd"/><path d="m11.9406 16.0437c-1.3975 0-2.52333 1.1258-2.52333 2.5234 0 1.3975 1.12583 2.5233 2.52333 2.5233s2.5233-1.1258 2.5233-2.5233c0-1.3976-1.1258-2.5234-2.5233-2.5234zm0 3.8821c-.7376 0-1.3587-.6211-1.3587-1.3587s.6211-1.3587 1.3587-1.3587 1.3587.6211 1.3587 1.3587-.6211 1.3587-1.3587 1.3587z"/><path clip-rule="evenodd" d="m9.21727 18.5671c0-1.508 1.21533-2.7234 2.72333-2.7234s2.7233 1.2154 2.7233 2.7234-1.2153 2.7233-2.7233 2.7233-2.72333-1.2153-2.72333-2.7233zm1.56463 0c0 .6271.5316 1.1587 1.1587 1.1587s1.1587-.5316 1.1587-1.1587c0-.6272-.5316-1.1587-1.1587-1.1587s-1.1587.5315-1.1587 1.1587zm-1.36463 0c0-1.3976 1.12583-2.5234 2.52333-2.5234s2.5233 1.1258 2.5233 2.5234c0 1.3975-1.1258 2.5233-2.5233 2.5233s-2.52333-1.1258-2.52333-2.5233zm1.16463 0c0 .7376.6211 1.3587 1.3587 1.3587s1.3587-.6211 1.3587-1.3587-.6211-1.3587-1.3587-1.3587-1.3587.6211-1.3587 1.3587z" fill-rule="evenodd"/></g></svg>