<svg fill="none" height="10" viewBox="0 0 10 10" width="10" xmlns="http://www.w3.org/2000/svg"><path d="m6.58579 2h-5.58579c-.50626 0-.9246542-.37621-.99087065-.86431l-.00912856-.135691c.00000004-.506261.37620521-.9246548.86430521-.99087123l.135694-.00912856 7.9998.0000007c.25586.00005057.5121.09768109.70731.29289209.09582.09582.16812.206246.21692.32411.03235.077948.05512.160871.06684.247303.00604.04469.00913.090675.00913.135695v8c0 .55228-.44772 1-1 1-.50626 0-.92465-.37621-.99087-.86431l-.00913-.13569v-5.58579l-6.29289 6.2929c-.39053.39049-1.023693.39049-1.414218 0-.355021-.35503-.3872961-.91058-.096823-1.30206l.096824-.11216z" fill="#ff4b2b"/></svg>