<svg xmlns="http://www.w3.org/2000/svg" xmlns:xlink="http://www.w3.org/1999/xlink" viewBox="0 0 30 30">
  <defs>
    <path id="a" d="M.0960528.7463H28.3497V29H.0960528z"/>
  </defs>
  <g fill="none" fill-rule="evenodd">
    <g transform="translate(1.2 .5496)">
      <mask id="b" fill="#fff">
        <use xlink:href="#a"/>
      </mask>
      <path fill="#8E9AB5" d="M18.4307.8213c.119-.05.246-.075.375-.075.134 0 .269.027.398.08 5.557 2.253 9.146 7.576 9.146 13.562 0 8.057-6.555 14.612-14.611 14.612-5.992 0-11.315-3.602-13.562-9.176-.106-.247-.107-.516-.006-.762.103-.252.3-.448.554-.552.512-.211 1.091.032 1.314.553 1.932 4.799 6.526 7.903 11.7 7.903 6.934 0 12.577-5.643 12.577-12.578 0-5.155-3.092-9.748-7.875-11.701-.256-.104-.452-.296-.554-.539-.102-.243-.1-.518.005-.774.104-.255.296-.451.539-.553" mask="url(#b)"/>
    </g>
    <path fill="#8E9AB5" d="M8.7801 13.9051h5.125v-6.199c0-.542.458-1.001 1.001-1.001.543 0 1.001.459 1.001 1.001v7.2c0 .543-.458 1.001-1.001 1.001h-6.126c-.543 0-1.001-.458-1.001-1.001 0-.543.458-1.001 1.001-1.001M14.9383.2c.621 0 1.127.506 1.127 1.127 0 .622-.506 1.128-1.127 1.128-.622 0-1.128-.506-1.128-1.128 0-.621.506-1.127 1.128-1.127M9.2996 1.3118c.574-.236 1.236.035 1.474.61s-.036 1.236-.61 1.473c-.573.238-1.235-.036-1.474-.61-.238-.575.036-1.235.61-1.473m-4 2.8682c.289 0 .578.11.798.33.439.44.438 1.155-.001 1.595-.44.44-1.153.439-1.595-.001-.439-.439-.439-1.154 0-1.594.22-.22.509-.33.798-.33m-3.3975 6.583c-.574-.238-.848-.899-.609-1.474.114-.277.331-.494.609-.609.14-.058.286-.087.433-.087.145 0 .292.029.431.087.574.237.848.898.61 1.473-.239.575-.902.848-1.474.61m-.5751 3.0473c.622 0 1.128.506 1.128 1.127 0 .622-.506 1.128-1.128 1.128-.621 0-1.127-.506-1.127-1.128 0-.621.506-1.127 1.127-1.127"/>
  </g>
</svg>
