<svg width="24" height="24" viewBox="0 0 24 24" fill="none" xmlns="http://www.w3.org/2000/svg">
<mask id="mask0_32453_3703" style="mask-type:luminance" maskUnits="userSpaceOnUse" x="1" y="1" width="23" height="23">
<path fill-rule="evenodd" clip-rule="evenodd" d="M1.03662 1.03711H23.6395V23.6401H1.03662V1.03711Z" fill="white"/>
</mask>
<g mask="url(#mask0_32453_3703)">
<path fill-rule="evenodd" clip-rule="evenodd" d="M15.7043 1.09711C15.7995 1.05711 15.9011 1.03711 16.0043 1.03711C16.1115 1.03711 16.2195 1.05871 16.3227 1.10111C20.7683 2.90351 23.6395 7.16191 23.6395 11.9507C23.6395 18.3963 18.3955 23.6403 11.9507 23.6403C7.15714 23.6403 2.89874 20.7587 1.10114 16.2995C1.01634 16.1019 1.01554 15.8867 1.09634 15.6899C1.17874 15.4883 1.33634 15.3315 1.53954 15.2483C1.94914 15.0795 2.41234 15.2739 2.59074 15.6907C4.13634 19.5299 7.81154 22.0131 11.9507 22.0131C17.4979 22.0131 22.0123 17.4987 22.0123 11.9507C22.0123 7.82671 19.5387 4.15231 15.7123 2.58991C15.5075 2.50671 15.3507 2.35311 15.2691 2.15871C15.1875 1.96431 15.1891 1.74431 15.2731 1.53951C15.3563 1.33551 15.5099 1.17871 15.7043 1.09711" fill="#8E9AB5"/>
</g>
<path fill-rule="evenodd" clip-rule="evenodd" d="M7.02394 11.1243H11.1239V6.16506C11.1239 5.73146 11.4903 5.36426 11.9247 5.36426C12.3591 5.36426 12.7255 5.73146 12.7255 6.16506V11.9251C12.7255 12.3595 12.3591 12.7259 11.9247 12.7259H7.02394C6.58954 12.7259 6.22314 12.3595 6.22314 11.9251C6.22314 11.4907 6.58954 11.1243 7.02394 11.1243" fill="#8E9AB5"/>
<path fill-rule="evenodd" clip-rule="evenodd" d="M11.9507 0.160156C12.4475 0.160156 12.8523 0.564956 12.8523 1.06176C12.8523 1.55936 12.4475 1.96416 11.9507 1.96416C11.4531 1.96416 11.0483 1.55936 11.0483 1.06176C11.0483 0.564956 11.4531 0.160156 11.9507 0.160156" fill="#8E9AB5"/>
<path fill-rule="evenodd" clip-rule="evenodd" d="M7.43974 1.04956C7.89894 0.860763 8.42854 1.07756 8.61894 1.53756C8.80934 1.99756 8.59014 2.52636 8.13094 2.71596C7.67254 2.90636 7.14294 2.68716 6.95174 2.22796C6.76134 1.76796 6.98054 1.23996 7.43974 1.04956" fill="#8E9AB5"/>
<path fill-rule="evenodd" clip-rule="evenodd" d="M4.23969 3.34473C4.47089 3.34473 4.70209 3.43273 4.87809 3.60873C5.22929 3.96073 5.22849 4.53273 4.87729 4.88473C4.52529 5.23673 3.95489 5.23593 3.60129 4.88393C3.25009 4.53273 3.25009 3.96073 3.60129 3.60873C3.77729 3.43273 4.00849 3.34473 4.23969 3.34473" fill="#8E9AB5"/>
<path fill-rule="evenodd" clip-rule="evenodd" d="M1.52167 8.61002C1.06247 8.41962 0.843267 7.89082 1.03447 7.43082C1.12567 7.20922 1.29927 7.03562 1.52167 6.94362C1.63367 6.89722 1.75047 6.87402 1.86807 6.87402C1.98407 6.87402 2.10167 6.89722 2.21287 6.94362C2.67207 7.13322 2.89127 7.66202 2.70087 8.12202C2.50967 8.58202 1.97927 8.80042 1.52167 8.61002" fill="#8E9AB5"/>
<path fill-rule="evenodd" clip-rule="evenodd" d="M1.06151 11.0488C1.55911 11.0488 1.96391 11.4536 1.96391 11.9504C1.96391 12.448 1.55911 12.8528 1.06151 12.8528C0.564712 12.8528 0.159912 12.448 0.159912 11.9504C0.159912 11.4536 0.564712 11.0488 1.06151 11.0488" fill="#8E9AB5"/>
</svg>
