<svg fill="none" height="20" viewBox="0 0 20 20" width="20" xmlns="http://www.w3.org/2000/svg"><path d="m10.0001 19.05h-.0001c-4.99818 0-9.05-4.0518-9.05-9.05 0-4.99818 4.05182-9.050001 9.05-9.050001 4.9982 0 9.05 4.051821 9.05 9.050001v.0001c-.009 4.9944-4.0555 9.0409-9.0499 9.0499zm7.3974-5.1838c.5709-1.0878.893-2.2888.9431-3.5162h-1.7004c-.0483.9292-.2924 1.8377-.7164 2.6659zm-3.7761 1.7069.8503 1.4737c1.0359-.6599 1.9146-1.5386 2.5745-2.5745l-1.4737-.8503c-.508.7787-1.1724 1.4431-1.9511 1.9511zm-.6046.351c-.8285.424-1.7373.6681-2.6668.7161v1.7004c1.2277-.0499 2.429-.3719 3.5171-.9428zm-3.3668.7161c-.92919-.0483-1.83771-.2924-2.66594-.7164l-.85023 1.4737c1.08776.5709 2.28875.893 3.51617.9431zm-5.22306-3.0188-1.47374.8503c.65988 1.0359 1.53866 1.9146 2.57453 2.5745l.85022-1.4737c-.77865-.508-1.4431-1.1724-1.95101-1.9511zm-1.0671-3.2714h-1.70043c.04987 1.2277.37187 2.429.94275 3.5171l1.47372-.8503c-.42402-.8285-.66803-1.7373-.71604-2.6668zm-1.70042-.7h1.70043c.04822-.9292.29234-1.83771.71633-2.66594l-1.47373-.85023c-.57084 1.08776-.89294 2.28875-.94303 3.51617zm4.71913-5.22306-.85024-1.47374c-1.03585.65988-1.91463 1.53866-2.57451 2.57453l1.47374.85022c.50792-.77865 1.17236-1.4431 1.95101-1.95101zm3.27145-1.0671v-1.70044c-1.22771.04988-2.42901.37188-3.51707.94276l.85024 1.47372c.82852-.42402 1.73736-.66803 2.66683-.71604zm-5.6 6.64016c0 3.2861 2.66391 5.95 5.95 5.95 3.2861 0 5.95-2.6639 5.95-5.9499-.0038-3.2846-2.6655-5.94633-5.95005-5.9501-3.28607.00003-5.94995 2.66393-5.94995 5.95zm6.3-8.34059v1.70044c.9292.04822 1.8377.29233 2.6659.71633l.8503-1.47373c-1.0878-.57084-2.2888-.89294-3.5162-.94304zm5.2231 4.71914 1.4737-.85024c-.6599-1.03585-1.5386-1.91463-2.5745-2.57451l-.8502 1.47374c.7786.50792 1.443 1.17236 1.951 1.95101zm2.7675 3.27145c-.0499-1.22771-.3719-2.42901-.9428-3.51707l-1.4737.85023c.424.82853.6681 1.73736.7161 2.66684z" fill="#fff" stroke="#fff" stroke-width=".1"/></svg>