<svg fill="none" height="267" viewBox="0 0 267 267" width="267" xmlns="http://www.w3.org/2000/svg" xmlns:xlink="http://www.w3.org/1999/xlink"><clipPath id="a"><path d="m0 0h267v267h-267z"/></clipPath><g clip-path="url(#a)" stroke="#fff" stroke-miterlimit="10" stroke-width="3"><path d="m265.58 124.451c-.355-5.013-.954-9.981-1.819-14.816-4.125-22.5793-13.952-43.1843-27.993-60.2406-5.434-6.5652-11.446-12.6202-18.011-18.0543-16.57-13.6405-36.489-23.37746-58.382-27.70251-8.363-1.68567-17.014-2.55068-25.886-2.55068-8.873 0-17.568.86501-25.953 2.55068-21.893 4.36941-41.8786 14.12851-58.4039 27.81341-6.4327 5.3675-12.3774 11.3117-17.701 17.7438-14.1296 17.1006-24.02264 37.7278-28.19278 60.4172-.99817 5.568-1.64144 11.268-1.95198 17.079-.11091 2.24-.17745 4.547-.17745 6.809s.06654 4.569.17745 6.809c.31054 6.299 1.06472 12.487 2.24034 18.498 4.30323 22.247 14.19622 42.497 28.12632 59.265 5.257 6.321 11.1129 12.176 17.4347 17.433 16.7693 13.884 37.0211 23.732 59.2693 27.991 8.141 1.574 16.547 2.417 25.132 2.417 8.584 0 16.946-.82 25.065-2.373 22.204-4.258 42.456-14.062 59.247-27.924 6.455-5.323 12.422-11.268 17.767-17.744 13.82-16.746 23.624-36.885 27.927-59.065 1.043-5.301 1.73-10.735 2.107-16.258.2-2.994.311-5.988.311-9.049s-.111-6.055-.311-9.049zm-58.116 61.615c-5.878 8.318-13.131 15.615-21.449 21.492-5.856 4.192-12.178 7.675-18.943 10.358-10.381 4.192-21.738 6.455-33.628 6.455-11.889 0-23.246-2.263-33.627-6.433-6.8097-2.705-13.198-6.232-19.054-10.424-8.185-5.811-15.3275-12.953-21.139-21.137-4.0593-5.612-7.4309-11.645-10.1148-18.121-4.392-10.669-6.832-22.38-6.832-34.623s2.2404-23.067 6.3661-33.425c2.684-6.8311 6.2331-13.2632 10.4476-19.1852 5.8781-8.3174 13.1758-15.5702 21.4939-21.4478 5.7451-4.0811 12.0447-7.519 18.677-10.1806 10.4472-4.2363 21.8712-6.5208 33.8052-6.5208 11.933 0 23.335 2.3067 33.76 6.5208 6.632 2.6173 12.865 6.0551 18.61 10.1362 8.451 5.9442 15.816 13.33 21.76 21.8027 4.126 5.8111 7.564 12.1323 10.204 18.8307 4.126 10.358 6.388 21.625 6.388 33.447s-2.44 23.954-6.876 34.645c-2.617 6.321-5.922 12.265-9.826 17.766z"/><path d="m167.937 49.4164h-.732c-10.425-4.2363-21.827-6.5208-33.76-6.5208-11.934 0-23.336 2.3067-33.8052 6.5208h-.6877l8.5619-45.75684c8.385-1.68566 17.08-2.55067 25.953-2.55067 8.872 0 17.545.86501 25.886 2.55067l8.562 45.75684z"/><path d="m167.072 217.894-8.518 45.624c-8.118 1.552-16.503 2.373-25.065 2.373s-16.991-.821-25.132-2.418l-8.5176-45.557c10.3806 4.17 21.7376 6.432 33.6276 6.432 11.889 0 23.246-2.262 33.627-6.454z"/><path d="m235.768 49.4166-28.192 31.9389c-5.945-8.4505-13.309-15.8585-21.761-21.8027l31.942-28.1905c6.566 5.434 12.577 11.4891 18.011 18.0543z"/><path d="m80.7631 207.514-31.6975 27.991c-6.3218-5.257-12.1777-11.112-17.4347-17.434l27.9931-31.694c5.8116 8.184 12.9541 15.326 21.1391 21.137z"/><path d="m235.569 217.872c-5.368 6.454-11.313 12.42-17.768 17.744l-31.764-28.058c8.318-5.877 15.572-13.175 21.45-21.492z"/><path d="m80.9851 59.5971c-8.3181 5.8776-15.6159 13.1304-21.494 21.4478l-28.0819-31.8279c5.3236-6.4322 11.2682-12.3764 17.7009-17.7439z"/><path d="m265.58 124.451v18.076c-.377 5.545-1.064 10.957-2.107 16.258l-46.182 9.493c4.436-10.691 6.876-22.379 6.876-34.645 0-12.265-2.262-23.111-6.388-33.447l45.96 9.449c.865 4.857 1.486 9.803 1.819 14.816z"/><path d="m49.5094 168.256-45.98244-9.449c-1.17562-6.011-1.9298-12.199-2.24034-18.498v-13.618c.31054-5.811.95381-11.511 1.95198-17.079l45.805-9.382c-4.1258 10.358-6.3661 21.626-6.3661 33.425 0 11.8 2.44 23.954 6.8319 34.623z"/><path d="m223.081 89.6063 17.013 4.2141 5.301-8.4283-7.519-12.9973-9.938.377z"/><path d="m232.108 134.897 12.71-13.441 8.873 5.124v16.613l-8.873 5.145z"/><path d="m223.081 178.769 17.013-4.214 5.301 8.428-7.519 13.02-9.938-.4z"/><path d="m43.7864 178.769-17.0133-4.214-5.3014 8.428 7.5195 13.02 9.9596-.4z"/><path d="m34.6032 134.786-12.6213 12.155-8.8061-4.658v-15.016l8.8061-4.657z"/><path d="m43.7864 89.6063-17.0133 4.2141-5.3014-8.4283 7.5195-12.9973 9.9596.377z"/><path d="m88.8374 43.9825 4.2367-16.9897-8.429-5.3231-13.0206 7.5189.3771 9.9587z"/><path d="m132.845 34.8002-12.155-12.6203 4.658-8.8054h15.017l4.636 8.8054z"/><path d="m178.03 43.9825-4.237-16.9897 8.429-5.3231 13.021 7.5189-.378 9.9587z"/><path d="m178.029 223.261-4.214 17.012 8.429 5.301 13.021-7.496-.4-9.959z"/><path d="m134.043 232.466 12.156 12.598-4.658 8.828h-15.017l-4.636-8.828z"/><path d="m88.8594 223.261 4.2367 17.012-8.429 5.301-13.0206-7.496.3771-9.959z"/></g></svg>