<svg xmlns="http://www.w3.org/2000/svg" viewBox="0 0 18 16">
  <g fill="#EAEAEB">
    <path d="M9.2722062 11.1159263c-1.938681 0-3.5102926-1.5716115-3.5102926-3.5102925 0-1.938681 1.5716115-3.5102925 3.5102926-3.5102925 1.938681 0 3.5102925 1.5716115 3.5102925 3.5102925 0 1.938681-1.5716115 3.5102925-3.5102925 3.5102925Zm0-5.8504875c-1.292454 0-2.340195 1.047741-2.340195 2.340195s1.047741 2.340195 2.340195 2.340195 2.340195-1.047741 2.340195-2.340195-1.047741-2.340195-2.340195-2.340195Z"/>
    <path d="M13.3675474 15.2112676H5.1768649c-.2077573-.001254-.3992652-.1125958-.503142-.2925244L.5783818 7.8981582c-.104509-.1810147-.104509-.404034 0-.5850488L4.673723.2925244C4.7775996.1125958 4.9691076.001254 5.1768649 0h8.1906825c.2077573.001254.3992652.1125958.503142.2925244l4.0953412 7.020585c.1045089.1810147.1045089.404034 0 .5850488l-4.0953412 7.020585c-.1038768.1799286-.2953847.2912704-.503142.2925244Zm-7.8572047-1.1700975h7.5237269l3.7501626-6.4355363-3.7501626-6.4355363h-7.523727L1.7601802 7.6056338l3.7501626 6.4355363Z"/>
  </g>
</svg>
