<svg xmlns="http://www.w3.org/2000/svg" viewBox="0 0 16 16">
  <g fill="#EAEAEB">
    <path d="M8 0C3.581722 0 0 3.581722 0 8s3.581722 8 8 8 8-3.581722 8-8c0-2.121732-.8428547-4.1565632-2.3431458-5.6568543C12.1565632.8428547 10.1217319 0 8 0Zm0 14.8c-3.7555363 0-6.8-3.0444637-6.8-6.8 0-3.7555363 3.0444637-6.8 6.8-6.8 3.7555363 0 6.8 3.0444637 6.8 6.8 0 1.8034721-.7164265 3.5330787-1.9916739 4.8083261C11.5330787 14.0835735 9.8034721 14.8 8 14.8Z"/>
    <path d="M8 7.6c-.4418278 0-.8.3581722-.8.8v2.8c0 .4418278.3581722.8.8.8.4418278 0 .8-.3581722.8-.8V8.4c0-.4418278-.3581722-.8-.8-.8ZM8 4c-.6627417 0-1.2.5372583-1.2 1.2S7.3372583 6.4 8 6.4s1.2-.5372583 1.2-1.2S8.6627417 4 8 4Z"/>
  </g>
</svg>
