<svg xmlns="http://www.w3.org/2000/svg" viewBox="0 0 14 19">
  <path fill="#EAEAEB" d="M.5023923 0h10.5502393c1.3062201 0 2.4114832 1.055024 2.4114832 2.4114832V15.624402c0 1.3062201-1.1052631 2.4114833-2.4114832 2.4114833H.5023923C.200957 18.0358852 0 17.784689 0 17.4832536V.5023923C0 .200957.2511962 0 .5023923 0Zm.5023924 13.7655502H12.45933V2.4114832c0-.8038277-.6028708-1.4066985-1.4066985-1.4066985h-.5023924V4.069378c0 .4521531-.6028708.65311-.9043062.3014354L8.590909 3.1650718 7.5861245 4.3708134c-.3014354.3516746-.9043062.1507177-.9043062-.3014354V1.0047847H1.0047847v12.7607655ZM12.45933 14.7703349H1.0047847v2.2607656h10.0478469c.8038277 0 1.4066985-.6531101 1.4066985-1.4066986v-.854067ZM7.6866029 1.0047847v1.708134l.5526316-.65311c.2009569-.2511963.5526315-.2511963.7535885 0l.5526316.65311v-1.708134H7.6866029Z"/>
</svg>
