<svg xmlns="http://www.w3.org/2000/svg" xmlns:xlink="http://www.w3.org/1999/xlink" viewBox="0 0 18 16">
  <defs>
    <path id="a" d="M0 .2594286h17.6571429v15.1691428H0z"/>
  </defs>
  <g fill="none" fill-rule="evenodd">
    <g transform="translate(0 .312229)">
      <mask id="b" fill="#fff">
        <use xlink:href="#a"/>
      </mask>
      <path fill="#EAEAEB" d="M1.0148 1.8521143c.2371429-.4502857.7-.732 1.2091429-.7348572h.0022857c.5051428.0051429.9651428.2868572 1.1988571.7348572l.1091429.2091428H.9045143L1.0148 1.8521143Zm10.8822857-.736C12.6548 1.117257 13.2708 1.7338286 13.2708 2.4909714l.0194286 10.2777143H7.3668c-.236 0-.4285714.1925714-.4285714.4285714l.0005714.0005715c-.0022857.7108571-.5377143 1.2937143-1.2451429 1.3565714-.7211428-.0777143-1.24-.6617143-1.2365714-1.3577143L4.4462286 2.4904c.0011428-.4091429-.1102857-.8085714-.3217143-1.1571429l-.132-.2171428h7.9045714Zm4.8554286 12.5097143-.1097143.2097143c-.2382857.4531428-.704.7354285-1.2171429.736H7.3365143l.1331428-.2177143c.1182858-.1931429.2057143-.4011429.26-.6194286l.0274286-.1085714h8.9954286ZM-.0000571 2.4904c0 .236.1925714.428.4285714.428H3.589657l.0102858 10.2788571c-.0051429 1.144.8485714 2.0914286 1.9857142 2.2045715l.0628572.0182857c.0142857.0022857.0851428.0085714.1074286.0085714h9.6697142c1.2297143-.0011428 2.2308572-1.0017143 2.232-2.2314286 0-.236-.1925714-.4285714-.4285714-.4285714h-3.0817143v-.1428571L14.1279429 2.4904C14.1262286 1.2612571 13.1256571.2606857 11.8970857.2589714H2.2148C.9890857.279543.0022286 1.2789714-.0000571 2.4904Z" mask="url(#b)"/>
    </g>
    <path fill="#EAEAEB" d="M11.4453143 6.8038857H6.2121714c-.3154285 0-.5714285.256-.5714285.5714286 0 .316.256.5714286.5714285.5714286h5.2331429c.3154286 0 .5714286-.2554286.5714286-.5714286 0-.3154286-.256-.5714286-.5714286-.5714286m0-2.8038857H6.2121714c-.3154285 0-.5714285.256-.5714285.5714286 0 .316.256.5714285.5714285.5714285h5.2331429c.3154286 0 .5714286-.2554285.5714286-.5714285 0-.3154286-.256-.5714286-.5714286-.5714286m0 5.7324571H6.2121714c-.3154285 0-.5714285.256-.5714285.5714286 0 .316.256.5714286.5714285.5714286h5.2331429c.3154286 0 .5714286-.2554286.5714286-.5714286 0-.3154286-.256-.5714286-.5714286-.5714286"/>
  </g>
</svg>
