<svg viewBox="0 0 15 18" xmlns="http://www.w3.org/2000/svg" xmlns:xlink="http://www.w3.org/1999/xlink"><mask id="a" fill="#fff"><path d="m0 .0551746h14.3840074v17.0404136h-14.3840074z" fill="#fff" fill-rule="evenodd"/></mask><g fill="#eaeaeb" fill-rule="evenodd"><path d="m7.0223713 10.2319577c-.2263787 0-.4105698.1841912-.4105698.4105699v2.286397c0 .2263787.1841911.4105699.4105698.4105699h.3308824c.1100184 0 .2131434-.0430147.290625-.1204963.0774816-.0772059.1199448-.1803309.1199448-.2897978v-2.2866728c0-.2263787-.1841912-.4105699-.4105698-.4105699z"/><path d="m13.2358456 14.865193c0 .5928309-.4825368 1.0753677-1.0753677 1.0753677h-9.9350183c-.5931067 0-1.0753677-.4825368-1.0753677-1.0753677v-6.6118566c0-.5928309.482261-1.075092 1.0753677-1.075092h9.9350183c.5928309 0 1.0753677.4822611 1.0753677 1.075092zm-10.0814338-10.0119485h.028125c.2084558-2.0409927 1.9378676-3.6391545 4.0331801-3.6391545 2.235386 0 4.0544118 1.8184742 4.0546875 4.054136 0 .115533-.0068934.2216912-.0162684.3237132v.3940258l-.4138786.0264706h-7.6858456zm11.2295956 2.4c0-.684375-.5564339-1.2408088-1.2408089-1.2408088h-.7389706l-.003033-.5528493c-.0013787-.059283-.0027574-.1202206-.0027574-.183364 0-2.8789522-2.3299632-5.2210478-5.1940257-5.2210478-2.8778493 0-5.2202206 2.3412684-5.2210478 5.2191177l-.010478.7381434h-.7320772c-.6840992 0-1.2408088.5564338-1.2408088 1.2408088v8.6015625c0 .6840992.5567096 1.2408088 1.2408088 1.2408088h11.9026655c.3314338 0 .6432904-.1290441.8776654-.3634191.2340993-.234375.3628677-.5459559.3628677-.8773897z" mask="url(#a)" transform="translate(0 .220671)"/></g></svg>