<svg viewBox="0 0 18 16" xmlns="http://www.w3.org/2000/svg"><g fill="#eaeaeb"><path d="m9.2722062 11.1159263c-1.938681 0-3.5102926-1.5716115-3.5102926-3.5102925s1.5716115-3.5102925 3.5102926-3.5102925c1.938681 0 3.5102925 1.5716115 3.5102925 3.5102925s-1.5716115 3.5102925-3.5102925 3.5102925zm0-5.8504875c-1.292454 0-2.340195 1.047741-2.340195 2.340195s1.047741 2.340195 2.340195 2.340195 2.340195-1.047741 2.340195-2.340195-1.047741-2.340195-2.340195-2.340195z"/><path d="m13.3675474 15.2112676h-8.1906825c-.2077573-.001254-.3992652-.1125958-.503142-.2925244l-4.0953411-7.020585c-.104509-.1810147-.104509-.404034 0-.5850488l4.0953412-7.020585c.1038766-.1799286.2953846-.2912704.5031419-.2925244h8.1906825c.2077573.001254.3992652.1125958.503142.2925244l4.0953412 7.020585c.1045089.1810147.1045089.404034 0 .5850488l-4.0953412 7.020585c-.1038768.1799286-.2953847.2912704-.503142.2925244zm-7.8572047-1.1700975h7.5237269l3.7501626-6.4355363-3.7501626-6.4355363h-7.523727l-3.7501624 6.4355363 3.7501626 6.4355363z"/></g></svg>