<svg viewBox="0 0 16 16" xmlns="http://www.w3.org/2000/svg"><g fill="#eaeaeb"><path d="m8 0c-4.418278 0-8 3.581722-8 8s3.581722 8 8 8 8-3.581722 8-8c0-2.121732-.8428547-4.1565632-2.3431458-5.6568543-1.500291-1.500291-3.5351223-2.3431457-5.6568542-2.3431457zm0 14.8c-3.7555363 0-6.8-3.0444637-6.8-6.8s3.0444637-6.8 6.8-6.8 6.8 3.0444637 6.8 6.8c0 1.8034721-.7164265 3.5330787-1.9916739 4.8083261s-3.004854 1.9916739-4.8083261 1.9916739z"/><path d="m8 7.6c-.4418278 0-.8.3581722-.8.8v2.8c0 .4418278.3581722.8.8.8s.8-.3581722.8-.8v-2.8c0-.4418278-.3581722-.8-.8-.8zm0-3.6c-.6627417 0-1.2.5372583-1.2 1.2s.5372583 1.2 1.2 1.2 1.2-.5372583 1.2-1.2-.5372583-1.2-1.2-1.2z"/></g></svg>