<svg viewBox="0 0 19 18" xmlns="http://www.w3.org/2000/svg" xmlns:xlink="http://www.w3.org/1999/xlink"><mask id="a" fill="#fff"><path d="m0 0h18v18h-18z" fill="#fff" fill-rule="evenodd"/></mask><g fill="#fff" fill-rule="evenodd" transform="translate(.210526)"><path d="m1.3788 6.7725h5.3937v-5.3937h-5.3937zm5.5737 1.3383h-5.7933c-.6399 0-1.1592-.5193-1.1592-1.1583v-5.7933c.0198-.6201.54-1.1394 1.1781-1.1394h5.7942c.639 0 1.1592.5193 1.1592 1.1592v5.7933c-.0207.6192-.54 1.1385-1.179 1.1385z" mask="url(#a)"/><path d="m2.7171 5.4144h2.6973v-2.6973h-2.6973zm-1.3383 11.2275h5.3937v-5.3946h-5.3937zm5.5737 1.3581h-5.7933c-.6192 0-1.1394-.5193-1.1394-1.1592v-5.7933c0-.639.5202-1.1583 1.1583-1.1583h5.7942c.639 0 1.1592.5193 1.1592 1.1583v5.7933c-.0207.6399-.54 1.1592-1.179 1.1592z" mask="url(#a)"/><path d="m2.7171 15.3036h2.6973v-2.6973h-2.6973zm10.78857-2.69748h.8973c.4977 0 .9.4032.9.9v.8973c0 .4968-.4023.9-.9.9h-.8973c-.4968 0-.9-.4032-.9-.9v-.8973c0-.4968.4032-.9.9-.9m-2.69649-2.6973h.8964c.4977 0 .9.4032.9.9v.8973c0 .4968-.4023.9-.9.9h-.8964c-.4977 0-.9-.4032-.9-.9v-.8973c0-.4968.4023-.9.9-.9m5.39379 0h.8973c.4968 0 .9.4032.9.9v.8973c0 .4968-.4032.9-.9.9h-.8973c-.4977 0-.9-.4032-.9-.9v-.8973c0-.4968.4023-.9.9-.9m0 5.39424h.8973c.4968 0 .9.4032.9.9v.8973c0 .4968-.4032.9-.9.9h-.8973c-.4977 0-.9-.4032-.9-.9v-.8973c0-.4968.4023-.9.9-.9m-5.39379 0h.8964c.4977 0 .9.4032.9.9v.8973c0 .4968-.4023.9-.9.9h-.8964c-.4977 0-.9-.4032-.9-.9v-.8973c0-.4968.4023-.9.9-.9m.43812-8.53056h5.3937v-5.3937h-5.3937zm5.5935 1.3383h-5.7933c-.639 0-1.1583-.5193-1.1583-1.1583v-5.7933c0-.6399.5193-1.1592 1.1583-1.1592h5.7933c.6399 0 1.1592.5193 1.1592 1.1592v5.7933c0 .639-.5193 1.1583-1.1592 1.1583z" mask="url(#a)"/><path d="m12.6054 5.4144h2.6973v-2.6973h-2.6973z" mask="url(#a)"/></g></svg>