<svg fill="none" height="61" viewBox="0 0 73 61" width="73" xmlns="http://www.w3.org/2000/svg"><g fill="#00a1cc"><path d="m37.3284 13.5212c-.3073-.6914-1.4597-.6914-1.767 0 0 .0769-2.6889 5.6083-12.0617 6.5302-.4609.0769-.845.461-.845.9988v9.1423c0 10.602 12.8299 17.2858 13.3677 17.5931.1536.0769.3073.0769.4609.0769.1537 0 .3073 0 .461-.0769.5378-.2305 13.3677-6.9143 13.3677-17.5163v-9.2191c0-.461-.3841-.9219-.8451-.9988-9.2959-.9219-11.9848-6.2229-12.1385-6.5302zm5.9925 15.0579-6.9144 6.9144c-.3841.3841-.9987.6146-1.5365.6146-.6146 0-1.1524-.2305-1.5365-.6146l-3.6108-3.6109c-.8451-.845-.8451-2.2279 0-3.073.845-.8451 2.2279-.8451 3.073 0l2.0743 2.0743 5.3778-5.3778c.8451-.8451 2.228-.8451 3.0731 0 .845.8451.845 2.2279 0 3.073z"/><path d="m72.6673 25.1991-6.5302-10.0642c-.7683-1.1524-2.6889-1.1524-3.3804 0l-6.5302 10.141c-.3841.6146-.4609 1.3829-.0768 2.0743.3841.6146 1.0756 1.0756 1.767 1.0756h4.0718v2.0743c0 14.0592-11.4471 25.5062-25.5063 25.5062-5.9924 0-11.8312-2.1511-16.4407-5.9924-1.0756-.8451-2.6121-.7683-3.4572.3073s-.7683 2.6121.3073 3.4572c5.4547 4.6095 12.4458 7.2216 19.6675 7.2216 16.748 0 30.4231-13.675 30.4231-30.4231v-2.1511h4.0717c.7683 0 1.4597-.3841 1.767-1.0756.2305-.6914.2305-1.4597-.1536-2.1511z"/><path d="m16.8161 33.7266c-.3841-.6146-1.0756-1.0755-1.767-1.0755h-4.0718v-2.1512c0-14.0591 11.4471-25.50621 25.5063-25.50621 5.9924 0 11.8312 2.15113 16.4407 5.99241 1.0756.8451 2.6121.7683 3.4572-.3073.8451-1.07555.7682-2.61207-.3073-3.45716-5.4547-4.60956-12.4458-7.22164-19.6675-7.22164-16.748 0-30.42307 13.675-30.42307 30.4231v2.1511h-3.99496c-.76826 0-1.459689.3842-1.766993 1.0756-.3073044.6914-.3073043 1.4597.076826 2.1511l6.530207 10.0642c.38413.6146.99874.9219 1.69018.9219.69143 0 1.30604-.3841 1.69021-.9219l6.5302-10.141c.3841-.6146.3841-1.3829.0768-1.9975z"/></g></svg>