<svg fill="none" height="17" viewBox="0 0 15 17" width="15" xmlns="http://www.w3.org/2000/svg"><path d="m14.3977 2.65606c-.001-.06252-.0151-.12412-.0414-.18086s-.0641-.10736-.1111-.14861c-.0491-.04092-.1062-.07104-.1677-.08839-.0615-.01734-.126-.02153-.1892-.01228-.0366 0-3.7248.5125-6.32085-2.095755-.08693-.0835204-.20281-.130165-.32336-.130165-.12056 0-.23643.0466446-.32337.130165-2.59605 2.608255-6.284219 2.101855-6.320826 2.095755-.063003-.00874-.127123-.00459-.188476.01219-.061352.01678-.118658.04585-.168443.08543-.049574.04069-.090105.09129-.118997.14854-.0288916.05726-.0455084.11992-.0487861.18398-.164732 3.29769-.1982889 7.93154 1.4215781 10.16154 1.66867 2.2879 4.97552 3.9658 5.52157 4.1488.14716.0448.30433.0448.45149 0 .54606-.1708 3.85287-1.8609 5.52157-4.1488 1.6046-2.2239 1.5589-6.86385 1.4063-10.16154zm-2.1628 9.62154c-1.3972 1.9188-4.32273 3.5418-5.00607 3.798-.68333-.244-3.60885-1.8761-5.00602-3.798-1.397172-1.9218-1.400223-5.98829-1.272098-9.09989 1.140918.06101 3.965768-.02441 6.278118-2.09271 2.30625 2.0683 5.14027 2.15372 6.27817 2.09271.1281 3.1116.1067 7.20859-1.2721 9.09989zm-5.00607-6.62586c-.40292-.00278-.79314.14086-1.0981.40421-.30495.26334-.5039.62848-.55984 1.02751s.03494.80479.25573 1.14184.55647.58245.94462.69057v1.97073c0 .1213.04821.2377.13403.3235.08581.0858.2022.134.32356.134s.23775-.0482.32357-.134c.08581-.0858.13402-.2022.13402-.3235v-1.97073c.38815-.10812.72384-.35352.94463-.69057s.31166-.74281.25572-1.14184c-.05593-.39903-.25488-.76417-.55984-1.02751-.30496-.26335-.69518-.40699-1.0981-.40421zm0 2.41607c-.14842 0-.29351-.04402-.41692-.12648s-.2196-.19966-.2764-.33678c-.0568-.13713-.07166-.28802-.0427-.43359.02895-.14558.10043-.27929.20538-.38424.10495-.10496.23867-.17643.38424-.20538.14557-.02896.29646-.0141.43359.0427.13712.0568.25433.15299.33679.2764s.12647.2685.12647.41692c0 .19903-.07907.38991-.2198.53065-.14074.14073-.33162.2198-.53065.2198z" fill="#fff"/></svg>