<svg width="14" height="18" viewBox="0 0 14 18" fill="none" xmlns="http://www.w3.org/2000/svg">
<path d="M8.72194 0.1C6.3527 0.1 4.44753 2.02959 4.44753 4.37442C4.44753 5.62011 5.49781 7.50085 6.40155 8.86866C6.98775 9.74797 7.50068 10.4319 7.76936 10.7738C8.47769 11.702 8.55097 11.702 8.72194 11.702C8.89292 11.702 8.94177 11.702 9.72338 10.7494C9.96763 10.4075 10.505 9.72355 11.0912 8.84424C11.9949 7.47643 13.0452 5.59568 13.0452 4.37442C12.9964 2.02959 11.0668 0.1 8.72194 0.1ZM8.69752 10.9204C7.86706 9.9678 5.08258 6.13304 5.08258 4.39884C5.08258 2.39597 6.71907 0.783907 8.69752 0.783907C10.7004 0.783907 12.3125 2.39597 12.3125 4.42327C12.3125 6.15746 9.50355 9.99223 8.69752 10.9204Z" fill="white"/>
<path fill-rule="evenodd" clip-rule="evenodd" d="M6.31811 8.92379C5.86477 8.23764 5.37349 7.42113 4.99518 6.61837C4.6183 5.81866 4.34753 5.02034 4.34753 4.37442C4.34753 1.97474 6.2971 0 8.72194 0C11.1224 0 13.0952 1.97432 13.1452 4.37233L13.1452 4.37442C13.1452 5.00836 12.8743 5.80073 12.4975 6.59714C12.1192 7.39676 11.628 8.21322 11.1746 8.89937C10.7523 9.53285 10.3528 10.0686 10.0726 10.4444C9.96332 10.5909 9.87216 10.7132 9.80475 10.8075L9.80086 10.813C9.41152 11.2875 9.19875 11.5319 9.06086 11.657C8.99105 11.7203 8.93325 11.7598 8.87488 11.7811C8.8173 11.8021 8.76688 11.802 8.7261 11.802H8.71794C8.67708 11.802 8.62592 11.802 8.56793 11.782C8.50832 11.7614 8.44945 11.7229 8.38007 11.6601C8.24387 11.5369 8.0431 11.2973 7.6903 10.8351C7.42001 10.491 6.90554 9.80493 6.31811 8.92379ZM13.0452 4.37442C12.9964 2.02959 11.0668 0.1 8.72194 0.1C6.3527 0.1 4.44753 2.02959 4.44753 4.37442C4.44753 5.62011 5.49781 7.50085 6.40155 8.86866C6.98775 9.74797 7.50068 10.4319 7.76936 10.7738C8.47769 11.702 8.55097 11.702 8.72194 11.702C8.89292 11.702 8.94177 11.702 9.72338 10.7494C9.79233 10.6529 9.88462 10.5291 9.99478 10.3814C10.2749 10.0058 10.6705 9.47535 11.0912 8.84424C11.9949 7.47643 13.0452 5.59568 13.0452 4.37442ZM8.63169 10.8437C8.6548 10.871 8.67677 10.8966 8.69752 10.9204C8.71814 10.8966 8.74006 10.871 8.76322 10.8435C9.6454 9.79743 12.3125 6.1131 12.3125 4.42327C12.3125 2.39597 10.7004 0.783907 8.69752 0.783907C6.71907 0.783907 5.08258 2.39597 5.08258 4.39884C5.08258 6.0897 7.72965 9.77747 8.63169 10.8437ZM8.69738 10.7665C9.12648 10.2556 9.96871 9.13337 10.7223 7.92129C11.1225 7.27768 11.4963 6.61097 11.7697 5.99876C12.0444 5.38358 12.2125 4.8348 12.2125 4.42327C12.2125 2.45076 10.6447 0.883907 8.69752 0.883907C6.77386 0.883907 5.18258 2.45164 5.18258 4.39884C5.18258 4.81055 5.34925 5.35944 5.62206 5.97497C5.89357 6.58757 6.26507 7.25504 6.6637 7.90015C7.41552 9.11683 8.25882 10.246 8.69738 10.7665Z" fill="white"/>
<path d="M8.69762 2.17623C7.64733 2.17623 6.81688 3.00669 6.81688 4.05697C6.81688 5.10726 7.64733 5.93772 8.69762 5.93772C9.74791 5.93772 10.5784 5.10726 10.5784 4.05697C10.5784 3.00669 9.74791 2.17623 8.69762 2.17623ZM8.69762 5.27823C8.01371 5.27823 7.47636 4.74088 7.47636 4.05697C7.47636 3.37307 8.01371 2.83571 8.69762 2.83571C9.38153 2.83571 9.91888 3.37307 9.91888 4.05697C9.91888 4.7653 9.38153 5.27823 8.69762 5.27823Z" fill="white"/>
<path fill-rule="evenodd" clip-rule="evenodd" d="M6.71688 4.05697C6.71688 2.95146 7.59211 2.07623 8.69762 2.07623C9.80313 2.07623 10.6784 2.95146 10.6784 4.05697C10.6784 5.16249 9.80313 6.03772 8.69762 6.03772C7.59211 6.03772 6.71688 5.16249 6.71688 4.05697ZM7.57636 4.05697C7.57636 4.68565 8.06894 5.17824 8.69762 5.17824C9.32762 5.17824 9.81888 4.70876 9.81888 4.05697C9.81888 3.42829 9.3263 2.93571 8.69762 2.93571C8.06894 2.93571 7.57636 3.42829 7.57636 4.05697ZM6.81688 4.05697C6.81688 3.00669 7.64733 2.17623 8.69762 2.17623C9.74791 2.17623 10.5784 3.00669 10.5784 4.05697C10.5784 5.10726 9.74791 5.93772 8.69762 5.93772C7.64733 5.93772 6.81688 5.10726 6.81688 4.05697ZM7.47636 4.05697C7.47636 4.74088 8.01371 5.27823 8.69762 5.27823C9.38153 5.27823 9.91888 4.7653 9.91888 4.05697C9.91888 3.37307 9.38153 2.83571 8.69762 2.83571C8.01371 2.83571 7.47636 3.37307 7.47636 4.05697Z" fill="white"/>
<path d="M12.3126 9.4547C12.1416 9.4547 12.0195 9.30815 11.995 9.1616C11.995 9.13717 11.9706 9.0639 11.9706 9.01505C11.9706 8.81964 12.1172 8.69752 12.2881 8.69752C12.4591 8.69752 12.5812 8.84407 12.6057 8.99062C12.6057 9.01505 12.6301 9.08832 12.6301 9.13717C12.6301 9.28372 12.4835 9.4547 12.3126 9.4547Z" fill="white"/>
<path fill-rule="evenodd" clip-rule="evenodd" d="M11.895 9.16479C11.895 9.16479 11.8944 9.16078 11.8933 9.15552C11.892 9.14911 11.8905 9.14256 11.8887 9.13471C11.8877 9.13007 11.8865 9.12497 11.8852 9.11917C11.8794 9.09288 11.8706 9.05205 11.8706 9.01505C11.8706 8.75939 12.0671 8.59752 12.2881 8.59752C12.5217 8.59752 12.6743 8.79432 12.7043 8.97418L12.7057 8.98234V8.98743C12.7057 8.98743 12.7063 8.99144 12.7074 8.99669C12.7087 9.00311 12.7102 9.00965 12.712 9.01751C12.7131 9.02215 12.7142 9.02725 12.7155 9.03304C12.7213 9.05934 12.7301 9.10017 12.7301 9.13717C12.7301 9.2417 12.6793 9.34463 12.6079 9.41977C12.5359 9.49562 12.4318 9.5547 12.3126 9.5547C12.079 9.5547 11.9264 9.3579 11.8964 9.17804L11.895 9.16987V9.16479ZM11.995 9.1616C12.0195 9.30815 12.1416 9.4547 12.3126 9.4547C12.4835 9.4547 12.6301 9.28372 12.6301 9.13717C12.6301 9.10856 12.6217 9.07156 12.6148 9.04091C12.6099 9.01924 12.6057 9.00074 12.6057 8.99062C12.5812 8.84407 12.4591 8.69752 12.2881 8.69752C12.1172 8.69752 11.9706 8.81964 11.9706 9.01505C11.9706 9.04366 11.979 9.08066 11.9859 9.11131C11.9908 9.13298 11.995 9.15148 11.995 9.1616Z" fill="white"/>
<path d="M12.435 11.9949C12.4106 11.9949 12.3862 11.9949 12.3862 11.9949C12.1908 11.9705 12.0931 11.7995 12.1175 11.6285C12.1175 11.5552 12.1419 11.482 12.1419 11.4331C12.1663 11.2377 12.3373 11.14 12.5083 11.14C12.7037 11.1644 12.8258 11.3354 12.8014 11.5064C12.8014 11.5797 12.777 11.6529 12.777 11.7262C12.7525 11.8728 12.606 11.9949 12.435 11.9949Z" fill="white"/>
<path fill-rule="evenodd" clip-rule="evenodd" d="M12.3738 12.0941C12.1158 12.0619 11.9904 11.8353 12.0176 11.6214C12.0183 11.5774 12.0255 11.5357 12.0313 11.5038L12.0322 11.4988C12.0387 11.4633 12.0419 11.4455 12.0419 11.4331V11.4206C12.0746 11.1594 12.3046 11.04 12.5083 11.04H12.5208C12.768 11.0709 12.9295 11.2886 12.9013 11.5135C12.9006 11.556 12.8938 11.5969 12.8883 11.6297L12.8878 11.6328C12.8815 11.6709 12.877 11.6993 12.877 11.7262V11.7345L12.8756 11.7427C12.8424 11.9422 12.6499 12.0949 12.435 12.0949L12.3738 12.0941ZM12.8014 11.5064C12.8258 11.3354 12.7037 11.1644 12.5083 11.14C12.3373 11.14 12.1663 11.2377 12.1419 11.4331C12.1419 11.4551 12.137 11.482 12.1315 11.5116C12.1249 11.5478 12.1175 11.5882 12.1175 11.6285C12.0931 11.7995 12.1908 11.9705 12.3862 11.9949H12.435C12.606 11.9949 12.7525 11.8728 12.777 11.7262C12.777 11.6896 12.7831 11.6529 12.7892 11.6163C12.7953 11.5797 12.8014 11.543 12.8014 11.5064Z" fill="white"/>
<path d="M12.5082 10.7001C12.3128 10.7001 12.1907 10.5536 12.1907 10.3826C12.1907 10.3093 12.1907 10.236 12.1663 10.1872C12.1419 9.99177 12.2884 9.84522 12.4594 9.8208C12.6548 9.79637 12.8013 9.94292 12.8258 10.1139C12.8258 10.1872 12.8502 10.2849 12.8502 10.3337C12.8502 10.5291 12.7281 10.7001 12.5082 10.7001Z" fill="white"/>
<path fill-rule="evenodd" clip-rule="evenodd" d="M12.0692 10.2166L12.0671 10.1996C12.0346 9.9399 12.231 9.75241 12.4452 9.7218L12.447 9.72155C12.7066 9.68909 12.8941 9.8855 12.9248 10.0998L12.9258 10.1068V10.1139C12.9258 10.1417 12.9306 10.1771 12.9368 10.2178C12.9374 10.2217 12.9381 10.2258 12.9387 10.23C12.9439 10.2629 12.9502 10.3034 12.9502 10.3337C12.9502 10.4515 12.9134 10.5675 12.8373 10.6556C12.7598 10.7454 12.6463 10.8001 12.5082 10.8001C12.2526 10.8001 12.0907 10.6036 12.0907 10.3826C12.0907 10.3449 12.0906 10.313 12.0881 10.2848C12.0854 10.2559 12.0808 10.2399 12.0768 10.2319L12.0692 10.2166ZM12.1907 10.3826C12.1907 10.5536 12.3128 10.7001 12.5082 10.7001C12.7281 10.7001 12.8502 10.5291 12.8502 10.3337C12.8502 10.3118 12.8453 10.2799 12.8398 10.2449C12.8332 10.202 12.8258 10.1542 12.8258 10.1139C12.8013 9.94292 12.6548 9.79637 12.4594 9.8208C12.2884 9.84522 12.1419 9.99177 12.1663 10.1872C12.1907 10.236 12.1907 10.3093 12.1907 10.3826Z" fill="white"/>
<path d="M6.30413 17.1C6.20643 17.1 6.13315 17.1 6.0843 17.1C5.8889 17.0756 5.76677 16.929 5.7912 16.758C5.81562 16.5626 5.96217 16.4405 6.13315 16.4649C6.20643 16.4649 6.2797 16.4649 6.32855 16.4649C6.52395 16.4649 6.64608 16.6359 6.64608 16.8069C6.62166 16.9534 6.4751 17.1 6.30413 17.1Z" fill="white"/>
<path fill-rule="evenodd" clip-rule="evenodd" d="M6.0719 17.1992C5.83141 17.1692 5.65892 16.9803 5.69208 16.7448C5.7222 16.507 5.90766 16.336 6.13978 16.3649H6.32855C6.59309 16.3649 6.74608 16.5957 6.74608 16.8069V16.8152L6.74472 16.8233C6.72828 16.922 6.67243 17.0148 6.59696 17.0827C6.52098 17.1511 6.4186 17.2 6.30413 17.2L6.0719 17.1992ZM6.13315 16.4649C5.96217 16.4405 5.81562 16.5626 5.7912 16.758C5.76677 16.929 5.8889 17.0756 6.0843 17.1H6.30413C6.4751 17.1 6.62166 16.9534 6.64608 16.8069C6.64608 16.6359 6.52395 16.4649 6.32855 16.4649H6.13315Z" fill="white"/>
<path d="M7.35437 17.0269C7.1834 17.0269 7.06127 16.9048 7.03685 16.7582C7.01242 16.5628 7.13455 16.4163 7.30552 16.3919C7.3788 16.3919 7.45207 16.3674 7.50092 16.3674C7.69633 16.343 7.84288 16.4651 7.89173 16.6361C7.91615 16.8315 7.79403 16.9781 7.62305 17.0269C7.54978 17.0513 7.3788 17.0269 7.35437 17.0269Z" fill="white"/>
<path fill-rule="evenodd" clip-rule="evenodd" d="M6.93762 16.7706C6.90646 16.5213 7.06619 16.325 7.29138 16.2929L7.29842 16.2919H7.30552C7.33222 16.2919 7.36093 16.2874 7.39449 16.2813C7.39768 16.2807 7.40104 16.28 7.40454 16.2794C7.43031 16.2746 7.46395 16.2684 7.49417 16.2675C7.74323 16.2391 7.92815 16.3996 7.98788 16.6086L7.99 16.616L7.99096 16.6237C8.02235 16.8749 7.86212 17.0618 7.65239 17.1225C7.62135 17.1325 7.58687 17.1359 7.55787 17.1371C7.52661 17.1385 7.49402 17.1375 7.46485 17.1359C7.43547 17.1343 7.40803 17.1319 7.38713 17.1299C7.36349 17.1277 7.35446 17.1269 7.35446 17.1269C7.1305 17.1269 6.96997 16.9653 6.93821 16.7747L6.93762 16.7706ZM7.62305 17.0269C7.79403 16.9781 7.91615 16.8315 7.89173 16.6361C7.84288 16.4651 7.69633 16.343 7.50092 16.3674C7.47897 16.3674 7.45207 16.3724 7.42246 16.3778C7.3862 16.3844 7.34586 16.3919 7.30552 16.3919C7.13455 16.4163 7.01242 16.5628 7.03685 16.7582C7.06127 16.9048 7.1834 17.0269 7.35437 17.0269C7.35957 17.0269 7.37139 17.028 7.3875 17.0295C7.44711 17.0351 7.56536 17.0461 7.62305 17.0269Z" fill="white"/>
<path d="M5.03374 16.9047C5.00931 16.9047 4.98489 16.9047 4.96046 16.9047C4.88719 16.8803 4.81391 16.8558 4.74063 16.8314C4.54523 16.7826 4.47195 16.6116 4.52081 16.4162C4.56966 16.2208 4.74063 16.1475 4.93603 16.1964C5.00931 16.2208 5.08259 16.2452 5.13144 16.2452C5.32684 16.2941 5.40011 16.465 5.37569 16.636C5.30241 16.8314 5.15586 16.9047 5.03374 16.9047Z" fill="white"/>
<path fill-rule="evenodd" clip-rule="evenodd" d="M4.94423 17.0047L4.71245 16.9274C4.59103 16.896 4.5 16.8241 4.44968 16.7235C4.39994 16.624 4.39505 16.5069 4.42379 16.3919C4.45464 16.2685 4.52702 16.1761 4.62874 16.1252C4.72823 16.0755 4.84532 16.0706 4.96029 16.0993L4.96775 16.1012C5.00503 16.1136 5.03881 16.1252 5.06921 16.1335C5.10094 16.1421 5.12089 16.1452 5.13144 16.1452H5.14375L5.15569 16.1482C5.27924 16.1791 5.36949 16.2508 5.42305 16.3456C5.47551 16.4384 5.48942 16.547 5.47468 16.6501L5.47314 16.6609L5.46932 16.6711C5.38168 16.9048 5.19831 17.0047 5.03374 17.0047H4.94423ZM4.74063 16.8314L4.96046 16.9047H5.03374C5.15586 16.9047 5.30241 16.8314 5.37569 16.636C5.40011 16.465 5.32684 16.2941 5.13144 16.2452C5.08259 16.2452 5.00931 16.2208 4.93603 16.1964C4.74063 16.1475 4.56966 16.2208 4.52081 16.4162C4.47195 16.6116 4.54523 16.7826 4.74063 16.8314Z" fill="white"/>
<path d="M8.60024 16.7332C8.45369 16.7332 8.35599 16.6355 8.28271 16.5378C8.20944 16.3668 8.30714 16.1714 8.47811 16.0982C8.55139 16.0737 8.60024 16.0493 8.67352 16.0249C8.84449 15.9516 9.0399 16.0249 9.11317 16.2203C9.18645 16.3913 9.11317 16.5867 8.91777 16.6599C8.84449 16.6844 8.77122 16.7088 8.72237 16.7576C8.69794 16.7088 8.64909 16.7332 8.60024 16.7332Z" fill="white"/>
<path fill-rule="evenodd" clip-rule="evenodd" d="M8.19552 16.5882L8.1908 16.5772C8.09201 16.3467 8.22621 16.0973 8.43872 16.0062L8.44638 16.003C8.47989 15.9918 8.50802 15.9809 8.53868 15.9687C8.5679 15.957 8.60035 15.944 8.63811 15.9313C8.85934 15.8389 9.11237 15.9367 9.206 16.183C9.29995 16.4053 9.20149 16.6603 8.95288 16.7536L8.94941 16.7549C8.86998 16.7813 8.82199 16.7994 8.79308 16.8283L8.69497 16.9264L8.64659 16.8297C8.6353 16.8311 8.6183 16.8332 8.60024 16.8332C8.40318 16.8332 8.27938 16.7 8.20271 16.5978L8.19552 16.5882ZM9.11317 16.2203C9.0399 16.0249 8.84449 15.9516 8.67352 16.0249C8.63688 16.0371 8.60635 16.0493 8.57582 16.0615C8.54528 16.0737 8.51475 16.0859 8.47811 16.0982C8.30714 16.1714 8.20944 16.3668 8.28271 16.5378C8.35599 16.6355 8.45369 16.7332 8.60024 16.7332C8.61286 16.7332 8.62548 16.7316 8.63768 16.73C8.65931 16.7272 8.67962 16.7246 8.69626 16.7315C8.70656 16.7358 8.71544 16.7438 8.72237 16.7576C8.74556 16.7344 8.77425 16.7168 8.80584 16.702C8.84079 16.6856 8.87928 16.6728 8.91777 16.6599C9.11317 16.5867 9.18645 16.3913 9.11317 16.2203Z" fill="white"/>
<path d="M3.83699 16.4654C3.78814 16.4654 3.73929 16.4654 3.69044 16.441C3.61716 16.4166 3.54389 16.3677 3.49504 16.3433C3.32406 16.2456 3.27521 16.0746 3.34848 15.9036C3.44618 15.7327 3.61716 15.6838 3.78814 15.7571C3.86141 15.7815 3.91026 15.8304 3.98354 15.8548C4.15452 15.9525 4.20337 16.1235 4.15452 16.2944C4.05682 16.4166 3.93469 16.4654 3.83699 16.4654Z" fill="white"/>
<path fill-rule="evenodd" clip-rule="evenodd" d="M3.44542 16.4301C3.34103 16.3705 3.26791 16.2845 3.23492 16.1814C3.20208 16.0788 3.21193 15.9684 3.25657 15.8643L3.26109 15.8537C3.32074 15.7493 3.40727 15.6765 3.51035 15.6435C3.61175 15.6111 3.72075 15.6203 3.8238 15.6636C3.86912 15.6793 3.90633 15.7016 3.93469 15.7186L3.93729 15.7202C3.96886 15.7391 3.99046 15.7517 4.01516 15.7599L4.02456 15.7631L4.03315 15.768C4.13792 15.8278 4.2095 15.9131 4.24555 16.0133C4.28125 16.1124 4.27988 16.2197 4.25067 16.3219L4.24515 16.3412L4.2326 16.3569C4.11739 16.5009 3.96734 16.5654 3.83699 16.5654L3.83183 16.5654C3.78688 16.5655 3.72033 16.5656 3.6524 16.5337C3.60958 16.5187 3.56912 16.4982 3.53569 16.4799C3.51866 16.4706 3.50475 16.4628 3.4926 16.4559C3.47646 16.4467 3.46343 16.4393 3.45031 16.4327L3.44542 16.4301ZM3.69044 16.441C3.73929 16.4654 3.78814 16.4654 3.83699 16.4654C3.93469 16.4654 4.05682 16.4166 4.15452 16.2944C4.20337 16.1235 4.15452 15.9525 3.98354 15.8548C3.9469 15.8426 3.91637 15.8243 3.88584 15.8059C3.85531 15.7876 3.82478 15.7693 3.78814 15.7571C3.61716 15.6838 3.44618 15.7327 3.34848 15.9036C3.27521 16.0746 3.32406 16.2456 3.49504 16.3433C3.50983 16.3507 3.52686 16.3603 3.54545 16.3708C3.58826 16.3951 3.63935 16.424 3.69044 16.441Z" fill="white"/>
<path d="M9.74801 16.1476C9.62589 16.1476 9.55261 16.0987 9.47933 15.9766C9.38163 15.8056 9.43048 15.6102 9.57703 15.5125C9.62589 15.4637 9.69916 15.4393 9.74801 15.3904C9.91899 15.2683 10.1144 15.3171 10.2121 15.4881C10.3342 15.6591 10.2854 15.8545 10.1144 15.9522C10.0411 16.001 9.99226 16.0499 9.91899 16.0743C9.87014 16.1232 9.82129 16.1476 9.74801 16.1476Z" fill="white"/>
<path fill-rule="evenodd" clip-rule="evenodd" d="M9.39251 16.0262C9.27162 15.8147 9.3277 15.5645 9.5137 15.4347C9.54533 15.4051 9.58139 15.3835 9.60763 15.3678L9.61107 15.3657C9.64368 15.3462 9.6631 15.3339 9.6773 15.3197L9.68315 15.3138L9.68989 15.309C9.79585 15.2333 9.91609 15.2066 10.0292 15.2317C10.1405 15.2564 10.235 15.3292 10.2964 15.4341C10.3698 15.5391 10.3956 15.6576 10.3708 15.7693C10.346 15.881 10.2728 15.9758 10.1672 16.0372C10.147 16.0507 10.1327 16.0614 10.1173 16.0729C10.1049 16.0822 10.0917 16.092 10.074 16.1043C10.0452 16.1245 10.0124 16.1451 9.97299 16.161C9.94684 16.1847 9.91758 16.2054 9.88327 16.2207C9.84105 16.2394 9.79632 16.2476 9.74801 16.2476C9.6727 16.2476 9.60385 16.2322 9.54128 16.192C9.48048 16.1529 9.43424 16.0958 9.39359 16.0281L9.39251 16.0262ZM9.91899 16.0743C9.9704 16.0572 10.0098 16.028 10.054 15.9953C10.0728 15.9813 10.0925 15.9668 10.1144 15.9522C10.2854 15.8545 10.3342 15.6591 10.2121 15.4881C10.1144 15.3171 9.91899 15.2683 9.74801 15.3904C9.72359 15.4148 9.69306 15.4332 9.66252 15.4515C9.63199 15.4698 9.60146 15.4881 9.57703 15.5125C9.43048 15.6102 9.38163 15.8056 9.47933 15.9766C9.55261 16.0987 9.62589 16.1476 9.74801 16.1476C9.82129 16.1476 9.87014 16.1232 9.91899 16.0743Z" fill="white"/>
<path d="M2.73766 15.8056C2.66438 15.8056 2.59111 15.7812 2.54226 15.7324C2.46898 15.6835 2.42013 15.6347 2.34685 15.5858C2.2003 15.4637 2.17588 15.2683 2.298 15.1217C2.42013 14.9752 2.61553 14.9508 2.76208 15.0729C2.81093 15.1217 2.88421 15.1706 2.93306 15.2194C3.07961 15.3416 3.10404 15.537 2.98191 15.6835C2.93306 15.7568 2.83536 15.8056 2.73766 15.8056Z" fill="white"/>
<path fill-rule="evenodd" clip-rule="evenodd" d="M2.28283 15.6626C2.09678 15.5076 2.06131 15.2496 2.22118 15.0577C2.37623 14.8717 2.63425 14.8362 2.8261 14.9961L2.83309 15.0019C2.85283 15.0216 2.87839 15.0427 2.91004 15.0681L2.91224 15.0698C2.94011 15.0921 2.97283 15.1183 3.00055 15.1455C3.1823 15.2998 3.21712 15.5533 3.062 15.7436C2.9916 15.8453 2.86263 15.9056 2.73766 15.9056C2.64777 15.9056 2.55042 15.877 2.47915 15.8104C2.44227 15.7853 2.41122 15.7605 2.38315 15.738L2.38208 15.7372C2.35129 15.7125 2.32392 15.6907 2.29138 15.669L2.28283 15.6626ZM2.54226 15.7324C2.59111 15.7812 2.66438 15.8056 2.73766 15.8056C2.83536 15.8056 2.93306 15.7568 2.98191 15.6835C3.10404 15.537 3.07961 15.3416 2.93306 15.2194C2.90863 15.195 2.8781 15.1706 2.84757 15.1462C2.81704 15.1217 2.78651 15.0973 2.76208 15.0729C2.61553 14.9508 2.42013 14.9752 2.298 15.1217C2.17588 15.2683 2.2003 15.4637 2.34685 15.5858C2.38349 15.6102 2.41402 15.6347 2.44455 15.6591C2.47509 15.6835 2.50562 15.7079 2.54226 15.7324Z" fill="white"/>
<path d="M10.7497 15.341C10.652 15.341 10.5787 15.3165 10.5298 15.2433C10.3833 15.0967 10.3833 14.9013 10.5298 14.7792C10.5787 14.7303 10.6275 14.6815 10.6764 14.6326C10.7985 14.4861 11.0183 14.4861 11.1405 14.6082C11.287 14.7303 11.287 14.9502 11.1649 15.0723C11.116 15.1211 11.0428 15.1944 10.9939 15.2433C10.9206 15.2921 10.8229 15.341 10.7497 15.341Z" fill="white"/>
<path fill-rule="evenodd" clip-rule="evenodd" d="M11.0576 15.321L11.0494 15.3265C11.0089 15.3535 10.9608 15.3811 10.9112 15.4024C10.8632 15.4229 10.8059 15.441 10.7497 15.441C10.6374 15.441 10.5272 15.4124 10.4524 15.3072C10.3676 15.2194 10.3199 15.1122 10.3199 15.0021C10.3199 14.8895 10.37 14.7839 10.4621 14.7055L10.6027 14.5649C10.7632 14.3767 11.0461 14.3762 11.2079 14.5343C11.3977 14.6958 11.397 14.9816 11.2356 15.143L11.0576 15.321ZM11.1405 14.6082C11.0183 14.4861 10.7985 14.4861 10.6764 14.6326L10.5298 14.7792C10.3833 14.9013 10.3833 15.0967 10.5298 15.2433C10.5787 15.3165 10.652 15.341 10.7497 15.341C10.8229 15.341 10.9206 15.2921 10.9939 15.2433L11.1649 15.0723C11.287 14.9502 11.287 14.7303 11.1405 14.6082Z" fill="white"/>
<path d="M1.83404 14.9022C1.73634 14.9022 1.63864 14.8533 1.58978 14.7801C1.54093 14.7068 1.49208 14.6579 1.44323 14.5847C1.32111 14.4381 1.34553 14.2427 1.51651 14.1206C1.66306 13.9985 1.85846 14.0229 1.98059 14.1939C2.02944 14.2427 2.07829 14.316 2.10272 14.3648C2.22484 14.5114 2.20042 14.7068 2.05386 14.8289C1.95616 14.8778 1.90731 14.9022 1.83404 14.9022Z" fill="white"/>
<path fill-rule="evenodd" clip-rule="evenodd" d="M2.10897 14.9132L2.09859 14.9184C2.09516 14.9201 2.09177 14.9218 2.08841 14.9234C1.99969 14.9679 1.93118 15.0022 1.83404 15.0022C1.70721 15.0022 1.57624 14.94 1.50658 14.8355C1.48489 14.803 1.46306 14.7756 1.43842 14.7448L1.43757 14.7438C1.41444 14.7148 1.38878 14.6828 1.36291 14.6444C1.28768 14.552 1.25455 14.4401 1.27104 14.3288C1.28758 14.2171 1.35258 14.1158 1.45539 14.0414C1.54808 13.9653 1.66054 13.9318 1.77236 13.9484C1.88272 13.9647 1.98291 14.0284 2.05712 14.1291C2.1093 14.1829 2.15841 14.2558 2.18689 14.3099C2.33826 14.5007 2.30103 14.7531 2.11788 14.9057L2.10897 14.9132ZM1.98059 14.1939C1.85846 14.0229 1.66306 13.9985 1.51651 14.1206C1.34553 14.2427 1.32111 14.4381 1.44323 14.5847C1.46766 14.6213 1.49208 14.6518 1.51651 14.6824C1.54093 14.7129 1.56536 14.7434 1.58978 14.7801C1.63864 14.8533 1.73634 14.9022 1.83404 14.9022C1.90731 14.9022 1.95616 14.8778 2.05386 14.8289C2.20042 14.7068 2.22484 14.5114 2.10272 14.3648C2.07829 14.316 2.02944 14.2427 1.98059 14.1939Z" fill="white"/>
<path d="M11.58 14.3642C11.5067 14.3642 11.4579 14.3398 11.3846 14.3154C11.2136 14.2177 11.1892 14.0223 11.2869 13.8513C11.3358 13.8024 11.3602 13.7291 11.409 13.6803C11.5067 13.5093 11.7021 13.4849 11.8731 13.5582C12.0441 13.6314 12.0685 13.8513 11.9952 14.0223C11.9464 14.0955 11.922 14.1688 11.8731 14.2177C11.7754 14.2909 11.6533 14.3642 11.58 14.3642Z" fill="white"/>
<path fill-rule="evenodd" clip-rule="evenodd" d="M11.3436 14.4071L11.335 14.4022C11.2243 14.3389 11.1574 14.2408 11.1367 14.129C11.1164 14.0194 11.1417 13.9039 11.2001 13.8017L11.2067 13.79L11.2162 13.7806C11.2304 13.7664 11.2427 13.7469 11.2622 13.7143L11.2643 13.7109C11.2796 13.6854 11.3004 13.6506 11.3287 13.6197C11.4622 13.3997 11.7162 13.3821 11.9125 13.4663C12.0338 13.5182 12.0999 13.6223 12.1236 13.7326C12.1468 13.8409 12.1309 13.9597 12.0872 14.0616L12.0835 14.0701L12.0785 14.0777C12.0621 14.1022 12.0495 14.1257 12.0352 14.1524C12.031 14.1603 12.0266 14.1685 12.022 14.177C12.0032 14.2113 11.9792 14.253 11.9438 14.2884L11.9388 14.2934L11.9331 14.2977C11.8816 14.3363 11.8221 14.3761 11.7642 14.4068C11.7105 14.4352 11.6429 14.4642 11.58 14.4642C11.5029 14.4642 11.4404 14.4416 11.3874 14.4224C11.3755 14.4181 11.364 14.4139 11.353 14.4102L11.3436 14.4071ZM11.4277 14.3304C11.4793 14.3489 11.522 14.3642 11.58 14.3642C11.6533 14.3642 11.7754 14.2909 11.8731 14.2177C11.9027 14.1881 11.9233 14.1495 11.9458 14.1075C11.9605 14.0801 11.976 14.0512 11.9952 14.0223C12.0685 13.8513 12.0441 13.6314 11.8731 13.5582C11.7021 13.4849 11.5067 13.5093 11.409 13.6803C11.3846 13.7047 11.3663 13.7353 11.348 13.7658C11.3297 13.7963 11.3113 13.8269 11.2869 13.8513C11.1892 14.0223 11.2136 14.2177 11.3846 14.3154C11.3999 14.3205 11.4141 14.3256 11.4277 14.3304Z" fill="white"/>
<path d="M1.10171 13.8519C0.979582 13.8519 0.88188 13.7786 0.808605 13.6565C0.759754 13.5832 0.735329 13.51 0.710904 13.4611C0.637628 13.2901 0.710904 13.0947 0.881881 13.0215C1.05286 12.9482 1.24826 13.0215 1.32153 13.1924C1.34596 13.2657 1.39481 13.3146 1.41924 13.3878C1.51694 13.5588 1.44366 13.7542 1.27268 13.8275C1.19941 13.8275 1.15056 13.8519 1.10171 13.8519Z" fill="white"/>
<path fill-rule="evenodd" clip-rule="evenodd" d="M0.618989 13.5005C0.524955 13.2811 0.618454 13.0256 0.842489 12.9295C1.0619 12.8355 1.31743 12.929 1.41345 13.153L1.41673 13.1607C1.42497 13.1854 1.43719 13.2071 1.45613 13.2387L1.4577 13.2413C1.47403 13.2685 1.49527 13.3039 1.51081 13.3467C1.63188 13.5693 1.53332 13.8246 1.31208 13.9194L1.29321 13.9275H1.27268C1.24738 13.9275 1.22557 13.9316 1.19973 13.9373C1.19728 13.9379 1.19465 13.9385 1.19186 13.9391C1.16912 13.9443 1.13568 13.9519 1.10171 13.9519C0.932968 13.9519 0.808024 13.8489 0.724069 13.71C0.685239 13.6512 0.655766 13.5835 0.636886 13.5401C0.630527 13.5255 0.62537 13.5137 0.621461 13.5058L0.618989 13.5005ZM0.808605 13.6565C0.88188 13.7786 0.979582 13.8519 1.10171 13.8519C1.12367 13.8519 1.14562 13.847 1.1698 13.8415C1.19941 13.8349 1.23235 13.8275 1.27268 13.8275C1.44366 13.7542 1.51694 13.5588 1.41924 13.3878C1.40702 13.3512 1.3887 13.3207 1.37039 13.2901C1.35207 13.2596 1.33375 13.2291 1.32153 13.1924C1.24826 13.0215 1.05286 12.9482 0.881881 13.0215C0.710904 13.0947 0.637628 13.2901 0.710904 13.4611C0.718299 13.4759 0.725694 13.4929 0.733768 13.5115C0.752359 13.5543 0.774545 13.6054 0.808605 13.6565Z" fill="white"/>
<path d="M12.1417 13.216C12.0928 13.216 12.0684 13.216 12.0195 13.1916C11.8486 13.1183 11.7753 12.9473 11.8241 12.7519C11.8485 12.6787 11.873 12.6298 11.8974 12.5565C11.9707 12.3611 12.1417 12.2879 12.3126 12.3611C12.508 12.4344 12.5813 12.6054 12.508 12.7764C12.4836 12.8496 12.4592 12.9229 12.4348 12.9718C12.3859 13.1427 12.2882 13.216 12.1417 13.216Z" fill="white"/>
<path fill-rule="evenodd" clip-rule="evenodd" d="M11.8974 12.5565C11.9707 12.3611 12.1417 12.2879 12.3126 12.3611C12.508 12.4344 12.5813 12.6054 12.508 12.7764C12.4836 12.8496 12.4592 12.9229 12.4348 12.9718C12.3859 13.1427 12.2882 13.216 12.1417 13.216C12.0928 13.216 12.0684 13.216 12.0195 13.1916C11.8486 13.1183 11.7753 12.9473 11.8241 12.7519C11.8363 12.7153 11.8485 12.6848 11.8608 12.6542C11.873 12.6237 11.8852 12.5932 11.8974 12.5565ZM11.9774 13.2823C11.7561 13.186 11.6686 12.9617 11.7271 12.7277L11.729 12.7202C11.7421 12.6808 11.7555 12.6481 11.7676 12.6179C11.7799 12.5872 11.7914 12.5584 11.8025 12.5249L11.8037 12.5214C11.8479 12.4034 11.9254 12.3136 12.0267 12.2672C12.1278 12.2208 12.242 12.2227 12.3499 12.2683C12.4668 12.3127 12.5558 12.3897 12.602 12.4904C12.648 12.5909 12.6465 12.7044 12.6017 12.8117L12.6011 12.8133C12.5792 12.879 12.5545 12.9533 12.5283 13.008C12.5001 13.1023 12.4554 13.1807 12.3879 13.2356C12.3173 13.293 12.2322 13.316 12.1417 13.316L12.1383 13.316C12.1165 13.316 12.0908 13.316 12.0641 13.3116C12.0345 13.3067 12.0073 13.2971 11.9774 13.2823Z" fill="white"/>
<path d="M0.637542 12.6543C0.49099 12.6543 0.368864 12.5566 0.320013 12.41C0.295588 12.3367 0.271163 12.2634 0.271163 12.1902C0.222312 11.9948 0.344439 11.8238 0.515415 11.7994C0.710817 11.7505 0.881794 11.8726 0.906219 12.0436C0.930644 12.1169 0.930645 12.1902 0.95507 12.239C1.00392 12.4344 0.906219 12.6054 0.735243 12.6543C0.710817 12.6543 0.686392 12.6543 0.637542 12.6543Z" fill="white"/>
<path fill-rule="evenodd" clip-rule="evenodd" d="M1.04942 12.2041L1.05208 12.2148C1.11277 12.4575 0.990354 12.6854 0.762715 12.7504L0.749248 12.7543H0.637542C0.442098 12.7543 0.285661 12.6232 0.225145 12.4416C0.224457 12.4396 0.223762 12.4375 0.223063 12.4354C0.201116 12.3696 0.173816 12.2878 0.171344 12.2026C0.117008 11.9588 0.270178 11.7364 0.496106 11.7011C0.741144 11.6427 0.966264 11.7945 1.00382 12.0205C1.01569 12.0584 1.02235 12.0954 1.02746 12.1239C1.028 12.1269 1.02852 12.1298 1.02903 12.1326C1.03557 12.1685 1.03974 12.1848 1.04451 12.1943L1.04942 12.2041ZM0.906219 12.0436C0.881794 11.8726 0.710817 11.7505 0.515415 11.7994C0.344439 11.8238 0.222312 11.9948 0.271163 12.1902C0.271163 12.2634 0.295588 12.3367 0.320013 12.41C0.368864 12.5566 0.49099 12.6543 0.637542 12.6543H0.735243C0.906219 12.6054 1.00392 12.4344 0.95507 12.239C0.941846 12.2126 0.935782 12.179 0.929125 12.1421C0.923485 12.1108 0.917421 12.0772 0.906219 12.0436Z" fill="white"/>
<path d="M0.417528 11.3843C0.222126 11.3843 0.1 11.2378 0.1 11.0668C0.1 10.9935 0.1 10.8958 0.1 10.847C0.1 10.6516 0.246551 10.505 0.417528 10.505C0.588505 10.505 0.759482 10.6516 0.759482 10.8225C0.759482 10.8958 0.759482 10.9691 0.759482 11.0179C0.759482 11.2133 0.637355 11.3843 0.417528 11.3843Z" fill="white"/>
<path fill-rule="evenodd" clip-rule="evenodd" d="M0.417528 11.4843C0.161872 11.4843 0 11.2878 0 11.0668V10.847C0 10.6012 0.186552 10.405 0.417528 10.405C0.530725 10.405 0.639492 10.4529 0.719712 10.5255C0.800035 10.5982 0.859482 10.703 0.859482 10.8225V11.0179C0.859482 11.1357 0.8227 11.2517 0.746622 11.3398C0.669046 11.4296 0.55562 11.4843 0.417528 11.4843ZM0.1 11.0668C0.1 11.2378 0.222126 11.3843 0.417528 11.3843C0.637355 11.3843 0.759482 11.2133 0.759482 11.0179V10.8225C0.759482 10.6516 0.588505 10.505 0.417528 10.505C0.246551 10.505 0.1 10.6516 0.1 10.847V11.0668Z" fill="white"/>
<path d="M0.490736 10.0904C0.466311 10.0904 0.466311 10.0904 0.441885 10.0904C0.246483 10.0659 0.148782 9.89495 0.173208 9.72397C0.173208 9.6507 0.197633 9.57742 0.222058 9.50415C0.246483 9.30874 0.41746 9.21104 0.612862 9.25989C0.808264 9.28432 0.905965 9.4553 0.88154 9.6507C0.857115 9.72397 0.857115 9.79725 0.857115 9.8461C0.783839 9.99265 0.661713 10.0904 0.490736 10.0904Z" fill="white"/>
<path fill-rule="evenodd" clip-rule="evenodd" d="M0.429482 10.1896C0.17152 10.1573 0.0460885 9.93072 0.073268 9.71683C0.0747201 9.63079 0.102005 9.548 0.124252 9.48133C0.142189 9.36023 0.206081 9.26299 0.301349 9.205C0.39639 9.14715 0.513908 9.13349 0.631306 9.16146C0.754906 9.17855 0.852294 9.24286 0.913397 9.33655C0.974302 9.42994 0.995376 9.54624 0.980768 9.6631L0.97954 9.67293L0.976408 9.68232C0.95773 9.73835 0.957115 9.79647 0.957115 9.8461V9.86971L0.946557 9.89082C0.860532 10.0629 0.708129 10.1904 0.490736 10.1904L0.429482 10.1896ZM0.612862 9.25989C0.41746 9.21104 0.246483 9.30874 0.222058 9.50415C0.197633 9.57742 0.173208 9.6507 0.173208 9.72397C0.148782 9.89495 0.246483 10.0659 0.441885 10.0904H0.490736C0.661713 10.0904 0.783839 9.99265 0.857115 9.8461C0.857115 9.79725 0.857115 9.72397 0.88154 9.6507C0.905965 9.4553 0.808264 9.28432 0.612862 9.25989Z" fill="white"/>
<path d="M0.808513 8.86896C0.759663 8.86896 0.735237 8.86896 0.686387 8.84453C0.51541 8.77126 0.442135 8.60028 0.490985 8.40488C0.51541 8.3316 0.539836 8.25832 0.588686 8.20947C0.661962 8.0385 0.857363 7.96522 1.02834 8.01407C1.19932 8.06292 1.27259 8.28275 1.22374 8.45373C1.19932 8.527 1.17489 8.57585 1.15047 8.64913C1.07719 8.79568 0.955065 8.86896 0.808513 8.86896Z" fill="white"/>
<path fill-rule="evenodd" clip-rule="evenodd" d="M0.396117 8.37325C0.397065 8.37041 0.398027 8.36751 0.399007 8.36456C0.419576 8.3026 0.447722 8.21782 0.50438 8.15328C0.605571 7.9415 0.849421 7.85895 1.05581 7.91792C1.17814 7.95287 1.25912 8.04736 1.30109 8.15037C1.34288 8.25294 1.35064 8.37359 1.3199 8.4812L1.3187 8.48538C1.30556 8.52481 1.29234 8.5576 1.28026 8.5878C1.268 8.61845 1.2565 8.64724 1.24533 8.68075L1.24309 8.68749L1.23991 8.69385C1.15038 8.8729 0.994457 8.96896 0.808513 8.96896L0.805176 8.96896C0.783403 8.96897 0.757658 8.96898 0.731011 8.96454C0.701378 8.9596 0.674185 8.95 0.644302 8.93528C0.422998 8.83894 0.335457 8.61468 0.393971 8.38062L0.396117 8.37325ZM0.686387 8.84453C0.735237 8.86896 0.759663 8.86896 0.808513 8.86896C0.955065 8.86896 1.07719 8.79568 1.15047 8.64913C1.16268 8.61249 1.17489 8.58196 1.1871 8.55143C1.19932 8.5209 1.21153 8.49037 1.22374 8.45373C1.27259 8.28275 1.19932 8.06292 1.02834 8.01407C0.857363 7.96522 0.661962 8.0385 0.588686 8.20947C0.539836 8.25832 0.51541 8.3316 0.490985 8.40488C0.442135 8.60028 0.51541 8.77126 0.686387 8.84453Z" fill="white"/>
<path d="M1.39446 7.72099C1.32118 7.72099 1.27233 7.69656 1.19906 7.67213C1.02808 7.57443 1.00366 7.37903 1.10136 7.20806C1.15021 7.13478 1.19906 7.08593 1.24791 7.01265C1.37003 6.84168 1.56544 6.81725 1.71199 6.93938C1.88296 7.0615 1.90739 7.25691 1.78526 7.40346C1.73641 7.45231 1.71199 7.52558 1.66314 7.57443C1.61429 7.67214 1.51659 7.72099 1.39446 7.72099Z" fill="white"/>
<path fill-rule="evenodd" clip-rule="evenodd" d="M1.15804 7.76387L1.14944 7.75896C1.03878 7.69572 0.971823 7.59755 0.951125 7.48578C0.930823 7.37615 0.956099 7.2607 1.01453 7.15844L1.01795 7.15245C1.04479 7.11219 1.0717 7.07894 1.0957 7.04894L1.09655 7.04788C1.12118 7.01709 1.14301 6.98972 1.1647 6.95718L1.16649 6.9545C1.24116 6.84996 1.34336 6.78389 1.45613 6.76718C1.56795 6.75062 1.68042 6.78415 1.77311 6.86016C1.87591 6.93463 1.94091 7.03591 1.95746 7.1476C1.9742 7.26059 1.93978 7.37424 1.86209 7.46748L1.85627 7.47446C1.84206 7.48866 1.82951 7.50779 1.80995 7.5404L1.80788 7.54384C1.79292 7.56881 1.77263 7.60267 1.74521 7.63315C1.67314 7.76332 1.53891 7.82099 1.39446 7.82099C1.31732 7.82099 1.25489 7.79837 1.20189 7.77917C1.18995 7.77484 1.17848 7.77069 1.16743 7.767L1.15804 7.76387ZM1.66314 7.57443C1.68756 7.55001 1.70588 7.51948 1.7242 7.48895C1.74252 7.45841 1.76084 7.42788 1.78526 7.40346C1.90739 7.25691 1.88296 7.0615 1.71199 6.93938C1.56544 6.81725 1.37003 6.84168 1.24791 7.01265C1.22348 7.04929 1.19906 7.07982 1.17463 7.11035C1.15021 7.14089 1.12578 7.17142 1.10136 7.20806C1.00366 7.37903 1.02808 7.57443 1.19906 7.67213C1.21435 7.67723 1.22858 7.68233 1.24219 7.68721C1.29379 7.70569 1.33648 7.72099 1.39446 7.72099C1.51659 7.72099 1.61429 7.67214 1.66314 7.57443Z" fill="white"/>
<path d="M2.22478 6.74346C2.12708 6.74346 2.0538 6.71903 2.00495 6.64576C1.8584 6.4992 1.8584 6.3038 2.00495 6.18168C2.0538 6.13283 2.12708 6.05955 2.17593 6.0107C2.32248 5.88857 2.51788 5.88857 2.64001 6.03512C2.76214 6.18168 2.76214 6.37708 2.61559 6.4992C2.56673 6.54805 2.51788 6.59691 2.46903 6.64576C2.37133 6.71903 2.29806 6.74346 2.22478 6.74346Z" fill="white"/>
<path fill-rule="evenodd" clip-rule="evenodd" d="M2.11191 5.93388C2.29292 5.78304 2.55305 5.77457 2.71683 5.97111C2.86672 6.15098 2.87603 6.40899 2.68328 6.57293L2.53472 6.72149L2.52903 6.72576C2.41948 6.80792 2.32564 6.84346 2.22478 6.84346C2.1125 6.84346 2.00229 6.81488 1.92755 6.70966C1.84276 6.62192 1.79504 6.51469 1.79504 6.40456C1.79504 6.29198 1.84507 6.18642 1.93725 6.10795L2.11191 5.93388ZM2.00495 6.18168C1.8584 6.3038 1.8584 6.4992 2.00495 6.64576C2.0538 6.71903 2.12708 6.74346 2.22478 6.74346C2.29806 6.74346 2.37133 6.71903 2.46903 6.64576L2.61559 6.4992C2.76214 6.37708 2.76214 6.18168 2.64001 6.03512C2.51788 5.88857 2.32248 5.88857 2.17593 6.0107L2.00495 6.18168Z" fill="white"/>
<path d="M3.17781 5.96239C3.08011 5.96239 3.00684 5.93797 2.95799 5.86469C2.81143 5.71814 2.81143 5.52274 2.95799 5.40061C2.98241 5.37619 3.03126 5.35176 3.05569 5.32734C3.20224 5.18078 3.39764 5.18078 3.51977 5.32734C3.66632 5.47389 3.66632 5.66929 3.51977 5.79142C3.49534 5.81584 3.44649 5.84027 3.42206 5.86469C3.34879 5.91354 3.27551 5.96239 3.17781 5.96239Z" fill="white"/>
<path fill-rule="evenodd" clip-rule="evenodd" d="M3.48577 5.9424L3.47754 5.9479C3.47543 5.9493 3.4733 5.95072 3.47114 5.95216C3.4016 5.99861 3.3061 6.06239 3.17781 6.06239C3.06553 6.06239 2.95532 6.03382 2.88059 5.9286C2.79579 5.84086 2.74807 5.73362 2.74807 5.62349C2.74807 5.51067 2.79833 5.40488 2.89091 5.32636C2.90985 5.30836 2.93347 5.29267 2.94837 5.28276L2.95137 5.28077C2.97254 5.26665 2.9813 5.2603 2.98498 5.25663C3.07394 5.16766 3.18389 5.11742 3.29689 5.11742C3.40953 5.11742 3.51515 5.16751 3.59363 5.25981C3.68063 5.34821 3.72968 5.45688 3.72968 5.56854C3.72968 5.68136 3.67943 5.78714 3.58684 5.86567C3.5679 5.88366 3.54429 5.89936 3.52938 5.90927L3.52639 5.91126C3.50521 5.92538 3.49645 5.93173 3.49278 5.9354L3.48577 5.9424ZM3.51977 5.79142C3.66632 5.66929 3.66632 5.47389 3.51977 5.32734C3.39764 5.18078 3.20224 5.18078 3.05569 5.32734C3.04347 5.33955 3.02515 5.35176 3.00684 5.36397C2.98852 5.37619 2.9702 5.3884 2.95799 5.40061C2.81143 5.52274 2.81143 5.71814 2.95799 5.86469C3.00684 5.93797 3.08011 5.96239 3.17781 5.96239C3.27551 5.96239 3.34879 5.91354 3.42206 5.86469C3.43428 5.85248 3.4526 5.84027 3.47092 5.82805C3.48923 5.81584 3.50755 5.80363 3.51977 5.79142Z" fill="white"/>
</svg>
