<svg fill="none" height="18" viewBox="0 0 14 18" width="14" xmlns="http://www.w3.org/2000/svg"><g fill="#fff"><path d="m8.72194.1c-2.36924 0-4.27441 1.92959-4.27441 4.27442 0 1.24569 1.05028 3.12643 1.95402 4.49424.5862.87931 1.09913 1.56324 1.36781 1.90514.70833.9282.78161.9282.95258.9282.17098 0 .21983 0 1.00144-.9526.24425-.3419.78162-1.02585 1.36782-1.90516.9037-1.36781 1.954-3.24856 1.954-4.46982-.0488-2.34483-1.9784-4.27442-4.32326-4.27442zm-.02442 10.8204c-.83046-.9526-3.61494-4.78736-3.61494-6.52156 0-2.00287 1.63649-3.614933 3.61494-3.614933 2.00288 0 3.61498 1.612063 3.61498 3.639363 0 1.73419-2.80895 5.56896-3.61498 6.49713z"/><path clip-rule="evenodd" d="m6.31811 8.92379c-.45334-.68615-.94462-1.50266-1.32293-2.30542-.37688-.79971-.64765-1.59803-.64765-2.24395 0-2.39968 1.94957-4.37442 4.37441-4.37442 2.40046 0 4.37326 1.97432 4.42326 4.37233v.00209c0 .63394-.2709 1.42631-.6477 2.22272-.3783.79962-.8695 1.61608-1.3229 2.30223-.4223.63348-.8218 1.16923-1.102 1.54503-.10928.1465-.20044.2688-.26785.3631l-.00389.0055c-.38934.4745-.60211.7189-.74.844-.06981.0633-.12761.1028-.18598.1241-.05758.021-.108.0209-.14878.0209h-.00816c-.04086 0-.09202 0-.15001-.02-.05961-.0206-.11848-.0591-.18786-.1219-.1362-.1232-.33697-.3628-.68977-.825-.27029-.3441-.78476-1.03017-1.37219-1.91131zm6.72709-4.54937c-.0488-2.34483-1.9784-4.27442-4.32326-4.27442-2.36924 0-4.27441 1.92959-4.27441 4.27442 0 1.24569 1.05028 3.12643 1.95402 4.49424.5862.87931 1.09913 1.56324 1.36781 1.90514.70833.9282.78161.9282.95258.9282.17098 0 .21983 0 1.00144-.9526.06895-.0965.16124-.2203.2714-.368.28012-.3756.67572-.90605 1.09642-1.53716.9037-1.36781 1.954-3.24856 1.954-4.46982zm-4.41351 6.46928c.02311.0273.04508.0529.06583.0767.02062-.0238.04254-.0494.0657-.0769.88218-1.04607 3.54928-4.7304 3.54928-6.42023 0-2.0273-1.6121-3.639363-3.61498-3.639363-1.97845 0-3.61494 1.612063-3.61494 3.614933 0 1.69086 2.64707 5.37863 3.54911 6.44486zm.06569-.0772c.4291-.5109 1.27133-1.63313 2.02492-2.84521.4002-.64361.774-1.31032 1.0474-1.92253.2747-.61518.4428-1.16396.4428-1.57549 0-1.97251-1.5678-3.539363-3.51498-3.539363-1.92366 0-3.51494 1.567733-3.51494 3.514933 0 .41171.16667.9606.43948 1.57613.27151.6126.64301 1.28007 1.04164 1.92518.75182 1.21668 1.59512 2.34585 2.03368 2.86635z" fill-rule="evenodd"/><path d="m8.69762 2.17623c-1.05029 0-1.88074.83046-1.88074 1.88074 0 1.05029.83045 1.88075 1.88074 1.88075s1.88078-.83046 1.88078-1.88075c0-1.05028-.83049-1.88074-1.88078-1.88074zm0 3.102c-.68391 0-1.22126-.53735-1.22126-1.22126 0-.6839.53735-1.22126 1.22126-1.22126s1.22126.53736 1.22126 1.22126c0 .70833-.53735 1.22126-1.22126 1.22126z"/><path clip-rule="evenodd" d="m6.71688 4.05697c0-1.10551.87523-1.98074 1.98074-1.98074s1.98078.87523 1.98078 1.98074c0 1.10552-.87527 1.98075-1.98078 1.98075s-1.98074-.87523-1.98074-1.98075zm.85948 0c0 .62868.49258 1.12127 1.12126 1.12127.63 0 1.12126-.46948 1.12126-1.12127 0-.62868-.49258-1.12126-1.12126-1.12126s-1.12126.49258-1.12126 1.12126zm-.75948 0c0-1.05028.83045-1.88074 1.88074-1.88074s1.88078.83046 1.88078 1.88074c0 1.05029-.83049 1.88075-1.88078 1.88075s-1.88074-.83046-1.88074-1.88075zm.65948 0c0 .68391.53735 1.22126 1.22126 1.22126s1.22126-.51293 1.22126-1.22126c0-.6839-.53735-1.22126-1.22126-1.22126s-1.22126.53736-1.22126 1.22126z" fill-rule="evenodd"/><path d="m12.3126 9.4547c-.171 0-.2931-.14655-.3176-.2931 0-.02443-.0244-.0977-.0244-.14655 0-.19541.1466-.31753.3175-.31753.171 0 .2931.14655.3176.2931 0 .02443.0244.0977.0244.14655 0 .14655-.1466.31753-.3175.31753z"/><path clip-rule="evenodd" d="m11.895 9.16479s-.0006-.00401-.0017-.00927c-.0013-.00641-.0028-.01296-.0046-.02081-.001-.00464-.0022-.00974-.0035-.01554-.0058-.02629-.0146-.06712-.0146-.10412 0-.25566.1965-.41753.4175-.41753.2336 0 .3862.1968.4162.37666l.0014.00816v.00509s.0006.00401.0017.00926c.0013.00642.0028.01296.0046.02082.0011.00464.0022.00974.0035.01553.0058.0263.0146.06713.0146.10413 0 .10453-.0508.20746-.1222.2826-.072.07585-.1761.13493-.2953.13493-.2336 0-.3862-.1968-.4162-.37666l-.0014-.00817zm.1-.00319c.0245.14655.1466.2931.3176.2931.1709 0 .3175-.17098.3175-.31753 0-.02861-.0084-.06561-.0153-.09626-.0049-.02167-.0091-.04017-.0091-.05029-.0245-.14655-.1466-.2931-.3176-.2931-.1709 0-.3175.12212-.3175.31753 0 .02861.0084.06561.0153.09626.0049.02167.0091.04017.0091.05029z" fill-rule="evenodd"/><path d="m12.435 11.9949c-.0244 0-.0488 0-.0488 0-.1954-.0244-.2931-.1954-.2687-.3664 0-.0733.0244-.1465.0244-.1954.0244-.1954.1954-.2931.3664-.2931.1954.0244.3175.1954.2931.3664 0 .0733-.0244.1465-.0244.2198-.0245.1466-.171.2687-.342.2687z"/><path clip-rule="evenodd" d="m12.3738 12.0941c-.258-.0322-.3834-.2588-.3562-.4727.0007-.044.0079-.0857.0137-.1176l.0009-.005c.0065-.0355.0097-.0533.0097-.0657v-.0125c.0327-.2612.2627-.3806.4664-.3806h.0125c.2472.0309.4087.2486.3805.4735-.0007.0425-.0075.0834-.013.1162l-.0005.0031c-.0063.0381-.0108.0665-.0108.0934v.0083l-.0014.0082c-.0332.1995-.2257.3522-.4406.3522zm.4276-.5877c.0244-.171-.0977-.342-.2931-.3664-.171 0-.342.0977-.3664.2931 0 .022-.0049.0489-.0104.0785-.0066.0362-.014.0766-.014.1169-.0244.171.0733.342.2687.3664h.0488c.171 0 .3175-.1221.342-.2687 0-.0366.0061-.0733.0122-.1099s.0122-.0733.0122-.1099z" fill-rule="evenodd"/><path d="m12.5082 10.7001c-.1954 0-.3175-.1465-.3175-.3175 0-.0733 0-.1466-.0244-.1954-.0244-.19543.1221-.34198.2931-.3664.1954-.02443.3419.12212.3664.2931 0 .0733.0244.171.0244.2198 0 .1954-.1221.3664-.342.3664z"/><path clip-rule="evenodd" d="m12.0692 10.2166-.0021-.017c-.0325-.2597.1639-.44719.3781-.4778l.0018-.00025c.2596-.03246.4471.16395.4778.37825l.001.007v.0071c0 .0278.0048.0632.011.1039.0006.0039.0013.008.0019.0122.0052.0329.0115.0734.0115.1037 0 .1178-.0368.2338-.1129.3219-.0775.0898-.191.1445-.3291.1445-.2556 0-.4175-.1965-.4175-.4175 0-.0377-.0001-.0696-.0026-.0978-.0027-.0289-.0073-.0449-.0113-.0529zm.1215.166c0 .171.1221.3175.3175.3175.2199 0 .342-.171.342-.3664 0-.0219-.0049-.0538-.0104-.0888-.0066-.0429-.014-.0907-.014-.131-.0245-.17098-.171-.31753-.3664-.2931-.171.02442-.3175.17097-.2931.3664.0244.0488.0244.1221.0244.1954z" fill-rule="evenodd"/><path d="m6.30413 17.1c-.0977 0-.17098 0-.21983 0-.1954-.0244-.31753-.171-.2931-.342.02442-.1954.17097-.3175.34195-.2931h.1954c.1954 0 .31753.171.31753.342-.02442.1465-.17098.2931-.34195.2931z"/><path clip-rule="evenodd" d="m6.0719 17.1992c-.24049-.03-.41298-.2189-.37982-.4544.03012-.2378.21558-.4088.4477-.3799h.18877c.26454 0 .41753.2308.41753.442v.0083l-.00136.0081c-.01644.0987-.07229.1915-.14776.2594-.07598.0684-.17836.1173-.29283.1173zm.06125-.7343c-.17098-.0244-.31753.0977-.34195.2931-.02443.171.0977.3176.2931.342h.21983c.17097 0 .31753-.1466.34195-.2931 0-.171-.12213-.342-.31753-.342z" fill-rule="evenodd"/><path d="m7.35437 17.0269c-.17097 0-.2931-.1221-.31752-.2687-.02443-.1954.0977-.3419.26867-.3663.07328 0 .14655-.0245.1954-.0245.19541-.0244.34196.0977.39081.2687.02442.1954-.0977.342-.26868.3908-.07327.0244-.24425 0-.26868 0z"/><path clip-rule="evenodd" d="m6.93762 16.7706c-.03116-.2493.12857-.4456.35376-.4777l.00704-.001h.0071c.0267 0 .05541-.0045.08897-.0106.00319-.0006.00655-.0013.01005-.0019.02577-.0048.05941-.011.08963-.0119.24906-.0284.43398.1321.49371.3411l.00212.0074.00096.0077c.03139.2512-.12884.4381-.33857.4988-.03104.01-.06552.0134-.09452.0146-.03126.0014-.06385.0004-.09302-.0012-.02938-.0016-.05682-.004-.07772-.006-.02364-.0022-.03267-.003-.03267-.003-.22396 0-.38449-.1616-.41625-.3522zm.68543.2563c.17098-.0488.2931-.1954.26868-.3908-.04885-.171-.1954-.2931-.39081-.2687-.02195 0-.04885.005-.07846.0104-.03626.0066-.0766.0141-.11694.0141-.17097.0244-.2931.1709-.26867.3663.02442.1466.14655.2687.31752.2687.0052 0 .01702.0011.03313.0026.05961.0056.17786.0166.23555-.0026z" fill-rule="evenodd"/><path d="m5.03374 16.9047c-.02443 0-.04885 0-.07328 0-.07327-.0244-.14655-.0489-.21983-.0733-.1954-.0488-.26868-.2198-.21982-.4152.04885-.1954.21982-.2687.41522-.2198.07328.0244.14656.0488.19541.0488.1954.0489.26867.2198.24425.3908-.07328.1954-.21983.2687-.34195.2687z"/><path clip-rule="evenodd" d="m4.94423 17.0047-.23178-.0773c-.12142-.0314-.21245-.1033-.26277-.2039-.04974-.0995-.05463-.2166-.02589-.3316.03085-.1234.10323-.2158.20495-.2667.09949-.0497.21658-.0546.33155-.0259l.00746.0019c.03728.0124.07106.024.10146.0323.03173.0086.05168.0117.06223.0117h.01231l.01194.003c.12355.0309.2138.1026.26736.1974.05246.0928.06637.2014.05163.3045l-.00154.0108-.00382.0102c-.08764.2337-.27101.3336-.43558.3336zm-.2036-.1733.21983.0733h.07328c.12212 0 .26867-.0733.34195-.2687.02442-.171-.04885-.3419-.24425-.3908-.04885 0-.12213-.0244-.19541-.0488-.1954-.0489-.36637.0244-.41522.2198-.04886.1954.02442.3664.21982.4152z" fill-rule="evenodd"/><path d="m8.60024 16.7332c-.14655 0-.24425-.0977-.31753-.1954-.07327-.171.02443-.3664.1954-.4396.07328-.0245.12213-.0489.19541-.0733.17097-.0733.36638 0 .43965.1954.07328.171 0 .3664-.1954.4396-.07328.0245-.14655.0489-.1954.0977-.02443-.0488-.07328-.0244-.12213-.0244z"/><path clip-rule="evenodd" d="m8.19552 16.5882-.00472-.011c-.09879-.2305.03541-.4799.24792-.571l.00766-.0032c.03351-.0112.06164-.0221.0923-.0343.02922-.0117.06167-.0247.09943-.0374.22123-.0924.47426.0054.56789.2517.09395.2223-.00451.4773-.25312.5706l-.00347.0013c-.07943.0264-.12742.0445-.15633.0734l-.09811.0981-.04838-.0967c-.01129.0014-.02829.0035-.04635.0035-.19706 0-.32086-.1332-.39753-.2354zm.91765-.3679c-.07327-.1954-.26868-.2687-.43965-.1954-.03664.0122-.06717.0244-.0977.0366-.03054.0122-.06107.0244-.09771.0367-.17097.0732-.26867.2686-.1954.4396.07328.0977.17098.1954.31753.1954.01262 0 .02524-.0016.03744-.0032.02163-.0028.04194-.0054.05858.0015.0103.0043.01918.0123.02611.0261.02319-.0232.05188-.0408.08347-.0556.03495-.0164.07344-.0292.11193-.0421.1954-.0732.26868-.2686.1954-.4396z" fill-rule="evenodd"/><path d="m3.83699 16.4654c-.04885 0-.0977 0-.14655-.0244-.07328-.0244-.14655-.0733-.1954-.0977-.17098-.0977-.21983-.2687-.14656-.4397.0977-.1709.26868-.2198.43966-.1465.07327.0244.12212.0733.1954.0977.17098.0977.21983.2687.17098.4396-.0977.1222-.21983.171-.31753.171z"/><path clip-rule="evenodd" d="m3.44542 16.4301c-.10439-.0596-.17751-.1456-.2105-.2487-.03284-.1026-.02299-.213.02165-.3171l.00452-.0106c.05965-.1044.14618-.1772.24926-.2102.1014-.0324.2104-.0232.31345.0201.04532.0157.08253.038.11089.055l.0026.0016c.03157.0189.05317.0315.07787.0397l.0094.0032.00859.0049c.10477.0598.17635.1451.2124.2453.0357.0991.03433.2064.00512.3086l-.00552.0193-.01255.0157c-.11521.144-.26526.2085-.39561.2085h-.00516c-.04495.0001-.1115.0002-.17943-.0317-.04282-.015-.08328-.0355-.11671-.0538-.01703-.0093-.03094-.0171-.04309-.024-.01614-.0092-.02917-.0166-.04229-.0232zm.24502.0109c.04885.0244.0977.0244.14655.0244.0977 0 .21983-.0488.31753-.171.04885-.1709 0-.3419-.17098-.4396-.03664-.0122-.06717-.0305-.0977-.0489-.03053-.0183-.06106-.0366-.0977-.0488-.17098-.0733-.34196-.0244-.43966.1465-.07327.171-.02442.342.14656.4397.01479.0074.03182.017.05041.0275.04281.0243.0939.0532.14499.0702z" fill-rule="evenodd"/><path d="m9.74801 16.1476c-.12212 0-.1954-.0489-.26868-.171-.0977-.171-.04885-.3664.0977-.4641.04886-.0488.12213-.0732.17098-.1221.17098-.1221.36639-.0733.46409.0977.1221.171.0733.3664-.0977.4641-.0733.0488-.12214.0977-.19541.1221-.04885.0489-.0977.0733-.17098.0733z"/><path clip-rule="evenodd" d="m9.39251 16.0262c-.12089-.2115-.06481-.4617.12119-.5915.03163-.0296.06769-.0512.09393-.0669l.00344-.0021c.03261-.0195.05203-.0318.06623-.046l.00585-.0059.00674-.0048c.10596-.0757.2262-.1024.33931-.0773.1113.0247.2058.0975.2672.2024.0734.105.0992.2235.0744.3352s-.098.2065-.2036.2679c-.0202.0135-.0345.0242-.0499.0357-.0124.0093-.0256.0191-.0433.0314-.0288.0202-.0616.0408-.10101.0567-.02615.0237-.05541.0444-.08972.0597-.04222.0187-.08695.0269-.13526.0269-.07531 0-.14416-.0154-.20673-.0556-.0608-.0391-.10704-.0962-.14769-.1639zm.52648.0481c.05141-.0171.09081-.0463.13501-.079.0188-.014.0385-.0285.0604-.0431.171-.0977.2198-.2931.0977-.4641-.0977-.171-.29311-.2198-.46409-.0977-.02442.0244-.05495.0428-.08549.0611-.03053.0183-.06106.0366-.08549.061-.14655.0977-.1954.2931-.0977.4641.07328.1221.14656.171.26868.171.07328 0 .12213-.0244.17098-.0733z" fill-rule="evenodd"/><path d="m2.73766 15.8056c-.07328 0-.14655-.0244-.1954-.0732-.07328-.0489-.12213-.0977-.19541-.1466-.14655-.1221-.17097-.3175-.04885-.4641.12213-.1465.31753-.1709.46408-.0488.04885.0488.12213.0977.17098.1465.14655.1222.17098.3176.04885.4641-.04885.0733-.14655.1221-.24425.1221z"/><path clip-rule="evenodd" d="m2.28283 15.6626c-.18605-.155-.22152-.413-.06165-.6049.15505-.186.41307-.2215.60492-.0616l.00699.0058c.01974.0197.0453.0408.07695.0662l.0022.0017c.02787.0223.06059.0485.08831.0757.18175.1543.21657.4078.06145.5981-.0704.1017-.19937.162-.32434.162-.08989 0-.18724-.0286-.25851-.0952-.03688-.0251-.06793-.0499-.096-.0724l-.00107-.0008c-.03079-.0247-.05816-.0465-.0907-.0682zm.25943.0698c.04885.0488.12212.0732.1954.0732.0977 0 .1954-.0488.24425-.1221.12213-.1465.0977-.3419-.04885-.4641-.02443-.0244-.05496-.0488-.08549-.0732-.03053-.0245-.06106-.0489-.08549-.0733-.14655-.1221-.34195-.0977-.46408.0488-.12212.1466-.0977.342.04885.4641.03664.0244.06717.0489.0977.0733.03054.0244.06107.0488.09771.0733z" fill-rule="evenodd"/><path d="m10.7497 15.341c-.0977 0-.171-.0245-.2199-.0977-.1465-.1466-.1465-.342 0-.4641.0489-.0489.0977-.0977.1466-.1466.1221-.1465.3419-.1465.4641-.0244.1465.1221.1465.342.0244.4641-.0489.0488-.1221.1221-.171.171-.0733.0488-.171.0977-.2442.0977z"/><path clip-rule="evenodd" d="m11.0576 15.321-.0082.0055c-.0405.027-.0886.0546-.1382.0759-.048.0205-.1053.0386-.1615.0386-.1123 0-.2225-.0286-.2973-.1338-.0848-.0878-.1325-.195-.1325-.3051 0-.1126.0501-.2182.1422-.2966l.1406-.1406c.1605-.1882.4434-.1887.6052-.0306.1898.1615.1891.4473.0277.6087zm.0829-.7128c-.1222-.1221-.342-.1221-.4641.0244l-.1466.1466c-.1465.1221-.1465.3175 0 .4641.0489.0732.1222.0977.2199.0977.0732 0 .1709-.0489.2442-.0977l.171-.171c.1221-.1221.1221-.342-.0244-.4641z" fill-rule="evenodd"/><path d="m1.83404 14.9022c-.0977 0-.1954-.0489-.24426-.1221-.04885-.0733-.0977-.1222-.14655-.1954-.12212-.1466-.0977-.342.07328-.4641.14655-.1221.34195-.0977.46408.0733.04885.0488.0977.1221.12213.1709.12212.1466.0977.342-.04886.4641-.0977.0489-.14655.0733-.21982.0733z"/><path clip-rule="evenodd" d="m2.10897 14.9132-.01038.0052c-.00343.0017-.00682.0034-.01018.005-.08872.0445-.15723.0788-.25437.0788-.12683 0-.2578-.0622-.32746-.1667-.02169-.0325-.04352-.0599-.06816-.0907l-.00085-.001c-.02313-.029-.04879-.061-.07466-.0994-.07523-.0924-.10836-.2043-.09187-.3156.01654-.1117.08154-.213.18435-.2874.09269-.0761.20515-.1096.31697-.093.11036.0163.21055.08.28476.1807.05218.0538.10129.1267.12977.1808.15137.1908.11414.4432-.06901.5958zm-.12838-.7193c-.12213-.171-.31753-.1954-.46408-.0733-.17098.1221-.1954.3175-.07328.4641.02443.0366.04885.0671.07328.0977.02442.0305.04885.061.07327.0977.04886.0732.14656.1221.24426.1221.07327 0 .12212-.0244.21982-.0733.14656-.1221.17098-.3175.04886-.4641-.02443-.0488-.07328-.1221-.12213-.1709z" fill-rule="evenodd"/><path d="m11.58 14.3642c-.0733 0-.1221-.0244-.1954-.0488-.171-.0977-.1954-.2931-.0977-.4641.0489-.0489.0733-.1222.1221-.171.0977-.171.2931-.1954.4641-.1221.171.0732.1954.2931.1221.4641-.0488.0732-.0732.1465-.1221.1954-.0977.0732-.2198.1465-.2931.1465z"/><path clip-rule="evenodd" d="m11.3436 14.4071-.0086-.0049c-.1107-.0633-.1776-.1614-.1983-.2732-.0203-.1096.005-.2251.0634-.3273l.0066-.0117.0095-.0094c.0142-.0142.0265-.0337.046-.0663l.0021-.0034c.0153-.0255.0361-.0603.0644-.0912.1335-.22.3875-.2376.5838-.1534.1213.0519.1874.156.2111.2663.0232.1083.0073.2271-.0364.329l-.0037.0085-.005.0076c-.0164.0245-.029.048-.0433.0747-.0042.0079-.0086.0161-.0132.0246-.0188.0343-.0428.076-.0782.1114l-.005.005-.0057.0043c-.0515.0386-.111.0784-.1689.1091-.0537.0284-.1213.0574-.1842.0574-.0771 0-.1396-.0226-.1926-.0418-.0119-.0043-.0234-.0085-.0344-.0122zm.0841-.0767c.0516.0185.0943.0338.1523.0338.0733 0 .1954-.0733.2931-.1465.0296-.0296.0502-.0682.0727-.1102.0147-.0274.0302-.0563.0494-.0852.0733-.171.0489-.3909-.1221-.4641-.171-.0733-.3664-.0489-.4641.1221-.0244.0244-.0427.055-.061.0855s-.0367.0611-.0611.0855c-.0977.171-.0733.3664.0977.4641.0153.0051.0295.0102.0431.015z" fill-rule="evenodd"/><path d="m1.10171 13.8519c-.122128 0-.21983-.0733-.293105-.1954-.048851-.0733-.073276-.1465-.097701-.1954-.073276-.171 0-.3664.170977-.4396.170979-.0733.366379 0 .439649.1709.02443.0733.07328.1222.09771.1954.0977.171.02442.3664-.14656.4397-.07327 0-.12212.0244-.17097.0244z"/><path clip-rule="evenodd" d="m.618989 13.5005c-.094034-.2194-.000535-.4749.2235-.571.219411-.094.474941-.0005.570961.2235l.00328.0077c.00824.0247.02046.0464.0394.078l.00157.0026c.01633.0272.03757.0626.05311.1054.12107.2226.02251.4779-.19873.5727l-.01887.0081h-.02053c-.0253 0-.04711.0041-.07295.0098-.00245.0006-.00508.0012-.00787.0018-.02274.0052-.05618.0128-.09015.0128-.168742 0-.293686-.103-.377641-.2419-.03883-.0588-.068303-.1265-.087183-.1699-.006359-.0146-.011516-.0264-.015425-.0343zm.189616.156c.073275.1221.170977.1954.293105.1954.02196 0 .04391-.0049.06809-.0104.02961-.0066.06255-.014.10288-.014.17098-.0733.24426-.2687.14656-.4397-.01222-.0366-.03054-.0671-.04885-.0977-.01832-.0305-.03664-.061-.04886-.0977-.07327-.1709-.26867-.2442-.439649-.1709-.170977.0732-.244253.2686-.170977.4396.007395.0148.01479.0318.022864.0504.018591.0428.040777.0939.074837.145z" fill-rule="evenodd"/><path d="m12.1417 13.216c-.0489 0-.0733 0-.1222-.0244-.1709-.0733-.2442-.2443-.1954-.4397.0244-.0732.0489-.1221.0733-.1954.0733-.1954.2443-.2686.4152-.1954.1954.0733.2687.2443.1954.4153-.0244.0732-.0488.1465-.0732.1954-.0489.1709-.1466.2442-.2931.2442z"/><path clip-rule="evenodd" d="m11.8974 12.5565c.0733-.1954.2443-.2686.4152-.1954.1954.0733.2687.2443.1954.4153-.0244.0732-.0488.1465-.0732.1954-.0489.1709-.1466.2442-.2931.2442-.0489 0-.0733 0-.1222-.0244-.1709-.0733-.2442-.2443-.1954-.4397.0122-.0366.0244-.0671.0367-.0977.0122-.0305.0244-.061.0366-.0977zm.08.7258c-.2213-.0963-.3088-.3206-.2503-.5546l.0019-.0075c.0131-.0394.0265-.0721.0386-.1023.0123-.0307.0238-.0595.0349-.093l.0012-.0035c.0442-.118.1217-.2078.223-.2542.1011-.0464.2153-.0445.3232.0011.1169.0444.2059.1214.2521.2221.046.1005.0445.214-.0003.3213l-.0006.0016c-.0219.0657-.0466.14-.0728.1947-.0282.0943-.0729.1727-.1404.2276-.0706.0574-.1557.0804-.2462.0804h-.0034c-.0218 0-.0475 0-.0742-.0044-.0296-.0049-.0568-.0145-.0867-.0293z" fill-rule="evenodd"/><path d="m.637542 12.6543c-.146552 0-.268678-.0977-.317529-.2443-.024425-.0733-.04885-.1466-.04885-.2198-.048851-.1954.073276-.3664.244252-.3908.195402-.0489.366379.0732.390804.2442.024425.0733.024426.1466.048851.1954.04885.1954-.048851.3664-.219827.4153-.024426 0-.048851 0-.097701 0z"/><path clip-rule="evenodd" d="m1.04942 12.2041.00266.0107c.06069.2427-.061726.4706-.289365.5356l-.013467.0039h-.111706c-.195444 0-.351881-.1311-.412397-.3127-.000688-.002-.001383-.0041-.002082-.0062-.021947-.0658-.049247-.1476-.051719-.2328-.054336-.2438.098834-.4662.324762-.5015.245038-.0584.470158.0934.507714.3194.01187.0379.01853.0749.02364.1034.00054.003.00106.0059.00157.0087.00654.0359.01071.0522.01548.0617zm-.143201-.1605c-.024425-.171-.195402-.2931-.390804-.2442-.170976.0244-.293103.1954-.244252.3908 0 .0732.024425.1465.04885.2198.048851.1466.170977.2443.317529.2443h.097701c.170976-.0489.268677-.2199.219827-.4153-.013224-.0264-.019288-.06-.025945-.0969-.00564-.0313-.011704-.0649-.022906-.0985z" fill-rule="evenodd"/><path d="m.417528 11.3843c-.195402 0-.317528-.1465-.317528-.3175 0-.0733 0-.171 0-.2198 0-.1954.146551-.342.317528-.342s.341954.1466.341954.3175v.1954c0 .1954-.122127.3664-.341954.3664z"/><path clip-rule="evenodd" d="m.417528 11.4843c-.255656 0-.417528-.1965-.417528-.4175v-.2198c0-.2458.186552-.442.417528-.442.113197 0 .221964.0479.302184.1205.080323.0727.13977.1775.13977.297v.1954c0 .1178-.036782.2338-.11286.3219-.077576.0898-.191002.1445-.329094.1445zm-.317528-.4175c0 .171.122126.3175.317528.3175.219827 0 .341954-.171.341954-.3664v-.1954c0-.1709-.170977-.3175-.341954-.3175s-.317528.1466-.317528.342z" fill-rule="evenodd"/><path d="m.490736 10.0904c-.024425 0-.024425 0-.048851 0-.195402-.0245-.293103-.19545-.268677-.36643 0-.07327.024425-.14655.04885-.21982.024425-.19541.195402-.29311.390804-.24426.195402.02443.293103.19541.268678.39081-.024425.07327-.024425.14655-.024425.1954-.073276.14655-.195402.2443-.366379.2443z"/><path clip-rule="evenodd" d="m.429482 10.1896c-.257962-.0323-.3833935-.25888-.356214-.47277.0014521-.08604.028737-.16883.050984-.2355.017937-.1211.081829-.21834.177097-.27633.095041-.05785.212559-.07151.329957-.04354.1236.01709.220988.0814.282091.17509.060905.09339.081979.20969.067371.32655l-.001228.00983-.003132.00939c-.018678.05603-.019293.11415-.019293.16378v.02361l-.010558.02111c-.086025.17208-.238428.29958-.455821.29958zm.18338-.92971c-.195402-.04885-.366379.04885-.390804.24426-.024425.07327-.04885.14655-.04885.21982-.024426.17098.073275.34193.268677.36643h.048851c.170977 0 .293103-.09775.366379-.2443 0-.04885 0-.12213.024425-.1954.024425-.1954-.073276-.36638-.268678-.39081z" fill-rule="evenodd"/><path d="m.808513 8.86896c-.04885 0-.073276 0-.122126-.02443-.170977-.07327-.244252-.24425-.195402-.43965.024425-.07328.048851-.14656.097701-.19541.073276-.17097.268677-.24425.439654-.1954.17098.04885.24425.26868.1954.43966-.02442.07327-.04885.12212-.07327.1954-.07328.14655-.195405.21983-.341957.21983z"/><path clip-rule="evenodd" d="m.396117 8.37325c.000948-.00284.00191-.00574.00289-.00869.020569-.06196.048715-.14674.105373-.21128.101191-.21178.345041-.29433.55143-.23536.12233.03495.20331.12944.24528.23245.04179.10257.04955.22322.01881.33083l-.0012.00418c-.01314.03943-.02636.07222-.03844.10242-.01226.03065-.02376.05944-.03493.09295l-.00224.00674-.00318.00636c-.08953.17905-.245453.27511-.431397.27511h-.003337c-.021773.00001-.047518.00002-.074165-.00442-.029633-.00494-.056826-.01454-.086709-.02926-.221304-.09634-.308845-.3206-.250331-.55466zm.29027.47128c.04885.02443.073276.02443.122126.02443.146552 0 .268677-.07328.341957-.21983.01221-.03664.02442-.06717.03663-.0977.01222-.03053.02443-.06106.03664-.0977.04885-.17098-.02442-.39081-.1954-.43966-.170977-.04885-.366378.02443-.439654.1954-.04885.04885-.073276.12213-.097701.19541-.04885.1954.024425.36638.195402.43965z" fill-rule="evenodd"/><path d="m1.39446 7.72099c-.07328 0-.12213-.02443-.1954-.04886-.17098-.0977-.1954-.2931-.0977-.46407.04885-.07328.0977-.12213.14655-.19541.12212-.17097.31753-.1954.46408-.07327.17097.12212.1954.31753.07327.46408-.04885.04885-.07327.12212-.12212.17097-.04885.09771-.14655.14656-.26868.14656z"/><path clip-rule="evenodd" d="m1.15804 7.76387-.0086-.00491c-.11066-.06324-.177617-.16141-.198315-.27318-.020302-.10963.004974-.22508.063405-.32734l.00342-.00599c.02684-.04026.05375-.07351.07775-.10351l.00085-.00106c.02463-.03079.04646-.05816.06815-.0907l.00179-.00268c.07467-.10454.17687-.17061.28964-.18732.11182-.01656.22429.01697.31698.09298.1028.07447.1678.17575.18435.28744.01674.11299-.01768.22664-.09537.31988l-.00582.00698c-.01421.0142-.02676.03333-.04632.06594l-.00207.00344c-.01496.02497-.03525.05883-.06267.08931-.07207.13017-.2063.18784-.35075.18784-.07714 0-.13957-.02262-.19257-.04182-.01194-.00433-.02341-.00848-.03446-.01217zm.5051-.18944c.02442-.02442.04274-.05495.06106-.08548.01832-.03054.03664-.06107.06106-.08549.12213-.14655.0977-.34196-.07327-.46408-.14655-.12213-.34196-.0977-.46408.07327-.02443.03664-.04885.06717-.07328.0977-.02442.03054-.04885.06107-.07327.09771-.0977.17097-.07328.36637.0977.46407.01529.0051.02952.0102.04313.01508.0516.01848.09429.03378.15227.03378.12213 0 .21983-.04885.26868-.14656z" fill-rule="evenodd"/><path d="m2.22478 6.74346c-.0977 0-.17098-.02443-.21983-.0977-.14655-.14656-.14655-.34196 0-.46408.04885-.04885.12213-.12213.17098-.17098.14655-.12213.34195-.12213.46408.02442.12213.14656.12213.34196-.02442.46408-.04886.04885-.09771.09771-.14656.14656-.0977.07327-.17097.0977-.24425.0977z"/><path clip-rule="evenodd" d="m2.11191 5.93388c.18101-.15084.44114-.15931.60492.03723.14989.17987.1592.43788-.03355.60182l-.14856.14856-.00569.00427c-.10955.08216-.20339.1177-.30425.1177-.11228 0-.22249-.02858-.29723-.1338-.08479-.08774-.13251-.19497-.13251-.3051 0-.11258.05003-.21814.14221-.29661zm-.10696.2478c-.14655.12212-.14655.31752 0 .46408.04885.07327.12213.0977.21983.0977.07328 0 .14655-.02443.24425-.0977l.14656-.14656c.14655-.12212.14655-.31752.02442-.46408-.12213-.14655-.31753-.14655-.46408-.02442z" fill-rule="evenodd"/><path d="m3.17781 5.96239c-.0977 0-.17097-.02442-.21982-.0977-.14656-.14655-.14656-.34195 0-.46408.02442-.02442.07327-.04885.0977-.07327.14655-.14656.34195-.14656.46408 0 .14655.14655.14655.34195 0 .46408-.02443.02442-.07328.04885-.09771.07327-.07327.04885-.14655.0977-.24425.0977z"/><path clip-rule="evenodd" d="m3.48577 5.9424-.00823.0055c-.00211.0014-.00424.00282-.0064.00426-.06954.04645-.16504.11023-.29333.11023-.11228 0-.22249-.02857-.29722-.13379-.0848-.08774-.13252-.19498-.13252-.30511 0-.11282.05026-.21861.14284-.29713.01894-.018.04256-.03369.05746-.0436l.003-.00199c.02117-.01412.02993-.02047.03361-.02414.08896-.08897.19891-.13921.31191-.13921.11264 0 .21826.05009.29674.14239.087.0884.13605.19707.13605.30873 0 .11282-.05025.2186-.14284.29713-.01894.01799-.04255.03369-.05746.0436l-.00299.00199c-.02118.01412-.02994.02047-.03361.02414zm.034-.15098c.14655-.12213.14655-.31753 0-.46408-.12213-.14656-.31753-.14656-.46408 0-.01222.01221-.03054.02442-.04885.03663-.01832.01222-.03664.02443-.04885.03664-.14656.12213-.14656.31753 0 .46408.04885.07328.12212.0977.21982.0977s.17098-.04885.24425-.0977c.01222-.01221.03054-.02442.04886-.03664.01831-.01221.03663-.02442.04885-.03663z" fill-rule="evenodd"/></g></svg>