<svg fill="none" height="16" viewBox="0 0 16 16" width="16" xmlns="http://www.w3.org/2000/svg"><path clip-rule="evenodd" d="m2.33953 13.6531c-3.119171-3.1192-3.119575-8.19415 0-11.31372 3.11917-3.119173 8.19457-3.119172 11.31367 0 3.1192 3.11917 3.1196 8.19412 0 11.31372-3.1191 3.1192-8.1945 3.1192-11.31367 0zm10.50637-10.50546c-2.6827-2.682755-7.01516-2.682957-9.69811 0-2.683157 2.68315-2.682955 7.01516 0 9.69816 2.68316 2.6832 7.01521 2.683 9.69821 0 2.6831-2.6832 2.6827-7.01541-.0001-9.69816zm-7.27339 1.61465-.00568-.00568c-.22312-.22312-.58483-.22351-.80834 0-.22345.22344-.22352.58483 0 .80834l.00568.00568.00031.00032 2.42431 2.4243-2.42462 2.42465-.00568.0057c-.22312.2231-.22352.5848 0 .8083.22344.2234.58482.2235.80834 0l.00599-.006 2.42431-2.4243 2.42387 2.4239.0057.0057c.2231.2231.5848.2235.8083 0s.2236-.5849 0-.8084l-.0056-.0057-.0003-.0003-2.42363-2.42355 2.42383-2.4238.0057-.00568c.2231-.22312.2235-.58483 0-.80835-.2235-.22344-.5849-.22351-.8084 0l-.006.006-2.42347 2.42349z" fill="#ff8f8f" fill-rule="evenodd"/></svg>