<svg width="38" height="37" viewBox="0 0 38 37" fill="none" xmlns="http://www.w3.org/2000/svg">
<path d="M37.1198 0H22.7759C22.29 0 21.8958 0.397747 21.8958 0.890388V18.4266C21.8958 18.9187 22.29 19.317 22.7759 19.317H25.7084L19.0002 28.1335L12.2936 19.317H15.226C15.712 19.317 16.1062 18.9187 16.1062 18.4266V0.890388C16.1062 0.397747 15.712 0 15.226 0H0.880182C0.394186 0 0 0.397747 0 0.890388V35.7993C0 36.2914 0.394186 36.6897 0.880182 36.6897H37.1198C37.6078 36.6897 38 36.2914 38 35.7993V0.890388C38 0.397747 37.6078 0 37.1198 0Z" fill="#00A1CC"/>
<defs>
<linearGradient id="paint0_linear_4892_82408" x1="19" y1="0" x2="19" y2="36.6897" gradientUnits="userSpaceOnUse">
<stop stop-color="#00A1CC"/>
<stop offset="1" stop-color="#0E83A3"/>
</linearGradient>
</defs>
</svg>