<svg fill="none" height="37" viewBox="0 0 38 37" width="38" xmlns="http://www.w3.org/2000/svg"><path d="m37.1198 0h-14.3439c-.4859 0-.8801.397747-.8801.890388v17.536212c0 .4921.3942.8904.8801.8904h2.9325l-6.7082 8.8165-6.7066-8.8165h2.9324c.486 0 .8802-.3983.8802-.8904v-17.536212c0-.492641-.3942-.890388-.8802-.890388h-14.345818c-.485996 0-.880182.397747-.880182.890388v34.908912c0 .4921.394186.8904.880182.8904h36.239618c.488 0 .8802-.3983.8802-.8904v-34.908912c0-.492641-.3922-.890388-.8802-.890388z" fill="#00a1cc"/></svg>