<svg width="17" height="16" viewBox="0 0 17 16" fill="none" xmlns="http://www.w3.org/2000/svg">
<path d="M14.5472 7.26415C14.5472 3.26415 11.283 0 7.28302 0C3.28302 0 0 3.26415 0 7.26415C0 11.2642 3.26415 14.5283 7.26415 14.5283C9 14.5283 10.5849 13.9245 11.8491 12.9057L14.9434 16L16.0189 14.9245L12.9057 11.8491C13.9245 10.6038 14.5472 9 14.5472 7.26415ZM7.26415 13.0377C4.09434 13.0377 1.50943 10.4528 1.50943 7.28302C1.50943 4.11321 4.09434 1.5283 7.26415 1.5283C10.434 1.5283 13.0189 4.11321 13.0189 7.28302C13.0189 10.4528 10.4528 13.0377 7.26415 13.0377Z" fill="white"/>
</svg>
