<svg fill="none" height="16" viewBox="0 0 17 16" width="17" xmlns="http://www.w3.org/2000/svg"><path d="m14.5472 7.26415c0-4-3.2642-7.26415-7.26418-7.26415-4 0-7.28302 3.26415-7.28302 7.26415 0 4.00005 3.26415 7.26415 7.26415 7.26415 1.73585 0 3.32075-.6038 4.58495-1.6226l3.0943 3.0943 1.0755-1.0755-3.1132-3.0754c1.0188-1.2453 1.6415-2.8491 1.6415-4.58495zm-7.28305 5.77355c-3.16981 0-5.75472-2.5849-5.75472-5.75468 0-3.16981 2.58491-5.75472 5.75472-5.75472 3.16985 0 5.75475 2.58491 5.75475 5.75472 0 3.16978-2.5661 5.75468-5.75475 5.75468z" fill="#fff"/></svg>