<svg xmlns="http://www.w3.org/2000/svg" viewBox="0 0 5.027 4.764" height="18.005" width="19">
  <path d="M.335 3.309c.107 0 .194.087.194.194v.467c0 .22.178.397.397.397h.732c.107 0 .194.087.194.195v.007a.194.194 0 01-.19.195H.926a.794.794 0 01-.794-.794v-.467c0-.107.087-.194.195-.194zm4.361 0c.11 0 .199.089.199.198v.463a.794.794 0 01-.794.794h-.728a.199.199 0 010-.397h.728c.22 0 .397-.178.397-.397v-.463c0-.11.089-.198.198-.198zm.133-1.125a.199.199 0 010 .397H.199a.199.199 0 010-.397zM4.1.001c.438 0 .794.356.794.794v.463a.199.199 0 01-.397 0V.795A.397.397 0 004.1.398H3.44a.2.2 0 010-.397zM1.611 0l.022.001a.2.2 0 11-.046.397H.926a.397.397 0 00-.397.397v.463a.199.199 0 01-.397 0V.795c0-.438.356-.794.794-.794h.661a.184.184 0 01.046 0z" fill="#13cdc2" fill-rule="evenodd"/>
</svg>
