<svg viewBox="0 0 200 162" xmlns="http://www.w3.org/2000/svg"><g fill="none"><path d="m200 43.4038877v47.7062635c0 18.6741438-7.417554 36.5835858-20.622167 49.7881998-13.204614 13.204613-31.114057 20.622167-49.7882 20.622167h-129.589633v-47.706263c0-25.4924407 13.5485961-47.8228943 33.8401728-60.1792658a69.8871336 69.8871336 0 0 1 10.9892009-5.4384449 69.1339644 69.1339644 0 0 1 6.8596112-2.2742981c.0453564-.0151188.0928726-.0280777.1382289-.0388769.6868251-.1879049 1.3779698-.3650108 2.0734341-.5313175.0388769-.0107991.075594-.0194384.1144709-.0280777a70.4353775 70.4353775 0 0 1 13.0604752-1.8423326c.5205183-.0237689 1.0410367-.0431966 1.5658747-.0539957.187905-.0064795.3779697-.0107991.5701944-.0107991.3974082-.0086394.7969762-.012959 1.1987041-.012959z" fill="#2c3c5d"/><path d="m93.3045356 130.777538c-51.422527 0-93.1276458 13.866369-93.3024794 30.99352h186.6049678c-.174862-17.127151-41.879961-30.99352-93.3024884-30.99352z" fill="#8e9ab5"/><ellipse cx="76.025918" cy="149.460044" fill="#000" opacity=".1" rx="17.278618" ry="4.799616"/><ellipse cx="113.390929" cy="140.820735" fill="#000" opacity=".1" rx="17.278618" ry="4.799616"/><ellipse cx="76.025918" cy="149.460043" fill="#000" opacity=".1" rx="15.550756" ry="4.319654"/><ellipse cx="113.390929" cy="140.820734" fill="#000" opacity=".1" rx="15.550756" ry="4.319654"/><circle cx="29.805616" cy="62.634989" fill="#f2f2f2" r="1.511879"/><circle cx="159.827214" cy="121.814255" fill="#f2f2f2" r="1.511879"/><circle cx="88.552916" cy="73.218143" fill="#f2f2f2" r="1.511879"/><circle cx="163.49892" cy="64.146868" fill="#eaeaeb" r="1"/><circle cx="33.261339" cy="107.343413" fill="#eaeaeb" r="1"/><path d="m20.3023758 125.555508h-.3935205v-.393521h-.0768899v.393521h-.3935205v.076889h.3935205v.393521h.0768899v-.393521h.3935205zm126.3498922-31.9654432h-.393521v-.3935205h-.07689v.3935205h-.39352v.0768898h.39352v.3935206h.07689v-.3935206h.393521zm32.613391-6.4794816h-.393521v-.3935206h-.07689v.3935206h-.39352v.0768898h.39352v.3935205h.07689v-.3935205h.393521zm-70.194385 17.2786178h-.39352v-.393521h-.07689v.393521h-.393521v.07689h.393521v.39352h.07689v-.39352h.39352zm60.691145 2.159827h-.393521v-.39352h-.076889v.39352h-.393521v.07689h.393521v.39352h.076889v-.39352h.393521zm-73.2181425 9.287257h-.3935206v-.39352h-.0768898v.39352h-.3935205v.07689h.3935205v.39352h.0768898v-.39352h.3935206zm27.6457885.431966h-.393521v-.393521h-.07689v.393521h-.39352v.076889h.39352v.393521h.07689v-.393521h.393521zm-103.4557237-36.7170631h-.3935206v-.3935205h-.0768898v.3935205h-.3935205v.0768899h.3935205v.3935205h.0768898v-.3935205h.3935206z" fill="#f2f2f2"/><path d="m146.219672 49.8248747h1v12.5406955h-1zm-14.092674 33.3384082-5.711663 13.1615551 1.117494 1.862419-.37257.6207344 2.60756 1.3658746v-.7449243l.993304-.2483801 4.221598-7.6982722z" fill="#e6e6e6"/><path d="m127.656959 98.6839179s-4.22162 6.5807601.496661 7.5740821.869158-6.953257.869158-6.953257z" fill="#e6e6e6"/><path d="m133.741058 95.7039503-1.489982 4.8424467-.620828 6.208264-1.117494 2.234976 1.241652 10.057389 1.986644 1.986644.869157 9.933224v4.46995l2.359141 4.097454-3.037966 4.311953c-.291975.412795-.333614.952606-.108397 1.405296.225216.452689.680884.745086 1.186246.7612.670711.017614 1.554875-.171896 2.705108-.766844 3.600795-1.86248 3.476629-3.600795 3.476629-3.600795s2.234976 0 2.35914-1.738313-1.365819-14.154845-1.365819-14.154845l-1.365816-5.339106v-14.527341h.496661l.24833 12.416532 1.117495 4.594114.124164 1.986646 1.614149 19.866447s7.201588 1.986644 7.574082.372495c.372495-1.61415-2.731635-2.607471-2.731635-2.607471l1.86248-3.600793v-6.953257l-.620828-1.489983-1.117494-10.057389 1.862479-1.986645.993322-1.241653v-9.933224l-1.241652-3.849123-.372495-3.228294-1.986645-4.9666113s-9.064059-2.9799719-14.899828.4966566z" fill="#fff"/><path d="m149.882547 67.642594c0 4.1007023-2.648112 7.7321027-6.552618 8.9853341-3.904507 1.2532313-8.17146-.1586013-10.557911-3.4933598-2.38645-3.3347584-2.346082-7.8290359.099885-11.120389l.002486-.002486c2.427594-3.2655905 6.675199-4.6071054 10.538068-3.3282231s6.470784 4.890058 6.47009 8.9591238z" fill="#05989a"/><path d="m148.5415551 63.7301442-.7698185 4.4091102c-5.7848812-15.0165508-14.9867452-5.7923132-15.1456804-5.6309007 1.9330902-2.5996418 5.0645805-4.025943 8.2946716-3.7779775 3.230091.2479655 6.1071847 2.1355297 7.6208273 4.999768z" fill="#000" opacity=".1"/><path d="m148.789886 63.2334773-.769819 4.4091102c-5.784881-15.0165508-14.986743-5.7923132-15.145678-5.6309007 1.933089-2.5996419 5.064579-4.0259432 8.29467-3.7779777s6.107184 2.1355299 7.620827 4.9997682z" fill="#fff"/><path d="m147.4963 61.3720562 1.293586 4.490339s-2.685227 8.0482679-15.137365 8.3287797l-.408115 1.1496761-1.365819.3724967-.620825 2.6074709 1.738314 16.5139827s-.744992 1.614149.496661 1.4899849c0 0 8.194909-2.7316372 15.272332-.2483305 0 0 1.489983.6208251 1.117495-.7449935 0 0 4.966613-3.1041317 4.594116-6.3324298-.372496-3.2282981.372497-18.2522981.372497-18.2522981s.744991-4.3457883-1.489985-5.3391058c-.000013-.0000086-3.282518-4.5945075-5.862892-4.0355723z" fill="#fff"/><path d="m144.774175 92.7467624s-7.779343.7812376-5.625905 5.0953521 5.988121-3.6394406 5.988121-3.6394406z" fill="#e6e6e6"/><path d="m148.76506 73.4783629s-1.365818 1.614149-.869157 4.2216198c.496661 2.6074709 2.35914 8.4432398 2.35914 8.4432398l-6.58076 6.0840993 1.986644 2.7316415 8.939902-4.5941166 1.986644-1.2416566c-.493979-5.0221305-1.723226-9.944422-3.648352-14.6091512l-.324937-.7873499s-2.359141-.9933175-3.849124-.2483261z" fill="#e6e6e6"/><circle cx="148.144233" cy="66.773436" fill="#e6e6e6" r="2.297058"/><circle cx="146.530084" cy="49.762793" fill="#e6e6e6" r="1.676231"/><path d="m103.887689 76.0954644h-.393521v-.3935206h-.076889v.3935206h-.393521v.0768898h.393521v.3935205h.076889v-.3935205h.393521zm35.421166-12.0950324h-.39352v-.3935206h-.07689v.3935206h-.393521v.0768898h.393521v.3935205h.07689v-.3935205h.39352zm-3.887689 3.6717062h-.39352v-.3935205h-.07689v.3935205h-.393521v.0768899h.393521v.3935205h.07689v-.3935205h.39352z" fill="#f2f2f2"/><circle cx="120.086393" cy="57.667387" fill="#f2f2f2" r="1"/><path d="m77.5286825 63.7569114c0 60.2686826-7.5785011 60.2686826-16.9243261 60.2686826-4.8318186 0-9.1908316 0-12.2733672-8.325227-.8862484-2.392656-1.6691685-5.477799-2.325486-9.449201-1.4779697-8.9272567-2.3254859-22.3426887-2.3254859-42.494261 0-7.7490152.9172786-15.3455897 2.3254859-22.440892.676972-3.415864 1.4676199-6.7128813 2.325486-9.8574514 1.0490648-3.8499676 2.1988726-7.4699676 3.3590259-10.782486.7777538-2.2272916 1.5632527-4.3176307 2.325486-6.2477883 3.5218142-8.9091663 6.5888618-14.4282938 6.5888618-14.4282938s16.9243196 30.4715443 16.9243196 63.7569179z" fill="#f2f2f2"/><path d="m54.0154942 14.4282941v105.0755399h-2.325486v-98.8277429c.7777538-2.2272916 1.5632592-4.3176307 2.325486-6.247797z" fill="#000" opacity=".1"/><circle cx="60.087581" cy="41.600253" fill="#3f3d56" r="9.30192"/><g fill="#05989a"><path d="m80.5001253 118.341091c-2.0682355-5.091085-4.7238316-5.969437-6.4596566-5.893056v-.825003h-27.1306134v.825003c-1.7358251-.076381-4.3914212.801971-6.4596566 5.893056-3.3590151 8.268378 2.0670799 22.479643 2.0670799 22.479643s-2.8998164-19.820086 6.7296609-19.95054c.8339359 1.087821 1.8572848 2.016269 3.0208791 2.740735v5.330756h15.5507559v-4.845374c1.520129-.770985 2.8477262-1.873485 3.8848143-3.226134 9.6294773.130471 6.7296566 19.950557 6.7296566 19.950557s5.426095-14.211265 2.0670799-22.479643z"/><circle cx="60.087581" cy="41.600253" r="7.234827"/><path d="m182.723542 43.4038877h-.431965c.06459 9.7374513 7.970764 17.6002324 17.708423 17.6112311v-.4319655c-9.499383-.0102977-17.212569-7.6800918-17.276458-17.1792656z"/><path d="m174.732181 43.4038877h-.431965c.068347 14.1494387 11.550188 25.5878571 25.699784 25.6025918v-.4319655c-13.910687-.0155615-25.198647-11.2601026-25.267819-25.1706263z"/><path d="m166.522678 43.4038877h-.431965c.053995 18.6522678 15.24406 33.8099352 33.909287 33.8099352v-.4319654c-18.427646 0-33.423326-14.963283-33.477322-33.3779698z"/></g></g></svg>