<svg xmlns="http://www.w3.org/2000/svg" xmlns:xlink="http://www.w3.org/1999/xlink" viewBox="0 0 23 23">
  <defs>
    <path id="a" d="M.0001559.502H21.4986v21.4978H.0001559z"/>
  </defs>
  <g fill="none" fill-rule="evenodd">
    <path fill="#FFF" d="M14.3101 9.5898c-.387.387-1.015.386-1.402.001-.386-.387-.385-1.016.002-1.402.186-.188.434-.29.698-.29.265 0 .514.102.701.29l.019.017c.366.389.36 1.004-.018 1.384m-.702-3.169h-.002c-.669 0-1.31.258-1.758.708-.47.47-.729 1.095-.729 1.76 0 .666.259 1.291.729 1.762.47.469 1.095.729 1.76.729s1.291-.26 1.761-.729c.97-.971.971-2.551.001-3.523-.45-.449-1.092-.707-1.762-.707"/>
    <g transform="translate(0 .498)">
      <mask id="b" fill="#fff">
        <use xlink:href="#a"/>
      </mask>
      <path fill="#FFF" d="M9.2066 19.8818c-.036.035-.083.057-.133.061l-7.224.5560996c-.101.0019004-.188-.0260996-.255-.0940996-.048-.048-.103-.131-.094-.253l.556-7.227c.004-.051.026-.098.061-.133l10.449-10.45c.221-.222.515-.343.829-.343.315 0 .609.121.83.343l5.431 5.432c.456.458.457 1.202.001 1.659l.001-.001-10.452 10.45Zm11.51-13.167-5.432-5.434c-1.04-1.039-2.736-1.039-3.778 0l-10.449 10.452c-.289.289-.466.671-.496 1.079l-.556 7.225c-.041.531.151 1.051.528 1.431.345.343.803.532 1.287.532.048 0 .096-.002.141-.006l7.226-.555c.407-.032.79-.207 1.08-.495l10.45-10.452c.504-.504.781-1.174.781-1.888s-.278-1.385-.782-1.889Z" mask="url(#b)"/>
    </g>
  </g>
</svg>
