<svg fill="none" height="18" viewBox="0 0 18 18" width="18" xmlns="http://www.w3.org/2000/svg" xmlns:xlink="http://www.w3.org/1999/xlink"><mask id="a" fill="#000" height="18" maskUnits="userSpaceOnUse" width="18" x="0" y="0"><path d="m0 0h18v18h-18z" fill="#fff"/><path clip-rule="evenodd" d="m6.89371 11.7614c-.17348 0-.33996-.069-.46288-.1917-.12261-.1229-.19162-.2894-.19162-.4628 0-.1737.069-.3402.19161-.4631l9.47008-9.46807c.1672-.15566.4036-.21308.6235-.15139.2201.06168.3921.23366.4538.45375.0618.22007.0044.45632-.1514.62356l-9.47006 9.46805c-.12292.1227-.2894.1917-.46303.1917zm-5.70167 5.0468c-.12277-.1229-.19176-.2895-.19176-.4632l-.00028-13.39406c0-.17379.069-.34043.19176-.46334.12292-.12277.28956-.19177.46319-.19177l6.69926-.00015v1.31022h-6.04419v12.0841h12.08408l-.0002-6.04421h1.3103v6.69921c0 .1737-.069.3403-.1918.4632-.1229.1228-.2896.1918-.4633.1918h-13.39387c-.17364 0-.34027-.069-.46319-.1918z" fill="#000" fill-rule="evenodd"/></mask><g fill="#fff"><path clip-rule="evenodd" d="m6.89371 11.7614c-.17348 0-.33996-.069-.46288-.1917-.12261-.1229-.19162-.2894-.19162-.4628 0-.1737.069-.3402.19161-.4631l9.47008-9.46807c.1672-.15566.4036-.21308.6235-.15139.2201.06168.3921.23366.4538.45375.0618.22007.0044.45632-.1514.62356l-9.47006 9.46805c-.12292.1227-.2894.1917-.46303.1917zm-5.70167 5.0468c-.12277-.1229-.19176-.2895-.19176-.4632l-.00028-13.39406c0-.17379.069-.34043.19176-.46334.12292-.12277.28956-.19177.46319-.19177l6.69926-.00015v1.31022h-6.04419v12.0841h12.08408l-.0002-6.04421h1.3103v6.69921c0 .1737-.069.3403-.1918.4632-.1229.1228-.2896.1918-.4633.1918h-13.39387c-.17364 0-.34027-.069-.46319-.1918z" fill-rule="evenodd"/><path d="m6.43083 11.5697-.14159.1413.00034.0003zm-.00001-.9259-.1414-.1414-.00019.0002zm9.47008-9.46807-.1364-.14648-.005.00505zm.6235-.15139-.054.19257.0001.00001zm.4538.45375-.1926.05397v.00013zm-.1514.62356.1415.14153.0048-.00519zm-9.47006 9.46805.14125.1416.00016-.0001zm-6.35646 4.7753h.2zm.19176.4632-.14151.1414.00018.0001zm-.19204-13.85726h-.2v.00001zm.19176-.46334-.14133-.14151-.00018.00017zm.46319-.19177v.2h.00001zm6.69926-.00015h.2v-.2h-.20001zm0 1.31022v.2h.2v-.2zm-6.04419 0v-.2h-.2v.2zm0 12.0841h-.2v.2h.2zm12.08408 0v.2h.2v-.2zm-.0002-6.04421v-.2h-.2v.20001zm1.3103 0h.2v-.2h-.2zm-.1918 7.16241.1413.1415.0002-.0001zm-9.22282-5.0969c.16031.1599.37754.2501.60413.2501v-.4c-.12038 0-.23611-.0479-.32163-.1333zm-.25037-.6044c0 .2265.09011.4438.25003.6041l.28318-.2825c-.08531-.0855-.13321-.2013-.13321-.3216zm.25002-.6043c-.15993.1603-.25002.3775-.25002.6043h.4c0-.1206.04791-.2363.13321-.3218zm9.47027-9.4683-9.47008 9.4681.28281.2829 9.47007-9.46813zm.8189-.202534c-.2871-.080528-.5956-.005567-.8138.197574l.2725.29279c.1163-.10819.2806-.14807.4333-.10522zm.5924.592344c-.0806-.28731-.3051-.511826-.5924-.592354l-.1079.385164c.1528.04284.2723.16228.3151.31514zm-.1977.81388c.2034-.21827.2784-.52668.1976-.81401l-.3851.10821c.043.15282.0031.31691-.1051.43313zm-9.47495 9.47321 9.47005-9.46811-.2828-.28287-9.47007 9.46808zm-.60444.2502c.22671 0 .44396-.0901.60428-.2501l-.2825-.2831c-.08551.0852-.20122.1332-.32178.1332zm-6.093433 4.3836c0 .2267.090063.4442.250253.6046l.28302-.2827c-.08534-.0854-.13327-.2013-.13327-.3219zm-.000277-13.39405.000277 13.39415.400003-.0001-.00028-13.39406zm.25025-.60469c-.160199.16041-.25025.37787-.25025.60468h.4c0-.12078.04795-.23658.13327-.32201zm.6047-.25043c-.22668 0-.44413.09007-.60452.25026l.28267.28302c.08545-.08535.20126-.13328.32185-.13328zm6.69925-.00015-6.69925.00015.00001.4 6.69925-.00015zm.20001 1.51022v-1.31022h-.4v1.31022zm-6.24419.2h6.04419v-.4h-6.04419zm.2 11.8841v-12.0841h-.4v12.0841zm11.88408-.2h-12.08408v.4h12.08408zm-.2002-5.8442.0002 6.0442h.4l-.0002-6.04421zm1.5103-.20001h-1.3103v.4h1.3103zm.2 6.89921v-6.69921h-.4v6.69921zm-.2503.6046c.1602-.1604.2503-.3779.2503-.6046h-.4c0 .1206-.048.2365-.1333.3219zm-.6048.2504c.2268 0 .4442-.09.6046-.2503l-.2826-.283c-.0855.0854-.2013.1333-.322.1333zm-13.39387 0h13.39387v-.4h-13.39387zm-.60452-.2503c.16038.1602.37783.2503.60452.2503v-.4c-.1206 0-.23641-.0479-.32186-.1333z" mask="url(#a)"/></g></svg>