<svg fill="none" height="14" viewBox="0 0 16 14" width="16" xmlns="http://www.w3.org/2000/svg"><path d="m6.39745.302073c-.66998.669972-1.33995 1.339947-2.01256 2.012557l-3.938063 3.93806c-.092319.09232-.163536.19783-.211015.31125-.063305.14243-.092319.29542-.089681.4484.002636.26641.102869.53545.303333.73328.669976.66997 1.339946 1.33995 2.012556 2.01255l3.93543 3.93803c.39037.3904 1.10782.4194 1.49293 0 .38774-.422.41675-1.0761 0-1.4929l-4.14645-4.14643h9.37437c.5512 0 1.1052.00791 1.6564 0h.0238c.5512 0 1.0814-.48534 1.055-1.05508-.0263-.57237-.4642-1.05507-1.055-1.05507h-11.05984c.07122-.07122.14243-.14243.21365-.21365l3.20479-3.20479c.2453-.24531.48797-.48797.73328-.73328.39037-.39038.41939-1.107825 0-1.492927-.42203-.3877397-1.07618-.416754-1.49293 0z" fill="#fff"/></svg>