<svg xmlns="http://www.w3.org/2000/svg" viewBox="0 0 20 20">
  <path fill="#FFF" fill-rule="evenodd" d="M9.6591111.0001111c.48 0 .87.39.87.87 0 .4811111-.39.87-.87.87H3.3535556c-.8922223.0033333-1.6133334.7277778-1.6133334 1.6177778v13.0077778c0 .8911111.7211111 1.6155555 1.6133334 1.6177777h13.0111111c.8944444 0 1.6188889-.7244444 1.6188889-1.6177777v-6.08c0-.4811111.39-.87.87-.87.4811111 0 .8711111.3888889.8711111.87v6.08c-.0033334 1.8544444-1.51 3.3577777-3.3655556 3.3577777H3.3535556C1.5002222 19.7201111.0002222 18.2178889.0002222 16.3656667V3.3578889c0-1.8522222 1.5-3.3544445 3.3533334-3.3577778Zm9.2002222.0522222c.11 0 .2177778.0211111.3188889.0644445.1066667.0433333.2033334.1055555.2844445.1855555.08.0822223.1455555.1777778.1922222.2833334.0411111.101111.0633333.21.0633333.3188889v4.81c0 .48-.39.87-.8711111.87-.48-.0033334-.8666667-.3955556-.8633333-.8755556V3.0112222l-7.3733334 7.3611111c-.3422222.34-.8933333.34-1.2355555 0-.3366667-.3411111-.3366667-.8888889 0-1.2288889l7.3955555-7.351111h-2.6211111c-.4811111 0-.87-.388889-.87-.87 0-.4811112.3888889-.87.87-.87Z"/>
</svg>
