<svg fill="none" height="18" viewBox="0 0 15 18" width="15" xmlns="http://www.w3.org/2000/svg"><g fill="#313131"><path d="m11.4674.2c-1.63052 0-2.96507 1.33454-2.96507 2.96512 0 .25476.03763.49873.09883.73509l-3.61372 2.46476c-.50362-.39432-1.13706-.63009-1.82232-.63009-1.63056 0-2.96512 1.33454-2.96512 2.96512 0 1.6306 1.33456 2.9651 2.96512 2.9651.68832 0 1.32378-.2387 1.82849-.6363l3.60755 2.4648c-.06217.2381-.09883.4844-.09883.7413 0 1.6305 1.33455 2.9651 2.96507 2.9651 1.6306 0 2.9652-1.3346 2.9652-2.9651 0-1.6306-1.3346-2.9651-2.9652-2.9651-.9453 0-1.79103.448-2.33499 1.1428l-3.36665-2.2918c.23306-.4229.36447-.90639.36447-1.4208 0-.51744-.13505-1.00235-.37064-1.42697l3.37282-2.29178c.54387.69692 1.38799 1.14898 2.33499 1.14898 1.6306 0 2.9652-1.33456 2.9652-2.96511 0-1.63058-1.3346-2.96512-2.9652-2.96512zm0 1.18605c.9896 0 1.7791.78949 1.7791 1.77907 0 .98957-.7895 1.77907-1.7791 1.77907-.9895 0-1.77903-.7895-1.77903-1.77907 0-.98958.78953-1.77907 1.77903-1.77907zm-8.30228 5.53488c.98958 0 1.77907.78949 1.77907 1.77907s-.78949 1.7791-1.77907 1.7791-1.77907-.78952-1.77907-1.7791.78949-1.77907 1.77907-1.77907zm8.30228 5.53487c.9896 0 1.7791.7895 1.7791 1.7791s-.7895 1.7791-1.7791 1.7791c-.9895 0-1.77903-.7895-1.77903-1.7791s.78953-1.7791 1.77903-1.7791z"/><path clip-rule="evenodd" d="m8.30233 3.16512c0-1.74104 1.4241-3.16512 3.16507-3.16512 1.7411 0 3.1652 1.42408 3.1652 3.16512 0 1.74101-1.4241 3.16511-3.1652 3.16511-.945 0-1.79296-.42129-2.37293-1.08139l-3.0757 2.08988c.19907.41283.31146.87355.31146 1.36128 0 .48424-.1092.94332-.30584 1.3549l3.07046 2.0901c.58055-.658 1.42985-1.0752 2.37255-1.0752 1.7411 0 3.1652 1.424 3.1652 3.1651 0 1.741-1.4241 3.1651-3.1652 3.1651-1.74097 0-3.16507-1.4241-3.16507-3.1651 0-.2262.02647-.4439.07226-.6539l-3.37553-2.3062c-.51788.3705-1.15148.5903-1.83394.5903-1.74102 0-3.16512-1.4241-3.16512-3.1651 0-1.74104 1.4241-3.16512 3.16512-3.16512.6792 0 1.3107.21699 1.82751.58446l3.38205-2.30675c-.04521-.20747-.07235-.42289-.07235-.64747zm.29883.73509c-.0612-.23636-.09883-.48033-.09883-.73509 0-1.63058 1.33455-2.96512 2.96507-2.96512 1.6306 0 2.9652 1.33454 2.9652 2.96512 0 1.63055-1.3346 2.96511-2.9652 2.96511-.947 0-1.79112-.45206-2.33499-1.14898l-3.37282 2.29178c.23559.42462.37064.90953.37064 1.42697 0 .51441-.13141.9979-.36447 1.4208l3.36665 2.2918c.54396-.6948 1.38969-1.1428 2.33499-1.1428 1.6306 0 2.9652 1.3345 2.9652 2.9651 0 1.6305-1.3346 2.9651-2.9652 2.9651-1.63052 0-2.96507-1.3346-2.96507-2.9651 0-.2569.03666-.5032.09883-.7413l-3.60755-2.4648c-.50471.3976-1.14017.6363-1.82849.6363-1.63056 0-2.96512-1.3345-2.96512-2.9651 0-1.63058 1.33456-2.96512 2.96512-2.96512.68526 0 1.3187.23577 1.82232.63009zm4.44534-.73509c0-.87912-.6999-1.57907-1.5791-1.57907-.8791 0-1.57903.69995-1.57903 1.57907s.69993 1.57907 1.57903 1.57907c.8792 0 1.5791-.69995 1.5791-1.57907zm-8.30231 5.53488c0-.87912-.69995-1.57907-1.57907-1.57907s-1.57907.69995-1.57907 1.57907.69995 1.5791 1.57907 1.5791 1.57907-.69998 1.57907-1.5791zm8.30231 5.5349c0-.8791-.6999-1.5791-1.5791-1.5791-.8791 0-1.57903.7-1.57903 1.5791s.69993 1.5791 1.57903 1.5791c.8792 0 1.5791-.7 1.5791-1.5791zm.2-11.06978c0-.98958-.7895-1.77907-1.7791-1.77907-.9895 0-1.77903.78949-1.77903 1.77907 0 .98957.78953 1.77907 1.77903 1.77907.9896 0 1.7791-.7895 1.7791-1.77907zm-8.30231 5.53488c0-.98958-.78949-1.77907-1.77907-1.77907s-1.77907.78949-1.77907 1.77907.78949 1.7791 1.77907 1.7791 1.77907-.78952 1.77907-1.7791zm8.30231 5.5349c0-.9896-.7895-1.7791-1.7791-1.7791-.9895 0-1.77903.7895-1.77903 1.7791s.78953 1.7791 1.77903 1.7791c.9896 0 1.7791-.7895 1.7791-1.7791z" fill-rule="evenodd"/></g></svg>