<svg width="16" height="21" viewBox="0 0 16 21" fill="none" xmlns="http://www.w3.org/2000/svg">
<path d="M1.5 8.74934V19.2493C1.5 19.3873 1.612 19.4993 1.75 19.4993H14.25C14.3163 19.4993 14.3799 19.473 14.4268 19.4261C14.4737 19.3792 14.5 19.3156 14.5 19.2493V8.74934C14.5 8.68304 14.4737 8.61945 14.4268 8.57256C14.3799 8.52568 14.3163 8.49934 14.25 8.49934H11.75C11.5511 8.49934 11.3603 8.42032 11.2197 8.27967C11.079 8.13902 11 7.94825 11 7.74934C11 7.55043 11.079 7.35966 11.2197 7.21901C11.3603 7.07836 11.5511 6.99934 11.75 6.99934H14.25C15.216 6.99934 16 7.78334 16 8.74934V19.2493C16 19.7135 15.8156 20.1586 15.4874 20.4868C15.1592 20.815 14.7141 20.9993 14.25 20.9993H1.75C1.28587 20.9993 0.840752 20.815 0.512563 20.4868C0.184375 20.1586 0 19.7135 0 19.2493V8.74934C0 7.78334 0.784 6.99934 1.75 6.99934H4.25C4.44891 6.99934 4.63968 7.07836 4.78033 7.21901C4.92098 7.35966 5 7.55043 5 7.74934C5 7.94825 4.92098 8.13902 4.78033 8.27967C4.63968 8.42032 4.44891 8.49934 4.25 8.49934H1.75C1.6837 8.49934 1.62011 8.52568 1.57322 8.57256C1.52634 8.61945 1.5 8.68304 1.5 8.74934ZM8.53 0.21934L11.78 3.46934C11.8787 3.56101 11.9509 3.67761 11.9889 3.80686C12.0269 3.93611 12.0294 4.07322 11.996 4.20375C11.9626 4.33427 11.8947 4.45338 11.7993 4.54852C11.7039 4.64366 11.5846 4.71131 11.454 4.74434C11.3236 4.77765 11.1867 4.77526 11.0575 4.73744C10.9284 4.69961 10.8118 4.62773 10.72 4.52934L8.75 2.55934V13.2493C8.75 13.4483 8.67098 13.639 8.53033 13.7797C8.38968 13.9203 8.19891 13.9993 8 13.9993C7.80109 13.9993 7.61032 13.9203 7.46967 13.7797C7.32902 13.639 7.25 13.4483 7.25 13.2493V2.55934L5.28 4.52934C5.13785 4.66198 4.94975 4.73424 4.75536 4.73089C4.56097 4.72753 4.37548 4.64881 4.238 4.51134C4.10053 4.37386 4.02181 4.18837 4.01846 3.99398C4.0151 3.79959 4.08736 3.61149 4.22 3.46934L7.47 0.21934C7.61063 0.0788896 7.80125 0 8 0C8.19875 0 8.38937 0.0788896 8.53 0.21934Z" fill="white"/>
</svg>
