<svg width="26" height="26" viewBox="0 0 26 26" fill="none" xmlns="http://www.w3.org/2000/svg">
<path d="M23.8333 0H2.16667C1.59203 0 1.04093 0.219142 0.634602 0.609216C0.228273 0.999291 0 1.52835 0 2.07999V9.35997C0 16.2136 3.45583 20.367 6.3551 22.6446C9.47781 25.0964 12.5843 25.9284 12.7197 25.9635C12.9059 26.0122 13.1022 26.0122 13.2884 25.9635C13.4239 25.9284 16.5263 25.0964 19.653 22.6446C22.5442 20.367 26 16.2136 26 9.35997V2.07999C26 1.52835 25.7717 0.999291 25.3654 0.609216C24.9591 0.219142 24.408 0 23.8333 0ZM23.8333 9.35997C23.8333 14.1791 21.9835 18.0907 18.3354 20.9845C16.7474 22.24 14.9413 23.2169 13 23.8705C11.0842 23.2282 9.30043 22.2686 7.72958 21.0352C4.03813 18.1362 2.16667 14.209 2.16667 9.35997V2.07999H23.8333V9.35997ZM6.81687 13.2158C6.6136 13.0206 6.4994 12.7559 6.4994 12.48C6.4994 12.204 6.6136 11.9393 6.81687 11.7442C7.02015 11.549 7.29586 11.4394 7.58333 11.4394C7.87081 11.4394 8.14651 11.549 8.34979 11.7442L10.8333 14.1297L17.6502 7.58418C17.7509 7.48755 17.8704 7.4109 18.0019 7.35861C18.1334 7.30632 18.2743 7.2794 18.4167 7.2794C18.559 7.2794 18.7 7.30632 18.8315 7.35861C18.963 7.4109 19.0825 7.48755 19.1831 7.58418C19.2838 7.6808 19.3636 7.79552 19.4181 7.92177C19.4726 8.04801 19.5006 8.18333 19.5006 8.31998C19.5006 8.45663 19.4726 8.59194 19.4181 8.71819C19.3636 8.84444 19.2838 8.95915 19.1831 9.05578L11.5998 16.3358C11.4992 16.4324 11.3797 16.5092 11.2482 16.5615C11.1167 16.6138 10.9757 16.6408 10.8333 16.6408C10.691 16.6408 10.55 16.6138 10.4185 16.5615C10.287 16.5092 10.1675 16.4324 10.0669 16.3358L6.81687 13.2158Z" fill="black"/>
</svg>
