<svg fill="none" height="37" viewBox="0 0 300 37" width="300" xmlns="http://www.w3.org/2000/svg" xmlns:xlink="http://www.w3.org/1999/xlink"><linearGradient id="a"><stop offset="0" stop-color="#ff416c"/><stop offset="1" stop-color="#ff4b2b"/></linearGradient><linearGradient id="b" gradientUnits="userSpaceOnUse" x1="24.853" x2="6.425" xlink:href="#a" y1="27.852" y2="2.633"/><linearGradient id="c" gradientUnits="userSpaceOnUse" x1="31.3528" x2="12.8478" xlink:href="#a" y1="34.318" y2="8.995"/><g fill="#f2f2f2"><path d="m68.4059 13.8132-4.7317-4.8717h-6.4635l-3.4947 3.5767v2.9291l3.2473 1.665h7.7315l5.1647 2.7134v5.8275l-5.041 5.18h-8.7521l-5.5049-5.6425 1.9175-2.0042 4.7317 4.8717h6.4635l3.4947-3.5767v-2.96l-3.1545-1.6342h-7.6697l-5.3502-2.7133v-5.8275l5.0719-5.18h8.7521l5.5049 5.6425z"/><path d="m87.1709 8.9415h-4.9791v19.1167h4.9791v2.775h-12.6797v-2.775h4.9791v-19.1167h-4.9791v-2.775h12.6797z"/><path d="m106.363 30.8332h-13.7927v-24.6667h13.7927l5.072 5.18v14.3067zm2.351-18.315-3.464-3.5767h-9.9582v19.1167h9.9582l3.464-3.5767z"/><path d="m117.305 30.8332v-24.6667h18.865v2.775h-16.144v8.1708h9.34v2.775h-9.34v8.1709h16.144v2.775z"/><path d="m157.409 13.8132-4.732-4.8717h-6.463l-3.495 3.5767v2.9291l3.247 1.665h7.732l5.164 2.7134v5.8275l-5.041 5.18h-8.752l-5.504-5.6425 1.917-2.0042 4.732 4.8717h6.463l3.495-3.5767v-2.96l-3.155-1.6342h-7.669l-5.35-2.7133v-5.8275l5.071-5.18h8.752l5.505 5.6425z"/><path d="m180.411 30.8332v-10.9459h-13.421v10.9459h-2.722v-24.6667h2.722v10.9458h13.421v-10.9458h2.722v24.6667z"/><path d="m201.211 8.9415h-4.979v19.1167h4.979v2.775h-12.679v-2.775h4.979v-19.1167h-4.979v-2.775h12.679z"/><path d="m209.332 8.9415v8.1708h9.339v2.775h-9.339v10.9459h-2.722v-24.6667h18.865v2.775z"/><path d="m246.67 8.9415h-8.071v21.8917h-2.722v-21.8917h-8.071v-2.775h18.864z"/><path d="m252.855 30.8336v-4.44h3.061v4.44z"/><path d="m279.2 30.8332v-10.9459h-13.422v10.9459h-2.721v-19.4867l5.071-5.18h8.722l5.071 5.18v19.4867zm0-18.315-3.464-3.5767h-6.494l-3.464 3.5767v4.5941h13.422z"/><path d="m300 8.9415h-4.979v19.1167h4.979v2.775h-12.68v-2.775h4.979v-19.1167h-4.979v-2.775h12.68z"/></g><path d="m30.5887 4.42356c-3.2299-2.74893-7.4414-4.42356-12.0328-4.42356-10.25959 0-18.5559 8.27837-18.5559 18.5157 0 4.5816 1.67826 8.784 4.43314 12.0068z" fill="url(#b)"/><path d="m6.39648 32.4817c3.26152 2.8121 7.50462 4.5183 12.15942 4.5183 10.2596 0 18.5559-8.2784 18.5559-18.5157 0-4.6448-1.7099-8.87875-4.5282-12.13323z" fill="url(#c)"/></svg>