<svg width="300" height="37" viewBox="0 0 300 37" fill="none" xmlns="http://www.w3.org/2000/svg">
<defs>
<linearGradient id="paint0_linear_514_20541" x1="24.853" y1="27.852" x2="6.425" y2="2.633" gradientUnits="userSpaceOnUse">
<stop stop-color="#FF416C"/>
<stop offset="1" stop-color="#FF4B2B"/>
</linearGradient>
<linearGradient id="paint1_linear_514_20541" x1="31.3528" y1="34.318" x2="12.8478" y2="8.995" gradientUnits="userSpaceOnUse">
<stop stop-color="#FF416C"/>
<stop offset="1" stop-color="#FF4B2B"/>
</linearGradient>
</defs>

<path d="M68.4059 13.8132L63.6742 8.9415H57.2107L53.716 12.5182V15.4473L56.9633 17.1123H64.6948L69.8595 19.8257V25.6532L64.8185 30.8332H56.0664L50.5615 25.1907L52.479 23.1865L57.2107 28.0582H63.6742L67.1689 24.4815V21.5215L64.0144 19.8873H56.3447L50.9945 17.174V11.3465L56.0664 6.1665H64.8185L70.3234 11.809L68.4059 13.8132Z" fill="#F2F2F2"/>
<path d="M87.1709 8.9415H82.1918V28.0582H87.1709V30.8332H74.4912V28.0582H79.4703V8.9415H74.4912V6.1665H87.1709V8.9415Z" fill="#F2F2F2"/>
<path d="M106.363 30.8332H92.5703V6.1665H106.363L111.435 11.3465V25.6532L106.363 30.8332ZM108.714 12.5182L105.25 8.9415H95.2918V28.0582H105.25L108.714 24.4815V12.5182Z" fill="#F2F2F2"/>
<path d="M117.305 30.8332V6.1665H136.17V8.9415H120.026V17.1123H129.366V19.8873H120.026V28.0582H136.17V30.8332H117.305Z" fill="#F2F2F2"/>
<path d="M157.409 13.8132L152.677 8.9415H146.214L142.719 12.5182V15.4473L145.966 17.1123H153.698L158.862 19.8257V25.6532L153.821 30.8332H145.069L139.565 25.1907L141.482 23.1865L146.214 28.0582H152.677L156.172 24.4815V21.5215L153.017 19.8873H145.348L139.998 17.174V11.3465L145.069 6.1665H153.821L159.326 11.809L157.409 13.8132Z" fill="#F2F2F2"/>
<path d="M180.411 30.8332V19.8873H166.99V30.8332H164.268V6.1665H166.99V17.1123H180.411V6.1665H183.133V30.8332H180.411Z" fill="#F2F2F2"/>
<path d="M201.211 8.9415H196.232V28.0582H201.211V30.8332H188.532V28.0582H193.511V8.9415H188.532V6.1665H201.211V8.9415Z" fill="#F2F2F2"/>
<path d="M209.332 8.9415V17.1123H218.671V19.8873H209.332V30.8332H206.61V6.1665H225.475V8.9415H209.332Z" fill="#F2F2F2"/>
<path d="M246.67 8.9415H238.599V30.8332H235.877V8.9415H227.806V6.1665H246.67V8.9415Z" fill="#F2F2F2"/>
<path d="M252.855 30.8336V26.3936H255.916V30.8336H252.855Z" fill="#F2F2F2"/>
<path d="M279.2 30.8332V19.8873H265.778V30.8332H263.057V11.3465L268.128 6.1665H276.85L281.921 11.3465V30.8332H279.2ZM279.2 12.5182L275.736 8.9415H269.242L265.778 12.5182V17.1123H279.2V12.5182Z" fill="#F2F2F2"/>
<path d="M300 8.9415H295.021V28.0582H300V30.8332H287.32V28.0582H292.299V8.9415H287.32V6.1665H300V8.9415Z" fill="#F2F2F2"/>
<path d="M30.5887 4.42356C27.3588 1.67463 23.1473 0 18.5559 0C8.29631 0 0 8.27837 0 18.5157C0 23.0973 1.67826 27.2997 4.43314 30.5225L30.5887 4.42356Z" fill="url(#paint0_linear_514_20541)"/>
<path d="M6.39648 32.4817C9.658 35.2938 13.9011 37 18.5559 37C28.8155 37 37.1118 28.7216 37.1118 18.4843C37.1118 13.8395 35.4019 9.60555 32.5836 6.35107L6.39648 32.4817Z" fill="url(#paint1_linear_514_20541)"/>
</svg>
