<svg fill="none" height="15" viewBox="0 0 16 15" width="16" xmlns="http://www.w3.org/2000/svg"><path d="m9.60353 14.1979c.66997-.6699 1.33997-1.3399 2.01257-2.0125l3.938-3.93809c.0924-.09232.1636-.19783.2111-.31125.0633-.14243.0923-.29542.0896-.4484-.0026-.26641-.1028-.53545-.3033-.73328-.67-.66997-1.3399-1.33995-2.0125-2.01255l-3.93547-3.938069c-.39038-.390378-1.10783-.419392-1.49293 0-.38774.422029-.41675 1.076179 0 1.492929l4.1464 4.14644h-9.37429c-.55128 0-1.10519-.00791-1.65647 0h-.02374c-.551273 0-1.081448.48534-1.055071 1.05508.026377.57237.464233 1.05507 1.055071 1.05507h11.0598c-.0712.07122-.1424.14243-.2136.21365l-3.20482 3.20477c-.24531.2453-.48797.488-.73328.7333-.39038.3904-.41939 1.1078 0 1.4929.42203.3878 1.07618.4168 1.49293 0z" fill="#fafafa"/></svg>