<svg version="1.1" id="Layer_1" xmlns="http://www.w3.org/2000/svg" xmlns:xlink="http://www.w3.org/1999/xlink" x="0px" y="0px"
	viewBox="0 0 755.3 920.5" style="enable-background:new 0 0 755.3 920.5;" xml:space="preserve">
<g>
	<g>
		<path d="M530.3,408c-0.2,23.9-0.1,48.2,0,71.7l0,8.3c0,11.3,2.5,22.1,7.5,32.3c1.1,2.3-0.3,7.5-1.9,8.6
			c-20.1,12.9-42,17.6-65.1,14.1c-0.4-0.2-1.2-0.9-1.5-1.5c-14.2-25.7-43.6-38.1-71.5-30.2c-28,7.9-46.7,33.8-45.4,62.8
			c0.9,19.8,11,37.6,27.7,48.7c16.7,11.1,36.9,13.5,55.4,6.7c2.8-1,5.3-1.1,9.1-0.5c7.8,1.4,15.6,2.6,23.8,3.8
			c-31.1,29-60.1,41.8-92.9,41.2c-24.2-0.5-47.4-9.4-70.9-27.4c-28.3-21.7-51.8-51.3-71.6-90.5c-3.2-6.4-6.2-13.3-9-19.9
			c-1.5-3.6-3.1-7.2-4.7-10.9c-0.7-1.5-1.4-2.8-2.2-4.2c7.3-13.8,8.2-29.1,8-43.7c-0.2-15.7-0.1-31.7-0.1-47.1c0-6.9,0-13.8,0-20.7
			c0-20.1-6.7-37.5-20-51.9c-0.2-0.2-0.4-0.9-0.5-1.2c6.5-44.6,27-81,60.7-108.1c29.2-23.5,64.6-35.8,105.4-36.6
			c35.1-0.7,62.4,4.3,85.9,15.8c26.4,13,47.7,30.5,63.3,52.1c15.3,21.2,25.6,46.9,30.5,76.3c0,0.5-0.3,1.6-0.7,1.9
			C537,372.2,530.4,389,530.3,408z" fill="#FFFFFF"/>
	</g>
	<path d="M585.5,525.3c-17.4-9.5-23.5-24.3-23.1-43.3c0.6-24.1,0.1-48.3,0.1-72.4c0-15.7,6.5-27.9,19.6-36.5c1.4-0.9,2.5-3.4,2.4-5
		c-5.7-93.9-77.8-174.1-170.5-189.8c-108-18.4-209.4,46.6-237.4,152.5c-3.2,12.1-4.3,24.9-6,37.3c-0.2,1.6,1.1,4.1,2.5,5
		c13,8.6,19.6,20.5,19.6,36.1c0,26.5,0.2,52.9,0,79.4c-0.2,20.4-14.6,37.1-34.1,40.2c-21.2,3.3-40.7-8.1-46.8-27.7
		c-1.3-4.2-1.9-8.8-1.9-13.2c-0.2-26.5-0.1-52.9-0.1-79.4c0-15.4,6.9-27,19.8-35.4c1.7-1.1,3.2-3.7,3.3-5.7
		c4.7-62.3,28.9-115.8,73.4-159.5c39.8-39.1,87.6-62.3,143.1-68.3c106.3-11.6,203.4,42.7,249.8,139.1c13.4,27.9,20.7,57.5,22.8,88.3
		c0.2,3.1,1.1,4.9,3.9,6.7c12.6,7.9,19.3,19.5,19.4,34.5c0.1,26.8,0.1,53.6,0,80.4c-0.1,18.6-10.8,33.1-28.5,39.2
		c-2,0.7-4,2.3-5.2,4c-33.9,50.2-81.1,73.2-141.4,69.1c-10.8-0.7-21.4-4.4-32.2-6.5c-1.8-0.4-4.2-0.1-5.7,0.9
		c-11.1,7.6-23.9,8.1-34.6,1c-10.3-6.9-15.4-19.5-12.6-31.3c3-12.8,12.8-21.6,26.2-23.3c14.9-1.9,29.3,9,32.3,24.3
		c0.4,1.9,2,4.4,3.6,4.9C497.2,586.4,554,568.9,585.5,525.3z" fill="#FFFFFF"/>
</g>
</svg>