<svg enable-background="new 0 0 755.3 920.5" viewBox="0 0 755.3 920.5" xmlns="http://www.w3.org/2000/svg"><g fill="#fff"><path d="m530.3 408c-.2 23.9-.1 48.2 0 71.7v8.3c0 11.3 2.5 22.1 7.5 32.3 1.1 2.3-.3 7.5-1.9 8.6-20.1 12.9-42 17.6-65.1 14.1-.4-.2-1.2-.9-1.5-1.5-14.2-25.7-43.6-38.1-71.5-30.2-28 7.9-46.7 33.8-45.4 62.8.9 19.8 11 37.6 27.7 48.7s36.9 13.5 55.4 6.7c2.8-1 5.3-1.1 9.1-.5 7.8 1.4 15.6 2.6 23.8 3.8-31.1 29-60.1 41.8-92.9 41.2-24.2-.5-47.4-9.4-70.9-27.4-28.3-21.7-51.8-51.3-71.6-90.5-3.2-6.4-6.2-13.3-9-19.9-1.5-3.6-3.1-7.2-4.7-10.9-.7-1.5-1.4-2.8-2.2-4.2 7.3-13.8 8.2-29.1 8-43.7-.2-15.7-.1-31.7-.1-47.1 0-6.9 0-13.8 0-20.7 0-20.1-6.7-37.5-20-51.9-.2-.2-.4-.9-.5-1.2 6.5-44.6 27-81 60.7-108.1 29.2-23.5 64.6-35.8 105.4-36.6 35.1-.7 62.4 4.3 85.9 15.8 26.4 13 47.7 30.5 63.3 52.1 15.3 21.2 25.6 46.9 30.5 76.3 0 .5-.3 1.6-.7 1.9-12.6 14.3-19.2 31.1-19.3 50.1z"/><path d="m585.5 525.3c-17.4-9.5-23.5-24.3-23.1-43.3.6-24.1.1-48.3.1-72.4 0-15.7 6.5-27.9 19.6-36.5 1.4-.9 2.5-3.4 2.4-5-5.7-93.9-77.8-174.1-170.5-189.8-108-18.4-209.4 46.6-237.4 152.5-3.2 12.1-4.3 24.9-6 37.3-.2 1.6 1.1 4.1 2.5 5 13 8.6 19.6 20.5 19.6 36.1 0 26.5.2 52.9 0 79.4-.2 20.4-14.6 37.1-34.1 40.2-21.2 3.3-40.7-8.1-46.8-27.7-1.3-4.2-1.9-8.8-1.9-13.2-.2-26.5-.1-52.9-.1-79.4 0-15.4 6.9-27 19.8-35.4 1.7-1.1 3.2-3.7 3.3-5.7 4.7-62.3 28.9-115.8 73.4-159.5 39.8-39.1 87.6-62.3 143.1-68.3 106.3-11.6 203.4 42.7 249.8 139.1 13.4 27.9 20.7 57.5 22.8 88.3.2 3.1 1.1 4.9 3.9 6.7 12.6 7.9 19.3 19.5 19.4 34.5.1 26.8.1 53.6 0 80.4-.1 18.6-10.8 33.1-28.5 39.2-2 .7-4 2.3-5.2 4-33.9 50.2-81.1 73.2-141.4 69.1-10.8-.7-21.4-4.4-32.2-6.5-1.8-.4-4.2-.1-5.7.9-11.1 7.6-23.9 8.1-34.6 1-10.3-6.9-15.4-19.5-12.6-31.3 3-12.8 12.8-21.6 26.2-23.3 14.9-1.9 29.3 9 32.3 24.3.4 1.9 2 4.4 3.6 4.9 50 15.5 106.8-2 138.3-45.6z"/></g></svg>