<svg width="23" height="24" viewBox="0 0 23 24" fill="none" xmlns="http://www.w3.org/2000/svg">
<g clip-path="url(#clip0_30782_12188)">
<path fill-rule="evenodd" clip-rule="evenodd" d="M20.9557 10.7112C20.505 6.16232 16.6674 2.60938 12 2.60938C7.33257 2.60938 3.49498 6.16232 3.04426 10.7112C3.60362 10.9291 4 11.4729 4 12.1094V15.1094C4 15.9378 3.32843 16.6094 2.5 16.6094C1.67157 16.6094 1 15.9378 1 15.1094V12.1094C1 11.4405 1.43785 10.8738 2.04258 10.6804C2.51121 5.59308 6.79038 1.60938 12 1.60938C17.2096 1.60938 21.4888 5.59308 21.9574 10.6804C22.5622 10.8738 23 11.4405 23 12.1094V15.1094C23 15.7952 22.5397 16.3735 21.9112 16.5523C21.4959 18.7287 19.6697 20.4046 17.4207 20.5919C17.2198 21.1836 16.6596 21.6094 16 21.6094C15.1716 21.6094 14.5 20.9378 14.5 20.1094C14.5 19.2809 15.1716 18.6094 16 18.6094C16.6454 18.6094 17.1956 19.017 17.4072 19.5889C19.1317 19.4145 20.5327 18.1448 20.9036 16.4861C20.3719 16.2555 20 15.7259 20 15.1094V12.1094C20 11.4729 20.3964 10.9291 20.9557 10.7112ZM22 15.1094C22 15.3855 21.7761 15.6094 21.5 15.6094C21.2239 15.6094 21 15.3855 21 15.1094V12.1094C21 11.8332 21.2239 11.6094 21.5 11.6094C21.7761 11.6094 22 11.8332 22 12.1094V15.1094ZM2 12.1094C2 11.8332 2.22386 11.6094 2.5 11.6094C2.77614 11.6094 3 11.8332 3 12.1094V15.1094C3 15.3855 2.77614 15.6094 2.5 15.6094C2.22386 15.6094 2 15.3855 2 15.1094V12.1094ZM16.5 20.1094C16.5 20.3855 16.2761 20.6094 16 20.6094C15.7239 20.6094 15.5 20.3855 15.5 20.1094C15.5 19.8332 15.7239 19.6094 16 19.6094C16.2761 19.6094 16.5 19.8332 16.5 20.1094Z" fill="black"/>
<path d="M12 5.60938C15.3137 5.60938 18 8.29567 18 11.6094V16.6094C18 17.0088 17.961 17.3991 17.8865 17.7766C18.21 18.0386 18.478 18.3665 18.6699 18.7399C18.8843 18.0681 19 17.3523 19 16.6094V11.6094C19 7.74338 15.866 4.60938 12 4.60938C8.13401 4.60938 5 7.74338 5 11.6094V16.6094C5 20.4754 8.13401 23.6094 12 23.6094C13.0722 23.6094 14.0881 23.3683 14.9965 22.9374C14.5986 22.7962 14.2393 22.5735 13.9388 22.2892C13.3306 22.4968 12.6785 22.6094 12 22.6094C8.68629 22.6094 6 19.9231 6 16.6094V11.6094C6 8.29567 8.68629 5.60938 12 5.60938Z" fill="black"/>
</g>
<defs>
<clipPath id="clip0_30782_12188">
<rect width="23" height="23" fill="white" transform="translate(0 0.609375)"/>
</clipPath>
</defs>
</svg>
