<svg xmlns="http://www.w3.org/2000/svg" viewBox="0 0 228 220">
  <g fill="none" fill-rule="evenodd" opacity=".1957894">
    <path stroke="#94E7FF" d="m213.67566 176.950779-10.077053-9.051792c-21.271345 33.615611-59.101397 53.105308-98.870799 50.937285C64.9584055 216.668842 29.4786408 193.183111 12 157.455751c33.8431161 39.889253 120.816748 31.429225 174.122569-5.260122l-15.368126-13.731404C214.1914 120.842818 224.125914 96.5260121 224.334695 96c5.821009 27.418382 2.042853 56.000152-10.702802 80.972696"/>
    <path stroke="#01C5FF" d="M109.903256.5c29.020961 0 56.852212 11.5142546 77.364132 32.0074087 11.29776 11.2747018 16.634833 23.3082306 17.184939 35.1260928.603313 12.9609103-4.547621 25.6479039-13.837454 36.7692905-19.046531 22.801684-55.467 39.023175-95.6995505 37.618047v21.006322l-65.8382152-47.130924 65.8382152-47.1309243v21.2783578c13.3098715-1.9771591 33.0624655-6.3594047 44.2730905-15.6057973 4.037136-3.3297824 6.97304-7.287955 8.150369-11.9750302 1.04932-4.1774586.706091-8.9410853-1.533175-14.3695848-4.574749-11.1412496-17.012391-18.4127854-32.94662-20.8879835-15.6664343-2.4335995-34.6927225-.2356456-52.7657061 7.4050421C33.8500674 45.7051201 9.6148151 68.2679655.6050971 104.747663c1.0795205-24.4834064 10.4291631-47.9399016 26.605366-66.5055925.8551326-.9840051 1.3799141-1.5882976 1.9394797-2.1765165 1.091904-1.2098275 2.1836663-2.3870965 3.3899148-3.558345C53.0515191 12.0142549 80.8822967.5 109.903256.5Z"/>
  </g>
</svg>
