<svg viewBox="0 0 90 20" xmlns="http://www.w3.org/2000/svg"><g fill="none" fill-rule="evenodd"><path d="m29.4753205 12.2616423c.2475537.0053523.494837-.0191382.7364978-.0730388.1667298-.0368709.3250257-.1047738.4665622-.2000325.1082338-.0746067.1925718-.1787857.2428502-.3000486.0464399-.1251014.0692545-.2576634.0672001-.3910364 0-.3050765-.1434828-.5591177-.4324485-.7601233-.2889658-.2010596-.7836947-.4200681-1.4860789-.654106-.3056712-.1080176-.6117208-.231389-.9180948-.37006-.2987512-.134238-.5762556-.3111316-.8238093-.5251123-.2466886-.2145212-.4488295-.4751581-.5950154-.7670973-.1628913-.3434611-.2416067-.7204953-.229821-1.1001785-.0063254-.4016326.0769854-.799589.2438773-1.165216.1589447-.342488.3943883-.644245.6883279-.8821214.3202141-.2547548.6873547-.4446775 1.0806617-.5590906.4649403-.1375575.9479375-.2049846 1.432881-.2000325.551603-.0108882 1.1019625.0564686 1.6345894.2000325.3926583.108423.7729903.257247 1.1348327.444072l-.6090717 1.6612478c-.280532-.141969-.5721469-.2610153-.8719793-.3560578-.3744931-.1114235-.7641779-.1637563-1.15489-.154998-.5050548 0-.8676542.0693625-1.0877439.2080336-.2196032.136833-.3465968.3823864-.3311348.6401039-.0048116.1528355.0379521.3034546.1224523.4310428.0930962.126453.2104125.233173.3451911.314051.1625669.101584.3346489.1873276.5137049.2560415.1940315.0760123.4077418.1547278.6411851.2360382.4869979.1793805.910472.3564362 1.2703141.5311132.330432.1549981.6336703.3620047.8980916.6130724.2370114.2307401.4194194.5112721.5338163.8211602.1251014.3678975.1845705.7548251.175596 1.1431584 0 .8668432-.306374 1.5422501-.919122 2.0263286s-1.5359247.7241174-2.7694221.7201167c-.3749256.002541-.7495269-.0222198-1.1208304-.074012-.2984808-.042169-.5940423-.1026112-.8850084-.1810023-.2258204-.0613072-.4470995-.1381846-.6622695-.2300373-.1590529-.0678488-.3144835-.1439693-.4655891-.228037l.5940423-1.6702708c.3289723.173001.6754069.3108071 1.033519.4110396.490566.1310483.9973509.1919771 1.5051089.1810564m7.7153593-7.5232309c.0163811.327837-.1149916.6458291-.3582202.8671244-.4834298.421636-1.2052766.421636-1.6887604 0-.2437692-.2217494-.3751419-.5406011-.3582202-.8691247-.0166514-.328183.1147753-.6466076.3582202-.8681408.4829973-.4229172 1.2058172-.4229172 1.6887604 0 .2434989.2215332.3748716.5399579.3582202.8681408zm-.1896524 9.1284642h-2.0128129v-7.0811484h2.0128129zm8.4978646-.2270098c-.1806239.0540087-.387306.1000162-.6210737.1549981-.2338217.0550359-.4796453.0920149-.7365518.1280208-.2568525.0360058-.5177597.0640103-.7836406.0870411-.2659351.0229767-.51976.0340055-.7635833.0340055-.5332757.0083798-1.0637401-.078337-1.5663622-.2560415-.4370438-.1559712-.833919-.4067146-1.1619722-.7341191-.3225928-.3291885-.5694437-.7243877-.7234146-1.1581878-.172947-.4907823-.2575012-1.0081635-.2498783-1.5282478-.0067579-.5263556.066281-1.050711.2167378-1.5552793.1266692-.4299075.3377845-.8304049.6211278-1.178191.2675569-.3212954.607612-.5749581.9923771-.74012.4254744-.1774342.8833865-.2646376 1.3445964-.2560416.252095-.0027572.5037033.024112.749527.080013.2293345.05682.4532627.1334811.6692977.2290642v-3.200546l2.0128129-.3230525zm-4.552468-3.366546c0 .618749.1394821 1.1168298.4183922 1.4942424.2789642.3773585.6933557.5660918 1.2432286.5660918.1796508 0 .3462183-.0070282.5017571-.0200033.1554847-.0130291.2789101-.0290317.3782775-.0480078v-3.6485917c-.1533762-.0913661-.3198897-.1588365-.4937016-.2000324-.2002487-.0537384-.4067146-.080932-.6140996-.0810402-.955236 0-1.4325567.6464292-1.4318538 1.9393416m6.4419636.1060172c-.0118939-.563659.0866086-1.1241823.2899929-1.6502677.1731632-.4395307.4327729-.8401362.7635833-1.178191.3090231-.3103206.6794075-.5531708 1.0876899-.7130886.4017949-.1602422.8305671-.2423637 1.263286-.2420402 1.0081094 0 1.8051576.307348 2.3911445.9221505.586041.6147483.8788452 1.518895.8777669 2.7124398 0 .116992 0 .2450127-.013789.3840623-.0140563.1389955-.0180569.2630156-.0270854.37006h-4.5655512c.0356274.3980646.2489593.759042.580959.9831324.3418393.2433908.8010489.3647078 1.3776829.3640591.3649241.0005406.7290912-.0329243 1.0876899-.1000163.2986431-.0509271.5906904-.1344001.8710061-.2490133l.2698816 1.6292372c-.1388873.0660107-.2832351.1198572-.4314213.1609991-.197924.0584419-.3989295.105855-.6020976.142077-.2207385.0400065-.4568849.0733092-.7083852.1000163-.251284.0267611-.5038655.0401146-.7565551.0400065-.5692815.0124885-1.1356436-.0835812-1.668703-.283073-.4439639-.1688382-.8451641-.4331513-1.1750014-.7741255-.3139969-.3319998-.5495486-.72974-.689355-1.1641888-.1517003-.4697519-.2269017-.9607504-.2227388-1.4542358zm4.728064-.7681246c-.0083797-.1697032-.0380602-.3376764-.0882846-.5000811-.0468725-.1573769-.1246148-.3038871-.2287939-.4310429-.1079634-.1289398-.2415526-.234146-.3923338-.3090771-.1833811-.086879-.3850355-.1287236-.5879873-.1220198-.1994918-.0048657-.397578.034438-.5799859.1150457-.1537547.0702276-.2906418.1725144-.4013624.3000486-.111856.1292642-.1980321.2786398-.253879.4400714-.0578473.1624588-.1008272.3298373-.1283992.500081z" fill="#94e7ff" fill-rule="nonzero"/><path d="m58.642483 12.2616423c.2476077.0053523.4952154-.0191382.7368762-.0730388.1665135-.0367087.3243769-.1045575.4654809-.2000325.1086663-.0745526.1930043-.1787317.2438233-.3000486.0464941-.1251014.0692004-.2576634.0670379-.3910364 0-.3050765-.1443477-.5591177-.4325025-.7601233-.2876143-.2010596-.7833703-.4200681-1.486187-.654106-.3054549-.1080176-.6114505-.231389-.9179867-.37006-.3000487-.1356437-.5784722-.3142132-.8266205-.530086-.2465265-.2146835-.4481808-.4752663-.5941505-.7671515-.162729-.343407-.2416608-.7204952-.2297669-1.1001784-.005947-.4014705.0767692-.7993729.242742-1.165162.160026-.3423798.3957399-.6440503.689301-.8821646.3200519-.2549494.6876791-.4448938 1.0807158-.5590907.4649403-.1375466.9471806-.2049737 1.4321241-.2000324.9628589-.0205114 1.9154458.20173 2.7690977.6461048l-.6076661 1.6562632c-.2800454-.13932-.5703627-.2557172-.8693301-.3480565-.3741148-.1113694-.7639077-.1636481-1.1547819-.154998-.5044061 0-.8671677.0693084-1.087744.2080336-.219495.136833-.3465427.3823864-.3308644.6401039-.0048657.1526734.0373033.3031302.1211007.4310428.0935287.1263448.210845.2330648.3454614.314051.1621885.1014218.3341083.1871114.5125156.2560415.1935449.0760123.4076336.1546737.6422663.2360382.487106.1793805.9098773.3563822 1.269395.5311132.3319457.1546737.6368601.3616803.9028491.6130724.2373358.230686.4195275.511218.5341407.8211602.1238039.3681137.1816511.7550414.1713792 1.1431584 0 .8667892-.3065362 1.5422501-.919068 2.0263286-.6130724.4840785-1.5359248.7241174-2.7696383.7201167-.3746554.0024869-.7493107-.0222198-1.1207223-.074012-.2984268-.0419527-.5941504-.102449-.8850084-.1810023-.2259826-.0613072-.4470995-.1381846-.6622696-.2300373-.1594853-.0681191-.3151862-.1441855-.4665621-.228037l.5952316-1.6702708c.328702.1731632.6752447.3109693 1.0331406.4110396.4908904.1310483.997459.1919771 1.5051089.1810564m9.6669731-2.4554252c-.1789479.6821106-.3703303 1.3598962-.5736065 2.0333567-.2032763.6734065-.417365 1.3511921-.6422664 2.0333027h-1.5694437c-.1627291-.3773584-.3389739-.8264583-.5287344-1.3471914-.1897605-.5207872-.3865491-1.0875277-.5892847-1.7002757-.2005731-.6140996-.4081743-1.2649079-.6228037-1.9523166-.2146294-.6874629-.4206088-1.3809267-.6173974-2.0803374h2.1214251c.0724442.3233497.1513759.6757853.2378764 1.0571444.0865005.3814132.1767854.7741256.271936 1.178191.0956912.4040656.1957074.8101315.3011299 1.2181976.1048819.4080662.2113856.8008326.3189706 1.1781911.117857-.3947127.2330108-.7984538.3449208-1.2111694.1124507-.4127696.2205764-.8191599.324377-1.2192247.1027193-.400065.2032762-.7861275.3011299-1.1581879.0973131-.3720603.1789479-.722117.2438233-1.0501703h1.4586149c.0724442.3234038.1535384.6711359.2438234 1.0431962.0902849.3720604.1848948.758123.2832891 1.1581879.098935.4000648.2027356.806455.3108613 1.2191706.1086662.4127697.2211169.8164568.3384332 1.2112235.1081257-.3767638.2167919-.7694761.3259988-1.1781911.1086663-.408769.2092232-.8148348.30113-1.2181975.0946099-.4040656.1854354-.796832.2719359-1.178191.0859599-.3814133.1654323-.7337948.2373358-1.0571986h2.0943937c-.200573.7001136-.4060118 1.3935774-.6163161 2.0803374-.2097638.686814-.417365 1.3375683-.6228037 1.9523166-.2005731.6148024-.4000649 1.181543-.5973942 1.7002757-.1973293.5187869-.375196.9678327-.5346813 1.3472455h-1.560253c-.2249014-.6821106-.4449371-1.3598962-.6611883-2.0333567-.2162513-.6734065-.4146619-1.3488674-.5952317-2.0263286zm9.0176786-3.2094935c.5033249-.0134076 1.0050278.0541169 1.486187.2000324.360599.112775.687679.311564.9531275.579067.2405795.2596096.4130399.5743093.501703.9161485.10326.3916851.1529978.7953722.1486727 1.2001946v4.174677c-.2886954.0627129-.6903822.1367249-1.203979.222036-.6168568.0927178-1.2407417.1355355-1.8646267.1280208-.4195275.0036222-.8379737-.0369249-1.2488512-.1209926-.3454614-.069741-.6736227-.2056009-.9666432-.4000649-.267611-.1812185-.4816998-.4300697-.6211818-.7211439-.1535385-.3423258-.2281451-.715089-.2162513-1.0901768-.0118938-.3660594.0746067-.7286047.2508515-1.0501703.1605665-.2818836.3903335-.5183544.6682164-.6870844.2957237-.177326.6206412-.30286.9590745-.3710872.3687084-.0768774.744445-.1150998 1.1207223-.1140185.2324701-.0011354.4649402.0102178.6963291.0340055.1665135.0154079.3314051.0444937.4930529.0870411v-.185057c.0135157-.3047521-.0983943-.6019355-.3103206-.8221333-.2081418-.2060335-.5682002-.3090231-1.0807158-.3090231-.3389738-.0001081-.6779477.0246526-1.0131372.074012-.295183.039682-.5849598.1097475-.8650052.2090068l-.2567984-1.616262c.1167757-.0360059.263286-.074012.4389901-.1140185.1757042-.0409797.366546-.0769855.5741472-.1080176.2076012-.030978.4254744-.0589825.6552414-.080986.229767-.0220036.4616965-.0340056.6952479-.0340056zm.1567822 5.8709521c.200573 0 .3870898 0 .5676596-.0130291.1448884-.0054063.2886955-.0187598.4319619-.0400065v-1.5222469c-.12056-.0240039-.2422014-.0420609-.3643834-.0540088-.1481321-.0166513-.2973455-.0256798-.4465589-.0269841-.1784073-.0003176-.356274.0110356-.5330594.0340123-.1524572.0184354-.3005893.0616857-.4395307.1280208-.1211008.0570363-.225442.145429-.3005893.2560415-.0751473.1196951-.1129913.2589609-.1086663.4000649 0 .3140509.1054225.5320863.31843.6530789.2124669.1210466.501703.1810563.8709521.1810563m11.7094665-2.1363464c.0064875.5051089-.061091 1.0084879-.2005731 1.4942423-.1211007.4208791-.3232957.8142402-.594691 1.1581878-.2611235.3233498-.5941505.5815538-.9725902.7541223-.4211494.1881927-.8785208.281397-1.3396767.2730173-.263286.0015137-.5260313-.0253555-.7833703-.080013-.2411202-.0531437-.4762935-.1298589-.702276-.2290101v2.6654052h-2.0143808v-9.335514c.1800292-.0540087.3876305-.1000161.6211818-.154998.2340921-.055036.4800779-.092015.7368763-.1280208s.5173812-.0650376.7833703-.0870411c.2659891-.0220036.5200843-.0340055.7639076-.0340055.5336001-.00865 1.064497.0804995 1.5662.2630697.436287.1602962.8325674.4127696 1.16181.74012.3227551.331405.5692815.7290371.7222793 1.1651619.173001.4932692.2578797 1.012867.2508515 1.535276zm-2.0549279.0540088c0-.6201006-.1394821-1.116181-.4184462-1.4882414-.2789642-.3720603-.6930854-.5584149-1.2429043-.5591177-.1805698 0-.3476239.0070282-.501703.0200033-.1546196.0130291-.2800454.0300048-.3784397.0480077v3.6216144c.1529978.0913661.3189706.1587825.4925123.2000324.2005731.0537385.4076337.0809861.6152349.0809861.9536682 0 1.4310429-.6417797 1.4321241-1.9252852" fill="#00c5ff" fill-rule="nonzero"/><path d="m19.4452615 16.1622749-.9211223-.826134c-1.9443694 3.0680111-5.4023356 4.846786-9.0375737 4.6489161-3.6352382-.1978159-6.8783696-2.3412986-8.4760557-5.6020436 3.0935287 3.6405904 11.0436072 2.8684652 15.9161811-.4800779l-1.4047683-1.2532302c3.9704817-1.6082608 4.8785749-3.8275937 4.8976591-3.8756015.5320863 2.5024058.186733 5.110991-.9783208 7.3901714" fill="#94e7ff"/><path d="m0 10.0019786c-.0044902-2.4054712.8656755-4.7310375 2.4493702-6.546067l.0120452-.012002c.0541817-.0640103.108369-.1270205.165562-.1870303.1003406-.111018.2006812-.2190355.3110612-.3260528 1.8808942-1.8764881 4.4329405-2.9308265 7.0941288-2.9308265 2.6611884 0 5.2132779 1.0543384 7.0941775 2.9308265 4.5013246 4.4857058-1.2924258 10.2836731-8.4166622 10.0616371v1.9563172l-6.1338812-4.3847111 6.1338812-4.384711v1.9752933c2.0269233-.3070228 5.6060983-1.21517 4.5574959-3.7535871-1.4419096-3.5065687-11.5804023-2.700438-13.2671786 5.6009137z" fill="#00c5ff"/></g></svg>