<svg width="22" height="21" viewBox="0 0 22 21" fill="none" xmlns="http://www.w3.org/2000/svg">
<path fill-rule="evenodd" clip-rule="evenodd" d="M15.6943 15.0692H17.5162V11.0059H15.6943V15.0692Z" fill="white"/>
<path fill-rule="evenodd" clip-rule="evenodd" d="M20.1781 7.22264V18.8528H3.16628C2.31039 18.8318 1.82191 18.3458 1.82191 17.5219V6.92502L2.10357 7.02759C2.46677 7.15875 2.8098 7.22264 3.15283 7.22264H20.1781ZM3.14358 2.73891H17.9358V5.40073H3.15283C2.42978 5.36962 1.87068 4.7853 1.87068 4.06982C1.87068 3.35434 2.42978 2.77001 3.14358 2.73891ZM17.7256 0.916992H3.15283C1.41415 0.916992 0 2.33198 0 4.06982V17.5219C0 19.8348 1.88581 20.6747 3.15283 20.6747H19.9679C21.0886 20.6747 22 19.7633 22 18.6426V7.43283C22 6.31211 21.0886 5.40073 19.9679 5.40073H19.7577V2.94909C19.7577 1.82837 18.8463 0.916992 17.7256 0.916992Z" fill="white"/>
</svg>
