<svg fill="none" height="23" viewBox="0 0 22 23" width="22" xmlns="http://www.w3.org/2000/svg" xmlns:xlink="http://www.w3.org/1999/xlink"><mask id="a" fill="#000" height="23" maskUnits="userSpaceOnUse" width="23" x="-.800781" y="0"><path d="m-.800781 0h23v23h-23z" fill="#fff"/><path d="m20.8249 12.8068-1.7024-.7075c.0221-.199.0221-.398.0221-.597s0-.398-.0221-.597l1.7024-.7075c.2211-.0884.3317-.33166.2654-.55276l-.9066-2.76376c-.0663-.2211-.3095-.35376-.5306-.30954l-1.7909.42009c-.199-.33165-.4422-.64119-.7075-.95073l.9728-1.59193c.1327-.19899.0663-.46431-.1105-.59697l-2.3658-1.70248c-.199-.13266-.4643-.11055-.6191.06633l-1.1939 1.41505c-.3759-.15477-.7518-.28743-1.1277-.37587l-.1547-1.83514c-.0221-.24321-.2211-.42009-.4643-.42009h-2.89647c-.24321 0-.4422.17688-.46431.42009l-.15477 1.83514c-.37587.08844-.75174.2211-1.12762.37587l-1.17183-1.41505c-.15477-.17688-.42009-.2211-.61908-.06633l-2.34367 1.70248c-.19899.13266-.24321.39798-.11055.59697l.97284 1.59193c-.26532.30954-.48642.61908-.70752.95073l-1.79092-.42009c-.2211-.04422-.46431.06633-.53064.30954l-.928624 2.76376c-.06633.2211.04422.46436.265321.55276l1.702473.7075c-.02211.199-.02211.398-.02211.597s0 .398.02211.597l-1.702473.7075c-.221101.0884-.331651.3316-.265321.5527l.906514 2.7638c.06633.2211.30954.3538.53064.3095l1.79092-.4201c.19899.3317.4422.6634.70752.9508l-.97284 1.5919c-.13266.199-.06633.4643.11055.597l2.34367 1.7025c.19899.1326.46431.1105.61908-.0664l1.19394-1.415c.37588.1548.75175.2874 1.12762.3759l.15477 1.8351c.02211.2432.2211.4201.46431.4201h2.89647c.2432 0 .4422-.1769.4643-.4201l.1547-1.8351c.3759-.0885.7518-.2211 1.1277-.3759l1.1939 1.415c.1548.1769.4201.2211.6191.0664l2.3436-1.7025c.199-.1327.2433-.398.1106-.597l-.9728-1.5919c.2653-.3096.4864-.6191.7075-.9508l1.7909.4201c.2211.0443.4643-.0663.5306-.3095l.9065-2.7638c.0885-.2211-.0221-.4643-.2432-.5527zm-1.3708 2.6311-1.7025-.398c-.199-.0442-.3979.0442-.5085.2211-.2653.4864-.597.9286-.995 1.3487-.1326.1548-.1547.3759-.0442.5528l.9287 1.5035-1.6583 1.216-1.1497-1.3487c-.1327-.1548-.3538-.199-.5307-.1106-.5306.2433-1.0613.4201-1.5919.5307-.199.0442-.3538.199-.3538.4201l-.1326 1.7467h-2.05626l-.13266-1.7467c-.02211-.199-.15477-.3759-.35376-.4201-.53064-.1106-1.06128-.2874-1.59193-.5307-.17688-.0884-.39798-.0442-.53064.1106l-1.14972 1.3487-1.65826-1.216.92863-1.5035c.11055-.1769.08844-.398-.04422-.5528-.37588-.4201-.70753-.8623-.99496-1.3487-.11055-.1769-.30954-.2653-.50853-.2211l-1.72459.4201-.68541-1.9678 1.63615-.6854c.17688-.0885.30954-.2653.28743-.4643-.02211-.3096-.04422-.5749-.04422-.8402s.02211-.5307.04422-.8402c.02211-.199-.08844-.398-.28743-.4643l-1.63615-.68542.64119-1.9678 1.72459.4201c.19899.04422.39798-.04422.50853-.2211.26532-.48643.59697-.92863.99496-1.34872.13266-.15477.15477-.37587.04422-.55275l-.92863-1.50349 1.65826-1.21605 1.14972 1.34871c.13266.15477.35376.19899.53065.11055.53064-.24321 1.06128-.42009 1.59192-.53064.19899-.04422.35376-.19899.35376-.42009l.13266-1.7467h2.05628l.1326 1.7467c.0221.19899.1548.37587.3538.42009.5306.11055 1.0613.28743 1.5919.53064.1769.08844.398.04422.5307-.11055l1.1497-1.34871 1.6582 1.21605-.9286 1.50349c-.1105.17688-.0884.39798.0442.55275.3759.42009.7076.8844.995 1.34872.1105.17688.3095.26532.5085.2211l1.7246-.4201.6412 1.9678-1.6362.68542c-.1768.0884-.3095.2653-.2874.4643.0221.3095.0442.5749.0442.8402s-.0221.5306-.0442.8402c-.0221.199.0885.398.2874.4643l1.6362.6854z" fill="#000"/></mask><path d="m10.6548 6.69297c-2.66456 0-4.80949 2.16764-4.80949 4.80943 0 2.6645 2.16765 4.8095 4.80949 4.8095 2.6418 0 4.8094-2.145 4.8094-4.8095 0-2.6642-2.1452-4.80943-4.8094-4.80943zm0 8.51243c-2.04527 0-3.70297-1.6578-3.70297-3.703 0-2.04521 1.6577-3.70292 3.70297-3.70292 2.0452 0 3.7029 1.65771 3.7029 3.70292 0 2.0452-1.6577 3.703-3.7029 3.703z" fill="#191919" stroke="#191919" stroke-width=".2"/><path d="m20.8249 12.8068-1.7024-.7075c.0221-.199.0221-.398.0221-.597s0-.398-.0221-.597l1.7024-.7075c.2211-.0884.3317-.33166.2654-.55276l-.9066-2.76376c-.0663-.2211-.3095-.35376-.5306-.30954l-1.7909.42009c-.199-.33165-.4422-.64119-.7075-.95073l.9728-1.59193c.1327-.19899.0663-.46431-.1105-.59697l-2.3658-1.70248c-.199-.13266-.4643-.11055-.6191.06633l-1.1939 1.41505c-.3759-.15477-.7518-.28743-1.1277-.37587l-.1547-1.83514c-.0221-.24321-.2211-.42009-.4643-.42009h-2.89647c-.24321 0-.4422.17688-.46431.42009l-.15477 1.83514c-.37587.08844-.75174.2211-1.12762.37587l-1.17183-1.41505c-.15477-.17688-.42009-.2211-.61908-.06633l-2.34367 1.70248c-.19899.13266-.24321.39798-.11055.59697l.97284 1.59193c-.26532.30954-.48642.61908-.70752.95073l-1.79092-.42009c-.2211-.04422-.46431.06633-.53064.30954l-.928624 2.76376c-.06633.2211.04422.46436.265321.55276l1.702473.7075c-.02211.199-.02211.398-.02211.597s0 .398.02211.597l-1.702473.7075c-.221101.0884-.331651.3316-.265321.5527l.906514 2.7638c.06633.2211.30954.3538.53064.3095l1.79092-.4201c.19899.3317.4422.6634.70752.9508l-.97284 1.5919c-.13266.199-.06633.4643.11055.597l2.34367 1.7025c.19899.1326.46431.1105.61908-.0664l1.19394-1.415c.37588.1548.75175.2874 1.12762.3759l.15477 1.8351c.02211.2432.2211.4201.46431.4201h2.89647c.2432 0 .4422-.1769.4643-.4201l.1547-1.8351c.3759-.0885.7518-.2211 1.1277-.3759l1.1939 1.415c.1548.1769.4201.2211.6191.0664l2.3436-1.7025c.199-.1327.2433-.398.1106-.597l-.9728-1.5919c.2653-.3096.4864-.6191.7075-.9508l1.7909.4201c.2211.0443.4643-.0663.5306-.3095l.9065-2.7638c.0885-.2211-.0221-.4643-.2432-.5527zm-1.3708 2.6311-1.7025-.398c-.199-.0442-.3979.0442-.5085.2211-.2653.4864-.597.9286-.995 1.3487-.1326.1548-.1547.3759-.0442.5528l.9287 1.5035-1.6583 1.216-1.1497-1.3487c-.1327-.1548-.3538-.199-.5307-.1106-.5306.2433-1.0613.4201-1.5919.5307-.199.0442-.3538.199-.3538.4201l-.1326 1.7467h-2.05626l-.13266-1.7467c-.02211-.199-.15477-.3759-.35376-.4201-.53064-.1106-1.06128-.2874-1.59193-.5307-.17688-.0884-.39798-.0442-.53064.1106l-1.14972 1.3487-1.65826-1.216.92863-1.5035c.11055-.1769.08844-.398-.04422-.5528-.37588-.4201-.70753-.8623-.99496-1.3487-.11055-.1769-.30954-.2653-.50853-.2211l-1.72459.4201-.68541-1.9678 1.63615-.6854c.17688-.0885.30954-.2653.28743-.4643-.02211-.3096-.04422-.5749-.04422-.8402s.02211-.5307.04422-.8402c.02211-.199-.08844-.398-.28743-.4643l-1.63615-.68542.64119-1.9678 1.72459.4201c.19899.04422.39798-.04422.50853-.2211.26532-.48643.59697-.92863.99496-1.34872.13266-.15477.15477-.37587.04422-.55275l-.92863-1.50349 1.65826-1.21605 1.14972 1.34871c.13266.15477.35376.19899.53065.11055.53064-.24321 1.06128-.42009 1.59192-.53064.19899-.04422.35376-.19899.35376-.42009l.13266-1.7467h2.05628l.1326 1.7467c.0221.19899.1548.37587.3538.42009.5306.11055 1.0613.28743 1.5919.53064.1769.08844.398.04422.5307-.11055l1.1497-1.34871 1.6582 1.21605-.9286 1.50349c-.1105.17688-.0884.39798.0442.55275.3759.42009.7076.8844.995 1.34872.1105.17688.3095.26532.5085.2211l1.7246-.4201.6412 1.9678-1.6362.68542c-.1768.0884-.3095.2653-.2874.4643.0221.3095.0442.5749.0442.8402s-.0221.5306-.0442.8402c-.0221.199.0885.398.2874.4643l1.6362.6854z" fill="#191919"/><path d="m20.8249 12.8068-1.7024-.7075c.0221-.199.0221-.398.0221-.597s0-.398-.0221-.597l1.7024-.7075c.2211-.0884.3317-.33166.2654-.55276l-.9066-2.76376c-.0663-.2211-.3095-.35376-.5306-.30954l-1.7909.42009c-.199-.33165-.4422-.64119-.7075-.95073l.9728-1.59193c.1327-.19899.0663-.46431-.1105-.59697l-2.3658-1.70248c-.199-.13266-.4643-.11055-.6191.06633l-1.1939 1.41505c-.3759-.15477-.7518-.28743-1.1277-.37587l-.1547-1.83514c-.0221-.24321-.2211-.42009-.4643-.42009h-2.89647c-.24321 0-.4422.17688-.46431.42009l-.15477 1.83514c-.37587.08844-.75174.2211-1.12762.37587l-1.17183-1.41505c-.15477-.17688-.42009-.2211-.61908-.06633l-2.34367 1.70248c-.19899.13266-.24321.39798-.11055.59697l.97284 1.59193c-.26532.30954-.48642.61908-.70752.95073l-1.79092-.42009c-.2211-.04422-.46431.06633-.53064.30954l-.928624 2.76376c-.06633.2211.04422.46436.265321.55276l1.702473.7075c-.02211.199-.02211.398-.02211.597s0 .398.02211.597l-1.702473.7075c-.221101.0884-.331651.3316-.265321.5527l.906514 2.7638c.06633.2211.30954.3538.53064.3095l1.79092-.4201c.19899.3317.4422.6634.70752.9508l-.97284 1.5919c-.13266.199-.06633.4643.11055.597l2.34367 1.7025c.19899.1326.46431.1105.61908-.0664l1.19394-1.415c.37588.1548.75175.2874 1.12762.3759l.15477 1.8351c.02211.2432.2211.4201.46431.4201h2.89647c.2432 0 .4422-.1769.4643-.4201l.1547-1.8351c.3759-.0885.7518-.2211 1.1277-.3759l1.1939 1.415c.1548.1769.4201.2211.6191.0664l2.3436-1.7025c.199-.1327.2433-.398.1106-.597l-.9728-1.5919c.2653-.3096.4864-.6191.7075-.9508l1.7909.4201c.2211.0443.4643-.0663.5306-.3095l.9065-2.7638c.0885-.2211-.0221-.4643-.2432-.5527zm-1.3708 2.6311-1.7025-.398c-.199-.0442-.3979.0442-.5085.2211-.2653.4864-.597.9286-.995 1.3487-.1326.1548-.1547.3759-.0442.5528l.9287 1.5035-1.6583 1.216-1.1497-1.3487c-.1327-.1548-.3538-.199-.5307-.1106-.5306.2433-1.0613.4201-1.5919.5307-.199.0442-.3538.199-.3538.4201l-.1326 1.7467h-2.05626l-.13266-1.7467c-.02211-.199-.15477-.3759-.35376-.4201-.53064-.1106-1.06128-.2874-1.59193-.5307-.17688-.0884-.39798-.0442-.53064.1106l-1.14972 1.3487-1.65826-1.216.92863-1.5035c.11055-.1769.08844-.398-.04422-.5528-.37588-.4201-.70753-.8623-.99496-1.3487-.11055-.1769-.30954-.2653-.50853-.2211l-1.72459.4201-.68541-1.9678 1.63615-.6854c.17688-.0885.30954-.2653.28743-.4643-.02211-.3096-.04422-.5749-.04422-.8402s.02211-.5307.04422-.8402c.02211-.199-.08844-.398-.28743-.4643l-1.63615-.68542.64119-1.9678 1.72459.4201c.19899.04422.39798-.04422.50853-.2211.26532-.48643.59697-.92863.99496-1.34872.13266-.15477.15477-.37587.04422-.55275l-.92863-1.50349 1.65826-1.21605 1.14972 1.34871c.13266.15477.35376.19899.53065.11055.53064-.24321 1.06128-.42009 1.59192-.53064.19899-.04422.35376-.19899.35376-.42009l.13266-1.7467h2.05628l.1326 1.7467c.0221.19899.1548.37587.3538.42009.5306.11055 1.0613.28743 1.5919.53064.1769.08844.398.04422.5307-.11055l1.1497-1.34871 1.6582 1.21605-.9286 1.50349c-.1105.17688-.0884.39798.0442.55275.3759.42009.7076.8844.995 1.34872.1105.17688.3095.26532.5085.2211l1.7246-.4201.6412 1.9678-1.6362.68542c-.1768.0884-.3095.2653-.2874.4643.0221.3095.0442.5749.0442.8402s-.0221.5306-.0442.8402c-.0221.199.0885.398.2874.4643l1.6362.6854z" mask="url(#a)" stroke="#191919" stroke-width=".4"/></svg>