<svg height="20" viewBox="0 0 5.0270833 5.2916668" width="19" xmlns="http://www.w3.org/2000/svg" xmlns:xlink="http://www.w3.org/1999/xlink"><mask id="a" fill="#fff"><path d="m0 0h21.083v8.956h-21.083z" fill="#fff" fill-rule="evenodd" height="100%" width="100%"/></mask><mask id="b" fill="#fff"><path d="m0 0h10.303v10.304h-10.303z" fill="#fff" fill-rule="evenodd" height="100%" width="100%"/></mask><g fill="#6b7387" fill-rule="evenodd" transform="scale(.90121137 .94856901)"><path d="m2.084 5.151c0-1.184 4.617-3.067 8.458-3.067 3.84 0 8.457 1.883 8.457 3.067v1.721h-16.915zm-2.084 3.805h21.083v-3.805c0-3.333-6.964-5.151-10.541-5.151-3.578 0-10.542 1.818-10.542 5.151z" mask="url(#a)" transform="matrix(.26458 0 0 .26458 0 3.209)"/><path d="m5.152 2.219a2.936 2.936 0 0 1 2.932 2.933 2.936 2.936 0 0 1 -2.932 2.933 2.937 2.937 0 0 1 -2.933-2.933 2.936 2.936 0 0 1 2.933-2.933m0 8.085a5.157 5.157 0 0 0 5.151-5.152 5.157 5.157 0 0 0 -5.151-5.152 5.157 5.157 0 0 0 -5.152 5.152 5.157 5.157 0 0 0 5.152 5.152" mask="url(#b)" transform="matrix(.26458 0 0 .26458 1.426 0)"/></g></svg>