<svg fill="none" height="21" viewBox="0 0 22 21" width="22" xmlns="http://www.w3.org/2000/svg"><g clip-rule="evenodd" fill="#fff" fill-rule="evenodd"><path d="m15.6943 15.0692h1.8219v-4.0633h-1.8219z"/><path d="m20.1781 7.22264v11.63016h-17.01182c-.85589-.021-1.34437-.507-1.34437-1.3309v-10.59688l.28166.10257c.3632.13116.70623.19505 1.04926.19505zm-17.03452-4.48373h14.79222v2.66182h-14.78297c-.72305-.03111-1.28215-.61543-1.28215-1.33091s.5591-1.29981 1.2729-1.33091zm14.58202-1.821918h-14.57277c-1.73868 0-3.15283 1.414988-3.15283 3.152828v13.45208c0 2.3129 1.88581 3.1528 3.15283 3.1528h16.81507c1.1207 0 2.0321-.9114 2.0321-2.0321v-11.20977c0-1.12072-.9114-2.0321-2.0321-2.0321h-.2102v-2.45164c0-1.12072-.9114-2.032098-2.0321-2.032098z"/></g></svg>