<svg height="24" viewBox="0 0 4.7624997 6.3500001" width="18" xmlns="http://www.w3.org/2000/svg"><g fill="#6b7387" fill-rule="evenodd"><path d="m4.05638 8.38095h-2.38019v-1.95485h1.82076.55943c.53638 0 .97219.43685.97219.98266 0 .53534-.43581.97219-.97219.97219zm-2.38019-5.58695h1.82076c.53743 0 .97324.43581.97324.98267 0 .53638-.43581.97219-.97324.97219h-1.82076zm5.02752 4.60429c0-.858-.41485-1.61439-1.04971-2.09734.30695-.43371.49133-.96171.49133-1.53476 0-.88943-.44314-1.67305-1.11676-2.1539v-.774195c0-.463047-.37609-.838095-.83809-.838095s-.8381.375048-.8381.838095v.278665h-.55943v-.278665c0-.463047-.37505-.838095-.83809-.838095-.462 0-.8381.375048-.8381.838095v.278665h-.278665c-.463047 0-.838095.3761-.838095.8381v3.63209 3.6321c0 .462.375048.83805.838095.83805h.278665v.2787c0 .4631.3761.8381.8381.8381.46304 0 .83809-.375.83809-.8381v-.2787h.55943v.2787c0 .4631.3761.8381.8381.8381s.83809-.375.83809-.8381v-.46932c.97953-.38972 1.67514-1.34305 1.67514-2.46819z" transform="matrix(.21647306 0 0 .23761601 1.71397433956 1.78859637685)"/><path d="m1.01305 19.803c.56257 0 1.01305-.4504 1.01305-1.013v-14.54515h14.3471v1.46353c0 .28076.1415.53533.3939.67467.1132.05657.2536.11314.3939.11314.1415 0 .2819-.02829.394-.11314l4.0239-2.44724c.2252-.14038.3645-.39286.3645-.67467s-.1393-.53533-.3645-.67571l-4.0512-2.475528c-.2546-.1414282-.5353-.1414282-.7878-.0282853-.2535.1414283-.3939.4221903-.3939.7040003v1.462473h-15.33295c-.562574 0-1.01305.45048-1.01305 1.01305v15.55816c0 .5333.450476.9837 1.01305.9837" transform="matrix(.21647306 0 0 .23761601 .00000018057 .00000031511)"/><path d="m20.9031 0c-.5625 0-1.013.450476-1.013 1.01305v14.54405h-14.31991v-1.4635c0-.2807-.14038-.5343-.39286-.6746-.25352-.1404-.56257-.1404-.78781.0282l-4.023901 2.4473c-.22419.1414-.365619.3939-.365619.6746 0 .2819.141429.5354.365619.6758l4.023901 2.4482c.1121.0839.25353.1121.39391.1121s.25247-.0282.3939-.1121c.25248-.1414.39286-.3939.39286-.6757v-1.4624h15.33291c.5626 0 1.0131-.4505 1.0131-1.0131v-15.52885c0-.562574-.4505-1.01305-1.0131-1.01305" transform="matrix(.21647306 0 0 .23761601 .01823327347 1.64396782812)"/></g></svg>