<svg width="26" height="23" viewBox="0 0 26 23" fill="none" xmlns="http://www.w3.org/2000/svg">
<path d="M23.9189 1.5293C24.6585 1.5293 25.2164 2.17805 24.918 3.38473L21.298 20.4469C21.045 21.6601 20.3119 21.952 19.2998 21.3876L10.6649 15.0104C10.6314 14.9864 10.6041 14.9547 10.5853 14.918C10.5665 14.8814 10.5567 14.8408 10.5567 14.7995C10.5567 14.7583 10.5665 14.7177 10.5853 14.681C10.6041 14.6444 10.6314 14.6127 10.6649 14.5887L20.6362 5.584C21.0904 5.18178 20.5389 4.98715 19.9421 5.35045L7.42762 13.2458C7.38967 13.2705 7.34657 13.2863 7.30161 13.2919C7.25665 13.2976 7.211 13.2929 7.16812 13.2782L1.85483 11.5979C0.674097 11.2541 0.674097 10.4432 2.12082 9.86578L23.3805 1.66554C23.5493 1.5853 23.7322 1.53901 23.9189 1.5293Z" stroke="black" stroke-width="1.5" stroke-linecap="round" stroke-linejoin="round"/>
</svg>
