<svg xmlns="http://www.w3.org/2000/svg" viewBox="0 0 17.992 19.937" height="75.351" width="68.001">
  <path d="M14.81 2.462a.466.466 0 01-.23-.06C12.66 1.416 11 .997 9.01.997c-1.98 0-3.86.468-5.569 1.405a.51.51 0 01-.68-.2.504.504 0 01.2-.677A12.587 12.587 0 019.011 0c2.13 0 3.989.468 6.028 1.515.25.13.34.429.21.668a.49.49 0 01-.44.28zM.502 7.696a.496.496 0 01-.41-.788 10.327 10.327 0 013.75-3.26C6.98 2.034 11 2.024 14.148 3.638c1.5.768 2.76 1.854 3.75 3.24a.497.497 0 01-.12.698.5.5 0 01-.7-.12 9.377 9.377 0 00-3.39-2.93c-2.869-1.466-6.537-1.466-9.397.01a9.478 9.478 0 00-3.399 2.95c-.08.14-.23.21-.39.21zm6.248 12.031a.47.47 0 01-.35-.15c-.87-.866-1.34-1.425-2.01-2.63-.689-1.227-1.049-2.722-1.049-4.327 0-2.96 2.54-5.373 5.659-5.373 3.119 0 5.658 2.412 5.658 5.373a.494.494 0 01-.5.498.494.494 0 01-.5-.498c0-2.412-2.089-4.376-4.658-4.376-2.57 0-4.66 1.964-4.66 4.376 0 1.435.32 2.761.93 3.838.64 1.146 1.08 1.634 1.85 2.412a.51.51 0 010 .708c-.11.1-.24.15-.37.15zm7.168-1.844c-1.19 0-2.24-.299-3.099-.887-1.49-1.007-2.38-2.642-2.38-4.376 0-.28.22-.498.5-.498s.5.219.5.498c0 1.406.72 2.731 1.94 3.549.71.478 1.54.707 2.54.707.24 0 .64-.03 1.04-.1.269-.049.53.13.58.41.05.269-.131.528-.411.578a6.846 6.846 0 01-1.21.12zm-2.01 2.054a.58.58 0 01-.129-.02c-1.59-.439-2.63-1.027-3.72-2.094a7.263 7.263 0 01-2.169-5.203c0-1.615 1.38-2.93 3.08-2.93 1.7 0 3.079 1.315 3.079 2.93 0 1.067.93 1.934 2.08 1.934 1.149 0 2.079-.867 2.079-1.934 0-3.758-3.25-6.808-7.248-6.808-2.84 0-5.439 1.575-6.609 4.017-.39.807-.59 1.754-.59 2.791 0 .777.07 2.004.67 3.598.1.26-.03.549-.29.639-.26.1-.55-.04-.64-.29a11.074 11.074 0 01-.73-3.947c0-1.196.23-2.283.68-3.23 1.33-2.781 4.28-4.585 7.509-4.585 4.548 0 8.248 3.499 8.248 7.805 0 1.615-1.38 2.93-3.08 2.93-1.7 0-3.079-1.315-3.079-2.93 0-1.067-.93-1.934-2.08-1.934s-2.079.867-2.079 1.934c0 1.704.66 3.3 1.87 4.496.95.937 1.86 1.455 3.269 1.844.27.07.42.349.35.608a.487.487 0 01-.47.379z" fill="white"/>
</svg>
