<svg width="106" height="113" viewBox="0 0 106 113" fill="none" xmlns="http://www.w3.org/2000/svg">
<path d="M51.5 0.25C57.6391 0.25 63.4104 1.89514 68.3795 4.77064C71.0688 6.32652 71.9868 9.76761 70.4309 12.4565C68.8751 15.1454 65.4342 16.0639 62.7455 14.508C59.4414 12.5962 55.6074 11.5 51.5 11.5C39.0736 11.5 29 21.5736 29 34H90.875C97.0884 34 102.125 39.0368 102.125 45.25V101.5C102.125 107.713 97.0884 112.75 90.875 112.75H12.125C5.91179 112.75 0.875 107.713 0.875 101.5V45.25C0.875 39.0368 5.91179 34 12.125 34H17.75C17.75 15.3604 32.8604 0.25 51.5 0.25ZM90.875 45.25H12.125V101.5H90.875V45.25ZM51.5 56.5C57.7134 56.5 62.75 61.5366 62.75 67.75C62.75 71.5939 60.8223 74.9872 57.8809 77.0164L57.125 77.4948V84.625C57.125 87.7317 54.6067 90.25 51.5 90.25C48.6152 90.25 46.2378 88.0786 45.9128 85.281L45.875 84.625V77.4948C42.5124 75.5496 40.25 71.9142 40.25 67.75C40.25 61.5366 45.2866 56.5 51.5 56.5ZM96.0399 17.2444L101.474 18.7003C104.474 19.5043 106.255 22.5887 105.451 25.5894C104.647 28.5902 101.563 30.371 98.5616 29.5669L93.1284 28.1111C90.1274 27.307 88.3471 24.2226 89.1509 21.2219C89.9548 18.2211 93.0395 16.4404 96.0399 17.2444ZM88.8129 0.749387C91.8138 1.55342 93.5947 4.63778 92.7903 7.63855L92.0624 10.3552C91.2586 13.356 88.1744 15.1367 85.1735 14.3327C82.1726 13.5287 80.3917 10.4442 81.1961 7.44348L81.9239 4.72683C82.7278 1.72611 85.8125 -0.0547067 88.8129 0.749387Z" fill="#4BD0FF"/>
</svg>
