<svg fill="none" height="22" viewBox="0 0 23 22" width="23" xmlns="http://www.w3.org/2000/svg"><path d="m22.2579 0h-8.6009c-.2914 0-.5278.238499-.5278.533898v10.515102c0 .2951.2364.5339.5278.5339h1.7584l-4.0224 5.2867-4.02146-5.2867h1.75836c.29142 0 .52778-.2388.52778-.5339v-10.515102c0-.295399-.23636-.533898-.52778-.533898h-8.602122c-.291415 0-.527778.238499-.527778.533898v20.932202c0 .2951.236363.5339.527778.5339h21.730122c.2926 0 .5278-.2388.5278-.5339v-20.932202c0-.295399-.2352-.533898-.5278-.533898z" fill="#05989a"/></svg>