<svg xmlns="http://www.w3.org/2000/svg" viewBox="0 0 49.906 32.875" height="124.253" width="188.62">
  <g fill-rule="nonzero" fill="none">
    <path d="M46.28 26.988c-.157.137-.316.27-.479.4l-.083.066c-.58.45-1.19.861-1.824 1.232l-.119.069a30.22 30.22 0 01-2.133 1.118l-.007.003-.052.025c-.561.27-1.13.526-1.709.772l-.013.005c-.261.11-.522.217-.782.321a28.848 28.848 0 01-.926.35l-.025.01-.044.015-.054.02a30 30 0 01-1.612.524l-.01.003c-.379.11-.76.213-1.145.307l-.053.013c-.564.136-1.138.254-1.715.347l-.133.022c-.422.066-.847.12-1.275.162-2.405.232-4.84.044-7.23-.28-4.827-.655-9.591-1.883-13.935-3.807a40.547 40.547 0 01-2.453-1.186l-.019-.01a35.437 35.437 0 01-2.324-1.333 36.306 36.306 0 01-.651-.416l-.102-.068-.039-.027-.164-.11c-2.041-1.39-3.861-3.075-4.721-5.182-.994-2.432-.358-5.515 2.103-6.953.846-.495 1.83-.764 2.823-.986l.102-.022.503-.108c.586-.125 1.175-.248 1.758-.386.304-.071.605-.146.904-.228l.122-.033a14.639 14.639 0 002.111-.744h.005a6.63 6.63 0 00.217-.101l.138-.067c.738-.368 1.52-.877 2.121-1.484a5.579 5.579 0 00.245-.265c.421-.491.713-1.037.769-1.617.018-.194.01-.39-.026-.583-.069-.364-.135-.72-.183-1.069-.091-.653-.122-1.278.004-1.88.128-.615.419-1.206.973-1.779.084-.087.174-.173.27-.26a5.701 5.701 0 011.505-.95c.067-.03.136-.058.204-.087 1.524-.617 3.354-.746 5.064-.66a27.626 27.626 0 015.116.746 32.89 32.89 0 013.908 1.209c3.317 1.248 6.448 2.98 9.373 4.892l.086.056a49.563 49.563 0 011.06.708l.155.105.228.157.232.161a.257.257 0 01.032.022l.198.137.342.241.245.174.153.11.26.19.059.043a.703.703 0 01.036.027l.007.005a29.214 29.214 0 012.041 1.624l.084.074.008.008c.07.063.141.126.21.19.844.768 1.6 1.593 2.217 2.505 2.836 4.212 1.994 10.045-1.952 13.513z" opacity=".15" fill="#05989a"/>
    <path d="M10.248 0s-2.661 1.934-.9 3.466c0 0 .2.363.602.271 0 0-.104-.135.188-.301a1.5 1.5 0 00.286-.214.741.741 0 00.223-.414s.47-.881-.211-2.275c0 0-.005-.423-.067-.481l-.276.535s.4.188.496.54c0 0-.47-.544-.541-.461-.014.016-.135.29-.135.29s.695.33.827.878c0 0-.473-.722-.875-.775l-.156.424s.75.314.925.93c0 0-.521-.736-.953-.835l-.098.438s.727.32.868.834c0 0-.69-.79-.883-.732 0 0-.066.407-.031.523 0 0 .516.242.572.548 0 0-.517-.48-.577-.434 0 0 .056.553.233.819 0 0-.29-.373-.32-.805 0 0-.197.23-.208.488 0 0-.171-.283.197-.623 0 0-.027-.432.012-.492 0 0-.41.284-.558.578 0 0 .009-.407.58-.695l.088-.442s-.562.347-.713.599c0 0 .073-.415.745-.71l.149-.417S9.23 1.317 9 1.56c0 0 .15-.368.783-.624L9.915.67s-.368.198-.467.264C9.348 1 9.32.98 9.32.98c.173-.198.397-.344.648-.422 0 0 .31-.536.28-.558zM7.044 7.25S2.998 5.547 2.467 8.615c0 0-.276.478.108.873 0 0 .083-.212.475.007.14.077.287.138.441.18a.994.994 0 00.629-.034S5.45 9.57 6.57 7.83c0 0 .48-.296.504-.408l-.803.054s.062.588-.27.94c0 0 .295-.911.153-.937-.029-.005-.424.047-.424.047s.102 1.02-.433 1.55c0 0 .497-1.04.28-1.532l-.591.114s.162 1.075-.423 1.7c0 0 .48-1.105.295-1.666l-.567.19s.137 1.051-.353 1.57c0 0 .428-1.332.226-1.515 0 0-.51.207-.619.325 0 0 .081.757-.23 1.03 0 0 .191-.92.097-.957 0 0-.593.446-.774.83 0 0 .226-.587.699-.92 0 0-.397-.067-.704.1 0 0 .205-.39.847-.206 0 0 .476-.33.571-.324 0 0-.607-.27-1.046-.237 0 0 .47-.271 1.195.18l.564-.204s-.784-.402-1.178-.4c0 0 .523-.203 1.325.36l.58-.12s-.65-.397-1.088-.49c0 0 .525-.082 1.254.464l.396-.033s-.48-.283-.624-.352c-.145-.068-.139-.113-.139-.113.345.06.667.215.93.447 0 0 .82-.016.824-.067zM6.414 4.293s-1.896-4.38-4.62-2.372c0 0-.578.168-.573.766 0 0 .225-.105.366.362.053.166.125.324.215.473.12.201.302.358.519.447 0 0 1.098.945 3.29.421 0 0 .6.128.702.06l-.67-.563s-.393.507-.92.532c0 0 .917-.494.824-.62a7.822 7.822 0 00-.367-.282s-.689.878-1.502.892c0 0 1.172-.442 1.372-.99L4.5 3.06s-.692.967-1.62 1.018c0 0 1.208-.504 1.485-1.085l-.589-.274s-.683.93-1.456.965c0 0 1.337-.724 1.317-1.02 0 0-.556-.22-.732-.208 0 0-.505.654-.957.636 0 0 .843-.579.797-.68 0 0-.8-.095-1.232.072 0 0 .62-.292 1.24-.196 0 0-.26-.352-.625-.45 0 0 .455-.153.82.475 0 0 .62.1.693.175 0 0-.272-.672-.644-.974 0 0 .573.143.802 1.041l.597.266s-.312-.907-.623-1.2c0 0 .563.234.769 1.28l.543.342s-.21-.801-.484-1.204c0 0 .474.33.636 1.308l.336.272s-.164-.582-.226-.745c-.063-.163-.023-.193-.023-.193.225.306.361.67.392 1.05 0 0 .658.6.698.561z" opacity=".6" fill="#05989a"/>
    <path d="M33.127 11.846a1.25 1.25 0 00-.858.378l-7.542 7.542-4.126-3.267a1.25 1.25 0 10-1.548 1.959l4.997 3.956a1.25 1.25 0 001.66-.098l8.328-8.329a1.25 1.25 0 00-.91-2.14z" fill="#00b876"/>
  </g>
</svg>
