<svg width="29" height="26" viewBox="0 0 29 26" fill="none" xmlns="http://www.w3.org/2000/svg">
<path d="M3.63287 23.1153L3.50618 23.3392H3.76342H25.2366H25.4938L25.3671 23.1153L14.6305 4.14229L14.5 3.91159L14.3695 4.14229L3.63287 23.1153ZM0.315102 23.9658L0.184556 23.8919L0.315103 23.9658L13.4376 0.776525C13.5457 0.585561 13.7009 0.427357 13.8874 0.317518C14.0738 0.207694 14.2851 0.15 14.5 0.15C14.7149 0.15 14.9262 0.207694 15.1126 0.317518C15.2991 0.427355 15.4543 0.585556 15.5624 0.776517C15.5624 0.77652 15.5624 0.776523 15.5624 0.776525L28.6849 23.9658C28.793 24.1568 28.85 24.3736 28.85 24.5946C28.85 24.8155 28.793 25.0324 28.6849 25.2234C28.5768 25.4144 28.4216 25.5726 28.2351 25.6825C28.0487 25.7923 27.8374 25.85 27.6225 25.85H1.37751C1.16262 25.85 0.951345 25.7923 0.764881 25.6825C0.578395 25.5726 0.423167 25.4144 0.315094 25.2234C0.207011 25.0324 0.149999 24.8155 0.15 24.5946C0.150001 24.3736 0.207017 24.1568 0.315102 23.9658ZM15.7275 19.123V21.6338H13.2725V19.123H15.7275ZM15.7275 9.2851V16.0121H13.2725V9.2851H15.7275Z" fill="black" stroke="white" stroke-width="0.3"/>
</svg>
