<svg fill="none" height="15" viewBox="0 0 15 15" width="15" xmlns="http://www.w3.org/2000/svg"><path d="m14.4 6.9c-.1-1.5-.6-2.9-1.4-4-.1-.2-.3-.3-.4-.5-1.1-1.3-2.6-2.1-4.3-2.3000001-.3 0-.5-.0999999-.8-.0999999h-.1c-.2 0-.4 0-.4 0h-.1c-1 0-1.9.3-2.8.7-.9.3-1.6.9-2.3 1.6-.1.2-.3.3-.4.5-.9 1.2-1.4 2.5-1.4 4v.1.2.2.1c.1 1.4.6 2.8 1.4 4 .1.2.3.3.4.5 1.1 1.3 2.6 2.1 4.3 2.3.2 0 .5.1.8.1h.1.2.2.1c.3 0 .5 0 .8-.1 1.7-.3 3.2-1.1 4.3-2.3.1-.2.3-.3.4-.5.9-1.2 1.4-2.5 1.4-4v-.1c0-.1 0-.2 0-.2zm-5 4.2c-.4.7-1 1.3-1.7 1.9v-2c.5 0 1.1 0 1.7.1zm1.1-4.5h-2.8v-2.4c.7 0 1.5-.1 2.2-.2.3.8.5 1.7.6 2.6zm-.1-3.7c-.4-.7-.8-1.2-1.3-1.8.9.3 1.7.8 2.4 1.4-.3.2-.7.3-1.1.4zm.4.9c.5-.1.9-.3 1.4-.4.7.9 1.1 2.1 1.2 3.3h-2c0-1-.2-2-.6-2.9zm-3.1-.6v-2c.7.5 1.3 1.1 1.7 1.9-.6.1-1.2.1-1.7.1zm5.7 4.4c-.1 1.2-.5 2.3-1.2 3.3-.5-.2-.9-.3-1.4-.4.4-.9.6-1.8.6-2.8h2zm-1.9 4c-.7.7-1.5 1.1-2.4 1.4.5-.5 1-1.1 1.3-1.8.4.2.8.3 1.1.4zm-3.8-1.6v-2.4h2.8c0 .9-.3 1.8-.6 2.6-.8-.1-1.5-.2-2.2-.2zm-2.7-6.9c.4-.7 1-1.4 1.7-1.9v2c-.5 0-1.1 0-1.7-.1zm1.7 1.1v2.4h-2.8c.1-.9.3-1.7.7-2.6.7.1 1.4.2 2.1.2zm-3.8-1.6c.7-.7 1.5-1.2 2.4-1.5-.5.5-1 1.1-1.3 1.8-.4-.1-.8-.2-1.1-.3zm.7 1.2c-.4.9-.6 1.8-.7 2.8h-2c.1-1.2.6-2.3 1.3-3.2.4.1.9.3 1.4.4zm.3 3.8h2.8v2.4c-.7 0-1.5.1-2.2.2-.3-.8-.5-1.7-.6-2.6zm.1 3.7c.4.6.8 1.2 1.3 1.8-.9-.3-1.7-.8-2.4-1.4.3-.2.7-.3 1.1-.4zm-3-3.7h2c0 1 .3 1.9.6 2.8-.5.1-.9.3-1.4.4-.7-.9-1.2-2-1.2-3.2zm5.7 3.4v2c-.7-.5-1.3-1.1-1.7-1.9.6-.1 1.2-.1 1.7-.1z" fill="#191919"/></svg>