<svg width="15" height="15" viewBox="0 0 15 15" fill="none" xmlns="http://www.w3.org/2000/svg">
<path d="M14.4 6.9C14.3 5.4 13.8 4 13 2.9C12.9 2.7 12.7 2.6 12.6 2.4C11.5 1.1 10 0.3 8.3 0.0999999C8 0.0999999 7.8 0 7.5 0H7.4C7.2 0 7 0 7 0H6.9C5.9 0 5 0.3 4.1 0.7C3.2 1 2.5 1.6 1.8 2.3C1.7 2.5 1.5 2.6 1.4 2.8C0.5 4 0 5.3 0 6.8V6.9C0 7 0 7 0 7.1C0 7.2 0 7.3 0 7.3V7.4C0.1 8.8 0.6 10.2 1.4 11.4C1.5 11.6 1.7 11.7 1.8 11.9C2.9 13.2 4.4 14 6.1 14.2C6.3 14.2 6.6 14.3 6.9 14.3H7C7.1 14.3 7.2 14.3 7.2 14.3H7.4H7.5C7.8 14.3 8 14.3 8.3 14.2C10 13.9 11.5 13.1 12.6 11.9C12.7 11.7 12.9 11.6 13 11.4C13.9 10.2 14.4 8.9 14.4 7.4V7.3C14.4 7.2 14.4 7.1 14.4 7.1V6.9ZM9.4 11.1C9 11.8 8.4 12.4 7.7 13V11C8.2 11 8.8 11 9.4 11.1ZM10.5 6.6H7.7V4.2C8.4 4.2 9.2 4.1 9.9 4C10.2 4.8 10.4 5.7 10.5 6.6ZM10.4 2.9C10 2.2 9.6 1.7 9.1 1.1C10 1.4 10.8 1.9 11.5 2.5C11.2 2.7 10.8 2.8 10.4 2.9ZM10.8 3.8C11.3 3.7 11.7 3.5 12.2 3.4C12.9 4.3 13.3 5.5 13.4 6.7H11.4C11.4 5.7 11.2 4.7 10.8 3.8ZM7.7 3.2V1.2C8.4 1.7 9 2.3 9.4 3.1C8.8 3.2 8.2 3.2 7.7 3.2ZM13.4 7.6C13.3 8.8 12.9 9.9 12.2 10.9C11.7 10.7 11.3 10.6 10.8 10.5C11.2 9.6 11.4 8.7 11.4 7.7H13.4V7.6ZM11.5 11.6C10.8 12.3 10 12.7 9.1 13C9.6 12.5 10.1 11.9 10.4 11.2C10.8 11.4 11.2 11.5 11.5 11.6ZM7.7 10V7.6H10.5C10.5 8.5 10.2 9.4 9.9 10.2C9.1 10.1 8.4 10 7.7 10ZM5 3.1C5.4 2.4 6 1.7 6.7 1.2V3.2C6.2 3.2 5.6 3.2 5 3.1ZM6.7 4.2V6.6H3.9C4 5.7 4.2 4.9 4.6 4C5.3 4.1 6 4.2 6.7 4.2ZM2.9 2.6C3.6 1.9 4.4 1.4 5.3 1.1C4.8 1.6 4.3 2.2 4 2.9C3.6 2.8 3.2 2.7 2.9 2.6ZM3.6 3.8C3.2 4.7 3 5.6 2.9 6.6H0.9C1 5.4 1.5 4.3 2.2 3.4C2.6 3.5 3.1 3.7 3.6 3.8ZM3.9 7.6H6.7V10C6 10 5.2 10.1 4.5 10.2C4.2 9.4 4 8.5 3.9 7.6ZM4 11.3C4.4 11.9 4.8 12.5 5.3 13.1C4.4 12.8 3.6 12.3 2.9 11.7C3.2 11.5 3.6 11.4 4 11.3ZM1 7.6H3C3 8.6 3.3 9.5 3.6 10.4C3.1 10.5 2.7 10.7 2.2 10.8C1.5 9.9 1 8.8 1 7.6ZM6.7 11V13C6 12.5 5.4 11.9 5 11.1C5.6 11 6.2 11 6.7 11Z" fill="#191919"/>
</svg>
