<svg fill="none" height="530" viewBox="0 0 400 530" width="400" xmlns="http://www.w3.org/2000/svg"><g fill="#6c6c6c"><path clip-rule="evenodd" d="m0 364.315 325-364.315 325 364.315-216.174 165.027h-217.899zm324.989 97.838h3.697c68.525-1.972 127.806-55.954 127.683-124.971 0-23.047-10.599-55.091-21.321-73.702-11.204-22.004-26.891-47.018-42.865-72.489-23.214-37.015-47.032-74.993-58.567-106.0941v-.1233c-.062-.1232-.092-.2465-.123-.3697s-.062-.2465-.123-.3697l-5.423-15.1593c-.986-2.8347-5.053-2.8347-6.039 0l-5.546 15.529c-11.448 31.1351-35.278 69.1741-58.522 106.2781-16.044 25.611-31.81 50.777-43.033 72.922-10.723 18.61-21.322 50.654-21.322 73.701 0 68.894 59.282 122.876 127.93 124.848z" fill-rule="evenodd"/><path d="m327.722 462.903c-1.228 0-2.457 0-3.686 0s-2.458 0-3.563 0c-59.106-1.707-111.33-41.82-124.356-96.807h-196.117l215.287 163.255h217.253l215.532-163.255h-195.994c-13.026 54.987-65.25 95.1-124.356 96.807z"/></g></svg>