<svg fill="none" height="59" viewBox="0 0 60 59" width="60" xmlns="http://www.w3.org/2000/svg"><path clip-rule="evenodd" d="m53.5921 13.7819c1.7575 0 3.3607.7228 4.5221 1.8858 1.163 1.1543 1.8858 2.7591 1.8858 4.5229v7.5346h-14.0488c-4.2126 0-7.6662 3.4535-7.6662 7.6661v1.6213c0 4.2126 3.4536 7.6661 7.6662 7.6661h14.0488v7.5339c0 1.763-.7228 3.3677-1.8811 4.5268-1.1591 1.159-2.7638 1.8819-4.5268 1.8819h-40.1921c-7.36378 0-13.4-6.037-13.4-13.4v-36.53547-.04567c0-4.75827 3.87953-8.64016 8.6378-8.64016h36.9811c.9654 0 1.748.782677 1.748 1.74724 0 .96536-.7826 1.74804-1.748 1.74804h-36.9811c-6.75512 0-6.76693 10.28662 0 10.28662zm6.4079 15.9433v12.9535h-14.0488c-3.1197 0-5.6662-2.5464-5.6662-5.6661v-1.6213c0-3.1196 2.5465-5.6661 5.6662-5.6661zm-9.8693 2.3843c1.1276 0 2.1496.459 2.8898 1.1984.7441.7401 1.2023 1.7645 1.2023 2.8937 0 1.1299-.4582 2.1535-1.1984 2.8937-.7401.7401-1.7638 1.1984-2.8937 1.1984-1.1291 0-2.1535-.4583-2.8937-1.1984l-.0583-.063c-.7047-.7354-1.1401-1.7331-1.1401-2.8307 0-1.126.459-2.1488 1.1984-2.8898.7449-.7433 1.7677-1.2023 2.8937-1.2023zm1.4803 2.6118c-.3771-.378-.9008-.6118-1.4803-.6118-.5787 0-1.1039.2346-1.4811.611-.3764.3771-.611.9023-.611 1.4811 0 .5582.2173 1.0645.5701 1.4393l.0425.0402c.3779.378.9023.6126 1.4795.6126.578 0 1.1016-.2346 1.4795-.6126.378-.3779.6126-.9016.6126-1.4795 0-.5772-.2346-1.1016-.6118-1.4803z" fill="#00a1cc" fill-rule="evenodd"/></svg>