<svg width="34" height="16" viewBox="0 0 34 16" fill="none" xmlns="http://www.w3.org/2000/svg">
<g clip-path="url(#clip0_4014_20814)">
<path d="M6.92199 2.99049C6.53664 3.44648 5.92009 3.80614 5.30353 3.75476C5.22646 3.1382 5.52832 2.48311 5.88155 2.0785C6.2669 1.60966 6.94126 1.27569 7.48716 1.25C7.55139 1.89225 7.30091 2.52165 6.92199 2.99049ZM7.48074 3.87678C6.58802 3.8254 5.82375 4.38416 5.39987 4.38416C4.96956 4.38416 4.32089 3.90247 3.61442 3.91532C2.69601 3.92816 1.84183 4.44838 1.37299 5.27688C0.409619 6.93387 1.12251 9.38725 2.05377 10.736C2.50976 11.4039 3.05567 12.1361 3.77499 12.1104C4.45577 12.0847 4.72551 11.6672 5.54758 11.6672C6.37608 11.6672 6.61371 12.1104 7.33303 12.0975C8.07803 12.0847 8.54687 11.4296 9.00286 10.7617C9.52308 10.0038 9.73502 9.26522 9.74787 9.22669C9.73502 9.21384 8.30924 8.66794 8.29639 7.02379C8.28355 5.64938 9.42032 4.99429 9.4717 4.95576C8.82946 4.00523 7.82756 3.90247 7.48074 3.87678ZM12.638 2.01427V12.0269H14.1922V8.60371H16.3437C18.309 8.60371 19.6898 7.255 19.6898 5.30257C19.6898 3.35014 18.3347 2.01427 16.3951 2.01427H12.638ZM14.1922 3.32445H15.9841C17.3328 3.32445 18.1035 4.04377 18.1035 5.30899C18.1035 6.57422 17.3328 7.29995 15.9777 7.29995H14.1922V3.32445ZM22.5286 12.1039C23.5048 12.1039 24.4103 11.6094 24.8214 10.8259H24.8535V12.0269H26.2921V7.04305C26.2921 5.598 25.1361 4.66675 23.3571 4.66675C21.7065 4.66675 20.4862 5.61085 20.4413 6.90818H21.8414C21.957 6.29163 22.5286 5.88701 23.3121 5.88701C24.2626 5.88701 24.7957 6.33016 24.7957 7.14581V7.69814L22.8561 7.81375C21.0514 7.92293 20.0752 8.66151 20.0752 9.946C20.0752 11.2433 21.0835 12.1039 22.5286 12.1039ZM22.946 10.9158C22.1175 10.9158 21.5909 10.5176 21.5909 9.90747C21.5909 9.27807 22.0983 8.91199 23.068 8.85419L24.7957 8.745V9.31018C24.7957 10.2479 23.9993 10.9158 22.946 10.9158ZM28.2124 14.75C29.7281 14.75 30.441 14.172 31.064 12.4186L33.7935 4.76308H32.2136L30.3832 10.6782H30.3511L28.5207 4.76308H26.8958L29.529 12.0526L29.3877 12.4957C29.1501 13.2471 28.7648 13.5362 28.0776 13.5362C27.9555 13.5362 27.7179 13.5233 27.6216 13.5105V14.7115C27.7115 14.7372 28.0968 14.75 28.2124 14.75Z" fill="#080D11"/>
</g>
<defs>
<clipPath id="clip0_4014_20814">
<rect width="32.8792" height="16" fill="white" transform="translate(0.914337)"/>
</clipPath>
</defs>
</svg>
