<svg width="24" height="24" viewBox="0 0 24 24" fill="none" xmlns="http://www.w3.org/2000/svg">
<path fill-rule="evenodd" clip-rule="evenodd" d="M1 15.4549L11.9993 2.96997L23 15.4549L16.2886 21.0335H7.7186L1 15.4549ZM12.0007 18.8207H12.1197C14.3253 18.759 16.2341 17.0797 16.2298 14.9315C16.2298 14.2145 15.8885 13.2164 15.5429 12.637C15.3526 12.2756 14.2034 10.2569 12.0954 6.58095C12.0638 6.49204 11.9319 6.49204 11.9018 6.58095C11.9018 6.58095 8.81566 11.9515 8.45427 12.6413C8.10866 13.2207 7.76735 14.2188 7.76735 14.9358C7.76735 17.0797 9.6761 18.7605 11.8846 18.8221H11.9993L12.0007 18.8207Z" fill="#080D11"/>
</svg>
