<svg width="129" height="24" viewBox="0 0 129 24" fill="none" xmlns="http://www.w3.org/2000/svg">
<g clip-path="url(#clip0_3971_3291)">
<path fill-rule="evenodd" clip-rule="evenodd" d="M0 16.5482L14.4872 0.104248L28.9763 16.5482L20.1366 23.8957H8.84909L0 16.5482ZM14.4891 20.9813H14.6459C17.5508 20.9001 20.0649 18.6883 20.0592 15.8588C20.0592 14.9144 19.6097 13.5998 19.1544 12.8367C18.9039 12.3608 17.3903 9.70193 14.6137 4.86028C14.5722 4.74317 14.3984 4.74317 14.3588 4.86028C14.3588 4.86028 10.294 11.9339 9.81805 12.8424C9.36284 13.6055 8.91331 14.9201 8.91331 15.8645C8.91331 18.6883 11.4273 20.902 14.3361 20.9832H14.4872L14.4891 20.9813Z" fill="#080D11"/>
<path d="M59.2414 21.584H55.069L49.1117 10.1264L43.1544 21.584H38.9763L49.1136 2.37665L59.2433 21.584H59.2414Z" fill="#080D11"/>
<path d="M79.3978 18.8165C80.0079 18.231 80.5329 17.5642 80.9749 16.8162C81.8476 15.3392 82.2839 13.6921 82.2839 11.8751C82.2839 10.0581 81.8438 8.40725 80.9617 6.92076C80.0796 5.43426 78.8783 4.2632 77.356 3.40756C75.8336 2.55193 74.128 2.12506 72.2411 2.12506C70.3541 2.12506 68.6712 2.55193 67.1394 3.40756C65.6075 4.26131 64.4025 5.43237 63.5204 6.92076C62.6383 8.40725 62.1982 10.06 62.1982 11.8751C62.1982 13.6903 62.6383 15.3392 63.5204 16.8162C64.4025 18.2952 65.6075 19.4568 67.1394 20.3011C68.6448 21.1322 70.3239 21.5553 72.175 21.5685L83.7231 21.5817V18.8146H79.3997L79.3978 18.8165ZM77.5751 14.8878C77.0368 15.7925 76.2982 16.5027 75.3614 17.0202C74.4396 17.5283 73.414 17.7871 72.2807 17.7946H72.1995C71.0681 17.7852 70.0406 17.5283 69.1188 17.0183C68.182 16.5008 67.4435 15.7906 66.9052 14.8859C66.3668 13.9811 66.0967 12.9744 66.0967 11.8638C66.0967 10.7532 66.3668 9.74264 66.9052 8.83223C67.4435 7.92371 68.182 7.20597 69.1188 6.68277C70.0557 6.15956 71.0964 5.89891 72.2392 5.89891C73.3838 5.89891 74.4226 6.15956 75.3595 6.68277C76.2963 7.20597 77.0349 7.92183 77.5732 8.83223C78.1115 9.74264 78.3816 10.7513 78.3816 11.8638C78.3816 12.9763 78.1115 13.983 77.5732 14.8859L77.5751 14.8878Z" fill="#080D11"/>
<path d="M105.212 2.41254V13.6377C105.212 15.2508 104.863 16.6825 104.166 17.9329C103.469 19.1833 102.485 20.1523 101.217 20.8417C99.9481 21.5311 98.5088 21.8749 96.8958 21.8749C95.2827 21.8749 93.8189 21.5311 92.561 20.8417C91.3011 20.1542 90.3227 19.1795 89.6257 17.9197C88.9288 16.6598 88.5793 15.2338 88.5793 13.6396V2.41254H92.5477V13.6377C92.5477 14.5444 92.7291 15.3452 93.0917 16.0441C93.4544 16.7411 93.9625 17.2813 94.6141 17.6609C95.2657 18.0406 96.0269 18.2313 96.8977 18.2313C97.7684 18.2313 98.5051 18.0406 99.168 17.6609C99.8291 17.2794 100.341 16.7411 100.704 16.0441C101.066 15.3471 101.248 14.5444 101.248 13.6377V2.41254H105.216H105.212Z" fill="#080D11"/>
<path d="M128.732 21.584H124.56L118.602 10.1264L112.645 21.584H108.467L118.604 2.37665L128.734 21.584H128.732Z" fill="#080D11"/>
</g>
<defs>
<clipPath id="clip0_3971_3291">
<rect width="128.8" height="24" fill="white"/>
</clipPath>
</defs>
</svg>
