<svg width="24" height="24" viewBox="0 0 24 24" fill="none" xmlns="http://www.w3.org/2000/svg">
<path d="M6.34316 6.34315C6.41387 6.27244 6.55529 6.13101 6.69671 6.13101C6.76742 6.0603 6.90884 6.0603 7.05026 6.0603L16.9498 6.0603C17.5154 6.0603 17.9397 6.48457 17.9397 7.05025C17.9397 7.61594 17.5154 8.0402 16.9498 8.0402L9.45443 8.0402L17.6569 16.2426C18.0811 16.6669 18.0811 17.2326 17.6569 17.6569C17.2326 18.0811 16.6669 18.0811 16.2427 17.6569L8.04021 9.45442L8.04021 16.9497C8.04022 17.5154 7.61595 17.9397 7.05026 17.9397C6.48458 17.9397 6.06032 17.5154 6.06032 16.9497V7.05025C6.06032 6.90883 6.06032 6.76741 6.13103 6.6967C6.13103 6.55528 6.27245 6.41386 6.34316 6.34315Z" fill="#080D11"/>
</svg>
