<svg width="24" height="24" viewBox="0 0 24 24" fill="none" xmlns="http://www.w3.org/2000/svg">
<path d="M6.34315 17.6568C6.27244 17.5861 6.13101 17.4447 6.13101 17.3033C6.0603 17.2326 6.0603 17.0912 6.0603 16.9497L6.0603 7.05024C6.0603 6.48455 6.48457 6.06029 7.05025 6.06029C7.61594 6.06029 8.0402 6.48455 8.0402 7.05024L8.0402 14.5456L16.2426 6.34313C16.6669 5.91887 17.2326 5.91887 17.6569 6.34313C18.0811 6.7674 18.0811 7.33308 17.6569 7.75735L9.45442 15.9598L16.9497 15.9598C17.5154 15.9598 17.9397 16.3841 17.9397 16.9497C17.9397 17.5154 17.5154 17.9397 16.9497 17.9397H7.05025C6.90883 17.9397 6.76741 17.9397 6.6967 17.869C6.55528 17.869 6.41386 17.7276 6.34315 17.6568Z" fill="#080D11"/>
</svg>
