<svg width="24" height="24" viewBox="0 0 24 24" fill="none" xmlns="http://www.w3.org/2000/svg">
<path d="M17.6569 6.34316C17.7276 6.41387 17.869 6.55529 17.869 6.69671C17.9397 6.76742 17.9397 6.90884 17.9397 7.05026L17.9397 16.9498C17.9397 17.5154 17.5154 17.9397 16.9497 17.9397C16.3841 17.9397 15.9598 17.5154 15.9598 16.9498L15.9598 9.45443L7.75736 17.6569C7.33309 18.0811 6.76741 18.0811 6.34315 17.6569C5.91888 17.2326 5.91888 16.6669 6.34315 16.2427L14.5456 8.04021L7.05025 8.04022C6.48457 8.04022 6.0603 7.61595 6.0603 7.05026C6.0603 6.48458 6.48457 6.06032 7.05025 6.06032L16.9497 6.06031C17.0912 6.06031 17.2326 6.06032 17.3033 6.13103C17.4447 6.13103 17.5861 6.27245 17.6569 6.34316Z" fill="#080D11"/>
</svg>
