<svg width="24" height="24" viewBox="0 0 24 24" fill="none" xmlns="http://www.w3.org/2000/svg">
<path d="M17.6568 17.6569C17.5861 17.7276 17.4447 17.869 17.3033 17.869C17.2326 17.9397 17.0912 17.9397 16.9497 17.9397L7.05024 17.9397C6.48455 17.9397 6.06029 17.5154 6.06029 16.9497C6.06029 16.3841 6.48455 15.9598 7.05024 15.9598L14.5456 15.9598L6.34313 7.75736C5.91887 7.3331 5.91887 6.76741 6.34313 6.34315C6.7674 5.91888 7.33308 5.91888 7.75735 6.34315L15.9598 14.5456L15.9598 7.05025C15.9598 6.48457 16.3841 6.0603 16.9497 6.0603C17.5154 6.0603 17.9397 6.48457 17.9397 7.05025V16.9497C17.9397 17.0912 17.9397 17.2326 17.869 17.3033C17.869 17.4447 17.7276 17.5861 17.6568 17.6569Z" fill="#080D11"/>
</svg>
