<svg width="24" height="24" viewBox="0 0 24 24" fill="none" xmlns="http://www.w3.org/2000/svg">
<path fill-rule="evenodd" clip-rule="evenodd" d="M12 19.4185C11.0736 19.7935 10.0609 20 9 20C4.58172 20 1 16.4183 1 12C1 7.58172 4.58172 4 9 4C10.0609 4 11.0736 4.20651 12 4.58152C12.9264 4.20651 13.9391 4 15 4C19.4183 4 23 7.58172 23 12C23 16.4183 19.4183 20 15 20C13.9391 20 12.9264 19.7935 12 19.4185ZM9.6671 17.9633C8.03018 16.4985 7 14.3695 7 12C7 9.63046 8.03018 7.50153 9.6671 6.03667C9.44807 6.01244 9.22549 6 9 6C5.68629 6 3 8.68629 3 12C3 15.3137 5.68629 18 9 18C9.22549 18 9.44807 17.9876 9.6671 17.9633ZM21 12C21 15.3137 18.3137 18 15 18C11.6863 18 9 15.3137 9 12C9 8.68629 11.6863 6 15 6C18.3137 6 21 8.68629 21 12Z" fill="#080D11"/>
</svg>
