<svg width="24" height="24" viewBox="0 0 24 24" fill="none" xmlns="http://www.w3.org/2000/svg">
<path fill-rule="evenodd" clip-rule="evenodd" d="M18.5913 15.9426C16.5225 15.9426 14.4261 14.5375 14.4261 11.8528C14.4261 10.1661 13.1215 9.28128 11.8344 9.28128C11.2116 9.26907 10.6091 9.50302 10.1578 9.93234C9.65504 10.4351 9.38607 11.1892 9.38607 12.1243C9.38607 16.7169 11.754 19.4141 16.8418 20.6383C17.0527 20.687 17.2383 20.812 17.363 20.9889C17.4876 21.1659 17.5426 21.3828 17.5174 21.598C17.4922 21.8129 17.3886 22.0113 17.2263 22.1546C17.0641 22.2981 16.8547 22.3765 16.6382 22.3753C16.5687 22.3755 16.4995 22.367 16.432 22.3501C10.5876 20.9525 7.63401 17.5112 7.63401 12.1243C7.63401 10.3295 8.34037 9.25866 8.93109 8.67548C9.70987 7.92463 10.7527 7.51019 11.8344 7.52168C14.6599 7.52168 16.1857 9.75386 16.1857 11.8528C16.1857 13.4641 17.3948 14.183 18.5913 14.183C19.2587 14.1898 19.906 13.955 20.4138 13.5219C20.6863 13.265 20.9002 12.9526 21.0407 12.6054C21.1812 12.2583 21.2451 11.885 21.2282 11.511C21.2282 6.10645 16.3038 2.77075 11.7414 2.77075C8.72497 2.77075 6.15343 4.08542 4.49186 6.46843C2.5563 9.24861 2.22951 13.1172 3.58692 16.8149C3.6478 17.0288 3.62543 17.2578 3.52431 17.4559C3.42318 17.6537 3.25084 17.8063 3.0419 17.8825C2.83296 17.9584 2.60295 17.9526 2.39813 17.8661C2.19334 17.7794 2.02889 17.6185 1.93792 17.4157C0.369359 13.1776 0.786637 8.70564 3.0515 5.45289C4.02745 4.05951 5.32966 2.92622 6.84443 2.15197C8.3592 1.37772 10.0404 0.986056 11.7414 1.01114C14.954 1.01114 17.8799 2.19762 19.9814 4.34936C21.8765 6.25987 22.9577 8.83032 22.9979 11.521C23.0175 12.1429 22.9013 12.7615 22.6578 13.3342C22.4144 13.9065 22.0492 14.4193 21.5877 14.8366C20.7589 15.5613 19.6921 15.9552 18.5913 15.9426ZM11.5655 4.18346C15.4592 3.94717 19.5013 6.97118 19.5013 11.6341C19.5013 11.8674 19.4085 12.0911 19.2436 12.2563C19.0785 12.4212 18.8548 12.5139 18.6215 12.5139C18.3882 12.5139 18.1644 12.4212 17.9994 12.2563C17.8344 12.0911 17.7417 11.8674 17.7417 11.6341C17.7473 10.8433 17.5874 10.0601 17.2725 9.33473C16.9576 8.60934 16.4945 7.95781 15.9129 7.42193C15.3313 6.88606 14.6442 6.47768 13.8955 6.22299C13.1468 5.96833 12.3532 5.87296 11.5655 5.94306C8.81798 6.19444 6.08807 8.04202 5.9649 11.976C5.82665 16.3499 7.448 19.3387 10.6304 21.3673C10.7909 21.4698 10.9138 21.6216 10.9807 21.7999C11.0476 21.9783 11.0548 22.1734 11.0012 22.3562C10.9476 22.5389 10.8362 22.6995 10.6837 22.8134C10.5311 22.9275 10.3457 22.9889 10.1553 22.9886C9.98844 22.9896 9.825 22.9413 9.68521 22.8503C5.99758 20.5 4.07207 16.9406 4.2053 11.976C4.34104 6.87314 7.98845 4.40215 11.5655 4.18346ZM11.0979 11.976C11.0979 11.7427 11.1906 11.5187 11.3556 11.3538C11.5206 11.1889 11.7444 11.0962 11.9777 11.0962C12.2111 11.0962 12.4348 11.1889 12.5998 11.3538C12.7648 11.5187 12.8575 11.7427 12.8575 11.976C12.8575 13.6501 13.4281 15.0302 14.5065 15.9653C15.8388 17.1216 17.8875 17.5389 20.4314 17.1769C20.5457 17.1603 20.6624 17.1666 20.7742 17.195C20.8863 17.2236 20.9914 17.2739 21.0842 17.343C21.1767 17.4124 21.2546 17.4991 21.3137 17.5984C21.3728 17.6977 21.4115 17.8078 21.4281 17.9222C21.4446 18.0366 21.4384 18.1532 21.41 18.2651C21.3813 18.3772 21.331 18.4823 21.2619 18.575C21.1925 18.6675 21.1058 18.7454 21.0065 18.8045C20.9072 18.8636 20.7971 18.9023 20.6827 18.9189C20.0375 19.0121 19.3864 19.0599 18.7346 19.0622C16.5401 19.0622 14.7126 18.4639 13.3552 17.3026C11.8973 16.0357 11.0979 14.1453 11.0979 11.9785V11.976Z" fill="#080D11"/>
</svg>
