<svg width="24" height="24" viewBox="0 0 24 24" fill="none" xmlns="http://www.w3.org/2000/svg">
<path d="M12 23.1C11.8 23.1 11.7 23.1 11.5 23C11.1 22.9 10.8 22.8 10.5 22.6L3.5 18.6C2.6 18.1 2 17.1 2 16V8C2 7.5 2.1 7.1 2.3 6.7C2.3 6.6 2.4 6.6 2.4 6.5C2.4 6.4 2.5 6.3 2.6 6.3C2.8 6 3.2 5.7 3.5 5.5L10.5 1.5C11.4 1 12.6 1 13.5 1.5L20.5 5.5C20.9 5.7 21.2 6 21.4 6.3L21.6 6.5C21.6 6.6 21.7 6.6 21.7 6.7C21.9 7.1 22 7.5 22 8V16C22 17.1 21.4 18.1 20.5 18.6L13.5 22.6C13.2 22.8 12.8 22.9 12.5 23C12.3 23 12.2 23.1 12 23.1ZM13 12.6V20.6L19.5 16.9C19.8 16.7 20 16.4 20 16V8.5L13 12.6ZM4 8.5V16C4 16.4 4.2 16.7 4.5 16.9L11 20.6V12.6L4 8.5ZM5 6.8L12 10.8L19 6.8L12.5 3.1C12.2 2.9 11.8 2.9 11.5 3.1L5 6.8Z" fill="#080D11"/>
</svg>
