<svg width="40" height="40" viewBox="0 0 40 40" fill="none" xmlns="http://www.w3.org/2000/svg">
<path d="M40 20C40 8.95431 31.0457 0 20 0C8.95431 0 0 8.95431 0 20C0 31.0457 8.95431 40 20 40C31.0457 40 40 31.0457 40 20Z" fill="#0086FB"/>
<path fill-rule="evenodd" clip-rule="evenodd" d="M25.8121 12.6124L26.7884 9H23.957L23.3712 11.2472C22.8505 11.0518 22.2973 10.922 21.7449 10.8241L22.2322 9H19.4007L18.9451 10.7576C16.5045 11.0828 14.2588 12.3522 12.7623 14.3374C9.63751 18.4055 10.4184 24.2636 14.4868 27.3878L13.5104 30.999H16.3105L16.8963 28.7535C17.417 28.9487 17.9705 29.0788 18.5226 29.1767L18.0341 30.999H20.8327L21.3209 29.2417C23.7618 28.9174 26.009 27.6483 27.5046 25.663C30.6613 21.5622 29.8801 15.7369 25.8121 12.6124ZM20.1494 22.1808C19.7117 22.1808 19.2837 22.0511 18.9197 21.8079C18.5557 21.5648 18.272 21.2191 18.1045 20.8147C17.9369 20.4103 17.893 19.9653 17.9784 19.536C18.0638 19.1066 18.2745 18.7122 18.584 18.4027C18.8936 18.0931 19.2879 17.8823 19.7172 17.7969C20.1466 17.7115 20.5916 17.7553 20.996 17.9228C21.4004 18.0903 21.7461 18.374 21.9893 18.7379C22.2325 19.1019 22.3623 19.5298 22.3623 19.9676C22.3623 21.2044 21.386 22.1808 20.1494 22.1808Z" fill="white"/>
<path fill-rule="evenodd" clip-rule="evenodd" d="M27.6352 29.3725C27.6352 29.0795 27.4398 28.9169 27.1145 28.9169H26.5607V30.1863H26.886V29.8285H27.1465L27.3416 30.1866H27.6997L27.4067 29.796C27.5696 29.7309 27.6672 29.568 27.6352 29.3725ZM27.3422 29.3725C27.3422 29.5026 27.2772 29.6002 27.1471 29.6002H26.8866V29.1774H27.1145C27.2121 29.1449 27.3097 29.2424 27.3422 29.34V29.3725Z" fill="white"/>
<path fill-rule="evenodd" clip-rule="evenodd" d="M26.3221 28.4963C26.5469 28.3462 26.8112 28.266 27.0816 28.2661C27.83 28.2661 28.4157 28.8844 28.4482 29.633C28.4482 29.9034 28.3681 30.1677 28.2178 30.3925C28.0676 30.6173 27.8541 30.7925 27.6043 30.896C27.3545 30.9994 27.0797 31.0265 26.8145 30.9737C26.5493 30.9209 26.3058 30.7907 26.1146 30.5995C25.9234 30.4083 25.7933 30.1647 25.7406 29.8995C25.6878 29.6344 25.715 29.3595 25.8185 29.1097C25.922 28.86 26.0972 28.6465 26.3221 28.4963ZM26.5027 30.499C26.6741 30.6135 26.8755 30.6745 27.0816 30.6744V30.6733C27.2187 30.6751 27.3549 30.6494 27.4819 30.5977C27.609 30.5461 27.7245 30.4696 27.8215 30.3726C27.9186 30.2757 27.9952 30.1603 28.047 30.0333C28.0988 29.9063 28.1246 29.7702 28.123 29.633C28.123 29.427 28.062 29.2255 27.9475 29.0542C27.8331 28.8828 27.6704 28.7493 27.4801 28.6704C27.2897 28.5915 27.0802 28.5709 26.8781 28.6111C26.676 28.6512 26.4904 28.7505 26.3447 28.8962C26.199 29.0419 26.0998 29.2275 26.0596 29.4296C26.0194 29.6317 26.0401 29.8412 26.1189 30.0315C26.1978 30.2219 26.3314 30.3846 26.5027 30.499Z" fill="white"/>
</svg>
