<svg width="24" height="24" viewBox="0 0 24 24" fill="none" xmlns="http://www.w3.org/2000/svg">
<path d="M7.29073 22.9997C6.57815 22.9997 6.00037 22.4221 6.00037 21.7095V2.29069C6.00037 1.57812 6.57815 1.00033 7.29073 1.00033C8.0033 1.00033 8.58108 1.57812 8.58108 2.29069V21.7095C8.58108 22.4221 8.0033 22.9997 7.29073 22.9997Z" fill="#CEDC21"/>
<path d="M7.2915 23C6.80861 23 6.34582 22.7279 6.12486 22.2628C5.81945 21.619 6.09354 20.8492 6.7374 20.5436L14.5182 16.851L6.52532 10.9625C5.95159 10.5397 5.82911 9.73195 6.25201 9.15806C6.67444 8.58448 7.48269 8.462 8.05596 8.88474L17.7856 16.053C18.151 16.3223 18.3483 16.7636 18.3047 17.2154C18.2612 17.667 17.9837 18.0628 17.5734 18.2574L7.84388 22.875C7.66531 22.9598 7.47692 23 7.2915 23Z" fill="#51B13E"/>
<path d="M7.29177 15.367C6.89568 15.367 6.50488 15.1853 6.25198 14.8421C5.82923 14.2682 5.95155 13.4604 6.52544 13.0378L14.5182 7.14916L6.73752 3.45634C6.09366 3.15093 5.81957 2.38133 6.12498 1.73747C6.4307 1.09362 7.20046 0.819217 7.84385 1.12509L17.5735 5.74256C17.9836 5.93718 18.2613 6.33296 18.3048 6.78469C18.3483 7.23657 18.151 7.67802 17.7856 7.94712L8.05608 15.1155C7.82562 15.2852 7.55745 15.367 7.29177 15.367Z" fill="#CEDC21"/>
<path d="M8.58102 9.27148V14.7287L12.2829 12.0013L8.58102 9.27148Z" fill="#1E7A44"/>
<path d="M8.58108 13.2738H6.00037V6.98341H8.58108V13.2738Z" fill="white"/>
<path d="M7.29073 1.0004C6.57815 1.0004 6.00037 1.57819 6.00037 2.29076V18.5297H8.58108V2.29076C8.58108 1.57819 8.0033 1.0004 7.29073 1.0004Z" fill="#CEDC21"/>
</svg>
