<svg width="40" height="40" viewBox="0 0 40 40" fill="none" xmlns="http://www.w3.org/2000/svg">
<circle cx="20" cy="20" r="20" fill="#ADFF86"/>
<path fill-rule="evenodd" clip-rule="evenodd" d="M30.5365 9.03825C30.44 9.03825 28.3015 9.13388 25.6431 9.76848C22.0406 10.6143 19.3439 12.0166 17.687 13.9186C17.5149 14.1177 17.3115 14.3151 17.1124 14.508C16.889 14.7245 16.6708 14.9366 16.5082 15.1392C16.3352 15.1852 16.0927 15.2522 15.8145 15.3304L15.773 15.342C15.0009 15.5573 13.9711 15.8445 13.3717 15.9555C12.8953 16.05 12.474 16.3254 12.1964 16.724C11.5991 17.5889 10.5594 19.3563 10.5203 19.4336L9.32585 21.4705L11.5035 20.529C12.4467 20.1056 13.7759 19.8179 14.161 20.0482L14.1697 20.0561C14.1862 20.07 14.2028 20.0839 14.2193 20.183C14.2193 20.7976 14.3732 21.3931 14.6626 21.9886C14.3692 22.2166 14.1353 22.5123 13.9809 22.8503C13.8265 23.1883 13.7562 23.5587 13.7759 23.9298V26.5812H16.4352C17.1863 26.6195 17.8991 26.2735 18.3807 25.6971C18.9462 25.971 19.5635 26.1215 20.1915 26.1387C20.288 26.1587 20.3072 26.1779 20.3072 26.197C20.5384 26.5812 20.2489 27.9069 19.8256 28.8484L18.8806 31L20.9235 29.809C21.0009 29.7708 22.7726 28.7328 23.6402 28.1382C23.8396 28.0031 24.0104 27.8298 24.1426 27.6284C24.2748 27.427 24.3658 27.2014 24.4104 26.9646C24.5399 26.3482 24.8355 25.2729 25.0493 24.4957C25.0642 24.4413 25.0788 24.3883 25.0928 24.337C25.1469 24.1402 25.1939 23.9687 25.2284 23.8376C25.4504 23.6485 25.6617 23.4471 25.8613 23.2343L25.8752 23.2201C26.0646 23.0265 26.2572 22.8294 26.4524 22.6606C30.882 18.7577 31.3188 10.3423 31.345 9.83819L31.345 9.83803L31.3458 9.82586L31.3841 9L30.5365 9.03825ZM25.8554 17.5245C25.5755 17.6399 25.2756 17.699 24.9728 17.6985C24.6701 17.699 24.3702 17.6399 24.0903 17.5245C23.8104 17.4091 23.556 17.2397 23.3417 17.0259C23.1273 16.8121 22.9572 16.5581 22.841 16.2786C22.7249 15.999 22.665 15.6992 22.6648 15.3965C22.6649 15.0937 22.7247 14.7938 22.8408 14.5142C22.9569 14.2345 23.127 13.9804 23.3414 13.7665C23.5557 13.5527 23.8102 13.3831 24.0901 13.2677C24.37 13.1522 24.67 13.0931 24.9728 13.0936C25.2756 13.0931 25.5756 13.1522 25.8556 13.2677C26.1355 13.3831 26.3899 13.5527 26.6043 13.7665C26.8187 13.9804 26.9888 14.2345 27.1049 14.5142C27.221 14.7938 27.2808 15.0937 27.2809 15.3965C27.2807 15.6992 27.2208 15.999 27.1046 16.2786C26.9885 16.5581 26.8183 16.8121 26.604 17.0259C26.3896 17.2397 26.1352 17.4091 25.8554 17.5245ZM12.9753 23.1775C12.0156 25.0404 11.1045 27.6414 10.8768 28.7246C13.117 28.9307 17.2515 28.0744 18.1626 26.9912C17.3671 28.7803 15.1243 29.7583 13.2005 30.0191C12.1729 30.1875 11.1585 30.1316 10.1395 30.0755C9.62821 30.0473 9.1158 30.0191 8.6 30.0191C8.90588 29.6016 9.15227 28.9509 9.39131 28.3195C9.5789 27.8241 9.76197 27.3406 9.96571 26.9912C10.8724 25.4377 11.6192 24.4667 12.9753 23.1775Z" fill="#1F1F1F"/>
</svg>
