<svg width="24" height="24" viewBox="0 0 24 24" fill="none" xmlns="http://www.w3.org/2000/svg">
<path d="M3.5 18.75C3.89782 18.75 4.27936 18.592 4.56066 18.3107C4.84196 18.0294 5 17.6478 5 17.25C5.00488 17.2001 5.00488 17.1499 5 17.1L9.79 12.31H10.02H10.25L11.86 13.92C11.86 13.92 11.86 13.97 11.86 14C11.86 14.3978 12.018 14.7794 12.2993 15.0607C12.5806 15.342 12.9622 15.5 13.36 15.5C13.7578 15.5 14.1394 15.342 14.4207 15.0607C14.702 14.7794 14.86 14.3978 14.86 14V13.92L20.5 8.25C20.7967 8.25 21.0867 8.16203 21.3334 7.99721C21.58 7.83238 21.7723 7.59811 21.8858 7.32403C21.9993 7.04994 22.0291 6.74834 21.9712 6.45737C21.9133 6.16639 21.7704 5.89912 21.5607 5.68934C21.3509 5.47956 21.0836 5.3367 20.7926 5.27882C20.5017 5.22094 20.2001 5.25065 19.926 5.36418C19.6519 5.47771 19.4176 5.66997 19.2528 5.91665C19.088 6.16332 19 6.45333 19 6.75C18.9951 6.79988 18.9951 6.85012 19 6.9L13.39 12.51H13.23L11.5 10.75C11.5 10.3522 11.342 9.97064 11.0607 9.68934C10.7794 9.40804 10.3978 9.25 10 9.25C9.60218 9.25 9.22064 9.40804 8.93934 9.68934C8.65804 9.97064 8.5 10.3522 8.5 10.75L3.5 15.75C3.10218 15.75 2.72064 15.908 2.43934 16.1893C2.15804 16.4706 2 16.8522 2 17.25C2 17.6478 2.15804 18.0294 2.43934 18.3107C2.72064 18.592 3.10218 18.75 3.5 18.75Z" fill="#080D11"/>
</svg>
