<svg width="24" height="24" viewBox="0 0 24 24" fill="none" xmlns="http://www.w3.org/2000/svg">
<path d="M12 23C5.9 23 1 18.1 1 12C1 5.9 5.9 1 12 1C13.6 1 15.1 1.3 16.5 2C17 2.2 17.2 2.8 17 3.3C16.8 3.8 16.2 4 15.7 3.8C14.5 3.3 13.3 3 12 3C7 3 3 7 3 12C3 17 7 21 12 21C17 21 21 17 21 12V11.1C21 10.5 21.4 10.1 22 10.1C22.6 10.1 23 10.5 23 11.1V12C23 18.1 18.1 23 12 23ZM12 15C11.7 15 11.5 14.9 11.3 14.7L8.3 11.7C7.9 11.3 7.9 10.7 8.3 10.3C8.7 9.9 9.3 9.9 9.7 10.3L12 12.6L21.3 3.3C21.7 2.9 22.3 2.9 22.7 3.3C23.1 3.7 23.1 4.3 22.7 4.7L12.7 14.7C12.5 14.9 12.3 15 12 15Z" fill="#080D11"/>
</svg>
