<svg width="24" height="24" viewBox="0 0 24 24" fill="none" xmlns="http://www.w3.org/2000/svg">
<mask id="path-1-inside-1_1161_8648" fill="white">
<path d="M0 4C0 1.79086 1.79086 0 4 0H20C22.2091 0 24 1.79086 24 4V20C24 22.2091 22.2091 24 20 24H4C1.79086 24 0 22.2091 0 20V4Z"/>
</mask>
<path d="M0 4C0 1.79086 1.79086 0 4 0H20C22.2091 0 24 1.79086 24 4V20C24 22.2091 22.2091 24 20 24H4C1.79086 24 0 22.2091 0 20V4Z" />
<path d="M4 2H20V-2H4V2ZM22 4V20H26V4H22ZM20 22H4V26H20V22ZM2 20V4H-2V20H2ZM4 22C2.89543 22 2 21.1046 2 20H-2C-2 23.3137 0.686292 26 4 26V22ZM22 20C22 21.1046 21.1046 22 20 22V26C23.3137 26 26 23.3137 26 20H22ZM20 2C21.1046 2 22 2.89543 22 4H26C26 0.686291 23.3137 -2 20 -2V2ZM4 -2C0.686291 -2 -2 0.686292 -2 4H2C2 2.89543 2.89543 2 4 2V-2Z" fill="#E5EBF0" mask="url(#path-1-inside-1_1161_8648)"/>
</svg>
