<svg width="24" height="24" viewBox="0 0 24 24" fill="none" xmlns="http://www.w3.org/2000/svg">
<path d="M0 4C0 1.79086 1.79086 0 4 0H20C22.2091 0 24 1.79086 24 4V20C24 22.2091 22.2091 24 20 24H4C1.79086 24 0 22.2091 0 20V4Z" fill="#009AD6"/>
<path d="M9.75 16.5C9.525 16.5 9.375 16.425 9.225 16.275L5.475 12.525C5.175 12.225 5.175 11.775 5.475 11.475C5.775 11.175 6.225 11.175 6.525 11.475L9.75 14.7L17.475 6.975C17.775 6.675 18.225 6.675 18.525 6.975C18.825 7.275 18.825 7.725 18.525 8.025L10.275 16.275C10.125 16.425 9.975 16.5 9.75 16.5Z" fill="white"/>
</svg>
