<svg width="25" height="24" viewBox="0 0 25 24" fill="none" xmlns="http://www.w3.org/2000/svg">
<path d="M7.304 15C7.17139 14.7703 6.95297 14.6027 6.6968 14.5341C6.44063 14.4655 6.16768 14.5014 5.938 14.634L4.206 15.634C3.97819 15.7676 3.81246 15.9858 3.74496 16.2411C3.67747 16.4964 3.71369 16.768 3.84573 16.9967C3.97776 17.2254 4.19489 17.3926 4.44974 17.4617C4.70458 17.5309 4.97644 17.4965 5.206 17.366L6.938 16.366C7.16767 16.2334 7.33526 16.015 7.4039 15.7588C7.47254 15.5026 7.4366 15.2297 7.304 15ZM4.206 8.366L5.938 9.366C6.05177 9.4327 6.17761 9.47623 6.30827 9.4941C6.43894 9.51196 6.57185 9.50381 6.69935 9.4701C6.82685 9.43639 6.94642 9.3778 7.05118 9.29769C7.15594 9.21758 7.24382 9.11754 7.30976 9.00333C7.3757 8.88912 7.4184 8.76299 7.4354 8.63221C7.4524 8.50143 7.44336 8.36858 7.40881 8.24131C7.37426 8.11403 7.31487 7.99485 7.23407 7.89063C7.15327 7.7864 7.05265 7.69918 6.938 7.634L5.206 6.634C4.97644 6.50348 4.70458 6.46906 4.44974 6.53825C4.19489 6.60744 3.97776 6.77462 3.84573 7.00331C3.71369 7.23199 3.67747 7.50362 3.74496 7.75892C3.81246 8.01421 3.97819 8.23245 4.206 8.366ZM6.5 12C6.5 11.7348 6.39464 11.4804 6.20711 11.2929C6.01957 11.1054 5.76522 11 5.5 11H3.5C3.23478 11 2.98043 11.1054 2.79289 11.2929C2.60536 11.4804 2.5 11.7348 2.5 12C2.5 12.2652 2.60536 12.5196 2.79289 12.7071C2.98043 12.8946 3.23478 13 3.5 13H5.5C5.76522 13 6.01957 12.8946 6.20711 12.7071C6.39464 12.5196 6.5 12.2652 6.5 12ZM17.696 9C17.8286 9.22967 18.047 9.39726 18.3032 9.4659C18.5594 9.53454 18.8323 9.4986 19.062 9.366L20.794 8.366C20.9086 8.30082 21.0093 8.2136 21.0901 8.10937C21.1709 8.00515 21.2303 7.88597 21.2648 7.75869C21.2994 7.63142 21.3084 7.49857 21.2914 7.36779C21.2744 7.23701 21.2317 7.11088 21.1658 6.99667C21.0998 6.88246 21.0119 6.78242 20.9072 6.70231C20.8024 6.62221 20.6828 6.56361 20.5553 6.5299C20.4278 6.49619 20.2949 6.48804 20.1643 6.5059C20.0336 6.52377 19.9078 6.5673 19.794 6.634L18.062 7.634C17.8323 7.76661 17.6647 7.98503 17.5961 8.2412C17.5275 8.49737 17.5634 8.77032 17.696 9ZM15.5 6.804C15.7297 6.9366 16.0026 6.97254 16.2588 6.9039C16.515 6.83526 16.7334 6.66767 16.866 6.438L17.866 4.706C17.9327 4.59223 17.9762 4.46639 17.9941 4.33572C18.012 4.20506 18.0038 4.07215 17.9701 3.94465C17.9364 3.81715 17.8778 3.69758 17.7977 3.59282C17.7176 3.48806 17.6175 3.40018 17.5033 3.33424C17.3891 3.26829 17.263 3.2256 17.1322 3.2086C17.0014 3.1916 16.8686 3.20064 16.7413 3.23519C16.614 3.26974 16.4949 3.32913 16.3906 3.40993C16.2864 3.49073 16.1992 3.59135 16.134 3.706L15.134 5.438C15.0014 5.66768 14.9655 5.94063 15.0341 6.1968C15.1027 6.45297 15.2703 6.67139 15.5 6.804ZM20.794 15.634L19.062 14.634C18.9482 14.5673 18.8224 14.5238 18.6917 14.5059C18.5611 14.488 18.4282 14.4962 18.3007 14.5299C18.1732 14.5636 18.0536 14.6222 17.9488 14.7023C17.8441 14.7824 17.7562 14.8825 17.6902 14.9967C17.6243 15.1109 17.5816 15.237 17.5646 15.3678C17.5476 15.4986 17.5566 15.6314 17.5912 15.7587C17.6257 15.886 17.6851 16.0051 17.7659 16.1094C17.8467 16.2136 17.9474 16.3008 18.062 16.366L19.794 17.366C20.0236 17.4965 20.2954 17.5309 20.5503 17.4617C20.8051 17.3926 21.0222 17.2254 21.1543 16.9967C21.2863 16.768 21.3225 16.4964 21.255 16.2411C21.1875 15.9858 21.0218 15.7676 20.794 15.634ZM16.866 17.562C16.8008 17.4474 16.7136 17.3467 16.6094 17.2659C16.5051 17.1851 16.386 17.1257 16.2587 17.0912C16.1314 17.0566 15.9986 17.0476 15.8678 17.0646C15.737 17.0816 15.6109 17.1243 15.4967 17.1902C15.3825 17.2562 15.2824 17.3441 15.2023 17.4488C15.1222 17.5536 15.0636 17.6732 15.0299 17.8007C14.9962 17.9282 14.988 18.0611 15.0059 18.1917C15.0238 18.3224 15.0673 18.4482 15.134 18.562L16.134 20.294C16.1992 20.4086 16.2864 20.5093 16.3906 20.5901C16.4949 20.6709 16.614 20.7303 16.7413 20.7648C16.8686 20.7994 17.0014 20.8084 17.1322 20.7914C17.263 20.7744 17.3891 20.7317 17.5033 20.6658C17.6175 20.5998 17.7176 20.5119 17.7977 20.4072C17.8778 20.3024 17.9364 20.1828 17.9701 20.0553C18.0038 19.9278 18.012 19.7949 17.9941 19.6643C17.9762 19.5336 17.9327 19.4078 17.866 19.294L16.866 17.562ZM21.5 11H19.5C19.2348 11 18.9804 11.1054 18.7929 11.2929C18.6054 11.4804 18.5 11.7348 18.5 12C18.5 12.2652 18.6054 12.5196 18.7929 12.7071C18.9804 12.8946 19.2348 13 19.5 13H21.5C21.7652 13 22.0196 12.8946 22.2071 12.7071C22.3946 12.5196 22.5 12.2652 22.5 12C22.5 11.7348 22.3946 11.4804 22.2071 11.2929C22.0196 11.1054 21.7652 11 21.5 11ZM12.5 18C12.2348 18 11.9804 18.1054 11.7929 18.2929C11.6054 18.4804 11.5 18.7348 11.5 19V21C11.5 21.2652 11.6054 21.5196 11.7929 21.7071C11.9804 21.8946 12.2348 22 12.5 22C12.7652 22 13.0196 21.8946 13.2071 21.7071C13.3946 21.5196 13.5 21.2652 13.5 21V19C13.5 18.7348 13.3946 18.4804 13.2071 18.2929C13.0196 18.1054 12.7652 18 12.5 18ZM9.5 17.196C9.27032 17.0634 8.99737 17.0275 8.7412 17.0961C8.48503 17.1647 8.26661 17.3323 8.134 17.562L7.134 19.294C7.00348 19.5236 6.96906 19.7954 7.03825 20.0503C7.10744 20.3051 7.27462 20.5222 7.50331 20.6543C7.73199 20.7863 8.00362 20.8225 8.25892 20.755C8.51421 20.6875 8.73245 20.5218 8.866 20.294L9.866 18.562C9.9986 18.3323 10.0345 18.0594 9.9659 17.8032C9.89726 17.547 9.72967 17.3286 9.5 17.196ZM12.5 2C12.2348 2 11.9804 2.10536 11.7929 2.29289C11.6054 2.48043 11.5 2.73478 11.5 3V5C11.5 5.26522 11.6054 5.51957 11.7929 5.70711C11.9804 5.89464 12.2348 6 12.5 6C12.7652 6 13.0196 5.89464 13.2071 5.70711C13.3946 5.51957 13.5 5.26522 13.5 5V3C13.5 2.73478 13.3946 2.48043 13.2071 2.29289C13.0196 2.10536 12.7652 2 12.5 2Z" fill="#080D11"/>
</svg>
