<svg width="40" height="40" viewBox="0 0 40 40" fill="none" xmlns="http://www.w3.org/2000/svg">
<path d="M40 20C40 8.95431 31.0457 0 20 0C8.95431 0 0 8.95431 0 20C0 31.0457 8.95431 40 20 40C31.0457 40 40 31.0457 40 20Z" fill="url(#paint0_radial_1407_13397)"/>
<path d="M9.65929 20.0288C9.65929 13.531 14.8639 9.30127 20.7419 9.30127C24.2932 9.30127 27.1709 10.8951 29.0079 13.2245L25.4565 16.1056C24.4156 14.8183 22.64 14.0214 20.8031 14.0214C17.2517 14.0214 14.7413 16.5347 14.7413 20.0288C14.7413 23.4618 17.2517 26.0363 20.8031 26.0363C22.64 26.0363 24.3544 25.2395 25.4565 23.9522L29.0079 26.772C27.1097 29.1014 24.232 30.6952 20.7419 30.6952C14.8639 30.8178 9.65929 26.5267 9.65929 20.0288Z" fill="black"/>
<defs>
<radialGradient id="paint0_radial_1407_13397" cx="0" cy="0" r="1" gradientUnits="userSpaceOnUse" gradientTransform="translate(20 -2.11348e-06) rotate(88.1817) scale(42.0212)">
<stop stop-color="#00B67A"/>
<stop offset="1" stop-color="#16E29F"/>
</radialGradient>
</defs>
</svg>
