<svg width="88" height="88" viewBox="0 0 88 88" fill="none" xmlns="http://www.w3.org/2000/svg">
<rect width="88" height="88" rx="44" fill="#F7B900" fill-opacity="0.16"/>
<rect x="16" y="16" width="56" height="56" rx="28" fill="#E0A800"/>
<path d="M44 46C43.7528 46 43.5111 46.0733 43.3055 46.2107C43.1 46.348 42.9398 46.5432 42.8452 46.7716C42.7505 47.0001 42.7258 47.2514 42.774 47.4939C42.8223 47.7363 42.9413 47.9591 43.1161 48.1339C43.2909 48.3087 43.5137 48.4277 43.7561 48.476C43.9986 48.5242 44.25 48.4995 44.4784 48.4049C44.7068 48.3102 44.902 48.15 45.0393 47.9445C45.1767 47.7389 45.25 47.4972 45.25 47.25C45.25 46.9185 45.1183 46.6005 44.8839 46.3661C44.6495 46.1317 44.3315 46 44 46ZM44 44.5C44.2652 44.5 44.5196 44.3946 44.7071 44.2071C44.8946 44.0196 45 43.7652 45 43.5V40.5C45 40.2348 44.8946 39.9804 44.7071 39.7929C44.5196 39.6054 44.2652 39.5 44 39.5C43.7348 39.5 43.4804 39.6054 43.2929 39.7929C43.1054 39.9804 43 40.2348 43 40.5V43.5C43 43.7652 43.1054 44.0196 43.2929 44.2071C43.4804 44.3946 43.7348 44.5 44 44.5ZM44 34C42.0222 34 40.0888 34.5865 38.4443 35.6853C36.7998 36.7841 35.5181 38.3459 34.7612 40.1732C34.0043 42.0004 33.8063 44.0111 34.1922 45.9509C34.578 47.8907 35.5304 49.6725 36.9289 51.0711C38.3275 52.4696 40.1093 53.422 42.0491 53.8079C43.9889 54.1937 45.9996 53.9957 47.8268 53.2388C49.6541 52.4819 51.2159 51.2002 52.3147 49.5557C53.4135 47.9112 54 45.9778 54 44C53.9971 41.3487 52.9425 38.8069 51.0678 36.9322C49.1931 35.0575 46.6513 34.0029 44 34ZM44 52C42.4178 52 40.871 51.5308 39.5554 50.6518C38.2398 49.7727 37.2145 48.5233 36.609 47.0615C36.0035 45.5997 35.845 43.9911 36.1537 42.4393C36.4624 40.8874 37.2243 39.462 38.3432 38.3431C39.462 37.2243 40.8874 36.4624 42.4393 36.1537C43.9911 35.845 45.5997 36.0035 47.0615 36.609C48.5233 37.2145 49.7727 38.2398 50.6518 39.5554C51.5308 40.871 52 42.4177 52 44C51.9976 46.121 51.1539 48.1544 49.6542 49.6542C48.1544 51.1539 46.121 51.9976 44 52Z" fill="white"/>
</svg>
