<svg width="24" height="24" viewBox="0 0 24 24" fill="none" xmlns="http://www.w3.org/2000/svg">
<path d="M20 23H11C9.3 23 8 21.7 8 20V11C8 9.3 9.3 8 11 8H20C21.7 8 23 9.3 23 11V20C23 21.7 21.7 23 20 23ZM11 10C10.4 10 10 10.4 10 11V20C10 20.6 10.4 21 11 21H20C20.6 21 21 20.6 21 20V11C21 10.4 20.6 10 20 10H11ZM5 16H4C2.3 16 1 14.7 1 13V4C1 2.3 2.3 1 4 1H13C14.7 1 16 2.3 16 4V5C16 5.6 15.6 6 15 6C14.4 6 14 5.6 14 5V4C14 3.4 13.6 3 13 3H4C3.4 3 3 3.4 3 4V13C3 13.6 3.4 14 4 14H5C5.6 14 6 14.4 6 15C6 15.6 5.6 16 5 16Z" fill="#080D11"/>
</svg>
