<svg width="24" height="24" viewBox="0 0 24 24" fill="none" xmlns="http://www.w3.org/2000/svg">
<path d="M12 16C11.8022 16 11.6089 16.0587 11.4445 16.1686C11.28 16.2784 11.1518 16.4346 11.0761 16.6173C11.0005 16.8001 10.9807 17.0011 11.0192 17.1951C11.0578 17.3891 11.1531 17.5673 11.2929 17.7071C11.4328 17.847 11.611 17.9422 11.8049 17.9808C11.9989 18.0194 12.2 17.9996 12.3827 17.9239C12.5654 17.8482 12.7216 17.72 12.8315 17.5556C12.9414 17.3911 13 17.1978 13 17C13 16.7348 12.8947 16.4805 12.7071 16.2929C12.5196 16.1054 12.2652 16 12 16ZM22.67 17.47L14.62 3.47003C14.3598 3.00354 13.9798 2.61498 13.5192 2.3445C13.0586 2.07401 12.5342 1.9314 12 1.9314C11.4659 1.9314 10.9414 2.07401 10.4808 2.3445C10.0202 2.61498 9.64022 3.00354 9.38003 3.47003L1.38003 17.47C1.11082 17.924 0.966171 18.441 0.960673 18.9688C0.955175 19.4966 1.08903 20.0166 1.34871 20.4761C1.6084 20.9356 1.98473 21.3185 2.43971 21.5861C2.89469 21.8536 3.41221 21.9964 3.94003 22H20.06C20.5921 22.0053 21.116 21.8689 21.5779 21.6049C22.0399 21.341 22.4234 20.9589 22.689 20.4978C22.9546 20.0368 23.0929 19.5134 23.0895 18.9814C23.0862 18.4493 22.9414 17.9277 22.67 17.47ZM20.94 19.47C20.8524 19.626 20.7245 19.7556 20.5697 19.8453C20.4149 19.935 20.2389 19.9815 20.06 19.98H3.94003C3.76114 19.9815 3.58513 19.935 3.43035 19.8453C3.27557 19.7556 3.14768 19.626 3.06003 19.47C2.97226 19.318 2.92605 19.1456 2.92605 18.97C2.92605 18.7945 2.97226 18.622 3.06003 18.47L11.06 4.47003C11.1439 4.30623 11.2714 4.16876 11.4285 4.07277C11.5855 3.97678 11.766 3.92599 11.95 3.92599C12.1341 3.92599 12.3146 3.97678 12.4716 4.07277C12.6286 4.16876 12.7561 4.30623 12.84 4.47003L20.89 18.47C20.9892 18.6199 21.0463 18.7937 21.055 18.9732C21.0638 19.1527 21.0241 19.3312 20.94 19.49V19.47ZM12 8.00003C11.7348 8.00003 11.4805 8.10538 11.2929 8.29292C11.1054 8.48046 11 8.73481 11 9.00003V13C11 13.2652 11.1054 13.5196 11.2929 13.7071C11.4805 13.8947 11.7348 14 12 14C12.2652 14 12.5196 13.8947 12.7071 13.7071C12.8947 13.5196 13 13.2652 13 13V9.00003C13 8.73481 12.8947 8.48046 12.7071 8.29292C12.5196 8.10538 12.2652 8.00003 12 8.00003Z" fill="#080D11"/>
</svg>
