<svg width="24" height="24" viewBox="0 0 24 24" fill="none" xmlns="http://www.w3.org/2000/svg">
<path d="M18 22.9999H4C2.3 22.9999 1 21.6999 1 19.9999V5.9999C1 4.2999 2.3 2.9999 4 2.9999H11C11.6 2.9999 12 3.3999 12 3.9999C12 4.5999 11.6 4.9999 11 4.9999H4C3.4 4.9999 3 5.3999 3 5.9999V19.9999C3 20.5999 3.4 20.9999 4 20.9999H18C18.6 20.9999 19 20.5999 19 19.9999V12.9999C19 12.3999 19.4 11.9999 20 11.9999C20.6 11.9999 21 12.3999 21 12.9999V19.9999C21 21.6999 19.7 22.9999 18 22.9999ZM8 16.9999C7.7 16.9999 7.5 16.8999 7.3 16.6999C7 16.4999 6.9 16.0999 7 15.7999L8 11.7999C8 11.5999 8.1 11.4999 8.3 11.2999L17.8 1.7999C19 0.599902 21 0.599902 22.2 1.7999C23.4 2.9999 23.4 4.9999 22.2 6.1999L12.7 15.6999C12.6 15.7999 12.4 15.8999 12.2 15.9999L8.2 16.9999H8ZM9.9 12.4999L9.4 14.5999L11.5 14.0999L20.8 4.7999C21.2 4.3999 21.2 3.6999 20.8 3.1999C20.4 2.7999 19.6 2.7999 19.2 3.1999L9.9 12.4999Z" fill="#374550"/>
</svg>
