<svg width="24" height="24" viewBox="0 0 24 24" fill="none" xmlns="http://www.w3.org/2000/svg">
<path d="M3.8542 21C3.6072 21 3.44254 20.9175 3.27787 20.7526C3.03087 20.5052 2.94854 20.2577 3.03087 19.9278L4.26587 15.3918C4.26587 15.2268 4.3482 15.1443 4.51286 15.0619L15.6278 3.92784C16.8628 2.69072 18.8388 2.69072 20.0738 3.92784C21.3087 5.16495 21.3087 7.14433 20.0738 8.38144L8.95883 19.5155C8.8765 19.5979 8.71184 19.6804 8.6295 19.7629L4.1012 21H3.8542ZM5.83019 16.0515L5.00686 19.0206L7.97084 18.1959L18.9211 7.2268C19.4974 6.64948 19.4974 5.65979 18.9211 5.08247C18.3448 4.50515 17.3568 4.50515 16.7804 5.08247L5.83019 16.0515Z" fill="#080D11"/>
</svg>
