<svg width="24" height="24" viewBox="0 0 24 24" fill="none" xmlns="http://www.w3.org/2000/svg">
<path d="M10.94 6.07994C11.2908 6.02617 11.6451 5.99943 12 5.99994C15.18 5.99994 18.17 8.28994 19.91 11.9999C19.6439 12.5645 19.3433 13.1122 19.01 13.6399C18.9042 13.8038 18.8486 13.9949 18.85 14.1899C18.8522 14.4082 18.9258 14.6197 19.0595 14.7922C19.1931 14.9647 19.3796 15.0888 19.5903 15.1455C19.8011 15.2021 20.0246 15.1883 20.2268 15.106C20.4289 15.0238 20.5986 14.8776 20.71 14.6899C21.1759 13.9579 21.5806 13.1886 21.92 12.3899C21.9737 12.2652 22.0013 12.1308 22.0013 11.9949C22.0013 11.8591 21.9737 11.7247 21.92 11.5999C19.9 6.90994 16.1 3.99994 12 3.99994C11.5307 3.99758 11.0621 4.03774 10.6 4.11994C10.4687 4.14227 10.343 4.19024 10.2303 4.26112C10.1175 4.332 10.0198 4.4244 9.94269 4.53304C9.86561 4.64169 9.8107 4.76445 9.78107 4.89432C9.75144 5.02419 9.74768 5.15862 9.77 5.28994C9.79233 5.42126 9.8403 5.5469 9.91118 5.65968C9.98206 5.77247 10.0745 5.87018 10.1831 5.94726C10.2917 6.02433 10.4145 6.07925 10.5444 6.10888C10.6742 6.13851 10.8087 6.14227 10.94 6.11994V6.07994ZM3.71 2.28994C3.61676 2.1967 3.50607 2.12274 3.38425 2.07228C3.26243 2.02182 3.13186 1.99585 3 1.99585C2.86814 1.99585 2.73758 2.02182 2.61575 2.07228C2.49393 2.12274 2.38324 2.1967 2.29 2.28994C2.1017 2.47824 1.99591 2.73364 1.99591 2.99994C1.99591 3.26624 2.1017 3.52164 2.29 3.70994L5.39 6.79994C3.97558 8.16147 2.84986 9.79393 2.08 11.5999C2.02494 11.7261 1.99652 11.8623 1.99652 11.9999C1.99652 12.1376 2.02494 12.2738 2.08 12.3999C4.1 17.0899 7.9 19.9999 12 19.9999C13.7971 19.9875 15.5518 19.4524 17.05 18.4599L20.29 21.7099C20.383 21.8037 20.4936 21.8781 20.6154 21.9288C20.7373 21.9796 20.868 22.0057 21 22.0057C21.132 22.0057 21.2627 21.9796 21.3846 21.9288C21.5064 21.8781 21.617 21.8037 21.71 21.7099C21.8037 21.617 21.8781 21.5064 21.9289 21.3845C21.9797 21.2627 22.0058 21.132 22.0058 20.9999C22.0058 20.8679 21.9797 20.7372 21.9289 20.6154C21.8781 20.4935 21.8037 20.3829 21.71 20.2899L3.71 2.28994ZM10.07 11.4799L12.52 13.9299C12.351 13.9784 12.1758 14.002 12 13.9999C11.4696 13.9999 10.9609 13.7892 10.5858 13.4142C10.2107 13.0391 10 12.5304 10 11.9999C9.99795 11.8241 10.0215 11.649 10.07 11.4799ZM12 17.9999C8.82 17.9999 5.83 15.7099 4.1 11.9999C4.74609 10.5737 5.66307 9.28652 6.8 8.20994L8.57 9.99994C8.15425 10.7587 7.99574 11.6319 8.11826 12.4884C8.24078 13.3449 8.63772 14.1386 9.24953 14.7504C9.86134 15.3622 10.655 15.7592 11.5115 15.8817C12.3681 16.0042 13.2412 15.8457 14 15.4299L15.59 16.9999C14.5011 17.6408 13.2634 17.9856 12 17.9999Z" fill="#080D11"/>
</svg>
