<svg width="24" height="24" viewBox="0 0 24 24" fill="none" xmlns="http://www.w3.org/2000/svg">
<path d="M15 2.00005C13.363 2.00137 11.7783 2.57637 10.5213 3.62506C9.26434 4.67375 8.41466 6.1298 8.12 7.74005C7.25843 8.20487 6.52368 8.87344 5.97985 9.68745C5.43601 10.5015 5.09961 11.4362 5 12.41C4.25575 12.7374 3.60256 13.2414 3.09705 13.8782C2.59153 14.515 2.24895 15.2655 2.09899 16.0647C1.94903 16.8638 1.99622 17.6874 2.23646 18.4642C2.4767 19.241 2.90275 19.9474 3.47768 20.5224C4.05261 21.0973 4.75908 21.5233 5.53585 21.7636C6.31262 22.0038 7.13627 22.051 7.93539 21.9011C8.73452 21.7511 9.48502 21.4085 10.1219 20.903C10.7587 20.3975 11.2626 19.7443 11.59 19C12.561 18.9036 13.4938 18.5717 14.3076 18.0333C15.1214 17.4948 15.7915 16.766 16.26 15.91C18.0109 15.6292 19.59 14.6942 20.6782 13.2941C21.7664 11.894 22.2827 10.133 22.1227 8.36692C21.9627 6.60085 21.1384 4.96131 19.8163 3.77951C18.4942 2.59771 16.7729 1.96173 15 2.00005ZM10 17.43C10 17.5301 10 17.63 9.93 17.74C9.80083 18.2547 9.53745 18.726 9.16673 19.1057C8.796 19.4853 8.3312 19.7599 7.81973 19.9013C7.30826 20.0427 6.76843 20.046 6.25531 19.9107C5.74219 19.7754 5.27414 19.5064 4.89891 19.1311C4.52368 18.7559 4.25469 18.2879 4.11939 17.7747C3.98408 17.2616 3.9873 16.7218 4.12872 16.2103C4.27014 15.6989 4.5447 15.234 4.92439 14.8633C5.30407 14.4926 5.7753 14.2292 6.29 14.1L6.57 14C7.03958 13.9123 7.52347 13.9403 7.97979 14.0816C8.43611 14.223 8.85113 14.4733 9.18892 14.8111C9.52671 15.1489 9.7771 15.5639 9.91842 16.0203C10.0597 16.4766 10.0877 16.9605 10 17.43ZM15 13.76C14.9868 13.8242 14.9701 13.8877 14.95 13.95C14.9071 14.1341 14.8502 14.3146 14.78 14.49C14.5498 15.0738 14.1854 15.5953 13.7164 16.0122C13.2473 16.4291 12.6868 16.7299 12.08 16.89C12.08 16.71 12.08 16.5401 12.02 16.3601C11.96 16.18 12.02 16.09 12.02 15.96C12.02 15.83 11.9 15.58 11.84 15.39C11.78 15.2001 11.77 15.15 11.72 15.03C11.6338 14.8395 11.5335 14.6557 11.42 14.48C11.42 14.39 11.33 14.29 11.27 14.2C11.0921 13.9393 10.8913 13.695 10.67 13.47L10.47 13.3C10.3024 13.1459 10.1254 13.0023 9.94 12.87C9.83105 12.7992 9.71746 12.7357 9.6 12.68C9.43995 12.5783 9.27286 12.4881 9.1 12.41C8.97084 12.3548 8.83697 12.3113 8.7 12.28C8.53164 12.2117 8.35765 12.1582 8.18 12.12C8.04 12.12 7.89 12.1201 7.74 12.0601L7.13 12C7.28919 11.3943 7.58838 10.8344 8.0035 10.3655C8.41862 9.8965 8.93806 9.53157 9.52 9.30005C9.69151 9.22842 9.86882 9.17155 10.05 9.13005L10.25 9.08005C10.4967 9.02818 10.7479 9.00137 11 9.00005C12.0609 9.00005 13.0783 9.42148 13.8284 10.1716C14.5786 10.9218 15 11.9392 15 13C14.9987 13.2554 14.9719 13.51 14.92 13.76H15ZM17 13.6C17 13.4001 17 13.2 17 13C17 11.4088 16.3679 9.88263 15.2426 8.75741C14.1174 7.63219 12.5913 7.00005 11 7.00005C10.8 7.00005 10.6 7.00005 10.4 7.00005C10.7296 6.2586 11.2347 5.60851 11.8717 5.1059C12.5088 4.60329 13.2585 4.26326 14.0563 4.11517C14.8541 3.96708 15.6759 4.01537 16.4509 4.25589C17.2259 4.4964 17.9306 4.9219 18.5044 5.49566C19.0781 6.06942 19.5037 6.77419 19.7442 7.54915C19.9847 8.3241 20.033 9.14595 19.8849 9.94374C19.7368 10.7415 19.3968 11.4913 18.8942 12.1283C18.3915 12.7653 17.7415 13.2704 17 13.6Z" fill="#080D11"/>
</svg>
