<svg width="24" height="24" viewBox="0 0 24 24" fill="none" xmlns="http://www.w3.org/2000/svg">
<path d="M15.82 20L21 20C21.2652 20 21.5196 19.8947 21.7071 19.7071C21.8946 19.5196 22 19.2653 22 19C22 18.7348 21.8946 18.4805 21.7071 18.2929C21.5196 18.1054 21.2652 18 21 18L15.82 18C15.6098 17.4209 15.2264 16.9205 14.7218 16.5669C14.2173 16.2133 13.6161 16.0236 13 16.0236C12.3839 16.0236 11.7827 16.2133 11.2782 16.5669C10.7736 16.9205 10.3902 17.4209 10.18 18L3 18C2.73478 18 2.48043 18.1054 2.29289 18.2929C2.10536 18.4805 2 18.7348 2 19C2 19.2653 2.10536 19.5196 2.29289 19.7071C2.48043 19.8947 2.73478 20 3 20L10.18 20C10.3902 20.5792 10.7736 21.0796 11.2782 21.4332C11.7827 21.7868 12.3839 21.9765 13 21.9765C13.6161 21.9765 14.2173 21.7868 14.7218 21.4332C15.2264 21.0796 15.6098 20.5792 15.82 20ZM12 19C12 18.8023 12.0586 18.6089 12.1685 18.4445C12.2784 18.28 12.4346 18.1518 12.6173 18.0762C12.8 18.0005 13.0011 17.9807 13.1951 18.0193C13.3891 18.0578 13.5673 18.1531 13.7071 18.2929C13.847 18.4328 13.9422 18.611 13.9808 18.8049C14.0194 18.9989 13.9996 19.2 13.9239 19.3827C13.8482 19.5654 13.72 19.7216 13.5556 19.8315C13.3911 19.9414 13.1978 20 13 20C12.7348 20 12.4804 19.8947 12.2929 19.7071C12.1054 19.5196 12 19.2653 12 19ZM9.82 13L21 13C21.2652 13 21.5196 12.8947 21.7071 12.7071C21.8946 12.5196 22 12.2653 22 12C22 11.7348 21.8946 11.4805 21.7071 11.2929C21.5196 11.1054 21.2652 11 21 11L9.82 11C9.6098 10.4209 9.22637 9.9205 8.72183 9.56688C8.2173 9.21326 7.61612 9.02356 7 9.02356C6.38388 9.02356 5.7827 9.21326 5.27817 9.56688C4.77363 9.9205 4.39021 10.4209 4.18 11L3 11C2.73478 11 2.48043 11.1054 2.29289 11.2929C2.10536 11.4805 2 11.7348 2 12C2 12.2653 2.10536 12.5196 2.29289 12.7071C2.48043 12.8947 2.73478 13 3 13L4.18 13C4.3902 13.5792 4.77363 14.0796 5.27817 14.4332C5.7827 14.7868 6.38388 14.9765 7 14.9765C7.61612 14.9765 8.2173 14.7868 8.72183 14.4332C9.22637 14.0796 9.6098 13.5792 9.82 13ZM6 12C6 11.8023 6.05865 11.6089 6.16853 11.4445C6.27841 11.28 6.43459 11.1518 6.61732 11.0762C6.80004 11.0005 7.00111 10.9807 7.19509 11.0193C7.38907 11.0578 7.56725 11.1531 7.70711 11.2929C7.84696 11.4328 7.9422 11.611 7.98078 11.8049C8.01937 11.9989 7.99957 12.2 7.92388 12.3827C7.84819 12.5654 7.72002 12.7216 7.55557 12.8315C7.39112 12.9414 7.19778 13 7 13C6.73478 13 6.48043 12.8947 6.29289 12.7071C6.10536 12.5196 6 12.2653 6 12ZM17.82 6.00004L21 6.00004C21.2652 6.00004 21.5196 5.89468 21.7071 5.70714C21.8946 5.51961 22 5.26525 22 5.00004C22 4.73482 21.8946 4.48047 21.7071 4.29293C21.5196 4.10539 21.2652 4.00004 21 4.00004L17.82 4.00004C17.6098 3.42088 17.2264 2.9205 16.7218 2.56688C16.2173 2.21326 15.6161 2.02356 15 2.02356C14.3839 2.02356 13.7827 2.21326 13.2782 2.56688C12.7736 2.9205 12.3902 3.42088 12.18 4.00004L3 4.00004C2.73478 4.00004 2.48043 4.10539 2.29289 4.29293C2.10536 4.48047 2 4.73482 2 5.00004C2 5.26525 2.10536 5.51961 2.29289 5.70714C2.48043 5.89468 2.73478 6.00004 3 6.00004L12.18 6.00004C12.3902 6.57919 12.7736 7.07958 13.2782 7.43319C13.7827 7.78681 14.3839 7.97651 15 7.97651C15.6161 7.97651 16.2173 7.78681 16.7218 7.43319C17.2264 7.07958 17.6098 6.57919 17.82 6.00004ZM14 5.00004C14 4.80225 14.0586 4.60891 14.1685 4.44447C14.2784 4.28002 14.4346 4.15184 14.6173 4.07616C14.8 4.00047 15.0011 3.98067 15.1951 4.01925C15.3891 4.05784 15.5673 4.15308 15.7071 4.29293C15.847 4.43278 15.9422 4.61096 15.9808 4.80495C16.0194 4.99893 15.9996 5.19999 15.9239 5.38272C15.8482 5.56545 15.72 5.72162 15.5556 5.83151C15.3911 5.94139 15.1978 6.00004 15 6.00004C14.7348 6.00004 14.4804 5.89468 14.2929 5.70714C14.1054 5.51961 14 5.26525 14 5.00004Z" fill="#080D11"/>
</svg>
