<svg width="24" height="24" viewBox="0 0 24 24" fill="none" xmlns="http://www.w3.org/2000/svg">
<path d="M21.41 8.64C21.41 8.64 21.41 8.64 21.41 8.59C20.7054 6.66623 19.4269 5.00529 17.7475 3.83187C16.0681 2.65845 14.0687 2.02917 12.02 2.02917C9.97125 2.02917 7.97193 2.65845 6.29251 3.83187C4.61308 5.00529 3.3346 6.66623 2.63 8.59C2.63 8.59 2.63 8.59 2.63 8.64C1.84312 10.8109 1.84312 13.1891 2.63 15.36C2.63 15.36 2.63 15.36 2.63 15.41C3.3346 17.3338 4.61308 18.9947 6.29251 20.1681C7.97193 21.3416 9.97125 21.9708 12.02 21.9708C14.0687 21.9708 16.0681 21.3416 17.7475 20.1681C19.4269 18.9947 20.7054 17.3338 21.41 15.41C21.41 15.41 21.41 15.41 21.41 15.36C22.1969 13.1891 22.1969 10.8109 21.41 8.64ZM4.26 14C3.91322 12.6892 3.91322 11.3108 4.26 10H6.12C5.96003 11.3285 5.96003 12.6715 6.12 14H4.26ZM5.08 16H6.48C6.71472 16.8918 7.05021 17.7541 7.48 18.57C6.4993 17.9019 5.67949 17.0241 5.08 16ZM6.48 8H5.08C5.67087 6.97909 6.48019 6.10147 7.45 5.43C7.03055 6.24725 6.70514 7.10942 6.48 8ZM11 19.7C9.77176 18.7987 8.90915 17.4852 8.57 16H11V19.7ZM11 14H8.14C7.95339 12.6732 7.95339 11.3268 8.14 10H11V14ZM11 8H8.57C8.90915 6.51477 9.77176 5.20132 11 4.3V8ZM18.92 8H17.52C17.2853 7.10816 16.9498 6.24594 16.52 5.43C17.5007 6.09807 18.3205 6.97594 18.92 8ZM13 4.3C14.2282 5.20132 15.0908 6.51477 15.43 8H13V4.3ZM13 19.7V16H15.43C15.0908 17.4852 14.2282 18.7987 13 19.7ZM15.86 14H13V10H15.86C16.0466 11.3268 16.0466 12.6732 15.86 14ZM16.55 18.57C16.9798 17.7541 17.3153 16.8918 17.55 16H18.95C18.3505 17.0241 17.5307 17.9019 16.55 18.57ZM19.74 14H17.88C17.9613 13.3365 18.0014 12.6685 18 12C18.0011 11.3315 17.961 10.6636 17.88 10H19.74C20.0868 11.3108 20.0868 12.6892 19.74 14Z" fill="#080D11"/>
</svg>
