<svg width="35" height="16" viewBox="0 0 35 16" fill="none" xmlns="http://www.w3.org/2000/svg">
<g clip-path="url(#clip0_4014_20803)">
<path d="M16.5657 7.81573V11.796H15.3025V1.96704H18.6512C19.4999 1.96704 20.2236 2.24994 20.8157 2.81573C21.4209 3.38152 21.7236 4.07231 21.7236 4.8881C21.7236 5.72362 21.4209 6.41441 20.8157 6.97362C20.2302 7.53283 19.5065 7.80915 18.6512 7.80915H16.5657V7.81573ZM16.5657 3.17757V6.6052H18.6775C19.1775 6.6052 19.5986 6.43415 19.9275 6.09862C20.263 5.76309 20.4341 5.3552 20.4341 4.89467C20.4341 4.44073 20.263 4.03941 19.9275 3.70388C19.5986 3.3552 19.1841 3.18415 18.6775 3.18415H16.5657V3.17757Z" fill="#080D11"/>
<path d="M25.0262 4.84863C25.9604 4.84863 26.6973 5.09863 27.2367 5.59863C27.7762 6.09863 28.046 6.78284 28.046 7.65126V11.796H26.842V10.8618H26.7894C26.2696 11.6315 25.5723 12.0131 24.7039 12.0131C23.9604 12.0131 23.342 11.796 22.842 11.3552C22.342 10.9144 22.092 10.3684 22.092 9.71047C22.092 9.01311 22.3552 8.46047 22.8815 8.05258C23.4078 7.63811 24.1117 7.43416 24.9867 7.43416C25.7367 7.43416 26.3552 7.57232 26.8354 7.84863V7.55916C26.8354 7.11837 26.6644 6.74995 26.3157 6.44074C25.967 6.13153 25.5591 5.98021 25.092 5.98021C24.3881 5.98021 23.8289 6.27626 23.421 6.87495L22.3091 6.17758C22.921 5.28942 23.8289 4.84863 25.0262 4.84863ZM23.3946 9.73021C23.3946 10.0592 23.5328 10.3355 23.8157 10.5526C24.092 10.7697 24.421 10.8815 24.796 10.8815C25.3289 10.8815 25.8025 10.6842 26.217 10.2894C26.6315 9.89468 26.842 9.43416 26.842 8.90126C26.4473 8.59205 25.9012 8.43416 25.1973 8.43416C24.6841 8.43416 24.2565 8.55916 23.9144 8.80258C23.5657 9.05916 23.3946 9.36837 23.3946 9.73021Z" fill="#080D11"/>
<path d="M34.9144 5.06567L30.7038 14.7499H29.4012L30.967 11.3617L28.1907 5.06567H29.5657L31.5657 9.89462H31.592L33.5394 5.06567H34.9144Z" fill="#080D11"/>
<path d="M11.5413 7.01324C11.5413 6.6014 11.5045 6.20732 11.436 5.82837H6.1413V7.99942L9.19064 8.00008C9.06695 8.72245 8.66893 9.33824 8.05906 9.74876V11.1573H9.87419C10.9341 10.1764 11.5413 8.7264 11.5413 7.01324Z" fill="#4285F4"/>
<path d="M8.05974 9.74859C7.55447 10.0894 6.90381 10.2887 6.14263 10.2887C4.67224 10.2887 3.42487 9.29793 2.97816 7.9624H1.10579V9.41503C2.03342 11.2558 3.94 12.519 6.14263 12.519C7.665 12.519 8.94395 12.0183 9.87487 11.1565L8.05974 9.74859Z" fill="#34A853"/>
<path d="M2.80185 6.88492C2.80185 6.50992 2.86435 6.14743 2.97816 5.80664V4.354H1.1058C0.722243 5.11519 0.506454 5.9744 0.506454 6.88492C0.506454 7.79545 0.722901 8.65466 1.1058 9.41585L2.97816 7.96322C2.86435 7.62243 2.80185 7.25992 2.80185 6.88492Z" fill="#FABB05"/>
<path d="M6.14263 3.48026C6.97355 3.48026 7.71763 3.76645 8.30513 4.32566L9.91368 2.71842C8.93671 1.80855 7.66303 1.25 6.14263 1.25C3.94066 1.25 2.03342 2.51316 1.10579 4.35395L2.97816 5.80658C3.42487 4.47105 4.67224 3.48026 6.14263 3.48026Z" fill="#E94235"/>
</g>
<defs>
<clipPath id="clip0_4014_20803">
<rect width="34.4079" height="16" fill="white" transform="translate(0.506439)"/>
</clipPath>
</defs>
</svg>
