<svg width="24" height="24" viewBox="0 0 24 24" fill="none" xmlns="http://www.w3.org/2000/svg">
<path d="M6 19C6 20.1 6.9 21 8 21C9.1 21 10 20.1 10 19C10 17.9 9.1 17 8 17C6.9 17 6 17.9 6 19Z" fill="#697E8D"/>
<path d="M6 12C6 13.1 6.9 14 8 14C9.1 14 10 13.1 10 12C10 10.9 9.1 10 8 10C6.9 10 6 10.9 6 12Z" fill="#697E8D"/>
<path d="M6 5C6 6.1 6.9 7 8 7C9.1 7 10 6.1 10 5C10 3.9 9.1 3 8 3C6.9 3 6 3.9 6 5Z" fill="#697E8D"/>
<path d="M14 19C14 20.1 14.9 21 16 21C17.1 21 18 20.1 18 19C18 17.9 17.1 17 16 17C14.9 17 14 17.9 14 19Z" fill="#697E8D"/>
<path d="M14 12C14 13.1 14.9 14 16 14C17.1 14 18 13.1 18 12C18 10.9 17.1 10 16 10C14.9 10 14 10.9 14 12Z" fill="#697E8D"/>
<path d="M14 5C14 6.1 14.9 7 16 7C17.1 7 18 6.1 18 5C18 3.9 17.1 3 16 3C14.9 3 14 3.9 14 5Z" fill="#697E8D"/>
</svg>
