<svg width="24" height="24" viewBox="0 0 24 24" fill="none" xmlns="http://www.w3.org/2000/svg">
<path d="M22 14.86V14.81C21.9879 14.6169 21.9544 14.4257 21.9 14.24L20.26 4.51003C20.1428 3.80198 19.7757 3.15939 19.2253 2.69887C18.6749 2.23834 17.9776 1.9904 17.26 2.00003H6.69C5.98097 2.00232 5.29566 2.25568 4.75565 2.71515C4.21563 3.17462 3.85581 3.81051 3.74 4.51003L2.12 14.22C2.06564 14.4057 2.0321 14.5969 2.02 14.79V14.84C2 14.91 2 15 2 15V19C2 19.7957 2.31607 20.5587 2.87868 21.1213C3.44129 21.684 4.20435 22 5 22H19C19.7956 22 20.5587 21.684 21.1213 21.1213C21.6839 20.5587 22 19.7957 22 19V15C22 15 22 14.91 22 14.86ZM5.71 4.83003C5.75048 4.59523 5.87346 4.38261 6.05679 4.23044C6.24013 4.07827 6.47177 3.99656 6.71 4.00003H17.31C17.5482 3.99656 17.7799 4.07827 17.9632 4.23044C18.1465 4.38261 18.2695 4.59523 18.31 4.83003L19.51 12.05C19.342 12.0168 19.1712 12.0001 19 12H5C4.83546 12.0013 4.67141 12.0181 4.51 12.05L5.71 4.83003ZM20 19C20 19.2652 19.8946 19.5196 19.7071 19.7071C19.5196 19.8947 19.2652 20 19 20H5C4.73478 20 4.48043 19.8947 4.29289 19.7071C4.10536 19.5196 4 19.2652 4 19V15.08L4.08 14.62C4.15502 14.4374 4.28242 14.2811 4.44614 14.1707C4.60986 14.0604 4.80257 14.001 5 14H19C19.1974 14.001 19.3901 14.0604 19.5539 14.1707C19.7176 14.2811 19.845 14.4374 19.92 14.62L20 15.08V19ZM17 16C16.8022 16 16.6089 16.0587 16.4444 16.1686C16.28 16.2784 16.1518 16.4346 16.0761 16.6173C16.0004 16.8001 15.9806 17.0011 16.0192 17.1951C16.0578 17.3891 16.153 17.5673 16.2929 17.7071C16.4327 17.847 16.6109 17.9422 16.8049 17.9808C16.9989 18.0194 17.2 17.9996 17.3827 17.9239C17.5654 17.8482 17.7216 17.72 17.8315 17.5556C17.9414 17.3911 18 17.1978 18 17C18 16.7348 17.8946 16.4805 17.7071 16.2929C17.5196 16.1054 17.2652 16 17 16Z" fill="#697E8D"/>
</svg>
