<svg width="24" height="24" viewBox="0 0 24 24" fill="none" xmlns="http://www.w3.org/2000/svg">
<path d="M12 23C9 23 6.3 21.8 4.3 19.8L4.2 19.7L4.1 19.6C2.2 17.7 1 15 1 12C1 9 2.2 6.3 4.2 4.3L4.3 4.2L4.4 4.1C6.3 2.2 9 1 12 1C15 1 17.7 2.2 19.7 4.2L19.8 4.3L19.9 4.4C21.9 6.4 23.1 9.1 23.1 12.1C23.1 15.1 21.9 17.8 19.9 19.8L19.8 19.9L19.7 20C17.7 21.8 15 23 12 23ZM6.4 19C7.9 20.2 9.9 21 12 21C14.1 21 16.1 20.3 17.6 19L14.7 16.1C14 16.7 13 17 12 17C11 17 10 16.7 9.2 16.2L6.4 19ZM5 6.4C3.7 7.9 3 9.9 3 12C3 14.1 3.7 16.1 5 17.6L7.9 14.7C7.3 14 7 13 7 12C7 11 7.3 10 7.8 9.2L5 6.4ZM16.2 14.8L19.1 17.7C20.3 16.2 21.1 14.2 21.1 12.1C21.1 10 20.4 8 19.1 6.5L16.2 9.4C16.7 10 17 11 17 12C17 13 16.7 14 16.2 14.8ZM12 9C10.3 9 9 10.3 9 12C9 13.7 10.3 15 12 15C13.7 15 15 13.7 15 12C15 10.3 13.7 9 12 9ZM12 7C13 7 14 7.3 14.8 7.8L17.6 5C16.1 3.8 14.1 3 12 3C9.9 3 7.9 3.7 6.4 5L9.3 7.9C10 7.3 11 7 12 7Z" fill="#080D11"/>
</svg>
