<svg width="25" height="24" viewBox="0 0 25 24" fill="none" xmlns="http://www.w3.org/2000/svg">
<g clip-path="url(#clip0_7491_1282)">
<path d="M17.5 23H7.5C4.2 23 1.5 20.3 1.5 17V7C1.5 3.7 4.2 1 7.5 1H17.5C20.8 1 23.5 3.7 23.5 7V17C23.5 20.3 20.8 23 17.5 23ZM7.5 3C5.3 3 3.5 4.8 3.5 7V17C3.5 19.2 5.3 21 7.5 21H17.5C19.7 21 21.5 19.2 21.5 17V7C21.5 4.8 19.7 3 17.5 3H7.5ZM12.5 17C11.4 17 10.4 16.7 9.5 16C8.4 15.2 7.7 14 7.5 12.7C7.2 10 9.1 7.4 11.8 7C12.3 6.9 12.8 6.9 13.3 7C15.5 7.3 17.2 9 17.5 11.2C17.7 12.5 17.4 13.8 16.6 14.9C15.8 16 14.6 16.7 13.3 16.9C13 16.9 12.8 17 12.5 17ZM12.5 9H12.1C10.5 9.2 9.3 10.8 9.6 12.4C9.8 14 11.4 15.2 13 14.9C13.8 14.8 14.5 14.4 15 13.7C15.5 13 15.7 12.3 15.6 11.5C15.4 10.2 14.4 9.2 13.1 9H12.5ZM18 7.5C17.4 7.5 17 7.1 17 6.5C17 5.9 17.4 5.5 18 5.5C18.6 5.5 19 5.9 19 6.5C19 7.1 18.6 7.5 18 7.5Z" fill="#080D11"/>
</g>
<defs>
<clipPath id="clip0_7491_1282">
<rect width="24" height="24" fill="white" transform="translate(0.5)"/>
</clipPath>
</defs>
</svg>
