<svg width="24" height="24" viewBox="0 0 24 24" fill="none" xmlns="http://www.w3.org/2000/svg">
<path d="M12 15.8192V13.6682C9.90035 13.6682 8.20008 11.9679 8.20008 9.86825V9.83789H6C6 13.1427 8.6812 15.8239 11.986 15.8215H12V15.8192Z" fill="#374550"/>
<path d="M14.4211 6.52878L16.5231 5.46377V2.38086H8.19922V4.4735H14.2366L10.1961 6.42601V8.18H11.9991C14.0988 8.18 15.7991 9.88027 15.7991 11.9799V12.0383C15.7991 14.138 14.0988 15.8382 11.9991 15.8382V17.9893H12.0202C15.3226 17.9869 17.9991 15.3081 17.9991 12.0056C17.9991 9.56031 16.5278 7.45599 14.4211 6.52878Z" fill="#080D11"/>
<path d="M16.5231 19.5234H8.19922V21.6161H16.5231V19.5234Z" fill="#F7931A"/>
</svg>
