<svg width="24" height="24" viewBox="0 0 24 24" fill="none" xmlns="http://www.w3.org/2000/svg">
<path d="M14.022 7H15.022C15.2871 7.00034 15.5413 7.10581 15.7287 7.29327C15.9162 7.48073 16.0217 7.73489 16.022 8V9C16.022 9.26521 16.1274 9.51957 16.3149 9.7071C16.5024 9.89464 16.7568 10 17.022 10C17.2872 10 17.5416 9.89464 17.7291 9.7071C17.9166 9.51957 18.022 9.26521 18.022 9V8C18.0211 7.20461 17.7048 6.44206 17.1424 5.87964C16.5799 5.31722 15.8174 5.00087 15.022 5H14.022C13.7568 5 13.5024 5.10535 13.3149 5.29289C13.1274 5.48043 13.022 5.73478 13.022 6C13.022 6.26521 13.1274 6.51957 13.3149 6.7071C13.5024 6.89464 13.7568 7 14.022 7ZM10.022 16H9.022C8.75689 15.9997 8.50273 15.8942 8.31527 15.7067C8.12781 15.5193 8.02234 15.2651 8.022 15V14C8.022 13.7348 7.91664 13.4804 7.7291 13.2929C7.54157 13.1054 7.28721 13 7.022 13C6.75678 13 6.50243 13.1054 6.31489 13.2929C6.12735 13.4804 6.022 13.7348 6.022 14V15C6.02286 15.7954 6.33921 16.5579 6.90164 17.1204C7.46406 17.6828 8.22661 17.9991 9.022 18H10.022C10.2872 18 10.5416 17.8946 10.7291 17.7071C10.9166 17.5196 11.022 17.2652 11.022 17C11.022 16.7348 10.9166 16.4804 10.7291 16.2929C10.5416 16.1054 10.2872 16 10.022 16ZM21.022 15C21.2872 15 21.5416 14.8946 21.7291 14.7071C21.9166 14.5196 22.022 14.2652 22.022 14C22.022 13.7348 21.9166 13.4804 21.7291 13.2929C21.5416 13.1054 21.2872 13 21.022 13H18.022V12.5C18.022 12.2348 17.9166 11.9804 17.7291 11.7929C17.5416 11.6054 17.2872 11.5 17.022 11.5C16.7568 11.5 16.5024 11.6054 16.3149 11.7929C16.1274 11.9804 16.022 12.2348 16.022 12.5V13H13.022C12.7568 13 12.5024 13.1054 12.3149 13.2929C12.1274 13.4804 12.022 13.7348 12.022 14C12.022 14.2652 12.1274 14.5196 12.3149 14.7071C12.5024 14.8946 12.7568 15 13.022 15H18.2063C17.98 15.9191 17.5624 16.78 16.9807 17.5267C16.7427 17.2181 16.5322 16.8893 16.3516 16.5439C16.2917 16.4271 16.2094 16.3232 16.1093 16.2382C16.0093 16.1532 15.8935 16.0887 15.7685 16.0484C15.6436 16.0082 15.5119 15.9929 15.3811 16.0035C15.2502 16.0142 15.1227 16.0505 15.0059 16.1104C14.8891 16.1702 14.7852 16.2526 14.7002 16.3526C14.6151 16.4526 14.5507 16.5684 14.5104 16.6934C14.4291 16.9458 14.4513 17.2201 14.5723 17.456C14.8416 17.9765 15.163 18.4684 15.5314 18.924C14.8059 19.4508 13.9809 19.8247 13.1064 20.023C12.8478 20.0801 12.6223 20.2374 12.4795 20.4605C12.3368 20.6836 12.2883 20.9542 12.3448 21.213C12.4013 21.4717 12.5582 21.6975 12.781 21.8408C13.0038 21.984 13.2743 22.0331 13.5332 21.9771C14.7879 21.6996 15.9648 21.1456 16.9782 20.3555C18.0001 21.146 19.1848 21.6997 20.4468 21.9766C20.575 22.0049 20.7076 22.0076 20.8369 21.9847C20.9662 21.9617 21.0897 21.9135 21.2004 21.8428C21.311 21.7722 21.4067 21.6804 21.4819 21.5727C21.5571 21.465 21.6104 21.3436 21.6387 21.2154C21.6669 21.0871 21.6697 20.9546 21.6467 20.8253C21.6238 20.696 21.5756 20.5725 21.5049 20.4618C21.4342 20.3511 21.3424 20.2554 21.2347 20.1802C21.1271 20.105 21.0057 20.0518 20.8774 20.0235C19.9972 19.8278 19.1654 19.4571 18.4313 18.9334C19.356 17.7952 19.9793 16.4425 20.2437 15H21.022ZM9.05176 11.2427C9.11677 11.4993 9.28088 11.7197 9.50809 11.8555C9.73531 11.9913 10.0071 12.0315 10.2639 11.9673C10.5207 11.903 10.7416 11.7396 10.8781 11.5128C11.0146 11.286 11.0556 11.0143 10.9922 10.7573L9.23486 3.72754C9.11142 3.23408 8.8266 2.79604 8.42565 2.48303C8.0247 2.17002 7.53063 2 7.02197 2C6.51331 2 6.01924 2.17002 5.61829 2.48303C5.21734 2.79604 4.93251 3.23408 4.80908 3.72754L3.05176 10.7573C2.9883 11.0143 3.02933 11.286 3.16585 11.5128C3.30236 11.7396 3.52322 11.903 3.78003 11.9673C4.03684 12.0315 4.30863 11.9913 4.53585 11.8555C4.76307 11.7197 4.92717 11.4993 4.99219 11.2427L5.5528 9H8.49115L9.05176 11.2427ZM6.0528 7L6.74951 4.21289C6.77044 4.15756 6.80772 4.10991 6.85639 4.07628C6.90506 4.04266 6.96281 4.02465 7.02197 4.02465C7.08112 4.02465 7.13888 4.04266 7.18755 4.07628C7.23622 4.10991 7.2735 4.15756 7.29443 4.21289L7.99115 7H6.0528Z" fill="#080D11"/>
</svg>
