<svg width="24" height="24" viewBox="0 0 24 24" fill="none" xmlns="http://www.w3.org/2000/svg">
<path d="M17.09 2.81995C16.1703 2.06353 15.0933 1.52198 13.9377 1.23479C12.782 0.947605 11.5768 0.922035 10.41 1.15995C8.85638 1.47377 7.43099 2.24202 6.31469 3.36723C5.19838 4.49243 4.44147 5.92388 4.14 7.47995C3.91985 8.64667 3.95985 9.8476 4.25716 10.9971C4.55448 12.1466 5.10177 13.2163 5.86 14.1299C6.56369 14.924 6.96704 15.9395 7 16.9999V19.9999C7 20.7956 7.31607 21.5587 7.87868 22.1213C8.44129 22.6839 9.20435 22.9999 10 22.9999H14C14.7957 22.9999 15.5587 22.6839 16.1213 22.1213C16.6839 21.5587 17 20.7956 17 19.9999V17.1899C17.0336 16.0191 17.4637 14.8944 18.22 13.9999C19.5451 12.3607 20.1698 10.2648 19.9582 8.16757C19.7466 6.07038 18.7159 4.14143 17.09 2.79995V2.81995ZM15 19.9999C15 20.2652 14.8946 20.5195 14.7071 20.7071C14.5196 20.8946 14.2652 20.9999 14 20.9999H10C9.73479 20.9999 9.48043 20.8946 9.2929 20.7071C9.10536 20.5195 9 20.2652 9 19.9999V18.9999H15V19.9999ZM16.67 12.7599C15.6645 13.9525 15.0779 15.442 15 16.9999H13V13.9999C13 13.7347 12.8946 13.4804 12.7071 13.2928C12.5196 13.1053 12.2652 12.9999 12 12.9999C11.7348 12.9999 11.4804 13.1053 11.2929 13.2928C11.1054 13.4804 11 13.7347 11 13.9999V16.9999H9C8.97362 15.468 8.40695 13.9947 7.4 12.8399C6.73564 12.0439 6.28889 11.0894 6.10331 10.0693C5.91773 9.04922 5.99965 7.99846 6.34109 7.01948C6.68253 6.04049 7.27182 5.16669 8.05153 4.48327C8.83123 3.79985 9.77472 3.33015 10.79 3.11995C11.6626 2.94029 12.5642 2.95719 13.4294 3.16942C14.2946 3.38164 15.1017 3.78387 15.7921 4.3469C16.4824 4.90993 17.0388 5.61962 17.4207 6.42446C17.8026 7.22931 18.0005 8.10909 18 8.99995C18.0074 10.3698 17.5371 11.6994 16.67 12.7599Z" fill="#080D11"/>
</svg>
