<svg width="24" height="24" viewBox="0 0 24 24" fill="none" xmlns="http://www.w3.org/2000/svg">
<path d="M8.5 19C8.20333 19 7.91332 19.088 7.66664 19.2528C7.41997 19.4176 7.22771 19.6519 7.11418 19.926C7.00065 20.2001 6.97094 20.5017 7.02882 20.7926C7.0867 21.0836 7.22956 21.3509 7.43934 21.5607C7.64912 21.7704 7.91639 21.9133 8.20736 21.9712C8.49834 22.0291 8.79994 21.9993 9.07403 21.8858C9.34811 21.7723 9.58238 21.58 9.7472 21.3334C9.91203 21.0867 10 20.7967 10 20.5C10 20.1022 9.84196 19.7206 9.56066 19.4393C9.27936 19.158 8.89782 19 8.5 19ZM19 16H7C6.73478 16 6.48043 15.8946 6.29289 15.7071C6.10536 15.5196 6 15.2652 6 15C6 14.7348 6.10536 14.4804 6.29289 14.2929C6.48043 14.1054 6.73478 14 7 14H15.4912C16.1426 13.9979 16.7758 13.7847 17.2959 13.3925C17.816 13.0002 18.195 12.45 18.376 11.8242L19.9614 6.2749C20.004 6.12607 20.0114 5.9694 19.9831 5.81722C19.9548 5.66505 19.8915 5.52152 19.7983 5.39793C19.7051 5.27435 19.5845 5.17408 19.446 5.10503C19.3075 5.03598 19.1548 5.00003 19 5H6.73907C6.53206 4.41736 6.15044 3.91271 5.64622 3.55481C5.14201 3.19692 4.53971 3.00318 3.92139 3H3C2.73478 3 2.48043 3.10536 2.29289 3.29289C2.10536 3.48043 2 3.73478 2 4C2 4.26522 2.10536 4.51957 2.29289 4.70711C2.48043 4.89464 2.73478 5 3 5H3.92139C4.13847 5.00076 4.34947 5.07182 4.52279 5.20253C4.6961 5.33325 4.82242 5.51659 4.88281 5.7251L5.03833 6.26984L5.03857 6.2749L6.6792 12.0171C5.91576 12.0992 5.21287 12.4709 4.71527 13.0557C4.21766 13.6405 3.96321 14.3938 4.00433 15.1606C4.04544 15.9273 4.37898 16.6491 4.93626 17.1773C5.49355 17.7055 6.23216 18 7 18H19C19.2652 18 19.5196 17.8946 19.7071 17.7071C19.8946 17.5196 20 17.2652 20 17C20 16.7348 19.8946 16.4804 19.7071 16.2929C19.5196 16.1054 19.2652 16 19 16ZM17.6743 7L16.4531 11.2744C16.3928 11.4831 16.2664 11.6666 16.093 11.7974C15.9196 11.9282 15.7084 11.9993 15.4912 12H8.75439L8.49945 11.1078L7.32642 7H17.6743ZM16.5 19C16.2033 19 15.9133 19.088 15.6666 19.2528C15.42 19.4176 15.2277 19.6519 15.1142 19.926C15.0006 20.2001 14.9709 20.5017 15.0288 20.7926C15.0867 21.0836 15.2296 21.3509 15.4393 21.5607C15.6491 21.7704 15.9164 21.9133 16.2074 21.9712C16.4983 22.0291 16.7999 21.9993 17.074 21.8858C17.3481 21.7723 17.5824 21.58 17.7472 21.3334C17.912 21.0867 18 20.7967 18 20.5C18 20.1022 17.842 19.7206 17.5607 19.4393C17.2794 19.158 16.8978 19 16.5 19Z" fill="#080D11"/>
</svg>
