<svg width="26" height="16" viewBox="0 0 26 16" fill="none" xmlns="http://www.w3.org/2000/svg">
<g clip-path="url(#clip0_1397_31741)">
<path d="M16.6682 1.80957H9.77698V14.1904H16.6682V1.80957Z" fill="#FF5A00"/>
<path d="M10.2357 8C10.2357 5.48459 11.4183 3.25206 13.2328 1.80959C11.8974 0.759587 10.2128 0.125 8.37531 0.125C4.02239 0.125 0.500305 3.64709 0.500305 8C0.500305 12.3529 4.02239 15.875 8.37531 15.875C10.2128 15.875 11.8974 15.2404 13.2328 14.1904C11.4157 12.7683 10.2357 10.5154 10.2357 8Z" fill="#EB001B"/>
<path d="M25.9653 8C25.9653 12.3529 22.4432 15.875 18.0903 15.875C16.2528 15.875 14.5682 15.2404 13.2328 14.1904C15.0703 12.7454 16.2299 10.5154 16.2299 8C16.2299 5.48459 15.0474 3.25206 13.2328 1.80959C14.5657 0.759587 16.2503 0.125 18.0878 0.125C22.4432 0.125 25.9653 3.67002 25.9653 8Z" fill="#F79E1B"/>
</g>
<defs>
<clipPath id="clip0_1397_31741">
<rect width="25.465" height="16" fill="white" transform="translate(0.500305)"/>
</clipPath>
</defs>
</svg>
