<svg width="24" height="24" viewBox="0 0 24 24" fill="none" xmlns="http://www.w3.org/2000/svg">
    <path
        d="M18 23.0004H4C2.3 23.0004 1 21.7004 1 20.0004V6.00039C1 4.30039 2.3 3.00039 4 3.00039H11C11.6 3.00039 12 3.40039 12 4.00039C12 4.60039 11.6 5.00039 11 5.00039H4C3.4 5.00039 3 5.40039 3 6.00039V20.0004C3 20.6004 3.4 21.0004 4 21.0004H18C18.6 21.0004 19 20.6004 19 20.0004V13.0004C19 12.4004 19.4 12.0004 20 12.0004C20.6 12.0004 21 12.4004 21 13.0004V20.0004C21 21.7004 19.7 23.0004 18 23.0004ZM8 17.0004C7.7 17.0004 7.5 16.9004 7.3 16.7004C7 16.5004 6.9 16.1004 7 15.8004L8 11.8004C8 11.6004 8.1 11.5004 8.3 11.3004L17.8 1.80039C19 0.600391 21 0.600391 22.2 1.80039C23.4 3.00039 23.4 5.00039 22.2 6.20039L12.7 15.7004C12.6 15.8004 12.4 15.9004 12.2 16.0004L8.2 17.0004H8ZM9.9 12.5004L9.4 14.6004L11.5 14.1004L20.8 4.80039C21.2 4.40039 21.2 3.70039 20.8 3.20039C20.4 2.80039 19.6 2.80039 19.2 3.20039L9.9 12.5004Z"
        fill="#080D11" />
</svg>
    