<svg width="24" height="24" viewBox="0 0 24 24" fill="none" xmlns="http://www.w3.org/2000/svg">
<path d="M12 23C11.5 23 11 22.9 10.5 22.6C10 22.3 9.7 22 9.4 21.5C9.1 21 9.3 20.4 9.8 20.1C10.3 19.8 10.9 20 11.2 20.5C11.3 20.6 11.4 20.8 11.6 20.9C12.1 21.2 12.7 21 13 20.5C13.3 20 13.9 19.9 14.4 20.1C14.9 20.4 15 21 14.8 21.5C14 22.5 13 23 12 23ZM21 18H3C2.6 18 2.2 17.7 2 17.3C1.9 16.9 2 16.4 2.4 16.2C2.4 16.2 5 14.3 5 8C5 4.1 8.1 1 12 1C15.9 1 19 4.1 19 8C19 14.3 21.5 16.2 21.6 16.2C22 16.5 22.1 16.9 22 17.3C21.9 17.7 21.4 18 21 18ZM5.1 16H18.8C18 14.5 17 12 17 8C17 5.2 14.8 3 12 3C9.2 3 7 5.2 7 8C7 12 6 14.5 5.1 16Z" fill="#080D11"/>
</svg>
