<svg width="24" height="24" viewBox="0 0 24 24" fill="none" xmlns="http://www.w3.org/2000/svg">
<path d="M20 4H4C3.44772 4 3 4.44772 3 5V11C3 11.5523 3.44772 12 4 12H13V14H4C2.34315 14 1 12.6569 1 11V5C1 3.34315 2.34315 2 4 2H20C21.6569 2 23 3.34315 23 5V10H21V5C21 4.44772 20.5523 4 20 4Z" fill="#080D11"/>
<path d="M6 9C6.55228 9 7 8.55228 7 8C7 7.44772 6.55228 7 6 7C5.44772 7 5 7.44772 5 8C5 8.55228 5.44772 9 6 9Z" fill="#080D11"/>
<path fill-rule="evenodd" clip-rule="evenodd" d="M23 18V19C23 19.7956 22.6839 20.5587 22.1213 21.1213C21.5587 21.6839 20.7956 22 20 22H16C15.2044 22 14.4413 21.6839 13.8787 21.1213C13.3161 20.5587 13 19.7956 13 19V18C13.0017 17.3811 13.1949 16.7778 13.5529 16.2729C13.911 15.7681 14.4165 15.3863 15 15.18V14C15 13.2044 15.3161 12.4413 15.8787 11.8787C16.4413 11.3161 17.2044 11 18 11C18.7956 11 19.5587 11.3161 20.1213 11.8787C20.6839 12.4413 21 13.2044 21 14V15.18C21.5835 15.3863 22.089 15.7681 22.4471 16.2729C22.8051 16.7778 22.9983 17.3811 23 18ZM17.2929 13.2929C17.1054 13.4804 17 13.7348 17 14V15H19V14C19 13.7348 18.8946 13.4804 18.7071 13.2929C18.5196 13.1054 18.2652 13 18 13C17.7348 13 17.4804 13.1054 17.2929 13.2929ZM15 18V19C15 19.2652 15.1054 19.5196 15.2929 19.7071C15.4804 19.8946 15.7348 20 16 20H20C20.2652 20 20.5196 19.8946 20.7071 19.7071C20.8946 19.5196 21 19.2652 21 19V18C21 17.7348 20.8946 17.4804 20.7071 17.2929C20.5196 17.1054 20.2652 17 20 17H16C15.7348 17 15.4804 17.1054 15.2929 17.2929C15.1054 17.4804 15 17.7348 15 18Z" fill="#080D11"/>
<path d="M11 8C11 8.55228 10.5523 9 10 9C9.44771 9 9 8.55228 9 8C9 7.44772 9.44771 7 10 7C10.5523 7 11 7.44772 11 8Z" fill="#080D11"/>
<path d="M14 9C14.5523 9 15 8.55228 15 8C15 7.44772 14.5523 7 14 7C13.4477 7 13 7.44772 13 8C13 8.55228 13.4477 9 14 9Z" fill="#080D11"/>
<path d="M19 8C19 8.55228 18.5523 9 18 9C17.4477 9 17 8.55228 17 8C17 7.44772 17.4477 7 18 7C18.5523 7 19 7.44772 19 8Z" fill="#080D11"/>
</svg>
