<svg width="24" height="24" viewBox="0 0 24 24" fill="none" xmlns="http://www.w3.org/2000/svg">
<path d="M21.92 15.6241C21.8694 15.5029 21.7983 15.3913 21.71 15.2941L18.71 12.2941C18.5217 12.1058 18.2663 12 18 12C17.7337 12 17.4783 12.1058 17.29 12.2941C17.1017 12.4824 16.9959 12.7378 16.9959 13.0041C16.9959 13.2704 17.1017 13.5258 17.29 13.7141L18.59 15.0041H13C12.7348 15.0041 12.4804 15.1094 12.2929 15.297C12.1054 15.4845 12 15.7389 12 16.0041C12 16.2693 12.1054 16.5237 12.2929 16.7112C12.4804 16.8987 12.7348 17.0041 13 17.0041H18.59L17.29 18.2941C17.1963 18.3871 17.1219 18.4977 17.0711 18.6195C17.0203 18.7414 16.9942 18.8721 16.9942 19.0041C16.9942 19.1361 17.0203 19.2668 17.0711 19.3887C17.1219 19.5105 17.1963 19.6211 17.29 19.7141C17.383 19.8078 17.4936 19.8822 17.6154 19.933C17.7373 19.9838 17.868 20.0099 18 20.0099C18.132 20.0099 18.2627 19.9838 18.3846 19.933C18.5064 19.8822 18.617 19.8078 18.71 19.7141L21.71 16.7141C21.8026 16.6202 21.8742 16.5077 21.92 16.3841C22.02 16.1406 22.02 15.8676 21.92 15.6241Z" fill="#080D11"/>
<path fill-rule="evenodd" clip-rule="evenodd" d="M16 4H17C17.7956 4 18.5587 4.31607 19.1213 4.87868C19.6839 5.44129 20 6.20435 20 7V9C20 9.55228 19.5523 10 19 10C18.4477 10 18 9.55228 18 9V7C18 6.73478 17.8946 6.48043 17.7071 6.29289C17.5196 6.10536 17.2652 6 17 6H16C16 6.53043 15.7893 7.03914 15.4142 7.41421C15.0391 7.78929 14.5304 8 14 8H10C9.46957 8 8.96086 7.78929 8.58579 7.41421C8.21071 7.03914 8 6.53043 8 6H7C6.73478 6 6.48043 6.10536 6.29289 6.29289C6.10536 6.48043 6 6.73478 6 7V19C6 19.2652 6.10536 19.5196 6.29289 19.7071C6.48043 19.8946 6.73478 20 7 20H15C15.5523 20 16 20.4477 16 21C16 21.5523 15.5523 22 15 22H7C6.20435 22 5.44129 21.6839 4.87868 21.1213C4.31607 20.5587 4 19.7956 4 19V7C4 6.20435 4.31607 5.44129 4.87868 4.87868C5.44129 4.31607 6.20435 4 7 4H8C8 3.46957 8.21071 2.96086 8.58579 2.58579C8.96086 2.21071 9.46957 2 10 2H14C14.5304 2 15.0391 2.21071 15.4142 2.58579C15.7893 2.96086 16 3.46957 16 4ZM14 4H10V6H14V4Z" fill="#080D11"/>
</svg>
