<svg width="24" height="24" viewBox="0 0 24 24" fill="none" xmlns="http://www.w3.org/2000/svg">
<path fill-rule="evenodd" clip-rule="evenodd" d="M6.29006 9.53501L11.2901 4.53501C11.3852 4.44397 11.4973 4.37261 11.6201 4.32501C11.8635 4.225 12.1366 4.225 12.3801 4.32501C12.5028 4.37261 12.615 4.44397 12.7101 4.53501L17.7101 9.53501C17.8033 9.62825 17.8773 9.73894 17.9277 9.86076C17.9782 9.98259 18.0042 10.1132 18.0042 10.245C18.0042 10.5113 17.8984 10.7667 17.7101 10.955C17.5218 11.1433 17.2664 11.2491 17.0001 11.2491C16.7338 11.2491 16.4784 11.1433 16.2901 10.955L13.0001 7.65501V13.245L13 13.2568C12.9936 16.8412 10.0859 19.745 6.5 19.745C5.94772 19.745 5.5 19.2973 5.5 18.745C5.5 18.1927 5.94772 17.745 6.5 17.745C8.98528 17.745 11 15.7303 11 13.245V12.245H11.0001V7.65501L7.71006 10.955C7.61709 11.0487 7.5065 11.1231 7.38464 11.1739C7.26278 11.2247 7.13207 11.2508 7.00006 11.2508C6.86805 11.2508 6.73734 11.2247 6.61548 11.1739C6.49362 11.1231 6.38302 11.0487 6.29006 10.955C6.19633 10.8621 6.12194 10.7514 6.07117 10.6296C6.0204 10.5077 5.99426 10.377 5.99426 10.245C5.99426 10.113 6.0204 9.9823 6.07117 9.86044C6.12194 9.73858 6.19633 9.62798 6.29006 9.53501ZM12.6368 17.5577C13.0644 16.9504 13.4041 16.2767 13.6375 15.5552C14.4237 16.867 15.8593 17.745 17.5 17.745C18.0523 17.745 18.5 18.1927 18.5 18.745C18.5 19.2973 18.0523 19.745 17.5 19.745C15.565 19.745 13.8275 18.8995 12.6368 17.5577Z" fill="#080D11"/>
</svg>
