<svg width="24" height="24" viewBox="0 0 24 24" fill="none" xmlns="http://www.w3.org/2000/svg">
<path d="M10.4365 19.8477C10.9406 19.9474 11.4632 20 12 20C16.4183 20 20 16.4183 20 12C20 7.58172 16.4183 4 12 4C11.4632 4 10.9406 4.0526 10.4365 4.15232L10.0484 2.19034C10.6796 2.06547 11.3321 2 12 2C17.5228 2 22 6.47715 22 12C22 17.5228 17.5228 22 12 22C11.3321 22 10.6796 21.9345 10.0484 21.8097L10.4365 19.8477Z" fill="#080D11"/>
<path d="M6.44384 20.3157C5.35333 19.5856 4.41443 18.6467 3.68435 17.5562L5.34628 16.4435C5.93092 17.3168 6.68321 18.0691 7.55648 18.6537L6.44384 20.3157Z" fill="#080D11"/>
<path d="M2.19034 13.9516C2.06547 13.3204 2 12.6679 2 12C2 11.3321 2.06547 10.6796 2.19034 10.0484L4.15232 10.4365C4.0526 10.9406 4 11.4632 4 12C4 12.5368 4.0526 13.0594 4.15232 13.5635L2.19034 13.9516Z" fill="#080D11"/>
<path d="M3.68435 6.44384C4.41443 5.35333 5.35333 4.41443 6.44384 3.68435L7.55648 5.34628C6.68321 5.93092 5.93093 6.68321 5.34628 7.55648L3.68435 6.44384Z" fill="#080D11"/>
<path d="M11.6173 7.07605C11.7386 7.02581 11.8687 6.99997 12 7C12.1313 6.99997 12.2614 7.02581 12.3827 7.07605C12.5041 7.12629 12.6143 7.19995 12.7072 7.29282C12.8 7.38568 12.8737 7.49594 12.924 7.61728C12.9742 7.73862 13 7.86867 13 8V13C13 13.1313 12.9742 13.2614 12.924 13.3827C12.8737 13.5041 12.8 13.6143 12.7072 13.7072C12.6143 13.8 12.5041 13.8737 12.3827 13.9239C12.2614 13.9742 12.1313 14 12 14H9C8.73478 14 8.48043 13.8946 8.29289 13.7071C8.10536 13.5196 8 13.2652 8 13C8 12.7348 8.10536 12.4804 8.29289 12.2929C8.48043 12.1054 8.73478 12 9 12H11V8C11 7.86867 11.0258 7.73862 11.0761 7.61728C11.1263 7.49594 11.2 7.38568 11.2928 7.29282C11.3857 7.19995 11.4959 7.12629 11.6173 7.07605Z" fill="#080D11"/>
</svg>
