<svg width="24" height="24" viewBox="0 0 24 24" fill="none" xmlns="http://www.w3.org/2000/svg">
<path fill-rule="evenodd" clip-rule="evenodd" d="M3 4C3 3.44772 3.44772 3 4 3H10C10.5523 3 11 3.44772 11 4V10C11 10.5523 10.5523 11 10 11H4C3.44772 11 3 10.5523 3 10V4ZM5 9V5H9V9H5Z" fill="#080D11"/>
<path fill-rule="evenodd" clip-rule="evenodd" d="M3 14C3 13.4477 3.44772 13 4 13H10C10.5523 13 11 13.4477 11 14V20C11 20.5523 10.5523 21 10 21H4C3.44772 21 3 20.5523 3 20V14ZM5 19V15H9V19H5Z" fill="#080D11"/>
<path fill-rule="evenodd" clip-rule="evenodd" d="M14 3C13.4477 3 13 3.44772 13 4V10C13 10.5523 13.4477 11 14 11H20C20.5523 11 21 10.5523 21 10V4C21 3.44772 20.5523 3 20 3H14ZM15 5V9H19V5H15Z" fill="#080D11"/>
<path d="M14 13C13.4477 13 13 13.4477 13 14V16C13 16.5523 13.4477 17 14 17C14.5523 17 15 16.5523 15 16V15H16C16.5523 15 17 14.5523 17 14C17 13.4477 16.5523 13 16 13H14Z" fill="#080D11"/>
<path d="M21 14C21 13.4477 20.5523 13 20 13C19.4477 13 19 13.4477 19 14V19H18C17.4477 19 17 19.4477 17 20C17 20.5523 17.4477 21 18 21H20C20.5523 21 21 20.5523 21 20V14Z" fill="#080D11"/>
<path d="M14 21C14.5523 21 15 20.5523 15 20C15 19.4477 14.5523 19 14 19C13.4477 19 13 19.4477 13 20C13 20.5523 13.4477 21 14 21Z" fill="#080D11"/>
</svg>
