<svg width="24" height="24" viewBox="0 0 24 24" fill="none" xmlns="http://www.w3.org/2000/svg">
<path d="M19 5H9.83C9.03462 5.0007 8.27207 5.31723 7.71 5.88L2.29 11.29C2.19627 11.383 2.12188 11.4936 2.07111 11.6154C2.02034 11.7373 1.9942 11.868 1.9942 12C1.9942 12.132 2.02034 12.2627 2.07111 12.3846C2.12188 12.5064 2.19627 12.617 2.29 12.71L7.71 18.12C8.27207 18.6828 9.03462 18.9993 9.83 19H19C19.7956 19 20.5587 18.6839 21.1213 18.1213C21.6839 17.5587 22 16.7956 22 16V8C22 7.20435 21.6839 6.44129 21.1213 5.87868C20.5587 5.31607 19.7956 5 19 5ZM20 16C20 16.2652 19.8946 16.5196 19.7071 16.7071C19.5196 16.8946 19.2652 17 19 17H9.83C9.56523 16.9963 9.31163 16.8927 9.12 16.71L4.41 12L9.12 7.29C9.31163 7.10727 9.56523 7.00368 9.83 7H19C19.2652 7 19.5196 7.10536 19.7071 7.29289C19.8946 7.48043 20 7.73478 20 8V16ZM16.71 9.29C16.617 9.19627 16.5064 9.12188 16.3846 9.07111C16.2627 9.02034 16.132 8.9942 16 8.9942C15.868 8.9942 15.7373 9.02034 15.6154 9.07111C15.4936 9.12188 15.383 9.19627 15.29 9.29L14 10.59L12.71 9.29C12.5217 9.1017 12.2663 8.99591 12 8.99591C11.7337 8.99591 11.4783 9.1017 11.29 9.29C11.1017 9.4783 10.9959 9.7337 10.9959 10C10.9959 10.2663 11.1017 10.5217 11.29 10.71L12.59 12L11.29 13.29C11.1963 13.383 11.1219 13.4936 11.0711 13.6154C11.0203 13.7373 10.9942 13.868 10.9942 14C10.9942 14.132 11.0203 14.2627 11.0711 14.3846C11.1219 14.5064 11.1963 14.617 11.29 14.71C11.383 14.8037 11.4936 14.8781 11.6154 14.9289C11.7373 14.9797 11.868 15.0058 12 15.0058C12.132 15.0058 12.2627 14.9797 12.3846 14.9289C12.5064 14.8781 12.617 14.8037 12.71 14.71L14 13.41L15.29 14.71C15.383 14.8037 15.4936 14.8781 15.6154 14.9289C15.7373 14.9797 15.868 15.0058 16 15.0058C16.132 15.0058 16.2627 14.9797 16.3846 14.9289C16.5064 14.8781 16.617 14.8037 16.71 14.71C16.8037 14.617 16.8781 14.5064 16.9289 14.3846C16.9797 14.2627 17.0058 14.132 17.0058 14C17.0058 13.868 16.9797 13.7373 16.9289 13.6154C16.8781 13.4936 16.8037 13.383 16.71 13.29L15.41 12L16.71 10.71C16.8037 10.617 16.8781 10.5064 16.9289 10.3846C16.9797 10.2627 17.0058 10.132 17.0058 10C17.0058 9.86799 16.9797 9.73728 16.9289 9.61542C16.8781 9.49356 16.8037 9.38296 16.71 9.29Z" fill="#080D11"/>
</svg>
