<svg width="24" height="24" viewBox="0 0 24 24" fill="none" xmlns="http://www.w3.org/2000/svg">
<path d="M21 9C20.4 9 20 8.6 20 8V5C20 4.4 19.6 4 19 4H16C15.4 4 15 3.6 15 3C15 2.4 15.4 2 16 2H19C20.7 2 22 3.3 22 5V8C22 8.6 21.6 9 21 9Z" fill="#080D11"/>
<path d="M5 22H8C8.6 22 9 21.6 9 21C9 20.4 8.6 20 8 20H5C4.4 20 4 19.6 4 19V16C4 15.4 3.6 15 3 15C2.4 15 2 15.4 2 16V19C2 20.7 3.3 22 5 22Z" fill="#080D11"/>
<path d="M16 22H19C20.7 22 22 20.7 22 19V16C22 15.4 21.6 15 21 15C20.4 15 20 15.4 20 16V19C20 19.6 19.6 20 19 20H16C15.4 20 15 20.4 15 21C15 21.6 15.4 22 16 22Z" fill="#080D11"/>
<path d="M2 8C2 8.6 2.4 9 3 9C3.6 9 4 8.6 4 8V5C4 4.4 4.4 4 5 4H8C8.6 4 9 3.6 9 3C9 2.4 8.6 2 8 2H5C3.3 2 2 3.3 2 5V8Z" fill="#080D11"/>
<path d="M19 11H5V13H19V11Z" fill="#080D11"/>
</svg>
