<svg width="24" height="24" viewBox="0 0 24 24" fill="none" xmlns="http://www.w3.org/2000/svg">
    <path
        d="M11.1716 9.53557C10.7811 9.92609 10.7811 10.5593 11.1716 10.9498L12.5858 12.364C12.9763 12.7545 13.6095 12.7545 14 12.364L16.8284 9.53557C17.219 9.14504 17.219 8.51188 16.8284 8.12136C16.4379 7.73083 15.8047 7.73083 15.4142 8.12136L13.2929 10.2427L12.5858 9.53557C12.1953 9.14504 11.5621 9.14504 11.1716 9.53557Z"
        fill="currentColor" />
    <path fill-rule="evenodd" clip-rule="evenodd"
        d="M10 2C8.34315 2 7 3.34315 7 5V15C7 16.6569 8.34315 18 10 18H18C19.6569 18 21 16.6569 21 15V5C21 3.34315 19.6569 2 18 2H10ZM18 4H10C9.44772 4 9 4.44772 9 5V15C9 15.5523 9.44772 16 10 16H18C18.5523 16 19 15.5523 19 15V5C19 4.44772 18.5523 4 18 4Z"
        fill="currentColor" />
    <path
        d="M8 20H16C16.2652 20 16.5196 20.1054 16.7071 20.2929C16.8946 20.4804 17 20.7348 17 21C17 21.2652 16.8946 21.5196 16.7071 21.7071C16.5196 21.8946 16.2652 22 16 22H8C6.67392 22 5.40215 21.4732 4.46447 20.5355C3.52678 19.5979 3 18.3261 3 17V7C3 6.73478 3.10536 6.48043 3.29289 6.29289C3.48043 6.10536 3.73478 6 4 6C4.26522 6 4.51957 6.10536 4.70711 6.29289C4.89464 6.48043 5 6.73478 5 7V17C5 17.7956 5.31607 18.5587 5.87868 19.1213C6.44129 19.6839 7.20435 20 8 20Z"
        fill="currentColor" />
</svg>