<svg width="36" height="16" viewBox="0 0 36 16" fill="none" xmlns="http://www.w3.org/2000/svg">
<g clip-path="url(#clip0_4014_20883)">
<path d="M0.170044 5.92903C0.170044 5.75 0.268455 5.65806 0.268455 5.47903C0.460095 4.4 0.941785 3.95 2.00358 3.77097C3.35024 3.5 4.70208 3.5 6.04874 3.67903C7.3954 3.85806 7.9755 4.57903 7.9755 5.75V6.29194H5.66545V6.2C5.56705 5.39194 5.37541 5.3 4.51044 5.3H3.54705C2.96695 5.39194 2.68208 5.57097 2.68208 6.2C2.68208 6.74194 2.87372 7.00806 3.54705 7.00806C4.12715 7.00806 4.70208 7.00806 5.28218 7.1L7.01729 7.37097C7.78904 7.55 8.17232 8.09194 8.27073 8.8129C8.27073 9.44194 8.27073 10.1629 8.17232 10.7919C8.07391 11.5129 7.59222 11.9629 6.91889 12.1419C6.33879 12.321 5.8571 12.4129 5.28218 12.5H3.54705C2.96695 12.4081 2.39203 12.4081 1.81193 12.321C0.946964 12.1419 0.366865 11.6 0.268455 10.7919C0.268455 10.7 0.170044 10.521 0.170044 10.4339V9.62097H2.48008C2.57849 10.429 2.77014 10.7 3.34506 10.7H5.08018C5.66028 10.7 5.85192 10.3419 5.85192 9.8C5.85192 9.25806 5.56187 8.99194 5.08018 8.99194C4.21521 8.9 3.25183 8.8129 2.38168 8.72097C1.12825 8.62903 0.553325 8.09194 0.356505 6.92097C0.356505 6.82903 0.258095 6.74194 0.258095 6.65C0.170045 6.37903 0.170044 6.2 0.170044 5.92903ZM18.8575 12.5V3.95C18.8575 3.59194 18.956 3.5 19.3392 3.5C20.9759 3.5 22.6127 3.5 24.2545 3.59194C25.9897 3.68387 26.8546 4.49194 26.953 6.1129C27.0515 6.83387 26.953 7.55484 26.8546 8.27097C26.663 9.35 25.7928 10.071 24.5446 10.071H21.266V12.4129C20.4943 12.5 19.6293 12.5 18.8575 12.5ZM21.266 8.09194H23.4828C24.0629 8.09194 24.2545 7.82097 24.2545 7.28387V6.38387C24.2545 5.75484 23.9645 5.48387 23.2912 5.39194H21.556C21.4576 5.39194 21.266 5.57097 21.266 5.57097V8.09194ZM25.8913 12.5C26.4714 10.6081 27.1447 8.62903 27.7196 6.74194C28.1029 5.6629 28.3929 4.58387 28.7814 3.5H32.4433C32.5417 3.5 32.7333 3.67903 32.7333 3.77097L35.3334 11.871C35.4318 12.05 35.5251 12.321 35.6235 12.5H33.0182C32.8266 12.05 32.7282 11.6 32.5365 11.15C32.4381 11.0581 32.3449 10.879 32.2465 10.879H29.1647C29.0663 10.879 28.8746 10.971 28.8746 11.0581C28.683 11.5081 28.5846 12.05 28.4862 12.5H25.8913ZM30.8066 5.39194H30.7082C30.3249 6.65 29.9364 8 29.5531 9.2629H32.06C31.6715 7.90806 31.1898 6.65 30.8066 5.39194Z" fill="#26367E"/>
<path d="M15.6773 11.0579C14.1338 11.0579 12.9788 10.4289 12.4971 9.43696H15.9673L16.3506 8.44502H12.1086V7.72889L16.4438 7.90793L16.9255 6.7418H12.3003C12.782 5.48373 14.0354 4.84986 15.6721 4.84986C16.3662 4.84502 17.0498 4.97083 17.6973 5.20793L18.0806 3.94986C17.6973 3.77083 16.8271 3.5918 15.5737 3.5918C12.9736 3.5918 10.9484 4.76276 10.2751 6.83373H9.12009L8.6384 7.82567H10.0835V8.62889H9.2185L8.6384 9.62083H10.2751C10.8604 11.4208 12.6939 12.4999 15.294 12.4999C16.5474 12.4999 17.5108 12.3208 17.8941 12.137L17.604 10.8789C17.2208 10.9708 16.449 11.0628 15.6773 11.0579Z" fill="#FCBD0C"/>
</g>
<defs>
<clipPath id="clip0_4014_20883">
<rect width="35.4534" height="16" fill="white" transform="translate(0.170044)"/>
</clipPath>
</defs>
</svg>
