<svg width="24" height="24" viewBox="0 0 24 24" fill="none" xmlns="http://www.w3.org/2000/svg">
<path d="M18 23C15.8 23 14 21.2 14 19C14 18.6 14.1 18.3 14.2 17.9L8.9 14.8C8.1 15.5 7.1 16 6 16C3.8 16 2 14.2 2 12C2 9.8 3.8 8 6 8C7.1 8 8.1 8.5 8.8 9.2L14.1 6.1C14.1 5.7 14 5.4 14 5C14 2.8 15.8 1 18 1C20.2 1 22 2.8 22 5C22 7.2 20.2 9 18 9C16.9 9 15.9 8.5 15.2 7.8L9.9 10.9C9.9 11.3 10 11.6 10 12C10 12.4 9.9 12.7 9.9 13.1L15.2 16.2C15.9 15.5 16.9 15 18 15C20.2 15 22 16.8 22 19C22 21.2 20.2 23 18 23ZM16.2 18.1C16.1 18.4 16 18.7 16 19C16 20.1 16.9 21 18 21C19.1 21 20 20.1 20 19C20 17.9 19.1 17 18 17C17.3 17 16.7 17.4 16.3 17.9C16.3 17.9 16.3 18 16.2 18.1ZM6 10C4.9 10 4 10.9 4 12C4 13.1 4.9 14 6 14C6.7 14 7.4 13.6 7.7 13C7.9 12.7 8 12.3 8 12C8 11.7 7.9 11.3 7.8 11C7.4 10.4 6.7 10 6 10ZM16.3 6C16.7 6.6 17.3 7 18 7C19.1 7 20 6.1 20 5C20 3.9 19.1 3 18 3C16.9 3 16 3.9 16 5C16 5.3 16.1 5.7 16.3 6Z" fill="#080D11"/>
</svg>
