<svg width="24" height="24" viewBox="0 0 24 24" fill="none" xmlns="http://www.w3.org/2000/svg">
<path d="M19.63 3.64994C19.5138 3.55596 19.3781 3.48922 19.2327 3.45461C19.0873 3.41999 18.9361 3.4184 18.79 3.44994C17.7214 3.67389 16.6183 3.67674 15.5486 3.45833C14.4789 3.23991 13.4653 2.80486 12.57 2.17994C12.4026 2.06381 12.2037 2.00159 12 2.00159C11.7963 2.00159 11.5974 2.06381 11.43 2.17994C10.5348 2.80486 9.52108 3.23991 8.45137 3.45833C7.38166 3.67674 6.27857 3.67389 5.21001 3.44994C5.06394 3.4184 4.91267 3.41999 4.76731 3.45461C4.62194 3.48922 4.48618 3.55596 4.37001 3.64994C4.25399 3.74406 4.16053 3.86298 4.0965 3.99796C4.03247 4.13294 3.9995 4.28055 4.00001 4.42994V11.8799C3.99912 13.3137 4.34078 14.7269 4.99654 16.0019C5.6523 17.2769 6.60319 18.3768 7.77001 19.2099L11.42 21.8099C11.5894 21.9305 11.7921 21.9953 12 21.9953C12.2079 21.9953 12.4106 21.9305 12.58 21.8099L16.23 19.2099C17.3968 18.3768 18.3477 17.2769 19.0035 16.0019C19.6592 14.7269 20.0009 13.3137 20 11.8799V4.42994C20.0005 4.28055 19.9675 4.13294 19.9035 3.99796C19.8395 3.86298 19.746 3.74406 19.63 3.64994ZM18 11.8799C18.0008 12.9947 17.7353 14.0935 17.2257 15.085C16.716 16.0764 15.977 16.9318 15.07 17.5799L12 19.7699L8.93001 17.5799C8.02304 16.9318 7.28399 16.0764 6.77435 15.085C6.26472 14.0935 5.99924 12.9947 6.00001 11.8799V5.57994C8.09643 5.75938 10.196 5.27297 12 4.18994C13.804 5.27297 15.9036 5.75938 18 5.57994V11.8799Z" fill="#080D11"/>
</svg>
