<svg width="24" height="24" viewBox="0 0 24 24" fill="none" xmlns="http://www.w3.org/2000/svg">
<path d="M17 11H5.41002L7.71002 8.71C7.80326 8.61676 7.87722 8.50607 7.92768 8.38425C7.97814 8.26243 8.00411 8.13186 8.00411 8C8.00411 7.86814 7.97814 7.73757 7.92768 7.61575C7.87722 7.49393 7.80326 7.38324 7.71002 7.29C7.61678 7.19676 7.50609 7.1228 7.38427 7.07234C7.26245 7.02188 7.13188 6.99591 7.00002 6.99591C6.86816 6.99591 6.73759 7.02188 6.61577 7.07234C6.49395 7.1228 6.38326 7.19676 6.29002 7.29L2.29002 11.29C2.19898 11.3851 2.12761 11.4972 2.08002 11.62C1.98 11.8635 1.98 12.1365 2.08002 12.38C2.12761 12.5028 2.19898 12.6149 2.29002 12.71L6.29002 16.71C6.38298 16.8037 6.49358 16.8781 6.61544 16.9289C6.7373 16.9797 6.86801 17.0058 7.00002 17.0058C7.13203 17.0058 7.26274 16.9797 7.3846 16.9289C7.50645 16.8781 7.61706 16.8037 7.71002 16.71C7.80375 16.617 7.87814 16.5064 7.92891 16.3846C7.97968 16.2627 8.00582 16.132 8.00582 16C8.00582 15.868 7.97968 15.7373 7.92891 15.6154C7.87814 15.4936 7.80375 15.383 7.71002 15.29L5.41002 13H17C17.2652 13 17.5196 12.8946 17.7071 12.7071C17.8947 12.5196 18 12.2652 18 12C18 11.7348 17.8947 11.4804 17.7071 11.2929C17.5196 11.1054 17.2652 11 17 11ZM21 4C20.7348 4 20.4804 4.10536 20.2929 4.29289C20.1054 4.48043 20 4.73478 20 5V19C20 19.2652 20.1054 19.5196 20.2929 19.7071C20.4804 19.8946 20.7348 20 21 20C21.2652 20 21.5196 19.8946 21.7071 19.7071C21.8947 19.5196 22 19.2652 22 19V5C22 4.73478 21.8947 4.48043 21.7071 4.29289C21.5196 4.10536 21.2652 4 21 4Z" fill="#080D11"/>
</svg>
