<svg width="24" height="24" viewBox="0 0 24 24" fill="none" xmlns="http://www.w3.org/2000/svg">
<path d="M7.00499 13L18.595 13L16.295 15.29C16.2017 15.3832 16.1278 15.4939 16.0773 15.6157C16.0269 15.7376 16.0009 15.8681 16.0009 16C16.0009 16.1319 16.0269 16.2624 16.0773 16.3842C16.1278 16.5061 16.2017 16.6168 16.295 16.71C16.3882 16.8032 16.4989 16.8772 16.6207 16.9277C16.7426 16.9781 16.8731 17.0041 17.005 17.0041C17.1368 17.0041 17.2674 16.9781 17.3892 16.9277C17.5111 16.8772 17.6217 16.8032 17.715 16.71L21.715 12.71C21.806 12.6149 21.8774 12.5028 21.925 12.38C22.025 12.1365 22.025 11.8635 21.925 11.62C21.8774 11.4972 21.806 11.3851 21.715 11.29L17.715 7.29C17.622 7.19627 17.5114 7.12188 17.3896 7.07111C17.2677 7.02034 17.137 6.9942 17.005 6.9942C16.873 6.9942 16.7423 7.02034 16.6204 7.07111C16.4986 7.12188 16.388 7.19627 16.295 7.29C16.2013 7.38296 16.1269 7.49356 16.0761 7.61542C16.0253 7.73728 15.9992 7.86799 15.9992 8C15.9992 8.13201 16.0253 8.26272 16.0761 8.38458C16.1269 8.50644 16.2013 8.61704 16.295 8.71L18.595 11L7.00499 11C6.73977 11 6.48542 11.1054 6.29788 11.2929C6.11034 11.4804 6.00499 11.7348 6.00499 12C6.00499 12.2652 6.11034 12.5196 6.29788 12.7071C6.48542 12.8946 6.73977 13 7.00499 13ZM3.00499 20C3.2702 20 3.52456 19.8946 3.71209 19.7071C3.89963 19.5196 4.00499 19.2652 4.00499 19L4.00499 5C4.00499 4.73478 3.89963 4.48043 3.71209 4.29289C3.52456 4.10535 3.2702 4 3.00499 4C2.73977 4 2.48542 4.10535 2.29788 4.29289C2.11034 4.48043 2.00499 4.73478 2.00499 5L2.00499 19C2.00499 19.2652 2.11034 19.5196 2.29788 19.7071C2.48541 19.8946 2.73977 20 3.00499 20Z" fill="#080D11"/>
</svg>
