<svg width="24" height="24" viewBox="0 0 24 24" fill="none" xmlns="http://www.w3.org/2000/svg">
<path d="M6.804 15C6.67139 14.7703 6.45297 14.6027 6.1968 14.5341C5.94063 14.4655 5.66768 14.5014 5.438 14.634L3.706 15.634C3.47819 15.7676 3.31246 15.9858 3.24496 16.2411C3.17747 16.4964 3.21369 16.768 3.34573 16.9967C3.47776 17.2254 3.69489 17.3926 3.94974 17.4617C4.20458 17.5309 4.47644 17.4965 4.706 17.366L6.438 16.366C6.66767 16.2334 6.83526 16.015 6.9039 15.7588C6.97254 15.5026 6.9366 15.2297 6.804 15ZM3.706 8.366L5.438 9.366C5.55177 9.4327 5.67761 9.47623 5.80827 9.4941C5.93894 9.51196 6.07185 9.50381 6.19935 9.4701C6.32685 9.43639 6.44642 9.3778 6.55118 9.29769C6.65594 9.21758 6.74382 9.11754 6.80976 9.00333C6.8757 8.88912 6.9184 8.76299 6.9354 8.63221C6.9524 8.50143 6.94336 8.36858 6.90881 8.24131C6.87426 8.11403 6.81487 7.99485 6.73407 7.89063C6.65327 7.7864 6.55265 7.69918 6.438 7.634L4.706 6.634C4.47644 6.50348 4.20458 6.46906 3.94974 6.53825C3.69489 6.60744 3.47776 6.77462 3.34573 7.00331C3.21369 7.23199 3.17747 7.50362 3.24496 7.75892C3.31246 8.01421 3.47819 8.23245 3.706 8.366ZM6 12C6 11.7348 5.89464 11.4804 5.70711 11.2929C5.51957 11.1054 5.26522 11 5 11H3C2.73478 11 2.48043 11.1054 2.29289 11.2929C2.10536 11.4804 2 11.7348 2 12C2 12.2652 2.10536 12.5196 2.29289 12.7071C2.48043 12.8946 2.73478 13 3 13H5C5.26522 13 5.51957 12.8946 5.70711 12.7071C5.89464 12.5196 6 12.2652 6 12ZM17.196 9C17.3286 9.22967 17.547 9.39726 17.8032 9.4659C18.0594 9.53454 18.3323 9.4986 18.562 9.366L20.294 8.366C20.4086 8.30082 20.5093 8.2136 20.5901 8.10937C20.6709 8.00515 20.7303 7.88597 20.7648 7.75869C20.7994 7.63142 20.8084 7.49857 20.7914 7.36779C20.7744 7.23701 20.7317 7.11088 20.6658 6.99667C20.5998 6.88246 20.5119 6.78242 20.4072 6.70231C20.3024 6.62221 20.1828 6.56361 20.0553 6.5299C19.9278 6.49619 19.7949 6.48804 19.6643 6.5059C19.5336 6.52377 19.4078 6.5673 19.294 6.634L17.562 7.634C17.3323 7.76661 17.1647 7.98503 17.0961 8.2412C17.0275 8.49737 17.0634 8.77032 17.196 9ZM15 6.804C15.2297 6.9366 15.5026 6.97254 15.7588 6.9039C16.015 6.83526 16.2334 6.66767 16.366 6.438L17.366 4.706C17.4327 4.59223 17.4762 4.46639 17.4941 4.33572C17.512 4.20506 17.5038 4.07215 17.4701 3.94465C17.4364 3.81715 17.3778 3.69758 17.2977 3.59282C17.2176 3.48806 17.1175 3.40018 17.0033 3.33424C16.8891 3.26829 16.763 3.2256 16.6322 3.2086C16.5014 3.1916 16.3686 3.20064 16.2413 3.23519C16.114 3.26974 15.9949 3.32913 15.8906 3.40993C15.7864 3.49073 15.6992 3.59135 15.634 3.706L14.634 5.438C14.5014 5.66768 14.4655 5.94063 14.5341 6.1968C14.6027 6.45297 14.7703 6.67139 15 6.804ZM20.294 15.634L18.562 14.634C18.4482 14.5673 18.3224 14.5238 18.1917 14.5059C18.0611 14.488 17.9282 14.4962 17.8007 14.5299C17.6732 14.5636 17.5536 14.6222 17.4488 14.7023C17.3441 14.7824 17.2562 14.8825 17.1902 14.9967C17.1243 15.1109 17.0816 15.237 17.0646 15.3678C17.0476 15.4986 17.0566 15.6314 17.0912 15.7587C17.1257 15.886 17.1851 16.0051 17.2659 16.1094C17.3467 16.2136 17.4474 16.3008 17.562 16.366L19.294 17.366C19.5236 17.4965 19.7954 17.5309 20.0503 17.4617C20.3051 17.3926 20.5222 17.2254 20.6543 16.9967C20.7863 16.768 20.8225 16.4964 20.755 16.2411C20.6875 15.9858 20.5218 15.7676 20.294 15.634ZM16.366 17.562C16.3008 17.4474 16.2136 17.3467 16.1094 17.2659C16.0051 17.1851 15.886 17.1257 15.7587 17.0912C15.6314 17.0566 15.4986 17.0476 15.3678 17.0646C15.237 17.0816 15.1109 17.1243 14.9967 17.1902C14.8825 17.2562 14.7824 17.3441 14.7023 17.4488C14.6222 17.5536 14.5636 17.6732 14.5299 17.8007C14.4962 17.9282 14.488 18.0611 14.5059 18.1917C14.5238 18.3224 14.5673 18.4482 14.634 18.562L15.634 20.294C15.6992 20.4086 15.7864 20.5093 15.8906 20.5901C15.9949 20.6709 16.114 20.7303 16.2413 20.7648C16.3686 20.7994 16.5014 20.8084 16.6322 20.7914C16.763 20.7744 16.8891 20.7317 17.0033 20.6658C17.1175 20.5998 17.2176 20.5119 17.2977 20.4072C17.3778 20.3024 17.4364 20.1828 17.4701 20.0553C17.5038 19.9278 17.512 19.7949 17.4941 19.6643C17.4762 19.5336 17.4327 19.4078 17.366 19.294L16.366 17.562ZM21 11H19C18.7348 11 18.4804 11.1054 18.2929 11.2929C18.1054 11.4804 18 11.7348 18 12C18 12.2652 18.1054 12.5196 18.2929 12.7071C18.4804 12.8946 18.7348 13 19 13H21C21.2652 13 21.5196 12.8946 21.7071 12.7071C21.8946 12.5196 22 12.2652 22 12C22 11.7348 21.8946 11.4804 21.7071 11.2929C21.5196 11.1054 21.2652 11 21 11ZM12 18C11.7348 18 11.4804 18.1054 11.2929 18.2929C11.1054 18.4804 11 18.7348 11 19V21C11 21.2652 11.1054 21.5196 11.2929 21.7071C11.4804 21.8946 11.7348 22 12 22C12.2652 22 12.5196 21.8946 12.7071 21.7071C12.8946 21.5196 13 21.2652 13 21V19C13 18.7348 12.8946 18.4804 12.7071 18.2929C12.5196 18.1054 12.2652 18 12 18ZM9 17.196C8.77032 17.0634 8.49737 17.0275 8.2412 17.0961C7.98503 17.1647 7.76661 17.3323 7.634 17.562L6.634 19.294C6.50348 19.5236 6.46906 19.7954 6.53825 20.0503C6.60744 20.3051 6.77462 20.5222 7.00331 20.6543C7.23199 20.7863 7.50362 20.8225 7.75892 20.755C8.01421 20.6875 8.23245 20.5218 8.366 20.294L9.366 18.562C9.4986 18.3323 9.53454 18.0594 9.4659 17.8032C9.39726 17.547 9.22967 17.3286 9 17.196ZM12 2C11.7348 2 11.4804 2.10536 11.2929 2.29289C11.1054 2.48043 11 2.73478 11 3V5C11 5.26522 11.1054 5.51957 11.2929 5.70711C11.4804 5.89464 11.7348 6 12 6C12.2652 6 12.5196 5.89464 12.7071 5.70711C12.8946 5.51957 13 5.26522 13 5V3C13 2.73478 12.8946 2.48043 12.7071 2.29289C12.5196 2.10536 12.2652 2 12 2Z" fill="#080D11"/>
</svg>
