<svg width="88" height="88" viewBox="0 0 88 88" fill="none" xmlns="http://www.w3.org/2000/svg">
<rect width="88" height="88" rx="44" fill="#E5EBF0"/>
<rect x="16" y="16" width="56" height="56" rx="28" fill="#F6F7F8"/>
<path d="M42.4365 51.8477C42.9406 51.9474 43.4632 52 44 52C48.4183 52 52 48.4183 52 44C52 39.5817 48.4183 36 44 36C43.4632 36 42.9406 36.0526 42.4365 36.1523L42.0484 34.1903C42.6796 34.0655 43.3321 34 44 34C49.5228 34 54 38.4772 54 44C54 49.5228 49.5228 54 44 54C43.3321 54 42.6796 53.9345 42.0484 53.8097L42.4365 51.8477Z" fill="#697E8D"/>
<path d="M38.4438 52.3157C37.3533 51.5856 36.4144 50.6467 35.6843 49.5562L37.3463 48.4435C37.9309 49.3168 38.6832 50.0691 39.5565 50.6537L38.4438 52.3157Z" fill="#697E8D"/>
<path d="M34.1903 45.9516C34.0655 45.3204 34 44.6679 34 44C34 43.3321 34.0655 42.6796 34.1903 42.0484L36.1523 42.4365C36.0526 42.9406 36 43.4632 36 44C36 44.5368 36.0526 45.0594 36.1523 45.5635L34.1903 45.9516Z" fill="#697E8D"/>
<path d="M35.6843 38.4438C36.4144 37.3533 37.3533 36.4144 38.4438 35.6843L39.5565 37.3463C38.6832 37.9309 37.9309 38.6832 37.3463 39.5565L35.6843 38.4438Z" fill="#697E8D"/>
<path d="M43.6173 39.0761C43.7386 39.0258 43.8687 39 44 39C44.1313 39 44.2614 39.0258 44.3827 39.0761C44.5041 39.1263 44.6143 39.2 44.7072 39.2928C44.8 39.3857 44.8737 39.4959 44.924 39.6173C44.9742 39.7386 45 39.8687 45 40V45C45 45.1313 44.9742 45.2614 44.924 45.3827C44.8737 45.5041 44.8 45.6143 44.7072 45.7072C44.6143 45.8 44.5041 45.8737 44.3827 45.9239C44.2614 45.9742 44.1313 46 44 46H41C40.7348 46 40.4804 45.8946 40.2929 45.7071C40.1054 45.5196 40 45.2652 40 45C40 44.7348 40.1054 44.4804 40.2929 44.2929C40.4804 44.1054 40.7348 44 41 44H43V40C43 39.8687 43.0258 39.7386 43.0761 39.6173C43.1263 39.4959 43.2 39.3857 43.2928 39.2928C43.3857 39.2 43.4959 39.1263 43.6173 39.0761Z" fill="#697E8D"/>
</svg>
