<svg width="88" height="88" viewBox="0 0 88 88" fill="none" xmlns="http://www.w3.org/2000/svg">
<rect width="88" height="88" rx="44" fill="#009AD6" fill-opacity="0.16"/>
<rect x="16" y="16" width="56" height="56" rx="28" fill="#009AD6"/>
<path d="M44 55C37.9 55 33 50.1 33 44C33 37.9 37.9 33 44 33C45.6 33 47.1 33.3 48.5 34C49 34.2 49.2 34.8 49 35.3C48.8 35.8 48.2 36 47.7 35.8C46.5 35.3 45.3 35 44 35C39 35 35 39 35 44C35 49 39 53 44 53C49 53 53 49 53 44V43.1C53 42.5 53.4 42.1 54 42.1C54.6 42.1 55 42.5 55 43.1V44C55 50.1 50.1 55 44 55ZM44 47C43.7 47 43.5 46.9 43.3 46.7L40.3 43.7C39.9 43.3 39.9 42.7 40.3 42.3C40.7 41.9 41.3 41.9 41.7 42.3L44 44.6L53.3 35.3C53.7 34.9 54.3 34.9 54.7 35.3C55.1 35.7 55.1 36.3 54.7 36.7L44.7 46.7C44.5 46.9 44.3 47 44 47Z" fill="white"/>
</svg>
