<svg width="88" height="88" viewBox="0 0 88 88" fill="none" xmlns="http://www.w3.org/2000/svg">
<rect width="88" height="88" rx="44" fill="#FF2E2E" fill-opacity="0.16"/>
<rect x="16" y="16" width="56" height="56" rx="28" fill="#E92424"/>
<path d="M44 48C43.8022 48 43.6089 48.0587 43.4444 48.1686C43.28 48.2784 43.1518 48.4346 43.0761 48.6173C43.0004 48.8001 42.9806 49.0011 43.0192 49.1951C43.0578 49.3891 43.153 49.5673 43.2929 49.7071C43.4327 49.847 43.6109 49.9422 43.8049 49.9808C43.9989 50.0194 44.2 49.9996 44.3827 49.9239C44.5654 49.8482 44.7216 49.72 44.8315 49.5556C44.9413 49.3911 45 49.1978 45 49C45 48.7348 44.8946 48.4805 44.7071 48.2929C44.5196 48.1054 44.2652 48 44 48ZM54.67 49.47L46.62 35.47C46.3598 35.0035 45.9798 34.615 45.5192 34.3445C45.0586 34.074 44.5341 33.9314 44 33.9314C43.4659 33.9314 42.9414 34.074 42.4808 34.3445C42.0202 34.615 41.6402 35.0035 41.38 35.47L33.38 49.47C33.1108 49.924 32.9661 50.441 32.9606 50.9688C32.9551 51.4966 33.089 52.0166 33.3487 52.4761C33.6084 52.9356 33.9847 53.3185 34.4397 53.5861C34.8947 53.8536 35.4122 53.9964 35.94 54H52.06C52.5921 54.0053 53.1159 53.8689 53.5779 53.6049C54.0399 53.341 54.4234 52.9589 54.689 52.4978C54.9546 52.0368 55.0928 51.5134 55.0895 50.9814C55.0862 50.4493 54.9414 49.9277 54.67 49.47ZM52.94 51.47C52.8523 51.626 52.7245 51.7556 52.5697 51.8453C52.4149 51.935 52.2389 51.9815 52.06 51.98H35.94C35.7611 51.9815 35.5851 51.935 35.4303 51.8453C35.2755 51.7556 35.1477 51.626 35.06 51.47C34.9722 51.318 34.926 51.1456 34.926 50.97C34.926 50.7945 34.9722 50.622 35.06 50.47L43.06 36.47C43.1439 36.3062 43.2714 36.1688 43.4284 36.0728C43.5855 35.9768 43.766 35.926 43.95 35.926C44.134 35.926 44.3145 35.9768 44.4716 36.0728C44.6286 36.1688 44.7561 36.3062 44.84 36.47L52.89 50.47C52.9892 50.6199 53.0462 50.7937 53.055 50.9732C53.0638 51.1527 53.0241 51.3312 52.94 51.49V51.47ZM44 40C43.7348 40 43.4804 40.1054 43.2929 40.2929C43.1054 40.4805 43 40.7348 43 41V45C43 45.2652 43.1054 45.5196 43.2929 45.7071C43.4804 45.8947 43.7348 46 44 46C44.2652 46 44.5196 45.8947 44.7071 45.7071C44.8946 45.5196 45 45.2652 45 45V41C45 40.7348 44.8946 40.4805 44.7071 40.2929C44.5196 40.1054 44.2652 40 44 40Z" fill="white"/>
</svg>
