<svg width="24" height="24" viewBox="0 0 24 24" fill="none" xmlns="http://www.w3.org/2000/svg">
<path fill-rule="evenodd" clip-rule="evenodd" d="M21.7 11.3C21.9 11.5 22 11.7 22 12C22 12.3 21.9 12.5 21.7 12.7L14.7 19.7C14.5058 19.8942 14.278 20 14 20C13.7482 20 13.4732 19.8732 13.3 19.7C13.2477 19.6477 13.2046 19.6076 13.169 19.5617C13 19.3438 13 18.9949 13 16.6L13 5C13 4.4 13.4 4 14 4C14.6 4 15 4.4 15 5L15 16.6L20.3 11.3C20.7 10.9 21.3 10.9 21.7 11.3ZM2.3 12.7C2.1 12.5 2 12.3 2 12C2 11.7 2.1 11.5 2.3 11.3L9.3 4.3C9.49423 4.10577 9.72203 4 10 4C10.2518 4 10.5268 4.1268 10.7 4.3C10.7523 4.35225 10.7954 4.39237 10.831 4.43832C11 4.65617 11 5.0051 11 7.4L11 19C11 19.6 10.6 20 10 20C9.4 20 9 19.6 9 19L9 7.4L3.7 12.7C3.3 13.1 2.7 13.1 2.3 12.7Z" fill="#080D11"/>
</svg>
