<svg width="24" height="24" viewBox="0 0 24 24" fill="none" xmlns="http://www.w3.org/2000/svg">
<path fill-rule="evenodd" clip-rule="evenodd" d="M12.7 2.3C12.5 2.1 12.3 2 12 2C11.7 2 11.5 2.1 11.3 2.3L4.3 9.3C4.10577 9.49423 4 9.72202 4 10C4 10.2518 4.1268 10.5268 4.3 10.7C4.35225 10.7523 4.39237 10.7954 4.43832 10.831C4.65617 11 5.0051 11 7.4 11H19C19.6 11 20 10.6 20 10C20 9.4 19.6 9 19 9H7.4L12.7 3.7C13.1 3.3 13.1 2.7 12.7 2.3ZM11.3 21.7C11.5 21.9 11.7 22 12 22C12.3 22 12.5 21.9 12.7 21.7L19.7 14.7C19.8942 14.5058 20 14.278 20 14C20 13.7482 19.8732 13.4732 19.7 13.3C19.6477 13.2477 19.6076 13.2046 19.5617 13.169C19.3438 13 18.9949 13 16.6 13H5C4.4 13 4 13.4 4 14C4 14.6 4.4 15 5 15H16.6L11.3 20.3C10.9 20.7 10.9 21.3 11.3 21.7Z" fill="#080D11"/>
</svg>
