<svg width="24" height="24" viewBox="0 0 24 24" fill="none" xmlns="http://www.w3.org/2000/svg">
<path d="M17.2159 18.21C17.1208 18.301 17.0086 18.3724 16.8859 18.42C16.6424 18.52 16.3693 18.52 16.1259 18.42C16.0031 18.3724 15.891 18.301 15.7959 18.21L12.7959 15.21C12.7022 15.117 12.6278 15.0064 12.577 14.8846C12.5262 14.7627 12.5001 14.632 12.5001 14.5C12.5001 14.368 12.5262 14.2373 12.577 14.1154C12.6278 13.9936 12.7022 13.883 12.7959 13.79C12.8889 13.6963 12.9995 13.6219 13.1213 13.5711C13.2432 13.5203 13.3739 13.4942 13.5059 13.4942C13.6379 13.4942 13.7686 13.5203 13.8905 13.5711C14.0123 13.6219 14.1229 13.6963 14.2159 13.79L15.5059 15.09V7.5C15.5059 7.23478 15.4005 6.98043 15.213 6.79289C15.0255 6.60536 14.7711 6.5 14.5059 6.5H13.5059C13.2407 6.5 12.9863 6.39464 12.7988 6.20711C12.6112 6.01957 12.5059 5.76522 12.5059 5.5C12.5059 5.23478 12.6112 4.98043 12.7988 4.79289C12.9863 4.60536 13.2407 4.5 13.5059 4.5H14.5059C15.3015 4.5 16.0646 4.81607 16.6272 5.37868C17.1898 5.94129 17.5059 6.70435 17.5059 7.5V15.09L18.7959 13.79C18.9842 13.6017 19.2396 13.4959 19.5059 13.4959C19.6377 13.4959 19.7683 13.5219 19.8901 13.5723C20.012 13.6228 20.1226 13.6968 20.2159 13.79C20.4042 13.9783 20.51 14.2337 20.51 14.5C20.51 14.6319 20.484 14.7624 20.4335 14.8842C20.3831 15.0061 20.3091 15.1168 20.2159 15.21L17.2159 18.21Z" fill="#080D11"/>
<path d="M6.78408 5.78548C6.87919 5.69444 6.99133 5.62308 7.11408 5.57548C7.35754 5.47547 7.63062 5.47547 7.87408 5.57548C7.99683 5.62308 8.10898 5.69444 8.20408 5.78548L11.2041 8.78548C11.2978 8.87845 11.3722 8.98905 11.423 9.11091C11.4737 9.23277 11.4999 9.36347 11.4999 9.49548C11.4999 9.62749 11.4737 9.7582 11.423 9.88006C11.3722 10.0019 11.2978 10.1125 11.2041 10.2055C11.1111 10.2992 11.0005 10.3736 10.8787 10.4244C10.7568 10.4751 10.6261 10.5013 10.4941 10.5013C10.3621 10.5013 10.2314 10.4751 10.1095 10.4244C9.98765 10.3736 9.87705 10.2992 9.78408 10.2055L8.49408 8.90548V16.4955C8.49408 16.7607 8.59944 17.0151 8.78698 17.2026C8.97451 17.3901 9.22887 17.4955 9.49408 17.4955H10.4941C10.7593 17.4955 11.0137 17.6008 11.2012 17.7884C11.3887 17.9759 11.4941 18.2303 11.4941 18.4955C11.4941 18.7607 11.3887 19.0151 11.2012 19.2026C11.0137 19.3901 10.7593 19.4955 10.4941 19.4955H9.49408C8.69843 19.4955 7.93537 19.1794 7.37276 18.6168C6.81015 18.0542 6.49408 17.2911 6.49408 16.4955L6.49408 8.90548L5.20408 10.2055C5.01578 10.3938 4.76038 10.4996 4.49408 10.4996C4.36222 10.4996 4.23165 10.4736 4.10983 10.4231C3.98801 10.3727 3.87732 10.2987 3.78408 10.2055C3.59578 10.0172 3.48999 9.76179 3.48999 9.49548C3.48999 9.36362 3.51596 9.23306 3.56642 9.11123C3.61688 8.98941 3.69084 8.87872 3.78408 8.78548L6.78408 5.78548Z" fill="#080D11"/>
</svg>
