<svg width="24" height="24" viewBox="0 0 24 24" fill="none" xmlns="http://www.w3.org/2000/svg">
<path d="M7.41783 15.5189C7.23158 15.7063 7.12704 15.9597 7.12704 16.2239C7.12704 16.4881 7.23158 16.7415 7.41783 16.9289C7.51079 17.0226 7.62139 17.097 7.74325 17.1478C7.86511 17.1986 7.99582 17.2247 8.12783 17.2247C8.25984 17.2247 8.39055 17.1986 8.5124 17.1478C8.63426 17.097 8.74486 17.0226 8.83783 16.9289C9.02408 16.7415 9.12862 16.4881 9.12862 16.2239C9.12862 15.9597 9.02408 15.7063 8.83783 15.5189C8.74486 15.4252 8.63426 15.3508 8.5124 15.3C8.39055 15.2492 8.25984 15.2231 8.12783 15.2231C7.99582 15.2231 7.86511 15.2492 7.74325 15.3C7.62139 15.3508 7.51079 15.4252 7.41783 15.5189ZM7.41783 7.0289C7.23158 7.21626 7.12704 7.46971 7.12704 7.7339C7.12704 7.99808 7.23158 8.25154 7.41783 8.4389C7.51079 8.53263 7.62139 8.60702 7.74325 8.65779C7.86511 8.70856 7.99582 8.7347 8.12783 8.7347C8.25984 8.7347 8.39055 8.70856 8.5124 8.65779C8.63426 8.60702 8.74486 8.53263 8.83783 8.4389C9.02408 8.25154 9.12862 7.99808 9.12862 7.7339C9.12862 7.46971 9.02408 7.21626 8.83783 7.0289C8.74486 6.93517 8.63426 6.86078 8.5124 6.81001C8.39055 6.75924 8.25984 6.7331 8.12783 6.7331C7.99582 6.7331 7.86511 6.75924 7.74325 6.81001C7.62139 6.86078 7.51079 6.93517 7.41783 7.0289ZM12.3678 17.0289C12.17 17.0289 11.9767 17.0875 11.8123 17.1974C11.6478 17.3073 11.5196 17.4635 11.4439 17.6462C11.3683 17.8289 11.3485 18.03 11.387 18.224C11.4256 18.418 11.5209 18.5962 11.6607 18.736C11.8006 18.8759 11.9788 18.9711 12.1727 19.0097C12.3667 19.0483 12.5678 19.0285 12.7505 18.9528C12.9332 18.8771 13.0894 18.7489 13.1993 18.5845C13.3092 18.42 13.3678 18.2267 13.3678 18.0289C13.3746 17.8934 13.3538 17.758 13.3066 17.6308C13.2593 17.5037 13.1868 17.3875 13.0932 17.2892C12.9997 17.191 12.8871 17.1129 12.7624 17.0595C12.6377 17.0062 12.5035 16.9787 12.3678 16.9789V17.0289ZM6.36783 11.0289C6.17005 11.0289 5.97671 11.0875 5.81226 11.1974C5.64781 11.3073 5.51964 11.4635 5.44395 11.6462C5.36826 11.8289 5.34846 12.03 5.38704 12.224C5.42563 12.418 5.52087 12.5962 5.66072 12.736C5.80057 12.8759 5.97876 12.9711 6.17274 13.0097C6.36672 13.0483 6.56779 13.0285 6.75051 12.9528C6.93324 12.8771 7.08942 12.7489 7.1993 12.5845C7.30918 12.42 7.36783 12.2267 7.36783 12.0289C7.37461 11.8934 7.35376 11.758 7.30655 11.6308C7.25934 11.5037 7.18676 11.3875 7.09322 11.2892C6.99967 11.191 6.88713 11.1129 6.76242 11.0595C6.63772 11.0062 6.50347 10.9787 6.36783 10.9789V11.0289ZM12.3678 5.0289C12.17 5.0289 11.9767 5.08755 11.8123 5.19743C11.6478 5.30731 11.5196 5.46349 11.4439 5.64621C11.3683 5.82894 11.3485 6.03001 11.387 6.22399C11.4256 6.41797 11.5209 6.59615 11.6607 6.73601C11.8006 6.87586 11.9788 6.9711 12.1727 7.00968C12.3667 7.04827 12.5678 7.02847 12.7505 6.95278C12.9332 6.87709 13.0894 6.74892 13.1993 6.58447C13.3092 6.42002 13.3678 6.22668 13.3678 6.0289C13.3746 5.89343 13.3538 5.758 13.3066 5.63084C13.2593 5.50369 13.1868 5.38746 13.0932 5.28924C12.9997 5.19102 12.8871 5.11286 12.7624 5.05951C12.6377 5.00615 12.5035 4.97873 12.3678 4.9789V5.0289ZM15.9078 7.0789C15.7674 7.21851 15.6715 7.39668 15.6325 7.59083C15.5934 7.78497 15.6129 7.98634 15.6884 8.16941C15.7639 8.35249 15.8921 8.50902 16.0566 8.61916C16.2212 8.72931 16.4148 8.78811 16.6128 8.78811C16.8109 8.78811 17.0044 8.72931 17.169 8.61916C17.3336 8.50902 17.4618 8.35249 17.5373 8.16941C17.6128 7.98634 17.6322 7.78497 17.5932 7.59083C17.5541 7.39668 17.4583 7.21851 17.3178 7.0789C17.1372 6.88585 16.8874 6.77222 16.6231 6.76285C16.3589 6.75348 16.1017 6.84914 15.9078 7.0289V7.0789ZM22.2078 7.0789C21.2936 5.2512 19.8882 3.71432 18.1494 2.6406C16.4106 1.56688 14.407 0.998781 12.3634 1C10.3198 1.00122 8.31695 1.57172 6.57941 2.64751C4.84188 3.72331 3.43838 5.26187 2.52631 7.09066C1.61423 8.91945 1.22965 10.9662 1.41567 13.0013C1.6017 15.0364 2.35098 16.9795 3.5795 18.6126C4.80801 20.2458 6.46719 21.5044 8.37097 22.2473C10.2747 22.9903 12.3479 23.1882 14.3578 22.8189C14.8633 22.7238 15.3447 22.5289 15.7739 22.2456C16.2032 21.9623 16.5717 21.5963 16.8578 21.1689C17.1662 20.7043 17.3789 20.1829 17.4837 19.6352C17.5884 19.0876 17.583 18.5245 17.4678 17.9789C17.4049 17.6492 17.3714 17.3145 17.3678 16.9789C17.3722 16.0099 17.6581 15.063 18.1907 14.2534C18.7233 13.4439 19.4797 12.8065 20.3678 12.4189C20.8467 12.2045 21.2765 11.8942 21.6308 11.5072C21.9851 11.1203 22.2564 10.6648 22.4278 10.1689C22.6012 9.66218 22.6711 9.12581 22.6333 8.59158C22.5955 8.05736 22.4508 7.53616 22.2078 7.0589V7.0789ZM20.5078 9.5189C20.4225 9.75822 20.29 9.97799 20.1183 10.1652C19.9465 10.3524 19.7389 10.5033 19.5078 10.6089C18.2778 11.1595 17.2329 12.0534 16.4985 13.1834C15.7641 14.3134 15.3715 15.6313 15.3678 16.9789C15.3693 17.449 15.4162 17.9178 15.5078 18.3789C15.5689 18.6607 15.5729 18.9519 15.5197 19.2353C15.4665 19.5186 15.357 19.7885 15.1978 20.0289C15.0631 20.2393 14.8859 20.4192 14.6775 20.557C14.4691 20.6947 14.2342 20.7874 13.9878 20.8289C13.4537 20.9293 12.9113 20.9795 12.3678 20.9789C11.162 20.9795 9.96834 20.7377 8.85775 20.268C7.74716 19.7983 6.74228 19.1103 5.90279 18.2446C5.0633 17.379 4.40631 16.3536 3.97084 15.2291C3.53538 14.1046 3.33031 12.9041 3.36783 11.6989C3.44544 9.45169 4.35683 7.31385 5.92446 5.70186C7.49208 4.08987 9.60366 3.11918 11.8478 2.9789H12.3578C14.0336 2.97932 15.6759 3.44759 17.0999 4.33096C18.524 5.21434 19.673 6.47775 20.4178 7.9789C20.6471 8.45388 20.6794 9.00018 20.5078 9.4989V9.5189ZM12.3678 10.9789C12.17 10.9789 11.9767 11.0375 11.8123 11.1474C11.6478 11.2573 11.5196 11.4135 11.4439 11.5962C11.3683 11.7789 11.3485 11.98 11.387 12.174C11.4256 12.368 11.5209 12.5462 11.6607 12.686C11.8006 12.8259 11.9788 12.9211 12.1727 12.9597C12.3667 12.9983 12.5678 12.9785 12.7505 12.9028C12.9332 12.8271 13.0894 12.6989 13.1993 12.5345C13.3092 12.37 13.3678 12.1767 13.3678 11.9789C13.3678 11.7137 13.2625 11.4593 13.0749 11.2718C12.8874 11.0843 12.633 10.9789 12.3678 10.9789Z" fill="#080D11"/>
</svg>
