<svg width="24" height="24" viewBox="0 0 24 24" fill="none" xmlns="http://www.w3.org/2000/svg">
<path d="M2.3361 15.58L6.8561 11.07C6.7615 10.6094 6.71459 10.1402 6.7161 9.67001C6.71645 8.38066 7.04182 7.1122 7.66215 5.98189C8.28249 4.85158 9.17775 3.89588 10.2652 3.20315C11.3526 2.51041 12.5972 2.10299 13.8837 2.01855C15.1703 1.9341 16.4574 2.17535 17.6261 2.72001C17.7742 2.78764 17.9035 2.8904 18.0028 3.01936C18.1021 3.14832 18.1685 3.29958 18.1961 3.46001C18.2236 3.61839 18.2125 3.78107 18.1638 3.93426C18.115 4.08745 18.0301 4.22663 17.9161 4.34001L13.5661 8.68001L15.3661 10.48L19.7061 6.13001C19.8204 6.01781 19.96 5.93472 20.1132 5.88773C20.2663 5.84075 20.4285 5.83124 20.5861 5.86001C20.7455 5.8866 20.8961 5.95144 21.025 6.04897C21.1539 6.1465 21.2572 6.27381 21.3261 6.42001C21.8726 7.59251 22.1136 8.88419 22.0268 10.1749C21.94 11.4656 21.5282 12.7133 20.8296 13.8021C20.131 14.8908 19.1684 15.7852 18.0314 16.4021C16.8943 17.0189 15.6197 17.3381 14.3261 17.33C13.8559 17.3315 13.3867 17.2846 12.9261 17.19L8.4161 21.71C8.32313 21.8037 8.21253 21.8781 8.09067 21.9289C7.96881 21.9797 7.83811 22.0058 7.7061 22.0058C7.57409 22.0058 7.44338 21.9797 7.32152 21.9289C7.19966 21.8781 7.08906 21.8037 6.9961 21.71C6.90237 21.617 6.82797 21.5064 6.77721 21.3846C6.72644 21.2627 6.7003 21.132 6.7003 21C6.7003 20.868 6.72644 20.7373 6.77721 20.6154C6.82797 20.4936 6.90237 20.383 6.9961 20.29L11.8961 15.39C12.0185 15.2684 12.1704 15.1805 12.3369 15.1349C12.5033 15.0894 12.6788 15.0877 12.8461 15.13C13.3289 15.2593 13.8263 15.3265 14.3261 15.33C15.074 15.3366 15.8159 15.1951 16.509 14.9138C17.202 14.6324 17.8325 14.2167 18.3642 13.6906C18.8959 13.1645 19.3182 12.5384 19.6069 11.8484C19.8955 11.1583 20.0448 10.418 20.0461 9.67001C20.0474 9.33502 20.0206 9.00052 19.9661 8.67001L16.0461 12.6C15.9531 12.6937 15.8425 12.7681 15.7207 12.8189C15.5988 12.8697 15.4681 12.8958 15.3361 12.8958C15.2041 12.8958 15.0734 12.8697 14.9515 12.8189C14.8297 12.7681 14.7191 12.6937 14.6261 12.6L11.4461 9.39001C11.2659 9.20354 11.1651 8.95434 11.1651 8.695C11.1651 8.43567 11.2659 8.18647 11.4461 8.00001L15.3361 4.08001C15.0055 4.02602 14.6711 3.99926 14.3361 4.00001C12.8341 4.00265 11.3944 4.6012 10.3333 5.66424C9.2721 6.72729 8.6761 8.16796 8.6761 9.67001C8.67959 10.1698 8.7468 10.6672 8.8761 11.15C8.91843 11.3173 8.91673 11.4928 8.87117 11.6592C8.82561 11.8257 8.73773 11.9776 8.6161 12.1L3.7161 17C3.5278 17.1883 3.2724 17.2941 3.0061 17.2941C2.7398 17.2941 2.4844 17.1883 2.2961 17C2.1078 16.8117 2.00201 16.5563 2.00201 16.29C2.00201 16.0237 2.1078 15.7683 2.2961 15.58H2.3361Z" fill="#080D11"/>
</svg>
