<svg width="24" height="25" viewBox="0 0 24 25" fill="none" xmlns="http://www.w3.org/2000/svg">
<path d="M8.71 8.2099L11 5.9099V15.4999C11 15.7651 11.1054 16.0195 11.2929 16.207C11.4804 16.3945 11.7348 16.4999 12 16.4999C12.2652 16.4999 12.5196 16.3945 12.7071 16.207C12.8946 16.0195 13 15.7651 13 15.4999V5.9099L15.29 8.2099C15.383 8.30363 15.4936 8.37802 15.6154 8.42879C15.7373 8.47956 15.868 8.50569 16 8.50569C16.132 8.50569 16.2627 8.47956 16.3846 8.42879C16.5064 8.37802 16.617 8.30363 16.71 8.2099C16.8037 8.11693 16.8781 8.00633 16.9289 7.88447C16.9797 7.76261 17.0058 7.63191 17.0058 7.4999C17.0058 7.36788 16.9797 7.23718 16.9289 7.11532C16.8781 6.99346 16.8037 6.88286 16.71 6.7899L12.71 2.7899C12.6149 2.69886 12.5028 2.62749 12.38 2.5799C12.1365 2.47988 11.8635 2.47988 11.62 2.5799C11.4972 2.62749 11.3851 2.69886 11.29 2.7899L7.29 6.7899C7.19676 6.88313 7.1228 6.99383 7.07234 7.11565C7.02188 7.23747 6.99591 7.36804 6.99591 7.4999C6.99591 7.63176 7.02188 7.76232 7.07234 7.88415C7.1228 8.00597 7.19676 8.11666 7.29 8.2099C7.38324 8.30313 7.49393 8.3771 7.61575 8.42756C7.73757 8.47802 7.86814 8.50399 8 8.50399C8.13186 8.50399 8.26243 8.47802 8.38425 8.42756C8.50607 8.3771 8.61676 8.30313 8.71 8.2099ZM21 12.4999C20.7348 12.4999 20.4804 12.6053 20.2929 12.7928C20.1054 12.9803 20 13.2347 20 13.4999V19.4999C20 19.7651 19.8946 20.0195 19.7071 20.207C19.5196 20.3945 19.2652 20.4999 19 20.4999H5C4.73478 20.4999 4.48043 20.3945 4.29289 20.207C4.10536 20.0195 4 19.7651 4 19.4999V13.4999C4 13.2347 3.89464 12.9803 3.70711 12.7928C3.51957 12.6053 3.26522 12.4999 3 12.4999C2.73478 12.4999 2.48043 12.6053 2.29289 12.7928C2.10536 12.9803 2 13.2347 2 13.4999V19.4999C2 20.2955 2.31607 21.0586 2.87868 21.6212C3.44129 22.1838 4.20435 22.4999 5 22.4999H19C19.7956 22.4999 20.5587 22.1838 21.1213 21.6212C21.6839 21.0586 22 20.2955 22 19.4999V13.4999C22 13.2347 21.8946 12.9803 21.7071 12.7928C21.5196 12.6053 21.2652 12.4999 21 12.4999Z" fill="black"/>
</svg>

