<svg width="42" height="16" viewBox="0 0 42 16" fill="none" xmlns="http://www.w3.org/2000/svg">
<g clip-path="url(#clip0_4014_21043)">
<path d="M27.138 1.25C24.1798 1.25 21.536 2.78355 21.536 5.61626C21.536 8.8652 26.2247 9.08958 26.2247 10.722C26.2247 11.4093 25.4373 12.0245 24.0918 12.0245C22.1829 12.0245 20.7561 11.1649 20.7561 11.1649L20.1455 14.0239C20.1455 14.0239 21.7892 14.75 23.9713 14.75C27.2056 14.75 29.751 13.1414 29.751 10.2599C29.751 6.82659 25.0427 6.60888 25.0427 5.09409C25.0427 4.55566 25.6892 3.96593 27.0304 3.96593C28.544 3.96593 29.7785 4.59111 29.7785 4.59111L30.3761 1.83014C30.3761 1.83014 29.0324 1.25 27.1376 1.25H27.138ZM0.0717353 1.45853L0 1.87518C0 1.87518 1.24452 2.1029 2.3656 2.5575C3.80906 3.07842 3.91166 3.38204 4.15481 4.32377L6.80359 14.5348H10.3545L15.8247 1.45853H12.2822L8.76714 10.3491L7.33285 2.81275C7.20147 1.95025 6.535 1.45812 5.71964 1.45812H0.0721524L0.0717353 1.45853ZM17.2494 1.45853L14.4705 14.5348H17.8487L20.6176 1.45853H17.2494ZM36.0908 1.45853C35.2762 1.45853 34.8446 1.89478 34.528 2.65676L29.5787 14.5348H33.1213L33.8065 12.555H38.1223L38.539 14.5348H41.6649L38.9381 1.45853H36.0908ZM36.5516 4.9915L37.6018 9.89827H34.7887L36.5521 4.9915H36.5516Z" fill="#1434CB"/>
</g>
<defs>
<clipPath id="clip0_4014_21043">
<rect width="41.6649" height="16" fill="white"/>
</clipPath>
</defs>
</svg>
