<svg width="25" height="24" viewBox="0 0 25 24" fill="none" xmlns="http://www.w3.org/2000/svg">
<g clip-path="url(#clip0_7491_1276)">
<path d="M12.5 23C6.4 23 1.5 18.1 1.5 12C1.5 5.9 6.4 1 12.5 1C18.6 1 23.5 5.9 23.5 12C23.5 18.1 18.6 23 12.5 23ZM17.4 13C17.2 15.8 16.2 18.4 14.7 20.7C18.3 19.8 21 16.7 21.4 13H17.4ZM3.6 13C4 16.7 6.7 19.8 10.3 20.7C8.7 18.4 7.8 15.8 7.5 13H3.6ZM9.6 13C9.8 15.7 10.9 18.3 12.5 20.4C14.2 18.2 15.2 15.7 15.4 13H9.6ZM17.5 11H21.5C21.1 7.3 18.4 4.2 14.8 3.3C16.3 5.6 17.2 8.2 17.5 11ZM9.6 11H15.5C15.3 8.3 14.2 5.7 12.6 3.6C10.8 5.7 9.8 8.3 9.6 11ZM3.6 11H7.6C7.8 8.2 8.8 5.6 10.3 3.3C6.7 4.2 4 7.3 3.6 11Z" fill="#080D11"/>
</g>
<defs>
<clipPath id="clip0_7491_1276">
<rect width="24" height="24" fill="white" transform="translate(0.5)"/>
</clipPath>
</defs>
</svg>
