<svg width="18" height="18" viewBox="0 0 18 18" fill="none" xmlns="http://www.w3.org/2000/svg">
<g clip-path="url(#clip0_1402_2230)">
<path d="M15 17.25H8.25C6.975 17.25 6 16.275 6 15V8.25C6 6.975 6.975 6 8.25 6H15C16.275 6 17.25 6.975 17.25 8.25V15C17.25 16.275 16.275 17.25 15 17.25ZM8.25 7.5C7.8 7.5 7.5 7.8 7.5 8.25V15C7.5 15.45 7.8 15.75 8.25 15.75H15C15.45 15.75 15.75 15.45 15.75 15V8.25C15.75 7.8 15.45 7.5 15 7.5H8.25ZM3.75 12H3C1.725 12 0.75 11.025 0.75 9.75V3C0.75 1.725 1.725 0.75 3 0.75H9.75C11.025 0.75 12 1.725 12 3V3.75C12 4.2 11.7 4.5 11.25 4.5C10.8 4.5 10.5 4.2 10.5 3.75V3C10.5 2.55 10.2 2.25 9.75 2.25H3C2.55 2.25 2.25 2.55 2.25 3V9.75C2.25 10.2 2.55 10.5 3 10.5H3.75C4.2 10.5 4.5 10.8 4.5 11.25C4.5 11.7 4.2 12 3.75 12Z" fill="#080D11"/>
</g>
<defs>
<clipPath id="clip0_1402_2230">
<rect width="18" height="18" fill="white"/>
</clipPath>
</defs>
</svg>
